<?xml version="1.0" encoding="UTF-8"?>
<svg  xmlns="http://www.w3.org/2000/svg" xmlns:xlink="http://www.w3.org/1999/xlink" xmlns:go="http://purl.org/svgmap/profile" viewBox="13900.0 -3600.0 100.0 66.66666819999989" go:dataArea="13900.0 -3600.0 100.0 66.66666819999989" >
<metadata>
 <rdf:RDF xmlns:rdf="http://www.w3.org/1999/02/22-rdf-syntax-ns#" xmlns:crs="http://opengis.org/xmldtds/transformations.dtd" xmlns:svg="http://www.w3.org/svg" >
  <rdf:Description>
   <crs:CoordinateReferenceSystem rdf:resource="http://purl.org/crs/84" svg:transform="matrix(100.0,0.0,0.0,-100.0,0.0,0.0)" />
  </rdf:Description>
 </rdf:RDF>
</metadata>
<globalCoordinateSystem srsName="http://purl.org/crs/84" transform="matrix(100.0,0.0,0.0,-100.0,0.0,0.0)" />
<g >
<image xlink:href="tile48_28.png" preserveAspectRatio="none" x="13952.636719" y="-3569.458008" width="1.098633" height="1.098633"/>
<image xlink:href="tile48_27.png" preserveAspectRatio="none" x="13952.636719" y="-3570.556641" width="1.098633" height="1.098633"/>
<image xlink:href="tile48_26.png" preserveAspectRatio="none" x="13952.636719" y="-3571.655273" width="1.098633" height="1.098633"/>
<image xlink:href="tile48_25.png" preserveAspectRatio="none" x="13952.636719" y="-3572.753906" width="1.098633" height="1.098633"/>
<image xlink:href="tile48_24.png" preserveAspectRatio="none" x="13952.636719" y="-3573.852539" width="1.098633" height="1.098633"/>
<image xlink:href="tile48_23.png" preserveAspectRatio="none" x="13952.636719" y="-3574.951172" width="1.098633" height="1.098633"/>
<image xlink:href="tile48_13.png" preserveAspectRatio="none" x="13952.636719" y="-3585.9375" width="1.098633" height="1.098633"/>
<image xlink:href="tile49_28.png" preserveAspectRatio="none" x="13953.735352" y="-3569.458008" width="1.098633" height="1.098633"/>
<image xlink:href="tile49_27.png" preserveAspectRatio="none" x="13953.735352" y="-3570.556641" width="1.098633" height="1.098633"/>
<image xlink:href="tile49_26.png" preserveAspectRatio="none" x="13953.735352" y="-3571.655273" width="1.098633" height="1.098633"/>
<image xlink:href="tile49_25.png" preserveAspectRatio="none" x="13953.735352" y="-3572.753906" width="1.098633" height="1.098633"/>
<image xlink:href="tile49_24.png" preserveAspectRatio="none" x="13953.735352" y="-3573.852539" width="1.098633" height="1.098633"/>
<image xlink:href="tile49_23.png" preserveAspectRatio="none" x="13953.735352" y="-3574.951172" width="1.098633" height="1.098633"/>
<image xlink:href="tile49_22.png" preserveAspectRatio="none" x="13953.735352" y="-3576.049805" width="1.098633" height="1.098633"/>
<image xlink:href="tile49_14.png" preserveAspectRatio="none" x="13953.735352" y="-3584.838867" width="1.098633" height="1.098633"/>
<image xlink:href="tile49_13.png" preserveAspectRatio="none" x="13953.735352" y="-3585.9375" width="1.098633" height="1.098633"/>
<image xlink:href="tile50_28.png" preserveAspectRatio="none" x="13954.833984" y="-3569.458008" width="1.098633" height="1.098633"/>
<image xlink:href="tile50_27.png" preserveAspectRatio="none" x="13954.833984" y="-3570.556641" width="1.098633" height="1.098633"/>
<image xlink:href="tile50_26.png" preserveAspectRatio="none" x="13954.833984" y="-3571.655273" width="1.098633" height="1.098633"/>
<image xlink:href="tile50_25.png" preserveAspectRatio="none" x="13954.833984" y="-3572.753906" width="1.098633" height="1.098633"/>
<image xlink:href="tile50_24.png" preserveAspectRatio="none" x="13954.833984" y="-3573.852539" width="1.098633" height="1.098633"/>
<image xlink:href="tile50_23.png" preserveAspectRatio="none" x="13954.833984" y="-3574.951172" width="1.098633" height="1.098633"/>
<image xlink:href="tile50_22.png" preserveAspectRatio="none" x="13954.833984" y="-3576.049805" width="1.098633" height="1.098633"/>
<image xlink:href="tile50_16.png" preserveAspectRatio="none" x="13954.833984" y="-3582.641602" width="1.098633" height="1.098633"/>
<image xlink:href="tile50_15.png" preserveAspectRatio="none" x="13954.833984" y="-3583.740234" width="1.098633" height="1.098633"/>
<image xlink:href="tile50_14.png" preserveAspectRatio="none" x="13954.833984" y="-3584.838867" width="1.098633" height="1.098633"/>
<image xlink:href="tile50_13.png" preserveAspectRatio="none" x="13954.833984" y="-3585.9375" width="1.098633" height="1.098633"/>
<image xlink:href="tile51_28.png" preserveAspectRatio="none" x="13955.932617" y="-3569.458008" width="1.098633" height="1.098633"/>
<image xlink:href="tile51_27.png" preserveAspectRatio="none" x="13955.932617" y="-3570.556641" width="1.098633" height="1.098633"/>
<image xlink:href="tile51_26.png" preserveAspectRatio="none" x="13955.932617" y="-3571.655273" width="1.098633" height="1.098633"/>
<image xlink:href="tile51_25.png" preserveAspectRatio="none" x="13955.932617" y="-3572.753906" width="1.098633" height="1.098633"/>
<image xlink:href="tile51_24.png" preserveAspectRatio="none" x="13955.932617" y="-3573.852539" width="1.098633" height="1.098633"/>
<image xlink:href="tile51_23.png" preserveAspectRatio="none" x="13955.932617" y="-3574.951172" width="1.098633" height="1.098633"/>
<image xlink:href="tile51_22.png" preserveAspectRatio="none" x="13955.932617" y="-3576.049805" width="1.098633" height="1.098633"/>
<image xlink:href="tile51_21.png" preserveAspectRatio="none" x="13955.932617" y="-3577.148438" width="1.098633" height="1.098633"/>
<image xlink:href="tile51_16.png" preserveAspectRatio="none" x="13955.932617" y="-3582.641602" width="1.098633" height="1.098633"/>
<image xlink:href="tile51_15.png" preserveAspectRatio="none" x="13955.932617" y="-3583.740234" width="1.098633" height="1.098633"/>
<image xlink:href="tile51_14.png" preserveAspectRatio="none" x="13955.932617" y="-3584.838867" width="1.098633" height="1.098633"/>
<image xlink:href="tile51_13.png" preserveAspectRatio="none" x="13955.932617" y="-3585.9375" width="1.098633" height="1.098633"/>
<image xlink:href="tile52_28.png" preserveAspectRatio="none" x="13957.03125" y="-3569.458008" width="1.098633" height="1.098633"/>
<image xlink:href="tile52_27.png" preserveAspectRatio="none" x="13957.03125" y="-3570.556641" width="1.098633" height="1.098633"/>
<image xlink:href="tile52_26.png" preserveAspectRatio="none" x="13957.03125" y="-3571.655273" width="1.098633" height="1.098633"/>
<image xlink:href="tile52_25.png" preserveAspectRatio="none" x="13957.03125" y="-3572.753906" width="1.098633" height="1.098633"/>
<image xlink:href="tile52_24.png" preserveAspectRatio="none" x="13957.03125" y="-3573.852539" width="1.098633" height="1.098633"/>
<image xlink:href="tile52_23.png" preserveAspectRatio="none" x="13957.03125" y="-3574.951172" width="1.098633" height="1.098633"/>
<image xlink:href="tile52_22.png" preserveAspectRatio="none" x="13957.03125" y="-3576.049805" width="1.098633" height="1.098633"/>
<image xlink:href="tile52_21.png" preserveAspectRatio="none" x="13957.03125" y="-3577.148438" width="1.098633" height="1.098633"/>
<image xlink:href="tile52_18.png" preserveAspectRatio="none" x="13957.03125" y="-3580.444336" width="1.098633" height="1.098633"/>
<image xlink:href="tile52_15.png" preserveAspectRatio="none" x="13957.03125" y="-3583.740234" width="1.098633" height="1.098633"/>
<image xlink:href="tile52_14.png" preserveAspectRatio="none" x="13957.03125" y="-3584.838867" width="1.098633" height="1.098633"/>
<image xlink:href="tile52_13.png" preserveAspectRatio="none" x="13957.03125" y="-3585.9375" width="1.098633" height="1.098633"/>
<image xlink:href="tile53_28.png" preserveAspectRatio="none" x="13958.129883" y="-3569.458008" width="1.098633" height="1.098633"/>
<image xlink:href="tile53_27.png" preserveAspectRatio="none" x="13958.129883" y="-3570.556641" width="1.098633" height="1.098633"/>
<image xlink:href="tile53_26.png" preserveAspectRatio="none" x="13958.129883" y="-3571.655273" width="1.098633" height="1.098633"/>
<image xlink:href="tile53_25.png" preserveAspectRatio="none" x="13958.129883" y="-3572.753906" width="1.098633" height="1.098633"/>
<image xlink:href="tile53_24.png" preserveAspectRatio="none" x="13958.129883" y="-3573.852539" width="1.098633" height="1.098633"/>
<image xlink:href="tile53_23.png" preserveAspectRatio="none" x="13958.129883" y="-3574.951172" width="1.098633" height="1.098633"/>
<image xlink:href="tile53_22.png" preserveAspectRatio="none" x="13958.129883" y="-3576.049805" width="1.098633" height="1.098633"/>
<image xlink:href="tile53_21.png" preserveAspectRatio="none" x="13958.129883" y="-3577.148438" width="1.098633" height="1.098633"/>
<image xlink:href="tile53_20.png" preserveAspectRatio="none" x="13958.129883" y="-3578.24707" width="1.098633" height="1.098633"/>
<image xlink:href="tile53_18.png" preserveAspectRatio="none" x="13958.129883" y="-3580.444336" width="1.098633" height="1.098633"/>
<image xlink:href="tile53_17.png" preserveAspectRatio="none" x="13958.129883" y="-3581.542969" width="1.098633" height="1.098633"/>
<image xlink:href="tile53_16.png" preserveAspectRatio="none" x="13958.129883" y="-3582.641602" width="1.098633" height="1.098633"/>
<image xlink:href="tile53_15.png" preserveAspectRatio="none" x="13958.129883" y="-3583.740234" width="1.098633" height="1.098633"/>
<image xlink:href="tile53_14.png" preserveAspectRatio="none" x="13958.129883" y="-3584.838867" width="1.098633" height="1.098633"/>
<image xlink:href="tile53_13.png" preserveAspectRatio="none" x="13958.129883" y="-3585.9375" width="1.098633" height="1.098633"/>
<image xlink:href="tile54_28.png" preserveAspectRatio="none" x="13959.228516" y="-3569.458008" width="1.098633" height="1.098633"/>
<image xlink:href="tile54_27.png" preserveAspectRatio="none" x="13959.228516" y="-3570.556641" width="1.098633" height="1.098633"/>
<image xlink:href="tile54_26.png" preserveAspectRatio="none" x="13959.228516" y="-3571.655273" width="1.098633" height="1.098633"/>
<image xlink:href="tile54_25.png" preserveAspectRatio="none" x="13959.228516" y="-3572.753906" width="1.098633" height="1.098633"/>
<image xlink:href="tile54_24.png" preserveAspectRatio="none" x="13959.228516" y="-3573.852539" width="1.098633" height="1.098633"/>
<image xlink:href="tile54_23.png" preserveAspectRatio="none" x="13959.228516" y="-3574.951172" width="1.098633" height="1.098633"/>
<image xlink:href="tile54_22.png" preserveAspectRatio="none" x="13959.228516" y="-3576.049805" width="1.098633" height="1.098633"/>
<image xlink:href="tile54_21.png" preserveAspectRatio="none" x="13959.228516" y="-3577.148438" width="1.098633" height="1.098633"/>
<image xlink:href="tile54_20.png" preserveAspectRatio="none" x="13959.228516" y="-3578.24707" width="1.098633" height="1.098633"/>
<image xlink:href="tile54_17.png" preserveAspectRatio="none" x="13959.228516" y="-3581.542969" width="1.098633" height="1.098633"/>
<image xlink:href="tile54_16.png" preserveAspectRatio="none" x="13959.228516" y="-3582.641602" width="1.098633" height="1.098633"/>
<image xlink:href="tile54_15.png" preserveAspectRatio="none" x="13959.228516" y="-3583.740234" width="1.098633" height="1.098633"/>
<image xlink:href="tile54_14.png" preserveAspectRatio="none" x="13959.228516" y="-3584.838867" width="1.098633" height="1.098633"/>
<image xlink:href="tile54_13.png" preserveAspectRatio="none" x="13959.228516" y="-3585.9375" width="1.098633" height="1.098633"/>
<image xlink:href="tile55_28.png" preserveAspectRatio="none" x="13960.327148" y="-3569.458008" width="1.098633" height="1.098633"/>
<image xlink:href="tile55_27.png" preserveAspectRatio="none" x="13960.327148" y="-3570.556641" width="1.098633" height="1.098633"/>
<image xlink:href="tile55_26.png" preserveAspectRatio="none" x="13960.327148" y="-3571.655273" width="1.098633" height="1.098633"/>
<image xlink:href="tile55_25.png" preserveAspectRatio="none" x="13960.327148" y="-3572.753906" width="1.098633" height="1.098633"/>
<image xlink:href="tile55_24.png" preserveAspectRatio="none" x="13960.327148" y="-3573.852539" width="1.098633" height="1.098633"/>
<image xlink:href="tile55_23.png" preserveAspectRatio="none" x="13960.327148" y="-3574.951172" width="1.098633" height="1.098633"/>
<image xlink:href="tile55_22.png" preserveAspectRatio="none" x="13960.327148" y="-3576.049805" width="1.098633" height="1.098633"/>
<image xlink:href="tile55_21.png" preserveAspectRatio="none" x="13960.327148" y="-3577.148438" width="1.098633" height="1.098633"/>
<image xlink:href="tile55_18.png" preserveAspectRatio="none" x="13960.327148" y="-3580.444336" width="1.098633" height="1.098633"/>
<image xlink:href="tile55_17.png" preserveAspectRatio="none" x="13960.327148" y="-3581.542969" width="1.098633" height="1.098633"/>
<image xlink:href="tile55_16.png" preserveAspectRatio="none" x="13960.327148" y="-3582.641602" width="1.098633" height="1.098633"/>
<image xlink:href="tile55_15.png" preserveAspectRatio="none" x="13960.327148" y="-3583.740234" width="1.098633" height="1.098633"/>
<image xlink:href="tile55_14.png" preserveAspectRatio="none" x="13960.327148" y="-3584.838867" width="1.098633" height="1.098633"/>
<image xlink:href="tile55_13.png" preserveAspectRatio="none" x="13960.327148" y="-3585.9375" width="1.098633" height="1.098633"/>
<image xlink:href="tile56_28.png" preserveAspectRatio="none" x="13961.425781" y="-3569.458008" width="1.098633" height="1.098633"/>
<image xlink:href="tile56_27.png" preserveAspectRatio="none" x="13961.425781" y="-3570.556641" width="1.098633" height="1.098633"/>
<image xlink:href="tile56_26.png" preserveAspectRatio="none" x="13961.425781" y="-3571.655273" width="1.098633" height="1.098633"/>
<image xlink:href="tile56_25.png" preserveAspectRatio="none" x="13961.425781" y="-3572.753906" width="1.098633" height="1.098633"/>
<image xlink:href="tile56_24.png" preserveAspectRatio="none" x="13961.425781" y="-3573.852539" width="1.098633" height="1.098633"/>
<image xlink:href="tile56_23.png" preserveAspectRatio="none" x="13961.425781" y="-3574.951172" width="1.098633" height="1.098633"/>
<image xlink:href="tile56_22.png" preserveAspectRatio="none" x="13961.425781" y="-3576.049805" width="1.098633" height="1.098633"/>
<image xlink:href="tile56_21.png" preserveAspectRatio="none" x="13961.425781" y="-3577.148438" width="1.098633" height="1.098633"/>
<image xlink:href="tile56_20.png" preserveAspectRatio="none" x="13961.425781" y="-3578.24707" width="1.098633" height="1.098633"/>
<image xlink:href="tile56_18.png" preserveAspectRatio="none" x="13961.425781" y="-3580.444336" width="1.098633" height="1.098633"/>
<image xlink:href="tile56_17.png" preserveAspectRatio="none" x="13961.425781" y="-3581.542969" width="1.098633" height="1.098633"/>
<image xlink:href="tile56_16.png" preserveAspectRatio="none" x="13961.425781" y="-3582.641602" width="1.098633" height="1.098633"/>
<image xlink:href="tile56_15.png" preserveAspectRatio="none" x="13961.425781" y="-3583.740234" width="1.098633" height="1.098633"/>
<image xlink:href="tile56_14.png" preserveAspectRatio="none" x="13961.425781" y="-3584.838867" width="1.098633" height="1.098633"/>
<image xlink:href="tile56_13.png" preserveAspectRatio="none" x="13961.425781" y="-3585.9375" width="1.098633" height="1.098633"/>
<image xlink:href="tile57_28.png" preserveAspectRatio="none" x="13962.524414" y="-3569.458008" width="1.098633" height="1.098633"/>
<image xlink:href="tile57_27.png" preserveAspectRatio="none" x="13962.524414" y="-3570.556641" width="1.098633" height="1.098633"/>
<image xlink:href="tile57_26.png" preserveAspectRatio="none" x="13962.524414" y="-3571.655273" width="1.098633" height="1.098633"/>
<image xlink:href="tile57_25.png" preserveAspectRatio="none" x="13962.524414" y="-3572.753906" width="1.098633" height="1.098633"/>
<image xlink:href="tile57_24.png" preserveAspectRatio="none" x="13962.524414" y="-3573.852539" width="1.098633" height="1.098633"/>
<image xlink:href="tile57_23.png" preserveAspectRatio="none" x="13962.524414" y="-3574.951172" width="1.098633" height="1.098633"/>
<image xlink:href="tile57_22.png" preserveAspectRatio="none" x="13962.524414" y="-3576.049805" width="1.098633" height="1.098633"/>
<image xlink:href="tile57_21.png" preserveAspectRatio="none" x="13962.524414" y="-3577.148438" width="1.098633" height="1.098633"/>
<image xlink:href="tile57_20.png" preserveAspectRatio="none" x="13962.524414" y="-3578.24707" width="1.098633" height="1.098633"/>
<image xlink:href="tile57_19.png" preserveAspectRatio="none" x="13962.524414" y="-3579.345703" width="1.098633" height="1.098633"/>
<image xlink:href="tile57_18.png" preserveAspectRatio="none" x="13962.524414" y="-3580.444336" width="1.098633" height="1.098633"/>
<image xlink:href="tile57_17.png" preserveAspectRatio="none" x="13962.524414" y="-3581.542969" width="1.098633" height="1.098633"/>
<image xlink:href="tile57_16.png" preserveAspectRatio="none" x="13962.524414" y="-3582.641602" width="1.098633" height="1.098633"/>
<image xlink:href="tile57_15.png" preserveAspectRatio="none" x="13962.524414" y="-3583.740234" width="1.098633" height="1.098633"/>
<image xlink:href="tile57_14.png" preserveAspectRatio="none" x="13962.524414" y="-3584.838867" width="1.098633" height="1.098633"/>
<image xlink:href="tile57_13.png" preserveAspectRatio="none" x="13962.524414" y="-3585.9375" width="1.098633" height="1.098633"/>
<image xlink:href="tile58_28.png" preserveAspectRatio="none" x="13963.623047" y="-3569.458008" width="1.098633" height="1.098633"/>
<image xlink:href="tile58_27.png" preserveAspectRatio="none" x="13963.623047" y="-3570.556641" width="1.098633" height="1.098633"/>
<image xlink:href="tile58_26.png" preserveAspectRatio="none" x="13963.623047" y="-3571.655273" width="1.098633" height="1.098633"/>
<image xlink:href="tile58_25.png" preserveAspectRatio="none" x="13963.623047" y="-3572.753906" width="1.098633" height="1.098633"/>
<image xlink:href="tile58_24.png" preserveAspectRatio="none" x="13963.623047" y="-3573.852539" width="1.098633" height="1.098633"/>
<image xlink:href="tile58_23.png" preserveAspectRatio="none" x="13963.623047" y="-3574.951172" width="1.098633" height="1.098633"/>
<image xlink:href="tile58_22.png" preserveAspectRatio="none" x="13963.623047" y="-3576.049805" width="1.098633" height="1.098633"/>
<image xlink:href="tile58_21.png" preserveAspectRatio="none" x="13963.623047" y="-3577.148438" width="1.098633" height="1.098633"/>
<image xlink:href="tile58_20.png" preserveAspectRatio="none" x="13963.623047" y="-3578.24707" width="1.098633" height="1.098633"/>
<image xlink:href="tile58_19.png" preserveAspectRatio="none" x="13963.623047" y="-3579.345703" width="1.098633" height="1.098633"/>
<image xlink:href="tile58_18.png" preserveAspectRatio="none" x="13963.623047" y="-3580.444336" width="1.098633" height="1.098633"/>
<image xlink:href="tile58_17.png" preserveAspectRatio="none" x="13963.623047" y="-3581.542969" width="1.098633" height="1.098633"/>
<image xlink:href="tile58_16.png" preserveAspectRatio="none" x="13963.623047" y="-3582.641602" width="1.098633" height="1.098633"/>
<image xlink:href="tile58_15.png" preserveAspectRatio="none" x="13963.623047" y="-3583.740234" width="1.098633" height="1.098633"/>
<image xlink:href="tile58_14.png" preserveAspectRatio="none" x="13963.623047" y="-3584.838867" width="1.098633" height="1.098633"/>
<image xlink:href="tile58_13.png" preserveAspectRatio="none" x="13963.623047" y="-3585.9375" width="1.098633" height="1.098633"/>
<image xlink:href="tile59_28.png" preserveAspectRatio="none" x="13964.72168" y="-3569.458008" width="1.098633" height="1.098633"/>
<image xlink:href="tile59_27.png" preserveAspectRatio="none" x="13964.72168" y="-3570.556641" width="1.098633" height="1.098633"/>
<image xlink:href="tile59_26.png" preserveAspectRatio="none" x="13964.72168" y="-3571.655273" width="1.098633" height="1.098633"/>
<image xlink:href="tile59_25.png" preserveAspectRatio="none" x="13964.72168" y="-3572.753906" width="1.098633" height="1.098633"/>
<image xlink:href="tile59_24.png" preserveAspectRatio="none" x="13964.72168" y="-3573.852539" width="1.098633" height="1.098633"/>
<image xlink:href="tile59_23.png" preserveAspectRatio="none" x="13964.72168" y="-3574.951172" width="1.098633" height="1.098633"/>
<image xlink:href="tile59_22.png" preserveAspectRatio="none" x="13964.72168" y="-3576.049805" width="1.098633" height="1.098633"/>
<image xlink:href="tile59_21.png" preserveAspectRatio="none" x="13964.72168" y="-3577.148438" width="1.098633" height="1.098633"/>
<image xlink:href="tile59_20.png" preserveAspectRatio="none" x="13964.72168" y="-3578.24707" width="1.098633" height="1.098633"/>
<image xlink:href="tile59_19.png" preserveAspectRatio="none" x="13964.72168" y="-3579.345703" width="1.098633" height="1.098633"/>
<image xlink:href="tile59_18.png" preserveAspectRatio="none" x="13964.72168" y="-3580.444336" width="1.098633" height="1.098633"/>
<image xlink:href="tile59_17.png" preserveAspectRatio="none" x="13964.72168" y="-3581.542969" width="1.098633" height="1.098633"/>
<image xlink:href="tile59_16.png" preserveAspectRatio="none" x="13964.72168" y="-3582.641602" width="1.098633" height="1.098633"/>
<image xlink:href="tile59_15.png" preserveAspectRatio="none" x="13964.72168" y="-3583.740234" width="1.098633" height="1.098633"/>
<image xlink:href="tile59_14.png" preserveAspectRatio="none" x="13964.72168" y="-3584.838867" width="1.098633" height="1.098633"/>
<image xlink:href="tile59_13.png" preserveAspectRatio="none" x="13964.72168" y="-3585.9375" width="1.098633" height="1.098633"/>
<image xlink:href="tile60_28.png" preserveAspectRatio="none" x="13965.820312" y="-3569.458008" width="1.098633" height="1.098633"/>
<image xlink:href="tile60_27.png" preserveAspectRatio="none" x="13965.820312" y="-3570.556641" width="1.098633" height="1.098633"/>
<image xlink:href="tile60_26.png" preserveAspectRatio="none" x="13965.820312" y="-3571.655273" width="1.098633" height="1.098633"/>
<image xlink:href="tile60_25.png" preserveAspectRatio="none" x="13965.820312" y="-3572.753906" width="1.098633" height="1.098633"/>
<image xlink:href="tile60_24.png" preserveAspectRatio="none" x="13965.820312" y="-3573.852539" width="1.098633" height="1.098633"/>
<image xlink:href="tile60_23.png" preserveAspectRatio="none" x="13965.820312" y="-3574.951172" width="1.098633" height="1.098633"/>
<image xlink:href="tile60_22.png" preserveAspectRatio="none" x="13965.820312" y="-3576.049805" width="1.098633" height="1.098633"/>
<image xlink:href="tile60_21.png" preserveAspectRatio="none" x="13965.820312" y="-3577.148438" width="1.098633" height="1.098633"/>
<image xlink:href="tile60_20.png" preserveAspectRatio="none" x="13965.820312" y="-3578.24707" width="1.098633" height="1.098633"/>
<image xlink:href="tile60_19.png" preserveAspectRatio="none" x="13965.820312" y="-3579.345703" width="1.098633" height="1.098633"/>
<image xlink:href="tile60_18.png" preserveAspectRatio="none" x="13965.820312" y="-3580.444336" width="1.098633" height="1.098633"/>
<image xlink:href="tile60_17.png" preserveAspectRatio="none" x="13965.820312" y="-3581.542969" width="1.098633" height="1.098633"/>
<image xlink:href="tile60_16.png" preserveAspectRatio="none" x="13965.820312" y="-3582.641602" width="1.098633" height="1.098633"/>
<image xlink:href="tile60_15.png" preserveAspectRatio="none" x="13965.820312" y="-3583.740234" width="1.098633" height="1.098633"/>
<image xlink:href="tile60_14.png" preserveAspectRatio="none" x="13965.820312" y="-3584.838867" width="1.098633" height="1.098633"/>
<image xlink:href="tile60_13.png" preserveAspectRatio="none" x="13965.820312" y="-3585.9375" width="1.098633" height="1.098633"/>
<image xlink:href="tile61_28.png" preserveAspectRatio="none" x="13966.918945" y="-3569.458008" width="1.098633" height="1.098633"/>
<image xlink:href="tile61_27.png" preserveAspectRatio="none" x="13966.918945" y="-3570.556641" width="1.098633" height="1.098633"/>
<image xlink:href="tile61_26.png" preserveAspectRatio="none" x="13966.918945" y="-3571.655273" width="1.098633" height="1.098633"/>
<image xlink:href="tile61_25.png" preserveAspectRatio="none" x="13966.918945" y="-3572.753906" width="1.098633" height="1.098633"/>
<image xlink:href="tile61_24.png" preserveAspectRatio="none" x="13966.918945" y="-3573.852539" width="1.098633" height="1.098633"/>
<image xlink:href="tile61_23.png" preserveAspectRatio="none" x="13966.918945" y="-3574.951172" width="1.098633" height="1.098633"/>
<image xlink:href="tile61_22.png" preserveAspectRatio="none" x="13966.918945" y="-3576.049805" width="1.098633" height="1.098633"/>
<image xlink:href="tile61_21.png" preserveAspectRatio="none" x="13966.918945" y="-3577.148438" width="1.098633" height="1.098633"/>
<image xlink:href="tile61_20.png" preserveAspectRatio="none" x="13966.918945" y="-3578.24707" width="1.098633" height="1.098633"/>
<image xlink:href="tile61_19.png" preserveAspectRatio="none" x="13966.918945" y="-3579.345703" width="1.098633" height="1.098633"/>
<image xlink:href="tile61_18.png" preserveAspectRatio="none" x="13966.918945" y="-3580.444336" width="1.098633" height="1.098633"/>
<image xlink:href="tile61_17.png" preserveAspectRatio="none" x="13966.918945" y="-3581.542969" width="1.098633" height="1.098633"/>
<image xlink:href="tile61_16.png" preserveAspectRatio="none" x="13966.918945" y="-3582.641602" width="1.098633" height="1.098633"/>
<image xlink:href="tile61_15.png" preserveAspectRatio="none" x="13966.918945" y="-3583.740234" width="1.098633" height="1.098633"/>
<image xlink:href="tile61_14.png" preserveAspectRatio="none" x="13966.918945" y="-3584.838867" width="1.098633" height="1.098633"/>
<image xlink:href="tile61_13.png" preserveAspectRatio="none" x="13966.918945" y="-3585.9375" width="1.098633" height="1.098633"/>
<image xlink:href="tile62_28.png" preserveAspectRatio="none" x="13968.017578" y="-3569.458008" width="1.098633" height="1.098633"/>
<image xlink:href="tile62_27.png" preserveAspectRatio="none" x="13968.017578" y="-3570.556641" width="1.098633" height="1.098633"/>
<image xlink:href="tile62_26.png" preserveAspectRatio="none" x="13968.017578" y="-3571.655273" width="1.098633" height="1.098633"/>
<image xlink:href="tile62_25.png" preserveAspectRatio="none" x="13968.017578" y="-3572.753906" width="1.098633" height="1.098633"/>
<image xlink:href="tile62_24.png" preserveAspectRatio="none" x="13968.017578" y="-3573.852539" width="1.098633" height="1.098633"/>
<image xlink:href="tile62_23.png" preserveAspectRatio="none" x="13968.017578" y="-3574.951172" width="1.098633" height="1.098633"/>
<image xlink:href="tile62_22.png" preserveAspectRatio="none" x="13968.017578" y="-3576.049805" width="1.098633" height="1.098633"/>
<image xlink:href="tile62_21.png" preserveAspectRatio="none" x="13968.017578" y="-3577.148438" width="1.098633" height="1.098633"/>
<image xlink:href="tile62_20.png" preserveAspectRatio="none" x="13968.017578" y="-3578.24707" width="1.098633" height="1.098633"/>
<image xlink:href="tile62_19.png" preserveAspectRatio="none" x="13968.017578" y="-3579.345703" width="1.098633" height="1.098633"/>
<image xlink:href="tile62_18.png" preserveAspectRatio="none" x="13968.017578" y="-3580.444336" width="1.098633" height="1.098633"/>
<image xlink:href="tile62_17.png" preserveAspectRatio="none" x="13968.017578" y="-3581.542969" width="1.098633" height="1.098633"/>
<image xlink:href="tile62_16.png" preserveAspectRatio="none" x="13968.017578" y="-3582.641602" width="1.098633" height="1.098633"/>
<image xlink:href="tile62_15.png" preserveAspectRatio="none" x="13968.017578" y="-3583.740234" width="1.098633" height="1.098633"/>
<image xlink:href="tile62_14.png" preserveAspectRatio="none" x="13968.017578" y="-3584.838867" width="1.098633" height="1.098633"/>
<image xlink:href="tile62_13.png" preserveAspectRatio="none" x="13968.017578" y="-3585.9375" width="1.098633" height="1.098633"/>
<image xlink:href="tile63_28.png" preserveAspectRatio="none" x="13969.116211" y="-3569.458008" width="1.098633" height="1.098633"/>
<image xlink:href="tile63_27.png" preserveAspectRatio="none" x="13969.116211" y="-3570.556641" width="1.098633" height="1.098633"/>
<image xlink:href="tile63_26.png" preserveAspectRatio="none" x="13969.116211" y="-3571.655273" width="1.098633" height="1.098633"/>
<image xlink:href="tile63_25.png" preserveAspectRatio="none" x="13969.116211" y="-3572.753906" width="1.098633" height="1.098633"/>
<image xlink:href="tile63_24.png" preserveAspectRatio="none" x="13969.116211" y="-3573.852539" width="1.098633" height="1.098633"/>
<image xlink:href="tile63_23.png" preserveAspectRatio="none" x="13969.116211" y="-3574.951172" width="1.098633" height="1.098633"/>
<image xlink:href="tile63_22.png" preserveAspectRatio="none" x="13969.116211" y="-3576.049805" width="1.098633" height="1.098633"/>
<image xlink:href="tile63_21.png" preserveAspectRatio="none" x="13969.116211" y="-3577.148438" width="1.098633" height="1.098633"/>
<image xlink:href="tile63_20.png" preserveAspectRatio="none" x="13969.116211" y="-3578.24707" width="1.098633" height="1.098633"/>
<image xlink:href="tile63_19.png" preserveAspectRatio="none" x="13969.116211" y="-3579.345703" width="1.098633" height="1.098633"/>
<image xlink:href="tile63_18.png" preserveAspectRatio="none" x="13969.116211" y="-3580.444336" width="1.098633" height="1.098633"/>
<image xlink:href="tile63_17.png" preserveAspectRatio="none" x="13969.116211" y="-3581.542969" width="1.098633" height="1.098633"/>
<image xlink:href="tile63_16.png" preserveAspectRatio="none" x="13969.116211" y="-3582.641602" width="1.098633" height="1.098633"/>
<image xlink:href="tile63_15.png" preserveAspectRatio="none" x="13969.116211" y="-3583.740234" width="1.098633" height="1.098633"/>
<image xlink:href="tile63_14.png" preserveAspectRatio="none" x="13969.116211" y="-3584.838867" width="1.098633" height="1.098633"/>
<image xlink:href="tile63_13.png" preserveAspectRatio="none" x="13969.116211" y="-3585.9375" width="1.098633" height="1.098633"/>
</g>
</svg>
