<?xml version="1.0" encoding="UTF-8"?>
<svg  xmlns="http://www.w3.org/2000/svg" xmlns:xlink="http://www.w3.org/1999/xlink" xmlns:go="http://purl.org/svgmap/profile" viewBox="14400.03125 -4400.0 99.96874999999932 66.66666699999979" go:dataArea="14400.03125 -4400.0 99.96874999999932 66.66666699999979" >
<metadata>
 <rdf:RDF xmlns:rdf="http://www.w3.org/1999/02/22-rdf-syntax-ns#" xmlns:crs="http://opengis.org/xmldtds/transformations.dtd" xmlns:svg="http://www.w3.org/svg" >
  <rdf:Description>
   <crs:CoordinateReferenceSystem rdf:resource="http://purl.org/crs/84" svg:transform="matrix(100.0,0.0,0.0,-100.0,0.0,0.0)" />
  </rdf:Description>
 </rdf:RDF>
</metadata>
<globalCoordinateSystem srsName="http://purl.org/crs/84" transform="matrix(100.0,0.0,0.0,-100.0,0.0,0.0)" />
<g >
<image xlink:href="tile16_8.png" preserveAspectRatio="none" x="14417.358398" y="-4391.235352" width="1.098633" height="1.098633"/>
<image xlink:href="tile16_7.png" preserveAspectRatio="none" x="14417.358398" y="-4392.333984" width="1.098633" height="1.098633"/>
<image xlink:href="tile16_6.png" preserveAspectRatio="none" x="14417.358398" y="-4393.432617" width="1.098633" height="1.098633"/>
<image xlink:href="tile16_5.png" preserveAspectRatio="none" x="14417.358398" y="-4394.53125" width="1.098633" height="1.098633"/>
<image xlink:href="tile16_4.png" preserveAspectRatio="none" x="14417.358398" y="-4395.629883" width="1.098633" height="1.098633"/>
<image xlink:href="tile17_4.png" preserveAspectRatio="none" x="14418.457031" y="-4395.629883" width="1.098633" height="1.098633"/>
<image xlink:href="tile17_3.png" preserveAspectRatio="none" x="14418.457031" y="-4396.728516" width="1.098633" height="1.098633"/>
<image xlink:href="tile18_5.png" preserveAspectRatio="none" x="14419.555664" y="-4394.53125" width="1.098633" height="1.098633"/>
<image xlink:href="tile18_4.png" preserveAspectRatio="none" x="14419.555664" y="-4395.629883" width="1.098633" height="1.098633"/>
<image xlink:href="tile18_3.png" preserveAspectRatio="none" x="14419.555664" y="-4396.728516" width="1.098633" height="1.098633"/>
<image xlink:href="tile18_2.png" preserveAspectRatio="none" x="14419.555664" y="-4397.827148" width="1.098633" height="1.098633"/>
<image xlink:href="tile18_1.png" preserveAspectRatio="none" x="14419.555664" y="-4398.925781" width="1.098633" height="1.098633"/>
<image xlink:href="tile18_0.png" preserveAspectRatio="none" x="14419.555664" y="-4400.024414" width="1.098633" height="1.098633"/>
<image xlink:href="tile19_5.png" preserveAspectRatio="none" x="14420.654297" y="-4394.53125" width="1.098633" height="1.098633"/>
<image xlink:href="tile19_4.png" preserveAspectRatio="none" x="14420.654297" y="-4395.629883" width="1.098633" height="1.098633"/>
<image xlink:href="tile19_3.png" preserveAspectRatio="none" x="14420.654297" y="-4396.728516" width="1.098633" height="1.098633"/>
<image xlink:href="tile19_2.png" preserveAspectRatio="none" x="14420.654297" y="-4397.827148" width="1.098633" height="1.098633"/>
<image xlink:href="tile19_1.png" preserveAspectRatio="none" x="14420.654297" y="-4398.925781" width="1.098633" height="1.098633"/>
<image xlink:href="tile19_0.png" preserveAspectRatio="none" x="14420.654297" y="-4400.024414" width="1.098633" height="1.098633"/>
<image xlink:href="tile20_3.png" preserveAspectRatio="none" x="14421.75293" y="-4396.728516" width="1.098633" height="1.098633"/>
<image xlink:href="tile20_2.png" preserveAspectRatio="none" x="14421.75293" y="-4397.827148" width="1.098633" height="1.098633"/>
<image xlink:href="tile20_1.png" preserveAspectRatio="none" x="14421.75293" y="-4398.925781" width="1.098633" height="1.098633"/>
<image xlink:href="tile20_0.png" preserveAspectRatio="none" x="14421.75293" y="-4400.024414" width="1.098633" height="1.098633"/>
</g>
</svg>
