<?xml version="1.0" encoding="UTF-8"?>
<svg  xmlns="http://www.w3.org/2000/svg" xmlns:xlink="http://www.w3.org/1999/xlink" xmlns:go="http://purl.org/svgmap/profile" viewBox="13500.0 -3466.666667 100.0 66.66666699999979" go:dataArea="13500.0 -3466.666667 100.0 66.66666699999979" >
<metadata>
 <rdf:RDF xmlns:rdf="http://www.w3.org/1999/02/22-rdf-syntax-ns#" xmlns:crs="http://opengis.org/xmldtds/transformations.dtd" xmlns:svg="http://www.w3.org/svg" >
  <rdf:Description>
   <crs:CoordinateReferenceSystem rdf:resource="http://purl.org/crs/84" svg:transform="matrix(100.0,0.0,0.0,-100.0,0.0,0.0)" />
  </rdf:Description>
 </rdf:RDF>
</metadata>
<globalCoordinateSystem srsName="http://purl.org/crs/84" transform="matrix(100.0,0.0,0.0,-100.0,0.0,0.0)" />
<g >
<image xlink:href="tile32_14.png" preserveAspectRatio="none" x="13570.3125" y="-3436.523438" width="2.197266" height="2.197266"/>
<image xlink:href="tile32_11.png" preserveAspectRatio="none" x="13570.3125" y="-3443.115234" width="2.197266" height="2.197266"/>
<image xlink:href="tile32_10.png" preserveAspectRatio="none" x="13570.3125" y="-3445.3125" width="2.197266" height="2.197266"/>
<image xlink:href="tile32_8.png" preserveAspectRatio="none" x="13570.3125" y="-3449.707031" width="2.197266" height="2.197266"/>
<image xlink:href="tile32_7.png" preserveAspectRatio="none" x="13570.3125" y="-3451.904297" width="2.197266" height="2.197266"/>
<image xlink:href="tile32_6.png" preserveAspectRatio="none" x="13570.3125" y="-3454.101562" width="2.197266" height="2.197266"/>
<image xlink:href="tile32_5.png" preserveAspectRatio="none" x="13570.3125" y="-3456.298828" width="2.197266" height="2.197266"/>
<image xlink:href="tile32_4.png" preserveAspectRatio="none" x="13570.3125" y="-3458.496094" width="2.197266" height="2.197266"/>
<image xlink:href="tile32_3.png" preserveAspectRatio="none" x="13570.3125" y="-3460.693359" width="2.197266" height="2.197266"/>
<image xlink:href="tile32_2.png" preserveAspectRatio="none" x="13570.3125" y="-3462.890625" width="2.197266" height="2.197266"/>
<image xlink:href="tile32_1.png" preserveAspectRatio="none" x="13570.3125" y="-3465.087891" width="2.197266" height="2.197266"/>
<image xlink:href="tile32_0.png" preserveAspectRatio="none" x="13570.3125" y="-3467.285156" width="2.197266" height="2.197266"/>
<image xlink:href="tile33_14.png" preserveAspectRatio="none" x="13572.509766" y="-3436.523438" width="2.197266" height="2.197266"/>
<image xlink:href="tile33_13.png" preserveAspectRatio="none" x="13572.509766" y="-3438.720703" width="2.197266" height="2.197266"/>
<image xlink:href="tile33_12.png" preserveAspectRatio="none" x="13572.509766" y="-3440.917969" width="2.197266" height="2.197266"/>
<image xlink:href="tile33_11.png" preserveAspectRatio="none" x="13572.509766" y="-3443.115234" width="2.197266" height="2.197266"/>
<image xlink:href="tile33_10.png" preserveAspectRatio="none" x="13572.509766" y="-3445.3125" width="2.197266" height="2.197266"/>
<image xlink:href="tile33_9.png" preserveAspectRatio="none" x="13572.509766" y="-3447.509766" width="2.197266" height="2.197266"/>
<image xlink:href="tile33_8.png" preserveAspectRatio="none" x="13572.509766" y="-3449.707031" width="2.197266" height="2.197266"/>
<image xlink:href="tile33_7.png" preserveAspectRatio="none" x="13572.509766" y="-3451.904297" width="2.197266" height="2.197266"/>
<image xlink:href="tile33_6.png" preserveAspectRatio="none" x="13572.509766" y="-3454.101562" width="2.197266" height="2.197266"/>
<image xlink:href="tile33_5.png" preserveAspectRatio="none" x="13572.509766" y="-3456.298828" width="2.197266" height="2.197266"/>
<image xlink:href="tile33_4.png" preserveAspectRatio="none" x="13572.509766" y="-3458.496094" width="2.197266" height="2.197266"/>
<image xlink:href="tile33_3.png" preserveAspectRatio="none" x="13572.509766" y="-3460.693359" width="2.197266" height="2.197266"/>
<image xlink:href="tile33_2.png" preserveAspectRatio="none" x="13572.509766" y="-3462.890625" width="2.197266" height="2.197266"/>
<image xlink:href="tile34_14.png" preserveAspectRatio="none" x="13574.707031" y="-3436.523438" width="2.197266" height="2.197266"/>
<image xlink:href="tile34_13.png" preserveAspectRatio="none" x="13574.707031" y="-3438.720703" width="2.197266" height="2.197266"/>
<image xlink:href="tile34_11.png" preserveAspectRatio="none" x="13574.707031" y="-3443.115234" width="2.197266" height="2.197266"/>
<image xlink:href="tile34_10.png" preserveAspectRatio="none" x="13574.707031" y="-3445.3125" width="2.197266" height="2.197266"/>
<image xlink:href="tile34_9.png" preserveAspectRatio="none" x="13574.707031" y="-3447.509766" width="2.197266" height="2.197266"/>
<image xlink:href="tile34_8.png" preserveAspectRatio="none" x="13574.707031" y="-3449.707031" width="2.197266" height="2.197266"/>
<image xlink:href="tile34_7.png" preserveAspectRatio="none" x="13574.707031" y="-3451.904297" width="2.197266" height="2.197266"/>
<image xlink:href="tile34_6.png" preserveAspectRatio="none" x="13574.707031" y="-3454.101562" width="2.197266" height="2.197266"/>
<image xlink:href="tile34_5.png" preserveAspectRatio="none" x="13574.707031" y="-3456.298828" width="2.197266" height="2.197266"/>
<image xlink:href="tile34_4.png" preserveAspectRatio="none" x="13574.707031" y="-3458.496094" width="2.197266" height="2.197266"/>
<image xlink:href="tile34_3.png" preserveAspectRatio="none" x="13574.707031" y="-3460.693359" width="2.197266" height="2.197266"/>
<image xlink:href="tile34_2.png" preserveAspectRatio="none" x="13574.707031" y="-3462.890625" width="2.197266" height="2.197266"/>
<image xlink:href="tile34_1.png" preserveAspectRatio="none" x="13574.707031" y="-3465.087891" width="2.197266" height="2.197266"/>
<image xlink:href="tile34_0.png" preserveAspectRatio="none" x="13574.707031" y="-3467.285156" width="2.197266" height="2.197266"/>
<image xlink:href="tile35_13.png" preserveAspectRatio="none" x="13576.904297" y="-3438.720703" width="2.197266" height="2.197266"/>
<image xlink:href="tile35_10.png" preserveAspectRatio="none" x="13576.904297" y="-3445.3125" width="2.197266" height="2.197266"/>
<image xlink:href="tile35_9.png" preserveAspectRatio="none" x="13576.904297" y="-3447.509766" width="2.197266" height="2.197266"/>
<image xlink:href="tile35_8.png" preserveAspectRatio="none" x="13576.904297" y="-3449.707031" width="2.197266" height="2.197266"/>
<image xlink:href="tile35_7.png" preserveAspectRatio="none" x="13576.904297" y="-3451.904297" width="2.197266" height="2.197266"/>
<image xlink:href="tile35_6.png" preserveAspectRatio="none" x="13576.904297" y="-3454.101562" width="2.197266" height="2.197266"/>
<image xlink:href="tile35_5.png" preserveAspectRatio="none" x="13576.904297" y="-3456.298828" width="2.197266" height="2.197266"/>
<image xlink:href="tile35_4.png" preserveAspectRatio="none" x="13576.904297" y="-3458.496094" width="2.197266" height="2.197266"/>
<image xlink:href="tile35_3.png" preserveAspectRatio="none" x="13576.904297" y="-3460.693359" width="2.197266" height="2.197266"/>
<image xlink:href="tile35_2.png" preserveAspectRatio="none" x="13576.904297" y="-3462.890625" width="2.197266" height="2.197266"/>
<image xlink:href="tile35_1.png" preserveAspectRatio="none" x="13576.904297" y="-3465.087891" width="2.197266" height="2.197266"/>
<image xlink:href="tile35_0.png" preserveAspectRatio="none" x="13576.904297" y="-3467.285156" width="2.197266" height="2.197266"/>
<image xlink:href="tile36_13.png" preserveAspectRatio="none" x="13579.101562" y="-3438.720703" width="2.197266" height="2.197266"/>
<image xlink:href="tile36_12.png" preserveAspectRatio="none" x="13579.101562" y="-3440.917969" width="2.197266" height="2.197266"/>
<image xlink:href="tile36_10.png" preserveAspectRatio="none" x="13579.101562" y="-3445.3125" width="2.197266" height="2.197266"/>
<image xlink:href="tile36_9.png" preserveAspectRatio="none" x="13579.101562" y="-3447.509766" width="2.197266" height="2.197266"/>
<image xlink:href="tile36_8.png" preserveAspectRatio="none" x="13579.101562" y="-3449.707031" width="2.197266" height="2.197266"/>
<image xlink:href="tile36_7.png" preserveAspectRatio="none" x="13579.101562" y="-3451.904297" width="2.197266" height="2.197266"/>
<image xlink:href="tile36_6.png" preserveAspectRatio="none" x="13579.101562" y="-3454.101562" width="2.197266" height="2.197266"/>
<image xlink:href="tile36_5.png" preserveAspectRatio="none" x="13579.101562" y="-3456.298828" width="2.197266" height="2.197266"/>
<image xlink:href="tile36_4.png" preserveAspectRatio="none" x="13579.101562" y="-3458.496094" width="2.197266" height="2.197266"/>
<image xlink:href="tile36_3.png" preserveAspectRatio="none" x="13579.101562" y="-3460.693359" width="2.197266" height="2.197266"/>
<image xlink:href="tile36_2.png" preserveAspectRatio="none" x="13579.101562" y="-3462.890625" width="2.197266" height="2.197266"/>
<image xlink:href="tile36_1.png" preserveAspectRatio="none" x="13579.101562" y="-3465.087891" width="2.197266" height="2.197266"/>
<image xlink:href="tile36_0.png" preserveAspectRatio="none" x="13579.101562" y="-3467.285156" width="2.197266" height="2.197266"/>
<image xlink:href="tile37_13.png" preserveAspectRatio="none" x="13581.298828" y="-3438.720703" width="2.197266" height="2.197266"/>
<image xlink:href="tile37_12.png" preserveAspectRatio="none" x="13581.298828" y="-3440.917969" width="2.197266" height="2.197266"/>
<image xlink:href="tile37_10.png" preserveAspectRatio="none" x="13581.298828" y="-3445.3125" width="2.197266" height="2.197266"/>
<image xlink:href="tile37_9.png" preserveAspectRatio="none" x="13581.298828" y="-3447.509766" width="2.197266" height="2.197266"/>
<image xlink:href="tile37_8.png" preserveAspectRatio="none" x="13581.298828" y="-3449.707031" width="2.197266" height="2.197266"/>
<image xlink:href="tile37_7.png" preserveAspectRatio="none" x="13581.298828" y="-3451.904297" width="2.197266" height="2.197266"/>
<image xlink:href="tile37_6.png" preserveAspectRatio="none" x="13581.298828" y="-3454.101562" width="2.197266" height="2.197266"/>
<image xlink:href="tile37_5.png" preserveAspectRatio="none" x="13581.298828" y="-3456.298828" width="2.197266" height="2.197266"/>
<image xlink:href="tile37_4.png" preserveAspectRatio="none" x="13581.298828" y="-3458.496094" width="2.197266" height="2.197266"/>
<image xlink:href="tile37_3.png" preserveAspectRatio="none" x="13581.298828" y="-3460.693359" width="2.197266" height="2.197266"/>
<image xlink:href="tile37_2.png" preserveAspectRatio="none" x="13581.298828" y="-3462.890625" width="2.197266" height="2.197266"/>
<image xlink:href="tile37_1.png" preserveAspectRatio="none" x="13581.298828" y="-3465.087891" width="2.197266" height="2.197266"/>
<image xlink:href="tile37_0.png" preserveAspectRatio="none" x="13581.298828" y="-3467.285156" width="2.197266" height="2.197266"/>
<image xlink:href="tile38_12.png" preserveAspectRatio="none" x="13583.496094" y="-3440.917969" width="2.197266" height="2.197266"/>
<image xlink:href="tile38_8.png" preserveAspectRatio="none" x="13583.496094" y="-3449.707031" width="2.197266" height="2.197266"/>
<image xlink:href="tile38_7.png" preserveAspectRatio="none" x="13583.496094" y="-3451.904297" width="2.197266" height="2.197266"/>
<image xlink:href="tile38_6.png" preserveAspectRatio="none" x="13583.496094" y="-3454.101562" width="2.197266" height="2.197266"/>
<image xlink:href="tile38_3.png" preserveAspectRatio="none" x="13583.496094" y="-3460.693359" width="2.197266" height="2.197266"/>
<image xlink:href="tile38_2.png" preserveAspectRatio="none" x="13583.496094" y="-3462.890625" width="2.197266" height="2.197266"/>
<image xlink:href="tile38_1.png" preserveAspectRatio="none" x="13583.496094" y="-3465.087891" width="2.197266" height="2.197266"/>
<image xlink:href="tile38_0.png" preserveAspectRatio="none" x="13583.496094" y="-3467.285156" width="2.197266" height="2.197266"/>
<image xlink:href="tile39_13.png" preserveAspectRatio="none" x="13585.693359" y="-3438.720703" width="2.197266" height="2.197266"/>
<image xlink:href="tile39_12.png" preserveAspectRatio="none" x="13585.693359" y="-3440.917969" width="2.197266" height="2.197266"/>
<image xlink:href="tile39_9.png" preserveAspectRatio="none" x="13585.693359" y="-3447.509766" width="2.197266" height="2.197266"/>
<image xlink:href="tile39_8.png" preserveAspectRatio="none" x="13585.693359" y="-3449.707031" width="2.197266" height="2.197266"/>
<image xlink:href="tile39_7.png" preserveAspectRatio="none" x="13585.693359" y="-3451.904297" width="2.197266" height="2.197266"/>
<image xlink:href="tile39_6.png" preserveAspectRatio="none" x="13585.693359" y="-3454.101562" width="2.197266" height="2.197266"/>
<image xlink:href="tile39_3.png" preserveAspectRatio="none" x="13585.693359" y="-3460.693359" width="2.197266" height="2.197266"/>
<image xlink:href="tile39_2.png" preserveAspectRatio="none" x="13585.693359" y="-3462.890625" width="2.197266" height="2.197266"/>
<image xlink:href="tile40_13.png" preserveAspectRatio="none" x="13587.890625" y="-3438.720703" width="2.197266" height="2.197266"/>
<image xlink:href="tile40_12.png" preserveAspectRatio="none" x="13587.890625" y="-3440.917969" width="2.197266" height="2.197266"/>
<image xlink:href="tile40_6.png" preserveAspectRatio="none" x="13587.890625" y="-3454.101562" width="2.197266" height="2.197266"/>
<image xlink:href="tile41_13.png" preserveAspectRatio="none" x="13590.087891" y="-3438.720703" width="2.197266" height="2.197266"/>
<image xlink:href="tile41_12.png" preserveAspectRatio="none" x="13590.087891" y="-3440.917969" width="2.197266" height="2.197266"/>
<image xlink:href="tile41_9.png" preserveAspectRatio="none" x="13590.087891" y="-3447.509766" width="2.197266" height="2.197266"/>
<image xlink:href="tile41_6.png" preserveAspectRatio="none" x="13590.087891" y="-3454.101562" width="2.197266" height="2.197266"/>
<image xlink:href="tile41_5.png" preserveAspectRatio="none" x="13590.087891" y="-3456.298828" width="2.197266" height="2.197266"/>
<image xlink:href="tile42_14.png" preserveAspectRatio="none" x="13592.285156" y="-3436.523438" width="2.197266" height="2.197266"/>
<image xlink:href="tile42_13.png" preserveAspectRatio="none" x="13592.285156" y="-3438.720703" width="2.197266" height="2.197266"/>
<image xlink:href="tile42_12.png" preserveAspectRatio="none" x="13592.285156" y="-3440.917969" width="2.197266" height="2.197266"/>
<image xlink:href="tile42_9.png" preserveAspectRatio="none" x="13592.285156" y="-3447.509766" width="2.197266" height="2.197266"/>
<image xlink:href="tile42_8.png" preserveAspectRatio="none" x="13592.285156" y="-3449.707031" width="2.197266" height="2.197266"/>
<image xlink:href="tile42_7.png" preserveAspectRatio="none" x="13592.285156" y="-3451.904297" width="2.197266" height="2.197266"/>
<image xlink:href="tile42_6.png" preserveAspectRatio="none" x="13592.285156" y="-3454.101562" width="2.197266" height="2.197266"/>
<image xlink:href="tile43_13.png" preserveAspectRatio="none" x="13594.482422" y="-3438.720703" width="2.197266" height="2.197266"/>
<image xlink:href="tile43_12.png" preserveAspectRatio="none" x="13594.482422" y="-3440.917969" width="2.197266" height="2.197266"/>
<image xlink:href="tile43_9.png" preserveAspectRatio="none" x="13594.482422" y="-3447.509766" width="2.197266" height="2.197266"/>
<image xlink:href="tile43_8.png" preserveAspectRatio="none" x="13594.482422" y="-3449.707031" width="2.197266" height="2.197266"/>
<image xlink:href="tile43_7.png" preserveAspectRatio="none" x="13594.482422" y="-3451.904297" width="2.197266" height="2.197266"/>
<image xlink:href="tile43_6.png" preserveAspectRatio="none" x="13594.482422" y="-3454.101562" width="2.197266" height="2.197266"/>
<image xlink:href="tile44_12.png" preserveAspectRatio="none" x="13596.679688" y="-3440.917969" width="2.197266" height="2.197266"/>
<image xlink:href="tile44_9.png" preserveAspectRatio="none" x="13596.679688" y="-3447.509766" width="2.197266" height="2.197266"/>
<image xlink:href="tile44_8.png" preserveAspectRatio="none" x="13596.679688" y="-3449.707031" width="2.197266" height="2.197266"/>
<image xlink:href="tile44_6.png" preserveAspectRatio="none" x="13596.679688" y="-3454.101562" width="2.197266" height="2.197266"/>
<image xlink:href="tile45_13.png" preserveAspectRatio="none" x="13598.876953" y="-3438.720703" width="2.197266" height="2.197266"/>
<image xlink:href="tile45_12.png" preserveAspectRatio="none" x="13598.876953" y="-3440.917969" width="2.197266" height="2.197266"/>
<image xlink:href="tile45_9.png" preserveAspectRatio="none" x="13598.876953" y="-3447.509766" width="2.197266" height="2.197266"/>
</g>
</svg>
