<?xml version="1.0" encoding="UTF-8"?>
<svg  xmlns="http://www.w3.org/2000/svg" xmlns:xlink="http://www.w3.org/1999/xlink" xmlns:go="http://purl.org/svgmap/profile" viewBox="13500.0 -3466.666667 100.0 66.66666699999979" go:dataArea="13500.0 -3466.666667 100.0 66.66666699999979" >
<metadata>
 <rdf:RDF xmlns:rdf="http://www.w3.org/1999/02/22-rdf-syntax-ns#" xmlns:crs="http://opengis.org/xmldtds/transformations.dtd" xmlns:svg="http://www.w3.org/svg" >
  <rdf:Description>
   <crs:CoordinateReferenceSystem rdf:resource="http://purl.org/crs/84" svg:transform="matrix(100.0,0.0,0.0,-100.0,0.0,0.0)" />
  </rdf:Description>
 </rdf:RDF>
</metadata>
<globalCoordinateSystem srsName="http://purl.org/crs/84" transform="matrix(100.0,0.0,0.0,-100.0,0.0,0.0)" />
<g >
<image xlink:href="tile16_28.png" preserveAspectRatio="none" x="13535.15625" y="-3405.761719" width="2.197266" height="2.197266"/>
<image xlink:href="tile16_27.png" preserveAspectRatio="none" x="13535.15625" y="-3407.958984" width="2.197266" height="2.197266"/>
<image xlink:href="tile16_24.png" preserveAspectRatio="none" x="13535.15625" y="-3414.550781" width="2.197266" height="2.197266"/>
<image xlink:href="tile16_23.png" preserveAspectRatio="none" x="13535.15625" y="-3416.748047" width="2.197266" height="2.197266"/>
<image xlink:href="tile16_20.png" preserveAspectRatio="none" x="13535.15625" y="-3423.339844" width="2.197266" height="2.197266"/>
<image xlink:href="tile16_19.png" preserveAspectRatio="none" x="13535.15625" y="-3425.537109" width="2.197266" height="2.197266"/>
<image xlink:href="tile16_18.png" preserveAspectRatio="none" x="13535.15625" y="-3427.734375" width="2.197266" height="2.197266"/>
<image xlink:href="tile17_24.png" preserveAspectRatio="none" x="13537.353516" y="-3414.550781" width="2.197266" height="2.197266"/>
<image xlink:href="tile17_23.png" preserveAspectRatio="none" x="13537.353516" y="-3416.748047" width="2.197266" height="2.197266"/>
<image xlink:href="tile17_19.png" preserveAspectRatio="none" x="13537.353516" y="-3425.537109" width="2.197266" height="2.197266"/>
<image xlink:href="tile17_18.png" preserveAspectRatio="none" x="13537.353516" y="-3427.734375" width="2.197266" height="2.197266"/>
<image xlink:href="tile17_15.png" preserveAspectRatio="none" x="13537.353516" y="-3434.326172" width="2.197266" height="2.197266"/>
<image xlink:href="tile18_24.png" preserveAspectRatio="none" x="13539.550781" y="-3414.550781" width="2.197266" height="2.197266"/>
<image xlink:href="tile18_19.png" preserveAspectRatio="none" x="13539.550781" y="-3425.537109" width="2.197266" height="2.197266"/>
<image xlink:href="tile18_18.png" preserveAspectRatio="none" x="13539.550781" y="-3427.734375" width="2.197266" height="2.197266"/>
<image xlink:href="tile19_24.png" preserveAspectRatio="none" x="13541.748047" y="-3414.550781" width="2.197266" height="2.197266"/>
<image xlink:href="tile19_18.png" preserveAspectRatio="none" x="13541.748047" y="-3427.734375" width="2.197266" height="2.197266"/>
<image xlink:href="tile20_24.png" preserveAspectRatio="none" x="13543.945312" y="-3414.550781" width="2.197266" height="2.197266"/>
<image xlink:href="tile20_23.png" preserveAspectRatio="none" x="13543.945312" y="-3416.748047" width="2.197266" height="2.197266"/>
<image xlink:href="tile20_18.png" preserveAspectRatio="none" x="13543.945312" y="-3427.734375" width="2.197266" height="2.197266"/>
<image xlink:href="tile20_17.png" preserveAspectRatio="none" x="13543.945312" y="-3429.931641" width="2.197266" height="2.197266"/>
<image xlink:href="tile21_23.png" preserveAspectRatio="none" x="13546.142578" y="-3416.748047" width="2.197266" height="2.197266"/>
<image xlink:href="tile21_22.png" preserveAspectRatio="none" x="13546.142578" y="-3418.945312" width="2.197266" height="2.197266"/>
<image xlink:href="tile21_18.png" preserveAspectRatio="none" x="13546.142578" y="-3427.734375" width="2.197266" height="2.197266"/>
<image xlink:href="tile21_17.png" preserveAspectRatio="none" x="13546.142578" y="-3429.931641" width="2.197266" height="2.197266"/>
<image xlink:href="tile22_22.png" preserveAspectRatio="none" x="13548.339844" y="-3418.945312" width="2.197266" height="2.197266"/>
<image xlink:href="tile22_21.png" preserveAspectRatio="none" x="13548.339844" y="-3421.142578" width="2.197266" height="2.197266"/>
<image xlink:href="tile22_17.png" preserveAspectRatio="none" x="13548.339844" y="-3429.931641" width="2.197266" height="2.197266"/>
<image xlink:href="tile22_16.png" preserveAspectRatio="none" x="13548.339844" y="-3432.128906" width="2.197266" height="2.197266"/>
<image xlink:href="tile23_21.png" preserveAspectRatio="none" x="13550.537109" y="-3421.142578" width="2.197266" height="2.197266"/>
<image xlink:href="tile23_17.png" preserveAspectRatio="none" x="13550.537109" y="-3429.931641" width="2.197266" height="2.197266"/>
<image xlink:href="tile23_16.png" preserveAspectRatio="none" x="13550.537109" y="-3432.128906" width="2.197266" height="2.197266"/>
<image xlink:href="tile24_17.png" preserveAspectRatio="none" x="13552.734375" y="-3429.931641" width="2.197266" height="2.197266"/>
<image xlink:href="tile24_16.png" preserveAspectRatio="none" x="13552.734375" y="-3432.128906" width="2.197266" height="2.197266"/>
<image xlink:href="tile25_17.png" preserveAspectRatio="none" x="13554.931641" y="-3429.931641" width="2.197266" height="2.197266"/>
<image xlink:href="tile25_16.png" preserveAspectRatio="none" x="13554.931641" y="-3432.128906" width="2.197266" height="2.197266"/>
<image xlink:href="tile26_17.png" preserveAspectRatio="none" x="13557.128906" y="-3429.931641" width="2.197266" height="2.197266"/>
<image xlink:href="tile26_16.png" preserveAspectRatio="none" x="13557.128906" y="-3432.128906" width="2.197266" height="2.197266"/>
<image xlink:href="tile27_16.png" preserveAspectRatio="none" x="13559.326172" y="-3432.128906" width="2.197266" height="2.197266"/>
<image xlink:href="tile27_15.png" preserveAspectRatio="none" x="13559.326172" y="-3434.326172" width="2.197266" height="2.197266"/>
<image xlink:href="tile28_16.png" preserveAspectRatio="none" x="13561.523438" y="-3432.128906" width="2.197266" height="2.197266"/>
<image xlink:href="tile30_15.png" preserveAspectRatio="none" x="13565.917969" y="-3434.326172" width="2.197266" height="2.197266"/>
<image xlink:href="tile31_15.png" preserveAspectRatio="none" x="13568.115234" y="-3434.326172" width="2.197266" height="2.197266"/>
</g>
</svg>
