<?xml version="1.0" encoding="UTF-8"?>
<svg  xmlns="http://www.w3.org/2000/svg" xmlns:xlink="http://www.w3.org/1999/xlink" xmlns:go="http://purl.org/svgmap/profile" viewBox="13500.0 -3466.666667 100.0 66.66666699999979" go:dataArea="13500.0 -3466.666667 100.0 66.66666699999979" >
<metadata>
 <rdf:RDF xmlns:rdf="http://www.w3.org/1999/02/22-rdf-syntax-ns#" xmlns:crs="http://opengis.org/xmldtds/transformations.dtd" xmlns:svg="http://www.w3.org/svg" >
  <rdf:Description>
   <crs:CoordinateReferenceSystem rdf:resource="http://purl.org/crs/84" svg:transform="matrix(100.0,0.0,0.0,-100.0,0.0,0.0)" />
  </rdf:Description>
 </rdf:RDF>
</metadata>
<globalCoordinateSystem srsName="http://purl.org/crs/84" transform="matrix(100.0,0.0,0.0,-100.0,0.0,0.0)" />
<g >
<image xlink:href="tile0_3.png" preserveAspectRatio="none" x="13500" y="-3460.693359" width="2.197266" height="2.197266"/>
<image xlink:href="tile0_1.png" preserveAspectRatio="none" x="13500" y="-3465.087891" width="2.197266" height="2.197266"/>
<image xlink:href="tile0_0.png" preserveAspectRatio="none" x="13500" y="-3467.285156" width="2.197266" height="2.197266"/>
<image xlink:href="tile1_1.png" preserveAspectRatio="none" x="13502.197266" y="-3465.087891" width="2.197266" height="2.197266"/>
<image xlink:href="tile1_0.png" preserveAspectRatio="none" x="13502.197266" y="-3467.285156" width="2.197266" height="2.197266"/>
<image xlink:href="tile2_2.png" preserveAspectRatio="none" x="13504.394531" y="-3462.890625" width="2.197266" height="2.197266"/>
<image xlink:href="tile2_1.png" preserveAspectRatio="none" x="13504.394531" y="-3465.087891" width="2.197266" height="2.197266"/>
<image xlink:href="tile2_0.png" preserveAspectRatio="none" x="13504.394531" y="-3467.285156" width="2.197266" height="2.197266"/>
<image xlink:href="tile3_1.png" preserveAspectRatio="none" x="13506.591797" y="-3465.087891" width="2.197266" height="2.197266"/>
<image xlink:href="tile3_0.png" preserveAspectRatio="none" x="13506.591797" y="-3467.285156" width="2.197266" height="2.197266"/>
<image xlink:href="tile4_0.png" preserveAspectRatio="none" x="13508.789062" y="-3467.285156" width="2.197266" height="2.197266"/>
<image xlink:href="tile5_1.png" preserveAspectRatio="none" x="13510.986328" y="-3465.087891" width="2.197266" height="2.197266"/>
<image xlink:href="tile5_0.png" preserveAspectRatio="none" x="13510.986328" y="-3467.285156" width="2.197266" height="2.197266"/>
<image xlink:href="tile6_1.png" preserveAspectRatio="none" x="13513.183594" y="-3465.087891" width="2.197266" height="2.197266"/>
<image xlink:href="tile6_0.png" preserveAspectRatio="none" x="13513.183594" y="-3467.285156" width="2.197266" height="2.197266"/>
<image xlink:href="tile7_1.png" preserveAspectRatio="none" x="13515.380859" y="-3465.087891" width="2.197266" height="2.197266"/>
<image xlink:href="tile7_0.png" preserveAspectRatio="none" x="13515.380859" y="-3467.285156" width="2.197266" height="2.197266"/>
<image xlink:href="tile10_14.png" preserveAspectRatio="none" x="13521.972656" y="-3436.523438" width="2.197266" height="2.197266"/>
<image xlink:href="tile10_13.png" preserveAspectRatio="none" x="13521.972656" y="-3438.720703" width="2.197266" height="2.197266"/>
<image xlink:href="tile11_14.png" preserveAspectRatio="none" x="13524.169922" y="-3436.523438" width="2.197266" height="2.197266"/>
<image xlink:href="tile11_13.png" preserveAspectRatio="none" x="13524.169922" y="-3438.720703" width="2.197266" height="2.197266"/>
<image xlink:href="tile12_14.png" preserveAspectRatio="none" x="13526.367188" y="-3436.523438" width="2.197266" height="2.197266"/>
<image xlink:href="tile12_13.png" preserveAspectRatio="none" x="13526.367188" y="-3438.720703" width="2.197266" height="2.197266"/>
<image xlink:href="tile12_12.png" preserveAspectRatio="none" x="13526.367188" y="-3440.917969" width="2.197266" height="2.197266"/>
<image xlink:href="tile13_14.png" preserveAspectRatio="none" x="13528.564453" y="-3436.523438" width="2.197266" height="2.197266"/>
<image xlink:href="tile13_13.png" preserveAspectRatio="none" x="13528.564453" y="-3438.720703" width="2.197266" height="2.197266"/>
<image xlink:href="tile13_12.png" preserveAspectRatio="none" x="13528.564453" y="-3440.917969" width="2.197266" height="2.197266"/>
<image xlink:href="tile13_11.png" preserveAspectRatio="none" x="13528.564453" y="-3443.115234" width="2.197266" height="2.197266"/>
<image xlink:href="tile14_14.png" preserveAspectRatio="none" x="13530.761719" y="-3436.523438" width="2.197266" height="2.197266"/>
<image xlink:href="tile14_13.png" preserveAspectRatio="none" x="13530.761719" y="-3438.720703" width="2.197266" height="2.197266"/>
<image xlink:href="tile14_11.png" preserveAspectRatio="none" x="13530.761719" y="-3443.115234" width="2.197266" height="2.197266"/>
<image xlink:href="tile15_13.png" preserveAspectRatio="none" x="13532.958984" y="-3438.720703" width="2.197266" height="2.197266"/>
<image xlink:href="tile15_12.png" preserveAspectRatio="none" x="13532.958984" y="-3440.917969" width="2.197266" height="2.197266"/>
<image xlink:href="tile15_11.png" preserveAspectRatio="none" x="13532.958984" y="-3443.115234" width="2.197266" height="2.197266"/>
<image xlink:href="tile15_10.png" preserveAspectRatio="none" x="13532.958984" y="-3445.3125" width="2.197266" height="2.197266"/>
</g>
</svg>
