<?xml version="1.0" encoding="UTF-8"?>
<svg  xmlns="http://www.w3.org/2000/svg" xmlns:xlink="http://www.w3.org/1999/xlink" xmlns:go="http://purl.org/svgmap/profile" viewBox="13500.0 -3466.666667 100.0 66.66666699999979" go:dataArea="13500.0 -3466.666667 100.0 66.66666699999979" >
<metadata>
 <rdf:RDF xmlns:rdf="http://www.w3.org/1999/02/22-rdf-syntax-ns#" xmlns:crs="http://opengis.org/xmldtds/transformations.dtd" xmlns:svg="http://www.w3.org/svg" >
  <rdf:Description>
   <crs:CoordinateReferenceSystem rdf:resource="http://purl.org/crs/84" svg:transform="matrix(100.0,0.0,0.0,-100.0,0.0,0.0)" />
  </rdf:Description>
 </rdf:RDF>
</metadata>
<globalCoordinateSystem srsName="http://purl.org/crs/84" transform="matrix(100.0,0.0,0.0,-100.0,0.0,0.0)" />
<g >
<image xlink:href="tile4_27.png" preserveAspectRatio="none" x="13508.789062" y="-3407.958984" width="2.197266" height="2.197266"/>
<image xlink:href="tile4_26.png" preserveAspectRatio="none" x="13508.789062" y="-3410.15625" width="2.197266" height="2.197266"/>
<image xlink:href="tile4_18.png" preserveAspectRatio="none" x="13508.789062" y="-3427.734375" width="2.197266" height="2.197266"/>
<image xlink:href="tile5_27.png" preserveAspectRatio="none" x="13510.986328" y="-3407.958984" width="2.197266" height="2.197266"/>
<image xlink:href="tile5_26.png" preserveAspectRatio="none" x="13510.986328" y="-3410.15625" width="2.197266" height="2.197266"/>
<image xlink:href="tile5_25.png" preserveAspectRatio="none" x="13510.986328" y="-3412.353516" width="2.197266" height="2.197266"/>
<image xlink:href="tile5_20.png" preserveAspectRatio="none" x="13510.986328" y="-3423.339844" width="2.197266" height="2.197266"/>
<image xlink:href="tile5_19.png" preserveAspectRatio="none" x="13510.986328" y="-3425.537109" width="2.197266" height="2.197266"/>
<image xlink:href="tile5_18.png" preserveAspectRatio="none" x="13510.986328" y="-3427.734375" width="2.197266" height="2.197266"/>
<image xlink:href="tile6_27.png" preserveAspectRatio="none" x="13513.183594" y="-3407.958984" width="2.197266" height="2.197266"/>
<image xlink:href="tile6_26.png" preserveAspectRatio="none" x="13513.183594" y="-3410.15625" width="2.197266" height="2.197266"/>
<image xlink:href="tile6_25.png" preserveAspectRatio="none" x="13513.183594" y="-3412.353516" width="2.197266" height="2.197266"/>
<image xlink:href="tile6_24.png" preserveAspectRatio="none" x="13513.183594" y="-3414.550781" width="2.197266" height="2.197266"/>
<image xlink:href="tile6_22.png" preserveAspectRatio="none" x="13513.183594" y="-3418.945312" width="2.197266" height="2.197266"/>
<image xlink:href="tile6_21.png" preserveAspectRatio="none" x="13513.183594" y="-3421.142578" width="2.197266" height="2.197266"/>
<image xlink:href="tile6_20.png" preserveAspectRatio="none" x="13513.183594" y="-3423.339844" width="2.197266" height="2.197266"/>
<image xlink:href="tile6_19.png" preserveAspectRatio="none" x="13513.183594" y="-3425.537109" width="2.197266" height="2.197266"/>
<image xlink:href="tile6_18.png" preserveAspectRatio="none" x="13513.183594" y="-3427.734375" width="2.197266" height="2.197266"/>
<image xlink:href="tile7_29.png" preserveAspectRatio="none" x="13515.380859" y="-3403.564453" width="2.197266" height="2.197266"/>
<image xlink:href="tile7_28.png" preserveAspectRatio="none" x="13515.380859" y="-3405.761719" width="2.197266" height="2.197266"/>
<image xlink:href="tile7_27.png" preserveAspectRatio="none" x="13515.380859" y="-3407.958984" width="2.197266" height="2.197266"/>
<image xlink:href="tile7_26.png" preserveAspectRatio="none" x="13515.380859" y="-3410.15625" width="2.197266" height="2.197266"/>
<image xlink:href="tile7_25.png" preserveAspectRatio="none" x="13515.380859" y="-3412.353516" width="2.197266" height="2.197266"/>
<image xlink:href="tile7_24.png" preserveAspectRatio="none" x="13515.380859" y="-3414.550781" width="2.197266" height="2.197266"/>
<image xlink:href="tile7_22.png" preserveAspectRatio="none" x="13515.380859" y="-3418.945312" width="2.197266" height="2.197266"/>
<image xlink:href="tile7_21.png" preserveAspectRatio="none" x="13515.380859" y="-3421.142578" width="2.197266" height="2.197266"/>
<image xlink:href="tile7_20.png" preserveAspectRatio="none" x="13515.380859" y="-3423.339844" width="2.197266" height="2.197266"/>
<image xlink:href="tile7_19.png" preserveAspectRatio="none" x="13515.380859" y="-3425.537109" width="2.197266" height="2.197266"/>
<image xlink:href="tile7_18.png" preserveAspectRatio="none" x="13515.380859" y="-3427.734375" width="2.197266" height="2.197266"/>
<image xlink:href="tile8_30.png" preserveAspectRatio="none" x="13517.578125" y="-3401.367188" width="2.197266" height="2.197266"/>
<image xlink:href="tile8_29.png" preserveAspectRatio="none" x="13517.578125" y="-3403.564453" width="2.197266" height="2.197266"/>
<image xlink:href="tile8_28.png" preserveAspectRatio="none" x="13517.578125" y="-3405.761719" width="2.197266" height="2.197266"/>
<image xlink:href="tile8_27.png" preserveAspectRatio="none" x="13517.578125" y="-3407.958984" width="2.197266" height="2.197266"/>
<image xlink:href="tile8_26.png" preserveAspectRatio="none" x="13517.578125" y="-3410.15625" width="2.197266" height="2.197266"/>
<image xlink:href="tile8_25.png" preserveAspectRatio="none" x="13517.578125" y="-3412.353516" width="2.197266" height="2.197266"/>
<image xlink:href="tile8_24.png" preserveAspectRatio="none" x="13517.578125" y="-3414.550781" width="2.197266" height="2.197266"/>
<image xlink:href="tile8_23.png" preserveAspectRatio="none" x="13517.578125" y="-3416.748047" width="2.197266" height="2.197266"/>
<image xlink:href="tile8_22.png" preserveAspectRatio="none" x="13517.578125" y="-3418.945312" width="2.197266" height="2.197266"/>
<image xlink:href="tile8_21.png" preserveAspectRatio="none" x="13517.578125" y="-3421.142578" width="2.197266" height="2.197266"/>
<image xlink:href="tile8_20.png" preserveAspectRatio="none" x="13517.578125" y="-3423.339844" width="2.197266" height="2.197266"/>
<image xlink:href="tile8_19.png" preserveAspectRatio="none" x="13517.578125" y="-3425.537109" width="2.197266" height="2.197266"/>
<image xlink:href="tile8_18.png" preserveAspectRatio="none" x="13517.578125" y="-3427.734375" width="2.197266" height="2.197266"/>
<image xlink:href="tile9_29.png" preserveAspectRatio="none" x="13519.775391" y="-3403.564453" width="2.197266" height="2.197266"/>
<image xlink:href="tile9_28.png" preserveAspectRatio="none" x="13519.775391" y="-3405.761719" width="2.197266" height="2.197266"/>
<image xlink:href="tile9_27.png" preserveAspectRatio="none" x="13519.775391" y="-3407.958984" width="2.197266" height="2.197266"/>
<image xlink:href="tile9_26.png" preserveAspectRatio="none" x="13519.775391" y="-3410.15625" width="2.197266" height="2.197266"/>
<image xlink:href="tile9_24.png" preserveAspectRatio="none" x="13519.775391" y="-3414.550781" width="2.197266" height="2.197266"/>
<image xlink:href="tile9_23.png" preserveAspectRatio="none" x="13519.775391" y="-3416.748047" width="2.197266" height="2.197266"/>
<image xlink:href="tile9_22.png" preserveAspectRatio="none" x="13519.775391" y="-3418.945312" width="2.197266" height="2.197266"/>
<image xlink:href="tile9_21.png" preserveAspectRatio="none" x="13519.775391" y="-3421.142578" width="2.197266" height="2.197266"/>
<image xlink:href="tile9_20.png" preserveAspectRatio="none" x="13519.775391" y="-3423.339844" width="2.197266" height="2.197266"/>
<image xlink:href="tile9_19.png" preserveAspectRatio="none" x="13519.775391" y="-3425.537109" width="2.197266" height="2.197266"/>
<image xlink:href="tile9_18.png" preserveAspectRatio="none" x="13519.775391" y="-3427.734375" width="2.197266" height="2.197266"/>
<image xlink:href="tile10_27.png" preserveAspectRatio="none" x="13521.972656" y="-3407.958984" width="2.197266" height="2.197266"/>
<image xlink:href="tile10_23.png" preserveAspectRatio="none" x="13521.972656" y="-3416.748047" width="2.197266" height="2.197266"/>
<image xlink:href="tile10_22.png" preserveAspectRatio="none" x="13521.972656" y="-3418.945312" width="2.197266" height="2.197266"/>
<image xlink:href="tile10_21.png" preserveAspectRatio="none" x="13521.972656" y="-3421.142578" width="2.197266" height="2.197266"/>
<image xlink:href="tile10_20.png" preserveAspectRatio="none" x="13521.972656" y="-3423.339844" width="2.197266" height="2.197266"/>
<image xlink:href="tile10_19.png" preserveAspectRatio="none" x="13521.972656" y="-3425.537109" width="2.197266" height="2.197266"/>
<image xlink:href="tile10_18.png" preserveAspectRatio="none" x="13521.972656" y="-3427.734375" width="2.197266" height="2.197266"/>
<image xlink:href="tile11_28.png" preserveAspectRatio="none" x="13524.169922" y="-3405.761719" width="2.197266" height="2.197266"/>
<image xlink:href="tile11_27.png" preserveAspectRatio="none" x="13524.169922" y="-3407.958984" width="2.197266" height="2.197266"/>
<image xlink:href="tile11_24.png" preserveAspectRatio="none" x="13524.169922" y="-3414.550781" width="2.197266" height="2.197266"/>
<image xlink:href="tile11_23.png" preserveAspectRatio="none" x="13524.169922" y="-3416.748047" width="2.197266" height="2.197266"/>
<image xlink:href="tile11_22.png" preserveAspectRatio="none" x="13524.169922" y="-3418.945312" width="2.197266" height="2.197266"/>
<image xlink:href="tile11_21.png" preserveAspectRatio="none" x="13524.169922" y="-3421.142578" width="2.197266" height="2.197266"/>
<image xlink:href="tile11_20.png" preserveAspectRatio="none" x="13524.169922" y="-3423.339844" width="2.197266" height="2.197266"/>
<image xlink:href="tile11_19.png" preserveAspectRatio="none" x="13524.169922" y="-3425.537109" width="2.197266" height="2.197266"/>
<image xlink:href="tile11_18.png" preserveAspectRatio="none" x="13524.169922" y="-3427.734375" width="2.197266" height="2.197266"/>
<image xlink:href="tile12_28.png" preserveAspectRatio="none" x="13526.367188" y="-3405.761719" width="2.197266" height="2.197266"/>
<image xlink:href="tile12_24.png" preserveAspectRatio="none" x="13526.367188" y="-3414.550781" width="2.197266" height="2.197266"/>
<image xlink:href="tile12_23.png" preserveAspectRatio="none" x="13526.367188" y="-3416.748047" width="2.197266" height="2.197266"/>
<image xlink:href="tile12_22.png" preserveAspectRatio="none" x="13526.367188" y="-3418.945312" width="2.197266" height="2.197266"/>
<image xlink:href="tile12_20.png" preserveAspectRatio="none" x="13526.367188" y="-3423.339844" width="2.197266" height="2.197266"/>
<image xlink:href="tile12_19.png" preserveAspectRatio="none" x="13526.367188" y="-3425.537109" width="2.197266" height="2.197266"/>
<image xlink:href="tile12_18.png" preserveAspectRatio="none" x="13526.367188" y="-3427.734375" width="2.197266" height="2.197266"/>
<image xlink:href="tile13_29.png" preserveAspectRatio="none" x="13528.564453" y="-3403.564453" width="2.197266" height="2.197266"/>
<image xlink:href="tile13_28.png" preserveAspectRatio="none" x="13528.564453" y="-3405.761719" width="2.197266" height="2.197266"/>
<image xlink:href="tile13_23.png" preserveAspectRatio="none" x="13528.564453" y="-3416.748047" width="2.197266" height="2.197266"/>
<image xlink:href="tile13_22.png" preserveAspectRatio="none" x="13528.564453" y="-3418.945312" width="2.197266" height="2.197266"/>
<image xlink:href="tile13_21.png" preserveAspectRatio="none" x="13528.564453" y="-3421.142578" width="2.197266" height="2.197266"/>
<image xlink:href="tile13_19.png" preserveAspectRatio="none" x="13528.564453" y="-3425.537109" width="2.197266" height="2.197266"/>
<image xlink:href="tile13_18.png" preserveAspectRatio="none" x="13528.564453" y="-3427.734375" width="2.197266" height="2.197266"/>
<image xlink:href="tile13_15.png" preserveAspectRatio="none" x="13528.564453" y="-3434.326172" width="2.197266" height="2.197266"/>
<image xlink:href="tile14_29.png" preserveAspectRatio="none" x="13530.761719" y="-3403.564453" width="2.197266" height="2.197266"/>
<image xlink:href="tile14_28.png" preserveAspectRatio="none" x="13530.761719" y="-3405.761719" width="2.197266" height="2.197266"/>
<image xlink:href="tile14_23.png" preserveAspectRatio="none" x="13530.761719" y="-3416.748047" width="2.197266" height="2.197266"/>
<image xlink:href="tile14_21.png" preserveAspectRatio="none" x="13530.761719" y="-3421.142578" width="2.197266" height="2.197266"/>
<image xlink:href="tile14_20.png" preserveAspectRatio="none" x="13530.761719" y="-3423.339844" width="2.197266" height="2.197266"/>
<image xlink:href="tile14_19.png" preserveAspectRatio="none" x="13530.761719" y="-3425.537109" width="2.197266" height="2.197266"/>
<image xlink:href="tile14_18.png" preserveAspectRatio="none" x="13530.761719" y="-3427.734375" width="2.197266" height="2.197266"/>
<image xlink:href="tile14_15.png" preserveAspectRatio="none" x="13530.761719" y="-3434.326172" width="2.197266" height="2.197266"/>
<image xlink:href="tile15_28.png" preserveAspectRatio="none" x="13532.958984" y="-3405.761719" width="2.197266" height="2.197266"/>
<image xlink:href="tile15_27.png" preserveAspectRatio="none" x="13532.958984" y="-3407.958984" width="2.197266" height="2.197266"/>
<image xlink:href="tile15_24.png" preserveAspectRatio="none" x="13532.958984" y="-3414.550781" width="2.197266" height="2.197266"/>
<image xlink:href="tile15_23.png" preserveAspectRatio="none" x="13532.958984" y="-3416.748047" width="2.197266" height="2.197266"/>
<image xlink:href="tile15_21.png" preserveAspectRatio="none" x="13532.958984" y="-3421.142578" width="2.197266" height="2.197266"/>
<image xlink:href="tile15_20.png" preserveAspectRatio="none" x="13532.958984" y="-3423.339844" width="2.197266" height="2.197266"/>
<image xlink:href="tile15_19.png" preserveAspectRatio="none" x="13532.958984" y="-3425.537109" width="2.197266" height="2.197266"/>
<image xlink:href="tile15_18.png" preserveAspectRatio="none" x="13532.958984" y="-3427.734375" width="2.197266" height="2.197266"/>
</g>
</svg>
