<?xml version="1.0" encoding="UTF-8"?>
<svg  xmlns="http://www.w3.org/2000/svg" xmlns:xlink="http://www.w3.org/1999/xlink" xmlns:go="http://purl.org/svgmap/profile" viewBox="13100.0 -3466.666667 100.0 66.66666699999979" go:dataArea="13100.0 -3466.666667 100.0 66.66666699999979" >
<metadata>
 <rdf:RDF xmlns:rdf="http://www.w3.org/1999/02/22-rdf-syntax-ns#" xmlns:crs="http://opengis.org/xmldtds/transformations.dtd" xmlns:svg="http://www.w3.org/svg" >
  <rdf:Description>
   <crs:CoordinateReferenceSystem rdf:resource="http://purl.org/crs/84" svg:transform="matrix(100.0,0.0,0.0,-100.0,0.0,0.0)" />
  </rdf:Description>
 </rdf:RDF>
</metadata>
<globalCoordinateSystem srsName="http://purl.org/crs/84" transform="matrix(100.0,0.0,0.0,-100.0,0.0,0.0)" />
<g >
<image xlink:href="tile32_14.png" preserveAspectRatio="none" x="13168.212891" y="-3436.523438" width="2.197266" height="2.197266"/>
<image xlink:href="tile32_13.png" preserveAspectRatio="none" x="13168.212891" y="-3438.720703" width="2.197266" height="2.197266"/>
<image xlink:href="tile32_12.png" preserveAspectRatio="none" x="13168.212891" y="-3440.917969" width="2.197266" height="2.197266"/>
<image xlink:href="tile32_4.png" preserveAspectRatio="none" x="13168.212891" y="-3458.496094" width="2.197266" height="2.197266"/>
<image xlink:href="tile32_3.png" preserveAspectRatio="none" x="13168.212891" y="-3460.693359" width="2.197266" height="2.197266"/>
<image xlink:href="tile32_2.png" preserveAspectRatio="none" x="13168.212891" y="-3462.890625" width="2.197266" height="2.197266"/>
<image xlink:href="tile33_13.png" preserveAspectRatio="none" x="13170.410156" y="-3438.720703" width="2.197266" height="2.197266"/>
<image xlink:href="tile33_12.png" preserveAspectRatio="none" x="13170.410156" y="-3440.917969" width="2.197266" height="2.197266"/>
<image xlink:href="tile34_9.png" preserveAspectRatio="none" x="13172.607422" y="-3447.509766" width="2.197266" height="2.197266"/>
<image xlink:href="tile34_8.png" preserveAspectRatio="none" x="13172.607422" y="-3449.707031" width="2.197266" height="2.197266"/>
<image xlink:href="tile35_10.png" preserveAspectRatio="none" x="13174.804688" y="-3445.3125" width="2.197266" height="2.197266"/>
<image xlink:href="tile35_9.png" preserveAspectRatio="none" x="13174.804688" y="-3447.509766" width="2.197266" height="2.197266"/>
<image xlink:href="tile36_9.png" preserveAspectRatio="none" x="13177.001953" y="-3447.509766" width="2.197266" height="2.197266"/>
<image xlink:href="tile36_8.png" preserveAspectRatio="none" x="13177.001953" y="-3449.707031" width="2.197266" height="2.197266"/>
<image xlink:href="tile36_2.png" preserveAspectRatio="none" x="13177.001953" y="-3462.890625" width="2.197266" height="2.197266"/>
<image xlink:href="tile36_1.png" preserveAspectRatio="none" x="13177.001953" y="-3465.087891" width="2.197266" height="2.197266"/>
<image xlink:href="tile36_0.png" preserveAspectRatio="none" x="13177.001953" y="-3467.285156" width="2.197266" height="2.197266"/>
<image xlink:href="tile37_3.png" preserveAspectRatio="none" x="13179.199219" y="-3460.693359" width="2.197266" height="2.197266"/>
<image xlink:href="tile37_2.png" preserveAspectRatio="none" x="13179.199219" y="-3462.890625" width="2.197266" height="2.197266"/>
<image xlink:href="tile37_1.png" preserveAspectRatio="none" x="13179.199219" y="-3465.087891" width="2.197266" height="2.197266"/>
<image xlink:href="tile37_0.png" preserveAspectRatio="none" x="13179.199219" y="-3467.285156" width="2.197266" height="2.197266"/>
<image xlink:href="tile38_2.png" preserveAspectRatio="none" x="13181.396484" y="-3462.890625" width="2.197266" height="2.197266"/>
<image xlink:href="tile38_0.png" preserveAspectRatio="none" x="13181.396484" y="-3467.285156" width="2.197266" height="2.197266"/>
<image xlink:href="tile41_0.png" preserveAspectRatio="none" x="13187.988281" y="-3467.285156" width="2.197266" height="2.197266"/>
<image xlink:href="tile42_14.png" preserveAspectRatio="none" x="13190.185547" y="-3436.523438" width="2.197266" height="2.197266"/>
<image xlink:href="tile42_13.png" preserveAspectRatio="none" x="13190.185547" y="-3438.720703" width="2.197266" height="2.197266"/>
<image xlink:href="tile43_14.png" preserveAspectRatio="none" x="13192.382812" y="-3436.523438" width="2.197266" height="2.197266"/>
</g>
</svg>
