<?xml version="1.0" encoding="UTF-8"?>
<svg  xmlns="http://www.w3.org/2000/svg" xmlns:xlink="http://www.w3.org/1999/xlink" xmlns:go="http://purl.org/svgmap/profile" viewBox="13585.4875 -3399.8291667 14.512500000000728 25.924999999999443" go:dataArea="13585.4875 -3399.8291667 14.512500000000728 25.924999999999443" >
<metadata>
 <rdf:RDF xmlns:rdf="http://www.w3.org/1999/02/22-rdf-syntax-ns#" xmlns:crs="http://opengis.org/xmldtds/transformations.dtd" xmlns:svg="http://www.w3.org/svg" >
  <rdf:Description>
   <crs:CoordinateReferenceSystem rdf:resource="http://purl.org/crs/84" svg:transform="matrix(100.0,0.0,0.0,-100.0,0.0,0.0)" />
  </rdf:Description>
 </rdf:RDF>
</metadata>
<globalCoordinateSystem srsName="http://purl.org/crs/84" transform="matrix(100.0,0.0,0.0,-100.0,0.0,0.0)" />
<g >
<image xlink:href="tile0_7.png" preserveAspectRatio="none" x="13583.496094" y="-3385.986328" width="2.197266" height="2.197266"/>
<image xlink:href="tile0_6.png" preserveAspectRatio="none" x="13583.496094" y="-3388.183594" width="2.197266" height="2.197266"/>
<image xlink:href="tile1_9.png" preserveAspectRatio="none" x="13585.693359" y="-3381.591797" width="2.197266" height="2.197266"/>
<image xlink:href="tile1_8.png" preserveAspectRatio="none" x="13585.693359" y="-3383.789062" width="2.197266" height="2.197266"/>
<image xlink:href="tile1_7.png" preserveAspectRatio="none" x="13585.693359" y="-3385.986328" width="2.197266" height="2.197266"/>
<image xlink:href="tile1_6.png" preserveAspectRatio="none" x="13585.693359" y="-3388.183594" width="2.197266" height="2.197266"/>
<image xlink:href="tile2_8.png" preserveAspectRatio="none" x="13587.890625" y="-3383.789062" width="2.197266" height="2.197266"/>
<image xlink:href="tile2_6.png" preserveAspectRatio="none" x="13587.890625" y="-3388.183594" width="2.197266" height="2.197266"/>
<image xlink:href="tile2_5.png" preserveAspectRatio="none" x="13587.890625" y="-3390.380859" width="2.197266" height="2.197266"/>
<image xlink:href="tile2_4.png" preserveAspectRatio="none" x="13587.890625" y="-3392.578125" width="2.197266" height="2.197266"/>
<image xlink:href="tile3_8.png" preserveAspectRatio="none" x="13590.087891" y="-3383.789062" width="2.197266" height="2.197266"/>
<image xlink:href="tile3_7.png" preserveAspectRatio="none" x="13590.087891" y="-3385.986328" width="2.197266" height="2.197266"/>
<image xlink:href="tile3_6.png" preserveAspectRatio="none" x="13590.087891" y="-3388.183594" width="2.197266" height="2.197266"/>
<image xlink:href="tile3_5.png" preserveAspectRatio="none" x="13590.087891" y="-3390.380859" width="2.197266" height="2.197266"/>
<image xlink:href="tile3_4.png" preserveAspectRatio="none" x="13590.087891" y="-3392.578125" width="2.197266" height="2.197266"/>
<image xlink:href="tile3_3.png" preserveAspectRatio="none" x="13590.087891" y="-3394.775391" width="2.197266" height="2.197266"/>
<image xlink:href="tile4_11.png" preserveAspectRatio="none" x="13592.285156" y="-3377.197266" width="2.197266" height="2.197266"/>
<image xlink:href="tile4_9.png" preserveAspectRatio="none" x="13592.285156" y="-3381.591797" width="2.197266" height="2.197266"/>
<image xlink:href="tile4_8.png" preserveAspectRatio="none" x="13592.285156" y="-3383.789062" width="2.197266" height="2.197266"/>
<image xlink:href="tile4_7.png" preserveAspectRatio="none" x="13592.285156" y="-3385.986328" width="2.197266" height="2.197266"/>
<image xlink:href="tile4_6.png" preserveAspectRatio="none" x="13592.285156" y="-3388.183594" width="2.197266" height="2.197266"/>
<image xlink:href="tile4_4.png" preserveAspectRatio="none" x="13592.285156" y="-3392.578125" width="2.197266" height="2.197266"/>
<image xlink:href="tile4_3.png" preserveAspectRatio="none" x="13592.285156" y="-3394.775391" width="2.197266" height="2.197266"/>
<image xlink:href="tile5_12.png" preserveAspectRatio="none" x="13594.482422" y="-3375" width="2.197266" height="2.197266"/>
<image xlink:href="tile5_11.png" preserveAspectRatio="none" x="13594.482422" y="-3377.197266" width="2.197266" height="2.197266"/>
<image xlink:href="tile5_10.png" preserveAspectRatio="none" x="13594.482422" y="-3379.394531" width="2.197266" height="2.197266"/>
<image xlink:href="tile5_9.png" preserveAspectRatio="none" x="13594.482422" y="-3381.591797" width="2.197266" height="2.197266"/>
<image xlink:href="tile5_8.png" preserveAspectRatio="none" x="13594.482422" y="-3383.789062" width="2.197266" height="2.197266"/>
<image xlink:href="tile5_6.png" preserveAspectRatio="none" x="13594.482422" y="-3388.183594" width="2.197266" height="2.197266"/>
<image xlink:href="tile5_4.png" preserveAspectRatio="none" x="13594.482422" y="-3392.578125" width="2.197266" height="2.197266"/>
<image xlink:href="tile5_3.png" preserveAspectRatio="none" x="13594.482422" y="-3394.775391" width="2.197266" height="2.197266"/>
<image xlink:href="tile6_12.png" preserveAspectRatio="none" x="13596.679688" y="-3375" width="2.197266" height="2.197266"/>
<image xlink:href="tile6_11.png" preserveAspectRatio="none" x="13596.679688" y="-3377.197266" width="2.197266" height="2.197266"/>
<image xlink:href="tile6_10.png" preserveAspectRatio="none" x="13596.679688" y="-3379.394531" width="2.197266" height="2.197266"/>
<image xlink:href="tile6_9.png" preserveAspectRatio="none" x="13596.679688" y="-3381.591797" width="2.197266" height="2.197266"/>
<image xlink:href="tile6_8.png" preserveAspectRatio="none" x="13596.679688" y="-3383.789062" width="2.197266" height="2.197266"/>
<image xlink:href="tile6_7.png" preserveAspectRatio="none" x="13596.679688" y="-3385.986328" width="2.197266" height="2.197266"/>
<image xlink:href="tile6_6.png" preserveAspectRatio="none" x="13596.679688" y="-3388.183594" width="2.197266" height="2.197266"/>
<image xlink:href="tile6_4.png" preserveAspectRatio="none" x="13596.679688" y="-3392.578125" width="2.197266" height="2.197266"/>
<image xlink:href="tile6_3.png" preserveAspectRatio="none" x="13596.679688" y="-3394.775391" width="2.197266" height="2.197266"/>
<image xlink:href="tile6_2.png" preserveAspectRatio="none" x="13596.679688" y="-3396.972656" width="2.197266" height="2.197266"/>
<image xlink:href="tile7_12.png" preserveAspectRatio="none" x="13598.876953" y="-3375" width="2.197266" height="2.197266"/>
<image xlink:href="tile7_11.png" preserveAspectRatio="none" x="13598.876953" y="-3377.197266" width="2.197266" height="2.197266"/>
<image xlink:href="tile7_10.png" preserveAspectRatio="none" x="13598.876953" y="-3379.394531" width="2.197266" height="2.197266"/>
<image xlink:href="tile7_9.png" preserveAspectRatio="none" x="13598.876953" y="-3381.591797" width="2.197266" height="2.197266"/>
<image xlink:href="tile7_8.png" preserveAspectRatio="none" x="13598.876953" y="-3383.789062" width="2.197266" height="2.197266"/>
<image xlink:href="tile7_7.png" preserveAspectRatio="none" x="13598.876953" y="-3385.986328" width="2.197266" height="2.197266"/>
<image xlink:href="tile7_6.png" preserveAspectRatio="none" x="13598.876953" y="-3388.183594" width="2.197266" height="2.197266"/>
<image xlink:href="tile7_4.png" preserveAspectRatio="none" x="13598.876953" y="-3392.578125" width="2.197266" height="2.197266"/>
<image xlink:href="tile7_2.png" preserveAspectRatio="none" x="13598.876953" y="-3396.972656" width="2.197266" height="2.197266"/>
<image xlink:href="tile7_0.png" preserveAspectRatio="none" x="13598.876953" y="-3401.367188" width="2.197266" height="2.197266"/>
</g>
</svg>
