<?xml version="1.0" encoding="UTF-8"?>
<svg  xmlns="http://www.w3.org/2000/svg" xmlns:xlink="http://www.w3.org/1999/xlink" xmlns:go="http://purl.org/svgmap/profile" viewBox="14200.0 -4333.333333099999 100.0 66.66666610000007" go:dataArea="14200.0 -4333.333333099999 100.0 66.66666610000007" >
<metadata>
 <rdf:RDF xmlns:rdf="http://www.w3.org/1999/02/22-rdf-syntax-ns#" xmlns:crs="http://opengis.org/xmldtds/transformations.dtd" xmlns:svg="http://www.w3.org/svg" >
  <rdf:Description>
   <crs:CoordinateReferenceSystem rdf:resource="http://purl.org/crs/84" svg:transform="matrix(100.0,0.0,0.0,-100.0,0.0,0.0)" />
  </rdf:Description>
 </rdf:RDF>
</metadata>
<globalCoordinateSystem srsName="http://purl.org/crs/84" transform="matrix(100.0,0.0,0.0,-100.0,0.0,0.0)" />
<g >
<image xlink:href="tile3_31.png" preserveAspectRatio="none" x="14205.322266" y="-4267.089844" width="2.197266" height="2.197266"/>
<image xlink:href="tile3_30.png" preserveAspectRatio="none" x="14205.322266" y="-4269.287109" width="2.197266" height="2.197266"/>
<image xlink:href="tile4_31.png" preserveAspectRatio="none" x="14207.519531" y="-4267.089844" width="2.197266" height="2.197266"/>
<image xlink:href="tile4_30.png" preserveAspectRatio="none" x="14207.519531" y="-4269.287109" width="2.197266" height="2.197266"/>
<image xlink:href="tile5_30.png" preserveAspectRatio="none" x="14209.716797" y="-4269.287109" width="2.197266" height="2.197266"/>
<image xlink:href="tile5_29.png" preserveAspectRatio="none" x="14209.716797" y="-4271.484375" width="2.197266" height="2.197266"/>
<image xlink:href="tile5_28.png" preserveAspectRatio="none" x="14209.716797" y="-4273.681641" width="2.197266" height="2.197266"/>
<image xlink:href="tile5_27.png" preserveAspectRatio="none" x="14209.716797" y="-4275.878906" width="2.197266" height="2.197266"/>
<image xlink:href="tile6_29.png" preserveAspectRatio="none" x="14211.914062" y="-4271.484375" width="2.197266" height="2.197266"/>
<image xlink:href="tile6_28.png" preserveAspectRatio="none" x="14211.914062" y="-4273.681641" width="2.197266" height="2.197266"/>
<image xlink:href="tile6_27.png" preserveAspectRatio="none" x="14211.914062" y="-4275.878906" width="2.197266" height="2.197266"/>
<image xlink:href="tile6_26.png" preserveAspectRatio="none" x="14211.914062" y="-4278.076172" width="2.197266" height="2.197266"/>
<image xlink:href="tile7_27.png" preserveAspectRatio="none" x="14214.111328" y="-4275.878906" width="2.197266" height="2.197266"/>
<image xlink:href="tile7_26.png" preserveAspectRatio="none" x="14214.111328" y="-4278.076172" width="2.197266" height="2.197266"/>
<image xlink:href="tile8_31.png" preserveAspectRatio="none" x="14216.308594" y="-4267.089844" width="2.197266" height="2.197266"/>
<image xlink:href="tile8_30.png" preserveAspectRatio="none" x="14216.308594" y="-4269.287109" width="2.197266" height="2.197266"/>
<image xlink:href="tile8_26.png" preserveAspectRatio="none" x="14216.308594" y="-4278.076172" width="2.197266" height="2.197266"/>
<image xlink:href="tile9_31.png" preserveAspectRatio="none" x="14218.505859" y="-4267.089844" width="2.197266" height="2.197266"/>
<image xlink:href="tile9_30.png" preserveAspectRatio="none" x="14218.505859" y="-4269.287109" width="2.197266" height="2.197266"/>
<image xlink:href="tile9_29.png" preserveAspectRatio="none" x="14218.505859" y="-4271.484375" width="2.197266" height="2.197266"/>
<image xlink:href="tile10_30.png" preserveAspectRatio="none" x="14220.703125" y="-4269.287109" width="2.197266" height="2.197266"/>
<image xlink:href="tile10_29.png" preserveAspectRatio="none" x="14220.703125" y="-4271.484375" width="2.197266" height="2.197266"/>
</g>
</svg>
