<?xml version="1.0" encoding="UTF-8"?>
<svg  xmlns="http://www.w3.org/2000/svg" xmlns:xlink="http://www.w3.org/1999/xlink" xmlns:go="http://purl.org/svgmap/profile" viewBox="14110.7941425 -4133.258019299999 28.29366969999967 66.59135230000004" go:dataArea="14110.7941425 -4133.258019299999 28.29366969999967 66.59135230000004" >
<metadata>
 <rdf:RDF xmlns:rdf="http://www.w3.org/1999/02/22-rdf-syntax-ns#" xmlns:crs="http://opengis.org/xmldtds/transformations.dtd" xmlns:svg="http://www.w3.org/svg" >
  <rdf:Description>
   <crs:CoordinateReferenceSystem rdf:resource="http://purl.org/crs/84" svg:transform="matrix(100.0,0.0,0.0,-100.0,0.0,0.0)" />
  </rdf:Description>
 </rdf:RDF>
</metadata>
<globalCoordinateSystem srsName="http://purl.org/crs/84" transform="matrix(100.0,0.0,0.0,-100.0,0.0,0.0)" />
<g >
<image xlink:href="tile16_57.png" preserveAspectRatio="none" x="14127.319336" y="-4071.533203" width="1.098633" height="1.098633"/>
<image xlink:href="tile16_56.png" preserveAspectRatio="none" x="14127.319336" y="-4072.631836" width="1.098633" height="1.098633"/>
<image xlink:href="tile16_55.png" preserveAspectRatio="none" x="14127.319336" y="-4073.730469" width="1.098633" height="1.098633"/>
<image xlink:href="tile16_54.png" preserveAspectRatio="none" x="14127.319336" y="-4074.829102" width="1.098633" height="1.098633"/>
<image xlink:href="tile16_53.png" preserveAspectRatio="none" x="14127.319336" y="-4075.927734" width="1.098633" height="1.098633"/>
<image xlink:href="tile17_57.png" preserveAspectRatio="none" x="14128.417969" y="-4071.533203" width="1.098633" height="1.098633"/>
<image xlink:href="tile17_56.png" preserveAspectRatio="none" x="14128.417969" y="-4072.631836" width="1.098633" height="1.098633"/>
<image xlink:href="tile17_54.png" preserveAspectRatio="none" x="14128.417969" y="-4074.829102" width="1.098633" height="1.098633"/>
<image xlink:href="tile17_53.png" preserveAspectRatio="none" x="14128.417969" y="-4075.927734" width="1.098633" height="1.098633"/>
<image xlink:href="tile18_57.png" preserveAspectRatio="none" x="14129.516602" y="-4071.533203" width="1.098633" height="1.098633"/>
<image xlink:href="tile18_56.png" preserveAspectRatio="none" x="14129.516602" y="-4072.631836" width="1.098633" height="1.098633"/>
<image xlink:href="tile18_54.png" preserveAspectRatio="none" x="14129.516602" y="-4074.829102" width="1.098633" height="1.098633"/>
<image xlink:href="tile18_53.png" preserveAspectRatio="none" x="14129.516602" y="-4075.927734" width="1.098633" height="1.098633"/>
<image xlink:href="tile18_46.png" preserveAspectRatio="none" x="14129.516602" y="-4083.618164" width="1.098633" height="1.098633"/>
<image xlink:href="tile19_58.png" preserveAspectRatio="none" x="14130.615234" y="-4070.43457" width="1.098633" height="1.098633"/>
<image xlink:href="tile19_57.png" preserveAspectRatio="none" x="14130.615234" y="-4071.533203" width="1.098633" height="1.098633"/>
<image xlink:href="tile19_56.png" preserveAspectRatio="none" x="14130.615234" y="-4072.631836" width="1.098633" height="1.098633"/>
<image xlink:href="tile19_54.png" preserveAspectRatio="none" x="14130.615234" y="-4074.829102" width="1.098633" height="1.098633"/>
<image xlink:href="tile19_53.png" preserveAspectRatio="none" x="14130.615234" y="-4075.927734" width="1.098633" height="1.098633"/>
<image xlink:href="tile19_51.png" preserveAspectRatio="none" x="14130.615234" y="-4078.125" width="1.098633" height="1.098633"/>
<image xlink:href="tile19_50.png" preserveAspectRatio="none" x="14130.615234" y="-4079.223633" width="1.098633" height="1.098633"/>
<image xlink:href="tile19_46.png" preserveAspectRatio="none" x="14130.615234" y="-4083.618164" width="1.098633" height="1.098633"/>
<image xlink:href="tile20_59.png" preserveAspectRatio="none" x="14131.713867" y="-4069.335938" width="1.098633" height="1.098633"/>
<image xlink:href="tile20_58.png" preserveAspectRatio="none" x="14131.713867" y="-4070.43457" width="1.098633" height="1.098633"/>
<image xlink:href="tile20_57.png" preserveAspectRatio="none" x="14131.713867" y="-4071.533203" width="1.098633" height="1.098633"/>
<image xlink:href="tile20_56.png" preserveAspectRatio="none" x="14131.713867" y="-4072.631836" width="1.098633" height="1.098633"/>
<image xlink:href="tile20_53.png" preserveAspectRatio="none" x="14131.713867" y="-4075.927734" width="1.098633" height="1.098633"/>
<image xlink:href="tile20_52.png" preserveAspectRatio="none" x="14131.713867" y="-4077.026367" width="1.098633" height="1.098633"/>
<image xlink:href="tile21_59.png" preserveAspectRatio="none" x="14132.8125" y="-4069.335938" width="1.098633" height="1.098633"/>
<image xlink:href="tile21_58.png" preserveAspectRatio="none" x="14132.8125" y="-4070.43457" width="1.098633" height="1.098633"/>
<image xlink:href="tile21_57.png" preserveAspectRatio="none" x="14132.8125" y="-4071.533203" width="1.098633" height="1.098633"/>
<image xlink:href="tile21_56.png" preserveAspectRatio="none" x="14132.8125" y="-4072.631836" width="1.098633" height="1.098633"/>
<image xlink:href="tile21_55.png" preserveAspectRatio="none" x="14132.8125" y="-4073.730469" width="1.098633" height="1.098633"/>
<image xlink:href="tile22_60.png" preserveAspectRatio="none" x="14133.911133" y="-4068.237305" width="1.098633" height="1.098633"/>
<image xlink:href="tile22_56.png" preserveAspectRatio="none" x="14133.911133" y="-4072.631836" width="1.098633" height="1.098633"/>
<image xlink:href="tile22_50.png" preserveAspectRatio="none" x="14133.911133" y="-4079.223633" width="1.098633" height="1.098633"/>
<image xlink:href="tile22_49.png" preserveAspectRatio="none" x="14133.911133" y="-4080.322266" width="1.098633" height="1.098633"/>
<image xlink:href="tile22_48.png" preserveAspectRatio="none" x="14133.911133" y="-4081.420898" width="1.098633" height="1.098633"/>
<image xlink:href="tile23_61.png" preserveAspectRatio="none" x="14135.009766" y="-4067.138672" width="1.098633" height="1.098633"/>
<image xlink:href="tile23_60.png" preserveAspectRatio="none" x="14135.009766" y="-4068.237305" width="1.098633" height="1.098633"/>
<image xlink:href="tile23_56.png" preserveAspectRatio="none" x="14135.009766" y="-4072.631836" width="1.098633" height="1.098633"/>
<image xlink:href="tile23_55.png" preserveAspectRatio="none" x="14135.009766" y="-4073.730469" width="1.098633" height="1.098633"/>
<image xlink:href="tile23_52.png" preserveAspectRatio="none" x="14135.009766" y="-4077.026367" width="1.098633" height="1.098633"/>
<image xlink:href="tile23_51.png" preserveAspectRatio="none" x="14135.009766" y="-4078.125" width="1.098633" height="1.098633"/>
<image xlink:href="tile23_48.png" preserveAspectRatio="none" x="14135.009766" y="-4081.420898" width="1.098633" height="1.098633"/>
<image xlink:href="tile23_47.png" preserveAspectRatio="none" x="14135.009766" y="-4082.519531" width="1.098633" height="1.098633"/>
<image xlink:href="tile24_48.png" preserveAspectRatio="none" x="14136.108398" y="-4081.420898" width="1.098633" height="1.098633"/>
<image xlink:href="tile24_47.png" preserveAspectRatio="none" x="14136.108398" y="-4082.519531" width="1.098633" height="1.098633"/>
<image xlink:href="tile24_46.png" preserveAspectRatio="none" x="14136.108398" y="-4083.618164" width="1.098633" height="1.098633"/>
<image xlink:href="tile25_48.png" preserveAspectRatio="none" x="14137.207031" y="-4081.420898" width="1.098633" height="1.098633"/>
<image xlink:href="tile25_47.png" preserveAspectRatio="none" x="14137.207031" y="-4082.519531" width="1.098633" height="1.098633"/>
<image xlink:href="tile25_46.png" preserveAspectRatio="none" x="14137.207031" y="-4083.618164" width="1.098633" height="1.098633"/>
<image xlink:href="tile26_48.png" preserveAspectRatio="none" x="14138.305664" y="-4081.420898" width="1.098633" height="1.098633"/>
<image xlink:href="tile26_47.png" preserveAspectRatio="none" x="14138.305664" y="-4082.519531" width="1.098633" height="1.098633"/>
<image xlink:href="tile26_46.png" preserveAspectRatio="none" x="14138.305664" y="-4083.618164" width="1.098633" height="1.098633"/>
</g>
</svg>
