<?xml version="1.0" encoding="UTF-8"?>
<svg  xmlns="http://www.w3.org/2000/svg" xmlns:xlink="http://www.w3.org/1999/xlink" xmlns:go="http://purl.org/svgmap/profile" viewBox="13023.099999999999 -3200.0 76.90000000000055 66.66666690000014" go:dataArea="13023.099999999999 -3200.0 76.90000000000055 66.66666690000014" >
<metadata>
 <rdf:RDF xmlns:rdf="http://www.w3.org/1999/02/22-rdf-syntax-ns#" xmlns:crs="http://opengis.org/xmldtds/transformations.dtd" xmlns:svg="http://www.w3.org/svg" >
  <rdf:Description>
   <crs:CoordinateReferenceSystem rdf:resource="http://purl.org/crs/84" svg:transform="matrix(100.0,0.0,0.0,-100.0,0.0,0.0)" />
  </rdf:Description>
 </rdf:RDF>
</metadata>
<globalCoordinateSystem srsName="http://purl.org/crs/84" transform="matrix(100.0,0.0,0.0,-100.0,0.0,0.0)" />
<g >
<image xlink:href="tile2_26.png" preserveAspectRatio="none" x="13025.390625" y="-3144.287109" width="2.197266" height="2.197266"/>
<image xlink:href="tile3_27.png" preserveAspectRatio="none" x="13027.587891" y="-3142.089844" width="2.197266" height="2.197266"/>
<image xlink:href="tile3_26.png" preserveAspectRatio="none" x="13027.587891" y="-3144.287109" width="2.197266" height="2.197266"/>
<image xlink:href="tile3_25.png" preserveAspectRatio="none" x="13027.587891" y="-3146.484375" width="2.197266" height="2.197266"/>
<image xlink:href="tile4_29.png" preserveAspectRatio="none" x="13029.785156" y="-3137.695312" width="2.197266" height="2.197266"/>
<image xlink:href="tile4_28.png" preserveAspectRatio="none" x="13029.785156" y="-3139.892578" width="2.197266" height="2.197266"/>
<image xlink:href="tile4_27.png" preserveAspectRatio="none" x="13029.785156" y="-3142.089844" width="2.197266" height="2.197266"/>
<image xlink:href="tile4_26.png" preserveAspectRatio="none" x="13029.785156" y="-3144.287109" width="2.197266" height="2.197266"/>
<image xlink:href="tile4_25.png" preserveAspectRatio="none" x="13029.785156" y="-3146.484375" width="2.197266" height="2.197266"/>
<image xlink:href="tile5_27.png" preserveAspectRatio="none" x="13031.982422" y="-3142.089844" width="2.197266" height="2.197266"/>
<image xlink:href="tile5_26.png" preserveAspectRatio="none" x="13031.982422" y="-3144.287109" width="2.197266" height="2.197266"/>
<image xlink:href="tile5_25.png" preserveAspectRatio="none" x="13031.982422" y="-3146.484375" width="2.197266" height="2.197266"/>
<image xlink:href="tile5_24.png" preserveAspectRatio="none" x="13031.982422" y="-3148.681641" width="2.197266" height="2.197266"/>
<image xlink:href="tile5_18.png" preserveAspectRatio="none" x="13031.982422" y="-3161.865234" width="2.197266" height="2.197266"/>
<image xlink:href="tile5_17.png" preserveAspectRatio="none" x="13031.982422" y="-3164.0625" width="2.197266" height="2.197266"/>
<image xlink:href="tile6_27.png" preserveAspectRatio="none" x="13034.179688" y="-3142.089844" width="2.197266" height="2.197266"/>
<image xlink:href="tile6_26.png" preserveAspectRatio="none" x="13034.179688" y="-3144.287109" width="2.197266" height="2.197266"/>
<image xlink:href="tile6_25.png" preserveAspectRatio="none" x="13034.179688" y="-3146.484375" width="2.197266" height="2.197266"/>
<image xlink:href="tile6_24.png" preserveAspectRatio="none" x="13034.179688" y="-3148.681641" width="2.197266" height="2.197266"/>
<image xlink:href="tile6_17.png" preserveAspectRatio="none" x="13034.179688" y="-3164.0625" width="2.197266" height="2.197266"/>
<image xlink:href="tile7_29.png" preserveAspectRatio="none" x="13036.376953" y="-3137.695312" width="2.197266" height="2.197266"/>
<image xlink:href="tile7_28.png" preserveAspectRatio="none" x="13036.376953" y="-3139.892578" width="2.197266" height="2.197266"/>
<image xlink:href="tile7_27.png" preserveAspectRatio="none" x="13036.376953" y="-3142.089844" width="2.197266" height="2.197266"/>
<image xlink:href="tile7_17.png" preserveAspectRatio="none" x="13036.376953" y="-3164.0625" width="2.197266" height="2.197266"/>
<image xlink:href="tile7_16.png" preserveAspectRatio="none" x="13036.376953" y="-3166.259766" width="2.197266" height="2.197266"/>
<image xlink:href="tile8_29.png" preserveAspectRatio="none" x="13038.574219" y="-3137.695312" width="2.197266" height="2.197266"/>
<image xlink:href="tile8_28.png" preserveAspectRatio="none" x="13038.574219" y="-3139.892578" width="2.197266" height="2.197266"/>
<image xlink:href="tile8_27.png" preserveAspectRatio="none" x="13038.574219" y="-3142.089844" width="2.197266" height="2.197266"/>
<image xlink:href="tile8_18.png" preserveAspectRatio="none" x="13038.574219" y="-3161.865234" width="2.197266" height="2.197266"/>
<image xlink:href="tile8_17.png" preserveAspectRatio="none" x="13038.574219" y="-3164.0625" width="2.197266" height="2.197266"/>
<image xlink:href="tile9_28.png" preserveAspectRatio="none" x="13040.771484" y="-3139.892578" width="2.197266" height="2.197266"/>
<image xlink:href="tile9_27.png" preserveAspectRatio="none" x="13040.771484" y="-3142.089844" width="2.197266" height="2.197266"/>
<image xlink:href="tile9_18.png" preserveAspectRatio="none" x="13040.771484" y="-3161.865234" width="2.197266" height="2.197266"/>
<image xlink:href="tile9_17.png" preserveAspectRatio="none" x="13040.771484" y="-3164.0625" width="2.197266" height="2.197266"/>
<image xlink:href="tile9_16.png" preserveAspectRatio="none" x="13040.771484" y="-3166.259766" width="2.197266" height="2.197266"/>
<image xlink:href="tile10_18.png" preserveAspectRatio="none" x="13042.96875" y="-3161.865234" width="2.197266" height="2.197266"/>
<image xlink:href="tile11_15.png" preserveAspectRatio="none" x="13045.166016" y="-3168.457031" width="2.197266" height="2.197266"/>
<image xlink:href="tile12_21.png" preserveAspectRatio="none" x="13047.363281" y="-3155.273438" width="2.197266" height="2.197266"/>
<image xlink:href="tile12_16.png" preserveAspectRatio="none" x="13047.363281" y="-3166.259766" width="2.197266" height="2.197266"/>
<image xlink:href="tile12_15.png" preserveAspectRatio="none" x="13047.363281" y="-3168.457031" width="2.197266" height="2.197266"/>
<image xlink:href="tile13_22.png" preserveAspectRatio="none" x="13049.560547" y="-3153.076172" width="2.197266" height="2.197266"/>
<image xlink:href="tile13_21.png" preserveAspectRatio="none" x="13049.560547" y="-3155.273438" width="2.197266" height="2.197266"/>
<image xlink:href="tile13_20.png" preserveAspectRatio="none" x="13049.560547" y="-3157.470703" width="2.197266" height="2.197266"/>
<image xlink:href="tile13_19.png" preserveAspectRatio="none" x="13049.560547" y="-3159.667969" width="2.197266" height="2.197266"/>
<image xlink:href="tile13_18.png" preserveAspectRatio="none" x="13049.560547" y="-3161.865234" width="2.197266" height="2.197266"/>
<image xlink:href="tile13_17.png" preserveAspectRatio="none" x="13049.560547" y="-3164.0625" width="2.197266" height="2.197266"/>
<image xlink:href="tile13_16.png" preserveAspectRatio="none" x="13049.560547" y="-3166.259766" width="2.197266" height="2.197266"/>
<image xlink:href="tile13_15.png" preserveAspectRatio="none" x="13049.560547" y="-3168.457031" width="2.197266" height="2.197266"/>
<image xlink:href="tile14_22.png" preserveAspectRatio="none" x="13051.757812" y="-3153.076172" width="2.197266" height="2.197266"/>
<image xlink:href="tile14_21.png" preserveAspectRatio="none" x="13051.757812" y="-3155.273438" width="2.197266" height="2.197266"/>
<image xlink:href="tile14_20.png" preserveAspectRatio="none" x="13051.757812" y="-3157.470703" width="2.197266" height="2.197266"/>
<image xlink:href="tile14_19.png" preserveAspectRatio="none" x="13051.757812" y="-3159.667969" width="2.197266" height="2.197266"/>
<image xlink:href="tile14_18.png" preserveAspectRatio="none" x="13051.757812" y="-3161.865234" width="2.197266" height="2.197266"/>
<image xlink:href="tile14_17.png" preserveAspectRatio="none" x="13051.757812" y="-3164.0625" width="2.197266" height="2.197266"/>
<image xlink:href="tile15_21.png" preserveAspectRatio="none" x="13053.955078" y="-3155.273438" width="2.197266" height="2.197266"/>
<image xlink:href="tile15_20.png" preserveAspectRatio="none" x="13053.955078" y="-3157.470703" width="2.197266" height="2.197266"/>
<image xlink:href="tile15_19.png" preserveAspectRatio="none" x="13053.955078" y="-3159.667969" width="2.197266" height="2.197266"/>
<image xlink:href="tile15_18.png" preserveAspectRatio="none" x="13053.955078" y="-3161.865234" width="2.197266" height="2.197266"/>
<image xlink:href="tile15_17.png" preserveAspectRatio="none" x="13053.955078" y="-3164.0625" width="2.197266" height="2.197266"/>
<image xlink:href="tile15_16.png" preserveAspectRatio="none" x="13053.955078" y="-3166.259766" width="2.197266" height="2.197266"/>
<image xlink:href="tile15_15.png" preserveAspectRatio="none" x="13053.955078" y="-3168.457031" width="2.197266" height="2.197266"/>
</g>
</svg>
