<?xml version="1.0" encoding="UTF-8"?>
<svg  xmlns="http://www.w3.org/2000/svg" xmlns:xlink="http://www.w3.org/1999/xlink" xmlns:go="http://purl.org/svgmap/profile" viewBox="13000.5625 -3266.666667 99.43749999999909 66.66666699999979" go:dataArea="13000.5625 -3266.666667 99.43749999999909 66.66666699999979" >
<metadata>
 <rdf:RDF xmlns:rdf="http://www.w3.org/1999/02/22-rdf-syntax-ns#" xmlns:crs="http://opengis.org/xmldtds/transformations.dtd" xmlns:svg="http://www.w3.org/svg" >
  <rdf:Description>
   <crs:CoordinateReferenceSystem rdf:resource="http://purl.org/crs/84" svg:transform="matrix(100.0,0.0,0.0,-100.0,0.0,0.0)" />
  </rdf:Description>
 </rdf:RDF>
</metadata>
<globalCoordinateSystem srsName="http://purl.org/crs/84" transform="matrix(100.0,0.0,0.0,-100.0,0.0,0.0)" />
<g >
<image xlink:href="tile16_27.png" preserveAspectRatio="none" x="13034.179688" y="-3208.007812" width="2.197266" height="2.197266"/>
<image xlink:href="tile16_26.png" preserveAspectRatio="none" x="13034.179688" y="-3210.205078" width="2.197266" height="2.197266"/>
<image xlink:href="tile16_25.png" preserveAspectRatio="none" x="13034.179688" y="-3212.402344" width="2.197266" height="2.197266"/>
<image xlink:href="tile16_24.png" preserveAspectRatio="none" x="13034.179688" y="-3214.599609" width="2.197266" height="2.197266"/>
<image xlink:href="tile17_27.png" preserveAspectRatio="none" x="13036.376953" y="-3208.007812" width="2.197266" height="2.197266"/>
<image xlink:href="tile17_26.png" preserveAspectRatio="none" x="13036.376953" y="-3210.205078" width="2.197266" height="2.197266"/>
<image xlink:href="tile17_21.png" preserveAspectRatio="none" x="13036.376953" y="-3221.191406" width="2.197266" height="2.197266"/>
<image xlink:href="tile17_20.png" preserveAspectRatio="none" x="13036.376953" y="-3223.388672" width="2.197266" height="2.197266"/>
<image xlink:href="tile18_21.png" preserveAspectRatio="none" x="13038.574219" y="-3221.191406" width="2.197266" height="2.197266"/>
<image xlink:href="tile18_20.png" preserveAspectRatio="none" x="13038.574219" y="-3223.388672" width="2.197266" height="2.197266"/>
<image xlink:href="tile19_22.png" preserveAspectRatio="none" x="13040.771484" y="-3218.994141" width="2.197266" height="2.197266"/>
<image xlink:href="tile19_21.png" preserveAspectRatio="none" x="13040.771484" y="-3221.191406" width="2.197266" height="2.197266"/>
<image xlink:href="tile19_20.png" preserveAspectRatio="none" x="13040.771484" y="-3223.388672" width="2.197266" height="2.197266"/>
<image xlink:href="tile20_22.png" preserveAspectRatio="none" x="13042.96875" y="-3218.994141" width="2.197266" height="2.197266"/>
<image xlink:href="tile20_21.png" preserveAspectRatio="none" x="13042.96875" y="-3221.191406" width="2.197266" height="2.197266"/>
<image xlink:href="tile20_20.png" preserveAspectRatio="none" x="13042.96875" y="-3223.388672" width="2.197266" height="2.197266"/>
<image xlink:href="tile20_19.png" preserveAspectRatio="none" x="13042.96875" y="-3225.585938" width="2.197266" height="2.197266"/>
<image xlink:href="tile21_22.png" preserveAspectRatio="none" x="13045.166016" y="-3218.994141" width="2.197266" height="2.197266"/>
<image xlink:href="tile21_20.png" preserveAspectRatio="none" x="13045.166016" y="-3223.388672" width="2.197266" height="2.197266"/>
<image xlink:href="tile21_19.png" preserveAspectRatio="none" x="13045.166016" y="-3225.585938" width="2.197266" height="2.197266"/>
<image xlink:href="tile22_17.png" preserveAspectRatio="none" x="13047.363281" y="-3229.980469" width="2.197266" height="2.197266"/>
<image xlink:href="tile22_16.png" preserveAspectRatio="none" x="13047.363281" y="-3232.177734" width="2.197266" height="2.197266"/>
<image xlink:href="tile22_15.png" preserveAspectRatio="none" x="13047.363281" y="-3234.375" width="2.197266" height="2.197266"/>
<image xlink:href="tile23_19.png" preserveAspectRatio="none" x="13049.560547" y="-3225.585938" width="2.197266" height="2.197266"/>
<image xlink:href="tile23_18.png" preserveAspectRatio="none" x="13049.560547" y="-3227.783203" width="2.197266" height="2.197266"/>
<image xlink:href="tile23_17.png" preserveAspectRatio="none" x="13049.560547" y="-3229.980469" width="2.197266" height="2.197266"/>
<image xlink:href="tile23_16.png" preserveAspectRatio="none" x="13049.560547" y="-3232.177734" width="2.197266" height="2.197266"/>
<image xlink:href="tile23_15.png" preserveAspectRatio="none" x="13049.560547" y="-3234.375" width="2.197266" height="2.197266"/>
<image xlink:href="tile24_17.png" preserveAspectRatio="none" x="13051.757812" y="-3229.980469" width="2.197266" height="2.197266"/>
<image xlink:href="tile26_30.png" preserveAspectRatio="none" x="13056.152344" y="-3201.416016" width="2.197266" height="2.197266"/>
<image xlink:href="tile26_29.png" preserveAspectRatio="none" x="13056.152344" y="-3203.613281" width="2.197266" height="2.197266"/>
<image xlink:href="tile26_15.png" preserveAspectRatio="none" x="13056.152344" y="-3234.375" width="2.197266" height="2.197266"/>
<image xlink:href="tile27_30.png" preserveAspectRatio="none" x="13058.349609" y="-3201.416016" width="2.197266" height="2.197266"/>
<image xlink:href="tile27_29.png" preserveAspectRatio="none" x="13058.349609" y="-3203.613281" width="2.197266" height="2.197266"/>
<image xlink:href="tile27_28.png" preserveAspectRatio="none" x="13058.349609" y="-3205.810547" width="2.197266" height="2.197266"/>
<image xlink:href="tile27_27.png" preserveAspectRatio="none" x="13058.349609" y="-3208.007812" width="2.197266" height="2.197266"/>
<image xlink:href="tile27_18.png" preserveAspectRatio="none" x="13058.349609" y="-3227.783203" width="2.197266" height="2.197266"/>
<image xlink:href="tile27_17.png" preserveAspectRatio="none" x="13058.349609" y="-3229.980469" width="2.197266" height="2.197266"/>
<image xlink:href="tile27_16.png" preserveAspectRatio="none" x="13058.349609" y="-3232.177734" width="2.197266" height="2.197266"/>
<image xlink:href="tile27_15.png" preserveAspectRatio="none" x="13058.349609" y="-3234.375" width="2.197266" height="2.197266"/>
<image xlink:href="tile28_30.png" preserveAspectRatio="none" x="13060.546875" y="-3201.416016" width="2.197266" height="2.197266"/>
<image xlink:href="tile28_29.png" preserveAspectRatio="none" x="13060.546875" y="-3203.613281" width="2.197266" height="2.197266"/>
<image xlink:href="tile28_28.png" preserveAspectRatio="none" x="13060.546875" y="-3205.810547" width="2.197266" height="2.197266"/>
<image xlink:href="tile28_27.png" preserveAspectRatio="none" x="13060.546875" y="-3208.007812" width="2.197266" height="2.197266"/>
<image xlink:href="tile28_18.png" preserveAspectRatio="none" x="13060.546875" y="-3227.783203" width="2.197266" height="2.197266"/>
<image xlink:href="tile28_17.png" preserveAspectRatio="none" x="13060.546875" y="-3229.980469" width="2.197266" height="2.197266"/>
<image xlink:href="tile28_16.png" preserveAspectRatio="none" x="13060.546875" y="-3232.177734" width="2.197266" height="2.197266"/>
<image xlink:href="tile28_15.png" preserveAspectRatio="none" x="13060.546875" y="-3234.375" width="2.197266" height="2.197266"/>
<image xlink:href="tile29_30.png" preserveAspectRatio="none" x="13062.744141" y="-3201.416016" width="2.197266" height="2.197266"/>
<image xlink:href="tile29_29.png" preserveAspectRatio="none" x="13062.744141" y="-3203.613281" width="2.197266" height="2.197266"/>
<image xlink:href="tile29_28.png" preserveAspectRatio="none" x="13062.744141" y="-3205.810547" width="2.197266" height="2.197266"/>
<image xlink:href="tile29_19.png" preserveAspectRatio="none" x="13062.744141" y="-3225.585938" width="2.197266" height="2.197266"/>
<image xlink:href="tile29_18.png" preserveAspectRatio="none" x="13062.744141" y="-3227.783203" width="2.197266" height="2.197266"/>
<image xlink:href="tile30_19.png" preserveAspectRatio="none" x="13064.941406" y="-3225.585938" width="2.197266" height="2.197266"/>
<image xlink:href="tile30_18.png" preserveAspectRatio="none" x="13064.941406" y="-3227.783203" width="2.197266" height="2.197266"/>
<image xlink:href="tile31_20.png" preserveAspectRatio="none" x="13067.138672" y="-3223.388672" width="2.197266" height="2.197266"/>
<image xlink:href="tile31_19.png" preserveAspectRatio="none" x="13067.138672" y="-3225.585938" width="2.197266" height="2.197266"/>
</g>
</svg>
