<?xml version="1.0" encoding="UTF-8"?>
<svg  xmlns="http://www.w3.org/2000/svg" xmlns:xlink="http://www.w3.org/1999/xlink" xmlns:go="http://purl.org/svgmap/profile" viewBox="13000.5625 -3266.666667 99.43749999999909 66.66666699999979" go:dataArea="13000.5625 -3266.666667 99.43749999999909 66.66666699999979" >
<metadata>
 <rdf:RDF xmlns:rdf="http://www.w3.org/1999/02/22-rdf-syntax-ns#" xmlns:crs="http://opengis.org/xmldtds/transformations.dtd" xmlns:svg="http://www.w3.org/svg" >
  <rdf:Description>
   <crs:CoordinateReferenceSystem rdf:resource="http://purl.org/crs/84" svg:transform="matrix(100.0,0.0,0.0,-100.0,0.0,0.0)" />
  </rdf:Description>
 </rdf:RDF>
</metadata>
<globalCoordinateSystem srsName="http://purl.org/crs/84" transform="matrix(100.0,0.0,0.0,-100.0,0.0,0.0)" />
<g >
<image xlink:href="tile18_8.png" preserveAspectRatio="none" x="13038.574219" y="-3249.755859" width="2.197266" height="2.197266"/>
<image xlink:href="tile18_7.png" preserveAspectRatio="none" x="13038.574219" y="-3251.953125" width="2.197266" height="2.197266"/>
<image xlink:href="tile19_8.png" preserveAspectRatio="none" x="13040.771484" y="-3249.755859" width="2.197266" height="2.197266"/>
<image xlink:href="tile19_7.png" preserveAspectRatio="none" x="13040.771484" y="-3251.953125" width="2.197266" height="2.197266"/>
<image xlink:href="tile22_2.png" preserveAspectRatio="none" x="13047.363281" y="-3262.939453" width="2.197266" height="2.197266"/>
<image xlink:href="tile22_1.png" preserveAspectRatio="none" x="13047.363281" y="-3265.136719" width="2.197266" height="2.197266"/>
<image xlink:href="tile23_14.png" preserveAspectRatio="none" x="13049.560547" y="-3236.572266" width="2.197266" height="2.197266"/>
<image xlink:href="tile23_1.png" preserveAspectRatio="none" x="13049.560547" y="-3265.136719" width="2.197266" height="2.197266"/>
<image xlink:href="tile24_14.png" preserveAspectRatio="none" x="13051.757812" y="-3236.572266" width="2.197266" height="2.197266"/>
<image xlink:href="tile25_12.png" preserveAspectRatio="none" x="13053.955078" y="-3240.966797" width="2.197266" height="2.197266"/>
<image xlink:href="tile25_11.png" preserveAspectRatio="none" x="13053.955078" y="-3243.164062" width="2.197266" height="2.197266"/>
<image xlink:href="tile25_8.png" preserveAspectRatio="none" x="13053.955078" y="-3249.755859" width="2.197266" height="2.197266"/>
<image xlink:href="tile25_7.png" preserveAspectRatio="none" x="13053.955078" y="-3251.953125" width="2.197266" height="2.197266"/>
<image xlink:href="tile25_6.png" preserveAspectRatio="none" x="13053.955078" y="-3254.150391" width="2.197266" height="2.197266"/>
<image xlink:href="tile26_12.png" preserveAspectRatio="none" x="13056.152344" y="-3240.966797" width="2.197266" height="2.197266"/>
<image xlink:href="tile26_11.png" preserveAspectRatio="none" x="13056.152344" y="-3243.164062" width="2.197266" height="2.197266"/>
<image xlink:href="tile26_10.png" preserveAspectRatio="none" x="13056.152344" y="-3245.361328" width="2.197266" height="2.197266"/>
<image xlink:href="tile26_9.png" preserveAspectRatio="none" x="13056.152344" y="-3247.558594" width="2.197266" height="2.197266"/>
<image xlink:href="tile26_8.png" preserveAspectRatio="none" x="13056.152344" y="-3249.755859" width="2.197266" height="2.197266"/>
<image xlink:href="tile26_7.png" preserveAspectRatio="none" x="13056.152344" y="-3251.953125" width="2.197266" height="2.197266"/>
<image xlink:href="tile26_6.png" preserveAspectRatio="none" x="13056.152344" y="-3254.150391" width="2.197266" height="2.197266"/>
<image xlink:href="tile26_5.png" preserveAspectRatio="none" x="13056.152344" y="-3256.347656" width="2.197266" height="2.197266"/>
<image xlink:href="tile26_4.png" preserveAspectRatio="none" x="13056.152344" y="-3258.544922" width="2.197266" height="2.197266"/>
<image xlink:href="tile27_14.png" preserveAspectRatio="none" x="13058.349609" y="-3236.572266" width="2.197266" height="2.197266"/>
<image xlink:href="tile27_10.png" preserveAspectRatio="none" x="13058.349609" y="-3245.361328" width="2.197266" height="2.197266"/>
<image xlink:href="tile27_9.png" preserveAspectRatio="none" x="13058.349609" y="-3247.558594" width="2.197266" height="2.197266"/>
<image xlink:href="tile27_8.png" preserveAspectRatio="none" x="13058.349609" y="-3249.755859" width="2.197266" height="2.197266"/>
<image xlink:href="tile27_7.png" preserveAspectRatio="none" x="13058.349609" y="-3251.953125" width="2.197266" height="2.197266"/>
<image xlink:href="tile27_6.png" preserveAspectRatio="none" x="13058.349609" y="-3254.150391" width="2.197266" height="2.197266"/>
<image xlink:href="tile27_5.png" preserveAspectRatio="none" x="13058.349609" y="-3256.347656" width="2.197266" height="2.197266"/>
<image xlink:href="tile27_4.png" preserveAspectRatio="none" x="13058.349609" y="-3258.544922" width="2.197266" height="2.197266"/>
<image xlink:href="tile28_14.png" preserveAspectRatio="none" x="13060.546875" y="-3236.572266" width="2.197266" height="2.197266"/>
<image xlink:href="tile28_12.png" preserveAspectRatio="none" x="13060.546875" y="-3240.966797" width="2.197266" height="2.197266"/>
<image xlink:href="tile28_11.png" preserveAspectRatio="none" x="13060.546875" y="-3243.164062" width="2.197266" height="2.197266"/>
<image xlink:href="tile28_9.png" preserveAspectRatio="none" x="13060.546875" y="-3247.558594" width="2.197266" height="2.197266"/>
<image xlink:href="tile28_8.png" preserveAspectRatio="none" x="13060.546875" y="-3249.755859" width="2.197266" height="2.197266"/>
<image xlink:href="tile28_7.png" preserveAspectRatio="none" x="13060.546875" y="-3251.953125" width="2.197266" height="2.197266"/>
<image xlink:href="tile28_6.png" preserveAspectRatio="none" x="13060.546875" y="-3254.150391" width="2.197266" height="2.197266"/>
<image xlink:href="tile28_5.png" preserveAspectRatio="none" x="13060.546875" y="-3256.347656" width="2.197266" height="2.197266"/>
<image xlink:href="tile28_4.png" preserveAspectRatio="none" x="13060.546875" y="-3258.544922" width="2.197266" height="2.197266"/>
<image xlink:href="tile28_3.png" preserveAspectRatio="none" x="13060.546875" y="-3260.742188" width="2.197266" height="2.197266"/>
<image xlink:href="tile28_2.png" preserveAspectRatio="none" x="13060.546875" y="-3262.939453" width="2.197266" height="2.197266"/>
<image xlink:href="tile29_14.png" preserveAspectRatio="none" x="13062.744141" y="-3236.572266" width="2.197266" height="2.197266"/>
<image xlink:href="tile29_13.png" preserveAspectRatio="none" x="13062.744141" y="-3238.769531" width="2.197266" height="2.197266"/>
<image xlink:href="tile29_12.png" preserveAspectRatio="none" x="13062.744141" y="-3240.966797" width="2.197266" height="2.197266"/>
<image xlink:href="tile29_11.png" preserveAspectRatio="none" x="13062.744141" y="-3243.164062" width="2.197266" height="2.197266"/>
<image xlink:href="tile29_10.png" preserveAspectRatio="none" x="13062.744141" y="-3245.361328" width="2.197266" height="2.197266"/>
<image xlink:href="tile29_9.png" preserveAspectRatio="none" x="13062.744141" y="-3247.558594" width="2.197266" height="2.197266"/>
<image xlink:href="tile29_8.png" preserveAspectRatio="none" x="13062.744141" y="-3249.755859" width="2.197266" height="2.197266"/>
<image xlink:href="tile29_7.png" preserveAspectRatio="none" x="13062.744141" y="-3251.953125" width="2.197266" height="2.197266"/>
<image xlink:href="tile29_6.png" preserveAspectRatio="none" x="13062.744141" y="-3254.150391" width="2.197266" height="2.197266"/>
<image xlink:href="tile29_5.png" preserveAspectRatio="none" x="13062.744141" y="-3256.347656" width="2.197266" height="2.197266"/>
<image xlink:href="tile29_4.png" preserveAspectRatio="none" x="13062.744141" y="-3258.544922" width="2.197266" height="2.197266"/>
<image xlink:href="tile29_3.png" preserveAspectRatio="none" x="13062.744141" y="-3260.742188" width="2.197266" height="2.197266"/>
<image xlink:href="tile29_2.png" preserveAspectRatio="none" x="13062.744141" y="-3262.939453" width="2.197266" height="2.197266"/>
<image xlink:href="tile30_13.png" preserveAspectRatio="none" x="13064.941406" y="-3238.769531" width="2.197266" height="2.197266"/>
<image xlink:href="tile30_12.png" preserveAspectRatio="none" x="13064.941406" y="-3240.966797" width="2.197266" height="2.197266"/>
<image xlink:href="tile30_11.png" preserveAspectRatio="none" x="13064.941406" y="-3243.164062" width="2.197266" height="2.197266"/>
<image xlink:href="tile30_10.png" preserveAspectRatio="none" x="13064.941406" y="-3245.361328" width="2.197266" height="2.197266"/>
<image xlink:href="tile30_9.png" preserveAspectRatio="none" x="13064.941406" y="-3247.558594" width="2.197266" height="2.197266"/>
<image xlink:href="tile30_7.png" preserveAspectRatio="none" x="13064.941406" y="-3251.953125" width="2.197266" height="2.197266"/>
<image xlink:href="tile30_6.png" preserveAspectRatio="none" x="13064.941406" y="-3254.150391" width="2.197266" height="2.197266"/>
<image xlink:href="tile30_5.png" preserveAspectRatio="none" x="13064.941406" y="-3256.347656" width="2.197266" height="2.197266"/>
<image xlink:href="tile30_4.png" preserveAspectRatio="none" x="13064.941406" y="-3258.544922" width="2.197266" height="2.197266"/>
<image xlink:href="tile30_3.png" preserveAspectRatio="none" x="13064.941406" y="-3260.742188" width="2.197266" height="2.197266"/>
<image xlink:href="tile30_2.png" preserveAspectRatio="none" x="13064.941406" y="-3262.939453" width="2.197266" height="2.197266"/>
<image xlink:href="tile30_1.png" preserveAspectRatio="none" x="13064.941406" y="-3265.136719" width="2.197266" height="2.197266"/>
<image xlink:href="tile30_0.png" preserveAspectRatio="none" x="13064.941406" y="-3267.333984" width="2.197266" height="2.197266"/>
<image xlink:href="tile31_10.png" preserveAspectRatio="none" x="13067.138672" y="-3245.361328" width="2.197266" height="2.197266"/>
<image xlink:href="tile31_7.png" preserveAspectRatio="none" x="13067.138672" y="-3251.953125" width="2.197266" height="2.197266"/>
<image xlink:href="tile31_6.png" preserveAspectRatio="none" x="13067.138672" y="-3254.150391" width="2.197266" height="2.197266"/>
<image xlink:href="tile31_5.png" preserveAspectRatio="none" x="13067.138672" y="-3256.347656" width="2.197266" height="2.197266"/>
<image xlink:href="tile31_4.png" preserveAspectRatio="none" x="13067.138672" y="-3258.544922" width="2.197266" height="2.197266"/>
<image xlink:href="tile31_3.png" preserveAspectRatio="none" x="13067.138672" y="-3260.742188" width="2.197266" height="2.197266"/>
<image xlink:href="tile31_2.png" preserveAspectRatio="none" x="13067.138672" y="-3262.939453" width="2.197266" height="2.197266"/>
<image xlink:href="tile31_1.png" preserveAspectRatio="none" x="13067.138672" y="-3265.136719" width="2.197266" height="2.197266"/>
<image xlink:href="tile31_0.png" preserveAspectRatio="none" x="13067.138672" y="-3267.333984" width="2.197266" height="2.197266"/>
</g>
</svg>
