<?xml version="1.0" encoding="UTF-8"?>
<svg  xmlns="http://www.w3.org/2000/svg" xmlns:xlink="http://www.w3.org/1999/xlink" xmlns:go="http://purl.org/svgmap/profile" viewBox="14305.125000000002 -4266.6666669999995 5.875000000000341 5.1499999999997215" go:dataArea="14305.125000000002 -4266.6666669999995 5.875000000000341 5.1499999999997215" >
<metadata>
 <rdf:RDF xmlns:rdf="http://www.w3.org/1999/02/22-rdf-syntax-ns#" xmlns:crs="http://opengis.org/xmldtds/transformations.dtd" xmlns:svg="http://www.w3.org/svg" >
  <rdf:Description>
   <crs:CoordinateReferenceSystem rdf:resource="http://purl.org/crs/84" svg:transform="matrix(100.0,0.0,0.0,-100.0,0.0,0.0)" />
  </rdf:Description>
 </rdf:RDF>
</metadata>
<globalCoordinateSystem srsName="http://purl.org/crs/84" transform="matrix(100.0,0.0,0.0,-100.0,0.0,0.0)" />
<g >
<image xlink:href="tile0_5.png" preserveAspectRatio="none" x="14304.199219" y="-4261.59668" width="1.098633" height="1.098633"/>
<image xlink:href="tile0_4.png" preserveAspectRatio="none" x="14304.199219" y="-4262.695312" width="1.098633" height="1.098633"/>
<image xlink:href="tile1_5.png" preserveAspectRatio="none" x="14305.297852" y="-4261.59668" width="1.098633" height="1.098633"/>
<image xlink:href="tile1_4.png" preserveAspectRatio="none" x="14305.297852" y="-4262.695312" width="1.098633" height="1.098633"/>
<image xlink:href="tile2_4.png" preserveAspectRatio="none" x="14306.396484" y="-4262.695312" width="1.098633" height="1.098633"/>
<image xlink:href="tile2_3.png" preserveAspectRatio="none" x="14306.396484" y="-4263.793945" width="1.098633" height="1.098633"/>
<image xlink:href="tile3_4.png" preserveAspectRatio="none" x="14307.495117" y="-4262.695312" width="1.098633" height="1.098633"/>
<image xlink:href="tile3_3.png" preserveAspectRatio="none" x="14307.495117" y="-4263.793945" width="1.098633" height="1.098633"/>
<image xlink:href="tile3_2.png" preserveAspectRatio="none" x="14307.495117" y="-4264.892578" width="1.098633" height="1.098633"/>
<image xlink:href="tile3_1.png" preserveAspectRatio="none" x="14307.495117" y="-4265.991211" width="1.098633" height="1.098633"/>
<image xlink:href="tile3_0.png" preserveAspectRatio="none" x="14307.495117" y="-4267.089844" width="1.098633" height="1.098633"/>
<image xlink:href="tile4_4.png" preserveAspectRatio="none" x="14308.59375" y="-4262.695312" width="1.098633" height="1.098633"/>
<image xlink:href="tile4_3.png" preserveAspectRatio="none" x="14308.59375" y="-4263.793945" width="1.098633" height="1.098633"/>
<image xlink:href="tile4_2.png" preserveAspectRatio="none" x="14308.59375" y="-4264.892578" width="1.098633" height="1.098633"/>
<image xlink:href="tile4_1.png" preserveAspectRatio="none" x="14308.59375" y="-4265.991211" width="1.098633" height="1.098633"/>
<image xlink:href="tile4_0.png" preserveAspectRatio="none" x="14308.59375" y="-4267.089844" width="1.098633" height="1.098633"/>
<image xlink:href="tile5_2.png" preserveAspectRatio="none" x="14309.692383" y="-4264.892578" width="1.098633" height="1.098633"/>
<image xlink:href="tile5_1.png" preserveAspectRatio="none" x="14309.692383" y="-4265.991211" width="1.098633" height="1.098633"/>
<image xlink:href="tile5_0.png" preserveAspectRatio="none" x="14309.692383" y="-4267.089844" width="1.098633" height="1.098633"/>
<image xlink:href="tile6_0.png" preserveAspectRatio="none" x="14310.791016" y="-4267.089844" width="1.098633" height="1.098633"/>
</g>
</svg>
