<?xml version="1.0" encoding="UTF-8"?>
<svg  xmlns="http://www.w3.org/2000/svg" xmlns:xlink="http://www.w3.org/1999/xlink" xmlns:go="http://purl.org/svgmap/profile" viewBox="14000.0 -3733.333333 99.84643919999883 66.66666600000042" go:dataArea="14000.0 -3733.333333 99.84643919999883 66.66666600000042" >
<metadata>
 <rdf:RDF xmlns:rdf="http://www.w3.org/1999/02/22-rdf-syntax-ns#" xmlns:crs="http://opengis.org/xmldtds/transformations.dtd" xmlns:svg="http://www.w3.org/svg" >
  <rdf:Description>
   <crs:CoordinateReferenceSystem rdf:resource="http://purl.org/crs/84" svg:transform="matrix(100.0,0.0,0.0,-100.0,0.0,0.0)" />
  </rdf:Description>
 </rdf:RDF>
</metadata>
<globalCoordinateSystem srsName="http://purl.org/crs/84" transform="matrix(100.0,0.0,0.0,-100.0,0.0,0.0)" />
<g >
<image xlink:href="tile16_26.png" preserveAspectRatio="none" x="14033.935547" y="-3678.222656" width="2.197266" height="2.197266"/>
<image xlink:href="tile16_25.png" preserveAspectRatio="none" x="14033.935547" y="-3680.419922" width="2.197266" height="2.197266"/>
<image xlink:href="tile17_29.png" preserveAspectRatio="none" x="14036.132812" y="-3671.630859" width="2.197266" height="2.197266"/>
<image xlink:href="tile17_28.png" preserveAspectRatio="none" x="14036.132812" y="-3673.828125" width="2.197266" height="2.197266"/>
<image xlink:href="tile17_27.png" preserveAspectRatio="none" x="14036.132812" y="-3676.025391" width="2.197266" height="2.197266"/>
<image xlink:href="tile17_26.png" preserveAspectRatio="none" x="14036.132812" y="-3678.222656" width="2.197266" height="2.197266"/>
<image xlink:href="tile17_25.png" preserveAspectRatio="none" x="14036.132812" y="-3680.419922" width="2.197266" height="2.197266"/>
<image xlink:href="tile17_24.png" preserveAspectRatio="none" x="14036.132812" y="-3682.617188" width="2.197266" height="2.197266"/>
<image xlink:href="tile17_23.png" preserveAspectRatio="none" x="14036.132812" y="-3684.814453" width="2.197266" height="2.197266"/>
<image xlink:href="tile18_31.png" preserveAspectRatio="none" x="14038.330078" y="-3667.236328" width="2.197266" height="2.197266"/>
<image xlink:href="tile18_30.png" preserveAspectRatio="none" x="14038.330078" y="-3669.433594" width="2.197266" height="2.197266"/>
<image xlink:href="tile18_29.png" preserveAspectRatio="none" x="14038.330078" y="-3671.630859" width="2.197266" height="2.197266"/>
<image xlink:href="tile18_28.png" preserveAspectRatio="none" x="14038.330078" y="-3673.828125" width="2.197266" height="2.197266"/>
<image xlink:href="tile18_27.png" preserveAspectRatio="none" x="14038.330078" y="-3676.025391" width="2.197266" height="2.197266"/>
<image xlink:href="tile18_26.png" preserveAspectRatio="none" x="14038.330078" y="-3678.222656" width="2.197266" height="2.197266"/>
<image xlink:href="tile18_24.png" preserveAspectRatio="none" x="14038.330078" y="-3682.617188" width="2.197266" height="2.197266"/>
<image xlink:href="tile18_23.png" preserveAspectRatio="none" x="14038.330078" y="-3684.814453" width="2.197266" height="2.197266"/>
<image xlink:href="tile30_30.png" preserveAspectRatio="none" x="14064.697266" y="-3669.433594" width="2.197266" height="2.197266"/>
<image xlink:href="tile31_31.png" preserveAspectRatio="none" x="14066.894531" y="-3667.236328" width="2.197266" height="2.197266"/>
<image xlink:href="tile31_30.png" preserveAspectRatio="none" x="14066.894531" y="-3669.433594" width="2.197266" height="2.197266"/>
<image xlink:href="tile31_29.png" preserveAspectRatio="none" x="14066.894531" y="-3671.630859" width="2.197266" height="2.197266"/>
<image xlink:href="tile31_28.png" preserveAspectRatio="none" x="14066.894531" y="-3673.828125" width="2.197266" height="2.197266"/>
</g>
</svg>
