<?xml version="1.0" encoding="UTF-8"?>
<svg  xmlns="http://www.w3.org/2000/svg" xmlns:xlink="http://www.w3.org/1999/xlink" xmlns:go="http://purl.org/svgmap/profile" viewBox="13500.0 -3561.7082881 100.0 28.374955000000313" go:dataArea="13500.0 -3561.7082881 100.0 28.374955000000313" >
<metadata>
 <rdf:RDF xmlns:rdf="http://www.w3.org/1999/02/22-rdf-syntax-ns#" xmlns:crs="http://opengis.org/xmldtds/transformations.dtd" xmlns:svg="http://www.w3.org/svg" >
  <rdf:Description>
   <crs:CoordinateReferenceSystem rdf:resource="http://purl.org/crs/84" svg:transform="matrix(100.0,0.0,0.0,-100.0,0.0,0.0)" />
  </rdf:Description>
 </rdf:RDF>
</metadata>
<globalCoordinateSystem srsName="http://purl.org/crs/84" transform="matrix(100.0,0.0,0.0,-100.0,0.0,0.0)" />
<g >
<image xlink:href="tile16_21.png" preserveAspectRatio="none" x="13517.578125" y="-3538.696289" width="1.098633" height="1.098633"/>
<image xlink:href="tile16_20.png" preserveAspectRatio="none" x="13517.578125" y="-3539.794922" width="1.098633" height="1.098633"/>
<image xlink:href="tile16_19.png" preserveAspectRatio="none" x="13517.578125" y="-3540.893555" width="1.098633" height="1.098633"/>
<image xlink:href="tile16_18.png" preserveAspectRatio="none" x="13517.578125" y="-3541.992188" width="1.098633" height="1.098633"/>
<image xlink:href="tile17_20.png" preserveAspectRatio="none" x="13518.676758" y="-3539.794922" width="1.098633" height="1.098633"/>
<image xlink:href="tile17_19.png" preserveAspectRatio="none" x="13518.676758" y="-3540.893555" width="1.098633" height="1.098633"/>
<image xlink:href="tile17_18.png" preserveAspectRatio="none" x="13518.676758" y="-3541.992188" width="1.098633" height="1.098633"/>
<image xlink:href="tile17_17.png" preserveAspectRatio="none" x="13518.676758" y="-3543.09082" width="1.098633" height="1.098633"/>
<image xlink:href="tile18_19.png" preserveAspectRatio="none" x="13519.775391" y="-3540.893555" width="1.098633" height="1.098633"/>
<image xlink:href="tile18_18.png" preserveAspectRatio="none" x="13519.775391" y="-3541.992188" width="1.098633" height="1.098633"/>
<image xlink:href="tile18_17.png" preserveAspectRatio="none" x="13519.775391" y="-3543.09082" width="1.098633" height="1.098633"/>
<image xlink:href="tile18_16.png" preserveAspectRatio="none" x="13519.775391" y="-3544.189453" width="1.098633" height="1.098633"/>
<image xlink:href="tile18_15.png" preserveAspectRatio="none" x="13519.775391" y="-3545.288086" width="1.098633" height="1.098633"/>
<image xlink:href="tile19_25.png" preserveAspectRatio="none" x="13520.874023" y="-3534.301758" width="1.098633" height="1.098633"/>
<image xlink:href="tile19_18.png" preserveAspectRatio="none" x="13520.874023" y="-3541.992188" width="1.098633" height="1.098633"/>
<image xlink:href="tile19_17.png" preserveAspectRatio="none" x="13520.874023" y="-3543.09082" width="1.098633" height="1.098633"/>
<image xlink:href="tile19_16.png" preserveAspectRatio="none" x="13520.874023" y="-3544.189453" width="1.098633" height="1.098633"/>
<image xlink:href="tile19_15.png" preserveAspectRatio="none" x="13520.874023" y="-3545.288086" width="1.098633" height="1.098633"/>
<image xlink:href="tile20_18.png" preserveAspectRatio="none" x="13521.972656" y="-3541.992188" width="1.098633" height="1.098633"/>
<image xlink:href="tile20_17.png" preserveAspectRatio="none" x="13521.972656" y="-3543.09082" width="1.098633" height="1.098633"/>
<image xlink:href="tile20_16.png" preserveAspectRatio="none" x="13521.972656" y="-3544.189453" width="1.098633" height="1.098633"/>
<image xlink:href="tile21_17.png" preserveAspectRatio="none" x="13523.071289" y="-3543.09082" width="1.098633" height="1.098633"/>
<image xlink:href="tile21_16.png" preserveAspectRatio="none" x="13523.071289" y="-3544.189453" width="1.098633" height="1.098633"/>
<image xlink:href="tile22_17.png" preserveAspectRatio="none" x="13524.169922" y="-3543.09082" width="1.098633" height="1.098633"/>
<image xlink:href="tile22_16.png" preserveAspectRatio="none" x="13524.169922" y="-3544.189453" width="1.098633" height="1.098633"/>
<image xlink:href="tile23_17.png" preserveAspectRatio="none" x="13525.268555" y="-3543.09082" width="1.098633" height="1.098633"/>
<image xlink:href="tile23_16.png" preserveAspectRatio="none" x="13525.268555" y="-3544.189453" width="1.098633" height="1.098633"/>
<image xlink:href="tile23_15.png" preserveAspectRatio="none" x="13525.268555" y="-3545.288086" width="1.098633" height="1.098633"/>
<image xlink:href="tile23_14.png" preserveAspectRatio="none" x="13525.268555" y="-3546.386719" width="1.098633" height="1.098633"/>
<image xlink:href="tile24_16.png" preserveAspectRatio="none" x="13526.367188" y="-3544.189453" width="1.098633" height="1.098633"/>
<image xlink:href="tile24_15.png" preserveAspectRatio="none" x="13526.367188" y="-3545.288086" width="1.098633" height="1.098633"/>
<image xlink:href="tile24_14.png" preserveAspectRatio="none" x="13526.367188" y="-3546.386719" width="1.098633" height="1.098633"/>
<image xlink:href="tile24_13.png" preserveAspectRatio="none" x="13526.367188" y="-3547.485352" width="1.098633" height="1.098633"/>
<image xlink:href="tile25_15.png" preserveAspectRatio="none" x="13527.46582" y="-3545.288086" width="1.098633" height="1.098633"/>
<image xlink:href="tile25_14.png" preserveAspectRatio="none" x="13527.46582" y="-3546.386719" width="1.098633" height="1.098633"/>
<image xlink:href="tile25_13.png" preserveAspectRatio="none" x="13527.46582" y="-3547.485352" width="1.098633" height="1.098633"/>
<image xlink:href="tile25_12.png" preserveAspectRatio="none" x="13527.46582" y="-3548.583984" width="1.098633" height="1.098633"/>
<image xlink:href="tile25_11.png" preserveAspectRatio="none" x="13527.46582" y="-3549.682617" width="1.098633" height="1.098633"/>
<image xlink:href="tile25_10.png" preserveAspectRatio="none" x="13527.46582" y="-3550.78125" width="1.098633" height="1.098633"/>
<image xlink:href="tile26_15.png" preserveAspectRatio="none" x="13528.564453" y="-3545.288086" width="1.098633" height="1.098633"/>
<image xlink:href="tile26_14.png" preserveAspectRatio="none" x="13528.564453" y="-3546.386719" width="1.098633" height="1.098633"/>
<image xlink:href="tile26_13.png" preserveAspectRatio="none" x="13528.564453" y="-3547.485352" width="1.098633" height="1.098633"/>
<image xlink:href="tile26_12.png" preserveAspectRatio="none" x="13528.564453" y="-3548.583984" width="1.098633" height="1.098633"/>
<image xlink:href="tile26_11.png" preserveAspectRatio="none" x="13528.564453" y="-3549.682617" width="1.098633" height="1.098633"/>
<image xlink:href="tile26_10.png" preserveAspectRatio="none" x="13528.564453" y="-3550.78125" width="1.098633" height="1.098633"/>
</g>
</svg>
