<?xml version="1.0" encoding="UTF-8"?>
<svg  xmlns="http://www.w3.org/2000/svg" xmlns:xlink="http://www.w3.org/1999/xlink" xmlns:go="http://purl.org/svgmap/profile" viewBox="13961.5875 -3929.1660776 38.41250000000116 62.49941089999993" go:dataArea="13961.5875 -3929.1660776 38.41250000000116 62.49941089999993" >
<metadata>
 <rdf:RDF xmlns:rdf="http://www.w3.org/1999/02/22-rdf-syntax-ns#" xmlns:crs="http://opengis.org/xmldtds/transformations.dtd" xmlns:svg="http://www.w3.org/svg" >
  <rdf:Description>
   <crs:CoordinateReferenceSystem rdf:resource="http://purl.org/crs/84" svg:transform="matrix(100.0,0.0,0.0,-100.0,0.0,0.0)" />
  </rdf:Description>
 </rdf:RDF>
</metadata>
<globalCoordinateSystem srsName="http://purl.org/crs/84" transform="matrix(100.0,0.0,0.0,-100.0,0.0,0.0)" />
<g >
<image xlink:href="tile17_35.png" preserveAspectRatio="none" x="13980.102539" y="-3891.357422" width="1.098633" height="1.098633"/>
<image xlink:href="tile17_34.png" preserveAspectRatio="none" x="13980.102539" y="-3892.456055" width="1.098633" height="1.098633"/>
<image xlink:href="tile18_41.png" preserveAspectRatio="none" x="13981.201172" y="-3884.765625" width="1.098633" height="1.098633"/>
<image xlink:href="tile18_40.png" preserveAspectRatio="none" x="13981.201172" y="-3885.864258" width="1.098633" height="1.098633"/>
<image xlink:href="tile18_39.png" preserveAspectRatio="none" x="13981.201172" y="-3886.962891" width="1.098633" height="1.098633"/>
<image xlink:href="tile18_38.png" preserveAspectRatio="none" x="13981.201172" y="-3888.061523" width="1.098633" height="1.098633"/>
<image xlink:href="tile18_37.png" preserveAspectRatio="none" x="13981.201172" y="-3889.160156" width="1.098633" height="1.098633"/>
<image xlink:href="tile18_36.png" preserveAspectRatio="none" x="13981.201172" y="-3890.258789" width="1.098633" height="1.098633"/>
<image xlink:href="tile18_35.png" preserveAspectRatio="none" x="13981.201172" y="-3891.357422" width="1.098633" height="1.098633"/>
<image xlink:href="tile18_34.png" preserveAspectRatio="none" x="13981.201172" y="-3892.456055" width="1.098633" height="1.098633"/>
<image xlink:href="tile19_41.png" preserveAspectRatio="none" x="13982.299805" y="-3884.765625" width="1.098633" height="1.098633"/>
<image xlink:href="tile19_40.png" preserveAspectRatio="none" x="13982.299805" y="-3885.864258" width="1.098633" height="1.098633"/>
<image xlink:href="tile19_39.png" preserveAspectRatio="none" x="13982.299805" y="-3886.962891" width="1.098633" height="1.098633"/>
<image xlink:href="tile19_38.png" preserveAspectRatio="none" x="13982.299805" y="-3888.061523" width="1.098633" height="1.098633"/>
<image xlink:href="tile19_37.png" preserveAspectRatio="none" x="13982.299805" y="-3889.160156" width="1.098633" height="1.098633"/>
<image xlink:href="tile19_36.png" preserveAspectRatio="none" x="13982.299805" y="-3890.258789" width="1.098633" height="1.098633"/>
<image xlink:href="tile19_35.png" preserveAspectRatio="none" x="13982.299805" y="-3891.357422" width="1.098633" height="1.098633"/>
<image xlink:href="tile19_34.png" preserveAspectRatio="none" x="13982.299805" y="-3892.456055" width="1.098633" height="1.098633"/>
<image xlink:href="tile19_31.png" preserveAspectRatio="none" x="13982.299805" y="-3895.751953" width="1.098633" height="1.098633"/>
<image xlink:href="tile20_41.png" preserveAspectRatio="none" x="13983.398438" y="-3884.765625" width="1.098633" height="1.098633"/>
<image xlink:href="tile20_40.png" preserveAspectRatio="none" x="13983.398438" y="-3885.864258" width="1.098633" height="1.098633"/>
<image xlink:href="tile20_39.png" preserveAspectRatio="none" x="13983.398438" y="-3886.962891" width="1.098633" height="1.098633"/>
<image xlink:href="tile20_38.png" preserveAspectRatio="none" x="13983.398438" y="-3888.061523" width="1.098633" height="1.098633"/>
<image xlink:href="tile20_37.png" preserveAspectRatio="none" x="13983.398438" y="-3889.160156" width="1.098633" height="1.098633"/>
<image xlink:href="tile20_36.png" preserveAspectRatio="none" x="13983.398438" y="-3890.258789" width="1.098633" height="1.098633"/>
<image xlink:href="tile20_35.png" preserveAspectRatio="none" x="13983.398438" y="-3891.357422" width="1.098633" height="1.098633"/>
<image xlink:href="tile20_34.png" preserveAspectRatio="none" x="13983.398438" y="-3892.456055" width="1.098633" height="1.098633"/>
<image xlink:href="tile20_33.png" preserveAspectRatio="none" x="13983.398438" y="-3893.554688" width="1.098633" height="1.098633"/>
<image xlink:href="tile20_32.png" preserveAspectRatio="none" x="13983.398438" y="-3894.65332" width="1.098633" height="1.098633"/>
<image xlink:href="tile20_31.png" preserveAspectRatio="none" x="13983.398438" y="-3895.751953" width="1.098633" height="1.098633"/>
<image xlink:href="tile21_41.png" preserveAspectRatio="none" x="13984.49707" y="-3884.765625" width="1.098633" height="1.098633"/>
<image xlink:href="tile21_40.png" preserveAspectRatio="none" x="13984.49707" y="-3885.864258" width="1.098633" height="1.098633"/>
<image xlink:href="tile21_39.png" preserveAspectRatio="none" x="13984.49707" y="-3886.962891" width="1.098633" height="1.098633"/>
<image xlink:href="tile21_38.png" preserveAspectRatio="none" x="13984.49707" y="-3888.061523" width="1.098633" height="1.098633"/>
<image xlink:href="tile21_37.png" preserveAspectRatio="none" x="13984.49707" y="-3889.160156" width="1.098633" height="1.098633"/>
<image xlink:href="tile21_36.png" preserveAspectRatio="none" x="13984.49707" y="-3890.258789" width="1.098633" height="1.098633"/>
<image xlink:href="tile21_35.png" preserveAspectRatio="none" x="13984.49707" y="-3891.357422" width="1.098633" height="1.098633"/>
<image xlink:href="tile21_34.png" preserveAspectRatio="none" x="13984.49707" y="-3892.456055" width="1.098633" height="1.098633"/>
<image xlink:href="tile21_33.png" preserveAspectRatio="none" x="13984.49707" y="-3893.554688" width="1.098633" height="1.098633"/>
<image xlink:href="tile21_32.png" preserveAspectRatio="none" x="13984.49707" y="-3894.65332" width="1.098633" height="1.098633"/>
<image xlink:href="tile21_31.png" preserveAspectRatio="none" x="13984.49707" y="-3895.751953" width="1.098633" height="1.098633"/>
<image xlink:href="tile21_30.png" preserveAspectRatio="none" x="13984.49707" y="-3896.850586" width="1.098633" height="1.098633"/>
<image xlink:href="tile21_29.png" preserveAspectRatio="none" x="13984.49707" y="-3897.949219" width="1.098633" height="1.098633"/>
<image xlink:href="tile21_28.png" preserveAspectRatio="none" x="13984.49707" y="-3899.047852" width="1.098633" height="1.098633"/>
<image xlink:href="tile22_41.png" preserveAspectRatio="none" x="13985.595703" y="-3884.765625" width="1.098633" height="1.098633"/>
<image xlink:href="tile22_40.png" preserveAspectRatio="none" x="13985.595703" y="-3885.864258" width="1.098633" height="1.098633"/>
<image xlink:href="tile22_39.png" preserveAspectRatio="none" x="13985.595703" y="-3886.962891" width="1.098633" height="1.098633"/>
<image xlink:href="tile22_38.png" preserveAspectRatio="none" x="13985.595703" y="-3888.061523" width="1.098633" height="1.098633"/>
<image xlink:href="tile22_37.png" preserveAspectRatio="none" x="13985.595703" y="-3889.160156" width="1.098633" height="1.098633"/>
<image xlink:href="tile22_36.png" preserveAspectRatio="none" x="13985.595703" y="-3890.258789" width="1.098633" height="1.098633"/>
<image xlink:href="tile22_35.png" preserveAspectRatio="none" x="13985.595703" y="-3891.357422" width="1.098633" height="1.098633"/>
<image xlink:href="tile22_34.png" preserveAspectRatio="none" x="13985.595703" y="-3892.456055" width="1.098633" height="1.098633"/>
<image xlink:href="tile22_33.png" preserveAspectRatio="none" x="13985.595703" y="-3893.554688" width="1.098633" height="1.098633"/>
<image xlink:href="tile22_32.png" preserveAspectRatio="none" x="13985.595703" y="-3894.65332" width="1.098633" height="1.098633"/>
<image xlink:href="tile22_31.png" preserveAspectRatio="none" x="13985.595703" y="-3895.751953" width="1.098633" height="1.098633"/>
<image xlink:href="tile22_30.png" preserveAspectRatio="none" x="13985.595703" y="-3896.850586" width="1.098633" height="1.098633"/>
<image xlink:href="tile22_29.png" preserveAspectRatio="none" x="13985.595703" y="-3897.949219" width="1.098633" height="1.098633"/>
<image xlink:href="tile22_28.png" preserveAspectRatio="none" x="13985.595703" y="-3899.047852" width="1.098633" height="1.098633"/>
<image xlink:href="tile22_27.png" preserveAspectRatio="none" x="13985.595703" y="-3900.146484" width="1.098633" height="1.098633"/>
<image xlink:href="tile23_41.png" preserveAspectRatio="none" x="13986.694336" y="-3884.765625" width="1.098633" height="1.098633"/>
<image xlink:href="tile23_40.png" preserveAspectRatio="none" x="13986.694336" y="-3885.864258" width="1.098633" height="1.098633"/>
<image xlink:href="tile23_39.png" preserveAspectRatio="none" x="13986.694336" y="-3886.962891" width="1.098633" height="1.098633"/>
<image xlink:href="tile23_38.png" preserveAspectRatio="none" x="13986.694336" y="-3888.061523" width="1.098633" height="1.098633"/>
<image xlink:href="tile23_37.png" preserveAspectRatio="none" x="13986.694336" y="-3889.160156" width="1.098633" height="1.098633"/>
<image xlink:href="tile23_36.png" preserveAspectRatio="none" x="13986.694336" y="-3890.258789" width="1.098633" height="1.098633"/>
<image xlink:href="tile23_35.png" preserveAspectRatio="none" x="13986.694336" y="-3891.357422" width="1.098633" height="1.098633"/>
<image xlink:href="tile23_34.png" preserveAspectRatio="none" x="13986.694336" y="-3892.456055" width="1.098633" height="1.098633"/>
<image xlink:href="tile23_33.png" preserveAspectRatio="none" x="13986.694336" y="-3893.554688" width="1.098633" height="1.098633"/>
<image xlink:href="tile23_32.png" preserveAspectRatio="none" x="13986.694336" y="-3894.65332" width="1.098633" height="1.098633"/>
<image xlink:href="tile23_31.png" preserveAspectRatio="none" x="13986.694336" y="-3895.751953" width="1.098633" height="1.098633"/>
<image xlink:href="tile23_30.png" preserveAspectRatio="none" x="13986.694336" y="-3896.850586" width="1.098633" height="1.098633"/>
<image xlink:href="tile23_29.png" preserveAspectRatio="none" x="13986.694336" y="-3897.949219" width="1.098633" height="1.098633"/>
<image xlink:href="tile23_28.png" preserveAspectRatio="none" x="13986.694336" y="-3899.047852" width="1.098633" height="1.098633"/>
<image xlink:href="tile23_27.png" preserveAspectRatio="none" x="13986.694336" y="-3900.146484" width="1.098633" height="1.098633"/>
<image xlink:href="tile23_26.png" preserveAspectRatio="none" x="13986.694336" y="-3901.245117" width="1.098633" height="1.098633"/>
<image xlink:href="tile24_41.png" preserveAspectRatio="none" x="13987.792969" y="-3884.765625" width="1.098633" height="1.098633"/>
<image xlink:href="tile24_40.png" preserveAspectRatio="none" x="13987.792969" y="-3885.864258" width="1.098633" height="1.098633"/>
<image xlink:href="tile24_39.png" preserveAspectRatio="none" x="13987.792969" y="-3886.962891" width="1.098633" height="1.098633"/>
<image xlink:href="tile24_38.png" preserveAspectRatio="none" x="13987.792969" y="-3888.061523" width="1.098633" height="1.098633"/>
<image xlink:href="tile24_37.png" preserveAspectRatio="none" x="13987.792969" y="-3889.160156" width="1.098633" height="1.098633"/>
<image xlink:href="tile24_36.png" preserveAspectRatio="none" x="13987.792969" y="-3890.258789" width="1.098633" height="1.098633"/>
<image xlink:href="tile24_35.png" preserveAspectRatio="none" x="13987.792969" y="-3891.357422" width="1.098633" height="1.098633"/>
<image xlink:href="tile24_34.png" preserveAspectRatio="none" x="13987.792969" y="-3892.456055" width="1.098633" height="1.098633"/>
<image xlink:href="tile24_33.png" preserveAspectRatio="none" x="13987.792969" y="-3893.554688" width="1.098633" height="1.098633"/>
<image xlink:href="tile24_32.png" preserveAspectRatio="none" x="13987.792969" y="-3894.65332" width="1.098633" height="1.098633"/>
<image xlink:href="tile24_31.png" preserveAspectRatio="none" x="13987.792969" y="-3895.751953" width="1.098633" height="1.098633"/>
<image xlink:href="tile24_30.png" preserveAspectRatio="none" x="13987.792969" y="-3896.850586" width="1.098633" height="1.098633"/>
<image xlink:href="tile24_29.png" preserveAspectRatio="none" x="13987.792969" y="-3897.949219" width="1.098633" height="1.098633"/>
<image xlink:href="tile24_28.png" preserveAspectRatio="none" x="13987.792969" y="-3899.047852" width="1.098633" height="1.098633"/>
<image xlink:href="tile24_27.png" preserveAspectRatio="none" x="13987.792969" y="-3900.146484" width="1.098633" height="1.098633"/>
<image xlink:href="tile24_26.png" preserveAspectRatio="none" x="13987.792969" y="-3901.245117" width="1.098633" height="1.098633"/>
<image xlink:href="tile25_41.png" preserveAspectRatio="none" x="13988.891602" y="-3884.765625" width="1.098633" height="1.098633"/>
<image xlink:href="tile25_40.png" preserveAspectRatio="none" x="13988.891602" y="-3885.864258" width="1.098633" height="1.098633"/>
<image xlink:href="tile25_39.png" preserveAspectRatio="none" x="13988.891602" y="-3886.962891" width="1.098633" height="1.098633"/>
<image xlink:href="tile25_38.png" preserveAspectRatio="none" x="13988.891602" y="-3888.061523" width="1.098633" height="1.098633"/>
<image xlink:href="tile25_37.png" preserveAspectRatio="none" x="13988.891602" y="-3889.160156" width="1.098633" height="1.098633"/>
<image xlink:href="tile25_36.png" preserveAspectRatio="none" x="13988.891602" y="-3890.258789" width="1.098633" height="1.098633"/>
<image xlink:href="tile25_35.png" preserveAspectRatio="none" x="13988.891602" y="-3891.357422" width="1.098633" height="1.098633"/>
<image xlink:href="tile25_34.png" preserveAspectRatio="none" x="13988.891602" y="-3892.456055" width="1.098633" height="1.098633"/>
<image xlink:href="tile25_33.png" preserveAspectRatio="none" x="13988.891602" y="-3893.554688" width="1.098633" height="1.098633"/>
<image xlink:href="tile25_32.png" preserveAspectRatio="none" x="13988.891602" y="-3894.65332" width="1.098633" height="1.098633"/>
<image xlink:href="tile25_31.png" preserveAspectRatio="none" x="13988.891602" y="-3895.751953" width="1.098633" height="1.098633"/>
<image xlink:href="tile25_30.png" preserveAspectRatio="none" x="13988.891602" y="-3896.850586" width="1.098633" height="1.098633"/>
<image xlink:href="tile25_29.png" preserveAspectRatio="none" x="13988.891602" y="-3897.949219" width="1.098633" height="1.098633"/>
<image xlink:href="tile25_28.png" preserveAspectRatio="none" x="13988.891602" y="-3899.047852" width="1.098633" height="1.098633"/>
<image xlink:href="tile25_27.png" preserveAspectRatio="none" x="13988.891602" y="-3900.146484" width="1.098633" height="1.098633"/>
<image xlink:href="tile25_26.png" preserveAspectRatio="none" x="13988.891602" y="-3901.245117" width="1.098633" height="1.098633"/>
<image xlink:href="tile26_41.png" preserveAspectRatio="none" x="13989.990234" y="-3884.765625" width="1.098633" height="1.098633"/>
<image xlink:href="tile26_40.png" preserveAspectRatio="none" x="13989.990234" y="-3885.864258" width="1.098633" height="1.098633"/>
<image xlink:href="tile26_39.png" preserveAspectRatio="none" x="13989.990234" y="-3886.962891" width="1.098633" height="1.098633"/>
<image xlink:href="tile26_38.png" preserveAspectRatio="none" x="13989.990234" y="-3888.061523" width="1.098633" height="1.098633"/>
<image xlink:href="tile26_37.png" preserveAspectRatio="none" x="13989.990234" y="-3889.160156" width="1.098633" height="1.098633"/>
<image xlink:href="tile26_36.png" preserveAspectRatio="none" x="13989.990234" y="-3890.258789" width="1.098633" height="1.098633"/>
<image xlink:href="tile26_35.png" preserveAspectRatio="none" x="13989.990234" y="-3891.357422" width="1.098633" height="1.098633"/>
<image xlink:href="tile26_34.png" preserveAspectRatio="none" x="13989.990234" y="-3892.456055" width="1.098633" height="1.098633"/>
<image xlink:href="tile26_33.png" preserveAspectRatio="none" x="13989.990234" y="-3893.554688" width="1.098633" height="1.098633"/>
<image xlink:href="tile26_32.png" preserveAspectRatio="none" x="13989.990234" y="-3894.65332" width="1.098633" height="1.098633"/>
<image xlink:href="tile26_31.png" preserveAspectRatio="none" x="13989.990234" y="-3895.751953" width="1.098633" height="1.098633"/>
<image xlink:href="tile26_30.png" preserveAspectRatio="none" x="13989.990234" y="-3896.850586" width="1.098633" height="1.098633"/>
<image xlink:href="tile26_29.png" preserveAspectRatio="none" x="13989.990234" y="-3897.949219" width="1.098633" height="1.098633"/>
<image xlink:href="tile26_28.png" preserveAspectRatio="none" x="13989.990234" y="-3899.047852" width="1.098633" height="1.098633"/>
<image xlink:href="tile26_27.png" preserveAspectRatio="none" x="13989.990234" y="-3900.146484" width="1.098633" height="1.098633"/>
<image xlink:href="tile26_26.png" preserveAspectRatio="none" x="13989.990234" y="-3901.245117" width="1.098633" height="1.098633"/>
<image xlink:href="tile27_40.png" preserveAspectRatio="none" x="13991.088867" y="-3885.864258" width="1.098633" height="1.098633"/>
<image xlink:href="tile27_39.png" preserveAspectRatio="none" x="13991.088867" y="-3886.962891" width="1.098633" height="1.098633"/>
<image xlink:href="tile27_38.png" preserveAspectRatio="none" x="13991.088867" y="-3888.061523" width="1.098633" height="1.098633"/>
<image xlink:href="tile27_37.png" preserveAspectRatio="none" x="13991.088867" y="-3889.160156" width="1.098633" height="1.098633"/>
<image xlink:href="tile27_36.png" preserveAspectRatio="none" x="13991.088867" y="-3890.258789" width="1.098633" height="1.098633"/>
<image xlink:href="tile27_35.png" preserveAspectRatio="none" x="13991.088867" y="-3891.357422" width="1.098633" height="1.098633"/>
<image xlink:href="tile27_34.png" preserveAspectRatio="none" x="13991.088867" y="-3892.456055" width="1.098633" height="1.098633"/>
<image xlink:href="tile27_33.png" preserveAspectRatio="none" x="13991.088867" y="-3893.554688" width="1.098633" height="1.098633"/>
<image xlink:href="tile27_32.png" preserveAspectRatio="none" x="13991.088867" y="-3894.65332" width="1.098633" height="1.098633"/>
<image xlink:href="tile27_31.png" preserveAspectRatio="none" x="13991.088867" y="-3895.751953" width="1.098633" height="1.098633"/>
<image xlink:href="tile27_30.png" preserveAspectRatio="none" x="13991.088867" y="-3896.850586" width="1.098633" height="1.098633"/>
<image xlink:href="tile27_29.png" preserveAspectRatio="none" x="13991.088867" y="-3897.949219" width="1.098633" height="1.098633"/>
<image xlink:href="tile27_28.png" preserveAspectRatio="none" x="13991.088867" y="-3899.047852" width="1.098633" height="1.098633"/>
<image xlink:href="tile27_27.png" preserveAspectRatio="none" x="13991.088867" y="-3900.146484" width="1.098633" height="1.098633"/>
<image xlink:href="tile27_26.png" preserveAspectRatio="none" x="13991.088867" y="-3901.245117" width="1.098633" height="1.098633"/>
<image xlink:href="tile28_41.png" preserveAspectRatio="none" x="13992.1875" y="-3884.765625" width="1.098633" height="1.098633"/>
<image xlink:href="tile28_40.png" preserveAspectRatio="none" x="13992.1875" y="-3885.864258" width="1.098633" height="1.098633"/>
<image xlink:href="tile28_39.png" preserveAspectRatio="none" x="13992.1875" y="-3886.962891" width="1.098633" height="1.098633"/>
<image xlink:href="tile28_38.png" preserveAspectRatio="none" x="13992.1875" y="-3888.061523" width="1.098633" height="1.098633"/>
<image xlink:href="tile28_37.png" preserveAspectRatio="none" x="13992.1875" y="-3889.160156" width="1.098633" height="1.098633"/>
<image xlink:href="tile28_36.png" preserveAspectRatio="none" x="13992.1875" y="-3890.258789" width="1.098633" height="1.098633"/>
<image xlink:href="tile28_35.png" preserveAspectRatio="none" x="13992.1875" y="-3891.357422" width="1.098633" height="1.098633"/>
<image xlink:href="tile28_34.png" preserveAspectRatio="none" x="13992.1875" y="-3892.456055" width="1.098633" height="1.098633"/>
<image xlink:href="tile28_33.png" preserveAspectRatio="none" x="13992.1875" y="-3893.554688" width="1.098633" height="1.098633"/>
<image xlink:href="tile28_32.png" preserveAspectRatio="none" x="13992.1875" y="-3894.65332" width="1.098633" height="1.098633"/>
<image xlink:href="tile28_31.png" preserveAspectRatio="none" x="13992.1875" y="-3895.751953" width="1.098633" height="1.098633"/>
<image xlink:href="tile28_30.png" preserveAspectRatio="none" x="13992.1875" y="-3896.850586" width="1.098633" height="1.098633"/>
<image xlink:href="tile28_29.png" preserveAspectRatio="none" x="13992.1875" y="-3897.949219" width="1.098633" height="1.098633"/>
<image xlink:href="tile28_28.png" preserveAspectRatio="none" x="13992.1875" y="-3899.047852" width="1.098633" height="1.098633"/>
<image xlink:href="tile28_27.png" preserveAspectRatio="none" x="13992.1875" y="-3900.146484" width="1.098633" height="1.098633"/>
<image xlink:href="tile28_26.png" preserveAspectRatio="none" x="13992.1875" y="-3901.245117" width="1.098633" height="1.098633"/>
<image xlink:href="tile29_41.png" preserveAspectRatio="none" x="13993.286133" y="-3884.765625" width="1.098633" height="1.098633"/>
<image xlink:href="tile29_40.png" preserveAspectRatio="none" x="13993.286133" y="-3885.864258" width="1.098633" height="1.098633"/>
<image xlink:href="tile29_39.png" preserveAspectRatio="none" x="13993.286133" y="-3886.962891" width="1.098633" height="1.098633"/>
<image xlink:href="tile29_38.png" preserveAspectRatio="none" x="13993.286133" y="-3888.061523" width="1.098633" height="1.098633"/>
<image xlink:href="tile29_37.png" preserveAspectRatio="none" x="13993.286133" y="-3889.160156" width="1.098633" height="1.098633"/>
<image xlink:href="tile29_35.png" preserveAspectRatio="none" x="13993.286133" y="-3891.357422" width="1.098633" height="1.098633"/>
<image xlink:href="tile29_34.png" preserveAspectRatio="none" x="13993.286133" y="-3892.456055" width="1.098633" height="1.098633"/>
<image xlink:href="tile29_33.png" preserveAspectRatio="none" x="13993.286133" y="-3893.554688" width="1.098633" height="1.098633"/>
<image xlink:href="tile29_30.png" preserveAspectRatio="none" x="13993.286133" y="-3896.850586" width="1.098633" height="1.098633"/>
<image xlink:href="tile29_29.png" preserveAspectRatio="none" x="13993.286133" y="-3897.949219" width="1.098633" height="1.098633"/>
<image xlink:href="tile29_28.png" preserveAspectRatio="none" x="13993.286133" y="-3899.047852" width="1.098633" height="1.098633"/>
<image xlink:href="tile29_27.png" preserveAspectRatio="none" x="13993.286133" y="-3900.146484" width="1.098633" height="1.098633"/>
<image xlink:href="tile29_26.png" preserveAspectRatio="none" x="13993.286133" y="-3901.245117" width="1.098633" height="1.098633"/>
<image xlink:href="tile30_41.png" preserveAspectRatio="none" x="13994.384766" y="-3884.765625" width="1.098633" height="1.098633"/>
<image xlink:href="tile30_40.png" preserveAspectRatio="none" x="13994.384766" y="-3885.864258" width="1.098633" height="1.098633"/>
<image xlink:href="tile30_39.png" preserveAspectRatio="none" x="13994.384766" y="-3886.962891" width="1.098633" height="1.098633"/>
<image xlink:href="tile30_38.png" preserveAspectRatio="none" x="13994.384766" y="-3888.061523" width="1.098633" height="1.098633"/>
<image xlink:href="tile30_37.png" preserveAspectRatio="none" x="13994.384766" y="-3889.160156" width="1.098633" height="1.098633"/>
<image xlink:href="tile30_36.png" preserveAspectRatio="none" x="13994.384766" y="-3890.258789" width="1.098633" height="1.098633"/>
<image xlink:href="tile30_30.png" preserveAspectRatio="none" x="13994.384766" y="-3896.850586" width="1.098633" height="1.098633"/>
<image xlink:href="tile30_29.png" preserveAspectRatio="none" x="13994.384766" y="-3897.949219" width="1.098633" height="1.098633"/>
<image xlink:href="tile30_28.png" preserveAspectRatio="none" x="13994.384766" y="-3899.047852" width="1.098633" height="1.098633"/>
<image xlink:href="tile30_27.png" preserveAspectRatio="none" x="13994.384766" y="-3900.146484" width="1.098633" height="1.098633"/>
<image xlink:href="tile31_41.png" preserveAspectRatio="none" x="13995.483398" y="-3884.765625" width="1.098633" height="1.098633"/>
<image xlink:href="tile31_39.png" preserveAspectRatio="none" x="13995.483398" y="-3886.962891" width="1.098633" height="1.098633"/>
<image xlink:href="tile31_38.png" preserveAspectRatio="none" x="13995.483398" y="-3888.061523" width="1.098633" height="1.098633"/>
<image xlink:href="tile31_37.png" preserveAspectRatio="none" x="13995.483398" y="-3889.160156" width="1.098633" height="1.098633"/>
<image xlink:href="tile31_36.png" preserveAspectRatio="none" x="13995.483398" y="-3890.258789" width="1.098633" height="1.098633"/>
<image xlink:href="tile31_30.png" preserveAspectRatio="none" x="13995.483398" y="-3896.850586" width="1.098633" height="1.098633"/>
<image xlink:href="tile31_29.png" preserveAspectRatio="none" x="13995.483398" y="-3897.949219" width="1.098633" height="1.098633"/>
<image xlink:href="tile31_27.png" preserveAspectRatio="none" x="13995.483398" y="-3900.146484" width="1.098633" height="1.098633"/>
</g>
</svg>
