<?xml version="1.0" encoding="UTF-8"?>
<svg  xmlns="http://www.w3.org/2000/svg" xmlns:xlink="http://www.w3.org/1999/xlink" xmlns:go="http://purl.org/svgmap/profile" viewBox="13961.5875 -3929.1660776 38.41250000000116 62.49941089999993" go:dataArea="13961.5875 -3929.1660776 38.41250000000116 62.49941089999993" >
<metadata>
 <rdf:RDF xmlns:rdf="http://www.w3.org/1999/02/22-rdf-syntax-ns#" xmlns:crs="http://opengis.org/xmldtds/transformations.dtd" xmlns:svg="http://www.w3.org/svg" >
  <rdf:Description>
   <crs:CoordinateReferenceSystem rdf:resource="http://purl.org/crs/84" svg:transform="matrix(100.0,0.0,0.0,-100.0,0.0,0.0)" />
  </rdf:Description>
 </rdf:RDF>
</metadata>
<globalCoordinateSystem srsName="http://purl.org/crs/84" transform="matrix(100.0,0.0,0.0,-100.0,0.0,0.0)" />
<g >
<image xlink:href="tile32_41.png" preserveAspectRatio="none" x="13996.582031" y="-3884.765625" width="1.098633" height="1.098633"/>
<image xlink:href="tile32_37.png" preserveAspectRatio="none" x="13996.582031" y="-3889.160156" width="1.098633" height="1.098633"/>
<image xlink:href="tile32_36.png" preserveAspectRatio="none" x="13996.582031" y="-3890.258789" width="1.098633" height="1.098633"/>
<image xlink:href="tile32_30.png" preserveAspectRatio="none" x="13996.582031" y="-3896.850586" width="1.098633" height="1.098633"/>
<image xlink:href="tile32_29.png" preserveAspectRatio="none" x="13996.582031" y="-3897.949219" width="1.098633" height="1.098633"/>
<image xlink:href="tile32_27.png" preserveAspectRatio="none" x="13996.582031" y="-3900.146484" width="1.098633" height="1.098633"/>
<image xlink:href="tile33_38.png" preserveAspectRatio="none" x="13997.680664" y="-3888.061523" width="1.098633" height="1.098633"/>
<image xlink:href="tile33_37.png" preserveAspectRatio="none" x="13997.680664" y="-3889.160156" width="1.098633" height="1.098633"/>
<image xlink:href="tile33_36.png" preserveAspectRatio="none" x="13997.680664" y="-3890.258789" width="1.098633" height="1.098633"/>
<image xlink:href="tile33_30.png" preserveAspectRatio="none" x="13997.680664" y="-3896.850586" width="1.098633" height="1.098633"/>
<image xlink:href="tile34_40.png" preserveAspectRatio="none" x="13998.779297" y="-3885.864258" width="1.098633" height="1.098633"/>
<image xlink:href="tile34_39.png" preserveAspectRatio="none" x="13998.779297" y="-3886.962891" width="1.098633" height="1.098633"/>
<image xlink:href="tile34_38.png" preserveAspectRatio="none" x="13998.779297" y="-3888.061523" width="1.098633" height="1.098633"/>
<image xlink:href="tile34_36.png" preserveAspectRatio="none" x="13998.779297" y="-3890.258789" width="1.098633" height="1.098633"/>
<image xlink:href="tile34_35.png" preserveAspectRatio="none" x="13998.779297" y="-3891.357422" width="1.098633" height="1.098633"/>
<image xlink:href="tile34_30.png" preserveAspectRatio="none" x="13998.779297" y="-3896.850586" width="1.098633" height="1.098633"/>
<image xlink:href="tile34_27.png" preserveAspectRatio="none" x="13998.779297" y="-3900.146484" width="1.098633" height="1.098633"/>
<image xlink:href="tile35_40.png" preserveAspectRatio="none" x="13999.87793" y="-3885.864258" width="1.098633" height="1.098633"/>
<image xlink:href="tile35_39.png" preserveAspectRatio="none" x="13999.87793" y="-3886.962891" width="1.098633" height="1.098633"/>
<image xlink:href="tile35_35.png" preserveAspectRatio="none" x="13999.87793" y="-3891.357422" width="1.098633" height="1.098633"/>
<image xlink:href="tile35_30.png" preserveAspectRatio="none" x="13999.87793" y="-3896.850586" width="1.098633" height="1.098633"/>
<image xlink:href="tile35_27.png" preserveAspectRatio="none" x="13999.87793" y="-3900.146484" width="1.098633" height="1.098633"/>
</g>
</svg>
