<?xml version="1.0" encoding="UTF-8"?>
<svg  xmlns="http://www.w3.org/2000/svg" xmlns:xlink="http://www.w3.org/1999/xlink" xmlns:go="http://purl.org/svgmap/profile" viewBox="13800.0 -3666.666667 100.0 66.66666699999979" go:dataArea="13800.0 -3666.666667 100.0 66.66666699999979" >
<metadata>
 <rdf:RDF xmlns:rdf="http://www.w3.org/1999/02/22-rdf-syntax-ns#" xmlns:crs="http://opengis.org/xmldtds/transformations.dtd" xmlns:svg="http://www.w3.org/svg" >
  <rdf:Description>
   <crs:CoordinateReferenceSystem rdf:resource="http://purl.org/crs/84" svg:transform="matrix(100.0,0.0,0.0,-100.0,0.0,0.0)" />
  </rdf:Description>
 </rdf:RDF>
</metadata>
<globalCoordinateSystem srsName="http://purl.org/crs/84" transform="matrix(100.0,0.0,0.0,-100.0,0.0,0.0)" />
<g >
<image xlink:href="tile16_10.png" preserveAspectRatio="none" x="13817.504883" y="-3656.25" width="1.098633" height="1.098633"/>
<image xlink:href="tile16_9.png" preserveAspectRatio="none" x="13817.504883" y="-3657.348633" width="1.098633" height="1.098633"/>
<image xlink:href="tile16_8.png" preserveAspectRatio="none" x="13817.504883" y="-3658.447266" width="1.098633" height="1.098633"/>
<image xlink:href="tile16_7.png" preserveAspectRatio="none" x="13817.504883" y="-3659.545898" width="1.098633" height="1.098633"/>
<image xlink:href="tile16_6.png" preserveAspectRatio="none" x="13817.504883" y="-3660.644531" width="1.098633" height="1.098633"/>
<image xlink:href="tile16_5.png" preserveAspectRatio="none" x="13817.504883" y="-3661.743164" width="1.098633" height="1.098633"/>
<image xlink:href="tile16_4.png" preserveAspectRatio="none" x="13817.504883" y="-3662.841797" width="1.098633" height="1.098633"/>
<image xlink:href="tile16_3.png" preserveAspectRatio="none" x="13817.504883" y="-3663.94043" width="1.098633" height="1.098633"/>
<image xlink:href="tile16_2.png" preserveAspectRatio="none" x="13817.504883" y="-3665.039062" width="1.098633" height="1.098633"/>
<image xlink:href="tile16_1.png" preserveAspectRatio="none" x="13817.504883" y="-3666.137695" width="1.098633" height="1.098633"/>
<image xlink:href="tile17_10.png" preserveAspectRatio="none" x="13818.603516" y="-3656.25" width="1.098633" height="1.098633"/>
<image xlink:href="tile17_9.png" preserveAspectRatio="none" x="13818.603516" y="-3657.348633" width="1.098633" height="1.098633"/>
<image xlink:href="tile17_8.png" preserveAspectRatio="none" x="13818.603516" y="-3658.447266" width="1.098633" height="1.098633"/>
<image xlink:href="tile17_7.png" preserveAspectRatio="none" x="13818.603516" y="-3659.545898" width="1.098633" height="1.098633"/>
<image xlink:href="tile17_6.png" preserveAspectRatio="none" x="13818.603516" y="-3660.644531" width="1.098633" height="1.098633"/>
<image xlink:href="tile17_5.png" preserveAspectRatio="none" x="13818.603516" y="-3661.743164" width="1.098633" height="1.098633"/>
<image xlink:href="tile17_4.png" preserveAspectRatio="none" x="13818.603516" y="-3662.841797" width="1.098633" height="1.098633"/>
<image xlink:href="tile17_3.png" preserveAspectRatio="none" x="13818.603516" y="-3663.94043" width="1.098633" height="1.098633"/>
<image xlink:href="tile17_2.png" preserveAspectRatio="none" x="13818.603516" y="-3665.039062" width="1.098633" height="1.098633"/>
<image xlink:href="tile17_1.png" preserveAspectRatio="none" x="13818.603516" y="-3666.137695" width="1.098633" height="1.098633"/>
<image xlink:href="tile18_11.png" preserveAspectRatio="none" x="13819.702148" y="-3655.151367" width="1.098633" height="1.098633"/>
<image xlink:href="tile18_10.png" preserveAspectRatio="none" x="13819.702148" y="-3656.25" width="1.098633" height="1.098633"/>
<image xlink:href="tile18_9.png" preserveAspectRatio="none" x="13819.702148" y="-3657.348633" width="1.098633" height="1.098633"/>
<image xlink:href="tile18_8.png" preserveAspectRatio="none" x="13819.702148" y="-3658.447266" width="1.098633" height="1.098633"/>
<image xlink:href="tile18_7.png" preserveAspectRatio="none" x="13819.702148" y="-3659.545898" width="1.098633" height="1.098633"/>
<image xlink:href="tile18_6.png" preserveAspectRatio="none" x="13819.702148" y="-3660.644531" width="1.098633" height="1.098633"/>
<image xlink:href="tile18_5.png" preserveAspectRatio="none" x="13819.702148" y="-3661.743164" width="1.098633" height="1.098633"/>
<image xlink:href="tile18_4.png" preserveAspectRatio="none" x="13819.702148" y="-3662.841797" width="1.098633" height="1.098633"/>
<image xlink:href="tile18_3.png" preserveAspectRatio="none" x="13819.702148" y="-3663.94043" width="1.098633" height="1.098633"/>
<image xlink:href="tile18_2.png" preserveAspectRatio="none" x="13819.702148" y="-3665.039062" width="1.098633" height="1.098633"/>
<image xlink:href="tile18_1.png" preserveAspectRatio="none" x="13819.702148" y="-3666.137695" width="1.098633" height="1.098633"/>
<image xlink:href="tile18_0.png" preserveAspectRatio="none" x="13819.702148" y="-3667.236328" width="1.098633" height="1.098633"/>
<image xlink:href="tile19_11.png" preserveAspectRatio="none" x="13820.800781" y="-3655.151367" width="1.098633" height="1.098633"/>
<image xlink:href="tile19_10.png" preserveAspectRatio="none" x="13820.800781" y="-3656.25" width="1.098633" height="1.098633"/>
<image xlink:href="tile19_9.png" preserveAspectRatio="none" x="13820.800781" y="-3657.348633" width="1.098633" height="1.098633"/>
<image xlink:href="tile19_8.png" preserveAspectRatio="none" x="13820.800781" y="-3658.447266" width="1.098633" height="1.098633"/>
<image xlink:href="tile19_7.png" preserveAspectRatio="none" x="13820.800781" y="-3659.545898" width="1.098633" height="1.098633"/>
<image xlink:href="tile19_6.png" preserveAspectRatio="none" x="13820.800781" y="-3660.644531" width="1.098633" height="1.098633"/>
<image xlink:href="tile19_5.png" preserveAspectRatio="none" x="13820.800781" y="-3661.743164" width="1.098633" height="1.098633"/>
<image xlink:href="tile19_4.png" preserveAspectRatio="none" x="13820.800781" y="-3662.841797" width="1.098633" height="1.098633"/>
<image xlink:href="tile19_3.png" preserveAspectRatio="none" x="13820.800781" y="-3663.94043" width="1.098633" height="1.098633"/>
<image xlink:href="tile19_2.png" preserveAspectRatio="none" x="13820.800781" y="-3665.039062" width="1.098633" height="1.098633"/>
<image xlink:href="tile19_1.png" preserveAspectRatio="none" x="13820.800781" y="-3666.137695" width="1.098633" height="1.098633"/>
<image xlink:href="tile19_0.png" preserveAspectRatio="none" x="13820.800781" y="-3667.236328" width="1.098633" height="1.098633"/>
<image xlink:href="tile20_12.png" preserveAspectRatio="none" x="13821.899414" y="-3654.052734" width="1.098633" height="1.098633"/>
<image xlink:href="tile20_11.png" preserveAspectRatio="none" x="13821.899414" y="-3655.151367" width="1.098633" height="1.098633"/>
<image xlink:href="tile20_7.png" preserveAspectRatio="none" x="13821.899414" y="-3659.545898" width="1.098633" height="1.098633"/>
<image xlink:href="tile20_6.png" preserveAspectRatio="none" x="13821.899414" y="-3660.644531" width="1.098633" height="1.098633"/>
<image xlink:href="tile20_5.png" preserveAspectRatio="none" x="13821.899414" y="-3661.743164" width="1.098633" height="1.098633"/>
<image xlink:href="tile20_4.png" preserveAspectRatio="none" x="13821.899414" y="-3662.841797" width="1.098633" height="1.098633"/>
<image xlink:href="tile20_3.png" preserveAspectRatio="none" x="13821.899414" y="-3663.94043" width="1.098633" height="1.098633"/>
<image xlink:href="tile20_2.png" preserveAspectRatio="none" x="13821.899414" y="-3665.039062" width="1.098633" height="1.098633"/>
<image xlink:href="tile20_1.png" preserveAspectRatio="none" x="13821.899414" y="-3666.137695" width="1.098633" height="1.098633"/>
<image xlink:href="tile20_0.png" preserveAspectRatio="none" x="13821.899414" y="-3667.236328" width="1.098633" height="1.098633"/>
<image xlink:href="tile21_12.png" preserveAspectRatio="none" x="13822.998047" y="-3654.052734" width="1.098633" height="1.098633"/>
<image xlink:href="tile21_11.png" preserveAspectRatio="none" x="13822.998047" y="-3655.151367" width="1.098633" height="1.098633"/>
<image xlink:href="tile21_6.png" preserveAspectRatio="none" x="13822.998047" y="-3660.644531" width="1.098633" height="1.098633"/>
<image xlink:href="tile21_5.png" preserveAspectRatio="none" x="13822.998047" y="-3661.743164" width="1.098633" height="1.098633"/>
<image xlink:href="tile21_4.png" preserveAspectRatio="none" x="13822.998047" y="-3662.841797" width="1.098633" height="1.098633"/>
<image xlink:href="tile21_3.png" preserveAspectRatio="none" x="13822.998047" y="-3663.94043" width="1.098633" height="1.098633"/>
<image xlink:href="tile21_2.png" preserveAspectRatio="none" x="13822.998047" y="-3665.039062" width="1.098633" height="1.098633"/>
<image xlink:href="tile21_1.png" preserveAspectRatio="none" x="13822.998047" y="-3666.137695" width="1.098633" height="1.098633"/>
<image xlink:href="tile21_0.png" preserveAspectRatio="none" x="13822.998047" y="-3667.236328" width="1.098633" height="1.098633"/>
<image xlink:href="tile22_12.png" preserveAspectRatio="none" x="13824.09668" y="-3654.052734" width="1.098633" height="1.098633"/>
<image xlink:href="tile22_6.png" preserveAspectRatio="none" x="13824.09668" y="-3660.644531" width="1.098633" height="1.098633"/>
<image xlink:href="tile22_5.png" preserveAspectRatio="none" x="13824.09668" y="-3661.743164" width="1.098633" height="1.098633"/>
<image xlink:href="tile22_4.png" preserveAspectRatio="none" x="13824.09668" y="-3662.841797" width="1.098633" height="1.098633"/>
<image xlink:href="tile22_3.png" preserveAspectRatio="none" x="13824.09668" y="-3663.94043" width="1.098633" height="1.098633"/>
<image xlink:href="tile22_2.png" preserveAspectRatio="none" x="13824.09668" y="-3665.039062" width="1.098633" height="1.098633"/>
<image xlink:href="tile22_1.png" preserveAspectRatio="none" x="13824.09668" y="-3666.137695" width="1.098633" height="1.098633"/>
<image xlink:href="tile22_0.png" preserveAspectRatio="none" x="13824.09668" y="-3667.236328" width="1.098633" height="1.098633"/>
<image xlink:href="tile23_6.png" preserveAspectRatio="none" x="13825.195312" y="-3660.644531" width="1.098633" height="1.098633"/>
<image xlink:href="tile23_5.png" preserveAspectRatio="none" x="13825.195312" y="-3661.743164" width="1.098633" height="1.098633"/>
<image xlink:href="tile23_4.png" preserveAspectRatio="none" x="13825.195312" y="-3662.841797" width="1.098633" height="1.098633"/>
<image xlink:href="tile23_3.png" preserveAspectRatio="none" x="13825.195312" y="-3663.94043" width="1.098633" height="1.098633"/>
<image xlink:href="tile23_2.png" preserveAspectRatio="none" x="13825.195312" y="-3665.039062" width="1.098633" height="1.098633"/>
<image xlink:href="tile23_1.png" preserveAspectRatio="none" x="13825.195312" y="-3666.137695" width="1.098633" height="1.098633"/>
<image xlink:href="tile23_0.png" preserveAspectRatio="none" x="13825.195312" y="-3667.236328" width="1.098633" height="1.098633"/>
<image xlink:href="tile24_5.png" preserveAspectRatio="none" x="13826.293945" y="-3661.743164" width="1.098633" height="1.098633"/>
<image xlink:href="tile24_4.png" preserveAspectRatio="none" x="13826.293945" y="-3662.841797" width="1.098633" height="1.098633"/>
<image xlink:href="tile24_3.png" preserveAspectRatio="none" x="13826.293945" y="-3663.94043" width="1.098633" height="1.098633"/>
<image xlink:href="tile24_2.png" preserveAspectRatio="none" x="13826.293945" y="-3665.039062" width="1.098633" height="1.098633"/>
<image xlink:href="tile24_1.png" preserveAspectRatio="none" x="13826.293945" y="-3666.137695" width="1.098633" height="1.098633"/>
<image xlink:href="tile24_0.png" preserveAspectRatio="none" x="13826.293945" y="-3667.236328" width="1.098633" height="1.098633"/>
<image xlink:href="tile25_5.png" preserveAspectRatio="none" x="13827.392578" y="-3661.743164" width="1.098633" height="1.098633"/>
<image xlink:href="tile25_4.png" preserveAspectRatio="none" x="13827.392578" y="-3662.841797" width="1.098633" height="1.098633"/>
<image xlink:href="tile25_3.png" preserveAspectRatio="none" x="13827.392578" y="-3663.94043" width="1.098633" height="1.098633"/>
<image xlink:href="tile25_2.png" preserveAspectRatio="none" x="13827.392578" y="-3665.039062" width="1.098633" height="1.098633"/>
<image xlink:href="tile25_1.png" preserveAspectRatio="none" x="13827.392578" y="-3666.137695" width="1.098633" height="1.098633"/>
<image xlink:href="tile25_0.png" preserveAspectRatio="none" x="13827.392578" y="-3667.236328" width="1.098633" height="1.098633"/>
<image xlink:href="tile26_3.png" preserveAspectRatio="none" x="13828.491211" y="-3663.94043" width="1.098633" height="1.098633"/>
<image xlink:href="tile26_2.png" preserveAspectRatio="none" x="13828.491211" y="-3665.039062" width="1.098633" height="1.098633"/>
<image xlink:href="tile26_1.png" preserveAspectRatio="none" x="13828.491211" y="-3666.137695" width="1.098633" height="1.098633"/>
<image xlink:href="tile26_0.png" preserveAspectRatio="none" x="13828.491211" y="-3667.236328" width="1.098633" height="1.098633"/>
<image xlink:href="tile27_4.png" preserveAspectRatio="none" x="13829.589844" y="-3662.841797" width="1.098633" height="1.098633"/>
<image xlink:href="tile27_3.png" preserveAspectRatio="none" x="13829.589844" y="-3663.94043" width="1.098633" height="1.098633"/>
<image xlink:href="tile27_2.png" preserveAspectRatio="none" x="13829.589844" y="-3665.039062" width="1.098633" height="1.098633"/>
<image xlink:href="tile27_1.png" preserveAspectRatio="none" x="13829.589844" y="-3666.137695" width="1.098633" height="1.098633"/>
<image xlink:href="tile27_0.png" preserveAspectRatio="none" x="13829.589844" y="-3667.236328" width="1.098633" height="1.098633"/>
<image xlink:href="tile28_4.png" preserveAspectRatio="none" x="13830.688477" y="-3662.841797" width="1.098633" height="1.098633"/>
<image xlink:href="tile28_3.png" preserveAspectRatio="none" x="13830.688477" y="-3663.94043" width="1.098633" height="1.098633"/>
<image xlink:href="tile28_2.png" preserveAspectRatio="none" x="13830.688477" y="-3665.039062" width="1.098633" height="1.098633"/>
<image xlink:href="tile28_1.png" preserveAspectRatio="none" x="13830.688477" y="-3666.137695" width="1.098633" height="1.098633"/>
<image xlink:href="tile28_0.png" preserveAspectRatio="none" x="13830.688477" y="-3667.236328" width="1.098633" height="1.098633"/>
<image xlink:href="tile29_5.png" preserveAspectRatio="none" x="13831.787109" y="-3661.743164" width="1.098633" height="1.098633"/>
<image xlink:href="tile29_4.png" preserveAspectRatio="none" x="13831.787109" y="-3662.841797" width="1.098633" height="1.098633"/>
<image xlink:href="tile29_3.png" preserveAspectRatio="none" x="13831.787109" y="-3663.94043" width="1.098633" height="1.098633"/>
<image xlink:href="tile29_2.png" preserveAspectRatio="none" x="13831.787109" y="-3665.039062" width="1.098633" height="1.098633"/>
<image xlink:href="tile29_1.png" preserveAspectRatio="none" x="13831.787109" y="-3666.137695" width="1.098633" height="1.098633"/>
<image xlink:href="tile29_0.png" preserveAspectRatio="none" x="13831.787109" y="-3667.236328" width="1.098633" height="1.098633"/>
<image xlink:href="tile30_7.png" preserveAspectRatio="none" x="13832.885742" y="-3659.545898" width="1.098633" height="1.098633"/>
<image xlink:href="tile30_6.png" preserveAspectRatio="none" x="13832.885742" y="-3660.644531" width="1.098633" height="1.098633"/>
<image xlink:href="tile30_5.png" preserveAspectRatio="none" x="13832.885742" y="-3661.743164" width="1.098633" height="1.098633"/>
<image xlink:href="tile30_4.png" preserveAspectRatio="none" x="13832.885742" y="-3662.841797" width="1.098633" height="1.098633"/>
<image xlink:href="tile30_3.png" preserveAspectRatio="none" x="13832.885742" y="-3663.94043" width="1.098633" height="1.098633"/>
<image xlink:href="tile30_1.png" preserveAspectRatio="none" x="13832.885742" y="-3666.137695" width="1.098633" height="1.098633"/>
<image xlink:href="tile30_0.png" preserveAspectRatio="none" x="13832.885742" y="-3667.236328" width="1.098633" height="1.098633"/>
<image xlink:href="tile31_7.png" preserveAspectRatio="none" x="13833.984375" y="-3659.545898" width="1.098633" height="1.098633"/>
<image xlink:href="tile31_4.png" preserveAspectRatio="none" x="13833.984375" y="-3662.841797" width="1.098633" height="1.098633"/>
<image xlink:href="tile31_0.png" preserveAspectRatio="none" x="13833.984375" y="-3667.236328" width="1.098633" height="1.098633"/>
</g>
</svg>
