<?xml version="1.0" encoding="UTF-8"?>
<svg  xmlns="http://www.w3.org/2000/svg" xmlns:xlink="http://www.w3.org/1999/xlink" xmlns:go="http://purl.org/svgmap/profile" viewBox="13800.0 -3666.666667 100.0 66.66666699999979" go:dataArea="13800.0 -3666.666667 100.0 66.66666699999979" >
<metadata>
 <rdf:RDF xmlns:rdf="http://www.w3.org/1999/02/22-rdf-syntax-ns#" xmlns:crs="http://opengis.org/xmldtds/transformations.dtd" xmlns:svg="http://www.w3.org/svg" >
  <rdf:Description>
   <crs:CoordinateReferenceSystem rdf:resource="http://purl.org/crs/84" svg:transform="matrix(100.0,0.0,0.0,-100.0,0.0,0.0)" />
  </rdf:Description>
 </rdf:RDF>
</metadata>
<globalCoordinateSystem srsName="http://purl.org/crs/84" transform="matrix(100.0,0.0,0.0,-100.0,0.0,0.0)" />
<g >
<image xlink:href="tile0_61.png" preserveAspectRatio="none" x="13799.926758" y="-3600.219727" width="1.098633" height="1.098633"/>
<image xlink:href="tile0_60.png" preserveAspectRatio="none" x="13799.926758" y="-3601.318359" width="1.098633" height="1.098633"/>
<image xlink:href="tile0_59.png" preserveAspectRatio="none" x="13799.926758" y="-3602.416992" width="1.098633" height="1.098633"/>
<image xlink:href="tile1_59.png" preserveAspectRatio="none" x="13801.025391" y="-3602.416992" width="1.098633" height="1.098633"/>
<image xlink:href="tile1_58.png" preserveAspectRatio="none" x="13801.025391" y="-3603.515625" width="1.098633" height="1.098633"/>
<image xlink:href="tile1_57.png" preserveAspectRatio="none" x="13801.025391" y="-3604.614258" width="1.098633" height="1.098633"/>
<image xlink:href="tile2_58.png" preserveAspectRatio="none" x="13802.124023" y="-3603.515625" width="1.098633" height="1.098633"/>
<image xlink:href="tile2_57.png" preserveAspectRatio="none" x="13802.124023" y="-3604.614258" width="1.098633" height="1.098633"/>
<image xlink:href="tile2_56.png" preserveAspectRatio="none" x="13802.124023" y="-3605.712891" width="1.098633" height="1.098633"/>
<image xlink:href="tile3_56.png" preserveAspectRatio="none" x="13803.222656" y="-3605.712891" width="1.098633" height="1.098633"/>
<image xlink:href="tile4_56.png" preserveAspectRatio="none" x="13804.321289" y="-3605.712891" width="1.098633" height="1.098633"/>
<image xlink:href="tile4_54.png" preserveAspectRatio="none" x="13804.321289" y="-3607.910156" width="1.098633" height="1.098633"/>
<image xlink:href="tile4_53.png" preserveAspectRatio="none" x="13804.321289" y="-3609.008789" width="1.098633" height="1.098633"/>
<image xlink:href="tile4_52.png" preserveAspectRatio="none" x="13804.321289" y="-3610.107422" width="1.098633" height="1.098633"/>
<image xlink:href="tile5_57.png" preserveAspectRatio="none" x="13805.419922" y="-3604.614258" width="1.098633" height="1.098633"/>
<image xlink:href="tile5_56.png" preserveAspectRatio="none" x="13805.419922" y="-3605.712891" width="1.098633" height="1.098633"/>
<image xlink:href="tile5_55.png" preserveAspectRatio="none" x="13805.419922" y="-3606.811523" width="1.098633" height="1.098633"/>
<image xlink:href="tile5_54.png" preserveAspectRatio="none" x="13805.419922" y="-3607.910156" width="1.098633" height="1.098633"/>
<image xlink:href="tile5_53.png" preserveAspectRatio="none" x="13805.419922" y="-3609.008789" width="1.098633" height="1.098633"/>
<image xlink:href="tile6_58.png" preserveAspectRatio="none" x="13806.518555" y="-3603.515625" width="1.098633" height="1.098633"/>
<image xlink:href="tile6_57.png" preserveAspectRatio="none" x="13806.518555" y="-3604.614258" width="1.098633" height="1.098633"/>
<image xlink:href="tile6_55.png" preserveAspectRatio="none" x="13806.518555" y="-3606.811523" width="1.098633" height="1.098633"/>
<image xlink:href="tile6_54.png" preserveAspectRatio="none" x="13806.518555" y="-3607.910156" width="1.098633" height="1.098633"/>
<image xlink:href="tile6_53.png" preserveAspectRatio="none" x="13806.518555" y="-3609.008789" width="1.098633" height="1.098633"/>
<image xlink:href="tile7_59.png" preserveAspectRatio="none" x="13807.617188" y="-3602.416992" width="1.098633" height="1.098633"/>
<image xlink:href="tile7_58.png" preserveAspectRatio="none" x="13807.617188" y="-3603.515625" width="1.098633" height="1.098633"/>
<image xlink:href="tile7_55.png" preserveAspectRatio="none" x="13807.617188" y="-3606.811523" width="1.098633" height="1.098633"/>
<image xlink:href="tile7_54.png" preserveAspectRatio="none" x="13807.617188" y="-3607.910156" width="1.098633" height="1.098633"/>
<image xlink:href="tile7_53.png" preserveAspectRatio="none" x="13807.617188" y="-3609.008789" width="1.098633" height="1.098633"/>
<image xlink:href="tile8_60.png" preserveAspectRatio="none" x="13808.71582" y="-3601.318359" width="1.098633" height="1.098633"/>
<image xlink:href="tile8_59.png" preserveAspectRatio="none" x="13808.71582" y="-3602.416992" width="1.098633" height="1.098633"/>
<image xlink:href="tile8_58.png" preserveAspectRatio="none" x="13808.71582" y="-3603.515625" width="1.098633" height="1.098633"/>
<image xlink:href="tile8_57.png" preserveAspectRatio="none" x="13808.71582" y="-3604.614258" width="1.098633" height="1.098633"/>
<image xlink:href="tile8_55.png" preserveAspectRatio="none" x="13808.71582" y="-3606.811523" width="1.098633" height="1.098633"/>
<image xlink:href="tile8_54.png" preserveAspectRatio="none" x="13808.71582" y="-3607.910156" width="1.098633" height="1.098633"/>
<image xlink:href="tile9_60.png" preserveAspectRatio="none" x="13809.814453" y="-3601.318359" width="1.098633" height="1.098633"/>
<image xlink:href="tile9_59.png" preserveAspectRatio="none" x="13809.814453" y="-3602.416992" width="1.098633" height="1.098633"/>
<image xlink:href="tile9_58.png" preserveAspectRatio="none" x="13809.814453" y="-3603.515625" width="1.098633" height="1.098633"/>
<image xlink:href="tile9_57.png" preserveAspectRatio="none" x="13809.814453" y="-3604.614258" width="1.098633" height="1.098633"/>
<image xlink:href="tile9_55.png" preserveAspectRatio="none" x="13809.814453" y="-3606.811523" width="1.098633" height="1.098633"/>
<image xlink:href="tile9_54.png" preserveAspectRatio="none" x="13809.814453" y="-3607.910156" width="1.098633" height="1.098633"/>
<image xlink:href="tile10_61.png" preserveAspectRatio="none" x="13810.913086" y="-3600.219727" width="1.098633" height="1.098633"/>
<image xlink:href="tile10_60.png" preserveAspectRatio="none" x="13810.913086" y="-3601.318359" width="1.098633" height="1.098633"/>
<image xlink:href="tile10_59.png" preserveAspectRatio="none" x="13810.913086" y="-3602.416992" width="1.098633" height="1.098633"/>
<image xlink:href="tile10_58.png" preserveAspectRatio="none" x="13810.913086" y="-3603.515625" width="1.098633" height="1.098633"/>
<image xlink:href="tile10_57.png" preserveAspectRatio="none" x="13810.913086" y="-3604.614258" width="1.098633" height="1.098633"/>
<image xlink:href="tile10_56.png" preserveAspectRatio="none" x="13810.913086" y="-3605.712891" width="1.098633" height="1.098633"/>
<image xlink:href="tile10_55.png" preserveAspectRatio="none" x="13810.913086" y="-3606.811523" width="1.098633" height="1.098633"/>
<image xlink:href="tile11_61.png" preserveAspectRatio="none" x="13812.011719" y="-3600.219727" width="1.098633" height="1.098633"/>
<image xlink:href="tile11_60.png" preserveAspectRatio="none" x="13812.011719" y="-3601.318359" width="1.098633" height="1.098633"/>
<image xlink:href="tile11_59.png" preserveAspectRatio="none" x="13812.011719" y="-3602.416992" width="1.098633" height="1.098633"/>
<image xlink:href="tile11_58.png" preserveAspectRatio="none" x="13812.011719" y="-3603.515625" width="1.098633" height="1.098633"/>
<image xlink:href="tile11_57.png" preserveAspectRatio="none" x="13812.011719" y="-3604.614258" width="1.098633" height="1.098633"/>
<image xlink:href="tile12_61.png" preserveAspectRatio="none" x="13813.110352" y="-3600.219727" width="1.098633" height="1.098633"/>
<image xlink:href="tile12_60.png" preserveAspectRatio="none" x="13813.110352" y="-3601.318359" width="1.098633" height="1.098633"/>
<image xlink:href="tile12_59.png" preserveAspectRatio="none" x="13813.110352" y="-3602.416992" width="1.098633" height="1.098633"/>
<image xlink:href="tile12_58.png" preserveAspectRatio="none" x="13813.110352" y="-3603.515625" width="1.098633" height="1.098633"/>
<image xlink:href="tile13_61.png" preserveAspectRatio="none" x="13814.208984" y="-3600.219727" width="1.098633" height="1.098633"/>
<image xlink:href="tile13_60.png" preserveAspectRatio="none" x="13814.208984" y="-3601.318359" width="1.098633" height="1.098633"/>
<image xlink:href="tile14_61.png" preserveAspectRatio="none" x="13815.307617" y="-3600.219727" width="1.098633" height="1.098633"/>
<image xlink:href="tile15_61.png" preserveAspectRatio="none" x="13816.40625" y="-3600.219727" width="1.098633" height="1.098633"/>
<image xlink:href="tile15_60.png" preserveAspectRatio="none" x="13816.40625" y="-3601.318359" width="1.098633" height="1.098633"/>
</g>
</svg>
