<?xml version="1.0" encoding="UTF-8"?>
<svg  xmlns="http://www.w3.org/2000/svg" xmlns:xlink="http://www.w3.org/1999/xlink" xmlns:go="http://purl.org/svgmap/profile" viewBox="13800.0 -3666.666667 100.0 66.66666699999979" go:dataArea="13800.0 -3666.666667 100.0 66.66666699999979" >
<metadata>
 <rdf:RDF xmlns:rdf="http://www.w3.org/1999/02/22-rdf-syntax-ns#" xmlns:crs="http://opengis.org/xmldtds/transformations.dtd" xmlns:svg="http://www.w3.org/svg" >
  <rdf:Description>
   <crs:CoordinateReferenceSystem rdf:resource="http://purl.org/crs/84" svg:transform="matrix(100.0,0.0,0.0,-100.0,0.0,0.0)" />
  </rdf:Description>
 </rdf:RDF>
</metadata>
<globalCoordinateSystem srsName="http://purl.org/crs/84" transform="matrix(100.0,0.0,0.0,-100.0,0.0,0.0)" />
<g >
<image xlink:href="tile42_58.png" preserveAspectRatio="none" x="13846.069336" y="-3603.515625" width="1.098633" height="1.098633"/>
<image xlink:href="tile42_57.png" preserveAspectRatio="none" x="13846.069336" y="-3604.614258" width="1.098633" height="1.098633"/>
<image xlink:href="tile42_55.png" preserveAspectRatio="none" x="13846.069336" y="-3606.811523" width="1.098633" height="1.098633"/>
<image xlink:href="tile42_50.png" preserveAspectRatio="none" x="13846.069336" y="-3612.304688" width="1.098633" height="1.098633"/>
<image xlink:href="tile42_49.png" preserveAspectRatio="none" x="13846.069336" y="-3613.40332" width="1.098633" height="1.098633"/>
<image xlink:href="tile42_48.png" preserveAspectRatio="none" x="13846.069336" y="-3614.501953" width="1.098633" height="1.098633"/>
<image xlink:href="tile43_58.png" preserveAspectRatio="none" x="13847.167969" y="-3603.515625" width="1.098633" height="1.098633"/>
<image xlink:href="tile43_57.png" preserveAspectRatio="none" x="13847.167969" y="-3604.614258" width="1.098633" height="1.098633"/>
<image xlink:href="tile43_55.png" preserveAspectRatio="none" x="13847.167969" y="-3606.811523" width="1.098633" height="1.098633"/>
<image xlink:href="tile43_54.png" preserveAspectRatio="none" x="13847.167969" y="-3607.910156" width="1.098633" height="1.098633"/>
<image xlink:href="tile43_53.png" preserveAspectRatio="none" x="13847.167969" y="-3609.008789" width="1.098633" height="1.098633"/>
<image xlink:href="tile43_52.png" preserveAspectRatio="none" x="13847.167969" y="-3610.107422" width="1.098633" height="1.098633"/>
<image xlink:href="tile43_51.png" preserveAspectRatio="none" x="13847.167969" y="-3611.206055" width="1.098633" height="1.098633"/>
<image xlink:href="tile43_50.png" preserveAspectRatio="none" x="13847.167969" y="-3612.304688" width="1.098633" height="1.098633"/>
<image xlink:href="tile43_49.png" preserveAspectRatio="none" x="13847.167969" y="-3613.40332" width="1.098633" height="1.098633"/>
<image xlink:href="tile43_48.png" preserveAspectRatio="none" x="13847.167969" y="-3614.501953" width="1.098633" height="1.098633"/>
<image xlink:href="tile43_47.png" preserveAspectRatio="none" x="13847.167969" y="-3615.600586" width="1.098633" height="1.098633"/>
<image xlink:href="tile43_46.png" preserveAspectRatio="none" x="13847.167969" y="-3616.699219" width="1.098633" height="1.098633"/>
<image xlink:href="tile44_60.png" preserveAspectRatio="none" x="13848.266602" y="-3601.318359" width="1.098633" height="1.098633"/>
<image xlink:href="tile44_59.png" preserveAspectRatio="none" x="13848.266602" y="-3602.416992" width="1.098633" height="1.098633"/>
<image xlink:href="tile44_58.png" preserveAspectRatio="none" x="13848.266602" y="-3603.515625" width="1.098633" height="1.098633"/>
<image xlink:href="tile44_53.png" preserveAspectRatio="none" x="13848.266602" y="-3609.008789" width="1.098633" height="1.098633"/>
<image xlink:href="tile44_52.png" preserveAspectRatio="none" x="13848.266602" y="-3610.107422" width="1.098633" height="1.098633"/>
<image xlink:href="tile44_51.png" preserveAspectRatio="none" x="13848.266602" y="-3611.206055" width="1.098633" height="1.098633"/>
<image xlink:href="tile44_47.png" preserveAspectRatio="none" x="13848.266602" y="-3615.600586" width="1.098633" height="1.098633"/>
<image xlink:href="tile44_46.png" preserveAspectRatio="none" x="13848.266602" y="-3616.699219" width="1.098633" height="1.098633"/>
<image xlink:href="tile45_60.png" preserveAspectRatio="none" x="13849.365234" y="-3601.318359" width="1.098633" height="1.098633"/>
<image xlink:href="tile45_59.png" preserveAspectRatio="none" x="13849.365234" y="-3602.416992" width="1.098633" height="1.098633"/>
<image xlink:href="tile45_58.png" preserveAspectRatio="none" x="13849.365234" y="-3603.515625" width="1.098633" height="1.098633"/>
<image xlink:href="tile45_47.png" preserveAspectRatio="none" x="13849.365234" y="-3615.600586" width="1.098633" height="1.098633"/>
<image xlink:href="tile46_60.png" preserveAspectRatio="none" x="13850.463867" y="-3601.318359" width="1.098633" height="1.098633"/>
<image xlink:href="tile46_59.png" preserveAspectRatio="none" x="13850.463867" y="-3602.416992" width="1.098633" height="1.098633"/>
<image xlink:href="tile47_61.png" preserveAspectRatio="none" x="13851.5625" y="-3600.219727" width="1.098633" height="1.098633"/>
<image xlink:href="tile47_60.png" preserveAspectRatio="none" x="13851.5625" y="-3601.318359" width="1.098633" height="1.098633"/>
</g>
</svg>
