<?xml version="1.0" encoding="UTF-8"?>
<svg  xmlns="http://www.w3.org/2000/svg" xmlns:xlink="http://www.w3.org/1999/xlink" xmlns:go="http://purl.org/svgmap/profile" viewBox="13800.0 -3666.666667 100.0 66.66666699999979" go:dataArea="13800.0 -3666.666667 100.0 66.66666699999979" >
<metadata>
 <rdf:RDF xmlns:rdf="http://www.w3.org/1999/02/22-rdf-syntax-ns#" xmlns:crs="http://opengis.org/xmldtds/transformations.dtd" xmlns:svg="http://www.w3.org/svg" >
  <rdf:Description>
   <crs:CoordinateReferenceSystem rdf:resource="http://purl.org/crs/84" svg:transform="matrix(100.0,0.0,0.0,-100.0,0.0,0.0)" />
  </rdf:Description>
 </rdf:RDF>
</metadata>
<globalCoordinateSystem srsName="http://purl.org/crs/84" transform="matrix(100.0,0.0,0.0,-100.0,0.0,0.0)" />
<g >
<image xlink:href="tile0_10.png" preserveAspectRatio="none" x="13799.926758" y="-3656.25" width="1.098633" height="1.098633"/>
<image xlink:href="tile0_9.png" preserveAspectRatio="none" x="13799.926758" y="-3657.348633" width="1.098633" height="1.098633"/>
<image xlink:href="tile0_8.png" preserveAspectRatio="none" x="13799.926758" y="-3658.447266" width="1.098633" height="1.098633"/>
<image xlink:href="tile1_9.png" preserveAspectRatio="none" x="13801.025391" y="-3657.348633" width="1.098633" height="1.098633"/>
<image xlink:href="tile1_8.png" preserveAspectRatio="none" x="13801.025391" y="-3658.447266" width="1.098633" height="1.098633"/>
<image xlink:href="tile2_9.png" preserveAspectRatio="none" x="13802.124023" y="-3657.348633" width="1.098633" height="1.098633"/>
<image xlink:href="tile2_8.png" preserveAspectRatio="none" x="13802.124023" y="-3658.447266" width="1.098633" height="1.098633"/>
<image xlink:href="tile3_9.png" preserveAspectRatio="none" x="13803.222656" y="-3657.348633" width="1.098633" height="1.098633"/>
<image xlink:href="tile3_7.png" preserveAspectRatio="none" x="13803.222656" y="-3659.545898" width="1.098633" height="1.098633"/>
<image xlink:href="tile3_6.png" preserveAspectRatio="none" x="13803.222656" y="-3660.644531" width="1.098633" height="1.098633"/>
<image xlink:href="tile4_9.png" preserveAspectRatio="none" x="13804.321289" y="-3657.348633" width="1.098633" height="1.098633"/>
<image xlink:href="tile4_8.png" preserveAspectRatio="none" x="13804.321289" y="-3658.447266" width="1.098633" height="1.098633"/>
<image xlink:href="tile4_7.png" preserveAspectRatio="none" x="13804.321289" y="-3659.545898" width="1.098633" height="1.098633"/>
<image xlink:href="tile4_6.png" preserveAspectRatio="none" x="13804.321289" y="-3660.644531" width="1.098633" height="1.098633"/>
<image xlink:href="tile5_9.png" preserveAspectRatio="none" x="13805.419922" y="-3657.348633" width="1.098633" height="1.098633"/>
<image xlink:href="tile5_8.png" preserveAspectRatio="none" x="13805.419922" y="-3658.447266" width="1.098633" height="1.098633"/>
<image xlink:href="tile5_7.png" preserveAspectRatio="none" x="13805.419922" y="-3659.545898" width="1.098633" height="1.098633"/>
<image xlink:href="tile5_6.png" preserveAspectRatio="none" x="13805.419922" y="-3660.644531" width="1.098633" height="1.098633"/>
<image xlink:href="tile5_5.png" preserveAspectRatio="none" x="13805.419922" y="-3661.743164" width="1.098633" height="1.098633"/>
<image xlink:href="tile6_6.png" preserveAspectRatio="none" x="13806.518555" y="-3660.644531" width="1.098633" height="1.098633"/>
<image xlink:href="tile6_5.png" preserveAspectRatio="none" x="13806.518555" y="-3661.743164" width="1.098633" height="1.098633"/>
<image xlink:href="tile7_5.png" preserveAspectRatio="none" x="13807.617188" y="-3661.743164" width="1.098633" height="1.098633"/>
<image xlink:href="tile8_12.png" preserveAspectRatio="none" x="13808.71582" y="-3654.052734" width="1.098633" height="1.098633"/>
<image xlink:href="tile8_5.png" preserveAspectRatio="none" x="13808.71582" y="-3661.743164" width="1.098633" height="1.098633"/>
<image xlink:href="tile8_4.png" preserveAspectRatio="none" x="13808.71582" y="-3662.841797" width="1.098633" height="1.098633"/>
<image xlink:href="tile9_13.png" preserveAspectRatio="none" x="13809.814453" y="-3652.954102" width="1.098633" height="1.098633"/>
<image xlink:href="tile9_12.png" preserveAspectRatio="none" x="13809.814453" y="-3654.052734" width="1.098633" height="1.098633"/>
<image xlink:href="tile9_11.png" preserveAspectRatio="none" x="13809.814453" y="-3655.151367" width="1.098633" height="1.098633"/>
<image xlink:href="tile9_10.png" preserveAspectRatio="none" x="13809.814453" y="-3656.25" width="1.098633" height="1.098633"/>
<image xlink:href="tile9_5.png" preserveAspectRatio="none" x="13809.814453" y="-3661.743164" width="1.098633" height="1.098633"/>
<image xlink:href="tile9_4.png" preserveAspectRatio="none" x="13809.814453" y="-3662.841797" width="1.098633" height="1.098633"/>
<image xlink:href="tile10_13.png" preserveAspectRatio="none" x="13810.913086" y="-3652.954102" width="1.098633" height="1.098633"/>
<image xlink:href="tile10_12.png" preserveAspectRatio="none" x="13810.913086" y="-3654.052734" width="1.098633" height="1.098633"/>
<image xlink:href="tile10_11.png" preserveAspectRatio="none" x="13810.913086" y="-3655.151367" width="1.098633" height="1.098633"/>
<image xlink:href="tile10_10.png" preserveAspectRatio="none" x="13810.913086" y="-3656.25" width="1.098633" height="1.098633"/>
<image xlink:href="tile10_9.png" preserveAspectRatio="none" x="13810.913086" y="-3657.348633" width="1.098633" height="1.098633"/>
<image xlink:href="tile10_4.png" preserveAspectRatio="none" x="13810.913086" y="-3662.841797" width="1.098633" height="1.098633"/>
<image xlink:href="tile11_13.png" preserveAspectRatio="none" x="13812.011719" y="-3652.954102" width="1.098633" height="1.098633"/>
<image xlink:href="tile11_12.png" preserveAspectRatio="none" x="13812.011719" y="-3654.052734" width="1.098633" height="1.098633"/>
<image xlink:href="tile11_11.png" preserveAspectRatio="none" x="13812.011719" y="-3655.151367" width="1.098633" height="1.098633"/>
<image xlink:href="tile11_10.png" preserveAspectRatio="none" x="13812.011719" y="-3656.25" width="1.098633" height="1.098633"/>
<image xlink:href="tile11_9.png" preserveAspectRatio="none" x="13812.011719" y="-3657.348633" width="1.098633" height="1.098633"/>
<image xlink:href="tile11_8.png" preserveAspectRatio="none" x="13812.011719" y="-3658.447266" width="1.098633" height="1.098633"/>
<image xlink:href="tile11_7.png" preserveAspectRatio="none" x="13812.011719" y="-3659.545898" width="1.098633" height="1.098633"/>
<image xlink:href="tile11_5.png" preserveAspectRatio="none" x="13812.011719" y="-3661.743164" width="1.098633" height="1.098633"/>
<image xlink:href="tile11_4.png" preserveAspectRatio="none" x="13812.011719" y="-3662.841797" width="1.098633" height="1.098633"/>
<image xlink:href="tile12_13.png" preserveAspectRatio="none" x="13813.110352" y="-3652.954102" width="1.098633" height="1.098633"/>
<image xlink:href="tile12_12.png" preserveAspectRatio="none" x="13813.110352" y="-3654.052734" width="1.098633" height="1.098633"/>
<image xlink:href="tile12_11.png" preserveAspectRatio="none" x="13813.110352" y="-3655.151367" width="1.098633" height="1.098633"/>
<image xlink:href="tile12_10.png" preserveAspectRatio="none" x="13813.110352" y="-3656.25" width="1.098633" height="1.098633"/>
<image xlink:href="tile12_9.png" preserveAspectRatio="none" x="13813.110352" y="-3657.348633" width="1.098633" height="1.098633"/>
<image xlink:href="tile12_8.png" preserveAspectRatio="none" x="13813.110352" y="-3658.447266" width="1.098633" height="1.098633"/>
<image xlink:href="tile12_7.png" preserveAspectRatio="none" x="13813.110352" y="-3659.545898" width="1.098633" height="1.098633"/>
<image xlink:href="tile12_6.png" preserveAspectRatio="none" x="13813.110352" y="-3660.644531" width="1.098633" height="1.098633"/>
<image xlink:href="tile12_5.png" preserveAspectRatio="none" x="13813.110352" y="-3661.743164" width="1.098633" height="1.098633"/>
<image xlink:href="tile12_4.png" preserveAspectRatio="none" x="13813.110352" y="-3662.841797" width="1.098633" height="1.098633"/>
<image xlink:href="tile13_13.png" preserveAspectRatio="none" x="13814.208984" y="-3652.954102" width="1.098633" height="1.098633"/>
<image xlink:href="tile13_12.png" preserveAspectRatio="none" x="13814.208984" y="-3654.052734" width="1.098633" height="1.098633"/>
<image xlink:href="tile13_11.png" preserveAspectRatio="none" x="13814.208984" y="-3655.151367" width="1.098633" height="1.098633"/>
<image xlink:href="tile13_10.png" preserveAspectRatio="none" x="13814.208984" y="-3656.25" width="1.098633" height="1.098633"/>
<image xlink:href="tile13_9.png" preserveAspectRatio="none" x="13814.208984" y="-3657.348633" width="1.098633" height="1.098633"/>
<image xlink:href="tile13_8.png" preserveAspectRatio="none" x="13814.208984" y="-3658.447266" width="1.098633" height="1.098633"/>
<image xlink:href="tile13_7.png" preserveAspectRatio="none" x="13814.208984" y="-3659.545898" width="1.098633" height="1.098633"/>
<image xlink:href="tile13_6.png" preserveAspectRatio="none" x="13814.208984" y="-3660.644531" width="1.098633" height="1.098633"/>
<image xlink:href="tile13_5.png" preserveAspectRatio="none" x="13814.208984" y="-3661.743164" width="1.098633" height="1.098633"/>
<image xlink:href="tile13_4.png" preserveAspectRatio="none" x="13814.208984" y="-3662.841797" width="1.098633" height="1.098633"/>
<image xlink:href="tile14_13.png" preserveAspectRatio="none" x="13815.307617" y="-3652.954102" width="1.098633" height="1.098633"/>
<image xlink:href="tile14_12.png" preserveAspectRatio="none" x="13815.307617" y="-3654.052734" width="1.098633" height="1.098633"/>
<image xlink:href="tile14_11.png" preserveAspectRatio="none" x="13815.307617" y="-3655.151367" width="1.098633" height="1.098633"/>
<image xlink:href="tile14_10.png" preserveAspectRatio="none" x="13815.307617" y="-3656.25" width="1.098633" height="1.098633"/>
<image xlink:href="tile14_9.png" preserveAspectRatio="none" x="13815.307617" y="-3657.348633" width="1.098633" height="1.098633"/>
<image xlink:href="tile14_8.png" preserveAspectRatio="none" x="13815.307617" y="-3658.447266" width="1.098633" height="1.098633"/>
<image xlink:href="tile14_7.png" preserveAspectRatio="none" x="13815.307617" y="-3659.545898" width="1.098633" height="1.098633"/>
<image xlink:href="tile14_6.png" preserveAspectRatio="none" x="13815.307617" y="-3660.644531" width="1.098633" height="1.098633"/>
<image xlink:href="tile14_5.png" preserveAspectRatio="none" x="13815.307617" y="-3661.743164" width="1.098633" height="1.098633"/>
<image xlink:href="tile14_4.png" preserveAspectRatio="none" x="13815.307617" y="-3662.841797" width="1.098633" height="1.098633"/>
<image xlink:href="tile14_3.png" preserveAspectRatio="none" x="13815.307617" y="-3663.94043" width="1.098633" height="1.098633"/>
<image xlink:href="tile14_1.png" preserveAspectRatio="none" x="13815.307617" y="-3666.137695" width="1.098633" height="1.098633"/>
<image xlink:href="tile14_0.png" preserveAspectRatio="none" x="13815.307617" y="-3667.236328" width="1.098633" height="1.098633"/>
<image xlink:href="tile15_10.png" preserveAspectRatio="none" x="13816.40625" y="-3656.25" width="1.098633" height="1.098633"/>
<image xlink:href="tile15_9.png" preserveAspectRatio="none" x="13816.40625" y="-3657.348633" width="1.098633" height="1.098633"/>
<image xlink:href="tile15_8.png" preserveAspectRatio="none" x="13816.40625" y="-3658.447266" width="1.098633" height="1.098633"/>
<image xlink:href="tile15_7.png" preserveAspectRatio="none" x="13816.40625" y="-3659.545898" width="1.098633" height="1.098633"/>
<image xlink:href="tile15_6.png" preserveAspectRatio="none" x="13816.40625" y="-3660.644531" width="1.098633" height="1.098633"/>
<image xlink:href="tile15_5.png" preserveAspectRatio="none" x="13816.40625" y="-3661.743164" width="1.098633" height="1.098633"/>
<image xlink:href="tile15_4.png" preserveAspectRatio="none" x="13816.40625" y="-3662.841797" width="1.098633" height="1.098633"/>
<image xlink:href="tile15_3.png" preserveAspectRatio="none" x="13816.40625" y="-3663.94043" width="1.098633" height="1.098633"/>
<image xlink:href="tile15_1.png" preserveAspectRatio="none" x="13816.40625" y="-3666.137695" width="1.098633" height="1.098633"/>
<image xlink:href="tile15_0.png" preserveAspectRatio="none" x="13816.40625" y="-3667.236328" width="1.098633" height="1.098633"/>
</g>
</svg>
