<?xml version="1.0" encoding="UTF-8"?>
<svg  xmlns="http://www.w3.org/2000/svg" xmlns:xlink="http://www.w3.org/1999/xlink" xmlns:go="http://purl.org/svgmap/profile" viewBox="13611.093970300002 -3666.666667 88.90602969999861 66.66666699999979" go:dataArea="13611.093970300002 -3666.666667 88.90602969999861 66.66666699999979" >
<metadata>
 <rdf:RDF xmlns:rdf="http://www.w3.org/1999/02/22-rdf-syntax-ns#" xmlns:crs="http://opengis.org/xmldtds/transformations.dtd" xmlns:svg="http://www.w3.org/svg" >
  <rdf:Description>
   <crs:CoordinateReferenceSystem rdf:resource="http://purl.org/crs/84" svg:transform="matrix(100.0,0.0,0.0,-100.0,0.0,0.0)" />
  </rdf:Description>
 </rdf:RDF>
</metadata>
<globalCoordinateSystem srsName="http://purl.org/crs/84" transform="matrix(100.0,0.0,0.0,-100.0,0.0,0.0)" />
<g >
<image xlink:href="tile0_8.png" preserveAspectRatio="none" x="13605.46875" y="-3603.515625" width="8.789062" height="8.789062"/>
<image xlink:href="tile0_7.png" preserveAspectRatio="none" x="13605.46875" y="-3612.304688" width="8.789062" height="8.789062"/>
<image xlink:href="tile0_6.png" preserveAspectRatio="none" x="13605.46875" y="-3621.09375" width="8.789062" height="8.789062"/>
<image xlink:href="tile0_5.png" preserveAspectRatio="none" x="13605.46875" y="-3629.882812" width="8.789062" height="8.789062"/>
<image xlink:href="tile1_8.png" preserveAspectRatio="none" x="13614.257812" y="-3603.515625" width="8.789062" height="8.789062"/>
<image xlink:href="tile1_7.png" preserveAspectRatio="none" x="13614.257812" y="-3612.304688" width="8.789062" height="8.789062"/>
<image xlink:href="tile1_6.png" preserveAspectRatio="none" x="13614.257812" y="-3621.09375" width="8.789062" height="8.789062"/>
<image xlink:href="tile1_5.png" preserveAspectRatio="none" x="13614.257812" y="-3629.882812" width="8.789062" height="8.789062"/>
<image xlink:href="tile2_8.png" preserveAspectRatio="none" x="13623.046875" y="-3603.515625" width="8.789062" height="8.789062"/>
<image xlink:href="tile2_7.png" preserveAspectRatio="none" x="13623.046875" y="-3612.304688" width="8.789062" height="8.789062"/>
<image xlink:href="tile2_6.png" preserveAspectRatio="none" x="13623.046875" y="-3621.09375" width="8.789062" height="8.789062"/>
<image xlink:href="tile2_5.png" preserveAspectRatio="none" x="13623.046875" y="-3629.882812" width="8.789062" height="8.789062"/>
<image xlink:href="tile2_4.png" preserveAspectRatio="none" x="13623.046875" y="-3638.671875" width="8.789062" height="8.789062"/>
<image xlink:href="tile3_8.png" preserveAspectRatio="none" x="13631.835938" y="-3603.515625" width="8.789062" height="8.789062"/>
<image xlink:href="tile3_7.png" preserveAspectRatio="none" x="13631.835938" y="-3612.304688" width="8.789062" height="8.789062"/>
<image xlink:href="tile3_5.png" preserveAspectRatio="none" x="13631.835938" y="-3629.882812" width="8.789062" height="8.789062"/>
<image xlink:href="tile3_4.png" preserveAspectRatio="none" x="13631.835938" y="-3638.671875" width="8.789062" height="8.789062"/>
<image xlink:href="tile4_8.png" preserveAspectRatio="none" x="13640.625" y="-3603.515625" width="8.789062" height="8.789062"/>
<image xlink:href="tile4_7.png" preserveAspectRatio="none" x="13640.625" y="-3612.304688" width="8.789062" height="8.789062"/>
<image xlink:href="tile4_4.png" preserveAspectRatio="none" x="13640.625" y="-3638.671875" width="8.789062" height="8.789062"/>
<image xlink:href="tile4_3.png" preserveAspectRatio="none" x="13640.625" y="-3647.460938" width="8.789062" height="8.789062"/>
<image xlink:href="tile4_2.png" preserveAspectRatio="none" x="13640.625" y="-3656.25" width="8.789062" height="8.789062"/>
<image xlink:href="tile5_8.png" preserveAspectRatio="none" x="13649.414062" y="-3603.515625" width="8.789062" height="8.789062"/>
<image xlink:href="tile5_7.png" preserveAspectRatio="none" x="13649.414062" y="-3612.304688" width="8.789062" height="8.789062"/>
<image xlink:href="tile5_3.png" preserveAspectRatio="none" x="13649.414062" y="-3647.460938" width="8.789062" height="8.789062"/>
<image xlink:href="tile5_2.png" preserveAspectRatio="none" x="13649.414062" y="-3656.25" width="8.789062" height="8.789062"/>
<image xlink:href="tile5_1.png" preserveAspectRatio="none" x="13649.414062" y="-3665.039062" width="8.789062" height="8.789062"/>
<image xlink:href="tile6_3.png" preserveAspectRatio="none" x="13658.203125" y="-3647.460938" width="8.789062" height="8.789062"/>
<image xlink:href="tile6_2.png" preserveAspectRatio="none" x="13658.203125" y="-3656.25" width="8.789062" height="8.789062"/>
<image xlink:href="tile6_1.png" preserveAspectRatio="none" x="13658.203125" y="-3665.039062" width="8.789062" height="8.789062"/>
<image xlink:href="tile6_0.png" preserveAspectRatio="none" x="13658.203125" y="-3673.828125" width="8.789062" height="8.789062"/>
<image xlink:href="tile7_2.png" preserveAspectRatio="none" x="13666.992188" y="-3656.25" width="8.789062" height="8.789062"/>
<image xlink:href="tile7_1.png" preserveAspectRatio="none" x="13666.992188" y="-3665.039062" width="8.789062" height="8.789062"/>
<image xlink:href="tile7_0.png" preserveAspectRatio="none" x="13666.992188" y="-3673.828125" width="8.789062" height="8.789062"/>
<image xlink:href="tile8_1.png" preserveAspectRatio="none" x="13675.78125" y="-3665.039062" width="8.789062" height="8.789062"/>
<image xlink:href="tile9_2.png" preserveAspectRatio="none" x="13684.570312" y="-3656.25" width="8.789062" height="8.789062"/>
<image xlink:href="tile9_1.png" preserveAspectRatio="none" x="13684.570312" y="-3665.039062" width="8.789062" height="8.789062"/>
<image xlink:href="tile9_0.png" preserveAspectRatio="none" x="13684.570312" y="-3673.828125" width="8.789062" height="8.789062"/>
<image xlink:href="tile10_2.png" preserveAspectRatio="none" x="13693.359375" y="-3656.25" width="8.789062" height="8.789062"/>
<image xlink:href="tile10_1.png" preserveAspectRatio="none" x="13693.359375" y="-3665.039062" width="8.789062" height="8.789062"/>
<image xlink:href="tile10_0.png" preserveAspectRatio="none" x="13693.359375" y="-3673.828125" width="8.789062" height="8.789062"/>
</g>
</svg>
