<?xml version="1.0" encoding="UTF-8"?>
<svg  xmlns="http://www.w3.org/2000/svg" xmlns:xlink="http://www.w3.org/1999/xlink" xmlns:go="http://purl.org/svgmap/profile" viewBox="14301.2188 -4448.825 98.7811999999991 48.825000000000074" go:dataArea="14301.2188 -4448.825 98.7811999999991 48.825000000000074" >
<metadata>
 <rdf:RDF xmlns:rdf="http://www.w3.org/1999/02/22-rdf-syntax-ns#" xmlns:crs="http://opengis.org/xmldtds/transformations.dtd" xmlns:svg="http://www.w3.org/svg" >
  <rdf:Description>
   <crs:CoordinateReferenceSystem rdf:resource="http://purl.org/crs/84" svg:transform="matrix(100.0,0.0,0.0,-100.0,0.0,0.0)" />
  </rdf:Description>
 </rdf:RDF>
</metadata>
<globalCoordinateSystem srsName="http://purl.org/crs/84" transform="matrix(100.0,0.0,0.0,-100.0,0.0,0.0)" />
<g >
<image xlink:href="tile0_1.png" preserveAspectRatio="none" x="14299.804688" y="-4447.265625" width="8.789062" height="8.789062"/>
<image xlink:href="tile1_1.png" preserveAspectRatio="none" x="14308.59375" y="-4447.265625" width="8.789062" height="8.789062"/>
<image xlink:href="tile1_0.png" preserveAspectRatio="none" x="14308.59375" y="-4456.054688" width="8.789062" height="8.789062"/>
<image xlink:href="tile2_3.png" preserveAspectRatio="none" x="14317.382812" y="-4429.6875" width="8.789062" height="8.789062"/>
<image xlink:href="tile2_2.png" preserveAspectRatio="none" x="14317.382812" y="-4438.476562" width="8.789062" height="8.789062"/>
<image xlink:href="tile3_3.png" preserveAspectRatio="none" x="14326.171875" y="-4429.6875" width="8.789062" height="8.789062"/>
<image xlink:href="tile3_2.png" preserveAspectRatio="none" x="14326.171875" y="-4438.476562" width="8.789062" height="8.789062"/>
<image xlink:href="tile3_1.png" preserveAspectRatio="none" x="14326.171875" y="-4447.265625" width="8.789062" height="8.789062"/>
<image xlink:href="tile5_6.png" preserveAspectRatio="none" x="14343.75" y="-4403.320312" width="8.789062" height="8.789062"/>
<image xlink:href="tile5_5.png" preserveAspectRatio="none" x="14343.75" y="-4412.109375" width="8.789062" height="8.789062"/>
<image xlink:href="tile6_6.png" preserveAspectRatio="none" x="14352.539062" y="-4403.320312" width="8.789062" height="8.789062"/>
<image xlink:href="tile6_5.png" preserveAspectRatio="none" x="14352.539062" y="-4412.109375" width="8.789062" height="8.789062"/>
<image xlink:href="tile6_4.png" preserveAspectRatio="none" x="14352.539062" y="-4420.898438" width="8.789062" height="8.789062"/>
<image xlink:href="tile6_3.png" preserveAspectRatio="none" x="14352.539062" y="-4429.6875" width="8.789062" height="8.789062"/>
<image xlink:href="tile7_6.png" preserveAspectRatio="none" x="14361.328125" y="-4403.320312" width="8.789062" height="8.789062"/>
<image xlink:href="tile7_5.png" preserveAspectRatio="none" x="14361.328125" y="-4412.109375" width="8.789062" height="8.789062"/>
<image xlink:href="tile7_4.png" preserveAspectRatio="none" x="14361.328125" y="-4420.898438" width="8.789062" height="8.789062"/>
<image xlink:href="tile7_3.png" preserveAspectRatio="none" x="14361.328125" y="-4429.6875" width="8.789062" height="8.789062"/>
<image xlink:href="tile8_6.png" preserveAspectRatio="none" x="14370.117188" y="-4403.320312" width="8.789062" height="8.789062"/>
<image xlink:href="tile8_4.png" preserveAspectRatio="none" x="14370.117188" y="-4420.898438" width="8.789062" height="8.789062"/>
<image xlink:href="tile9_6.png" preserveAspectRatio="none" x="14378.90625" y="-4403.320312" width="8.789062" height="8.789062"/>
<image xlink:href="tile10_6.png" preserveAspectRatio="none" x="14387.695312" y="-4403.320312" width="8.789062" height="8.789062"/>
<image xlink:href="tile10_5.png" preserveAspectRatio="none" x="14387.695312" y="-4412.109375" width="8.789062" height="8.789062"/>
<image xlink:href="tile11_6.png" preserveAspectRatio="none" x="14396.484375" y="-4403.320312" width="8.789062" height="8.789062"/>
<image xlink:href="tile11_5.png" preserveAspectRatio="none" x="14396.484375" y="-4412.109375" width="8.789062" height="8.789062"/>
<image xlink:href="tile11_4.png" preserveAspectRatio="none" x="14396.484375" y="-4420.898438" width="8.789062" height="8.789062"/>
</g>
</svg>
