<?xml version="1.0" encoding="UTF-8"?>
<svg  xmlns="http://www.w3.org/2000/svg" xmlns:xlink="http://www.w3.org/1999/xlink" xmlns:go="http://purl.org/svgmap/profile" viewBox="13900.0 -3724.1665758000004 100.0 57.499908800000554" go:dataArea="13900.0 -3724.1665758000004 100.0 57.499908800000554" >
<metadata>
 <rdf:RDF xmlns:rdf="http://www.w3.org/1999/02/22-rdf-syntax-ns#" xmlns:crs="http://opengis.org/xmldtds/transformations.dtd" xmlns:svg="http://www.w3.org/svg" >
  <rdf:Description>
   <crs:CoordinateReferenceSystem rdf:resource="http://purl.org/crs/84" svg:transform="matrix(100.0,0.0,0.0,-100.0,0.0,0.0)" />
  </rdf:Description>
 </rdf:RDF>
</metadata>
<globalCoordinateSystem srsName="http://purl.org/crs/84" transform="matrix(100.0,0.0,0.0,-100.0,0.0,0.0)" />
<g >
<image xlink:href="tile32_38.png" preserveAspectRatio="none" x="13935.058594" y="-3682.617188" width="1.098633" height="1.098633"/>
<image xlink:href="tile38_45.png" preserveAspectRatio="none" x="13941.650391" y="-3674.926758" width="1.098633" height="1.098633"/>
<image xlink:href="tile38_44.png" preserveAspectRatio="none" x="13941.650391" y="-3676.025391" width="1.098633" height="1.098633"/>
<image xlink:href="tile39_46.png" preserveAspectRatio="none" x="13942.749023" y="-3673.828125" width="1.098633" height="1.098633"/>
<image xlink:href="tile39_45.png" preserveAspectRatio="none" x="13942.749023" y="-3674.926758" width="1.098633" height="1.098633"/>
<image xlink:href="tile39_44.png" preserveAspectRatio="none" x="13942.749023" y="-3676.025391" width="1.098633" height="1.098633"/>
<image xlink:href="tile40_46.png" preserveAspectRatio="none" x="13943.847656" y="-3673.828125" width="1.098633" height="1.098633"/>
<image xlink:href="tile40_44.png" preserveAspectRatio="none" x="13943.847656" y="-3676.025391" width="1.098633" height="1.098633"/>
<image xlink:href="tile41_47.png" preserveAspectRatio="none" x="13944.946289" y="-3672.729492" width="1.098633" height="1.098633"/>
<image xlink:href="tile41_46.png" preserveAspectRatio="none" x="13944.946289" y="-3673.828125" width="1.098633" height="1.098633"/>
<image xlink:href="tile41_44.png" preserveAspectRatio="none" x="13944.946289" y="-3676.025391" width="1.098633" height="1.098633"/>
<image xlink:href="tile42_47.png" preserveAspectRatio="none" x="13946.044922" y="-3672.729492" width="1.098633" height="1.098633"/>
<image xlink:href="tile42_46.png" preserveAspectRatio="none" x="13946.044922" y="-3673.828125" width="1.098633" height="1.098633"/>
<image xlink:href="tile42_45.png" preserveAspectRatio="none" x="13946.044922" y="-3674.926758" width="1.098633" height="1.098633"/>
<image xlink:href="tile42_44.png" preserveAspectRatio="none" x="13946.044922" y="-3676.025391" width="1.098633" height="1.098633"/>
<image xlink:href="tile43_47.png" preserveAspectRatio="none" x="13947.143555" y="-3672.729492" width="1.098633" height="1.098633"/>
<image xlink:href="tile43_45.png" preserveAspectRatio="none" x="13947.143555" y="-3674.926758" width="1.098633" height="1.098633"/>
<image xlink:href="tile44_47.png" preserveAspectRatio="none" x="13948.242188" y="-3672.729492" width="1.098633" height="1.098633"/>
<image xlink:href="tile44_46.png" preserveAspectRatio="none" x="13948.242188" y="-3673.828125" width="1.098633" height="1.098633"/>
<image xlink:href="tile44_45.png" preserveAspectRatio="none" x="13948.242188" y="-3674.926758" width="1.098633" height="1.098633"/>
<image xlink:href="tile45_46.png" preserveAspectRatio="none" x="13949.34082" y="-3673.828125" width="1.098633" height="1.098633"/>
<image xlink:href="tile45_45.png" preserveAspectRatio="none" x="13949.34082" y="-3674.926758" width="1.098633" height="1.098633"/>
<image xlink:href="tile47_45.png" preserveAspectRatio="none" x="13951.538086" y="-3674.926758" width="1.098633" height="1.098633"/>
</g>
</svg>
