<?xml version="1.0" encoding="UTF-8"?>
<svg  xmlns="http://www.w3.org/2000/svg" xmlns:xlink="http://www.w3.org/1999/xlink" xmlns:go="http://purl.org/svgmap/profile" viewBox="13900.0 -3724.1665758000004 100.0 57.499908800000554" go:dataArea="13900.0 -3724.1665758000004 100.0 57.499908800000554" >
<metadata>
 <rdf:RDF xmlns:rdf="http://www.w3.org/1999/02/22-rdf-syntax-ns#" xmlns:crs="http://opengis.org/xmldtds/transformations.dtd" xmlns:svg="http://www.w3.org/svg" >
  <rdf:Description>
   <crs:CoordinateReferenceSystem rdf:resource="http://purl.org/crs/84" svg:transform="matrix(100.0,0.0,0.0,-100.0,0.0,0.0)" />
  </rdf:Description>
 </rdf:RDF>
</metadata>
<globalCoordinateSystem srsName="http://purl.org/crs/84" transform="matrix(100.0,0.0,0.0,-100.0,0.0,0.0)" />
<g >
<image xlink:href="tile0_34.png" preserveAspectRatio="none" x="13899.902344" y="-3687.011719" width="1.098633" height="1.098633"/>
<image xlink:href="tile0_25.png" preserveAspectRatio="none" x="13899.902344" y="-3696.899414" width="1.098633" height="1.098633"/>
<image xlink:href="tile1_35.png" preserveAspectRatio="none" x="13901.000977" y="-3685.913086" width="1.098633" height="1.098633"/>
<image xlink:href="tile1_34.png" preserveAspectRatio="none" x="13901.000977" y="-3687.011719" width="1.098633" height="1.098633"/>
<image xlink:href="tile1_26.png" preserveAspectRatio="none" x="13901.000977" y="-3695.800781" width="1.098633" height="1.098633"/>
<image xlink:href="tile1_25.png" preserveAspectRatio="none" x="13901.000977" y="-3696.899414" width="1.098633" height="1.098633"/>
<image xlink:href="tile2_35.png" preserveAspectRatio="none" x="13902.099609" y="-3685.913086" width="1.098633" height="1.098633"/>
<image xlink:href="tile2_34.png" preserveAspectRatio="none" x="13902.099609" y="-3687.011719" width="1.098633" height="1.098633"/>
<image xlink:href="tile2_26.png" preserveAspectRatio="none" x="13902.099609" y="-3695.800781" width="1.098633" height="1.098633"/>
<image xlink:href="tile3_35.png" preserveAspectRatio="none" x="13903.198242" y="-3685.913086" width="1.098633" height="1.098633"/>
<image xlink:href="tile3_34.png" preserveAspectRatio="none" x="13903.198242" y="-3687.011719" width="1.098633" height="1.098633"/>
<image xlink:href="tile3_31.png" preserveAspectRatio="none" x="13903.198242" y="-3690.307617" width="1.098633" height="1.098633"/>
<image xlink:href="tile3_30.png" preserveAspectRatio="none" x="13903.198242" y="-3691.40625" width="1.098633" height="1.098633"/>
<image xlink:href="tile4_36.png" preserveAspectRatio="none" x="13904.296875" y="-3684.814453" width="1.098633" height="1.098633"/>
<image xlink:href="tile4_35.png" preserveAspectRatio="none" x="13904.296875" y="-3685.913086" width="1.098633" height="1.098633"/>
<image xlink:href="tile4_31.png" preserveAspectRatio="none" x="13904.296875" y="-3690.307617" width="1.098633" height="1.098633"/>
<image xlink:href="tile4_30.png" preserveAspectRatio="none" x="13904.296875" y="-3691.40625" width="1.098633" height="1.098633"/>
<image xlink:href="tile5_35.png" preserveAspectRatio="none" x="13905.395508" y="-3685.913086" width="1.098633" height="1.098633"/>
<image xlink:href="tile5_34.png" preserveAspectRatio="none" x="13905.395508" y="-3687.011719" width="1.098633" height="1.098633"/>
<image xlink:href="tile5_30.png" preserveAspectRatio="none" x="13905.395508" y="-3691.40625" width="1.098633" height="1.098633"/>
<image xlink:href="tile6_33.png" preserveAspectRatio="none" x="13906.494141" y="-3688.110352" width="1.098633" height="1.098633"/>
<image xlink:href="tile7_33.png" preserveAspectRatio="none" x="13907.592773" y="-3688.110352" width="1.098633" height="1.098633"/>
<image xlink:href="tile8_34.png" preserveAspectRatio="none" x="13908.691406" y="-3687.011719" width="1.098633" height="1.098633"/>
<image xlink:href="tile8_33.png" preserveAspectRatio="none" x="13908.691406" y="-3688.110352" width="1.098633" height="1.098633"/>
<image xlink:href="tile9_35.png" preserveAspectRatio="none" x="13909.790039" y="-3685.913086" width="1.098633" height="1.098633"/>
<image xlink:href="tile9_34.png" preserveAspectRatio="none" x="13909.790039" y="-3687.011719" width="1.098633" height="1.098633"/>
<image xlink:href="tile9_24.png" preserveAspectRatio="none" x="13909.790039" y="-3697.998047" width="1.098633" height="1.098633"/>
<image xlink:href="tile10_31.png" preserveAspectRatio="none" x="13910.888672" y="-3690.307617" width="1.098633" height="1.098633"/>
<image xlink:href="tile10_30.png" preserveAspectRatio="none" x="13910.888672" y="-3691.40625" width="1.098633" height="1.098633"/>
<image xlink:href="tile10_24.png" preserveAspectRatio="none" x="13910.888672" y="-3697.998047" width="1.098633" height="1.098633"/>
<image xlink:href="tile10_23.png" preserveAspectRatio="none" x="13910.888672" y="-3699.09668" width="1.098633" height="1.098633"/>
<image xlink:href="tile10_22.png" preserveAspectRatio="none" x="13910.888672" y="-3700.195312" width="1.098633" height="1.098633"/>
<image xlink:href="tile10_21.png" preserveAspectRatio="none" x="13910.888672" y="-3701.293945" width="1.098633" height="1.098633"/>
<image xlink:href="tile11_31.png" preserveAspectRatio="none" x="13911.987305" y="-3690.307617" width="1.098633" height="1.098633"/>
<image xlink:href="tile11_30.png" preserveAspectRatio="none" x="13911.987305" y="-3691.40625" width="1.098633" height="1.098633"/>
<image xlink:href="tile11_22.png" preserveAspectRatio="none" x="13911.987305" y="-3700.195312" width="1.098633" height="1.098633"/>
<image xlink:href="tile11_21.png" preserveAspectRatio="none" x="13911.987305" y="-3701.293945" width="1.098633" height="1.098633"/>
<image xlink:href="tile12_30.png" preserveAspectRatio="none" x="13913.085938" y="-3691.40625" width="1.098633" height="1.098633"/>
<image xlink:href="tile12_29.png" preserveAspectRatio="none" x="13913.085938" y="-3692.504883" width="1.098633" height="1.098633"/>
<image xlink:href="tile13_29.png" preserveAspectRatio="none" x="13914.18457" y="-3692.504883" width="1.098633" height="1.098633"/>
<image xlink:href="tile15_34.png" preserveAspectRatio="none" x="13916.381836" y="-3687.011719" width="1.098633" height="1.098633"/>
<image xlink:href="tile15_33.png" preserveAspectRatio="none" x="13916.381836" y="-3688.110352" width="1.098633" height="1.098633"/>
</g>
</svg>
