<?xml version="1.0" encoding="UTF-8"?>
<svg  xmlns="http://www.w3.org/2000/svg" xmlns:xlink="http://www.w3.org/1999/xlink" xmlns:go="http://purl.org/svgmap/profile" viewBox="13600.0 -3533.3333333 100.0 66.6666665000001" go:dataArea="13600.0 -3533.3333333 100.0 66.6666665000001" >
<metadata>
 <rdf:RDF xmlns:rdf="http://www.w3.org/1999/02/22-rdf-syntax-ns#" xmlns:crs="http://opengis.org/xmldtds/transformations.dtd" xmlns:svg="http://www.w3.org/svg" >
  <rdf:Description>
   <crs:CoordinateReferenceSystem rdf:resource="http://purl.org/crs/84" svg:transform="matrix(100.0,0.0,0.0,-100.0,0.0,0.0)" />
  </rdf:Description>
 </rdf:RDF>
</metadata>
<globalCoordinateSystem srsName="http://purl.org/crs/84" transform="matrix(100.0,0.0,0.0,-100.0,0.0,0.0)" />
<g >
<image xlink:href="tile32_15.png" preserveAspectRatio="none" x="13669.189453" y="-3502.441406" width="2.197266" height="2.197266"/>
<image xlink:href="tile32_14.png" preserveAspectRatio="none" x="13669.189453" y="-3504.638672" width="2.197266" height="2.197266"/>
<image xlink:href="tile32_13.png" preserveAspectRatio="none" x="13669.189453" y="-3506.835938" width="2.197266" height="2.197266"/>
<image xlink:href="tile32_12.png" preserveAspectRatio="none" x="13669.189453" y="-3509.033203" width="2.197266" height="2.197266"/>
<image xlink:href="tile32_11.png" preserveAspectRatio="none" x="13669.189453" y="-3511.230469" width="2.197266" height="2.197266"/>
<image xlink:href="tile32_10.png" preserveAspectRatio="none" x="13669.189453" y="-3513.427734" width="2.197266" height="2.197266"/>
<image xlink:href="tile32_9.png" preserveAspectRatio="none" x="13669.189453" y="-3515.625" width="2.197266" height="2.197266"/>
<image xlink:href="tile32_8.png" preserveAspectRatio="none" x="13669.189453" y="-3517.822266" width="2.197266" height="2.197266"/>
<image xlink:href="tile32_7.png" preserveAspectRatio="none" x="13669.189453" y="-3520.019531" width="2.197266" height="2.197266"/>
<image xlink:href="tile32_6.png" preserveAspectRatio="none" x="13669.189453" y="-3522.216797" width="2.197266" height="2.197266"/>
<image xlink:href="tile32_5.png" preserveAspectRatio="none" x="13669.189453" y="-3524.414062" width="2.197266" height="2.197266"/>
<image xlink:href="tile32_4.png" preserveAspectRatio="none" x="13669.189453" y="-3526.611328" width="2.197266" height="2.197266"/>
<image xlink:href="tile32_3.png" preserveAspectRatio="none" x="13669.189453" y="-3528.808594" width="2.197266" height="2.197266"/>
<image xlink:href="tile32_2.png" preserveAspectRatio="none" x="13669.189453" y="-3531.005859" width="2.197266" height="2.197266"/>
<image xlink:href="tile32_1.png" preserveAspectRatio="none" x="13669.189453" y="-3533.203125" width="2.197266" height="2.197266"/>
<image xlink:href="tile32_0.png" preserveAspectRatio="none" x="13669.189453" y="-3535.400391" width="2.197266" height="2.197266"/>
<image xlink:href="tile33_14.png" preserveAspectRatio="none" x="13671.386719" y="-3504.638672" width="2.197266" height="2.197266"/>
<image xlink:href="tile33_13.png" preserveAspectRatio="none" x="13671.386719" y="-3506.835938" width="2.197266" height="2.197266"/>
<image xlink:href="tile33_12.png" preserveAspectRatio="none" x="13671.386719" y="-3509.033203" width="2.197266" height="2.197266"/>
<image xlink:href="tile33_11.png" preserveAspectRatio="none" x="13671.386719" y="-3511.230469" width="2.197266" height="2.197266"/>
<image xlink:href="tile33_10.png" preserveAspectRatio="none" x="13671.386719" y="-3513.427734" width="2.197266" height="2.197266"/>
<image xlink:href="tile33_9.png" preserveAspectRatio="none" x="13671.386719" y="-3515.625" width="2.197266" height="2.197266"/>
<image xlink:href="tile33_8.png" preserveAspectRatio="none" x="13671.386719" y="-3517.822266" width="2.197266" height="2.197266"/>
<image xlink:href="tile33_7.png" preserveAspectRatio="none" x="13671.386719" y="-3520.019531" width="2.197266" height="2.197266"/>
<image xlink:href="tile33_6.png" preserveAspectRatio="none" x="13671.386719" y="-3522.216797" width="2.197266" height="2.197266"/>
<image xlink:href="tile33_5.png" preserveAspectRatio="none" x="13671.386719" y="-3524.414062" width="2.197266" height="2.197266"/>
<image xlink:href="tile33_4.png" preserveAspectRatio="none" x="13671.386719" y="-3526.611328" width="2.197266" height="2.197266"/>
<image xlink:href="tile33_3.png" preserveAspectRatio="none" x="13671.386719" y="-3528.808594" width="2.197266" height="2.197266"/>
<image xlink:href="tile33_2.png" preserveAspectRatio="none" x="13671.386719" y="-3531.005859" width="2.197266" height="2.197266"/>
<image xlink:href="tile33_1.png" preserveAspectRatio="none" x="13671.386719" y="-3533.203125" width="2.197266" height="2.197266"/>
<image xlink:href="tile33_0.png" preserveAspectRatio="none" x="13671.386719" y="-3535.400391" width="2.197266" height="2.197266"/>
<image xlink:href="tile34_14.png" preserveAspectRatio="none" x="13673.583984" y="-3504.638672" width="2.197266" height="2.197266"/>
<image xlink:href="tile34_13.png" preserveAspectRatio="none" x="13673.583984" y="-3506.835938" width="2.197266" height="2.197266"/>
<image xlink:href="tile34_12.png" preserveAspectRatio="none" x="13673.583984" y="-3509.033203" width="2.197266" height="2.197266"/>
<image xlink:href="tile34_11.png" preserveAspectRatio="none" x="13673.583984" y="-3511.230469" width="2.197266" height="2.197266"/>
<image xlink:href="tile34_10.png" preserveAspectRatio="none" x="13673.583984" y="-3513.427734" width="2.197266" height="2.197266"/>
<image xlink:href="tile34_9.png" preserveAspectRatio="none" x="13673.583984" y="-3515.625" width="2.197266" height="2.197266"/>
<image xlink:href="tile34_8.png" preserveAspectRatio="none" x="13673.583984" y="-3517.822266" width="2.197266" height="2.197266"/>
<image xlink:href="tile34_7.png" preserveAspectRatio="none" x="13673.583984" y="-3520.019531" width="2.197266" height="2.197266"/>
<image xlink:href="tile34_6.png" preserveAspectRatio="none" x="13673.583984" y="-3522.216797" width="2.197266" height="2.197266"/>
<image xlink:href="tile34_5.png" preserveAspectRatio="none" x="13673.583984" y="-3524.414062" width="2.197266" height="2.197266"/>
<image xlink:href="tile34_4.png" preserveAspectRatio="none" x="13673.583984" y="-3526.611328" width="2.197266" height="2.197266"/>
<image xlink:href="tile34_3.png" preserveAspectRatio="none" x="13673.583984" y="-3528.808594" width="2.197266" height="2.197266"/>
<image xlink:href="tile34_2.png" preserveAspectRatio="none" x="13673.583984" y="-3531.005859" width="2.197266" height="2.197266"/>
<image xlink:href="tile34_1.png" preserveAspectRatio="none" x="13673.583984" y="-3533.203125" width="2.197266" height="2.197266"/>
<image xlink:href="tile34_0.png" preserveAspectRatio="none" x="13673.583984" y="-3535.400391" width="2.197266" height="2.197266"/>
<image xlink:href="tile35_14.png" preserveAspectRatio="none" x="13675.78125" y="-3504.638672" width="2.197266" height="2.197266"/>
<image xlink:href="tile35_13.png" preserveAspectRatio="none" x="13675.78125" y="-3506.835938" width="2.197266" height="2.197266"/>
<image xlink:href="tile35_12.png" preserveAspectRatio="none" x="13675.78125" y="-3509.033203" width="2.197266" height="2.197266"/>
<image xlink:href="tile35_11.png" preserveAspectRatio="none" x="13675.78125" y="-3511.230469" width="2.197266" height="2.197266"/>
<image xlink:href="tile35_10.png" preserveAspectRatio="none" x="13675.78125" y="-3513.427734" width="2.197266" height="2.197266"/>
<image xlink:href="tile35_9.png" preserveAspectRatio="none" x="13675.78125" y="-3515.625" width="2.197266" height="2.197266"/>
<image xlink:href="tile35_8.png" preserveAspectRatio="none" x="13675.78125" y="-3517.822266" width="2.197266" height="2.197266"/>
<image xlink:href="tile35_7.png" preserveAspectRatio="none" x="13675.78125" y="-3520.019531" width="2.197266" height="2.197266"/>
<image xlink:href="tile35_6.png" preserveAspectRatio="none" x="13675.78125" y="-3522.216797" width="2.197266" height="2.197266"/>
<image xlink:href="tile35_5.png" preserveAspectRatio="none" x="13675.78125" y="-3524.414062" width="2.197266" height="2.197266"/>
<image xlink:href="tile35_4.png" preserveAspectRatio="none" x="13675.78125" y="-3526.611328" width="2.197266" height="2.197266"/>
<image xlink:href="tile35_3.png" preserveAspectRatio="none" x="13675.78125" y="-3528.808594" width="2.197266" height="2.197266"/>
<image xlink:href="tile35_2.png" preserveAspectRatio="none" x="13675.78125" y="-3531.005859" width="2.197266" height="2.197266"/>
<image xlink:href="tile35_1.png" preserveAspectRatio="none" x="13675.78125" y="-3533.203125" width="2.197266" height="2.197266"/>
<image xlink:href="tile35_0.png" preserveAspectRatio="none" x="13675.78125" y="-3535.400391" width="2.197266" height="2.197266"/>
<image xlink:href="tile36_14.png" preserveAspectRatio="none" x="13677.978516" y="-3504.638672" width="2.197266" height="2.197266"/>
<image xlink:href="tile36_13.png" preserveAspectRatio="none" x="13677.978516" y="-3506.835938" width="2.197266" height="2.197266"/>
<image xlink:href="tile36_12.png" preserveAspectRatio="none" x="13677.978516" y="-3509.033203" width="2.197266" height="2.197266"/>
<image xlink:href="tile36_11.png" preserveAspectRatio="none" x="13677.978516" y="-3511.230469" width="2.197266" height="2.197266"/>
<image xlink:href="tile36_10.png" preserveAspectRatio="none" x="13677.978516" y="-3513.427734" width="2.197266" height="2.197266"/>
<image xlink:href="tile36_9.png" preserveAspectRatio="none" x="13677.978516" y="-3515.625" width="2.197266" height="2.197266"/>
<image xlink:href="tile36_8.png" preserveAspectRatio="none" x="13677.978516" y="-3517.822266" width="2.197266" height="2.197266"/>
<image xlink:href="tile36_7.png" preserveAspectRatio="none" x="13677.978516" y="-3520.019531" width="2.197266" height="2.197266"/>
<image xlink:href="tile36_6.png" preserveAspectRatio="none" x="13677.978516" y="-3522.216797" width="2.197266" height="2.197266"/>
<image xlink:href="tile36_5.png" preserveAspectRatio="none" x="13677.978516" y="-3524.414062" width="2.197266" height="2.197266"/>
<image xlink:href="tile36_4.png" preserveAspectRatio="none" x="13677.978516" y="-3526.611328" width="2.197266" height="2.197266"/>
<image xlink:href="tile36_3.png" preserveAspectRatio="none" x="13677.978516" y="-3528.808594" width="2.197266" height="2.197266"/>
<image xlink:href="tile36_2.png" preserveAspectRatio="none" x="13677.978516" y="-3531.005859" width="2.197266" height="2.197266"/>
<image xlink:href="tile36_1.png" preserveAspectRatio="none" x="13677.978516" y="-3533.203125" width="2.197266" height="2.197266"/>
<image xlink:href="tile36_0.png" preserveAspectRatio="none" x="13677.978516" y="-3535.400391" width="2.197266" height="2.197266"/>
<image xlink:href="tile37_13.png" preserveAspectRatio="none" x="13680.175781" y="-3506.835938" width="2.197266" height="2.197266"/>
<image xlink:href="tile37_12.png" preserveAspectRatio="none" x="13680.175781" y="-3509.033203" width="2.197266" height="2.197266"/>
<image xlink:href="tile37_11.png" preserveAspectRatio="none" x="13680.175781" y="-3511.230469" width="2.197266" height="2.197266"/>
<image xlink:href="tile37_10.png" preserveAspectRatio="none" x="13680.175781" y="-3513.427734" width="2.197266" height="2.197266"/>
<image xlink:href="tile37_9.png" preserveAspectRatio="none" x="13680.175781" y="-3515.625" width="2.197266" height="2.197266"/>
<image xlink:href="tile37_8.png" preserveAspectRatio="none" x="13680.175781" y="-3517.822266" width="2.197266" height="2.197266"/>
<image xlink:href="tile37_7.png" preserveAspectRatio="none" x="13680.175781" y="-3520.019531" width="2.197266" height="2.197266"/>
<image xlink:href="tile37_6.png" preserveAspectRatio="none" x="13680.175781" y="-3522.216797" width="2.197266" height="2.197266"/>
<image xlink:href="tile37_5.png" preserveAspectRatio="none" x="13680.175781" y="-3524.414062" width="2.197266" height="2.197266"/>
<image xlink:href="tile37_4.png" preserveAspectRatio="none" x="13680.175781" y="-3526.611328" width="2.197266" height="2.197266"/>
<image xlink:href="tile37_3.png" preserveAspectRatio="none" x="13680.175781" y="-3528.808594" width="2.197266" height="2.197266"/>
<image xlink:href="tile37_2.png" preserveAspectRatio="none" x="13680.175781" y="-3531.005859" width="2.197266" height="2.197266"/>
<image xlink:href="tile37_1.png" preserveAspectRatio="none" x="13680.175781" y="-3533.203125" width="2.197266" height="2.197266"/>
<image xlink:href="tile37_0.png" preserveAspectRatio="none" x="13680.175781" y="-3535.400391" width="2.197266" height="2.197266"/>
<image xlink:href="tile38_12.png" preserveAspectRatio="none" x="13682.373047" y="-3509.033203" width="2.197266" height="2.197266"/>
<image xlink:href="tile38_11.png" preserveAspectRatio="none" x="13682.373047" y="-3511.230469" width="2.197266" height="2.197266"/>
<image xlink:href="tile38_10.png" preserveAspectRatio="none" x="13682.373047" y="-3513.427734" width="2.197266" height="2.197266"/>
<image xlink:href="tile38_9.png" preserveAspectRatio="none" x="13682.373047" y="-3515.625" width="2.197266" height="2.197266"/>
<image xlink:href="tile38_8.png" preserveAspectRatio="none" x="13682.373047" y="-3517.822266" width="2.197266" height="2.197266"/>
<image xlink:href="tile38_7.png" preserveAspectRatio="none" x="13682.373047" y="-3520.019531" width="2.197266" height="2.197266"/>
<image xlink:href="tile38_6.png" preserveAspectRatio="none" x="13682.373047" y="-3522.216797" width="2.197266" height="2.197266"/>
<image xlink:href="tile38_5.png" preserveAspectRatio="none" x="13682.373047" y="-3524.414062" width="2.197266" height="2.197266"/>
<image xlink:href="tile38_4.png" preserveAspectRatio="none" x="13682.373047" y="-3526.611328" width="2.197266" height="2.197266"/>
<image xlink:href="tile38_3.png" preserveAspectRatio="none" x="13682.373047" y="-3528.808594" width="2.197266" height="2.197266"/>
<image xlink:href="tile38_2.png" preserveAspectRatio="none" x="13682.373047" y="-3531.005859" width="2.197266" height="2.197266"/>
<image xlink:href="tile38_1.png" preserveAspectRatio="none" x="13682.373047" y="-3533.203125" width="2.197266" height="2.197266"/>
<image xlink:href="tile38_0.png" preserveAspectRatio="none" x="13682.373047" y="-3535.400391" width="2.197266" height="2.197266"/>
<image xlink:href="tile39_12.png" preserveAspectRatio="none" x="13684.570312" y="-3509.033203" width="2.197266" height="2.197266"/>
<image xlink:href="tile39_11.png" preserveAspectRatio="none" x="13684.570312" y="-3511.230469" width="2.197266" height="2.197266"/>
<image xlink:href="tile39_10.png" preserveAspectRatio="none" x="13684.570312" y="-3513.427734" width="2.197266" height="2.197266"/>
<image xlink:href="tile39_9.png" preserveAspectRatio="none" x="13684.570312" y="-3515.625" width="2.197266" height="2.197266"/>
<image xlink:href="tile39_8.png" preserveAspectRatio="none" x="13684.570312" y="-3517.822266" width="2.197266" height="2.197266"/>
<image xlink:href="tile39_7.png" preserveAspectRatio="none" x="13684.570312" y="-3520.019531" width="2.197266" height="2.197266"/>
<image xlink:href="tile39_6.png" preserveAspectRatio="none" x="13684.570312" y="-3522.216797" width="2.197266" height="2.197266"/>
<image xlink:href="tile39_5.png" preserveAspectRatio="none" x="13684.570312" y="-3524.414062" width="2.197266" height="2.197266"/>
<image xlink:href="tile39_4.png" preserveAspectRatio="none" x="13684.570312" y="-3526.611328" width="2.197266" height="2.197266"/>
<image xlink:href="tile39_3.png" preserveAspectRatio="none" x="13684.570312" y="-3528.808594" width="2.197266" height="2.197266"/>
<image xlink:href="tile39_2.png" preserveAspectRatio="none" x="13684.570312" y="-3531.005859" width="2.197266" height="2.197266"/>
<image xlink:href="tile39_1.png" preserveAspectRatio="none" x="13684.570312" y="-3533.203125" width="2.197266" height="2.197266"/>
<image xlink:href="tile39_0.png" preserveAspectRatio="none" x="13684.570312" y="-3535.400391" width="2.197266" height="2.197266"/>
<image xlink:href="tile40_11.png" preserveAspectRatio="none" x="13686.767578" y="-3511.230469" width="2.197266" height="2.197266"/>
<image xlink:href="tile40_10.png" preserveAspectRatio="none" x="13686.767578" y="-3513.427734" width="2.197266" height="2.197266"/>
<image xlink:href="tile40_9.png" preserveAspectRatio="none" x="13686.767578" y="-3515.625" width="2.197266" height="2.197266"/>
<image xlink:href="tile40_8.png" preserveAspectRatio="none" x="13686.767578" y="-3517.822266" width="2.197266" height="2.197266"/>
<image xlink:href="tile40_7.png" preserveAspectRatio="none" x="13686.767578" y="-3520.019531" width="2.197266" height="2.197266"/>
<image xlink:href="tile40_6.png" preserveAspectRatio="none" x="13686.767578" y="-3522.216797" width="2.197266" height="2.197266"/>
<image xlink:href="tile40_5.png" preserveAspectRatio="none" x="13686.767578" y="-3524.414062" width="2.197266" height="2.197266"/>
<image xlink:href="tile40_4.png" preserveAspectRatio="none" x="13686.767578" y="-3526.611328" width="2.197266" height="2.197266"/>
<image xlink:href="tile40_3.png" preserveAspectRatio="none" x="13686.767578" y="-3528.808594" width="2.197266" height="2.197266"/>
<image xlink:href="tile40_2.png" preserveAspectRatio="none" x="13686.767578" y="-3531.005859" width="2.197266" height="2.197266"/>
<image xlink:href="tile40_1.png" preserveAspectRatio="none" x="13686.767578" y="-3533.203125" width="2.197266" height="2.197266"/>
<image xlink:href="tile40_0.png" preserveAspectRatio="none" x="13686.767578" y="-3535.400391" width="2.197266" height="2.197266"/>
<image xlink:href="tile41_12.png" preserveAspectRatio="none" x="13688.964844" y="-3509.033203" width="2.197266" height="2.197266"/>
<image xlink:href="tile41_11.png" preserveAspectRatio="none" x="13688.964844" y="-3511.230469" width="2.197266" height="2.197266"/>
<image xlink:href="tile41_10.png" preserveAspectRatio="none" x="13688.964844" y="-3513.427734" width="2.197266" height="2.197266"/>
<image xlink:href="tile41_9.png" preserveAspectRatio="none" x="13688.964844" y="-3515.625" width="2.197266" height="2.197266"/>
<image xlink:href="tile41_8.png" preserveAspectRatio="none" x="13688.964844" y="-3517.822266" width="2.197266" height="2.197266"/>
<image xlink:href="tile41_7.png" preserveAspectRatio="none" x="13688.964844" y="-3520.019531" width="2.197266" height="2.197266"/>
<image xlink:href="tile41_6.png" preserveAspectRatio="none" x="13688.964844" y="-3522.216797" width="2.197266" height="2.197266"/>
<image xlink:href="tile41_5.png" preserveAspectRatio="none" x="13688.964844" y="-3524.414062" width="2.197266" height="2.197266"/>
<image xlink:href="tile41_4.png" preserveAspectRatio="none" x="13688.964844" y="-3526.611328" width="2.197266" height="2.197266"/>
<image xlink:href="tile41_3.png" preserveAspectRatio="none" x="13688.964844" y="-3528.808594" width="2.197266" height="2.197266"/>
<image xlink:href="tile41_2.png" preserveAspectRatio="none" x="13688.964844" y="-3531.005859" width="2.197266" height="2.197266"/>
<image xlink:href="tile41_1.png" preserveAspectRatio="none" x="13688.964844" y="-3533.203125" width="2.197266" height="2.197266"/>
<image xlink:href="tile41_0.png" preserveAspectRatio="none" x="13688.964844" y="-3535.400391" width="2.197266" height="2.197266"/>
<image xlink:href="tile42_12.png" preserveAspectRatio="none" x="13691.162109" y="-3509.033203" width="2.197266" height="2.197266"/>
<image xlink:href="tile42_11.png" preserveAspectRatio="none" x="13691.162109" y="-3511.230469" width="2.197266" height="2.197266"/>
<image xlink:href="tile42_10.png" preserveAspectRatio="none" x="13691.162109" y="-3513.427734" width="2.197266" height="2.197266"/>
<image xlink:href="tile42_7.png" preserveAspectRatio="none" x="13691.162109" y="-3520.019531" width="2.197266" height="2.197266"/>
<image xlink:href="tile42_6.png" preserveAspectRatio="none" x="13691.162109" y="-3522.216797" width="2.197266" height="2.197266"/>
<image xlink:href="tile42_5.png" preserveAspectRatio="none" x="13691.162109" y="-3524.414062" width="2.197266" height="2.197266"/>
<image xlink:href="tile42_4.png" preserveAspectRatio="none" x="13691.162109" y="-3526.611328" width="2.197266" height="2.197266"/>
<image xlink:href="tile42_3.png" preserveAspectRatio="none" x="13691.162109" y="-3528.808594" width="2.197266" height="2.197266"/>
<image xlink:href="tile43_13.png" preserveAspectRatio="none" x="13693.359375" y="-3506.835938" width="2.197266" height="2.197266"/>
<image xlink:href="tile43_12.png" preserveAspectRatio="none" x="13693.359375" y="-3509.033203" width="2.197266" height="2.197266"/>
<image xlink:href="tile43_11.png" preserveAspectRatio="none" x="13693.359375" y="-3511.230469" width="2.197266" height="2.197266"/>
<image xlink:href="tile43_10.png" preserveAspectRatio="none" x="13693.359375" y="-3513.427734" width="2.197266" height="2.197266"/>
<image xlink:href="tile43_7.png" preserveAspectRatio="none" x="13693.359375" y="-3520.019531" width="2.197266" height="2.197266"/>
<image xlink:href="tile43_6.png" preserveAspectRatio="none" x="13693.359375" y="-3522.216797" width="2.197266" height="2.197266"/>
<image xlink:href="tile43_5.png" preserveAspectRatio="none" x="13693.359375" y="-3524.414062" width="2.197266" height="2.197266"/>
<image xlink:href="tile43_4.png" preserveAspectRatio="none" x="13693.359375" y="-3526.611328" width="2.197266" height="2.197266"/>
<image xlink:href="tile43_3.png" preserveAspectRatio="none" x="13693.359375" y="-3528.808594" width="2.197266" height="2.197266"/>
<image xlink:href="tile44_12.png" preserveAspectRatio="none" x="13695.556641" y="-3509.033203" width="2.197266" height="2.197266"/>
<image xlink:href="tile44_11.png" preserveAspectRatio="none" x="13695.556641" y="-3511.230469" width="2.197266" height="2.197266"/>
<image xlink:href="tile44_10.png" preserveAspectRatio="none" x="13695.556641" y="-3513.427734" width="2.197266" height="2.197266"/>
<image xlink:href="tile44_7.png" preserveAspectRatio="none" x="13695.556641" y="-3520.019531" width="2.197266" height="2.197266"/>
<image xlink:href="tile44_6.png" preserveAspectRatio="none" x="13695.556641" y="-3522.216797" width="2.197266" height="2.197266"/>
<image xlink:href="tile44_5.png" preserveAspectRatio="none" x="13695.556641" y="-3524.414062" width="2.197266" height="2.197266"/>
<image xlink:href="tile44_4.png" preserveAspectRatio="none" x="13695.556641" y="-3526.611328" width="2.197266" height="2.197266"/>
<image xlink:href="tile44_3.png" preserveAspectRatio="none" x="13695.556641" y="-3528.808594" width="2.197266" height="2.197266"/>
<image xlink:href="tile45_10.png" preserveAspectRatio="none" x="13697.753906" y="-3513.427734" width="2.197266" height="2.197266"/>
<image xlink:href="tile45_9.png" preserveAspectRatio="none" x="13697.753906" y="-3515.625" width="2.197266" height="2.197266"/>
<image xlink:href="tile45_7.png" preserveAspectRatio="none" x="13697.753906" y="-3520.019531" width="2.197266" height="2.197266"/>
<image xlink:href="tile45_6.png" preserveAspectRatio="none" x="13697.753906" y="-3522.216797" width="2.197266" height="2.197266"/>
<image xlink:href="tile45_5.png" preserveAspectRatio="none" x="13697.753906" y="-3524.414062" width="2.197266" height="2.197266"/>
<image xlink:href="tile45_4.png" preserveAspectRatio="none" x="13697.753906" y="-3526.611328" width="2.197266" height="2.197266"/>
<image xlink:href="tile45_3.png" preserveAspectRatio="none" x="13697.753906" y="-3528.808594" width="2.197266" height="2.197266"/>
<image xlink:href="tile45_2.png" preserveAspectRatio="none" x="13697.753906" y="-3531.005859" width="2.197266" height="2.197266"/>
<image xlink:href="tile46_10.png" preserveAspectRatio="none" x="13699.951172" y="-3513.427734" width="2.197266" height="2.197266"/>
<image xlink:href="tile46_7.png" preserveAspectRatio="none" x="13699.951172" y="-3520.019531" width="2.197266" height="2.197266"/>
<image xlink:href="tile46_6.png" preserveAspectRatio="none" x="13699.951172" y="-3522.216797" width="2.197266" height="2.197266"/>
<image xlink:href="tile46_5.png" preserveAspectRatio="none" x="13699.951172" y="-3524.414062" width="2.197266" height="2.197266"/>
<image xlink:href="tile46_4.png" preserveAspectRatio="none" x="13699.951172" y="-3526.611328" width="2.197266" height="2.197266"/>
</g>
</svg>
