<?xml version="1.0" encoding="UTF-8"?>
<svg  xmlns="http://www.w3.org/2000/svg" xmlns:xlink="http://www.w3.org/1999/xlink" xmlns:go="http://purl.org/svgmap/profile" viewBox="13600.0 -3533.3333333 100.0 66.6666665000001" go:dataArea="13600.0 -3533.3333333 100.0 66.6666665000001" >
<metadata>
 <rdf:RDF xmlns:rdf="http://www.w3.org/1999/02/22-rdf-syntax-ns#" xmlns:crs="http://opengis.org/xmldtds/transformations.dtd" xmlns:svg="http://www.w3.org/svg" >
  <rdf:Description>
   <crs:CoordinateReferenceSystem rdf:resource="http://purl.org/crs/84" svg:transform="matrix(100.0,0.0,0.0,-100.0,0.0,0.0)" />
  </rdf:Description>
 </rdf:RDF>
</metadata>
<globalCoordinateSystem srsName="http://purl.org/crs/84" transform="matrix(100.0,0.0,0.0,-100.0,0.0,0.0)" />
<g >
<image xlink:href="tile0_15.png" preserveAspectRatio="none" x="13598.876953" y="-3502.441406" width="2.197266" height="2.197266"/>
<image xlink:href="tile0_14.png" preserveAspectRatio="none" x="13598.876953" y="-3504.638672" width="2.197266" height="2.197266"/>
<image xlink:href="tile0_13.png" preserveAspectRatio="none" x="13598.876953" y="-3506.835938" width="2.197266" height="2.197266"/>
<image xlink:href="tile0_12.png" preserveAspectRatio="none" x="13598.876953" y="-3509.033203" width="2.197266" height="2.197266"/>
<image xlink:href="tile0_11.png" preserveAspectRatio="none" x="13598.876953" y="-3511.230469" width="2.197266" height="2.197266"/>
<image xlink:href="tile0_10.png" preserveAspectRatio="none" x="13598.876953" y="-3513.427734" width="2.197266" height="2.197266"/>
<image xlink:href="tile0_9.png" preserveAspectRatio="none" x="13598.876953" y="-3515.625" width="2.197266" height="2.197266"/>
<image xlink:href="tile0_2.png" preserveAspectRatio="none" x="13598.876953" y="-3531.005859" width="2.197266" height="2.197266"/>
<image xlink:href="tile0_1.png" preserveAspectRatio="none" x="13598.876953" y="-3533.203125" width="2.197266" height="2.197266"/>
<image xlink:href="tile0_0.png" preserveAspectRatio="none" x="13598.876953" y="-3535.400391" width="2.197266" height="2.197266"/>
<image xlink:href="tile1_15.png" preserveAspectRatio="none" x="13601.074219" y="-3502.441406" width="2.197266" height="2.197266"/>
<image xlink:href="tile1_14.png" preserveAspectRatio="none" x="13601.074219" y="-3504.638672" width="2.197266" height="2.197266"/>
<image xlink:href="tile1_13.png" preserveAspectRatio="none" x="13601.074219" y="-3506.835938" width="2.197266" height="2.197266"/>
<image xlink:href="tile1_12.png" preserveAspectRatio="none" x="13601.074219" y="-3509.033203" width="2.197266" height="2.197266"/>
<image xlink:href="tile1_11.png" preserveAspectRatio="none" x="13601.074219" y="-3511.230469" width="2.197266" height="2.197266"/>
<image xlink:href="tile1_10.png" preserveAspectRatio="none" x="13601.074219" y="-3513.427734" width="2.197266" height="2.197266"/>
<image xlink:href="tile1_9.png" preserveAspectRatio="none" x="13601.074219" y="-3515.625" width="2.197266" height="2.197266"/>
<image xlink:href="tile1_3.png" preserveAspectRatio="none" x="13601.074219" y="-3528.808594" width="2.197266" height="2.197266"/>
<image xlink:href="tile1_2.png" preserveAspectRatio="none" x="13601.074219" y="-3531.005859" width="2.197266" height="2.197266"/>
<image xlink:href="tile1_1.png" preserveAspectRatio="none" x="13601.074219" y="-3533.203125" width="2.197266" height="2.197266"/>
<image xlink:href="tile1_0.png" preserveAspectRatio="none" x="13601.074219" y="-3535.400391" width="2.197266" height="2.197266"/>
<image xlink:href="tile2_15.png" preserveAspectRatio="none" x="13603.271484" y="-3502.441406" width="2.197266" height="2.197266"/>
<image xlink:href="tile2_14.png" preserveAspectRatio="none" x="13603.271484" y="-3504.638672" width="2.197266" height="2.197266"/>
<image xlink:href="tile2_13.png" preserveAspectRatio="none" x="13603.271484" y="-3506.835938" width="2.197266" height="2.197266"/>
<image xlink:href="tile2_12.png" preserveAspectRatio="none" x="13603.271484" y="-3509.033203" width="2.197266" height="2.197266"/>
<image xlink:href="tile2_11.png" preserveAspectRatio="none" x="13603.271484" y="-3511.230469" width="2.197266" height="2.197266"/>
<image xlink:href="tile2_10.png" preserveAspectRatio="none" x="13603.271484" y="-3513.427734" width="2.197266" height="2.197266"/>
<image xlink:href="tile2_9.png" preserveAspectRatio="none" x="13603.271484" y="-3515.625" width="2.197266" height="2.197266"/>
<image xlink:href="tile2_7.png" preserveAspectRatio="none" x="13603.271484" y="-3520.019531" width="2.197266" height="2.197266"/>
<image xlink:href="tile2_6.png" preserveAspectRatio="none" x="13603.271484" y="-3522.216797" width="2.197266" height="2.197266"/>
<image xlink:href="tile2_2.png" preserveAspectRatio="none" x="13603.271484" y="-3531.005859" width="2.197266" height="2.197266"/>
<image xlink:href="tile2_1.png" preserveAspectRatio="none" x="13603.271484" y="-3533.203125" width="2.197266" height="2.197266"/>
<image xlink:href="tile2_0.png" preserveAspectRatio="none" x="13603.271484" y="-3535.400391" width="2.197266" height="2.197266"/>
<image xlink:href="tile3_15.png" preserveAspectRatio="none" x="13605.46875" y="-3502.441406" width="2.197266" height="2.197266"/>
<image xlink:href="tile3_14.png" preserveAspectRatio="none" x="13605.46875" y="-3504.638672" width="2.197266" height="2.197266"/>
<image xlink:href="tile3_12.png" preserveAspectRatio="none" x="13605.46875" y="-3509.033203" width="2.197266" height="2.197266"/>
<image xlink:href="tile3_11.png" preserveAspectRatio="none" x="13605.46875" y="-3511.230469" width="2.197266" height="2.197266"/>
<image xlink:href="tile3_10.png" preserveAspectRatio="none" x="13605.46875" y="-3513.427734" width="2.197266" height="2.197266"/>
<image xlink:href="tile3_9.png" preserveAspectRatio="none" x="13605.46875" y="-3515.625" width="2.197266" height="2.197266"/>
<image xlink:href="tile3_8.png" preserveAspectRatio="none" x="13605.46875" y="-3517.822266" width="2.197266" height="2.197266"/>
<image xlink:href="tile3_7.png" preserveAspectRatio="none" x="13605.46875" y="-3520.019531" width="2.197266" height="2.197266"/>
<image xlink:href="tile3_6.png" preserveAspectRatio="none" x="13605.46875" y="-3522.216797" width="2.197266" height="2.197266"/>
<image xlink:href="tile3_1.png" preserveAspectRatio="none" x="13605.46875" y="-3533.203125" width="2.197266" height="2.197266"/>
<image xlink:href="tile3_0.png" preserveAspectRatio="none" x="13605.46875" y="-3535.400391" width="2.197266" height="2.197266"/>
<image xlink:href="tile4_15.png" preserveAspectRatio="none" x="13607.666016" y="-3502.441406" width="2.197266" height="2.197266"/>
<image xlink:href="tile4_12.png" preserveAspectRatio="none" x="13607.666016" y="-3509.033203" width="2.197266" height="2.197266"/>
<image xlink:href="tile4_11.png" preserveAspectRatio="none" x="13607.666016" y="-3511.230469" width="2.197266" height="2.197266"/>
<image xlink:href="tile4_10.png" preserveAspectRatio="none" x="13607.666016" y="-3513.427734" width="2.197266" height="2.197266"/>
<image xlink:href="tile4_9.png" preserveAspectRatio="none" x="13607.666016" y="-3515.625" width="2.197266" height="2.197266"/>
<image xlink:href="tile4_8.png" preserveAspectRatio="none" x="13607.666016" y="-3517.822266" width="2.197266" height="2.197266"/>
<image xlink:href="tile4_7.png" preserveAspectRatio="none" x="13607.666016" y="-3520.019531" width="2.197266" height="2.197266"/>
<image xlink:href="tile4_6.png" preserveAspectRatio="none" x="13607.666016" y="-3522.216797" width="2.197266" height="2.197266"/>
<image xlink:href="tile4_1.png" preserveAspectRatio="none" x="13607.666016" y="-3533.203125" width="2.197266" height="2.197266"/>
<image xlink:href="tile5_15.png" preserveAspectRatio="none" x="13609.863281" y="-3502.441406" width="2.197266" height="2.197266"/>
<image xlink:href="tile5_13.png" preserveAspectRatio="none" x="13609.863281" y="-3506.835938" width="2.197266" height="2.197266"/>
<image xlink:href="tile5_12.png" preserveAspectRatio="none" x="13609.863281" y="-3509.033203" width="2.197266" height="2.197266"/>
<image xlink:href="tile5_11.png" preserveAspectRatio="none" x="13609.863281" y="-3511.230469" width="2.197266" height="2.197266"/>
<image xlink:href="tile5_10.png" preserveAspectRatio="none" x="13609.863281" y="-3513.427734" width="2.197266" height="2.197266"/>
<image xlink:href="tile5_9.png" preserveAspectRatio="none" x="13609.863281" y="-3515.625" width="2.197266" height="2.197266"/>
<image xlink:href="tile5_8.png" preserveAspectRatio="none" x="13609.863281" y="-3517.822266" width="2.197266" height="2.197266"/>
<image xlink:href="tile5_7.png" preserveAspectRatio="none" x="13609.863281" y="-3520.019531" width="2.197266" height="2.197266"/>
<image xlink:href="tile5_6.png" preserveAspectRatio="none" x="13609.863281" y="-3522.216797" width="2.197266" height="2.197266"/>
<image xlink:href="tile6_13.png" preserveAspectRatio="none" x="13612.060547" y="-3506.835938" width="2.197266" height="2.197266"/>
<image xlink:href="tile6_12.png" preserveAspectRatio="none" x="13612.060547" y="-3509.033203" width="2.197266" height="2.197266"/>
<image xlink:href="tile6_11.png" preserveAspectRatio="none" x="13612.060547" y="-3511.230469" width="2.197266" height="2.197266"/>
<image xlink:href="tile6_10.png" preserveAspectRatio="none" x="13612.060547" y="-3513.427734" width="2.197266" height="2.197266"/>
<image xlink:href="tile6_9.png" preserveAspectRatio="none" x="13612.060547" y="-3515.625" width="2.197266" height="2.197266"/>
<image xlink:href="tile6_8.png" preserveAspectRatio="none" x="13612.060547" y="-3517.822266" width="2.197266" height="2.197266"/>
<image xlink:href="tile6_7.png" preserveAspectRatio="none" x="13612.060547" y="-3520.019531" width="2.197266" height="2.197266"/>
<image xlink:href="tile6_6.png" preserveAspectRatio="none" x="13612.060547" y="-3522.216797" width="2.197266" height="2.197266"/>
<image xlink:href="tile6_5.png" preserveAspectRatio="none" x="13612.060547" y="-3524.414062" width="2.197266" height="2.197266"/>
<image xlink:href="tile7_13.png" preserveAspectRatio="none" x="13614.257812" y="-3506.835938" width="2.197266" height="2.197266"/>
<image xlink:href="tile7_12.png" preserveAspectRatio="none" x="13614.257812" y="-3509.033203" width="2.197266" height="2.197266"/>
<image xlink:href="tile7_11.png" preserveAspectRatio="none" x="13614.257812" y="-3511.230469" width="2.197266" height="2.197266"/>
<image xlink:href="tile7_10.png" preserveAspectRatio="none" x="13614.257812" y="-3513.427734" width="2.197266" height="2.197266"/>
<image xlink:href="tile7_9.png" preserveAspectRatio="none" x="13614.257812" y="-3515.625" width="2.197266" height="2.197266"/>
<image xlink:href="tile7_8.png" preserveAspectRatio="none" x="13614.257812" y="-3517.822266" width="2.197266" height="2.197266"/>
<image xlink:href="tile7_7.png" preserveAspectRatio="none" x="13614.257812" y="-3520.019531" width="2.197266" height="2.197266"/>
<image xlink:href="tile7_6.png" preserveAspectRatio="none" x="13614.257812" y="-3522.216797" width="2.197266" height="2.197266"/>
<image xlink:href="tile7_5.png" preserveAspectRatio="none" x="13614.257812" y="-3524.414062" width="2.197266" height="2.197266"/>
<image xlink:href="tile8_14.png" preserveAspectRatio="none" x="13616.455078" y="-3504.638672" width="2.197266" height="2.197266"/>
<image xlink:href="tile8_13.png" preserveAspectRatio="none" x="13616.455078" y="-3506.835938" width="2.197266" height="2.197266"/>
<image xlink:href="tile8_12.png" preserveAspectRatio="none" x="13616.455078" y="-3509.033203" width="2.197266" height="2.197266"/>
<image xlink:href="tile8_11.png" preserveAspectRatio="none" x="13616.455078" y="-3511.230469" width="2.197266" height="2.197266"/>
<image xlink:href="tile8_10.png" preserveAspectRatio="none" x="13616.455078" y="-3513.427734" width="2.197266" height="2.197266"/>
<image xlink:href="tile8_9.png" preserveAspectRatio="none" x="13616.455078" y="-3515.625" width="2.197266" height="2.197266"/>
<image xlink:href="tile8_8.png" preserveAspectRatio="none" x="13616.455078" y="-3517.822266" width="2.197266" height="2.197266"/>
<image xlink:href="tile8_7.png" preserveAspectRatio="none" x="13616.455078" y="-3520.019531" width="2.197266" height="2.197266"/>
<image xlink:href="tile8_6.png" preserveAspectRatio="none" x="13616.455078" y="-3522.216797" width="2.197266" height="2.197266"/>
<image xlink:href="tile8_5.png" preserveAspectRatio="none" x="13616.455078" y="-3524.414062" width="2.197266" height="2.197266"/>
<image xlink:href="tile8_4.png" preserveAspectRatio="none" x="13616.455078" y="-3526.611328" width="2.197266" height="2.197266"/>
<image xlink:href="tile9_15.png" preserveAspectRatio="none" x="13618.652344" y="-3502.441406" width="2.197266" height="2.197266"/>
<image xlink:href="tile9_14.png" preserveAspectRatio="none" x="13618.652344" y="-3504.638672" width="2.197266" height="2.197266"/>
<image xlink:href="tile9_13.png" preserveAspectRatio="none" x="13618.652344" y="-3506.835938" width="2.197266" height="2.197266"/>
<image xlink:href="tile9_12.png" preserveAspectRatio="none" x="13618.652344" y="-3509.033203" width="2.197266" height="2.197266"/>
<image xlink:href="tile9_11.png" preserveAspectRatio="none" x="13618.652344" y="-3511.230469" width="2.197266" height="2.197266"/>
<image xlink:href="tile9_10.png" preserveAspectRatio="none" x="13618.652344" y="-3513.427734" width="2.197266" height="2.197266"/>
<image xlink:href="tile9_9.png" preserveAspectRatio="none" x="13618.652344" y="-3515.625" width="2.197266" height="2.197266"/>
<image xlink:href="tile9_8.png" preserveAspectRatio="none" x="13618.652344" y="-3517.822266" width="2.197266" height="2.197266"/>
<image xlink:href="tile9_7.png" preserveAspectRatio="none" x="13618.652344" y="-3520.019531" width="2.197266" height="2.197266"/>
<image xlink:href="tile9_6.png" preserveAspectRatio="none" x="13618.652344" y="-3522.216797" width="2.197266" height="2.197266"/>
<image xlink:href="tile9_5.png" preserveAspectRatio="none" x="13618.652344" y="-3524.414062" width="2.197266" height="2.197266"/>
<image xlink:href="tile9_4.png" preserveAspectRatio="none" x="13618.652344" y="-3526.611328" width="2.197266" height="2.197266"/>
<image xlink:href="tile10_15.png" preserveAspectRatio="none" x="13620.849609" y="-3502.441406" width="2.197266" height="2.197266"/>
<image xlink:href="tile10_14.png" preserveAspectRatio="none" x="13620.849609" y="-3504.638672" width="2.197266" height="2.197266"/>
<image xlink:href="tile10_12.png" preserveAspectRatio="none" x="13620.849609" y="-3509.033203" width="2.197266" height="2.197266"/>
<image xlink:href="tile10_11.png" preserveAspectRatio="none" x="13620.849609" y="-3511.230469" width="2.197266" height="2.197266"/>
<image xlink:href="tile10_10.png" preserveAspectRatio="none" x="13620.849609" y="-3513.427734" width="2.197266" height="2.197266"/>
<image xlink:href="tile10_9.png" preserveAspectRatio="none" x="13620.849609" y="-3515.625" width="2.197266" height="2.197266"/>
<image xlink:href="tile10_8.png" preserveAspectRatio="none" x="13620.849609" y="-3517.822266" width="2.197266" height="2.197266"/>
<image xlink:href="tile10_7.png" preserveAspectRatio="none" x="13620.849609" y="-3520.019531" width="2.197266" height="2.197266"/>
<image xlink:href="tile10_6.png" preserveAspectRatio="none" x="13620.849609" y="-3522.216797" width="2.197266" height="2.197266"/>
<image xlink:href="tile10_5.png" preserveAspectRatio="none" x="13620.849609" y="-3524.414062" width="2.197266" height="2.197266"/>
<image xlink:href="tile10_4.png" preserveAspectRatio="none" x="13620.849609" y="-3526.611328" width="2.197266" height="2.197266"/>
<image xlink:href="tile10_3.png" preserveAspectRatio="none" x="13620.849609" y="-3528.808594" width="2.197266" height="2.197266"/>
<image xlink:href="tile11_15.png" preserveAspectRatio="none" x="13623.046875" y="-3502.441406" width="2.197266" height="2.197266"/>
<image xlink:href="tile11_12.png" preserveAspectRatio="none" x="13623.046875" y="-3509.033203" width="2.197266" height="2.197266"/>
<image xlink:href="tile11_11.png" preserveAspectRatio="none" x="13623.046875" y="-3511.230469" width="2.197266" height="2.197266"/>
<image xlink:href="tile11_10.png" preserveAspectRatio="none" x="13623.046875" y="-3513.427734" width="2.197266" height="2.197266"/>
<image xlink:href="tile11_8.png" preserveAspectRatio="none" x="13623.046875" y="-3517.822266" width="2.197266" height="2.197266"/>
<image xlink:href="tile11_7.png" preserveAspectRatio="none" x="13623.046875" y="-3520.019531" width="2.197266" height="2.197266"/>
<image xlink:href="tile11_6.png" preserveAspectRatio="none" x="13623.046875" y="-3522.216797" width="2.197266" height="2.197266"/>
<image xlink:href="tile11_5.png" preserveAspectRatio="none" x="13623.046875" y="-3524.414062" width="2.197266" height="2.197266"/>
<image xlink:href="tile11_4.png" preserveAspectRatio="none" x="13623.046875" y="-3526.611328" width="2.197266" height="2.197266"/>
<image xlink:href="tile11_3.png" preserveAspectRatio="none" x="13623.046875" y="-3528.808594" width="2.197266" height="2.197266"/>
<image xlink:href="tile11_2.png" preserveAspectRatio="none" x="13623.046875" y="-3531.005859" width="2.197266" height="2.197266"/>
<image xlink:href="tile12_15.png" preserveAspectRatio="none" x="13625.244141" y="-3502.441406" width="2.197266" height="2.197266"/>
<image xlink:href="tile12_12.png" preserveAspectRatio="none" x="13625.244141" y="-3509.033203" width="2.197266" height="2.197266"/>
<image xlink:href="tile12_11.png" preserveAspectRatio="none" x="13625.244141" y="-3511.230469" width="2.197266" height="2.197266"/>
<image xlink:href="tile12_8.png" preserveAspectRatio="none" x="13625.244141" y="-3517.822266" width="2.197266" height="2.197266"/>
<image xlink:href="tile12_7.png" preserveAspectRatio="none" x="13625.244141" y="-3520.019531" width="2.197266" height="2.197266"/>
<image xlink:href="tile12_6.png" preserveAspectRatio="none" x="13625.244141" y="-3522.216797" width="2.197266" height="2.197266"/>
<image xlink:href="tile12_5.png" preserveAspectRatio="none" x="13625.244141" y="-3524.414062" width="2.197266" height="2.197266"/>
<image xlink:href="tile12_4.png" preserveAspectRatio="none" x="13625.244141" y="-3526.611328" width="2.197266" height="2.197266"/>
<image xlink:href="tile12_3.png" preserveAspectRatio="none" x="13625.244141" y="-3528.808594" width="2.197266" height="2.197266"/>
<image xlink:href="tile12_2.png" preserveAspectRatio="none" x="13625.244141" y="-3531.005859" width="2.197266" height="2.197266"/>
<image xlink:href="tile12_1.png" preserveAspectRatio="none" x="13625.244141" y="-3533.203125" width="2.197266" height="2.197266"/>
<image xlink:href="tile12_0.png" preserveAspectRatio="none" x="13625.244141" y="-3535.400391" width="2.197266" height="2.197266"/>
<image xlink:href="tile13_12.png" preserveAspectRatio="none" x="13627.441406" y="-3509.033203" width="2.197266" height="2.197266"/>
<image xlink:href="tile13_11.png" preserveAspectRatio="none" x="13627.441406" y="-3511.230469" width="2.197266" height="2.197266"/>
<image xlink:href="tile13_9.png" preserveAspectRatio="none" x="13627.441406" y="-3515.625" width="2.197266" height="2.197266"/>
<image xlink:href="tile13_7.png" preserveAspectRatio="none" x="13627.441406" y="-3520.019531" width="2.197266" height="2.197266"/>
<image xlink:href="tile13_6.png" preserveAspectRatio="none" x="13627.441406" y="-3522.216797" width="2.197266" height="2.197266"/>
<image xlink:href="tile13_5.png" preserveAspectRatio="none" x="13627.441406" y="-3524.414062" width="2.197266" height="2.197266"/>
<image xlink:href="tile13_4.png" preserveAspectRatio="none" x="13627.441406" y="-3526.611328" width="2.197266" height="2.197266"/>
<image xlink:href="tile13_2.png" preserveAspectRatio="none" x="13627.441406" y="-3531.005859" width="2.197266" height="2.197266"/>
<image xlink:href="tile13_1.png" preserveAspectRatio="none" x="13627.441406" y="-3533.203125" width="2.197266" height="2.197266"/>
<image xlink:href="tile13_0.png" preserveAspectRatio="none" x="13627.441406" y="-3535.400391" width="2.197266" height="2.197266"/>
<image xlink:href="tile14_12.png" preserveAspectRatio="none" x="13629.638672" y="-3509.033203" width="2.197266" height="2.197266"/>
<image xlink:href="tile14_5.png" preserveAspectRatio="none" x="13629.638672" y="-3524.414062" width="2.197266" height="2.197266"/>
<image xlink:href="tile14_1.png" preserveAspectRatio="none" x="13629.638672" y="-3533.203125" width="2.197266" height="2.197266"/>
<image xlink:href="tile14_0.png" preserveAspectRatio="none" x="13629.638672" y="-3535.400391" width="2.197266" height="2.197266"/>
<image xlink:href="tile15_5.png" preserveAspectRatio="none" x="13631.835938" y="-3524.414062" width="2.197266" height="2.197266"/>
<image xlink:href="tile15_1.png" preserveAspectRatio="none" x="13631.835938" y="-3533.203125" width="2.197266" height="2.197266"/>
<image xlink:href="tile15_0.png" preserveAspectRatio="none" x="13631.835938" y="-3535.400391" width="2.197266" height="2.197266"/>
</g>
</svg>
