<?xml version="1.0" encoding="UTF-8"?>
<svg  xmlns="http://www.w3.org/2000/svg" xmlns:xlink="http://www.w3.org/1999/xlink" xmlns:go="http://purl.org/svgmap/profile" viewBox="14000.0 -3666.666667 52.68875010000045 66.66666699999979" go:dataArea="14000.0 -3666.666667 52.68875010000045 66.66666699999979" >
<metadata>
 <rdf:RDF xmlns:rdf="http://www.w3.org/1999/02/22-rdf-syntax-ns#" xmlns:crs="http://opengis.org/xmldtds/transformations.dtd" xmlns:svg="http://www.w3.org/svg" >
  <rdf:Description>
   <crs:CoordinateReferenceSystem rdf:resource="http://purl.org/crs/84" svg:transform="matrix(100.0,0.0,0.0,-100.0,0.0,0.0)" />
  </rdf:Description>
 </rdf:RDF>
</metadata>
<globalCoordinateSystem srsName="http://purl.org/crs/84" transform="matrix(100.0,0.0,0.0,-100.0,0.0,0.0)" />
<g >
<image xlink:href="tile43_12.png" preserveAspectRatio="none" x="14047.119141" y="-3654.052734" width="1.098633" height="1.098633"/>
<image xlink:href="tile43_11.png" preserveAspectRatio="none" x="14047.119141" y="-3655.151367" width="1.098633" height="1.098633"/>
<image xlink:href="tile43_10.png" preserveAspectRatio="none" x="14047.119141" y="-3656.25" width="1.098633" height="1.098633"/>
<image xlink:href="tile43_8.png" preserveAspectRatio="none" x="14047.119141" y="-3658.447266" width="1.098633" height="1.098633"/>
<image xlink:href="tile43_7.png" preserveAspectRatio="none" x="14047.119141" y="-3659.545898" width="1.098633" height="1.098633"/>
<image xlink:href="tile43_5.png" preserveAspectRatio="none" x="14047.119141" y="-3661.743164" width="1.098633" height="1.098633"/>
<image xlink:href="tile43_4.png" preserveAspectRatio="none" x="14047.119141" y="-3662.841797" width="1.098633" height="1.098633"/>
<image xlink:href="tile43_3.png" preserveAspectRatio="none" x="14047.119141" y="-3663.94043" width="1.098633" height="1.098633"/>
<image xlink:href="tile43_2.png" preserveAspectRatio="none" x="14047.119141" y="-3665.039062" width="1.098633" height="1.098633"/>
<image xlink:href="tile43_1.png" preserveAspectRatio="none" x="14047.119141" y="-3666.137695" width="1.098633" height="1.098633"/>
<image xlink:href="tile43_0.png" preserveAspectRatio="none" x="14047.119141" y="-3667.236328" width="1.098633" height="1.098633"/>
<image xlink:href="tile44_10.png" preserveAspectRatio="none" x="14048.217773" y="-3656.25" width="1.098633" height="1.098633"/>
<image xlink:href="tile44_9.png" preserveAspectRatio="none" x="14048.217773" y="-3657.348633" width="1.098633" height="1.098633"/>
<image xlink:href="tile44_8.png" preserveAspectRatio="none" x="14048.217773" y="-3658.447266" width="1.098633" height="1.098633"/>
<image xlink:href="tile44_7.png" preserveAspectRatio="none" x="14048.217773" y="-3659.545898" width="1.098633" height="1.098633"/>
<image xlink:href="tile44_6.png" preserveAspectRatio="none" x="14048.217773" y="-3660.644531" width="1.098633" height="1.098633"/>
<image xlink:href="tile44_5.png" preserveAspectRatio="none" x="14048.217773" y="-3661.743164" width="1.098633" height="1.098633"/>
<image xlink:href="tile44_4.png" preserveAspectRatio="none" x="14048.217773" y="-3662.841797" width="1.098633" height="1.098633"/>
<image xlink:href="tile44_2.png" preserveAspectRatio="none" x="14048.217773" y="-3665.039062" width="1.098633" height="1.098633"/>
<image xlink:href="tile45_8.png" preserveAspectRatio="none" x="14049.316406" y="-3658.447266" width="1.098633" height="1.098633"/>
</g>
</svg>
