<?xml version="1.0" encoding="UTF-8"?>
<svg  xmlns="http://www.w3.org/2000/svg" xmlns:xlink="http://www.w3.org/1999/xlink" xmlns:go="http://purl.org/svgmap/profile" viewBox="14000.0 -3666.666667 52.68875010000045 66.66666699999979" go:dataArea="14000.0 -3666.666667 52.68875010000045 66.66666699999979" >
<metadata>
 <rdf:RDF xmlns:rdf="http://www.w3.org/1999/02/22-rdf-syntax-ns#" xmlns:crs="http://opengis.org/xmldtds/transformations.dtd" xmlns:svg="http://www.w3.org/svg" >
  <rdf:Description>
   <crs:CoordinateReferenceSystem rdf:resource="http://purl.org/crs/84" svg:transform="matrix(100.0,0.0,0.0,-100.0,0.0,0.0)" />
  </rdf:Description>
 </rdf:RDF>
</metadata>
<globalCoordinateSystem srsName="http://purl.org/crs/84" transform="matrix(100.0,0.0,0.0,-100.0,0.0,0.0)" />
<g >
<image xlink:href="tile0_24.png" preserveAspectRatio="none" x="13999.87793" y="-3640.869141" width="1.098633" height="1.098633"/>
<image xlink:href="tile0_23.png" preserveAspectRatio="none" x="13999.87793" y="-3641.967773" width="1.098633" height="1.098633"/>
<image xlink:href="tile0_22.png" preserveAspectRatio="none" x="13999.87793" y="-3643.066406" width="1.098633" height="1.098633"/>
<image xlink:href="tile0_21.png" preserveAspectRatio="none" x="13999.87793" y="-3644.165039" width="1.098633" height="1.098633"/>
<image xlink:href="tile0_20.png" preserveAspectRatio="none" x="13999.87793" y="-3645.263672" width="1.098633" height="1.098633"/>
<image xlink:href="tile0_19.png" preserveAspectRatio="none" x="13999.87793" y="-3646.362305" width="1.098633" height="1.098633"/>
<image xlink:href="tile0_18.png" preserveAspectRatio="none" x="13999.87793" y="-3647.460938" width="1.098633" height="1.098633"/>
<image xlink:href="tile0_17.png" preserveAspectRatio="none" x="13999.87793" y="-3648.55957" width="1.098633" height="1.098633"/>
<image xlink:href="tile0_16.png" preserveAspectRatio="none" x="13999.87793" y="-3649.658203" width="1.098633" height="1.098633"/>
<image xlink:href="tile1_25.png" preserveAspectRatio="none" x="14000.976562" y="-3639.770508" width="1.098633" height="1.098633"/>
<image xlink:href="tile1_24.png" preserveAspectRatio="none" x="14000.976562" y="-3640.869141" width="1.098633" height="1.098633"/>
<image xlink:href="tile1_23.png" preserveAspectRatio="none" x="14000.976562" y="-3641.967773" width="1.098633" height="1.098633"/>
<image xlink:href="tile1_22.png" preserveAspectRatio="none" x="14000.976562" y="-3643.066406" width="1.098633" height="1.098633"/>
<image xlink:href="tile1_21.png" preserveAspectRatio="none" x="14000.976562" y="-3644.165039" width="1.098633" height="1.098633"/>
<image xlink:href="tile1_20.png" preserveAspectRatio="none" x="14000.976562" y="-3645.263672" width="1.098633" height="1.098633"/>
<image xlink:href="tile1_19.png" preserveAspectRatio="none" x="14000.976562" y="-3646.362305" width="1.098633" height="1.098633"/>
<image xlink:href="tile1_18.png" preserveAspectRatio="none" x="14000.976562" y="-3647.460938" width="1.098633" height="1.098633"/>
<image xlink:href="tile1_17.png" preserveAspectRatio="none" x="14000.976562" y="-3648.55957" width="1.098633" height="1.098633"/>
<image xlink:href="tile1_16.png" preserveAspectRatio="none" x="14000.976562" y="-3649.658203" width="1.098633" height="1.098633"/>
<image xlink:href="tile1_15.png" preserveAspectRatio="none" x="14000.976562" y="-3650.756836" width="1.098633" height="1.098633"/>
<image xlink:href="tile1_14.png" preserveAspectRatio="none" x="14000.976562" y="-3651.855469" width="1.098633" height="1.098633"/>
<image xlink:href="tile2_26.png" preserveAspectRatio="none" x="14002.075195" y="-3638.671875" width="1.098633" height="1.098633"/>
<image xlink:href="tile2_25.png" preserveAspectRatio="none" x="14002.075195" y="-3639.770508" width="1.098633" height="1.098633"/>
<image xlink:href="tile2_24.png" preserveAspectRatio="none" x="14002.075195" y="-3640.869141" width="1.098633" height="1.098633"/>
<image xlink:href="tile2_21.png" preserveAspectRatio="none" x="14002.075195" y="-3644.165039" width="1.098633" height="1.098633"/>
<image xlink:href="tile2_20.png" preserveAspectRatio="none" x="14002.075195" y="-3645.263672" width="1.098633" height="1.098633"/>
<image xlink:href="tile2_19.png" preserveAspectRatio="none" x="14002.075195" y="-3646.362305" width="1.098633" height="1.098633"/>
<image xlink:href="tile2_18.png" preserveAspectRatio="none" x="14002.075195" y="-3647.460938" width="1.098633" height="1.098633"/>
<image xlink:href="tile2_17.png" preserveAspectRatio="none" x="14002.075195" y="-3648.55957" width="1.098633" height="1.098633"/>
<image xlink:href="tile2_16.png" preserveAspectRatio="none" x="14002.075195" y="-3649.658203" width="1.098633" height="1.098633"/>
<image xlink:href="tile2_15.png" preserveAspectRatio="none" x="14002.075195" y="-3650.756836" width="1.098633" height="1.098633"/>
<image xlink:href="tile2_14.png" preserveAspectRatio="none" x="14002.075195" y="-3651.855469" width="1.098633" height="1.098633"/>
<image xlink:href="tile3_20.png" preserveAspectRatio="none" x="14003.173828" y="-3645.263672" width="1.098633" height="1.098633"/>
<image xlink:href="tile3_19.png" preserveAspectRatio="none" x="14003.173828" y="-3646.362305" width="1.098633" height="1.098633"/>
<image xlink:href="tile3_18.png" preserveAspectRatio="none" x="14003.173828" y="-3647.460938" width="1.098633" height="1.098633"/>
<image xlink:href="tile3_17.png" preserveAspectRatio="none" x="14003.173828" y="-3648.55957" width="1.098633" height="1.098633"/>
<image xlink:href="tile3_16.png" preserveAspectRatio="none" x="14003.173828" y="-3649.658203" width="1.098633" height="1.098633"/>
<image xlink:href="tile3_15.png" preserveAspectRatio="none" x="14003.173828" y="-3650.756836" width="1.098633" height="1.098633"/>
<image xlink:href="tile3_14.png" preserveAspectRatio="none" x="14003.173828" y="-3651.855469" width="1.098633" height="1.098633"/>
<image xlink:href="tile8_18.png" preserveAspectRatio="none" x="14008.666992" y="-3647.460938" width="1.098633" height="1.098633"/>
<image xlink:href="tile8_17.png" preserveAspectRatio="none" x="14008.666992" y="-3648.55957" width="1.098633" height="1.098633"/>
<image xlink:href="tile8_16.png" preserveAspectRatio="none" x="14008.666992" y="-3649.658203" width="1.098633" height="1.098633"/>
<image xlink:href="tile9_17.png" preserveAspectRatio="none" x="14009.765625" y="-3648.55957" width="1.098633" height="1.098633"/>
<image xlink:href="tile9_16.png" preserveAspectRatio="none" x="14009.765625" y="-3649.658203" width="1.098633" height="1.098633"/>
<image xlink:href="tile10_17.png" preserveAspectRatio="none" x="14010.864258" y="-3648.55957" width="1.098633" height="1.098633"/>
<image xlink:href="tile10_16.png" preserveAspectRatio="none" x="14010.864258" y="-3649.658203" width="1.098633" height="1.098633"/>
<image xlink:href="tile11_19.png" preserveAspectRatio="none" x="14011.962891" y="-3646.362305" width="1.098633" height="1.098633"/>
<image xlink:href="tile11_18.png" preserveAspectRatio="none" x="14011.962891" y="-3647.460938" width="1.098633" height="1.098633"/>
<image xlink:href="tile11_17.png" preserveAspectRatio="none" x="14011.962891" y="-3648.55957" width="1.098633" height="1.098633"/>
<image xlink:href="tile12_20.png" preserveAspectRatio="none" x="14013.061523" y="-3645.263672" width="1.098633" height="1.098633"/>
<image xlink:href="tile12_19.png" preserveAspectRatio="none" x="14013.061523" y="-3646.362305" width="1.098633" height="1.098633"/>
<image xlink:href="tile12_18.png" preserveAspectRatio="none" x="14013.061523" y="-3647.460938" width="1.098633" height="1.098633"/>
<image xlink:href="tile12_17.png" preserveAspectRatio="none" x="14013.061523" y="-3648.55957" width="1.098633" height="1.098633"/>
<image xlink:href="tile14_23.png" preserveAspectRatio="none" x="14015.258789" y="-3641.967773" width="1.098633" height="1.098633"/>
<image xlink:href="tile14_22.png" preserveAspectRatio="none" x="14015.258789" y="-3643.066406" width="1.098633" height="1.098633"/>
<image xlink:href="tile14_21.png" preserveAspectRatio="none" x="14015.258789" y="-3644.165039" width="1.098633" height="1.098633"/>
<image xlink:href="tile15_21.png" preserveAspectRatio="none" x="14016.357422" y="-3644.165039" width="1.098633" height="1.098633"/>
<image xlink:href="tile15_20.png" preserveAspectRatio="none" x="14016.357422" y="-3645.263672" width="1.098633" height="1.098633"/>
<image xlink:href="tile15_19.png" preserveAspectRatio="none" x="14016.357422" y="-3646.362305" width="1.098633" height="1.098633"/>
<image xlink:href="tile15_18.png" preserveAspectRatio="none" x="14016.357422" y="-3647.460938" width="1.098633" height="1.098633"/>
</g>
</svg>
