<?xml version="1.0" encoding="UTF-8"?>
<svg  xmlns="http://www.w3.org/2000/svg" xmlns:xlink="http://www.w3.org/1999/xlink" xmlns:go="http://purl.org/svgmap/profile" viewBox="13900.0 -3800.0 62.232625699999744 64.86678670000003" go:dataArea="13900.0 -3800.0 62.232625699999744 64.86678670000003" >
<metadata>
 <rdf:RDF xmlns:rdf="http://www.w3.org/1999/02/22-rdf-syntax-ns#" xmlns:crs="http://opengis.org/xmldtds/transformations.dtd" xmlns:svg="http://www.w3.org/svg" >
  <rdf:Description>
   <crs:CoordinateReferenceSystem rdf:resource="http://purl.org/crs/84" svg:transform="matrix(100.0,0.0,0.0,-100.0,0.0,0.0)" />
  </rdf:Description>
 </rdf:RDF>
</metadata>
<globalCoordinateSystem srsName="http://purl.org/crs/84" transform="matrix(100.0,0.0,0.0,-100.0,0.0,0.0)" />
<g >
<image xlink:href="tile0_43.png" preserveAspectRatio="none" x="13899.902344" y="-3752.929688" width="1.098633" height="1.098633"/>
<image xlink:href="tile0_41.png" preserveAspectRatio="none" x="13899.902344" y="-3755.126953" width="1.098633" height="1.098633"/>
<image xlink:href="tile0_40.png" preserveAspectRatio="none" x="13899.902344" y="-3756.225586" width="1.098633" height="1.098633"/>
<image xlink:href="tile0_37.png" preserveAspectRatio="none" x="13899.902344" y="-3759.521484" width="1.098633" height="1.098633"/>
<image xlink:href="tile0_36.png" preserveAspectRatio="none" x="13899.902344" y="-3760.620117" width="1.098633" height="1.098633"/>
<image xlink:href="tile0_33.png" preserveAspectRatio="none" x="13899.902344" y="-3763.916016" width="1.098633" height="1.098633"/>
<image xlink:href="tile0_28.png" preserveAspectRatio="none" x="13899.902344" y="-3769.40918" width="1.098633" height="1.098633"/>
<image xlink:href="tile1_43.png" preserveAspectRatio="none" x="13901.000977" y="-3752.929688" width="1.098633" height="1.098633"/>
<image xlink:href="tile1_41.png" preserveAspectRatio="none" x="13901.000977" y="-3755.126953" width="1.098633" height="1.098633"/>
<image xlink:href="tile1_40.png" preserveAspectRatio="none" x="13901.000977" y="-3756.225586" width="1.098633" height="1.098633"/>
<image xlink:href="tile1_38.png" preserveAspectRatio="none" x="13901.000977" y="-3758.422852" width="1.098633" height="1.098633"/>
<image xlink:href="tile1_37.png" preserveAspectRatio="none" x="13901.000977" y="-3759.521484" width="1.098633" height="1.098633"/>
<image xlink:href="tile1_34.png" preserveAspectRatio="none" x="13901.000977" y="-3762.817383" width="1.098633" height="1.098633"/>
<image xlink:href="tile1_33.png" preserveAspectRatio="none" x="13901.000977" y="-3763.916016" width="1.098633" height="1.098633"/>
<image xlink:href="tile1_32.png" preserveAspectRatio="none" x="13901.000977" y="-3765.014648" width="1.098633" height="1.098633"/>
<image xlink:href="tile1_31.png" preserveAspectRatio="none" x="13901.000977" y="-3766.113281" width="1.098633" height="1.098633"/>
<image xlink:href="tile1_30.png" preserveAspectRatio="none" x="13901.000977" y="-3767.211914" width="1.098633" height="1.098633"/>
<image xlink:href="tile2_43.png" preserveAspectRatio="none" x="13902.099609" y="-3752.929688" width="1.098633" height="1.098633"/>
<image xlink:href="tile2_41.png" preserveAspectRatio="none" x="13902.099609" y="-3755.126953" width="1.098633" height="1.098633"/>
<image xlink:href="tile2_40.png" preserveAspectRatio="none" x="13902.099609" y="-3756.225586" width="1.098633" height="1.098633"/>
<image xlink:href="tile2_39.png" preserveAspectRatio="none" x="13902.099609" y="-3757.324219" width="1.098633" height="1.098633"/>
<image xlink:href="tile2_38.png" preserveAspectRatio="none" x="13902.099609" y="-3758.422852" width="1.098633" height="1.098633"/>
<image xlink:href="tile2_37.png" preserveAspectRatio="none" x="13902.099609" y="-3759.521484" width="1.098633" height="1.098633"/>
<image xlink:href="tile2_32.png" preserveAspectRatio="none" x="13902.099609" y="-3765.014648" width="1.098633" height="1.098633"/>
<image xlink:href="tile2_31.png" preserveAspectRatio="none" x="13902.099609" y="-3766.113281" width="1.098633" height="1.098633"/>
<image xlink:href="tile3_42.png" preserveAspectRatio="none" x="13903.198242" y="-3754.02832" width="1.098633" height="1.098633"/>
<image xlink:href="tile3_41.png" preserveAspectRatio="none" x="13903.198242" y="-3755.126953" width="1.098633" height="1.098633"/>
<image xlink:href="tile3_40.png" preserveAspectRatio="none" x="13903.198242" y="-3756.225586" width="1.098633" height="1.098633"/>
<image xlink:href="tile3_39.png" preserveAspectRatio="none" x="13903.198242" y="-3757.324219" width="1.098633" height="1.098633"/>
<image xlink:href="tile3_38.png" preserveAspectRatio="none" x="13903.198242" y="-3758.422852" width="1.098633" height="1.098633"/>
<image xlink:href="tile3_37.png" preserveAspectRatio="none" x="13903.198242" y="-3759.521484" width="1.098633" height="1.098633"/>
<image xlink:href="tile4_41.png" preserveAspectRatio="none" x="13904.296875" y="-3755.126953" width="1.098633" height="1.098633"/>
<image xlink:href="tile4_40.png" preserveAspectRatio="none" x="13904.296875" y="-3756.225586" width="1.098633" height="1.098633"/>
<image xlink:href="tile4_39.png" preserveAspectRatio="none" x="13904.296875" y="-3757.324219" width="1.098633" height="1.098633"/>
<image xlink:href="tile4_38.png" preserveAspectRatio="none" x="13904.296875" y="-3758.422852" width="1.098633" height="1.098633"/>
<image xlink:href="tile4_37.png" preserveAspectRatio="none" x="13904.296875" y="-3759.521484" width="1.098633" height="1.098633"/>
<image xlink:href="tile4_33.png" preserveAspectRatio="none" x="13904.296875" y="-3763.916016" width="1.098633" height="1.098633"/>
<image xlink:href="tile4_32.png" preserveAspectRatio="none" x="13904.296875" y="-3765.014648" width="1.098633" height="1.098633"/>
<image xlink:href="tile4_31.png" preserveAspectRatio="none" x="13904.296875" y="-3766.113281" width="1.098633" height="1.098633"/>
<image xlink:href="tile4_30.png" preserveAspectRatio="none" x="13904.296875" y="-3767.211914" width="1.098633" height="1.098633"/>
<image xlink:href="tile4_29.png" preserveAspectRatio="none" x="13904.296875" y="-3768.310547" width="1.098633" height="1.098633"/>
<image xlink:href="tile5_41.png" preserveAspectRatio="none" x="13905.395508" y="-3755.126953" width="1.098633" height="1.098633"/>
<image xlink:href="tile5_37.png" preserveAspectRatio="none" x="13905.395508" y="-3759.521484" width="1.098633" height="1.098633"/>
<image xlink:href="tile5_36.png" preserveAspectRatio="none" x="13905.395508" y="-3760.620117" width="1.098633" height="1.098633"/>
<image xlink:href="tile5_33.png" preserveAspectRatio="none" x="13905.395508" y="-3763.916016" width="1.098633" height="1.098633"/>
<image xlink:href="tile5_32.png" preserveAspectRatio="none" x="13905.395508" y="-3765.014648" width="1.098633" height="1.098633"/>
<image xlink:href="tile5_31.png" preserveAspectRatio="none" x="13905.395508" y="-3766.113281" width="1.098633" height="1.098633"/>
<image xlink:href="tile5_30.png" preserveAspectRatio="none" x="13905.395508" y="-3767.211914" width="1.098633" height="1.098633"/>
<image xlink:href="tile5_29.png" preserveAspectRatio="none" x="13905.395508" y="-3768.310547" width="1.098633" height="1.098633"/>
<image xlink:href="tile6_38.png" preserveAspectRatio="none" x="13906.494141" y="-3758.422852" width="1.098633" height="1.098633"/>
<image xlink:href="tile6_37.png" preserveAspectRatio="none" x="13906.494141" y="-3759.521484" width="1.098633" height="1.098633"/>
<image xlink:href="tile6_32.png" preserveAspectRatio="none" x="13906.494141" y="-3765.014648" width="1.098633" height="1.098633"/>
<image xlink:href="tile6_31.png" preserveAspectRatio="none" x="13906.494141" y="-3766.113281" width="1.098633" height="1.098633"/>
<image xlink:href="tile6_30.png" preserveAspectRatio="none" x="13906.494141" y="-3767.211914" width="1.098633" height="1.098633"/>
<image xlink:href="tile7_41.png" preserveAspectRatio="none" x="13907.592773" y="-3755.126953" width="1.098633" height="1.098633"/>
<image xlink:href="tile7_40.png" preserveAspectRatio="none" x="13907.592773" y="-3756.225586" width="1.098633" height="1.098633"/>
<image xlink:href="tile7_39.png" preserveAspectRatio="none" x="13907.592773" y="-3757.324219" width="1.098633" height="1.098633"/>
<image xlink:href="tile7_38.png" preserveAspectRatio="none" x="13907.592773" y="-3758.422852" width="1.098633" height="1.098633"/>
<image xlink:href="tile7_36.png" preserveAspectRatio="none" x="13907.592773" y="-3760.620117" width="1.098633" height="1.098633"/>
<image xlink:href="tile7_35.png" preserveAspectRatio="none" x="13907.592773" y="-3761.71875" width="1.098633" height="1.098633"/>
<image xlink:href="tile7_32.png" preserveAspectRatio="none" x="13907.592773" y="-3765.014648" width="1.098633" height="1.098633"/>
<image xlink:href="tile7_31.png" preserveAspectRatio="none" x="13907.592773" y="-3766.113281" width="1.098633" height="1.098633"/>
<image xlink:href="tile7_30.png" preserveAspectRatio="none" x="13907.592773" y="-3767.211914" width="1.098633" height="1.098633"/>
<image xlink:href="tile8_42.png" preserveAspectRatio="none" x="13908.691406" y="-3754.02832" width="1.098633" height="1.098633"/>
<image xlink:href="tile8_41.png" preserveAspectRatio="none" x="13908.691406" y="-3755.126953" width="1.098633" height="1.098633"/>
<image xlink:href="tile8_40.png" preserveAspectRatio="none" x="13908.691406" y="-3756.225586" width="1.098633" height="1.098633"/>
<image xlink:href="tile8_39.png" preserveAspectRatio="none" x="13908.691406" y="-3757.324219" width="1.098633" height="1.098633"/>
<image xlink:href="tile8_38.png" preserveAspectRatio="none" x="13908.691406" y="-3758.422852" width="1.098633" height="1.098633"/>
<image xlink:href="tile8_36.png" preserveAspectRatio="none" x="13908.691406" y="-3760.620117" width="1.098633" height="1.098633"/>
<image xlink:href="tile8_35.png" preserveAspectRatio="none" x="13908.691406" y="-3761.71875" width="1.098633" height="1.098633"/>
<image xlink:href="tile8_34.png" preserveAspectRatio="none" x="13908.691406" y="-3762.817383" width="1.098633" height="1.098633"/>
<image xlink:href="tile8_33.png" preserveAspectRatio="none" x="13908.691406" y="-3763.916016" width="1.098633" height="1.098633"/>
<image xlink:href="tile8_32.png" preserveAspectRatio="none" x="13908.691406" y="-3765.014648" width="1.098633" height="1.098633"/>
<image xlink:href="tile8_31.png" preserveAspectRatio="none" x="13908.691406" y="-3766.113281" width="1.098633" height="1.098633"/>
<image xlink:href="tile9_40.png" preserveAspectRatio="none" x="13909.790039" y="-3756.225586" width="1.098633" height="1.098633"/>
<image xlink:href="tile9_39.png" preserveAspectRatio="none" x="13909.790039" y="-3757.324219" width="1.098633" height="1.098633"/>
<image xlink:href="tile9_38.png" preserveAspectRatio="none" x="13909.790039" y="-3758.422852" width="1.098633" height="1.098633"/>
<image xlink:href="tile9_36.png" preserveAspectRatio="none" x="13909.790039" y="-3760.620117" width="1.098633" height="1.098633"/>
<image xlink:href="tile9_35.png" preserveAspectRatio="none" x="13909.790039" y="-3761.71875" width="1.098633" height="1.098633"/>
<image xlink:href="tile9_34.png" preserveAspectRatio="none" x="13909.790039" y="-3762.817383" width="1.098633" height="1.098633"/>
<image xlink:href="tile9_33.png" preserveAspectRatio="none" x="13909.790039" y="-3763.916016" width="1.098633" height="1.098633"/>
<image xlink:href="tile10_43.png" preserveAspectRatio="none" x="13910.888672" y="-3752.929688" width="1.098633" height="1.098633"/>
<image xlink:href="tile10_42.png" preserveAspectRatio="none" x="13910.888672" y="-3754.02832" width="1.098633" height="1.098633"/>
<image xlink:href="tile10_39.png" preserveAspectRatio="none" x="13910.888672" y="-3757.324219" width="1.098633" height="1.098633"/>
<image xlink:href="tile10_38.png" preserveAspectRatio="none" x="13910.888672" y="-3758.422852" width="1.098633" height="1.098633"/>
<image xlink:href="tile10_36.png" preserveAspectRatio="none" x="13910.888672" y="-3760.620117" width="1.098633" height="1.098633"/>
<image xlink:href="tile10_35.png" preserveAspectRatio="none" x="13910.888672" y="-3761.71875" width="1.098633" height="1.098633"/>
<image xlink:href="tile10_34.png" preserveAspectRatio="none" x="13910.888672" y="-3762.817383" width="1.098633" height="1.098633"/>
<image xlink:href="tile10_33.png" preserveAspectRatio="none" x="13910.888672" y="-3763.916016" width="1.098633" height="1.098633"/>
<image xlink:href="tile10_32.png" preserveAspectRatio="none" x="13910.888672" y="-3765.014648" width="1.098633" height="1.098633"/>
<image xlink:href="tile11_43.png" preserveAspectRatio="none" x="13911.987305" y="-3752.929688" width="1.098633" height="1.098633"/>
<image xlink:href="tile11_42.png" preserveAspectRatio="none" x="13911.987305" y="-3754.02832" width="1.098633" height="1.098633"/>
<image xlink:href="tile11_41.png" preserveAspectRatio="none" x="13911.987305" y="-3755.126953" width="1.098633" height="1.098633"/>
<image xlink:href="tile11_38.png" preserveAspectRatio="none" x="13911.987305" y="-3758.422852" width="1.098633" height="1.098633"/>
<image xlink:href="tile11_37.png" preserveAspectRatio="none" x="13911.987305" y="-3759.521484" width="1.098633" height="1.098633"/>
<image xlink:href="tile11_36.png" preserveAspectRatio="none" x="13911.987305" y="-3760.620117" width="1.098633" height="1.098633"/>
<image xlink:href="tile11_35.png" preserveAspectRatio="none" x="13911.987305" y="-3761.71875" width="1.098633" height="1.098633"/>
<image xlink:href="tile11_34.png" preserveAspectRatio="none" x="13911.987305" y="-3762.817383" width="1.098633" height="1.098633"/>
<image xlink:href="tile11_33.png" preserveAspectRatio="none" x="13911.987305" y="-3763.916016" width="1.098633" height="1.098633"/>
<image xlink:href="tile11_32.png" preserveAspectRatio="none" x="13911.987305" y="-3765.014648" width="1.098633" height="1.098633"/>
<image xlink:href="tile11_31.png" preserveAspectRatio="none" x="13911.987305" y="-3766.113281" width="1.098633" height="1.098633"/>
<image xlink:href="tile11_30.png" preserveAspectRatio="none" x="13911.987305" y="-3767.211914" width="1.098633" height="1.098633"/>
<image xlink:href="tile12_42.png" preserveAspectRatio="none" x="13913.085938" y="-3754.02832" width="1.098633" height="1.098633"/>
<image xlink:href="tile12_41.png" preserveAspectRatio="none" x="13913.085938" y="-3755.126953" width="1.098633" height="1.098633"/>
<image xlink:href="tile12_38.png" preserveAspectRatio="none" x="13913.085938" y="-3758.422852" width="1.098633" height="1.098633"/>
<image xlink:href="tile12_37.png" preserveAspectRatio="none" x="13913.085938" y="-3759.521484" width="1.098633" height="1.098633"/>
<image xlink:href="tile12_36.png" preserveAspectRatio="none" x="13913.085938" y="-3760.620117" width="1.098633" height="1.098633"/>
<image xlink:href="tile12_35.png" preserveAspectRatio="none" x="13913.085938" y="-3761.71875" width="1.098633" height="1.098633"/>
<image xlink:href="tile12_34.png" preserveAspectRatio="none" x="13913.085938" y="-3762.817383" width="1.098633" height="1.098633"/>
<image xlink:href="tile12_32.png" preserveAspectRatio="none" x="13913.085938" y="-3765.014648" width="1.098633" height="1.098633"/>
<image xlink:href="tile12_31.png" preserveAspectRatio="none" x="13913.085938" y="-3766.113281" width="1.098633" height="1.098633"/>
<image xlink:href="tile12_30.png" preserveAspectRatio="none" x="13913.085938" y="-3767.211914" width="1.098633" height="1.098633"/>
<image xlink:href="tile12_29.png" preserveAspectRatio="none" x="13913.085938" y="-3768.310547" width="1.098633" height="1.098633"/>
<image xlink:href="tile13_34.png" preserveAspectRatio="none" x="13914.18457" y="-3762.817383" width="1.098633" height="1.098633"/>
<image xlink:href="tile13_30.png" preserveAspectRatio="none" x="13914.18457" y="-3767.211914" width="1.098633" height="1.098633"/>
<image xlink:href="tile13_29.png" preserveAspectRatio="none" x="13914.18457" y="-3768.310547" width="1.098633" height="1.098633"/>
<image xlink:href="tile13_28.png" preserveAspectRatio="none" x="13914.18457" y="-3769.40918" width="1.098633" height="1.098633"/>
<image xlink:href="tile14_28.png" preserveAspectRatio="none" x="13915.283203" y="-3769.40918" width="1.098633" height="1.098633"/>
</g>
</svg>
