<?xml version="1.0" encoding="UTF-8"?>
<svg  xmlns="http://www.w3.org/2000/svg" xmlns:xlink="http://www.w3.org/1999/xlink" xmlns:go="http://purl.org/svgmap/profile" viewBox="14100.0 -4333.3333330000005 100.0 66.66666630000009" go:dataArea="14100.0 -4333.3333330000005 100.0 66.66666630000009" >
<metadata>
 <rdf:RDF xmlns:rdf="http://www.w3.org/1999/02/22-rdf-syntax-ns#" xmlns:crs="http://opengis.org/xmldtds/transformations.dtd" xmlns:svg="http://www.w3.org/svg" >
  <rdf:Description>
   <crs:CoordinateReferenceSystem rdf:resource="http://purl.org/crs/84" svg:transform="matrix(100.0,0.0,0.0,-100.0,0.0,0.0)" />
  </rdf:Description>
 </rdf:RDF>
</metadata>
<globalCoordinateSystem srsName="http://purl.org/crs/84" transform="matrix(100.0,0.0,0.0,-100.0,0.0,0.0)" />
<g >
<image xlink:href="tile16_16.png" preserveAspectRatio="none" x="14167.96875" y="-4267.089844" width="4.394531" height="4.394531"/>
<image xlink:href="tile16_15.png" preserveAspectRatio="none" x="14167.96875" y="-4271.484375" width="4.394531" height="4.394531"/>
<image xlink:href="tile16_12.png" preserveAspectRatio="none" x="14167.96875" y="-4284.667969" width="4.394531" height="4.394531"/>
<image xlink:href="tile16_11.png" preserveAspectRatio="none" x="14167.96875" y="-4289.0625" width="4.394531" height="4.394531"/>
<image xlink:href="tile16_10.png" preserveAspectRatio="none" x="14167.96875" y="-4293.457031" width="4.394531" height="4.394531"/>
<image xlink:href="tile16_9.png" preserveAspectRatio="none" x="14167.96875" y="-4297.851562" width="4.394531" height="4.394531"/>
<image xlink:href="tile16_8.png" preserveAspectRatio="none" x="14167.96875" y="-4302.246094" width="4.394531" height="4.394531"/>
<image xlink:href="tile16_7.png" preserveAspectRatio="none" x="14167.96875" y="-4306.640625" width="4.394531" height="4.394531"/>
<image xlink:href="tile16_6.png" preserveAspectRatio="none" x="14167.96875" y="-4311.035156" width="4.394531" height="4.394531"/>
<image xlink:href="tile16_5.png" preserveAspectRatio="none" x="14167.96875" y="-4315.429688" width="4.394531" height="4.394531"/>
<image xlink:href="tile16_4.png" preserveAspectRatio="none" x="14167.96875" y="-4319.824219" width="4.394531" height="4.394531"/>
<image xlink:href="tile16_3.png" preserveAspectRatio="none" x="14167.96875" y="-4324.21875" width="4.394531" height="4.394531"/>
<image xlink:href="tile16_2.png" preserveAspectRatio="none" x="14167.96875" y="-4328.613281" width="4.394531" height="4.394531"/>
<image xlink:href="tile16_1.png" preserveAspectRatio="none" x="14167.96875" y="-4333.007812" width="4.394531" height="4.394531"/>
<image xlink:href="tile17_16.png" preserveAspectRatio="none" x="14172.363281" y="-4267.089844" width="4.394531" height="4.394531"/>
<image xlink:href="tile17_15.png" preserveAspectRatio="none" x="14172.363281" y="-4271.484375" width="4.394531" height="4.394531"/>
<image xlink:href="tile17_14.png" preserveAspectRatio="none" x="14172.363281" y="-4275.878906" width="4.394531" height="4.394531"/>
<image xlink:href="tile17_10.png" preserveAspectRatio="none" x="14172.363281" y="-4293.457031" width="4.394531" height="4.394531"/>
<image xlink:href="tile17_7.png" preserveAspectRatio="none" x="14172.363281" y="-4306.640625" width="4.394531" height="4.394531"/>
<image xlink:href="tile17_6.png" preserveAspectRatio="none" x="14172.363281" y="-4311.035156" width="4.394531" height="4.394531"/>
<image xlink:href="tile17_5.png" preserveAspectRatio="none" x="14172.363281" y="-4315.429688" width="4.394531" height="4.394531"/>
<image xlink:href="tile17_4.png" preserveAspectRatio="none" x="14172.363281" y="-4319.824219" width="4.394531" height="4.394531"/>
<image xlink:href="tile17_3.png" preserveAspectRatio="none" x="14172.363281" y="-4324.21875" width="4.394531" height="4.394531"/>
<image xlink:href="tile17_2.png" preserveAspectRatio="none" x="14172.363281" y="-4328.613281" width="4.394531" height="4.394531"/>
<image xlink:href="tile17_1.png" preserveAspectRatio="none" x="14172.363281" y="-4333.007812" width="4.394531" height="4.394531"/>
<image xlink:href="tile18_16.png" preserveAspectRatio="none" x="14176.757812" y="-4267.089844" width="4.394531" height="4.394531"/>
<image xlink:href="tile18_15.png" preserveAspectRatio="none" x="14176.757812" y="-4271.484375" width="4.394531" height="4.394531"/>
<image xlink:href="tile18_14.png" preserveAspectRatio="none" x="14176.757812" y="-4275.878906" width="4.394531" height="4.394531"/>
<image xlink:href="tile18_13.png" preserveAspectRatio="none" x="14176.757812" y="-4280.273438" width="4.394531" height="4.394531"/>
<image xlink:href="tile18_11.png" preserveAspectRatio="none" x="14176.757812" y="-4289.0625" width="4.394531" height="4.394531"/>
<image xlink:href="tile18_8.png" preserveAspectRatio="none" x="14176.757812" y="-4302.246094" width="4.394531" height="4.394531"/>
<image xlink:href="tile18_7.png" preserveAspectRatio="none" x="14176.757812" y="-4306.640625" width="4.394531" height="4.394531"/>
<image xlink:href="tile18_6.png" preserveAspectRatio="none" x="14176.757812" y="-4311.035156" width="4.394531" height="4.394531"/>
<image xlink:href="tile18_5.png" preserveAspectRatio="none" x="14176.757812" y="-4315.429688" width="4.394531" height="4.394531"/>
<image xlink:href="tile18_4.png" preserveAspectRatio="none" x="14176.757812" y="-4319.824219" width="4.394531" height="4.394531"/>
<image xlink:href="tile18_3.png" preserveAspectRatio="none" x="14176.757812" y="-4324.21875" width="4.394531" height="4.394531"/>
<image xlink:href="tile18_2.png" preserveAspectRatio="none" x="14176.757812" y="-4328.613281" width="4.394531" height="4.394531"/>
<image xlink:href="tile18_1.png" preserveAspectRatio="none" x="14176.757812" y="-4333.007812" width="4.394531" height="4.394531"/>
<image xlink:href="tile19_16.png" preserveAspectRatio="none" x="14181.152344" y="-4267.089844" width="4.394531" height="4.394531"/>
<image xlink:href="tile19_15.png" preserveAspectRatio="none" x="14181.152344" y="-4271.484375" width="4.394531" height="4.394531"/>
<image xlink:href="tile19_14.png" preserveAspectRatio="none" x="14181.152344" y="-4275.878906" width="4.394531" height="4.394531"/>
<image xlink:href="tile19_13.png" preserveAspectRatio="none" x="14181.152344" y="-4280.273438" width="4.394531" height="4.394531"/>
<image xlink:href="tile19_12.png" preserveAspectRatio="none" x="14181.152344" y="-4284.667969" width="4.394531" height="4.394531"/>
<image xlink:href="tile19_11.png" preserveAspectRatio="none" x="14181.152344" y="-4289.0625" width="4.394531" height="4.394531"/>
<image xlink:href="tile19_10.png" preserveAspectRatio="none" x="14181.152344" y="-4293.457031" width="4.394531" height="4.394531"/>
<image xlink:href="tile19_9.png" preserveAspectRatio="none" x="14181.152344" y="-4297.851562" width="4.394531" height="4.394531"/>
<image xlink:href="tile19_8.png" preserveAspectRatio="none" x="14181.152344" y="-4302.246094" width="4.394531" height="4.394531"/>
<image xlink:href="tile19_7.png" preserveAspectRatio="none" x="14181.152344" y="-4306.640625" width="4.394531" height="4.394531"/>
<image xlink:href="tile19_5.png" preserveAspectRatio="none" x="14181.152344" y="-4315.429688" width="4.394531" height="4.394531"/>
<image xlink:href="tile19_4.png" preserveAspectRatio="none" x="14181.152344" y="-4319.824219" width="4.394531" height="4.394531"/>
<image xlink:href="tile19_3.png" preserveAspectRatio="none" x="14181.152344" y="-4324.21875" width="4.394531" height="4.394531"/>
<image xlink:href="tile19_2.png" preserveAspectRatio="none" x="14181.152344" y="-4328.613281" width="4.394531" height="4.394531"/>
<image xlink:href="tile19_1.png" preserveAspectRatio="none" x="14181.152344" y="-4333.007812" width="4.394531" height="4.394531"/>
<image xlink:href="tile20_16.png" preserveAspectRatio="none" x="14185.546875" y="-4267.089844" width="4.394531" height="4.394531"/>
<image xlink:href="tile20_15.png" preserveAspectRatio="none" x="14185.546875" y="-4271.484375" width="4.394531" height="4.394531"/>
<image xlink:href="tile20_14.png" preserveAspectRatio="none" x="14185.546875" y="-4275.878906" width="4.394531" height="4.394531"/>
<image xlink:href="tile20_10.png" preserveAspectRatio="none" x="14185.546875" y="-4293.457031" width="4.394531" height="4.394531"/>
<image xlink:href="tile20_9.png" preserveAspectRatio="none" x="14185.546875" y="-4297.851562" width="4.394531" height="4.394531"/>
<image xlink:href="tile20_8.png" preserveAspectRatio="none" x="14185.546875" y="-4302.246094" width="4.394531" height="4.394531"/>
<image xlink:href="tile20_4.png" preserveAspectRatio="none" x="14185.546875" y="-4319.824219" width="4.394531" height="4.394531"/>
<image xlink:href="tile20_3.png" preserveAspectRatio="none" x="14185.546875" y="-4324.21875" width="4.394531" height="4.394531"/>
<image xlink:href="tile20_2.png" preserveAspectRatio="none" x="14185.546875" y="-4328.613281" width="4.394531" height="4.394531"/>
<image xlink:href="tile21_14.png" preserveAspectRatio="none" x="14189.941406" y="-4275.878906" width="4.394531" height="4.394531"/>
<image xlink:href="tile21_13.png" preserveAspectRatio="none" x="14189.941406" y="-4280.273438" width="4.394531" height="4.394531"/>
<image xlink:href="tile21_10.png" preserveAspectRatio="none" x="14189.941406" y="-4293.457031" width="4.394531" height="4.394531"/>
<image xlink:href="tile21_5.png" preserveAspectRatio="none" x="14189.941406" y="-4315.429688" width="4.394531" height="4.394531"/>
<image xlink:href="tile21_4.png" preserveAspectRatio="none" x="14189.941406" y="-4319.824219" width="4.394531" height="4.394531"/>
<image xlink:href="tile21_2.png" preserveAspectRatio="none" x="14189.941406" y="-4328.613281" width="4.394531" height="4.394531"/>
<image xlink:href="tile22_14.png" preserveAspectRatio="none" x="14194.335938" y="-4275.878906" width="4.394531" height="4.394531"/>
<image xlink:href="tile22_13.png" preserveAspectRatio="none" x="14194.335938" y="-4280.273438" width="4.394531" height="4.394531"/>
<image xlink:href="tile22_5.png" preserveAspectRatio="none" x="14194.335938" y="-4315.429688" width="4.394531" height="4.394531"/>
<image xlink:href="tile22_2.png" preserveAspectRatio="none" x="14194.335938" y="-4328.613281" width="4.394531" height="4.394531"/>
<image xlink:href="tile23_2.png" preserveAspectRatio="none" x="14198.730469" y="-4328.613281" width="4.394531" height="4.394531"/>
</g>
</svg>
