<?xml version="1.0" encoding="UTF-8"?>
<svg  xmlns="http://www.w3.org/2000/svg" xmlns:xlink="http://www.w3.org/1999/xlink" xmlns:go="http://purl.org/svgmap/profile" viewBox="13512.65625 -3400.0 87.34374999999943 48.44583300000025" go:dataArea="13512.65625 -3400.0 87.34374999999943 48.44583300000025" >
<metadata>
 <rdf:RDF xmlns:rdf="http://www.w3.org/1999/02/22-rdf-syntax-ns#" xmlns:crs="http://opengis.org/xmldtds/transformations.dtd" xmlns:svg="http://www.w3.org/svg" >
  <rdf:Description>
   <crs:CoordinateReferenceSystem rdf:resource="http://purl.org/crs/84" svg:transform="matrix(100.0,0.0,0.0,-100.0,0.0,0.0)" />
  </rdf:Description>
 </rdf:RDF>
</metadata>
<globalCoordinateSystem srsName="http://purl.org/crs/84" transform="matrix(100.0,0.0,0.0,-100.0,0.0,0.0)" />
<g >
<image xlink:href="tile65_19.png" preserveAspectRatio="none" x="13583.496094" y="-3379.394531" width="1.098633" height="1.098633"/>
<image xlink:href="tile65_15.png" preserveAspectRatio="none" x="13583.496094" y="-3383.789062" width="1.098633" height="1.098633"/>
<image xlink:href="tile65_14.png" preserveAspectRatio="none" x="13583.496094" y="-3384.887695" width="1.098633" height="1.098633"/>
<image xlink:href="tile66_20.png" preserveAspectRatio="none" x="13584.594727" y="-3378.295898" width="1.098633" height="1.098633"/>
<image xlink:href="tile66_19.png" preserveAspectRatio="none" x="13584.594727" y="-3379.394531" width="1.098633" height="1.098633"/>
<image xlink:href="tile66_17.png" preserveAspectRatio="none" x="13584.594727" y="-3381.591797" width="1.098633" height="1.098633"/>
<image xlink:href="tile66_16.png" preserveAspectRatio="none" x="13584.594727" y="-3382.69043" width="1.098633" height="1.098633"/>
<image xlink:href="tile66_15.png" preserveAspectRatio="none" x="13584.594727" y="-3383.789062" width="1.098633" height="1.098633"/>
<image xlink:href="tile66_14.png" preserveAspectRatio="none" x="13584.594727" y="-3384.887695" width="1.098633" height="1.098633"/>
<image xlink:href="tile66_13.png" preserveAspectRatio="none" x="13584.594727" y="-3385.986328" width="1.098633" height="1.098633"/>
<image xlink:href="tile67_19.png" preserveAspectRatio="none" x="13585.693359" y="-3379.394531" width="1.098633" height="1.098633"/>
<image xlink:href="tile67_18.png" preserveAspectRatio="none" x="13585.693359" y="-3380.493164" width="1.098633" height="1.098633"/>
<image xlink:href="tile67_17.png" preserveAspectRatio="none" x="13585.693359" y="-3381.591797" width="1.098633" height="1.098633"/>
<image xlink:href="tile67_16.png" preserveAspectRatio="none" x="13585.693359" y="-3382.69043" width="1.098633" height="1.098633"/>
<image xlink:href="tile67_15.png" preserveAspectRatio="none" x="13585.693359" y="-3383.789062" width="1.098633" height="1.098633"/>
<image xlink:href="tile67_14.png" preserveAspectRatio="none" x="13585.693359" y="-3384.887695" width="1.098633" height="1.098633"/>
<image xlink:href="tile67_13.png" preserveAspectRatio="none" x="13585.693359" y="-3385.986328" width="1.098633" height="1.098633"/>
<image xlink:href="tile68_19.png" preserveAspectRatio="none" x="13586.791992" y="-3379.394531" width="1.098633" height="1.098633"/>
<image xlink:href="tile68_18.png" preserveAspectRatio="none" x="13586.791992" y="-3380.493164" width="1.098633" height="1.098633"/>
<image xlink:href="tile68_17.png" preserveAspectRatio="none" x="13586.791992" y="-3381.591797" width="1.098633" height="1.098633"/>
<image xlink:href="tile68_16.png" preserveAspectRatio="none" x="13586.791992" y="-3382.69043" width="1.098633" height="1.098633"/>
<image xlink:href="tile68_15.png" preserveAspectRatio="none" x="13586.791992" y="-3383.789062" width="1.098633" height="1.098633"/>
<image xlink:href="tile69_18.png" preserveAspectRatio="none" x="13587.890625" y="-3380.493164" width="1.098633" height="1.098633"/>
<image xlink:href="tile69_17.png" preserveAspectRatio="none" x="13587.890625" y="-3381.591797" width="1.098633" height="1.098633"/>
<image xlink:href="tile69_16.png" preserveAspectRatio="none" x="13587.890625" y="-3382.69043" width="1.098633" height="1.098633"/>
<image xlink:href="tile69_15.png" preserveAspectRatio="none" x="13587.890625" y="-3383.789062" width="1.098633" height="1.098633"/>
<image xlink:href="tile70_19.png" preserveAspectRatio="none" x="13588.989258" y="-3379.394531" width="1.098633" height="1.098633"/>
<image xlink:href="tile70_18.png" preserveAspectRatio="none" x="13588.989258" y="-3380.493164" width="1.098633" height="1.098633"/>
<image xlink:href="tile71_21.png" preserveAspectRatio="none" x="13590.087891" y="-3377.197266" width="1.098633" height="1.098633"/>
<image xlink:href="tile71_20.png" preserveAspectRatio="none" x="13590.087891" y="-3378.295898" width="1.098633" height="1.098633"/>
<image xlink:href="tile71_19.png" preserveAspectRatio="none" x="13590.087891" y="-3379.394531" width="1.098633" height="1.098633"/>
<image xlink:href="tile71_18.png" preserveAspectRatio="none" x="13590.087891" y="-3380.493164" width="1.098633" height="1.098633"/>
<image xlink:href="tile72_22.png" preserveAspectRatio="none" x="13591.186523" y="-3376.098633" width="1.098633" height="1.098633"/>
<image xlink:href="tile72_21.png" preserveAspectRatio="none" x="13591.186523" y="-3377.197266" width="1.098633" height="1.098633"/>
<image xlink:href="tile73_24.png" preserveAspectRatio="none" x="13592.285156" y="-3373.901367" width="1.098633" height="1.098633"/>
<image xlink:href="tile73_23.png" preserveAspectRatio="none" x="13592.285156" y="-3375" width="1.098633" height="1.098633"/>
<image xlink:href="tile73_22.png" preserveAspectRatio="none" x="13592.285156" y="-3376.098633" width="1.098633" height="1.098633"/>
<image xlink:href="tile73_21.png" preserveAspectRatio="none" x="13592.285156" y="-3377.197266" width="1.098633" height="1.098633"/>
<image xlink:href="tile74_24.png" preserveAspectRatio="none" x="13593.383789" y="-3373.901367" width="1.098633" height="1.098633"/>
<image xlink:href="tile74_23.png" preserveAspectRatio="none" x="13593.383789" y="-3375" width="1.098633" height="1.098633"/>
<image xlink:href="tile74_22.png" preserveAspectRatio="none" x="13593.383789" y="-3376.098633" width="1.098633" height="1.098633"/>
<image xlink:href="tile74_21.png" preserveAspectRatio="none" x="13593.383789" y="-3377.197266" width="1.098633" height="1.098633"/>
<image xlink:href="tile75_25.png" preserveAspectRatio="none" x="13594.482422" y="-3372.802734" width="1.098633" height="1.098633"/>
<image xlink:href="tile75_24.png" preserveAspectRatio="none" x="13594.482422" y="-3373.901367" width="1.098633" height="1.098633"/>
<image xlink:href="tile76_25.png" preserveAspectRatio="none" x="13595.581055" y="-3372.802734" width="1.098633" height="1.098633"/>
<image xlink:href="tile76_24.png" preserveAspectRatio="none" x="13595.581055" y="-3373.901367" width="1.098633" height="1.098633"/>
<image xlink:href="tile77_25.png" preserveAspectRatio="none" x="13596.679688" y="-3372.802734" width="1.098633" height="1.098633"/>
<image xlink:href="tile77_24.png" preserveAspectRatio="none" x="13596.679688" y="-3373.901367" width="1.098633" height="1.098633"/>
<image xlink:href="tile77_23.png" preserveAspectRatio="none" x="13596.679688" y="-3375" width="1.098633" height="1.098633"/>
<image xlink:href="tile77_22.png" preserveAspectRatio="none" x="13596.679688" y="-3376.098633" width="1.098633" height="1.098633"/>
<image xlink:href="tile77_21.png" preserveAspectRatio="none" x="13596.679688" y="-3377.197266" width="1.098633" height="1.098633"/>
<image xlink:href="tile77_20.png" preserveAspectRatio="none" x="13596.679688" y="-3378.295898" width="1.098633" height="1.098633"/>
<image xlink:href="tile78_26.png" preserveAspectRatio="none" x="13597.77832" y="-3371.704102" width="1.098633" height="1.098633"/>
<image xlink:href="tile78_25.png" preserveAspectRatio="none" x="13597.77832" y="-3372.802734" width="1.098633" height="1.098633"/>
<image xlink:href="tile78_24.png" preserveAspectRatio="none" x="13597.77832" y="-3373.901367" width="1.098633" height="1.098633"/>
<image xlink:href="tile78_23.png" preserveAspectRatio="none" x="13597.77832" y="-3375" width="1.098633" height="1.098633"/>
<image xlink:href="tile78_22.png" preserveAspectRatio="none" x="13597.77832" y="-3376.098633" width="1.098633" height="1.098633"/>
<image xlink:href="tile78_21.png" preserveAspectRatio="none" x="13597.77832" y="-3377.197266" width="1.098633" height="1.098633"/>
<image xlink:href="tile78_20.png" preserveAspectRatio="none" x="13597.77832" y="-3378.295898" width="1.098633" height="1.098633"/>
<image xlink:href="tile78_19.png" preserveAspectRatio="none" x="13597.77832" y="-3379.394531" width="1.098633" height="1.098633"/>
<image xlink:href="tile78_18.png" preserveAspectRatio="none" x="13597.77832" y="-3380.493164" width="1.098633" height="1.098633"/>
<image xlink:href="tile79_26.png" preserveAspectRatio="none" x="13598.876953" y="-3371.704102" width="1.098633" height="1.098633"/>
<image xlink:href="tile79_25.png" preserveAspectRatio="none" x="13598.876953" y="-3372.802734" width="1.098633" height="1.098633"/>
<image xlink:href="tile79_24.png" preserveAspectRatio="none" x="13598.876953" y="-3373.901367" width="1.098633" height="1.098633"/>
<image xlink:href="tile79_23.png" preserveAspectRatio="none" x="13598.876953" y="-3375" width="1.098633" height="1.098633"/>
<image xlink:href="tile79_20.png" preserveAspectRatio="none" x="13598.876953" y="-3378.295898" width="1.098633" height="1.098633"/>
<image xlink:href="tile79_19.png" preserveAspectRatio="none" x="13598.876953" y="-3379.394531" width="1.098633" height="1.098633"/>
</g>
</svg>
