<?xml version="1.0" encoding="UTF-8"?>
<svg  xmlns="http://www.w3.org/2000/svg" xmlns:xlink="http://www.w3.org/1999/xlink" xmlns:go="http://purl.org/svgmap/profile" viewBox="13512.65625 -3400.0 87.34374999999943 48.44583300000025" go:dataArea="13512.65625 -3400.0 87.34374999999943 48.44583300000025" >
<metadata>
 <rdf:RDF xmlns:rdf="http://www.w3.org/1999/02/22-rdf-syntax-ns#" xmlns:crs="http://opengis.org/xmldtds/transformations.dtd" xmlns:svg="http://www.w3.org/svg" >
  <rdf:Description>
   <crs:CoordinateReferenceSystem rdf:resource="http://purl.org/crs/84" svg:transform="matrix(100.0,0.0,0.0,-100.0,0.0,0.0)" />
  </rdf:Description>
 </rdf:RDF>
</metadata>
<globalCoordinateSystem srsName="http://purl.org/crs/84" transform="matrix(100.0,0.0,0.0,-100.0,0.0,0.0)" />
<g >
<image xlink:href="tile16_11.png" preserveAspectRatio="none" x="13529.663086" y="-3388.183594" width="1.098633" height="1.098633"/>
<image xlink:href="tile16_7.png" preserveAspectRatio="none" x="13529.663086" y="-3392.578125" width="1.098633" height="1.098633"/>
<image xlink:href="tile16_6.png" preserveAspectRatio="none" x="13529.663086" y="-3393.676758" width="1.098633" height="1.098633"/>
<image xlink:href="tile16_5.png" preserveAspectRatio="none" x="13529.663086" y="-3394.775391" width="1.098633" height="1.098633"/>
<image xlink:href="tile16_4.png" preserveAspectRatio="none" x="13529.663086" y="-3395.874023" width="1.098633" height="1.098633"/>
<image xlink:href="tile16_3.png" preserveAspectRatio="none" x="13529.663086" y="-3396.972656" width="1.098633" height="1.098633"/>
<image xlink:href="tile17_11.png" preserveAspectRatio="none" x="13530.761719" y="-3388.183594" width="1.098633" height="1.098633"/>
<image xlink:href="tile17_7.png" preserveAspectRatio="none" x="13530.761719" y="-3392.578125" width="1.098633" height="1.098633"/>
<image xlink:href="tile17_6.png" preserveAspectRatio="none" x="13530.761719" y="-3393.676758" width="1.098633" height="1.098633"/>
<image xlink:href="tile17_5.png" preserveAspectRatio="none" x="13530.761719" y="-3394.775391" width="1.098633" height="1.098633"/>
<image xlink:href="tile17_4.png" preserveAspectRatio="none" x="13530.761719" y="-3395.874023" width="1.098633" height="1.098633"/>
<image xlink:href="tile17_3.png" preserveAspectRatio="none" x="13530.761719" y="-3396.972656" width="1.098633" height="1.098633"/>
<image xlink:href="tile18_11.png" preserveAspectRatio="none" x="13531.860352" y="-3388.183594" width="1.098633" height="1.098633"/>
<image xlink:href="tile18_6.png" preserveAspectRatio="none" x="13531.860352" y="-3393.676758" width="1.098633" height="1.098633"/>
<image xlink:href="tile18_5.png" preserveAspectRatio="none" x="13531.860352" y="-3394.775391" width="1.098633" height="1.098633"/>
<image xlink:href="tile18_4.png" preserveAspectRatio="none" x="13531.860352" y="-3395.874023" width="1.098633" height="1.098633"/>
<image xlink:href="tile18_3.png" preserveAspectRatio="none" x="13531.860352" y="-3396.972656" width="1.098633" height="1.098633"/>
<image xlink:href="tile18_2.png" preserveAspectRatio="none" x="13531.860352" y="-3398.071289" width="1.098633" height="1.098633"/>
<image xlink:href="tile19_5.png" preserveAspectRatio="none" x="13532.958984" y="-3394.775391" width="1.098633" height="1.098633"/>
<image xlink:href="tile19_4.png" preserveAspectRatio="none" x="13532.958984" y="-3395.874023" width="1.098633" height="1.098633"/>
<image xlink:href="tile19_3.png" preserveAspectRatio="none" x="13532.958984" y="-3396.972656" width="1.098633" height="1.098633"/>
<image xlink:href="tile19_2.png" preserveAspectRatio="none" x="13532.958984" y="-3398.071289" width="1.098633" height="1.098633"/>
<image xlink:href="tile20_2.png" preserveAspectRatio="none" x="13534.057617" y="-3398.071289" width="1.098633" height="1.098633"/>
<image xlink:href="tile21_3.png" preserveAspectRatio="none" x="13535.15625" y="-3396.972656" width="1.098633" height="1.098633"/>
<image xlink:href="tile21_2.png" preserveAspectRatio="none" x="13535.15625" y="-3398.071289" width="1.098633" height="1.098633"/>
<image xlink:href="tile21_1.png" preserveAspectRatio="none" x="13535.15625" y="-3399.169922" width="1.098633" height="1.098633"/>
<image xlink:href="tile22_5.png" preserveAspectRatio="none" x="13536.254883" y="-3394.775391" width="1.098633" height="1.098633"/>
<image xlink:href="tile22_4.png" preserveAspectRatio="none" x="13536.254883" y="-3395.874023" width="1.098633" height="1.098633"/>
<image xlink:href="tile22_3.png" preserveAspectRatio="none" x="13536.254883" y="-3396.972656" width="1.098633" height="1.098633"/>
<image xlink:href="tile22_2.png" preserveAspectRatio="none" x="13536.254883" y="-3398.071289" width="1.098633" height="1.098633"/>
<image xlink:href="tile22_1.png" preserveAspectRatio="none" x="13536.254883" y="-3399.169922" width="1.098633" height="1.098633"/>
<image xlink:href="tile23_4.png" preserveAspectRatio="none" x="13537.353516" y="-3395.874023" width="1.098633" height="1.098633"/>
<image xlink:href="tile23_3.png" preserveAspectRatio="none" x="13537.353516" y="-3396.972656" width="1.098633" height="1.098633"/>
<image xlink:href="tile23_2.png" preserveAspectRatio="none" x="13537.353516" y="-3398.071289" width="1.098633" height="1.098633"/>
<image xlink:href="tile23_1.png" preserveAspectRatio="none" x="13537.353516" y="-3399.169922" width="1.098633" height="1.098633"/>
<image xlink:href="tile24_4.png" preserveAspectRatio="none" x="13538.452148" y="-3395.874023" width="1.098633" height="1.098633"/>
</g>
</svg>
