<?xml version="1.0" encoding="UTF-8"?>
<svg  xmlns="http://www.w3.org/2000/svg" xmlns:xlink="http://www.w3.org/1999/xlink" xmlns:go="http://purl.org/svgmap/profile" viewBox="13512.65625 -3400.0 87.34374999999943 48.44583300000025" go:dataArea="13512.65625 -3400.0 87.34374999999943 48.44583300000025" >
<metadata>
 <rdf:RDF xmlns:rdf="http://www.w3.org/1999/02/22-rdf-syntax-ns#" xmlns:crs="http://opengis.org/xmldtds/transformations.dtd" xmlns:svg="http://www.w3.org/svg" >
  <rdf:Description>
   <crs:CoordinateReferenceSystem rdf:resource="http://purl.org/crs/84" svg:transform="matrix(100.0,0.0,0.0,-100.0,0.0,0.0)" />
  </rdf:Description>
 </rdf:RDF>
</metadata>
<globalCoordinateSystem srsName="http://purl.org/crs/84" transform="matrix(100.0,0.0,0.0,-100.0,0.0,0.0)" />
<g >
<image xlink:href="tile23_31.png" preserveAspectRatio="none" x="13537.353516" y="-3366.210938" width="1.098633" height="1.098633"/>
<image xlink:href="tile23_30.png" preserveAspectRatio="none" x="13537.353516" y="-3367.30957" width="1.098633" height="1.098633"/>
<image xlink:href="tile24_33.png" preserveAspectRatio="none" x="13538.452148" y="-3364.013672" width="1.098633" height="1.098633"/>
<image xlink:href="tile24_32.png" preserveAspectRatio="none" x="13538.452148" y="-3365.112305" width="1.098633" height="1.098633"/>
<image xlink:href="tile24_31.png" preserveAspectRatio="none" x="13538.452148" y="-3366.210938" width="1.098633" height="1.098633"/>
<image xlink:href="tile24_30.png" preserveAspectRatio="none" x="13538.452148" y="-3367.30957" width="1.098633" height="1.098633"/>
<image xlink:href="tile24_29.png" preserveAspectRatio="none" x="13538.452148" y="-3368.408203" width="1.098633" height="1.098633"/>
<image xlink:href="tile25_33.png" preserveAspectRatio="none" x="13539.550781" y="-3364.013672" width="1.098633" height="1.098633"/>
<image xlink:href="tile25_32.png" preserveAspectRatio="none" x="13539.550781" y="-3365.112305" width="1.098633" height="1.098633"/>
<image xlink:href="tile25_31.png" preserveAspectRatio="none" x="13539.550781" y="-3366.210938" width="1.098633" height="1.098633"/>
<image xlink:href="tile25_30.png" preserveAspectRatio="none" x="13539.550781" y="-3367.30957" width="1.098633" height="1.098633"/>
<image xlink:href="tile25_29.png" preserveAspectRatio="none" x="13539.550781" y="-3368.408203" width="1.098633" height="1.098633"/>
<image xlink:href="tile26_32.png" preserveAspectRatio="none" x="13540.649414" y="-3365.112305" width="1.098633" height="1.098633"/>
<image xlink:href="tile26_31.png" preserveAspectRatio="none" x="13540.649414" y="-3366.210938" width="1.098633" height="1.098633"/>
<image xlink:href="tile26_30.png" preserveAspectRatio="none" x="13540.649414" y="-3367.30957" width="1.098633" height="1.098633"/>
<image xlink:href="tile26_29.png" preserveAspectRatio="none" x="13540.649414" y="-3368.408203" width="1.098633" height="1.098633"/>
<image xlink:href="tile27_29.png" preserveAspectRatio="none" x="13541.748047" y="-3368.408203" width="1.098633" height="1.098633"/>
<image xlink:href="tile28_37.png" preserveAspectRatio="none" x="13542.84668" y="-3359.619141" width="1.098633" height="1.098633"/>
<image xlink:href="tile28_36.png" preserveAspectRatio="none" x="13542.84668" y="-3360.717773" width="1.098633" height="1.098633"/>
<image xlink:href="tile29_40.png" preserveAspectRatio="none" x="13543.945312" y="-3356.323242" width="1.098633" height="1.098633"/>
<image xlink:href="tile29_39.png" preserveAspectRatio="none" x="13543.945312" y="-3357.421875" width="1.098633" height="1.098633"/>
<image xlink:href="tile29_37.png" preserveAspectRatio="none" x="13543.945312" y="-3359.619141" width="1.098633" height="1.098633"/>
<image xlink:href="tile29_36.png" preserveAspectRatio="none" x="13543.945312" y="-3360.717773" width="1.098633" height="1.098633"/>
<image xlink:href="tile30_39.png" preserveAspectRatio="none" x="13545.043945" y="-3357.421875" width="1.098633" height="1.098633"/>
<image xlink:href="tile30_38.png" preserveAspectRatio="none" x="13545.043945" y="-3358.520508" width="1.098633" height="1.098633"/>
<image xlink:href="tile30_37.png" preserveAspectRatio="none" x="13545.043945" y="-3359.619141" width="1.098633" height="1.098633"/>
<image xlink:href="tile30_36.png" preserveAspectRatio="none" x="13545.043945" y="-3360.717773" width="1.098633" height="1.098633"/>
<image xlink:href="tile31_39.png" preserveAspectRatio="none" x="13546.142578" y="-3357.421875" width="1.098633" height="1.098633"/>
<image xlink:href="tile31_38.png" preserveAspectRatio="none" x="13546.142578" y="-3358.520508" width="1.098633" height="1.098633"/>
<image xlink:href="tile31_37.png" preserveAspectRatio="none" x="13546.142578" y="-3359.619141" width="1.098633" height="1.098633"/>
<image xlink:href="tile31_36.png" preserveAspectRatio="none" x="13546.142578" y="-3360.717773" width="1.098633" height="1.098633"/>
<image xlink:href="tile31_35.png" preserveAspectRatio="none" x="13546.142578" y="-3361.816406" width="1.098633" height="1.098633"/>
</g>
</svg>
