<?xml version="1.0" encoding="UTF-8"?>
<svg  xmlns="http://www.w3.org/2000/svg" xmlns:xlink="http://www.w3.org/1999/xlink" xmlns:go="http://purl.org/svgmap/profile" viewBox="14400.03125 -4400.0 99.96874999999932 66.66666699999979" go:dataArea="14400.03125 -4400.0 99.96874999999932 66.66666699999979" >
<metadata>
 <rdf:RDF xmlns:rdf="http://www.w3.org/1999/02/22-rdf-syntax-ns#" xmlns:crs="http://opengis.org/xmldtds/transformations.dtd" xmlns:svg="http://www.w3.org/svg" >
  <rdf:Description>
   <crs:CoordinateReferenceSystem rdf:resource="http://purl.org/crs/84" svg:transform="matrix(100.0,0.0,0.0,-100.0,0.0,0.0)" />
  </rdf:Description>
 </rdf:RDF>
</metadata>
<globalCoordinateSystem srsName="http://purl.org/crs/84" transform="matrix(100.0,0.0,0.0,-100.0,0.0,0.0)" />
<g >
<image xlink:href="tile0_7.png" preserveAspectRatio="none" x="14396.484375" y="-4372.558594" width="4.394531" height="4.394531"/>
<image xlink:href="tile1_7.png" preserveAspectRatio="none" x="14400.878906" y="-4372.558594" width="4.394531" height="4.394531"/>
<image xlink:href="tile1_6.png" preserveAspectRatio="none" x="14400.878906" y="-4376.953125" width="4.394531" height="4.394531"/>
<image xlink:href="tile2_6.png" preserveAspectRatio="none" x="14405.273438" y="-4376.953125" width="4.394531" height="4.394531"/>
<image xlink:href="tile2_5.png" preserveAspectRatio="none" x="14405.273438" y="-4381.347656" width="4.394531" height="4.394531"/>
<image xlink:href="tile2_4.png" preserveAspectRatio="none" x="14405.273438" y="-4385.742188" width="4.394531" height="4.394531"/>
<image xlink:href="tile3_5.png" preserveAspectRatio="none" x="14409.667969" y="-4381.347656" width="4.394531" height="4.394531"/>
<image xlink:href="tile3_4.png" preserveAspectRatio="none" x="14409.667969" y="-4385.742188" width="4.394531" height="4.394531"/>
<image xlink:href="tile3_3.png" preserveAspectRatio="none" x="14409.667969" y="-4390.136719" width="4.394531" height="4.394531"/>
<image xlink:href="tile3_2.png" preserveAspectRatio="none" x="14409.667969" y="-4394.53125" width="4.394531" height="4.394531"/>
<image xlink:href="tile3_1.png" preserveAspectRatio="none" x="14409.667969" y="-4398.925781" width="4.394531" height="4.394531"/>
<image xlink:href="tile4_4.png" preserveAspectRatio="none" x="14414.0625" y="-4385.742188" width="4.394531" height="4.394531"/>
<image xlink:href="tile4_3.png" preserveAspectRatio="none" x="14414.0625" y="-4390.136719" width="4.394531" height="4.394531"/>
<image xlink:href="tile4_2.png" preserveAspectRatio="none" x="14414.0625" y="-4394.53125" width="4.394531" height="4.394531"/>
<image xlink:href="tile4_1.png" preserveAspectRatio="none" x="14414.0625" y="-4398.925781" width="4.394531" height="4.394531"/>
<image xlink:href="tile4_0.png" preserveAspectRatio="none" x="14414.0625" y="-4403.320312" width="4.394531" height="4.394531"/>
<image xlink:href="tile5_2.png" preserveAspectRatio="none" x="14418.457031" y="-4394.53125" width="4.394531" height="4.394531"/>
<image xlink:href="tile5_1.png" preserveAspectRatio="none" x="14418.457031" y="-4398.925781" width="4.394531" height="4.394531"/>
<image xlink:href="tile5_0.png" preserveAspectRatio="none" x="14418.457031" y="-4403.320312" width="4.394531" height="4.394531"/>
<image xlink:href="tile10_12.png" preserveAspectRatio="none" x="14440.429688" y="-4350.585938" width="4.394531" height="4.394531"/>
<image xlink:href="tile11_15.png" preserveAspectRatio="none" x="14444.824219" y="-4337.402344" width="4.394531" height="4.394531"/>
<image xlink:href="tile11_13.png" preserveAspectRatio="none" x="14444.824219" y="-4346.191406" width="4.394531" height="4.394531"/>
<image xlink:href="tile11_12.png" preserveAspectRatio="none" x="14444.824219" y="-4350.585938" width="4.394531" height="4.394531"/>
<image xlink:href="tile12_15.png" preserveAspectRatio="none" x="14449.21875" y="-4337.402344" width="4.394531" height="4.394531"/>
<image xlink:href="tile12_14.png" preserveAspectRatio="none" x="14449.21875" y="-4341.796875" width="4.394531" height="4.394531"/>
<image xlink:href="tile12_13.png" preserveAspectRatio="none" x="14449.21875" y="-4346.191406" width="4.394531" height="4.394531"/>
<image xlink:href="tile13_15.png" preserveAspectRatio="none" x="14453.613281" y="-4337.402344" width="4.394531" height="4.394531"/>
<image xlink:href="tile13_14.png" preserveAspectRatio="none" x="14453.613281" y="-4341.796875" width="4.394531" height="4.394531"/>
<image xlink:href="tile13_2.png" preserveAspectRatio="none" x="14453.613281" y="-4394.53125" width="4.394531" height="4.394531"/>
<image xlink:href="tile14_15.png" preserveAspectRatio="none" x="14458.007812" y="-4337.402344" width="4.394531" height="4.394531"/>
<image xlink:href="tile14_3.png" preserveAspectRatio="none" x="14458.007812" y="-4390.136719" width="4.394531" height="4.394531"/>
<image xlink:href="tile14_2.png" preserveAspectRatio="none" x="14458.007812" y="-4394.53125" width="4.394531" height="4.394531"/>
<image xlink:href="tile15_15.png" preserveAspectRatio="none" x="14462.402344" y="-4337.402344" width="4.394531" height="4.394531"/>
<image xlink:href="tile15_4.png" preserveAspectRatio="none" x="14462.402344" y="-4385.742188" width="4.394531" height="4.394531"/>
<image xlink:href="tile15_3.png" preserveAspectRatio="none" x="14462.402344" y="-4390.136719" width="4.394531" height="4.394531"/>
<image xlink:href="tile15_2.png" preserveAspectRatio="none" x="14462.402344" y="-4394.53125" width="4.394531" height="4.394531"/>
</g>
</svg>
