<?xml version="1.0" encoding="UTF-8"?>
<svg  xmlns="http://www.w3.org/2000/svg" xmlns:xlink="http://www.w3.org/1999/xlink" xmlns:go="http://purl.org/svgmap/profile" viewBox="13900.0 -3800.0 96.37680600000067 66.66666699999979" go:dataArea="13900.0 -3800.0 96.37680600000067 66.66666699999979" >
<metadata>
 <rdf:RDF xmlns:rdf="http://www.w3.org/1999/02/22-rdf-syntax-ns#" xmlns:crs="http://opengis.org/xmldtds/transformations.dtd" xmlns:svg="http://www.w3.org/svg" >
  <rdf:Description>
   <crs:CoordinateReferenceSystem rdf:resource="http://purl.org/crs/84" svg:transform="matrix(100.0,0.0,0.0,-100.0,0.0,0.0)" />
  </rdf:Description>
 </rdf:RDF>
</metadata>
<globalCoordinateSystem srsName="http://purl.org/crs/84" transform="matrix(100.0,0.0,0.0,-100.0,0.0,0.0)" />
<g >
<image xlink:href="tile80_44.png" preserveAspectRatio="none" x="13987.792969" y="-3751.831055" width="1.098633" height="1.098633"/>
<image xlink:href="tile80_43.png" preserveAspectRatio="none" x="13987.792969" y="-3752.929688" width="1.098633" height="1.098633"/>
<image xlink:href="tile80_42.png" preserveAspectRatio="none" x="13987.792969" y="-3754.02832" width="1.098633" height="1.098633"/>
<image xlink:href="tile80_41.png" preserveAspectRatio="none" x="13987.792969" y="-3755.126953" width="1.098633" height="1.098633"/>
<image xlink:href="tile80_40.png" preserveAspectRatio="none" x="13987.792969" y="-3756.225586" width="1.098633" height="1.098633"/>
<image xlink:href="tile80_39.png" preserveAspectRatio="none" x="13987.792969" y="-3757.324219" width="1.098633" height="1.098633"/>
<image xlink:href="tile80_38.png" preserveAspectRatio="none" x="13987.792969" y="-3758.422852" width="1.098633" height="1.098633"/>
<image xlink:href="tile80_37.png" preserveAspectRatio="none" x="13987.792969" y="-3759.521484" width="1.098633" height="1.098633"/>
<image xlink:href="tile80_36.png" preserveAspectRatio="none" x="13987.792969" y="-3760.620117" width="1.098633" height="1.098633"/>
<image xlink:href="tile80_35.png" preserveAspectRatio="none" x="13987.792969" y="-3761.71875" width="1.098633" height="1.098633"/>
<image xlink:href="tile80_34.png" preserveAspectRatio="none" x="13987.792969" y="-3762.817383" width="1.098633" height="1.098633"/>
<image xlink:href="tile80_33.png" preserveAspectRatio="none" x="13987.792969" y="-3763.916016" width="1.098633" height="1.098633"/>
<image xlink:href="tile80_32.png" preserveAspectRatio="none" x="13987.792969" y="-3765.014648" width="1.098633" height="1.098633"/>
<image xlink:href="tile80_31.png" preserveAspectRatio="none" x="13987.792969" y="-3766.113281" width="1.098633" height="1.098633"/>
<image xlink:href="tile80_30.png" preserveAspectRatio="none" x="13987.792969" y="-3767.211914" width="1.098633" height="1.098633"/>
<image xlink:href="tile80_29.png" preserveAspectRatio="none" x="13987.792969" y="-3768.310547" width="1.098633" height="1.098633"/>
<image xlink:href="tile81_44.png" preserveAspectRatio="none" x="13988.891602" y="-3751.831055" width="1.098633" height="1.098633"/>
<image xlink:href="tile81_43.png" preserveAspectRatio="none" x="13988.891602" y="-3752.929688" width="1.098633" height="1.098633"/>
<image xlink:href="tile81_42.png" preserveAspectRatio="none" x="13988.891602" y="-3754.02832" width="1.098633" height="1.098633"/>
<image xlink:href="tile81_41.png" preserveAspectRatio="none" x="13988.891602" y="-3755.126953" width="1.098633" height="1.098633"/>
<image xlink:href="tile81_40.png" preserveAspectRatio="none" x="13988.891602" y="-3756.225586" width="1.098633" height="1.098633"/>
<image xlink:href="tile81_39.png" preserveAspectRatio="none" x="13988.891602" y="-3757.324219" width="1.098633" height="1.098633"/>
<image xlink:href="tile81_38.png" preserveAspectRatio="none" x="13988.891602" y="-3758.422852" width="1.098633" height="1.098633"/>
<image xlink:href="tile81_37.png" preserveAspectRatio="none" x="13988.891602" y="-3759.521484" width="1.098633" height="1.098633"/>
<image xlink:href="tile81_36.png" preserveAspectRatio="none" x="13988.891602" y="-3760.620117" width="1.098633" height="1.098633"/>
<image xlink:href="tile81_35.png" preserveAspectRatio="none" x="13988.891602" y="-3761.71875" width="1.098633" height="1.098633"/>
<image xlink:href="tile81_34.png" preserveAspectRatio="none" x="13988.891602" y="-3762.817383" width="1.098633" height="1.098633"/>
<image xlink:href="tile81_30.png" preserveAspectRatio="none" x="13988.891602" y="-3767.211914" width="1.098633" height="1.098633"/>
<image xlink:href="tile81_29.png" preserveAspectRatio="none" x="13988.891602" y="-3768.310547" width="1.098633" height="1.098633"/>
<image xlink:href="tile82_44.png" preserveAspectRatio="none" x="13989.990234" y="-3751.831055" width="1.098633" height="1.098633"/>
<image xlink:href="tile82_43.png" preserveAspectRatio="none" x="13989.990234" y="-3752.929688" width="1.098633" height="1.098633"/>
<image xlink:href="tile82_42.png" preserveAspectRatio="none" x="13989.990234" y="-3754.02832" width="1.098633" height="1.098633"/>
<image xlink:href="tile82_41.png" preserveAspectRatio="none" x="13989.990234" y="-3755.126953" width="1.098633" height="1.098633"/>
<image xlink:href="tile82_40.png" preserveAspectRatio="none" x="13989.990234" y="-3756.225586" width="1.098633" height="1.098633"/>
<image xlink:href="tile82_39.png" preserveAspectRatio="none" x="13989.990234" y="-3757.324219" width="1.098633" height="1.098633"/>
<image xlink:href="tile82_38.png" preserveAspectRatio="none" x="13989.990234" y="-3758.422852" width="1.098633" height="1.098633"/>
<image xlink:href="tile82_37.png" preserveAspectRatio="none" x="13989.990234" y="-3759.521484" width="1.098633" height="1.098633"/>
<image xlink:href="tile82_36.png" preserveAspectRatio="none" x="13989.990234" y="-3760.620117" width="1.098633" height="1.098633"/>
<image xlink:href="tile82_35.png" preserveAspectRatio="none" x="13989.990234" y="-3761.71875" width="1.098633" height="1.098633"/>
<image xlink:href="tile82_29.png" preserveAspectRatio="none" x="13989.990234" y="-3768.310547" width="1.098633" height="1.098633"/>
<image xlink:href="tile83_44.png" preserveAspectRatio="none" x="13991.088867" y="-3751.831055" width="1.098633" height="1.098633"/>
<image xlink:href="tile83_43.png" preserveAspectRatio="none" x="13991.088867" y="-3752.929688" width="1.098633" height="1.098633"/>
<image xlink:href="tile83_42.png" preserveAspectRatio="none" x="13991.088867" y="-3754.02832" width="1.098633" height="1.098633"/>
<image xlink:href="tile83_41.png" preserveAspectRatio="none" x="13991.088867" y="-3755.126953" width="1.098633" height="1.098633"/>
<image xlink:href="tile83_39.png" preserveAspectRatio="none" x="13991.088867" y="-3757.324219" width="1.098633" height="1.098633"/>
<image xlink:href="tile83_38.png" preserveAspectRatio="none" x="13991.088867" y="-3758.422852" width="1.098633" height="1.098633"/>
<image xlink:href="tile83_37.png" preserveAspectRatio="none" x="13991.088867" y="-3759.521484" width="1.098633" height="1.098633"/>
<image xlink:href="tile83_36.png" preserveAspectRatio="none" x="13991.088867" y="-3760.620117" width="1.098633" height="1.098633"/>
<image xlink:href="tile84_44.png" preserveAspectRatio="none" x="13992.1875" y="-3751.831055" width="1.098633" height="1.098633"/>
<image xlink:href="tile84_38.png" preserveAspectRatio="none" x="13992.1875" y="-3758.422852" width="1.098633" height="1.098633"/>
<image xlink:href="tile85_38.png" preserveAspectRatio="none" x="13993.286133" y="-3758.422852" width="1.098633" height="1.098633"/>
</g>
</svg>
