<?xml version="1.0" encoding="UTF-8"?>
<svg  xmlns="http://www.w3.org/2000/svg" xmlns:xlink="http://www.w3.org/1999/xlink" xmlns:go="http://purl.org/svgmap/profile" viewBox="13900.0 -3800.0 62.232625699999744 64.86678670000003" go:dataArea="13900.0 -3800.0 62.232625699999744 64.86678670000003" >
<metadata>
 <rdf:RDF xmlns:rdf="http://www.w3.org/1999/02/22-rdf-syntax-ns#" xmlns:crs="http://opengis.org/xmldtds/transformations.dtd" xmlns:svg="http://www.w3.org/svg" >
  <rdf:Description>
   <crs:CoordinateReferenceSystem rdf:resource="http://purl.org/crs/84" svg:transform="matrix(100.0,0.0,0.0,-100.0,0.0,0.0)" />
  </rdf:Description>
 </rdf:RDF>
</metadata>
<globalCoordinateSystem srsName="http://purl.org/crs/84" transform="matrix(100.0,0.0,0.0,-100.0,0.0,0.0)" />
<g >
<image xlink:href="tile0_14.png" preserveAspectRatio="none" x="13899.902344" y="-3770.507812" width="2.197266" height="2.197266"/>
<image xlink:href="tile0_13.png" preserveAspectRatio="none" x="13899.902344" y="-3772.705078" width="2.197266" height="2.197266"/>
<image xlink:href="tile0_12.png" preserveAspectRatio="none" x="13899.902344" y="-3774.902344" width="2.197266" height="2.197266"/>
<image xlink:href="tile0_11.png" preserveAspectRatio="none" x="13899.902344" y="-3777.099609" width="2.197266" height="2.197266"/>
<image xlink:href="tile0_10.png" preserveAspectRatio="none" x="13899.902344" y="-3779.296875" width="2.197266" height="2.197266"/>
<image xlink:href="tile0_9.png" preserveAspectRatio="none" x="13899.902344" y="-3781.494141" width="2.197266" height="2.197266"/>
<image xlink:href="tile0_8.png" preserveAspectRatio="none" x="13899.902344" y="-3783.691406" width="2.197266" height="2.197266"/>
<image xlink:href="tile0_7.png" preserveAspectRatio="none" x="13899.902344" y="-3785.888672" width="2.197266" height="2.197266"/>
<image xlink:href="tile0_6.png" preserveAspectRatio="none" x="13899.902344" y="-3788.085938" width="2.197266" height="2.197266"/>
<image xlink:href="tile0_5.png" preserveAspectRatio="none" x="13899.902344" y="-3790.283203" width="2.197266" height="2.197266"/>
<image xlink:href="tile1_13.png" preserveAspectRatio="none" x="13902.099609" y="-3772.705078" width="2.197266" height="2.197266"/>
<image xlink:href="tile1_12.png" preserveAspectRatio="none" x="13902.099609" y="-3774.902344" width="2.197266" height="2.197266"/>
<image xlink:href="tile1_11.png" preserveAspectRatio="none" x="13902.099609" y="-3777.099609" width="2.197266" height="2.197266"/>
<image xlink:href="tile1_10.png" preserveAspectRatio="none" x="13902.099609" y="-3779.296875" width="2.197266" height="2.197266"/>
<image xlink:href="tile1_9.png" preserveAspectRatio="none" x="13902.099609" y="-3781.494141" width="2.197266" height="2.197266"/>
<image xlink:href="tile1_8.png" preserveAspectRatio="none" x="13902.099609" y="-3783.691406" width="2.197266" height="2.197266"/>
<image xlink:href="tile1_7.png" preserveAspectRatio="none" x="13902.099609" y="-3785.888672" width="2.197266" height="2.197266"/>
<image xlink:href="tile1_6.png" preserveAspectRatio="none" x="13902.099609" y="-3788.085938" width="2.197266" height="2.197266"/>
<image xlink:href="tile1_5.png" preserveAspectRatio="none" x="13902.099609" y="-3790.283203" width="2.197266" height="2.197266"/>
<image xlink:href="tile1_4.png" preserveAspectRatio="none" x="13902.099609" y="-3792.480469" width="2.197266" height="2.197266"/>
<image xlink:href="tile2_14.png" preserveAspectRatio="none" x="13904.296875" y="-3770.507812" width="2.197266" height="2.197266"/>
<image xlink:href="tile2_13.png" preserveAspectRatio="none" x="13904.296875" y="-3772.705078" width="2.197266" height="2.197266"/>
<image xlink:href="tile2_12.png" preserveAspectRatio="none" x="13904.296875" y="-3774.902344" width="2.197266" height="2.197266"/>
<image xlink:href="tile2_11.png" preserveAspectRatio="none" x="13904.296875" y="-3777.099609" width="2.197266" height="2.197266"/>
<image xlink:href="tile2_10.png" preserveAspectRatio="none" x="13904.296875" y="-3779.296875" width="2.197266" height="2.197266"/>
<image xlink:href="tile2_9.png" preserveAspectRatio="none" x="13904.296875" y="-3781.494141" width="2.197266" height="2.197266"/>
<image xlink:href="tile2_8.png" preserveAspectRatio="none" x="13904.296875" y="-3783.691406" width="2.197266" height="2.197266"/>
<image xlink:href="tile2_7.png" preserveAspectRatio="none" x="13904.296875" y="-3785.888672" width="2.197266" height="2.197266"/>
<image xlink:href="tile2_6.png" preserveAspectRatio="none" x="13904.296875" y="-3788.085938" width="2.197266" height="2.197266"/>
<image xlink:href="tile2_5.png" preserveAspectRatio="none" x="13904.296875" y="-3790.283203" width="2.197266" height="2.197266"/>
<image xlink:href="tile2_4.png" preserveAspectRatio="none" x="13904.296875" y="-3792.480469" width="2.197266" height="2.197266"/>
<image xlink:href="tile2_3.png" preserveAspectRatio="none" x="13904.296875" y="-3794.677734" width="2.197266" height="2.197266"/>
<image xlink:href="tile3_14.png" preserveAspectRatio="none" x="13906.494141" y="-3770.507812" width="2.197266" height="2.197266"/>
<image xlink:href="tile3_13.png" preserveAspectRatio="none" x="13906.494141" y="-3772.705078" width="2.197266" height="2.197266"/>
<image xlink:href="tile3_12.png" preserveAspectRatio="none" x="13906.494141" y="-3774.902344" width="2.197266" height="2.197266"/>
<image xlink:href="tile3_11.png" preserveAspectRatio="none" x="13906.494141" y="-3777.099609" width="2.197266" height="2.197266"/>
<image xlink:href="tile3_10.png" preserveAspectRatio="none" x="13906.494141" y="-3779.296875" width="2.197266" height="2.197266"/>
<image xlink:href="tile3_9.png" preserveAspectRatio="none" x="13906.494141" y="-3781.494141" width="2.197266" height="2.197266"/>
<image xlink:href="tile3_8.png" preserveAspectRatio="none" x="13906.494141" y="-3783.691406" width="2.197266" height="2.197266"/>
<image xlink:href="tile3_7.png" preserveAspectRatio="none" x="13906.494141" y="-3785.888672" width="2.197266" height="2.197266"/>
<image xlink:href="tile3_6.png" preserveAspectRatio="none" x="13906.494141" y="-3788.085938" width="2.197266" height="2.197266"/>
<image xlink:href="tile3_5.png" preserveAspectRatio="none" x="13906.494141" y="-3790.283203" width="2.197266" height="2.197266"/>
<image xlink:href="tile3_4.png" preserveAspectRatio="none" x="13906.494141" y="-3792.480469" width="2.197266" height="2.197266"/>
<image xlink:href="tile3_3.png" preserveAspectRatio="none" x="13906.494141" y="-3794.677734" width="2.197266" height="2.197266"/>
<image xlink:href="tile4_13.png" preserveAspectRatio="none" x="13908.691406" y="-3772.705078" width="2.197266" height="2.197266"/>
<image xlink:href="tile4_12.png" preserveAspectRatio="none" x="13908.691406" y="-3774.902344" width="2.197266" height="2.197266"/>
<image xlink:href="tile4_11.png" preserveAspectRatio="none" x="13908.691406" y="-3777.099609" width="2.197266" height="2.197266"/>
<image xlink:href="tile4_10.png" preserveAspectRatio="none" x="13908.691406" y="-3779.296875" width="2.197266" height="2.197266"/>
<image xlink:href="tile4_9.png" preserveAspectRatio="none" x="13908.691406" y="-3781.494141" width="2.197266" height="2.197266"/>
<image xlink:href="tile4_7.png" preserveAspectRatio="none" x="13908.691406" y="-3785.888672" width="2.197266" height="2.197266"/>
<image xlink:href="tile4_6.png" preserveAspectRatio="none" x="13908.691406" y="-3788.085938" width="2.197266" height="2.197266"/>
<image xlink:href="tile4_5.png" preserveAspectRatio="none" x="13908.691406" y="-3790.283203" width="2.197266" height="2.197266"/>
<image xlink:href="tile4_4.png" preserveAspectRatio="none" x="13908.691406" y="-3792.480469" width="2.197266" height="2.197266"/>
<image xlink:href="tile4_3.png" preserveAspectRatio="none" x="13908.691406" y="-3794.677734" width="2.197266" height="2.197266"/>
<image xlink:href="tile5_12.png" preserveAspectRatio="none" x="13910.888672" y="-3774.902344" width="2.197266" height="2.197266"/>
<image xlink:href="tile5_11.png" preserveAspectRatio="none" x="13910.888672" y="-3777.099609" width="2.197266" height="2.197266"/>
<image xlink:href="tile5_10.png" preserveAspectRatio="none" x="13910.888672" y="-3779.296875" width="2.197266" height="2.197266"/>
<image xlink:href="tile5_7.png" preserveAspectRatio="none" x="13910.888672" y="-3785.888672" width="2.197266" height="2.197266"/>
<image xlink:href="tile5_6.png" preserveAspectRatio="none" x="13910.888672" y="-3788.085938" width="2.197266" height="2.197266"/>
<image xlink:href="tile5_5.png" preserveAspectRatio="none" x="13910.888672" y="-3790.283203" width="2.197266" height="2.197266"/>
<image xlink:href="tile5_4.png" preserveAspectRatio="none" x="13910.888672" y="-3792.480469" width="2.197266" height="2.197266"/>
<image xlink:href="tile5_3.png" preserveAspectRatio="none" x="13910.888672" y="-3794.677734" width="2.197266" height="2.197266"/>
<image xlink:href="tile5_2.png" preserveAspectRatio="none" x="13910.888672" y="-3796.875" width="2.197266" height="2.197266"/>
<image xlink:href="tile6_14.png" preserveAspectRatio="none" x="13913.085938" y="-3770.507812" width="2.197266" height="2.197266"/>
<image xlink:href="tile6_13.png" preserveAspectRatio="none" x="13913.085938" y="-3772.705078" width="2.197266" height="2.197266"/>
<image xlink:href="tile6_12.png" preserveAspectRatio="none" x="13913.085938" y="-3774.902344" width="2.197266" height="2.197266"/>
<image xlink:href="tile6_7.png" preserveAspectRatio="none" x="13913.085938" y="-3785.888672" width="2.197266" height="2.197266"/>
<image xlink:href="tile6_6.png" preserveAspectRatio="none" x="13913.085938" y="-3788.085938" width="2.197266" height="2.197266"/>
<image xlink:href="tile6_5.png" preserveAspectRatio="none" x="13913.085938" y="-3790.283203" width="2.197266" height="2.197266"/>
<image xlink:href="tile6_4.png" preserveAspectRatio="none" x="13913.085938" y="-3792.480469" width="2.197266" height="2.197266"/>
<image xlink:href="tile6_3.png" preserveAspectRatio="none" x="13913.085938" y="-3794.677734" width="2.197266" height="2.197266"/>
<image xlink:href="tile7_14.png" preserveAspectRatio="none" x="13915.283203" y="-3770.507812" width="2.197266" height="2.197266"/>
<image xlink:href="tile7_13.png" preserveAspectRatio="none" x="13915.283203" y="-3772.705078" width="2.197266" height="2.197266"/>
<image xlink:href="tile7_12.png" preserveAspectRatio="none" x="13915.283203" y="-3774.902344" width="2.197266" height="2.197266"/>
<image xlink:href="tile7_6.png" preserveAspectRatio="none" x="13915.283203" y="-3788.085938" width="2.197266" height="2.197266"/>
<image xlink:href="tile7_5.png" preserveAspectRatio="none" x="13915.283203" y="-3790.283203" width="2.197266" height="2.197266"/>
<image xlink:href="tile13_12.png" preserveAspectRatio="none" x="13928.466797" y="-3774.902344" width="2.197266" height="2.197266"/>
<image xlink:href="tile14_12.png" preserveAspectRatio="none" x="13930.664062" y="-3774.902344" width="2.197266" height="2.197266"/>
<image xlink:href="tile14_0.png" preserveAspectRatio="none" x="13930.664062" y="-3801.269531" width="2.197266" height="2.197266"/>
<image xlink:href="tile15_14.png" preserveAspectRatio="none" x="13932.861328" y="-3770.507812" width="2.197266" height="2.197266"/>
<image xlink:href="tile15_13.png" preserveAspectRatio="none" x="13932.861328" y="-3772.705078" width="2.197266" height="2.197266"/>
<image xlink:href="tile15_12.png" preserveAspectRatio="none" x="13932.861328" y="-3774.902344" width="2.197266" height="2.197266"/>
<image xlink:href="tile15_11.png" preserveAspectRatio="none" x="13932.861328" y="-3777.099609" width="2.197266" height="2.197266"/>
<image xlink:href="tile15_2.png" preserveAspectRatio="none" x="13932.861328" y="-3796.875" width="2.197266" height="2.197266"/>
<image xlink:href="tile15_1.png" preserveAspectRatio="none" x="13932.861328" y="-3799.072266" width="2.197266" height="2.197266"/>
<image xlink:href="tile15_0.png" preserveAspectRatio="none" x="13932.861328" y="-3801.269531" width="2.197266" height="2.197266"/>
</g>
</svg>
