<?xml version="1.0" encoding="UTF-8"?>
<svg  xmlns="http://www.w3.org/2000/svg" xmlns:xlink="http://www.w3.org/1999/xlink" xmlns:go="http://purl.org/svgmap/profile" viewBox="13800.0 -3600.0 100.0 66.47917579999998" go:dataArea="13800.0 -3600.0 100.0 66.47917579999998" >
<metadata>
 <rdf:RDF xmlns:rdf="http://www.w3.org/1999/02/22-rdf-syntax-ns#" xmlns:crs="http://opengis.org/xmldtds/transformations.dtd" xmlns:svg="http://www.w3.org/svg" >
  <rdf:Description>
   <crs:CoordinateReferenceSystem rdf:resource="http://purl.org/crs/84" svg:transform="matrix(100.0,0.0,0.0,-100.0,0.0,0.0)" />
  </rdf:Description>
 </rdf:RDF>
</metadata>
<globalCoordinateSystem srsName="http://purl.org/crs/84" transform="matrix(100.0,0.0,0.0,-100.0,0.0,0.0)" />
<g >
<image xlink:href="tile70_49.png" preserveAspectRatio="none" x="13876.831055" y="-3546.386719" width="1.098633" height="1.098633"/>
<image xlink:href="tile70_48.png" preserveAspectRatio="none" x="13876.831055" y="-3547.485352" width="1.098633" height="1.098633"/>
<image xlink:href="tile70_47.png" preserveAspectRatio="none" x="13876.831055" y="-3548.583984" width="1.098633" height="1.098633"/>
<image xlink:href="tile71_47.png" preserveAspectRatio="none" x="13877.929688" y="-3548.583984" width="1.098633" height="1.098633"/>
<image xlink:href="tile71_46.png" preserveAspectRatio="none" x="13877.929688" y="-3549.682617" width="1.098633" height="1.098633"/>
<image xlink:href="tile72_47.png" preserveAspectRatio="none" x="13879.02832" y="-3548.583984" width="1.098633" height="1.098633"/>
<image xlink:href="tile72_46.png" preserveAspectRatio="none" x="13879.02832" y="-3549.682617" width="1.098633" height="1.098633"/>
<image xlink:href="tile73_49.png" preserveAspectRatio="none" x="13880.126953" y="-3546.386719" width="1.098633" height="1.098633"/>
<image xlink:href="tile73_48.png" preserveAspectRatio="none" x="13880.126953" y="-3547.485352" width="1.098633" height="1.098633"/>
<image xlink:href="tile73_47.png" preserveAspectRatio="none" x="13880.126953" y="-3548.583984" width="1.098633" height="1.098633"/>
<image xlink:href="tile73_46.png" preserveAspectRatio="none" x="13880.126953" y="-3549.682617" width="1.098633" height="1.098633"/>
<image xlink:href="tile73_45.png" preserveAspectRatio="none" x="13880.126953" y="-3550.78125" width="1.098633" height="1.098633"/>
<image xlink:href="tile74_49.png" preserveAspectRatio="none" x="13881.225586" y="-3546.386719" width="1.098633" height="1.098633"/>
<image xlink:href="tile74_48.png" preserveAspectRatio="none" x="13881.225586" y="-3547.485352" width="1.098633" height="1.098633"/>
<image xlink:href="tile74_47.png" preserveAspectRatio="none" x="13881.225586" y="-3548.583984" width="1.098633" height="1.098633"/>
<image xlink:href="tile74_46.png" preserveAspectRatio="none" x="13881.225586" y="-3549.682617" width="1.098633" height="1.098633"/>
<image xlink:href="tile74_45.png" preserveAspectRatio="none" x="13881.225586" y="-3550.78125" width="1.098633" height="1.098633"/>
<image xlink:href="tile75_49.png" preserveAspectRatio="none" x="13882.324219" y="-3546.386719" width="1.098633" height="1.098633"/>
<image xlink:href="tile75_48.png" preserveAspectRatio="none" x="13882.324219" y="-3547.485352" width="1.098633" height="1.098633"/>
<image xlink:href="tile75_47.png" preserveAspectRatio="none" x="13882.324219" y="-3548.583984" width="1.098633" height="1.098633"/>
<image xlink:href="tile75_46.png" preserveAspectRatio="none" x="13882.324219" y="-3549.682617" width="1.098633" height="1.098633"/>
<image xlink:href="tile75_45.png" preserveAspectRatio="none" x="13882.324219" y="-3550.78125" width="1.098633" height="1.098633"/>
<image xlink:href="tile76_50.png" preserveAspectRatio="none" x="13883.422852" y="-3545.288086" width="1.098633" height="1.098633"/>
<image xlink:href="tile76_49.png" preserveAspectRatio="none" x="13883.422852" y="-3546.386719" width="1.098633" height="1.098633"/>
<image xlink:href="tile76_48.png" preserveAspectRatio="none" x="13883.422852" y="-3547.485352" width="1.098633" height="1.098633"/>
<image xlink:href="tile76_45.png" preserveAspectRatio="none" x="13883.422852" y="-3550.78125" width="1.098633" height="1.098633"/>
<image xlink:href="tile77_52.png" preserveAspectRatio="none" x="13884.521484" y="-3543.09082" width="1.098633" height="1.098633"/>
<image xlink:href="tile77_51.png" preserveAspectRatio="none" x="13884.521484" y="-3544.189453" width="1.098633" height="1.098633"/>
<image xlink:href="tile77_50.png" preserveAspectRatio="none" x="13884.521484" y="-3545.288086" width="1.098633" height="1.098633"/>
<image xlink:href="tile77_49.png" preserveAspectRatio="none" x="13884.521484" y="-3546.386719" width="1.098633" height="1.098633"/>
<image xlink:href="tile77_48.png" preserveAspectRatio="none" x="13884.521484" y="-3547.485352" width="1.098633" height="1.098633"/>
<image xlink:href="tile78_50.png" preserveAspectRatio="none" x="13885.620117" y="-3545.288086" width="1.098633" height="1.098633"/>
<image xlink:href="tile78_49.png" preserveAspectRatio="none" x="13885.620117" y="-3546.386719" width="1.098633" height="1.098633"/>
</g>
</svg>
