<?xml version="1.0" encoding="UTF-8"?>
<svg  xmlns="http://www.w3.org/2000/svg" xmlns:xlink="http://www.w3.org/1999/xlink" xmlns:go="http://purl.org/svgmap/profile" viewBox="13800.0 -3730.383233 100.0 63.716566000000086" go:dataArea="13800.0 -3730.383233 100.0 63.716566000000086" >
<metadata>
 <rdf:RDF xmlns:rdf="http://www.w3.org/1999/02/22-rdf-syntax-ns#" xmlns:crs="http://opengis.org/xmldtds/transformations.dtd" xmlns:svg="http://www.w3.org/svg" >
  <rdf:Description>
   <crs:CoordinateReferenceSystem rdf:resource="http://purl.org/crs/84" svg:transform="matrix(100.0,0.0,0.0,-100.0,0.0,0.0)" />
  </rdf:Description>
 </rdf:RDF>
</metadata>
<globalCoordinateSystem srsName="http://purl.org/crs/84" transform="matrix(100.0,0.0,0.0,-100.0,0.0,0.0)" />
<g >
<image xlink:href="tile80_8.png" preserveAspectRatio="none" x="13887.817383" y="-3722.167969" width="1.098633" height="1.098633"/>
<image xlink:href="tile80_7.png" preserveAspectRatio="none" x="13887.817383" y="-3723.266602" width="1.098633" height="1.098633"/>
<image xlink:href="tile80_4.png" preserveAspectRatio="none" x="13887.817383" y="-3726.5625" width="1.098633" height="1.098633"/>
<image xlink:href="tile81_8.png" preserveAspectRatio="none" x="13888.916016" y="-3722.167969" width="1.098633" height="1.098633"/>
<image xlink:href="tile81_7.png" preserveAspectRatio="none" x="13888.916016" y="-3723.266602" width="1.098633" height="1.098633"/>
<image xlink:href="tile81_5.png" preserveAspectRatio="none" x="13888.916016" y="-3725.463867" width="1.098633" height="1.098633"/>
<image xlink:href="tile81_4.png" preserveAspectRatio="none" x="13888.916016" y="-3726.5625" width="1.098633" height="1.098633"/>
<image xlink:href="tile82_7.png" preserveAspectRatio="none" x="13890.014648" y="-3723.266602" width="1.098633" height="1.098633"/>
<image xlink:href="tile82_6.png" preserveAspectRatio="none" x="13890.014648" y="-3724.365234" width="1.098633" height="1.098633"/>
<image xlink:href="tile82_5.png" preserveAspectRatio="none" x="13890.014648" y="-3725.463867" width="1.098633" height="1.098633"/>
<image xlink:href="tile82_4.png" preserveAspectRatio="none" x="13890.014648" y="-3726.5625" width="1.098633" height="1.098633"/>
<image xlink:href="tile83_6.png" preserveAspectRatio="none" x="13891.113281" y="-3724.365234" width="1.098633" height="1.098633"/>
<image xlink:href="tile83_5.png" preserveAspectRatio="none" x="13891.113281" y="-3725.463867" width="1.098633" height="1.098633"/>
<image xlink:href="tile83_4.png" preserveAspectRatio="none" x="13891.113281" y="-3726.5625" width="1.098633" height="1.098633"/>
<image xlink:href="tile84_6.png" preserveAspectRatio="none" x="13892.211914" y="-3724.365234" width="1.098633" height="1.098633"/>
<image xlink:href="tile84_5.png" preserveAspectRatio="none" x="13892.211914" y="-3725.463867" width="1.098633" height="1.098633"/>
<image xlink:href="tile85_10.png" preserveAspectRatio="none" x="13893.310547" y="-3719.970703" width="1.098633" height="1.098633"/>
<image xlink:href="tile85_6.png" preserveAspectRatio="none" x="13893.310547" y="-3724.365234" width="1.098633" height="1.098633"/>
<image xlink:href="tile86_10.png" preserveAspectRatio="none" x="13894.40918" y="-3719.970703" width="1.098633" height="1.098633"/>
<image xlink:href="tile86_9.png" preserveAspectRatio="none" x="13894.40918" y="-3721.069336" width="1.098633" height="1.098633"/>
<image xlink:href="tile86_6.png" preserveAspectRatio="none" x="13894.40918" y="-3724.365234" width="1.098633" height="1.098633"/>
<image xlink:href="tile87_10.png" preserveAspectRatio="none" x="13895.507812" y="-3719.970703" width="1.098633" height="1.098633"/>
<image xlink:href="tile87_9.png" preserveAspectRatio="none" x="13895.507812" y="-3721.069336" width="1.098633" height="1.098633"/>
<image xlink:href="tile87_8.png" preserveAspectRatio="none" x="13895.507812" y="-3722.167969" width="1.098633" height="1.098633"/>
<image xlink:href="tile87_7.png" preserveAspectRatio="none" x="13895.507812" y="-3723.266602" width="1.098633" height="1.098633"/>
<image xlink:href="tile87_6.png" preserveAspectRatio="none" x="13895.507812" y="-3724.365234" width="1.098633" height="1.098633"/>
<image xlink:href="tile87_5.png" preserveAspectRatio="none" x="13895.507812" y="-3725.463867" width="1.098633" height="1.098633"/>
<image xlink:href="tile88_9.png" preserveAspectRatio="none" x="13896.606445" y="-3721.069336" width="1.098633" height="1.098633"/>
<image xlink:href="tile88_6.png" preserveAspectRatio="none" x="13896.606445" y="-3724.365234" width="1.098633" height="1.098633"/>
<image xlink:href="tile88_5.png" preserveAspectRatio="none" x="13896.606445" y="-3725.463867" width="1.098633" height="1.098633"/>
<image xlink:href="tile88_2.png" preserveAspectRatio="none" x="13896.606445" y="-3728.759766" width="1.098633" height="1.098633"/>
<image xlink:href="tile88_1.png" preserveAspectRatio="none" x="13896.606445" y="-3729.858398" width="1.098633" height="1.098633"/>
<image xlink:href="tile88_0.png" preserveAspectRatio="none" x="13896.606445" y="-3730.957031" width="1.098633" height="1.098633"/>
<image xlink:href="tile89_6.png" preserveAspectRatio="none" x="13897.705078" y="-3724.365234" width="1.098633" height="1.098633"/>
<image xlink:href="tile89_5.png" preserveAspectRatio="none" x="13897.705078" y="-3725.463867" width="1.098633" height="1.098633"/>
<image xlink:href="tile89_3.png" preserveAspectRatio="none" x="13897.705078" y="-3727.661133" width="1.098633" height="1.098633"/>
<image xlink:href="tile89_2.png" preserveAspectRatio="none" x="13897.705078" y="-3728.759766" width="1.098633" height="1.098633"/>
<image xlink:href="tile89_1.png" preserveAspectRatio="none" x="13897.705078" y="-3729.858398" width="1.098633" height="1.098633"/>
<image xlink:href="tile90_6.png" preserveAspectRatio="none" x="13898.803711" y="-3724.365234" width="1.098633" height="1.098633"/>
<image xlink:href="tile90_3.png" preserveAspectRatio="none" x="13898.803711" y="-3727.661133" width="1.098633" height="1.098633"/>
<image xlink:href="tile90_2.png" preserveAspectRatio="none" x="13898.803711" y="-3728.759766" width="1.098633" height="1.098633"/>
<image xlink:href="tile91_6.png" preserveAspectRatio="none" x="13899.902344" y="-3724.365234" width="1.098633" height="1.098633"/>
</g>
</svg>
