<?xml version="1.0" encoding="UTF-8"?>
<svg  xmlns="http://www.w3.org/2000/svg" xmlns:xlink="http://www.w3.org/1999/xlink" xmlns:go="http://purl.org/svgmap/profile" viewBox="13900.0 -3533.3333340000004 100.0 39.58333400000029" go:dataArea="13900.0 -3533.3333340000004 100.0 39.58333400000029" >
<metadata>
 <rdf:RDF xmlns:rdf="http://www.w3.org/1999/02/22-rdf-syntax-ns#" xmlns:crs="http://opengis.org/xmldtds/transformations.dtd" xmlns:svg="http://www.w3.org/svg" >
  <rdf:Description>
   <crs:CoordinateReferenceSystem rdf:resource="http://purl.org/crs/84" svg:transform="matrix(100.0,0.0,0.0,-100.0,0.0,0.0)" />
  </rdf:Description>
 </rdf:RDF>
</metadata>
<globalCoordinateSystem srsName="http://purl.org/crs/84" transform="matrix(100.0,0.0,0.0,-100.0,0.0,0.0)" />
<g >
<image xlink:href="tile80_31.png" preserveAspectRatio="none" x="13987.792969" y="-3500.244141" width="1.098633" height="1.098633"/>
<image xlink:href="tile80_30.png" preserveAspectRatio="none" x="13987.792969" y="-3501.342773" width="1.098633" height="1.098633"/>
<image xlink:href="tile80_29.png" preserveAspectRatio="none" x="13987.792969" y="-3502.441406" width="1.098633" height="1.098633"/>
<image xlink:href="tile80_28.png" preserveAspectRatio="none" x="13987.792969" y="-3503.540039" width="1.098633" height="1.098633"/>
<image xlink:href="tile81_31.png" preserveAspectRatio="none" x="13988.891602" y="-3500.244141" width="1.098633" height="1.098633"/>
<image xlink:href="tile81_30.png" preserveAspectRatio="none" x="13988.891602" y="-3501.342773" width="1.098633" height="1.098633"/>
<image xlink:href="tile81_29.png" preserveAspectRatio="none" x="13988.891602" y="-3502.441406" width="1.098633" height="1.098633"/>
<image xlink:href="tile81_28.png" preserveAspectRatio="none" x="13988.891602" y="-3503.540039" width="1.098633" height="1.098633"/>
<image xlink:href="tile81_27.png" preserveAspectRatio="none" x="13988.891602" y="-3504.638672" width="1.098633" height="1.098633"/>
<image xlink:href="tile81_26.png" preserveAspectRatio="none" x="13988.891602" y="-3505.737305" width="1.098633" height="1.098633"/>
<image xlink:href="tile81_25.png" preserveAspectRatio="none" x="13988.891602" y="-3506.835938" width="1.098633" height="1.098633"/>
<image xlink:href="tile81_24.png" preserveAspectRatio="none" x="13988.891602" y="-3507.93457" width="1.098633" height="1.098633"/>
<image xlink:href="tile82_31.png" preserveAspectRatio="none" x="13989.990234" y="-3500.244141" width="1.098633" height="1.098633"/>
<image xlink:href="tile82_30.png" preserveAspectRatio="none" x="13989.990234" y="-3501.342773" width="1.098633" height="1.098633"/>
<image xlink:href="tile82_29.png" preserveAspectRatio="none" x="13989.990234" y="-3502.441406" width="1.098633" height="1.098633"/>
<image xlink:href="tile82_28.png" preserveAspectRatio="none" x="13989.990234" y="-3503.540039" width="1.098633" height="1.098633"/>
<image xlink:href="tile82_27.png" preserveAspectRatio="none" x="13989.990234" y="-3504.638672" width="1.098633" height="1.098633"/>
<image xlink:href="tile82_25.png" preserveAspectRatio="none" x="13989.990234" y="-3506.835938" width="1.098633" height="1.098633"/>
<image xlink:href="tile82_24.png" preserveAspectRatio="none" x="13989.990234" y="-3507.93457" width="1.098633" height="1.098633"/>
<image xlink:href="tile82_23.png" preserveAspectRatio="none" x="13989.990234" y="-3509.033203" width="1.098633" height="1.098633"/>
<image xlink:href="tile82_22.png" preserveAspectRatio="none" x="13989.990234" y="-3510.131836" width="1.098633" height="1.098633"/>
<image xlink:href="tile83_31.png" preserveAspectRatio="none" x="13991.088867" y="-3500.244141" width="1.098633" height="1.098633"/>
<image xlink:href="tile83_30.png" preserveAspectRatio="none" x="13991.088867" y="-3501.342773" width="1.098633" height="1.098633"/>
<image xlink:href="tile83_29.png" preserveAspectRatio="none" x="13991.088867" y="-3502.441406" width="1.098633" height="1.098633"/>
<image xlink:href="tile83_28.png" preserveAspectRatio="none" x="13991.088867" y="-3503.540039" width="1.098633" height="1.098633"/>
<image xlink:href="tile83_23.png" preserveAspectRatio="none" x="13991.088867" y="-3509.033203" width="1.098633" height="1.098633"/>
<image xlink:href="tile83_22.png" preserveAspectRatio="none" x="13991.088867" y="-3510.131836" width="1.098633" height="1.098633"/>
<image xlink:href="tile84_30.png" preserveAspectRatio="none" x="13992.1875" y="-3501.342773" width="1.098633" height="1.098633"/>
<image xlink:href="tile84_29.png" preserveAspectRatio="none" x="13992.1875" y="-3502.441406" width="1.098633" height="1.098633"/>
<image xlink:href="tile84_28.png" preserveAspectRatio="none" x="13992.1875" y="-3503.540039" width="1.098633" height="1.098633"/>
<image xlink:href="tile84_27.png" preserveAspectRatio="none" x="13992.1875" y="-3504.638672" width="1.098633" height="1.098633"/>
<image xlink:href="tile84_22.png" preserveAspectRatio="none" x="13992.1875" y="-3510.131836" width="1.098633" height="1.098633"/>
</g>
</svg>
