<?xml version="1.0" encoding="UTF-8"?>
<svg  xmlns="http://www.w3.org/2000/svg" xmlns:xlink="http://www.w3.org/1999/xlink" xmlns:go="http://purl.org/svgmap/profile" viewBox="13900.0 -3533.3333340000004 100.0 39.58333400000029" go:dataArea="13900.0 -3533.3333340000004 100.0 39.58333400000029" >
<metadata>
 <rdf:RDF xmlns:rdf="http://www.w3.org/1999/02/22-rdf-syntax-ns#" xmlns:crs="http://opengis.org/xmldtds/transformations.dtd" xmlns:svg="http://www.w3.org/svg" >
  <rdf:Description>
   <crs:CoordinateReferenceSystem rdf:resource="http://purl.org/crs/84" svg:transform="matrix(100.0,0.0,0.0,-100.0,0.0,0.0)" />
  </rdf:Description>
 </rdf:RDF>
</metadata>
<globalCoordinateSystem srsName="http://purl.org/crs/84" transform="matrix(100.0,0.0,0.0,-100.0,0.0,0.0)" />
<g >
<image xlink:href="tile0_13.png" preserveAspectRatio="none" x="13899.902344" y="-3520.019531" width="1.098633" height="1.098633"/>
<image xlink:href="tile0_12.png" preserveAspectRatio="none" x="13899.902344" y="-3521.118164" width="1.098633" height="1.098633"/>
<image xlink:href="tile0_11.png" preserveAspectRatio="none" x="13899.902344" y="-3522.216797" width="1.098633" height="1.098633"/>
<image xlink:href="tile0_7.png" preserveAspectRatio="none" x="13899.902344" y="-3526.611328" width="1.098633" height="1.098633"/>
<image xlink:href="tile0_6.png" preserveAspectRatio="none" x="13899.902344" y="-3527.709961" width="1.098633" height="1.098633"/>
<image xlink:href="tile1_14.png" preserveAspectRatio="none" x="13901.000977" y="-3518.920898" width="1.098633" height="1.098633"/>
<image xlink:href="tile1_13.png" preserveAspectRatio="none" x="13901.000977" y="-3520.019531" width="1.098633" height="1.098633"/>
<image xlink:href="tile1_12.png" preserveAspectRatio="none" x="13901.000977" y="-3521.118164" width="1.098633" height="1.098633"/>
<image xlink:href="tile1_11.png" preserveAspectRatio="none" x="13901.000977" y="-3522.216797" width="1.098633" height="1.098633"/>
<image xlink:href="tile1_7.png" preserveAspectRatio="none" x="13901.000977" y="-3526.611328" width="1.098633" height="1.098633"/>
<image xlink:href="tile1_6.png" preserveAspectRatio="none" x="13901.000977" y="-3527.709961" width="1.098633" height="1.098633"/>
<image xlink:href="tile2_14.png" preserveAspectRatio="none" x="13902.099609" y="-3518.920898" width="1.098633" height="1.098633"/>
<image xlink:href="tile2_13.png" preserveAspectRatio="none" x="13902.099609" y="-3520.019531" width="1.098633" height="1.098633"/>
<image xlink:href="tile2_12.png" preserveAspectRatio="none" x="13902.099609" y="-3521.118164" width="1.098633" height="1.098633"/>
<image xlink:href="tile2_7.png" preserveAspectRatio="none" x="13902.099609" y="-3526.611328" width="1.098633" height="1.098633"/>
<image xlink:href="tile3_7.png" preserveAspectRatio="none" x="13903.198242" y="-3526.611328" width="1.098633" height="1.098633"/>
<image xlink:href="tile4_8.png" preserveAspectRatio="none" x="13904.296875" y="-3525.512695" width="1.098633" height="1.098633"/>
<image xlink:href="tile4_7.png" preserveAspectRatio="none" x="13904.296875" y="-3526.611328" width="1.098633" height="1.098633"/>
<image xlink:href="tile6_18.png" preserveAspectRatio="none" x="13906.494141" y="-3514.526367" width="1.098633" height="1.098633"/>
<image xlink:href="tile6_17.png" preserveAspectRatio="none" x="13906.494141" y="-3515.625" width="1.098633" height="1.098633"/>
<image xlink:href="tile7_18.png" preserveAspectRatio="none" x="13907.592773" y="-3514.526367" width="1.098633" height="1.098633"/>
<image xlink:href="tile7_17.png" preserveAspectRatio="none" x="13907.592773" y="-3515.625" width="1.098633" height="1.098633"/>
<image xlink:href="tile8_18.png" preserveAspectRatio="none" x="13908.691406" y="-3514.526367" width="1.098633" height="1.098633"/>
<image xlink:href="tile8_10.png" preserveAspectRatio="none" x="13908.691406" y="-3523.31543" width="1.098633" height="1.098633"/>
<image xlink:href="tile8_9.png" preserveAspectRatio="none" x="13908.691406" y="-3524.414062" width="1.098633" height="1.098633"/>
<image xlink:href="tile9_18.png" preserveAspectRatio="none" x="13909.790039" y="-3514.526367" width="1.098633" height="1.098633"/>
<image xlink:href="tile9_10.png" preserveAspectRatio="none" x="13909.790039" y="-3523.31543" width="1.098633" height="1.098633"/>
<image xlink:href="tile9_9.png" preserveAspectRatio="none" x="13909.790039" y="-3524.414062" width="1.098633" height="1.098633"/>
<image xlink:href="tile10_18.png" preserveAspectRatio="none" x="13910.888672" y="-3514.526367" width="1.098633" height="1.098633"/>
<image xlink:href="tile10_17.png" preserveAspectRatio="none" x="13910.888672" y="-3515.625" width="1.098633" height="1.098633"/>
<image xlink:href="tile10_10.png" preserveAspectRatio="none" x="13910.888672" y="-3523.31543" width="1.098633" height="1.098633"/>
<image xlink:href="tile10_9.png" preserveAspectRatio="none" x="13910.888672" y="-3524.414062" width="1.098633" height="1.098633"/>
<image xlink:href="tile11_9.png" preserveAspectRatio="none" x="13911.987305" y="-3524.414062" width="1.098633" height="1.098633"/>
<image xlink:href="tile11_8.png" preserveAspectRatio="none" x="13911.987305" y="-3525.512695" width="1.098633" height="1.098633"/>
<image xlink:href="tile12_9.png" preserveAspectRatio="none" x="13913.085938" y="-3524.414062" width="1.098633" height="1.098633"/>
<image xlink:href="tile12_8.png" preserveAspectRatio="none" x="13913.085938" y="-3525.512695" width="1.098633" height="1.098633"/>
<image xlink:href="tile12_6.png" preserveAspectRatio="none" x="13913.085938" y="-3527.709961" width="1.098633" height="1.098633"/>
<image xlink:href="tile12_5.png" preserveAspectRatio="none" x="13913.085938" y="-3528.808594" width="1.098633" height="1.098633"/>
<image xlink:href="tile13_9.png" preserveAspectRatio="none" x="13914.18457" y="-3524.414062" width="1.098633" height="1.098633"/>
<image xlink:href="tile13_8.png" preserveAspectRatio="none" x="13914.18457" y="-3525.512695" width="1.098633" height="1.098633"/>
<image xlink:href="tile13_7.png" preserveAspectRatio="none" x="13914.18457" y="-3526.611328" width="1.098633" height="1.098633"/>
<image xlink:href="tile13_6.png" preserveAspectRatio="none" x="13914.18457" y="-3527.709961" width="1.098633" height="1.098633"/>
<image xlink:href="tile13_5.png" preserveAspectRatio="none" x="13914.18457" y="-3528.808594" width="1.098633" height="1.098633"/>
<image xlink:href="tile14_9.png" preserveAspectRatio="none" x="13915.283203" y="-3524.414062" width="1.098633" height="1.098633"/>
<image xlink:href="tile14_8.png" preserveAspectRatio="none" x="13915.283203" y="-3525.512695" width="1.098633" height="1.098633"/>
<image xlink:href="tile14_7.png" preserveAspectRatio="none" x="13915.283203" y="-3526.611328" width="1.098633" height="1.098633"/>
<image xlink:href="tile14_6.png" preserveAspectRatio="none" x="13915.283203" y="-3527.709961" width="1.098633" height="1.098633"/>
<image xlink:href="tile14_5.png" preserveAspectRatio="none" x="13915.283203" y="-3528.808594" width="1.098633" height="1.098633"/>
<image xlink:href="tile15_8.png" preserveAspectRatio="none" x="13916.381836" y="-3525.512695" width="1.098633" height="1.098633"/>
<image xlink:href="tile15_7.png" preserveAspectRatio="none" x="13916.381836" y="-3526.611328" width="1.098633" height="1.098633"/>
<image xlink:href="tile15_6.png" preserveAspectRatio="none" x="13916.381836" y="-3527.709961" width="1.098633" height="1.098633"/>
<image xlink:href="tile15_5.png" preserveAspectRatio="none" x="13916.381836" y="-3528.808594" width="1.098633" height="1.098633"/>
</g>
</svg>
