<?xml version="1.0" encoding="UTF-8"?>
<svg  xmlns="http://www.w3.org/2000/svg" xmlns:xlink="http://www.w3.org/1999/xlink" xmlns:go="http://purl.org/svgmap/profile" viewBox="14162.6563 -4516.791700000001 37.34369999999956 30.154200000000486" go:dataArea="14162.6563 -4516.791700000001 37.34369999999956 30.154200000000486" >
<metadata>
 <rdf:RDF xmlns:rdf="http://www.w3.org/1999/02/22-rdf-syntax-ns#" xmlns:crs="http://opengis.org/xmldtds/transformations.dtd" xmlns:svg="http://www.w3.org/svg" >
  <rdf:Description>
   <crs:CoordinateReferenceSystem rdf:resource="http://purl.org/crs/84" svg:transform="matrix(100.0,0.0,0.0,-100.0,0.0,0.0)" />
  </rdf:Description>
 </rdf:RDF>
</metadata>
<globalCoordinateSystem srsName="http://purl.org/crs/84" transform="matrix(100.0,0.0,0.0,-100.0,0.0,0.0)" />
<g >
<image xlink:href="tile5_13.png" preserveAspectRatio="none" x="14167.96875" y="-4503.295898" width="1.098633" height="1.098633"/>
<image xlink:href="tile6_16.png" preserveAspectRatio="none" x="14169.067383" y="-4500" width="1.098633" height="1.098633"/>
<image xlink:href="tile6_15.png" preserveAspectRatio="none" x="14169.067383" y="-4501.098633" width="1.098633" height="1.098633"/>
<image xlink:href="tile6_14.png" preserveAspectRatio="none" x="14169.067383" y="-4502.197266" width="1.098633" height="1.098633"/>
<image xlink:href="tile6_13.png" preserveAspectRatio="none" x="14169.067383" y="-4503.295898" width="1.098633" height="1.098633"/>
<image xlink:href="tile7_19.png" preserveAspectRatio="none" x="14170.166016" y="-4496.704102" width="1.098633" height="1.098633"/>
<image xlink:href="tile7_18.png" preserveAspectRatio="none" x="14170.166016" y="-4497.802734" width="1.098633" height="1.098633"/>
<image xlink:href="tile7_17.png" preserveAspectRatio="none" x="14170.166016" y="-4498.901367" width="1.098633" height="1.098633"/>
<image xlink:href="tile7_16.png" preserveAspectRatio="none" x="14170.166016" y="-4500" width="1.098633" height="1.098633"/>
<image xlink:href="tile7_15.png" preserveAspectRatio="none" x="14170.166016" y="-4501.098633" width="1.098633" height="1.098633"/>
<image xlink:href="tile7_14.png" preserveAspectRatio="none" x="14170.166016" y="-4502.197266" width="1.098633" height="1.098633"/>
<image xlink:href="tile7_13.png" preserveAspectRatio="none" x="14170.166016" y="-4503.295898" width="1.098633" height="1.098633"/>
<image xlink:href="tile8_20.png" preserveAspectRatio="none" x="14171.264648" y="-4495.605469" width="1.098633" height="1.098633"/>
<image xlink:href="tile8_19.png" preserveAspectRatio="none" x="14171.264648" y="-4496.704102" width="1.098633" height="1.098633"/>
<image xlink:href="tile8_18.png" preserveAspectRatio="none" x="14171.264648" y="-4497.802734" width="1.098633" height="1.098633"/>
<image xlink:href="tile8_17.png" preserveAspectRatio="none" x="14171.264648" y="-4498.901367" width="1.098633" height="1.098633"/>
<image xlink:href="tile8_16.png" preserveAspectRatio="none" x="14171.264648" y="-4500" width="1.098633" height="1.098633"/>
<image xlink:href="tile8_15.png" preserveAspectRatio="none" x="14171.264648" y="-4501.098633" width="1.098633" height="1.098633"/>
<image xlink:href="tile8_14.png" preserveAspectRatio="none" x="14171.264648" y="-4502.197266" width="1.098633" height="1.098633"/>
<image xlink:href="tile8_13.png" preserveAspectRatio="none" x="14171.264648" y="-4503.295898" width="1.098633" height="1.098633"/>
<image xlink:href="tile9_19.png" preserveAspectRatio="none" x="14172.363281" y="-4496.704102" width="1.098633" height="1.098633"/>
<image xlink:href="tile9_18.png" preserveAspectRatio="none" x="14172.363281" y="-4497.802734" width="1.098633" height="1.098633"/>
<image xlink:href="tile9_17.png" preserveAspectRatio="none" x="14172.363281" y="-4498.901367" width="1.098633" height="1.098633"/>
<image xlink:href="tile9_16.png" preserveAspectRatio="none" x="14172.363281" y="-4500" width="1.098633" height="1.098633"/>
<image xlink:href="tile9_15.png" preserveAspectRatio="none" x="14172.363281" y="-4501.098633" width="1.098633" height="1.098633"/>
<image xlink:href="tile9_14.png" preserveAspectRatio="none" x="14172.363281" y="-4502.197266" width="1.098633" height="1.098633"/>
<image xlink:href="tile9_13.png" preserveAspectRatio="none" x="14172.363281" y="-4503.295898" width="1.098633" height="1.098633"/>
<image xlink:href="tile10_27.png" preserveAspectRatio="none" x="14173.461914" y="-4487.915039" width="1.098633" height="1.098633"/>
<image xlink:href="tile10_18.png" preserveAspectRatio="none" x="14173.461914" y="-4497.802734" width="1.098633" height="1.098633"/>
<image xlink:href="tile10_17.png" preserveAspectRatio="none" x="14173.461914" y="-4498.901367" width="1.098633" height="1.098633"/>
<image xlink:href="tile10_16.png" preserveAspectRatio="none" x="14173.461914" y="-4500" width="1.098633" height="1.098633"/>
<image xlink:href="tile10_15.png" preserveAspectRatio="none" x="14173.461914" y="-4501.098633" width="1.098633" height="1.098633"/>
<image xlink:href="tile10_14.png" preserveAspectRatio="none" x="14173.461914" y="-4502.197266" width="1.098633" height="1.098633"/>
<image xlink:href="tile10_13.png" preserveAspectRatio="none" x="14173.461914" y="-4503.295898" width="1.098633" height="1.098633"/>
<image xlink:href="tile11_18.png" preserveAspectRatio="none" x="14174.560547" y="-4497.802734" width="1.098633" height="1.098633"/>
<image xlink:href="tile11_17.png" preserveAspectRatio="none" x="14174.560547" y="-4498.901367" width="1.098633" height="1.098633"/>
<image xlink:href="tile11_16.png" preserveAspectRatio="none" x="14174.560547" y="-4500" width="1.098633" height="1.098633"/>
<image xlink:href="tile11_15.png" preserveAspectRatio="none" x="14174.560547" y="-4501.098633" width="1.098633" height="1.098633"/>
<image xlink:href="tile11_14.png" preserveAspectRatio="none" x="14174.560547" y="-4502.197266" width="1.098633" height="1.098633"/>
<image xlink:href="tile11_13.png" preserveAspectRatio="none" x="14174.560547" y="-4503.295898" width="1.098633" height="1.098633"/>
<image xlink:href="tile12_17.png" preserveAspectRatio="none" x="14175.65918" y="-4498.901367" width="1.098633" height="1.098633"/>
<image xlink:href="tile12_16.png" preserveAspectRatio="none" x="14175.65918" y="-4500" width="1.098633" height="1.098633"/>
<image xlink:href="tile12_15.png" preserveAspectRatio="none" x="14175.65918" y="-4501.098633" width="1.098633" height="1.098633"/>
<image xlink:href="tile12_14.png" preserveAspectRatio="none" x="14175.65918" y="-4502.197266" width="1.098633" height="1.098633"/>
<image xlink:href="tile12_13.png" preserveAspectRatio="none" x="14175.65918" y="-4503.295898" width="1.098633" height="1.098633"/>
<image xlink:href="tile13_17.png" preserveAspectRatio="none" x="14176.757812" y="-4498.901367" width="1.098633" height="1.098633"/>
<image xlink:href="tile13_16.png" preserveAspectRatio="none" x="14176.757812" y="-4500" width="1.098633" height="1.098633"/>
<image xlink:href="tile13_15.png" preserveAspectRatio="none" x="14176.757812" y="-4501.098633" width="1.098633" height="1.098633"/>
<image xlink:href="tile13_14.png" preserveAspectRatio="none" x="14176.757812" y="-4502.197266" width="1.098633" height="1.098633"/>
<image xlink:href="tile13_13.png" preserveAspectRatio="none" x="14176.757812" y="-4503.295898" width="1.098633" height="1.098633"/>
<image xlink:href="tile14_17.png" preserveAspectRatio="none" x="14177.856445" y="-4498.901367" width="1.098633" height="1.098633"/>
<image xlink:href="tile14_16.png" preserveAspectRatio="none" x="14177.856445" y="-4500" width="1.098633" height="1.098633"/>
<image xlink:href="tile14_15.png" preserveAspectRatio="none" x="14177.856445" y="-4501.098633" width="1.098633" height="1.098633"/>
<image xlink:href="tile14_14.png" preserveAspectRatio="none" x="14177.856445" y="-4502.197266" width="1.098633" height="1.098633"/>
<image xlink:href="tile15_16.png" preserveAspectRatio="none" x="14178.955078" y="-4500" width="1.098633" height="1.098633"/>
</g>
</svg>
