<?xml version="1.0" encoding="UTF-8"?>
<svg  xmlns="http://www.w3.org/2000/svg" xmlns:xlink="http://www.w3.org/1999/xlink" xmlns:go="http://purl.org/svgmap/profile" viewBox="14100.0 -4066.666667 90.11998990000052 66.66666699999979" go:dataArea="14100.0 -4066.666667 90.11998990000052 66.66666699999979" >
<metadata>
 <rdf:RDF xmlns:rdf="http://www.w3.org/1999/02/22-rdf-syntax-ns#" xmlns:crs="http://opengis.org/xmldtds/transformations.dtd" xmlns:svg="http://www.w3.org/svg" >
  <rdf:Description>
   <crs:CoordinateReferenceSystem rdf:resource="http://purl.org/crs/84" svg:transform="matrix(100.0,0.0,0.0,-100.0,0.0,0.0)" />
  </rdf:Description>
 </rdf:RDF>
</metadata>
<globalCoordinateSystem srsName="http://purl.org/crs/84" transform="matrix(100.0,0.0,0.0,-100.0,0.0,0.0)" />
<g >
<image xlink:href="tile32_11.png" preserveAspectRatio="none" x="14135.009766" y="-4055.053711" width="1.098633" height="1.098633"/>
<image xlink:href="tile32_10.png" preserveAspectRatio="none" x="14135.009766" y="-4056.152344" width="1.098633" height="1.098633"/>
<image xlink:href="tile32_6.png" preserveAspectRatio="none" x="14135.009766" y="-4060.546875" width="1.098633" height="1.098633"/>
<image xlink:href="tile32_5.png" preserveAspectRatio="none" x="14135.009766" y="-4061.645508" width="1.098633" height="1.098633"/>
<image xlink:href="tile32_0.png" preserveAspectRatio="none" x="14135.009766" y="-4067.138672" width="1.098633" height="1.098633"/>
<image xlink:href="tile33_11.png" preserveAspectRatio="none" x="14136.108398" y="-4055.053711" width="1.098633" height="1.098633"/>
<image xlink:href="tile33_10.png" preserveAspectRatio="none" x="14136.108398" y="-4056.152344" width="1.098633" height="1.098633"/>
<image xlink:href="tile33_7.png" preserveAspectRatio="none" x="14136.108398" y="-4059.448242" width="1.098633" height="1.098633"/>
<image xlink:href="tile33_6.png" preserveAspectRatio="none" x="14136.108398" y="-4060.546875" width="1.098633" height="1.098633"/>
<image xlink:href="tile33_5.png" preserveAspectRatio="none" x="14136.108398" y="-4061.645508" width="1.098633" height="1.098633"/>
<image xlink:href="tile34_11.png" preserveAspectRatio="none" x="14137.207031" y="-4055.053711" width="1.098633" height="1.098633"/>
<image xlink:href="tile34_10.png" preserveAspectRatio="none" x="14137.207031" y="-4056.152344" width="1.098633" height="1.098633"/>
<image xlink:href="tile34_7.png" preserveAspectRatio="none" x="14137.207031" y="-4059.448242" width="1.098633" height="1.098633"/>
<image xlink:href="tile34_6.png" preserveAspectRatio="none" x="14137.207031" y="-4060.546875" width="1.098633" height="1.098633"/>
<image xlink:href="tile34_5.png" preserveAspectRatio="none" x="14137.207031" y="-4061.645508" width="1.098633" height="1.098633"/>
<image xlink:href="tile35_13.png" preserveAspectRatio="none" x="14138.305664" y="-4052.856445" width="1.098633" height="1.098633"/>
<image xlink:href="tile35_11.png" preserveAspectRatio="none" x="14138.305664" y="-4055.053711" width="1.098633" height="1.098633"/>
<image xlink:href="tile35_10.png" preserveAspectRatio="none" x="14138.305664" y="-4056.152344" width="1.098633" height="1.098633"/>
<image xlink:href="tile35_9.png" preserveAspectRatio="none" x="14138.305664" y="-4057.250977" width="1.098633" height="1.098633"/>
<image xlink:href="tile35_7.png" preserveAspectRatio="none" x="14138.305664" y="-4059.448242" width="1.098633" height="1.098633"/>
<image xlink:href="tile35_6.png" preserveAspectRatio="none" x="14138.305664" y="-4060.546875" width="1.098633" height="1.098633"/>
<image xlink:href="tile36_13.png" preserveAspectRatio="none" x="14139.404297" y="-4052.856445" width="1.098633" height="1.098633"/>
<image xlink:href="tile36_10.png" preserveAspectRatio="none" x="14139.404297" y="-4056.152344" width="1.098633" height="1.098633"/>
<image xlink:href="tile36_9.png" preserveAspectRatio="none" x="14139.404297" y="-4057.250977" width="1.098633" height="1.098633"/>
<image xlink:href="tile36_8.png" preserveAspectRatio="none" x="14139.404297" y="-4058.349609" width="1.098633" height="1.098633"/>
<image xlink:href="tile36_7.png" preserveAspectRatio="none" x="14139.404297" y="-4059.448242" width="1.098633" height="1.098633"/>
<image xlink:href="tile36_6.png" preserveAspectRatio="none" x="14139.404297" y="-4060.546875" width="1.098633" height="1.098633"/>
<image xlink:href="tile37_10.png" preserveAspectRatio="none" x="14140.50293" y="-4056.152344" width="1.098633" height="1.098633"/>
<image xlink:href="tile37_9.png" preserveAspectRatio="none" x="14140.50293" y="-4057.250977" width="1.098633" height="1.098633"/>
<image xlink:href="tile37_8.png" preserveAspectRatio="none" x="14140.50293" y="-4058.349609" width="1.098633" height="1.098633"/>
<image xlink:href="tile37_7.png" preserveAspectRatio="none" x="14140.50293" y="-4059.448242" width="1.098633" height="1.098633"/>
<image xlink:href="tile37_6.png" preserveAspectRatio="none" x="14140.50293" y="-4060.546875" width="1.098633" height="1.098633"/>
<image xlink:href="tile37_5.png" preserveAspectRatio="none" x="14140.50293" y="-4061.645508" width="1.098633" height="1.098633"/>
<image xlink:href="tile38_13.png" preserveAspectRatio="none" x="14141.601562" y="-4052.856445" width="1.098633" height="1.098633"/>
<image xlink:href="tile38_9.png" preserveAspectRatio="none" x="14141.601562" y="-4057.250977" width="1.098633" height="1.098633"/>
<image xlink:href="tile38_8.png" preserveAspectRatio="none" x="14141.601562" y="-4058.349609" width="1.098633" height="1.098633"/>
<image xlink:href="tile38_7.png" preserveAspectRatio="none" x="14141.601562" y="-4059.448242" width="1.098633" height="1.098633"/>
<image xlink:href="tile38_6.png" preserveAspectRatio="none" x="14141.601562" y="-4060.546875" width="1.098633" height="1.098633"/>
<image xlink:href="tile38_5.png" preserveAspectRatio="none" x="14141.601562" y="-4061.645508" width="1.098633" height="1.098633"/>
<image xlink:href="tile39_13.png" preserveAspectRatio="none" x="14142.700195" y="-4052.856445" width="1.098633" height="1.098633"/>
<image xlink:href="tile39_9.png" preserveAspectRatio="none" x="14142.700195" y="-4057.250977" width="1.098633" height="1.098633"/>
<image xlink:href="tile39_8.png" preserveAspectRatio="none" x="14142.700195" y="-4058.349609" width="1.098633" height="1.098633"/>
<image xlink:href="tile39_7.png" preserveAspectRatio="none" x="14142.700195" y="-4059.448242" width="1.098633" height="1.098633"/>
<image xlink:href="tile39_6.png" preserveAspectRatio="none" x="14142.700195" y="-4060.546875" width="1.098633" height="1.098633"/>
<image xlink:href="tile39_5.png" preserveAspectRatio="none" x="14142.700195" y="-4061.645508" width="1.098633" height="1.098633"/>
<image xlink:href="tile40_13.png" preserveAspectRatio="none" x="14143.798828" y="-4052.856445" width="1.098633" height="1.098633"/>
<image xlink:href="tile40_12.png" preserveAspectRatio="none" x="14143.798828" y="-4053.955078" width="1.098633" height="1.098633"/>
<image xlink:href="tile40_9.png" preserveAspectRatio="none" x="14143.798828" y="-4057.250977" width="1.098633" height="1.098633"/>
<image xlink:href="tile40_8.png" preserveAspectRatio="none" x="14143.798828" y="-4058.349609" width="1.098633" height="1.098633"/>
<image xlink:href="tile40_7.png" preserveAspectRatio="none" x="14143.798828" y="-4059.448242" width="1.098633" height="1.098633"/>
<image xlink:href="tile40_6.png" preserveAspectRatio="none" x="14143.798828" y="-4060.546875" width="1.098633" height="1.098633"/>
<image xlink:href="tile40_5.png" preserveAspectRatio="none" x="14143.798828" y="-4061.645508" width="1.098633" height="1.098633"/>
<image xlink:href="tile41_13.png" preserveAspectRatio="none" x="14144.897461" y="-4052.856445" width="1.098633" height="1.098633"/>
<image xlink:href="tile41_12.png" preserveAspectRatio="none" x="14144.897461" y="-4053.955078" width="1.098633" height="1.098633"/>
<image xlink:href="tile41_9.png" preserveAspectRatio="none" x="14144.897461" y="-4057.250977" width="1.098633" height="1.098633"/>
<image xlink:href="tile41_8.png" preserveAspectRatio="none" x="14144.897461" y="-4058.349609" width="1.098633" height="1.098633"/>
<image xlink:href="tile41_7.png" preserveAspectRatio="none" x="14144.897461" y="-4059.448242" width="1.098633" height="1.098633"/>
<image xlink:href="tile41_6.png" preserveAspectRatio="none" x="14144.897461" y="-4060.546875" width="1.098633" height="1.098633"/>
<image xlink:href="tile41_5.png" preserveAspectRatio="none" x="14144.897461" y="-4061.645508" width="1.098633" height="1.098633"/>
<image xlink:href="tile41_4.png" preserveAspectRatio="none" x="14144.897461" y="-4062.744141" width="1.098633" height="1.098633"/>
<image xlink:href="tile41_3.png" preserveAspectRatio="none" x="14144.897461" y="-4063.842773" width="1.098633" height="1.098633"/>
<image xlink:href="tile42_13.png" preserveAspectRatio="none" x="14145.996094" y="-4052.856445" width="1.098633" height="1.098633"/>
<image xlink:href="tile42_12.png" preserveAspectRatio="none" x="14145.996094" y="-4053.955078" width="1.098633" height="1.098633"/>
<image xlink:href="tile42_11.png" preserveAspectRatio="none" x="14145.996094" y="-4055.053711" width="1.098633" height="1.098633"/>
<image xlink:href="tile42_8.png" preserveAspectRatio="none" x="14145.996094" y="-4058.349609" width="1.098633" height="1.098633"/>
<image xlink:href="tile42_7.png" preserveAspectRatio="none" x="14145.996094" y="-4059.448242" width="1.098633" height="1.098633"/>
<image xlink:href="tile42_6.png" preserveAspectRatio="none" x="14145.996094" y="-4060.546875" width="1.098633" height="1.098633"/>
<image xlink:href="tile42_5.png" preserveAspectRatio="none" x="14145.996094" y="-4061.645508" width="1.098633" height="1.098633"/>
<image xlink:href="tile43_13.png" preserveAspectRatio="none" x="14147.094727" y="-4052.856445" width="1.098633" height="1.098633"/>
<image xlink:href="tile43_12.png" preserveAspectRatio="none" x="14147.094727" y="-4053.955078" width="1.098633" height="1.098633"/>
<image xlink:href="tile43_11.png" preserveAspectRatio="none" x="14147.094727" y="-4055.053711" width="1.098633" height="1.098633"/>
<image xlink:href="tile43_10.png" preserveAspectRatio="none" x="14147.094727" y="-4056.152344" width="1.098633" height="1.098633"/>
<image xlink:href="tile43_9.png" preserveAspectRatio="none" x="14147.094727" y="-4057.250977" width="1.098633" height="1.098633"/>
<image xlink:href="tile43_8.png" preserveAspectRatio="none" x="14147.094727" y="-4058.349609" width="1.098633" height="1.098633"/>
<image xlink:href="tile43_7.png" preserveAspectRatio="none" x="14147.094727" y="-4059.448242" width="1.098633" height="1.098633"/>
<image xlink:href="tile44_13.png" preserveAspectRatio="none" x="14148.193359" y="-4052.856445" width="1.098633" height="1.098633"/>
<image xlink:href="tile44_12.png" preserveAspectRatio="none" x="14148.193359" y="-4053.955078" width="1.098633" height="1.098633"/>
<image xlink:href="tile44_11.png" preserveAspectRatio="none" x="14148.193359" y="-4055.053711" width="1.098633" height="1.098633"/>
<image xlink:href="tile44_10.png" preserveAspectRatio="none" x="14148.193359" y="-4056.152344" width="1.098633" height="1.098633"/>
<image xlink:href="tile44_9.png" preserveAspectRatio="none" x="14148.193359" y="-4057.250977" width="1.098633" height="1.098633"/>
<image xlink:href="tile45_13.png" preserveAspectRatio="none" x="14149.291992" y="-4052.856445" width="1.098633" height="1.098633"/>
<image xlink:href="tile45_12.png" preserveAspectRatio="none" x="14149.291992" y="-4053.955078" width="1.098633" height="1.098633"/>
<image xlink:href="tile45_11.png" preserveAspectRatio="none" x="14149.291992" y="-4055.053711" width="1.098633" height="1.098633"/>
<image xlink:href="tile45_10.png" preserveAspectRatio="none" x="14149.291992" y="-4056.152344" width="1.098633" height="1.098633"/>
<image xlink:href="tile46_13.png" preserveAspectRatio="none" x="14150.390625" y="-4052.856445" width="1.098633" height="1.098633"/>
<image xlink:href="tile46_12.png" preserveAspectRatio="none" x="14150.390625" y="-4053.955078" width="1.098633" height="1.098633"/>
<image xlink:href="tile46_11.png" preserveAspectRatio="none" x="14150.390625" y="-4055.053711" width="1.098633" height="1.098633"/>
<image xlink:href="tile46_10.png" preserveAspectRatio="none" x="14150.390625" y="-4056.152344" width="1.098633" height="1.098633"/>
<image xlink:href="tile47_13.png" preserveAspectRatio="none" x="14151.489258" y="-4052.856445" width="1.098633" height="1.098633"/>
<image xlink:href="tile47_12.png" preserveAspectRatio="none" x="14151.489258" y="-4053.955078" width="1.098633" height="1.098633"/>
<image xlink:href="tile47_11.png" preserveAspectRatio="none" x="14151.489258" y="-4055.053711" width="1.098633" height="1.098633"/>
</g>
</svg>
