<?xml version="1.0" encoding="UTF-8"?>
<svg  xmlns="http://www.w3.org/2000/svg" xmlns:xlink="http://www.w3.org/1999/xlink" xmlns:go="http://purl.org/svgmap/profile" viewBox="14100.0 -4066.666667 90.11998990000052 66.66666699999979" go:dataArea="14100.0 -4066.666667 90.11998990000052 66.66666699999979" >
<metadata>
 <rdf:RDF xmlns:rdf="http://www.w3.org/1999/02/22-rdf-syntax-ns#" xmlns:crs="http://opengis.org/xmldtds/transformations.dtd" xmlns:svg="http://www.w3.org/svg" >
  <rdf:Description>
   <crs:CoordinateReferenceSystem rdf:resource="http://purl.org/crs/84" svg:transform="matrix(100.0,0.0,0.0,-100.0,0.0,0.0)" />
  </rdf:Description>
 </rdf:RDF>
</metadata>
<globalCoordinateSystem srsName="http://purl.org/crs/84" transform="matrix(100.0,0.0,0.0,-100.0,0.0,0.0)" />
<g >
<image xlink:href="tile16_7.png" preserveAspectRatio="none" x="14117.431641" y="-4059.448242" width="1.098633" height="1.098633"/>
<image xlink:href="tile16_6.png" preserveAspectRatio="none" x="14117.431641" y="-4060.546875" width="1.098633" height="1.098633"/>
<image xlink:href="tile17_8.png" preserveAspectRatio="none" x="14118.530273" y="-4058.349609" width="1.098633" height="1.098633"/>
<image xlink:href="tile17_7.png" preserveAspectRatio="none" x="14118.530273" y="-4059.448242" width="1.098633" height="1.098633"/>
<image xlink:href="tile17_6.png" preserveAspectRatio="none" x="14118.530273" y="-4060.546875" width="1.098633" height="1.098633"/>
<image xlink:href="tile18_8.png" preserveAspectRatio="none" x="14119.628906" y="-4058.349609" width="1.098633" height="1.098633"/>
<image xlink:href="tile18_7.png" preserveAspectRatio="none" x="14119.628906" y="-4059.448242" width="1.098633" height="1.098633"/>
<image xlink:href="tile19_8.png" preserveAspectRatio="none" x="14120.727539" y="-4058.349609" width="1.098633" height="1.098633"/>
<image xlink:href="tile19_7.png" preserveAspectRatio="none" x="14120.727539" y="-4059.448242" width="1.098633" height="1.098633"/>
<image xlink:href="tile20_8.png" preserveAspectRatio="none" x="14121.826172" y="-4058.349609" width="1.098633" height="1.098633"/>
<image xlink:href="tile20_7.png" preserveAspectRatio="none" x="14121.826172" y="-4059.448242" width="1.098633" height="1.098633"/>
<image xlink:href="tile21_8.png" preserveAspectRatio="none" x="14122.924805" y="-4058.349609" width="1.098633" height="1.098633"/>
<image xlink:href="tile21_7.png" preserveAspectRatio="none" x="14122.924805" y="-4059.448242" width="1.098633" height="1.098633"/>
<image xlink:href="tile22_8.png" preserveAspectRatio="none" x="14124.023438" y="-4058.349609" width="1.098633" height="1.098633"/>
<image xlink:href="tile22_7.png" preserveAspectRatio="none" x="14124.023438" y="-4059.448242" width="1.098633" height="1.098633"/>
<image xlink:href="tile23_7.png" preserveAspectRatio="none" x="14125.12207" y="-4059.448242" width="1.098633" height="1.098633"/>
<image xlink:href="tile24_13.png" preserveAspectRatio="none" x="14126.220703" y="-4052.856445" width="1.098633" height="1.098633"/>
<image xlink:href="tile24_7.png" preserveAspectRatio="none" x="14126.220703" y="-4059.448242" width="1.098633" height="1.098633"/>
<image xlink:href="tile24_6.png" preserveAspectRatio="none" x="14126.220703" y="-4060.546875" width="1.098633" height="1.098633"/>
<image xlink:href="tile25_13.png" preserveAspectRatio="none" x="14127.319336" y="-4052.856445" width="1.098633" height="1.098633"/>
<image xlink:href="tile25_7.png" preserveAspectRatio="none" x="14127.319336" y="-4059.448242" width="1.098633" height="1.098633"/>
<image xlink:href="tile25_6.png" preserveAspectRatio="none" x="14127.319336" y="-4060.546875" width="1.098633" height="1.098633"/>
<image xlink:href="tile26_13.png" preserveAspectRatio="none" x="14128.417969" y="-4052.856445" width="1.098633" height="1.098633"/>
<image xlink:href="tile26_7.png" preserveAspectRatio="none" x="14128.417969" y="-4059.448242" width="1.098633" height="1.098633"/>
<image xlink:href="tile26_6.png" preserveAspectRatio="none" x="14128.417969" y="-4060.546875" width="1.098633" height="1.098633"/>
<image xlink:href="tile27_13.png" preserveAspectRatio="none" x="14129.516602" y="-4052.856445" width="1.098633" height="1.098633"/>
<image xlink:href="tile27_12.png" preserveAspectRatio="none" x="14129.516602" y="-4053.955078" width="1.098633" height="1.098633"/>
<image xlink:href="tile27_7.png" preserveAspectRatio="none" x="14129.516602" y="-4059.448242" width="1.098633" height="1.098633"/>
<image xlink:href="tile27_6.png" preserveAspectRatio="none" x="14129.516602" y="-4060.546875" width="1.098633" height="1.098633"/>
<image xlink:href="tile28_12.png" preserveAspectRatio="none" x="14130.615234" y="-4053.955078" width="1.098633" height="1.098633"/>
<image xlink:href="tile28_11.png" preserveAspectRatio="none" x="14130.615234" y="-4055.053711" width="1.098633" height="1.098633"/>
<image xlink:href="tile28_7.png" preserveAspectRatio="none" x="14130.615234" y="-4059.448242" width="1.098633" height="1.098633"/>
<image xlink:href="tile28_6.png" preserveAspectRatio="none" x="14130.615234" y="-4060.546875" width="1.098633" height="1.098633"/>
<image xlink:href="tile29_12.png" preserveAspectRatio="none" x="14131.713867" y="-4053.955078" width="1.098633" height="1.098633"/>
<image xlink:href="tile29_11.png" preserveAspectRatio="none" x="14131.713867" y="-4055.053711" width="1.098633" height="1.098633"/>
<image xlink:href="tile29_7.png" preserveAspectRatio="none" x="14131.713867" y="-4059.448242" width="1.098633" height="1.098633"/>
<image xlink:href="tile29_6.png" preserveAspectRatio="none" x="14131.713867" y="-4060.546875" width="1.098633" height="1.098633"/>
<image xlink:href="tile30_12.png" preserveAspectRatio="none" x="14132.8125" y="-4053.955078" width="1.098633" height="1.098633"/>
<image xlink:href="tile30_11.png" preserveAspectRatio="none" x="14132.8125" y="-4055.053711" width="1.098633" height="1.098633"/>
<image xlink:href="tile30_6.png" preserveAspectRatio="none" x="14132.8125" y="-4060.546875" width="1.098633" height="1.098633"/>
<image xlink:href="tile31_11.png" preserveAspectRatio="none" x="14133.911133" y="-4055.053711" width="1.098633" height="1.098633"/>
<image xlink:href="tile31_10.png" preserveAspectRatio="none" x="14133.911133" y="-4056.152344" width="1.098633" height="1.098633"/>
<image xlink:href="tile31_6.png" preserveAspectRatio="none" x="14133.911133" y="-4060.546875" width="1.098633" height="1.098633"/>
<image xlink:href="tile31_5.png" preserveAspectRatio="none" x="14133.911133" y="-4061.645508" width="1.098633" height="1.098633"/>
</g>
</svg>
