<?xml version="1.0" encoding="UTF-8"?>
<svg  xmlns="http://www.w3.org/2000/svg" xmlns:xlink="http://www.w3.org/1999/xlink" xmlns:go="http://purl.org/svgmap/profile" viewBox="14100.0 -4066.666667 90.11998990000052 66.66666699999979" go:dataArea="14100.0 -4066.666667 90.11998990000052 66.66666699999979" >
<metadata>
 <rdf:RDF xmlns:rdf="http://www.w3.org/1999/02/22-rdf-syntax-ns#" xmlns:crs="http://opengis.org/xmldtds/transformations.dtd" xmlns:svg="http://www.w3.org/svg" >
  <rdf:Description>
   <crs:CoordinateReferenceSystem rdf:resource="http://purl.org/crs/84" svg:transform="matrix(100.0,0.0,0.0,-100.0,0.0,0.0)" />
  </rdf:Description>
 </rdf:RDF>
</metadata>
<globalCoordinateSystem srsName="http://purl.org/crs/84" transform="matrix(100.0,0.0,0.0,-100.0,0.0,0.0)" />
<g >
<image xlink:href="tile16_29.png" preserveAspectRatio="none" x="14117.431641" y="-4035.27832" width="1.098633" height="1.098633"/>
<image xlink:href="tile16_28.png" preserveAspectRatio="none" x="14117.431641" y="-4036.376953" width="1.098633" height="1.098633"/>
<image xlink:href="tile16_18.png" preserveAspectRatio="none" x="14117.431641" y="-4047.363281" width="1.098633" height="1.098633"/>
<image xlink:href="tile17_28.png" preserveAspectRatio="none" x="14118.530273" y="-4036.376953" width="1.098633" height="1.098633"/>
<image xlink:href="tile17_21.png" preserveAspectRatio="none" x="14118.530273" y="-4044.067383" width="1.098633" height="1.098633"/>
<image xlink:href="tile17_18.png" preserveAspectRatio="none" x="14118.530273" y="-4047.363281" width="1.098633" height="1.098633"/>
<image xlink:href="tile18_29.png" preserveAspectRatio="none" x="14119.628906" y="-4035.27832" width="1.098633" height="1.098633"/>
<image xlink:href="tile18_28.png" preserveAspectRatio="none" x="14119.628906" y="-4036.376953" width="1.098633" height="1.098633"/>
<image xlink:href="tile18_21.png" preserveAspectRatio="none" x="14119.628906" y="-4044.067383" width="1.098633" height="1.098633"/>
<image xlink:href="tile18_20.png" preserveAspectRatio="none" x="14119.628906" y="-4045.166016" width="1.098633" height="1.098633"/>
<image xlink:href="tile18_18.png" preserveAspectRatio="none" x="14119.628906" y="-4047.363281" width="1.098633" height="1.098633"/>
<image xlink:href="tile18_17.png" preserveAspectRatio="none" x="14119.628906" y="-4048.461914" width="1.098633" height="1.098633"/>
<image xlink:href="tile19_28.png" preserveAspectRatio="none" x="14120.727539" y="-4036.376953" width="1.098633" height="1.098633"/>
<image xlink:href="tile19_20.png" preserveAspectRatio="none" x="14120.727539" y="-4045.166016" width="1.098633" height="1.098633"/>
<image xlink:href="tile19_17.png" preserveAspectRatio="none" x="14120.727539" y="-4048.461914" width="1.098633" height="1.098633"/>
<image xlink:href="tile20_28.png" preserveAspectRatio="none" x="14121.826172" y="-4036.376953" width="1.098633" height="1.098633"/>
<image xlink:href="tile20_20.png" preserveAspectRatio="none" x="14121.826172" y="-4045.166016" width="1.098633" height="1.098633"/>
<image xlink:href="tile20_17.png" preserveAspectRatio="none" x="14121.826172" y="-4048.461914" width="1.098633" height="1.098633"/>
<image xlink:href="tile20_16.png" preserveAspectRatio="none" x="14121.826172" y="-4049.560547" width="1.098633" height="1.098633"/>
<image xlink:href="tile21_28.png" preserveAspectRatio="none" x="14122.924805" y="-4036.376953" width="1.098633" height="1.098633"/>
<image xlink:href="tile21_27.png" preserveAspectRatio="none" x="14122.924805" y="-4037.475586" width="1.098633" height="1.098633"/>
<image xlink:href="tile21_20.png" preserveAspectRatio="none" x="14122.924805" y="-4045.166016" width="1.098633" height="1.098633"/>
<image xlink:href="tile21_17.png" preserveAspectRatio="none" x="14122.924805" y="-4048.461914" width="1.098633" height="1.098633"/>
<image xlink:href="tile21_16.png" preserveAspectRatio="none" x="14122.924805" y="-4049.560547" width="1.098633" height="1.098633"/>
<image xlink:href="tile22_27.png" preserveAspectRatio="none" x="14124.023438" y="-4037.475586" width="1.098633" height="1.098633"/>
<image xlink:href="tile22_26.png" preserveAspectRatio="none" x="14124.023438" y="-4038.574219" width="1.098633" height="1.098633"/>
<image xlink:href="tile22_20.png" preserveAspectRatio="none" x="14124.023438" y="-4045.166016" width="1.098633" height="1.098633"/>
<image xlink:href="tile22_16.png" preserveAspectRatio="none" x="14124.023438" y="-4049.560547" width="1.098633" height="1.098633"/>
<image xlink:href="tile22_15.png" preserveAspectRatio="none" x="14124.023438" y="-4050.65918" width="1.098633" height="1.098633"/>
<image xlink:href="tile23_29.png" preserveAspectRatio="none" x="14125.12207" y="-4035.27832" width="1.098633" height="1.098633"/>
<image xlink:href="tile23_26.png" preserveAspectRatio="none" x="14125.12207" y="-4038.574219" width="1.098633" height="1.098633"/>
<image xlink:href="tile23_25.png" preserveAspectRatio="none" x="14125.12207" y="-4039.672852" width="1.098633" height="1.098633"/>
<image xlink:href="tile23_23.png" preserveAspectRatio="none" x="14125.12207" y="-4041.870117" width="1.098633" height="1.098633"/>
<image xlink:href="tile23_20.png" preserveAspectRatio="none" x="14125.12207" y="-4045.166016" width="1.098633" height="1.098633"/>
<image xlink:href="tile23_19.png" preserveAspectRatio="none" x="14125.12207" y="-4046.264648" width="1.098633" height="1.098633"/>
<image xlink:href="tile23_15.png" preserveAspectRatio="none" x="14125.12207" y="-4050.65918" width="1.098633" height="1.098633"/>
<image xlink:href="tile23_14.png" preserveAspectRatio="none" x="14125.12207" y="-4051.757812" width="1.098633" height="1.098633"/>
<image xlink:href="tile24_29.png" preserveAspectRatio="none" x="14126.220703" y="-4035.27832" width="1.098633" height="1.098633"/>
<image xlink:href="tile24_26.png" preserveAspectRatio="none" x="14126.220703" y="-4038.574219" width="1.098633" height="1.098633"/>
<image xlink:href="tile24_25.png" preserveAspectRatio="none" x="14126.220703" y="-4039.672852" width="1.098633" height="1.098633"/>
<image xlink:href="tile24_24.png" preserveAspectRatio="none" x="14126.220703" y="-4040.771484" width="1.098633" height="1.098633"/>
<image xlink:href="tile24_23.png" preserveAspectRatio="none" x="14126.220703" y="-4041.870117" width="1.098633" height="1.098633"/>
<image xlink:href="tile24_19.png" preserveAspectRatio="none" x="14126.220703" y="-4046.264648" width="1.098633" height="1.098633"/>
<image xlink:href="tile24_15.png" preserveAspectRatio="none" x="14126.220703" y="-4050.65918" width="1.098633" height="1.098633"/>
<image xlink:href="tile24_14.png" preserveAspectRatio="none" x="14126.220703" y="-4051.757812" width="1.098633" height="1.098633"/>
<image xlink:href="tile25_29.png" preserveAspectRatio="none" x="14127.319336" y="-4035.27832" width="1.098633" height="1.098633"/>
<image xlink:href="tile25_26.png" preserveAspectRatio="none" x="14127.319336" y="-4038.574219" width="1.098633" height="1.098633"/>
<image xlink:href="tile25_25.png" preserveAspectRatio="none" x="14127.319336" y="-4039.672852" width="1.098633" height="1.098633"/>
<image xlink:href="tile25_24.png" preserveAspectRatio="none" x="14127.319336" y="-4040.771484" width="1.098633" height="1.098633"/>
<image xlink:href="tile25_23.png" preserveAspectRatio="none" x="14127.319336" y="-4041.870117" width="1.098633" height="1.098633"/>
<image xlink:href="tile25_19.png" preserveAspectRatio="none" x="14127.319336" y="-4046.264648" width="1.098633" height="1.098633"/>
<image xlink:href="tile25_18.png" preserveAspectRatio="none" x="14127.319336" y="-4047.363281" width="1.098633" height="1.098633"/>
<image xlink:href="tile25_14.png" preserveAspectRatio="none" x="14127.319336" y="-4051.757812" width="1.098633" height="1.098633"/>
<image xlink:href="tile26_29.png" preserveAspectRatio="none" x="14128.417969" y="-4035.27832" width="1.098633" height="1.098633"/>
<image xlink:href="tile26_28.png" preserveAspectRatio="none" x="14128.417969" y="-4036.376953" width="1.098633" height="1.098633"/>
<image xlink:href="tile26_24.png" preserveAspectRatio="none" x="14128.417969" y="-4040.771484" width="1.098633" height="1.098633"/>
<image xlink:href="tile26_23.png" preserveAspectRatio="none" x="14128.417969" y="-4041.870117" width="1.098633" height="1.098633"/>
<image xlink:href="tile26_22.png" preserveAspectRatio="none" x="14128.417969" y="-4042.96875" width="1.098633" height="1.098633"/>
<image xlink:href="tile26_18.png" preserveAspectRatio="none" x="14128.417969" y="-4047.363281" width="1.098633" height="1.098633"/>
<image xlink:href="tile27_23.png" preserveAspectRatio="none" x="14129.516602" y="-4041.870117" width="1.098633" height="1.098633"/>
<image xlink:href="tile27_18.png" preserveAspectRatio="none" x="14129.516602" y="-4047.363281" width="1.098633" height="1.098633"/>
<image xlink:href="tile27_17.png" preserveAspectRatio="none" x="14129.516602" y="-4048.461914" width="1.098633" height="1.098633"/>
<image xlink:href="tile28_23.png" preserveAspectRatio="none" x="14130.615234" y="-4041.870117" width="1.098633" height="1.098633"/>
<image xlink:href="tile28_22.png" preserveAspectRatio="none" x="14130.615234" y="-4042.96875" width="1.098633" height="1.098633"/>
<image xlink:href="tile28_21.png" preserveAspectRatio="none" x="14130.615234" y="-4044.067383" width="1.098633" height="1.098633"/>
<image xlink:href="tile28_17.png" preserveAspectRatio="none" x="14130.615234" y="-4048.461914" width="1.098633" height="1.098633"/>
<image xlink:href="tile28_16.png" preserveAspectRatio="none" x="14130.615234" y="-4049.560547" width="1.098633" height="1.098633"/>
<image xlink:href="tile29_23.png" preserveAspectRatio="none" x="14131.713867" y="-4041.870117" width="1.098633" height="1.098633"/>
<image xlink:href="tile29_22.png" preserveAspectRatio="none" x="14131.713867" y="-4042.96875" width="1.098633" height="1.098633"/>
<image xlink:href="tile29_21.png" preserveAspectRatio="none" x="14131.713867" y="-4044.067383" width="1.098633" height="1.098633"/>
<image xlink:href="tile29_16.png" preserveAspectRatio="none" x="14131.713867" y="-4049.560547" width="1.098633" height="1.098633"/>
<image xlink:href="tile30_22.png" preserveAspectRatio="none" x="14132.8125" y="-4042.96875" width="1.098633" height="1.098633"/>
<image xlink:href="tile30_21.png" preserveAspectRatio="none" x="14132.8125" y="-4044.067383" width="1.098633" height="1.098633"/>
<image xlink:href="tile30_20.png" preserveAspectRatio="none" x="14132.8125" y="-4045.166016" width="1.098633" height="1.098633"/>
<image xlink:href="tile30_16.png" preserveAspectRatio="none" x="14132.8125" y="-4049.560547" width="1.098633" height="1.098633"/>
<image xlink:href="tile31_22.png" preserveAspectRatio="none" x="14133.911133" y="-4042.96875" width="1.098633" height="1.098633"/>
<image xlink:href="tile31_21.png" preserveAspectRatio="none" x="14133.911133" y="-4044.067383" width="1.098633" height="1.098633"/>
<image xlink:href="tile31_20.png" preserveAspectRatio="none" x="14133.911133" y="-4045.166016" width="1.098633" height="1.098633"/>
<image xlink:href="tile31_19.png" preserveAspectRatio="none" x="14133.911133" y="-4046.264648" width="1.098633" height="1.098633"/>
<image xlink:href="tile31_16.png" preserveAspectRatio="none" x="14133.911133" y="-4049.560547" width="1.098633" height="1.098633"/>
<image xlink:href="tile31_15.png" preserveAspectRatio="none" x="14133.911133" y="-4050.65918" width="1.098633" height="1.098633"/>
</g>
</svg>
