<?xml version="1.0" encoding="UTF-8"?>
<svg  xmlns="http://www.w3.org/2000/svg" xmlns:xlink="http://www.w3.org/1999/xlink" xmlns:go="http://purl.org/svgmap/profile" viewBox="13700.0 -3710.4207172 100.0 37.48331210000018" go:dataArea="13700.0 -3710.4207172 100.0 37.48331210000018" >
<metadata>
 <rdf:RDF xmlns:rdf="http://www.w3.org/1999/02/22-rdf-syntax-ns#" xmlns:crs="http://opengis.org/xmldtds/transformations.dtd" xmlns:svg="http://www.w3.org/svg" >
  <rdf:Description>
   <crs:CoordinateReferenceSystem rdf:resource="http://purl.org/crs/84" svg:transform="matrix(100.0,0.0,0.0,-100.0,0.0,0.0)" />
  </rdf:Description>
 </rdf:RDF>
</metadata>
<globalCoordinateSystem srsName="http://purl.org/crs/84" transform="matrix(100.0,0.0,0.0,-100.0,0.0,0.0)" />
<g >
<image xlink:href="tile64_12.png" preserveAspectRatio="none" x="13770.263672" y="-3697.998047" width="1.098633" height="1.098633"/>
<image xlink:href="tile65_11.png" preserveAspectRatio="none" x="13771.362305" y="-3699.09668" width="1.098633" height="1.098633"/>
<image xlink:href="tile65_10.png" preserveAspectRatio="none" x="13771.362305" y="-3700.195312" width="1.098633" height="1.098633"/>
<image xlink:href="tile66_11.png" preserveAspectRatio="none" x="13772.460938" y="-3699.09668" width="1.098633" height="1.098633"/>
<image xlink:href="tile66_10.png" preserveAspectRatio="none" x="13772.460938" y="-3700.195312" width="1.098633" height="1.098633"/>
<image xlink:href="tile66_9.png" preserveAspectRatio="none" x="13772.460938" y="-3701.293945" width="1.098633" height="1.098633"/>
<image xlink:href="tile67_16.png" preserveAspectRatio="none" x="13773.55957" y="-3693.603516" width="1.098633" height="1.098633"/>
<image xlink:href="tile67_15.png" preserveAspectRatio="none" x="13773.55957" y="-3694.702148" width="1.098633" height="1.098633"/>
<image xlink:href="tile67_10.png" preserveAspectRatio="none" x="13773.55957" y="-3700.195312" width="1.098633" height="1.098633"/>
<image xlink:href="tile67_9.png" preserveAspectRatio="none" x="13773.55957" y="-3701.293945" width="1.098633" height="1.098633"/>
<image xlink:href="tile68_16.png" preserveAspectRatio="none" x="13774.658203" y="-3693.603516" width="1.098633" height="1.098633"/>
<image xlink:href="tile68_15.png" preserveAspectRatio="none" x="13774.658203" y="-3694.702148" width="1.098633" height="1.098633"/>
<image xlink:href="tile68_14.png" preserveAspectRatio="none" x="13774.658203" y="-3695.800781" width="1.098633" height="1.098633"/>
<image xlink:href="tile68_13.png" preserveAspectRatio="none" x="13774.658203" y="-3696.899414" width="1.098633" height="1.098633"/>
<image xlink:href="tile69_18.png" preserveAspectRatio="none" x="13775.756836" y="-3691.40625" width="1.098633" height="1.098633"/>
<image xlink:href="tile69_15.png" preserveAspectRatio="none" x="13775.756836" y="-3694.702148" width="1.098633" height="1.098633"/>
<image xlink:href="tile69_14.png" preserveAspectRatio="none" x="13775.756836" y="-3695.800781" width="1.098633" height="1.098633"/>
<image xlink:href="tile69_13.png" preserveAspectRatio="none" x="13775.756836" y="-3696.899414" width="1.098633" height="1.098633"/>
<image xlink:href="tile69_12.png" preserveAspectRatio="none" x="13775.756836" y="-3697.998047" width="1.098633" height="1.098633"/>
<image xlink:href="tile69_11.png" preserveAspectRatio="none" x="13775.756836" y="-3699.09668" width="1.098633" height="1.098633"/>
<image xlink:href="tile70_18.png" preserveAspectRatio="none" x="13776.855469" y="-3691.40625" width="1.098633" height="1.098633"/>
<image xlink:href="tile70_11.png" preserveAspectRatio="none" x="13776.855469" y="-3699.09668" width="1.098633" height="1.098633"/>
<image xlink:href="tile70_10.png" preserveAspectRatio="none" x="13776.855469" y="-3700.195312" width="1.098633" height="1.098633"/>
<image xlink:href="tile71_18.png" preserveAspectRatio="none" x="13777.954102" y="-3691.40625" width="1.098633" height="1.098633"/>
<image xlink:href="tile71_17.png" preserveAspectRatio="none" x="13777.954102" y="-3692.504883" width="1.098633" height="1.098633"/>
<image xlink:href="tile71_10.png" preserveAspectRatio="none" x="13777.954102" y="-3700.195312" width="1.098633" height="1.098633"/>
<image xlink:href="tile71_9.png" preserveAspectRatio="none" x="13777.954102" y="-3701.293945" width="1.098633" height="1.098633"/>
<image xlink:href="tile71_8.png" preserveAspectRatio="none" x="13777.954102" y="-3702.392578" width="1.098633" height="1.098633"/>
<image xlink:href="tile72_18.png" preserveAspectRatio="none" x="13779.052734" y="-3691.40625" width="1.098633" height="1.098633"/>
<image xlink:href="tile72_17.png" preserveAspectRatio="none" x="13779.052734" y="-3692.504883" width="1.098633" height="1.098633"/>
<image xlink:href="tile72_9.png" preserveAspectRatio="none" x="13779.052734" y="-3701.293945" width="1.098633" height="1.098633"/>
<image xlink:href="tile72_8.png" preserveAspectRatio="none" x="13779.052734" y="-3702.392578" width="1.098633" height="1.098633"/>
<image xlink:href="tile72_7.png" preserveAspectRatio="none" x="13779.052734" y="-3703.491211" width="1.098633" height="1.098633"/>
<image xlink:href="tile73_17.png" preserveAspectRatio="none" x="13780.151367" y="-3692.504883" width="1.098633" height="1.098633"/>
<image xlink:href="tile73_16.png" preserveAspectRatio="none" x="13780.151367" y="-3693.603516" width="1.098633" height="1.098633"/>
<image xlink:href="tile73_10.png" preserveAspectRatio="none" x="13780.151367" y="-3700.195312" width="1.098633" height="1.098633"/>
<image xlink:href="tile73_9.png" preserveAspectRatio="none" x="13780.151367" y="-3701.293945" width="1.098633" height="1.098633"/>
<image xlink:href="tile73_8.png" preserveAspectRatio="none" x="13780.151367" y="-3702.392578" width="1.098633" height="1.098633"/>
<image xlink:href="tile73_7.png" preserveAspectRatio="none" x="13780.151367" y="-3703.491211" width="1.098633" height="1.098633"/>
<image xlink:href="tile74_17.png" preserveAspectRatio="none" x="13781.25" y="-3692.504883" width="1.098633" height="1.098633"/>
<image xlink:href="tile74_16.png" preserveAspectRatio="none" x="13781.25" y="-3693.603516" width="1.098633" height="1.098633"/>
<image xlink:href="tile74_9.png" preserveAspectRatio="none" x="13781.25" y="-3701.293945" width="1.098633" height="1.098633"/>
<image xlink:href="tile74_8.png" preserveAspectRatio="none" x="13781.25" y="-3702.392578" width="1.098633" height="1.098633"/>
<image xlink:href="tile74_7.png" preserveAspectRatio="none" x="13781.25" y="-3703.491211" width="1.098633" height="1.098633"/>
<image xlink:href="tile75_16.png" preserveAspectRatio="none" x="13782.348633" y="-3693.603516" width="1.098633" height="1.098633"/>
<image xlink:href="tile75_7.png" preserveAspectRatio="none" x="13782.348633" y="-3703.491211" width="1.098633" height="1.098633"/>
<image xlink:href="tile75_6.png" preserveAspectRatio="none" x="13782.348633" y="-3704.589844" width="1.098633" height="1.098633"/>
<image xlink:href="tile76_17.png" preserveAspectRatio="none" x="13783.447266" y="-3692.504883" width="1.098633" height="1.098633"/>
<image xlink:href="tile76_16.png" preserveAspectRatio="none" x="13783.447266" y="-3693.603516" width="1.098633" height="1.098633"/>
<image xlink:href="tile76_15.png" preserveAspectRatio="none" x="13783.447266" y="-3694.702148" width="1.098633" height="1.098633"/>
<image xlink:href="tile76_13.png" preserveAspectRatio="none" x="13783.447266" y="-3696.899414" width="1.098633" height="1.098633"/>
<image xlink:href="tile76_12.png" preserveAspectRatio="none" x="13783.447266" y="-3697.998047" width="1.098633" height="1.098633"/>
<image xlink:href="tile76_8.png" preserveAspectRatio="none" x="13783.447266" y="-3702.392578" width="1.098633" height="1.098633"/>
<image xlink:href="tile76_7.png" preserveAspectRatio="none" x="13783.447266" y="-3703.491211" width="1.098633" height="1.098633"/>
<image xlink:href="tile77_17.png" preserveAspectRatio="none" x="13784.545898" y="-3692.504883" width="1.098633" height="1.098633"/>
<image xlink:href="tile77_16.png" preserveAspectRatio="none" x="13784.545898" y="-3693.603516" width="1.098633" height="1.098633"/>
<image xlink:href="tile77_15.png" preserveAspectRatio="none" x="13784.545898" y="-3694.702148" width="1.098633" height="1.098633"/>
<image xlink:href="tile77_13.png" preserveAspectRatio="none" x="13784.545898" y="-3696.899414" width="1.098633" height="1.098633"/>
<image xlink:href="tile77_12.png" preserveAspectRatio="none" x="13784.545898" y="-3697.998047" width="1.098633" height="1.098633"/>
<image xlink:href="tile77_11.png" preserveAspectRatio="none" x="13784.545898" y="-3699.09668" width="1.098633" height="1.098633"/>
<image xlink:href="tile77_10.png" preserveAspectRatio="none" x="13784.545898" y="-3700.195312" width="1.098633" height="1.098633"/>
<image xlink:href="tile77_9.png" preserveAspectRatio="none" x="13784.545898" y="-3701.293945" width="1.098633" height="1.098633"/>
<image xlink:href="tile77_8.png" preserveAspectRatio="none" x="13784.545898" y="-3702.392578" width="1.098633" height="1.098633"/>
<image xlink:href="tile77_7.png" preserveAspectRatio="none" x="13784.545898" y="-3703.491211" width="1.098633" height="1.098633"/>
<image xlink:href="tile77_6.png" preserveAspectRatio="none" x="13784.545898" y="-3704.589844" width="1.098633" height="1.098633"/>
<image xlink:href="tile78_13.png" preserveAspectRatio="none" x="13785.644531" y="-3696.899414" width="1.098633" height="1.098633"/>
<image xlink:href="tile78_12.png" preserveAspectRatio="none" x="13785.644531" y="-3697.998047" width="1.098633" height="1.098633"/>
<image xlink:href="tile78_11.png" preserveAspectRatio="none" x="13785.644531" y="-3699.09668" width="1.098633" height="1.098633"/>
<image xlink:href="tile78_10.png" preserveAspectRatio="none" x="13785.644531" y="-3700.195312" width="1.098633" height="1.098633"/>
<image xlink:href="tile78_9.png" preserveAspectRatio="none" x="13785.644531" y="-3701.293945" width="1.098633" height="1.098633"/>
<image xlink:href="tile78_8.png" preserveAspectRatio="none" x="13785.644531" y="-3702.392578" width="1.098633" height="1.098633"/>
<image xlink:href="tile78_7.png" preserveAspectRatio="none" x="13785.644531" y="-3703.491211" width="1.098633" height="1.098633"/>
<image xlink:href="tile78_6.png" preserveAspectRatio="none" x="13785.644531" y="-3704.589844" width="1.098633" height="1.098633"/>
<image xlink:href="tile78_5.png" preserveAspectRatio="none" x="13785.644531" y="-3705.688477" width="1.098633" height="1.098633"/>
<image xlink:href="tile79_13.png" preserveAspectRatio="none" x="13786.743164" y="-3696.899414" width="1.098633" height="1.098633"/>
<image xlink:href="tile79_12.png" preserveAspectRatio="none" x="13786.743164" y="-3697.998047" width="1.098633" height="1.098633"/>
<image xlink:href="tile79_10.png" preserveAspectRatio="none" x="13786.743164" y="-3700.195312" width="1.098633" height="1.098633"/>
<image xlink:href="tile79_9.png" preserveAspectRatio="none" x="13786.743164" y="-3701.293945" width="1.098633" height="1.098633"/>
<image xlink:href="tile79_8.png" preserveAspectRatio="none" x="13786.743164" y="-3702.392578" width="1.098633" height="1.098633"/>
<image xlink:href="tile79_6.png" preserveAspectRatio="none" x="13786.743164" y="-3704.589844" width="1.098633" height="1.098633"/>
<image xlink:href="tile79_5.png" preserveAspectRatio="none" x="13786.743164" y="-3705.688477" width="1.098633" height="1.098633"/>
</g>
</svg>
