<?xml version="1.0" encoding="UTF-8"?>
<svg  xmlns="http://www.w3.org/2000/svg" xmlns:xlink="http://www.w3.org/1999/xlink" xmlns:go="http://purl.org/svgmap/profile" viewBox="14165.131249999999 -4429.5333333 18.02500000000009 12.783333300000521" go:dataArea="14165.131249999999 -4429.5333333 18.02500000000009 12.783333300000521" >
<metadata>
 <rdf:RDF xmlns:rdf="http://www.w3.org/1999/02/22-rdf-syntax-ns#" xmlns:crs="http://opengis.org/xmldtds/transformations.dtd" xmlns:svg="http://www.w3.org/svg" >
  <rdf:Description>
   <crs:CoordinateReferenceSystem rdf:resource="http://purl.org/crs/84" svg:transform="matrix(100.0,0.0,0.0,-100.0,0.0,0.0)" />
  </rdf:Description>
 </rdf:RDF>
</metadata>
<globalCoordinateSystem srsName="http://purl.org/crs/84" transform="matrix(100.0,0.0,0.0,-100.0,0.0,0.0)" />
<g >
<image xlink:href="tile0_3.png" preserveAspectRatio="none" x="14164.672852" y="-4426.391602" width="1.098633" height="1.098633"/>
<image xlink:href="tile0_2.png" preserveAspectRatio="none" x="14164.672852" y="-4427.490234" width="1.098633" height="1.098633"/>
<image xlink:href="tile0_1.png" preserveAspectRatio="none" x="14164.672852" y="-4428.588867" width="1.098633" height="1.098633"/>
<image xlink:href="tile1_2.png" preserveAspectRatio="none" x="14165.771484" y="-4427.490234" width="1.098633" height="1.098633"/>
<image xlink:href="tile1_1.png" preserveAspectRatio="none" x="14165.771484" y="-4428.588867" width="1.098633" height="1.098633"/>
<image xlink:href="tile2_2.png" preserveAspectRatio="none" x="14166.870117" y="-4427.490234" width="1.098633" height="1.098633"/>
<image xlink:href="tile2_1.png" preserveAspectRatio="none" x="14166.870117" y="-4428.588867" width="1.098633" height="1.098633"/>
<image xlink:href="tile2_0.png" preserveAspectRatio="none" x="14166.870117" y="-4429.6875" width="1.098633" height="1.098633"/>
<image xlink:href="tile3_2.png" preserveAspectRatio="none" x="14167.96875" y="-4427.490234" width="1.098633" height="1.098633"/>
<image xlink:href="tile3_1.png" preserveAspectRatio="none" x="14167.96875" y="-4428.588867" width="1.098633" height="1.098633"/>
<image xlink:href="tile3_0.png" preserveAspectRatio="none" x="14167.96875" y="-4429.6875" width="1.098633" height="1.098633"/>
<image xlink:href="tile4_2.png" preserveAspectRatio="none" x="14169.067383" y="-4427.490234" width="1.098633" height="1.098633"/>
<image xlink:href="tile4_1.png" preserveAspectRatio="none" x="14169.067383" y="-4428.588867" width="1.098633" height="1.098633"/>
<image xlink:href="tile4_0.png" preserveAspectRatio="none" x="14169.067383" y="-4429.6875" width="1.098633" height="1.098633"/>
<image xlink:href="tile5_4.png" preserveAspectRatio="none" x="14170.166016" y="-4425.292969" width="1.098633" height="1.098633"/>
<image xlink:href="tile5_3.png" preserveAspectRatio="none" x="14170.166016" y="-4426.391602" width="1.098633" height="1.098633"/>
<image xlink:href="tile5_2.png" preserveAspectRatio="none" x="14170.166016" y="-4427.490234" width="1.098633" height="1.098633"/>
<image xlink:href="tile5_1.png" preserveAspectRatio="none" x="14170.166016" y="-4428.588867" width="1.098633" height="1.098633"/>
<image xlink:href="tile5_0.png" preserveAspectRatio="none" x="14170.166016" y="-4429.6875" width="1.098633" height="1.098633"/>
<image xlink:href="tile6_6.png" preserveAspectRatio="none" x="14171.264648" y="-4423.095703" width="1.098633" height="1.098633"/>
<image xlink:href="tile6_5.png" preserveAspectRatio="none" x="14171.264648" y="-4424.194336" width="1.098633" height="1.098633"/>
<image xlink:href="tile6_4.png" preserveAspectRatio="none" x="14171.264648" y="-4425.292969" width="1.098633" height="1.098633"/>
<image xlink:href="tile6_3.png" preserveAspectRatio="none" x="14171.264648" y="-4426.391602" width="1.098633" height="1.098633"/>
<image xlink:href="tile6_2.png" preserveAspectRatio="none" x="14171.264648" y="-4427.490234" width="1.098633" height="1.098633"/>
<image xlink:href="tile6_1.png" preserveAspectRatio="none" x="14171.264648" y="-4428.588867" width="1.098633" height="1.098633"/>
<image xlink:href="tile7_6.png" preserveAspectRatio="none" x="14172.363281" y="-4423.095703" width="1.098633" height="1.098633"/>
<image xlink:href="tile7_5.png" preserveAspectRatio="none" x="14172.363281" y="-4424.194336" width="1.098633" height="1.098633"/>
<image xlink:href="tile7_4.png" preserveAspectRatio="none" x="14172.363281" y="-4425.292969" width="1.098633" height="1.098633"/>
<image xlink:href="tile7_3.png" preserveAspectRatio="none" x="14172.363281" y="-4426.391602" width="1.098633" height="1.098633"/>
<image xlink:href="tile7_2.png" preserveAspectRatio="none" x="14172.363281" y="-4427.490234" width="1.098633" height="1.098633"/>
<image xlink:href="tile8_7.png" preserveAspectRatio="none" x="14173.461914" y="-4421.99707" width="1.098633" height="1.098633"/>
<image xlink:href="tile8_6.png" preserveAspectRatio="none" x="14173.461914" y="-4423.095703" width="1.098633" height="1.098633"/>
<image xlink:href="tile8_5.png" preserveAspectRatio="none" x="14173.461914" y="-4424.194336" width="1.098633" height="1.098633"/>
<image xlink:href="tile8_4.png" preserveAspectRatio="none" x="14173.461914" y="-4425.292969" width="1.098633" height="1.098633"/>
<image xlink:href="tile8_3.png" preserveAspectRatio="none" x="14173.461914" y="-4426.391602" width="1.098633" height="1.098633"/>
<image xlink:href="tile8_2.png" preserveAspectRatio="none" x="14173.461914" y="-4427.490234" width="1.098633" height="1.098633"/>
<image xlink:href="tile9_9.png" preserveAspectRatio="none" x="14174.560547" y="-4419.799805" width="1.098633" height="1.098633"/>
<image xlink:href="tile9_8.png" preserveAspectRatio="none" x="14174.560547" y="-4420.898438" width="1.098633" height="1.098633"/>
<image xlink:href="tile9_7.png" preserveAspectRatio="none" x="14174.560547" y="-4421.99707" width="1.098633" height="1.098633"/>
<image xlink:href="tile9_6.png" preserveAspectRatio="none" x="14174.560547" y="-4423.095703" width="1.098633" height="1.098633"/>
<image xlink:href="tile9_4.png" preserveAspectRatio="none" x="14174.560547" y="-4425.292969" width="1.098633" height="1.098633"/>
<image xlink:href="tile9_3.png" preserveAspectRatio="none" x="14174.560547" y="-4426.391602" width="1.098633" height="1.098633"/>
<image xlink:href="tile9_2.png" preserveAspectRatio="none" x="14174.560547" y="-4427.490234" width="1.098633" height="1.098633"/>
<image xlink:href="tile10_9.png" preserveAspectRatio="none" x="14175.65918" y="-4419.799805" width="1.098633" height="1.098633"/>
<image xlink:href="tile10_8.png" preserveAspectRatio="none" x="14175.65918" y="-4420.898438" width="1.098633" height="1.098633"/>
<image xlink:href="tile10_7.png" preserveAspectRatio="none" x="14175.65918" y="-4421.99707" width="1.098633" height="1.098633"/>
<image xlink:href="tile10_4.png" preserveAspectRatio="none" x="14175.65918" y="-4425.292969" width="1.098633" height="1.098633"/>
<image xlink:href="tile10_3.png" preserveAspectRatio="none" x="14175.65918" y="-4426.391602" width="1.098633" height="1.098633"/>
<image xlink:href="tile11_11.png" preserveAspectRatio="none" x="14176.757812" y="-4417.602539" width="1.098633" height="1.098633"/>
<image xlink:href="tile11_10.png" preserveAspectRatio="none" x="14176.757812" y="-4418.701172" width="1.098633" height="1.098633"/>
<image xlink:href="tile11_9.png" preserveAspectRatio="none" x="14176.757812" y="-4419.799805" width="1.098633" height="1.098633"/>
<image xlink:href="tile11_8.png" preserveAspectRatio="none" x="14176.757812" y="-4420.898438" width="1.098633" height="1.098633"/>
<image xlink:href="tile11_5.png" preserveAspectRatio="none" x="14176.757812" y="-4424.194336" width="1.098633" height="1.098633"/>
<image xlink:href="tile11_4.png" preserveAspectRatio="none" x="14176.757812" y="-4425.292969" width="1.098633" height="1.098633"/>
<image xlink:href="tile12_11.png" preserveAspectRatio="none" x="14177.856445" y="-4417.602539" width="1.098633" height="1.098633"/>
<image xlink:href="tile12_10.png" preserveAspectRatio="none" x="14177.856445" y="-4418.701172" width="1.098633" height="1.098633"/>
<image xlink:href="tile12_6.png" preserveAspectRatio="none" x="14177.856445" y="-4423.095703" width="1.098633" height="1.098633"/>
<image xlink:href="tile12_5.png" preserveAspectRatio="none" x="14177.856445" y="-4424.194336" width="1.098633" height="1.098633"/>
<image xlink:href="tile13_11.png" preserveAspectRatio="none" x="14178.955078" y="-4417.602539" width="1.098633" height="1.098633"/>
<image xlink:href="tile13_6.png" preserveAspectRatio="none" x="14178.955078" y="-4423.095703" width="1.098633" height="1.098633"/>
<image xlink:href="tile13_5.png" preserveAspectRatio="none" x="14178.955078" y="-4424.194336" width="1.098633" height="1.098633"/>
<image xlink:href="tile14_6.png" preserveAspectRatio="none" x="14180.053711" y="-4423.095703" width="1.098633" height="1.098633"/>
<image xlink:href="tile14_5.png" preserveAspectRatio="none" x="14180.053711" y="-4424.194336" width="1.098633" height="1.098633"/>
<image xlink:href="tile15_7.png" preserveAspectRatio="none" x="14181.152344" y="-4421.99707" width="1.098633" height="1.098633"/>
<image xlink:href="tile15_6.png" preserveAspectRatio="none" x="14181.152344" y="-4423.095703" width="1.098633" height="1.098633"/>
<image xlink:href="tile16_6.png" preserveAspectRatio="none" x="14182.250977" y="-4423.095703" width="1.098633" height="1.098633"/>
</g>
</svg>
