<?xml version="1.0" encoding="UTF-8"?>
<svg  xmlns="http://www.w3.org/2000/svg" xmlns:xlink="http://www.w3.org/1999/xlink" xmlns:go="http://purl.org/svgmap/profile" viewBox="13200.0 -3466.6666681 100.0 64.56666810000016" go:dataArea="13200.0 -3466.6666681 100.0 64.56666810000016" >
<metadata>
 <rdf:RDF xmlns:rdf="http://www.w3.org/1999/02/22-rdf-syntax-ns#" xmlns:crs="http://opengis.org/xmldtds/transformations.dtd" xmlns:svg="http://www.w3.org/svg" >
  <rdf:Description>
   <crs:CoordinateReferenceSystem rdf:resource="http://purl.org/crs/84" svg:transform="matrix(100.0,0.0,0.0,-100.0,0.0,0.0)" />
  </rdf:Description>
 </rdf:RDF>
</metadata>
<globalCoordinateSystem srsName="http://purl.org/crs/84" transform="matrix(100.0,0.0,0.0,-100.0,0.0,0.0)" />
<g >
<image xlink:href="tile48_11.png" preserveAspectRatio="none" x="13251.708984" y="-3455.200195" width="1.098633" height="1.098633"/>
<image xlink:href="tile48_10.png" preserveAspectRatio="none" x="13251.708984" y="-3456.298828" width="1.098633" height="1.098633"/>
<image xlink:href="tile48_2.png" preserveAspectRatio="none" x="13251.708984" y="-3465.087891" width="1.098633" height="1.098633"/>
<image xlink:href="tile48_1.png" preserveAspectRatio="none" x="13251.708984" y="-3466.186523" width="1.098633" height="1.098633"/>
<image xlink:href="tile49_11.png" preserveAspectRatio="none" x="13252.807617" y="-3455.200195" width="1.098633" height="1.098633"/>
<image xlink:href="tile49_1.png" preserveAspectRatio="none" x="13252.807617" y="-3466.186523" width="1.098633" height="1.098633"/>
<image xlink:href="tile49_0.png" preserveAspectRatio="none" x="13252.807617" y="-3467.285156" width="1.098633" height="1.098633"/>
<image xlink:href="tile50_11.png" preserveAspectRatio="none" x="13253.90625" y="-3455.200195" width="1.098633" height="1.098633"/>
<image xlink:href="tile50_10.png" preserveAspectRatio="none" x="13253.90625" y="-3456.298828" width="1.098633" height="1.098633"/>
<image xlink:href="tile51_10.png" preserveAspectRatio="none" x="13255.004883" y="-3456.298828" width="1.098633" height="1.098633"/>
<image xlink:href="tile51_9.png" preserveAspectRatio="none" x="13255.004883" y="-3457.397461" width="1.098633" height="1.098633"/>
<image xlink:href="tile57_3.png" preserveAspectRatio="none" x="13261.59668" y="-3463.989258" width="1.098633" height="1.098633"/>
<image xlink:href="tile57_2.png" preserveAspectRatio="none" x="13261.59668" y="-3465.087891" width="1.098633" height="1.098633"/>
<image xlink:href="tile58_4.png" preserveAspectRatio="none" x="13262.695312" y="-3462.890625" width="1.098633" height="1.098633"/>
<image xlink:href="tile58_3.png" preserveAspectRatio="none" x="13262.695312" y="-3463.989258" width="1.098633" height="1.098633"/>
<image xlink:href="tile58_2.png" preserveAspectRatio="none" x="13262.695312" y="-3465.087891" width="1.098633" height="1.098633"/>
<image xlink:href="tile59_11.png" preserveAspectRatio="none" x="13263.793945" y="-3455.200195" width="1.098633" height="1.098633"/>
<image xlink:href="tile59_4.png" preserveAspectRatio="none" x="13263.793945" y="-3462.890625" width="1.098633" height="1.098633"/>
<image xlink:href="tile59_3.png" preserveAspectRatio="none" x="13263.793945" y="-3463.989258" width="1.098633" height="1.098633"/>
<image xlink:href="tile60_11.png" preserveAspectRatio="none" x="13264.892578" y="-3455.200195" width="1.098633" height="1.098633"/>
<image xlink:href="tile60_10.png" preserveAspectRatio="none" x="13264.892578" y="-3456.298828" width="1.098633" height="1.098633"/>
<image xlink:href="tile60_9.png" preserveAspectRatio="none" x="13264.892578" y="-3457.397461" width="1.098633" height="1.098633"/>
<image xlink:href="tile60_4.png" preserveAspectRatio="none" x="13264.892578" y="-3462.890625" width="1.098633" height="1.098633"/>
<image xlink:href="tile60_3.png" preserveAspectRatio="none" x="13264.892578" y="-3463.989258" width="1.098633" height="1.098633"/>
<image xlink:href="tile60_2.png" preserveAspectRatio="none" x="13264.892578" y="-3465.087891" width="1.098633" height="1.098633"/>
<image xlink:href="tile61_11.png" preserveAspectRatio="none" x="13265.991211" y="-3455.200195" width="1.098633" height="1.098633"/>
<image xlink:href="tile61_10.png" preserveAspectRatio="none" x="13265.991211" y="-3456.298828" width="1.098633" height="1.098633"/>
<image xlink:href="tile61_9.png" preserveAspectRatio="none" x="13265.991211" y="-3457.397461" width="1.098633" height="1.098633"/>
<image xlink:href="tile61_8.png" preserveAspectRatio="none" x="13265.991211" y="-3458.496094" width="1.098633" height="1.098633"/>
<image xlink:href="tile61_4.png" preserveAspectRatio="none" x="13265.991211" y="-3462.890625" width="1.098633" height="1.098633"/>
<image xlink:href="tile61_3.png" preserveAspectRatio="none" x="13265.991211" y="-3463.989258" width="1.098633" height="1.098633"/>
<image xlink:href="tile61_2.png" preserveAspectRatio="none" x="13265.991211" y="-3465.087891" width="1.098633" height="1.098633"/>
<image xlink:href="tile61_1.png" preserveAspectRatio="none" x="13265.991211" y="-3466.186523" width="1.098633" height="1.098633"/>
<image xlink:href="tile62_9.png" preserveAspectRatio="none" x="13267.089844" y="-3457.397461" width="1.098633" height="1.098633"/>
<image xlink:href="tile62_8.png" preserveAspectRatio="none" x="13267.089844" y="-3458.496094" width="1.098633" height="1.098633"/>
<image xlink:href="tile62_7.png" preserveAspectRatio="none" x="13267.089844" y="-3459.594727" width="1.098633" height="1.098633"/>
<image xlink:href="tile62_6.png" preserveAspectRatio="none" x="13267.089844" y="-3460.693359" width="1.098633" height="1.098633"/>
<image xlink:href="tile62_3.png" preserveAspectRatio="none" x="13267.089844" y="-3463.989258" width="1.098633" height="1.098633"/>
<image xlink:href="tile62_2.png" preserveAspectRatio="none" x="13267.089844" y="-3465.087891" width="1.098633" height="1.098633"/>
<image xlink:href="tile62_1.png" preserveAspectRatio="none" x="13267.089844" y="-3466.186523" width="1.098633" height="1.098633"/>
<image xlink:href="tile63_7.png" preserveAspectRatio="none" x="13268.188477" y="-3459.594727" width="1.098633" height="1.098633"/>
<image xlink:href="tile63_6.png" preserveAspectRatio="none" x="13268.188477" y="-3460.693359" width="1.098633" height="1.098633"/>
<image xlink:href="tile63_2.png" preserveAspectRatio="none" x="13268.188477" y="-3465.087891" width="1.098633" height="1.098633"/>
<image xlink:href="tile63_1.png" preserveAspectRatio="none" x="13268.188477" y="-3466.186523" width="1.098633" height="1.098633"/>
</g>
</svg>
