<?xml version="1.0" encoding="UTF-8"?>
<svg  xmlns="http://www.w3.org/2000/svg" xmlns:xlink="http://www.w3.org/1999/xlink" xmlns:go="http://purl.org/svgmap/profile" viewBox="13200.0 -3466.6666681 100.0 64.56666810000016" go:dataArea="13200.0 -3466.6666681 100.0 64.56666810000016" >
<metadata>
 <rdf:RDF xmlns:rdf="http://www.w3.org/1999/02/22-rdf-syntax-ns#" xmlns:crs="http://opengis.org/xmldtds/transformations.dtd" xmlns:svg="http://www.w3.org/svg" >
  <rdf:Description>
   <crs:CoordinateReferenceSystem rdf:resource="http://purl.org/crs/84" svg:transform="matrix(100.0,0.0,0.0,-100.0,0.0,0.0)" />
  </rdf:Description>
 </rdf:RDF>
</metadata>
<globalCoordinateSystem srsName="http://purl.org/crs/84" transform="matrix(100.0,0.0,0.0,-100.0,0.0,0.0)" />
<g >
<image xlink:href="tile16_58.png" preserveAspectRatio="none" x="13216.552734" y="-3403.564453" width="1.098633" height="1.098633"/>
<image xlink:href="tile16_57.png" preserveAspectRatio="none" x="13216.552734" y="-3404.663086" width="1.098633" height="1.098633"/>
<image xlink:href="tile16_47.png" preserveAspectRatio="none" x="13216.552734" y="-3415.649414" width="1.098633" height="1.098633"/>
<image xlink:href="tile16_46.png" preserveAspectRatio="none" x="13216.552734" y="-3416.748047" width="1.098633" height="1.098633"/>
<image xlink:href="tile16_45.png" preserveAspectRatio="none" x="13216.552734" y="-3417.84668" width="1.098633" height="1.098633"/>
<image xlink:href="tile16_44.png" preserveAspectRatio="none" x="13216.552734" y="-3418.945312" width="1.098633" height="1.098633"/>
<image xlink:href="tile17_58.png" preserveAspectRatio="none" x="13217.651367" y="-3403.564453" width="1.098633" height="1.098633"/>
<image xlink:href="tile17_57.png" preserveAspectRatio="none" x="13217.651367" y="-3404.663086" width="1.098633" height="1.098633"/>
<image xlink:href="tile17_48.png" preserveAspectRatio="none" x="13217.651367" y="-3414.550781" width="1.098633" height="1.098633"/>
<image xlink:href="tile17_47.png" preserveAspectRatio="none" x="13217.651367" y="-3415.649414" width="1.098633" height="1.098633"/>
<image xlink:href="tile17_46.png" preserveAspectRatio="none" x="13217.651367" y="-3416.748047" width="1.098633" height="1.098633"/>
<image xlink:href="tile17_45.png" preserveAspectRatio="none" x="13217.651367" y="-3417.84668" width="1.098633" height="1.098633"/>
<image xlink:href="tile17_44.png" preserveAspectRatio="none" x="13217.651367" y="-3418.945312" width="1.098633" height="1.098633"/>
<image xlink:href="tile18_57.png" preserveAspectRatio="none" x="13218.75" y="-3404.663086" width="1.098633" height="1.098633"/>
<image xlink:href="tile18_49.png" preserveAspectRatio="none" x="13218.75" y="-3413.452148" width="1.098633" height="1.098633"/>
<image xlink:href="tile18_48.png" preserveAspectRatio="none" x="13218.75" y="-3414.550781" width="1.098633" height="1.098633"/>
<image xlink:href="tile18_47.png" preserveAspectRatio="none" x="13218.75" y="-3415.649414" width="1.098633" height="1.098633"/>
<image xlink:href="tile18_46.png" preserveAspectRatio="none" x="13218.75" y="-3416.748047" width="1.098633" height="1.098633"/>
<image xlink:href="tile18_45.png" preserveAspectRatio="none" x="13218.75" y="-3417.84668" width="1.098633" height="1.098633"/>
<image xlink:href="tile19_57.png" preserveAspectRatio="none" x="13219.848633" y="-3404.663086" width="1.098633" height="1.098633"/>
<image xlink:href="tile19_56.png" preserveAspectRatio="none" x="13219.848633" y="-3405.761719" width="1.098633" height="1.098633"/>
<image xlink:href="tile19_49.png" preserveAspectRatio="none" x="13219.848633" y="-3413.452148" width="1.098633" height="1.098633"/>
<image xlink:href="tile19_48.png" preserveAspectRatio="none" x="13219.848633" y="-3414.550781" width="1.098633" height="1.098633"/>
<image xlink:href="tile19_47.png" preserveAspectRatio="none" x="13219.848633" y="-3415.649414" width="1.098633" height="1.098633"/>
<image xlink:href="tile19_46.png" preserveAspectRatio="none" x="13219.848633" y="-3416.748047" width="1.098633" height="1.098633"/>
<image xlink:href="tile20_57.png" preserveAspectRatio="none" x="13220.947266" y="-3404.663086" width="1.098633" height="1.098633"/>
<image xlink:href="tile20_56.png" preserveAspectRatio="none" x="13220.947266" y="-3405.761719" width="1.098633" height="1.098633"/>
<image xlink:href="tile20_49.png" preserveAspectRatio="none" x="13220.947266" y="-3413.452148" width="1.098633" height="1.098633"/>
<image xlink:href="tile20_48.png" preserveAspectRatio="none" x="13220.947266" y="-3414.550781" width="1.098633" height="1.098633"/>
<image xlink:href="tile20_47.png" preserveAspectRatio="none" x="13220.947266" y="-3415.649414" width="1.098633" height="1.098633"/>
<image xlink:href="tile20_46.png" preserveAspectRatio="none" x="13220.947266" y="-3416.748047" width="1.098633" height="1.098633"/>
<image xlink:href="tile20_45.png" preserveAspectRatio="none" x="13220.947266" y="-3417.84668" width="1.098633" height="1.098633"/>
<image xlink:href="tile21_49.png" preserveAspectRatio="none" x="13222.045898" y="-3413.452148" width="1.098633" height="1.098633"/>
<image xlink:href="tile21_48.png" preserveAspectRatio="none" x="13222.045898" y="-3414.550781" width="1.098633" height="1.098633"/>
<image xlink:href="tile21_47.png" preserveAspectRatio="none" x="13222.045898" y="-3415.649414" width="1.098633" height="1.098633"/>
<image xlink:href="tile21_46.png" preserveAspectRatio="none" x="13222.045898" y="-3416.748047" width="1.098633" height="1.098633"/>
<image xlink:href="tile21_45.png" preserveAspectRatio="none" x="13222.045898" y="-3417.84668" width="1.098633" height="1.098633"/>
<image xlink:href="tile22_49.png" preserveAspectRatio="none" x="13223.144531" y="-3413.452148" width="1.098633" height="1.098633"/>
<image xlink:href="tile22_48.png" preserveAspectRatio="none" x="13223.144531" y="-3414.550781" width="1.098633" height="1.098633"/>
<image xlink:href="tile22_47.png" preserveAspectRatio="none" x="13223.144531" y="-3415.649414" width="1.098633" height="1.098633"/>
<image xlink:href="tile22_46.png" preserveAspectRatio="none" x="13223.144531" y="-3416.748047" width="1.098633" height="1.098633"/>
<image xlink:href="tile22_45.png" preserveAspectRatio="none" x="13223.144531" y="-3417.84668" width="1.098633" height="1.098633"/>
<image xlink:href="tile23_47.png" preserveAspectRatio="none" x="13224.243164" y="-3415.649414" width="1.098633" height="1.098633"/>
<image xlink:href="tile23_46.png" preserveAspectRatio="none" x="13224.243164" y="-3416.748047" width="1.098633" height="1.098633"/>
</g>
</svg>
