<?xml version="1.0" encoding="UTF-8"?>
<svg  xmlns="http://www.w3.org/2000/svg" xmlns:xlink="http://www.w3.org/1999/xlink" xmlns:go="http://purl.org/svgmap/profile" viewBox="13007.325 -3395.2125 92.67499999999984 61.87916690000037" go:dataArea="13007.325 -3395.2125 92.67499999999984 61.87916690000037" >
<metadata>
 <rdf:RDF xmlns:rdf="http://www.w3.org/1999/02/22-rdf-syntax-ns#" xmlns:crs="http://opengis.org/xmldtds/transformations.dtd" xmlns:svg="http://www.w3.org/svg" >
  <rdf:Description>
   <crs:CoordinateReferenceSystem rdf:resource="http://purl.org/crs/84" svg:transform="matrix(100.0,0.0,0.0,-100.0,0.0,0.0)" />
  </rdf:Description>
 </rdf:RDF>
</metadata>
<globalCoordinateSystem srsName="http://purl.org/crs/84" transform="matrix(100.0,0.0,0.0,-100.0,0.0,0.0)" />
<g >
<image xlink:href="tile0_3.png" preserveAspectRatio="none" x="12990.234375" y="-3357.421875" width="17.578125" height="17.578125"/>
<image xlink:href="tile1_3.png" preserveAspectRatio="none" x="13007.8125" y="-3357.421875" width="17.578125" height="17.578125"/>
<image xlink:href="tile1_2.png" preserveAspectRatio="none" x="13007.8125" y="-3375" width="17.578125" height="17.578125"/>
<image xlink:href="tile2_3.png" preserveAspectRatio="none" x="13025.390625" y="-3357.421875" width="17.578125" height="17.578125"/>
<image xlink:href="tile2_2.png" preserveAspectRatio="none" x="13025.390625" y="-3375" width="17.578125" height="17.578125"/>
<image xlink:href="tile3_4.png" preserveAspectRatio="none" x="13042.96875" y="-3339.84375" width="17.578125" height="17.578125"/>
<image xlink:href="tile3_3.png" preserveAspectRatio="none" x="13042.96875" y="-3357.421875" width="17.578125" height="17.578125"/>
<image xlink:href="tile3_2.png" preserveAspectRatio="none" x="13042.96875" y="-3375" width="17.578125" height="17.578125"/>
<image xlink:href="tile3_1.png" preserveAspectRatio="none" x="13042.96875" y="-3392.578125" width="17.578125" height="17.578125"/>
<image xlink:href="tile4_4.png" preserveAspectRatio="none" x="13060.546875" y="-3339.84375" width="17.578125" height="17.578125"/>
<image xlink:href="tile4_3.png" preserveAspectRatio="none" x="13060.546875" y="-3357.421875" width="17.578125" height="17.578125"/>
<image xlink:href="tile4_2.png" preserveAspectRatio="none" x="13060.546875" y="-3375" width="17.578125" height="17.578125"/>
<image xlink:href="tile4_1.png" preserveAspectRatio="none" x="13060.546875" y="-3392.578125" width="17.578125" height="17.578125"/>
<image xlink:href="tile5_4.png" preserveAspectRatio="none" x="13078.125" y="-3339.84375" width="17.578125" height="17.578125"/>
<image xlink:href="tile5_3.png" preserveAspectRatio="none" x="13078.125" y="-3357.421875" width="17.578125" height="17.578125"/>
<image xlink:href="tile5_2.png" preserveAspectRatio="none" x="13078.125" y="-3375" width="17.578125" height="17.578125"/>
<image xlink:href="tile5_1.png" preserveAspectRatio="none" x="13078.125" y="-3392.578125" width="17.578125" height="17.578125"/>
<image xlink:href="tile6_1.png" preserveAspectRatio="none" x="13095.703125" y="-3392.578125" width="17.578125" height="17.578125"/>
<image xlink:href="tile6_0.png" preserveAspectRatio="none" x="13095.703125" y="-3410.15625" width="17.578125" height="17.578125"/>
</g>
</svg>
