<?xml version="1.0" encoding="UTF-8"?>
<svg  xmlns="http://www.w3.org/2000/svg" xmlns:xlink="http://www.w3.org/1999/xlink" xmlns:go="http://purl.org/svgmap/profile" viewBox="14103.8137368 -4000.0 93.81289869999989 66.66666699999979" go:dataArea="14103.8137368 -4000.0 93.81289869999989 66.66666699999979" >
<metadata>
 <rdf:RDF xmlns:rdf="http://www.w3.org/1999/02/22-rdf-syntax-ns#" xmlns:crs="http://opengis.org/xmldtds/transformations.dtd" xmlns:svg="http://www.w3.org/svg" >
  <rdf:Description>
   <crs:CoordinateReferenceSystem rdf:resource="http://purl.org/crs/84" svg:transform="matrix(100.0,0.0,0.0,-100.0,0.0,0.0)" />
  </rdf:Description>
 </rdf:RDF>
</metadata>
<globalCoordinateSystem srsName="http://purl.org/crs/84" transform="matrix(100.0,0.0,0.0,-100.0,0.0,0.0)" />
<g >
<image xlink:href="tile16_21.png" preserveAspectRatio="none" x="14137.207031" y="-3955.078125" width="2.197266" height="2.197266"/>
<image xlink:href="tile20_18.png" preserveAspectRatio="none" x="14145.996094" y="-3961.669922" width="2.197266" height="2.197266"/>
<image xlink:href="tile20_17.png" preserveAspectRatio="none" x="14145.996094" y="-3963.867188" width="2.197266" height="2.197266"/>
<image xlink:href="tile21_18.png" preserveAspectRatio="none" x="14148.193359" y="-3961.669922" width="2.197266" height="2.197266"/>
<image xlink:href="tile21_17.png" preserveAspectRatio="none" x="14148.193359" y="-3963.867188" width="2.197266" height="2.197266"/>
<image xlink:href="tile22_30.png" preserveAspectRatio="none" x="14150.390625" y="-3935.302734" width="2.197266" height="2.197266"/>
<image xlink:href="tile22_27.png" preserveAspectRatio="none" x="14150.390625" y="-3941.894531" width="2.197266" height="2.197266"/>
<image xlink:href="tile22_26.png" preserveAspectRatio="none" x="14150.390625" y="-3944.091797" width="2.197266" height="2.197266"/>
<image xlink:href="tile22_17.png" preserveAspectRatio="none" x="14150.390625" y="-3963.867188" width="2.197266" height="2.197266"/>
<image xlink:href="tile23_30.png" preserveAspectRatio="none" x="14152.587891" y="-3935.302734" width="2.197266" height="2.197266"/>
<image xlink:href="tile23_29.png" preserveAspectRatio="none" x="14152.587891" y="-3937.5" width="2.197266" height="2.197266"/>
<image xlink:href="tile23_28.png" preserveAspectRatio="none" x="14152.587891" y="-3939.697266" width="2.197266" height="2.197266"/>
<image xlink:href="tile23_27.png" preserveAspectRatio="none" x="14152.587891" y="-3941.894531" width="2.197266" height="2.197266"/>
<image xlink:href="tile23_26.png" preserveAspectRatio="none" x="14152.587891" y="-3944.091797" width="2.197266" height="2.197266"/>
<image xlink:href="tile23_17.png" preserveAspectRatio="none" x="14152.587891" y="-3963.867188" width="2.197266" height="2.197266"/>
<image xlink:href="tile23_16.png" preserveAspectRatio="none" x="14152.587891" y="-3966.064453" width="2.197266" height="2.197266"/>
<image xlink:href="tile24_30.png" preserveAspectRatio="none" x="14154.785156" y="-3935.302734" width="2.197266" height="2.197266"/>
<image xlink:href="tile24_29.png" preserveAspectRatio="none" x="14154.785156" y="-3937.5" width="2.197266" height="2.197266"/>
<image xlink:href="tile24_28.png" preserveAspectRatio="none" x="14154.785156" y="-3939.697266" width="2.197266" height="2.197266"/>
<image xlink:href="tile24_16.png" preserveAspectRatio="none" x="14154.785156" y="-3966.064453" width="2.197266" height="2.197266"/>
<image xlink:href="tile25_30.png" preserveAspectRatio="none" x="14156.982422" y="-3935.302734" width="2.197266" height="2.197266"/>
<image xlink:href="tile25_29.png" preserveAspectRatio="none" x="14156.982422" y="-3937.5" width="2.197266" height="2.197266"/>
<image xlink:href="tile25_16.png" preserveAspectRatio="none" x="14156.982422" y="-3966.064453" width="2.197266" height="2.197266"/>
<image xlink:href="tile26_29.png" preserveAspectRatio="none" x="14159.179688" y="-3937.5" width="2.197266" height="2.197266"/>
<image xlink:href="tile26_28.png" preserveAspectRatio="none" x="14159.179688" y="-3939.697266" width="2.197266" height="2.197266"/>
<image xlink:href="tile26_27.png" preserveAspectRatio="none" x="14159.179688" y="-3941.894531" width="2.197266" height="2.197266"/>
<image xlink:href="tile26_17.png" preserveAspectRatio="none" x="14159.179688" y="-3963.867188" width="2.197266" height="2.197266"/>
<image xlink:href="tile26_16.png" preserveAspectRatio="none" x="14159.179688" y="-3966.064453" width="2.197266" height="2.197266"/>
<image xlink:href="tile27_28.png" preserveAspectRatio="none" x="14161.376953" y="-3939.697266" width="2.197266" height="2.197266"/>
<image xlink:href="tile27_27.png" preserveAspectRatio="none" x="14161.376953" y="-3941.894531" width="2.197266" height="2.197266"/>
<image xlink:href="tile27_18.png" preserveAspectRatio="none" x="14161.376953" y="-3961.669922" width="2.197266" height="2.197266"/>
<image xlink:href="tile27_17.png" preserveAspectRatio="none" x="14161.376953" y="-3963.867188" width="2.197266" height="2.197266"/>
<image xlink:href="tile28_18.png" preserveAspectRatio="none" x="14163.574219" y="-3961.669922" width="2.197266" height="2.197266"/>
<image xlink:href="tile29_19.png" preserveAspectRatio="none" x="14165.771484" y="-3959.472656" width="2.197266" height="2.197266"/>
<image xlink:href="tile29_18.png" preserveAspectRatio="none" x="14165.771484" y="-3961.669922" width="2.197266" height="2.197266"/>
<image xlink:href="tile30_18.png" preserveAspectRatio="none" x="14167.96875" y="-3961.669922" width="2.197266" height="2.197266"/>
<image xlink:href="tile31_29.png" preserveAspectRatio="none" x="14170.166016" y="-3937.5" width="2.197266" height="2.197266"/>
<image xlink:href="tile31_18.png" preserveAspectRatio="none" x="14170.166016" y="-3961.669922" width="2.197266" height="2.197266"/>
<image xlink:href="tile31_15.png" preserveAspectRatio="none" x="14170.166016" y="-3968.261719" width="2.197266" height="2.197266"/>
</g>
</svg>
