<?xml version="1.0" encoding="UTF-8"?>
<svg  xmlns="http://www.w3.org/2000/svg" xmlns:xlink="http://www.w3.org/1999/xlink" xmlns:go="http://purl.org/svgmap/profile" viewBox="14103.8137368 -4000.0 93.81289869999989 66.66666699999979" go:dataArea="14103.8137368 -4000.0 93.81289869999989 66.66666699999979" >
<metadata>
 <rdf:RDF xmlns:rdf="http://www.w3.org/1999/02/22-rdf-syntax-ns#" xmlns:crs="http://opengis.org/xmldtds/transformations.dtd" xmlns:svg="http://www.w3.org/svg" >
  <rdf:Description>
   <crs:CoordinateReferenceSystem rdf:resource="http://purl.org/crs/84" svg:transform="matrix(100.0,0.0,0.0,-100.0,0.0,0.0)" />
  </rdf:Description>
 </rdf:RDF>
</metadata>
<globalCoordinateSystem srsName="http://purl.org/crs/84" transform="matrix(100.0,0.0,0.0,-100.0,0.0,0.0)" />
<g >
<image xlink:href="tile32_29.png" preserveAspectRatio="none" x="14172.363281" y="-3937.5" width="2.197266" height="2.197266"/>
<image xlink:href="tile32_18.png" preserveAspectRatio="none" x="14172.363281" y="-3961.669922" width="2.197266" height="2.197266"/>
<image xlink:href="tile32_15.png" preserveAspectRatio="none" x="14172.363281" y="-3968.261719" width="2.197266" height="2.197266"/>
<image xlink:href="tile33_29.png" preserveAspectRatio="none" x="14174.560547" y="-3937.5" width="2.197266" height="2.197266"/>
<image xlink:href="tile33_19.png" preserveAspectRatio="none" x="14174.560547" y="-3959.472656" width="2.197266" height="2.197266"/>
<image xlink:href="tile33_18.png" preserveAspectRatio="none" x="14174.560547" y="-3961.669922" width="2.197266" height="2.197266"/>
<image xlink:href="tile33_16.png" preserveAspectRatio="none" x="14174.560547" y="-3966.064453" width="2.197266" height="2.197266"/>
<image xlink:href="tile34_30.png" preserveAspectRatio="none" x="14176.757812" y="-3935.302734" width="2.197266" height="2.197266"/>
<image xlink:href="tile34_29.png" preserveAspectRatio="none" x="14176.757812" y="-3937.5" width="2.197266" height="2.197266"/>
<image xlink:href="tile34_18.png" preserveAspectRatio="none" x="14176.757812" y="-3961.669922" width="2.197266" height="2.197266"/>
<image xlink:href="tile34_17.png" preserveAspectRatio="none" x="14176.757812" y="-3963.867188" width="2.197266" height="2.197266"/>
<image xlink:href="tile35_30.png" preserveAspectRatio="none" x="14178.955078" y="-3935.302734" width="2.197266" height="2.197266"/>
<image xlink:href="tile35_29.png" preserveAspectRatio="none" x="14178.955078" y="-3937.5" width="2.197266" height="2.197266"/>
<image xlink:href="tile35_26.png" preserveAspectRatio="none" x="14178.955078" y="-3944.091797" width="2.197266" height="2.197266"/>
<image xlink:href="tile35_25.png" preserveAspectRatio="none" x="14178.955078" y="-3946.289062" width="2.197266" height="2.197266"/>
<image xlink:href="tile35_18.png" preserveAspectRatio="none" x="14178.955078" y="-3961.669922" width="2.197266" height="2.197266"/>
<image xlink:href="tile35_17.png" preserveAspectRatio="none" x="14178.955078" y="-3963.867188" width="2.197266" height="2.197266"/>
<image xlink:href="tile36_30.png" preserveAspectRatio="none" x="14181.152344" y="-3935.302734" width="2.197266" height="2.197266"/>
<image xlink:href="tile36_29.png" preserveAspectRatio="none" x="14181.152344" y="-3937.5" width="2.197266" height="2.197266"/>
<image xlink:href="tile36_28.png" preserveAspectRatio="none" x="14181.152344" y="-3939.697266" width="2.197266" height="2.197266"/>
<image xlink:href="tile36_26.png" preserveAspectRatio="none" x="14181.152344" y="-3944.091797" width="2.197266" height="2.197266"/>
<image xlink:href="tile36_17.png" preserveAspectRatio="none" x="14181.152344" y="-3963.867188" width="2.197266" height="2.197266"/>
<image xlink:href="tile37_30.png" preserveAspectRatio="none" x="14183.349609" y="-3935.302734" width="2.197266" height="2.197266"/>
<image xlink:href="tile37_29.png" preserveAspectRatio="none" x="14183.349609" y="-3937.5" width="2.197266" height="2.197266"/>
<image xlink:href="tile37_28.png" preserveAspectRatio="none" x="14183.349609" y="-3939.697266" width="2.197266" height="2.197266"/>
<image xlink:href="tile37_27.png" preserveAspectRatio="none" x="14183.349609" y="-3941.894531" width="2.197266" height="2.197266"/>
<image xlink:href="tile37_26.png" preserveAspectRatio="none" x="14183.349609" y="-3944.091797" width="2.197266" height="2.197266"/>
<image xlink:href="tile37_19.png" preserveAspectRatio="none" x="14183.349609" y="-3959.472656" width="2.197266" height="2.197266"/>
<image xlink:href="tile37_17.png" preserveAspectRatio="none" x="14183.349609" y="-3963.867188" width="2.197266" height="2.197266"/>
<image xlink:href="tile38_30.png" preserveAspectRatio="none" x="14185.546875" y="-3935.302734" width="2.197266" height="2.197266"/>
<image xlink:href="tile38_29.png" preserveAspectRatio="none" x="14185.546875" y="-3937.5" width="2.197266" height="2.197266"/>
<image xlink:href="tile38_28.png" preserveAspectRatio="none" x="14185.546875" y="-3939.697266" width="2.197266" height="2.197266"/>
<image xlink:href="tile38_19.png" preserveAspectRatio="none" x="14185.546875" y="-3959.472656" width="2.197266" height="2.197266"/>
<image xlink:href="tile38_18.png" preserveAspectRatio="none" x="14185.546875" y="-3961.669922" width="2.197266" height="2.197266"/>
<image xlink:href="tile38_17.png" preserveAspectRatio="none" x="14185.546875" y="-3963.867188" width="2.197266" height="2.197266"/>
<image xlink:href="tile39_30.png" preserveAspectRatio="none" x="14187.744141" y="-3935.302734" width="2.197266" height="2.197266"/>
<image xlink:href="tile39_29.png" preserveAspectRatio="none" x="14187.744141" y="-3937.5" width="2.197266" height="2.197266"/>
<image xlink:href="tile39_28.png" preserveAspectRatio="none" x="14187.744141" y="-3939.697266" width="2.197266" height="2.197266"/>
<image xlink:href="tile39_23.png" preserveAspectRatio="none" x="14187.744141" y="-3950.683594" width="2.197266" height="2.197266"/>
<image xlink:href="tile39_19.png" preserveAspectRatio="none" x="14187.744141" y="-3959.472656" width="2.197266" height="2.197266"/>
<image xlink:href="tile39_18.png" preserveAspectRatio="none" x="14187.744141" y="-3961.669922" width="2.197266" height="2.197266"/>
<image xlink:href="tile39_17.png" preserveAspectRatio="none" x="14187.744141" y="-3963.867188" width="2.197266" height="2.197266"/>
<image xlink:href="tile40_30.png" preserveAspectRatio="none" x="14189.941406" y="-3935.302734" width="2.197266" height="2.197266"/>
<image xlink:href="tile40_29.png" preserveAspectRatio="none" x="14189.941406" y="-3937.5" width="2.197266" height="2.197266"/>
<image xlink:href="tile40_24.png" preserveAspectRatio="none" x="14189.941406" y="-3948.486328" width="2.197266" height="2.197266"/>
<image xlink:href="tile40_23.png" preserveAspectRatio="none" x="14189.941406" y="-3950.683594" width="2.197266" height="2.197266"/>
<image xlink:href="tile40_22.png" preserveAspectRatio="none" x="14189.941406" y="-3952.880859" width="2.197266" height="2.197266"/>
<image xlink:href="tile40_21.png" preserveAspectRatio="none" x="14189.941406" y="-3955.078125" width="2.197266" height="2.197266"/>
<image xlink:href="tile40_18.png" preserveAspectRatio="none" x="14189.941406" y="-3961.669922" width="2.197266" height="2.197266"/>
<image xlink:href="tile40_17.png" preserveAspectRatio="none" x="14189.941406" y="-3963.867188" width="2.197266" height="2.197266"/>
<image xlink:href="tile41_24.png" preserveAspectRatio="none" x="14192.138672" y="-3948.486328" width="2.197266" height="2.197266"/>
<image xlink:href="tile41_22.png" preserveAspectRatio="none" x="14192.138672" y="-3952.880859" width="2.197266" height="2.197266"/>
<image xlink:href="tile41_21.png" preserveAspectRatio="none" x="14192.138672" y="-3955.078125" width="2.197266" height="2.197266"/>
<image xlink:href="tile41_20.png" preserveAspectRatio="none" x="14192.138672" y="-3957.275391" width="2.197266" height="2.197266"/>
<image xlink:href="tile41_19.png" preserveAspectRatio="none" x="14192.138672" y="-3959.472656" width="2.197266" height="2.197266"/>
<image xlink:href="tile41_17.png" preserveAspectRatio="none" x="14192.138672" y="-3963.867188" width="2.197266" height="2.197266"/>
<image xlink:href="tile41_16.png" preserveAspectRatio="none" x="14192.138672" y="-3966.064453" width="2.197266" height="2.197266"/>
<image xlink:href="tile42_24.png" preserveAspectRatio="none" x="14194.335938" y="-3948.486328" width="2.197266" height="2.197266"/>
<image xlink:href="tile42_21.png" preserveAspectRatio="none" x="14194.335938" y="-3955.078125" width="2.197266" height="2.197266"/>
<image xlink:href="tile42_20.png" preserveAspectRatio="none" x="14194.335938" y="-3957.275391" width="2.197266" height="2.197266"/>
<image xlink:href="tile42_19.png" preserveAspectRatio="none" x="14194.335938" y="-3959.472656" width="2.197266" height="2.197266"/>
<image xlink:href="tile42_17.png" preserveAspectRatio="none" x="14194.335938" y="-3963.867188" width="2.197266" height="2.197266"/>
<image xlink:href="tile42_16.png" preserveAspectRatio="none" x="14194.335938" y="-3966.064453" width="2.197266" height="2.197266"/>
<image xlink:href="tile43_17.png" preserveAspectRatio="none" x="14196.533203" y="-3963.867188" width="2.197266" height="2.197266"/>
<image xlink:href="tile43_16.png" preserveAspectRatio="none" x="14196.533203" y="-3966.064453" width="2.197266" height="2.197266"/>
</g>
</svg>
