<?xml version="1.0" encoding="UTF-8"?>
<svg  xmlns="http://www.w3.org/2000/svg" xmlns:xlink="http://www.w3.org/1999/xlink" xmlns:go="http://purl.org/svgmap/profile" viewBox="14000.0 -3666.666667 70.23290180000004 66.66666699999979" go:dataArea="14000.0 -3666.666667 70.23290180000004 66.66666699999979" >
<metadata>
 <rdf:RDF xmlns:rdf="http://www.w3.org/1999/02/22-rdf-syntax-ns#" xmlns:crs="http://opengis.org/xmldtds/transformations.dtd" xmlns:svg="http://www.w3.org/svg" >
  <rdf:Description>
   <crs:CoordinateReferenceSystem rdf:resource="http://purl.org/crs/84" svg:transform="matrix(100.0,0.0,0.0,-100.0,0.0,0.0)" />
  </rdf:Description>
 </rdf:RDF>
</metadata>
<globalCoordinateSystem srsName="http://purl.org/crs/84" transform="matrix(100.0,0.0,0.0,-100.0,0.0,0.0)" />
<g >
<image xlink:href="tile16_8.png" preserveAspectRatio="none" x="14033.935547" y="-3649.658203" width="2.197266" height="2.197266"/>
<image xlink:href="tile16_7.png" preserveAspectRatio="none" x="14033.935547" y="-3651.855469" width="2.197266" height="2.197266"/>
<image xlink:href="tile16_6.png" preserveAspectRatio="none" x="14033.935547" y="-3654.052734" width="2.197266" height="2.197266"/>
<image xlink:href="tile16_5.png" preserveAspectRatio="none" x="14033.935547" y="-3656.25" width="2.197266" height="2.197266"/>
<image xlink:href="tile16_4.png" preserveAspectRatio="none" x="14033.935547" y="-3658.447266" width="2.197266" height="2.197266"/>
<image xlink:href="tile17_10.png" preserveAspectRatio="none" x="14036.132812" y="-3645.263672" width="2.197266" height="2.197266"/>
<image xlink:href="tile17_9.png" preserveAspectRatio="none" x="14036.132812" y="-3647.460938" width="2.197266" height="2.197266"/>
<image xlink:href="tile17_8.png" preserveAspectRatio="none" x="14036.132812" y="-3649.658203" width="2.197266" height="2.197266"/>
<image xlink:href="tile17_7.png" preserveAspectRatio="none" x="14036.132812" y="-3651.855469" width="2.197266" height="2.197266"/>
<image xlink:href="tile17_6.png" preserveAspectRatio="none" x="14036.132812" y="-3654.052734" width="2.197266" height="2.197266"/>
<image xlink:href="tile18_10.png" preserveAspectRatio="none" x="14038.330078" y="-3645.263672" width="2.197266" height="2.197266"/>
<image xlink:href="tile18_9.png" preserveAspectRatio="none" x="14038.330078" y="-3647.460938" width="2.197266" height="2.197266"/>
<image xlink:href="tile18_8.png" preserveAspectRatio="none" x="14038.330078" y="-3649.658203" width="2.197266" height="2.197266"/>
<image xlink:href="tile18_7.png" preserveAspectRatio="none" x="14038.330078" y="-3651.855469" width="2.197266" height="2.197266"/>
<image xlink:href="tile18_6.png" preserveAspectRatio="none" x="14038.330078" y="-3654.052734" width="2.197266" height="2.197266"/>
<image xlink:href="tile18_4.png" preserveAspectRatio="none" x="14038.330078" y="-3658.447266" width="2.197266" height="2.197266"/>
<image xlink:href="tile18_3.png" preserveAspectRatio="none" x="14038.330078" y="-3660.644531" width="2.197266" height="2.197266"/>
<image xlink:href="tile18_2.png" preserveAspectRatio="none" x="14038.330078" y="-3662.841797" width="2.197266" height="2.197266"/>
<image xlink:href="tile18_1.png" preserveAspectRatio="none" x="14038.330078" y="-3665.039062" width="2.197266" height="2.197266"/>
<image xlink:href="tile18_0.png" preserveAspectRatio="none" x="14038.330078" y="-3667.236328" width="2.197266" height="2.197266"/>
<image xlink:href="tile19_11.png" preserveAspectRatio="none" x="14040.527344" y="-3643.066406" width="2.197266" height="2.197266"/>
<image xlink:href="tile19_10.png" preserveAspectRatio="none" x="14040.527344" y="-3645.263672" width="2.197266" height="2.197266"/>
<image xlink:href="tile19_9.png" preserveAspectRatio="none" x="14040.527344" y="-3647.460938" width="2.197266" height="2.197266"/>
<image xlink:href="tile19_8.png" preserveAspectRatio="none" x="14040.527344" y="-3649.658203" width="2.197266" height="2.197266"/>
<image xlink:href="tile19_6.png" preserveAspectRatio="none" x="14040.527344" y="-3654.052734" width="2.197266" height="2.197266"/>
<image xlink:href="tile19_5.png" preserveAspectRatio="none" x="14040.527344" y="-3656.25" width="2.197266" height="2.197266"/>
<image xlink:href="tile19_4.png" preserveAspectRatio="none" x="14040.527344" y="-3658.447266" width="2.197266" height="2.197266"/>
<image xlink:href="tile19_3.png" preserveAspectRatio="none" x="14040.527344" y="-3660.644531" width="2.197266" height="2.197266"/>
<image xlink:href="tile19_2.png" preserveAspectRatio="none" x="14040.527344" y="-3662.841797" width="2.197266" height="2.197266"/>
<image xlink:href="tile19_1.png" preserveAspectRatio="none" x="14040.527344" y="-3665.039062" width="2.197266" height="2.197266"/>
<image xlink:href="tile20_14.png" preserveAspectRatio="none" x="14042.724609" y="-3636.474609" width="2.197266" height="2.197266"/>
<image xlink:href="tile20_13.png" preserveAspectRatio="none" x="14042.724609" y="-3638.671875" width="2.197266" height="2.197266"/>
<image xlink:href="tile20_12.png" preserveAspectRatio="none" x="14042.724609" y="-3640.869141" width="2.197266" height="2.197266"/>
<image xlink:href="tile20_11.png" preserveAspectRatio="none" x="14042.724609" y="-3643.066406" width="2.197266" height="2.197266"/>
<image xlink:href="tile20_10.png" preserveAspectRatio="none" x="14042.724609" y="-3645.263672" width="2.197266" height="2.197266"/>
<image xlink:href="tile20_9.png" preserveAspectRatio="none" x="14042.724609" y="-3647.460938" width="2.197266" height="2.197266"/>
<image xlink:href="tile20_7.png" preserveAspectRatio="none" x="14042.724609" y="-3651.855469" width="2.197266" height="2.197266"/>
<image xlink:href="tile20_6.png" preserveAspectRatio="none" x="14042.724609" y="-3654.052734" width="2.197266" height="2.197266"/>
<image xlink:href="tile20_5.png" preserveAspectRatio="none" x="14042.724609" y="-3656.25" width="2.197266" height="2.197266"/>
<image xlink:href="tile20_4.png" preserveAspectRatio="none" x="14042.724609" y="-3658.447266" width="2.197266" height="2.197266"/>
<image xlink:href="tile21_14.png" preserveAspectRatio="none" x="14044.921875" y="-3636.474609" width="2.197266" height="2.197266"/>
<image xlink:href="tile21_13.png" preserveAspectRatio="none" x="14044.921875" y="-3638.671875" width="2.197266" height="2.197266"/>
<image xlink:href="tile21_12.png" preserveAspectRatio="none" x="14044.921875" y="-3640.869141" width="2.197266" height="2.197266"/>
<image xlink:href="tile21_11.png" preserveAspectRatio="none" x="14044.921875" y="-3643.066406" width="2.197266" height="2.197266"/>
<image xlink:href="tile21_8.png" preserveAspectRatio="none" x="14044.921875" y="-3649.658203" width="2.197266" height="2.197266"/>
<image xlink:href="tile21_7.png" preserveAspectRatio="none" x="14044.921875" y="-3651.855469" width="2.197266" height="2.197266"/>
<image xlink:href="tile21_6.png" preserveAspectRatio="none" x="14044.921875" y="-3654.052734" width="2.197266" height="2.197266"/>
<image xlink:href="tile21_5.png" preserveAspectRatio="none" x="14044.921875" y="-3656.25" width="2.197266" height="2.197266"/>
<image xlink:href="tile21_4.png" preserveAspectRatio="none" x="14044.921875" y="-3658.447266" width="2.197266" height="2.197266"/>
<image xlink:href="tile22_14.png" preserveAspectRatio="none" x="14047.119141" y="-3636.474609" width="2.197266" height="2.197266"/>
<image xlink:href="tile22_13.png" preserveAspectRatio="none" x="14047.119141" y="-3638.671875" width="2.197266" height="2.197266"/>
<image xlink:href="tile22_12.png" preserveAspectRatio="none" x="14047.119141" y="-3640.869141" width="2.197266" height="2.197266"/>
<image xlink:href="tile22_11.png" preserveAspectRatio="none" x="14047.119141" y="-3643.066406" width="2.197266" height="2.197266"/>
<image xlink:href="tile22_8.png" preserveAspectRatio="none" x="14047.119141" y="-3649.658203" width="2.197266" height="2.197266"/>
<image xlink:href="tile22_7.png" preserveAspectRatio="none" x="14047.119141" y="-3651.855469" width="2.197266" height="2.197266"/>
<image xlink:href="tile22_6.png" preserveAspectRatio="none" x="14047.119141" y="-3654.052734" width="2.197266" height="2.197266"/>
<image xlink:href="tile22_5.png" preserveAspectRatio="none" x="14047.119141" y="-3656.25" width="2.197266" height="2.197266"/>
<image xlink:href="tile22_4.png" preserveAspectRatio="none" x="14047.119141" y="-3658.447266" width="2.197266" height="2.197266"/>
<image xlink:href="tile23_14.png" preserveAspectRatio="none" x="14049.316406" y="-3636.474609" width="2.197266" height="2.197266"/>
<image xlink:href="tile23_13.png" preserveAspectRatio="none" x="14049.316406" y="-3638.671875" width="2.197266" height="2.197266"/>
<image xlink:href="tile23_12.png" preserveAspectRatio="none" x="14049.316406" y="-3640.869141" width="2.197266" height="2.197266"/>
<image xlink:href="tile23_8.png" preserveAspectRatio="none" x="14049.316406" y="-3649.658203" width="2.197266" height="2.197266"/>
<image xlink:href="tile23_7.png" preserveAspectRatio="none" x="14049.316406" y="-3651.855469" width="2.197266" height="2.197266"/>
<image xlink:href="tile23_6.png" preserveAspectRatio="none" x="14049.316406" y="-3654.052734" width="2.197266" height="2.197266"/>
<image xlink:href="tile24_14.png" preserveAspectRatio="none" x="14051.513672" y="-3636.474609" width="2.197266" height="2.197266"/>
<image xlink:href="tile24_13.png" preserveAspectRatio="none" x="14051.513672" y="-3638.671875" width="2.197266" height="2.197266"/>
<image xlink:href="tile24_8.png" preserveAspectRatio="none" x="14051.513672" y="-3649.658203" width="2.197266" height="2.197266"/>
<image xlink:href="tile24_7.png" preserveAspectRatio="none" x="14051.513672" y="-3651.855469" width="2.197266" height="2.197266"/>
<image xlink:href="tile24_6.png" preserveAspectRatio="none" x="14051.513672" y="-3654.052734" width="2.197266" height="2.197266"/>
<image xlink:href="tile24_5.png" preserveAspectRatio="none" x="14051.513672" y="-3656.25" width="2.197266" height="2.197266"/>
<image xlink:href="tile24_4.png" preserveAspectRatio="none" x="14051.513672" y="-3658.447266" width="2.197266" height="2.197266"/>
<image xlink:href="tile24_3.png" preserveAspectRatio="none" x="14051.513672" y="-3660.644531" width="2.197266" height="2.197266"/>
<image xlink:href="tile25_14.png" preserveAspectRatio="none" x="14053.710938" y="-3636.474609" width="2.197266" height="2.197266"/>
<image xlink:href="tile25_13.png" preserveAspectRatio="none" x="14053.710938" y="-3638.671875" width="2.197266" height="2.197266"/>
<image xlink:href="tile25_8.png" preserveAspectRatio="none" x="14053.710938" y="-3649.658203" width="2.197266" height="2.197266"/>
<image xlink:href="tile25_7.png" preserveAspectRatio="none" x="14053.710938" y="-3651.855469" width="2.197266" height="2.197266"/>
<image xlink:href="tile25_6.png" preserveAspectRatio="none" x="14053.710938" y="-3654.052734" width="2.197266" height="2.197266"/>
<image xlink:href="tile25_5.png" preserveAspectRatio="none" x="14053.710938" y="-3656.25" width="2.197266" height="2.197266"/>
<image xlink:href="tile25_4.png" preserveAspectRatio="none" x="14053.710938" y="-3658.447266" width="2.197266" height="2.197266"/>
<image xlink:href="tile25_3.png" preserveAspectRatio="none" x="14053.710938" y="-3660.644531" width="2.197266" height="2.197266"/>
<image xlink:href="tile25_2.png" preserveAspectRatio="none" x="14053.710938" y="-3662.841797" width="2.197266" height="2.197266"/>
<image xlink:href="tile26_14.png" preserveAspectRatio="none" x="14055.908203" y="-3636.474609" width="2.197266" height="2.197266"/>
<image xlink:href="tile26_13.png" preserveAspectRatio="none" x="14055.908203" y="-3638.671875" width="2.197266" height="2.197266"/>
<image xlink:href="tile26_8.png" preserveAspectRatio="none" x="14055.908203" y="-3649.658203" width="2.197266" height="2.197266"/>
<image xlink:href="tile26_7.png" preserveAspectRatio="none" x="14055.908203" y="-3651.855469" width="2.197266" height="2.197266"/>
<image xlink:href="tile26_6.png" preserveAspectRatio="none" x="14055.908203" y="-3654.052734" width="2.197266" height="2.197266"/>
<image xlink:href="tile27_14.png" preserveAspectRatio="none" x="14058.105469" y="-3636.474609" width="2.197266" height="2.197266"/>
<image xlink:href="tile27_9.png" preserveAspectRatio="none" x="14058.105469" y="-3647.460938" width="2.197266" height="2.197266"/>
<image xlink:href="tile27_8.png" preserveAspectRatio="none" x="14058.105469" y="-3649.658203" width="2.197266" height="2.197266"/>
<image xlink:href="tile27_7.png" preserveAspectRatio="none" x="14058.105469" y="-3651.855469" width="2.197266" height="2.197266"/>
<image xlink:href="tile27_6.png" preserveAspectRatio="none" x="14058.105469" y="-3654.052734" width="2.197266" height="2.197266"/>
<image xlink:href="tile28_9.png" preserveAspectRatio="none" x="14060.302734" y="-3647.460938" width="2.197266" height="2.197266"/>
<image xlink:href="tile28_8.png" preserveAspectRatio="none" x="14060.302734" y="-3649.658203" width="2.197266" height="2.197266"/>
<image xlink:href="tile28_7.png" preserveAspectRatio="none" x="14060.302734" y="-3651.855469" width="2.197266" height="2.197266"/>
<image xlink:href="tile31_0.png" preserveAspectRatio="none" x="14066.894531" y="-3667.236328" width="2.197266" height="2.197266"/>
</g>
</svg>
