<?xml version="1.0" encoding="UTF-8"?>
<svg  xmlns="http://www.w3.org/2000/svg" xmlns:xlink="http://www.w3.org/1999/xlink" xmlns:go="http://purl.org/svgmap/profile" viewBox="13100.0 -3331.166667 92.93749999999932 64.50000029999998" go:dataArea="13100.0 -3331.166667 92.93749999999932 64.50000029999998" >
<metadata>
 <rdf:RDF xmlns:rdf="http://www.w3.org/1999/02/22-rdf-syntax-ns#" xmlns:crs="http://opengis.org/xmldtds/transformations.dtd" xmlns:svg="http://www.w3.org/svg" >
  <rdf:Description>
   <crs:CoordinateReferenceSystem rdf:resource="http://purl.org/crs/84" svg:transform="matrix(100.0,0.0,0.0,-100.0,0.0,0.0)" />
  </rdf:Description>
 </rdf:RDF>
</metadata>
<globalCoordinateSystem srsName="http://purl.org/crs/84" transform="matrix(100.0,0.0,0.0,-100.0,0.0,0.0)" />
<g >
<image xlink:href="tile0_2.png" preserveAspectRatio="none" x="13097.900391" y="-3328.857422" width="2.197266" height="2.197266"/>
<image xlink:href="tile0_1.png" preserveAspectRatio="none" x="13097.900391" y="-3331.054688" width="2.197266" height="2.197266"/>
<image xlink:href="tile1_3.png" preserveAspectRatio="none" x="13100.097656" y="-3326.660156" width="2.197266" height="2.197266"/>
<image xlink:href="tile1_2.png" preserveAspectRatio="none" x="13100.097656" y="-3328.857422" width="2.197266" height="2.197266"/>
<image xlink:href="tile1_1.png" preserveAspectRatio="none" x="13100.097656" y="-3331.054688" width="2.197266" height="2.197266"/>
<image xlink:href="tile2_7.png" preserveAspectRatio="none" x="13102.294922" y="-3317.871094" width="2.197266" height="2.197266"/>
<image xlink:href="tile2_6.png" preserveAspectRatio="none" x="13102.294922" y="-3320.068359" width="2.197266" height="2.197266"/>
<image xlink:href="tile2_3.png" preserveAspectRatio="none" x="13102.294922" y="-3326.660156" width="2.197266" height="2.197266"/>
<image xlink:href="tile3_9.png" preserveAspectRatio="none" x="13104.492188" y="-3313.476562" width="2.197266" height="2.197266"/>
<image xlink:href="tile3_8.png" preserveAspectRatio="none" x="13104.492188" y="-3315.673828" width="2.197266" height="2.197266"/>
<image xlink:href="tile3_7.png" preserveAspectRatio="none" x="13104.492188" y="-3317.871094" width="2.197266" height="2.197266"/>
<image xlink:href="tile3_3.png" preserveAspectRatio="none" x="13104.492188" y="-3326.660156" width="2.197266" height="2.197266"/>
<image xlink:href="tile4_3.png" preserveAspectRatio="none" x="13106.689453" y="-3326.660156" width="2.197266" height="2.197266"/>
<image xlink:href="tile6_2.png" preserveAspectRatio="none" x="13111.083984" y="-3328.857422" width="2.197266" height="2.197266"/>
<image xlink:href="tile7_6.png" preserveAspectRatio="none" x="13113.28125" y="-3320.068359" width="2.197266" height="2.197266"/>
<image xlink:href="tile7_2.png" preserveAspectRatio="none" x="13113.28125" y="-3328.857422" width="2.197266" height="2.197266"/>
<image xlink:href="tile7_1.png" preserveAspectRatio="none" x="13113.28125" y="-3331.054688" width="2.197266" height="2.197266"/>
<image xlink:href="tile8_6.png" preserveAspectRatio="none" x="13115.478516" y="-3320.068359" width="2.197266" height="2.197266"/>
<image xlink:href="tile8_5.png" preserveAspectRatio="none" x="13115.478516" y="-3322.265625" width="2.197266" height="2.197266"/>
<image xlink:href="tile8_4.png" preserveAspectRatio="none" x="13115.478516" y="-3324.462891" width="2.197266" height="2.197266"/>
<image xlink:href="tile8_3.png" preserveAspectRatio="none" x="13115.478516" y="-3326.660156" width="2.197266" height="2.197266"/>
<image xlink:href="tile8_2.png" preserveAspectRatio="none" x="13115.478516" y="-3328.857422" width="2.197266" height="2.197266"/>
<image xlink:href="tile8_1.png" preserveAspectRatio="none" x="13115.478516" y="-3331.054688" width="2.197266" height="2.197266"/>
<image xlink:href="tile8_0.png" preserveAspectRatio="none" x="13115.478516" y="-3333.251953" width="2.197266" height="2.197266"/>
<image xlink:href="tile9_5.png" preserveAspectRatio="none" x="13117.675781" y="-3322.265625" width="2.197266" height="2.197266"/>
<image xlink:href="tile9_4.png" preserveAspectRatio="none" x="13117.675781" y="-3324.462891" width="2.197266" height="2.197266"/>
<image xlink:href="tile9_3.png" preserveAspectRatio="none" x="13117.675781" y="-3326.660156" width="2.197266" height="2.197266"/>
<image xlink:href="tile9_2.png" preserveAspectRatio="none" x="13117.675781" y="-3328.857422" width="2.197266" height="2.197266"/>
<image xlink:href="tile10_4.png" preserveAspectRatio="none" x="13119.873047" y="-3324.462891" width="2.197266" height="2.197266"/>
<image xlink:href="tile10_2.png" preserveAspectRatio="none" x="13119.873047" y="-3328.857422" width="2.197266" height="2.197266"/>
<image xlink:href="tile15_4.png" preserveAspectRatio="none" x="13130.859375" y="-3324.462891" width="2.197266" height="2.197266"/>
<image xlink:href="tile15_3.png" preserveAspectRatio="none" x="13130.859375" y="-3326.660156" width="2.197266" height="2.197266"/>
</g>
</svg>
