<?xml version="1.0" encoding="UTF-8"?>
<svg  xmlns="http://www.w3.org/2000/svg" xmlns:xlink="http://www.w3.org/1999/xlink" xmlns:go="http://purl.org/svgmap/profile" viewBox="13800.0 -3666.666667 100.0 66.66666699999979" go:dataArea="13800.0 -3666.666667 100.0 66.66666699999979" >
<metadata>
 <rdf:RDF xmlns:rdf="http://www.w3.org/1999/02/22-rdf-syntax-ns#" xmlns:crs="http://opengis.org/xmldtds/transformations.dtd" xmlns:svg="http://www.w3.org/svg" >
  <rdf:Description>
   <crs:CoordinateReferenceSystem rdf:resource="http://purl.org/crs/84" svg:transform="matrix(100.0,0.0,0.0,-100.0,0.0,0.0)" />
  </rdf:Description>
 </rdf:RDF>
</metadata>
<globalCoordinateSystem srsName="http://purl.org/crs/84" transform="matrix(100.0,0.0,0.0,-100.0,0.0,0.0)" />
<g >
<image xlink:href="tile0_8.png" preserveAspectRatio="none" x="13798.828125" y="-3603.515625" width="8.789062" height="8.789062"/>
<image xlink:href="tile0_7.png" preserveAspectRatio="none" x="13798.828125" y="-3612.304688" width="8.789062" height="8.789062"/>
<image xlink:href="tile0_5.png" preserveAspectRatio="none" x="13798.828125" y="-3629.882812" width="8.789062" height="8.789062"/>
<image xlink:href="tile0_2.png" preserveAspectRatio="none" x="13798.828125" y="-3656.25" width="8.789062" height="8.789062"/>
<image xlink:href="tile0_1.png" preserveAspectRatio="none" x="13798.828125" y="-3665.039062" width="8.789062" height="8.789062"/>
<image xlink:href="tile1_8.png" preserveAspectRatio="none" x="13807.617188" y="-3603.515625" width="8.789062" height="8.789062"/>
<image xlink:href="tile1_7.png" preserveAspectRatio="none" x="13807.617188" y="-3612.304688" width="8.789062" height="8.789062"/>
<image xlink:href="tile1_4.png" preserveAspectRatio="none" x="13807.617188" y="-3638.671875" width="8.789062" height="8.789062"/>
<image xlink:href="tile1_3.png" preserveAspectRatio="none" x="13807.617188" y="-3647.460938" width="8.789062" height="8.789062"/>
<image xlink:href="tile1_2.png" preserveAspectRatio="none" x="13807.617188" y="-3656.25" width="8.789062" height="8.789062"/>
<image xlink:href="tile1_1.png" preserveAspectRatio="none" x="13807.617188" y="-3665.039062" width="8.789062" height="8.789062"/>
<image xlink:href="tile1_0.png" preserveAspectRatio="none" x="13807.617188" y="-3673.828125" width="8.789062" height="8.789062"/>
<image xlink:href="tile2_8.png" preserveAspectRatio="none" x="13816.40625" y="-3603.515625" width="8.789062" height="8.789062"/>
<image xlink:href="tile2_6.png" preserveAspectRatio="none" x="13816.40625" y="-3621.09375" width="8.789062" height="8.789062"/>
<image xlink:href="tile2_5.png" preserveAspectRatio="none" x="13816.40625" y="-3629.882812" width="8.789062" height="8.789062"/>
<image xlink:href="tile2_4.png" preserveAspectRatio="none" x="13816.40625" y="-3638.671875" width="8.789062" height="8.789062"/>
<image xlink:href="tile2_3.png" preserveAspectRatio="none" x="13816.40625" y="-3647.460938" width="8.789062" height="8.789062"/>
<image xlink:href="tile2_2.png" preserveAspectRatio="none" x="13816.40625" y="-3656.25" width="8.789062" height="8.789062"/>
<image xlink:href="tile2_1.png" preserveAspectRatio="none" x="13816.40625" y="-3665.039062" width="8.789062" height="8.789062"/>
<image xlink:href="tile2_0.png" preserveAspectRatio="none" x="13816.40625" y="-3673.828125" width="8.789062" height="8.789062"/>
<image xlink:href="tile3_5.png" preserveAspectRatio="none" x="13825.195312" y="-3629.882812" width="8.789062" height="8.789062"/>
<image xlink:href="tile3_4.png" preserveAspectRatio="none" x="13825.195312" y="-3638.671875" width="8.789062" height="8.789062"/>
<image xlink:href="tile3_3.png" preserveAspectRatio="none" x="13825.195312" y="-3647.460938" width="8.789062" height="8.789062"/>
<image xlink:href="tile3_2.png" preserveAspectRatio="none" x="13825.195312" y="-3656.25" width="8.789062" height="8.789062"/>
<image xlink:href="tile3_1.png" preserveAspectRatio="none" x="13825.195312" y="-3665.039062" width="8.789062" height="8.789062"/>
<image xlink:href="tile3_0.png" preserveAspectRatio="none" x="13825.195312" y="-3673.828125" width="8.789062" height="8.789062"/>
<image xlink:href="tile4_5.png" preserveAspectRatio="none" x="13833.984375" y="-3629.882812" width="8.789062" height="8.789062"/>
<image xlink:href="tile4_4.png" preserveAspectRatio="none" x="13833.984375" y="-3638.671875" width="8.789062" height="8.789062"/>
<image xlink:href="tile4_3.png" preserveAspectRatio="none" x="13833.984375" y="-3647.460938" width="8.789062" height="8.789062"/>
<image xlink:href="tile4_2.png" preserveAspectRatio="none" x="13833.984375" y="-3656.25" width="8.789062" height="8.789062"/>
<image xlink:href="tile4_1.png" preserveAspectRatio="none" x="13833.984375" y="-3665.039062" width="8.789062" height="8.789062"/>
<image xlink:href="tile4_0.png" preserveAspectRatio="none" x="13833.984375" y="-3673.828125" width="8.789062" height="8.789062"/>
<image xlink:href="tile5_8.png" preserveAspectRatio="none" x="13842.773438" y="-3603.515625" width="8.789062" height="8.789062"/>
<image xlink:href="tile5_7.png" preserveAspectRatio="none" x="13842.773438" y="-3612.304688" width="8.789062" height="8.789062"/>
<image xlink:href="tile5_6.png" preserveAspectRatio="none" x="13842.773438" y="-3621.09375" width="8.789062" height="8.789062"/>
<image xlink:href="tile5_5.png" preserveAspectRatio="none" x="13842.773438" y="-3629.882812" width="8.789062" height="8.789062"/>
<image xlink:href="tile5_0.png" preserveAspectRatio="none" x="13842.773438" y="-3673.828125" width="8.789062" height="8.789062"/>
<image xlink:href="tile6_8.png" preserveAspectRatio="none" x="13851.5625" y="-3603.515625" width="8.789062" height="8.789062"/>
<image xlink:href="tile9_6.png" preserveAspectRatio="none" x="13877.929688" y="-3621.09375" width="8.789062" height="8.789062"/>
<image xlink:href="tile9_5.png" preserveAspectRatio="none" x="13877.929688" y="-3629.882812" width="8.789062" height="8.789062"/>
<image xlink:href="tile10_5.png" preserveAspectRatio="none" x="13886.71875" y="-3629.882812" width="8.789062" height="8.789062"/>
<image xlink:href="tile10_4.png" preserveAspectRatio="none" x="13886.71875" y="-3638.671875" width="8.789062" height="8.789062"/>
<image xlink:href="tile10_3.png" preserveAspectRatio="none" x="13886.71875" y="-3647.460938" width="8.789062" height="8.789062"/>
<image xlink:href="tile11_5.png" preserveAspectRatio="none" x="13895.507812" y="-3629.882812" width="8.789062" height="8.789062"/>
<image xlink:href="tile11_4.png" preserveAspectRatio="none" x="13895.507812" y="-3638.671875" width="8.789062" height="8.789062"/>
</g>
</svg>
