<?xml version="1.0" encoding="UTF-8"?>
<svg  xmlns="http://www.w3.org/2000/svg" xmlns:xlink="http://www.w3.org/1999/xlink" xmlns:go="http://purl.org/svgmap/profile" viewBox="13900.0 -3666.666667 100.0 66.66666699999979" go:dataArea="13900.0 -3666.666667 100.0 66.66666699999979" >
<metadata>
 <rdf:RDF xmlns:rdf="http://www.w3.org/1999/02/22-rdf-syntax-ns#" xmlns:crs="http://opengis.org/xmldtds/transformations.dtd" xmlns:svg="http://www.w3.org/svg" >
  <rdf:Description>
   <crs:CoordinateReferenceSystem rdf:resource="http://purl.org/crs/84" svg:transform="matrix(100.0,0.0,0.0,-100.0,0.0,0.0)" />
  </rdf:Description>
 </rdf:RDF>
</metadata>
<globalCoordinateSystem srsName="http://purl.org/crs/84" transform="matrix(100.0,0.0,0.0,-100.0,0.0,0.0)" />
<g >
<image xlink:href="tile16_56.png" preserveAspectRatio="none" x="13917.480469" y="-3605.712891" width="1.098633" height="1.098633"/>
<image xlink:href="tile16_55.png" preserveAspectRatio="none" x="13917.480469" y="-3606.811523" width="1.098633" height="1.098633"/>
<image xlink:href="tile16_46.png" preserveAspectRatio="none" x="13917.480469" y="-3616.699219" width="1.098633" height="1.098633"/>
<image xlink:href="tile17_56.png" preserveAspectRatio="none" x="13918.579102" y="-3605.712891" width="1.098633" height="1.098633"/>
<image xlink:href="tile17_55.png" preserveAspectRatio="none" x="13918.579102" y="-3606.811523" width="1.098633" height="1.098633"/>
<image xlink:href="tile17_46.png" preserveAspectRatio="none" x="13918.579102" y="-3616.699219" width="1.098633" height="1.098633"/>
<image xlink:href="tile18_56.png" preserveAspectRatio="none" x="13919.677734" y="-3605.712891" width="1.098633" height="1.098633"/>
<image xlink:href="tile18_46.png" preserveAspectRatio="none" x="13919.677734" y="-3616.699219" width="1.098633" height="1.098633"/>
<image xlink:href="tile19_57.png" preserveAspectRatio="none" x="13920.776367" y="-3604.614258" width="1.098633" height="1.098633"/>
<image xlink:href="tile19_56.png" preserveAspectRatio="none" x="13920.776367" y="-3605.712891" width="1.098633" height="1.098633"/>
<image xlink:href="tile19_46.png" preserveAspectRatio="none" x="13920.776367" y="-3616.699219" width="1.098633" height="1.098633"/>
<image xlink:href="tile20_57.png" preserveAspectRatio="none" x="13921.875" y="-3604.614258" width="1.098633" height="1.098633"/>
<image xlink:href="tile20_56.png" preserveAspectRatio="none" x="13921.875" y="-3605.712891" width="1.098633" height="1.098633"/>
<image xlink:href="tile20_54.png" preserveAspectRatio="none" x="13921.875" y="-3607.910156" width="1.098633" height="1.098633"/>
<image xlink:href="tile21_57.png" preserveAspectRatio="none" x="13922.973633" y="-3604.614258" width="1.098633" height="1.098633"/>
<image xlink:href="tile21_56.png" preserveAspectRatio="none" x="13922.973633" y="-3605.712891" width="1.098633" height="1.098633"/>
<image xlink:href="tile21_54.png" preserveAspectRatio="none" x="13922.973633" y="-3607.910156" width="1.098633" height="1.098633"/>
<image xlink:href="tile21_50.png" preserveAspectRatio="none" x="13922.973633" y="-3612.304688" width="1.098633" height="1.098633"/>
<image xlink:href="tile22_60.png" preserveAspectRatio="none" x="13924.072266" y="-3601.318359" width="1.098633" height="1.098633"/>
<image xlink:href="tile22_57.png" preserveAspectRatio="none" x="13924.072266" y="-3604.614258" width="1.098633" height="1.098633"/>
<image xlink:href="tile22_56.png" preserveAspectRatio="none" x="13924.072266" y="-3605.712891" width="1.098633" height="1.098633"/>
<image xlink:href="tile22_55.png" preserveAspectRatio="none" x="13924.072266" y="-3606.811523" width="1.098633" height="1.098633"/>
<image xlink:href="tile22_54.png" preserveAspectRatio="none" x="13924.072266" y="-3607.910156" width="1.098633" height="1.098633"/>
<image xlink:href="tile22_50.png" preserveAspectRatio="none" x="13924.072266" y="-3612.304688" width="1.098633" height="1.098633"/>
<image xlink:href="tile23_59.png" preserveAspectRatio="none" x="13925.170898" y="-3602.416992" width="1.098633" height="1.098633"/>
<image xlink:href="tile23_56.png" preserveAspectRatio="none" x="13925.170898" y="-3605.712891" width="1.098633" height="1.098633"/>
<image xlink:href="tile23_55.png" preserveAspectRatio="none" x="13925.170898" y="-3606.811523" width="1.098633" height="1.098633"/>
<image xlink:href="tile23_50.png" preserveAspectRatio="none" x="13925.170898" y="-3612.304688" width="1.098633" height="1.098633"/>
<image xlink:href="tile23_49.png" preserveAspectRatio="none" x="13925.170898" y="-3613.40332" width="1.098633" height="1.098633"/>
<image xlink:href="tile24_60.png" preserveAspectRatio="none" x="13926.269531" y="-3601.318359" width="1.098633" height="1.098633"/>
<image xlink:href="tile24_59.png" preserveAspectRatio="none" x="13926.269531" y="-3602.416992" width="1.098633" height="1.098633"/>
<image xlink:href="tile24_56.png" preserveAspectRatio="none" x="13926.269531" y="-3605.712891" width="1.098633" height="1.098633"/>
<image xlink:href="tile24_55.png" preserveAspectRatio="none" x="13926.269531" y="-3606.811523" width="1.098633" height="1.098633"/>
<image xlink:href="tile24_49.png" preserveAspectRatio="none" x="13926.269531" y="-3613.40332" width="1.098633" height="1.098633"/>
<image xlink:href="tile24_48.png" preserveAspectRatio="none" x="13926.269531" y="-3614.501953" width="1.098633" height="1.098633"/>
<image xlink:href="tile25_60.png" preserveAspectRatio="none" x="13927.368164" y="-3601.318359" width="1.098633" height="1.098633"/>
<image xlink:href="tile25_59.png" preserveAspectRatio="none" x="13927.368164" y="-3602.416992" width="1.098633" height="1.098633"/>
<image xlink:href="tile25_58.png" preserveAspectRatio="none" x="13927.368164" y="-3603.515625" width="1.098633" height="1.098633"/>
<image xlink:href="tile25_57.png" preserveAspectRatio="none" x="13927.368164" y="-3604.614258" width="1.098633" height="1.098633"/>
<image xlink:href="tile25_56.png" preserveAspectRatio="none" x="13927.368164" y="-3605.712891" width="1.098633" height="1.098633"/>
<image xlink:href="tile25_55.png" preserveAspectRatio="none" x="13927.368164" y="-3606.811523" width="1.098633" height="1.098633"/>
<image xlink:href="tile25_49.png" preserveAspectRatio="none" x="13927.368164" y="-3613.40332" width="1.098633" height="1.098633"/>
<image xlink:href="tile25_48.png" preserveAspectRatio="none" x="13927.368164" y="-3614.501953" width="1.098633" height="1.098633"/>
<image xlink:href="tile26_60.png" preserveAspectRatio="none" x="13928.466797" y="-3601.318359" width="1.098633" height="1.098633"/>
<image xlink:href="tile26_59.png" preserveAspectRatio="none" x="13928.466797" y="-3602.416992" width="1.098633" height="1.098633"/>
<image xlink:href="tile26_58.png" preserveAspectRatio="none" x="13928.466797" y="-3603.515625" width="1.098633" height="1.098633"/>
<image xlink:href="tile26_57.png" preserveAspectRatio="none" x="13928.466797" y="-3604.614258" width="1.098633" height="1.098633"/>
<image xlink:href="tile26_56.png" preserveAspectRatio="none" x="13928.466797" y="-3605.712891" width="1.098633" height="1.098633"/>
<image xlink:href="tile26_49.png" preserveAspectRatio="none" x="13928.466797" y="-3613.40332" width="1.098633" height="1.098633"/>
<image xlink:href="tile26_48.png" preserveAspectRatio="none" x="13928.466797" y="-3614.501953" width="1.098633" height="1.098633"/>
<image xlink:href="tile27_60.png" preserveAspectRatio="none" x="13929.56543" y="-3601.318359" width="1.098633" height="1.098633"/>
<image xlink:href="tile27_59.png" preserveAspectRatio="none" x="13929.56543" y="-3602.416992" width="1.098633" height="1.098633"/>
<image xlink:href="tile27_58.png" preserveAspectRatio="none" x="13929.56543" y="-3603.515625" width="1.098633" height="1.098633"/>
<image xlink:href="tile27_57.png" preserveAspectRatio="none" x="13929.56543" y="-3604.614258" width="1.098633" height="1.098633"/>
<image xlink:href="tile27_49.png" preserveAspectRatio="none" x="13929.56543" y="-3613.40332" width="1.098633" height="1.098633"/>
<image xlink:href="tile27_48.png" preserveAspectRatio="none" x="13929.56543" y="-3614.501953" width="1.098633" height="1.098633"/>
<image xlink:href="tile27_47.png" preserveAspectRatio="none" x="13929.56543" y="-3615.600586" width="1.098633" height="1.098633"/>
<image xlink:href="tile28_59.png" preserveAspectRatio="none" x="13930.664062" y="-3602.416992" width="1.098633" height="1.098633"/>
<image xlink:href="tile28_58.png" preserveAspectRatio="none" x="13930.664062" y="-3603.515625" width="1.098633" height="1.098633"/>
<image xlink:href="tile28_48.png" preserveAspectRatio="none" x="13930.664062" y="-3614.501953" width="1.098633" height="1.098633"/>
<image xlink:href="tile28_47.png" preserveAspectRatio="none" x="13930.664062" y="-3615.600586" width="1.098633" height="1.098633"/>
<image xlink:href="tile29_58.png" preserveAspectRatio="none" x="13931.762695" y="-3603.515625" width="1.098633" height="1.098633"/>
<image xlink:href="tile29_47.png" preserveAspectRatio="none" x="13931.762695" y="-3615.600586" width="1.098633" height="1.098633"/>
<image xlink:href="tile29_46.png" preserveAspectRatio="none" x="13931.762695" y="-3616.699219" width="1.098633" height="1.098633"/>
<image xlink:href="tile30_59.png" preserveAspectRatio="none" x="13932.861328" y="-3602.416992" width="1.098633" height="1.098633"/>
<image xlink:href="tile30_58.png" preserveAspectRatio="none" x="13932.861328" y="-3603.515625" width="1.098633" height="1.098633"/>
<image xlink:href="tile30_47.png" preserveAspectRatio="none" x="13932.861328" y="-3615.600586" width="1.098633" height="1.098633"/>
<image xlink:href="tile30_46.png" preserveAspectRatio="none" x="13932.861328" y="-3616.699219" width="1.098633" height="1.098633"/>
<image xlink:href="tile31_59.png" preserveAspectRatio="none" x="13933.959961" y="-3602.416992" width="1.098633" height="1.098633"/>
<image xlink:href="tile31_58.png" preserveAspectRatio="none" x="13933.959961" y="-3603.515625" width="1.098633" height="1.098633"/>
<image xlink:href="tile31_49.png" preserveAspectRatio="none" x="13933.959961" y="-3613.40332" width="1.098633" height="1.098633"/>
<image xlink:href="tile31_48.png" preserveAspectRatio="none" x="13933.959961" y="-3614.501953" width="1.098633" height="1.098633"/>
<image xlink:href="tile31_47.png" preserveAspectRatio="none" x="13933.959961" y="-3615.600586" width="1.098633" height="1.098633"/>
<image xlink:href="tile31_46.png" preserveAspectRatio="none" x="13933.959961" y="-3616.699219" width="1.098633" height="1.098633"/>
</g>
</svg>
