<?xml version="1.0" encoding="UTF-8"?>
<svg  xmlns="http://www.w3.org/2000/svg" xmlns:xlink="http://www.w3.org/1999/xlink" xmlns:go="http://purl.org/svgmap/profile" viewBox="13900.0 -3666.666667 100.0 66.66666699999979" go:dataArea="13900.0 -3666.666667 100.0 66.66666699999979" >
<metadata>
 <rdf:RDF xmlns:rdf="http://www.w3.org/1999/02/22-rdf-syntax-ns#" xmlns:crs="http://opengis.org/xmldtds/transformations.dtd" xmlns:svg="http://www.w3.org/svg" >
  <rdf:Description>
   <crs:CoordinateReferenceSystem rdf:resource="http://purl.org/crs/84" svg:transform="matrix(100.0,0.0,0.0,-100.0,0.0,0.0)" />
  </rdf:Description>
 </rdf:RDF>
</metadata>
<globalCoordinateSystem srsName="http://purl.org/crs/84" transform="matrix(100.0,0.0,0.0,-100.0,0.0,0.0)" />
<g >
<image xlink:href="tile80_13.png" preserveAspectRatio="none" x="13987.792969" y="-3652.954102" width="1.098633" height="1.098633"/>
<image xlink:href="tile80_12.png" preserveAspectRatio="none" x="13987.792969" y="-3654.052734" width="1.098633" height="1.098633"/>
<image xlink:href="tile80_11.png" preserveAspectRatio="none" x="13987.792969" y="-3655.151367" width="1.098633" height="1.098633"/>
<image xlink:href="tile80_10.png" preserveAspectRatio="none" x="13987.792969" y="-3656.25" width="1.098633" height="1.098633"/>
<image xlink:href="tile80_9.png" preserveAspectRatio="none" x="13987.792969" y="-3657.348633" width="1.098633" height="1.098633"/>
<image xlink:href="tile80_8.png" preserveAspectRatio="none" x="13987.792969" y="-3658.447266" width="1.098633" height="1.098633"/>
<image xlink:href="tile80_5.png" preserveAspectRatio="none" x="13987.792969" y="-3661.743164" width="1.098633" height="1.098633"/>
<image xlink:href="tile81_13.png" preserveAspectRatio="none" x="13988.891602" y="-3652.954102" width="1.098633" height="1.098633"/>
<image xlink:href="tile81_12.png" preserveAspectRatio="none" x="13988.891602" y="-3654.052734" width="1.098633" height="1.098633"/>
<image xlink:href="tile81_11.png" preserveAspectRatio="none" x="13988.891602" y="-3655.151367" width="1.098633" height="1.098633"/>
<image xlink:href="tile81_10.png" preserveAspectRatio="none" x="13988.891602" y="-3656.25" width="1.098633" height="1.098633"/>
<image xlink:href="tile81_9.png" preserveAspectRatio="none" x="13988.891602" y="-3657.348633" width="1.098633" height="1.098633"/>
<image xlink:href="tile81_8.png" preserveAspectRatio="none" x="13988.891602" y="-3658.447266" width="1.098633" height="1.098633"/>
<image xlink:href="tile81_7.png" preserveAspectRatio="none" x="13988.891602" y="-3659.545898" width="1.098633" height="1.098633"/>
<image xlink:href="tile81_6.png" preserveAspectRatio="none" x="13988.891602" y="-3660.644531" width="1.098633" height="1.098633"/>
<image xlink:href="tile81_5.png" preserveAspectRatio="none" x="13988.891602" y="-3661.743164" width="1.098633" height="1.098633"/>
<image xlink:href="tile82_13.png" preserveAspectRatio="none" x="13989.990234" y="-3652.954102" width="1.098633" height="1.098633"/>
<image xlink:href="tile82_12.png" preserveAspectRatio="none" x="13989.990234" y="-3654.052734" width="1.098633" height="1.098633"/>
<image xlink:href="tile82_11.png" preserveAspectRatio="none" x="13989.990234" y="-3655.151367" width="1.098633" height="1.098633"/>
<image xlink:href="tile82_9.png" preserveAspectRatio="none" x="13989.990234" y="-3657.348633" width="1.098633" height="1.098633"/>
<image xlink:href="tile82_7.png" preserveAspectRatio="none" x="13989.990234" y="-3659.545898" width="1.098633" height="1.098633"/>
<image xlink:href="tile82_6.png" preserveAspectRatio="none" x="13989.990234" y="-3660.644531" width="1.098633" height="1.098633"/>
<image xlink:href="tile83_13.png" preserveAspectRatio="none" x="13991.088867" y="-3652.954102" width="1.098633" height="1.098633"/>
<image xlink:href="tile84_13.png" preserveAspectRatio="none" x="13992.1875" y="-3652.954102" width="1.098633" height="1.098633"/>
<image xlink:href="tile84_12.png" preserveAspectRatio="none" x="13992.1875" y="-3654.052734" width="1.098633" height="1.098633"/>
<image xlink:href="tile84_2.png" preserveAspectRatio="none" x="13992.1875" y="-3665.039062" width="1.098633" height="1.098633"/>
<image xlink:href="tile84_1.png" preserveAspectRatio="none" x="13992.1875" y="-3666.137695" width="1.098633" height="1.098633"/>
<image xlink:href="tile84_0.png" preserveAspectRatio="none" x="13992.1875" y="-3667.236328" width="1.098633" height="1.098633"/>
<image xlink:href="tile85_13.png" preserveAspectRatio="none" x="13993.286133" y="-3652.954102" width="1.098633" height="1.098633"/>
<image xlink:href="tile85_12.png" preserveAspectRatio="none" x="13993.286133" y="-3654.052734" width="1.098633" height="1.098633"/>
<image xlink:href="tile85_11.png" preserveAspectRatio="none" x="13993.286133" y="-3655.151367" width="1.098633" height="1.098633"/>
<image xlink:href="tile85_4.png" preserveAspectRatio="none" x="13993.286133" y="-3662.841797" width="1.098633" height="1.098633"/>
<image xlink:href="tile85_3.png" preserveAspectRatio="none" x="13993.286133" y="-3663.94043" width="1.098633" height="1.098633"/>
<image xlink:href="tile85_2.png" preserveAspectRatio="none" x="13993.286133" y="-3665.039062" width="1.098633" height="1.098633"/>
<image xlink:href="tile85_1.png" preserveAspectRatio="none" x="13993.286133" y="-3666.137695" width="1.098633" height="1.098633"/>
<image xlink:href="tile85_0.png" preserveAspectRatio="none" x="13993.286133" y="-3667.236328" width="1.098633" height="1.098633"/>
<image xlink:href="tile86_13.png" preserveAspectRatio="none" x="13994.384766" y="-3652.954102" width="1.098633" height="1.098633"/>
<image xlink:href="tile86_12.png" preserveAspectRatio="none" x="13994.384766" y="-3654.052734" width="1.098633" height="1.098633"/>
<image xlink:href="tile86_11.png" preserveAspectRatio="none" x="13994.384766" y="-3655.151367" width="1.098633" height="1.098633"/>
<image xlink:href="tile86_10.png" preserveAspectRatio="none" x="13994.384766" y="-3656.25" width="1.098633" height="1.098633"/>
<image xlink:href="tile86_9.png" preserveAspectRatio="none" x="13994.384766" y="-3657.348633" width="1.098633" height="1.098633"/>
<image xlink:href="tile86_8.png" preserveAspectRatio="none" x="13994.384766" y="-3658.447266" width="1.098633" height="1.098633"/>
<image xlink:href="tile86_7.png" preserveAspectRatio="none" x="13994.384766" y="-3659.545898" width="1.098633" height="1.098633"/>
<image xlink:href="tile86_6.png" preserveAspectRatio="none" x="13994.384766" y="-3660.644531" width="1.098633" height="1.098633"/>
<image xlink:href="tile86_5.png" preserveAspectRatio="none" x="13994.384766" y="-3661.743164" width="1.098633" height="1.098633"/>
<image xlink:href="tile86_4.png" preserveAspectRatio="none" x="13994.384766" y="-3662.841797" width="1.098633" height="1.098633"/>
<image xlink:href="tile86_3.png" preserveAspectRatio="none" x="13994.384766" y="-3663.94043" width="1.098633" height="1.098633"/>
<image xlink:href="tile86_2.png" preserveAspectRatio="none" x="13994.384766" y="-3665.039062" width="1.098633" height="1.098633"/>
<image xlink:href="tile86_1.png" preserveAspectRatio="none" x="13994.384766" y="-3666.137695" width="1.098633" height="1.098633"/>
<image xlink:href="tile86_0.png" preserveAspectRatio="none" x="13994.384766" y="-3667.236328" width="1.098633" height="1.098633"/>
<image xlink:href="tile87_13.png" preserveAspectRatio="none" x="13995.483398" y="-3652.954102" width="1.098633" height="1.098633"/>
<image xlink:href="tile87_12.png" preserveAspectRatio="none" x="13995.483398" y="-3654.052734" width="1.098633" height="1.098633"/>
<image xlink:href="tile87_11.png" preserveAspectRatio="none" x="13995.483398" y="-3655.151367" width="1.098633" height="1.098633"/>
<image xlink:href="tile87_10.png" preserveAspectRatio="none" x="13995.483398" y="-3656.25" width="1.098633" height="1.098633"/>
<image xlink:href="tile87_9.png" preserveAspectRatio="none" x="13995.483398" y="-3657.348633" width="1.098633" height="1.098633"/>
<image xlink:href="tile87_8.png" preserveAspectRatio="none" x="13995.483398" y="-3658.447266" width="1.098633" height="1.098633"/>
<image xlink:href="tile87_7.png" preserveAspectRatio="none" x="13995.483398" y="-3659.545898" width="1.098633" height="1.098633"/>
<image xlink:href="tile87_6.png" preserveAspectRatio="none" x="13995.483398" y="-3660.644531" width="1.098633" height="1.098633"/>
<image xlink:href="tile87_5.png" preserveAspectRatio="none" x="13995.483398" y="-3661.743164" width="1.098633" height="1.098633"/>
<image xlink:href="tile87_4.png" preserveAspectRatio="none" x="13995.483398" y="-3662.841797" width="1.098633" height="1.098633"/>
<image xlink:href="tile87_3.png" preserveAspectRatio="none" x="13995.483398" y="-3663.94043" width="1.098633" height="1.098633"/>
<image xlink:href="tile87_2.png" preserveAspectRatio="none" x="13995.483398" y="-3665.039062" width="1.098633" height="1.098633"/>
<image xlink:href="tile87_1.png" preserveAspectRatio="none" x="13995.483398" y="-3666.137695" width="1.098633" height="1.098633"/>
<image xlink:href="tile87_0.png" preserveAspectRatio="none" x="13995.483398" y="-3667.236328" width="1.098633" height="1.098633"/>
<image xlink:href="tile88_13.png" preserveAspectRatio="none" x="13996.582031" y="-3652.954102" width="1.098633" height="1.098633"/>
<image xlink:href="tile88_12.png" preserveAspectRatio="none" x="13996.582031" y="-3654.052734" width="1.098633" height="1.098633"/>
<image xlink:href="tile88_11.png" preserveAspectRatio="none" x="13996.582031" y="-3655.151367" width="1.098633" height="1.098633"/>
<image xlink:href="tile88_10.png" preserveAspectRatio="none" x="13996.582031" y="-3656.25" width="1.098633" height="1.098633"/>
<image xlink:href="tile88_9.png" preserveAspectRatio="none" x="13996.582031" y="-3657.348633" width="1.098633" height="1.098633"/>
<image xlink:href="tile88_8.png" preserveAspectRatio="none" x="13996.582031" y="-3658.447266" width="1.098633" height="1.098633"/>
<image xlink:href="tile88_7.png" preserveAspectRatio="none" x="13996.582031" y="-3659.545898" width="1.098633" height="1.098633"/>
<image xlink:href="tile88_6.png" preserveAspectRatio="none" x="13996.582031" y="-3660.644531" width="1.098633" height="1.098633"/>
<image xlink:href="tile88_5.png" preserveAspectRatio="none" x="13996.582031" y="-3661.743164" width="1.098633" height="1.098633"/>
<image xlink:href="tile88_4.png" preserveAspectRatio="none" x="13996.582031" y="-3662.841797" width="1.098633" height="1.098633"/>
<image xlink:href="tile88_3.png" preserveAspectRatio="none" x="13996.582031" y="-3663.94043" width="1.098633" height="1.098633"/>
<image xlink:href="tile88_2.png" preserveAspectRatio="none" x="13996.582031" y="-3665.039062" width="1.098633" height="1.098633"/>
<image xlink:href="tile88_1.png" preserveAspectRatio="none" x="13996.582031" y="-3666.137695" width="1.098633" height="1.098633"/>
<image xlink:href="tile88_0.png" preserveAspectRatio="none" x="13996.582031" y="-3667.236328" width="1.098633" height="1.098633"/>
<image xlink:href="tile89_13.png" preserveAspectRatio="none" x="13997.680664" y="-3652.954102" width="1.098633" height="1.098633"/>
<image xlink:href="tile89_9.png" preserveAspectRatio="none" x="13997.680664" y="-3657.348633" width="1.098633" height="1.098633"/>
<image xlink:href="tile89_8.png" preserveAspectRatio="none" x="13997.680664" y="-3658.447266" width="1.098633" height="1.098633"/>
<image xlink:href="tile89_7.png" preserveAspectRatio="none" x="13997.680664" y="-3659.545898" width="1.098633" height="1.098633"/>
<image xlink:href="tile89_5.png" preserveAspectRatio="none" x="13997.680664" y="-3661.743164" width="1.098633" height="1.098633"/>
<image xlink:href="tile89_4.png" preserveAspectRatio="none" x="13997.680664" y="-3662.841797" width="1.098633" height="1.098633"/>
<image xlink:href="tile89_3.png" preserveAspectRatio="none" x="13997.680664" y="-3663.94043" width="1.098633" height="1.098633"/>
<image xlink:href="tile89_2.png" preserveAspectRatio="none" x="13997.680664" y="-3665.039062" width="1.098633" height="1.098633"/>
<image xlink:href="tile89_1.png" preserveAspectRatio="none" x="13997.680664" y="-3666.137695" width="1.098633" height="1.098633"/>
<image xlink:href="tile89_0.png" preserveAspectRatio="none" x="13997.680664" y="-3667.236328" width="1.098633" height="1.098633"/>
<image xlink:href="tile90_4.png" preserveAspectRatio="none" x="13998.779297" y="-3662.841797" width="1.098633" height="1.098633"/>
<image xlink:href="tile90_3.png" preserveAspectRatio="none" x="13998.779297" y="-3663.94043" width="1.098633" height="1.098633"/>
<image xlink:href="tile90_2.png" preserveAspectRatio="none" x="13998.779297" y="-3665.039062" width="1.098633" height="1.098633"/>
<image xlink:href="tile90_1.png" preserveAspectRatio="none" x="13998.779297" y="-3666.137695" width="1.098633" height="1.098633"/>
<image xlink:href="tile90_0.png" preserveAspectRatio="none" x="13998.779297" y="-3667.236328" width="1.098633" height="1.098633"/>
<image xlink:href="tile91_3.png" preserveAspectRatio="none" x="13999.87793" y="-3663.94043" width="1.098633" height="1.098633"/>
<image xlink:href="tile91_2.png" preserveAspectRatio="none" x="13999.87793" y="-3665.039062" width="1.098633" height="1.098633"/>
<image xlink:href="tile91_1.png" preserveAspectRatio="none" x="13999.87793" y="-3666.137695" width="1.098633" height="1.098633"/>
<image xlink:href="tile91_0.png" preserveAspectRatio="none" x="13999.87793" y="-3667.236328" width="1.098633" height="1.098633"/>
</g>
</svg>
