<?xml version="1.0" encoding="UTF-8"?>
<svg  xmlns="http://www.w3.org/2000/svg" xmlns:xlink="http://www.w3.org/1999/xlink" xmlns:go="http://purl.org/svgmap/profile" viewBox="13900.0 -3666.666667 100.0 66.66666699999979" go:dataArea="13900.0 -3666.666667 100.0 66.66666699999979" >
<metadata>
 <rdf:RDF xmlns:rdf="http://www.w3.org/1999/02/22-rdf-syntax-ns#" xmlns:crs="http://opengis.org/xmldtds/transformations.dtd" xmlns:svg="http://www.w3.org/svg" >
  <rdf:Description>
   <crs:CoordinateReferenceSystem rdf:resource="http://purl.org/crs/84" svg:transform="matrix(100.0,0.0,0.0,-100.0,0.0,0.0)" />
  </rdf:Description>
 </rdf:RDF>
</metadata>
<globalCoordinateSystem srsName="http://purl.org/crs/84" transform="matrix(100.0,0.0,0.0,-100.0,0.0,0.0)" />
<g >
<image xlink:href="tile48_61.png" preserveAspectRatio="none" x="13952.636719" y="-3600.219727" width="1.098633" height="1.098633"/>
<image xlink:href="tile48_60.png" preserveAspectRatio="none" x="13952.636719" y="-3601.318359" width="1.098633" height="1.098633"/>
<image xlink:href="tile48_59.png" preserveAspectRatio="none" x="13952.636719" y="-3602.416992" width="1.098633" height="1.098633"/>
<image xlink:href="tile48_56.png" preserveAspectRatio="none" x="13952.636719" y="-3605.712891" width="1.098633" height="1.098633"/>
<image xlink:href="tile48_55.png" preserveAspectRatio="none" x="13952.636719" y="-3606.811523" width="1.098633" height="1.098633"/>
<image xlink:href="tile48_54.png" preserveAspectRatio="none" x="13952.636719" y="-3607.910156" width="1.098633" height="1.098633"/>
<image xlink:href="tile48_53.png" preserveAspectRatio="none" x="13952.636719" y="-3609.008789" width="1.098633" height="1.098633"/>
<image xlink:href="tile48_52.png" preserveAspectRatio="none" x="13952.636719" y="-3610.107422" width="1.098633" height="1.098633"/>
<image xlink:href="tile48_51.png" preserveAspectRatio="none" x="13952.636719" y="-3611.206055" width="1.098633" height="1.098633"/>
<image xlink:href="tile48_50.png" preserveAspectRatio="none" x="13952.636719" y="-3612.304688" width="1.098633" height="1.098633"/>
<image xlink:href="tile48_49.png" preserveAspectRatio="none" x="13952.636719" y="-3613.40332" width="1.098633" height="1.098633"/>
<image xlink:href="tile48_48.png" preserveAspectRatio="none" x="13952.636719" y="-3614.501953" width="1.098633" height="1.098633"/>
<image xlink:href="tile48_47.png" preserveAspectRatio="none" x="13952.636719" y="-3615.600586" width="1.098633" height="1.098633"/>
<image xlink:href="tile48_46.png" preserveAspectRatio="none" x="13952.636719" y="-3616.699219" width="1.098633" height="1.098633"/>
<image xlink:href="tile49_61.png" preserveAspectRatio="none" x="13953.735352" y="-3600.219727" width="1.098633" height="1.098633"/>
<image xlink:href="tile49_60.png" preserveAspectRatio="none" x="13953.735352" y="-3601.318359" width="1.098633" height="1.098633"/>
<image xlink:href="tile49_57.png" preserveAspectRatio="none" x="13953.735352" y="-3604.614258" width="1.098633" height="1.098633"/>
<image xlink:href="tile49_56.png" preserveAspectRatio="none" x="13953.735352" y="-3605.712891" width="1.098633" height="1.098633"/>
<image xlink:href="tile49_55.png" preserveAspectRatio="none" x="13953.735352" y="-3606.811523" width="1.098633" height="1.098633"/>
<image xlink:href="tile49_54.png" preserveAspectRatio="none" x="13953.735352" y="-3607.910156" width="1.098633" height="1.098633"/>
<image xlink:href="tile49_53.png" preserveAspectRatio="none" x="13953.735352" y="-3609.008789" width="1.098633" height="1.098633"/>
<image xlink:href="tile49_52.png" preserveAspectRatio="none" x="13953.735352" y="-3610.107422" width="1.098633" height="1.098633"/>
<image xlink:href="tile49_51.png" preserveAspectRatio="none" x="13953.735352" y="-3611.206055" width="1.098633" height="1.098633"/>
<image xlink:href="tile49_50.png" preserveAspectRatio="none" x="13953.735352" y="-3612.304688" width="1.098633" height="1.098633"/>
<image xlink:href="tile49_49.png" preserveAspectRatio="none" x="13953.735352" y="-3613.40332" width="1.098633" height="1.098633"/>
<image xlink:href="tile49_48.png" preserveAspectRatio="none" x="13953.735352" y="-3614.501953" width="1.098633" height="1.098633"/>
<image xlink:href="tile49_47.png" preserveAspectRatio="none" x="13953.735352" y="-3615.600586" width="1.098633" height="1.098633"/>
<image xlink:href="tile49_46.png" preserveAspectRatio="none" x="13953.735352" y="-3616.699219" width="1.098633" height="1.098633"/>
<image xlink:href="tile50_57.png" preserveAspectRatio="none" x="13954.833984" y="-3604.614258" width="1.098633" height="1.098633"/>
<image xlink:href="tile50_56.png" preserveAspectRatio="none" x="13954.833984" y="-3605.712891" width="1.098633" height="1.098633"/>
<image xlink:href="tile50_55.png" preserveAspectRatio="none" x="13954.833984" y="-3606.811523" width="1.098633" height="1.098633"/>
<image xlink:href="tile50_54.png" preserveAspectRatio="none" x="13954.833984" y="-3607.910156" width="1.098633" height="1.098633"/>
<image xlink:href="tile50_53.png" preserveAspectRatio="none" x="13954.833984" y="-3609.008789" width="1.098633" height="1.098633"/>
<image xlink:href="tile50_52.png" preserveAspectRatio="none" x="13954.833984" y="-3610.107422" width="1.098633" height="1.098633"/>
<image xlink:href="tile50_51.png" preserveAspectRatio="none" x="13954.833984" y="-3611.206055" width="1.098633" height="1.098633"/>
<image xlink:href="tile50_50.png" preserveAspectRatio="none" x="13954.833984" y="-3612.304688" width="1.098633" height="1.098633"/>
<image xlink:href="tile50_49.png" preserveAspectRatio="none" x="13954.833984" y="-3613.40332" width="1.098633" height="1.098633"/>
<image xlink:href="tile50_48.png" preserveAspectRatio="none" x="13954.833984" y="-3614.501953" width="1.098633" height="1.098633"/>
<image xlink:href="tile50_47.png" preserveAspectRatio="none" x="13954.833984" y="-3615.600586" width="1.098633" height="1.098633"/>
<image xlink:href="tile50_46.png" preserveAspectRatio="none" x="13954.833984" y="-3616.699219" width="1.098633" height="1.098633"/>
<image xlink:href="tile51_59.png" preserveAspectRatio="none" x="13955.932617" y="-3602.416992" width="1.098633" height="1.098633"/>
<image xlink:href="tile51_58.png" preserveAspectRatio="none" x="13955.932617" y="-3603.515625" width="1.098633" height="1.098633"/>
<image xlink:href="tile51_57.png" preserveAspectRatio="none" x="13955.932617" y="-3604.614258" width="1.098633" height="1.098633"/>
<image xlink:href="tile51_56.png" preserveAspectRatio="none" x="13955.932617" y="-3605.712891" width="1.098633" height="1.098633"/>
<image xlink:href="tile51_55.png" preserveAspectRatio="none" x="13955.932617" y="-3606.811523" width="1.098633" height="1.098633"/>
<image xlink:href="tile51_54.png" preserveAspectRatio="none" x="13955.932617" y="-3607.910156" width="1.098633" height="1.098633"/>
<image xlink:href="tile51_53.png" preserveAspectRatio="none" x="13955.932617" y="-3609.008789" width="1.098633" height="1.098633"/>
<image xlink:href="tile51_52.png" preserveAspectRatio="none" x="13955.932617" y="-3610.107422" width="1.098633" height="1.098633"/>
<image xlink:href="tile51_51.png" preserveAspectRatio="none" x="13955.932617" y="-3611.206055" width="1.098633" height="1.098633"/>
<image xlink:href="tile51_50.png" preserveAspectRatio="none" x="13955.932617" y="-3612.304688" width="1.098633" height="1.098633"/>
<image xlink:href="tile51_49.png" preserveAspectRatio="none" x="13955.932617" y="-3613.40332" width="1.098633" height="1.098633"/>
<image xlink:href="tile51_48.png" preserveAspectRatio="none" x="13955.932617" y="-3614.501953" width="1.098633" height="1.098633"/>
<image xlink:href="tile51_47.png" preserveAspectRatio="none" x="13955.932617" y="-3615.600586" width="1.098633" height="1.098633"/>
<image xlink:href="tile51_46.png" preserveAspectRatio="none" x="13955.932617" y="-3616.699219" width="1.098633" height="1.098633"/>
<image xlink:href="tile52_59.png" preserveAspectRatio="none" x="13957.03125" y="-3602.416992" width="1.098633" height="1.098633"/>
<image xlink:href="tile52_58.png" preserveAspectRatio="none" x="13957.03125" y="-3603.515625" width="1.098633" height="1.098633"/>
<image xlink:href="tile52_57.png" preserveAspectRatio="none" x="13957.03125" y="-3604.614258" width="1.098633" height="1.098633"/>
<image xlink:href="tile52_56.png" preserveAspectRatio="none" x="13957.03125" y="-3605.712891" width="1.098633" height="1.098633"/>
<image xlink:href="tile52_55.png" preserveAspectRatio="none" x="13957.03125" y="-3606.811523" width="1.098633" height="1.098633"/>
<image xlink:href="tile52_54.png" preserveAspectRatio="none" x="13957.03125" y="-3607.910156" width="1.098633" height="1.098633"/>
<image xlink:href="tile52_53.png" preserveAspectRatio="none" x="13957.03125" y="-3609.008789" width="1.098633" height="1.098633"/>
<image xlink:href="tile52_52.png" preserveAspectRatio="none" x="13957.03125" y="-3610.107422" width="1.098633" height="1.098633"/>
<image xlink:href="tile52_51.png" preserveAspectRatio="none" x="13957.03125" y="-3611.206055" width="1.098633" height="1.098633"/>
<image xlink:href="tile52_50.png" preserveAspectRatio="none" x="13957.03125" y="-3612.304688" width="1.098633" height="1.098633"/>
<image xlink:href="tile52_49.png" preserveAspectRatio="none" x="13957.03125" y="-3613.40332" width="1.098633" height="1.098633"/>
<image xlink:href="tile52_48.png" preserveAspectRatio="none" x="13957.03125" y="-3614.501953" width="1.098633" height="1.098633"/>
<image xlink:href="tile52_47.png" preserveAspectRatio="none" x="13957.03125" y="-3615.600586" width="1.098633" height="1.098633"/>
<image xlink:href="tile52_46.png" preserveAspectRatio="none" x="13957.03125" y="-3616.699219" width="1.098633" height="1.098633"/>
<image xlink:href="tile53_59.png" preserveAspectRatio="none" x="13958.129883" y="-3602.416992" width="1.098633" height="1.098633"/>
<image xlink:href="tile53_58.png" preserveAspectRatio="none" x="13958.129883" y="-3603.515625" width="1.098633" height="1.098633"/>
<image xlink:href="tile53_57.png" preserveAspectRatio="none" x="13958.129883" y="-3604.614258" width="1.098633" height="1.098633"/>
<image xlink:href="tile53_56.png" preserveAspectRatio="none" x="13958.129883" y="-3605.712891" width="1.098633" height="1.098633"/>
<image xlink:href="tile53_55.png" preserveAspectRatio="none" x="13958.129883" y="-3606.811523" width="1.098633" height="1.098633"/>
<image xlink:href="tile53_54.png" preserveAspectRatio="none" x="13958.129883" y="-3607.910156" width="1.098633" height="1.098633"/>
<image xlink:href="tile53_53.png" preserveAspectRatio="none" x="13958.129883" y="-3609.008789" width="1.098633" height="1.098633"/>
<image xlink:href="tile53_52.png" preserveAspectRatio="none" x="13958.129883" y="-3610.107422" width="1.098633" height="1.098633"/>
<image xlink:href="tile53_51.png" preserveAspectRatio="none" x="13958.129883" y="-3611.206055" width="1.098633" height="1.098633"/>
<image xlink:href="tile53_50.png" preserveAspectRatio="none" x="13958.129883" y="-3612.304688" width="1.098633" height="1.098633"/>
<image xlink:href="tile53_49.png" preserveAspectRatio="none" x="13958.129883" y="-3613.40332" width="1.098633" height="1.098633"/>
<image xlink:href="tile53_48.png" preserveAspectRatio="none" x="13958.129883" y="-3614.501953" width="1.098633" height="1.098633"/>
<image xlink:href="tile53_47.png" preserveAspectRatio="none" x="13958.129883" y="-3615.600586" width="1.098633" height="1.098633"/>
<image xlink:href="tile53_46.png" preserveAspectRatio="none" x="13958.129883" y="-3616.699219" width="1.098633" height="1.098633"/>
<image xlink:href="tile54_59.png" preserveAspectRatio="none" x="13959.228516" y="-3602.416992" width="1.098633" height="1.098633"/>
<image xlink:href="tile54_58.png" preserveAspectRatio="none" x="13959.228516" y="-3603.515625" width="1.098633" height="1.098633"/>
<image xlink:href="tile54_57.png" preserveAspectRatio="none" x="13959.228516" y="-3604.614258" width="1.098633" height="1.098633"/>
<image xlink:href="tile54_56.png" preserveAspectRatio="none" x="13959.228516" y="-3605.712891" width="1.098633" height="1.098633"/>
<image xlink:href="tile54_55.png" preserveAspectRatio="none" x="13959.228516" y="-3606.811523" width="1.098633" height="1.098633"/>
<image xlink:href="tile54_54.png" preserveAspectRatio="none" x="13959.228516" y="-3607.910156" width="1.098633" height="1.098633"/>
<image xlink:href="tile54_53.png" preserveAspectRatio="none" x="13959.228516" y="-3609.008789" width="1.098633" height="1.098633"/>
<image xlink:href="tile54_52.png" preserveAspectRatio="none" x="13959.228516" y="-3610.107422" width="1.098633" height="1.098633"/>
<image xlink:href="tile54_51.png" preserveAspectRatio="none" x="13959.228516" y="-3611.206055" width="1.098633" height="1.098633"/>
<image xlink:href="tile54_50.png" preserveAspectRatio="none" x="13959.228516" y="-3612.304688" width="1.098633" height="1.098633"/>
<image xlink:href="tile54_49.png" preserveAspectRatio="none" x="13959.228516" y="-3613.40332" width="1.098633" height="1.098633"/>
<image xlink:href="tile54_48.png" preserveAspectRatio="none" x="13959.228516" y="-3614.501953" width="1.098633" height="1.098633"/>
<image xlink:href="tile54_47.png" preserveAspectRatio="none" x="13959.228516" y="-3615.600586" width="1.098633" height="1.098633"/>
<image xlink:href="tile54_46.png" preserveAspectRatio="none" x="13959.228516" y="-3616.699219" width="1.098633" height="1.098633"/>
<image xlink:href="tile55_60.png" preserveAspectRatio="none" x="13960.327148" y="-3601.318359" width="1.098633" height="1.098633"/>
<image xlink:href="tile55_59.png" preserveAspectRatio="none" x="13960.327148" y="-3602.416992" width="1.098633" height="1.098633"/>
<image xlink:href="tile55_58.png" preserveAspectRatio="none" x="13960.327148" y="-3603.515625" width="1.098633" height="1.098633"/>
<image xlink:href="tile55_57.png" preserveAspectRatio="none" x="13960.327148" y="-3604.614258" width="1.098633" height="1.098633"/>
<image xlink:href="tile55_56.png" preserveAspectRatio="none" x="13960.327148" y="-3605.712891" width="1.098633" height="1.098633"/>
<image xlink:href="tile55_55.png" preserveAspectRatio="none" x="13960.327148" y="-3606.811523" width="1.098633" height="1.098633"/>
<image xlink:href="tile55_54.png" preserveAspectRatio="none" x="13960.327148" y="-3607.910156" width="1.098633" height="1.098633"/>
<image xlink:href="tile55_53.png" preserveAspectRatio="none" x="13960.327148" y="-3609.008789" width="1.098633" height="1.098633"/>
<image xlink:href="tile55_52.png" preserveAspectRatio="none" x="13960.327148" y="-3610.107422" width="1.098633" height="1.098633"/>
<image xlink:href="tile55_51.png" preserveAspectRatio="none" x="13960.327148" y="-3611.206055" width="1.098633" height="1.098633"/>
<image xlink:href="tile55_50.png" preserveAspectRatio="none" x="13960.327148" y="-3612.304688" width="1.098633" height="1.098633"/>
<image xlink:href="tile55_49.png" preserveAspectRatio="none" x="13960.327148" y="-3613.40332" width="1.098633" height="1.098633"/>
<image xlink:href="tile55_48.png" preserveAspectRatio="none" x="13960.327148" y="-3614.501953" width="1.098633" height="1.098633"/>
<image xlink:href="tile55_47.png" preserveAspectRatio="none" x="13960.327148" y="-3615.600586" width="1.098633" height="1.098633"/>
<image xlink:href="tile55_46.png" preserveAspectRatio="none" x="13960.327148" y="-3616.699219" width="1.098633" height="1.098633"/>
<image xlink:href="tile56_60.png" preserveAspectRatio="none" x="13961.425781" y="-3601.318359" width="1.098633" height="1.098633"/>
<image xlink:href="tile56_59.png" preserveAspectRatio="none" x="13961.425781" y="-3602.416992" width="1.098633" height="1.098633"/>
<image xlink:href="tile56_58.png" preserveAspectRatio="none" x="13961.425781" y="-3603.515625" width="1.098633" height="1.098633"/>
<image xlink:href="tile56_57.png" preserveAspectRatio="none" x="13961.425781" y="-3604.614258" width="1.098633" height="1.098633"/>
<image xlink:href="tile56_56.png" preserveAspectRatio="none" x="13961.425781" y="-3605.712891" width="1.098633" height="1.098633"/>
<image xlink:href="tile56_55.png" preserveAspectRatio="none" x="13961.425781" y="-3606.811523" width="1.098633" height="1.098633"/>
<image xlink:href="tile56_54.png" preserveAspectRatio="none" x="13961.425781" y="-3607.910156" width="1.098633" height="1.098633"/>
<image xlink:href="tile56_53.png" preserveAspectRatio="none" x="13961.425781" y="-3609.008789" width="1.098633" height="1.098633"/>
<image xlink:href="tile56_52.png" preserveAspectRatio="none" x="13961.425781" y="-3610.107422" width="1.098633" height="1.098633"/>
<image xlink:href="tile56_51.png" preserveAspectRatio="none" x="13961.425781" y="-3611.206055" width="1.098633" height="1.098633"/>
<image xlink:href="tile56_50.png" preserveAspectRatio="none" x="13961.425781" y="-3612.304688" width="1.098633" height="1.098633"/>
<image xlink:href="tile56_49.png" preserveAspectRatio="none" x="13961.425781" y="-3613.40332" width="1.098633" height="1.098633"/>
<image xlink:href="tile56_48.png" preserveAspectRatio="none" x="13961.425781" y="-3614.501953" width="1.098633" height="1.098633"/>
<image xlink:href="tile56_47.png" preserveAspectRatio="none" x="13961.425781" y="-3615.600586" width="1.098633" height="1.098633"/>
<image xlink:href="tile56_46.png" preserveAspectRatio="none" x="13961.425781" y="-3616.699219" width="1.098633" height="1.098633"/>
<image xlink:href="tile57_61.png" preserveAspectRatio="none" x="13962.524414" y="-3600.219727" width="1.098633" height="1.098633"/>
<image xlink:href="tile57_60.png" preserveAspectRatio="none" x="13962.524414" y="-3601.318359" width="1.098633" height="1.098633"/>
<image xlink:href="tile57_59.png" preserveAspectRatio="none" x="13962.524414" y="-3602.416992" width="1.098633" height="1.098633"/>
<image xlink:href="tile57_58.png" preserveAspectRatio="none" x="13962.524414" y="-3603.515625" width="1.098633" height="1.098633"/>
<image xlink:href="tile57_57.png" preserveAspectRatio="none" x="13962.524414" y="-3604.614258" width="1.098633" height="1.098633"/>
<image xlink:href="tile57_56.png" preserveAspectRatio="none" x="13962.524414" y="-3605.712891" width="1.098633" height="1.098633"/>
<image xlink:href="tile57_55.png" preserveAspectRatio="none" x="13962.524414" y="-3606.811523" width="1.098633" height="1.098633"/>
<image xlink:href="tile57_54.png" preserveAspectRatio="none" x="13962.524414" y="-3607.910156" width="1.098633" height="1.098633"/>
<image xlink:href="tile57_53.png" preserveAspectRatio="none" x="13962.524414" y="-3609.008789" width="1.098633" height="1.098633"/>
<image xlink:href="tile57_52.png" preserveAspectRatio="none" x="13962.524414" y="-3610.107422" width="1.098633" height="1.098633"/>
<image xlink:href="tile57_51.png" preserveAspectRatio="none" x="13962.524414" y="-3611.206055" width="1.098633" height="1.098633"/>
<image xlink:href="tile57_50.png" preserveAspectRatio="none" x="13962.524414" y="-3612.304688" width="1.098633" height="1.098633"/>
<image xlink:href="tile57_49.png" preserveAspectRatio="none" x="13962.524414" y="-3613.40332" width="1.098633" height="1.098633"/>
<image xlink:href="tile57_48.png" preserveAspectRatio="none" x="13962.524414" y="-3614.501953" width="1.098633" height="1.098633"/>
<image xlink:href="tile57_47.png" preserveAspectRatio="none" x="13962.524414" y="-3615.600586" width="1.098633" height="1.098633"/>
<image xlink:href="tile57_46.png" preserveAspectRatio="none" x="13962.524414" y="-3616.699219" width="1.098633" height="1.098633"/>
<image xlink:href="tile58_61.png" preserveAspectRatio="none" x="13963.623047" y="-3600.219727" width="1.098633" height="1.098633"/>
<image xlink:href="tile58_60.png" preserveAspectRatio="none" x="13963.623047" y="-3601.318359" width="1.098633" height="1.098633"/>
<image xlink:href="tile58_59.png" preserveAspectRatio="none" x="13963.623047" y="-3602.416992" width="1.098633" height="1.098633"/>
<image xlink:href="tile58_58.png" preserveAspectRatio="none" x="13963.623047" y="-3603.515625" width="1.098633" height="1.098633"/>
<image xlink:href="tile58_57.png" preserveAspectRatio="none" x="13963.623047" y="-3604.614258" width="1.098633" height="1.098633"/>
<image xlink:href="tile58_56.png" preserveAspectRatio="none" x="13963.623047" y="-3605.712891" width="1.098633" height="1.098633"/>
<image xlink:href="tile58_55.png" preserveAspectRatio="none" x="13963.623047" y="-3606.811523" width="1.098633" height="1.098633"/>
<image xlink:href="tile58_54.png" preserveAspectRatio="none" x="13963.623047" y="-3607.910156" width="1.098633" height="1.098633"/>
<image xlink:href="tile58_53.png" preserveAspectRatio="none" x="13963.623047" y="-3609.008789" width="1.098633" height="1.098633"/>
<image xlink:href="tile58_52.png" preserveAspectRatio="none" x="13963.623047" y="-3610.107422" width="1.098633" height="1.098633"/>
<image xlink:href="tile58_51.png" preserveAspectRatio="none" x="13963.623047" y="-3611.206055" width="1.098633" height="1.098633"/>
<image xlink:href="tile58_50.png" preserveAspectRatio="none" x="13963.623047" y="-3612.304688" width="1.098633" height="1.098633"/>
<image xlink:href="tile58_49.png" preserveAspectRatio="none" x="13963.623047" y="-3613.40332" width="1.098633" height="1.098633"/>
<image xlink:href="tile58_48.png" preserveAspectRatio="none" x="13963.623047" y="-3614.501953" width="1.098633" height="1.098633"/>
<image xlink:href="tile58_47.png" preserveAspectRatio="none" x="13963.623047" y="-3615.600586" width="1.098633" height="1.098633"/>
<image xlink:href="tile58_46.png" preserveAspectRatio="none" x="13963.623047" y="-3616.699219" width="1.098633" height="1.098633"/>
<image xlink:href="tile59_61.png" preserveAspectRatio="none" x="13964.72168" y="-3600.219727" width="1.098633" height="1.098633"/>
<image xlink:href="tile59_60.png" preserveAspectRatio="none" x="13964.72168" y="-3601.318359" width="1.098633" height="1.098633"/>
<image xlink:href="tile59_59.png" preserveAspectRatio="none" x="13964.72168" y="-3602.416992" width="1.098633" height="1.098633"/>
<image xlink:href="tile59_58.png" preserveAspectRatio="none" x="13964.72168" y="-3603.515625" width="1.098633" height="1.098633"/>
<image xlink:href="tile59_57.png" preserveAspectRatio="none" x="13964.72168" y="-3604.614258" width="1.098633" height="1.098633"/>
<image xlink:href="tile59_56.png" preserveAspectRatio="none" x="13964.72168" y="-3605.712891" width="1.098633" height="1.098633"/>
<image xlink:href="tile59_55.png" preserveAspectRatio="none" x="13964.72168" y="-3606.811523" width="1.098633" height="1.098633"/>
<image xlink:href="tile59_54.png" preserveAspectRatio="none" x="13964.72168" y="-3607.910156" width="1.098633" height="1.098633"/>
<image xlink:href="tile59_53.png" preserveAspectRatio="none" x="13964.72168" y="-3609.008789" width="1.098633" height="1.098633"/>
<image xlink:href="tile59_52.png" preserveAspectRatio="none" x="13964.72168" y="-3610.107422" width="1.098633" height="1.098633"/>
<image xlink:href="tile59_51.png" preserveAspectRatio="none" x="13964.72168" y="-3611.206055" width="1.098633" height="1.098633"/>
<image xlink:href="tile59_50.png" preserveAspectRatio="none" x="13964.72168" y="-3612.304688" width="1.098633" height="1.098633"/>
<image xlink:href="tile59_49.png" preserveAspectRatio="none" x="13964.72168" y="-3613.40332" width="1.098633" height="1.098633"/>
<image xlink:href="tile59_48.png" preserveAspectRatio="none" x="13964.72168" y="-3614.501953" width="1.098633" height="1.098633"/>
<image xlink:href="tile59_47.png" preserveAspectRatio="none" x="13964.72168" y="-3615.600586" width="1.098633" height="1.098633"/>
<image xlink:href="tile59_46.png" preserveAspectRatio="none" x="13964.72168" y="-3616.699219" width="1.098633" height="1.098633"/>
<image xlink:href="tile60_61.png" preserveAspectRatio="none" x="13965.820312" y="-3600.219727" width="1.098633" height="1.098633"/>
<image xlink:href="tile60_60.png" preserveAspectRatio="none" x="13965.820312" y="-3601.318359" width="1.098633" height="1.098633"/>
<image xlink:href="tile60_59.png" preserveAspectRatio="none" x="13965.820312" y="-3602.416992" width="1.098633" height="1.098633"/>
<image xlink:href="tile60_58.png" preserveAspectRatio="none" x="13965.820312" y="-3603.515625" width="1.098633" height="1.098633"/>
<image xlink:href="tile60_57.png" preserveAspectRatio="none" x="13965.820312" y="-3604.614258" width="1.098633" height="1.098633"/>
<image xlink:href="tile60_56.png" preserveAspectRatio="none" x="13965.820312" y="-3605.712891" width="1.098633" height="1.098633"/>
<image xlink:href="tile60_55.png" preserveAspectRatio="none" x="13965.820312" y="-3606.811523" width="1.098633" height="1.098633"/>
<image xlink:href="tile60_54.png" preserveAspectRatio="none" x="13965.820312" y="-3607.910156" width="1.098633" height="1.098633"/>
<image xlink:href="tile60_53.png" preserveAspectRatio="none" x="13965.820312" y="-3609.008789" width="1.098633" height="1.098633"/>
<image xlink:href="tile60_52.png" preserveAspectRatio="none" x="13965.820312" y="-3610.107422" width="1.098633" height="1.098633"/>
<image xlink:href="tile60_51.png" preserveAspectRatio="none" x="13965.820312" y="-3611.206055" width="1.098633" height="1.098633"/>
<image xlink:href="tile60_50.png" preserveAspectRatio="none" x="13965.820312" y="-3612.304688" width="1.098633" height="1.098633"/>
<image xlink:href="tile60_49.png" preserveAspectRatio="none" x="13965.820312" y="-3613.40332" width="1.098633" height="1.098633"/>
<image xlink:href="tile60_48.png" preserveAspectRatio="none" x="13965.820312" y="-3614.501953" width="1.098633" height="1.098633"/>
<image xlink:href="tile60_47.png" preserveAspectRatio="none" x="13965.820312" y="-3615.600586" width="1.098633" height="1.098633"/>
<image xlink:href="tile60_46.png" preserveAspectRatio="none" x="13965.820312" y="-3616.699219" width="1.098633" height="1.098633"/>
<image xlink:href="tile61_61.png" preserveAspectRatio="none" x="13966.918945" y="-3600.219727" width="1.098633" height="1.098633"/>
<image xlink:href="tile61_60.png" preserveAspectRatio="none" x="13966.918945" y="-3601.318359" width="1.098633" height="1.098633"/>
<image xlink:href="tile61_59.png" preserveAspectRatio="none" x="13966.918945" y="-3602.416992" width="1.098633" height="1.098633"/>
<image xlink:href="tile61_58.png" preserveAspectRatio="none" x="13966.918945" y="-3603.515625" width="1.098633" height="1.098633"/>
<image xlink:href="tile61_57.png" preserveAspectRatio="none" x="13966.918945" y="-3604.614258" width="1.098633" height="1.098633"/>
<image xlink:href="tile61_56.png" preserveAspectRatio="none" x="13966.918945" y="-3605.712891" width="1.098633" height="1.098633"/>
<image xlink:href="tile61_55.png" preserveAspectRatio="none" x="13966.918945" y="-3606.811523" width="1.098633" height="1.098633"/>
<image xlink:href="tile61_54.png" preserveAspectRatio="none" x="13966.918945" y="-3607.910156" width="1.098633" height="1.098633"/>
<image xlink:href="tile61_53.png" preserveAspectRatio="none" x="13966.918945" y="-3609.008789" width="1.098633" height="1.098633"/>
<image xlink:href="tile61_52.png" preserveAspectRatio="none" x="13966.918945" y="-3610.107422" width="1.098633" height="1.098633"/>
<image xlink:href="tile61_51.png" preserveAspectRatio="none" x="13966.918945" y="-3611.206055" width="1.098633" height="1.098633"/>
<image xlink:href="tile61_50.png" preserveAspectRatio="none" x="13966.918945" y="-3612.304688" width="1.098633" height="1.098633"/>
<image xlink:href="tile61_49.png" preserveAspectRatio="none" x="13966.918945" y="-3613.40332" width="1.098633" height="1.098633"/>
<image xlink:href="tile61_48.png" preserveAspectRatio="none" x="13966.918945" y="-3614.501953" width="1.098633" height="1.098633"/>
<image xlink:href="tile61_47.png" preserveAspectRatio="none" x="13966.918945" y="-3615.600586" width="1.098633" height="1.098633"/>
<image xlink:href="tile61_46.png" preserveAspectRatio="none" x="13966.918945" y="-3616.699219" width="1.098633" height="1.098633"/>
<image xlink:href="tile62_61.png" preserveAspectRatio="none" x="13968.017578" y="-3600.219727" width="1.098633" height="1.098633"/>
<image xlink:href="tile62_60.png" preserveAspectRatio="none" x="13968.017578" y="-3601.318359" width="1.098633" height="1.098633"/>
<image xlink:href="tile62_59.png" preserveAspectRatio="none" x="13968.017578" y="-3602.416992" width="1.098633" height="1.098633"/>
<image xlink:href="tile62_58.png" preserveAspectRatio="none" x="13968.017578" y="-3603.515625" width="1.098633" height="1.098633"/>
<image xlink:href="tile62_57.png" preserveAspectRatio="none" x="13968.017578" y="-3604.614258" width="1.098633" height="1.098633"/>
<image xlink:href="tile62_56.png" preserveAspectRatio="none" x="13968.017578" y="-3605.712891" width="1.098633" height="1.098633"/>
<image xlink:href="tile62_55.png" preserveAspectRatio="none" x="13968.017578" y="-3606.811523" width="1.098633" height="1.098633"/>
<image xlink:href="tile62_54.png" preserveAspectRatio="none" x="13968.017578" y="-3607.910156" width="1.098633" height="1.098633"/>
<image xlink:href="tile62_53.png" preserveAspectRatio="none" x="13968.017578" y="-3609.008789" width="1.098633" height="1.098633"/>
<image xlink:href="tile62_52.png" preserveAspectRatio="none" x="13968.017578" y="-3610.107422" width="1.098633" height="1.098633"/>
<image xlink:href="tile62_51.png" preserveAspectRatio="none" x="13968.017578" y="-3611.206055" width="1.098633" height="1.098633"/>
<image xlink:href="tile62_50.png" preserveAspectRatio="none" x="13968.017578" y="-3612.304688" width="1.098633" height="1.098633"/>
<image xlink:href="tile62_49.png" preserveAspectRatio="none" x="13968.017578" y="-3613.40332" width="1.098633" height="1.098633"/>
<image xlink:href="tile62_48.png" preserveAspectRatio="none" x="13968.017578" y="-3614.501953" width="1.098633" height="1.098633"/>
<image xlink:href="tile62_47.png" preserveAspectRatio="none" x="13968.017578" y="-3615.600586" width="1.098633" height="1.098633"/>
<image xlink:href="tile62_46.png" preserveAspectRatio="none" x="13968.017578" y="-3616.699219" width="1.098633" height="1.098633"/>
<image xlink:href="tile63_61.png" preserveAspectRatio="none" x="13969.116211" y="-3600.219727" width="1.098633" height="1.098633"/>
<image xlink:href="tile63_60.png" preserveAspectRatio="none" x="13969.116211" y="-3601.318359" width="1.098633" height="1.098633"/>
<image xlink:href="tile63_59.png" preserveAspectRatio="none" x="13969.116211" y="-3602.416992" width="1.098633" height="1.098633"/>
<image xlink:href="tile63_58.png" preserveAspectRatio="none" x="13969.116211" y="-3603.515625" width="1.098633" height="1.098633"/>
<image xlink:href="tile63_57.png" preserveAspectRatio="none" x="13969.116211" y="-3604.614258" width="1.098633" height="1.098633"/>
<image xlink:href="tile63_56.png" preserveAspectRatio="none" x="13969.116211" y="-3605.712891" width="1.098633" height="1.098633"/>
<image xlink:href="tile63_55.png" preserveAspectRatio="none" x="13969.116211" y="-3606.811523" width="1.098633" height="1.098633"/>
<image xlink:href="tile63_54.png" preserveAspectRatio="none" x="13969.116211" y="-3607.910156" width="1.098633" height="1.098633"/>
<image xlink:href="tile63_53.png" preserveAspectRatio="none" x="13969.116211" y="-3609.008789" width="1.098633" height="1.098633"/>
<image xlink:href="tile63_52.png" preserveAspectRatio="none" x="13969.116211" y="-3610.107422" width="1.098633" height="1.098633"/>
<image xlink:href="tile63_51.png" preserveAspectRatio="none" x="13969.116211" y="-3611.206055" width="1.098633" height="1.098633"/>
<image xlink:href="tile63_50.png" preserveAspectRatio="none" x="13969.116211" y="-3612.304688" width="1.098633" height="1.098633"/>
<image xlink:href="tile63_49.png" preserveAspectRatio="none" x="13969.116211" y="-3613.40332" width="1.098633" height="1.098633"/>
<image xlink:href="tile63_48.png" preserveAspectRatio="none" x="13969.116211" y="-3614.501953" width="1.098633" height="1.098633"/>
<image xlink:href="tile63_47.png" preserveAspectRatio="none" x="13969.116211" y="-3615.600586" width="1.098633" height="1.098633"/>
<image xlink:href="tile63_46.png" preserveAspectRatio="none" x="13969.116211" y="-3616.699219" width="1.098633" height="1.098633"/>
</g>
</svg>
