<?xml version="1.0" encoding="UTF-8"?>
<svg  xmlns="http://www.w3.org/2000/svg" xmlns:xlink="http://www.w3.org/1999/xlink" xmlns:go="http://purl.org/svgmap/profile" viewBox="13819.2507158 -3733.333333 80.74928419999878 66.66666600000042" go:dataArea="13819.2507158 -3733.333333 80.74928419999878 66.66666600000042" >
<metadata>
 <rdf:RDF xmlns:rdf="http://www.w3.org/1999/02/22-rdf-syntax-ns#" xmlns:crs="http://opengis.org/xmldtds/transformations.dtd" xmlns:svg="http://www.w3.org/svg" >
  <rdf:Description>
   <crs:CoordinateReferenceSystem rdf:resource="http://purl.org/crs/84" svg:transform="matrix(100.0,0.0,0.0,-100.0,0.0,0.0)" />
  </rdf:Description>
 </rdf:RDF>
</metadata>
<globalCoordinateSystem srsName="http://purl.org/crs/84" transform="matrix(100.0,0.0,0.0,-100.0,0.0,0.0)" />
<g >
<image xlink:href="tile16_5.png" preserveAspectRatio="none" x="13853.759766" y="-3724.365234" width="2.197266" height="2.197266"/>
<image xlink:href="tile16_4.png" preserveAspectRatio="none" x="13853.759766" y="-3726.5625" width="2.197266" height="2.197266"/>
<image xlink:href="tile16_1.png" preserveAspectRatio="none" x="13853.759766" y="-3733.154297" width="2.197266" height="2.197266"/>
<image xlink:href="tile16_0.png" preserveAspectRatio="none" x="13853.759766" y="-3735.351562" width="2.197266" height="2.197266"/>
<image xlink:href="tile17_4.png" preserveAspectRatio="none" x="13855.957031" y="-3726.5625" width="2.197266" height="2.197266"/>
<image xlink:href="tile17_3.png" preserveAspectRatio="none" x="13855.957031" y="-3728.759766" width="2.197266" height="2.197266"/>
<image xlink:href="tile17_2.png" preserveAspectRatio="none" x="13855.957031" y="-3730.957031" width="2.197266" height="2.197266"/>
<image xlink:href="tile17_1.png" preserveAspectRatio="none" x="13855.957031" y="-3733.154297" width="2.197266" height="2.197266"/>
<image xlink:href="tile17_0.png" preserveAspectRatio="none" x="13855.957031" y="-3735.351562" width="2.197266" height="2.197266"/>
<image xlink:href="tile18_2.png" preserveAspectRatio="none" x="13858.154297" y="-3730.957031" width="2.197266" height="2.197266"/>
<image xlink:href="tile18_0.png" preserveAspectRatio="none" x="13858.154297" y="-3735.351562" width="2.197266" height="2.197266"/>
<image xlink:href="tile19_15.png" preserveAspectRatio="none" x="13860.351562" y="-3702.392578" width="2.197266" height="2.197266"/>
<image xlink:href="tile19_2.png" preserveAspectRatio="none" x="13860.351562" y="-3730.957031" width="2.197266" height="2.197266"/>
<image xlink:href="tile19_1.png" preserveAspectRatio="none" x="13860.351562" y="-3733.154297" width="2.197266" height="2.197266"/>
<image xlink:href="tile19_0.png" preserveAspectRatio="none" x="13860.351562" y="-3735.351562" width="2.197266" height="2.197266"/>
<image xlink:href="tile20_15.png" preserveAspectRatio="none" x="13862.548828" y="-3702.392578" width="2.197266" height="2.197266"/>
<image xlink:href="tile20_14.png" preserveAspectRatio="none" x="13862.548828" y="-3704.589844" width="2.197266" height="2.197266"/>
<image xlink:href="tile20_6.png" preserveAspectRatio="none" x="13862.548828" y="-3722.167969" width="2.197266" height="2.197266"/>
<image xlink:href="tile20_5.png" preserveAspectRatio="none" x="13862.548828" y="-3724.365234" width="2.197266" height="2.197266"/>
<image xlink:href="tile20_4.png" preserveAspectRatio="none" x="13862.548828" y="-3726.5625" width="2.197266" height="2.197266"/>
<image xlink:href="tile20_3.png" preserveAspectRatio="none" x="13862.548828" y="-3728.759766" width="2.197266" height="2.197266"/>
<image xlink:href="tile20_2.png" preserveAspectRatio="none" x="13862.548828" y="-3730.957031" width="2.197266" height="2.197266"/>
<image xlink:href="tile20_1.png" preserveAspectRatio="none" x="13862.548828" y="-3733.154297" width="2.197266" height="2.197266"/>
<image xlink:href="tile20_0.png" preserveAspectRatio="none" x="13862.548828" y="-3735.351562" width="2.197266" height="2.197266"/>
<image xlink:href="tile21_15.png" preserveAspectRatio="none" x="13864.746094" y="-3702.392578" width="2.197266" height="2.197266"/>
<image xlink:href="tile21_14.png" preserveAspectRatio="none" x="13864.746094" y="-3704.589844" width="2.197266" height="2.197266"/>
<image xlink:href="tile21_5.png" preserveAspectRatio="none" x="13864.746094" y="-3724.365234" width="2.197266" height="2.197266"/>
<image xlink:href="tile21_4.png" preserveAspectRatio="none" x="13864.746094" y="-3726.5625" width="2.197266" height="2.197266"/>
<image xlink:href="tile22_13.png" preserveAspectRatio="none" x="13866.943359" y="-3706.787109" width="2.197266" height="2.197266"/>
<image xlink:href="tile23_13.png" preserveAspectRatio="none" x="13869.140625" y="-3706.787109" width="2.197266" height="2.197266"/>
<image xlink:href="tile23_12.png" preserveAspectRatio="none" x="13869.140625" y="-3708.984375" width="2.197266" height="2.197266"/>
<image xlink:href="tile24_12.png" preserveAspectRatio="none" x="13871.337891" y="-3708.984375" width="2.197266" height="2.197266"/>
<image xlink:href="tile24_11.png" preserveAspectRatio="none" x="13871.337891" y="-3711.181641" width="2.197266" height="2.197266"/>
<image xlink:href="tile24_10.png" preserveAspectRatio="none" x="13871.337891" y="-3713.378906" width="2.197266" height="2.197266"/>
<image xlink:href="tile24_9.png" preserveAspectRatio="none" x="13871.337891" y="-3715.576172" width="2.197266" height="2.197266"/>
<image xlink:href="tile25_10.png" preserveAspectRatio="none" x="13873.535156" y="-3713.378906" width="2.197266" height="2.197266"/>
<image xlink:href="tile25_9.png" preserveAspectRatio="none" x="13873.535156" y="-3715.576172" width="2.197266" height="2.197266"/>
<image xlink:href="tile25_8.png" preserveAspectRatio="none" x="13873.535156" y="-3717.773438" width="2.197266" height="2.197266"/>
<image xlink:href="tile26_9.png" preserveAspectRatio="none" x="13875.732422" y="-3715.576172" width="2.197266" height="2.197266"/>
<image xlink:href="tile26_8.png" preserveAspectRatio="none" x="13875.732422" y="-3717.773438" width="2.197266" height="2.197266"/>
<image xlink:href="tile26_7.png" preserveAspectRatio="none" x="13875.732422" y="-3719.970703" width="2.197266" height="2.197266"/>
<image xlink:href="tile26_6.png" preserveAspectRatio="none" x="13875.732422" y="-3722.167969" width="2.197266" height="2.197266"/>
<image xlink:href="tile26_5.png" preserveAspectRatio="none" x="13875.732422" y="-3724.365234" width="2.197266" height="2.197266"/>
<image xlink:href="tile27_7.png" preserveAspectRatio="none" x="13877.929688" y="-3719.970703" width="2.197266" height="2.197266"/>
<image xlink:href="tile27_6.png" preserveAspectRatio="none" x="13877.929688" y="-3722.167969" width="2.197266" height="2.197266"/>
<image xlink:href="tile27_5.png" preserveAspectRatio="none" x="13877.929688" y="-3724.365234" width="2.197266" height="2.197266"/>
<image xlink:href="tile27_4.png" preserveAspectRatio="none" x="13877.929688" y="-3726.5625" width="2.197266" height="2.197266"/>
<image xlink:href="tile27_2.png" preserveAspectRatio="none" x="13877.929688" y="-3730.957031" width="2.197266" height="2.197266"/>
<image xlink:href="tile27_1.png" preserveAspectRatio="none" x="13877.929688" y="-3733.154297" width="2.197266" height="2.197266"/>
<image xlink:href="tile27_0.png" preserveAspectRatio="none" x="13877.929688" y="-3735.351562" width="2.197266" height="2.197266"/>
<image xlink:href="tile28_15.png" preserveAspectRatio="none" x="13880.126953" y="-3702.392578" width="2.197266" height="2.197266"/>
<image xlink:href="tile28_5.png" preserveAspectRatio="none" x="13880.126953" y="-3724.365234" width="2.197266" height="2.197266"/>
<image xlink:href="tile28_4.png" preserveAspectRatio="none" x="13880.126953" y="-3726.5625" width="2.197266" height="2.197266"/>
<image xlink:href="tile28_3.png" preserveAspectRatio="none" x="13880.126953" y="-3728.759766" width="2.197266" height="2.197266"/>
<image xlink:href="tile28_2.png" preserveAspectRatio="none" x="13880.126953" y="-3730.957031" width="2.197266" height="2.197266"/>
<image xlink:href="tile28_1.png" preserveAspectRatio="none" x="13880.126953" y="-3733.154297" width="2.197266" height="2.197266"/>
<image xlink:href="tile28_0.png" preserveAspectRatio="none" x="13880.126953" y="-3735.351562" width="2.197266" height="2.197266"/>
<image xlink:href="tile29_15.png" preserveAspectRatio="none" x="13882.324219" y="-3702.392578" width="2.197266" height="2.197266"/>
<image xlink:href="tile29_14.png" preserveAspectRatio="none" x="13882.324219" y="-3704.589844" width="2.197266" height="2.197266"/>
<image xlink:href="tile29_4.png" preserveAspectRatio="none" x="13882.324219" y="-3726.5625" width="2.197266" height="2.197266"/>
<image xlink:href="tile29_3.png" preserveAspectRatio="none" x="13882.324219" y="-3728.759766" width="2.197266" height="2.197266"/>
<image xlink:href="tile29_2.png" preserveAspectRatio="none" x="13882.324219" y="-3730.957031" width="2.197266" height="2.197266"/>
<image xlink:href="tile29_1.png" preserveAspectRatio="none" x="13882.324219" y="-3733.154297" width="2.197266" height="2.197266"/>
<image xlink:href="tile29_0.png" preserveAspectRatio="none" x="13882.324219" y="-3735.351562" width="2.197266" height="2.197266"/>
<image xlink:href="tile30_15.png" preserveAspectRatio="none" x="13884.521484" y="-3702.392578" width="2.197266" height="2.197266"/>
<image xlink:href="tile30_14.png" preserveAspectRatio="none" x="13884.521484" y="-3704.589844" width="2.197266" height="2.197266"/>
<image xlink:href="tile30_13.png" preserveAspectRatio="none" x="13884.521484" y="-3706.787109" width="2.197266" height="2.197266"/>
<image xlink:href="tile30_4.png" preserveAspectRatio="none" x="13884.521484" y="-3726.5625" width="2.197266" height="2.197266"/>
<image xlink:href="tile30_3.png" preserveAspectRatio="none" x="13884.521484" y="-3728.759766" width="2.197266" height="2.197266"/>
<image xlink:href="tile31_14.png" preserveAspectRatio="none" x="13886.71875" y="-3704.589844" width="2.197266" height="2.197266"/>
<image xlink:href="tile31_13.png" preserveAspectRatio="none" x="13886.71875" y="-3706.787109" width="2.197266" height="2.197266"/>
<image xlink:href="tile31_12.png" preserveAspectRatio="none" x="13886.71875" y="-3708.984375" width="2.197266" height="2.197266"/>
<image xlink:href="tile31_4.png" preserveAspectRatio="none" x="13886.71875" y="-3726.5625" width="2.197266" height="2.197266"/>
<image xlink:href="tile31_3.png" preserveAspectRatio="none" x="13886.71875" y="-3728.759766" width="2.197266" height="2.197266"/>
</g>
</svg>
