<?xml version="1.0" encoding="UTF-8"?>
<svg  xmlns="http://www.w3.org/2000/svg" xmlns:xlink="http://www.w3.org/1999/xlink" xmlns:go="http://purl.org/svgmap/profile" viewBox="13100.0 -3266.666667 72.59375499999976 66.66666699999979" go:dataArea="13100.0 -3266.666667 72.59375499999976 66.66666699999979" >
<metadata>
 <rdf:RDF xmlns:rdf="http://www.w3.org/1999/02/22-rdf-syntax-ns#" xmlns:crs="http://opengis.org/xmldtds/transformations.dtd" xmlns:svg="http://www.w3.org/svg" >
  <rdf:Description>
   <crs:CoordinateReferenceSystem rdf:resource="http://purl.org/crs/84" svg:transform="matrix(100.0,0.0,0.0,-100.0,0.0,0.0)" />
  </rdf:Description>
 </rdf:RDF>
</metadata>
<globalCoordinateSystem srsName="http://purl.org/crs/84" transform="matrix(100.0,0.0,0.0,-100.0,0.0,0.0)" />
<g >
<image xlink:href="tile21_61.png" preserveAspectRatio="none" x="13122.070312" y="-3200.317383" width="1.098633" height="1.098633"/>
<image xlink:href="tile21_60.png" preserveAspectRatio="none" x="13122.070312" y="-3201.416016" width="1.098633" height="1.098633"/>
<image xlink:href="tile22_60.png" preserveAspectRatio="none" x="13123.168945" y="-3201.416016" width="1.098633" height="1.098633"/>
<image xlink:href="tile22_59.png" preserveAspectRatio="none" x="13123.168945" y="-3202.514648" width="1.098633" height="1.098633"/>
<image xlink:href="tile23_60.png" preserveAspectRatio="none" x="13124.267578" y="-3201.416016" width="1.098633" height="1.098633"/>
<image xlink:href="tile23_59.png" preserveAspectRatio="none" x="13124.267578" y="-3202.514648" width="1.098633" height="1.098633"/>
<image xlink:href="tile24_61.png" preserveAspectRatio="none" x="13125.366211" y="-3200.317383" width="1.098633" height="1.098633"/>
<image xlink:href="tile24_60.png" preserveAspectRatio="none" x="13125.366211" y="-3201.416016" width="1.098633" height="1.098633"/>
<image xlink:href="tile25_61.png" preserveAspectRatio="none" x="13126.464844" y="-3200.317383" width="1.098633" height="1.098633"/>
<image xlink:href="tile25_60.png" preserveAspectRatio="none" x="13126.464844" y="-3201.416016" width="1.098633" height="1.098633"/>
<image xlink:href="tile26_61.png" preserveAspectRatio="none" x="13127.563477" y="-3200.317383" width="1.098633" height="1.098633"/>
<image xlink:href="tile26_60.png" preserveAspectRatio="none" x="13127.563477" y="-3201.416016" width="1.098633" height="1.098633"/>
<image xlink:href="tile27_61.png" preserveAspectRatio="none" x="13128.662109" y="-3200.317383" width="1.098633" height="1.098633"/>
<image xlink:href="tile29_61.png" preserveAspectRatio="none" x="13130.859375" y="-3200.317383" width="1.098633" height="1.098633"/>
<image xlink:href="tile29_55.png" preserveAspectRatio="none" x="13130.859375" y="-3206.90918" width="1.098633" height="1.098633"/>
<image xlink:href="tile29_54.png" preserveAspectRatio="none" x="13130.859375" y="-3208.007812" width="1.098633" height="1.098633"/>
<image xlink:href="tile29_53.png" preserveAspectRatio="none" x="13130.859375" y="-3209.106445" width="1.098633" height="1.098633"/>
<image xlink:href="tile30_61.png" preserveAspectRatio="none" x="13131.958008" y="-3200.317383" width="1.098633" height="1.098633"/>
<image xlink:href="tile30_60.png" preserveAspectRatio="none" x="13131.958008" y="-3201.416016" width="1.098633" height="1.098633"/>
<image xlink:href="tile30_56.png" preserveAspectRatio="none" x="13131.958008" y="-3205.810547" width="1.098633" height="1.098633"/>
<image xlink:href="tile30_55.png" preserveAspectRatio="none" x="13131.958008" y="-3206.90918" width="1.098633" height="1.098633"/>
<image xlink:href="tile30_54.png" preserveAspectRatio="none" x="13131.958008" y="-3208.007812" width="1.098633" height="1.098633"/>
<image xlink:href="tile30_51.png" preserveAspectRatio="none" x="13131.958008" y="-3211.303711" width="1.098633" height="1.098633"/>
<image xlink:href="tile31_61.png" preserveAspectRatio="none" x="13133.056641" y="-3200.317383" width="1.098633" height="1.098633"/>
<image xlink:href="tile31_60.png" preserveAspectRatio="none" x="13133.056641" y="-3201.416016" width="1.098633" height="1.098633"/>
<image xlink:href="tile31_56.png" preserveAspectRatio="none" x="13133.056641" y="-3205.810547" width="1.098633" height="1.098633"/>
<image xlink:href="tile31_55.png" preserveAspectRatio="none" x="13133.056641" y="-3206.90918" width="1.098633" height="1.098633"/>
<image xlink:href="tile31_53.png" preserveAspectRatio="none" x="13133.056641" y="-3209.106445" width="1.098633" height="1.098633"/>
<image xlink:href="tile31_51.png" preserveAspectRatio="none" x="13133.056641" y="-3211.303711" width="1.098633" height="1.098633"/>
<image xlink:href="tile31_50.png" preserveAspectRatio="none" x="13133.056641" y="-3212.402344" width="1.098633" height="1.098633"/>
</g>
</svg>
