<?xml version="1.0" encoding="UTF-8"?>
<svg  xmlns="http://www.w3.org/2000/svg" xmlns:xlink="http://www.w3.org/1999/xlink" xmlns:go="http://purl.org/svgmap/profile" viewBox="13100.0 -3331.166667 92.93749999999932 64.50000029999998" go:dataArea="13100.0 -3331.166667 92.93749999999932 64.50000029999998" >
<metadata>
 <rdf:RDF xmlns:rdf="http://www.w3.org/1999/02/22-rdf-syntax-ns#" xmlns:crs="http://opengis.org/xmldtds/transformations.dtd" xmlns:svg="http://www.w3.org/svg" >
  <rdf:Description>
   <crs:CoordinateReferenceSystem rdf:resource="http://purl.org/crs/84" svg:transform="matrix(100.0,0.0,0.0,-100.0,0.0,0.0)" />
  </rdf:Description>
 </rdf:RDF>
</metadata>
<globalCoordinateSystem srsName="http://purl.org/crs/84" transform="matrix(100.0,0.0,0.0,-100.0,0.0,0.0)" />
<g >
<animation xlink:href="sub_0_0_container.svg" x="13098.999023" y="-3283.813477" width="17.578125" height="17.578125"/>
<animation xlink:href="sub_3_1_container.svg" x="13151.733398" y="-3301.391602" width="17.578125" height="17.578125"/>
<animation xlink:href="sub_0_1_container.svg" x="13098.999023" y="-3301.391602" width="17.578125" height="17.578125"/>
<animation xlink:href="sub_3_0_container.svg" x="13151.733398" y="-3283.813477" width="17.578125" height="17.578125"/>
<animation xlink:href="sub_0_2_container.svg" x="13098.999023" y="-3318.969727" width="17.578125" height="17.578125"/>
<animation xlink:href="sub_3_3_container.svg" x="13151.733398" y="-3336.547852" width="17.578125" height="17.578125"/>
<animation xlink:href="sub_0_3_container.svg" x="13098.999023" y="-3336.547852" width="17.578125" height="17.578125"/>
<animation xlink:href="sub_3_2_container.svg" x="13151.733398" y="-3318.969727" width="17.578125" height="17.578125"/>
<animation xlink:href="sub_2_3_container.svg" x="13134.155273" y="-3336.547852" width="17.578125" height="17.578125"/>
<animation xlink:href="sub_2_2_container.svg" x="13134.155273" y="-3318.969727" width="17.578125" height="17.578125"/>
<animation xlink:href="sub_2_1_container.svg" x="13134.155273" y="-3301.391602" width="17.578125" height="17.578125"/>
<animation xlink:href="sub_2_0_container.svg" x="13134.155273" y="-3283.813477" width="17.578125" height="17.578125"/>
<animation xlink:href="sub_5_1_container.svg" x="13186.889648" y="-3301.391602" width="17.578125" height="17.578125"/>
<animation xlink:href="sub_4_3_container.svg" x="13169.311523" y="-3336.547852" width="17.578125" height="17.578125"/>
<animation xlink:href="sub_1_0_container.svg" x="13116.577148" y="-3283.813477" width="17.578125" height="17.578125"/>
<animation xlink:href="sub_4_2_container.svg" x="13169.311523" y="-3318.969727" width="17.578125" height="17.578125"/>
<animation xlink:href="sub_1_3_container.svg" x="13116.577148" y="-3336.547852" width="17.578125" height="17.578125"/>
<animation xlink:href="sub_4_1_container.svg" x="13169.311523" y="-3301.391602" width="17.578125" height="17.578125"/>
<animation xlink:href="sub_4_0_container.svg" x="13169.311523" y="-3283.813477" width="17.578125" height="17.578125"/>
</g>
</svg>
