<?xml version="1.0" encoding="UTF-8"?>
<svg  xmlns="http://www.w3.org/2000/svg" xmlns:xlink="http://www.w3.org/1999/xlink" xmlns:go="http://purl.org/svgmap/profile" viewBox="13100.0 -3331.166667 92.93749999999932 64.50000029999998" go:dataArea="13100.0 -3331.166667 92.93749999999932 64.50000029999998" >
<metadata>
 <rdf:RDF xmlns:rdf="http://www.w3.org/1999/02/22-rdf-syntax-ns#" xmlns:crs="http://opengis.org/xmldtds/transformations.dtd" xmlns:svg="http://www.w3.org/svg" >
  <rdf:Description>
   <crs:CoordinateReferenceSystem rdf:resource="http://purl.org/crs/84" svg:transform="matrix(100.0,0.0,0.0,-100.0,0.0,0.0)" />
  </rdf:Description>
 </rdf:RDF>
</metadata>
<globalCoordinateSystem srsName="http://purl.org/crs/84" transform="matrix(100.0,0.0,0.0,-100.0,0.0,0.0)" />
<g >
<image xlink:href="tile48_11.png" preserveAspectRatio="none" x="13151.733398" y="-3320.068359" width="1.098633" height="1.098633"/>
<image xlink:href="tile48_10.png" preserveAspectRatio="none" x="13151.733398" y="-3321.166992" width="1.098633" height="1.098633"/>
<image xlink:href="tile49_11.png" preserveAspectRatio="none" x="13152.832031" y="-3320.068359" width="1.098633" height="1.098633"/>
<image xlink:href="tile50_11.png" preserveAspectRatio="none" x="13153.930664" y="-3320.068359" width="1.098633" height="1.098633"/>
<image xlink:href="tile50_10.png" preserveAspectRatio="none" x="13153.930664" y="-3321.166992" width="1.098633" height="1.098633"/>
<image xlink:href="tile50_9.png" preserveAspectRatio="none" x="13153.930664" y="-3322.265625" width="1.098633" height="1.098633"/>
<image xlink:href="tile51_11.png" preserveAspectRatio="none" x="13155.029297" y="-3320.068359" width="1.098633" height="1.098633"/>
<image xlink:href="tile51_10.png" preserveAspectRatio="none" x="13155.029297" y="-3321.166992" width="1.098633" height="1.098633"/>
<image xlink:href="tile51_9.png" preserveAspectRatio="none" x="13155.029297" y="-3322.265625" width="1.098633" height="1.098633"/>
<image xlink:href="tile52_11.png" preserveAspectRatio="none" x="13156.12793" y="-3320.068359" width="1.098633" height="1.098633"/>
<image xlink:href="tile52_10.png" preserveAspectRatio="none" x="13156.12793" y="-3321.166992" width="1.098633" height="1.098633"/>
<image xlink:href="tile52_9.png" preserveAspectRatio="none" x="13156.12793" y="-3322.265625" width="1.098633" height="1.098633"/>
<image xlink:href="tile52_7.png" preserveAspectRatio="none" x="13156.12793" y="-3324.462891" width="1.098633" height="1.098633"/>
<image xlink:href="tile53_11.png" preserveAspectRatio="none" x="13157.226562" y="-3320.068359" width="1.098633" height="1.098633"/>
<image xlink:href="tile53_10.png" preserveAspectRatio="none" x="13157.226562" y="-3321.166992" width="1.098633" height="1.098633"/>
<image xlink:href="tile53_9.png" preserveAspectRatio="none" x="13157.226562" y="-3322.265625" width="1.098633" height="1.098633"/>
<image xlink:href="tile53_7.png" preserveAspectRatio="none" x="13157.226562" y="-3324.462891" width="1.098633" height="1.098633"/>
<image xlink:href="tile53_6.png" preserveAspectRatio="none" x="13157.226562" y="-3325.561523" width="1.098633" height="1.098633"/>
<image xlink:href="tile54_11.png" preserveAspectRatio="none" x="13158.325195" y="-3320.068359" width="1.098633" height="1.098633"/>
<image xlink:href="tile54_10.png" preserveAspectRatio="none" x="13158.325195" y="-3321.166992" width="1.098633" height="1.098633"/>
<image xlink:href="tile54_9.png" preserveAspectRatio="none" x="13158.325195" y="-3322.265625" width="1.098633" height="1.098633"/>
<image xlink:href="tile54_8.png" preserveAspectRatio="none" x="13158.325195" y="-3323.364258" width="1.098633" height="1.098633"/>
<image xlink:href="tile54_7.png" preserveAspectRatio="none" x="13158.325195" y="-3324.462891" width="1.098633" height="1.098633"/>
<image xlink:href="tile55_11.png" preserveAspectRatio="none" x="13159.423828" y="-3320.068359" width="1.098633" height="1.098633"/>
<image xlink:href="tile55_10.png" preserveAspectRatio="none" x="13159.423828" y="-3321.166992" width="1.098633" height="1.098633"/>
<image xlink:href="tile55_9.png" preserveAspectRatio="none" x="13159.423828" y="-3322.265625" width="1.098633" height="1.098633"/>
<image xlink:href="tile55_8.png" preserveAspectRatio="none" x="13159.423828" y="-3323.364258" width="1.098633" height="1.098633"/>
<image xlink:href="tile55_7.png" preserveAspectRatio="none" x="13159.423828" y="-3324.462891" width="1.098633" height="1.098633"/>
<image xlink:href="tile55_6.png" preserveAspectRatio="none" x="13159.423828" y="-3325.561523" width="1.098633" height="1.098633"/>
<image xlink:href="tile55_5.png" preserveAspectRatio="none" x="13159.423828" y="-3326.660156" width="1.098633" height="1.098633"/>
<image xlink:href="tile56_11.png" preserveAspectRatio="none" x="13160.522461" y="-3320.068359" width="1.098633" height="1.098633"/>
<image xlink:href="tile56_10.png" preserveAspectRatio="none" x="13160.522461" y="-3321.166992" width="1.098633" height="1.098633"/>
<image xlink:href="tile56_9.png" preserveAspectRatio="none" x="13160.522461" y="-3322.265625" width="1.098633" height="1.098633"/>
<image xlink:href="tile56_8.png" preserveAspectRatio="none" x="13160.522461" y="-3323.364258" width="1.098633" height="1.098633"/>
<image xlink:href="tile56_7.png" preserveAspectRatio="none" x="13160.522461" y="-3324.462891" width="1.098633" height="1.098633"/>
<image xlink:href="tile56_6.png" preserveAspectRatio="none" x="13160.522461" y="-3325.561523" width="1.098633" height="1.098633"/>
<image xlink:href="tile56_5.png" preserveAspectRatio="none" x="13160.522461" y="-3326.660156" width="1.098633" height="1.098633"/>
<image xlink:href="tile57_11.png" preserveAspectRatio="none" x="13161.621094" y="-3320.068359" width="1.098633" height="1.098633"/>
<image xlink:href="tile57_10.png" preserveAspectRatio="none" x="13161.621094" y="-3321.166992" width="1.098633" height="1.098633"/>
<image xlink:href="tile57_9.png" preserveAspectRatio="none" x="13161.621094" y="-3322.265625" width="1.098633" height="1.098633"/>
<image xlink:href="tile57_8.png" preserveAspectRatio="none" x="13161.621094" y="-3323.364258" width="1.098633" height="1.098633"/>
<image xlink:href="tile57_7.png" preserveAspectRatio="none" x="13161.621094" y="-3324.462891" width="1.098633" height="1.098633"/>
<image xlink:href="tile57_6.png" preserveAspectRatio="none" x="13161.621094" y="-3325.561523" width="1.098633" height="1.098633"/>
<image xlink:href="tile57_5.png" preserveAspectRatio="none" x="13161.621094" y="-3326.660156" width="1.098633" height="1.098633"/>
<image xlink:href="tile58_10.png" preserveAspectRatio="none" x="13162.719727" y="-3321.166992" width="1.098633" height="1.098633"/>
<image xlink:href="tile58_9.png" preserveAspectRatio="none" x="13162.719727" y="-3322.265625" width="1.098633" height="1.098633"/>
<image xlink:href="tile58_8.png" preserveAspectRatio="none" x="13162.719727" y="-3323.364258" width="1.098633" height="1.098633"/>
<image xlink:href="tile58_7.png" preserveAspectRatio="none" x="13162.719727" y="-3324.462891" width="1.098633" height="1.098633"/>
<image xlink:href="tile58_6.png" preserveAspectRatio="none" x="13162.719727" y="-3325.561523" width="1.098633" height="1.098633"/>
<image xlink:href="tile58_5.png" preserveAspectRatio="none" x="13162.719727" y="-3326.660156" width="1.098633" height="1.098633"/>
<image xlink:href="tile58_4.png" preserveAspectRatio="none" x="13162.719727" y="-3327.758789" width="1.098633" height="1.098633"/>
<image xlink:href="tile59_9.png" preserveAspectRatio="none" x="13163.818359" y="-3322.265625" width="1.098633" height="1.098633"/>
<image xlink:href="tile59_8.png" preserveAspectRatio="none" x="13163.818359" y="-3323.364258" width="1.098633" height="1.098633"/>
<image xlink:href="tile59_7.png" preserveAspectRatio="none" x="13163.818359" y="-3324.462891" width="1.098633" height="1.098633"/>
<image xlink:href="tile59_6.png" preserveAspectRatio="none" x="13163.818359" y="-3325.561523" width="1.098633" height="1.098633"/>
<image xlink:href="tile59_5.png" preserveAspectRatio="none" x="13163.818359" y="-3326.660156" width="1.098633" height="1.098633"/>
<image xlink:href="tile59_4.png" preserveAspectRatio="none" x="13163.818359" y="-3327.758789" width="1.098633" height="1.098633"/>
<image xlink:href="tile60_7.png" preserveAspectRatio="none" x="13164.916992" y="-3324.462891" width="1.098633" height="1.098633"/>
<image xlink:href="tile60_6.png" preserveAspectRatio="none" x="13164.916992" y="-3325.561523" width="1.098633" height="1.098633"/>
<image xlink:href="tile60_5.png" preserveAspectRatio="none" x="13164.916992" y="-3326.660156" width="1.098633" height="1.098633"/>
<image xlink:href="tile60_4.png" preserveAspectRatio="none" x="13164.916992" y="-3327.758789" width="1.098633" height="1.098633"/>
<image xlink:href="tile61_11.png" preserveAspectRatio="none" x="13166.015625" y="-3320.068359" width="1.098633" height="1.098633"/>
<image xlink:href="tile61_7.png" preserveAspectRatio="none" x="13166.015625" y="-3324.462891" width="1.098633" height="1.098633"/>
<image xlink:href="tile61_6.png" preserveAspectRatio="none" x="13166.015625" y="-3325.561523" width="1.098633" height="1.098633"/>
<image xlink:href="tile61_5.png" preserveAspectRatio="none" x="13166.015625" y="-3326.660156" width="1.098633" height="1.098633"/>
<image xlink:href="tile61_4.png" preserveAspectRatio="none" x="13166.015625" y="-3327.758789" width="1.098633" height="1.098633"/>
<image xlink:href="tile62_11.png" preserveAspectRatio="none" x="13167.114258" y="-3320.068359" width="1.098633" height="1.098633"/>
<image xlink:href="tile62_10.png" preserveAspectRatio="none" x="13167.114258" y="-3321.166992" width="1.098633" height="1.098633"/>
<image xlink:href="tile62_9.png" preserveAspectRatio="none" x="13167.114258" y="-3322.265625" width="1.098633" height="1.098633"/>
<image xlink:href="tile62_8.png" preserveAspectRatio="none" x="13167.114258" y="-3323.364258" width="1.098633" height="1.098633"/>
<image xlink:href="tile62_7.png" preserveAspectRatio="none" x="13167.114258" y="-3324.462891" width="1.098633" height="1.098633"/>
<image xlink:href="tile62_6.png" preserveAspectRatio="none" x="13167.114258" y="-3325.561523" width="1.098633" height="1.098633"/>
<image xlink:href="tile62_5.png" preserveAspectRatio="none" x="13167.114258" y="-3326.660156" width="1.098633" height="1.098633"/>
<image xlink:href="tile62_4.png" preserveAspectRatio="none" x="13167.114258" y="-3327.758789" width="1.098633" height="1.098633"/>
<image xlink:href="tile63_11.png" preserveAspectRatio="none" x="13168.212891" y="-3320.068359" width="1.098633" height="1.098633"/>
<image xlink:href="tile63_10.png" preserveAspectRatio="none" x="13168.212891" y="-3321.166992" width="1.098633" height="1.098633"/>
<image xlink:href="tile63_9.png" preserveAspectRatio="none" x="13168.212891" y="-3322.265625" width="1.098633" height="1.098633"/>
<image xlink:href="tile63_8.png" preserveAspectRatio="none" x="13168.212891" y="-3323.364258" width="1.098633" height="1.098633"/>
<image xlink:href="tile63_7.png" preserveAspectRatio="none" x="13168.212891" y="-3324.462891" width="1.098633" height="1.098633"/>
<image xlink:href="tile63_6.png" preserveAspectRatio="none" x="13168.212891" y="-3325.561523" width="1.098633" height="1.098633"/>
<image xlink:href="tile63_5.png" preserveAspectRatio="none" x="13168.212891" y="-3326.660156" width="1.098633" height="1.098633"/>
<image xlink:href="tile63_4.png" preserveAspectRatio="none" x="13168.212891" y="-3327.758789" width="1.098633" height="1.098633"/>
</g>
</svg>
