<?xml version="1.0" encoding="UTF-8"?>
<svg  xmlns="http://www.w3.org/2000/svg" xmlns:xlink="http://www.w3.org/1999/xlink" xmlns:go="http://purl.org/svgmap/profile" viewBox="13600.33125 -3466.666667 90.45624999999973 66.66666699999979" go:dataArea="13600.33125 -3466.666667 90.45624999999973 66.66666699999979" >
<metadata>
 <rdf:RDF xmlns:rdf="http://www.w3.org/1999/02/22-rdf-syntax-ns#" xmlns:crs="http://opengis.org/xmldtds/transformations.dtd" xmlns:svg="http://www.w3.org/svg" >
  <rdf:Description>
   <crs:CoordinateReferenceSystem rdf:resource="http://purl.org/crs/84" svg:transform="matrix(100.0,0.0,0.0,-100.0,0.0,0.0)" />
  </rdf:Description>
 </rdf:RDF>
</metadata>
<globalCoordinateSystem srsName="http://purl.org/crs/84" transform="matrix(100.0,0.0,0.0,-100.0,0.0,0.0)" />
<g >
<image xlink:href="tile64_29.png" preserveAspectRatio="none" x="13670.288086" y="-3435.424805" width="1.098633" height="1.098633"/>
<image xlink:href="tile64_28.png" preserveAspectRatio="none" x="13670.288086" y="-3436.523438" width="1.098633" height="1.098633"/>
<image xlink:href="tile64_27.png" preserveAspectRatio="none" x="13670.288086" y="-3437.62207" width="1.098633" height="1.098633"/>
<image xlink:href="tile64_18.png" preserveAspectRatio="none" x="13670.288086" y="-3447.509766" width="1.098633" height="1.098633"/>
<image xlink:href="tile64_17.png" preserveAspectRatio="none" x="13670.288086" y="-3448.608398" width="1.098633" height="1.098633"/>
<image xlink:href="tile64_16.png" preserveAspectRatio="none" x="13670.288086" y="-3449.707031" width="1.098633" height="1.098633"/>
<image xlink:href="tile64_15.png" preserveAspectRatio="none" x="13670.288086" y="-3450.805664" width="1.098633" height="1.098633"/>
<image xlink:href="tile64_14.png" preserveAspectRatio="none" x="13670.288086" y="-3451.904297" width="1.098633" height="1.098633"/>
<image xlink:href="tile65_29.png" preserveAspectRatio="none" x="13671.386719" y="-3435.424805" width="1.098633" height="1.098633"/>
<image xlink:href="tile65_28.png" preserveAspectRatio="none" x="13671.386719" y="-3436.523438" width="1.098633" height="1.098633"/>
<image xlink:href="tile65_27.png" preserveAspectRatio="none" x="13671.386719" y="-3437.62207" width="1.098633" height="1.098633"/>
<image xlink:href="tile65_17.png" preserveAspectRatio="none" x="13671.386719" y="-3448.608398" width="1.098633" height="1.098633"/>
<image xlink:href="tile65_16.png" preserveAspectRatio="none" x="13671.386719" y="-3449.707031" width="1.098633" height="1.098633"/>
<image xlink:href="tile65_15.png" preserveAspectRatio="none" x="13671.386719" y="-3450.805664" width="1.098633" height="1.098633"/>
<image xlink:href="tile65_14.png" preserveAspectRatio="none" x="13671.386719" y="-3451.904297" width="1.098633" height="1.098633"/>
<image xlink:href="tile66_29.png" preserveAspectRatio="none" x="13672.485352" y="-3435.424805" width="1.098633" height="1.098633"/>
<image xlink:href="tile66_16.png" preserveAspectRatio="none" x="13672.485352" y="-3449.707031" width="1.098633" height="1.098633"/>
<image xlink:href="tile66_15.png" preserveAspectRatio="none" x="13672.485352" y="-3450.805664" width="1.098633" height="1.098633"/>
<image xlink:href="tile66_14.png" preserveAspectRatio="none" x="13672.485352" y="-3451.904297" width="1.098633" height="1.098633"/>
<image xlink:href="tile67_29.png" preserveAspectRatio="none" x="13673.583984" y="-3435.424805" width="1.098633" height="1.098633"/>
<image xlink:href="tile67_15.png" preserveAspectRatio="none" x="13673.583984" y="-3450.805664" width="1.098633" height="1.098633"/>
<image xlink:href="tile67_14.png" preserveAspectRatio="none" x="13673.583984" y="-3451.904297" width="1.098633" height="1.098633"/>
<image xlink:href="tile68_17.png" preserveAspectRatio="none" x="13674.682617" y="-3448.608398" width="1.098633" height="1.098633"/>
<image xlink:href="tile68_16.png" preserveAspectRatio="none" x="13674.682617" y="-3449.707031" width="1.098633" height="1.098633"/>
<image xlink:href="tile69_28.png" preserveAspectRatio="none" x="13675.78125" y="-3436.523438" width="1.098633" height="1.098633"/>
<image xlink:href="tile69_18.png" preserveAspectRatio="none" x="13675.78125" y="-3447.509766" width="1.098633" height="1.098633"/>
<image xlink:href="tile69_17.png" preserveAspectRatio="none" x="13675.78125" y="-3448.608398" width="1.098633" height="1.098633"/>
<image xlink:href="tile69_16.png" preserveAspectRatio="none" x="13675.78125" y="-3449.707031" width="1.098633" height="1.098633"/>
<image xlink:href="tile69_15.png" preserveAspectRatio="none" x="13675.78125" y="-3450.805664" width="1.098633" height="1.098633"/>
<image xlink:href="tile70_29.png" preserveAspectRatio="none" x="13676.879883" y="-3435.424805" width="1.098633" height="1.098633"/>
<image xlink:href="tile70_28.png" preserveAspectRatio="none" x="13676.879883" y="-3436.523438" width="1.098633" height="1.098633"/>
<image xlink:href="tile70_27.png" preserveAspectRatio="none" x="13676.879883" y="-3437.62207" width="1.098633" height="1.098633"/>
<image xlink:href="tile70_26.png" preserveAspectRatio="none" x="13676.879883" y="-3438.720703" width="1.098633" height="1.098633"/>
<image xlink:href="tile70_17.png" preserveAspectRatio="none" x="13676.879883" y="-3448.608398" width="1.098633" height="1.098633"/>
<image xlink:href="tile70_16.png" preserveAspectRatio="none" x="13676.879883" y="-3449.707031" width="1.098633" height="1.098633"/>
<image xlink:href="tile70_15.png" preserveAspectRatio="none" x="13676.879883" y="-3450.805664" width="1.098633" height="1.098633"/>
<image xlink:href="tile71_28.png" preserveAspectRatio="none" x="13677.978516" y="-3436.523438" width="1.098633" height="1.098633"/>
<image xlink:href="tile71_27.png" preserveAspectRatio="none" x="13677.978516" y="-3437.62207" width="1.098633" height="1.098633"/>
<image xlink:href="tile71_26.png" preserveAspectRatio="none" x="13677.978516" y="-3438.720703" width="1.098633" height="1.098633"/>
<image xlink:href="tile71_25.png" preserveAspectRatio="none" x="13677.978516" y="-3439.819336" width="1.098633" height="1.098633"/>
<image xlink:href="tile71_16.png" preserveAspectRatio="none" x="13677.978516" y="-3449.707031" width="1.098633" height="1.098633"/>
<image xlink:href="tile71_15.png" preserveAspectRatio="none" x="13677.978516" y="-3450.805664" width="1.098633" height="1.098633"/>
<image xlink:href="tile72_27.png" preserveAspectRatio="none" x="13679.077148" y="-3437.62207" width="1.098633" height="1.098633"/>
<image xlink:href="tile72_26.png" preserveAspectRatio="none" x="13679.077148" y="-3438.720703" width="1.098633" height="1.098633"/>
<image xlink:href="tile72_25.png" preserveAspectRatio="none" x="13679.077148" y="-3439.819336" width="1.098633" height="1.098633"/>
<image xlink:href="tile72_23.png" preserveAspectRatio="none" x="13679.077148" y="-3442.016602" width="1.098633" height="1.098633"/>
<image xlink:href="tile72_16.png" preserveAspectRatio="none" x="13679.077148" y="-3449.707031" width="1.098633" height="1.098633"/>
<image xlink:href="tile72_15.png" preserveAspectRatio="none" x="13679.077148" y="-3450.805664" width="1.098633" height="1.098633"/>
<image xlink:href="tile73_29.png" preserveAspectRatio="none" x="13680.175781" y="-3435.424805" width="1.098633" height="1.098633"/>
<image xlink:href="tile73_28.png" preserveAspectRatio="none" x="13680.175781" y="-3436.523438" width="1.098633" height="1.098633"/>
<image xlink:href="tile73_27.png" preserveAspectRatio="none" x="13680.175781" y="-3437.62207" width="1.098633" height="1.098633"/>
<image xlink:href="tile73_26.png" preserveAspectRatio="none" x="13680.175781" y="-3438.720703" width="1.098633" height="1.098633"/>
<image xlink:href="tile73_24.png" preserveAspectRatio="none" x="13680.175781" y="-3440.917969" width="1.098633" height="1.098633"/>
<image xlink:href="tile73_23.png" preserveAspectRatio="none" x="13680.175781" y="-3442.016602" width="1.098633" height="1.098633"/>
<image xlink:href="tile73_16.png" preserveAspectRatio="none" x="13680.175781" y="-3449.707031" width="1.098633" height="1.098633"/>
<image xlink:href="tile73_15.png" preserveAspectRatio="none" x="13680.175781" y="-3450.805664" width="1.098633" height="1.098633"/>
<image xlink:href="tile74_28.png" preserveAspectRatio="none" x="13681.274414" y="-3436.523438" width="1.098633" height="1.098633"/>
<image xlink:href="tile74_27.png" preserveAspectRatio="none" x="13681.274414" y="-3437.62207" width="1.098633" height="1.098633"/>
<image xlink:href="tile74_26.png" preserveAspectRatio="none" x="13681.274414" y="-3438.720703" width="1.098633" height="1.098633"/>
<image xlink:href="tile74_25.png" preserveAspectRatio="none" x="13681.274414" y="-3439.819336" width="1.098633" height="1.098633"/>
<image xlink:href="tile74_24.png" preserveAspectRatio="none" x="13681.274414" y="-3440.917969" width="1.098633" height="1.098633"/>
<image xlink:href="tile74_23.png" preserveAspectRatio="none" x="13681.274414" y="-3442.016602" width="1.098633" height="1.098633"/>
<image xlink:href="tile74_22.png" preserveAspectRatio="none" x="13681.274414" y="-3443.115234" width="1.098633" height="1.098633"/>
<image xlink:href="tile74_21.png" preserveAspectRatio="none" x="13681.274414" y="-3444.213867" width="1.098633" height="1.098633"/>
<image xlink:href="tile74_20.png" preserveAspectRatio="none" x="13681.274414" y="-3445.3125" width="1.098633" height="1.098633"/>
<image xlink:href="tile74_18.png" preserveAspectRatio="none" x="13681.274414" y="-3447.509766" width="1.098633" height="1.098633"/>
<image xlink:href="tile74_17.png" preserveAspectRatio="none" x="13681.274414" y="-3448.608398" width="1.098633" height="1.098633"/>
<image xlink:href="tile75_29.png" preserveAspectRatio="none" x="13682.373047" y="-3435.424805" width="1.098633" height="1.098633"/>
<image xlink:href="tile75_26.png" preserveAspectRatio="none" x="13682.373047" y="-3438.720703" width="1.098633" height="1.098633"/>
<image xlink:href="tile75_25.png" preserveAspectRatio="none" x="13682.373047" y="-3439.819336" width="1.098633" height="1.098633"/>
<image xlink:href="tile75_22.png" preserveAspectRatio="none" x="13682.373047" y="-3443.115234" width="1.098633" height="1.098633"/>
<image xlink:href="tile75_21.png" preserveAspectRatio="none" x="13682.373047" y="-3444.213867" width="1.098633" height="1.098633"/>
<image xlink:href="tile75_20.png" preserveAspectRatio="none" x="13682.373047" y="-3445.3125" width="1.098633" height="1.098633"/>
<image xlink:href="tile75_17.png" preserveAspectRatio="none" x="13682.373047" y="-3448.608398" width="1.098633" height="1.098633"/>
<image xlink:href="tile76_29.png" preserveAspectRatio="none" x="13683.47168" y="-3435.424805" width="1.098633" height="1.098633"/>
<image xlink:href="tile76_28.png" preserveAspectRatio="none" x="13683.47168" y="-3436.523438" width="1.098633" height="1.098633"/>
<image xlink:href="tile76_25.png" preserveAspectRatio="none" x="13683.47168" y="-3439.819336" width="1.098633" height="1.098633"/>
<image xlink:href="tile76_23.png" preserveAspectRatio="none" x="13683.47168" y="-3442.016602" width="1.098633" height="1.098633"/>
<image xlink:href="tile76_22.png" preserveAspectRatio="none" x="13683.47168" y="-3443.115234" width="1.098633" height="1.098633"/>
<image xlink:href="tile76_21.png" preserveAspectRatio="none" x="13683.47168" y="-3444.213867" width="1.098633" height="1.098633"/>
<image xlink:href="tile76_20.png" preserveAspectRatio="none" x="13683.47168" y="-3445.3125" width="1.098633" height="1.098633"/>
<image xlink:href="tile76_19.png" preserveAspectRatio="none" x="13683.47168" y="-3446.411133" width="1.098633" height="1.098633"/>
<image xlink:href="tile76_18.png" preserveAspectRatio="none" x="13683.47168" y="-3447.509766" width="1.098633" height="1.098633"/>
<image xlink:href="tile77_29.png" preserveAspectRatio="none" x="13684.570312" y="-3435.424805" width="1.098633" height="1.098633"/>
<image xlink:href="tile77_28.png" preserveAspectRatio="none" x="13684.570312" y="-3436.523438" width="1.098633" height="1.098633"/>
<image xlink:href="tile77_23.png" preserveAspectRatio="none" x="13684.570312" y="-3442.016602" width="1.098633" height="1.098633"/>
<image xlink:href="tile77_22.png" preserveAspectRatio="none" x="13684.570312" y="-3443.115234" width="1.098633" height="1.098633"/>
<image xlink:href="tile78_27.png" preserveAspectRatio="none" x="13685.668945" y="-3437.62207" width="1.098633" height="1.098633"/>
<image xlink:href="tile79_29.png" preserveAspectRatio="none" x="13686.767578" y="-3435.424805" width="1.098633" height="1.098633"/>
</g>
</svg>
