<?xml version="1.0" encoding="UTF-8"?>
<svg  xmlns="http://www.w3.org/2000/svg" xmlns:xlink="http://www.w3.org/1999/xlink" xmlns:go="http://purl.org/svgmap/profile" viewBox="13600.33125 -3466.666667 90.45624999999973 66.66666699999979" go:dataArea="13600.33125 -3466.666667 90.45624999999973 66.66666699999979" >
<metadata>
 <rdf:RDF xmlns:rdf="http://www.w3.org/1999/02/22-rdf-syntax-ns#" xmlns:crs="http://opengis.org/xmldtds/transformations.dtd" xmlns:svg="http://www.w3.org/svg" >
  <rdf:Description>
   <crs:CoordinateReferenceSystem rdf:resource="http://purl.org/crs/84" svg:transform="matrix(100.0,0.0,0.0,-100.0,0.0,0.0)" />
  </rdf:Description>
 </rdf:RDF>
</metadata>
<globalCoordinateSystem srsName="http://purl.org/crs/84" transform="matrix(100.0,0.0,0.0,-100.0,0.0,0.0)" />
<g >
<image xlink:href="tile16_13.png" preserveAspectRatio="none" x="13617.553711" y="-3453.00293" width="1.098633" height="1.098633"/>
<image xlink:href="tile16_10.png" preserveAspectRatio="none" x="13617.553711" y="-3456.298828" width="1.098633" height="1.098633"/>
<image xlink:href="tile16_9.png" preserveAspectRatio="none" x="13617.553711" y="-3457.397461" width="1.098633" height="1.098633"/>
<image xlink:href="tile16_8.png" preserveAspectRatio="none" x="13617.553711" y="-3458.496094" width="1.098633" height="1.098633"/>
<image xlink:href="tile16_5.png" preserveAspectRatio="none" x="13617.553711" y="-3461.791992" width="1.098633" height="1.098633"/>
<image xlink:href="tile16_4.png" preserveAspectRatio="none" x="13617.553711" y="-3462.890625" width="1.098633" height="1.098633"/>
<image xlink:href="tile16_3.png" preserveAspectRatio="none" x="13617.553711" y="-3463.989258" width="1.098633" height="1.098633"/>
<image xlink:href="tile16_1.png" preserveAspectRatio="none" x="13617.553711" y="-3466.186523" width="1.098633" height="1.098633"/>
<image xlink:href="tile16_0.png" preserveAspectRatio="none" x="13617.553711" y="-3467.285156" width="1.098633" height="1.098633"/>
<image xlink:href="tile17_13.png" preserveAspectRatio="none" x="13618.652344" y="-3453.00293" width="1.098633" height="1.098633"/>
<image xlink:href="tile17_12.png" preserveAspectRatio="none" x="13618.652344" y="-3454.101562" width="1.098633" height="1.098633"/>
<image xlink:href="tile17_11.png" preserveAspectRatio="none" x="13618.652344" y="-3455.200195" width="1.098633" height="1.098633"/>
<image xlink:href="tile17_10.png" preserveAspectRatio="none" x="13618.652344" y="-3456.298828" width="1.098633" height="1.098633"/>
<image xlink:href="tile17_6.png" preserveAspectRatio="none" x="13618.652344" y="-3460.693359" width="1.098633" height="1.098633"/>
<image xlink:href="tile17_5.png" preserveAspectRatio="none" x="13618.652344" y="-3461.791992" width="1.098633" height="1.098633"/>
<image xlink:href="tile17_4.png" preserveAspectRatio="none" x="13618.652344" y="-3462.890625" width="1.098633" height="1.098633"/>
<image xlink:href="tile17_3.png" preserveAspectRatio="none" x="13618.652344" y="-3463.989258" width="1.098633" height="1.098633"/>
<image xlink:href="tile18_8.png" preserveAspectRatio="none" x="13619.750977" y="-3458.496094" width="1.098633" height="1.098633"/>
<image xlink:href="tile18_7.png" preserveAspectRatio="none" x="13619.750977" y="-3459.594727" width="1.098633" height="1.098633"/>
<image xlink:href="tile18_6.png" preserveAspectRatio="none" x="13619.750977" y="-3460.693359" width="1.098633" height="1.098633"/>
<image xlink:href="tile18_3.png" preserveAspectRatio="none" x="13619.750977" y="-3463.989258" width="1.098633" height="1.098633"/>
<image xlink:href="tile18_2.png" preserveAspectRatio="none" x="13619.750977" y="-3465.087891" width="1.098633" height="1.098633"/>
<image xlink:href="tile18_0.png" preserveAspectRatio="none" x="13619.750977" y="-3467.285156" width="1.098633" height="1.098633"/>
<image xlink:href="tile19_8.png" preserveAspectRatio="none" x="13620.849609" y="-3458.496094" width="1.098633" height="1.098633"/>
<image xlink:href="tile19_7.png" preserveAspectRatio="none" x="13620.849609" y="-3459.594727" width="1.098633" height="1.098633"/>
<image xlink:href="tile19_5.png" preserveAspectRatio="none" x="13620.849609" y="-3461.791992" width="1.098633" height="1.098633"/>
<image xlink:href="tile19_3.png" preserveAspectRatio="none" x="13620.849609" y="-3463.989258" width="1.098633" height="1.098633"/>
<image xlink:href="tile19_2.png" preserveAspectRatio="none" x="13620.849609" y="-3465.087891" width="1.098633" height="1.098633"/>
<image xlink:href="tile20_6.png" preserveAspectRatio="none" x="13621.948242" y="-3460.693359" width="1.098633" height="1.098633"/>
<image xlink:href="tile20_5.png" preserveAspectRatio="none" x="13621.948242" y="-3461.791992" width="1.098633" height="1.098633"/>
<image xlink:href="tile20_4.png" preserveAspectRatio="none" x="13621.948242" y="-3462.890625" width="1.098633" height="1.098633"/>
<image xlink:href="tile20_3.png" preserveAspectRatio="none" x="13621.948242" y="-3463.989258" width="1.098633" height="1.098633"/>
<image xlink:href="tile20_0.png" preserveAspectRatio="none" x="13621.948242" y="-3467.285156" width="1.098633" height="1.098633"/>
<image xlink:href="tile21_6.png" preserveAspectRatio="none" x="13623.046875" y="-3460.693359" width="1.098633" height="1.098633"/>
<image xlink:href="tile21_5.png" preserveAspectRatio="none" x="13623.046875" y="-3461.791992" width="1.098633" height="1.098633"/>
<image xlink:href="tile21_4.png" preserveAspectRatio="none" x="13623.046875" y="-3462.890625" width="1.098633" height="1.098633"/>
<image xlink:href="tile21_1.png" preserveAspectRatio="none" x="13623.046875" y="-3466.186523" width="1.098633" height="1.098633"/>
<image xlink:href="tile21_0.png" preserveAspectRatio="none" x="13623.046875" y="-3467.285156" width="1.098633" height="1.098633"/>
<image xlink:href="tile22_12.png" preserveAspectRatio="none" x="13624.145508" y="-3454.101562" width="1.098633" height="1.098633"/>
<image xlink:href="tile22_8.png" preserveAspectRatio="none" x="13624.145508" y="-3458.496094" width="1.098633" height="1.098633"/>
<image xlink:href="tile22_7.png" preserveAspectRatio="none" x="13624.145508" y="-3459.594727" width="1.098633" height="1.098633"/>
<image xlink:href="tile22_6.png" preserveAspectRatio="none" x="13624.145508" y="-3460.693359" width="1.098633" height="1.098633"/>
<image xlink:href="tile23_11.png" preserveAspectRatio="none" x="13625.244141" y="-3455.200195" width="1.098633" height="1.098633"/>
<image xlink:href="tile23_10.png" preserveAspectRatio="none" x="13625.244141" y="-3456.298828" width="1.098633" height="1.098633"/>
<image xlink:href="tile23_9.png" preserveAspectRatio="none" x="13625.244141" y="-3457.397461" width="1.098633" height="1.098633"/>
<image xlink:href="tile23_7.png" preserveAspectRatio="none" x="13625.244141" y="-3459.594727" width="1.098633" height="1.098633"/>
<image xlink:href="tile24_10.png" preserveAspectRatio="none" x="13626.342773" y="-3456.298828" width="1.098633" height="1.098633"/>
<image xlink:href="tile24_9.png" preserveAspectRatio="none" x="13626.342773" y="-3457.397461" width="1.098633" height="1.098633"/>
<image xlink:href="tile24_6.png" preserveAspectRatio="none" x="13626.342773" y="-3460.693359" width="1.098633" height="1.098633"/>
<image xlink:href="tile24_5.png" preserveAspectRatio="none" x="13626.342773" y="-3461.791992" width="1.098633" height="1.098633"/>
<image xlink:href="tile24_3.png" preserveAspectRatio="none" x="13626.342773" y="-3463.989258" width="1.098633" height="1.098633"/>
<image xlink:href="tile24_2.png" preserveAspectRatio="none" x="13626.342773" y="-3465.087891" width="1.098633" height="1.098633"/>
<image xlink:href="tile25_9.png" preserveAspectRatio="none" x="13627.441406" y="-3457.397461" width="1.098633" height="1.098633"/>
<image xlink:href="tile25_5.png" preserveAspectRatio="none" x="13627.441406" y="-3461.791992" width="1.098633" height="1.098633"/>
<image xlink:href="tile25_4.png" preserveAspectRatio="none" x="13627.441406" y="-3462.890625" width="1.098633" height="1.098633"/>
<image xlink:href="tile25_3.png" preserveAspectRatio="none" x="13627.441406" y="-3463.989258" width="1.098633" height="1.098633"/>
<image xlink:href="tile26_4.png" preserveAspectRatio="none" x="13628.540039" y="-3462.890625" width="1.098633" height="1.098633"/>
<image xlink:href="tile26_3.png" preserveAspectRatio="none" x="13628.540039" y="-3463.989258" width="1.098633" height="1.098633"/>
<image xlink:href="tile27_13.png" preserveAspectRatio="none" x="13629.638672" y="-3453.00293" width="1.098633" height="1.098633"/>
<image xlink:href="tile27_7.png" preserveAspectRatio="none" x="13629.638672" y="-3459.594727" width="1.098633" height="1.098633"/>
<image xlink:href="tile27_4.png" preserveAspectRatio="none" x="13629.638672" y="-3462.890625" width="1.098633" height="1.098633"/>
<image xlink:href="tile27_3.png" preserveAspectRatio="none" x="13629.638672" y="-3463.989258" width="1.098633" height="1.098633"/>
<image xlink:href="tile28_13.png" preserveAspectRatio="none" x="13630.737305" y="-3453.00293" width="1.098633" height="1.098633"/>
<image xlink:href="tile28_12.png" preserveAspectRatio="none" x="13630.737305" y="-3454.101562" width="1.098633" height="1.098633"/>
<image xlink:href="tile28_11.png" preserveAspectRatio="none" x="13630.737305" y="-3455.200195" width="1.098633" height="1.098633"/>
<image xlink:href="tile28_10.png" preserveAspectRatio="none" x="13630.737305" y="-3456.298828" width="1.098633" height="1.098633"/>
<image xlink:href="tile28_7.png" preserveAspectRatio="none" x="13630.737305" y="-3459.594727" width="1.098633" height="1.098633"/>
<image xlink:href="tile28_3.png" preserveAspectRatio="none" x="13630.737305" y="-3463.989258" width="1.098633" height="1.098633"/>
<image xlink:href="tile28_1.png" preserveAspectRatio="none" x="13630.737305" y="-3466.186523" width="1.098633" height="1.098633"/>
<image xlink:href="tile28_0.png" preserveAspectRatio="none" x="13630.737305" y="-3467.285156" width="1.098633" height="1.098633"/>
<image xlink:href="tile29_10.png" preserveAspectRatio="none" x="13631.835938" y="-3456.298828" width="1.098633" height="1.098633"/>
<image xlink:href="tile29_4.png" preserveAspectRatio="none" x="13631.835938" y="-3462.890625" width="1.098633" height="1.098633"/>
<image xlink:href="tile29_3.png" preserveAspectRatio="none" x="13631.835938" y="-3463.989258" width="1.098633" height="1.098633"/>
<image xlink:href="tile29_2.png" preserveAspectRatio="none" x="13631.835938" y="-3465.087891" width="1.098633" height="1.098633"/>
<image xlink:href="tile29_1.png" preserveAspectRatio="none" x="13631.835938" y="-3466.186523" width="1.098633" height="1.098633"/>
<image xlink:href="tile29_0.png" preserveAspectRatio="none" x="13631.835938" y="-3467.285156" width="1.098633" height="1.098633"/>
<image xlink:href="tile30_11.png" preserveAspectRatio="none" x="13632.93457" y="-3455.200195" width="1.098633" height="1.098633"/>
<image xlink:href="tile30_10.png" preserveAspectRatio="none" x="13632.93457" y="-3456.298828" width="1.098633" height="1.098633"/>
<image xlink:href="tile30_8.png" preserveAspectRatio="none" x="13632.93457" y="-3458.496094" width="1.098633" height="1.098633"/>
<image xlink:href="tile30_4.png" preserveAspectRatio="none" x="13632.93457" y="-3462.890625" width="1.098633" height="1.098633"/>
<image xlink:href="tile30_3.png" preserveAspectRatio="none" x="13632.93457" y="-3463.989258" width="1.098633" height="1.098633"/>
<image xlink:href="tile30_2.png" preserveAspectRatio="none" x="13632.93457" y="-3465.087891" width="1.098633" height="1.098633"/>
<image xlink:href="tile30_0.png" preserveAspectRatio="none" x="13632.93457" y="-3467.285156" width="1.098633" height="1.098633"/>
<image xlink:href="tile31_10.png" preserveAspectRatio="none" x="13634.033203" y="-3456.298828" width="1.098633" height="1.098633"/>
<image xlink:href="tile31_9.png" preserveAspectRatio="none" x="13634.033203" y="-3457.397461" width="1.098633" height="1.098633"/>
<image xlink:href="tile31_8.png" preserveAspectRatio="none" x="13634.033203" y="-3458.496094" width="1.098633" height="1.098633"/>
<image xlink:href="tile31_4.png" preserveAspectRatio="none" x="13634.033203" y="-3462.890625" width="1.098633" height="1.098633"/>
<image xlink:href="tile31_3.png" preserveAspectRatio="none" x="13634.033203" y="-3463.989258" width="1.098633" height="1.098633"/>
<image xlink:href="tile31_2.png" preserveAspectRatio="none" x="13634.033203" y="-3465.087891" width="1.098633" height="1.098633"/>
<image xlink:href="tile31_1.png" preserveAspectRatio="none" x="13634.033203" y="-3466.186523" width="1.098633" height="1.098633"/>
<image xlink:href="tile31_0.png" preserveAspectRatio="none" x="13634.033203" y="-3467.285156" width="1.098633" height="1.098633"/>
</g>
</svg>
