<?xml version="1.0" encoding="UTF-8"?>
<svg  xmlns="http://www.w3.org/2000/svg" xmlns:xlink="http://www.w3.org/1999/xlink" xmlns:go="http://purl.org/svgmap/profile" viewBox="14000.0 -3666.666667 70.23290180000004 66.66666699999979" go:dataArea="14000.0 -3666.666667 70.23290180000004 66.66666699999979" >
<metadata>
 <rdf:RDF xmlns:rdf="http://www.w3.org/1999/02/22-rdf-syntax-ns#" xmlns:crs="http://opengis.org/xmldtds/transformations.dtd" xmlns:svg="http://www.w3.org/svg" >
  <rdf:Description>
   <crs:CoordinateReferenceSystem rdf:resource="http://purl.org/crs/84" svg:transform="matrix(100.0,0.0,0.0,-100.0,0.0,0.0)" />
  </rdf:Description>
 </rdf:RDF>
</metadata>
<globalCoordinateSystem srsName="http://purl.org/crs/84" transform="matrix(100.0,0.0,0.0,-100.0,0.0,0.0)" />
<g >
<image xlink:href="tile16_13.png" preserveAspectRatio="none" x="14017.456055" y="-3652.954102" width="1.098633" height="1.098633"/>
<image xlink:href="tile16_12.png" preserveAspectRatio="none" x="14017.456055" y="-3654.052734" width="1.098633" height="1.098633"/>
<image xlink:href="tile16_7.png" preserveAspectRatio="none" x="14017.456055" y="-3659.545898" width="1.098633" height="1.098633"/>
<image xlink:href="tile16_6.png" preserveAspectRatio="none" x="14017.456055" y="-3660.644531" width="1.098633" height="1.098633"/>
<image xlink:href="tile16_5.png" preserveAspectRatio="none" x="14017.456055" y="-3661.743164" width="1.098633" height="1.098633"/>
<image xlink:href="tile16_4.png" preserveAspectRatio="none" x="14017.456055" y="-3662.841797" width="1.098633" height="1.098633"/>
<image xlink:href="tile16_1.png" preserveAspectRatio="none" x="14017.456055" y="-3666.137695" width="1.098633" height="1.098633"/>
<image xlink:href="tile16_0.png" preserveAspectRatio="none" x="14017.456055" y="-3667.236328" width="1.098633" height="1.098633"/>
<image xlink:href="tile17_13.png" preserveAspectRatio="none" x="14018.554688" y="-3652.954102" width="1.098633" height="1.098633"/>
<image xlink:href="tile17_12.png" preserveAspectRatio="none" x="14018.554688" y="-3654.052734" width="1.098633" height="1.098633"/>
<image xlink:href="tile17_9.png" preserveAspectRatio="none" x="14018.554688" y="-3657.348633" width="1.098633" height="1.098633"/>
<image xlink:href="tile17_8.png" preserveAspectRatio="none" x="14018.554688" y="-3658.447266" width="1.098633" height="1.098633"/>
<image xlink:href="tile17_7.png" preserveAspectRatio="none" x="14018.554688" y="-3659.545898" width="1.098633" height="1.098633"/>
<image xlink:href="tile18_13.png" preserveAspectRatio="none" x="14019.65332" y="-3652.954102" width="1.098633" height="1.098633"/>
<image xlink:href="tile18_12.png" preserveAspectRatio="none" x="14019.65332" y="-3654.052734" width="1.098633" height="1.098633"/>
<image xlink:href="tile18_9.png" preserveAspectRatio="none" x="14019.65332" y="-3657.348633" width="1.098633" height="1.098633"/>
<image xlink:href="tile19_12.png" preserveAspectRatio="none" x="14020.751953" y="-3654.052734" width="1.098633" height="1.098633"/>
<image xlink:href="tile19_11.png" preserveAspectRatio="none" x="14020.751953" y="-3655.151367" width="1.098633" height="1.098633"/>
<image xlink:href="tile19_8.png" preserveAspectRatio="none" x="14020.751953" y="-3658.447266" width="1.098633" height="1.098633"/>
<image xlink:href="tile19_7.png" preserveAspectRatio="none" x="14020.751953" y="-3659.545898" width="1.098633" height="1.098633"/>
<image xlink:href="tile20_12.png" preserveAspectRatio="none" x="14021.850586" y="-3654.052734" width="1.098633" height="1.098633"/>
<image xlink:href="tile20_11.png" preserveAspectRatio="none" x="14021.850586" y="-3655.151367" width="1.098633" height="1.098633"/>
<image xlink:href="tile20_9.png" preserveAspectRatio="none" x="14021.850586" y="-3657.348633" width="1.098633" height="1.098633"/>
<image xlink:href="tile20_8.png" preserveAspectRatio="none" x="14021.850586" y="-3658.447266" width="1.098633" height="1.098633"/>
<image xlink:href="tile20_7.png" preserveAspectRatio="none" x="14021.850586" y="-3659.545898" width="1.098633" height="1.098633"/>
<image xlink:href="tile21_11.png" preserveAspectRatio="none" x="14022.949219" y="-3655.151367" width="1.098633" height="1.098633"/>
<image xlink:href="tile21_10.png" preserveAspectRatio="none" x="14022.949219" y="-3656.25" width="1.098633" height="1.098633"/>
<image xlink:href="tile21_9.png" preserveAspectRatio="none" x="14022.949219" y="-3657.348633" width="1.098633" height="1.098633"/>
<image xlink:href="tile22_10.png" preserveAspectRatio="none" x="14024.047852" y="-3656.25" width="1.098633" height="1.098633"/>
<image xlink:href="tile22_9.png" preserveAspectRatio="none" x="14024.047852" y="-3657.348633" width="1.098633" height="1.098633"/>
<image xlink:href="tile22_8.png" preserveAspectRatio="none" x="14024.047852" y="-3658.447266" width="1.098633" height="1.098633"/>
<image xlink:href="tile23_10.png" preserveAspectRatio="none" x="14025.146484" y="-3656.25" width="1.098633" height="1.098633"/>
<image xlink:href="tile23_9.png" preserveAspectRatio="none" x="14025.146484" y="-3657.348633" width="1.098633" height="1.098633"/>
<image xlink:href="tile24_10.png" preserveAspectRatio="none" x="14026.245117" y="-3656.25" width="1.098633" height="1.098633"/>
<image xlink:href="tile24_9.png" preserveAspectRatio="none" x="14026.245117" y="-3657.348633" width="1.098633" height="1.098633"/>
<image xlink:href="tile25_10.png" preserveAspectRatio="none" x="14027.34375" y="-3656.25" width="1.098633" height="1.098633"/>
<image xlink:href="tile25_9.png" preserveAspectRatio="none" x="14027.34375" y="-3657.348633" width="1.098633" height="1.098633"/>
<image xlink:href="tile25_8.png" preserveAspectRatio="none" x="14027.34375" y="-3658.447266" width="1.098633" height="1.098633"/>
<image xlink:href="tile26_10.png" preserveAspectRatio="none" x="14028.442383" y="-3656.25" width="1.098633" height="1.098633"/>
<image xlink:href="tile26_9.png" preserveAspectRatio="none" x="14028.442383" y="-3657.348633" width="1.098633" height="1.098633"/>
<image xlink:href="tile27_11.png" preserveAspectRatio="none" x="14029.541016" y="-3655.151367" width="1.098633" height="1.098633"/>
<image xlink:href="tile27_10.png" preserveAspectRatio="none" x="14029.541016" y="-3656.25" width="1.098633" height="1.098633"/>
<image xlink:href="tile27_9.png" preserveAspectRatio="none" x="14029.541016" y="-3657.348633" width="1.098633" height="1.098633"/>
<image xlink:href="tile28_11.png" preserveAspectRatio="none" x="14030.639648" y="-3655.151367" width="1.098633" height="1.098633"/>
<image xlink:href="tile28_10.png" preserveAspectRatio="none" x="14030.639648" y="-3656.25" width="1.098633" height="1.098633"/>
<image xlink:href="tile28_9.png" preserveAspectRatio="none" x="14030.639648" y="-3657.348633" width="1.098633" height="1.098633"/>
<image xlink:href="tile29_11.png" preserveAspectRatio="none" x="14031.738281" y="-3655.151367" width="1.098633" height="1.098633"/>
<image xlink:href="tile29_10.png" preserveAspectRatio="none" x="14031.738281" y="-3656.25" width="1.098633" height="1.098633"/>
<image xlink:href="tile30_11.png" preserveAspectRatio="none" x="14032.836914" y="-3655.151367" width="1.098633" height="1.098633"/>
<image xlink:href="tile30_10.png" preserveAspectRatio="none" x="14032.836914" y="-3656.25" width="1.098633" height="1.098633"/>
<image xlink:href="tile30_9.png" preserveAspectRatio="none" x="14032.836914" y="-3657.348633" width="1.098633" height="1.098633"/>
<image xlink:href="tile31_12.png" preserveAspectRatio="none" x="14033.935547" y="-3654.052734" width="1.098633" height="1.098633"/>
<image xlink:href="tile31_11.png" preserveAspectRatio="none" x="14033.935547" y="-3655.151367" width="1.098633" height="1.098633"/>
<image xlink:href="tile31_10.png" preserveAspectRatio="none" x="14033.935547" y="-3656.25" width="1.098633" height="1.098633"/>
<image xlink:href="tile31_9.png" preserveAspectRatio="none" x="14033.935547" y="-3657.348633" width="1.098633" height="1.098633"/>
</g>
</svg>
