<?xml version="1.0" encoding="UTF-8"?>
<svg  xmlns="http://www.w3.org/2000/svg" xmlns:xlink="http://www.w3.org/1999/xlink" xmlns:go="http://purl.org/svgmap/profile" viewBox="14000.0 -3666.666667 70.23290180000004 66.66666699999979" go:dataArea="14000.0 -3666.666667 70.23290180000004 66.66666699999979" >
<metadata>
 <rdf:RDF xmlns:rdf="http://www.w3.org/1999/02/22-rdf-syntax-ns#" xmlns:crs="http://opengis.org/xmldtds/transformations.dtd" xmlns:svg="http://www.w3.org/svg" >
  <rdf:Description>
   <crs:CoordinateReferenceSystem rdf:resource="http://purl.org/crs/84" svg:transform="matrix(100.0,0.0,0.0,-100.0,0.0,0.0)" />
  </rdf:Description>
 </rdf:RDF>
</metadata>
<globalCoordinateSystem srsName="http://purl.org/crs/84" transform="matrix(100.0,0.0,0.0,-100.0,0.0,0.0)" />
<g >
<image xlink:href="tile32_61.png" preserveAspectRatio="none" x="14035.03418" y="-3600.219727" width="1.098633" height="1.098633"/>
<image xlink:href="tile32_60.png" preserveAspectRatio="none" x="14035.03418" y="-3601.318359" width="1.098633" height="1.098633"/>
<image xlink:href="tile32_59.png" preserveAspectRatio="none" x="14035.03418" y="-3602.416992" width="1.098633" height="1.098633"/>
<image xlink:href="tile32_58.png" preserveAspectRatio="none" x="14035.03418" y="-3603.515625" width="1.098633" height="1.098633"/>
<image xlink:href="tile32_55.png" preserveAspectRatio="none" x="14035.03418" y="-3606.811523" width="1.098633" height="1.098633"/>
<image xlink:href="tile32_54.png" preserveAspectRatio="none" x="14035.03418" y="-3607.910156" width="1.098633" height="1.098633"/>
<image xlink:href="tile32_51.png" preserveAspectRatio="none" x="14035.03418" y="-3611.206055" width="1.098633" height="1.098633"/>
<image xlink:href="tile32_50.png" preserveAspectRatio="none" x="14035.03418" y="-3612.304688" width="1.098633" height="1.098633"/>
<image xlink:href="tile32_48.png" preserveAspectRatio="none" x="14035.03418" y="-3614.501953" width="1.098633" height="1.098633"/>
<image xlink:href="tile32_47.png" preserveAspectRatio="none" x="14035.03418" y="-3615.600586" width="1.098633" height="1.098633"/>
<image xlink:href="tile32_46.png" preserveAspectRatio="none" x="14035.03418" y="-3616.699219" width="1.098633" height="1.098633"/>
<image xlink:href="tile33_61.png" preserveAspectRatio="none" x="14036.132812" y="-3600.219727" width="1.098633" height="1.098633"/>
<image xlink:href="tile33_60.png" preserveAspectRatio="none" x="14036.132812" y="-3601.318359" width="1.098633" height="1.098633"/>
<image xlink:href="tile33_59.png" preserveAspectRatio="none" x="14036.132812" y="-3602.416992" width="1.098633" height="1.098633"/>
<image xlink:href="tile33_55.png" preserveAspectRatio="none" x="14036.132812" y="-3606.811523" width="1.098633" height="1.098633"/>
<image xlink:href="tile33_54.png" preserveAspectRatio="none" x="14036.132812" y="-3607.910156" width="1.098633" height="1.098633"/>
<image xlink:href="tile33_52.png" preserveAspectRatio="none" x="14036.132812" y="-3610.107422" width="1.098633" height="1.098633"/>
<image xlink:href="tile33_51.png" preserveAspectRatio="none" x="14036.132812" y="-3611.206055" width="1.098633" height="1.098633"/>
<image xlink:href="tile33_50.png" preserveAspectRatio="none" x="14036.132812" y="-3612.304688" width="1.098633" height="1.098633"/>
<image xlink:href="tile33_47.png" preserveAspectRatio="none" x="14036.132812" y="-3615.600586" width="1.098633" height="1.098633"/>
<image xlink:href="tile33_46.png" preserveAspectRatio="none" x="14036.132812" y="-3616.699219" width="1.098633" height="1.098633"/>
<image xlink:href="tile34_61.png" preserveAspectRatio="none" x="14037.231445" y="-3600.219727" width="1.098633" height="1.098633"/>
<image xlink:href="tile34_60.png" preserveAspectRatio="none" x="14037.231445" y="-3601.318359" width="1.098633" height="1.098633"/>
<image xlink:href="tile34_55.png" preserveAspectRatio="none" x="14037.231445" y="-3606.811523" width="1.098633" height="1.098633"/>
<image xlink:href="tile34_54.png" preserveAspectRatio="none" x="14037.231445" y="-3607.910156" width="1.098633" height="1.098633"/>
<image xlink:href="tile34_53.png" preserveAspectRatio="none" x="14037.231445" y="-3609.008789" width="1.098633" height="1.098633"/>
<image xlink:href="tile34_52.png" preserveAspectRatio="none" x="14037.231445" y="-3610.107422" width="1.098633" height="1.098633"/>
<image xlink:href="tile34_51.png" preserveAspectRatio="none" x="14037.231445" y="-3611.206055" width="1.098633" height="1.098633"/>
<image xlink:href="tile34_48.png" preserveAspectRatio="none" x="14037.231445" y="-3614.501953" width="1.098633" height="1.098633"/>
<image xlink:href="tile34_47.png" preserveAspectRatio="none" x="14037.231445" y="-3615.600586" width="1.098633" height="1.098633"/>
<image xlink:href="tile35_54.png" preserveAspectRatio="none" x="14038.330078" y="-3607.910156" width="1.098633" height="1.098633"/>
<image xlink:href="tile35_53.png" preserveAspectRatio="none" x="14038.330078" y="-3609.008789" width="1.098633" height="1.098633"/>
<image xlink:href="tile35_52.png" preserveAspectRatio="none" x="14038.330078" y="-3610.107422" width="1.098633" height="1.098633"/>
<image xlink:href="tile35_49.png" preserveAspectRatio="none" x="14038.330078" y="-3613.40332" width="1.098633" height="1.098633"/>
<image xlink:href="tile35_48.png" preserveAspectRatio="none" x="14038.330078" y="-3614.501953" width="1.098633" height="1.098633"/>
<image xlink:href="tile36_52.png" preserveAspectRatio="none" x="14039.428711" y="-3610.107422" width="1.098633" height="1.098633"/>
<image xlink:href="tile36_51.png" preserveAspectRatio="none" x="14039.428711" y="-3611.206055" width="1.098633" height="1.098633"/>
<image xlink:href="tile36_50.png" preserveAspectRatio="none" x="14039.428711" y="-3612.304688" width="1.098633" height="1.098633"/>
<image xlink:href="tile36_49.png" preserveAspectRatio="none" x="14039.428711" y="-3613.40332" width="1.098633" height="1.098633"/>
<image xlink:href="tile37_53.png" preserveAspectRatio="none" x="14040.527344" y="-3609.008789" width="1.098633" height="1.098633"/>
<image xlink:href="tile37_52.png" preserveAspectRatio="none" x="14040.527344" y="-3610.107422" width="1.098633" height="1.098633"/>
<image xlink:href="tile37_51.png" preserveAspectRatio="none" x="14040.527344" y="-3611.206055" width="1.098633" height="1.098633"/>
<image xlink:href="tile37_50.png" preserveAspectRatio="none" x="14040.527344" y="-3612.304688" width="1.098633" height="1.098633"/>
<image xlink:href="tile38_55.png" preserveAspectRatio="none" x="14041.625977" y="-3606.811523" width="1.098633" height="1.098633"/>
<image xlink:href="tile38_54.png" preserveAspectRatio="none" x="14041.625977" y="-3607.910156" width="1.098633" height="1.098633"/>
<image xlink:href="tile38_53.png" preserveAspectRatio="none" x="14041.625977" y="-3609.008789" width="1.098633" height="1.098633"/>
<image xlink:href="tile38_52.png" preserveAspectRatio="none" x="14041.625977" y="-3610.107422" width="1.098633" height="1.098633"/>
<image xlink:href="tile38_51.png" preserveAspectRatio="none" x="14041.625977" y="-3611.206055" width="1.098633" height="1.098633"/>
<image xlink:href="tile39_56.png" preserveAspectRatio="none" x="14042.724609" y="-3605.712891" width="1.098633" height="1.098633"/>
<image xlink:href="tile39_55.png" preserveAspectRatio="none" x="14042.724609" y="-3606.811523" width="1.098633" height="1.098633"/>
<image xlink:href="tile39_54.png" preserveAspectRatio="none" x="14042.724609" y="-3607.910156" width="1.098633" height="1.098633"/>
<image xlink:href="tile40_57.png" preserveAspectRatio="none" x="14043.823242" y="-3604.614258" width="1.098633" height="1.098633"/>
<image xlink:href="tile40_56.png" preserveAspectRatio="none" x="14043.823242" y="-3605.712891" width="1.098633" height="1.098633"/>
<image xlink:href="tile41_59.png" preserveAspectRatio="none" x="14044.921875" y="-3602.416992" width="1.098633" height="1.098633"/>
<image xlink:href="tile41_58.png" preserveAspectRatio="none" x="14044.921875" y="-3603.515625" width="1.098633" height="1.098633"/>
<image xlink:href="tile41_57.png" preserveAspectRatio="none" x="14044.921875" y="-3604.614258" width="1.098633" height="1.098633"/>
<image xlink:href="tile41_56.png" preserveAspectRatio="none" x="14044.921875" y="-3605.712891" width="1.098633" height="1.098633"/>
<image xlink:href="tile42_61.png" preserveAspectRatio="none" x="14046.020508" y="-3600.219727" width="1.098633" height="1.098633"/>
<image xlink:href="tile42_60.png" preserveAspectRatio="none" x="14046.020508" y="-3601.318359" width="1.098633" height="1.098633"/>
<image xlink:href="tile42_59.png" preserveAspectRatio="none" x="14046.020508" y="-3602.416992" width="1.098633" height="1.098633"/>
<image xlink:href="tile42_58.png" preserveAspectRatio="none" x="14046.020508" y="-3603.515625" width="1.098633" height="1.098633"/>
<image xlink:href="tile42_46.png" preserveAspectRatio="none" x="14046.020508" y="-3616.699219" width="1.098633" height="1.098633"/>
<image xlink:href="tile43_61.png" preserveAspectRatio="none" x="14047.119141" y="-3600.219727" width="1.098633" height="1.098633"/>
<image xlink:href="tile43_60.png" preserveAspectRatio="none" x="14047.119141" y="-3601.318359" width="1.098633" height="1.098633"/>
<image xlink:href="tile43_48.png" preserveAspectRatio="none" x="14047.119141" y="-3614.501953" width="1.098633" height="1.098633"/>
<image xlink:href="tile43_47.png" preserveAspectRatio="none" x="14047.119141" y="-3615.600586" width="1.098633" height="1.098633"/>
<image xlink:href="tile43_46.png" preserveAspectRatio="none" x="14047.119141" y="-3616.699219" width="1.098633" height="1.098633"/>
<image xlink:href="tile44_47.png" preserveAspectRatio="none" x="14048.217773" y="-3615.600586" width="1.098633" height="1.098633"/>
<image xlink:href="tile44_46.png" preserveAspectRatio="none" x="14048.217773" y="-3616.699219" width="1.098633" height="1.098633"/>
<image xlink:href="tile45_52.png" preserveAspectRatio="none" x="14049.316406" y="-3610.107422" width="1.098633" height="1.098633"/>
<image xlink:href="tile45_48.png" preserveAspectRatio="none" x="14049.316406" y="-3614.501953" width="1.098633" height="1.098633"/>
<image xlink:href="tile45_47.png" preserveAspectRatio="none" x="14049.316406" y="-3615.600586" width="1.098633" height="1.098633"/>
<image xlink:href="tile46_54.png" preserveAspectRatio="none" x="14050.415039" y="-3607.910156" width="1.098633" height="1.098633"/>
<image xlink:href="tile46_52.png" preserveAspectRatio="none" x="14050.415039" y="-3610.107422" width="1.098633" height="1.098633"/>
<image xlink:href="tile46_51.png" preserveAspectRatio="none" x="14050.415039" y="-3611.206055" width="1.098633" height="1.098633"/>
<image xlink:href="tile46_50.png" preserveAspectRatio="none" x="14050.415039" y="-3612.304688" width="1.098633" height="1.098633"/>
<image xlink:href="tile46_49.png" preserveAspectRatio="none" x="14050.415039" y="-3613.40332" width="1.098633" height="1.098633"/>
<image xlink:href="tile46_48.png" preserveAspectRatio="none" x="14050.415039" y="-3614.501953" width="1.098633" height="1.098633"/>
<image xlink:href="tile46_47.png" preserveAspectRatio="none" x="14050.415039" y="-3615.600586" width="1.098633" height="1.098633"/>
<image xlink:href="tile46_46.png" preserveAspectRatio="none" x="14050.415039" y="-3616.699219" width="1.098633" height="1.098633"/>
<image xlink:href="tile47_59.png" preserveAspectRatio="none" x="14051.513672" y="-3602.416992" width="1.098633" height="1.098633"/>
<image xlink:href="tile47_57.png" preserveAspectRatio="none" x="14051.513672" y="-3604.614258" width="1.098633" height="1.098633"/>
<image xlink:href="tile47_55.png" preserveAspectRatio="none" x="14051.513672" y="-3606.811523" width="1.098633" height="1.098633"/>
<image xlink:href="tile47_54.png" preserveAspectRatio="none" x="14051.513672" y="-3607.910156" width="1.098633" height="1.098633"/>
<image xlink:href="tile47_52.png" preserveAspectRatio="none" x="14051.513672" y="-3610.107422" width="1.098633" height="1.098633"/>
<image xlink:href="tile47_51.png" preserveAspectRatio="none" x="14051.513672" y="-3611.206055" width="1.098633" height="1.098633"/>
<image xlink:href="tile47_50.png" preserveAspectRatio="none" x="14051.513672" y="-3612.304688" width="1.098633" height="1.098633"/>
<image xlink:href="tile47_49.png" preserveAspectRatio="none" x="14051.513672" y="-3613.40332" width="1.098633" height="1.098633"/>
<image xlink:href="tile47_48.png" preserveAspectRatio="none" x="14051.513672" y="-3614.501953" width="1.098633" height="1.098633"/>
<image xlink:href="tile47_47.png" preserveAspectRatio="none" x="14051.513672" y="-3615.600586" width="1.098633" height="1.098633"/>
</g>
</svg>
