<?xml version="1.0" encoding="UTF-8"?>
<svg  xmlns="http://www.w3.org/2000/svg" xmlns:xlink="http://www.w3.org/1999/xlink" xmlns:go="http://purl.org/svgmap/profile" viewBox="13603.5937 -3524.0374918999996 96.40630000000101 57.370825099999934" go:dataArea="13603.5937 -3524.0374918999996 96.40630000000101 57.370825099999934" >
<metadata>
 <rdf:RDF xmlns:rdf="http://www.w3.org/1999/02/22-rdf-syntax-ns#" xmlns:crs="http://opengis.org/xmldtds/transformations.dtd" xmlns:svg="http://www.w3.org/svg" >
  <rdf:Description>
   <crs:CoordinateReferenceSystem rdf:resource="http://purl.org/crs/84" svg:transform="matrix(100.0,0.0,0.0,-100.0,0.0,0.0)" />
  </rdf:Description>
 </rdf:RDF>
</metadata>
<globalCoordinateSystem srsName="http://purl.org/crs/84" transform="matrix(100.0,0.0,0.0,-100.0,0.0,0.0)" />
<g >
<image xlink:href="tile32_52.png" preserveAspectRatio="none" x="13638.427734" y="-3467.285156" width="1.098633" height="1.098633"/>
<image xlink:href="tile32_51.png" preserveAspectRatio="none" x="13638.427734" y="-3468.383789" width="1.098633" height="1.098633"/>
<image xlink:href="tile32_50.png" preserveAspectRatio="none" x="13638.427734" y="-3469.482422" width="1.098633" height="1.098633"/>
<image xlink:href="tile32_49.png" preserveAspectRatio="none" x="13638.427734" y="-3470.581055" width="1.098633" height="1.098633"/>
<image xlink:href="tile32_48.png" preserveAspectRatio="none" x="13638.427734" y="-3471.679688" width="1.098633" height="1.098633"/>
<image xlink:href="tile32_47.png" preserveAspectRatio="none" x="13638.427734" y="-3472.77832" width="1.098633" height="1.098633"/>
<image xlink:href="tile33_51.png" preserveAspectRatio="none" x="13639.526367" y="-3468.383789" width="1.098633" height="1.098633"/>
<image xlink:href="tile33_50.png" preserveAspectRatio="none" x="13639.526367" y="-3469.482422" width="1.098633" height="1.098633"/>
<image xlink:href="tile33_49.png" preserveAspectRatio="none" x="13639.526367" y="-3470.581055" width="1.098633" height="1.098633"/>
<image xlink:href="tile33_48.png" preserveAspectRatio="none" x="13639.526367" y="-3471.679688" width="1.098633" height="1.098633"/>
<image xlink:href="tile33_46.png" preserveAspectRatio="none" x="13639.526367" y="-3473.876953" width="1.098633" height="1.098633"/>
<image xlink:href="tile34_52.png" preserveAspectRatio="none" x="13640.625" y="-3467.285156" width="1.098633" height="1.098633"/>
<image xlink:href="tile34_51.png" preserveAspectRatio="none" x="13640.625" y="-3468.383789" width="1.098633" height="1.098633"/>
<image xlink:href="tile34_50.png" preserveAspectRatio="none" x="13640.625" y="-3469.482422" width="1.098633" height="1.098633"/>
<image xlink:href="tile34_49.png" preserveAspectRatio="none" x="13640.625" y="-3470.581055" width="1.098633" height="1.098633"/>
<image xlink:href="tile34_47.png" preserveAspectRatio="none" x="13640.625" y="-3472.77832" width="1.098633" height="1.098633"/>
<image xlink:href="tile34_46.png" preserveAspectRatio="none" x="13640.625" y="-3473.876953" width="1.098633" height="1.098633"/>
<image xlink:href="tile34_45.png" preserveAspectRatio="none" x="13640.625" y="-3474.975586" width="1.098633" height="1.098633"/>
<image xlink:href="tile34_44.png" preserveAspectRatio="none" x="13640.625" y="-3476.074219" width="1.098633" height="1.098633"/>
<image xlink:href="tile34_43.png" preserveAspectRatio="none" x="13640.625" y="-3477.172852" width="1.098633" height="1.098633"/>
<image xlink:href="tile34_42.png" preserveAspectRatio="none" x="13640.625" y="-3478.271484" width="1.098633" height="1.098633"/>
<image xlink:href="tile35_52.png" preserveAspectRatio="none" x="13641.723633" y="-3467.285156" width="1.098633" height="1.098633"/>
<image xlink:href="tile35_51.png" preserveAspectRatio="none" x="13641.723633" y="-3468.383789" width="1.098633" height="1.098633"/>
<image xlink:href="tile35_50.png" preserveAspectRatio="none" x="13641.723633" y="-3469.482422" width="1.098633" height="1.098633"/>
<image xlink:href="tile35_45.png" preserveAspectRatio="none" x="13641.723633" y="-3474.975586" width="1.098633" height="1.098633"/>
<image xlink:href="tile35_44.png" preserveAspectRatio="none" x="13641.723633" y="-3476.074219" width="1.098633" height="1.098633"/>
<image xlink:href="tile35_43.png" preserveAspectRatio="none" x="13641.723633" y="-3477.172852" width="1.098633" height="1.098633"/>
<image xlink:href="tile35_42.png" preserveAspectRatio="none" x="13641.723633" y="-3478.271484" width="1.098633" height="1.098633"/>
<image xlink:href="tile36_51.png" preserveAspectRatio="none" x="13642.822266" y="-3468.383789" width="1.098633" height="1.098633"/>
<image xlink:href="tile36_50.png" preserveAspectRatio="none" x="13642.822266" y="-3469.482422" width="1.098633" height="1.098633"/>
<image xlink:href="tile36_45.png" preserveAspectRatio="none" x="13642.822266" y="-3474.975586" width="1.098633" height="1.098633"/>
<image xlink:href="tile36_44.png" preserveAspectRatio="none" x="13642.822266" y="-3476.074219" width="1.098633" height="1.098633"/>
<image xlink:href="tile36_43.png" preserveAspectRatio="none" x="13642.822266" y="-3477.172852" width="1.098633" height="1.098633"/>
<image xlink:href="tile36_37.png" preserveAspectRatio="none" x="13642.822266" y="-3483.764648" width="1.098633" height="1.098633"/>
<image xlink:href="tile37_52.png" preserveAspectRatio="none" x="13643.920898" y="-3467.285156" width="1.098633" height="1.098633"/>
<image xlink:href="tile37_51.png" preserveAspectRatio="none" x="13643.920898" y="-3468.383789" width="1.098633" height="1.098633"/>
<image xlink:href="tile37_48.png" preserveAspectRatio="none" x="13643.920898" y="-3471.679688" width="1.098633" height="1.098633"/>
<image xlink:href="tile37_47.png" preserveAspectRatio="none" x="13643.920898" y="-3472.77832" width="1.098633" height="1.098633"/>
<image xlink:href="tile37_45.png" preserveAspectRatio="none" x="13643.920898" y="-3474.975586" width="1.098633" height="1.098633"/>
<image xlink:href="tile37_44.png" preserveAspectRatio="none" x="13643.920898" y="-3476.074219" width="1.098633" height="1.098633"/>
<image xlink:href="tile37_43.png" preserveAspectRatio="none" x="13643.920898" y="-3477.172852" width="1.098633" height="1.098633"/>
<image xlink:href="tile37_37.png" preserveAspectRatio="none" x="13643.920898" y="-3483.764648" width="1.098633" height="1.098633"/>
<image xlink:href="tile38_52.png" preserveAspectRatio="none" x="13645.019531" y="-3467.285156" width="1.098633" height="1.098633"/>
<image xlink:href="tile38_51.png" preserveAspectRatio="none" x="13645.019531" y="-3468.383789" width="1.098633" height="1.098633"/>
<image xlink:href="tile38_48.png" preserveAspectRatio="none" x="13645.019531" y="-3471.679688" width="1.098633" height="1.098633"/>
<image xlink:href="tile38_47.png" preserveAspectRatio="none" x="13645.019531" y="-3472.77832" width="1.098633" height="1.098633"/>
<image xlink:href="tile38_46.png" preserveAspectRatio="none" x="13645.019531" y="-3473.876953" width="1.098633" height="1.098633"/>
<image xlink:href="tile38_45.png" preserveAspectRatio="none" x="13645.019531" y="-3474.975586" width="1.098633" height="1.098633"/>
<image xlink:href="tile38_44.png" preserveAspectRatio="none" x="13645.019531" y="-3476.074219" width="1.098633" height="1.098633"/>
<image xlink:href="tile39_52.png" preserveAspectRatio="none" x="13646.118164" y="-3467.285156" width="1.098633" height="1.098633"/>
<image xlink:href="tile39_51.png" preserveAspectRatio="none" x="13646.118164" y="-3468.383789" width="1.098633" height="1.098633"/>
<image xlink:href="tile39_48.png" preserveAspectRatio="none" x="13646.118164" y="-3471.679688" width="1.098633" height="1.098633"/>
<image xlink:href="tile39_47.png" preserveAspectRatio="none" x="13646.118164" y="-3472.77832" width="1.098633" height="1.098633"/>
<image xlink:href="tile39_46.png" preserveAspectRatio="none" x="13646.118164" y="-3473.876953" width="1.098633" height="1.098633"/>
<image xlink:href="tile39_45.png" preserveAspectRatio="none" x="13646.118164" y="-3474.975586" width="1.098633" height="1.098633"/>
<image xlink:href="tile39_42.png" preserveAspectRatio="none" x="13646.118164" y="-3478.271484" width="1.098633" height="1.098633"/>
<image xlink:href="tile40_49.png" preserveAspectRatio="none" x="13647.216797" y="-3470.581055" width="1.098633" height="1.098633"/>
<image xlink:href="tile40_48.png" preserveAspectRatio="none" x="13647.216797" y="-3471.679688" width="1.098633" height="1.098633"/>
<image xlink:href="tile40_47.png" preserveAspectRatio="none" x="13647.216797" y="-3472.77832" width="1.098633" height="1.098633"/>
<image xlink:href="tile40_46.png" preserveAspectRatio="none" x="13647.216797" y="-3473.876953" width="1.098633" height="1.098633"/>
<image xlink:href="tile40_45.png" preserveAspectRatio="none" x="13647.216797" y="-3474.975586" width="1.098633" height="1.098633"/>
<image xlink:href="tile40_42.png" preserveAspectRatio="none" x="13647.216797" y="-3478.271484" width="1.098633" height="1.098633"/>
<image xlink:href="tile40_39.png" preserveAspectRatio="none" x="13647.216797" y="-3481.567383" width="1.098633" height="1.098633"/>
<image xlink:href="tile41_49.png" preserveAspectRatio="none" x="13648.31543" y="-3470.581055" width="1.098633" height="1.098633"/>
<image xlink:href="tile41_48.png" preserveAspectRatio="none" x="13648.31543" y="-3471.679688" width="1.098633" height="1.098633"/>
<image xlink:href="tile41_47.png" preserveAspectRatio="none" x="13648.31543" y="-3472.77832" width="1.098633" height="1.098633"/>
<image xlink:href="tile41_46.png" preserveAspectRatio="none" x="13648.31543" y="-3473.876953" width="1.098633" height="1.098633"/>
<image xlink:href="tile41_45.png" preserveAspectRatio="none" x="13648.31543" y="-3474.975586" width="1.098633" height="1.098633"/>
<image xlink:href="tile41_43.png" preserveAspectRatio="none" x="13648.31543" y="-3477.172852" width="1.098633" height="1.098633"/>
<image xlink:href="tile41_42.png" preserveAspectRatio="none" x="13648.31543" y="-3478.271484" width="1.098633" height="1.098633"/>
<image xlink:href="tile41_41.png" preserveAspectRatio="none" x="13648.31543" y="-3479.370117" width="1.098633" height="1.098633"/>
<image xlink:href="tile41_40.png" preserveAspectRatio="none" x="13648.31543" y="-3480.46875" width="1.098633" height="1.098633"/>
<image xlink:href="tile41_39.png" preserveAspectRatio="none" x="13648.31543" y="-3481.567383" width="1.098633" height="1.098633"/>
<image xlink:href="tile42_48.png" preserveAspectRatio="none" x="13649.414062" y="-3471.679688" width="1.098633" height="1.098633"/>
<image xlink:href="tile42_47.png" preserveAspectRatio="none" x="13649.414062" y="-3472.77832" width="1.098633" height="1.098633"/>
<image xlink:href="tile42_46.png" preserveAspectRatio="none" x="13649.414062" y="-3473.876953" width="1.098633" height="1.098633"/>
<image xlink:href="tile42_43.png" preserveAspectRatio="none" x="13649.414062" y="-3477.172852" width="1.098633" height="1.098633"/>
<image xlink:href="tile42_42.png" preserveAspectRatio="none" x="13649.414062" y="-3478.271484" width="1.098633" height="1.098633"/>
<image xlink:href="tile42_39.png" preserveAspectRatio="none" x="13649.414062" y="-3481.567383" width="1.098633" height="1.098633"/>
<image xlink:href="tile43_48.png" preserveAspectRatio="none" x="13650.512695" y="-3471.679688" width="1.098633" height="1.098633"/>
<image xlink:href="tile43_47.png" preserveAspectRatio="none" x="13650.512695" y="-3472.77832" width="1.098633" height="1.098633"/>
<image xlink:href="tile43_40.png" preserveAspectRatio="none" x="13650.512695" y="-3480.46875" width="1.098633" height="1.098633"/>
<image xlink:href="tile43_39.png" preserveAspectRatio="none" x="13650.512695" y="-3481.567383" width="1.098633" height="1.098633"/>
<image xlink:href="tile44_48.png" preserveAspectRatio="none" x="13651.611328" y="-3471.679688" width="1.098633" height="1.098633"/>
<image xlink:href="tile44_47.png" preserveAspectRatio="none" x="13651.611328" y="-3472.77832" width="1.098633" height="1.098633"/>
<image xlink:href="tile44_46.png" preserveAspectRatio="none" x="13651.611328" y="-3473.876953" width="1.098633" height="1.098633"/>
<image xlink:href="tile44_40.png" preserveAspectRatio="none" x="13651.611328" y="-3480.46875" width="1.098633" height="1.098633"/>
<image xlink:href="tile45_47.png" preserveAspectRatio="none" x="13652.709961" y="-3472.77832" width="1.098633" height="1.098633"/>
<image xlink:href="tile45_46.png" preserveAspectRatio="none" x="13652.709961" y="-3473.876953" width="1.098633" height="1.098633"/>
<image xlink:href="tile45_40.png" preserveAspectRatio="none" x="13652.709961" y="-3480.46875" width="1.098633" height="1.098633"/>
<image xlink:href="tile46_42.png" preserveAspectRatio="none" x="13653.808594" y="-3478.271484" width="1.098633" height="1.098633"/>
<image xlink:href="tile46_41.png" preserveAspectRatio="none" x="13653.808594" y="-3479.370117" width="1.098633" height="1.098633"/>
<image xlink:href="tile46_40.png" preserveAspectRatio="none" x="13653.808594" y="-3480.46875" width="1.098633" height="1.098633"/>
<image xlink:href="tile47_41.png" preserveAspectRatio="none" x="13654.907227" y="-3479.370117" width="1.098633" height="1.098633"/>
<image xlink:href="tile47_40.png" preserveAspectRatio="none" x="13654.907227" y="-3480.46875" width="1.098633" height="1.098633"/>
<image xlink:href="tile47_39.png" preserveAspectRatio="none" x="13654.907227" y="-3481.567383" width="1.098633" height="1.098633"/>
<image xlink:href="tile47_38.png" preserveAspectRatio="none" x="13654.907227" y="-3482.666016" width="1.098633" height="1.098633"/>
</g>
</svg>
