<?xml version="1.0" encoding="UTF-8"?>
<svg  xmlns="http://www.w3.org/2000/svg" xmlns:xlink="http://www.w3.org/1999/xlink" xmlns:go="http://purl.org/svgmap/profile" viewBox="14000.0 -3933.3333334000004 100.0 66.66666640000045" go:dataArea="14000.0 -3933.3333334000004 100.0 66.66666640000045" >
<metadata>
 <rdf:RDF xmlns:rdf="http://www.w3.org/1999/02/22-rdf-syntax-ns#" xmlns:crs="http://opengis.org/xmldtds/transformations.dtd" xmlns:svg="http://www.w3.org/svg" >
  <rdf:Description>
   <crs:CoordinateReferenceSystem rdf:resource="http://purl.org/crs/84" svg:transform="matrix(100.0,0.0,0.0,-100.0,0.0,0.0)" />
  </rdf:Description>
 </rdf:RDF>
</metadata>
<globalCoordinateSystem srsName="http://purl.org/crs/84" transform="matrix(100.0,0.0,0.0,-100.0,0.0,0.0)" />
<g >
<animation xlink:href="sub_0_0_container.svg" x="13999.87793" y="-3883.666992" width="17.578125" height="17.578125"/>
<animation xlink:href="sub_0_1_container.svg" x="13999.87793" y="-3901.245117" width="17.578125" height="17.578125"/>
<animation xlink:href="sub_3_0_container.svg" x="14052.612305" y="-3883.666992" width="17.578125" height="17.578125"/>
<animation xlink:href="sub_3_3_container.svg" x="14052.612305" y="-3936.401367" width="17.578125" height="17.578125"/>
<animation xlink:href="sub_0_3_container.svg" x="13999.87793" y="-3936.401367" width="17.578125" height="17.578125"/>
<animation xlink:href="sub_2_3_container.svg" x="14035.03418" y="-3936.401367" width="17.578125" height="17.578125"/>
<animation xlink:href="sub_2_2_container.svg" x="14035.03418" y="-3918.823242" width="17.578125" height="17.578125"/>
<animation xlink:href="sub_2_1_container.svg" x="14035.03418" y="-3901.245117" width="17.578125" height="17.578125"/>
<animation xlink:href="sub_2_0_container.svg" x="14035.03418" y="-3883.666992" width="17.578125" height="17.578125"/>
<animation xlink:href="sub_5_0_container.svg" x="14087.768555" y="-3883.666992" width="17.578125" height="17.578125"/>
<animation xlink:href="sub_5_2_container.svg" x="14087.768555" y="-3918.823242" width="17.578125" height="17.578125"/>
<animation xlink:href="sub_1_1_container.svg" x="14017.456055" y="-3901.245117" width="17.578125" height="17.578125"/>
<animation xlink:href="sub_4_3_container.svg" x="14070.19043" y="-3936.401367" width="17.578125" height="17.578125"/>
<animation xlink:href="sub_1_0_container.svg" x="14017.456055" y="-3883.666992" width="17.578125" height="17.578125"/>
<animation xlink:href="sub_4_0_container.svg" x="14070.19043" y="-3883.666992" width="17.578125" height="17.578125"/>
</g>
</svg>
