<?xml version="1.0" encoding="UTF-8"?>
<svg  xmlns="http://www.w3.org/2000/svg" xmlns:xlink="http://www.w3.org/1999/xlink" xmlns:go="http://purl.org/svgmap/profile" viewBox="14000.0 -3933.3333334000004 100.0 66.66666640000045" go:dataArea="14000.0 -3933.3333334000004 100.0 66.66666640000045" >
<metadata>
 <rdf:RDF xmlns:rdf="http://www.w3.org/1999/02/22-rdf-syntax-ns#" xmlns:crs="http://opengis.org/xmldtds/transformations.dtd" xmlns:svg="http://www.w3.org/svg" >
  <rdf:Description>
   <crs:CoordinateReferenceSystem rdf:resource="http://purl.org/crs/84" svg:transform="matrix(100.0,0.0,0.0,-100.0,0.0,0.0)" />
  </rdf:Description>
 </rdf:RDF>
</metadata>
<globalCoordinateSystem srsName="http://purl.org/crs/84" transform="matrix(100.0,0.0,0.0,-100.0,0.0,0.0)" />
<g >
<image xlink:href="tile0_61.png" preserveAspectRatio="none" x="13999.87793" y="-3867.1875" width="1.098633" height="1.098633"/>
<image xlink:href="tile0_60.png" preserveAspectRatio="none" x="13999.87793" y="-3868.286133" width="1.098633" height="1.098633"/>
<image xlink:href="tile0_59.png" preserveAspectRatio="none" x="13999.87793" y="-3869.384766" width="1.098633" height="1.098633"/>
<image xlink:href="tile0_58.png" preserveAspectRatio="none" x="13999.87793" y="-3870.483398" width="1.098633" height="1.098633"/>
<image xlink:href="tile0_57.png" preserveAspectRatio="none" x="13999.87793" y="-3871.582031" width="1.098633" height="1.098633"/>
<image xlink:href="tile0_56.png" preserveAspectRatio="none" x="13999.87793" y="-3872.680664" width="1.098633" height="1.098633"/>
<image xlink:href="tile0_55.png" preserveAspectRatio="none" x="13999.87793" y="-3873.779297" width="1.098633" height="1.098633"/>
<image xlink:href="tile0_54.png" preserveAspectRatio="none" x="13999.87793" y="-3874.87793" width="1.098633" height="1.098633"/>
<image xlink:href="tile0_53.png" preserveAspectRatio="none" x="13999.87793" y="-3875.976562" width="1.098633" height="1.098633"/>
<image xlink:href="tile0_52.png" preserveAspectRatio="none" x="13999.87793" y="-3877.075195" width="1.098633" height="1.098633"/>
<image xlink:href="tile0_50.png" preserveAspectRatio="none" x="13999.87793" y="-3879.272461" width="1.098633" height="1.098633"/>
<image xlink:href="tile0_49.png" preserveAspectRatio="none" x="13999.87793" y="-3880.371094" width="1.098633" height="1.098633"/>
<image xlink:href="tile0_48.png" preserveAspectRatio="none" x="13999.87793" y="-3881.469727" width="1.098633" height="1.098633"/>
<image xlink:href="tile1_57.png" preserveAspectRatio="none" x="14000.976562" y="-3871.582031" width="1.098633" height="1.098633"/>
<image xlink:href="tile1_56.png" preserveAspectRatio="none" x="14000.976562" y="-3872.680664" width="1.098633" height="1.098633"/>
<image xlink:href="tile1_55.png" preserveAspectRatio="none" x="14000.976562" y="-3873.779297" width="1.098633" height="1.098633"/>
<image xlink:href="tile1_54.png" preserveAspectRatio="none" x="14000.976562" y="-3874.87793" width="1.098633" height="1.098633"/>
<image xlink:href="tile1_53.png" preserveAspectRatio="none" x="14000.976562" y="-3875.976562" width="1.098633" height="1.098633"/>
<image xlink:href="tile1_52.png" preserveAspectRatio="none" x="14000.976562" y="-3877.075195" width="1.098633" height="1.098633"/>
<image xlink:href="tile1_51.png" preserveAspectRatio="none" x="14000.976562" y="-3878.173828" width="1.098633" height="1.098633"/>
<image xlink:href="tile1_50.png" preserveAspectRatio="none" x="14000.976562" y="-3879.272461" width="1.098633" height="1.098633"/>
<image xlink:href="tile1_49.png" preserveAspectRatio="none" x="14000.976562" y="-3880.371094" width="1.098633" height="1.098633"/>
<image xlink:href="tile2_51.png" preserveAspectRatio="none" x="14002.075195" y="-3878.173828" width="1.098633" height="1.098633"/>
<image xlink:href="tile2_50.png" preserveAspectRatio="none" x="14002.075195" y="-3879.272461" width="1.098633" height="1.098633"/>
<image xlink:href="tile3_52.png" preserveAspectRatio="none" x="14003.173828" y="-3877.075195" width="1.098633" height="1.098633"/>
<image xlink:href="tile3_51.png" preserveAspectRatio="none" x="14003.173828" y="-3878.173828" width="1.098633" height="1.098633"/>
<image xlink:href="tile4_52.png" preserveAspectRatio="none" x="14004.272461" y="-3877.075195" width="1.098633" height="1.098633"/>
<image xlink:href="tile4_51.png" preserveAspectRatio="none" x="14004.272461" y="-3878.173828" width="1.098633" height="1.098633"/>
<image xlink:href="tile5_53.png" preserveAspectRatio="none" x="14005.371094" y="-3875.976562" width="1.098633" height="1.098633"/>
<image xlink:href="tile5_52.png" preserveAspectRatio="none" x="14005.371094" y="-3877.075195" width="1.098633" height="1.098633"/>
<image xlink:href="tile6_53.png" preserveAspectRatio="none" x="14006.469727" y="-3875.976562" width="1.098633" height="1.098633"/>
<image xlink:href="tile6_52.png" preserveAspectRatio="none" x="14006.469727" y="-3877.075195" width="1.098633" height="1.098633"/>
<image xlink:href="tile7_53.png" preserveAspectRatio="none" x="14007.568359" y="-3875.976562" width="1.098633" height="1.098633"/>
<image xlink:href="tile8_53.png" preserveAspectRatio="none" x="14008.666992" y="-3875.976562" width="1.098633" height="1.098633"/>
<image xlink:href="tile9_54.png" preserveAspectRatio="none" x="14009.765625" y="-3874.87793" width="1.098633" height="1.098633"/>
<image xlink:href="tile9_53.png" preserveAspectRatio="none" x="14009.765625" y="-3875.976562" width="1.098633" height="1.098633"/>
<image xlink:href="tile10_54.png" preserveAspectRatio="none" x="14010.864258" y="-3874.87793" width="1.098633" height="1.098633"/>
<image xlink:href="tile11_57.png" preserveAspectRatio="none" x="14011.962891" y="-3871.582031" width="1.098633" height="1.098633"/>
<image xlink:href="tile11_56.png" preserveAspectRatio="none" x="14011.962891" y="-3872.680664" width="1.098633" height="1.098633"/>
<image xlink:href="tile11_55.png" preserveAspectRatio="none" x="14011.962891" y="-3873.779297" width="1.098633" height="1.098633"/>
<image xlink:href="tile11_54.png" preserveAspectRatio="none" x="14011.962891" y="-3874.87793" width="1.098633" height="1.098633"/>
<image xlink:href="tile12_58.png" preserveAspectRatio="none" x="14013.061523" y="-3870.483398" width="1.098633" height="1.098633"/>
<image xlink:href="tile12_57.png" preserveAspectRatio="none" x="14013.061523" y="-3871.582031" width="1.098633" height="1.098633"/>
<image xlink:href="tile12_55.png" preserveAspectRatio="none" x="14013.061523" y="-3873.779297" width="1.098633" height="1.098633"/>
<image xlink:href="tile12_54.png" preserveAspectRatio="none" x="14013.061523" y="-3874.87793" width="1.098633" height="1.098633"/>
<image xlink:href="tile13_61.png" preserveAspectRatio="none" x="14014.160156" y="-3867.1875" width="1.098633" height="1.098633"/>
<image xlink:href="tile13_60.png" preserveAspectRatio="none" x="14014.160156" y="-3868.286133" width="1.098633" height="1.098633"/>
<image xlink:href="tile13_59.png" preserveAspectRatio="none" x="14014.160156" y="-3869.384766" width="1.098633" height="1.098633"/>
<image xlink:href="tile13_58.png" preserveAspectRatio="none" x="14014.160156" y="-3870.483398" width="1.098633" height="1.098633"/>
<image xlink:href="tile13_55.png" preserveAspectRatio="none" x="14014.160156" y="-3873.779297" width="1.098633" height="1.098633"/>
<image xlink:href="tile13_54.png" preserveAspectRatio="none" x="14014.160156" y="-3874.87793" width="1.098633" height="1.098633"/>
<image xlink:href="tile14_59.png" preserveAspectRatio="none" x="14015.258789" y="-3869.384766" width="1.098633" height="1.098633"/>
<image xlink:href="tile14_55.png" preserveAspectRatio="none" x="14015.258789" y="-3873.779297" width="1.098633" height="1.098633"/>
<image xlink:href="tile14_54.png" preserveAspectRatio="none" x="14015.258789" y="-3874.87793" width="1.098633" height="1.098633"/>
<image xlink:href="tile15_56.png" preserveAspectRatio="none" x="14016.357422" y="-3872.680664" width="1.098633" height="1.098633"/>
<image xlink:href="tile15_55.png" preserveAspectRatio="none" x="14016.357422" y="-3873.779297" width="1.098633" height="1.098633"/>
<image xlink:href="tile15_54.png" preserveAspectRatio="none" x="14016.357422" y="-3874.87793" width="1.098633" height="1.098633"/>
</g>
</svg>
