<?xml version="1.0" encoding="UTF-8"?>
<svg  xmlns="http://www.w3.org/2000/svg" xmlns:xlink="http://www.w3.org/1999/xlink" xmlns:go="http://purl.org/svgmap/profile" viewBox="14000.0 -3933.3333334000004 100.0 66.66666640000045" go:dataArea="14000.0 -3933.3333334000004 100.0 66.66666640000045" >
<metadata>
 <rdf:RDF xmlns:rdf="http://www.w3.org/1999/02/22-rdf-syntax-ns#" xmlns:crs="http://opengis.org/xmldtds/transformations.dtd" xmlns:svg="http://www.w3.org/svg" >
  <rdf:Description>
   <crs:CoordinateReferenceSystem rdf:resource="http://purl.org/crs/84" svg:transform="matrix(100.0,0.0,0.0,-100.0,0.0,0.0)" />
  </rdf:Description>
 </rdf:RDF>
</metadata>
<globalCoordinateSystem srsName="http://purl.org/crs/84" transform="matrix(100.0,0.0,0.0,-100.0,0.0,0.0)" />
<g >
<image xlink:href="tile48_13.png" preserveAspectRatio="none" x="14052.612305" y="-3919.921875" width="1.098633" height="1.098633"/>
<image xlink:href="tile48_12.png" preserveAspectRatio="none" x="14052.612305" y="-3921.020508" width="1.098633" height="1.098633"/>
<image xlink:href="tile48_11.png" preserveAspectRatio="none" x="14052.612305" y="-3922.119141" width="1.098633" height="1.098633"/>
<image xlink:href="tile48_2.png" preserveAspectRatio="none" x="14052.612305" y="-3932.006836" width="1.098633" height="1.098633"/>
<image xlink:href="tile48_1.png" preserveAspectRatio="none" x="14052.612305" y="-3933.105469" width="1.098633" height="1.098633"/>
<image xlink:href="tile48_0.png" preserveAspectRatio="none" x="14052.612305" y="-3934.204102" width="1.098633" height="1.098633"/>
<image xlink:href="tile49_13.png" preserveAspectRatio="none" x="14053.710938" y="-3919.921875" width="1.098633" height="1.098633"/>
<image xlink:href="tile49_12.png" preserveAspectRatio="none" x="14053.710938" y="-3921.020508" width="1.098633" height="1.098633"/>
<image xlink:href="tile49_3.png" preserveAspectRatio="none" x="14053.710938" y="-3930.908203" width="1.098633" height="1.098633"/>
<image xlink:href="tile49_2.png" preserveAspectRatio="none" x="14053.710938" y="-3932.006836" width="1.098633" height="1.098633"/>
<image xlink:href="tile49_1.png" preserveAspectRatio="none" x="14053.710938" y="-3933.105469" width="1.098633" height="1.098633"/>
<image xlink:href="tile49_0.png" preserveAspectRatio="none" x="14053.710938" y="-3934.204102" width="1.098633" height="1.098633"/>
<image xlink:href="tile50_13.png" preserveAspectRatio="none" x="14054.80957" y="-3919.921875" width="1.098633" height="1.098633"/>
<image xlink:href="tile50_12.png" preserveAspectRatio="none" x="14054.80957" y="-3921.020508" width="1.098633" height="1.098633"/>
<image xlink:href="tile50_3.png" preserveAspectRatio="none" x="14054.80957" y="-3930.908203" width="1.098633" height="1.098633"/>
<image xlink:href="tile50_2.png" preserveAspectRatio="none" x="14054.80957" y="-3932.006836" width="1.098633" height="1.098633"/>
<image xlink:href="tile50_1.png" preserveAspectRatio="none" x="14054.80957" y="-3933.105469" width="1.098633" height="1.098633"/>
<image xlink:href="tile50_0.png" preserveAspectRatio="none" x="14054.80957" y="-3934.204102" width="1.098633" height="1.098633"/>
<image xlink:href="tile51_13.png" preserveAspectRatio="none" x="14055.908203" y="-3919.921875" width="1.098633" height="1.098633"/>
<image xlink:href="tile51_12.png" preserveAspectRatio="none" x="14055.908203" y="-3921.020508" width="1.098633" height="1.098633"/>
<image xlink:href="tile51_3.png" preserveAspectRatio="none" x="14055.908203" y="-3930.908203" width="1.098633" height="1.098633"/>
<image xlink:href="tile51_2.png" preserveAspectRatio="none" x="14055.908203" y="-3932.006836" width="1.098633" height="1.098633"/>
<image xlink:href="tile51_1.png" preserveAspectRatio="none" x="14055.908203" y="-3933.105469" width="1.098633" height="1.098633"/>
<image xlink:href="tile51_0.png" preserveAspectRatio="none" x="14055.908203" y="-3934.204102" width="1.098633" height="1.098633"/>
<image xlink:href="tile52_13.png" preserveAspectRatio="none" x="14057.006836" y="-3919.921875" width="1.098633" height="1.098633"/>
<image xlink:href="tile52_12.png" preserveAspectRatio="none" x="14057.006836" y="-3921.020508" width="1.098633" height="1.098633"/>
<image xlink:href="tile52_3.png" preserveAspectRatio="none" x="14057.006836" y="-3930.908203" width="1.098633" height="1.098633"/>
<image xlink:href="tile52_2.png" preserveAspectRatio="none" x="14057.006836" y="-3932.006836" width="1.098633" height="1.098633"/>
<image xlink:href="tile53_4.png" preserveAspectRatio="none" x="14058.105469" y="-3929.80957" width="1.098633" height="1.098633"/>
<image xlink:href="tile53_3.png" preserveAspectRatio="none" x="14058.105469" y="-3930.908203" width="1.098633" height="1.098633"/>
<image xlink:href="tile53_2.png" preserveAspectRatio="none" x="14058.105469" y="-3932.006836" width="1.098633" height="1.098633"/>
</g>
</svg>
