<?xml version="1.0" encoding="UTF-8"?>
<svg  xmlns="http://www.w3.org/2000/svg" xmlns:xlink="http://www.w3.org/1999/xlink" xmlns:go="http://purl.org/svgmap/profile" viewBox="14000.0 -3933.3333334000004 100.0 66.66666640000045" go:dataArea="14000.0 -3933.3333334000004 100.0 66.66666640000045" >
<metadata>
 <rdf:RDF xmlns:rdf="http://www.w3.org/1999/02/22-rdf-syntax-ns#" xmlns:crs="http://opengis.org/xmldtds/transformations.dtd" xmlns:svg="http://www.w3.org/svg" >
  <rdf:Description>
   <crs:CoordinateReferenceSystem rdf:resource="http://purl.org/crs/84" svg:transform="matrix(100.0,0.0,0.0,-100.0,0.0,0.0)" />
  </rdf:Description>
 </rdf:RDF>
</metadata>
<globalCoordinateSystem srsName="http://purl.org/crs/84" transform="matrix(100.0,0.0,0.0,-100.0,0.0,0.0)" />
<g >
<image xlink:href="tile16_56.png" preserveAspectRatio="none" x="14017.456055" y="-3872.680664" width="1.098633" height="1.098633"/>
<image xlink:href="tile16_55.png" preserveAspectRatio="none" x="14017.456055" y="-3873.779297" width="1.098633" height="1.098633"/>
<image xlink:href="tile16_54.png" preserveAspectRatio="none" x="14017.456055" y="-3874.87793" width="1.098633" height="1.098633"/>
<image xlink:href="tile16_53.png" preserveAspectRatio="none" x="14017.456055" y="-3875.976562" width="1.098633" height="1.098633"/>
<image xlink:href="tile17_56.png" preserveAspectRatio="none" x="14018.554688" y="-3872.680664" width="1.098633" height="1.098633"/>
<image xlink:href="tile17_55.png" preserveAspectRatio="none" x="14018.554688" y="-3873.779297" width="1.098633" height="1.098633"/>
<image xlink:href="tile17_54.png" preserveAspectRatio="none" x="14018.554688" y="-3874.87793" width="1.098633" height="1.098633"/>
<image xlink:href="tile17_53.png" preserveAspectRatio="none" x="14018.554688" y="-3875.976562" width="1.098633" height="1.098633"/>
<image xlink:href="tile17_52.png" preserveAspectRatio="none" x="14018.554688" y="-3877.075195" width="1.098633" height="1.098633"/>
<image xlink:href="tile18_56.png" preserveAspectRatio="none" x="14019.65332" y="-3872.680664" width="1.098633" height="1.098633"/>
<image xlink:href="tile18_55.png" preserveAspectRatio="none" x="14019.65332" y="-3873.779297" width="1.098633" height="1.098633"/>
<image xlink:href="tile18_54.png" preserveAspectRatio="none" x="14019.65332" y="-3874.87793" width="1.098633" height="1.098633"/>
<image xlink:href="tile18_53.png" preserveAspectRatio="none" x="14019.65332" y="-3875.976562" width="1.098633" height="1.098633"/>
<image xlink:href="tile18_52.png" preserveAspectRatio="none" x="14019.65332" y="-3877.075195" width="1.098633" height="1.098633"/>
<image xlink:href="tile18_51.png" preserveAspectRatio="none" x="14019.65332" y="-3878.173828" width="1.098633" height="1.098633"/>
<image xlink:href="tile19_58.png" preserveAspectRatio="none" x="14020.751953" y="-3870.483398" width="1.098633" height="1.098633"/>
<image xlink:href="tile19_57.png" preserveAspectRatio="none" x="14020.751953" y="-3871.582031" width="1.098633" height="1.098633"/>
<image xlink:href="tile19_56.png" preserveAspectRatio="none" x="14020.751953" y="-3872.680664" width="1.098633" height="1.098633"/>
<image xlink:href="tile19_55.png" preserveAspectRatio="none" x="14020.751953" y="-3873.779297" width="1.098633" height="1.098633"/>
<image xlink:href="tile19_54.png" preserveAspectRatio="none" x="14020.751953" y="-3874.87793" width="1.098633" height="1.098633"/>
<image xlink:href="tile19_53.png" preserveAspectRatio="none" x="14020.751953" y="-3875.976562" width="1.098633" height="1.098633"/>
<image xlink:href="tile19_52.png" preserveAspectRatio="none" x="14020.751953" y="-3877.075195" width="1.098633" height="1.098633"/>
<image xlink:href="tile19_51.png" preserveAspectRatio="none" x="14020.751953" y="-3878.173828" width="1.098633" height="1.098633"/>
<image xlink:href="tile19_50.png" preserveAspectRatio="none" x="14020.751953" y="-3879.272461" width="1.098633" height="1.098633"/>
<image xlink:href="tile19_49.png" preserveAspectRatio="none" x="14020.751953" y="-3880.371094" width="1.098633" height="1.098633"/>
<image xlink:href="tile19_48.png" preserveAspectRatio="none" x="14020.751953" y="-3881.469727" width="1.098633" height="1.098633"/>
<image xlink:href="tile20_58.png" preserveAspectRatio="none" x="14021.850586" y="-3870.483398" width="1.098633" height="1.098633"/>
<image xlink:href="tile20_57.png" preserveAspectRatio="none" x="14021.850586" y="-3871.582031" width="1.098633" height="1.098633"/>
<image xlink:href="tile20_56.png" preserveAspectRatio="none" x="14021.850586" y="-3872.680664" width="1.098633" height="1.098633"/>
<image xlink:href="tile20_55.png" preserveAspectRatio="none" x="14021.850586" y="-3873.779297" width="1.098633" height="1.098633"/>
<image xlink:href="tile20_54.png" preserveAspectRatio="none" x="14021.850586" y="-3874.87793" width="1.098633" height="1.098633"/>
<image xlink:href="tile20_53.png" preserveAspectRatio="none" x="14021.850586" y="-3875.976562" width="1.098633" height="1.098633"/>
<image xlink:href="tile20_51.png" preserveAspectRatio="none" x="14021.850586" y="-3878.173828" width="1.098633" height="1.098633"/>
<image xlink:href="tile20_50.png" preserveAspectRatio="none" x="14021.850586" y="-3879.272461" width="1.098633" height="1.098633"/>
<image xlink:href="tile20_49.png" preserveAspectRatio="none" x="14021.850586" y="-3880.371094" width="1.098633" height="1.098633"/>
<image xlink:href="tile20_48.png" preserveAspectRatio="none" x="14021.850586" y="-3881.469727" width="1.098633" height="1.098633"/>
<image xlink:href="tile20_47.png" preserveAspectRatio="none" x="14021.850586" y="-3882.568359" width="1.098633" height="1.098633"/>
<image xlink:href="tile20_46.png" preserveAspectRatio="none" x="14021.850586" y="-3883.666992" width="1.098633" height="1.098633"/>
<image xlink:href="tile21_59.png" preserveAspectRatio="none" x="14022.949219" y="-3869.384766" width="1.098633" height="1.098633"/>
<image xlink:href="tile21_58.png" preserveAspectRatio="none" x="14022.949219" y="-3870.483398" width="1.098633" height="1.098633"/>
<image xlink:href="tile21_57.png" preserveAspectRatio="none" x="14022.949219" y="-3871.582031" width="1.098633" height="1.098633"/>
<image xlink:href="tile21_56.png" preserveAspectRatio="none" x="14022.949219" y="-3872.680664" width="1.098633" height="1.098633"/>
<image xlink:href="tile21_55.png" preserveAspectRatio="none" x="14022.949219" y="-3873.779297" width="1.098633" height="1.098633"/>
<image xlink:href="tile21_54.png" preserveAspectRatio="none" x="14022.949219" y="-3874.87793" width="1.098633" height="1.098633"/>
<image xlink:href="tile21_53.png" preserveAspectRatio="none" x="14022.949219" y="-3875.976562" width="1.098633" height="1.098633"/>
<image xlink:href="tile21_48.png" preserveAspectRatio="none" x="14022.949219" y="-3881.469727" width="1.098633" height="1.098633"/>
<image xlink:href="tile21_47.png" preserveAspectRatio="none" x="14022.949219" y="-3882.568359" width="1.098633" height="1.098633"/>
<image xlink:href="tile21_46.png" preserveAspectRatio="none" x="14022.949219" y="-3883.666992" width="1.098633" height="1.098633"/>
<image xlink:href="tile22_60.png" preserveAspectRatio="none" x="14024.047852" y="-3868.286133" width="1.098633" height="1.098633"/>
<image xlink:href="tile22_59.png" preserveAspectRatio="none" x="14024.047852" y="-3869.384766" width="1.098633" height="1.098633"/>
<image xlink:href="tile22_58.png" preserveAspectRatio="none" x="14024.047852" y="-3870.483398" width="1.098633" height="1.098633"/>
<image xlink:href="tile22_54.png" preserveAspectRatio="none" x="14024.047852" y="-3874.87793" width="1.098633" height="1.098633"/>
<image xlink:href="tile22_53.png" preserveAspectRatio="none" x="14024.047852" y="-3875.976562" width="1.098633" height="1.098633"/>
<image xlink:href="tile22_46.png" preserveAspectRatio="none" x="14024.047852" y="-3883.666992" width="1.098633" height="1.098633"/>
<image xlink:href="tile23_61.png" preserveAspectRatio="none" x="14025.146484" y="-3867.1875" width="1.098633" height="1.098633"/>
<image xlink:href="tile23_60.png" preserveAspectRatio="none" x="14025.146484" y="-3868.286133" width="1.098633" height="1.098633"/>
<image xlink:href="tile23_59.png" preserveAspectRatio="none" x="14025.146484" y="-3869.384766" width="1.098633" height="1.098633"/>
<image xlink:href="tile23_54.png" preserveAspectRatio="none" x="14025.146484" y="-3874.87793" width="1.098633" height="1.098633"/>
<image xlink:href="tile23_53.png" preserveAspectRatio="none" x="14025.146484" y="-3875.976562" width="1.098633" height="1.098633"/>
<image xlink:href="tile24_61.png" preserveAspectRatio="none" x="14026.245117" y="-3867.1875" width="1.098633" height="1.098633"/>
<image xlink:href="tile24_60.png" preserveAspectRatio="none" x="14026.245117" y="-3868.286133" width="1.098633" height="1.098633"/>
<image xlink:href="tile24_59.png" preserveAspectRatio="none" x="14026.245117" y="-3869.384766" width="1.098633" height="1.098633"/>
<image xlink:href="tile24_54.png" preserveAspectRatio="none" x="14026.245117" y="-3874.87793" width="1.098633" height="1.098633"/>
<image xlink:href="tile24_53.png" preserveAspectRatio="none" x="14026.245117" y="-3875.976562" width="1.098633" height="1.098633"/>
<image xlink:href="tile25_61.png" preserveAspectRatio="none" x="14027.34375" y="-3867.1875" width="1.098633" height="1.098633"/>
<image xlink:href="tile25_60.png" preserveAspectRatio="none" x="14027.34375" y="-3868.286133" width="1.098633" height="1.098633"/>
<image xlink:href="tile25_59.png" preserveAspectRatio="none" x="14027.34375" y="-3869.384766" width="1.098633" height="1.098633"/>
<image xlink:href="tile25_54.png" preserveAspectRatio="none" x="14027.34375" y="-3874.87793" width="1.098633" height="1.098633"/>
<image xlink:href="tile25_53.png" preserveAspectRatio="none" x="14027.34375" y="-3875.976562" width="1.098633" height="1.098633"/>
<image xlink:href="tile25_52.png" preserveAspectRatio="none" x="14027.34375" y="-3877.075195" width="1.098633" height="1.098633"/>
<image xlink:href="tile25_51.png" preserveAspectRatio="none" x="14027.34375" y="-3878.173828" width="1.098633" height="1.098633"/>
<image xlink:href="tile26_59.png" preserveAspectRatio="none" x="14028.442383" y="-3869.384766" width="1.098633" height="1.098633"/>
<image xlink:href="tile26_53.png" preserveAspectRatio="none" x="14028.442383" y="-3875.976562" width="1.098633" height="1.098633"/>
<image xlink:href="tile26_52.png" preserveAspectRatio="none" x="14028.442383" y="-3877.075195" width="1.098633" height="1.098633"/>
<image xlink:href="tile26_51.png" preserveAspectRatio="none" x="14028.442383" y="-3878.173828" width="1.098633" height="1.098633"/>
<image xlink:href="tile26_50.png" preserveAspectRatio="none" x="14028.442383" y="-3879.272461" width="1.098633" height="1.098633"/>
<image xlink:href="tile27_59.png" preserveAspectRatio="none" x="14029.541016" y="-3869.384766" width="1.098633" height="1.098633"/>
<image xlink:href="tile27_58.png" preserveAspectRatio="none" x="14029.541016" y="-3870.483398" width="1.098633" height="1.098633"/>
<image xlink:href="tile27_53.png" preserveAspectRatio="none" x="14029.541016" y="-3875.976562" width="1.098633" height="1.098633"/>
<image xlink:href="tile27_52.png" preserveAspectRatio="none" x="14029.541016" y="-3877.075195" width="1.098633" height="1.098633"/>
<image xlink:href="tile27_51.png" preserveAspectRatio="none" x="14029.541016" y="-3878.173828" width="1.098633" height="1.098633"/>
<image xlink:href="tile27_50.png" preserveAspectRatio="none" x="14029.541016" y="-3879.272461" width="1.098633" height="1.098633"/>
<image xlink:href="tile27_49.png" preserveAspectRatio="none" x="14029.541016" y="-3880.371094" width="1.098633" height="1.098633"/>
<image xlink:href="tile28_61.png" preserveAspectRatio="none" x="14030.639648" y="-3867.1875" width="1.098633" height="1.098633"/>
<image xlink:href="tile28_60.png" preserveAspectRatio="none" x="14030.639648" y="-3868.286133" width="1.098633" height="1.098633"/>
<image xlink:href="tile28_59.png" preserveAspectRatio="none" x="14030.639648" y="-3869.384766" width="1.098633" height="1.098633"/>
<image xlink:href="tile28_58.png" preserveAspectRatio="none" x="14030.639648" y="-3870.483398" width="1.098633" height="1.098633"/>
<image xlink:href="tile28_53.png" preserveAspectRatio="none" x="14030.639648" y="-3875.976562" width="1.098633" height="1.098633"/>
<image xlink:href="tile28_52.png" preserveAspectRatio="none" x="14030.639648" y="-3877.075195" width="1.098633" height="1.098633"/>
<image xlink:href="tile28_51.png" preserveAspectRatio="none" x="14030.639648" y="-3878.173828" width="1.098633" height="1.098633"/>
<image xlink:href="tile28_50.png" preserveAspectRatio="none" x="14030.639648" y="-3879.272461" width="1.098633" height="1.098633"/>
<image xlink:href="tile28_49.png" preserveAspectRatio="none" x="14030.639648" y="-3880.371094" width="1.098633" height="1.098633"/>
<image xlink:href="tile28_48.png" preserveAspectRatio="none" x="14030.639648" y="-3881.469727" width="1.098633" height="1.098633"/>
<image xlink:href="tile29_61.png" preserveAspectRatio="none" x="14031.738281" y="-3867.1875" width="1.098633" height="1.098633"/>
<image xlink:href="tile29_60.png" preserveAspectRatio="none" x="14031.738281" y="-3868.286133" width="1.098633" height="1.098633"/>
<image xlink:href="tile29_59.png" preserveAspectRatio="none" x="14031.738281" y="-3869.384766" width="1.098633" height="1.098633"/>
<image xlink:href="tile29_58.png" preserveAspectRatio="none" x="14031.738281" y="-3870.483398" width="1.098633" height="1.098633"/>
<image xlink:href="tile29_52.png" preserveAspectRatio="none" x="14031.738281" y="-3877.075195" width="1.098633" height="1.098633"/>
<image xlink:href="tile29_51.png" preserveAspectRatio="none" x="14031.738281" y="-3878.173828" width="1.098633" height="1.098633"/>
<image xlink:href="tile29_50.png" preserveAspectRatio="none" x="14031.738281" y="-3879.272461" width="1.098633" height="1.098633"/>
<image xlink:href="tile29_49.png" preserveAspectRatio="none" x="14031.738281" y="-3880.371094" width="1.098633" height="1.098633"/>
<image xlink:href="tile29_48.png" preserveAspectRatio="none" x="14031.738281" y="-3881.469727" width="1.098633" height="1.098633"/>
<image xlink:href="tile29_47.png" preserveAspectRatio="none" x="14031.738281" y="-3882.568359" width="1.098633" height="1.098633"/>
<image xlink:href="tile30_61.png" preserveAspectRatio="none" x="14032.836914" y="-3867.1875" width="1.098633" height="1.098633"/>
<image xlink:href="tile30_58.png" preserveAspectRatio="none" x="14032.836914" y="-3870.483398" width="1.098633" height="1.098633"/>
<image xlink:href="tile30_52.png" preserveAspectRatio="none" x="14032.836914" y="-3877.075195" width="1.098633" height="1.098633"/>
<image xlink:href="tile30_51.png" preserveAspectRatio="none" x="14032.836914" y="-3878.173828" width="1.098633" height="1.098633"/>
<image xlink:href="tile30_50.png" preserveAspectRatio="none" x="14032.836914" y="-3879.272461" width="1.098633" height="1.098633"/>
<image xlink:href="tile30_49.png" preserveAspectRatio="none" x="14032.836914" y="-3880.371094" width="1.098633" height="1.098633"/>
<image xlink:href="tile30_48.png" preserveAspectRatio="none" x="14032.836914" y="-3881.469727" width="1.098633" height="1.098633"/>
<image xlink:href="tile30_47.png" preserveAspectRatio="none" x="14032.836914" y="-3882.568359" width="1.098633" height="1.098633"/>
<image xlink:href="tile31_58.png" preserveAspectRatio="none" x="14033.935547" y="-3870.483398" width="1.098633" height="1.098633"/>
<image xlink:href="tile31_57.png" preserveAspectRatio="none" x="14033.935547" y="-3871.582031" width="1.098633" height="1.098633"/>
<image xlink:href="tile31_52.png" preserveAspectRatio="none" x="14033.935547" y="-3877.075195" width="1.098633" height="1.098633"/>
<image xlink:href="tile31_51.png" preserveAspectRatio="none" x="14033.935547" y="-3878.173828" width="1.098633" height="1.098633"/>
<image xlink:href="tile31_49.png" preserveAspectRatio="none" x="14033.935547" y="-3880.371094" width="1.098633" height="1.098633"/>
<image xlink:href="tile31_48.png" preserveAspectRatio="none" x="14033.935547" y="-3881.469727" width="1.098633" height="1.098633"/>
<image xlink:href="tile31_47.png" preserveAspectRatio="none" x="14033.935547" y="-3882.568359" width="1.098633" height="1.098633"/>
</g>
</svg>
