<?xml version="1.0" encoding="UTF-8"?>
<svg  xmlns="http://www.w3.org/2000/svg" xmlns:xlink="http://www.w3.org/1999/xlink" xmlns:go="http://purl.org/svgmap/profile" viewBox="13000.0 -3398.5333333 100.0 65.20000029999977" go:dataArea="13000.0 -3398.5333333 100.0 65.20000029999977" >
<metadata>
 <rdf:RDF xmlns:rdf="http://www.w3.org/1999/02/22-rdf-syntax-ns#" xmlns:crs="http://opengis.org/xmldtds/transformations.dtd" xmlns:svg="http://www.w3.org/svg" >
  <rdf:Description>
   <crs:CoordinateReferenceSystem rdf:resource="http://purl.org/crs/84" svg:transform="matrix(100.0,0.0,0.0,-100.0,0.0,0.0)" />
  </rdf:Description>
 </rdf:RDF>
</metadata>
<globalCoordinateSystem srsName="http://purl.org/crs/84" transform="matrix(100.0,0.0,0.0,-100.0,0.0,0.0)" />
<g >
<image xlink:href="tile32_41.png" preserveAspectRatio="none" x="13034.179688" y="-3354.125977" width="1.098633" height="1.098633"/>
<image xlink:href="tile32_40.png" preserveAspectRatio="none" x="13034.179688" y="-3355.224609" width="1.098633" height="1.098633"/>
<image xlink:href="tile32_39.png" preserveAspectRatio="none" x="13034.179688" y="-3356.323242" width="1.098633" height="1.098633"/>
<image xlink:href="tile32_38.png" preserveAspectRatio="none" x="13034.179688" y="-3357.421875" width="1.098633" height="1.098633"/>
<image xlink:href="tile32_37.png" preserveAspectRatio="none" x="13034.179688" y="-3358.520508" width="1.098633" height="1.098633"/>
<image xlink:href="tile32_36.png" preserveAspectRatio="none" x="13034.179688" y="-3359.619141" width="1.098633" height="1.098633"/>
<image xlink:href="tile33_41.png" preserveAspectRatio="none" x="13035.27832" y="-3354.125977" width="1.098633" height="1.098633"/>
<image xlink:href="tile33_39.png" preserveAspectRatio="none" x="13035.27832" y="-3356.323242" width="1.098633" height="1.098633"/>
<image xlink:href="tile33_38.png" preserveAspectRatio="none" x="13035.27832" y="-3357.421875" width="1.098633" height="1.098633"/>
<image xlink:href="tile33_37.png" preserveAspectRatio="none" x="13035.27832" y="-3358.520508" width="1.098633" height="1.098633"/>
<image xlink:href="tile33_36.png" preserveAspectRatio="none" x="13035.27832" y="-3359.619141" width="1.098633" height="1.098633"/>
<image xlink:href="tile33_35.png" preserveAspectRatio="none" x="13035.27832" y="-3360.717773" width="1.098633" height="1.098633"/>
<image xlink:href="tile34_39.png" preserveAspectRatio="none" x="13036.376953" y="-3356.323242" width="1.098633" height="1.098633"/>
<image xlink:href="tile34_38.png" preserveAspectRatio="none" x="13036.376953" y="-3357.421875" width="1.098633" height="1.098633"/>
<image xlink:href="tile34_37.png" preserveAspectRatio="none" x="13036.376953" y="-3358.520508" width="1.098633" height="1.098633"/>
<image xlink:href="tile34_36.png" preserveAspectRatio="none" x="13036.376953" y="-3359.619141" width="1.098633" height="1.098633"/>
<image xlink:href="tile34_35.png" preserveAspectRatio="none" x="13036.376953" y="-3360.717773" width="1.098633" height="1.098633"/>
<image xlink:href="tile35_43.png" preserveAspectRatio="none" x="13037.475586" y="-3351.928711" width="1.098633" height="1.098633"/>
<image xlink:href="tile35_42.png" preserveAspectRatio="none" x="13037.475586" y="-3353.027344" width="1.098633" height="1.098633"/>
<image xlink:href="tile35_40.png" preserveAspectRatio="none" x="13037.475586" y="-3355.224609" width="1.098633" height="1.098633"/>
<image xlink:href="tile35_39.png" preserveAspectRatio="none" x="13037.475586" y="-3356.323242" width="1.098633" height="1.098633"/>
<image xlink:href="tile35_38.png" preserveAspectRatio="none" x="13037.475586" y="-3357.421875" width="1.098633" height="1.098633"/>
<image xlink:href="tile35_37.png" preserveAspectRatio="none" x="13037.475586" y="-3358.520508" width="1.098633" height="1.098633"/>
<image xlink:href="tile35_36.png" preserveAspectRatio="none" x="13037.475586" y="-3359.619141" width="1.098633" height="1.098633"/>
<image xlink:href="tile35_35.png" preserveAspectRatio="none" x="13037.475586" y="-3360.717773" width="1.098633" height="1.098633"/>
<image xlink:href="tile36_42.png" preserveAspectRatio="none" x="13038.574219" y="-3353.027344" width="1.098633" height="1.098633"/>
<image xlink:href="tile36_41.png" preserveAspectRatio="none" x="13038.574219" y="-3354.125977" width="1.098633" height="1.098633"/>
<image xlink:href="tile36_40.png" preserveAspectRatio="none" x="13038.574219" y="-3355.224609" width="1.098633" height="1.098633"/>
<image xlink:href="tile36_39.png" preserveAspectRatio="none" x="13038.574219" y="-3356.323242" width="1.098633" height="1.098633"/>
<image xlink:href="tile36_37.png" preserveAspectRatio="none" x="13038.574219" y="-3358.520508" width="1.098633" height="1.098633"/>
<image xlink:href="tile36_36.png" preserveAspectRatio="none" x="13038.574219" y="-3359.619141" width="1.098633" height="1.098633"/>
<image xlink:href="tile36_35.png" preserveAspectRatio="none" x="13038.574219" y="-3360.717773" width="1.098633" height="1.098633"/>
<image xlink:href="tile37_42.png" preserveAspectRatio="none" x="13039.672852" y="-3353.027344" width="1.098633" height="1.098633"/>
<image xlink:href="tile37_41.png" preserveAspectRatio="none" x="13039.672852" y="-3354.125977" width="1.098633" height="1.098633"/>
<image xlink:href="tile37_38.png" preserveAspectRatio="none" x="13039.672852" y="-3357.421875" width="1.098633" height="1.098633"/>
<image xlink:href="tile37_37.png" preserveAspectRatio="none" x="13039.672852" y="-3358.520508" width="1.098633" height="1.098633"/>
<image xlink:href="tile37_36.png" preserveAspectRatio="none" x="13039.672852" y="-3359.619141" width="1.098633" height="1.098633"/>
<image xlink:href="tile37_35.png" preserveAspectRatio="none" x="13039.672852" y="-3360.717773" width="1.098633" height="1.098633"/>
<image xlink:href="tile37_33.png" preserveAspectRatio="none" x="13039.672852" y="-3362.915039" width="1.098633" height="1.098633"/>
<image xlink:href="tile37_32.png" preserveAspectRatio="none" x="13039.672852" y="-3364.013672" width="1.098633" height="1.098633"/>
<image xlink:href="tile37_31.png" preserveAspectRatio="none" x="13039.672852" y="-3365.112305" width="1.098633" height="1.098633"/>
<image xlink:href="tile38_43.png" preserveAspectRatio="none" x="13040.771484" y="-3351.928711" width="1.098633" height="1.098633"/>
<image xlink:href="tile38_39.png" preserveAspectRatio="none" x="13040.771484" y="-3356.323242" width="1.098633" height="1.098633"/>
<image xlink:href="tile38_38.png" preserveAspectRatio="none" x="13040.771484" y="-3357.421875" width="1.098633" height="1.098633"/>
<image xlink:href="tile38_37.png" preserveAspectRatio="none" x="13040.771484" y="-3358.520508" width="1.098633" height="1.098633"/>
<image xlink:href="tile38_36.png" preserveAspectRatio="none" x="13040.771484" y="-3359.619141" width="1.098633" height="1.098633"/>
<image xlink:href="tile38_35.png" preserveAspectRatio="none" x="13040.771484" y="-3360.717773" width="1.098633" height="1.098633"/>
<image xlink:href="tile38_34.png" preserveAspectRatio="none" x="13040.771484" y="-3361.816406" width="1.098633" height="1.098633"/>
<image xlink:href="tile38_33.png" preserveAspectRatio="none" x="13040.771484" y="-3362.915039" width="1.098633" height="1.098633"/>
<image xlink:href="tile38_32.png" preserveAspectRatio="none" x="13040.771484" y="-3364.013672" width="1.098633" height="1.098633"/>
<image xlink:href="tile38_31.png" preserveAspectRatio="none" x="13040.771484" y="-3365.112305" width="1.098633" height="1.098633"/>
<image xlink:href="tile39_43.png" preserveAspectRatio="none" x="13041.870117" y="-3351.928711" width="1.098633" height="1.098633"/>
<image xlink:href="tile39_42.png" preserveAspectRatio="none" x="13041.870117" y="-3353.027344" width="1.098633" height="1.098633"/>
<image xlink:href="tile39_41.png" preserveAspectRatio="none" x="13041.870117" y="-3354.125977" width="1.098633" height="1.098633"/>
<image xlink:href="tile39_40.png" preserveAspectRatio="none" x="13041.870117" y="-3355.224609" width="1.098633" height="1.098633"/>
<image xlink:href="tile39_39.png" preserveAspectRatio="none" x="13041.870117" y="-3356.323242" width="1.098633" height="1.098633"/>
<image xlink:href="tile39_38.png" preserveAspectRatio="none" x="13041.870117" y="-3357.421875" width="1.098633" height="1.098633"/>
<image xlink:href="tile39_37.png" preserveAspectRatio="none" x="13041.870117" y="-3358.520508" width="1.098633" height="1.098633"/>
<image xlink:href="tile39_36.png" preserveAspectRatio="none" x="13041.870117" y="-3359.619141" width="1.098633" height="1.098633"/>
<image xlink:href="tile39_35.png" preserveAspectRatio="none" x="13041.870117" y="-3360.717773" width="1.098633" height="1.098633"/>
<image xlink:href="tile39_34.png" preserveAspectRatio="none" x="13041.870117" y="-3361.816406" width="1.098633" height="1.098633"/>
<image xlink:href="tile39_33.png" preserveAspectRatio="none" x="13041.870117" y="-3362.915039" width="1.098633" height="1.098633"/>
<image xlink:href="tile39_32.png" preserveAspectRatio="none" x="13041.870117" y="-3364.013672" width="1.098633" height="1.098633"/>
<image xlink:href="tile39_31.png" preserveAspectRatio="none" x="13041.870117" y="-3365.112305" width="1.098633" height="1.098633"/>
<image xlink:href="tile40_43.png" preserveAspectRatio="none" x="13042.96875" y="-3351.928711" width="1.098633" height="1.098633"/>
<image xlink:href="tile40_42.png" preserveAspectRatio="none" x="13042.96875" y="-3353.027344" width="1.098633" height="1.098633"/>
<image xlink:href="tile40_41.png" preserveAspectRatio="none" x="13042.96875" y="-3354.125977" width="1.098633" height="1.098633"/>
<image xlink:href="tile40_40.png" preserveAspectRatio="none" x="13042.96875" y="-3355.224609" width="1.098633" height="1.098633"/>
<image xlink:href="tile40_39.png" preserveAspectRatio="none" x="13042.96875" y="-3356.323242" width="1.098633" height="1.098633"/>
<image xlink:href="tile40_38.png" preserveAspectRatio="none" x="13042.96875" y="-3357.421875" width="1.098633" height="1.098633"/>
<image xlink:href="tile40_37.png" preserveAspectRatio="none" x="13042.96875" y="-3358.520508" width="1.098633" height="1.098633"/>
<image xlink:href="tile40_36.png" preserveAspectRatio="none" x="13042.96875" y="-3359.619141" width="1.098633" height="1.098633"/>
<image xlink:href="tile40_35.png" preserveAspectRatio="none" x="13042.96875" y="-3360.717773" width="1.098633" height="1.098633"/>
<image xlink:href="tile40_34.png" preserveAspectRatio="none" x="13042.96875" y="-3361.816406" width="1.098633" height="1.098633"/>
<image xlink:href="tile40_33.png" preserveAspectRatio="none" x="13042.96875" y="-3362.915039" width="1.098633" height="1.098633"/>
<image xlink:href="tile40_32.png" preserveAspectRatio="none" x="13042.96875" y="-3364.013672" width="1.098633" height="1.098633"/>
<image xlink:href="tile41_40.png" preserveAspectRatio="none" x="13044.067383" y="-3355.224609" width="1.098633" height="1.098633"/>
<image xlink:href="tile41_39.png" preserveAspectRatio="none" x="13044.067383" y="-3356.323242" width="1.098633" height="1.098633"/>
<image xlink:href="tile41_38.png" preserveAspectRatio="none" x="13044.067383" y="-3357.421875" width="1.098633" height="1.098633"/>
<image xlink:href="tile41_37.png" preserveAspectRatio="none" x="13044.067383" y="-3358.520508" width="1.098633" height="1.098633"/>
<image xlink:href="tile41_36.png" preserveAspectRatio="none" x="13044.067383" y="-3359.619141" width="1.098633" height="1.098633"/>
<image xlink:href="tile41_35.png" preserveAspectRatio="none" x="13044.067383" y="-3360.717773" width="1.098633" height="1.098633"/>
<image xlink:href="tile41_34.png" preserveAspectRatio="none" x="13044.067383" y="-3361.816406" width="1.098633" height="1.098633"/>
<image xlink:href="tile41_33.png" preserveAspectRatio="none" x="13044.067383" y="-3362.915039" width="1.098633" height="1.098633"/>
<image xlink:href="tile41_32.png" preserveAspectRatio="none" x="13044.067383" y="-3364.013672" width="1.098633" height="1.098633"/>
<image xlink:href="tile42_40.png" preserveAspectRatio="none" x="13045.166016" y="-3355.224609" width="1.098633" height="1.098633"/>
<image xlink:href="tile42_39.png" preserveAspectRatio="none" x="13045.166016" y="-3356.323242" width="1.098633" height="1.098633"/>
<image xlink:href="tile42_38.png" preserveAspectRatio="none" x="13045.166016" y="-3357.421875" width="1.098633" height="1.098633"/>
<image xlink:href="tile42_37.png" preserveAspectRatio="none" x="13045.166016" y="-3358.520508" width="1.098633" height="1.098633"/>
<image xlink:href="tile42_36.png" preserveAspectRatio="none" x="13045.166016" y="-3359.619141" width="1.098633" height="1.098633"/>
<image xlink:href="tile42_35.png" preserveAspectRatio="none" x="13045.166016" y="-3360.717773" width="1.098633" height="1.098633"/>
<image xlink:href="tile42_34.png" preserveAspectRatio="none" x="13045.166016" y="-3361.816406" width="1.098633" height="1.098633"/>
<image xlink:href="tile42_33.png" preserveAspectRatio="none" x="13045.166016" y="-3362.915039" width="1.098633" height="1.098633"/>
<image xlink:href="tile42_32.png" preserveAspectRatio="none" x="13045.166016" y="-3364.013672" width="1.098633" height="1.098633"/>
<image xlink:href="tile42_31.png" preserveAspectRatio="none" x="13045.166016" y="-3365.112305" width="1.098633" height="1.098633"/>
<image xlink:href="tile43_43.png" preserveAspectRatio="none" x="13046.264648" y="-3351.928711" width="1.098633" height="1.098633"/>
<image xlink:href="tile43_42.png" preserveAspectRatio="none" x="13046.264648" y="-3353.027344" width="1.098633" height="1.098633"/>
<image xlink:href="tile43_40.png" preserveAspectRatio="none" x="13046.264648" y="-3355.224609" width="1.098633" height="1.098633"/>
<image xlink:href="tile43_39.png" preserveAspectRatio="none" x="13046.264648" y="-3356.323242" width="1.098633" height="1.098633"/>
<image xlink:href="tile43_38.png" preserveAspectRatio="none" x="13046.264648" y="-3357.421875" width="1.098633" height="1.098633"/>
<image xlink:href="tile43_36.png" preserveAspectRatio="none" x="13046.264648" y="-3359.619141" width="1.098633" height="1.098633"/>
<image xlink:href="tile43_35.png" preserveAspectRatio="none" x="13046.264648" y="-3360.717773" width="1.098633" height="1.098633"/>
<image xlink:href="tile43_34.png" preserveAspectRatio="none" x="13046.264648" y="-3361.816406" width="1.098633" height="1.098633"/>
<image xlink:href="tile43_33.png" preserveAspectRatio="none" x="13046.264648" y="-3362.915039" width="1.098633" height="1.098633"/>
<image xlink:href="tile43_32.png" preserveAspectRatio="none" x="13046.264648" y="-3364.013672" width="1.098633" height="1.098633"/>
<image xlink:href="tile44_42.png" preserveAspectRatio="none" x="13047.363281" y="-3353.027344" width="1.098633" height="1.098633"/>
<image xlink:href="tile44_41.png" preserveAspectRatio="none" x="13047.363281" y="-3354.125977" width="1.098633" height="1.098633"/>
<image xlink:href="tile44_40.png" preserveAspectRatio="none" x="13047.363281" y="-3355.224609" width="1.098633" height="1.098633"/>
<image xlink:href="tile44_39.png" preserveAspectRatio="none" x="13047.363281" y="-3356.323242" width="1.098633" height="1.098633"/>
<image xlink:href="tile44_37.png" preserveAspectRatio="none" x="13047.363281" y="-3358.520508" width="1.098633" height="1.098633"/>
<image xlink:href="tile44_36.png" preserveAspectRatio="none" x="13047.363281" y="-3359.619141" width="1.098633" height="1.098633"/>
<image xlink:href="tile44_35.png" preserveAspectRatio="none" x="13047.363281" y="-3360.717773" width="1.098633" height="1.098633"/>
<image xlink:href="tile44_33.png" preserveAspectRatio="none" x="13047.363281" y="-3362.915039" width="1.098633" height="1.098633"/>
<image xlink:href="tile44_32.png" preserveAspectRatio="none" x="13047.363281" y="-3364.013672" width="1.098633" height="1.098633"/>
<image xlink:href="tile44_31.png" preserveAspectRatio="none" x="13047.363281" y="-3365.112305" width="1.098633" height="1.098633"/>
<image xlink:href="tile44_30.png" preserveAspectRatio="none" x="13047.363281" y="-3366.210938" width="1.098633" height="1.098633"/>
<image xlink:href="tile44_29.png" preserveAspectRatio="none" x="13047.363281" y="-3367.30957" width="1.098633" height="1.098633"/>
<image xlink:href="tile45_43.png" preserveAspectRatio="none" x="13048.461914" y="-3351.928711" width="1.098633" height="1.098633"/>
<image xlink:href="tile45_42.png" preserveAspectRatio="none" x="13048.461914" y="-3353.027344" width="1.098633" height="1.098633"/>
<image xlink:href="tile45_41.png" preserveAspectRatio="none" x="13048.461914" y="-3354.125977" width="1.098633" height="1.098633"/>
<image xlink:href="tile45_40.png" preserveAspectRatio="none" x="13048.461914" y="-3355.224609" width="1.098633" height="1.098633"/>
<image xlink:href="tile45_38.png" preserveAspectRatio="none" x="13048.461914" y="-3357.421875" width="1.098633" height="1.098633"/>
<image xlink:href="tile45_37.png" preserveAspectRatio="none" x="13048.461914" y="-3358.520508" width="1.098633" height="1.098633"/>
<image xlink:href="tile45_36.png" preserveAspectRatio="none" x="13048.461914" y="-3359.619141" width="1.098633" height="1.098633"/>
<image xlink:href="tile45_35.png" preserveAspectRatio="none" x="13048.461914" y="-3360.717773" width="1.098633" height="1.098633"/>
<image xlink:href="tile45_33.png" preserveAspectRatio="none" x="13048.461914" y="-3362.915039" width="1.098633" height="1.098633"/>
<image xlink:href="tile45_32.png" preserveAspectRatio="none" x="13048.461914" y="-3364.013672" width="1.098633" height="1.098633"/>
<image xlink:href="tile45_31.png" preserveAspectRatio="none" x="13048.461914" y="-3365.112305" width="1.098633" height="1.098633"/>
<image xlink:href="tile45_30.png" preserveAspectRatio="none" x="13048.461914" y="-3366.210938" width="1.098633" height="1.098633"/>
<image xlink:href="tile45_29.png" preserveAspectRatio="none" x="13048.461914" y="-3367.30957" width="1.098633" height="1.098633"/>
<image xlink:href="tile45_28.png" preserveAspectRatio="none" x="13048.461914" y="-3368.408203" width="1.098633" height="1.098633"/>
<image xlink:href="tile46_43.png" preserveAspectRatio="none" x="13049.560547" y="-3351.928711" width="1.098633" height="1.098633"/>
<image xlink:href="tile46_42.png" preserveAspectRatio="none" x="13049.560547" y="-3353.027344" width="1.098633" height="1.098633"/>
<image xlink:href="tile46_38.png" preserveAspectRatio="none" x="13049.560547" y="-3357.421875" width="1.098633" height="1.098633"/>
<image xlink:href="tile46_37.png" preserveAspectRatio="none" x="13049.560547" y="-3358.520508" width="1.098633" height="1.098633"/>
<image xlink:href="tile46_36.png" preserveAspectRatio="none" x="13049.560547" y="-3359.619141" width="1.098633" height="1.098633"/>
<image xlink:href="tile46_35.png" preserveAspectRatio="none" x="13049.560547" y="-3360.717773" width="1.098633" height="1.098633"/>
<image xlink:href="tile46_33.png" preserveAspectRatio="none" x="13049.560547" y="-3362.915039" width="1.098633" height="1.098633"/>
<image xlink:href="tile46_32.png" preserveAspectRatio="none" x="13049.560547" y="-3364.013672" width="1.098633" height="1.098633"/>
<image xlink:href="tile46_31.png" preserveAspectRatio="none" x="13049.560547" y="-3365.112305" width="1.098633" height="1.098633"/>
<image xlink:href="tile46_30.png" preserveAspectRatio="none" x="13049.560547" y="-3366.210938" width="1.098633" height="1.098633"/>
<image xlink:href="tile46_29.png" preserveAspectRatio="none" x="13049.560547" y="-3367.30957" width="1.098633" height="1.098633"/>
<image xlink:href="tile47_43.png" preserveAspectRatio="none" x="13050.65918" y="-3351.928711" width="1.098633" height="1.098633"/>
<image xlink:href="tile47_39.png" preserveAspectRatio="none" x="13050.65918" y="-3356.323242" width="1.098633" height="1.098633"/>
<image xlink:href="tile47_38.png" preserveAspectRatio="none" x="13050.65918" y="-3357.421875" width="1.098633" height="1.098633"/>
<image xlink:href="tile47_36.png" preserveAspectRatio="none" x="13050.65918" y="-3359.619141" width="1.098633" height="1.098633"/>
<image xlink:href="tile47_33.png" preserveAspectRatio="none" x="13050.65918" y="-3362.915039" width="1.098633" height="1.098633"/>
<image xlink:href="tile47_32.png" preserveAspectRatio="none" x="13050.65918" y="-3364.013672" width="1.098633" height="1.098633"/>
<image xlink:href="tile47_31.png" preserveAspectRatio="none" x="13050.65918" y="-3365.112305" width="1.098633" height="1.098633"/>
<image xlink:href="tile47_30.png" preserveAspectRatio="none" x="13050.65918" y="-3366.210938" width="1.098633" height="1.098633"/>
<image xlink:href="tile47_29.png" preserveAspectRatio="none" x="13050.65918" y="-3367.30957" width="1.098633" height="1.098633"/>
</g>
</svg>
