<?xml version="1.0" encoding="UTF-8"?>
<svg  xmlns="http://www.w3.org/2000/svg" xmlns:xlink="http://www.w3.org/1999/xlink" xmlns:go="http://purl.org/svgmap/profile" viewBox="13000.0 -3398.5333333 100.0 65.20000029999977" go:dataArea="13000.0 -3398.5333333 100.0 65.20000029999977" >
<metadata>
 <rdf:RDF xmlns:rdf="http://www.w3.org/1999/02/22-rdf-syntax-ns#" xmlns:crs="http://opengis.org/xmldtds/transformations.dtd" xmlns:svg="http://www.w3.org/svg" >
  <rdf:Description>
   <crs:CoordinateReferenceSystem rdf:resource="http://purl.org/crs/84" svg:transform="matrix(100.0,0.0,0.0,-100.0,0.0,0.0)" />
  </rdf:Description>
 </rdf:RDF>
</metadata>
<globalCoordinateSystem srsName="http://purl.org/crs/84" transform="matrix(100.0,0.0,0.0,-100.0,0.0,0.0)" />
<g >
<image xlink:href="tile64_38.png" preserveAspectRatio="none" x="13069.335938" y="-3357.421875" width="1.098633" height="1.098633"/>
<image xlink:href="tile64_37.png" preserveAspectRatio="none" x="13069.335938" y="-3358.520508" width="1.098633" height="1.098633"/>
<image xlink:href="tile64_34.png" preserveAspectRatio="none" x="13069.335938" y="-3361.816406" width="1.098633" height="1.098633"/>
<image xlink:href="tile64_33.png" preserveAspectRatio="none" x="13069.335938" y="-3362.915039" width="1.098633" height="1.098633"/>
<image xlink:href="tile64_32.png" preserveAspectRatio="none" x="13069.335938" y="-3364.013672" width="1.098633" height="1.098633"/>
<image xlink:href="tile64_31.png" preserveAspectRatio="none" x="13069.335938" y="-3365.112305" width="1.098633" height="1.098633"/>
<image xlink:href="tile64_30.png" preserveAspectRatio="none" x="13069.335938" y="-3366.210938" width="1.098633" height="1.098633"/>
<image xlink:href="tile64_29.png" preserveAspectRatio="none" x="13069.335938" y="-3367.30957" width="1.098633" height="1.098633"/>
<image xlink:href="tile64_28.png" preserveAspectRatio="none" x="13069.335938" y="-3368.408203" width="1.098633" height="1.098633"/>
<image xlink:href="tile65_39.png" preserveAspectRatio="none" x="13070.43457" y="-3356.323242" width="1.098633" height="1.098633"/>
<image xlink:href="tile65_38.png" preserveAspectRatio="none" x="13070.43457" y="-3357.421875" width="1.098633" height="1.098633"/>
<image xlink:href="tile65_37.png" preserveAspectRatio="none" x="13070.43457" y="-3358.520508" width="1.098633" height="1.098633"/>
<image xlink:href="tile65_36.png" preserveAspectRatio="none" x="13070.43457" y="-3359.619141" width="1.098633" height="1.098633"/>
<image xlink:href="tile65_35.png" preserveAspectRatio="none" x="13070.43457" y="-3360.717773" width="1.098633" height="1.098633"/>
<image xlink:href="tile65_34.png" preserveAspectRatio="none" x="13070.43457" y="-3361.816406" width="1.098633" height="1.098633"/>
<image xlink:href="tile65_33.png" preserveAspectRatio="none" x="13070.43457" y="-3362.915039" width="1.098633" height="1.098633"/>
<image xlink:href="tile65_32.png" preserveAspectRatio="none" x="13070.43457" y="-3364.013672" width="1.098633" height="1.098633"/>
<image xlink:href="tile65_30.png" preserveAspectRatio="none" x="13070.43457" y="-3366.210938" width="1.098633" height="1.098633"/>
<image xlink:href="tile65_29.png" preserveAspectRatio="none" x="13070.43457" y="-3367.30957" width="1.098633" height="1.098633"/>
<image xlink:href="tile65_28.png" preserveAspectRatio="none" x="13070.43457" y="-3368.408203" width="1.098633" height="1.098633"/>
<image xlink:href="tile66_39.png" preserveAspectRatio="none" x="13071.533203" y="-3356.323242" width="1.098633" height="1.098633"/>
<image xlink:href="tile66_38.png" preserveAspectRatio="none" x="13071.533203" y="-3357.421875" width="1.098633" height="1.098633"/>
<image xlink:href="tile66_37.png" preserveAspectRatio="none" x="13071.533203" y="-3358.520508" width="1.098633" height="1.098633"/>
<image xlink:href="tile66_36.png" preserveAspectRatio="none" x="13071.533203" y="-3359.619141" width="1.098633" height="1.098633"/>
<image xlink:href="tile66_35.png" preserveAspectRatio="none" x="13071.533203" y="-3360.717773" width="1.098633" height="1.098633"/>
<image xlink:href="tile66_34.png" preserveAspectRatio="none" x="13071.533203" y="-3361.816406" width="1.098633" height="1.098633"/>
<image xlink:href="tile66_33.png" preserveAspectRatio="none" x="13071.533203" y="-3362.915039" width="1.098633" height="1.098633"/>
<image xlink:href="tile66_32.png" preserveAspectRatio="none" x="13071.533203" y="-3364.013672" width="1.098633" height="1.098633"/>
<image xlink:href="tile66_31.png" preserveAspectRatio="none" x="13071.533203" y="-3365.112305" width="1.098633" height="1.098633"/>
<image xlink:href="tile66_30.png" preserveAspectRatio="none" x="13071.533203" y="-3366.210938" width="1.098633" height="1.098633"/>
<image xlink:href="tile66_29.png" preserveAspectRatio="none" x="13071.533203" y="-3367.30957" width="1.098633" height="1.098633"/>
<image xlink:href="tile66_28.png" preserveAspectRatio="none" x="13071.533203" y="-3368.408203" width="1.098633" height="1.098633"/>
<image xlink:href="tile67_40.png" preserveAspectRatio="none" x="13072.631836" y="-3355.224609" width="1.098633" height="1.098633"/>
<image xlink:href="tile67_39.png" preserveAspectRatio="none" x="13072.631836" y="-3356.323242" width="1.098633" height="1.098633"/>
<image xlink:href="tile67_38.png" preserveAspectRatio="none" x="13072.631836" y="-3357.421875" width="1.098633" height="1.098633"/>
<image xlink:href="tile67_36.png" preserveAspectRatio="none" x="13072.631836" y="-3359.619141" width="1.098633" height="1.098633"/>
<image xlink:href="tile67_35.png" preserveAspectRatio="none" x="13072.631836" y="-3360.717773" width="1.098633" height="1.098633"/>
<image xlink:href="tile67_34.png" preserveAspectRatio="none" x="13072.631836" y="-3361.816406" width="1.098633" height="1.098633"/>
<image xlink:href="tile67_33.png" preserveAspectRatio="none" x="13072.631836" y="-3362.915039" width="1.098633" height="1.098633"/>
<image xlink:href="tile67_32.png" preserveAspectRatio="none" x="13072.631836" y="-3364.013672" width="1.098633" height="1.098633"/>
<image xlink:href="tile67_31.png" preserveAspectRatio="none" x="13072.631836" y="-3365.112305" width="1.098633" height="1.098633"/>
<image xlink:href="tile67_30.png" preserveAspectRatio="none" x="13072.631836" y="-3366.210938" width="1.098633" height="1.098633"/>
<image xlink:href="tile67_29.png" preserveAspectRatio="none" x="13072.631836" y="-3367.30957" width="1.098633" height="1.098633"/>
<image xlink:href="tile67_28.png" preserveAspectRatio="none" x="13072.631836" y="-3368.408203" width="1.098633" height="1.098633"/>
<image xlink:href="tile68_41.png" preserveAspectRatio="none" x="13073.730469" y="-3354.125977" width="1.098633" height="1.098633"/>
<image xlink:href="tile68_40.png" preserveAspectRatio="none" x="13073.730469" y="-3355.224609" width="1.098633" height="1.098633"/>
<image xlink:href="tile68_39.png" preserveAspectRatio="none" x="13073.730469" y="-3356.323242" width="1.098633" height="1.098633"/>
<image xlink:href="tile68_37.png" preserveAspectRatio="none" x="13073.730469" y="-3358.520508" width="1.098633" height="1.098633"/>
<image xlink:href="tile68_36.png" preserveAspectRatio="none" x="13073.730469" y="-3359.619141" width="1.098633" height="1.098633"/>
<image xlink:href="tile68_35.png" preserveAspectRatio="none" x="13073.730469" y="-3360.717773" width="1.098633" height="1.098633"/>
<image xlink:href="tile68_34.png" preserveAspectRatio="none" x="13073.730469" y="-3361.816406" width="1.098633" height="1.098633"/>
<image xlink:href="tile68_33.png" preserveAspectRatio="none" x="13073.730469" y="-3362.915039" width="1.098633" height="1.098633"/>
<image xlink:href="tile68_29.png" preserveAspectRatio="none" x="13073.730469" y="-3367.30957" width="1.098633" height="1.098633"/>
<image xlink:href="tile68_28.png" preserveAspectRatio="none" x="13073.730469" y="-3368.408203" width="1.098633" height="1.098633"/>
<image xlink:href="tile69_42.png" preserveAspectRatio="none" x="13074.829102" y="-3353.027344" width="1.098633" height="1.098633"/>
<image xlink:href="tile69_41.png" preserveAspectRatio="none" x="13074.829102" y="-3354.125977" width="1.098633" height="1.098633"/>
<image xlink:href="tile69_40.png" preserveAspectRatio="none" x="13074.829102" y="-3355.224609" width="1.098633" height="1.098633"/>
<image xlink:href="tile69_38.png" preserveAspectRatio="none" x="13074.829102" y="-3357.421875" width="1.098633" height="1.098633"/>
<image xlink:href="tile69_37.png" preserveAspectRatio="none" x="13074.829102" y="-3358.520508" width="1.098633" height="1.098633"/>
<image xlink:href="tile69_35.png" preserveAspectRatio="none" x="13074.829102" y="-3360.717773" width="1.098633" height="1.098633"/>
<image xlink:href="tile69_34.png" preserveAspectRatio="none" x="13074.829102" y="-3361.816406" width="1.098633" height="1.098633"/>
<image xlink:href="tile69_29.png" preserveAspectRatio="none" x="13074.829102" y="-3367.30957" width="1.098633" height="1.098633"/>
<image xlink:href="tile70_42.png" preserveAspectRatio="none" x="13075.927734" y="-3353.027344" width="1.098633" height="1.098633"/>
<image xlink:href="tile70_29.png" preserveAspectRatio="none" x="13075.927734" y="-3367.30957" width="1.098633" height="1.098633"/>
<image xlink:href="tile70_28.png" preserveAspectRatio="none" x="13075.927734" y="-3368.408203" width="1.098633" height="1.098633"/>
<image xlink:href="tile71_43.png" preserveAspectRatio="none" x="13077.026367" y="-3351.928711" width="1.098633" height="1.098633"/>
<image xlink:href="tile71_42.png" preserveAspectRatio="none" x="13077.026367" y="-3353.027344" width="1.098633" height="1.098633"/>
<image xlink:href="tile71_31.png" preserveAspectRatio="none" x="13077.026367" y="-3365.112305" width="1.098633" height="1.098633"/>
<image xlink:href="tile71_30.png" preserveAspectRatio="none" x="13077.026367" y="-3366.210938" width="1.098633" height="1.098633"/>
<image xlink:href="tile71_29.png" preserveAspectRatio="none" x="13077.026367" y="-3367.30957" width="1.098633" height="1.098633"/>
<image xlink:href="tile71_28.png" preserveAspectRatio="none" x="13077.026367" y="-3368.408203" width="1.098633" height="1.098633"/>
<image xlink:href="tile72_43.png" preserveAspectRatio="none" x="13078.125" y="-3351.928711" width="1.098633" height="1.098633"/>
<image xlink:href="tile72_37.png" preserveAspectRatio="none" x="13078.125" y="-3358.520508" width="1.098633" height="1.098633"/>
<image xlink:href="tile72_36.png" preserveAspectRatio="none" x="13078.125" y="-3359.619141" width="1.098633" height="1.098633"/>
<image xlink:href="tile72_34.png" preserveAspectRatio="none" x="13078.125" y="-3361.816406" width="1.098633" height="1.098633"/>
<image xlink:href="tile72_33.png" preserveAspectRatio="none" x="13078.125" y="-3362.915039" width="1.098633" height="1.098633"/>
<image xlink:href="tile72_32.png" preserveAspectRatio="none" x="13078.125" y="-3364.013672" width="1.098633" height="1.098633"/>
<image xlink:href="tile72_31.png" preserveAspectRatio="none" x="13078.125" y="-3365.112305" width="1.098633" height="1.098633"/>
<image xlink:href="tile72_30.png" preserveAspectRatio="none" x="13078.125" y="-3366.210938" width="1.098633" height="1.098633"/>
<image xlink:href="tile72_29.png" preserveAspectRatio="none" x="13078.125" y="-3367.30957" width="1.098633" height="1.098633"/>
<image xlink:href="tile72_28.png" preserveAspectRatio="none" x="13078.125" y="-3368.408203" width="1.098633" height="1.098633"/>
<image xlink:href="tile73_36.png" preserveAspectRatio="none" x="13079.223633" y="-3359.619141" width="1.098633" height="1.098633"/>
<image xlink:href="tile73_35.png" preserveAspectRatio="none" x="13079.223633" y="-3360.717773" width="1.098633" height="1.098633"/>
<image xlink:href="tile73_34.png" preserveAspectRatio="none" x="13079.223633" y="-3361.816406" width="1.098633" height="1.098633"/>
<image xlink:href="tile73_33.png" preserveAspectRatio="none" x="13079.223633" y="-3362.915039" width="1.098633" height="1.098633"/>
<image xlink:href="tile73_32.png" preserveAspectRatio="none" x="13079.223633" y="-3364.013672" width="1.098633" height="1.098633"/>
<image xlink:href="tile73_31.png" preserveAspectRatio="none" x="13079.223633" y="-3365.112305" width="1.098633" height="1.098633"/>
<image xlink:href="tile73_30.png" preserveAspectRatio="none" x="13079.223633" y="-3366.210938" width="1.098633" height="1.098633"/>
<image xlink:href="tile73_29.png" preserveAspectRatio="none" x="13079.223633" y="-3367.30957" width="1.098633" height="1.098633"/>
<image xlink:href="tile73_28.png" preserveAspectRatio="none" x="13079.223633" y="-3368.408203" width="1.098633" height="1.098633"/>
<image xlink:href="tile74_36.png" preserveAspectRatio="none" x="13080.322266" y="-3359.619141" width="1.098633" height="1.098633"/>
<image xlink:href="tile74_35.png" preserveAspectRatio="none" x="13080.322266" y="-3360.717773" width="1.098633" height="1.098633"/>
<image xlink:href="tile74_34.png" preserveAspectRatio="none" x="13080.322266" y="-3361.816406" width="1.098633" height="1.098633"/>
<image xlink:href="tile74_31.png" preserveAspectRatio="none" x="13080.322266" y="-3365.112305" width="1.098633" height="1.098633"/>
<image xlink:href="tile74_30.png" preserveAspectRatio="none" x="13080.322266" y="-3366.210938" width="1.098633" height="1.098633"/>
<image xlink:href="tile74_29.png" preserveAspectRatio="none" x="13080.322266" y="-3367.30957" width="1.098633" height="1.098633"/>
<image xlink:href="tile74_28.png" preserveAspectRatio="none" x="13080.322266" y="-3368.408203" width="1.098633" height="1.098633"/>
<image xlink:href="tile75_35.png" preserveAspectRatio="none" x="13081.420898" y="-3360.717773" width="1.098633" height="1.098633"/>
<image xlink:href="tile75_34.png" preserveAspectRatio="none" x="13081.420898" y="-3361.816406" width="1.098633" height="1.098633"/>
<image xlink:href="tile75_32.png" preserveAspectRatio="none" x="13081.420898" y="-3364.013672" width="1.098633" height="1.098633"/>
<image xlink:href="tile75_31.png" preserveAspectRatio="none" x="13081.420898" y="-3365.112305" width="1.098633" height="1.098633"/>
<image xlink:href="tile75_30.png" preserveAspectRatio="none" x="13081.420898" y="-3366.210938" width="1.098633" height="1.098633"/>
<image xlink:href="tile75_29.png" preserveAspectRatio="none" x="13081.420898" y="-3367.30957" width="1.098633" height="1.098633"/>
<image xlink:href="tile76_33.png" preserveAspectRatio="none" x="13082.519531" y="-3362.915039" width="1.098633" height="1.098633"/>
<image xlink:href="tile76_32.png" preserveAspectRatio="none" x="13082.519531" y="-3364.013672" width="1.098633" height="1.098633"/>
<image xlink:href="tile76_31.png" preserveAspectRatio="none" x="13082.519531" y="-3365.112305" width="1.098633" height="1.098633"/>
<image xlink:href="tile76_30.png" preserveAspectRatio="none" x="13082.519531" y="-3366.210938" width="1.098633" height="1.098633"/>
<image xlink:href="tile76_29.png" preserveAspectRatio="none" x="13082.519531" y="-3367.30957" width="1.098633" height="1.098633"/>
<image xlink:href="tile77_38.png" preserveAspectRatio="none" x="13083.618164" y="-3357.421875" width="1.098633" height="1.098633"/>
<image xlink:href="tile77_37.png" preserveAspectRatio="none" x="13083.618164" y="-3358.520508" width="1.098633" height="1.098633"/>
<image xlink:href="tile77_36.png" preserveAspectRatio="none" x="13083.618164" y="-3359.619141" width="1.098633" height="1.098633"/>
<image xlink:href="tile77_34.png" preserveAspectRatio="none" x="13083.618164" y="-3361.816406" width="1.098633" height="1.098633"/>
<image xlink:href="tile77_33.png" preserveAspectRatio="none" x="13083.618164" y="-3362.915039" width="1.098633" height="1.098633"/>
<image xlink:href="tile77_32.png" preserveAspectRatio="none" x="13083.618164" y="-3364.013672" width="1.098633" height="1.098633"/>
<image xlink:href="tile77_31.png" preserveAspectRatio="none" x="13083.618164" y="-3365.112305" width="1.098633" height="1.098633"/>
<image xlink:href="tile77_30.png" preserveAspectRatio="none" x="13083.618164" y="-3366.210938" width="1.098633" height="1.098633"/>
<image xlink:href="tile77_29.png" preserveAspectRatio="none" x="13083.618164" y="-3367.30957" width="1.098633" height="1.098633"/>
<image xlink:href="tile78_39.png" preserveAspectRatio="none" x="13084.716797" y="-3356.323242" width="1.098633" height="1.098633"/>
<image xlink:href="tile78_38.png" preserveAspectRatio="none" x="13084.716797" y="-3357.421875" width="1.098633" height="1.098633"/>
<image xlink:href="tile78_37.png" preserveAspectRatio="none" x="13084.716797" y="-3358.520508" width="1.098633" height="1.098633"/>
<image xlink:href="tile78_36.png" preserveAspectRatio="none" x="13084.716797" y="-3359.619141" width="1.098633" height="1.098633"/>
<image xlink:href="tile78_35.png" preserveAspectRatio="none" x="13084.716797" y="-3360.717773" width="1.098633" height="1.098633"/>
<image xlink:href="tile78_34.png" preserveAspectRatio="none" x="13084.716797" y="-3361.816406" width="1.098633" height="1.098633"/>
<image xlink:href="tile78_33.png" preserveAspectRatio="none" x="13084.716797" y="-3362.915039" width="1.098633" height="1.098633"/>
<image xlink:href="tile78_29.png" preserveAspectRatio="none" x="13084.716797" y="-3367.30957" width="1.098633" height="1.098633"/>
<image xlink:href="tile78_28.png" preserveAspectRatio="none" x="13084.716797" y="-3368.408203" width="1.098633" height="1.098633"/>
<image xlink:href="tile79_43.png" preserveAspectRatio="none" x="13085.81543" y="-3351.928711" width="1.098633" height="1.098633"/>
<image xlink:href="tile79_42.png" preserveAspectRatio="none" x="13085.81543" y="-3353.027344" width="1.098633" height="1.098633"/>
<image xlink:href="tile79_41.png" preserveAspectRatio="none" x="13085.81543" y="-3354.125977" width="1.098633" height="1.098633"/>
<image xlink:href="tile79_40.png" preserveAspectRatio="none" x="13085.81543" y="-3355.224609" width="1.098633" height="1.098633"/>
<image xlink:href="tile79_39.png" preserveAspectRatio="none" x="13085.81543" y="-3356.323242" width="1.098633" height="1.098633"/>
<image xlink:href="tile79_38.png" preserveAspectRatio="none" x="13085.81543" y="-3357.421875" width="1.098633" height="1.098633"/>
<image xlink:href="tile79_35.png" preserveAspectRatio="none" x="13085.81543" y="-3360.717773" width="1.098633" height="1.098633"/>
</g>
</svg>
