<?xml version="1.0" encoding="UTF-8"?>
<svg  xmlns="http://www.w3.org/2000/svg" xmlns:xlink="http://www.w3.org/1999/xlink" xmlns:go="http://purl.org/svgmap/profile" viewBox="14001.388924099998 -4000.0 98.51855650000232 66.66666699999979" go:dataArea="14001.388924099998 -4000.0 98.51855650000232 66.66666699999979" >
<metadata>
 <rdf:RDF xmlns:rdf="http://www.w3.org/1999/02/22-rdf-syntax-ns#" xmlns:crs="http://opengis.org/xmldtds/transformations.dtd" xmlns:svg="http://www.w3.org/svg" >
  <rdf:Description>
   <crs:CoordinateReferenceSystem rdf:resource="http://purl.org/crs/84" svg:transform="matrix(100.0,0.0,0.0,-100.0,0.0,0.0)" />
  </rdf:Description>
 </rdf:RDF>
</metadata>
<globalCoordinateSystem srsName="http://purl.org/crs/84" transform="matrix(100.0,0.0,0.0,-100.0,0.0,0.0)" />
<g >
<image xlink:href="tile1_10.png" preserveAspectRatio="none" x="14003.173828" y="-3979.248047" width="2.197266" height="2.197266"/>
<image xlink:href="tile1_4.png" preserveAspectRatio="none" x="14003.173828" y="-3992.431641" width="2.197266" height="2.197266"/>
<image xlink:href="tile1_3.png" preserveAspectRatio="none" x="14003.173828" y="-3994.628906" width="2.197266" height="2.197266"/>
<image xlink:href="tile2_12.png" preserveAspectRatio="none" x="14005.371094" y="-3974.853516" width="2.197266" height="2.197266"/>
<image xlink:href="tile2_10.png" preserveAspectRatio="none" x="14005.371094" y="-3979.248047" width="2.197266" height="2.197266"/>
<image xlink:href="tile2_9.png" preserveAspectRatio="none" x="14005.371094" y="-3981.445312" width="2.197266" height="2.197266"/>
<image xlink:href="tile2_4.png" preserveAspectRatio="none" x="14005.371094" y="-3992.431641" width="2.197266" height="2.197266"/>
<image xlink:href="tile2_3.png" preserveAspectRatio="none" x="14005.371094" y="-3994.628906" width="2.197266" height="2.197266"/>
<image xlink:href="tile2_2.png" preserveAspectRatio="none" x="14005.371094" y="-3996.826172" width="2.197266" height="2.197266"/>
<image xlink:href="tile2_1.png" preserveAspectRatio="none" x="14005.371094" y="-3999.023438" width="2.197266" height="2.197266"/>
<image xlink:href="tile3_14.png" preserveAspectRatio="none" x="14007.568359" y="-3970.458984" width="2.197266" height="2.197266"/>
<image xlink:href="tile3_13.png" preserveAspectRatio="none" x="14007.568359" y="-3972.65625" width="2.197266" height="2.197266"/>
<image xlink:href="tile3_12.png" preserveAspectRatio="none" x="14007.568359" y="-3974.853516" width="2.197266" height="2.197266"/>
<image xlink:href="tile3_11.png" preserveAspectRatio="none" x="14007.568359" y="-3977.050781" width="2.197266" height="2.197266"/>
<image xlink:href="tile3_10.png" preserveAspectRatio="none" x="14007.568359" y="-3979.248047" width="2.197266" height="2.197266"/>
<image xlink:href="tile3_9.png" preserveAspectRatio="none" x="14007.568359" y="-3981.445312" width="2.197266" height="2.197266"/>
<image xlink:href="tile3_4.png" preserveAspectRatio="none" x="14007.568359" y="-3992.431641" width="2.197266" height="2.197266"/>
<image xlink:href="tile3_3.png" preserveAspectRatio="none" x="14007.568359" y="-3994.628906" width="2.197266" height="2.197266"/>
<image xlink:href="tile3_2.png" preserveAspectRatio="none" x="14007.568359" y="-3996.826172" width="2.197266" height="2.197266"/>
<image xlink:href="tile3_1.png" preserveAspectRatio="none" x="14007.568359" y="-3999.023438" width="2.197266" height="2.197266"/>
<image xlink:href="tile4_14.png" preserveAspectRatio="none" x="14009.765625" y="-3970.458984" width="2.197266" height="2.197266"/>
<image xlink:href="tile4_13.png" preserveAspectRatio="none" x="14009.765625" y="-3972.65625" width="2.197266" height="2.197266"/>
<image xlink:href="tile4_12.png" preserveAspectRatio="none" x="14009.765625" y="-3974.853516" width="2.197266" height="2.197266"/>
<image xlink:href="tile4_11.png" preserveAspectRatio="none" x="14009.765625" y="-3977.050781" width="2.197266" height="2.197266"/>
<image xlink:href="tile4_10.png" preserveAspectRatio="none" x="14009.765625" y="-3979.248047" width="2.197266" height="2.197266"/>
<image xlink:href="tile4_9.png" preserveAspectRatio="none" x="14009.765625" y="-3981.445312" width="2.197266" height="2.197266"/>
<image xlink:href="tile4_3.png" preserveAspectRatio="none" x="14009.765625" y="-3994.628906" width="2.197266" height="2.197266"/>
<image xlink:href="tile4_2.png" preserveAspectRatio="none" x="14009.765625" y="-3996.826172" width="2.197266" height="2.197266"/>
<image xlink:href="tile5_14.png" preserveAspectRatio="none" x="14011.962891" y="-3970.458984" width="2.197266" height="2.197266"/>
<image xlink:href="tile5_13.png" preserveAspectRatio="none" x="14011.962891" y="-3972.65625" width="2.197266" height="2.197266"/>
<image xlink:href="tile5_12.png" preserveAspectRatio="none" x="14011.962891" y="-3974.853516" width="2.197266" height="2.197266"/>
<image xlink:href="tile5_11.png" preserveAspectRatio="none" x="14011.962891" y="-3977.050781" width="2.197266" height="2.197266"/>
<image xlink:href="tile5_10.png" preserveAspectRatio="none" x="14011.962891" y="-3979.248047" width="2.197266" height="2.197266"/>
<image xlink:href="tile5_9.png" preserveAspectRatio="none" x="14011.962891" y="-3981.445312" width="2.197266" height="2.197266"/>
<image xlink:href="tile5_4.png" preserveAspectRatio="none" x="14011.962891" y="-3992.431641" width="2.197266" height="2.197266"/>
<image xlink:href="tile5_3.png" preserveAspectRatio="none" x="14011.962891" y="-3994.628906" width="2.197266" height="2.197266"/>
<image xlink:href="tile5_2.png" preserveAspectRatio="none" x="14011.962891" y="-3996.826172" width="2.197266" height="2.197266"/>
<image xlink:href="tile6_14.png" preserveAspectRatio="none" x="14014.160156" y="-3970.458984" width="2.197266" height="2.197266"/>
<image xlink:href="tile6_13.png" preserveAspectRatio="none" x="14014.160156" y="-3972.65625" width="2.197266" height="2.197266"/>
<image xlink:href="tile6_12.png" preserveAspectRatio="none" x="14014.160156" y="-3974.853516" width="2.197266" height="2.197266"/>
<image xlink:href="tile6_11.png" preserveAspectRatio="none" x="14014.160156" y="-3977.050781" width="2.197266" height="2.197266"/>
<image xlink:href="tile6_9.png" preserveAspectRatio="none" x="14014.160156" y="-3981.445312" width="2.197266" height="2.197266"/>
<image xlink:href="tile6_8.png" preserveAspectRatio="none" x="14014.160156" y="-3983.642578" width="2.197266" height="2.197266"/>
<image xlink:href="tile6_4.png" preserveAspectRatio="none" x="14014.160156" y="-3992.431641" width="2.197266" height="2.197266"/>
<image xlink:href="tile6_3.png" preserveAspectRatio="none" x="14014.160156" y="-3994.628906" width="2.197266" height="2.197266"/>
<image xlink:href="tile7_14.png" preserveAspectRatio="none" x="14016.357422" y="-3970.458984" width="2.197266" height="2.197266"/>
<image xlink:href="tile7_13.png" preserveAspectRatio="none" x="14016.357422" y="-3972.65625" width="2.197266" height="2.197266"/>
<image xlink:href="tile7_12.png" preserveAspectRatio="none" x="14016.357422" y="-3974.853516" width="2.197266" height="2.197266"/>
<image xlink:href="tile7_11.png" preserveAspectRatio="none" x="14016.357422" y="-3977.050781" width="2.197266" height="2.197266"/>
<image xlink:href="tile7_10.png" preserveAspectRatio="none" x="14016.357422" y="-3979.248047" width="2.197266" height="2.197266"/>
<image xlink:href="tile7_4.png" preserveAspectRatio="none" x="14016.357422" y="-3992.431641" width="2.197266" height="2.197266"/>
<image xlink:href="tile8_13.png" preserveAspectRatio="none" x="14018.554688" y="-3972.65625" width="2.197266" height="2.197266"/>
<image xlink:href="tile8_12.png" preserveAspectRatio="none" x="14018.554688" y="-3974.853516" width="2.197266" height="2.197266"/>
<image xlink:href="tile8_10.png" preserveAspectRatio="none" x="14018.554688" y="-3979.248047" width="2.197266" height="2.197266"/>
<image xlink:href="tile8_9.png" preserveAspectRatio="none" x="14018.554688" y="-3981.445312" width="2.197266" height="2.197266"/>
<image xlink:href="tile8_4.png" preserveAspectRatio="none" x="14018.554688" y="-3992.431641" width="2.197266" height="2.197266"/>
<image xlink:href="tile9_13.png" preserveAspectRatio="none" x="14020.751953" y="-3972.65625" width="2.197266" height="2.197266"/>
<image xlink:href="tile9_12.png" preserveAspectRatio="none" x="14020.751953" y="-3974.853516" width="2.197266" height="2.197266"/>
<image xlink:href="tile9_9.png" preserveAspectRatio="none" x="14020.751953" y="-3981.445312" width="2.197266" height="2.197266"/>
<image xlink:href="tile9_4.png" preserveAspectRatio="none" x="14020.751953" y="-3992.431641" width="2.197266" height="2.197266"/>
<image xlink:href="tile10_14.png" preserveAspectRatio="none" x="14022.949219" y="-3970.458984" width="2.197266" height="2.197266"/>
<image xlink:href="tile10_12.png" preserveAspectRatio="none" x="14022.949219" y="-3974.853516" width="2.197266" height="2.197266"/>
<image xlink:href="tile11_14.png" preserveAspectRatio="none" x="14025.146484" y="-3970.458984" width="2.197266" height="2.197266"/>
<image xlink:href="tile11_12.png" preserveAspectRatio="none" x="14025.146484" y="-3974.853516" width="2.197266" height="2.197266"/>
<image xlink:href="tile12_14.png" preserveAspectRatio="none" x="14027.34375" y="-3970.458984" width="2.197266" height="2.197266"/>
<image xlink:href="tile12_13.png" preserveAspectRatio="none" x="14027.34375" y="-3972.65625" width="2.197266" height="2.197266"/>
<image xlink:href="tile13_14.png" preserveAspectRatio="none" x="14029.541016" y="-3970.458984" width="2.197266" height="2.197266"/>
<image xlink:href="tile13_13.png" preserveAspectRatio="none" x="14029.541016" y="-3972.65625" width="2.197266" height="2.197266"/>
<image xlink:href="tile14_14.png" preserveAspectRatio="none" x="14031.738281" y="-3970.458984" width="2.197266" height="2.197266"/>
<image xlink:href="tile14_13.png" preserveAspectRatio="none" x="14031.738281" y="-3972.65625" width="2.197266" height="2.197266"/>
<image xlink:href="tile15_14.png" preserveAspectRatio="none" x="14033.935547" y="-3970.458984" width="2.197266" height="2.197266"/>
<image xlink:href="tile15_13.png" preserveAspectRatio="none" x="14033.935547" y="-3972.65625" width="2.197266" height="2.197266"/>
</g>
</svg>
