<?xml version="1.0" encoding="UTF-8"?>
<svg  xmlns="http://www.w3.org/2000/svg" xmlns:xlink="http://www.w3.org/1999/xlink" xmlns:go="http://purl.org/svgmap/profile" viewBox="14200.0 -4513.2291667 62.93750000000102 46.562499699999904" go:dataArea="14200.0 -4513.2291667 62.93750000000102 46.562499699999904" >
<metadata>
 <rdf:RDF xmlns:rdf="http://www.w3.org/1999/02/22-rdf-syntax-ns#" xmlns:crs="http://opengis.org/xmldtds/transformations.dtd" xmlns:svg="http://www.w3.org/svg" >
  <rdf:Description>
   <crs:CoordinateReferenceSystem rdf:resource="http://purl.org/crs/84" svg:transform="matrix(100.0,0.0,0.0,-100.0,0.0,0.0)" />
  </rdf:Description>
 </rdf:RDF>
</metadata>
<globalCoordinateSystem srsName="http://purl.org/crs/84" transform="matrix(100.0,0.0,0.0,-100.0,0.0,0.0)" />
<g >
<image xlink:href="tile0_24.png" preserveAspectRatio="none" x="14199.829102" y="-4487.915039" width="1.098633" height="1.098633"/>
<image xlink:href="tile0_23.png" preserveAspectRatio="none" x="14199.829102" y="-4489.013672" width="1.098633" height="1.098633"/>
<image xlink:href="tile0_22.png" preserveAspectRatio="none" x="14199.829102" y="-4490.112305" width="1.098633" height="1.098633"/>
<image xlink:href="tile0_21.png" preserveAspectRatio="none" x="14199.829102" y="-4491.210938" width="1.098633" height="1.098633"/>
<image xlink:href="tile0_20.png" preserveAspectRatio="none" x="14199.829102" y="-4492.30957" width="1.098633" height="1.098633"/>
<image xlink:href="tile0_19.png" preserveAspectRatio="none" x="14199.829102" y="-4493.408203" width="1.098633" height="1.098633"/>
<image xlink:href="tile1_24.png" preserveAspectRatio="none" x="14200.927734" y="-4487.915039" width="1.098633" height="1.098633"/>
<image xlink:href="tile1_23.png" preserveAspectRatio="none" x="14200.927734" y="-4489.013672" width="1.098633" height="1.098633"/>
<image xlink:href="tile1_22.png" preserveAspectRatio="none" x="14200.927734" y="-4490.112305" width="1.098633" height="1.098633"/>
<image xlink:href="tile1_21.png" preserveAspectRatio="none" x="14200.927734" y="-4491.210938" width="1.098633" height="1.098633"/>
<image xlink:href="tile1_20.png" preserveAspectRatio="none" x="14200.927734" y="-4492.30957" width="1.098633" height="1.098633"/>
<image xlink:href="tile1_19.png" preserveAspectRatio="none" x="14200.927734" y="-4493.408203" width="1.098633" height="1.098633"/>
<image xlink:href="tile2_24.png" preserveAspectRatio="none" x="14202.026367" y="-4487.915039" width="1.098633" height="1.098633"/>
<image xlink:href="tile2_23.png" preserveAspectRatio="none" x="14202.026367" y="-4489.013672" width="1.098633" height="1.098633"/>
<image xlink:href="tile2_22.png" preserveAspectRatio="none" x="14202.026367" y="-4490.112305" width="1.098633" height="1.098633"/>
<image xlink:href="tile2_21.png" preserveAspectRatio="none" x="14202.026367" y="-4491.210938" width="1.098633" height="1.098633"/>
<image xlink:href="tile2_20.png" preserveAspectRatio="none" x="14202.026367" y="-4492.30957" width="1.098633" height="1.098633"/>
<image xlink:href="tile2_19.png" preserveAspectRatio="none" x="14202.026367" y="-4493.408203" width="1.098633" height="1.098633"/>
<image xlink:href="tile2_18.png" preserveAspectRatio="none" x="14202.026367" y="-4494.506836" width="1.098633" height="1.098633"/>
<image xlink:href="tile2_17.png" preserveAspectRatio="none" x="14202.026367" y="-4495.605469" width="1.098633" height="1.098633"/>
<image xlink:href="tile3_25.png" preserveAspectRatio="none" x="14203.125" y="-4486.816406" width="1.098633" height="1.098633"/>
<image xlink:href="tile3_24.png" preserveAspectRatio="none" x="14203.125" y="-4487.915039" width="1.098633" height="1.098633"/>
<image xlink:href="tile3_23.png" preserveAspectRatio="none" x="14203.125" y="-4489.013672" width="1.098633" height="1.098633"/>
<image xlink:href="tile3_22.png" preserveAspectRatio="none" x="14203.125" y="-4490.112305" width="1.098633" height="1.098633"/>
<image xlink:href="tile3_21.png" preserveAspectRatio="none" x="14203.125" y="-4491.210938" width="1.098633" height="1.098633"/>
<image xlink:href="tile3_20.png" preserveAspectRatio="none" x="14203.125" y="-4492.30957" width="1.098633" height="1.098633"/>
<image xlink:href="tile3_19.png" preserveAspectRatio="none" x="14203.125" y="-4493.408203" width="1.098633" height="1.098633"/>
<image xlink:href="tile3_18.png" preserveAspectRatio="none" x="14203.125" y="-4494.506836" width="1.098633" height="1.098633"/>
<image xlink:href="tile3_17.png" preserveAspectRatio="none" x="14203.125" y="-4495.605469" width="1.098633" height="1.098633"/>
<image xlink:href="tile3_16.png" preserveAspectRatio="none" x="14203.125" y="-4496.704102" width="1.098633" height="1.098633"/>
<image xlink:href="tile4_27.png" preserveAspectRatio="none" x="14204.223633" y="-4484.619141" width="1.098633" height="1.098633"/>
<image xlink:href="tile4_26.png" preserveAspectRatio="none" x="14204.223633" y="-4485.717773" width="1.098633" height="1.098633"/>
<image xlink:href="tile4_25.png" preserveAspectRatio="none" x="14204.223633" y="-4486.816406" width="1.098633" height="1.098633"/>
<image xlink:href="tile4_24.png" preserveAspectRatio="none" x="14204.223633" y="-4487.915039" width="1.098633" height="1.098633"/>
<image xlink:href="tile4_23.png" preserveAspectRatio="none" x="14204.223633" y="-4489.013672" width="1.098633" height="1.098633"/>
<image xlink:href="tile4_22.png" preserveAspectRatio="none" x="14204.223633" y="-4490.112305" width="1.098633" height="1.098633"/>
<image xlink:href="tile4_19.png" preserveAspectRatio="none" x="14204.223633" y="-4493.408203" width="1.098633" height="1.098633"/>
<image xlink:href="tile4_18.png" preserveAspectRatio="none" x="14204.223633" y="-4494.506836" width="1.098633" height="1.098633"/>
<image xlink:href="tile4_17.png" preserveAspectRatio="none" x="14204.223633" y="-4495.605469" width="1.098633" height="1.098633"/>
<image xlink:href="tile4_16.png" preserveAspectRatio="none" x="14204.223633" y="-4496.704102" width="1.098633" height="1.098633"/>
<image xlink:href="tile4_15.png" preserveAspectRatio="none" x="14204.223633" y="-4497.802734" width="1.098633" height="1.098633"/>
<image xlink:href="tile5_27.png" preserveAspectRatio="none" x="14205.322266" y="-4484.619141" width="1.098633" height="1.098633"/>
<image xlink:href="tile5_26.png" preserveAspectRatio="none" x="14205.322266" y="-4485.717773" width="1.098633" height="1.098633"/>
<image xlink:href="tile5_25.png" preserveAspectRatio="none" x="14205.322266" y="-4486.816406" width="1.098633" height="1.098633"/>
<image xlink:href="tile5_24.png" preserveAspectRatio="none" x="14205.322266" y="-4487.915039" width="1.098633" height="1.098633"/>
<image xlink:href="tile5_18.png" preserveAspectRatio="none" x="14205.322266" y="-4494.506836" width="1.098633" height="1.098633"/>
<image xlink:href="tile5_17.png" preserveAspectRatio="none" x="14205.322266" y="-4495.605469" width="1.098633" height="1.098633"/>
<image xlink:href="tile5_16.png" preserveAspectRatio="none" x="14205.322266" y="-4496.704102" width="1.098633" height="1.098633"/>
<image xlink:href="tile5_15.png" preserveAspectRatio="none" x="14205.322266" y="-4497.802734" width="1.098633" height="1.098633"/>
<image xlink:href="tile6_27.png" preserveAspectRatio="none" x="14206.420898" y="-4484.619141" width="1.098633" height="1.098633"/>
<image xlink:href="tile6_26.png" preserveAspectRatio="none" x="14206.420898" y="-4485.717773" width="1.098633" height="1.098633"/>
<image xlink:href="tile6_25.png" preserveAspectRatio="none" x="14206.420898" y="-4486.816406" width="1.098633" height="1.098633"/>
<image xlink:href="tile6_16.png" preserveAspectRatio="none" x="14206.420898" y="-4496.704102" width="1.098633" height="1.098633"/>
<image xlink:href="tile6_15.png" preserveAspectRatio="none" x="14206.420898" y="-4497.802734" width="1.098633" height="1.098633"/>
<image xlink:href="tile6_14.png" preserveAspectRatio="none" x="14206.420898" y="-4498.901367" width="1.098633" height="1.098633"/>
<image xlink:href="tile7_27.png" preserveAspectRatio="none" x="14207.519531" y="-4484.619141" width="1.098633" height="1.098633"/>
<image xlink:href="tile7_26.png" preserveAspectRatio="none" x="14207.519531" y="-4485.717773" width="1.098633" height="1.098633"/>
<image xlink:href="tile7_15.png" preserveAspectRatio="none" x="14207.519531" y="-4497.802734" width="1.098633" height="1.098633"/>
<image xlink:href="tile7_14.png" preserveAspectRatio="none" x="14207.519531" y="-4498.901367" width="1.098633" height="1.098633"/>
<image xlink:href="tile7_13.png" preserveAspectRatio="none" x="14207.519531" y="-4500" width="1.098633" height="1.098633"/>
<image xlink:href="tile7_12.png" preserveAspectRatio="none" x="14207.519531" y="-4501.098633" width="1.098633" height="1.098633"/>
<image xlink:href="tile8_27.png" preserveAspectRatio="none" x="14208.618164" y="-4484.619141" width="1.098633" height="1.098633"/>
<image xlink:href="tile8_26.png" preserveAspectRatio="none" x="14208.618164" y="-4485.717773" width="1.098633" height="1.098633"/>
<image xlink:href="tile8_13.png" preserveAspectRatio="none" x="14208.618164" y="-4500" width="1.098633" height="1.098633"/>
<image xlink:href="tile8_12.png" preserveAspectRatio="none" x="14208.618164" y="-4501.098633" width="1.098633" height="1.098633"/>
</g>
</svg>
