<?xml version="1.0" encoding="UTF-8"?>
<svg  xmlns="http://www.w3.org/2000/svg" xmlns:xlink="http://www.w3.org/1999/xlink" xmlns:go="http://purl.org/svgmap/profile" viewBox="14100.0 -4066.666667 90.11998990000052 66.66666699999979" go:dataArea="14100.0 -4066.666667 90.11998990000052 66.66666699999979" >
<metadata>
 <rdf:RDF xmlns:rdf="http://www.w3.org/1999/02/22-rdf-syntax-ns#" xmlns:crs="http://opengis.org/xmldtds/transformations.dtd" xmlns:svg="http://www.w3.org/svg" >
  <rdf:Description>
   <crs:CoordinateReferenceSystem rdf:resource="http://purl.org/crs/84" svg:transform="matrix(100.0,0.0,0.0,-100.0,0.0,0.0)" />
  </rdf:Description>
 </rdf:RDF>
</metadata>
<globalCoordinateSystem srsName="http://purl.org/crs/84" transform="matrix(100.0,0.0,0.0,-100.0,0.0,0.0)" />
<g >
<image xlink:href="tile0_7.png" preserveAspectRatio="none" x="14097.65625" y="-4007.8125" width="8.789062" height="8.789062"/>
<image xlink:href="tile0_6.png" preserveAspectRatio="none" x="14097.65625" y="-4016.601562" width="8.789062" height="8.789062"/>
<image xlink:href="tile0_4.png" preserveAspectRatio="none" x="14097.65625" y="-4034.179688" width="8.789062" height="8.789062"/>
<image xlink:href="tile0_1.png" preserveAspectRatio="none" x="14097.65625" y="-4060.546875" width="8.789062" height="8.789062"/>
<image xlink:href="tile1_6.png" preserveAspectRatio="none" x="14106.445312" y="-4016.601562" width="8.789062" height="8.789062"/>
<image xlink:href="tile1_5.png" preserveAspectRatio="none" x="14106.445312" y="-4025.390625" width="8.789062" height="8.789062"/>
<image xlink:href="tile1_4.png" preserveAspectRatio="none" x="14106.445312" y="-4034.179688" width="8.789062" height="8.789062"/>
<image xlink:href="tile1_3.png" preserveAspectRatio="none" x="14106.445312" y="-4042.96875" width="8.789062" height="8.789062"/>
<image xlink:href="tile1_2.png" preserveAspectRatio="none" x="14106.445312" y="-4051.757812" width="8.789062" height="8.789062"/>
<image xlink:href="tile1_1.png" preserveAspectRatio="none" x="14106.445312" y="-4060.546875" width="8.789062" height="8.789062"/>
<image xlink:href="tile2_7.png" preserveAspectRatio="none" x="14115.234375" y="-4007.8125" width="8.789062" height="8.789062"/>
<image xlink:href="tile2_5.png" preserveAspectRatio="none" x="14115.234375" y="-4025.390625" width="8.789062" height="8.789062"/>
<image xlink:href="tile2_4.png" preserveAspectRatio="none" x="14115.234375" y="-4034.179688" width="8.789062" height="8.789062"/>
<image xlink:href="tile2_3.png" preserveAspectRatio="none" x="14115.234375" y="-4042.96875" width="8.789062" height="8.789062"/>
<image xlink:href="tile2_2.png" preserveAspectRatio="none" x="14115.234375" y="-4051.757812" width="8.789062" height="8.789062"/>
<image xlink:href="tile2_1.png" preserveAspectRatio="none" x="14115.234375" y="-4060.546875" width="8.789062" height="8.789062"/>
<image xlink:href="tile2_0.png" preserveAspectRatio="none" x="14115.234375" y="-4069.335938" width="8.789062" height="8.789062"/>
<image xlink:href="tile3_7.png" preserveAspectRatio="none" x="14124.023438" y="-4007.8125" width="8.789062" height="8.789062"/>
<image xlink:href="tile3_6.png" preserveAspectRatio="none" x="14124.023438" y="-4016.601562" width="8.789062" height="8.789062"/>
<image xlink:href="tile3_5.png" preserveAspectRatio="none" x="14124.023438" y="-4025.390625" width="8.789062" height="8.789062"/>
<image xlink:href="tile3_4.png" preserveAspectRatio="none" x="14124.023438" y="-4034.179688" width="8.789062" height="8.789062"/>
<image xlink:href="tile3_3.png" preserveAspectRatio="none" x="14124.023438" y="-4042.96875" width="8.789062" height="8.789062"/>
<image xlink:href="tile3_2.png" preserveAspectRatio="none" x="14124.023438" y="-4051.757812" width="8.789062" height="8.789062"/>
<image xlink:href="tile3_1.png" preserveAspectRatio="none" x="14124.023438" y="-4060.546875" width="8.789062" height="8.789062"/>
<image xlink:href="tile4_7.png" preserveAspectRatio="none" x="14132.8125" y="-4007.8125" width="8.789062" height="8.789062"/>
<image xlink:href="tile4_6.png" preserveAspectRatio="none" x="14132.8125" y="-4016.601562" width="8.789062" height="8.789062"/>
<image xlink:href="tile4_5.png" preserveAspectRatio="none" x="14132.8125" y="-4025.390625" width="8.789062" height="8.789062"/>
<image xlink:href="tile4_4.png" preserveAspectRatio="none" x="14132.8125" y="-4034.179688" width="8.789062" height="8.789062"/>
<image xlink:href="tile4_3.png" preserveAspectRatio="none" x="14132.8125" y="-4042.96875" width="8.789062" height="8.789062"/>
<image xlink:href="tile4_2.png" preserveAspectRatio="none" x="14132.8125" y="-4051.757812" width="8.789062" height="8.789062"/>
<image xlink:href="tile4_1.png" preserveAspectRatio="none" x="14132.8125" y="-4060.546875" width="8.789062" height="8.789062"/>
<image xlink:href="tile4_0.png" preserveAspectRatio="none" x="14132.8125" y="-4069.335938" width="8.789062" height="8.789062"/>
<image xlink:href="tile5_7.png" preserveAspectRatio="none" x="14141.601562" y="-4007.8125" width="8.789062" height="8.789062"/>
<image xlink:href="tile5_6.png" preserveAspectRatio="none" x="14141.601562" y="-4016.601562" width="8.789062" height="8.789062"/>
<image xlink:href="tile5_5.png" preserveAspectRatio="none" x="14141.601562" y="-4025.390625" width="8.789062" height="8.789062"/>
<image xlink:href="tile5_4.png" preserveAspectRatio="none" x="14141.601562" y="-4034.179688" width="8.789062" height="8.789062"/>
<image xlink:href="tile5_3.png" preserveAspectRatio="none" x="14141.601562" y="-4042.96875" width="8.789062" height="8.789062"/>
<image xlink:href="tile5_2.png" preserveAspectRatio="none" x="14141.601562" y="-4051.757812" width="8.789062" height="8.789062"/>
<image xlink:href="tile5_1.png" preserveAspectRatio="none" x="14141.601562" y="-4060.546875" width="8.789062" height="8.789062"/>
<image xlink:href="tile5_0.png" preserveAspectRatio="none" x="14141.601562" y="-4069.335938" width="8.789062" height="8.789062"/>
<image xlink:href="tile6_6.png" preserveAspectRatio="none" x="14150.390625" y="-4016.601562" width="8.789062" height="8.789062"/>
<image xlink:href="tile6_4.png" preserveAspectRatio="none" x="14150.390625" y="-4034.179688" width="8.789062" height="8.789062"/>
<image xlink:href="tile6_3.png" preserveAspectRatio="none" x="14150.390625" y="-4042.96875" width="8.789062" height="8.789062"/>
<image xlink:href="tile6_2.png" preserveAspectRatio="none" x="14150.390625" y="-4051.757812" width="8.789062" height="8.789062"/>
<image xlink:href="tile6_1.png" preserveAspectRatio="none" x="14150.390625" y="-4060.546875" width="8.789062" height="8.789062"/>
<image xlink:href="tile7_6.png" preserveAspectRatio="none" x="14159.179688" y="-4016.601562" width="8.789062" height="8.789062"/>
<image xlink:href="tile7_5.png" preserveAspectRatio="none" x="14159.179688" y="-4025.390625" width="8.789062" height="8.789062"/>
<image xlink:href="tile8_7.png" preserveAspectRatio="none" x="14167.96875" y="-4007.8125" width="8.789062" height="8.789062"/>
<image xlink:href="tile8_6.png" preserveAspectRatio="none" x="14167.96875" y="-4016.601562" width="8.789062" height="8.789062"/>
<image xlink:href="tile8_5.png" preserveAspectRatio="none" x="14167.96875" y="-4025.390625" width="8.789062" height="8.789062"/>
<image xlink:href="tile9_7.png" preserveAspectRatio="none" x="14176.757812" y="-4007.8125" width="8.789062" height="8.789062"/>
<image xlink:href="tile9_6.png" preserveAspectRatio="none" x="14176.757812" y="-4016.601562" width="8.789062" height="8.789062"/>
<image xlink:href="tile9_5.png" preserveAspectRatio="none" x="14176.757812" y="-4025.390625" width="8.789062" height="8.789062"/>
<image xlink:href="tile10_7.png" preserveAspectRatio="none" x="14185.546875" y="-4007.8125" width="8.789062" height="8.789062"/>
</g>
</svg>
