<?xml version="1.0" encoding="UTF-8"?>
<svg  xmlns="http://www.w3.org/2000/svg" xmlns:xlink="http://www.w3.org/1999/xlink" xmlns:go="http://purl.org/svgmap/profile" viewBox="14000.1196316 -4066.666667 99.8803683999995 66.66666699999979" go:dataArea="14000.1196316 -4066.666667 99.8803683999995 66.66666699999979" >
<metadata>
 <rdf:RDF xmlns:rdf="http://www.w3.org/1999/02/22-rdf-syntax-ns#" xmlns:crs="http://opengis.org/xmldtds/transformations.dtd" xmlns:svg="http://www.w3.org/svg" >
  <rdf:Description>
   <crs:CoordinateReferenceSystem rdf:resource="http://purl.org/crs/84" svg:transform="matrix(100.0,0.0,0.0,-100.0,0.0,0.0)" />
  </rdf:Description>
 </rdf:RDF>
</metadata>
<globalCoordinateSystem srsName="http://purl.org/crs/84" transform="matrix(100.0,0.0,0.0,-100.0,0.0,0.0)" />
<g >
<image xlink:href="tile0_4.png" preserveAspectRatio="none" x="13992.1875" y="-4007.8125" width="17.578125" height="17.578125"/>
<image xlink:href="tile0_3.png" preserveAspectRatio="none" x="13992.1875" y="-4025.390625" width="17.578125" height="17.578125"/>
<image xlink:href="tile1_4.png" preserveAspectRatio="none" x="14009.765625" y="-4007.8125" width="17.578125" height="17.578125"/>
<image xlink:href="tile1_3.png" preserveAspectRatio="none" x="14009.765625" y="-4025.390625" width="17.578125" height="17.578125"/>
<image xlink:href="tile1_2.png" preserveAspectRatio="none" x="14009.765625" y="-4042.96875" width="17.578125" height="17.578125"/>
<image xlink:href="tile2_4.png" preserveAspectRatio="none" x="14027.34375" y="-4007.8125" width="17.578125" height="17.578125"/>
<image xlink:href="tile2_3.png" preserveAspectRatio="none" x="14027.34375" y="-4025.390625" width="17.578125" height="17.578125"/>
<image xlink:href="tile2_2.png" preserveAspectRatio="none" x="14027.34375" y="-4042.96875" width="17.578125" height="17.578125"/>
<image xlink:href="tile2_1.png" preserveAspectRatio="none" x="14027.34375" y="-4060.546875" width="17.578125" height="17.578125"/>
<image xlink:href="tile2_0.png" preserveAspectRatio="none" x="14027.34375" y="-4078.125" width="17.578125" height="17.578125"/>
<image xlink:href="tile3_3.png" preserveAspectRatio="none" x="14044.921875" y="-4025.390625" width="17.578125" height="17.578125"/>
<image xlink:href="tile3_2.png" preserveAspectRatio="none" x="14044.921875" y="-4042.96875" width="17.578125" height="17.578125"/>
<image xlink:href="tile3_1.png" preserveAspectRatio="none" x="14044.921875" y="-4060.546875" width="17.578125" height="17.578125"/>
<image xlink:href="tile3_0.png" preserveAspectRatio="none" x="14044.921875" y="-4078.125" width="17.578125" height="17.578125"/>
<image xlink:href="tile4_4.png" preserveAspectRatio="none" x="14062.5" y="-4007.8125" width="17.578125" height="17.578125"/>
<image xlink:href="tile4_3.png" preserveAspectRatio="none" x="14062.5" y="-4025.390625" width="17.578125" height="17.578125"/>
<image xlink:href="tile4_2.png" preserveAspectRatio="none" x="14062.5" y="-4042.96875" width="17.578125" height="17.578125"/>
<image xlink:href="tile5_4.png" preserveAspectRatio="none" x="14080.078125" y="-4007.8125" width="17.578125" height="17.578125"/>
<image xlink:href="tile5_3.png" preserveAspectRatio="none" x="14080.078125" y="-4025.390625" width="17.578125" height="17.578125"/>
<image xlink:href="tile5_2.png" preserveAspectRatio="none" x="14080.078125" y="-4042.96875" width="17.578125" height="17.578125"/>
<image xlink:href="tile6_4.png" preserveAspectRatio="none" x="14097.65625" y="-4007.8125" width="17.578125" height="17.578125"/>
<image xlink:href="tile6_2.png" preserveAspectRatio="none" x="14097.65625" y="-4042.96875" width="17.578125" height="17.578125"/>
<image xlink:href="tile6_1.png" preserveAspectRatio="none" x="14097.65625" y="-4060.546875" width="17.578125" height="17.578125"/>
</g>
</svg>
