<?xml version="1.0" encoding="UTF-8"?>
<svg  xmlns="http://www.w3.org/2000/svg" xmlns:xlink="http://www.w3.org/1999/xlink" xmlns:go="http://purl.org/svgmap/profile" viewBox="13961.5875 -3929.1660776 38.41250000000116 62.49941089999993" go:dataArea="13961.5875 -3929.1660776 38.41250000000116 62.49941089999993" >
<metadata>
 <rdf:RDF xmlns:rdf="http://www.w3.org/1999/02/22-rdf-syntax-ns#" xmlns:crs="http://opengis.org/xmldtds/transformations.dtd" xmlns:svg="http://www.w3.org/svg" >
  <rdf:Description>
   <crs:CoordinateReferenceSystem rdf:resource="http://purl.org/crs/84" svg:transform="matrix(100.0,0.0,0.0,-100.0,0.0,0.0)" />
  </rdf:Description>
 </rdf:RDF>
</metadata>
<globalCoordinateSystem srsName="http://purl.org/crs/84" transform="matrix(100.0,0.0,0.0,-100.0,0.0,0.0)" />
<g >
<image xlink:href="tile0_15.png" preserveAspectRatio="none" x="13961.425781" y="-3867.1875" width="4.394531" height="4.394531"/>
<image xlink:href="tile0_14.png" preserveAspectRatio="none" x="13961.425781" y="-3871.582031" width="4.394531" height="4.394531"/>
<image xlink:href="tile1_14.png" preserveAspectRatio="none" x="13965.820312" y="-3871.582031" width="4.394531" height="4.394531"/>
<image xlink:href="tile2_15.png" preserveAspectRatio="none" x="13970.214844" y="-3867.1875" width="4.394531" height="4.394531"/>
<image xlink:href="tile2_14.png" preserveAspectRatio="none" x="13970.214844" y="-3871.582031" width="4.394531" height="4.394531"/>
<image xlink:href="tile2_13.png" preserveAspectRatio="none" x="13970.214844" y="-3875.976562" width="4.394531" height="4.394531"/>
<image xlink:href="tile3_14.png" preserveAspectRatio="none" x="13974.609375" y="-3871.582031" width="4.394531" height="4.394531"/>
<image xlink:href="tile3_13.png" preserveAspectRatio="none" x="13974.609375" y="-3875.976562" width="4.394531" height="4.394531"/>
<image xlink:href="tile3_12.png" preserveAspectRatio="none" x="13974.609375" y="-3880.371094" width="4.394531" height="4.394531"/>
<image xlink:href="tile4_15.png" preserveAspectRatio="none" x="13979.003906" y="-3867.1875" width="4.394531" height="4.394531"/>
<image xlink:href="tile4_14.png" preserveAspectRatio="none" x="13979.003906" y="-3871.582031" width="4.394531" height="4.394531"/>
<image xlink:href="tile4_13.png" preserveAspectRatio="none" x="13979.003906" y="-3875.976562" width="4.394531" height="4.394531"/>
<image xlink:href="tile4_12.png" preserveAspectRatio="none" x="13979.003906" y="-3880.371094" width="4.394531" height="4.394531"/>
<image xlink:href="tile4_11.png" preserveAspectRatio="none" x="13979.003906" y="-3884.765625" width="4.394531" height="4.394531"/>
<image xlink:href="tile4_10.png" preserveAspectRatio="none" x="13979.003906" y="-3889.160156" width="4.394531" height="4.394531"/>
<image xlink:href="tile4_9.png" preserveAspectRatio="none" x="13979.003906" y="-3893.554688" width="4.394531" height="4.394531"/>
<image xlink:href="tile4_8.png" preserveAspectRatio="none" x="13979.003906" y="-3897.949219" width="4.394531" height="4.394531"/>
<image xlink:href="tile5_15.png" preserveAspectRatio="none" x="13983.398438" y="-3867.1875" width="4.394531" height="4.394531"/>
<image xlink:href="tile5_14.png" preserveAspectRatio="none" x="13983.398438" y="-3871.582031" width="4.394531" height="4.394531"/>
<image xlink:href="tile5_13.png" preserveAspectRatio="none" x="13983.398438" y="-3875.976562" width="4.394531" height="4.394531"/>
<image xlink:href="tile5_12.png" preserveAspectRatio="none" x="13983.398438" y="-3880.371094" width="4.394531" height="4.394531"/>
<image xlink:href="tile5_11.png" preserveAspectRatio="none" x="13983.398438" y="-3884.765625" width="4.394531" height="4.394531"/>
<image xlink:href="tile5_10.png" preserveAspectRatio="none" x="13983.398438" y="-3889.160156" width="4.394531" height="4.394531"/>
<image xlink:href="tile5_9.png" preserveAspectRatio="none" x="13983.398438" y="-3893.554688" width="4.394531" height="4.394531"/>
<image xlink:href="tile5_8.png" preserveAspectRatio="none" x="13983.398438" y="-3897.949219" width="4.394531" height="4.394531"/>
<image xlink:href="tile5_7.png" preserveAspectRatio="none" x="13983.398438" y="-3902.34375" width="4.394531" height="4.394531"/>
<image xlink:href="tile5_6.png" preserveAspectRatio="none" x="13983.398438" y="-3906.738281" width="4.394531" height="4.394531"/>
<image xlink:href="tile5_5.png" preserveAspectRatio="none" x="13983.398438" y="-3911.132812" width="4.394531" height="4.394531"/>
<image xlink:href="tile6_13.png" preserveAspectRatio="none" x="13987.792969" y="-3875.976562" width="4.394531" height="4.394531"/>
<image xlink:href="tile6_12.png" preserveAspectRatio="none" x="13987.792969" y="-3880.371094" width="4.394531" height="4.394531"/>
<image xlink:href="tile6_11.png" preserveAspectRatio="none" x="13987.792969" y="-3884.765625" width="4.394531" height="4.394531"/>
<image xlink:href="tile6_10.png" preserveAspectRatio="none" x="13987.792969" y="-3889.160156" width="4.394531" height="4.394531"/>
<image xlink:href="tile6_9.png" preserveAspectRatio="none" x="13987.792969" y="-3893.554688" width="4.394531" height="4.394531"/>
<image xlink:href="tile6_8.png" preserveAspectRatio="none" x="13987.792969" y="-3897.949219" width="4.394531" height="4.394531"/>
<image xlink:href="tile6_7.png" preserveAspectRatio="none" x="13987.792969" y="-3902.34375" width="4.394531" height="4.394531"/>
<image xlink:href="tile6_6.png" preserveAspectRatio="none" x="13987.792969" y="-3906.738281" width="4.394531" height="4.394531"/>
<image xlink:href="tile6_5.png" preserveAspectRatio="none" x="13987.792969" y="-3911.132812" width="4.394531" height="4.394531"/>
<image xlink:href="tile6_2.png" preserveAspectRatio="none" x="13987.792969" y="-3924.316406" width="4.394531" height="4.394531"/>
<image xlink:href="tile6_1.png" preserveAspectRatio="none" x="13987.792969" y="-3928.710938" width="4.394531" height="4.394531"/>
<image xlink:href="tile7_13.png" preserveAspectRatio="none" x="13992.1875" y="-3875.976562" width="4.394531" height="4.394531"/>
<image xlink:href="tile7_12.png" preserveAspectRatio="none" x="13992.1875" y="-3880.371094" width="4.394531" height="4.394531"/>
<image xlink:href="tile7_11.png" preserveAspectRatio="none" x="13992.1875" y="-3884.765625" width="4.394531" height="4.394531"/>
<image xlink:href="tile7_10.png" preserveAspectRatio="none" x="13992.1875" y="-3889.160156" width="4.394531" height="4.394531"/>
<image xlink:href="tile7_9.png" preserveAspectRatio="none" x="13992.1875" y="-3893.554688" width="4.394531" height="4.394531"/>
<image xlink:href="tile7_8.png" preserveAspectRatio="none" x="13992.1875" y="-3897.949219" width="4.394531" height="4.394531"/>
<image xlink:href="tile7_7.png" preserveAspectRatio="none" x="13992.1875" y="-3902.34375" width="4.394531" height="4.394531"/>
<image xlink:href="tile7_6.png" preserveAspectRatio="none" x="13992.1875" y="-3906.738281" width="4.394531" height="4.394531"/>
<image xlink:href="tile7_2.png" preserveAspectRatio="none" x="13992.1875" y="-3924.316406" width="4.394531" height="4.394531"/>
<image xlink:href="tile7_1.png" preserveAspectRatio="none" x="13992.1875" y="-3928.710938" width="4.394531" height="4.394531"/>
<image xlink:href="tile7_0.png" preserveAspectRatio="none" x="13992.1875" y="-3933.105469" width="4.394531" height="4.394531"/>
<image xlink:href="tile8_15.png" preserveAspectRatio="none" x="13996.582031" y="-3867.1875" width="4.394531" height="4.394531"/>
<image xlink:href="tile8_14.png" preserveAspectRatio="none" x="13996.582031" y="-3871.582031" width="4.394531" height="4.394531"/>
<image xlink:href="tile8_12.png" preserveAspectRatio="none" x="13996.582031" y="-3880.371094" width="4.394531" height="4.394531"/>
<image xlink:href="tile8_11.png" preserveAspectRatio="none" x="13996.582031" y="-3884.765625" width="4.394531" height="4.394531"/>
<image xlink:href="tile8_10.png" preserveAspectRatio="none" x="13996.582031" y="-3889.160156" width="4.394531" height="4.394531"/>
<image xlink:href="tile8_9.png" preserveAspectRatio="none" x="13996.582031" y="-3893.554688" width="4.394531" height="4.394531"/>
<image xlink:href="tile8_8.png" preserveAspectRatio="none" x="13996.582031" y="-3897.949219" width="4.394531" height="4.394531"/>
<image xlink:href="tile8_7.png" preserveAspectRatio="none" x="13996.582031" y="-3902.34375" width="4.394531" height="4.394531"/>
<image xlink:href="tile8_3.png" preserveAspectRatio="none" x="13996.582031" y="-3919.921875" width="4.394531" height="4.394531"/>
<image xlink:href="tile8_2.png" preserveAspectRatio="none" x="13996.582031" y="-3924.316406" width="4.394531" height="4.394531"/>
<image xlink:href="tile8_1.png" preserveAspectRatio="none" x="13996.582031" y="-3928.710938" width="4.394531" height="4.394531"/>
</g>
</svg>
