<?xml version="1.0" encoding="UTF-8"?>
<svg  xmlns="http://www.w3.org/2000/svg" xmlns:xlink="http://www.w3.org/1999/xlink" xmlns:go="http://purl.org/svgmap/profile" viewBox="12767.15625 -2640.9879611 20.102343300000314 22.78796110000023" go:dataArea="12767.15625 -2640.9879611 20.102343300000314 22.78796110000023" >
<metadata>
 <rdf:RDF xmlns:rdf="http://www.w3.org/1999/02/22-rdf-syntax-ns#" xmlns:crs="http://opengis.org/xmldtds/transformations.dtd" xmlns:svg="http://www.w3.org/svg" >
  <rdf:Description>
   <crs:CoordinateReferenceSystem rdf:resource="http://purl.org/crs/84" svg:transform="matrix(100.0,0.0,0.0,-100.0,0.0,0.0)" />
  </rdf:Description>
 </rdf:RDF>
</metadata>
<globalCoordinateSystem srsName="http://purl.org/crs/84" transform="matrix(100.0,0.0,0.0,-100.0,0.0,0.0)" />
<g >
<image xlink:href="tile0_9.png" preserveAspectRatio="none" x="12766.113281" y="-2621.337891" width="2.197266" height="2.197266"/>
<image xlink:href="tile0_8.png" preserveAspectRatio="none" x="12766.113281" y="-2623.535156" width="2.197266" height="2.197266"/>
<image xlink:href="tile1_10.png" preserveAspectRatio="none" x="12768.310547" y="-2619.140625" width="2.197266" height="2.197266"/>
<image xlink:href="tile1_9.png" preserveAspectRatio="none" x="12768.310547" y="-2621.337891" width="2.197266" height="2.197266"/>
<image xlink:href="tile1_8.png" preserveAspectRatio="none" x="12768.310547" y="-2623.535156" width="2.197266" height="2.197266"/>
<image xlink:href="tile1_7.png" preserveAspectRatio="none" x="12768.310547" y="-2625.732422" width="2.197266" height="2.197266"/>
<image xlink:href="tile2_10.png" preserveAspectRatio="none" x="12770.507812" y="-2619.140625" width="2.197266" height="2.197266"/>
<image xlink:href="tile2_9.png" preserveAspectRatio="none" x="12770.507812" y="-2621.337891" width="2.197266" height="2.197266"/>
<image xlink:href="tile2_8.png" preserveAspectRatio="none" x="12770.507812" y="-2623.535156" width="2.197266" height="2.197266"/>
<image xlink:href="tile3_9.png" preserveAspectRatio="none" x="12772.705078" y="-2621.337891" width="2.197266" height="2.197266"/>
<image xlink:href="tile3_8.png" preserveAspectRatio="none" x="12772.705078" y="-2623.535156" width="2.197266" height="2.197266"/>
<image xlink:href="tile3_2.png" preserveAspectRatio="none" x="12772.705078" y="-2636.71875" width="2.197266" height="2.197266"/>
<image xlink:href="tile4_8.png" preserveAspectRatio="none" x="12774.902344" y="-2623.535156" width="2.197266" height="2.197266"/>
<image xlink:href="tile4_2.png" preserveAspectRatio="none" x="12774.902344" y="-2636.71875" width="2.197266" height="2.197266"/>
<image xlink:href="tile4_1.png" preserveAspectRatio="none" x="12774.902344" y="-2638.916016" width="2.197266" height="2.197266"/>
<image xlink:href="tile5_8.png" preserveAspectRatio="none" x="12777.099609" y="-2623.535156" width="2.197266" height="2.197266"/>
<image xlink:href="tile5_2.png" preserveAspectRatio="none" x="12777.099609" y="-2636.71875" width="2.197266" height="2.197266"/>
<image xlink:href="tile5_1.png" preserveAspectRatio="none" x="12777.099609" y="-2638.916016" width="2.197266" height="2.197266"/>
<image xlink:href="tile6_3.png" preserveAspectRatio="none" x="12779.296875" y="-2634.521484" width="2.197266" height="2.197266"/>
<image xlink:href="tile6_2.png" preserveAspectRatio="none" x="12779.296875" y="-2636.71875" width="2.197266" height="2.197266"/>
<image xlink:href="tile6_1.png" preserveAspectRatio="none" x="12779.296875" y="-2638.916016" width="2.197266" height="2.197266"/>
<image xlink:href="tile6_0.png" preserveAspectRatio="none" x="12779.296875" y="-2641.113281" width="2.197266" height="2.197266"/>
<image xlink:href="tile7_1.png" preserveAspectRatio="none" x="12781.494141" y="-2638.916016" width="2.197266" height="2.197266"/>
<image xlink:href="tile7_0.png" preserveAspectRatio="none" x="12781.494141" y="-2641.113281" width="2.197266" height="2.197266"/>
<image xlink:href="tile8_1.png" preserveAspectRatio="none" x="12783.691406" y="-2638.916016" width="2.197266" height="2.197266"/>
<image xlink:href="tile8_0.png" preserveAspectRatio="none" x="12783.691406" y="-2641.113281" width="2.197266" height="2.197266"/>
<image xlink:href="tile9_1.png" preserveAspectRatio="none" x="12785.888672" y="-2638.916016" width="2.197266" height="2.197266"/>
</g>
</svg>
