<?xml version="1.0" encoding="UTF-8"?>
<svg  xmlns="http://www.w3.org/2000/svg" xmlns:xlink="http://www.w3.org/1999/xlink" xmlns:go="http://purl.org/svgmap/profile" viewBox="14000.0 -3733.333333 99.84643919999883 66.66666600000042" go:dataArea="14000.0 -3733.333333 99.84643919999883 66.66666600000042" >
<metadata>
 <rdf:RDF xmlns:rdf="http://www.w3.org/1999/02/22-rdf-syntax-ns#" xmlns:crs="http://opengis.org/xmldtds/transformations.dtd" xmlns:svg="http://www.w3.org/svg" >
  <rdf:Description>
   <crs:CoordinateReferenceSystem rdf:resource="http://purl.org/crs/84" svg:transform="matrix(100.0,0.0,0.0,-100.0,0.0,0.0)" />
  </rdf:Description>
 </rdf:RDF>
</metadata>
<globalCoordinateSystem srsName="http://purl.org/crs/84" transform="matrix(100.0,0.0,0.0,-100.0,0.0,0.0)" />
<g >
<image xlink:href="tile0_61.png" preserveAspectRatio="none" x="13999.87793" y="-3667.236328" width="1.098633" height="1.098633"/>
<image xlink:href="tile0_60.png" preserveAspectRatio="none" x="13999.87793" y="-3668.334961" width="1.098633" height="1.098633"/>
<image xlink:href="tile0_57.png" preserveAspectRatio="none" x="13999.87793" y="-3671.630859" width="1.098633" height="1.098633"/>
<image xlink:href="tile0_56.png" preserveAspectRatio="none" x="13999.87793" y="-3672.729492" width="1.098633" height="1.098633"/>
<image xlink:href="tile0_55.png" preserveAspectRatio="none" x="13999.87793" y="-3673.828125" width="1.098633" height="1.098633"/>
<image xlink:href="tile0_54.png" preserveAspectRatio="none" x="13999.87793" y="-3674.926758" width="1.098633" height="1.098633"/>
<image xlink:href="tile0_48.png" preserveAspectRatio="none" x="13999.87793" y="-3681.518555" width="1.098633" height="1.098633"/>
<image xlink:href="tile1_61.png" preserveAspectRatio="none" x="14000.976562" y="-3667.236328" width="1.098633" height="1.098633"/>
<image xlink:href="tile1_60.png" preserveAspectRatio="none" x="14000.976562" y="-3668.334961" width="1.098633" height="1.098633"/>
<image xlink:href="tile1_57.png" preserveAspectRatio="none" x="14000.976562" y="-3671.630859" width="1.098633" height="1.098633"/>
<image xlink:href="tile1_56.png" preserveAspectRatio="none" x="14000.976562" y="-3672.729492" width="1.098633" height="1.098633"/>
<image xlink:href="tile1_55.png" preserveAspectRatio="none" x="14000.976562" y="-3673.828125" width="1.098633" height="1.098633"/>
<image xlink:href="tile1_48.png" preserveAspectRatio="none" x="14000.976562" y="-3681.518555" width="1.098633" height="1.098633"/>
<image xlink:href="tile2_57.png" preserveAspectRatio="none" x="14002.075195" y="-3671.630859" width="1.098633" height="1.098633"/>
<image xlink:href="tile2_56.png" preserveAspectRatio="none" x="14002.075195" y="-3672.729492" width="1.098633" height="1.098633"/>
<image xlink:href="tile2_55.png" preserveAspectRatio="none" x="14002.075195" y="-3673.828125" width="1.098633" height="1.098633"/>
<image xlink:href="tile2_48.png" preserveAspectRatio="none" x="14002.075195" y="-3681.518555" width="1.098633" height="1.098633"/>
<image xlink:href="tile3_58.png" preserveAspectRatio="none" x="14003.173828" y="-3670.532227" width="1.098633" height="1.098633"/>
<image xlink:href="tile3_57.png" preserveAspectRatio="none" x="14003.173828" y="-3671.630859" width="1.098633" height="1.098633"/>
<image xlink:href="tile3_56.png" preserveAspectRatio="none" x="14003.173828" y="-3672.729492" width="1.098633" height="1.098633"/>
<image xlink:href="tile3_48.png" preserveAspectRatio="none" x="14003.173828" y="-3681.518555" width="1.098633" height="1.098633"/>
<image xlink:href="tile4_59.png" preserveAspectRatio="none" x="14004.272461" y="-3669.433594" width="1.098633" height="1.098633"/>
<image xlink:href="tile4_58.png" preserveAspectRatio="none" x="14004.272461" y="-3670.532227" width="1.098633" height="1.098633"/>
<image xlink:href="tile4_57.png" preserveAspectRatio="none" x="14004.272461" y="-3671.630859" width="1.098633" height="1.098633"/>
<image xlink:href="tile4_48.png" preserveAspectRatio="none" x="14004.272461" y="-3681.518555" width="1.098633" height="1.098633"/>
<image xlink:href="tile4_47.png" preserveAspectRatio="none" x="14004.272461" y="-3682.617188" width="1.098633" height="1.098633"/>
<image xlink:href="tile4_46.png" preserveAspectRatio="none" x="14004.272461" y="-3683.71582" width="1.098633" height="1.098633"/>
<image xlink:href="tile5_59.png" preserveAspectRatio="none" x="14005.371094" y="-3669.433594" width="1.098633" height="1.098633"/>
<image xlink:href="tile5_58.png" preserveAspectRatio="none" x="14005.371094" y="-3670.532227" width="1.098633" height="1.098633"/>
<image xlink:href="tile5_49.png" preserveAspectRatio="none" x="14005.371094" y="-3680.419922" width="1.098633" height="1.098633"/>
<image xlink:href="tile5_48.png" preserveAspectRatio="none" x="14005.371094" y="-3681.518555" width="1.098633" height="1.098633"/>
<image xlink:href="tile5_47.png" preserveAspectRatio="none" x="14005.371094" y="-3682.617188" width="1.098633" height="1.098633"/>
<image xlink:href="tile5_46.png" preserveAspectRatio="none" x="14005.371094" y="-3683.71582" width="1.098633" height="1.098633"/>
<image xlink:href="tile6_60.png" preserveAspectRatio="none" x="14006.469727" y="-3668.334961" width="1.098633" height="1.098633"/>
<image xlink:href="tile6_59.png" preserveAspectRatio="none" x="14006.469727" y="-3669.433594" width="1.098633" height="1.098633"/>
<image xlink:href="tile6_49.png" preserveAspectRatio="none" x="14006.469727" y="-3680.419922" width="1.098633" height="1.098633"/>
<image xlink:href="tile6_48.png" preserveAspectRatio="none" x="14006.469727" y="-3681.518555" width="1.098633" height="1.098633"/>
<image xlink:href="tile7_61.png" preserveAspectRatio="none" x="14007.568359" y="-3667.236328" width="1.098633" height="1.098633"/>
<image xlink:href="tile7_60.png" preserveAspectRatio="none" x="14007.568359" y="-3668.334961" width="1.098633" height="1.098633"/>
<image xlink:href="tile7_59.png" preserveAspectRatio="none" x="14007.568359" y="-3669.433594" width="1.098633" height="1.098633"/>
<image xlink:href="tile7_49.png" preserveAspectRatio="none" x="14007.568359" y="-3680.419922" width="1.098633" height="1.098633"/>
<image xlink:href="tile8_61.png" preserveAspectRatio="none" x="14008.666992" y="-3667.236328" width="1.098633" height="1.098633"/>
<image xlink:href="tile8_60.png" preserveAspectRatio="none" x="14008.666992" y="-3668.334961" width="1.098633" height="1.098633"/>
<image xlink:href="tile8_50.png" preserveAspectRatio="none" x="14008.666992" y="-3679.321289" width="1.098633" height="1.098633"/>
<image xlink:href="tile8_49.png" preserveAspectRatio="none" x="14008.666992" y="-3680.419922" width="1.098633" height="1.098633"/>
<image xlink:href="tile9_61.png" preserveAspectRatio="none" x="14009.765625" y="-3667.236328" width="1.098633" height="1.098633"/>
<image xlink:href="tile9_50.png" preserveAspectRatio="none" x="14009.765625" y="-3679.321289" width="1.098633" height="1.098633"/>
<image xlink:href="tile9_49.png" preserveAspectRatio="none" x="14009.765625" y="-3680.419922" width="1.098633" height="1.098633"/>
<image xlink:href="tile10_50.png" preserveAspectRatio="none" x="14010.864258" y="-3679.321289" width="1.098633" height="1.098633"/>
<image xlink:href="tile11_54.png" preserveAspectRatio="none" x="14011.962891" y="-3674.926758" width="1.098633" height="1.098633"/>
<image xlink:href="tile11_52.png" preserveAspectRatio="none" x="14011.962891" y="-3677.124023" width="1.098633" height="1.098633"/>
<image xlink:href="tile11_51.png" preserveAspectRatio="none" x="14011.962891" y="-3678.222656" width="1.098633" height="1.098633"/>
<image xlink:href="tile11_50.png" preserveAspectRatio="none" x="14011.962891" y="-3679.321289" width="1.098633" height="1.098633"/>
<image xlink:href="tile11_49.png" preserveAspectRatio="none" x="14011.962891" y="-3680.419922" width="1.098633" height="1.098633"/>
<image xlink:href="tile11_48.png" preserveAspectRatio="none" x="14011.962891" y="-3681.518555" width="1.098633" height="1.098633"/>
<image xlink:href="tile11_47.png" preserveAspectRatio="none" x="14011.962891" y="-3682.617188" width="1.098633" height="1.098633"/>
<image xlink:href="tile11_46.png" preserveAspectRatio="none" x="14011.962891" y="-3683.71582" width="1.098633" height="1.098633"/>
<image xlink:href="tile12_56.png" preserveAspectRatio="none" x="14013.061523" y="-3672.729492" width="1.098633" height="1.098633"/>
<image xlink:href="tile12_55.png" preserveAspectRatio="none" x="14013.061523" y="-3673.828125" width="1.098633" height="1.098633"/>
<image xlink:href="tile12_54.png" preserveAspectRatio="none" x="14013.061523" y="-3674.926758" width="1.098633" height="1.098633"/>
<image xlink:href="tile12_53.png" preserveAspectRatio="none" x="14013.061523" y="-3676.025391" width="1.098633" height="1.098633"/>
<image xlink:href="tile12_52.png" preserveAspectRatio="none" x="14013.061523" y="-3677.124023" width="1.098633" height="1.098633"/>
<image xlink:href="tile12_51.png" preserveAspectRatio="none" x="14013.061523" y="-3678.222656" width="1.098633" height="1.098633"/>
<image xlink:href="tile12_50.png" preserveAspectRatio="none" x="14013.061523" y="-3679.321289" width="1.098633" height="1.098633"/>
<image xlink:href="tile12_49.png" preserveAspectRatio="none" x="14013.061523" y="-3680.419922" width="1.098633" height="1.098633"/>
<image xlink:href="tile12_48.png" preserveAspectRatio="none" x="14013.061523" y="-3681.518555" width="1.098633" height="1.098633"/>
<image xlink:href="tile12_47.png" preserveAspectRatio="none" x="14013.061523" y="-3682.617188" width="1.098633" height="1.098633"/>
<image xlink:href="tile12_46.png" preserveAspectRatio="none" x="14013.061523" y="-3683.71582" width="1.098633" height="1.098633"/>
<image xlink:href="tile13_61.png" preserveAspectRatio="none" x="14014.160156" y="-3667.236328" width="1.098633" height="1.098633"/>
<image xlink:href="tile13_60.png" preserveAspectRatio="none" x="14014.160156" y="-3668.334961" width="1.098633" height="1.098633"/>
<image xlink:href="tile13_57.png" preserveAspectRatio="none" x="14014.160156" y="-3671.630859" width="1.098633" height="1.098633"/>
<image xlink:href="tile13_56.png" preserveAspectRatio="none" x="14014.160156" y="-3672.729492" width="1.098633" height="1.098633"/>
<image xlink:href="tile13_55.png" preserveAspectRatio="none" x="14014.160156" y="-3673.828125" width="1.098633" height="1.098633"/>
<image xlink:href="tile13_54.png" preserveAspectRatio="none" x="14014.160156" y="-3674.926758" width="1.098633" height="1.098633"/>
<image xlink:href="tile13_53.png" preserveAspectRatio="none" x="14014.160156" y="-3676.025391" width="1.098633" height="1.098633"/>
<image xlink:href="tile13_52.png" preserveAspectRatio="none" x="14014.160156" y="-3677.124023" width="1.098633" height="1.098633"/>
<image xlink:href="tile14_61.png" preserveAspectRatio="none" x="14015.258789" y="-3667.236328" width="1.098633" height="1.098633"/>
<image xlink:href="tile14_60.png" preserveAspectRatio="none" x="14015.258789" y="-3668.334961" width="1.098633" height="1.098633"/>
<image xlink:href="tile14_59.png" preserveAspectRatio="none" x="14015.258789" y="-3669.433594" width="1.098633" height="1.098633"/>
<image xlink:href="tile14_58.png" preserveAspectRatio="none" x="14015.258789" y="-3670.532227" width="1.098633" height="1.098633"/>
<image xlink:href="tile14_57.png" preserveAspectRatio="none" x="14015.258789" y="-3671.630859" width="1.098633" height="1.098633"/>
<image xlink:href="tile14_56.png" preserveAspectRatio="none" x="14015.258789" y="-3672.729492" width="1.098633" height="1.098633"/>
<image xlink:href="tile14_55.png" preserveAspectRatio="none" x="14015.258789" y="-3673.828125" width="1.098633" height="1.098633"/>
<image xlink:href="tile14_54.png" preserveAspectRatio="none" x="14015.258789" y="-3674.926758" width="1.098633" height="1.098633"/>
<image xlink:href="tile15_59.png" preserveAspectRatio="none" x="14016.357422" y="-3669.433594" width="1.098633" height="1.098633"/>
<image xlink:href="tile15_58.png" preserveAspectRatio="none" x="14016.357422" y="-3670.532227" width="1.098633" height="1.098633"/>
<image xlink:href="tile15_57.png" preserveAspectRatio="none" x="14016.357422" y="-3671.630859" width="1.098633" height="1.098633"/>
</g>
</svg>
