<?xml version="1.0" encoding="UTF-8"?>
<svg  xmlns="http://www.w3.org/2000/svg" xmlns:xlink="http://www.w3.org/1999/xlink" xmlns:go="http://purl.org/svgmap/profile" viewBox="13201.0625 -3399.55 96.48750000000064 65.69583300000019" go:dataArea="13201.0625 -3399.55 96.48750000000064 65.69583300000019" >
<metadata>
 <rdf:RDF xmlns:rdf="http://www.w3.org/1999/02/22-rdf-syntax-ns#" xmlns:crs="http://opengis.org/xmldtds/transformations.dtd" xmlns:svg="http://www.w3.org/svg" >
  <rdf:Description>
   <crs:CoordinateReferenceSystem rdf:resource="http://purl.org/crs/84" svg:transform="matrix(100.0,0.0,0.0,-100.0,0.0,0.0)" />
  </rdf:Description>
 </rdf:RDF>
</metadata>
<globalCoordinateSystem srsName="http://purl.org/crs/84" transform="matrix(100.0,0.0,0.0,-100.0,0.0,0.0)" />
<g >
<image xlink:href="tile18_24.png" preserveAspectRatio="none" x="13238.525391" y="-3348.632812" width="2.197266" height="2.197266"/>
<image xlink:href="tile18_23.png" preserveAspectRatio="none" x="13238.525391" y="-3350.830078" width="2.197266" height="2.197266"/>
<image xlink:href="tile19_25.png" preserveAspectRatio="none" x="13240.722656" y="-3346.435547" width="2.197266" height="2.197266"/>
<image xlink:href="tile19_24.png" preserveAspectRatio="none" x="13240.722656" y="-3348.632812" width="2.197266" height="2.197266"/>
<image xlink:href="tile19_23.png" preserveAspectRatio="none" x="13240.722656" y="-3350.830078" width="2.197266" height="2.197266"/>
<image xlink:href="tile20_25.png" preserveAspectRatio="none" x="13242.919922" y="-3346.435547" width="2.197266" height="2.197266"/>
<image xlink:href="tile20_24.png" preserveAspectRatio="none" x="13242.919922" y="-3348.632812" width="2.197266" height="2.197266"/>
<image xlink:href="tile20_23.png" preserveAspectRatio="none" x="13242.919922" y="-3350.830078" width="2.197266" height="2.197266"/>
<image xlink:href="tile21_25.png" preserveAspectRatio="none" x="13245.117188" y="-3346.435547" width="2.197266" height="2.197266"/>
<image xlink:href="tile21_24.png" preserveAspectRatio="none" x="13245.117188" y="-3348.632812" width="2.197266" height="2.197266"/>
<image xlink:href="tile22_28.png" preserveAspectRatio="none" x="13247.314453" y="-3339.84375" width="2.197266" height="2.197266"/>
<image xlink:href="tile22_19.png" preserveAspectRatio="none" x="13247.314453" y="-3359.619141" width="2.197266" height="2.197266"/>
<image xlink:href="tile22_18.png" preserveAspectRatio="none" x="13247.314453" y="-3361.816406" width="2.197266" height="2.197266"/>
<image xlink:href="tile23_29.png" preserveAspectRatio="none" x="13249.511719" y="-3337.646484" width="2.197266" height="2.197266"/>
<image xlink:href="tile23_28.png" preserveAspectRatio="none" x="13249.511719" y="-3339.84375" width="2.197266" height="2.197266"/>
<image xlink:href="tile23_27.png" preserveAspectRatio="none" x="13249.511719" y="-3342.041016" width="2.197266" height="2.197266"/>
<image xlink:href="tile23_23.png" preserveAspectRatio="none" x="13249.511719" y="-3350.830078" width="2.197266" height="2.197266"/>
<image xlink:href="tile23_19.png" preserveAspectRatio="none" x="13249.511719" y="-3359.619141" width="2.197266" height="2.197266"/>
<image xlink:href="tile23_18.png" preserveAspectRatio="none" x="13249.511719" y="-3361.816406" width="2.197266" height="2.197266"/>
<image xlink:href="tile24_30.png" preserveAspectRatio="none" x="13251.708984" y="-3335.449219" width="2.197266" height="2.197266"/>
<image xlink:href="tile24_29.png" preserveAspectRatio="none" x="13251.708984" y="-3337.646484" width="2.197266" height="2.197266"/>
<image xlink:href="tile24_24.png" preserveAspectRatio="none" x="13251.708984" y="-3348.632812" width="2.197266" height="2.197266"/>
<image xlink:href="tile24_23.png" preserveAspectRatio="none" x="13251.708984" y="-3350.830078" width="2.197266" height="2.197266"/>
<image xlink:href="tile24_22.png" preserveAspectRatio="none" x="13251.708984" y="-3353.027344" width="2.197266" height="2.197266"/>
<image xlink:href="tile24_20.png" preserveAspectRatio="none" x="13251.708984" y="-3357.421875" width="2.197266" height="2.197266"/>
<image xlink:href="tile24_19.png" preserveAspectRatio="none" x="13251.708984" y="-3359.619141" width="2.197266" height="2.197266"/>
<image xlink:href="tile25_30.png" preserveAspectRatio="none" x="13253.90625" y="-3335.449219" width="2.197266" height="2.197266"/>
<image xlink:href="tile25_24.png" preserveAspectRatio="none" x="13253.90625" y="-3348.632812" width="2.197266" height="2.197266"/>
<image xlink:href="tile25_23.png" preserveAspectRatio="none" x="13253.90625" y="-3350.830078" width="2.197266" height="2.197266"/>
<image xlink:href="tile25_22.png" preserveAspectRatio="none" x="13253.90625" y="-3353.027344" width="2.197266" height="2.197266"/>
<image xlink:href="tile25_21.png" preserveAspectRatio="none" x="13253.90625" y="-3355.224609" width="2.197266" height="2.197266"/>
<image xlink:href="tile25_20.png" preserveAspectRatio="none" x="13253.90625" y="-3357.421875" width="2.197266" height="2.197266"/>
<image xlink:href="tile26_23.png" preserveAspectRatio="none" x="13256.103516" y="-3350.830078" width="2.197266" height="2.197266"/>
<image xlink:href="tile26_22.png" preserveAspectRatio="none" x="13256.103516" y="-3353.027344" width="2.197266" height="2.197266"/>
<image xlink:href="tile26_21.png" preserveAspectRatio="none" x="13256.103516" y="-3355.224609" width="2.197266" height="2.197266"/>
<image xlink:href="tile27_23.png" preserveAspectRatio="none" x="13258.300781" y="-3350.830078" width="2.197266" height="2.197266"/>
<image xlink:href="tile27_22.png" preserveAspectRatio="none" x="13258.300781" y="-3353.027344" width="2.197266" height="2.197266"/>
<image xlink:href="tile27_21.png" preserveAspectRatio="none" x="13258.300781" y="-3355.224609" width="2.197266" height="2.197266"/>
<image xlink:href="tile28_24.png" preserveAspectRatio="none" x="13260.498047" y="-3348.632812" width="2.197266" height="2.197266"/>
<image xlink:href="tile28_23.png" preserveAspectRatio="none" x="13260.498047" y="-3350.830078" width="2.197266" height="2.197266"/>
<image xlink:href="tile28_22.png" preserveAspectRatio="none" x="13260.498047" y="-3353.027344" width="2.197266" height="2.197266"/>
<image xlink:href="tile28_21.png" preserveAspectRatio="none" x="13260.498047" y="-3355.224609" width="2.197266" height="2.197266"/>
<image xlink:href="tile29_29.png" preserveAspectRatio="none" x="13262.695312" y="-3337.646484" width="2.197266" height="2.197266"/>
<image xlink:href="tile29_28.png" preserveAspectRatio="none" x="13262.695312" y="-3339.84375" width="2.197266" height="2.197266"/>
<image xlink:href="tile29_24.png" preserveAspectRatio="none" x="13262.695312" y="-3348.632812" width="2.197266" height="2.197266"/>
<image xlink:href="tile29_23.png" preserveAspectRatio="none" x="13262.695312" y="-3350.830078" width="2.197266" height="2.197266"/>
<image xlink:href="tile29_21.png" preserveAspectRatio="none" x="13262.695312" y="-3355.224609" width="2.197266" height="2.197266"/>
<image xlink:href="tile30_29.png" preserveAspectRatio="none" x="13264.892578" y="-3337.646484" width="2.197266" height="2.197266"/>
<image xlink:href="tile30_28.png" preserveAspectRatio="none" x="13264.892578" y="-3339.84375" width="2.197266" height="2.197266"/>
<image xlink:href="tile30_24.png" preserveAspectRatio="none" x="13264.892578" y="-3348.632812" width="2.197266" height="2.197266"/>
<image xlink:href="tile30_23.png" preserveAspectRatio="none" x="13264.892578" y="-3350.830078" width="2.197266" height="2.197266"/>
<image xlink:href="tile30_22.png" preserveAspectRatio="none" x="13264.892578" y="-3353.027344" width="2.197266" height="2.197266"/>
<image xlink:href="tile30_21.png" preserveAspectRatio="none" x="13264.892578" y="-3355.224609" width="2.197266" height="2.197266"/>
<image xlink:href="tile30_20.png" preserveAspectRatio="none" x="13264.892578" y="-3357.421875" width="2.197266" height="2.197266"/>
<image xlink:href="tile31_28.png" preserveAspectRatio="none" x="13267.089844" y="-3339.84375" width="2.197266" height="2.197266"/>
<image xlink:href="tile31_25.png" preserveAspectRatio="none" x="13267.089844" y="-3346.435547" width="2.197266" height="2.197266"/>
<image xlink:href="tile31_24.png" preserveAspectRatio="none" x="13267.089844" y="-3348.632812" width="2.197266" height="2.197266"/>
<image xlink:href="tile31_22.png" preserveAspectRatio="none" x="13267.089844" y="-3353.027344" width="2.197266" height="2.197266"/>
</g>
</svg>
