<?xml version="1.0" encoding="UTF-8"?>
<svg  xmlns="http://www.w3.org/2000/svg" xmlns:xlink="http://www.w3.org/1999/xlink" xmlns:go="http://purl.org/svgmap/profile" viewBox="13035.550000000001 -3333.3333333 48.90000000000043 32.15416629999979" go:dataArea="13035.550000000001 -3333.3333333 48.90000000000043 32.15416629999979" >
<metadata>
 <rdf:RDF xmlns:rdf="http://www.w3.org/1999/02/22-rdf-syntax-ns#" xmlns:crs="http://opengis.org/xmldtds/transformations.dtd" xmlns:svg="http://www.w3.org/svg" >
  <rdf:Description>
   <crs:CoordinateReferenceSystem rdf:resource="http://purl.org/crs/84" svg:transform="matrix(100.0,0.0,0.0,-100.0,0.0,0.0)" />
  </rdf:Description>
 </rdf:RDF>
</metadata>
<globalCoordinateSystem srsName="http://purl.org/crs/84" transform="matrix(100.0,0.0,0.0,-100.0,0.0,0.0)" />
<g >
<image xlink:href="tile0_4.png" preserveAspectRatio="none" x="13034.179688" y="-3304.6875" width="8.789062" height="8.789062"/>
<image xlink:href="tile0_3.png" preserveAspectRatio="none" x="13034.179688" y="-3313.476562" width="8.789062" height="8.789062"/>
<image xlink:href="tile0_2.png" preserveAspectRatio="none" x="13034.179688" y="-3322.265625" width="8.789062" height="8.789062"/>
<image xlink:href="tile0_1.png" preserveAspectRatio="none" x="13034.179688" y="-3331.054688" width="8.789062" height="8.789062"/>
<image xlink:href="tile1_4.png" preserveAspectRatio="none" x="13042.96875" y="-3304.6875" width="8.789062" height="8.789062"/>
<image xlink:href="tile1_3.png" preserveAspectRatio="none" x="13042.96875" y="-3313.476562" width="8.789062" height="8.789062"/>
<image xlink:href="tile1_2.png" preserveAspectRatio="none" x="13042.96875" y="-3322.265625" width="8.789062" height="8.789062"/>
<image xlink:href="tile1_1.png" preserveAspectRatio="none" x="13042.96875" y="-3331.054688" width="8.789062" height="8.789062"/>
<image xlink:href="tile1_0.png" preserveAspectRatio="none" x="13042.96875" y="-3339.84375" width="8.789062" height="8.789062"/>
<image xlink:href="tile2_3.png" preserveAspectRatio="none" x="13051.757812" y="-3313.476562" width="8.789062" height="8.789062"/>
<image xlink:href="tile2_2.png" preserveAspectRatio="none" x="13051.757812" y="-3322.265625" width="8.789062" height="8.789062"/>
<image xlink:href="tile2_1.png" preserveAspectRatio="none" x="13051.757812" y="-3331.054688" width="8.789062" height="8.789062"/>
<image xlink:href="tile2_0.png" preserveAspectRatio="none" x="13051.757812" y="-3339.84375" width="8.789062" height="8.789062"/>
<image xlink:href="tile3_3.png" preserveAspectRatio="none" x="13060.546875" y="-3313.476562" width="8.789062" height="8.789062"/>
<image xlink:href="tile3_2.png" preserveAspectRatio="none" x="13060.546875" y="-3322.265625" width="8.789062" height="8.789062"/>
<image xlink:href="tile3_1.png" preserveAspectRatio="none" x="13060.546875" y="-3331.054688" width="8.789062" height="8.789062"/>
<image xlink:href="tile3_0.png" preserveAspectRatio="none" x="13060.546875" y="-3339.84375" width="8.789062" height="8.789062"/>
<image xlink:href="tile4_2.png" preserveAspectRatio="none" x="13069.335938" y="-3322.265625" width="8.789062" height="8.789062"/>
<image xlink:href="tile4_1.png" preserveAspectRatio="none" x="13069.335938" y="-3331.054688" width="8.789062" height="8.789062"/>
<image xlink:href="tile5_2.png" preserveAspectRatio="none" x="13078.125" y="-3322.265625" width="8.789062" height="8.789062"/>
<image xlink:href="tile5_0.png" preserveAspectRatio="none" x="13078.125" y="-3339.84375" width="8.789062" height="8.789062"/>
</g>
</svg>
