<?xml version="1.0" encoding="UTF-8"?>
<svg  xmlns="http://www.w3.org/2000/svg" xmlns:xlink="http://www.w3.org/1999/xlink" xmlns:go="http://purl.org/svgmap/profile" viewBox="13100.0 -3400.0 96.83750000000089 60.17587750000004" go:dataArea="13100.0 -3400.0 96.83750000000089 60.17587750000004" >
<metadata>
 <rdf:RDF xmlns:rdf="http://www.w3.org/1999/02/22-rdf-syntax-ns#" xmlns:crs="http://opengis.org/xmldtds/transformations.dtd" xmlns:svg="http://www.w3.org/svg" >
  <rdf:Description>
   <crs:CoordinateReferenceSystem rdf:resource="http://purl.org/crs/84" svg:transform="matrix(100.0,0.0,0.0,-100.0,0.0,0.0)" />
  </rdf:Description>
 </rdf:RDF>
</metadata>
<globalCoordinateSystem srsName="http://purl.org/crs/84" transform="matrix(100.0,0.0,0.0,-100.0,0.0,0.0)" />
<g >
<image xlink:href="tile3_54.png" preserveAspectRatio="none" x="13102.294922" y="-3340.942383" width="1.098633" height="1.098633"/>
<image xlink:href="tile3_53.png" preserveAspectRatio="none" x="13102.294922" y="-3342.041016" width="1.098633" height="1.098633"/>
<image xlink:href="tile4_55.png" preserveAspectRatio="none" x="13103.393555" y="-3339.84375" width="1.098633" height="1.098633"/>
<image xlink:href="tile4_54.png" preserveAspectRatio="none" x="13103.393555" y="-3340.942383" width="1.098633" height="1.098633"/>
<image xlink:href="tile5_54.png" preserveAspectRatio="none" x="13104.492188" y="-3340.942383" width="1.098633" height="1.098633"/>
<image xlink:href="tile6_54.png" preserveAspectRatio="none" x="13105.59082" y="-3340.942383" width="1.098633" height="1.098633"/>
<image xlink:href="tile6_42.png" preserveAspectRatio="none" x="13105.59082" y="-3354.125977" width="1.098633" height="1.098633"/>
<image xlink:href="tile6_40.png" preserveAspectRatio="none" x="13105.59082" y="-3356.323242" width="1.098633" height="1.098633"/>
<image xlink:href="tile7_54.png" preserveAspectRatio="none" x="13106.689453" y="-3340.942383" width="1.098633" height="1.098633"/>
<image xlink:href="tile7_53.png" preserveAspectRatio="none" x="13106.689453" y="-3342.041016" width="1.098633" height="1.098633"/>
<image xlink:href="tile7_42.png" preserveAspectRatio="none" x="13106.689453" y="-3354.125977" width="1.098633" height="1.098633"/>
<image xlink:href="tile7_41.png" preserveAspectRatio="none" x="13106.689453" y="-3355.224609" width="1.098633" height="1.098633"/>
<image xlink:href="tile7_40.png" preserveAspectRatio="none" x="13106.689453" y="-3356.323242" width="1.098633" height="1.098633"/>
<image xlink:href="tile8_41.png" preserveAspectRatio="none" x="13107.788086" y="-3355.224609" width="1.098633" height="1.098633"/>
<image xlink:href="tile8_40.png" preserveAspectRatio="none" x="13107.788086" y="-3356.323242" width="1.098633" height="1.098633"/>
<image xlink:href="tile9_41.png" preserveAspectRatio="none" x="13108.886719" y="-3355.224609" width="1.098633" height="1.098633"/>
<image xlink:href="tile9_40.png" preserveAspectRatio="none" x="13108.886719" y="-3356.323242" width="1.098633" height="1.098633"/>
<image xlink:href="tile10_40.png" preserveAspectRatio="none" x="13109.985352" y="-3356.323242" width="1.098633" height="1.098633"/>
<image xlink:href="tile11_50.png" preserveAspectRatio="none" x="13111.083984" y="-3345.336914" width="1.098633" height="1.098633"/>
<image xlink:href="tile11_49.png" preserveAspectRatio="none" x="13111.083984" y="-3346.435547" width="1.098633" height="1.098633"/>
<image xlink:href="tile11_40.png" preserveAspectRatio="none" x="13111.083984" y="-3356.323242" width="1.098633" height="1.098633"/>
<image xlink:href="tile12_48.png" preserveAspectRatio="none" x="13112.182617" y="-3347.53418" width="1.098633" height="1.098633"/>
<image xlink:href="tile13_48.png" preserveAspectRatio="none" x="13113.28125" y="-3347.53418" width="1.098633" height="1.098633"/>
<image xlink:href="tile14_53.png" preserveAspectRatio="none" x="13114.379883" y="-3342.041016" width="1.098633" height="1.098633"/>
<image xlink:href="tile14_52.png" preserveAspectRatio="none" x="13114.379883" y="-3343.139648" width="1.098633" height="1.098633"/>
<image xlink:href="tile14_48.png" preserveAspectRatio="none" x="13114.379883" y="-3347.53418" width="1.098633" height="1.098633"/>
<image xlink:href="tile14_47.png" preserveAspectRatio="none" x="13114.379883" y="-3348.632812" width="1.098633" height="1.098633"/>
<image xlink:href="tile15_54.png" preserveAspectRatio="none" x="13115.478516" y="-3340.942383" width="1.098633" height="1.098633"/>
<image xlink:href="tile15_53.png" preserveAspectRatio="none" x="13115.478516" y="-3342.041016" width="1.098633" height="1.098633"/>
<image xlink:href="tile15_52.png" preserveAspectRatio="none" x="13115.478516" y="-3343.139648" width="1.098633" height="1.098633"/>
<image xlink:href="tile15_47.png" preserveAspectRatio="none" x="13115.478516" y="-3348.632812" width="1.098633" height="1.098633"/>
<image xlink:href="tile15_46.png" preserveAspectRatio="none" x="13115.478516" y="-3349.731445" width="1.098633" height="1.098633"/>
<image xlink:href="tile15_43.png" preserveAspectRatio="none" x="13115.478516" y="-3353.027344" width="1.098633" height="1.098633"/>
</g>
</svg>
