<?xml version="1.0" encoding="UTF-8"?>
<svg  xmlns="http://www.w3.org/2000/svg" xmlns:xlink="http://www.w3.org/1999/xlink" xmlns:go="http://purl.org/svgmap/profile" viewBox="13100.0 -3400.0 96.83750000000089 60.17587750000004" go:dataArea="13100.0 -3400.0 96.83750000000089 60.17587750000004" >
<metadata>
 <rdf:RDF xmlns:rdf="http://www.w3.org/1999/02/22-rdf-syntax-ns#" xmlns:crs="http://opengis.org/xmldtds/transformations.dtd" xmlns:svg="http://www.w3.org/svg" >
  <rdf:Description>
   <crs:CoordinateReferenceSystem rdf:resource="http://purl.org/crs/84" svg:transform="matrix(100.0,0.0,0.0,-100.0,0.0,0.0)" />
  </rdf:Description>
 </rdf:RDF>
</metadata>
<globalCoordinateSystem srsName="http://purl.org/crs/84" transform="matrix(100.0,0.0,0.0,-100.0,0.0,0.0)" />
<g >
<image xlink:href="tile16_39.png" preserveAspectRatio="none" x="13116.577148" y="-3357.421875" width="1.098633" height="1.098633"/>
<image xlink:href="tile16_38.png" preserveAspectRatio="none" x="13116.577148" y="-3358.520508" width="1.098633" height="1.098633"/>
<image xlink:href="tile16_37.png" preserveAspectRatio="none" x="13116.577148" y="-3359.619141" width="1.098633" height="1.098633"/>
<image xlink:href="tile16_36.png" preserveAspectRatio="none" x="13116.577148" y="-3360.717773" width="1.098633" height="1.098633"/>
<image xlink:href="tile16_35.png" preserveAspectRatio="none" x="13116.577148" y="-3361.816406" width="1.098633" height="1.098633"/>
<image xlink:href="tile16_34.png" preserveAspectRatio="none" x="13116.577148" y="-3362.915039" width="1.098633" height="1.098633"/>
<image xlink:href="tile17_39.png" preserveAspectRatio="none" x="13117.675781" y="-3357.421875" width="1.098633" height="1.098633"/>
<image xlink:href="tile17_38.png" preserveAspectRatio="none" x="13117.675781" y="-3358.520508" width="1.098633" height="1.098633"/>
<image xlink:href="tile17_37.png" preserveAspectRatio="none" x="13117.675781" y="-3359.619141" width="1.098633" height="1.098633"/>
<image xlink:href="tile17_36.png" preserveAspectRatio="none" x="13117.675781" y="-3360.717773" width="1.098633" height="1.098633"/>
<image xlink:href="tile17_35.png" preserveAspectRatio="none" x="13117.675781" y="-3361.816406" width="1.098633" height="1.098633"/>
<image xlink:href="tile17_34.png" preserveAspectRatio="none" x="13117.675781" y="-3362.915039" width="1.098633" height="1.098633"/>
<image xlink:href="tile18_39.png" preserveAspectRatio="none" x="13118.774414" y="-3357.421875" width="1.098633" height="1.098633"/>
<image xlink:href="tile18_38.png" preserveAspectRatio="none" x="13118.774414" y="-3358.520508" width="1.098633" height="1.098633"/>
<image xlink:href="tile18_37.png" preserveAspectRatio="none" x="13118.774414" y="-3359.619141" width="1.098633" height="1.098633"/>
<image xlink:href="tile18_36.png" preserveAspectRatio="none" x="13118.774414" y="-3360.717773" width="1.098633" height="1.098633"/>
<image xlink:href="tile18_35.png" preserveAspectRatio="none" x="13118.774414" y="-3361.816406" width="1.098633" height="1.098633"/>
<image xlink:href="tile18_34.png" preserveAspectRatio="none" x="13118.774414" y="-3362.915039" width="1.098633" height="1.098633"/>
<image xlink:href="tile19_39.png" preserveAspectRatio="none" x="13119.873047" y="-3357.421875" width="1.098633" height="1.098633"/>
<image xlink:href="tile19_38.png" preserveAspectRatio="none" x="13119.873047" y="-3358.520508" width="1.098633" height="1.098633"/>
<image xlink:href="tile19_37.png" preserveAspectRatio="none" x="13119.873047" y="-3359.619141" width="1.098633" height="1.098633"/>
<image xlink:href="tile19_36.png" preserveAspectRatio="none" x="13119.873047" y="-3360.717773" width="1.098633" height="1.098633"/>
<image xlink:href="tile19_35.png" preserveAspectRatio="none" x="13119.873047" y="-3361.816406" width="1.098633" height="1.098633"/>
<image xlink:href="tile20_38.png" preserveAspectRatio="none" x="13120.97168" y="-3358.520508" width="1.098633" height="1.098633"/>
<image xlink:href="tile20_37.png" preserveAspectRatio="none" x="13120.97168" y="-3359.619141" width="1.098633" height="1.098633"/>
<image xlink:href="tile20_36.png" preserveAspectRatio="none" x="13120.97168" y="-3360.717773" width="1.098633" height="1.098633"/>
<image xlink:href="tile20_35.png" preserveAspectRatio="none" x="13120.97168" y="-3361.816406" width="1.098633" height="1.098633"/>
<image xlink:href="tile21_37.png" preserveAspectRatio="none" x="13122.070312" y="-3359.619141" width="1.098633" height="1.098633"/>
<image xlink:href="tile21_36.png" preserveAspectRatio="none" x="13122.070312" y="-3360.717773" width="1.098633" height="1.098633"/>
<image xlink:href="tile22_37.png" preserveAspectRatio="none" x="13123.168945" y="-3359.619141" width="1.098633" height="1.098633"/>
<image xlink:href="tile22_36.png" preserveAspectRatio="none" x="13123.168945" y="-3360.717773" width="1.098633" height="1.098633"/>
<image xlink:href="tile23_39.png" preserveAspectRatio="none" x="13124.267578" y="-3357.421875" width="1.098633" height="1.098633"/>
<image xlink:href="tile23_38.png" preserveAspectRatio="none" x="13124.267578" y="-3358.520508" width="1.098633" height="1.098633"/>
<image xlink:href="tile23_37.png" preserveAspectRatio="none" x="13124.267578" y="-3359.619141" width="1.098633" height="1.098633"/>
<image xlink:href="tile23_36.png" preserveAspectRatio="none" x="13124.267578" y="-3360.717773" width="1.098633" height="1.098633"/>
<image xlink:href="tile24_39.png" preserveAspectRatio="none" x="13125.366211" y="-3357.421875" width="1.098633" height="1.098633"/>
<image xlink:href="tile24_38.png" preserveAspectRatio="none" x="13125.366211" y="-3358.520508" width="1.098633" height="1.098633"/>
<image xlink:href="tile24_37.png" preserveAspectRatio="none" x="13125.366211" y="-3359.619141" width="1.098633" height="1.098633"/>
<image xlink:href="tile24_36.png" preserveAspectRatio="none" x="13125.366211" y="-3360.717773" width="1.098633" height="1.098633"/>
<image xlink:href="tile25_39.png" preserveAspectRatio="none" x="13126.464844" y="-3357.421875" width="1.098633" height="1.098633"/>
<image xlink:href="tile25_38.png" preserveAspectRatio="none" x="13126.464844" y="-3358.520508" width="1.098633" height="1.098633"/>
<image xlink:href="tile25_37.png" preserveAspectRatio="none" x="13126.464844" y="-3359.619141" width="1.098633" height="1.098633"/>
<image xlink:href="tile26_39.png" preserveAspectRatio="none" x="13127.563477" y="-3357.421875" width="1.098633" height="1.098633"/>
<image xlink:href="tile26_38.png" preserveAspectRatio="none" x="13127.563477" y="-3358.520508" width="1.098633" height="1.098633"/>
<image xlink:href="tile27_39.png" preserveAspectRatio="none" x="13128.662109" y="-3357.421875" width="1.098633" height="1.098633"/>
<image xlink:href="tile27_38.png" preserveAspectRatio="none" x="13128.662109" y="-3358.520508" width="1.098633" height="1.098633"/>
<image xlink:href="tile28_39.png" preserveAspectRatio="none" x="13129.760742" y="-3357.421875" width="1.098633" height="1.098633"/>
<image xlink:href="tile28_38.png" preserveAspectRatio="none" x="13129.760742" y="-3358.520508" width="1.098633" height="1.098633"/>
<image xlink:href="tile29_39.png" preserveAspectRatio="none" x="13130.859375" y="-3357.421875" width="1.098633" height="1.098633"/>
<image xlink:href="tile29_38.png" preserveAspectRatio="none" x="13130.859375" y="-3358.520508" width="1.098633" height="1.098633"/>
<image xlink:href="tile30_39.png" preserveAspectRatio="none" x="13131.958008" y="-3357.421875" width="1.098633" height="1.098633"/>
<image xlink:href="tile30_38.png" preserveAspectRatio="none" x="13131.958008" y="-3358.520508" width="1.098633" height="1.098633"/>
<image xlink:href="tile31_39.png" preserveAspectRatio="none" x="13133.056641" y="-3357.421875" width="1.098633" height="1.098633"/>
<image xlink:href="tile31_38.png" preserveAspectRatio="none" x="13133.056641" y="-3358.520508" width="1.098633" height="1.098633"/>
</g>
</svg>
