<?xml version="1.0" encoding="UTF-8"?>
<svg  xmlns="http://www.w3.org/2000/svg" xmlns:xlink="http://www.w3.org/1999/xlink" xmlns:go="http://purl.org/svgmap/profile" viewBox="13500.0 -3466.666667 100.0 66.66666699999979" go:dataArea="13500.0 -3466.666667 100.0 66.66666699999979" >
<metadata>
 <rdf:RDF xmlns:rdf="http://www.w3.org/1999/02/22-rdf-syntax-ns#" xmlns:crs="http://opengis.org/xmldtds/transformations.dtd" xmlns:svg="http://www.w3.org/svg" >
  <rdf:Description>
   <crs:CoordinateReferenceSystem rdf:resource="http://purl.org/crs/84" svg:transform="matrix(100.0,0.0,0.0,-100.0,0.0,0.0)" />
  </rdf:Description>
 </rdf:RDF>
</metadata>
<globalCoordinateSystem srsName="http://purl.org/crs/84" transform="matrix(100.0,0.0,0.0,-100.0,0.0,0.0)" />
<g >
<image xlink:href="tile48_10.png" preserveAspectRatio="none" x="13552.734375" y="-3456.298828" width="1.098633" height="1.098633"/>
<image xlink:href="tile48_9.png" preserveAspectRatio="none" x="13552.734375" y="-3457.397461" width="1.098633" height="1.098633"/>
<image xlink:href="tile48_8.png" preserveAspectRatio="none" x="13552.734375" y="-3458.496094" width="1.098633" height="1.098633"/>
<image xlink:href="tile48_7.png" preserveAspectRatio="none" x="13552.734375" y="-3459.594727" width="1.098633" height="1.098633"/>
<image xlink:href="tile48_6.png" preserveAspectRatio="none" x="13552.734375" y="-3460.693359" width="1.098633" height="1.098633"/>
<image xlink:href="tile48_5.png" preserveAspectRatio="none" x="13552.734375" y="-3461.791992" width="1.098633" height="1.098633"/>
<image xlink:href="tile48_4.png" preserveAspectRatio="none" x="13552.734375" y="-3462.890625" width="1.098633" height="1.098633"/>
<image xlink:href="tile48_3.png" preserveAspectRatio="none" x="13552.734375" y="-3463.989258" width="1.098633" height="1.098633"/>
<image xlink:href="tile48_2.png" preserveAspectRatio="none" x="13552.734375" y="-3465.087891" width="1.098633" height="1.098633"/>
<image xlink:href="tile48_1.png" preserveAspectRatio="none" x="13552.734375" y="-3466.186523" width="1.098633" height="1.098633"/>
<image xlink:href="tile48_0.png" preserveAspectRatio="none" x="13552.734375" y="-3467.285156" width="1.098633" height="1.098633"/>
<image xlink:href="tile49_13.png" preserveAspectRatio="none" x="13553.833008" y="-3453.00293" width="1.098633" height="1.098633"/>
<image xlink:href="tile49_12.png" preserveAspectRatio="none" x="13553.833008" y="-3454.101562" width="1.098633" height="1.098633"/>
<image xlink:href="tile49_11.png" preserveAspectRatio="none" x="13553.833008" y="-3455.200195" width="1.098633" height="1.098633"/>
<image xlink:href="tile49_10.png" preserveAspectRatio="none" x="13553.833008" y="-3456.298828" width="1.098633" height="1.098633"/>
<image xlink:href="tile49_9.png" preserveAspectRatio="none" x="13553.833008" y="-3457.397461" width="1.098633" height="1.098633"/>
<image xlink:href="tile49_8.png" preserveAspectRatio="none" x="13553.833008" y="-3458.496094" width="1.098633" height="1.098633"/>
<image xlink:href="tile49_7.png" preserveAspectRatio="none" x="13553.833008" y="-3459.594727" width="1.098633" height="1.098633"/>
<image xlink:href="tile49_6.png" preserveAspectRatio="none" x="13553.833008" y="-3460.693359" width="1.098633" height="1.098633"/>
<image xlink:href="tile49_5.png" preserveAspectRatio="none" x="13553.833008" y="-3461.791992" width="1.098633" height="1.098633"/>
<image xlink:href="tile49_4.png" preserveAspectRatio="none" x="13553.833008" y="-3462.890625" width="1.098633" height="1.098633"/>
<image xlink:href="tile49_3.png" preserveAspectRatio="none" x="13553.833008" y="-3463.989258" width="1.098633" height="1.098633"/>
<image xlink:href="tile49_2.png" preserveAspectRatio="none" x="13553.833008" y="-3465.087891" width="1.098633" height="1.098633"/>
<image xlink:href="tile49_1.png" preserveAspectRatio="none" x="13553.833008" y="-3466.186523" width="1.098633" height="1.098633"/>
<image xlink:href="tile49_0.png" preserveAspectRatio="none" x="13553.833008" y="-3467.285156" width="1.098633" height="1.098633"/>
<image xlink:href="tile50_12.png" preserveAspectRatio="none" x="13554.931641" y="-3454.101562" width="1.098633" height="1.098633"/>
<image xlink:href="tile50_11.png" preserveAspectRatio="none" x="13554.931641" y="-3455.200195" width="1.098633" height="1.098633"/>
<image xlink:href="tile50_10.png" preserveAspectRatio="none" x="13554.931641" y="-3456.298828" width="1.098633" height="1.098633"/>
<image xlink:href="tile50_9.png" preserveAspectRatio="none" x="13554.931641" y="-3457.397461" width="1.098633" height="1.098633"/>
<image xlink:href="tile50_7.png" preserveAspectRatio="none" x="13554.931641" y="-3459.594727" width="1.098633" height="1.098633"/>
<image xlink:href="tile50_6.png" preserveAspectRatio="none" x="13554.931641" y="-3460.693359" width="1.098633" height="1.098633"/>
<image xlink:href="tile50_5.png" preserveAspectRatio="none" x="13554.931641" y="-3461.791992" width="1.098633" height="1.098633"/>
<image xlink:href="tile50_4.png" preserveAspectRatio="none" x="13554.931641" y="-3462.890625" width="1.098633" height="1.098633"/>
<image xlink:href="tile50_3.png" preserveAspectRatio="none" x="13554.931641" y="-3463.989258" width="1.098633" height="1.098633"/>
<image xlink:href="tile50_2.png" preserveAspectRatio="none" x="13554.931641" y="-3465.087891" width="1.098633" height="1.098633"/>
<image xlink:href="tile50_1.png" preserveAspectRatio="none" x="13554.931641" y="-3466.186523" width="1.098633" height="1.098633"/>
<image xlink:href="tile50_0.png" preserveAspectRatio="none" x="13554.931641" y="-3467.285156" width="1.098633" height="1.098633"/>
<image xlink:href="tile51_13.png" preserveAspectRatio="none" x="13556.030273" y="-3453.00293" width="1.098633" height="1.098633"/>
<image xlink:href="tile51_12.png" preserveAspectRatio="none" x="13556.030273" y="-3454.101562" width="1.098633" height="1.098633"/>
<image xlink:href="tile51_11.png" preserveAspectRatio="none" x="13556.030273" y="-3455.200195" width="1.098633" height="1.098633"/>
<image xlink:href="tile51_7.png" preserveAspectRatio="none" x="13556.030273" y="-3459.594727" width="1.098633" height="1.098633"/>
<image xlink:href="tile51_6.png" preserveAspectRatio="none" x="13556.030273" y="-3460.693359" width="1.098633" height="1.098633"/>
<image xlink:href="tile51_5.png" preserveAspectRatio="none" x="13556.030273" y="-3461.791992" width="1.098633" height="1.098633"/>
<image xlink:href="tile51_4.png" preserveAspectRatio="none" x="13556.030273" y="-3462.890625" width="1.098633" height="1.098633"/>
<image xlink:href="tile51_3.png" preserveAspectRatio="none" x="13556.030273" y="-3463.989258" width="1.098633" height="1.098633"/>
<image xlink:href="tile51_2.png" preserveAspectRatio="none" x="13556.030273" y="-3465.087891" width="1.098633" height="1.098633"/>
<image xlink:href="tile51_1.png" preserveAspectRatio="none" x="13556.030273" y="-3466.186523" width="1.098633" height="1.098633"/>
<image xlink:href="tile51_0.png" preserveAspectRatio="none" x="13556.030273" y="-3467.285156" width="1.098633" height="1.098633"/>
<image xlink:href="tile52_12.png" preserveAspectRatio="none" x="13557.128906" y="-3454.101562" width="1.098633" height="1.098633"/>
<image xlink:href="tile52_11.png" preserveAspectRatio="none" x="13557.128906" y="-3455.200195" width="1.098633" height="1.098633"/>
<image xlink:href="tile52_10.png" preserveAspectRatio="none" x="13557.128906" y="-3456.298828" width="1.098633" height="1.098633"/>
<image xlink:href="tile52_9.png" preserveAspectRatio="none" x="13557.128906" y="-3457.397461" width="1.098633" height="1.098633"/>
<image xlink:href="tile52_8.png" preserveAspectRatio="none" x="13557.128906" y="-3458.496094" width="1.098633" height="1.098633"/>
<image xlink:href="tile52_7.png" preserveAspectRatio="none" x="13557.128906" y="-3459.594727" width="1.098633" height="1.098633"/>
<image xlink:href="tile52_6.png" preserveAspectRatio="none" x="13557.128906" y="-3460.693359" width="1.098633" height="1.098633"/>
<image xlink:href="tile52_5.png" preserveAspectRatio="none" x="13557.128906" y="-3461.791992" width="1.098633" height="1.098633"/>
<image xlink:href="tile52_4.png" preserveAspectRatio="none" x="13557.128906" y="-3462.890625" width="1.098633" height="1.098633"/>
<image xlink:href="tile52_3.png" preserveAspectRatio="none" x="13557.128906" y="-3463.989258" width="1.098633" height="1.098633"/>
<image xlink:href="tile52_2.png" preserveAspectRatio="none" x="13557.128906" y="-3465.087891" width="1.098633" height="1.098633"/>
<image xlink:href="tile52_1.png" preserveAspectRatio="none" x="13557.128906" y="-3466.186523" width="1.098633" height="1.098633"/>
<image xlink:href="tile52_0.png" preserveAspectRatio="none" x="13557.128906" y="-3467.285156" width="1.098633" height="1.098633"/>
<image xlink:href="tile53_8.png" preserveAspectRatio="none" x="13558.227539" y="-3458.496094" width="1.098633" height="1.098633"/>
<image xlink:href="tile53_7.png" preserveAspectRatio="none" x="13558.227539" y="-3459.594727" width="1.098633" height="1.098633"/>
<image xlink:href="tile53_6.png" preserveAspectRatio="none" x="13558.227539" y="-3460.693359" width="1.098633" height="1.098633"/>
<image xlink:href="tile53_5.png" preserveAspectRatio="none" x="13558.227539" y="-3461.791992" width="1.098633" height="1.098633"/>
<image xlink:href="tile53_4.png" preserveAspectRatio="none" x="13558.227539" y="-3462.890625" width="1.098633" height="1.098633"/>
<image xlink:href="tile53_3.png" preserveAspectRatio="none" x="13558.227539" y="-3463.989258" width="1.098633" height="1.098633"/>
<image xlink:href="tile53_2.png" preserveAspectRatio="none" x="13558.227539" y="-3465.087891" width="1.098633" height="1.098633"/>
<image xlink:href="tile53_1.png" preserveAspectRatio="none" x="13558.227539" y="-3466.186523" width="1.098633" height="1.098633"/>
<image xlink:href="tile53_0.png" preserveAspectRatio="none" x="13558.227539" y="-3467.285156" width="1.098633" height="1.098633"/>
<image xlink:href="tile54_12.png" preserveAspectRatio="none" x="13559.326172" y="-3454.101562" width="1.098633" height="1.098633"/>
<image xlink:href="tile54_11.png" preserveAspectRatio="none" x="13559.326172" y="-3455.200195" width="1.098633" height="1.098633"/>
<image xlink:href="tile54_10.png" preserveAspectRatio="none" x="13559.326172" y="-3456.298828" width="1.098633" height="1.098633"/>
<image xlink:href="tile54_9.png" preserveAspectRatio="none" x="13559.326172" y="-3457.397461" width="1.098633" height="1.098633"/>
<image xlink:href="tile54_8.png" preserveAspectRatio="none" x="13559.326172" y="-3458.496094" width="1.098633" height="1.098633"/>
<image xlink:href="tile54_7.png" preserveAspectRatio="none" x="13559.326172" y="-3459.594727" width="1.098633" height="1.098633"/>
<image xlink:href="tile54_6.png" preserveAspectRatio="none" x="13559.326172" y="-3460.693359" width="1.098633" height="1.098633"/>
<image xlink:href="tile54_5.png" preserveAspectRatio="none" x="13559.326172" y="-3461.791992" width="1.098633" height="1.098633"/>
<image xlink:href="tile54_4.png" preserveAspectRatio="none" x="13559.326172" y="-3462.890625" width="1.098633" height="1.098633"/>
<image xlink:href="tile54_3.png" preserveAspectRatio="none" x="13559.326172" y="-3463.989258" width="1.098633" height="1.098633"/>
<image xlink:href="tile54_2.png" preserveAspectRatio="none" x="13559.326172" y="-3465.087891" width="1.098633" height="1.098633"/>
<image xlink:href="tile54_1.png" preserveAspectRatio="none" x="13559.326172" y="-3466.186523" width="1.098633" height="1.098633"/>
<image xlink:href="tile54_0.png" preserveAspectRatio="none" x="13559.326172" y="-3467.285156" width="1.098633" height="1.098633"/>
<image xlink:href="tile55_13.png" preserveAspectRatio="none" x="13560.424805" y="-3453.00293" width="1.098633" height="1.098633"/>
<image xlink:href="tile55_12.png" preserveAspectRatio="none" x="13560.424805" y="-3454.101562" width="1.098633" height="1.098633"/>
<image xlink:href="tile55_11.png" preserveAspectRatio="none" x="13560.424805" y="-3455.200195" width="1.098633" height="1.098633"/>
<image xlink:href="tile55_10.png" preserveAspectRatio="none" x="13560.424805" y="-3456.298828" width="1.098633" height="1.098633"/>
<image xlink:href="tile55_9.png" preserveAspectRatio="none" x="13560.424805" y="-3457.397461" width="1.098633" height="1.098633"/>
<image xlink:href="tile55_8.png" preserveAspectRatio="none" x="13560.424805" y="-3458.496094" width="1.098633" height="1.098633"/>
<image xlink:href="tile55_7.png" preserveAspectRatio="none" x="13560.424805" y="-3459.594727" width="1.098633" height="1.098633"/>
<image xlink:href="tile55_6.png" preserveAspectRatio="none" x="13560.424805" y="-3460.693359" width="1.098633" height="1.098633"/>
<image xlink:href="tile55_5.png" preserveAspectRatio="none" x="13560.424805" y="-3461.791992" width="1.098633" height="1.098633"/>
<image xlink:href="tile55_4.png" preserveAspectRatio="none" x="13560.424805" y="-3462.890625" width="1.098633" height="1.098633"/>
<image xlink:href="tile55_3.png" preserveAspectRatio="none" x="13560.424805" y="-3463.989258" width="1.098633" height="1.098633"/>
<image xlink:href="tile55_2.png" preserveAspectRatio="none" x="13560.424805" y="-3465.087891" width="1.098633" height="1.098633"/>
<image xlink:href="tile56_13.png" preserveAspectRatio="none" x="13561.523438" y="-3453.00293" width="1.098633" height="1.098633"/>
<image xlink:href="tile56_12.png" preserveAspectRatio="none" x="13561.523438" y="-3454.101562" width="1.098633" height="1.098633"/>
<image xlink:href="tile56_11.png" preserveAspectRatio="none" x="13561.523438" y="-3455.200195" width="1.098633" height="1.098633"/>
<image xlink:href="tile56_10.png" preserveAspectRatio="none" x="13561.523438" y="-3456.298828" width="1.098633" height="1.098633"/>
<image xlink:href="tile56_9.png" preserveAspectRatio="none" x="13561.523438" y="-3457.397461" width="1.098633" height="1.098633"/>
<image xlink:href="tile56_8.png" preserveAspectRatio="none" x="13561.523438" y="-3458.496094" width="1.098633" height="1.098633"/>
<image xlink:href="tile56_7.png" preserveAspectRatio="none" x="13561.523438" y="-3459.594727" width="1.098633" height="1.098633"/>
<image xlink:href="tile56_6.png" preserveAspectRatio="none" x="13561.523438" y="-3460.693359" width="1.098633" height="1.098633"/>
<image xlink:href="tile56_5.png" preserveAspectRatio="none" x="13561.523438" y="-3461.791992" width="1.098633" height="1.098633"/>
<image xlink:href="tile56_4.png" preserveAspectRatio="none" x="13561.523438" y="-3462.890625" width="1.098633" height="1.098633"/>
<image xlink:href="tile56_3.png" preserveAspectRatio="none" x="13561.523438" y="-3463.989258" width="1.098633" height="1.098633"/>
<image xlink:href="tile56_2.png" preserveAspectRatio="none" x="13561.523438" y="-3465.087891" width="1.098633" height="1.098633"/>
<image xlink:href="tile56_1.png" preserveAspectRatio="none" x="13561.523438" y="-3466.186523" width="1.098633" height="1.098633"/>
<image xlink:href="tile56_0.png" preserveAspectRatio="none" x="13561.523438" y="-3467.285156" width="1.098633" height="1.098633"/>
<image xlink:href="tile57_13.png" preserveAspectRatio="none" x="13562.62207" y="-3453.00293" width="1.098633" height="1.098633"/>
<image xlink:href="tile57_12.png" preserveAspectRatio="none" x="13562.62207" y="-3454.101562" width="1.098633" height="1.098633"/>
<image xlink:href="tile57_11.png" preserveAspectRatio="none" x="13562.62207" y="-3455.200195" width="1.098633" height="1.098633"/>
<image xlink:href="tile57_10.png" preserveAspectRatio="none" x="13562.62207" y="-3456.298828" width="1.098633" height="1.098633"/>
<image xlink:href="tile57_9.png" preserveAspectRatio="none" x="13562.62207" y="-3457.397461" width="1.098633" height="1.098633"/>
<image xlink:href="tile57_8.png" preserveAspectRatio="none" x="13562.62207" y="-3458.496094" width="1.098633" height="1.098633"/>
<image xlink:href="tile57_7.png" preserveAspectRatio="none" x="13562.62207" y="-3459.594727" width="1.098633" height="1.098633"/>
<image xlink:href="tile57_6.png" preserveAspectRatio="none" x="13562.62207" y="-3460.693359" width="1.098633" height="1.098633"/>
<image xlink:href="tile57_5.png" preserveAspectRatio="none" x="13562.62207" y="-3461.791992" width="1.098633" height="1.098633"/>
<image xlink:href="tile57_4.png" preserveAspectRatio="none" x="13562.62207" y="-3462.890625" width="1.098633" height="1.098633"/>
<image xlink:href="tile57_3.png" preserveAspectRatio="none" x="13562.62207" y="-3463.989258" width="1.098633" height="1.098633"/>
<image xlink:href="tile57_2.png" preserveAspectRatio="none" x="13562.62207" y="-3465.087891" width="1.098633" height="1.098633"/>
<image xlink:href="tile57_1.png" preserveAspectRatio="none" x="13562.62207" y="-3466.186523" width="1.098633" height="1.098633"/>
<image xlink:href="tile57_0.png" preserveAspectRatio="none" x="13562.62207" y="-3467.285156" width="1.098633" height="1.098633"/>
<image xlink:href="tile58_13.png" preserveAspectRatio="none" x="13563.720703" y="-3453.00293" width="1.098633" height="1.098633"/>
<image xlink:href="tile58_12.png" preserveAspectRatio="none" x="13563.720703" y="-3454.101562" width="1.098633" height="1.098633"/>
<image xlink:href="tile58_10.png" preserveAspectRatio="none" x="13563.720703" y="-3456.298828" width="1.098633" height="1.098633"/>
<image xlink:href="tile58_9.png" preserveAspectRatio="none" x="13563.720703" y="-3457.397461" width="1.098633" height="1.098633"/>
<image xlink:href="tile58_0.png" preserveAspectRatio="none" x="13563.720703" y="-3467.285156" width="1.098633" height="1.098633"/>
<image xlink:href="tile59_9.png" preserveAspectRatio="none" x="13564.819336" y="-3457.397461" width="1.098633" height="1.098633"/>
<image xlink:href="tile59_8.png" preserveAspectRatio="none" x="13564.819336" y="-3458.496094" width="1.098633" height="1.098633"/>
<image xlink:href="tile60_9.png" preserveAspectRatio="none" x="13565.917969" y="-3457.397461" width="1.098633" height="1.098633"/>
<image xlink:href="tile61_7.png" preserveAspectRatio="none" x="13567.016602" y="-3459.594727" width="1.098633" height="1.098633"/>
<image xlink:href="tile62_8.png" preserveAspectRatio="none" x="13568.115234" y="-3458.496094" width="1.098633" height="1.098633"/>
<image xlink:href="tile62_7.png" preserveAspectRatio="none" x="13568.115234" y="-3459.594727" width="1.098633" height="1.098633"/>
<image xlink:href="tile63_11.png" preserveAspectRatio="none" x="13569.213867" y="-3455.200195" width="1.098633" height="1.098633"/>
<image xlink:href="tile63_10.png" preserveAspectRatio="none" x="13569.213867" y="-3456.298828" width="1.098633" height="1.098633"/>
<image xlink:href="tile63_9.png" preserveAspectRatio="none" x="13569.213867" y="-3457.397461" width="1.098633" height="1.098633"/>
<image xlink:href="tile63_8.png" preserveAspectRatio="none" x="13569.213867" y="-3458.496094" width="1.098633" height="1.098633"/>
<image xlink:href="tile63_7.png" preserveAspectRatio="none" x="13569.213867" y="-3459.594727" width="1.098633" height="1.098633"/>
<image xlink:href="tile63_6.png" preserveAspectRatio="none" x="13569.213867" y="-3460.693359" width="1.098633" height="1.098633"/>
<image xlink:href="tile63_4.png" preserveAspectRatio="none" x="13569.213867" y="-3462.890625" width="1.098633" height="1.098633"/>
<image xlink:href="tile63_3.png" preserveAspectRatio="none" x="13569.213867" y="-3463.989258" width="1.098633" height="1.098633"/>
<image xlink:href="tile63_2.png" preserveAspectRatio="none" x="13569.213867" y="-3465.087891" width="1.098633" height="1.098633"/>
</g>
</svg>
