<?xml version="1.0" encoding="UTF-8"?>
<svg  xmlns="http://www.w3.org/2000/svg" xmlns:xlink="http://www.w3.org/1999/xlink" xmlns:go="http://purl.org/svgmap/profile" viewBox="13500.0 -3466.666667 100.0 66.66666699999979" go:dataArea="13500.0 -3466.666667 100.0 66.66666699999979" >
<metadata>
 <rdf:RDF xmlns:rdf="http://www.w3.org/1999/02/22-rdf-syntax-ns#" xmlns:crs="http://opengis.org/xmldtds/transformations.dtd" xmlns:svg="http://www.w3.org/svg" >
  <rdf:Description>
   <crs:CoordinateReferenceSystem rdf:resource="http://purl.org/crs/84" svg:transform="matrix(100.0,0.0,0.0,-100.0,0.0,0.0)" />
  </rdf:Description>
 </rdf:RDF>
</metadata>
<globalCoordinateSystem srsName="http://purl.org/crs/84" transform="matrix(100.0,0.0,0.0,-100.0,0.0,0.0)" />
<g >
<image xlink:href="tile32_56.png" preserveAspectRatio="none" x="13535.15625" y="-3405.761719" width="1.098633" height="1.098633"/>
<image xlink:href="tile32_55.png" preserveAspectRatio="none" x="13535.15625" y="-3406.860352" width="1.098633" height="1.098633"/>
<image xlink:href="tile32_54.png" preserveAspectRatio="none" x="13535.15625" y="-3407.958984" width="1.098633" height="1.098633"/>
<image xlink:href="tile32_48.png" preserveAspectRatio="none" x="13535.15625" y="-3414.550781" width="1.098633" height="1.098633"/>
<image xlink:href="tile32_47.png" preserveAspectRatio="none" x="13535.15625" y="-3415.649414" width="1.098633" height="1.098633"/>
<image xlink:href="tile33_48.png" preserveAspectRatio="none" x="13536.254883" y="-3414.550781" width="1.098633" height="1.098633"/>
<image xlink:href="tile33_47.png" preserveAspectRatio="none" x="13536.254883" y="-3415.649414" width="1.098633" height="1.098633"/>
<image xlink:href="tile34_48.png" preserveAspectRatio="none" x="13537.353516" y="-3414.550781" width="1.098633" height="1.098633"/>
<image xlink:href="tile34_47.png" preserveAspectRatio="none" x="13537.353516" y="-3415.649414" width="1.098633" height="1.098633"/>
<image xlink:href="tile35_49.png" preserveAspectRatio="none" x="13538.452148" y="-3413.452148" width="1.098633" height="1.098633"/>
<image xlink:href="tile35_48.png" preserveAspectRatio="none" x="13538.452148" y="-3414.550781" width="1.098633" height="1.098633"/>
<image xlink:href="tile36_49.png" preserveAspectRatio="none" x="13539.550781" y="-3413.452148" width="1.098633" height="1.098633"/>
<image xlink:href="tile36_48.png" preserveAspectRatio="none" x="13539.550781" y="-3414.550781" width="1.098633" height="1.098633"/>
<image xlink:href="tile37_48.png" preserveAspectRatio="none" x="13540.649414" y="-3414.550781" width="1.098633" height="1.098633"/>
<image xlink:href="tile38_48.png" preserveAspectRatio="none" x="13541.748047" y="-3414.550781" width="1.098633" height="1.098633"/>
<image xlink:href="tile39_48.png" preserveAspectRatio="none" x="13542.84668" y="-3414.550781" width="1.098633" height="1.098633"/>
<image xlink:href="tile40_48.png" preserveAspectRatio="none" x="13543.945312" y="-3414.550781" width="1.098633" height="1.098633"/>
<image xlink:href="tile40_47.png" preserveAspectRatio="none" x="13543.945312" y="-3415.649414" width="1.098633" height="1.098633"/>
<image xlink:href="tile41_47.png" preserveAspectRatio="none" x="13545.043945" y="-3415.649414" width="1.098633" height="1.098633"/>
<image xlink:href="tile41_46.png" preserveAspectRatio="none" x="13545.043945" y="-3416.748047" width="1.098633" height="1.098633"/>
<image xlink:href="tile42_46.png" preserveAspectRatio="none" x="13546.142578" y="-3416.748047" width="1.098633" height="1.098633"/>
<image xlink:href="tile43_46.png" preserveAspectRatio="none" x="13547.241211" y="-3416.748047" width="1.098633" height="1.098633"/>
</g>
</svg>
