<?xml version="1.0" encoding="UTF-8"?>
<svg  xmlns="http://www.w3.org/2000/svg" xmlns:xlink="http://www.w3.org/1999/xlink" xmlns:go="http://purl.org/svgmap/profile" viewBox="13500.0 -3466.666667 100.0 66.66666699999979" go:dataArea="13500.0 -3466.666667 100.0 66.66666699999979" >
<metadata>
 <rdf:RDF xmlns:rdf="http://www.w3.org/1999/02/22-rdf-syntax-ns#" xmlns:crs="http://opengis.org/xmldtds/transformations.dtd" xmlns:svg="http://www.w3.org/svg" >
  <rdf:Description>
   <crs:CoordinateReferenceSystem rdf:resource="http://purl.org/crs/84" svg:transform="matrix(100.0,0.0,0.0,-100.0,0.0,0.0)" />
  </rdf:Description>
 </rdf:RDF>
</metadata>
<globalCoordinateSystem srsName="http://purl.org/crs/84" transform="matrix(100.0,0.0,0.0,-100.0,0.0,0.0)" />
<g >
<image xlink:href="tile9_37.png" preserveAspectRatio="none" x="13509.887695" y="-3426.635742" width="1.098633" height="1.098633"/>
<image xlink:href="tile10_38.png" preserveAspectRatio="none" x="13510.986328" y="-3425.537109" width="1.098633" height="1.098633"/>
<image xlink:href="tile10_37.png" preserveAspectRatio="none" x="13510.986328" y="-3426.635742" width="1.098633" height="1.098633"/>
<image xlink:href="tile11_40.png" preserveAspectRatio="none" x="13512.084961" y="-3423.339844" width="1.098633" height="1.098633"/>
<image xlink:href="tile11_39.png" preserveAspectRatio="none" x="13512.084961" y="-3424.438477" width="1.098633" height="1.098633"/>
<image xlink:href="tile11_38.png" preserveAspectRatio="none" x="13512.084961" y="-3425.537109" width="1.098633" height="1.098633"/>
<image xlink:href="tile11_37.png" preserveAspectRatio="none" x="13512.084961" y="-3426.635742" width="1.098633" height="1.098633"/>
<image xlink:href="tile12_40.png" preserveAspectRatio="none" x="13513.183594" y="-3423.339844" width="1.098633" height="1.098633"/>
<image xlink:href="tile12_39.png" preserveAspectRatio="none" x="13513.183594" y="-3424.438477" width="1.098633" height="1.098633"/>
<image xlink:href="tile12_38.png" preserveAspectRatio="none" x="13513.183594" y="-3425.537109" width="1.098633" height="1.098633"/>
<image xlink:href="tile12_37.png" preserveAspectRatio="none" x="13513.183594" y="-3426.635742" width="1.098633" height="1.098633"/>
<image xlink:href="tile13_44.png" preserveAspectRatio="none" x="13514.282227" y="-3418.945312" width="1.098633" height="1.098633"/>
<image xlink:href="tile13_43.png" preserveAspectRatio="none" x="13514.282227" y="-3420.043945" width="1.098633" height="1.098633"/>
<image xlink:href="tile13_42.png" preserveAspectRatio="none" x="13514.282227" y="-3421.142578" width="1.098633" height="1.098633"/>
<image xlink:href="tile13_41.png" preserveAspectRatio="none" x="13514.282227" y="-3422.241211" width="1.098633" height="1.098633"/>
<image xlink:href="tile13_40.png" preserveAspectRatio="none" x="13514.282227" y="-3423.339844" width="1.098633" height="1.098633"/>
<image xlink:href="tile13_39.png" preserveAspectRatio="none" x="13514.282227" y="-3424.438477" width="1.098633" height="1.098633"/>
<image xlink:href="tile13_38.png" preserveAspectRatio="none" x="13514.282227" y="-3425.537109" width="1.098633" height="1.098633"/>
<image xlink:href="tile13_37.png" preserveAspectRatio="none" x="13514.282227" y="-3426.635742" width="1.098633" height="1.098633"/>
<image xlink:href="tile14_44.png" preserveAspectRatio="none" x="13515.380859" y="-3418.945312" width="1.098633" height="1.098633"/>
<image xlink:href="tile14_43.png" preserveAspectRatio="none" x="13515.380859" y="-3420.043945" width="1.098633" height="1.098633"/>
<image xlink:href="tile14_42.png" preserveAspectRatio="none" x="13515.380859" y="-3421.142578" width="1.098633" height="1.098633"/>
<image xlink:href="tile14_41.png" preserveAspectRatio="none" x="13515.380859" y="-3422.241211" width="1.098633" height="1.098633"/>
<image xlink:href="tile14_40.png" preserveAspectRatio="none" x="13515.380859" y="-3423.339844" width="1.098633" height="1.098633"/>
<image xlink:href="tile14_39.png" preserveAspectRatio="none" x="13515.380859" y="-3424.438477" width="1.098633" height="1.098633"/>
<image xlink:href="tile14_38.png" preserveAspectRatio="none" x="13515.380859" y="-3425.537109" width="1.098633" height="1.098633"/>
<image xlink:href="tile14_37.png" preserveAspectRatio="none" x="13515.380859" y="-3426.635742" width="1.098633" height="1.098633"/>
<image xlink:href="tile15_44.png" preserveAspectRatio="none" x="13516.479492" y="-3418.945312" width="1.098633" height="1.098633"/>
<image xlink:href="tile15_43.png" preserveAspectRatio="none" x="13516.479492" y="-3420.043945" width="1.098633" height="1.098633"/>
<image xlink:href="tile15_42.png" preserveAspectRatio="none" x="13516.479492" y="-3421.142578" width="1.098633" height="1.098633"/>
<image xlink:href="tile15_40.png" preserveAspectRatio="none" x="13516.479492" y="-3423.339844" width="1.098633" height="1.098633"/>
<image xlink:href="tile15_39.png" preserveAspectRatio="none" x="13516.479492" y="-3424.438477" width="1.098633" height="1.098633"/>
<image xlink:href="tile15_38.png" preserveAspectRatio="none" x="13516.479492" y="-3425.537109" width="1.098633" height="1.098633"/>
<image xlink:href="tile15_37.png" preserveAspectRatio="none" x="13516.479492" y="-3426.635742" width="1.098633" height="1.098633"/>
</g>
</svg>
