<?xml version="1.0" encoding="UTF-8"?>
<svg  xmlns="http://www.w3.org/2000/svg" xmlns:xlink="http://www.w3.org/1999/xlink" xmlns:go="http://purl.org/svgmap/profile" viewBox="13400.0 -3533.3333333 100.0 66.6666665000001" go:dataArea="13400.0 -3533.3333333 100.0 66.6666665000001" >
<metadata>
 <rdf:RDF xmlns:rdf="http://www.w3.org/1999/02/22-rdf-syntax-ns#" xmlns:crs="http://opengis.org/xmldtds/transformations.dtd" xmlns:svg="http://www.w3.org/svg" >
  <rdf:Description>
   <crs:CoordinateReferenceSystem rdf:resource="http://purl.org/crs/84" svg:transform="matrix(100.0,0.0,0.0,-100.0,0.0,0.0)" />
  </rdf:Description>
 </rdf:RDF>
</metadata>
<globalCoordinateSystem srsName="http://purl.org/crs/84" transform="matrix(100.0,0.0,0.0,-100.0,0.0,0.0)" />
<g >
<image xlink:href="tile0_8.png" preserveAspectRatio="none" x="13394.53125" y="-3471.679688" width="8.789062" height="8.789062"/>
<image xlink:href="tile0_7.png" preserveAspectRatio="none" x="13394.53125" y="-3480.46875" width="8.789062" height="8.789062"/>
<image xlink:href="tile0_6.png" preserveAspectRatio="none" x="13394.53125" y="-3489.257812" width="8.789062" height="8.789062"/>
<image xlink:href="tile0_5.png" preserveAspectRatio="none" x="13394.53125" y="-3498.046875" width="8.789062" height="8.789062"/>
<image xlink:href="tile0_4.png" preserveAspectRatio="none" x="13394.53125" y="-3506.835938" width="8.789062" height="8.789062"/>
<image xlink:href="tile0_3.png" preserveAspectRatio="none" x="13394.53125" y="-3515.625" width="8.789062" height="8.789062"/>
<image xlink:href="tile1_8.png" preserveAspectRatio="none" x="13403.320312" y="-3471.679688" width="8.789062" height="8.789062"/>
<image xlink:href="tile1_7.png" preserveAspectRatio="none" x="13403.320312" y="-3480.46875" width="8.789062" height="8.789062"/>
<image xlink:href="tile1_6.png" preserveAspectRatio="none" x="13403.320312" y="-3489.257812" width="8.789062" height="8.789062"/>
<image xlink:href="tile1_5.png" preserveAspectRatio="none" x="13403.320312" y="-3498.046875" width="8.789062" height="8.789062"/>
<image xlink:href="tile1_4.png" preserveAspectRatio="none" x="13403.320312" y="-3506.835938" width="8.789062" height="8.789062"/>
<image xlink:href="tile1_3.png" preserveAspectRatio="none" x="13403.320312" y="-3515.625" width="8.789062" height="8.789062"/>
<image xlink:href="tile2_8.png" preserveAspectRatio="none" x="13412.109375" y="-3471.679688" width="8.789062" height="8.789062"/>
<image xlink:href="tile2_7.png" preserveAspectRatio="none" x="13412.109375" y="-3480.46875" width="8.789062" height="8.789062"/>
<image xlink:href="tile2_6.png" preserveAspectRatio="none" x="13412.109375" y="-3489.257812" width="8.789062" height="8.789062"/>
<image xlink:href="tile2_5.png" preserveAspectRatio="none" x="13412.109375" y="-3498.046875" width="8.789062" height="8.789062"/>
<image xlink:href="tile2_4.png" preserveAspectRatio="none" x="13412.109375" y="-3506.835938" width="8.789062" height="8.789062"/>
<image xlink:href="tile2_3.png" preserveAspectRatio="none" x="13412.109375" y="-3515.625" width="8.789062" height="8.789062"/>
<image xlink:href="tile3_7.png" preserveAspectRatio="none" x="13420.898438" y="-3480.46875" width="8.789062" height="8.789062"/>
<image xlink:href="tile3_6.png" preserveAspectRatio="none" x="13420.898438" y="-3489.257812" width="8.789062" height="8.789062"/>
<image xlink:href="tile3_5.png" preserveAspectRatio="none" x="13420.898438" y="-3498.046875" width="8.789062" height="8.789062"/>
<image xlink:href="tile3_4.png" preserveAspectRatio="none" x="13420.898438" y="-3506.835938" width="8.789062" height="8.789062"/>
<image xlink:href="tile4_7.png" preserveAspectRatio="none" x="13429.6875" y="-3480.46875" width="8.789062" height="8.789062"/>
<image xlink:href="tile4_6.png" preserveAspectRatio="none" x="13429.6875" y="-3489.257812" width="8.789062" height="8.789062"/>
<image xlink:href="tile4_5.png" preserveAspectRatio="none" x="13429.6875" y="-3498.046875" width="8.789062" height="8.789062"/>
<image xlink:href="tile4_4.png" preserveAspectRatio="none" x="13429.6875" y="-3506.835938" width="8.789062" height="8.789062"/>
<image xlink:href="tile4_3.png" preserveAspectRatio="none" x="13429.6875" y="-3515.625" width="8.789062" height="8.789062"/>
<image xlink:href="tile5_7.png" preserveAspectRatio="none" x="13438.476562" y="-3480.46875" width="8.789062" height="8.789062"/>
<image xlink:href="tile5_6.png" preserveAspectRatio="none" x="13438.476562" y="-3489.257812" width="8.789062" height="8.789062"/>
<image xlink:href="tile5_5.png" preserveAspectRatio="none" x="13438.476562" y="-3498.046875" width="8.789062" height="8.789062"/>
<image xlink:href="tile5_4.png" preserveAspectRatio="none" x="13438.476562" y="-3506.835938" width="8.789062" height="8.789062"/>
<image xlink:href="tile5_3.png" preserveAspectRatio="none" x="13438.476562" y="-3515.625" width="8.789062" height="8.789062"/>
<image xlink:href="tile5_2.png" preserveAspectRatio="none" x="13438.476562" y="-3524.414062" width="8.789062" height="8.789062"/>
<image xlink:href="tile6_7.png" preserveAspectRatio="none" x="13447.265625" y="-3480.46875" width="8.789062" height="8.789062"/>
<image xlink:href="tile6_6.png" preserveAspectRatio="none" x="13447.265625" y="-3489.257812" width="8.789062" height="8.789062"/>
<image xlink:href="tile6_5.png" preserveAspectRatio="none" x="13447.265625" y="-3498.046875" width="8.789062" height="8.789062"/>
<image xlink:href="tile6_4.png" preserveAspectRatio="none" x="13447.265625" y="-3506.835938" width="8.789062" height="8.789062"/>
<image xlink:href="tile6_3.png" preserveAspectRatio="none" x="13447.265625" y="-3515.625" width="8.789062" height="8.789062"/>
<image xlink:href="tile6_2.png" preserveAspectRatio="none" x="13447.265625" y="-3524.414062" width="8.789062" height="8.789062"/>
<image xlink:href="tile6_1.png" preserveAspectRatio="none" x="13447.265625" y="-3533.203125" width="8.789062" height="8.789062"/>
<image xlink:href="tile7_7.png" preserveAspectRatio="none" x="13456.054688" y="-3480.46875" width="8.789062" height="8.789062"/>
<image xlink:href="tile7_6.png" preserveAspectRatio="none" x="13456.054688" y="-3489.257812" width="8.789062" height="8.789062"/>
<image xlink:href="tile7_5.png" preserveAspectRatio="none" x="13456.054688" y="-3498.046875" width="8.789062" height="8.789062"/>
<image xlink:href="tile7_4.png" preserveAspectRatio="none" x="13456.054688" y="-3506.835938" width="8.789062" height="8.789062"/>
<image xlink:href="tile7_3.png" preserveAspectRatio="none" x="13456.054688" y="-3515.625" width="8.789062" height="8.789062"/>
<image xlink:href="tile7_2.png" preserveAspectRatio="none" x="13456.054688" y="-3524.414062" width="8.789062" height="8.789062"/>
<image xlink:href="tile7_1.png" preserveAspectRatio="none" x="13456.054688" y="-3533.203125" width="8.789062" height="8.789062"/>
<image xlink:href="tile8_7.png" preserveAspectRatio="none" x="13464.84375" y="-3480.46875" width="8.789062" height="8.789062"/>
<image xlink:href="tile8_6.png" preserveAspectRatio="none" x="13464.84375" y="-3489.257812" width="8.789062" height="8.789062"/>
<image xlink:href="tile8_5.png" preserveAspectRatio="none" x="13464.84375" y="-3498.046875" width="8.789062" height="8.789062"/>
<image xlink:href="tile8_4.png" preserveAspectRatio="none" x="13464.84375" y="-3506.835938" width="8.789062" height="8.789062"/>
<image xlink:href="tile8_3.png" preserveAspectRatio="none" x="13464.84375" y="-3515.625" width="8.789062" height="8.789062"/>
<image xlink:href="tile8_2.png" preserveAspectRatio="none" x="13464.84375" y="-3524.414062" width="8.789062" height="8.789062"/>
<image xlink:href="tile8_1.png" preserveAspectRatio="none" x="13464.84375" y="-3533.203125" width="8.789062" height="8.789062"/>
<image xlink:href="tile8_0.png" preserveAspectRatio="none" x="13464.84375" y="-3541.992188" width="8.789062" height="8.789062"/>
<image xlink:href="tile9_8.png" preserveAspectRatio="none" x="13473.632812" y="-3471.679688" width="8.789062" height="8.789062"/>
<image xlink:href="tile9_7.png" preserveAspectRatio="none" x="13473.632812" y="-3480.46875" width="8.789062" height="8.789062"/>
<image xlink:href="tile9_6.png" preserveAspectRatio="none" x="13473.632812" y="-3489.257812" width="8.789062" height="8.789062"/>
<image xlink:href="tile9_5.png" preserveAspectRatio="none" x="13473.632812" y="-3498.046875" width="8.789062" height="8.789062"/>
<image xlink:href="tile9_4.png" preserveAspectRatio="none" x="13473.632812" y="-3506.835938" width="8.789062" height="8.789062"/>
<image xlink:href="tile9_3.png" preserveAspectRatio="none" x="13473.632812" y="-3515.625" width="8.789062" height="8.789062"/>
<image xlink:href="tile9_2.png" preserveAspectRatio="none" x="13473.632812" y="-3524.414062" width="8.789062" height="8.789062"/>
<image xlink:href="tile9_1.png" preserveAspectRatio="none" x="13473.632812" y="-3533.203125" width="8.789062" height="8.789062"/>
<image xlink:href="tile9_0.png" preserveAspectRatio="none" x="13473.632812" y="-3541.992188" width="8.789062" height="8.789062"/>
<image xlink:href="tile10_8.png" preserveAspectRatio="none" x="13482.421875" y="-3471.679688" width="8.789062" height="8.789062"/>
<image xlink:href="tile10_7.png" preserveAspectRatio="none" x="13482.421875" y="-3480.46875" width="8.789062" height="8.789062"/>
<image xlink:href="tile10_6.png" preserveAspectRatio="none" x="13482.421875" y="-3489.257812" width="8.789062" height="8.789062"/>
<image xlink:href="tile10_5.png" preserveAspectRatio="none" x="13482.421875" y="-3498.046875" width="8.789062" height="8.789062"/>
<image xlink:href="tile10_4.png" preserveAspectRatio="none" x="13482.421875" y="-3506.835938" width="8.789062" height="8.789062"/>
<image xlink:href="tile10_3.png" preserveAspectRatio="none" x="13482.421875" y="-3515.625" width="8.789062" height="8.789062"/>
<image xlink:href="tile10_2.png" preserveAspectRatio="none" x="13482.421875" y="-3524.414062" width="8.789062" height="8.789062"/>
<image xlink:href="tile10_1.png" preserveAspectRatio="none" x="13482.421875" y="-3533.203125" width="8.789062" height="8.789062"/>
<image xlink:href="tile10_0.png" preserveAspectRatio="none" x="13482.421875" y="-3541.992188" width="8.789062" height="8.789062"/>
<image xlink:href="tile11_8.png" preserveAspectRatio="none" x="13491.210938" y="-3471.679688" width="8.789062" height="8.789062"/>
<image xlink:href="tile11_7.png" preserveAspectRatio="none" x="13491.210938" y="-3480.46875" width="8.789062" height="8.789062"/>
<image xlink:href="tile11_6.png" preserveAspectRatio="none" x="13491.210938" y="-3489.257812" width="8.789062" height="8.789062"/>
<image xlink:href="tile11_5.png" preserveAspectRatio="none" x="13491.210938" y="-3498.046875" width="8.789062" height="8.789062"/>
<image xlink:href="tile11_4.png" preserveAspectRatio="none" x="13491.210938" y="-3506.835938" width="8.789062" height="8.789062"/>
<image xlink:href="tile11_3.png" preserveAspectRatio="none" x="13491.210938" y="-3515.625" width="8.789062" height="8.789062"/>
<image xlink:href="tile11_2.png" preserveAspectRatio="none" x="13491.210938" y="-3524.414062" width="8.789062" height="8.789062"/>
<image xlink:href="tile11_1.png" preserveAspectRatio="none" x="13491.210938" y="-3533.203125" width="8.789062" height="8.789062"/>
</g>
</svg>
