<?xml version="1.0" encoding="UTF-8"?>
<svg  xmlns="http://www.w3.org/2000/svg" xmlns:xlink="http://www.w3.org/1999/xlink" xmlns:go="http://purl.org/svgmap/profile" viewBox="13700.0 -3710.4207172 100.0 37.48331210000018" go:dataArea="13700.0 -3710.4207172 100.0 37.48331210000018" >
<metadata>
 <rdf:RDF xmlns:rdf="http://www.w3.org/1999/02/22-rdf-syntax-ns#" xmlns:crs="http://opengis.org/xmldtds/transformations.dtd" xmlns:svg="http://www.w3.org/svg" >
  <rdf:Description>
   <crs:CoordinateReferenceSystem rdf:resource="http://purl.org/crs/84" svg:transform="matrix(100.0,0.0,0.0,-100.0,0.0,0.0)" />
  </rdf:Description>
 </rdf:RDF>
</metadata>
<globalCoordinateSystem srsName="http://purl.org/crs/84" transform="matrix(100.0,0.0,0.0,-100.0,0.0,0.0)" />
<g >
<image xlink:href="tile0_9.png" preserveAspectRatio="none" x="13697.753906" y="-3673.828125" width="4.394531" height="4.394531"/>
<image xlink:href="tile0_8.png" preserveAspectRatio="none" x="13697.753906" y="-3678.222656" width="4.394531" height="4.394531"/>
<image xlink:href="tile0_7.png" preserveAspectRatio="none" x="13697.753906" y="-3682.617188" width="4.394531" height="4.394531"/>
<image xlink:href="tile0_6.png" preserveAspectRatio="none" x="13697.753906" y="-3687.011719" width="4.394531" height="4.394531"/>
<image xlink:href="tile1_9.png" preserveAspectRatio="none" x="13702.148438" y="-3673.828125" width="4.394531" height="4.394531"/>
<image xlink:href="tile1_8.png" preserveAspectRatio="none" x="13702.148438" y="-3678.222656" width="4.394531" height="4.394531"/>
<image xlink:href="tile1_7.png" preserveAspectRatio="none" x="13702.148438" y="-3682.617188" width="4.394531" height="4.394531"/>
<image xlink:href="tile2_7.png" preserveAspectRatio="none" x="13706.542969" y="-3682.617188" width="4.394531" height="4.394531"/>
<image xlink:href="tile15_3.png" preserveAspectRatio="none" x="13763.671875" y="-3700.195312" width="4.394531" height="4.394531"/>
<image xlink:href="tile16_3.png" preserveAspectRatio="none" x="13768.066406" y="-3700.195312" width="4.394531" height="4.394531"/>
<image xlink:href="tile17_5.png" preserveAspectRatio="none" x="13772.460938" y="-3691.40625" width="4.394531" height="4.394531"/>
<image xlink:href="tile17_4.png" preserveAspectRatio="none" x="13772.460938" y="-3695.800781" width="4.394531" height="4.394531"/>
<image xlink:href="tile17_3.png" preserveAspectRatio="none" x="13772.460938" y="-3700.195312" width="4.394531" height="4.394531"/>
<image xlink:href="tile17_2.png" preserveAspectRatio="none" x="13772.460938" y="-3704.589844" width="4.394531" height="4.394531"/>
<image xlink:href="tile18_7.png" preserveAspectRatio="none" x="13776.855469" y="-3682.617188" width="4.394531" height="4.394531"/>
<image xlink:href="tile18_6.png" preserveAspectRatio="none" x="13776.855469" y="-3687.011719" width="4.394531" height="4.394531"/>
<image xlink:href="tile18_5.png" preserveAspectRatio="none" x="13776.855469" y="-3691.40625" width="4.394531" height="4.394531"/>
<image xlink:href="tile18_4.png" preserveAspectRatio="none" x="13776.855469" y="-3695.800781" width="4.394531" height="4.394531"/>
<image xlink:href="tile18_3.png" preserveAspectRatio="none" x="13776.855469" y="-3700.195312" width="4.394531" height="4.394531"/>
<image xlink:href="tile18_2.png" preserveAspectRatio="none" x="13776.855469" y="-3704.589844" width="4.394531" height="4.394531"/>
<image xlink:href="tile19_5.png" preserveAspectRatio="none" x="13781.25" y="-3691.40625" width="4.394531" height="4.394531"/>
<image xlink:href="tile19_4.png" preserveAspectRatio="none" x="13781.25" y="-3695.800781" width="4.394531" height="4.394531"/>
<image xlink:href="tile19_3.png" preserveAspectRatio="none" x="13781.25" y="-3700.195312" width="4.394531" height="4.394531"/>
<image xlink:href="tile19_2.png" preserveAspectRatio="none" x="13781.25" y="-3704.589844" width="4.394531" height="4.394531"/>
<image xlink:href="tile20_5.png" preserveAspectRatio="none" x="13785.644531" y="-3691.40625" width="4.394531" height="4.394531"/>
<image xlink:href="tile20_4.png" preserveAspectRatio="none" x="13785.644531" y="-3695.800781" width="4.394531" height="4.394531"/>
<image xlink:href="tile20_3.png" preserveAspectRatio="none" x="13785.644531" y="-3700.195312" width="4.394531" height="4.394531"/>
<image xlink:href="tile20_2.png" preserveAspectRatio="none" x="13785.644531" y="-3704.589844" width="4.394531" height="4.394531"/>
<image xlink:href="tile20_1.png" preserveAspectRatio="none" x="13785.644531" y="-3708.984375" width="4.394531" height="4.394531"/>
<image xlink:href="tile21_4.png" preserveAspectRatio="none" x="13790.039062" y="-3695.800781" width="4.394531" height="4.394531"/>
<image xlink:href="tile21_3.png" preserveAspectRatio="none" x="13790.039062" y="-3700.195312" width="4.394531" height="4.394531"/>
<image xlink:href="tile21_2.png" preserveAspectRatio="none" x="13790.039062" y="-3704.589844" width="4.394531" height="4.394531"/>
<image xlink:href="tile21_1.png" preserveAspectRatio="none" x="13790.039062" y="-3708.984375" width="4.394531" height="4.394531"/>
<image xlink:href="tile22_2.png" preserveAspectRatio="none" x="13794.433594" y="-3704.589844" width="4.394531" height="4.394531"/>
<image xlink:href="tile22_1.png" preserveAspectRatio="none" x="13794.433594" y="-3708.984375" width="4.394531" height="4.394531"/>
<image xlink:href="tile22_0.png" preserveAspectRatio="none" x="13794.433594" y="-3713.378906" width="4.394531" height="4.394531"/>
<image xlink:href="tile23_2.png" preserveAspectRatio="none" x="13798.828125" y="-3704.589844" width="4.394531" height="4.394531"/>
<image xlink:href="tile23_1.png" preserveAspectRatio="none" x="13798.828125" y="-3708.984375" width="4.394531" height="4.394531"/>
<image xlink:href="tile23_0.png" preserveAspectRatio="none" x="13798.828125" y="-3713.378906" width="4.394531" height="4.394531"/>
</g>
</svg>
