<?xml version="1.0" encoding="UTF-8"?>
<svg  xmlns="http://www.w3.org/2000/svg" xmlns:xlink="http://www.w3.org/1999/xlink" xmlns:go="http://purl.org/svgmap/profile" viewBox="13035.550000000001 -3333.3333333 48.90000000000043 32.15416629999979" go:dataArea="13035.550000000001 -3333.3333333 48.90000000000043 32.15416629999979" >
<metadata>
 <rdf:RDF xmlns:rdf="http://www.w3.org/1999/02/22-rdf-syntax-ns#" xmlns:crs="http://opengis.org/xmldtds/transformations.dtd" xmlns:svg="http://www.w3.org/svg" >
  <rdf:Description>
   <crs:CoordinateReferenceSystem rdf:resource="http://purl.org/crs/84" svg:transform="matrix(100.0,0.0,0.0,-100.0,0.0,0.0)" />
  </rdf:Description>
 </rdf:RDF>
</metadata>
<globalCoordinateSystem srsName="http://purl.org/crs/84" transform="matrix(100.0,0.0,0.0,-100.0,0.0,0.0)" />
<g >
<image xlink:href="tile0_15.png" preserveAspectRatio="none" x="13035.27832" y="-3317.871094" width="1.098633" height="1.098633"/>
<image xlink:href="tile1_16.png" preserveAspectRatio="none" x="13036.376953" y="-3316.772461" width="1.098633" height="1.098633"/>
<image xlink:href="tile1_15.png" preserveAspectRatio="none" x="13036.376953" y="-3317.871094" width="1.098633" height="1.098633"/>
<image xlink:href="tile2_17.png" preserveAspectRatio="none" x="13037.475586" y="-3315.673828" width="1.098633" height="1.098633"/>
<image xlink:href="tile2_16.png" preserveAspectRatio="none" x="13037.475586" y="-3316.772461" width="1.098633" height="1.098633"/>
<image xlink:href="tile2_15.png" preserveAspectRatio="none" x="13037.475586" y="-3317.871094" width="1.098633" height="1.098633"/>
<image xlink:href="tile3_18.png" preserveAspectRatio="none" x="13038.574219" y="-3314.575195" width="1.098633" height="1.098633"/>
<image xlink:href="tile3_17.png" preserveAspectRatio="none" x="13038.574219" y="-3315.673828" width="1.098633" height="1.098633"/>
<image xlink:href="tile3_16.png" preserveAspectRatio="none" x="13038.574219" y="-3316.772461" width="1.098633" height="1.098633"/>
<image xlink:href="tile3_15.png" preserveAspectRatio="none" x="13038.574219" y="-3317.871094" width="1.098633" height="1.098633"/>
<image xlink:href="tile4_22.png" preserveAspectRatio="none" x="13039.672852" y="-3310.180664" width="1.098633" height="1.098633"/>
<image xlink:href="tile4_21.png" preserveAspectRatio="none" x="13039.672852" y="-3311.279297" width="1.098633" height="1.098633"/>
<image xlink:href="tile4_20.png" preserveAspectRatio="none" x="13039.672852" y="-3312.37793" width="1.098633" height="1.098633"/>
<image xlink:href="tile4_19.png" preserveAspectRatio="none" x="13039.672852" y="-3313.476562" width="1.098633" height="1.098633"/>
<image xlink:href="tile4_18.png" preserveAspectRatio="none" x="13039.672852" y="-3314.575195" width="1.098633" height="1.098633"/>
<image xlink:href="tile4_17.png" preserveAspectRatio="none" x="13039.672852" y="-3315.673828" width="1.098633" height="1.098633"/>
<image xlink:href="tile4_16.png" preserveAspectRatio="none" x="13039.672852" y="-3316.772461" width="1.098633" height="1.098633"/>
<image xlink:href="tile4_15.png" preserveAspectRatio="none" x="13039.672852" y="-3317.871094" width="1.098633" height="1.098633"/>
<image xlink:href="tile5_24.png" preserveAspectRatio="none" x="13040.771484" y="-3307.983398" width="1.098633" height="1.098633"/>
<image xlink:href="tile5_23.png" preserveAspectRatio="none" x="13040.771484" y="-3309.082031" width="1.098633" height="1.098633"/>
<image xlink:href="tile5_22.png" preserveAspectRatio="none" x="13040.771484" y="-3310.180664" width="1.098633" height="1.098633"/>
<image xlink:href="tile5_21.png" preserveAspectRatio="none" x="13040.771484" y="-3311.279297" width="1.098633" height="1.098633"/>
<image xlink:href="tile5_20.png" preserveAspectRatio="none" x="13040.771484" y="-3312.37793" width="1.098633" height="1.098633"/>
<image xlink:href="tile5_19.png" preserveAspectRatio="none" x="13040.771484" y="-3313.476562" width="1.098633" height="1.098633"/>
<image xlink:href="tile5_18.png" preserveAspectRatio="none" x="13040.771484" y="-3314.575195" width="1.098633" height="1.098633"/>
<image xlink:href="tile5_17.png" preserveAspectRatio="none" x="13040.771484" y="-3315.673828" width="1.098633" height="1.098633"/>
<image xlink:href="tile5_16.png" preserveAspectRatio="none" x="13040.771484" y="-3316.772461" width="1.098633" height="1.098633"/>
<image xlink:href="tile5_15.png" preserveAspectRatio="none" x="13040.771484" y="-3317.871094" width="1.098633" height="1.098633"/>
<image xlink:href="tile6_28.png" preserveAspectRatio="none" x="13041.870117" y="-3303.588867" width="1.098633" height="1.098633"/>
<image xlink:href="tile6_27.png" preserveAspectRatio="none" x="13041.870117" y="-3304.6875" width="1.098633" height="1.098633"/>
<image xlink:href="tile6_26.png" preserveAspectRatio="none" x="13041.870117" y="-3305.786133" width="1.098633" height="1.098633"/>
<image xlink:href="tile6_25.png" preserveAspectRatio="none" x="13041.870117" y="-3306.884766" width="1.098633" height="1.098633"/>
<image xlink:href="tile6_24.png" preserveAspectRatio="none" x="13041.870117" y="-3307.983398" width="1.098633" height="1.098633"/>
<image xlink:href="tile6_23.png" preserveAspectRatio="none" x="13041.870117" y="-3309.082031" width="1.098633" height="1.098633"/>
<image xlink:href="tile6_22.png" preserveAspectRatio="none" x="13041.870117" y="-3310.180664" width="1.098633" height="1.098633"/>
<image xlink:href="tile6_21.png" preserveAspectRatio="none" x="13041.870117" y="-3311.279297" width="1.098633" height="1.098633"/>
<image xlink:href="tile6_20.png" preserveAspectRatio="none" x="13041.870117" y="-3312.37793" width="1.098633" height="1.098633"/>
<image xlink:href="tile6_19.png" preserveAspectRatio="none" x="13041.870117" y="-3313.476562" width="1.098633" height="1.098633"/>
<image xlink:href="tile6_18.png" preserveAspectRatio="none" x="13041.870117" y="-3314.575195" width="1.098633" height="1.098633"/>
<image xlink:href="tile6_17.png" preserveAspectRatio="none" x="13041.870117" y="-3315.673828" width="1.098633" height="1.098633"/>
<image xlink:href="tile6_16.png" preserveAspectRatio="none" x="13041.870117" y="-3316.772461" width="1.098633" height="1.098633"/>
<image xlink:href="tile6_15.png" preserveAspectRatio="none" x="13041.870117" y="-3317.871094" width="1.098633" height="1.098633"/>
<image xlink:href="tile7_29.png" preserveAspectRatio="none" x="13042.96875" y="-3302.490234" width="1.098633" height="1.098633"/>
<image xlink:href="tile7_28.png" preserveAspectRatio="none" x="13042.96875" y="-3303.588867" width="1.098633" height="1.098633"/>
<image xlink:href="tile7_27.png" preserveAspectRatio="none" x="13042.96875" y="-3304.6875" width="1.098633" height="1.098633"/>
<image xlink:href="tile7_26.png" preserveAspectRatio="none" x="13042.96875" y="-3305.786133" width="1.098633" height="1.098633"/>
<image xlink:href="tile7_24.png" preserveAspectRatio="none" x="13042.96875" y="-3307.983398" width="1.098633" height="1.098633"/>
<image xlink:href="tile7_23.png" preserveAspectRatio="none" x="13042.96875" y="-3309.082031" width="1.098633" height="1.098633"/>
<image xlink:href="tile7_22.png" preserveAspectRatio="none" x="13042.96875" y="-3310.180664" width="1.098633" height="1.098633"/>
<image xlink:href="tile7_21.png" preserveAspectRatio="none" x="13042.96875" y="-3311.279297" width="1.098633" height="1.098633"/>
<image xlink:href="tile7_20.png" preserveAspectRatio="none" x="13042.96875" y="-3312.37793" width="1.098633" height="1.098633"/>
<image xlink:href="tile7_18.png" preserveAspectRatio="none" x="13042.96875" y="-3314.575195" width="1.098633" height="1.098633"/>
<image xlink:href="tile7_17.png" preserveAspectRatio="none" x="13042.96875" y="-3315.673828" width="1.098633" height="1.098633"/>
<image xlink:href="tile7_16.png" preserveAspectRatio="none" x="13042.96875" y="-3316.772461" width="1.098633" height="1.098633"/>
<image xlink:href="tile7_15.png" preserveAspectRatio="none" x="13042.96875" y="-3317.871094" width="1.098633" height="1.098633"/>
<image xlink:href="tile8_28.png" preserveAspectRatio="none" x="13044.067383" y="-3303.588867" width="1.098633" height="1.098633"/>
<image xlink:href="tile8_27.png" preserveAspectRatio="none" x="13044.067383" y="-3304.6875" width="1.098633" height="1.098633"/>
<image xlink:href="tile8_26.png" preserveAspectRatio="none" x="13044.067383" y="-3305.786133" width="1.098633" height="1.098633"/>
<image xlink:href="tile8_24.png" preserveAspectRatio="none" x="13044.067383" y="-3307.983398" width="1.098633" height="1.098633"/>
<image xlink:href="tile8_23.png" preserveAspectRatio="none" x="13044.067383" y="-3309.082031" width="1.098633" height="1.098633"/>
<image xlink:href="tile8_22.png" preserveAspectRatio="none" x="13044.067383" y="-3310.180664" width="1.098633" height="1.098633"/>
<image xlink:href="tile8_21.png" preserveAspectRatio="none" x="13044.067383" y="-3311.279297" width="1.098633" height="1.098633"/>
<image xlink:href="tile8_20.png" preserveAspectRatio="none" x="13044.067383" y="-3312.37793" width="1.098633" height="1.098633"/>
<image xlink:href="tile8_19.png" preserveAspectRatio="none" x="13044.067383" y="-3313.476562" width="1.098633" height="1.098633"/>
<image xlink:href="tile8_18.png" preserveAspectRatio="none" x="13044.067383" y="-3314.575195" width="1.098633" height="1.098633"/>
<image xlink:href="tile8_16.png" preserveAspectRatio="none" x="13044.067383" y="-3316.772461" width="1.098633" height="1.098633"/>
<image xlink:href="tile8_15.png" preserveAspectRatio="none" x="13044.067383" y="-3317.871094" width="1.098633" height="1.098633"/>
<image xlink:href="tile9_29.png" preserveAspectRatio="none" x="13045.166016" y="-3302.490234" width="1.098633" height="1.098633"/>
<image xlink:href="tile9_28.png" preserveAspectRatio="none" x="13045.166016" y="-3303.588867" width="1.098633" height="1.098633"/>
<image xlink:href="tile9_27.png" preserveAspectRatio="none" x="13045.166016" y="-3304.6875" width="1.098633" height="1.098633"/>
<image xlink:href="tile9_26.png" preserveAspectRatio="none" x="13045.166016" y="-3305.786133" width="1.098633" height="1.098633"/>
<image xlink:href="tile9_23.png" preserveAspectRatio="none" x="13045.166016" y="-3309.082031" width="1.098633" height="1.098633"/>
<image xlink:href="tile9_22.png" preserveAspectRatio="none" x="13045.166016" y="-3310.180664" width="1.098633" height="1.098633"/>
<image xlink:href="tile9_21.png" preserveAspectRatio="none" x="13045.166016" y="-3311.279297" width="1.098633" height="1.098633"/>
<image xlink:href="tile9_20.png" preserveAspectRatio="none" x="13045.166016" y="-3312.37793" width="1.098633" height="1.098633"/>
<image xlink:href="tile9_19.png" preserveAspectRatio="none" x="13045.166016" y="-3313.476562" width="1.098633" height="1.098633"/>
<image xlink:href="tile9_18.png" preserveAspectRatio="none" x="13045.166016" y="-3314.575195" width="1.098633" height="1.098633"/>
<image xlink:href="tile9_17.png" preserveAspectRatio="none" x="13045.166016" y="-3315.673828" width="1.098633" height="1.098633"/>
<image xlink:href="tile9_16.png" preserveAspectRatio="none" x="13045.166016" y="-3316.772461" width="1.098633" height="1.098633"/>
<image xlink:href="tile9_15.png" preserveAspectRatio="none" x="13045.166016" y="-3317.871094" width="1.098633" height="1.098633"/>
<image xlink:href="tile10_30.png" preserveAspectRatio="none" x="13046.264648" y="-3301.391602" width="1.098633" height="1.098633"/>
<image xlink:href="tile10_29.png" preserveAspectRatio="none" x="13046.264648" y="-3302.490234" width="1.098633" height="1.098633"/>
<image xlink:href="tile10_24.png" preserveAspectRatio="none" x="13046.264648" y="-3307.983398" width="1.098633" height="1.098633"/>
<image xlink:href="tile10_23.png" preserveAspectRatio="none" x="13046.264648" y="-3309.082031" width="1.098633" height="1.098633"/>
<image xlink:href="tile10_22.png" preserveAspectRatio="none" x="13046.264648" y="-3310.180664" width="1.098633" height="1.098633"/>
<image xlink:href="tile10_21.png" preserveAspectRatio="none" x="13046.264648" y="-3311.279297" width="1.098633" height="1.098633"/>
<image xlink:href="tile10_20.png" preserveAspectRatio="none" x="13046.264648" y="-3312.37793" width="1.098633" height="1.098633"/>
<image xlink:href="tile10_19.png" preserveAspectRatio="none" x="13046.264648" y="-3313.476562" width="1.098633" height="1.098633"/>
<image xlink:href="tile10_18.png" preserveAspectRatio="none" x="13046.264648" y="-3314.575195" width="1.098633" height="1.098633"/>
<image xlink:href="tile10_17.png" preserveAspectRatio="none" x="13046.264648" y="-3315.673828" width="1.098633" height="1.098633"/>
<image xlink:href="tile10_16.png" preserveAspectRatio="none" x="13046.264648" y="-3316.772461" width="1.098633" height="1.098633"/>
<image xlink:href="tile10_15.png" preserveAspectRatio="none" x="13046.264648" y="-3317.871094" width="1.098633" height="1.098633"/>
<image xlink:href="tile11_30.png" preserveAspectRatio="none" x="13047.363281" y="-3301.391602" width="1.098633" height="1.098633"/>
<image xlink:href="tile11_29.png" preserveAspectRatio="none" x="13047.363281" y="-3302.490234" width="1.098633" height="1.098633"/>
<image xlink:href="tile11_24.png" preserveAspectRatio="none" x="13047.363281" y="-3307.983398" width="1.098633" height="1.098633"/>
<image xlink:href="tile11_23.png" preserveAspectRatio="none" x="13047.363281" y="-3309.082031" width="1.098633" height="1.098633"/>
<image xlink:href="tile11_22.png" preserveAspectRatio="none" x="13047.363281" y="-3310.180664" width="1.098633" height="1.098633"/>
<image xlink:href="tile11_21.png" preserveAspectRatio="none" x="13047.363281" y="-3311.279297" width="1.098633" height="1.098633"/>
<image xlink:href="tile11_20.png" preserveAspectRatio="none" x="13047.363281" y="-3312.37793" width="1.098633" height="1.098633"/>
<image xlink:href="tile11_19.png" preserveAspectRatio="none" x="13047.363281" y="-3313.476562" width="1.098633" height="1.098633"/>
<image xlink:href="tile11_18.png" preserveAspectRatio="none" x="13047.363281" y="-3314.575195" width="1.098633" height="1.098633"/>
<image xlink:href="tile11_17.png" preserveAspectRatio="none" x="13047.363281" y="-3315.673828" width="1.098633" height="1.098633"/>
<image xlink:href="tile11_16.png" preserveAspectRatio="none" x="13047.363281" y="-3316.772461" width="1.098633" height="1.098633"/>
<image xlink:href="tile11_15.png" preserveAspectRatio="none" x="13047.363281" y="-3317.871094" width="1.098633" height="1.098633"/>
<image xlink:href="tile12_24.png" preserveAspectRatio="none" x="13048.461914" y="-3307.983398" width="1.098633" height="1.098633"/>
<image xlink:href="tile12_23.png" preserveAspectRatio="none" x="13048.461914" y="-3309.082031" width="1.098633" height="1.098633"/>
<image xlink:href="tile12_20.png" preserveAspectRatio="none" x="13048.461914" y="-3312.37793" width="1.098633" height="1.098633"/>
<image xlink:href="tile12_19.png" preserveAspectRatio="none" x="13048.461914" y="-3313.476562" width="1.098633" height="1.098633"/>
<image xlink:href="tile12_18.png" preserveAspectRatio="none" x="13048.461914" y="-3314.575195" width="1.098633" height="1.098633"/>
<image xlink:href="tile12_17.png" preserveAspectRatio="none" x="13048.461914" y="-3315.673828" width="1.098633" height="1.098633"/>
<image xlink:href="tile12_16.png" preserveAspectRatio="none" x="13048.461914" y="-3316.772461" width="1.098633" height="1.098633"/>
<image xlink:href="tile12_15.png" preserveAspectRatio="none" x="13048.461914" y="-3317.871094" width="1.098633" height="1.098633"/>
<image xlink:href="tile13_20.png" preserveAspectRatio="none" x="13049.560547" y="-3312.37793" width="1.098633" height="1.098633"/>
<image xlink:href="tile13_19.png" preserveAspectRatio="none" x="13049.560547" y="-3313.476562" width="1.098633" height="1.098633"/>
<image xlink:href="tile13_18.png" preserveAspectRatio="none" x="13049.560547" y="-3314.575195" width="1.098633" height="1.098633"/>
<image xlink:href="tile13_17.png" preserveAspectRatio="none" x="13049.560547" y="-3315.673828" width="1.098633" height="1.098633"/>
<image xlink:href="tile13_15.png" preserveAspectRatio="none" x="13049.560547" y="-3317.871094" width="1.098633" height="1.098633"/>
<image xlink:href="tile14_20.png" preserveAspectRatio="none" x="13050.65918" y="-3312.37793" width="1.098633" height="1.098633"/>
<image xlink:href="tile14_19.png" preserveAspectRatio="none" x="13050.65918" y="-3313.476562" width="1.098633" height="1.098633"/>
<image xlink:href="tile14_18.png" preserveAspectRatio="none" x="13050.65918" y="-3314.575195" width="1.098633" height="1.098633"/>
<image xlink:href="tile14_17.png" preserveAspectRatio="none" x="13050.65918" y="-3315.673828" width="1.098633" height="1.098633"/>
<image xlink:href="tile15_21.png" preserveAspectRatio="none" x="13051.757812" y="-3311.279297" width="1.098633" height="1.098633"/>
<image xlink:href="tile15_20.png" preserveAspectRatio="none" x="13051.757812" y="-3312.37793" width="1.098633" height="1.098633"/>
<image xlink:href="tile15_19.png" preserveAspectRatio="none" x="13051.757812" y="-3313.476562" width="1.098633" height="1.098633"/>
<image xlink:href="tile15_18.png" preserveAspectRatio="none" x="13051.757812" y="-3314.575195" width="1.098633" height="1.098633"/>
</g>
</svg>
