<?xml version="1.0" encoding="UTF-8"?>
<svg  xmlns="http://www.w3.org/2000/svg" xmlns:xlink="http://www.w3.org/1999/xlink" xmlns:go="http://purl.org/svgmap/profile" viewBox="13427.000000000002 -3400.0 43.33699999999965 44.062499999999716" go:dataArea="13427.000000000002 -3400.0 43.33699999999965 44.062499999999716" >
<metadata>
 <rdf:RDF xmlns:rdf="http://www.w3.org/1999/02/22-rdf-syntax-ns#" xmlns:crs="http://opengis.org/xmldtds/transformations.dtd" xmlns:svg="http://www.w3.org/svg" >
  <rdf:Description>
   <crs:CoordinateReferenceSystem rdf:resource="http://purl.org/crs/84" svg:transform="matrix(100.0,0.0,0.0,-100.0,0.0,0.0)" />
  </rdf:Description>
 </rdf:RDF>
</metadata>
<globalCoordinateSystem srsName="http://purl.org/crs/84" transform="matrix(100.0,0.0,0.0,-100.0,0.0,0.0)" />
<g >
<image xlink:href="tile20_6.png" preserveAspectRatio="none" x="13448.364258" y="-3393.676758" width="1.098633" height="1.098633"/>
<image xlink:href="tile21_6.png" preserveAspectRatio="none" x="13449.462891" y="-3393.676758" width="1.098633" height="1.098633"/>
<image xlink:href="tile22_6.png" preserveAspectRatio="none" x="13450.561523" y="-3393.676758" width="1.098633" height="1.098633"/>
<image xlink:href="tile22_5.png" preserveAspectRatio="none" x="13450.561523" y="-3394.775391" width="1.098633" height="1.098633"/>
<image xlink:href="tile23_6.png" preserveAspectRatio="none" x="13451.660156" y="-3393.676758" width="1.098633" height="1.098633"/>
<image xlink:href="tile23_5.png" preserveAspectRatio="none" x="13451.660156" y="-3394.775391" width="1.098633" height="1.098633"/>
<image xlink:href="tile24_6.png" preserveAspectRatio="none" x="13452.758789" y="-3393.676758" width="1.098633" height="1.098633"/>
<image xlink:href="tile24_5.png" preserveAspectRatio="none" x="13452.758789" y="-3394.775391" width="1.098633" height="1.098633"/>
<image xlink:href="tile24_1.png" preserveAspectRatio="none" x="13452.758789" y="-3399.169922" width="1.098633" height="1.098633"/>
<image xlink:href="tile24_0.png" preserveAspectRatio="none" x="13452.758789" y="-3400.268555" width="1.098633" height="1.098633"/>
<image xlink:href="tile25_8.png" preserveAspectRatio="none" x="13453.857422" y="-3391.479492" width="1.098633" height="1.098633"/>
<image xlink:href="tile25_7.png" preserveAspectRatio="none" x="13453.857422" y="-3392.578125" width="1.098633" height="1.098633"/>
<image xlink:href="tile25_5.png" preserveAspectRatio="none" x="13453.857422" y="-3394.775391" width="1.098633" height="1.098633"/>
<image xlink:href="tile25_4.png" preserveAspectRatio="none" x="13453.857422" y="-3395.874023" width="1.098633" height="1.098633"/>
<image xlink:href="tile25_3.png" preserveAspectRatio="none" x="13453.857422" y="-3396.972656" width="1.098633" height="1.098633"/>
<image xlink:href="tile25_2.png" preserveAspectRatio="none" x="13453.857422" y="-3398.071289" width="1.098633" height="1.098633"/>
<image xlink:href="tile25_1.png" preserveAspectRatio="none" x="13453.857422" y="-3399.169922" width="1.098633" height="1.098633"/>
<image xlink:href="tile25_0.png" preserveAspectRatio="none" x="13453.857422" y="-3400.268555" width="1.098633" height="1.098633"/>
<image xlink:href="tile26_8.png" preserveAspectRatio="none" x="13454.956055" y="-3391.479492" width="1.098633" height="1.098633"/>
<image xlink:href="tile26_7.png" preserveAspectRatio="none" x="13454.956055" y="-3392.578125" width="1.098633" height="1.098633"/>
<image xlink:href="tile26_5.png" preserveAspectRatio="none" x="13454.956055" y="-3394.775391" width="1.098633" height="1.098633"/>
<image xlink:href="tile26_4.png" preserveAspectRatio="none" x="13454.956055" y="-3395.874023" width="1.098633" height="1.098633"/>
<image xlink:href="tile26_3.png" preserveAspectRatio="none" x="13454.956055" y="-3396.972656" width="1.098633" height="1.098633"/>
<image xlink:href="tile26_2.png" preserveAspectRatio="none" x="13454.956055" y="-3398.071289" width="1.098633" height="1.098633"/>
<image xlink:href="tile26_1.png" preserveAspectRatio="none" x="13454.956055" y="-3399.169922" width="1.098633" height="1.098633"/>
<image xlink:href="tile26_0.png" preserveAspectRatio="none" x="13454.956055" y="-3400.268555" width="1.098633" height="1.098633"/>
<image xlink:href="tile27_8.png" preserveAspectRatio="none" x="13456.054688" y="-3391.479492" width="1.098633" height="1.098633"/>
<image xlink:href="tile27_7.png" preserveAspectRatio="none" x="13456.054688" y="-3392.578125" width="1.098633" height="1.098633"/>
<image xlink:href="tile27_6.png" preserveAspectRatio="none" x="13456.054688" y="-3393.676758" width="1.098633" height="1.098633"/>
<image xlink:href="tile27_4.png" preserveAspectRatio="none" x="13456.054688" y="-3395.874023" width="1.098633" height="1.098633"/>
<image xlink:href="tile27_3.png" preserveAspectRatio="none" x="13456.054688" y="-3396.972656" width="1.098633" height="1.098633"/>
<image xlink:href="tile27_0.png" preserveAspectRatio="none" x="13456.054688" y="-3400.268555" width="1.098633" height="1.098633"/>
<image xlink:href="tile28_8.png" preserveAspectRatio="none" x="13457.15332" y="-3391.479492" width="1.098633" height="1.098633"/>
<image xlink:href="tile28_7.png" preserveAspectRatio="none" x="13457.15332" y="-3392.578125" width="1.098633" height="1.098633"/>
<image xlink:href="tile28_6.png" preserveAspectRatio="none" x="13457.15332" y="-3393.676758" width="1.098633" height="1.098633"/>
<image xlink:href="tile28_5.png" preserveAspectRatio="none" x="13457.15332" y="-3394.775391" width="1.098633" height="1.098633"/>
<image xlink:href="tile28_4.png" preserveAspectRatio="none" x="13457.15332" y="-3395.874023" width="1.098633" height="1.098633"/>
<image xlink:href="tile28_1.png" preserveAspectRatio="none" x="13457.15332" y="-3399.169922" width="1.098633" height="1.098633"/>
<image xlink:href="tile28_0.png" preserveAspectRatio="none" x="13457.15332" y="-3400.268555" width="1.098633" height="1.098633"/>
<image xlink:href="tile29_7.png" preserveAspectRatio="none" x="13458.251953" y="-3392.578125" width="1.098633" height="1.098633"/>
<image xlink:href="tile29_6.png" preserveAspectRatio="none" x="13458.251953" y="-3393.676758" width="1.098633" height="1.098633"/>
<image xlink:href="tile29_5.png" preserveAspectRatio="none" x="13458.251953" y="-3394.775391" width="1.098633" height="1.098633"/>
<image xlink:href="tile29_4.png" preserveAspectRatio="none" x="13458.251953" y="-3395.874023" width="1.098633" height="1.098633"/>
<image xlink:href="tile29_3.png" preserveAspectRatio="none" x="13458.251953" y="-3396.972656" width="1.098633" height="1.098633"/>
<image xlink:href="tile29_2.png" preserveAspectRatio="none" x="13458.251953" y="-3398.071289" width="1.098633" height="1.098633"/>
<image xlink:href="tile29_1.png" preserveAspectRatio="none" x="13458.251953" y="-3399.169922" width="1.098633" height="1.098633"/>
<image xlink:href="tile29_0.png" preserveAspectRatio="none" x="13458.251953" y="-3400.268555" width="1.098633" height="1.098633"/>
<image xlink:href="tile30_8.png" preserveAspectRatio="none" x="13459.350586" y="-3391.479492" width="1.098633" height="1.098633"/>
<image xlink:href="tile30_7.png" preserveAspectRatio="none" x="13459.350586" y="-3392.578125" width="1.098633" height="1.098633"/>
<image xlink:href="tile30_6.png" preserveAspectRatio="none" x="13459.350586" y="-3393.676758" width="1.098633" height="1.098633"/>
<image xlink:href="tile30_5.png" preserveAspectRatio="none" x="13459.350586" y="-3394.775391" width="1.098633" height="1.098633"/>
<image xlink:href="tile30_4.png" preserveAspectRatio="none" x="13459.350586" y="-3395.874023" width="1.098633" height="1.098633"/>
<image xlink:href="tile30_3.png" preserveAspectRatio="none" x="13459.350586" y="-3396.972656" width="1.098633" height="1.098633"/>
<image xlink:href="tile30_2.png" preserveAspectRatio="none" x="13459.350586" y="-3398.071289" width="1.098633" height="1.098633"/>
<image xlink:href="tile30_1.png" preserveAspectRatio="none" x="13459.350586" y="-3399.169922" width="1.098633" height="1.098633"/>
<image xlink:href="tile30_0.png" preserveAspectRatio="none" x="13459.350586" y="-3400.268555" width="1.098633" height="1.098633"/>
<image xlink:href="tile31_8.png" preserveAspectRatio="none" x="13460.449219" y="-3391.479492" width="1.098633" height="1.098633"/>
<image xlink:href="tile31_7.png" preserveAspectRatio="none" x="13460.449219" y="-3392.578125" width="1.098633" height="1.098633"/>
<image xlink:href="tile31_6.png" preserveAspectRatio="none" x="13460.449219" y="-3393.676758" width="1.098633" height="1.098633"/>
<image xlink:href="tile31_5.png" preserveAspectRatio="none" x="13460.449219" y="-3394.775391" width="1.098633" height="1.098633"/>
<image xlink:href="tile31_4.png" preserveAspectRatio="none" x="13460.449219" y="-3395.874023" width="1.098633" height="1.098633"/>
<image xlink:href="tile31_3.png" preserveAspectRatio="none" x="13460.449219" y="-3396.972656" width="1.098633" height="1.098633"/>
<image xlink:href="tile31_2.png" preserveAspectRatio="none" x="13460.449219" y="-3398.071289" width="1.098633" height="1.098633"/>
<image xlink:href="tile31_1.png" preserveAspectRatio="none" x="13460.449219" y="-3399.169922" width="1.098633" height="1.098633"/>
<image xlink:href="tile31_0.png" preserveAspectRatio="none" x="13460.449219" y="-3400.268555" width="1.098633" height="1.098633"/>
</g>
</svg>
