<?xml version="1.0" encoding="UTF-8"?>
<svg  xmlns="http://www.w3.org/2000/svg" xmlns:xlink="http://www.w3.org/1999/xlink" xmlns:go="http://purl.org/svgmap/profile" viewBox="14300.0 -4333.3333332 72.16249999999889 66.66666620000044" go:dataArea="14300.0 -4333.3333332 72.16249999999889 66.66666620000044" >
<metadata>
 <rdf:RDF xmlns:rdf="http://www.w3.org/1999/02/22-rdf-syntax-ns#" xmlns:crs="http://opengis.org/xmldtds/transformations.dtd" xmlns:svg="http://www.w3.org/svg" >
  <rdf:Description>
   <crs:CoordinateReferenceSystem rdf:resource="http://purl.org/crs/84" svg:transform="matrix(100.0,0.0,0.0,-100.0,0.0,0.0)" />
  </rdf:Description>
 </rdf:RDF>
</metadata>
<globalCoordinateSystem srsName="http://purl.org/crs/84" transform="matrix(100.0,0.0,0.0,-100.0,0.0,0.0)" />
<g >
<animation xlink:href="sub_0_0_container.svg" x="14299.804688" y="-4283.569336" width="17.578125" height="17.578125"/>
<animation xlink:href="sub_3_1_container.svg" x="14352.539062" y="-4301.147461" width="17.578125" height="17.578125"/>
<animation xlink:href="sub_0_1_container.svg" x="14299.804688" y="-4301.147461" width="17.578125" height="17.578125"/>
<animation xlink:href="sub_3_0_container.svg" x="14352.539062" y="-4283.569336" width="17.578125" height="17.578125"/>
<animation xlink:href="sub_3_3_container.svg" x="14352.539062" y="-4336.303711" width="17.578125" height="17.578125"/>
<animation xlink:href="sub_3_2_container.svg" x="14352.539062" y="-4318.725586" width="17.578125" height="17.578125"/>
<animation xlink:href="sub_2_2_container.svg" x="14334.960938" y="-4318.725586" width="17.578125" height="17.578125"/>
<animation xlink:href="sub_2_1_container.svg" x="14334.960938" y="-4301.147461" width="17.578125" height="17.578125"/>
<animation xlink:href="sub_2_0_container.svg" x="14334.960938" y="-4283.569336" width="17.578125" height="17.578125"/>
<animation xlink:href="sub_1_1_container.svg" x="14317.382812" y="-4301.147461" width="17.578125" height="17.578125"/>
<animation xlink:href="sub_4_3_container.svg" x="14370.117188" y="-4336.303711" width="17.578125" height="17.578125"/>
<animation xlink:href="sub_1_0_container.svg" x="14317.382812" y="-4283.569336" width="17.578125" height="17.578125"/>
<animation xlink:href="sub_1_3_container.svg" x="14317.382812" y="-4336.303711" width="17.578125" height="17.578125"/>
<animation xlink:href="sub_1_2_container.svg" x="14317.382812" y="-4318.725586" width="17.578125" height="17.578125"/>
<animation xlink:href="sub_4_0_container.svg" x="14370.117188" y="-4283.569336" width="17.578125" height="17.578125"/>
</g>
</svg>
