<?xml version="1.0" encoding="UTF-8"?>
<svg  xmlns="http://www.w3.org/2000/svg" xmlns:xlink="http://www.w3.org/1999/xlink" xmlns:go="http://purl.org/svgmap/profile" viewBox="14300.0 -4333.3333332 72.16249999999889 66.66666620000044" go:dataArea="14300.0 -4333.3333332 72.16249999999889 66.66666620000044" >
<metadata>
 <rdf:RDF xmlns:rdf="http://www.w3.org/1999/02/22-rdf-syntax-ns#" xmlns:crs="http://opengis.org/xmldtds/transformations.dtd" xmlns:svg="http://www.w3.org/svg" >
  <rdf:Description>
   <crs:CoordinateReferenceSystem rdf:resource="http://purl.org/crs/84" svg:transform="matrix(100.0,0.0,0.0,-100.0,0.0,0.0)" />
  </rdf:Description>
 </rdf:RDF>
</metadata>
<globalCoordinateSystem srsName="http://purl.org/crs/84" transform="matrix(100.0,0.0,0.0,-100.0,0.0,0.0)" />
<g >
<image xlink:href="tile48_51.png" preserveAspectRatio="none" x="14352.539062" y="-4278.076172" width="1.098633" height="1.098633"/>
<image xlink:href="tile48_50.png" preserveAspectRatio="none" x="14352.539062" y="-4279.174805" width="1.098633" height="1.098633"/>
<image xlink:href="tile48_49.png" preserveAspectRatio="none" x="14352.539062" y="-4280.273438" width="1.098633" height="1.098633"/>
<image xlink:href="tile48_48.png" preserveAspectRatio="none" x="14352.539062" y="-4281.37207" width="1.098633" height="1.098633"/>
<image xlink:href="tile48_47.png" preserveAspectRatio="none" x="14352.539062" y="-4282.470703" width="1.098633" height="1.098633"/>
<image xlink:href="tile48_46.png" preserveAspectRatio="none" x="14352.539062" y="-4283.569336" width="1.098633" height="1.098633"/>
<image xlink:href="tile49_53.png" preserveAspectRatio="none" x="14353.637695" y="-4275.878906" width="1.098633" height="1.098633"/>
<image xlink:href="tile49_52.png" preserveAspectRatio="none" x="14353.637695" y="-4276.977539" width="1.098633" height="1.098633"/>
<image xlink:href="tile49_51.png" preserveAspectRatio="none" x="14353.637695" y="-4278.076172" width="1.098633" height="1.098633"/>
<image xlink:href="tile49_50.png" preserveAspectRatio="none" x="14353.637695" y="-4279.174805" width="1.098633" height="1.098633"/>
<image xlink:href="tile49_49.png" preserveAspectRatio="none" x="14353.637695" y="-4280.273438" width="1.098633" height="1.098633"/>
<image xlink:href="tile49_48.png" preserveAspectRatio="none" x="14353.637695" y="-4281.37207" width="1.098633" height="1.098633"/>
<image xlink:href="tile49_47.png" preserveAspectRatio="none" x="14353.637695" y="-4282.470703" width="1.098633" height="1.098633"/>
<image xlink:href="tile49_46.png" preserveAspectRatio="none" x="14353.637695" y="-4283.569336" width="1.098633" height="1.098633"/>
<image xlink:href="tile50_54.png" preserveAspectRatio="none" x="14354.736328" y="-4274.780273" width="1.098633" height="1.098633"/>
<image xlink:href="tile50_53.png" preserveAspectRatio="none" x="14354.736328" y="-4275.878906" width="1.098633" height="1.098633"/>
<image xlink:href="tile50_52.png" preserveAspectRatio="none" x="14354.736328" y="-4276.977539" width="1.098633" height="1.098633"/>
<image xlink:href="tile50_51.png" preserveAspectRatio="none" x="14354.736328" y="-4278.076172" width="1.098633" height="1.098633"/>
<image xlink:href="tile50_50.png" preserveAspectRatio="none" x="14354.736328" y="-4279.174805" width="1.098633" height="1.098633"/>
<image xlink:href="tile50_49.png" preserveAspectRatio="none" x="14354.736328" y="-4280.273438" width="1.098633" height="1.098633"/>
<image xlink:href="tile50_48.png" preserveAspectRatio="none" x="14354.736328" y="-4281.37207" width="1.098633" height="1.098633"/>
<image xlink:href="tile51_56.png" preserveAspectRatio="none" x="14355.834961" y="-4272.583008" width="1.098633" height="1.098633"/>
<image xlink:href="tile51_55.png" preserveAspectRatio="none" x="14355.834961" y="-4273.681641" width="1.098633" height="1.098633"/>
<image xlink:href="tile51_54.png" preserveAspectRatio="none" x="14355.834961" y="-4274.780273" width="1.098633" height="1.098633"/>
<image xlink:href="tile51_53.png" preserveAspectRatio="none" x="14355.834961" y="-4275.878906" width="1.098633" height="1.098633"/>
<image xlink:href="tile51_52.png" preserveAspectRatio="none" x="14355.834961" y="-4276.977539" width="1.098633" height="1.098633"/>
<image xlink:href="tile51_51.png" preserveAspectRatio="none" x="14355.834961" y="-4278.076172" width="1.098633" height="1.098633"/>
<image xlink:href="tile51_50.png" preserveAspectRatio="none" x="14355.834961" y="-4279.174805" width="1.098633" height="1.098633"/>
<image xlink:href="tile51_49.png" preserveAspectRatio="none" x="14355.834961" y="-4280.273438" width="1.098633" height="1.098633"/>
<image xlink:href="tile51_48.png" preserveAspectRatio="none" x="14355.834961" y="-4281.37207" width="1.098633" height="1.098633"/>
<image xlink:href="tile52_57.png" preserveAspectRatio="none" x="14356.933594" y="-4271.484375" width="1.098633" height="1.098633"/>
<image xlink:href="tile52_56.png" preserveAspectRatio="none" x="14356.933594" y="-4272.583008" width="1.098633" height="1.098633"/>
<image xlink:href="tile52_55.png" preserveAspectRatio="none" x="14356.933594" y="-4273.681641" width="1.098633" height="1.098633"/>
<image xlink:href="tile52_54.png" preserveAspectRatio="none" x="14356.933594" y="-4274.780273" width="1.098633" height="1.098633"/>
<image xlink:href="tile52_53.png" preserveAspectRatio="none" x="14356.933594" y="-4275.878906" width="1.098633" height="1.098633"/>
<image xlink:href="tile52_52.png" preserveAspectRatio="none" x="14356.933594" y="-4276.977539" width="1.098633" height="1.098633"/>
<image xlink:href="tile52_51.png" preserveAspectRatio="none" x="14356.933594" y="-4278.076172" width="1.098633" height="1.098633"/>
<image xlink:href="tile52_50.png" preserveAspectRatio="none" x="14356.933594" y="-4279.174805" width="1.098633" height="1.098633"/>
<image xlink:href="tile52_49.png" preserveAspectRatio="none" x="14356.933594" y="-4280.273438" width="1.098633" height="1.098633"/>
<image xlink:href="tile53_58.png" preserveAspectRatio="none" x="14358.032227" y="-4270.385742" width="1.098633" height="1.098633"/>
<image xlink:href="tile53_57.png" preserveAspectRatio="none" x="14358.032227" y="-4271.484375" width="1.098633" height="1.098633"/>
<image xlink:href="tile53_56.png" preserveAspectRatio="none" x="14358.032227" y="-4272.583008" width="1.098633" height="1.098633"/>
<image xlink:href="tile53_55.png" preserveAspectRatio="none" x="14358.032227" y="-4273.681641" width="1.098633" height="1.098633"/>
<image xlink:href="tile53_54.png" preserveAspectRatio="none" x="14358.032227" y="-4274.780273" width="1.098633" height="1.098633"/>
<image xlink:href="tile53_53.png" preserveAspectRatio="none" x="14358.032227" y="-4275.878906" width="1.098633" height="1.098633"/>
<image xlink:href="tile53_52.png" preserveAspectRatio="none" x="14358.032227" y="-4276.977539" width="1.098633" height="1.098633"/>
<image xlink:href="tile53_51.png" preserveAspectRatio="none" x="14358.032227" y="-4278.076172" width="1.098633" height="1.098633"/>
<image xlink:href="tile53_50.png" preserveAspectRatio="none" x="14358.032227" y="-4279.174805" width="1.098633" height="1.098633"/>
<image xlink:href="tile53_49.png" preserveAspectRatio="none" x="14358.032227" y="-4280.273438" width="1.098633" height="1.098633"/>
<image xlink:href="tile54_58.png" preserveAspectRatio="none" x="14359.130859" y="-4270.385742" width="1.098633" height="1.098633"/>
<image xlink:href="tile54_57.png" preserveAspectRatio="none" x="14359.130859" y="-4271.484375" width="1.098633" height="1.098633"/>
<image xlink:href="tile54_56.png" preserveAspectRatio="none" x="14359.130859" y="-4272.583008" width="1.098633" height="1.098633"/>
<image xlink:href="tile54_54.png" preserveAspectRatio="none" x="14359.130859" y="-4274.780273" width="1.098633" height="1.098633"/>
<image xlink:href="tile54_53.png" preserveAspectRatio="none" x="14359.130859" y="-4275.878906" width="1.098633" height="1.098633"/>
<image xlink:href="tile54_52.png" preserveAspectRatio="none" x="14359.130859" y="-4276.977539" width="1.098633" height="1.098633"/>
<image xlink:href="tile54_51.png" preserveAspectRatio="none" x="14359.130859" y="-4278.076172" width="1.098633" height="1.098633"/>
<image xlink:href="tile54_50.png" preserveAspectRatio="none" x="14359.130859" y="-4279.174805" width="1.098633" height="1.098633"/>
<image xlink:href="tile54_49.png" preserveAspectRatio="none" x="14359.130859" y="-4280.273438" width="1.098633" height="1.098633"/>
<image xlink:href="tile54_48.png" preserveAspectRatio="none" x="14359.130859" y="-4281.37207" width="1.098633" height="1.098633"/>
<image xlink:href="tile55_59.png" preserveAspectRatio="none" x="14360.229492" y="-4269.287109" width="1.098633" height="1.098633"/>
<image xlink:href="tile55_58.png" preserveAspectRatio="none" x="14360.229492" y="-4270.385742" width="1.098633" height="1.098633"/>
<image xlink:href="tile55_57.png" preserveAspectRatio="none" x="14360.229492" y="-4271.484375" width="1.098633" height="1.098633"/>
<image xlink:href="tile55_56.png" preserveAspectRatio="none" x="14360.229492" y="-4272.583008" width="1.098633" height="1.098633"/>
<image xlink:href="tile55_55.png" preserveAspectRatio="none" x="14360.229492" y="-4273.681641" width="1.098633" height="1.098633"/>
<image xlink:href="tile55_54.png" preserveAspectRatio="none" x="14360.229492" y="-4274.780273" width="1.098633" height="1.098633"/>
<image xlink:href="tile55_53.png" preserveAspectRatio="none" x="14360.229492" y="-4275.878906" width="1.098633" height="1.098633"/>
<image xlink:href="tile55_52.png" preserveAspectRatio="none" x="14360.229492" y="-4276.977539" width="1.098633" height="1.098633"/>
<image xlink:href="tile55_51.png" preserveAspectRatio="none" x="14360.229492" y="-4278.076172" width="1.098633" height="1.098633"/>
<image xlink:href="tile55_50.png" preserveAspectRatio="none" x="14360.229492" y="-4279.174805" width="1.098633" height="1.098633"/>
<image xlink:href="tile55_49.png" preserveAspectRatio="none" x="14360.229492" y="-4280.273438" width="1.098633" height="1.098633"/>
<image xlink:href="tile55_48.png" preserveAspectRatio="none" x="14360.229492" y="-4281.37207" width="1.098633" height="1.098633"/>
<image xlink:href="tile55_47.png" preserveAspectRatio="none" x="14360.229492" y="-4282.470703" width="1.098633" height="1.098633"/>
<image xlink:href="tile55_46.png" preserveAspectRatio="none" x="14360.229492" y="-4283.569336" width="1.098633" height="1.098633"/>
<image xlink:href="tile56_60.png" preserveAspectRatio="none" x="14361.328125" y="-4268.188477" width="1.098633" height="1.098633"/>
<image xlink:href="tile56_59.png" preserveAspectRatio="none" x="14361.328125" y="-4269.287109" width="1.098633" height="1.098633"/>
<image xlink:href="tile56_58.png" preserveAspectRatio="none" x="14361.328125" y="-4270.385742" width="1.098633" height="1.098633"/>
<image xlink:href="tile56_57.png" preserveAspectRatio="none" x="14361.328125" y="-4271.484375" width="1.098633" height="1.098633"/>
<image xlink:href="tile56_56.png" preserveAspectRatio="none" x="14361.328125" y="-4272.583008" width="1.098633" height="1.098633"/>
<image xlink:href="tile56_55.png" preserveAspectRatio="none" x="14361.328125" y="-4273.681641" width="1.098633" height="1.098633"/>
<image xlink:href="tile56_54.png" preserveAspectRatio="none" x="14361.328125" y="-4274.780273" width="1.098633" height="1.098633"/>
<image xlink:href="tile56_53.png" preserveAspectRatio="none" x="14361.328125" y="-4275.878906" width="1.098633" height="1.098633"/>
<image xlink:href="tile56_52.png" preserveAspectRatio="none" x="14361.328125" y="-4276.977539" width="1.098633" height="1.098633"/>
<image xlink:href="tile56_51.png" preserveAspectRatio="none" x="14361.328125" y="-4278.076172" width="1.098633" height="1.098633"/>
<image xlink:href="tile56_50.png" preserveAspectRatio="none" x="14361.328125" y="-4279.174805" width="1.098633" height="1.098633"/>
<image xlink:href="tile56_49.png" preserveAspectRatio="none" x="14361.328125" y="-4280.273438" width="1.098633" height="1.098633"/>
<image xlink:href="tile56_48.png" preserveAspectRatio="none" x="14361.328125" y="-4281.37207" width="1.098633" height="1.098633"/>
<image xlink:href="tile56_47.png" preserveAspectRatio="none" x="14361.328125" y="-4282.470703" width="1.098633" height="1.098633"/>
<image xlink:href="tile56_46.png" preserveAspectRatio="none" x="14361.328125" y="-4283.569336" width="1.098633" height="1.098633"/>
<image xlink:href="tile57_60.png" preserveAspectRatio="none" x="14362.426758" y="-4268.188477" width="1.098633" height="1.098633"/>
<image xlink:href="tile57_59.png" preserveAspectRatio="none" x="14362.426758" y="-4269.287109" width="1.098633" height="1.098633"/>
<image xlink:href="tile57_58.png" preserveAspectRatio="none" x="14362.426758" y="-4270.385742" width="1.098633" height="1.098633"/>
<image xlink:href="tile57_57.png" preserveAspectRatio="none" x="14362.426758" y="-4271.484375" width="1.098633" height="1.098633"/>
<image xlink:href="tile57_56.png" preserveAspectRatio="none" x="14362.426758" y="-4272.583008" width="1.098633" height="1.098633"/>
<image xlink:href="tile57_55.png" preserveAspectRatio="none" x="14362.426758" y="-4273.681641" width="1.098633" height="1.098633"/>
<image xlink:href="tile57_54.png" preserveAspectRatio="none" x="14362.426758" y="-4274.780273" width="1.098633" height="1.098633"/>
<image xlink:href="tile57_53.png" preserveAspectRatio="none" x="14362.426758" y="-4275.878906" width="1.098633" height="1.098633"/>
<image xlink:href="tile58_60.png" preserveAspectRatio="none" x="14363.525391" y="-4268.188477" width="1.098633" height="1.098633"/>
<image xlink:href="tile58_59.png" preserveAspectRatio="none" x="14363.525391" y="-4269.287109" width="1.098633" height="1.098633"/>
<image xlink:href="tile58_58.png" preserveAspectRatio="none" x="14363.525391" y="-4270.385742" width="1.098633" height="1.098633"/>
<image xlink:href="tile58_57.png" preserveAspectRatio="none" x="14363.525391" y="-4271.484375" width="1.098633" height="1.098633"/>
<image xlink:href="tile58_56.png" preserveAspectRatio="none" x="14363.525391" y="-4272.583008" width="1.098633" height="1.098633"/>
<image xlink:href="tile58_55.png" preserveAspectRatio="none" x="14363.525391" y="-4273.681641" width="1.098633" height="1.098633"/>
<image xlink:href="tile58_54.png" preserveAspectRatio="none" x="14363.525391" y="-4274.780273" width="1.098633" height="1.098633"/>
<image xlink:href="tile58_53.png" preserveAspectRatio="none" x="14363.525391" y="-4275.878906" width="1.098633" height="1.098633"/>
<image xlink:href="tile59_60.png" preserveAspectRatio="none" x="14364.624023" y="-4268.188477" width="1.098633" height="1.098633"/>
<image xlink:href="tile59_59.png" preserveAspectRatio="none" x="14364.624023" y="-4269.287109" width="1.098633" height="1.098633"/>
<image xlink:href="tile59_58.png" preserveAspectRatio="none" x="14364.624023" y="-4270.385742" width="1.098633" height="1.098633"/>
<image xlink:href="tile59_57.png" preserveAspectRatio="none" x="14364.624023" y="-4271.484375" width="1.098633" height="1.098633"/>
<image xlink:href="tile59_56.png" preserveAspectRatio="none" x="14364.624023" y="-4272.583008" width="1.098633" height="1.098633"/>
<image xlink:href="tile59_55.png" preserveAspectRatio="none" x="14364.624023" y="-4273.681641" width="1.098633" height="1.098633"/>
<image xlink:href="tile59_54.png" preserveAspectRatio="none" x="14364.624023" y="-4274.780273" width="1.098633" height="1.098633"/>
<image xlink:href="tile59_53.png" preserveAspectRatio="none" x="14364.624023" y="-4275.878906" width="1.098633" height="1.098633"/>
<image xlink:href="tile60_58.png" preserveAspectRatio="none" x="14365.722656" y="-4270.385742" width="1.098633" height="1.098633"/>
<image xlink:href="tile60_57.png" preserveAspectRatio="none" x="14365.722656" y="-4271.484375" width="1.098633" height="1.098633"/>
<image xlink:href="tile60_56.png" preserveAspectRatio="none" x="14365.722656" y="-4272.583008" width="1.098633" height="1.098633"/>
<image xlink:href="tile60_55.png" preserveAspectRatio="none" x="14365.722656" y="-4273.681641" width="1.098633" height="1.098633"/>
<image xlink:href="tile60_54.png" preserveAspectRatio="none" x="14365.722656" y="-4274.780273" width="1.098633" height="1.098633"/>
<image xlink:href="tile60_53.png" preserveAspectRatio="none" x="14365.722656" y="-4275.878906" width="1.098633" height="1.098633"/>
<image xlink:href="tile60_52.png" preserveAspectRatio="none" x="14365.722656" y="-4276.977539" width="1.098633" height="1.098633"/>
<image xlink:href="tile61_58.png" preserveAspectRatio="none" x="14366.821289" y="-4270.385742" width="1.098633" height="1.098633"/>
<image xlink:href="tile61_57.png" preserveAspectRatio="none" x="14366.821289" y="-4271.484375" width="1.098633" height="1.098633"/>
<image xlink:href="tile61_56.png" preserveAspectRatio="none" x="14366.821289" y="-4272.583008" width="1.098633" height="1.098633"/>
<image xlink:href="tile61_55.png" preserveAspectRatio="none" x="14366.821289" y="-4273.681641" width="1.098633" height="1.098633"/>
<image xlink:href="tile61_54.png" preserveAspectRatio="none" x="14366.821289" y="-4274.780273" width="1.098633" height="1.098633"/>
<image xlink:href="tile61_53.png" preserveAspectRatio="none" x="14366.821289" y="-4275.878906" width="1.098633" height="1.098633"/>
<image xlink:href="tile61_52.png" preserveAspectRatio="none" x="14366.821289" y="-4276.977539" width="1.098633" height="1.098633"/>
<image xlink:href="tile62_57.png" preserveAspectRatio="none" x="14367.919922" y="-4271.484375" width="1.098633" height="1.098633"/>
<image xlink:href="tile62_56.png" preserveAspectRatio="none" x="14367.919922" y="-4272.583008" width="1.098633" height="1.098633"/>
<image xlink:href="tile62_55.png" preserveAspectRatio="none" x="14367.919922" y="-4273.681641" width="1.098633" height="1.098633"/>
<image xlink:href="tile62_52.png" preserveAspectRatio="none" x="14367.919922" y="-4276.977539" width="1.098633" height="1.098633"/>
<image xlink:href="tile63_56.png" preserveAspectRatio="none" x="14369.018555" y="-4272.583008" width="1.098633" height="1.098633"/>
<image xlink:href="tile63_55.png" preserveAspectRatio="none" x="14369.018555" y="-4273.681641" width="1.098633" height="1.098633"/>
<image xlink:href="tile63_54.png" preserveAspectRatio="none" x="14369.018555" y="-4274.780273" width="1.098633" height="1.098633"/>
</g>
</svg>
