<?xml version="1.0" encoding="UTF-8"?>
<svg  xmlns="http://www.w3.org/2000/svg" xmlns:xlink="http://www.w3.org/1999/xlink" xmlns:go="http://purl.org/svgmap/profile" viewBox="14300.0 -4333.3333332 72.16249999999889 66.66666620000044" go:dataArea="14300.0 -4333.3333332 72.16249999999889 66.66666620000044" >
<metadata>
 <rdf:RDF xmlns:rdf="http://www.w3.org/1999/02/22-rdf-syntax-ns#" xmlns:crs="http://opengis.org/xmldtds/transformations.dtd" xmlns:svg="http://www.w3.org/svg" >
  <rdf:Description>
   <crs:CoordinateReferenceSystem rdf:resource="http://purl.org/crs/84" svg:transform="matrix(100.0,0.0,0.0,-100.0,0.0,0.0)" />
  </rdf:Description>
 </rdf:RDF>
</metadata>
<globalCoordinateSystem srsName="http://purl.org/crs/84" transform="matrix(100.0,0.0,0.0,-100.0,0.0,0.0)" />
<g >
<image xlink:href="tile32_40.png" preserveAspectRatio="none" x="14334.960938" y="-4290.161133" width="1.098633" height="1.098633"/>
<image xlink:href="tile32_39.png" preserveAspectRatio="none" x="14334.960938" y="-4291.259766" width="1.098633" height="1.098633"/>
<image xlink:href="tile32_38.png" preserveAspectRatio="none" x="14334.960938" y="-4292.358398" width="1.098633" height="1.098633"/>
<image xlink:href="tile32_37.png" preserveAspectRatio="none" x="14334.960938" y="-4293.457031" width="1.098633" height="1.098633"/>
<image xlink:href="tile33_38.png" preserveAspectRatio="none" x="14336.05957" y="-4292.358398" width="1.098633" height="1.098633"/>
<image xlink:href="tile33_37.png" preserveAspectRatio="none" x="14336.05957" y="-4293.457031" width="1.098633" height="1.098633"/>
<image xlink:href="tile33_35.png" preserveAspectRatio="none" x="14336.05957" y="-4295.654297" width="1.098633" height="1.098633"/>
<image xlink:href="tile34_38.png" preserveAspectRatio="none" x="14337.158203" y="-4292.358398" width="1.098633" height="1.098633"/>
<image xlink:href="tile34_37.png" preserveAspectRatio="none" x="14337.158203" y="-4293.457031" width="1.098633" height="1.098633"/>
<image xlink:href="tile34_36.png" preserveAspectRatio="none" x="14337.158203" y="-4294.555664" width="1.098633" height="1.098633"/>
<image xlink:href="tile34_35.png" preserveAspectRatio="none" x="14337.158203" y="-4295.654297" width="1.098633" height="1.098633"/>
<image xlink:href="tile35_39.png" preserveAspectRatio="none" x="14338.256836" y="-4291.259766" width="1.098633" height="1.098633"/>
<image xlink:href="tile35_38.png" preserveAspectRatio="none" x="14338.256836" y="-4292.358398" width="1.098633" height="1.098633"/>
<image xlink:href="tile35_37.png" preserveAspectRatio="none" x="14338.256836" y="-4293.457031" width="1.098633" height="1.098633"/>
<image xlink:href="tile35_36.png" preserveAspectRatio="none" x="14338.256836" y="-4294.555664" width="1.098633" height="1.098633"/>
<image xlink:href="tile35_35.png" preserveAspectRatio="none" x="14338.256836" y="-4295.654297" width="1.098633" height="1.098633"/>
<image xlink:href="tile36_40.png" preserveAspectRatio="none" x="14339.355469" y="-4290.161133" width="1.098633" height="1.098633"/>
<image xlink:href="tile36_39.png" preserveAspectRatio="none" x="14339.355469" y="-4291.259766" width="1.098633" height="1.098633"/>
<image xlink:href="tile36_38.png" preserveAspectRatio="none" x="14339.355469" y="-4292.358398" width="1.098633" height="1.098633"/>
<image xlink:href="tile36_37.png" preserveAspectRatio="none" x="14339.355469" y="-4293.457031" width="1.098633" height="1.098633"/>
<image xlink:href="tile36_36.png" preserveAspectRatio="none" x="14339.355469" y="-4294.555664" width="1.098633" height="1.098633"/>
<image xlink:href="tile36_35.png" preserveAspectRatio="none" x="14339.355469" y="-4295.654297" width="1.098633" height="1.098633"/>
<image xlink:href="tile37_41.png" preserveAspectRatio="none" x="14340.454102" y="-4289.0625" width="1.098633" height="1.098633"/>
<image xlink:href="tile37_40.png" preserveAspectRatio="none" x="14340.454102" y="-4290.161133" width="1.098633" height="1.098633"/>
<image xlink:href="tile37_39.png" preserveAspectRatio="none" x="14340.454102" y="-4291.259766" width="1.098633" height="1.098633"/>
<image xlink:href="tile37_38.png" preserveAspectRatio="none" x="14340.454102" y="-4292.358398" width="1.098633" height="1.098633"/>
<image xlink:href="tile37_37.png" preserveAspectRatio="none" x="14340.454102" y="-4293.457031" width="1.098633" height="1.098633"/>
<image xlink:href="tile37_36.png" preserveAspectRatio="none" x="14340.454102" y="-4294.555664" width="1.098633" height="1.098633"/>
<image xlink:href="tile37_35.png" preserveAspectRatio="none" x="14340.454102" y="-4295.654297" width="1.098633" height="1.098633"/>
<image xlink:href="tile38_42.png" preserveAspectRatio="none" x="14341.552734" y="-4287.963867" width="1.098633" height="1.098633"/>
<image xlink:href="tile38_41.png" preserveAspectRatio="none" x="14341.552734" y="-4289.0625" width="1.098633" height="1.098633"/>
<image xlink:href="tile38_40.png" preserveAspectRatio="none" x="14341.552734" y="-4290.161133" width="1.098633" height="1.098633"/>
<image xlink:href="tile38_39.png" preserveAspectRatio="none" x="14341.552734" y="-4291.259766" width="1.098633" height="1.098633"/>
<image xlink:href="tile38_38.png" preserveAspectRatio="none" x="14341.552734" y="-4292.358398" width="1.098633" height="1.098633"/>
<image xlink:href="tile38_37.png" preserveAspectRatio="none" x="14341.552734" y="-4293.457031" width="1.098633" height="1.098633"/>
<image xlink:href="tile38_36.png" preserveAspectRatio="none" x="14341.552734" y="-4294.555664" width="1.098633" height="1.098633"/>
<image xlink:href="tile38_35.png" preserveAspectRatio="none" x="14341.552734" y="-4295.654297" width="1.098633" height="1.098633"/>
<image xlink:href="tile38_34.png" preserveAspectRatio="none" x="14341.552734" y="-4296.75293" width="1.098633" height="1.098633"/>
<image xlink:href="tile39_44.png" preserveAspectRatio="none" x="14342.651367" y="-4285.766602" width="1.098633" height="1.098633"/>
<image xlink:href="tile39_43.png" preserveAspectRatio="none" x="14342.651367" y="-4286.865234" width="1.098633" height="1.098633"/>
<image xlink:href="tile39_42.png" preserveAspectRatio="none" x="14342.651367" y="-4287.963867" width="1.098633" height="1.098633"/>
<image xlink:href="tile39_41.png" preserveAspectRatio="none" x="14342.651367" y="-4289.0625" width="1.098633" height="1.098633"/>
<image xlink:href="tile39_40.png" preserveAspectRatio="none" x="14342.651367" y="-4290.161133" width="1.098633" height="1.098633"/>
<image xlink:href="tile39_39.png" preserveAspectRatio="none" x="14342.651367" y="-4291.259766" width="1.098633" height="1.098633"/>
<image xlink:href="tile39_38.png" preserveAspectRatio="none" x="14342.651367" y="-4292.358398" width="1.098633" height="1.098633"/>
<image xlink:href="tile39_37.png" preserveAspectRatio="none" x="14342.651367" y="-4293.457031" width="1.098633" height="1.098633"/>
<image xlink:href="tile39_36.png" preserveAspectRatio="none" x="14342.651367" y="-4294.555664" width="1.098633" height="1.098633"/>
<image xlink:href="tile39_35.png" preserveAspectRatio="none" x="14342.651367" y="-4295.654297" width="1.098633" height="1.098633"/>
<image xlink:href="tile39_34.png" preserveAspectRatio="none" x="14342.651367" y="-4296.75293" width="1.098633" height="1.098633"/>
<image xlink:href="tile39_33.png" preserveAspectRatio="none" x="14342.651367" y="-4297.851562" width="1.098633" height="1.098633"/>
<image xlink:href="tile39_32.png" preserveAspectRatio="none" x="14342.651367" y="-4298.950195" width="1.098633" height="1.098633"/>
<image xlink:href="tile39_31.png" preserveAspectRatio="none" x="14342.651367" y="-4300.048828" width="1.098633" height="1.098633"/>
<image xlink:href="tile39_30.png" preserveAspectRatio="none" x="14342.651367" y="-4301.147461" width="1.098633" height="1.098633"/>
<image xlink:href="tile40_44.png" preserveAspectRatio="none" x="14343.75" y="-4285.766602" width="1.098633" height="1.098633"/>
<image xlink:href="tile40_43.png" preserveAspectRatio="none" x="14343.75" y="-4286.865234" width="1.098633" height="1.098633"/>
<image xlink:href="tile40_42.png" preserveAspectRatio="none" x="14343.75" y="-4287.963867" width="1.098633" height="1.098633"/>
<image xlink:href="tile40_41.png" preserveAspectRatio="none" x="14343.75" y="-4289.0625" width="1.098633" height="1.098633"/>
<image xlink:href="tile40_40.png" preserveAspectRatio="none" x="14343.75" y="-4290.161133" width="1.098633" height="1.098633"/>
<image xlink:href="tile40_39.png" preserveAspectRatio="none" x="14343.75" y="-4291.259766" width="1.098633" height="1.098633"/>
<image xlink:href="tile40_38.png" preserveAspectRatio="none" x="14343.75" y="-4292.358398" width="1.098633" height="1.098633"/>
<image xlink:href="tile40_37.png" preserveAspectRatio="none" x="14343.75" y="-4293.457031" width="1.098633" height="1.098633"/>
<image xlink:href="tile40_36.png" preserveAspectRatio="none" x="14343.75" y="-4294.555664" width="1.098633" height="1.098633"/>
<image xlink:href="tile40_35.png" preserveAspectRatio="none" x="14343.75" y="-4295.654297" width="1.098633" height="1.098633"/>
<image xlink:href="tile40_34.png" preserveAspectRatio="none" x="14343.75" y="-4296.75293" width="1.098633" height="1.098633"/>
<image xlink:href="tile40_33.png" preserveAspectRatio="none" x="14343.75" y="-4297.851562" width="1.098633" height="1.098633"/>
<image xlink:href="tile40_32.png" preserveAspectRatio="none" x="14343.75" y="-4298.950195" width="1.098633" height="1.098633"/>
<image xlink:href="tile40_31.png" preserveAspectRatio="none" x="14343.75" y="-4300.048828" width="1.098633" height="1.098633"/>
<image xlink:href="tile40_30.png" preserveAspectRatio="none" x="14343.75" y="-4301.147461" width="1.098633" height="1.098633"/>
<image xlink:href="tile41_45.png" preserveAspectRatio="none" x="14344.848633" y="-4284.667969" width="1.098633" height="1.098633"/>
<image xlink:href="tile41_44.png" preserveAspectRatio="none" x="14344.848633" y="-4285.766602" width="1.098633" height="1.098633"/>
<image xlink:href="tile41_43.png" preserveAspectRatio="none" x="14344.848633" y="-4286.865234" width="1.098633" height="1.098633"/>
<image xlink:href="tile41_42.png" preserveAspectRatio="none" x="14344.848633" y="-4287.963867" width="1.098633" height="1.098633"/>
<image xlink:href="tile41_41.png" preserveAspectRatio="none" x="14344.848633" y="-4289.0625" width="1.098633" height="1.098633"/>
<image xlink:href="tile41_40.png" preserveAspectRatio="none" x="14344.848633" y="-4290.161133" width="1.098633" height="1.098633"/>
<image xlink:href="tile41_39.png" preserveAspectRatio="none" x="14344.848633" y="-4291.259766" width="1.098633" height="1.098633"/>
<image xlink:href="tile41_38.png" preserveAspectRatio="none" x="14344.848633" y="-4292.358398" width="1.098633" height="1.098633"/>
<image xlink:href="tile41_37.png" preserveAspectRatio="none" x="14344.848633" y="-4293.457031" width="1.098633" height="1.098633"/>
<image xlink:href="tile41_36.png" preserveAspectRatio="none" x="14344.848633" y="-4294.555664" width="1.098633" height="1.098633"/>
<image xlink:href="tile41_35.png" preserveAspectRatio="none" x="14344.848633" y="-4295.654297" width="1.098633" height="1.098633"/>
<image xlink:href="tile41_34.png" preserveAspectRatio="none" x="14344.848633" y="-4296.75293" width="1.098633" height="1.098633"/>
<image xlink:href="tile41_33.png" preserveAspectRatio="none" x="14344.848633" y="-4297.851562" width="1.098633" height="1.098633"/>
<image xlink:href="tile41_32.png" preserveAspectRatio="none" x="14344.848633" y="-4298.950195" width="1.098633" height="1.098633"/>
<image xlink:href="tile41_31.png" preserveAspectRatio="none" x="14344.848633" y="-4300.048828" width="1.098633" height="1.098633"/>
<image xlink:href="tile41_30.png" preserveAspectRatio="none" x="14344.848633" y="-4301.147461" width="1.098633" height="1.098633"/>
<image xlink:href="tile42_45.png" preserveAspectRatio="none" x="14345.947266" y="-4284.667969" width="1.098633" height="1.098633"/>
<image xlink:href="tile42_44.png" preserveAspectRatio="none" x="14345.947266" y="-4285.766602" width="1.098633" height="1.098633"/>
<image xlink:href="tile42_43.png" preserveAspectRatio="none" x="14345.947266" y="-4286.865234" width="1.098633" height="1.098633"/>
<image xlink:href="tile42_42.png" preserveAspectRatio="none" x="14345.947266" y="-4287.963867" width="1.098633" height="1.098633"/>
<image xlink:href="tile42_41.png" preserveAspectRatio="none" x="14345.947266" y="-4289.0625" width="1.098633" height="1.098633"/>
<image xlink:href="tile42_40.png" preserveAspectRatio="none" x="14345.947266" y="-4290.161133" width="1.098633" height="1.098633"/>
<image xlink:href="tile42_39.png" preserveAspectRatio="none" x="14345.947266" y="-4291.259766" width="1.098633" height="1.098633"/>
<image xlink:href="tile42_38.png" preserveAspectRatio="none" x="14345.947266" y="-4292.358398" width="1.098633" height="1.098633"/>
<image xlink:href="tile43_45.png" preserveAspectRatio="none" x="14347.045898" y="-4284.667969" width="1.098633" height="1.098633"/>
<image xlink:href="tile43_44.png" preserveAspectRatio="none" x="14347.045898" y="-4285.766602" width="1.098633" height="1.098633"/>
<image xlink:href="tile43_43.png" preserveAspectRatio="none" x="14347.045898" y="-4286.865234" width="1.098633" height="1.098633"/>
<image xlink:href="tile43_42.png" preserveAspectRatio="none" x="14347.045898" y="-4287.963867" width="1.098633" height="1.098633"/>
<image xlink:href="tile43_41.png" preserveAspectRatio="none" x="14347.045898" y="-4289.0625" width="1.098633" height="1.098633"/>
<image xlink:href="tile43_40.png" preserveAspectRatio="none" x="14347.045898" y="-4290.161133" width="1.098633" height="1.098633"/>
<image xlink:href="tile43_39.png" preserveAspectRatio="none" x="14347.045898" y="-4291.259766" width="1.098633" height="1.098633"/>
<image xlink:href="tile43_38.png" preserveAspectRatio="none" x="14347.045898" y="-4292.358398" width="1.098633" height="1.098633"/>
<image xlink:href="tile43_37.png" preserveAspectRatio="none" x="14347.045898" y="-4293.457031" width="1.098633" height="1.098633"/>
<image xlink:href="tile44_45.png" preserveAspectRatio="none" x="14348.144531" y="-4284.667969" width="1.098633" height="1.098633"/>
<image xlink:href="tile44_44.png" preserveAspectRatio="none" x="14348.144531" y="-4285.766602" width="1.098633" height="1.098633"/>
<image xlink:href="tile44_43.png" preserveAspectRatio="none" x="14348.144531" y="-4286.865234" width="1.098633" height="1.098633"/>
<image xlink:href="tile44_42.png" preserveAspectRatio="none" x="14348.144531" y="-4287.963867" width="1.098633" height="1.098633"/>
<image xlink:href="tile44_41.png" preserveAspectRatio="none" x="14348.144531" y="-4289.0625" width="1.098633" height="1.098633"/>
<image xlink:href="tile44_38.png" preserveAspectRatio="none" x="14348.144531" y="-4292.358398" width="1.098633" height="1.098633"/>
<image xlink:href="tile44_37.png" preserveAspectRatio="none" x="14348.144531" y="-4293.457031" width="1.098633" height="1.098633"/>
<image xlink:href="tile45_45.png" preserveAspectRatio="none" x="14349.243164" y="-4284.667969" width="1.098633" height="1.098633"/>
<image xlink:href="tile45_44.png" preserveAspectRatio="none" x="14349.243164" y="-4285.766602" width="1.098633" height="1.098633"/>
<image xlink:href="tile45_43.png" preserveAspectRatio="none" x="14349.243164" y="-4286.865234" width="1.098633" height="1.098633"/>
<image xlink:href="tile45_42.png" preserveAspectRatio="none" x="14349.243164" y="-4287.963867" width="1.098633" height="1.098633"/>
<image xlink:href="tile46_45.png" preserveAspectRatio="none" x="14350.341797" y="-4284.667969" width="1.098633" height="1.098633"/>
<image xlink:href="tile46_44.png" preserveAspectRatio="none" x="14350.341797" y="-4285.766602" width="1.098633" height="1.098633"/>
<image xlink:href="tile46_43.png" preserveAspectRatio="none" x="14350.341797" y="-4286.865234" width="1.098633" height="1.098633"/>
<image xlink:href="tile47_45.png" preserveAspectRatio="none" x="14351.44043" y="-4284.667969" width="1.098633" height="1.098633"/>
<image xlink:href="tile47_44.png" preserveAspectRatio="none" x="14351.44043" y="-4285.766602" width="1.098633" height="1.098633"/>
</g>
</svg>
