<?xml version="1.0" encoding="UTF-8"?>
<svg  xmlns="http://www.w3.org/2000/svg" xmlns:xlink="http://www.w3.org/1999/xlink" xmlns:go="http://purl.org/svgmap/profile" viewBox="13800.0 -3730.383233 100.0 63.716566000000086" go:dataArea="13800.0 -3730.383233 100.0 63.716566000000086" >
<metadata>
 <rdf:RDF xmlns:rdf="http://www.w3.org/1999/02/22-rdf-syntax-ns#" xmlns:crs="http://opengis.org/xmldtds/transformations.dtd" xmlns:svg="http://www.w3.org/svg" >
  <rdf:Description>
   <crs:CoordinateReferenceSystem rdf:resource="http://purl.org/crs/84" svg:transform="matrix(100.0,0.0,0.0,-100.0,0.0,0.0)" />
  </rdf:Description>
 </rdf:RDF>
</metadata>
<globalCoordinateSystem srsName="http://purl.org/crs/84" transform="matrix(100.0,0.0,0.0,-100.0,0.0,0.0)" />
<g >
<image xlink:href="tile32_27.png" preserveAspectRatio="none" x="13869.140625" y="-3671.630859" width="2.197266" height="2.197266"/>
<image xlink:href="tile32_26.png" preserveAspectRatio="none" x="13869.140625" y="-3673.828125" width="2.197266" height="2.197266"/>
<image xlink:href="tile33_26.png" preserveAspectRatio="none" x="13871.337891" y="-3673.828125" width="2.197266" height="2.197266"/>
<image xlink:href="tile35_28.png" preserveAspectRatio="none" x="13875.732422" y="-3669.433594" width="2.197266" height="2.197266"/>
<image xlink:href="tile35_27.png" preserveAspectRatio="none" x="13875.732422" y="-3671.630859" width="2.197266" height="2.197266"/>
<image xlink:href="tile36_29.png" preserveAspectRatio="none" x="13877.929688" y="-3667.236328" width="2.197266" height="2.197266"/>
<image xlink:href="tile36_28.png" preserveAspectRatio="none" x="13877.929688" y="-3669.433594" width="2.197266" height="2.197266"/>
<image xlink:href="tile36_27.png" preserveAspectRatio="none" x="13877.929688" y="-3671.630859" width="2.197266" height="2.197266"/>
<image xlink:href="tile36_26.png" preserveAspectRatio="none" x="13877.929688" y="-3673.828125" width="2.197266" height="2.197266"/>
<image xlink:href="tile38_26.png" preserveAspectRatio="none" x="13882.324219" y="-3673.828125" width="2.197266" height="2.197266"/>
<image xlink:href="tile39_29.png" preserveAspectRatio="none" x="13884.521484" y="-3667.236328" width="2.197266" height="2.197266"/>
<image xlink:href="tile39_28.png" preserveAspectRatio="none" x="13884.521484" y="-3669.433594" width="2.197266" height="2.197266"/>
<image xlink:href="tile39_26.png" preserveAspectRatio="none" x="13884.521484" y="-3673.828125" width="2.197266" height="2.197266"/>
<image xlink:href="tile39_24.png" preserveAspectRatio="none" x="13884.521484" y="-3678.222656" width="2.197266" height="2.197266"/>
<image xlink:href="tile39_23.png" preserveAspectRatio="none" x="13884.521484" y="-3680.419922" width="2.197266" height="2.197266"/>
<image xlink:href="tile40_28.png" preserveAspectRatio="none" x="13886.71875" y="-3669.433594" width="2.197266" height="2.197266"/>
<image xlink:href="tile40_26.png" preserveAspectRatio="none" x="13886.71875" y="-3673.828125" width="2.197266" height="2.197266"/>
<image xlink:href="tile40_25.png" preserveAspectRatio="none" x="13886.71875" y="-3676.025391" width="2.197266" height="2.197266"/>
<image xlink:href="tile40_24.png" preserveAspectRatio="none" x="13886.71875" y="-3678.222656" width="2.197266" height="2.197266"/>
<image xlink:href="tile40_23.png" preserveAspectRatio="none" x="13886.71875" y="-3680.419922" width="2.197266" height="2.197266"/>
<image xlink:href="tile41_28.png" preserveAspectRatio="none" x="13888.916016" y="-3669.433594" width="2.197266" height="2.197266"/>
<image xlink:href="tile41_27.png" preserveAspectRatio="none" x="13888.916016" y="-3671.630859" width="2.197266" height="2.197266"/>
<image xlink:href="tile41_26.png" preserveAspectRatio="none" x="13888.916016" y="-3673.828125" width="2.197266" height="2.197266"/>
<image xlink:href="tile41_25.png" preserveAspectRatio="none" x="13888.916016" y="-3676.025391" width="2.197266" height="2.197266"/>
<image xlink:href="tile41_24.png" preserveAspectRatio="none" x="13888.916016" y="-3678.222656" width="2.197266" height="2.197266"/>
<image xlink:href="tile41_23.png" preserveAspectRatio="none" x="13888.916016" y="-3680.419922" width="2.197266" height="2.197266"/>
<image xlink:href="tile42_28.png" preserveAspectRatio="none" x="13891.113281" y="-3669.433594" width="2.197266" height="2.197266"/>
<image xlink:href="tile42_27.png" preserveAspectRatio="none" x="13891.113281" y="-3671.630859" width="2.197266" height="2.197266"/>
<image xlink:href="tile43_28.png" preserveAspectRatio="none" x="13893.310547" y="-3669.433594" width="2.197266" height="2.197266"/>
<image xlink:href="tile43_24.png" preserveAspectRatio="none" x="13893.310547" y="-3678.222656" width="2.197266" height="2.197266"/>
<image xlink:href="tile43_23.png" preserveAspectRatio="none" x="13893.310547" y="-3680.419922" width="2.197266" height="2.197266"/>
<image xlink:href="tile43_21.png" preserveAspectRatio="none" x="13893.310547" y="-3684.814453" width="2.197266" height="2.197266"/>
<image xlink:href="tile43_20.png" preserveAspectRatio="none" x="13893.310547" y="-3687.011719" width="2.197266" height="2.197266"/>
<image xlink:href="tile43_19.png" preserveAspectRatio="none" x="13893.310547" y="-3689.208984" width="2.197266" height="2.197266"/>
<image xlink:href="tile44_28.png" preserveAspectRatio="none" x="13895.507812" y="-3669.433594" width="2.197266" height="2.197266"/>
<image xlink:href="tile44_27.png" preserveAspectRatio="none" x="13895.507812" y="-3671.630859" width="2.197266" height="2.197266"/>
<image xlink:href="tile44_25.png" preserveAspectRatio="none" x="13895.507812" y="-3676.025391" width="2.197266" height="2.197266"/>
<image xlink:href="tile44_24.png" preserveAspectRatio="none" x="13895.507812" y="-3678.222656" width="2.197266" height="2.197266"/>
<image xlink:href="tile44_23.png" preserveAspectRatio="none" x="13895.507812" y="-3680.419922" width="2.197266" height="2.197266"/>
<image xlink:href="tile44_22.png" preserveAspectRatio="none" x="13895.507812" y="-3682.617188" width="2.197266" height="2.197266"/>
<image xlink:href="tile44_21.png" preserveAspectRatio="none" x="13895.507812" y="-3684.814453" width="2.197266" height="2.197266"/>
<image xlink:href="tile44_19.png" preserveAspectRatio="none" x="13895.507812" y="-3689.208984" width="2.197266" height="2.197266"/>
<image xlink:href="tile45_29.png" preserveAspectRatio="none" x="13897.705078" y="-3667.236328" width="2.197266" height="2.197266"/>
<image xlink:href="tile45_28.png" preserveAspectRatio="none" x="13897.705078" y="-3669.433594" width="2.197266" height="2.197266"/>
<image xlink:href="tile45_27.png" preserveAspectRatio="none" x="13897.705078" y="-3671.630859" width="2.197266" height="2.197266"/>
<image xlink:href="tile45_26.png" preserveAspectRatio="none" x="13897.705078" y="-3673.828125" width="2.197266" height="2.197266"/>
<image xlink:href="tile45_25.png" preserveAspectRatio="none" x="13897.705078" y="-3676.025391" width="2.197266" height="2.197266"/>
<image xlink:href="tile45_23.png" preserveAspectRatio="none" x="13897.705078" y="-3680.419922" width="2.197266" height="2.197266"/>
<image xlink:href="tile45_22.png" preserveAspectRatio="none" x="13897.705078" y="-3682.617188" width="2.197266" height="2.197266"/>
<image xlink:href="tile45_20.png" preserveAspectRatio="none" x="13897.705078" y="-3687.011719" width="2.197266" height="2.197266"/>
<image xlink:href="tile45_19.png" preserveAspectRatio="none" x="13897.705078" y="-3689.208984" width="2.197266" height="2.197266"/>
<image xlink:href="tile46_29.png" preserveAspectRatio="none" x="13899.902344" y="-3667.236328" width="2.197266" height="2.197266"/>
<image xlink:href="tile46_28.png" preserveAspectRatio="none" x="13899.902344" y="-3669.433594" width="2.197266" height="2.197266"/>
<image xlink:href="tile46_23.png" preserveAspectRatio="none" x="13899.902344" y="-3680.419922" width="2.197266" height="2.197266"/>
<image xlink:href="tile46_20.png" preserveAspectRatio="none" x="13899.902344" y="-3687.011719" width="2.197266" height="2.197266"/>
</g>
</svg>
