<?xml version="1.0" encoding="UTF-8"?>
<svg  xmlns="http://www.w3.org/2000/svg" xmlns:xlink="http://www.w3.org/1999/xlink" xmlns:go="http://purl.org/svgmap/profile" viewBox="13800.0 -3730.383233 100.0 63.716566000000086" go:dataArea="13800.0 -3730.383233 100.0 63.716566000000086" >
<metadata>
 <rdf:RDF xmlns:rdf="http://www.w3.org/1999/02/22-rdf-syntax-ns#" xmlns:crs="http://opengis.org/xmldtds/transformations.dtd" xmlns:svg="http://www.w3.org/svg" >
  <rdf:Description>
   <crs:CoordinateReferenceSystem rdf:resource="http://purl.org/crs/84" svg:transform="matrix(100.0,0.0,0.0,-100.0,0.0,0.0)" />
  </rdf:Description>
 </rdf:RDF>
</metadata>
<globalCoordinateSystem srsName="http://purl.org/crs/84" transform="matrix(100.0,0.0,0.0,-100.0,0.0,0.0)" />
<g >
<image xlink:href="tile34_7.png" preserveAspectRatio="none" x="13873.535156" y="-3715.576172" width="2.197266" height="2.197266"/>
<image xlink:href="tile35_8.png" preserveAspectRatio="none" x="13875.732422" y="-3713.378906" width="2.197266" height="2.197266"/>
<image xlink:href="tile35_7.png" preserveAspectRatio="none" x="13875.732422" y="-3715.576172" width="2.197266" height="2.197266"/>
<image xlink:href="tile35_6.png" preserveAspectRatio="none" x="13875.732422" y="-3717.773438" width="2.197266" height="2.197266"/>
<image xlink:href="tile38_13.png" preserveAspectRatio="none" x="13882.324219" y="-3702.392578" width="2.197266" height="2.197266"/>
<image xlink:href="tile38_12.png" preserveAspectRatio="none" x="13882.324219" y="-3704.589844" width="2.197266" height="2.197266"/>
<image xlink:href="tile39_12.png" preserveAspectRatio="none" x="13884.521484" y="-3704.589844" width="2.197266" height="2.197266"/>
<image xlink:href="tile39_11.png" preserveAspectRatio="none" x="13884.521484" y="-3706.787109" width="2.197266" height="2.197266"/>
<image xlink:href="tile39_6.png" preserveAspectRatio="none" x="13884.521484" y="-3717.773438" width="2.197266" height="2.197266"/>
<image xlink:href="tile39_5.png" preserveAspectRatio="none" x="13884.521484" y="-3719.970703" width="2.197266" height="2.197266"/>
<image xlink:href="tile40_12.png" preserveAspectRatio="none" x="13886.71875" y="-3704.589844" width="2.197266" height="2.197266"/>
<image xlink:href="tile40_11.png" preserveAspectRatio="none" x="13886.71875" y="-3706.787109" width="2.197266" height="2.197266"/>
<image xlink:href="tile40_10.png" preserveAspectRatio="none" x="13886.71875" y="-3708.984375" width="2.197266" height="2.197266"/>
<image xlink:href="tile40_4.png" preserveAspectRatio="none" x="13886.71875" y="-3722.167969" width="2.197266" height="2.197266"/>
<image xlink:href="tile40_3.png" preserveAspectRatio="none" x="13886.71875" y="-3724.365234" width="2.197266" height="2.197266"/>
<image xlink:href="tile40_2.png" preserveAspectRatio="none" x="13886.71875" y="-3726.5625" width="2.197266" height="2.197266"/>
<image xlink:href="tile41_10.png" preserveAspectRatio="none" x="13888.916016" y="-3708.984375" width="2.197266" height="2.197266"/>
<image xlink:href="tile41_9.png" preserveAspectRatio="none" x="13888.916016" y="-3711.181641" width="2.197266" height="2.197266"/>
<image xlink:href="tile41_8.png" preserveAspectRatio="none" x="13888.916016" y="-3713.378906" width="2.197266" height="2.197266"/>
<image xlink:href="tile41_4.png" preserveAspectRatio="none" x="13888.916016" y="-3722.167969" width="2.197266" height="2.197266"/>
<image xlink:href="tile41_3.png" preserveAspectRatio="none" x="13888.916016" y="-3724.365234" width="2.197266" height="2.197266"/>
<image xlink:href="tile41_2.png" preserveAspectRatio="none" x="13888.916016" y="-3726.5625" width="2.197266" height="2.197266"/>
<image xlink:href="tile42_8.png" preserveAspectRatio="none" x="13891.113281" y="-3713.378906" width="2.197266" height="2.197266"/>
<image xlink:href="tile42_7.png" preserveAspectRatio="none" x="13891.113281" y="-3715.576172" width="2.197266" height="2.197266"/>
<image xlink:href="tile42_6.png" preserveAspectRatio="none" x="13891.113281" y="-3717.773438" width="2.197266" height="2.197266"/>
<image xlink:href="tile42_5.png" preserveAspectRatio="none" x="13891.113281" y="-3719.970703" width="2.197266" height="2.197266"/>
<image xlink:href="tile42_3.png" preserveAspectRatio="none" x="13891.113281" y="-3724.365234" width="2.197266" height="2.197266"/>
<image xlink:href="tile42_2.png" preserveAspectRatio="none" x="13891.113281" y="-3726.5625" width="2.197266" height="2.197266"/>
<image xlink:href="tile43_7.png" preserveAspectRatio="none" x="13893.310547" y="-3715.576172" width="2.197266" height="2.197266"/>
<image xlink:href="tile43_6.png" preserveAspectRatio="none" x="13893.310547" y="-3717.773438" width="2.197266" height="2.197266"/>
<image xlink:href="tile43_5.png" preserveAspectRatio="none" x="13893.310547" y="-3719.970703" width="2.197266" height="2.197266"/>
<image xlink:href="tile43_4.png" preserveAspectRatio="none" x="13893.310547" y="-3722.167969" width="2.197266" height="2.197266"/>
<image xlink:href="tile43_3.png" preserveAspectRatio="none" x="13893.310547" y="-3724.365234" width="2.197266" height="2.197266"/>
<image xlink:href="tile44_7.png" preserveAspectRatio="none" x="13895.507812" y="-3715.576172" width="2.197266" height="2.197266"/>
<image xlink:href="tile44_6.png" preserveAspectRatio="none" x="13895.507812" y="-3717.773438" width="2.197266" height="2.197266"/>
<image xlink:href="tile44_5.png" preserveAspectRatio="none" x="13895.507812" y="-3719.970703" width="2.197266" height="2.197266"/>
<image xlink:href="tile44_4.png" preserveAspectRatio="none" x="13895.507812" y="-3722.167969" width="2.197266" height="2.197266"/>
<image xlink:href="tile44_3.png" preserveAspectRatio="none" x="13895.507812" y="-3724.365234" width="2.197266" height="2.197266"/>
<image xlink:href="tile44_2.png" preserveAspectRatio="none" x="13895.507812" y="-3726.5625" width="2.197266" height="2.197266"/>
<image xlink:href="tile44_1.png" preserveAspectRatio="none" x="13895.507812" y="-3728.759766" width="2.197266" height="2.197266"/>
<image xlink:href="tile44_0.png" preserveAspectRatio="none" x="13895.507812" y="-3730.957031" width="2.197266" height="2.197266"/>
<image xlink:href="tile45_7.png" preserveAspectRatio="none" x="13897.705078" y="-3715.576172" width="2.197266" height="2.197266"/>
<image xlink:href="tile45_6.png" preserveAspectRatio="none" x="13897.705078" y="-3717.773438" width="2.197266" height="2.197266"/>
<image xlink:href="tile45_3.png" preserveAspectRatio="none" x="13897.705078" y="-3724.365234" width="2.197266" height="2.197266"/>
<image xlink:href="tile45_2.png" preserveAspectRatio="none" x="13897.705078" y="-3726.5625" width="2.197266" height="2.197266"/>
<image xlink:href="tile45_1.png" preserveAspectRatio="none" x="13897.705078" y="-3728.759766" width="2.197266" height="2.197266"/>
<image xlink:href="tile45_0.png" preserveAspectRatio="none" x="13897.705078" y="-3730.957031" width="2.197266" height="2.197266"/>
<image xlink:href="tile46_7.png" preserveAspectRatio="none" x="13899.902344" y="-3715.576172" width="2.197266" height="2.197266"/>
<image xlink:href="tile46_3.png" preserveAspectRatio="none" x="13899.902344" y="-3724.365234" width="2.197266" height="2.197266"/>
</g>
</svg>
