<?xml version="1.0" encoding="UTF-8"?>
<svg  xmlns="http://www.w3.org/2000/svg" xmlns:xlink="http://www.w3.org/1999/xlink" xmlns:go="http://purl.org/svgmap/profile" viewBox="14000.0 -3600.0 84.0695629999999 66.66666699999979" go:dataArea="14000.0 -3600.0 84.0695629999999 66.66666699999979" >
<metadata>
 <rdf:RDF xmlns:rdf="http://www.w3.org/1999/02/22-rdf-syntax-ns#" xmlns:crs="http://opengis.org/xmldtds/transformations.dtd" xmlns:svg="http://www.w3.org/svg" >
  <rdf:Description>
   <crs:CoordinateReferenceSystem rdf:resource="http://purl.org/crs/84" svg:transform="matrix(100.0,0.0,0.0,-100.0,0.0,0.0)" />
  </rdf:Description>
 </rdf:RDF>
</metadata>
<globalCoordinateSystem srsName="http://purl.org/crs/84" transform="matrix(100.0,0.0,0.0,-100.0,0.0,0.0)" />
<g >
<image xlink:href="tile0_29.png" preserveAspectRatio="none" x="13998.779297" y="-3537.597656" width="2.197266" height="2.197266"/>
<image xlink:href="tile0_28.png" preserveAspectRatio="none" x="13998.779297" y="-3539.794922" width="2.197266" height="2.197266"/>
<image xlink:href="tile0_27.png" preserveAspectRatio="none" x="13998.779297" y="-3541.992188" width="2.197266" height="2.197266"/>
<image xlink:href="tile0_15.png" preserveAspectRatio="none" x="13998.779297" y="-3568.359375" width="2.197266" height="2.197266"/>
<image xlink:href="tile1_29.png" preserveAspectRatio="none" x="14000.976562" y="-3537.597656" width="2.197266" height="2.197266"/>
<image xlink:href="tile1_28.png" preserveAspectRatio="none" x="14000.976562" y="-3539.794922" width="2.197266" height="2.197266"/>
<image xlink:href="tile1_27.png" preserveAspectRatio="none" x="14000.976562" y="-3541.992188" width="2.197266" height="2.197266"/>
<image xlink:href="tile1_24.png" preserveAspectRatio="none" x="14000.976562" y="-3548.583984" width="2.197266" height="2.197266"/>
<image xlink:href="tile1_23.png" preserveAspectRatio="none" x="14000.976562" y="-3550.78125" width="2.197266" height="2.197266"/>
<image xlink:href="tile1_15.png" preserveAspectRatio="none" x="14000.976562" y="-3568.359375" width="2.197266" height="2.197266"/>
<image xlink:href="tile2_30.png" preserveAspectRatio="none" x="14003.173828" y="-3535.400391" width="2.197266" height="2.197266"/>
<image xlink:href="tile2_29.png" preserveAspectRatio="none" x="14003.173828" y="-3537.597656" width="2.197266" height="2.197266"/>
<image xlink:href="tile2_28.png" preserveAspectRatio="none" x="14003.173828" y="-3539.794922" width="2.197266" height="2.197266"/>
<image xlink:href="tile2_27.png" preserveAspectRatio="none" x="14003.173828" y="-3541.992188" width="2.197266" height="2.197266"/>
<image xlink:href="tile2_25.png" preserveAspectRatio="none" x="14003.173828" y="-3546.386719" width="2.197266" height="2.197266"/>
<image xlink:href="tile2_24.png" preserveAspectRatio="none" x="14003.173828" y="-3548.583984" width="2.197266" height="2.197266"/>
<image xlink:href="tile2_23.png" preserveAspectRatio="none" x="14003.173828" y="-3550.78125" width="2.197266" height="2.197266"/>
<image xlink:href="tile2_22.png" preserveAspectRatio="none" x="14003.173828" y="-3552.978516" width="2.197266" height="2.197266"/>
<image xlink:href="tile3_30.png" preserveAspectRatio="none" x="14005.371094" y="-3535.400391" width="2.197266" height="2.197266"/>
<image xlink:href="tile3_29.png" preserveAspectRatio="none" x="14005.371094" y="-3537.597656" width="2.197266" height="2.197266"/>
<image xlink:href="tile3_28.png" preserveAspectRatio="none" x="14005.371094" y="-3539.794922" width="2.197266" height="2.197266"/>
<image xlink:href="tile3_27.png" preserveAspectRatio="none" x="14005.371094" y="-3541.992188" width="2.197266" height="2.197266"/>
<image xlink:href="tile3_24.png" preserveAspectRatio="none" x="14005.371094" y="-3548.583984" width="2.197266" height="2.197266"/>
<image xlink:href="tile3_23.png" preserveAspectRatio="none" x="14005.371094" y="-3550.78125" width="2.197266" height="2.197266"/>
<image xlink:href="tile3_22.png" preserveAspectRatio="none" x="14005.371094" y="-3552.978516" width="2.197266" height="2.197266"/>
<image xlink:href="tile3_21.png" preserveAspectRatio="none" x="14005.371094" y="-3555.175781" width="2.197266" height="2.197266"/>
<image xlink:href="tile4_30.png" preserveAspectRatio="none" x="14007.568359" y="-3535.400391" width="2.197266" height="2.197266"/>
<image xlink:href="tile4_29.png" preserveAspectRatio="none" x="14007.568359" y="-3537.597656" width="2.197266" height="2.197266"/>
<image xlink:href="tile4_24.png" preserveAspectRatio="none" x="14007.568359" y="-3548.583984" width="2.197266" height="2.197266"/>
<image xlink:href="tile4_23.png" preserveAspectRatio="none" x="14007.568359" y="-3550.78125" width="2.197266" height="2.197266"/>
<image xlink:href="tile4_22.png" preserveAspectRatio="none" x="14007.568359" y="-3552.978516" width="2.197266" height="2.197266"/>
<image xlink:href="tile4_21.png" preserveAspectRatio="none" x="14007.568359" y="-3555.175781" width="2.197266" height="2.197266"/>
<image xlink:href="tile4_18.png" preserveAspectRatio="none" x="14007.568359" y="-3561.767578" width="2.197266" height="2.197266"/>
<image xlink:href="tile4_17.png" preserveAspectRatio="none" x="14007.568359" y="-3563.964844" width="2.197266" height="2.197266"/>
<image xlink:href="tile5_26.png" preserveAspectRatio="none" x="14009.765625" y="-3544.189453" width="2.197266" height="2.197266"/>
<image xlink:href="tile5_25.png" preserveAspectRatio="none" x="14009.765625" y="-3546.386719" width="2.197266" height="2.197266"/>
<image xlink:href="tile5_24.png" preserveAspectRatio="none" x="14009.765625" y="-3548.583984" width="2.197266" height="2.197266"/>
<image xlink:href="tile5_23.png" preserveAspectRatio="none" x="14009.765625" y="-3550.78125" width="2.197266" height="2.197266"/>
<image xlink:href="tile5_22.png" preserveAspectRatio="none" x="14009.765625" y="-3552.978516" width="2.197266" height="2.197266"/>
<image xlink:href="tile5_21.png" preserveAspectRatio="none" x="14009.765625" y="-3555.175781" width="2.197266" height="2.197266"/>
<image xlink:href="tile5_20.png" preserveAspectRatio="none" x="14009.765625" y="-3557.373047" width="2.197266" height="2.197266"/>
<image xlink:href="tile5_19.png" preserveAspectRatio="none" x="14009.765625" y="-3559.570312" width="2.197266" height="2.197266"/>
<image xlink:href="tile5_18.png" preserveAspectRatio="none" x="14009.765625" y="-3561.767578" width="2.197266" height="2.197266"/>
<image xlink:href="tile5_17.png" preserveAspectRatio="none" x="14009.765625" y="-3563.964844" width="2.197266" height="2.197266"/>
<image xlink:href="tile6_29.png" preserveAspectRatio="none" x="14011.962891" y="-3537.597656" width="2.197266" height="2.197266"/>
<image xlink:href="tile6_28.png" preserveAspectRatio="none" x="14011.962891" y="-3539.794922" width="2.197266" height="2.197266"/>
<image xlink:href="tile6_27.png" preserveAspectRatio="none" x="14011.962891" y="-3541.992188" width="2.197266" height="2.197266"/>
<image xlink:href="tile6_26.png" preserveAspectRatio="none" x="14011.962891" y="-3544.189453" width="2.197266" height="2.197266"/>
<image xlink:href="tile6_25.png" preserveAspectRatio="none" x="14011.962891" y="-3546.386719" width="2.197266" height="2.197266"/>
<image xlink:href="tile6_24.png" preserveAspectRatio="none" x="14011.962891" y="-3548.583984" width="2.197266" height="2.197266"/>
<image xlink:href="tile6_21.png" preserveAspectRatio="none" x="14011.962891" y="-3555.175781" width="2.197266" height="2.197266"/>
<image xlink:href="tile6_20.png" preserveAspectRatio="none" x="14011.962891" y="-3557.373047" width="2.197266" height="2.197266"/>
<image xlink:href="tile6_19.png" preserveAspectRatio="none" x="14011.962891" y="-3559.570312" width="2.197266" height="2.197266"/>
<image xlink:href="tile6_18.png" preserveAspectRatio="none" x="14011.962891" y="-3561.767578" width="2.197266" height="2.197266"/>
<image xlink:href="tile6_17.png" preserveAspectRatio="none" x="14011.962891" y="-3563.964844" width="2.197266" height="2.197266"/>
<image xlink:href="tile7_29.png" preserveAspectRatio="none" x="14014.160156" y="-3537.597656" width="2.197266" height="2.197266"/>
<image xlink:href="tile7_28.png" preserveAspectRatio="none" x="14014.160156" y="-3539.794922" width="2.197266" height="2.197266"/>
<image xlink:href="tile7_27.png" preserveAspectRatio="none" x="14014.160156" y="-3541.992188" width="2.197266" height="2.197266"/>
<image xlink:href="tile7_23.png" preserveAspectRatio="none" x="14014.160156" y="-3550.78125" width="2.197266" height="2.197266"/>
<image xlink:href="tile7_22.png" preserveAspectRatio="none" x="14014.160156" y="-3552.978516" width="2.197266" height="2.197266"/>
<image xlink:href="tile7_21.png" preserveAspectRatio="none" x="14014.160156" y="-3555.175781" width="2.197266" height="2.197266"/>
<image xlink:href="tile7_20.png" preserveAspectRatio="none" x="14014.160156" y="-3557.373047" width="2.197266" height="2.197266"/>
<image xlink:href="tile7_19.png" preserveAspectRatio="none" x="14014.160156" y="-3559.570312" width="2.197266" height="2.197266"/>
<image xlink:href="tile7_18.png" preserveAspectRatio="none" x="14014.160156" y="-3561.767578" width="2.197266" height="2.197266"/>
<image xlink:href="tile8_29.png" preserveAspectRatio="none" x="14016.357422" y="-3537.597656" width="2.197266" height="2.197266"/>
<image xlink:href="tile8_28.png" preserveAspectRatio="none" x="14016.357422" y="-3539.794922" width="2.197266" height="2.197266"/>
<image xlink:href="tile8_27.png" preserveAspectRatio="none" x="14016.357422" y="-3541.992188" width="2.197266" height="2.197266"/>
<image xlink:href="tile8_22.png" preserveAspectRatio="none" x="14016.357422" y="-3552.978516" width="2.197266" height="2.197266"/>
<image xlink:href="tile8_21.png" preserveAspectRatio="none" x="14016.357422" y="-3555.175781" width="2.197266" height="2.197266"/>
<image xlink:href="tile8_20.png" preserveAspectRatio="none" x="14016.357422" y="-3557.373047" width="2.197266" height="2.197266"/>
<image xlink:href="tile8_19.png" preserveAspectRatio="none" x="14016.357422" y="-3559.570312" width="2.197266" height="2.197266"/>
<image xlink:href="tile8_18.png" preserveAspectRatio="none" x="14016.357422" y="-3561.767578" width="2.197266" height="2.197266"/>
<image xlink:href="tile8_17.png" preserveAspectRatio="none" x="14016.357422" y="-3563.964844" width="2.197266" height="2.197266"/>
<image xlink:href="tile8_16.png" preserveAspectRatio="none" x="14016.357422" y="-3566.162109" width="2.197266" height="2.197266"/>
<image xlink:href="tile8_15.png" preserveAspectRatio="none" x="14016.357422" y="-3568.359375" width="2.197266" height="2.197266"/>
<image xlink:href="tile9_27.png" preserveAspectRatio="none" x="14018.554688" y="-3541.992188" width="2.197266" height="2.197266"/>
<image xlink:href="tile9_26.png" preserveAspectRatio="none" x="14018.554688" y="-3544.189453" width="2.197266" height="2.197266"/>
<image xlink:href="tile9_24.png" preserveAspectRatio="none" x="14018.554688" y="-3548.583984" width="2.197266" height="2.197266"/>
<image xlink:href="tile9_23.png" preserveAspectRatio="none" x="14018.554688" y="-3550.78125" width="2.197266" height="2.197266"/>
<image xlink:href="tile9_22.png" preserveAspectRatio="none" x="14018.554688" y="-3552.978516" width="2.197266" height="2.197266"/>
<image xlink:href="tile9_21.png" preserveAspectRatio="none" x="14018.554688" y="-3555.175781" width="2.197266" height="2.197266"/>
<image xlink:href="tile9_19.png" preserveAspectRatio="none" x="14018.554688" y="-3559.570312" width="2.197266" height="2.197266"/>
<image xlink:href="tile9_18.png" preserveAspectRatio="none" x="14018.554688" y="-3561.767578" width="2.197266" height="2.197266"/>
<image xlink:href="tile9_16.png" preserveAspectRatio="none" x="14018.554688" y="-3566.162109" width="2.197266" height="2.197266"/>
<image xlink:href="tile9_15.png" preserveAspectRatio="none" x="14018.554688" y="-3568.359375" width="2.197266" height="2.197266"/>
<image xlink:href="tile10_30.png" preserveAspectRatio="none" x="14020.751953" y="-3535.400391" width="2.197266" height="2.197266"/>
<image xlink:href="tile10_29.png" preserveAspectRatio="none" x="14020.751953" y="-3537.597656" width="2.197266" height="2.197266"/>
<image xlink:href="tile10_28.png" preserveAspectRatio="none" x="14020.751953" y="-3539.794922" width="2.197266" height="2.197266"/>
<image xlink:href="tile10_27.png" preserveAspectRatio="none" x="14020.751953" y="-3541.992188" width="2.197266" height="2.197266"/>
<image xlink:href="tile10_26.png" preserveAspectRatio="none" x="14020.751953" y="-3544.189453" width="2.197266" height="2.197266"/>
<image xlink:href="tile10_22.png" preserveAspectRatio="none" x="14020.751953" y="-3552.978516" width="2.197266" height="2.197266"/>
<image xlink:href="tile10_21.png" preserveAspectRatio="none" x="14020.751953" y="-3555.175781" width="2.197266" height="2.197266"/>
<image xlink:href="tile10_19.png" preserveAspectRatio="none" x="14020.751953" y="-3559.570312" width="2.197266" height="2.197266"/>
<image xlink:href="tile10_18.png" preserveAspectRatio="none" x="14020.751953" y="-3561.767578" width="2.197266" height="2.197266"/>
<image xlink:href="tile10_17.png" preserveAspectRatio="none" x="14020.751953" y="-3563.964844" width="2.197266" height="2.197266"/>
<image xlink:href="tile10_16.png" preserveAspectRatio="none" x="14020.751953" y="-3566.162109" width="2.197266" height="2.197266"/>
<image xlink:href="tile10_15.png" preserveAspectRatio="none" x="14020.751953" y="-3568.359375" width="2.197266" height="2.197266"/>
<image xlink:href="tile11_30.png" preserveAspectRatio="none" x="14022.949219" y="-3535.400391" width="2.197266" height="2.197266"/>
<image xlink:href="tile11_29.png" preserveAspectRatio="none" x="14022.949219" y="-3537.597656" width="2.197266" height="2.197266"/>
<image xlink:href="tile11_28.png" preserveAspectRatio="none" x="14022.949219" y="-3539.794922" width="2.197266" height="2.197266"/>
<image xlink:href="tile11_27.png" preserveAspectRatio="none" x="14022.949219" y="-3541.992188" width="2.197266" height="2.197266"/>
<image xlink:href="tile11_26.png" preserveAspectRatio="none" x="14022.949219" y="-3544.189453" width="2.197266" height="2.197266"/>
<image xlink:href="tile11_25.png" preserveAspectRatio="none" x="14022.949219" y="-3546.386719" width="2.197266" height="2.197266"/>
<image xlink:href="tile11_24.png" preserveAspectRatio="none" x="14022.949219" y="-3548.583984" width="2.197266" height="2.197266"/>
<image xlink:href="tile11_22.png" preserveAspectRatio="none" x="14022.949219" y="-3552.978516" width="2.197266" height="2.197266"/>
<image xlink:href="tile11_21.png" preserveAspectRatio="none" x="14022.949219" y="-3555.175781" width="2.197266" height="2.197266"/>
<image xlink:href="tile11_17.png" preserveAspectRatio="none" x="14022.949219" y="-3563.964844" width="2.197266" height="2.197266"/>
<image xlink:href="tile11_16.png" preserveAspectRatio="none" x="14022.949219" y="-3566.162109" width="2.197266" height="2.197266"/>
<image xlink:href="tile11_15.png" preserveAspectRatio="none" x="14022.949219" y="-3568.359375" width="2.197266" height="2.197266"/>
<image xlink:href="tile12_30.png" preserveAspectRatio="none" x="14025.146484" y="-3535.400391" width="2.197266" height="2.197266"/>
<image xlink:href="tile12_29.png" preserveAspectRatio="none" x="14025.146484" y="-3537.597656" width="2.197266" height="2.197266"/>
<image xlink:href="tile12_28.png" preserveAspectRatio="none" x="14025.146484" y="-3539.794922" width="2.197266" height="2.197266"/>
<image xlink:href="tile12_27.png" preserveAspectRatio="none" x="14025.146484" y="-3541.992188" width="2.197266" height="2.197266"/>
<image xlink:href="tile12_26.png" preserveAspectRatio="none" x="14025.146484" y="-3544.189453" width="2.197266" height="2.197266"/>
<image xlink:href="tile12_25.png" preserveAspectRatio="none" x="14025.146484" y="-3546.386719" width="2.197266" height="2.197266"/>
<image xlink:href="tile12_23.png" preserveAspectRatio="none" x="14025.146484" y="-3550.78125" width="2.197266" height="2.197266"/>
<image xlink:href="tile12_22.png" preserveAspectRatio="none" x="14025.146484" y="-3552.978516" width="2.197266" height="2.197266"/>
<image xlink:href="tile12_17.png" preserveAspectRatio="none" x="14025.146484" y="-3563.964844" width="2.197266" height="2.197266"/>
<image xlink:href="tile12_16.png" preserveAspectRatio="none" x="14025.146484" y="-3566.162109" width="2.197266" height="2.197266"/>
<image xlink:href="tile13_30.png" preserveAspectRatio="none" x="14027.34375" y="-3535.400391" width="2.197266" height="2.197266"/>
<image xlink:href="tile13_29.png" preserveAspectRatio="none" x="14027.34375" y="-3537.597656" width="2.197266" height="2.197266"/>
<image xlink:href="tile13_28.png" preserveAspectRatio="none" x="14027.34375" y="-3539.794922" width="2.197266" height="2.197266"/>
<image xlink:href="tile13_27.png" preserveAspectRatio="none" x="14027.34375" y="-3541.992188" width="2.197266" height="2.197266"/>
<image xlink:href="tile13_26.png" preserveAspectRatio="none" x="14027.34375" y="-3544.189453" width="2.197266" height="2.197266"/>
<image xlink:href="tile13_25.png" preserveAspectRatio="none" x="14027.34375" y="-3546.386719" width="2.197266" height="2.197266"/>
<image xlink:href="tile13_24.png" preserveAspectRatio="none" x="14027.34375" y="-3548.583984" width="2.197266" height="2.197266"/>
<image xlink:href="tile14_30.png" preserveAspectRatio="none" x="14029.541016" y="-3535.400391" width="2.197266" height="2.197266"/>
<image xlink:href="tile14_29.png" preserveAspectRatio="none" x="14029.541016" y="-3537.597656" width="2.197266" height="2.197266"/>
<image xlink:href="tile14_28.png" preserveAspectRatio="none" x="14029.541016" y="-3539.794922" width="2.197266" height="2.197266"/>
<image xlink:href="tile14_27.png" preserveAspectRatio="none" x="14029.541016" y="-3541.992188" width="2.197266" height="2.197266"/>
<image xlink:href="tile14_26.png" preserveAspectRatio="none" x="14029.541016" y="-3544.189453" width="2.197266" height="2.197266"/>
<image xlink:href="tile14_25.png" preserveAspectRatio="none" x="14029.541016" y="-3546.386719" width="2.197266" height="2.197266"/>
<image xlink:href="tile14_24.png" preserveAspectRatio="none" x="14029.541016" y="-3548.583984" width="2.197266" height="2.197266"/>
<image xlink:href="tile14_23.png" preserveAspectRatio="none" x="14029.541016" y="-3550.78125" width="2.197266" height="2.197266"/>
<image xlink:href="tile14_22.png" preserveAspectRatio="none" x="14029.541016" y="-3552.978516" width="2.197266" height="2.197266"/>
<image xlink:href="tile15_29.png" preserveAspectRatio="none" x="14031.738281" y="-3537.597656" width="2.197266" height="2.197266"/>
<image xlink:href="tile15_28.png" preserveAspectRatio="none" x="14031.738281" y="-3539.794922" width="2.197266" height="2.197266"/>
<image xlink:href="tile15_27.png" preserveAspectRatio="none" x="14031.738281" y="-3541.992188" width="2.197266" height="2.197266"/>
<image xlink:href="tile15_26.png" preserveAspectRatio="none" x="14031.738281" y="-3544.189453" width="2.197266" height="2.197266"/>
<image xlink:href="tile15_25.png" preserveAspectRatio="none" x="14031.738281" y="-3546.386719" width="2.197266" height="2.197266"/>
<image xlink:href="tile15_24.png" preserveAspectRatio="none" x="14031.738281" y="-3548.583984" width="2.197266" height="2.197266"/>
<image xlink:href="tile15_23.png" preserveAspectRatio="none" x="14031.738281" y="-3550.78125" width="2.197266" height="2.197266"/>
<image xlink:href="tile15_22.png" preserveAspectRatio="none" x="14031.738281" y="-3552.978516" width="2.197266" height="2.197266"/>
<image xlink:href="tile15_21.png" preserveAspectRatio="none" x="14031.738281" y="-3555.175781" width="2.197266" height="2.197266"/>
<image xlink:href="tile15_17.png" preserveAspectRatio="none" x="14031.738281" y="-3563.964844" width="2.197266" height="2.197266"/>
</g>
</svg>
