<?xml version="1.0" encoding="UTF-8"?>
<svg  xmlns="http://www.w3.org/2000/svg" xmlns:xlink="http://www.w3.org/1999/xlink" xmlns:go="http://purl.org/svgmap/profile" viewBox="14000.0 -3600.0 84.0695629999999 66.66666699999979" go:dataArea="14000.0 -3600.0 84.0695629999999 66.66666699999979" >
<metadata>
 <rdf:RDF xmlns:rdf="http://www.w3.org/1999/02/22-rdf-syntax-ns#" xmlns:crs="http://opengis.org/xmldtds/transformations.dtd" xmlns:svg="http://www.w3.org/svg" >
  <rdf:Description>
   <crs:CoordinateReferenceSystem rdf:resource="http://purl.org/crs/84" svg:transform="matrix(100.0,0.0,0.0,-100.0,0.0,0.0)" />
  </rdf:Description>
 </rdf:RDF>
</metadata>
<globalCoordinateSystem srsName="http://purl.org/crs/84" transform="matrix(100.0,0.0,0.0,-100.0,0.0,0.0)" />
<g >
<image xlink:href="tile0_14.png" preserveAspectRatio="none" x="13998.779297" y="-3570.556641" width="2.197266" height="2.197266"/>
<image xlink:href="tile0_13.png" preserveAspectRatio="none" x="13998.779297" y="-3572.753906" width="2.197266" height="2.197266"/>
<image xlink:href="tile0_8.png" preserveAspectRatio="none" x="13998.779297" y="-3583.740234" width="2.197266" height="2.197266"/>
<image xlink:href="tile0_7.png" preserveAspectRatio="none" x="13998.779297" y="-3585.9375" width="2.197266" height="2.197266"/>
<image xlink:href="tile0_6.png" preserveAspectRatio="none" x="13998.779297" y="-3588.134766" width="2.197266" height="2.197266"/>
<image xlink:href="tile0_5.png" preserveAspectRatio="none" x="13998.779297" y="-3590.332031" width="2.197266" height="2.197266"/>
<image xlink:href="tile0_4.png" preserveAspectRatio="none" x="13998.779297" y="-3592.529297" width="2.197266" height="2.197266"/>
<image xlink:href="tile0_3.png" preserveAspectRatio="none" x="13998.779297" y="-3594.726562" width="2.197266" height="2.197266"/>
<image xlink:href="tile0_2.png" preserveAspectRatio="none" x="13998.779297" y="-3596.923828" width="2.197266" height="2.197266"/>
<image xlink:href="tile0_1.png" preserveAspectRatio="none" x="13998.779297" y="-3599.121094" width="2.197266" height="2.197266"/>
<image xlink:href="tile0_0.png" preserveAspectRatio="none" x="13998.779297" y="-3601.318359" width="2.197266" height="2.197266"/>
<image xlink:href="tile1_13.png" preserveAspectRatio="none" x="14000.976562" y="-3572.753906" width="2.197266" height="2.197266"/>
<image xlink:href="tile1_7.png" preserveAspectRatio="none" x="14000.976562" y="-3585.9375" width="2.197266" height="2.197266"/>
<image xlink:href="tile1_6.png" preserveAspectRatio="none" x="14000.976562" y="-3588.134766" width="2.197266" height="2.197266"/>
<image xlink:href="tile1_5.png" preserveAspectRatio="none" x="14000.976562" y="-3590.332031" width="2.197266" height="2.197266"/>
<image xlink:href="tile1_4.png" preserveAspectRatio="none" x="14000.976562" y="-3592.529297" width="2.197266" height="2.197266"/>
<image xlink:href="tile1_3.png" preserveAspectRatio="none" x="14000.976562" y="-3594.726562" width="2.197266" height="2.197266"/>
<image xlink:href="tile1_2.png" preserveAspectRatio="none" x="14000.976562" y="-3596.923828" width="2.197266" height="2.197266"/>
<image xlink:href="tile1_1.png" preserveAspectRatio="none" x="14000.976562" y="-3599.121094" width="2.197266" height="2.197266"/>
<image xlink:href="tile1_0.png" preserveAspectRatio="none" x="14000.976562" y="-3601.318359" width="2.197266" height="2.197266"/>
<image xlink:href="tile2_13.png" preserveAspectRatio="none" x="14003.173828" y="-3572.753906" width="2.197266" height="2.197266"/>
<image xlink:href="tile2_12.png" preserveAspectRatio="none" x="14003.173828" y="-3574.951172" width="2.197266" height="2.197266"/>
<image xlink:href="tile2_11.png" preserveAspectRatio="none" x="14003.173828" y="-3577.148438" width="2.197266" height="2.197266"/>
<image xlink:href="tile2_10.png" preserveAspectRatio="none" x="14003.173828" y="-3579.345703" width="2.197266" height="2.197266"/>
<image xlink:href="tile2_9.png" preserveAspectRatio="none" x="14003.173828" y="-3581.542969" width="2.197266" height="2.197266"/>
<image xlink:href="tile2_8.png" preserveAspectRatio="none" x="14003.173828" y="-3583.740234" width="2.197266" height="2.197266"/>
<image xlink:href="tile2_7.png" preserveAspectRatio="none" x="14003.173828" y="-3585.9375" width="2.197266" height="2.197266"/>
<image xlink:href="tile2_6.png" preserveAspectRatio="none" x="14003.173828" y="-3588.134766" width="2.197266" height="2.197266"/>
<image xlink:href="tile2_5.png" preserveAspectRatio="none" x="14003.173828" y="-3590.332031" width="2.197266" height="2.197266"/>
<image xlink:href="tile2_4.png" preserveAspectRatio="none" x="14003.173828" y="-3592.529297" width="2.197266" height="2.197266"/>
<image xlink:href="tile2_3.png" preserveAspectRatio="none" x="14003.173828" y="-3594.726562" width="2.197266" height="2.197266"/>
<image xlink:href="tile2_2.png" preserveAspectRatio="none" x="14003.173828" y="-3596.923828" width="2.197266" height="2.197266"/>
<image xlink:href="tile2_1.png" preserveAspectRatio="none" x="14003.173828" y="-3599.121094" width="2.197266" height="2.197266"/>
<image xlink:href="tile3_12.png" preserveAspectRatio="none" x="14005.371094" y="-3574.951172" width="2.197266" height="2.197266"/>
<image xlink:href="tile3_11.png" preserveAspectRatio="none" x="14005.371094" y="-3577.148438" width="2.197266" height="2.197266"/>
<image xlink:href="tile3_10.png" preserveAspectRatio="none" x="14005.371094" y="-3579.345703" width="2.197266" height="2.197266"/>
<image xlink:href="tile3_9.png" preserveAspectRatio="none" x="14005.371094" y="-3581.542969" width="2.197266" height="2.197266"/>
<image xlink:href="tile3_8.png" preserveAspectRatio="none" x="14005.371094" y="-3583.740234" width="2.197266" height="2.197266"/>
<image xlink:href="tile3_7.png" preserveAspectRatio="none" x="14005.371094" y="-3585.9375" width="2.197266" height="2.197266"/>
<image xlink:href="tile3_6.png" preserveAspectRatio="none" x="14005.371094" y="-3588.134766" width="2.197266" height="2.197266"/>
<image xlink:href="tile3_5.png" preserveAspectRatio="none" x="14005.371094" y="-3590.332031" width="2.197266" height="2.197266"/>
<image xlink:href="tile3_4.png" preserveAspectRatio="none" x="14005.371094" y="-3592.529297" width="2.197266" height="2.197266"/>
<image xlink:href="tile3_3.png" preserveAspectRatio="none" x="14005.371094" y="-3594.726562" width="2.197266" height="2.197266"/>
<image xlink:href="tile3_2.png" preserveAspectRatio="none" x="14005.371094" y="-3596.923828" width="2.197266" height="2.197266"/>
<image xlink:href="tile3_1.png" preserveAspectRatio="none" x="14005.371094" y="-3599.121094" width="2.197266" height="2.197266"/>
<image xlink:href="tile4_12.png" preserveAspectRatio="none" x="14007.568359" y="-3574.951172" width="2.197266" height="2.197266"/>
<image xlink:href="tile4_11.png" preserveAspectRatio="none" x="14007.568359" y="-3577.148438" width="2.197266" height="2.197266"/>
<image xlink:href="tile4_10.png" preserveAspectRatio="none" x="14007.568359" y="-3579.345703" width="2.197266" height="2.197266"/>
<image xlink:href="tile4_9.png" preserveAspectRatio="none" x="14007.568359" y="-3581.542969" width="2.197266" height="2.197266"/>
<image xlink:href="tile4_8.png" preserveAspectRatio="none" x="14007.568359" y="-3583.740234" width="2.197266" height="2.197266"/>
<image xlink:href="tile4_7.png" preserveAspectRatio="none" x="14007.568359" y="-3585.9375" width="2.197266" height="2.197266"/>
<image xlink:href="tile4_6.png" preserveAspectRatio="none" x="14007.568359" y="-3588.134766" width="2.197266" height="2.197266"/>
<image xlink:href="tile4_5.png" preserveAspectRatio="none" x="14007.568359" y="-3590.332031" width="2.197266" height="2.197266"/>
<image xlink:href="tile4_4.png" preserveAspectRatio="none" x="14007.568359" y="-3592.529297" width="2.197266" height="2.197266"/>
<image xlink:href="tile4_3.png" preserveAspectRatio="none" x="14007.568359" y="-3594.726562" width="2.197266" height="2.197266"/>
<image xlink:href="tile4_2.png" preserveAspectRatio="none" x="14007.568359" y="-3596.923828" width="2.197266" height="2.197266"/>
<image xlink:href="tile5_13.png" preserveAspectRatio="none" x="14009.765625" y="-3572.753906" width="2.197266" height="2.197266"/>
<image xlink:href="tile5_12.png" preserveAspectRatio="none" x="14009.765625" y="-3574.951172" width="2.197266" height="2.197266"/>
<image xlink:href="tile5_11.png" preserveAspectRatio="none" x="14009.765625" y="-3577.148438" width="2.197266" height="2.197266"/>
<image xlink:href="tile5_10.png" preserveAspectRatio="none" x="14009.765625" y="-3579.345703" width="2.197266" height="2.197266"/>
<image xlink:href="tile5_9.png" preserveAspectRatio="none" x="14009.765625" y="-3581.542969" width="2.197266" height="2.197266"/>
<image xlink:href="tile5_8.png" preserveAspectRatio="none" x="14009.765625" y="-3583.740234" width="2.197266" height="2.197266"/>
<image xlink:href="tile5_7.png" preserveAspectRatio="none" x="14009.765625" y="-3585.9375" width="2.197266" height="2.197266"/>
<image xlink:href="tile5_6.png" preserveAspectRatio="none" x="14009.765625" y="-3588.134766" width="2.197266" height="2.197266"/>
<image xlink:href="tile5_5.png" preserveAspectRatio="none" x="14009.765625" y="-3590.332031" width="2.197266" height="2.197266"/>
<image xlink:href="tile5_4.png" preserveAspectRatio="none" x="14009.765625" y="-3592.529297" width="2.197266" height="2.197266"/>
<image xlink:href="tile5_3.png" preserveAspectRatio="none" x="14009.765625" y="-3594.726562" width="2.197266" height="2.197266"/>
<image xlink:href="tile5_2.png" preserveAspectRatio="none" x="14009.765625" y="-3596.923828" width="2.197266" height="2.197266"/>
<image xlink:href="tile6_12.png" preserveAspectRatio="none" x="14011.962891" y="-3574.951172" width="2.197266" height="2.197266"/>
<image xlink:href="tile6_11.png" preserveAspectRatio="none" x="14011.962891" y="-3577.148438" width="2.197266" height="2.197266"/>
<image xlink:href="tile6_10.png" preserveAspectRatio="none" x="14011.962891" y="-3579.345703" width="2.197266" height="2.197266"/>
<image xlink:href="tile6_9.png" preserveAspectRatio="none" x="14011.962891" y="-3581.542969" width="2.197266" height="2.197266"/>
<image xlink:href="tile6_8.png" preserveAspectRatio="none" x="14011.962891" y="-3583.740234" width="2.197266" height="2.197266"/>
<image xlink:href="tile6_7.png" preserveAspectRatio="none" x="14011.962891" y="-3585.9375" width="2.197266" height="2.197266"/>
<image xlink:href="tile6_6.png" preserveAspectRatio="none" x="14011.962891" y="-3588.134766" width="2.197266" height="2.197266"/>
<image xlink:href="tile6_5.png" preserveAspectRatio="none" x="14011.962891" y="-3590.332031" width="2.197266" height="2.197266"/>
<image xlink:href="tile6_4.png" preserveAspectRatio="none" x="14011.962891" y="-3592.529297" width="2.197266" height="2.197266"/>
<image xlink:href="tile6_3.png" preserveAspectRatio="none" x="14011.962891" y="-3594.726562" width="2.197266" height="2.197266"/>
<image xlink:href="tile7_13.png" preserveAspectRatio="none" x="14014.160156" y="-3572.753906" width="2.197266" height="2.197266"/>
<image xlink:href="tile7_12.png" preserveAspectRatio="none" x="14014.160156" y="-3574.951172" width="2.197266" height="2.197266"/>
<image xlink:href="tile7_11.png" preserveAspectRatio="none" x="14014.160156" y="-3577.148438" width="2.197266" height="2.197266"/>
<image xlink:href="tile7_10.png" preserveAspectRatio="none" x="14014.160156" y="-3579.345703" width="2.197266" height="2.197266"/>
<image xlink:href="tile7_8.png" preserveAspectRatio="none" x="14014.160156" y="-3583.740234" width="2.197266" height="2.197266"/>
<image xlink:href="tile7_7.png" preserveAspectRatio="none" x="14014.160156" y="-3585.9375" width="2.197266" height="2.197266"/>
<image xlink:href="tile7_6.png" preserveAspectRatio="none" x="14014.160156" y="-3588.134766" width="2.197266" height="2.197266"/>
<image xlink:href="tile7_5.png" preserveAspectRatio="none" x="14014.160156" y="-3590.332031" width="2.197266" height="2.197266"/>
<image xlink:href="tile7_4.png" preserveAspectRatio="none" x="14014.160156" y="-3592.529297" width="2.197266" height="2.197266"/>
<image xlink:href="tile7_3.png" preserveAspectRatio="none" x="14014.160156" y="-3594.726562" width="2.197266" height="2.197266"/>
<image xlink:href="tile8_14.png" preserveAspectRatio="none" x="14016.357422" y="-3570.556641" width="2.197266" height="2.197266"/>
<image xlink:href="tile8_13.png" preserveAspectRatio="none" x="14016.357422" y="-3572.753906" width="2.197266" height="2.197266"/>
<image xlink:href="tile8_12.png" preserveAspectRatio="none" x="14016.357422" y="-3574.951172" width="2.197266" height="2.197266"/>
<image xlink:href="tile8_11.png" preserveAspectRatio="none" x="14016.357422" y="-3577.148438" width="2.197266" height="2.197266"/>
<image xlink:href="tile8_10.png" preserveAspectRatio="none" x="14016.357422" y="-3579.345703" width="2.197266" height="2.197266"/>
<image xlink:href="tile8_8.png" preserveAspectRatio="none" x="14016.357422" y="-3583.740234" width="2.197266" height="2.197266"/>
<image xlink:href="tile8_7.png" preserveAspectRatio="none" x="14016.357422" y="-3585.9375" width="2.197266" height="2.197266"/>
<image xlink:href="tile8_6.png" preserveAspectRatio="none" x="14016.357422" y="-3588.134766" width="2.197266" height="2.197266"/>
<image xlink:href="tile8_5.png" preserveAspectRatio="none" x="14016.357422" y="-3590.332031" width="2.197266" height="2.197266"/>
<image xlink:href="tile8_4.png" preserveAspectRatio="none" x="14016.357422" y="-3592.529297" width="2.197266" height="2.197266"/>
<image xlink:href="tile9_14.png" preserveAspectRatio="none" x="14018.554688" y="-3570.556641" width="2.197266" height="2.197266"/>
<image xlink:href="tile9_13.png" preserveAspectRatio="none" x="14018.554688" y="-3572.753906" width="2.197266" height="2.197266"/>
<image xlink:href="tile9_12.png" preserveAspectRatio="none" x="14018.554688" y="-3574.951172" width="2.197266" height="2.197266"/>
<image xlink:href="tile9_11.png" preserveAspectRatio="none" x="14018.554688" y="-3577.148438" width="2.197266" height="2.197266"/>
<image xlink:href="tile9_10.png" preserveAspectRatio="none" x="14018.554688" y="-3579.345703" width="2.197266" height="2.197266"/>
<image xlink:href="tile9_9.png" preserveAspectRatio="none" x="14018.554688" y="-3581.542969" width="2.197266" height="2.197266"/>
<image xlink:href="tile9_8.png" preserveAspectRatio="none" x="14018.554688" y="-3583.740234" width="2.197266" height="2.197266"/>
<image xlink:href="tile9_7.png" preserveAspectRatio="none" x="14018.554688" y="-3585.9375" width="2.197266" height="2.197266"/>
<image xlink:href="tile9_6.png" preserveAspectRatio="none" x="14018.554688" y="-3588.134766" width="2.197266" height="2.197266"/>
<image xlink:href="tile9_5.png" preserveAspectRatio="none" x="14018.554688" y="-3590.332031" width="2.197266" height="2.197266"/>
<image xlink:href="tile9_4.png" preserveAspectRatio="none" x="14018.554688" y="-3592.529297" width="2.197266" height="2.197266"/>
<image xlink:href="tile10_14.png" preserveAspectRatio="none" x="14020.751953" y="-3570.556641" width="2.197266" height="2.197266"/>
<image xlink:href="tile10_13.png" preserveAspectRatio="none" x="14020.751953" y="-3572.753906" width="2.197266" height="2.197266"/>
<image xlink:href="tile10_12.png" preserveAspectRatio="none" x="14020.751953" y="-3574.951172" width="2.197266" height="2.197266"/>
<image xlink:href="tile10_11.png" preserveAspectRatio="none" x="14020.751953" y="-3577.148438" width="2.197266" height="2.197266"/>
<image xlink:href="tile10_10.png" preserveAspectRatio="none" x="14020.751953" y="-3579.345703" width="2.197266" height="2.197266"/>
<image xlink:href="tile10_9.png" preserveAspectRatio="none" x="14020.751953" y="-3581.542969" width="2.197266" height="2.197266"/>
<image xlink:href="tile10_8.png" preserveAspectRatio="none" x="14020.751953" y="-3583.740234" width="2.197266" height="2.197266"/>
<image xlink:href="tile10_7.png" preserveAspectRatio="none" x="14020.751953" y="-3585.9375" width="2.197266" height="2.197266"/>
<image xlink:href="tile10_6.png" preserveAspectRatio="none" x="14020.751953" y="-3588.134766" width="2.197266" height="2.197266"/>
<image xlink:href="tile10_5.png" preserveAspectRatio="none" x="14020.751953" y="-3590.332031" width="2.197266" height="2.197266"/>
<image xlink:href="tile10_4.png" preserveAspectRatio="none" x="14020.751953" y="-3592.529297" width="2.197266" height="2.197266"/>
<image xlink:href="tile11_14.png" preserveAspectRatio="none" x="14022.949219" y="-3570.556641" width="2.197266" height="2.197266"/>
<image xlink:href="tile11_13.png" preserveAspectRatio="none" x="14022.949219" y="-3572.753906" width="2.197266" height="2.197266"/>
<image xlink:href="tile11_12.png" preserveAspectRatio="none" x="14022.949219" y="-3574.951172" width="2.197266" height="2.197266"/>
<image xlink:href="tile11_11.png" preserveAspectRatio="none" x="14022.949219" y="-3577.148438" width="2.197266" height="2.197266"/>
<image xlink:href="tile11_10.png" preserveAspectRatio="none" x="14022.949219" y="-3579.345703" width="2.197266" height="2.197266"/>
<image xlink:href="tile11_9.png" preserveAspectRatio="none" x="14022.949219" y="-3581.542969" width="2.197266" height="2.197266"/>
<image xlink:href="tile11_8.png" preserveAspectRatio="none" x="14022.949219" y="-3583.740234" width="2.197266" height="2.197266"/>
<image xlink:href="tile11_7.png" preserveAspectRatio="none" x="14022.949219" y="-3585.9375" width="2.197266" height="2.197266"/>
<image xlink:href="tile11_6.png" preserveAspectRatio="none" x="14022.949219" y="-3588.134766" width="2.197266" height="2.197266"/>
<image xlink:href="tile11_5.png" preserveAspectRatio="none" x="14022.949219" y="-3590.332031" width="2.197266" height="2.197266"/>
<image xlink:href="tile11_4.png" preserveAspectRatio="none" x="14022.949219" y="-3592.529297" width="2.197266" height="2.197266"/>
<image xlink:href="tile12_14.png" preserveAspectRatio="none" x="14025.146484" y="-3570.556641" width="2.197266" height="2.197266"/>
<image xlink:href="tile12_13.png" preserveAspectRatio="none" x="14025.146484" y="-3572.753906" width="2.197266" height="2.197266"/>
<image xlink:href="tile12_12.png" preserveAspectRatio="none" x="14025.146484" y="-3574.951172" width="2.197266" height="2.197266"/>
<image xlink:href="tile12_11.png" preserveAspectRatio="none" x="14025.146484" y="-3577.148438" width="2.197266" height="2.197266"/>
<image xlink:href="tile12_10.png" preserveAspectRatio="none" x="14025.146484" y="-3579.345703" width="2.197266" height="2.197266"/>
<image xlink:href="tile12_9.png" preserveAspectRatio="none" x="14025.146484" y="-3581.542969" width="2.197266" height="2.197266"/>
<image xlink:href="tile12_8.png" preserveAspectRatio="none" x="14025.146484" y="-3583.740234" width="2.197266" height="2.197266"/>
<image xlink:href="tile12_7.png" preserveAspectRatio="none" x="14025.146484" y="-3585.9375" width="2.197266" height="2.197266"/>
<image xlink:href="tile12_6.png" preserveAspectRatio="none" x="14025.146484" y="-3588.134766" width="2.197266" height="2.197266"/>
<image xlink:href="tile12_5.png" preserveAspectRatio="none" x="14025.146484" y="-3590.332031" width="2.197266" height="2.197266"/>
<image xlink:href="tile12_4.png" preserveAspectRatio="none" x="14025.146484" y="-3592.529297" width="2.197266" height="2.197266"/>
<image xlink:href="tile12_3.png" preserveAspectRatio="none" x="14025.146484" y="-3594.726562" width="2.197266" height="2.197266"/>
<image xlink:href="tile13_14.png" preserveAspectRatio="none" x="14027.34375" y="-3570.556641" width="2.197266" height="2.197266"/>
<image xlink:href="tile13_13.png" preserveAspectRatio="none" x="14027.34375" y="-3572.753906" width="2.197266" height="2.197266"/>
<image xlink:href="tile13_12.png" preserveAspectRatio="none" x="14027.34375" y="-3574.951172" width="2.197266" height="2.197266"/>
<image xlink:href="tile13_11.png" preserveAspectRatio="none" x="14027.34375" y="-3577.148438" width="2.197266" height="2.197266"/>
<image xlink:href="tile13_10.png" preserveAspectRatio="none" x="14027.34375" y="-3579.345703" width="2.197266" height="2.197266"/>
<image xlink:href="tile13_9.png" preserveAspectRatio="none" x="14027.34375" y="-3581.542969" width="2.197266" height="2.197266"/>
<image xlink:href="tile13_8.png" preserveAspectRatio="none" x="14027.34375" y="-3583.740234" width="2.197266" height="2.197266"/>
<image xlink:href="tile13_7.png" preserveAspectRatio="none" x="14027.34375" y="-3585.9375" width="2.197266" height="2.197266"/>
<image xlink:href="tile13_6.png" preserveAspectRatio="none" x="14027.34375" y="-3588.134766" width="2.197266" height="2.197266"/>
<image xlink:href="tile13_5.png" preserveAspectRatio="none" x="14027.34375" y="-3590.332031" width="2.197266" height="2.197266"/>
<image xlink:href="tile13_4.png" preserveAspectRatio="none" x="14027.34375" y="-3592.529297" width="2.197266" height="2.197266"/>
<image xlink:href="tile13_3.png" preserveAspectRatio="none" x="14027.34375" y="-3594.726562" width="2.197266" height="2.197266"/>
<image xlink:href="tile14_13.png" preserveAspectRatio="none" x="14029.541016" y="-3572.753906" width="2.197266" height="2.197266"/>
<image xlink:href="tile14_10.png" preserveAspectRatio="none" x="14029.541016" y="-3579.345703" width="2.197266" height="2.197266"/>
<image xlink:href="tile14_9.png" preserveAspectRatio="none" x="14029.541016" y="-3581.542969" width="2.197266" height="2.197266"/>
<image xlink:href="tile14_8.png" preserveAspectRatio="none" x="14029.541016" y="-3583.740234" width="2.197266" height="2.197266"/>
<image xlink:href="tile14_7.png" preserveAspectRatio="none" x="14029.541016" y="-3585.9375" width="2.197266" height="2.197266"/>
<image xlink:href="tile14_6.png" preserveAspectRatio="none" x="14029.541016" y="-3588.134766" width="2.197266" height="2.197266"/>
<image xlink:href="tile14_5.png" preserveAspectRatio="none" x="14029.541016" y="-3590.332031" width="2.197266" height="2.197266"/>
<image xlink:href="tile14_4.png" preserveAspectRatio="none" x="14029.541016" y="-3592.529297" width="2.197266" height="2.197266"/>
<image xlink:href="tile14_3.png" preserveAspectRatio="none" x="14029.541016" y="-3594.726562" width="2.197266" height="2.197266"/>
<image xlink:href="tile14_2.png" preserveAspectRatio="none" x="14029.541016" y="-3596.923828" width="2.197266" height="2.197266"/>
<image xlink:href="tile14_0.png" preserveAspectRatio="none" x="14029.541016" y="-3601.318359" width="2.197266" height="2.197266"/>
<image xlink:href="tile15_11.png" preserveAspectRatio="none" x="14031.738281" y="-3577.148438" width="2.197266" height="2.197266"/>
<image xlink:href="tile15_10.png" preserveAspectRatio="none" x="14031.738281" y="-3579.345703" width="2.197266" height="2.197266"/>
<image xlink:href="tile15_9.png" preserveAspectRatio="none" x="14031.738281" y="-3581.542969" width="2.197266" height="2.197266"/>
<image xlink:href="tile15_8.png" preserveAspectRatio="none" x="14031.738281" y="-3583.740234" width="2.197266" height="2.197266"/>
<image xlink:href="tile15_7.png" preserveAspectRatio="none" x="14031.738281" y="-3585.9375" width="2.197266" height="2.197266"/>
<image xlink:href="tile15_6.png" preserveAspectRatio="none" x="14031.738281" y="-3588.134766" width="2.197266" height="2.197266"/>
<image xlink:href="tile15_5.png" preserveAspectRatio="none" x="14031.738281" y="-3590.332031" width="2.197266" height="2.197266"/>
<image xlink:href="tile15_4.png" preserveAspectRatio="none" x="14031.738281" y="-3592.529297" width="2.197266" height="2.197266"/>
<image xlink:href="tile15_3.png" preserveAspectRatio="none" x="14031.738281" y="-3594.726562" width="2.197266" height="2.197266"/>
<image xlink:href="tile15_2.png" preserveAspectRatio="none" x="14031.738281" y="-3596.923828" width="2.197266" height="2.197266"/>
<image xlink:href="tile15_1.png" preserveAspectRatio="none" x="14031.738281" y="-3599.121094" width="2.197266" height="2.197266"/>
<image xlink:href="tile15_0.png" preserveAspectRatio="none" x="14031.738281" y="-3601.318359" width="2.197266" height="2.197266"/>
</g>
</svg>
