<?xml version="1.0" encoding="UTF-8"?>
<svg  xmlns="http://www.w3.org/2000/svg" xmlns:xlink="http://www.w3.org/1999/xlink" xmlns:go="http://purl.org/svgmap/profile" viewBox="14000.0 -3600.0 84.0695629999999 66.66666699999979" go:dataArea="14000.0 -3600.0 84.0695629999999 66.66666699999979" >
<metadata>
 <rdf:RDF xmlns:rdf="http://www.w3.org/1999/02/22-rdf-syntax-ns#" xmlns:crs="http://opengis.org/xmldtds/transformations.dtd" xmlns:svg="http://www.w3.org/svg" >
  <rdf:Description>
   <crs:CoordinateReferenceSystem rdf:resource="http://purl.org/crs/84" svg:transform="matrix(100.0,0.0,0.0,-100.0,0.0,0.0)" />
  </rdf:Description>
 </rdf:RDF>
</metadata>
<globalCoordinateSystem srsName="http://purl.org/crs/84" transform="matrix(100.0,0.0,0.0,-100.0,0.0,0.0)" />
<g >
<image xlink:href="tile32_9.png" preserveAspectRatio="none" x="14069.091797" y="-3581.542969" width="2.197266" height="2.197266"/>
<image xlink:href="tile32_8.png" preserveAspectRatio="none" x="14069.091797" y="-3583.740234" width="2.197266" height="2.197266"/>
<image xlink:href="tile32_7.png" preserveAspectRatio="none" x="14069.091797" y="-3585.9375" width="2.197266" height="2.197266"/>
<image xlink:href="tile32_6.png" preserveAspectRatio="none" x="14069.091797" y="-3588.134766" width="2.197266" height="2.197266"/>
<image xlink:href="tile33_10.png" preserveAspectRatio="none" x="14071.289062" y="-3579.345703" width="2.197266" height="2.197266"/>
<image xlink:href="tile33_9.png" preserveAspectRatio="none" x="14071.289062" y="-3581.542969" width="2.197266" height="2.197266"/>
<image xlink:href="tile33_8.png" preserveAspectRatio="none" x="14071.289062" y="-3583.740234" width="2.197266" height="2.197266"/>
<image xlink:href="tile33_7.png" preserveAspectRatio="none" x="14071.289062" y="-3585.9375" width="2.197266" height="2.197266"/>
<image xlink:href="tile34_11.png" preserveAspectRatio="none" x="14073.486328" y="-3577.148438" width="2.197266" height="2.197266"/>
<image xlink:href="tile34_10.png" preserveAspectRatio="none" x="14073.486328" y="-3579.345703" width="2.197266" height="2.197266"/>
<image xlink:href="tile34_9.png" preserveAspectRatio="none" x="14073.486328" y="-3581.542969" width="2.197266" height="2.197266"/>
<image xlink:href="tile35_11.png" preserveAspectRatio="none" x="14075.683594" y="-3577.148438" width="2.197266" height="2.197266"/>
<image xlink:href="tile35_10.png" preserveAspectRatio="none" x="14075.683594" y="-3579.345703" width="2.197266" height="2.197266"/>
<image xlink:href="tile36_12.png" preserveAspectRatio="none" x="14077.880859" y="-3574.951172" width="2.197266" height="2.197266"/>
<image xlink:href="tile36_11.png" preserveAspectRatio="none" x="14077.880859" y="-3577.148438" width="2.197266" height="2.197266"/>
<image xlink:href="tile36_10.png" preserveAspectRatio="none" x="14077.880859" y="-3579.345703" width="2.197266" height="2.197266"/>
<image xlink:href="tile37_12.png" preserveAspectRatio="none" x="14080.078125" y="-3574.951172" width="2.197266" height="2.197266"/>
<image xlink:href="tile37_11.png" preserveAspectRatio="none" x="14080.078125" y="-3577.148438" width="2.197266" height="2.197266"/>
<image xlink:href="tile38_12.png" preserveAspectRatio="none" x="14082.275391" y="-3574.951172" width="2.197266" height="2.197266"/>
</g>
</svg>
