<?xml version="1.0" encoding="UTF-8"?>
<svg  xmlns="http://www.w3.org/2000/svg" xmlns:xlink="http://www.w3.org/1999/xlink" xmlns:go="http://purl.org/svgmap/profile" viewBox="14000.0 -3933.3333334000004 100.0 66.66666640000045" go:dataArea="14000.0 -3933.3333334000004 100.0 66.66666640000045" >
<metadata>
 <rdf:RDF xmlns:rdf="http://www.w3.org/1999/02/22-rdf-syntax-ns#" xmlns:crs="http://opengis.org/xmldtds/transformations.dtd" xmlns:svg="http://www.w3.org/svg" >
  <rdf:Description>
   <crs:CoordinateReferenceSystem rdf:resource="http://purl.org/crs/84" svg:transform="matrix(100.0,0.0,0.0,-100.0,0.0,0.0)" />
  </rdf:Description>
 </rdf:RDF>
</metadata>
<globalCoordinateSystem srsName="http://purl.org/crs/84" transform="matrix(100.0,0.0,0.0,-100.0,0.0,0.0)" />
<g >
<image xlink:href="tile0_16.png" preserveAspectRatio="none" x="13996.582031" y="-3867.1875" width="4.394531" height="4.394531"/>
<image xlink:href="tile0_15.png" preserveAspectRatio="none" x="13996.582031" y="-3871.582031" width="4.394531" height="4.394531"/>
<image xlink:href="tile0_14.png" preserveAspectRatio="none" x="13996.582031" y="-3875.976562" width="4.394531" height="4.394531"/>
<image xlink:href="tile0_13.png" preserveAspectRatio="none" x="13996.582031" y="-3880.371094" width="4.394531" height="4.394531"/>
<image xlink:href="tile0_12.png" preserveAspectRatio="none" x="13996.582031" y="-3884.765625" width="4.394531" height="4.394531"/>
<image xlink:href="tile0_11.png" preserveAspectRatio="none" x="13996.582031" y="-3889.160156" width="4.394531" height="4.394531"/>
<image xlink:href="tile0_10.png" preserveAspectRatio="none" x="13996.582031" y="-3893.554688" width="4.394531" height="4.394531"/>
<image xlink:href="tile0_9.png" preserveAspectRatio="none" x="13996.582031" y="-3897.949219" width="4.394531" height="4.394531"/>
<image xlink:href="tile0_8.png" preserveAspectRatio="none" x="13996.582031" y="-3902.34375" width="4.394531" height="4.394531"/>
<image xlink:href="tile1_15.png" preserveAspectRatio="none" x="14000.976562" y="-3871.582031" width="4.394531" height="4.394531"/>
<image xlink:href="tile1_14.png" preserveAspectRatio="none" x="14000.976562" y="-3875.976562" width="4.394531" height="4.394531"/>
<image xlink:href="tile1_13.png" preserveAspectRatio="none" x="14000.976562" y="-3880.371094" width="4.394531" height="4.394531"/>
<image xlink:href="tile1_12.png" preserveAspectRatio="none" x="14000.976562" y="-3884.765625" width="4.394531" height="4.394531"/>
<image xlink:href="tile1_11.png" preserveAspectRatio="none" x="14000.976562" y="-3889.160156" width="4.394531" height="4.394531"/>
<image xlink:href="tile1_10.png" preserveAspectRatio="none" x="14000.976562" y="-3893.554688" width="4.394531" height="4.394531"/>
<image xlink:href="tile1_9.png" preserveAspectRatio="none" x="14000.976562" y="-3897.949219" width="4.394531" height="4.394531"/>
<image xlink:href="tile1_8.png" preserveAspectRatio="none" x="14000.976562" y="-3902.34375" width="4.394531" height="4.394531"/>
<image xlink:href="tile2_14.png" preserveAspectRatio="none" x="14005.371094" y="-3875.976562" width="4.394531" height="4.394531"/>
<image xlink:href="tile2_13.png" preserveAspectRatio="none" x="14005.371094" y="-3880.371094" width="4.394531" height="4.394531"/>
<image xlink:href="tile2_1.png" preserveAspectRatio="none" x="14005.371094" y="-3933.105469" width="4.394531" height="4.394531"/>
<image xlink:href="tile3_15.png" preserveAspectRatio="none" x="14009.765625" y="-3871.582031" width="4.394531" height="4.394531"/>
<image xlink:href="tile3_14.png" preserveAspectRatio="none" x="14009.765625" y="-3875.976562" width="4.394531" height="4.394531"/>
<image xlink:href="tile3_2.png" preserveAspectRatio="none" x="14009.765625" y="-3928.710938" width="4.394531" height="4.394531"/>
<image xlink:href="tile3_1.png" preserveAspectRatio="none" x="14009.765625" y="-3933.105469" width="4.394531" height="4.394531"/>
<image xlink:href="tile4_16.png" preserveAspectRatio="none" x="14014.160156" y="-3867.1875" width="4.394531" height="4.394531"/>
<image xlink:href="tile4_15.png" preserveAspectRatio="none" x="14014.160156" y="-3871.582031" width="4.394531" height="4.394531"/>
<image xlink:href="tile4_14.png" preserveAspectRatio="none" x="14014.160156" y="-3875.976562" width="4.394531" height="4.394531"/>
<image xlink:href="tile4_9.png" preserveAspectRatio="none" x="14014.160156" y="-3897.949219" width="4.394531" height="4.394531"/>
<image xlink:href="tile5_15.png" preserveAspectRatio="none" x="14018.554688" y="-3871.582031" width="4.394531" height="4.394531"/>
<image xlink:href="tile5_14.png" preserveAspectRatio="none" x="14018.554688" y="-3875.976562" width="4.394531" height="4.394531"/>
<image xlink:href="tile5_13.png" preserveAspectRatio="none" x="14018.554688" y="-3880.371094" width="4.394531" height="4.394531"/>
<image xlink:href="tile5_12.png" preserveAspectRatio="none" x="14018.554688" y="-3884.765625" width="4.394531" height="4.394531"/>
<image xlink:href="tile5_11.png" preserveAspectRatio="none" x="14018.554688" y="-3889.160156" width="4.394531" height="4.394531"/>
<image xlink:href="tile5_10.png" preserveAspectRatio="none" x="14018.554688" y="-3893.554688" width="4.394531" height="4.394531"/>
<image xlink:href="tile5_9.png" preserveAspectRatio="none" x="14018.554688" y="-3897.949219" width="4.394531" height="4.394531"/>
<image xlink:href="tile6_16.png" preserveAspectRatio="none" x="14022.949219" y="-3867.1875" width="4.394531" height="4.394531"/>
<image xlink:href="tile6_15.png" preserveAspectRatio="none" x="14022.949219" y="-3871.582031" width="4.394531" height="4.394531"/>
<image xlink:href="tile6_14.png" preserveAspectRatio="none" x="14022.949219" y="-3875.976562" width="4.394531" height="4.394531"/>
<image xlink:href="tile6_12.png" preserveAspectRatio="none" x="14022.949219" y="-3884.765625" width="4.394531" height="4.394531"/>
<image xlink:href="tile6_11.png" preserveAspectRatio="none" x="14022.949219" y="-3889.160156" width="4.394531" height="4.394531"/>
<image xlink:href="tile6_10.png" preserveAspectRatio="none" x="14022.949219" y="-3893.554688" width="4.394531" height="4.394531"/>
<image xlink:href="tile6_9.png" preserveAspectRatio="none" x="14022.949219" y="-3897.949219" width="4.394531" height="4.394531"/>
<image xlink:href="tile7_16.png" preserveAspectRatio="none" x="14027.34375" y="-3867.1875" width="4.394531" height="4.394531"/>
<image xlink:href="tile7_15.png" preserveAspectRatio="none" x="14027.34375" y="-3871.582031" width="4.394531" height="4.394531"/>
<image xlink:href="tile7_14.png" preserveAspectRatio="none" x="14027.34375" y="-3875.976562" width="4.394531" height="4.394531"/>
<image xlink:href="tile7_13.png" preserveAspectRatio="none" x="14027.34375" y="-3880.371094" width="4.394531" height="4.394531"/>
<image xlink:href="tile7_12.png" preserveAspectRatio="none" x="14027.34375" y="-3884.765625" width="4.394531" height="4.394531"/>
<image xlink:href="tile7_11.png" preserveAspectRatio="none" x="14027.34375" y="-3889.160156" width="4.394531" height="4.394531"/>
<image xlink:href="tile7_9.png" preserveAspectRatio="none" x="14027.34375" y="-3897.949219" width="4.394531" height="4.394531"/>
<image xlink:href="tile8_16.png" preserveAspectRatio="none" x="14031.738281" y="-3867.1875" width="4.394531" height="4.394531"/>
<image xlink:href="tile8_15.png" preserveAspectRatio="none" x="14031.738281" y="-3871.582031" width="4.394531" height="4.394531"/>
<image xlink:href="tile8_13.png" preserveAspectRatio="none" x="14031.738281" y="-3880.371094" width="4.394531" height="4.394531"/>
<image xlink:href="tile8_12.png" preserveAspectRatio="none" x="14031.738281" y="-3884.765625" width="4.394531" height="4.394531"/>
<image xlink:href="tile8_11.png" preserveAspectRatio="none" x="14031.738281" y="-3889.160156" width="4.394531" height="4.394531"/>
<image xlink:href="tile8_10.png" preserveAspectRatio="none" x="14031.738281" y="-3893.554688" width="4.394531" height="4.394531"/>
<image xlink:href="tile9_16.png" preserveAspectRatio="none" x="14036.132812" y="-3867.1875" width="4.394531" height="4.394531"/>
<image xlink:href="tile9_15.png" preserveAspectRatio="none" x="14036.132812" y="-3871.582031" width="4.394531" height="4.394531"/>
<image xlink:href="tile9_14.png" preserveAspectRatio="none" x="14036.132812" y="-3875.976562" width="4.394531" height="4.394531"/>
<image xlink:href="tile9_13.png" preserveAspectRatio="none" x="14036.132812" y="-3880.371094" width="4.394531" height="4.394531"/>
<image xlink:href="tile9_12.png" preserveAspectRatio="none" x="14036.132812" y="-3884.765625" width="4.394531" height="4.394531"/>
<image xlink:href="tile9_11.png" preserveAspectRatio="none" x="14036.132812" y="-3889.160156" width="4.394531" height="4.394531"/>
<image xlink:href="tile9_3.png" preserveAspectRatio="none" x="14036.132812" y="-3924.316406" width="4.394531" height="4.394531"/>
<image xlink:href="tile9_2.png" preserveAspectRatio="none" x="14036.132812" y="-3928.710938" width="4.394531" height="4.394531"/>
<image xlink:href="tile9_1.png" preserveAspectRatio="none" x="14036.132812" y="-3933.105469" width="4.394531" height="4.394531"/>
<image xlink:href="tile10_16.png" preserveAspectRatio="none" x="14040.527344" y="-3867.1875" width="4.394531" height="4.394531"/>
<image xlink:href="tile10_14.png" preserveAspectRatio="none" x="14040.527344" y="-3875.976562" width="4.394531" height="4.394531"/>
<image xlink:href="tile10_13.png" preserveAspectRatio="none" x="14040.527344" y="-3880.371094" width="4.394531" height="4.394531"/>
<image xlink:href="tile10_11.png" preserveAspectRatio="none" x="14040.527344" y="-3889.160156" width="4.394531" height="4.394531"/>
<image xlink:href="tile10_7.png" preserveAspectRatio="none" x="14040.527344" y="-3906.738281" width="4.394531" height="4.394531"/>
<image xlink:href="tile10_6.png" preserveAspectRatio="none" x="14040.527344" y="-3911.132812" width="4.394531" height="4.394531"/>
<image xlink:href="tile10_4.png" preserveAspectRatio="none" x="14040.527344" y="-3919.921875" width="4.394531" height="4.394531"/>
<image xlink:href="tile10_3.png" preserveAspectRatio="none" x="14040.527344" y="-3924.316406" width="4.394531" height="4.394531"/>
<image xlink:href="tile10_2.png" preserveAspectRatio="none" x="14040.527344" y="-3928.710938" width="4.394531" height="4.394531"/>
<image xlink:href="tile10_1.png" preserveAspectRatio="none" x="14040.527344" y="-3933.105469" width="4.394531" height="4.394531"/>
<image xlink:href="tile11_14.png" preserveAspectRatio="none" x="14044.921875" y="-3875.976562" width="4.394531" height="4.394531"/>
<image xlink:href="tile11_13.png" preserveAspectRatio="none" x="14044.921875" y="-3880.371094" width="4.394531" height="4.394531"/>
<image xlink:href="tile11_8.png" preserveAspectRatio="none" x="14044.921875" y="-3902.34375" width="4.394531" height="4.394531"/>
<image xlink:href="tile11_7.png" preserveAspectRatio="none" x="14044.921875" y="-3906.738281" width="4.394531" height="4.394531"/>
<image xlink:href="tile11_6.png" preserveAspectRatio="none" x="14044.921875" y="-3911.132812" width="4.394531" height="4.394531"/>
<image xlink:href="tile11_5.png" preserveAspectRatio="none" x="14044.921875" y="-3915.527344" width="4.394531" height="4.394531"/>
<image xlink:href="tile11_4.png" preserveAspectRatio="none" x="14044.921875" y="-3919.921875" width="4.394531" height="4.394531"/>
<image xlink:href="tile11_3.png" preserveAspectRatio="none" x="14044.921875" y="-3924.316406" width="4.394531" height="4.394531"/>
<image xlink:href="tile11_2.png" preserveAspectRatio="none" x="14044.921875" y="-3928.710938" width="4.394531" height="4.394531"/>
<image xlink:href="tile11_1.png" preserveAspectRatio="none" x="14044.921875" y="-3933.105469" width="4.394531" height="4.394531"/>
<image xlink:href="tile12_14.png" preserveAspectRatio="none" x="14049.316406" y="-3875.976562" width="4.394531" height="4.394531"/>
<image xlink:href="tile12_4.png" preserveAspectRatio="none" x="14049.316406" y="-3919.921875" width="4.394531" height="4.394531"/>
<image xlink:href="tile12_3.png" preserveAspectRatio="none" x="14049.316406" y="-3924.316406" width="4.394531" height="4.394531"/>
<image xlink:href="tile12_2.png" preserveAspectRatio="none" x="14049.316406" y="-3928.710938" width="4.394531" height="4.394531"/>
<image xlink:href="tile12_1.png" preserveAspectRatio="none" x="14049.316406" y="-3933.105469" width="4.394531" height="4.394531"/>
<image xlink:href="tile13_15.png" preserveAspectRatio="none" x="14053.710938" y="-3871.582031" width="4.394531" height="4.394531"/>
<image xlink:href="tile13_14.png" preserveAspectRatio="none" x="14053.710938" y="-3875.976562" width="4.394531" height="4.394531"/>
<image xlink:href="tile13_4.png" preserveAspectRatio="none" x="14053.710938" y="-3919.921875" width="4.394531" height="4.394531"/>
<image xlink:href="tile13_3.png" preserveAspectRatio="none" x="14053.710938" y="-3924.316406" width="4.394531" height="4.394531"/>
<image xlink:href="tile13_1.png" preserveAspectRatio="none" x="14053.710938" y="-3933.105469" width="4.394531" height="4.394531"/>
<image xlink:href="tile14_1.png" preserveAspectRatio="none" x="14058.105469" y="-3933.105469" width="4.394531" height="4.394531"/>
</g>
</svg>
