<?xml version="1.0" encoding="UTF-8"?>
<svg  xmlns="http://www.w3.org/2000/svg" xmlns:xlink="http://www.w3.org/1999/xlink" xmlns:go="http://purl.org/svgmap/profile" viewBox="14200.0 -4400.0 79.75000000000136 66.66666699999979" go:dataArea="14200.0 -4400.0 79.75000000000136 66.66666699999979" >
<metadata>
 <rdf:RDF xmlns:rdf="http://www.w3.org/1999/02/22-rdf-syntax-ns#" xmlns:crs="http://opengis.org/xmldtds/transformations.dtd" xmlns:svg="http://www.w3.org/svg" >
  <rdf:Description>
   <crs:CoordinateReferenceSystem rdf:resource="http://purl.org/crs/84" svg:transform="matrix(100.0,0.0,0.0,-100.0,0.0,0.0)" />
  </rdf:Description>
 </rdf:RDF>
</metadata>
<globalCoordinateSystem srsName="http://purl.org/crs/84" transform="matrix(100.0,0.0,0.0,-100.0,0.0,0.0)" />
<g >
<image xlink:href="tile0_23.png" preserveAspectRatio="none" x="14198.730469" y="-4350.585938" width="2.197266" height="2.197266"/>
<image xlink:href="tile0_20.png" preserveAspectRatio="none" x="14198.730469" y="-4357.177734" width="2.197266" height="2.197266"/>
<image xlink:href="tile0_19.png" preserveAspectRatio="none" x="14198.730469" y="-4359.375" width="2.197266" height="2.197266"/>
<image xlink:href="tile0_15.png" preserveAspectRatio="none" x="14198.730469" y="-4368.164062" width="2.197266" height="2.197266"/>
<image xlink:href="tile1_23.png" preserveAspectRatio="none" x="14200.927734" y="-4350.585938" width="2.197266" height="2.197266"/>
<image xlink:href="tile1_22.png" preserveAspectRatio="none" x="14200.927734" y="-4352.783203" width="2.197266" height="2.197266"/>
<image xlink:href="tile1_20.png" preserveAspectRatio="none" x="14200.927734" y="-4357.177734" width="2.197266" height="2.197266"/>
<image xlink:href="tile1_19.png" preserveAspectRatio="none" x="14200.927734" y="-4359.375" width="2.197266" height="2.197266"/>
<image xlink:href="tile1_15.png" preserveAspectRatio="none" x="14200.927734" y="-4368.164062" width="2.197266" height="2.197266"/>
<image xlink:href="tile2_22.png" preserveAspectRatio="none" x="14203.125" y="-4352.783203" width="2.197266" height="2.197266"/>
<image xlink:href="tile2_20.png" preserveAspectRatio="none" x="14203.125" y="-4357.177734" width="2.197266" height="2.197266"/>
<image xlink:href="tile2_19.png" preserveAspectRatio="none" x="14203.125" y="-4359.375" width="2.197266" height="2.197266"/>
<image xlink:href="tile2_15.png" preserveAspectRatio="none" x="14203.125" y="-4368.164062" width="2.197266" height="2.197266"/>
<image xlink:href="tile3_22.png" preserveAspectRatio="none" x="14205.322266" y="-4352.783203" width="2.197266" height="2.197266"/>
<image xlink:href="tile3_21.png" preserveAspectRatio="none" x="14205.322266" y="-4354.980469" width="2.197266" height="2.197266"/>
<image xlink:href="tile3_20.png" preserveAspectRatio="none" x="14205.322266" y="-4357.177734" width="2.197266" height="2.197266"/>
<image xlink:href="tile4_21.png" preserveAspectRatio="none" x="14207.519531" y="-4354.980469" width="2.197266" height="2.197266"/>
<image xlink:href="tile4_20.png" preserveAspectRatio="none" x="14207.519531" y="-4357.177734" width="2.197266" height="2.197266"/>
<image xlink:href="tile5_21.png" preserveAspectRatio="none" x="14209.716797" y="-4354.980469" width="2.197266" height="2.197266"/>
<image xlink:href="tile6_21.png" preserveAspectRatio="none" x="14211.914062" y="-4354.980469" width="2.197266" height="2.197266"/>
<image xlink:href="tile7_21.png" preserveAspectRatio="none" x="14214.111328" y="-4354.980469" width="2.197266" height="2.197266"/>
<image xlink:href="tile7_20.png" preserveAspectRatio="none" x="14214.111328" y="-4357.177734" width="2.197266" height="2.197266"/>
</g>
</svg>
