<?xml version="1.0" encoding="UTF-8"?>
<svg  xmlns="http://www.w3.org/2000/svg" xmlns:xlink="http://www.w3.org/1999/xlink" xmlns:go="http://purl.org/svgmap/profile" viewBox="14000.0 -3666.666667 52.68875010000045 66.66666699999979" go:dataArea="14000.0 -3666.666667 52.68875010000045 66.66666699999979" >
<metadata>
 <rdf:RDF xmlns:rdf="http://www.w3.org/1999/02/22-rdf-syntax-ns#" xmlns:crs="http://opengis.org/xmldtds/transformations.dtd" xmlns:svg="http://www.w3.org/svg" >
  <rdf:Description>
   <crs:CoordinateReferenceSystem rdf:resource="http://purl.org/crs/84" svg:transform="matrix(100.0,0.0,0.0,-100.0,0.0,0.0)" />
  </rdf:Description>
 </rdf:RDF>
</metadata>
<globalCoordinateSystem srsName="http://purl.org/crs/84" transform="matrix(100.0,0.0,0.0,-100.0,0.0,0.0)" />
<g >
<image xlink:href="tile16_13.png" preserveAspectRatio="none" x="14033.935547" y="-3638.671875" width="2.197266" height="2.197266"/>
<image xlink:href="tile16_12.png" preserveAspectRatio="none" x="14033.935547" y="-3640.869141" width="2.197266" height="2.197266"/>
<image xlink:href="tile16_10.png" preserveAspectRatio="none" x="14033.935547" y="-3645.263672" width="2.197266" height="2.197266"/>
<image xlink:href="tile17_14.png" preserveAspectRatio="none" x="14036.132812" y="-3636.474609" width="2.197266" height="2.197266"/>
<image xlink:href="tile17_13.png" preserveAspectRatio="none" x="14036.132812" y="-3638.671875" width="2.197266" height="2.197266"/>
<image xlink:href="tile17_12.png" preserveAspectRatio="none" x="14036.132812" y="-3640.869141" width="2.197266" height="2.197266"/>
<image xlink:href="tile17_10.png" preserveAspectRatio="none" x="14036.132812" y="-3645.263672" width="2.197266" height="2.197266"/>
<image xlink:href="tile17_9.png" preserveAspectRatio="none" x="14036.132812" y="-3647.460938" width="2.197266" height="2.197266"/>
<image xlink:href="tile18_14.png" preserveAspectRatio="none" x="14038.330078" y="-3636.474609" width="2.197266" height="2.197266"/>
<image xlink:href="tile18_13.png" preserveAspectRatio="none" x="14038.330078" y="-3638.671875" width="2.197266" height="2.197266"/>
<image xlink:href="tile18_10.png" preserveAspectRatio="none" x="14038.330078" y="-3645.263672" width="2.197266" height="2.197266"/>
<image xlink:href="tile19_13.png" preserveAspectRatio="none" x="14040.527344" y="-3638.671875" width="2.197266" height="2.197266"/>
<image xlink:href="tile19_10.png" preserveAspectRatio="none" x="14040.527344" y="-3645.263672" width="2.197266" height="2.197266"/>
<image xlink:href="tile20_14.png" preserveAspectRatio="none" x="14042.724609" y="-3636.474609" width="2.197266" height="2.197266"/>
<image xlink:href="tile20_13.png" preserveAspectRatio="none" x="14042.724609" y="-3638.671875" width="2.197266" height="2.197266"/>
<image xlink:href="tile21_14.png" preserveAspectRatio="none" x="14044.921875" y="-3636.474609" width="2.197266" height="2.197266"/>
<image xlink:href="tile21_13.png" preserveAspectRatio="none" x="14044.921875" y="-3638.671875" width="2.197266" height="2.197266"/>
<image xlink:href="tile22_14.png" preserveAspectRatio="none" x="14047.119141" y="-3636.474609" width="2.197266" height="2.197266"/>
<image xlink:href="tile22_13.png" preserveAspectRatio="none" x="14047.119141" y="-3638.671875" width="2.197266" height="2.197266"/>
<image xlink:href="tile22_6.png" preserveAspectRatio="none" x="14047.119141" y="-3654.052734" width="2.197266" height="2.197266"/>
<image xlink:href="tile22_5.png" preserveAspectRatio="none" x="14047.119141" y="-3656.25" width="2.197266" height="2.197266"/>
<image xlink:href="tile22_4.png" preserveAspectRatio="none" x="14047.119141" y="-3658.447266" width="2.197266" height="2.197266"/>
<image xlink:href="tile22_3.png" preserveAspectRatio="none" x="14047.119141" y="-3660.644531" width="2.197266" height="2.197266"/>
<image xlink:href="tile22_2.png" preserveAspectRatio="none" x="14047.119141" y="-3662.841797" width="2.197266" height="2.197266"/>
<image xlink:href="tile22_1.png" preserveAspectRatio="none" x="14047.119141" y="-3665.039062" width="2.197266" height="2.197266"/>
<image xlink:href="tile22_0.png" preserveAspectRatio="none" x="14047.119141" y="-3667.236328" width="2.197266" height="2.197266"/>
<image xlink:href="tile23_14.png" preserveAspectRatio="none" x="14049.316406" y="-3636.474609" width="2.197266" height="2.197266"/>
<image xlink:href="tile23_13.png" preserveAspectRatio="none" x="14049.316406" y="-3638.671875" width="2.197266" height="2.197266"/>
<image xlink:href="tile23_4.png" preserveAspectRatio="none" x="14049.316406" y="-3658.447266" width="2.197266" height="2.197266"/>
<image xlink:href="tile24_14.png" preserveAspectRatio="none" x="14051.513672" y="-3636.474609" width="2.197266" height="2.197266"/>
<image xlink:href="tile24_13.png" preserveAspectRatio="none" x="14051.513672" y="-3638.671875" width="2.197266" height="2.197266"/>
</g>
</svg>
