<?xml version="1.0" encoding="UTF-8"?>
<svg  xmlns="http://www.w3.org/2000/svg" xmlns:xlink="http://www.w3.org/1999/xlink" xmlns:go="http://purl.org/svgmap/profile" viewBox="13930.3762157 -3852.3329638 37.03155439999932 52.33296379999999" go:dataArea="13930.3762157 -3852.3329638 37.03155439999932 52.33296379999999" >
<metadata>
 <rdf:RDF xmlns:rdf="http://www.w3.org/1999/02/22-rdf-syntax-ns#" xmlns:crs="http://opengis.org/xmldtds/transformations.dtd" xmlns:svg="http://www.w3.org/svg" >
  <rdf:Description>
   <crs:CoordinateReferenceSystem rdf:resource="http://purl.org/crs/84" svg:transform="matrix(100.0,0.0,0.0,-100.0,0.0,0.0)" />
  </rdf:Description>
 </rdf:RDF>
</metadata>
<globalCoordinateSystem srsName="http://purl.org/crs/84" transform="matrix(100.0,0.0,0.0,-100.0,0.0,0.0)" />
<g >
<image xlink:href="tile16_32.png" preserveAspectRatio="none" x="13947.143555" y="-3817.749023" width="1.098633" height="1.098633"/>
<image xlink:href="tile16_31.png" preserveAspectRatio="none" x="13947.143555" y="-3818.847656" width="1.098633" height="1.098633"/>
<image xlink:href="tile16_30.png" preserveAspectRatio="none" x="13947.143555" y="-3819.946289" width="1.098633" height="1.098633"/>
<image xlink:href="tile16_29.png" preserveAspectRatio="none" x="13947.143555" y="-3821.044922" width="1.098633" height="1.098633"/>
<image xlink:href="tile17_32.png" preserveAspectRatio="none" x="13948.242188" y="-3817.749023" width="1.098633" height="1.098633"/>
<image xlink:href="tile17_31.png" preserveAspectRatio="none" x="13948.242188" y="-3818.847656" width="1.098633" height="1.098633"/>
<image xlink:href="tile17_30.png" preserveAspectRatio="none" x="13948.242188" y="-3819.946289" width="1.098633" height="1.098633"/>
<image xlink:href="tile17_27.png" preserveAspectRatio="none" x="13948.242188" y="-3823.242188" width="1.098633" height="1.098633"/>
<image xlink:href="tile17_26.png" preserveAspectRatio="none" x="13948.242188" y="-3824.34082" width="1.098633" height="1.098633"/>
<image xlink:href="tile17_25.png" preserveAspectRatio="none" x="13948.242188" y="-3825.439453" width="1.098633" height="1.098633"/>
<image xlink:href="tile18_31.png" preserveAspectRatio="none" x="13949.34082" y="-3818.847656" width="1.098633" height="1.098633"/>
<image xlink:href="tile18_27.png" preserveAspectRatio="none" x="13949.34082" y="-3823.242188" width="1.098633" height="1.098633"/>
<image xlink:href="tile18_26.png" preserveAspectRatio="none" x="13949.34082" y="-3824.34082" width="1.098633" height="1.098633"/>
<image xlink:href="tile18_25.png" preserveAspectRatio="none" x="13949.34082" y="-3825.439453" width="1.098633" height="1.098633"/>
<image xlink:href="tile19_31.png" preserveAspectRatio="none" x="13950.439453" y="-3818.847656" width="1.098633" height="1.098633"/>
<image xlink:href="tile19_27.png" preserveAspectRatio="none" x="13950.439453" y="-3823.242188" width="1.098633" height="1.098633"/>
<image xlink:href="tile19_26.png" preserveAspectRatio="none" x="13950.439453" y="-3824.34082" width="1.098633" height="1.098633"/>
<image xlink:href="tile19_25.png" preserveAspectRatio="none" x="13950.439453" y="-3825.439453" width="1.098633" height="1.098633"/>
<image xlink:href="tile20_28.png" preserveAspectRatio="none" x="13951.538086" y="-3822.143555" width="1.098633" height="1.098633"/>
<image xlink:href="tile20_27.png" preserveAspectRatio="none" x="13951.538086" y="-3823.242188" width="1.098633" height="1.098633"/>
<image xlink:href="tile20_26.png" preserveAspectRatio="none" x="13951.538086" y="-3824.34082" width="1.098633" height="1.098633"/>
<image xlink:href="tile21_28.png" preserveAspectRatio="none" x="13952.636719" y="-3822.143555" width="1.098633" height="1.098633"/>
<image xlink:href="tile21_27.png" preserveAspectRatio="none" x="13952.636719" y="-3823.242188" width="1.098633" height="1.098633"/>
<image xlink:href="tile22_27.png" preserveAspectRatio="none" x="13953.735352" y="-3823.242188" width="1.098633" height="1.098633"/>
<image xlink:href="tile23_28.png" preserveAspectRatio="none" x="13954.833984" y="-3822.143555" width="1.098633" height="1.098633"/>
<image xlink:href="tile23_27.png" preserveAspectRatio="none" x="13954.833984" y="-3823.242188" width="1.098633" height="1.098633"/>
<image xlink:href="tile24_28.png" preserveAspectRatio="none" x="13955.932617" y="-3822.143555" width="1.098633" height="1.098633"/>
</g>
</svg>
