<?xml version="1.0" encoding="UTF-8"?>
<svg  xmlns="http://www.w3.org/2000/svg" xmlns:xlink="http://www.w3.org/1999/xlink" xmlns:go="http://purl.org/svgmap/profile" viewBox="13300.0 -3555.433333 100.0 22.099999999999653" go:dataArea="13300.0 -3555.433333 100.0 22.099999999999653" >
<metadata>
 <rdf:RDF xmlns:rdf="http://www.w3.org/1999/02/22-rdf-syntax-ns#" xmlns:crs="http://opengis.org/xmldtds/transformations.dtd" xmlns:svg="http://www.w3.org/svg" >
  <rdf:Description>
   <crs:CoordinateReferenceSystem rdf:resource="http://purl.org/crs/84" svg:transform="matrix(100.0,0.0,0.0,-100.0,0.0,0.0)" />
  </rdf:Description>
 </rdf:RDF>
</metadata>
<globalCoordinateSystem srsName="http://purl.org/crs/84" transform="matrix(100.0,0.0,0.0,-100.0,0.0,0.0)" />
<g >
<image xlink:href="tile0_3.png" preserveAspectRatio="none" x="13297.851562" y="-3546.386719" width="4.394531" height="4.394531"/>
<image xlink:href="tile0_2.png" preserveAspectRatio="none" x="13297.851562" y="-3550.78125" width="4.394531" height="4.394531"/>
<image xlink:href="tile0_1.png" preserveAspectRatio="none" x="13297.851562" y="-3555.175781" width="4.394531" height="4.394531"/>
<image xlink:href="tile1_3.png" preserveAspectRatio="none" x="13302.246094" y="-3546.386719" width="4.394531" height="4.394531"/>
<image xlink:href="tile1_2.png" preserveAspectRatio="none" x="13302.246094" y="-3550.78125" width="4.394531" height="4.394531"/>
<image xlink:href="tile2_4.png" preserveAspectRatio="none" x="13306.640625" y="-3541.992188" width="4.394531" height="4.394531"/>
<image xlink:href="tile2_3.png" preserveAspectRatio="none" x="13306.640625" y="-3546.386719" width="4.394531" height="4.394531"/>
<image xlink:href="tile2_2.png" preserveAspectRatio="none" x="13306.640625" y="-3550.78125" width="4.394531" height="4.394531"/>
<image xlink:href="tile3_3.png" preserveAspectRatio="none" x="13311.035156" y="-3546.386719" width="4.394531" height="4.394531"/>
<image xlink:href="tile3_2.png" preserveAspectRatio="none" x="13311.035156" y="-3550.78125" width="4.394531" height="4.394531"/>
<image xlink:href="tile3_1.png" preserveAspectRatio="none" x="13311.035156" y="-3555.175781" width="4.394531" height="4.394531"/>
<image xlink:href="tile4_5.png" preserveAspectRatio="none" x="13315.429688" y="-3537.597656" width="4.394531" height="4.394531"/>
<image xlink:href="tile4_4.png" preserveAspectRatio="none" x="13315.429688" y="-3541.992188" width="4.394531" height="4.394531"/>
<image xlink:href="tile4_3.png" preserveAspectRatio="none" x="13315.429688" y="-3546.386719" width="4.394531" height="4.394531"/>
<image xlink:href="tile4_2.png" preserveAspectRatio="none" x="13315.429688" y="-3550.78125" width="4.394531" height="4.394531"/>
<image xlink:href="tile4_1.png" preserveAspectRatio="none" x="13315.429688" y="-3555.175781" width="4.394531" height="4.394531"/>
<image xlink:href="tile5_5.png" preserveAspectRatio="none" x="13319.824219" y="-3537.597656" width="4.394531" height="4.394531"/>
<image xlink:href="tile5_4.png" preserveAspectRatio="none" x="13319.824219" y="-3541.992188" width="4.394531" height="4.394531"/>
<image xlink:href="tile5_3.png" preserveAspectRatio="none" x="13319.824219" y="-3546.386719" width="4.394531" height="4.394531"/>
<image xlink:href="tile5_2.png" preserveAspectRatio="none" x="13319.824219" y="-3550.78125" width="4.394531" height="4.394531"/>
<image xlink:href="tile5_1.png" preserveAspectRatio="none" x="13319.824219" y="-3555.175781" width="4.394531" height="4.394531"/>
<image xlink:href="tile6_5.png" preserveAspectRatio="none" x="13324.21875" y="-3537.597656" width="4.394531" height="4.394531"/>
<image xlink:href="tile6_4.png" preserveAspectRatio="none" x="13324.21875" y="-3541.992188" width="4.394531" height="4.394531"/>
<image xlink:href="tile6_3.png" preserveAspectRatio="none" x="13324.21875" y="-3546.386719" width="4.394531" height="4.394531"/>
<image xlink:href="tile6_2.png" preserveAspectRatio="none" x="13324.21875" y="-3550.78125" width="4.394531" height="4.394531"/>
<image xlink:href="tile6_1.png" preserveAspectRatio="none" x="13324.21875" y="-3555.175781" width="4.394531" height="4.394531"/>
<image xlink:href="tile6_0.png" preserveAspectRatio="none" x="13324.21875" y="-3559.570312" width="4.394531" height="4.394531"/>
<image xlink:href="tile7_5.png" preserveAspectRatio="none" x="13328.613281" y="-3537.597656" width="4.394531" height="4.394531"/>
<image xlink:href="tile7_4.png" preserveAspectRatio="none" x="13328.613281" y="-3541.992188" width="4.394531" height="4.394531"/>
<image xlink:href="tile7_3.png" preserveAspectRatio="none" x="13328.613281" y="-3546.386719" width="4.394531" height="4.394531"/>
<image xlink:href="tile7_2.png" preserveAspectRatio="none" x="13328.613281" y="-3550.78125" width="4.394531" height="4.394531"/>
<image xlink:href="tile8_5.png" preserveAspectRatio="none" x="13333.007812" y="-3537.597656" width="4.394531" height="4.394531"/>
<image xlink:href="tile8_4.png" preserveAspectRatio="none" x="13333.007812" y="-3541.992188" width="4.394531" height="4.394531"/>
<image xlink:href="tile8_3.png" preserveAspectRatio="none" x="13333.007812" y="-3546.386719" width="4.394531" height="4.394531"/>
<image xlink:href="tile8_2.png" preserveAspectRatio="none" x="13333.007812" y="-3550.78125" width="4.394531" height="4.394531"/>
<image xlink:href="tile9_5.png" preserveAspectRatio="none" x="13337.402344" y="-3537.597656" width="4.394531" height="4.394531"/>
<image xlink:href="tile9_4.png" preserveAspectRatio="none" x="13337.402344" y="-3541.992188" width="4.394531" height="4.394531"/>
<image xlink:href="tile9_3.png" preserveAspectRatio="none" x="13337.402344" y="-3546.386719" width="4.394531" height="4.394531"/>
<image xlink:href="tile10_5.png" preserveAspectRatio="none" x="13341.796875" y="-3537.597656" width="4.394531" height="4.394531"/>
<image xlink:href="tile10_4.png" preserveAspectRatio="none" x="13341.796875" y="-3541.992188" width="4.394531" height="4.394531"/>
<image xlink:href="tile10_3.png" preserveAspectRatio="none" x="13341.796875" y="-3546.386719" width="4.394531" height="4.394531"/>
<image xlink:href="tile16_5.png" preserveAspectRatio="none" x="13368.164062" y="-3537.597656" width="4.394531" height="4.394531"/>
<image xlink:href="tile17_5.png" preserveAspectRatio="none" x="13372.558594" y="-3537.597656" width="4.394531" height="4.394531"/>
<image xlink:href="tile17_4.png" preserveAspectRatio="none" x="13372.558594" y="-3541.992188" width="4.394531" height="4.394531"/>
<image xlink:href="tile17_3.png" preserveAspectRatio="none" x="13372.558594" y="-3546.386719" width="4.394531" height="4.394531"/>
<image xlink:href="tile17_2.png" preserveAspectRatio="none" x="13372.558594" y="-3550.78125" width="4.394531" height="4.394531"/>
<image xlink:href="tile18_5.png" preserveAspectRatio="none" x="13376.953125" y="-3537.597656" width="4.394531" height="4.394531"/>
<image xlink:href="tile18_4.png" preserveAspectRatio="none" x="13376.953125" y="-3541.992188" width="4.394531" height="4.394531"/>
<image xlink:href="tile18_3.png" preserveAspectRatio="none" x="13376.953125" y="-3546.386719" width="4.394531" height="4.394531"/>
<image xlink:href="tile18_2.png" preserveAspectRatio="none" x="13376.953125" y="-3550.78125" width="4.394531" height="4.394531"/>
<image xlink:href="tile19_4.png" preserveAspectRatio="none" x="13381.347656" y="-3541.992188" width="4.394531" height="4.394531"/>
<image xlink:href="tile19_3.png" preserveAspectRatio="none" x="13381.347656" y="-3546.386719" width="4.394531" height="4.394531"/>
<image xlink:href="tile19_2.png" preserveAspectRatio="none" x="13381.347656" y="-3550.78125" width="4.394531" height="4.394531"/>
<image xlink:href="tile20_4.png" preserveAspectRatio="none" x="13385.742188" y="-3541.992188" width="4.394531" height="4.394531"/>
<image xlink:href="tile20_3.png" preserveAspectRatio="none" x="13385.742188" y="-3546.386719" width="4.394531" height="4.394531"/>
<image xlink:href="tile20_2.png" preserveAspectRatio="none" x="13385.742188" y="-3550.78125" width="4.394531" height="4.394531"/>
<image xlink:href="tile21_4.png" preserveAspectRatio="none" x="13390.136719" y="-3541.992188" width="4.394531" height="4.394531"/>
<image xlink:href="tile21_3.png" preserveAspectRatio="none" x="13390.136719" y="-3546.386719" width="4.394531" height="4.394531"/>
<image xlink:href="tile21_2.png" preserveAspectRatio="none" x="13390.136719" y="-3550.78125" width="4.394531" height="4.394531"/>
<image xlink:href="tile22_2.png" preserveAspectRatio="none" x="13394.53125" y="-3550.78125" width="4.394531" height="4.394531"/>
<image xlink:href="tile22_1.png" preserveAspectRatio="none" x="13394.53125" y="-3555.175781" width="4.394531" height="4.394531"/>
<image xlink:href="tile23_2.png" preserveAspectRatio="none" x="13398.925781" y="-3550.78125" width="4.394531" height="4.394531"/>
<image xlink:href="tile23_1.png" preserveAspectRatio="none" x="13398.925781" y="-3555.175781" width="4.394531" height="4.394531"/>
</g>
</svg>
