<?xml version="1.0" encoding="UTF-8"?>
<svg  xmlns="http://www.w3.org/2000/svg" xmlns:xlink="http://www.w3.org/1999/xlink" xmlns:go="http://purl.org/svgmap/profile" viewBox="13500.0 -3533.3333332 100.0 66.6666665000001" go:dataArea="13500.0 -3533.3333332 100.0 66.6666665000001" >
<metadata>
 <rdf:RDF xmlns:rdf="http://www.w3.org/1999/02/22-rdf-syntax-ns#" xmlns:crs="http://opengis.org/xmldtds/transformations.dtd" xmlns:svg="http://www.w3.org/svg" >
  <rdf:Description>
   <crs:CoordinateReferenceSystem rdf:resource="http://purl.org/crs/84" svg:transform="matrix(100.0,0.0,0.0,-100.0,0.0,0.0)" />
  </rdf:Description>
 </rdf:RDF>
</metadata>
<globalCoordinateSystem srsName="http://purl.org/crs/84" transform="matrix(100.0,0.0,0.0,-100.0,0.0,0.0)" />
<g >
<image xlink:href="tile16_29.png" preserveAspectRatio="none" x="13535.15625" y="-3471.679688" width="2.197266" height="2.197266"/>
<image xlink:href="tile16_28.png" preserveAspectRatio="none" x="13535.15625" y="-3473.876953" width="2.197266" height="2.197266"/>
<image xlink:href="tile16_27.png" preserveAspectRatio="none" x="13535.15625" y="-3476.074219" width="2.197266" height="2.197266"/>
<image xlink:href="tile16_26.png" preserveAspectRatio="none" x="13535.15625" y="-3478.271484" width="2.197266" height="2.197266"/>
<image xlink:href="tile16_25.png" preserveAspectRatio="none" x="13535.15625" y="-3480.46875" width="2.197266" height="2.197266"/>
<image xlink:href="tile16_24.png" preserveAspectRatio="none" x="13535.15625" y="-3482.666016" width="2.197266" height="2.197266"/>
<image xlink:href="tile16_20.png" preserveAspectRatio="none" x="13535.15625" y="-3491.455078" width="2.197266" height="2.197266"/>
<image xlink:href="tile16_19.png" preserveAspectRatio="none" x="13535.15625" y="-3493.652344" width="2.197266" height="2.197266"/>
<image xlink:href="tile16_18.png" preserveAspectRatio="none" x="13535.15625" y="-3495.849609" width="2.197266" height="2.197266"/>
<image xlink:href="tile17_29.png" preserveAspectRatio="none" x="13537.353516" y="-3471.679688" width="2.197266" height="2.197266"/>
<image xlink:href="tile17_28.png" preserveAspectRatio="none" x="13537.353516" y="-3473.876953" width="2.197266" height="2.197266"/>
<image xlink:href="tile17_27.png" preserveAspectRatio="none" x="13537.353516" y="-3476.074219" width="2.197266" height="2.197266"/>
<image xlink:href="tile17_26.png" preserveAspectRatio="none" x="13537.353516" y="-3478.271484" width="2.197266" height="2.197266"/>
<image xlink:href="tile17_25.png" preserveAspectRatio="none" x="13537.353516" y="-3480.46875" width="2.197266" height="2.197266"/>
<image xlink:href="tile17_24.png" preserveAspectRatio="none" x="13537.353516" y="-3482.666016" width="2.197266" height="2.197266"/>
<image xlink:href="tile17_22.png" preserveAspectRatio="none" x="13537.353516" y="-3487.060547" width="2.197266" height="2.197266"/>
<image xlink:href="tile17_21.png" preserveAspectRatio="none" x="13537.353516" y="-3489.257812" width="2.197266" height="2.197266"/>
<image xlink:href="tile17_20.png" preserveAspectRatio="none" x="13537.353516" y="-3491.455078" width="2.197266" height="2.197266"/>
<image xlink:href="tile17_19.png" preserveAspectRatio="none" x="13537.353516" y="-3493.652344" width="2.197266" height="2.197266"/>
<image xlink:href="tile17_18.png" preserveAspectRatio="none" x="13537.353516" y="-3495.849609" width="2.197266" height="2.197266"/>
<image xlink:href="tile18_29.png" preserveAspectRatio="none" x="13539.550781" y="-3471.679688" width="2.197266" height="2.197266"/>
<image xlink:href="tile18_28.png" preserveAspectRatio="none" x="13539.550781" y="-3473.876953" width="2.197266" height="2.197266"/>
<image xlink:href="tile18_27.png" preserveAspectRatio="none" x="13539.550781" y="-3476.074219" width="2.197266" height="2.197266"/>
<image xlink:href="tile18_26.png" preserveAspectRatio="none" x="13539.550781" y="-3478.271484" width="2.197266" height="2.197266"/>
<image xlink:href="tile18_25.png" preserveAspectRatio="none" x="13539.550781" y="-3480.46875" width="2.197266" height="2.197266"/>
<image xlink:href="tile18_24.png" preserveAspectRatio="none" x="13539.550781" y="-3482.666016" width="2.197266" height="2.197266"/>
<image xlink:href="tile18_23.png" preserveAspectRatio="none" x="13539.550781" y="-3484.863281" width="2.197266" height="2.197266"/>
<image xlink:href="tile18_22.png" preserveAspectRatio="none" x="13539.550781" y="-3487.060547" width="2.197266" height="2.197266"/>
<image xlink:href="tile18_21.png" preserveAspectRatio="none" x="13539.550781" y="-3489.257812" width="2.197266" height="2.197266"/>
<image xlink:href="tile18_20.png" preserveAspectRatio="none" x="13539.550781" y="-3491.455078" width="2.197266" height="2.197266"/>
<image xlink:href="tile18_18.png" preserveAspectRatio="none" x="13539.550781" y="-3495.849609" width="2.197266" height="2.197266"/>
<image xlink:href="tile19_30.png" preserveAspectRatio="none" x="13541.748047" y="-3469.482422" width="2.197266" height="2.197266"/>
<image xlink:href="tile19_29.png" preserveAspectRatio="none" x="13541.748047" y="-3471.679688" width="2.197266" height="2.197266"/>
<image xlink:href="tile19_28.png" preserveAspectRatio="none" x="13541.748047" y="-3473.876953" width="2.197266" height="2.197266"/>
<image xlink:href="tile19_27.png" preserveAspectRatio="none" x="13541.748047" y="-3476.074219" width="2.197266" height="2.197266"/>
<image xlink:href="tile19_26.png" preserveAspectRatio="none" x="13541.748047" y="-3478.271484" width="2.197266" height="2.197266"/>
<image xlink:href="tile19_25.png" preserveAspectRatio="none" x="13541.748047" y="-3480.46875" width="2.197266" height="2.197266"/>
<image xlink:href="tile19_24.png" preserveAspectRatio="none" x="13541.748047" y="-3482.666016" width="2.197266" height="2.197266"/>
<image xlink:href="tile19_23.png" preserveAspectRatio="none" x="13541.748047" y="-3484.863281" width="2.197266" height="2.197266"/>
<image xlink:href="tile19_22.png" preserveAspectRatio="none" x="13541.748047" y="-3487.060547" width="2.197266" height="2.197266"/>
<image xlink:href="tile19_21.png" preserveAspectRatio="none" x="13541.748047" y="-3489.257812" width="2.197266" height="2.197266"/>
<image xlink:href="tile19_20.png" preserveAspectRatio="none" x="13541.748047" y="-3491.455078" width="2.197266" height="2.197266"/>
<image xlink:href="tile20_30.png" preserveAspectRatio="none" x="13543.945312" y="-3469.482422" width="2.197266" height="2.197266"/>
<image xlink:href="tile20_29.png" preserveAspectRatio="none" x="13543.945312" y="-3471.679688" width="2.197266" height="2.197266"/>
<image xlink:href="tile20_28.png" preserveAspectRatio="none" x="13543.945312" y="-3473.876953" width="2.197266" height="2.197266"/>
<image xlink:href="tile20_27.png" preserveAspectRatio="none" x="13543.945312" y="-3476.074219" width="2.197266" height="2.197266"/>
<image xlink:href="tile20_26.png" preserveAspectRatio="none" x="13543.945312" y="-3478.271484" width="2.197266" height="2.197266"/>
<image xlink:href="tile20_25.png" preserveAspectRatio="none" x="13543.945312" y="-3480.46875" width="2.197266" height="2.197266"/>
<image xlink:href="tile20_24.png" preserveAspectRatio="none" x="13543.945312" y="-3482.666016" width="2.197266" height="2.197266"/>
<image xlink:href="tile20_23.png" preserveAspectRatio="none" x="13543.945312" y="-3484.863281" width="2.197266" height="2.197266"/>
<image xlink:href="tile20_22.png" preserveAspectRatio="none" x="13543.945312" y="-3487.060547" width="2.197266" height="2.197266"/>
<image xlink:href="tile20_21.png" preserveAspectRatio="none" x="13543.945312" y="-3489.257812" width="2.197266" height="2.197266"/>
<image xlink:href="tile21_31.png" preserveAspectRatio="none" x="13546.142578" y="-3467.285156" width="2.197266" height="2.197266"/>
<image xlink:href="tile21_30.png" preserveAspectRatio="none" x="13546.142578" y="-3469.482422" width="2.197266" height="2.197266"/>
<image xlink:href="tile21_29.png" preserveAspectRatio="none" x="13546.142578" y="-3471.679688" width="2.197266" height="2.197266"/>
<image xlink:href="tile21_28.png" preserveAspectRatio="none" x="13546.142578" y="-3473.876953" width="2.197266" height="2.197266"/>
<image xlink:href="tile21_27.png" preserveAspectRatio="none" x="13546.142578" y="-3476.074219" width="2.197266" height="2.197266"/>
<image xlink:href="tile21_26.png" preserveAspectRatio="none" x="13546.142578" y="-3478.271484" width="2.197266" height="2.197266"/>
<image xlink:href="tile21_25.png" preserveAspectRatio="none" x="13546.142578" y="-3480.46875" width="2.197266" height="2.197266"/>
<image xlink:href="tile21_24.png" preserveAspectRatio="none" x="13546.142578" y="-3482.666016" width="2.197266" height="2.197266"/>
<image xlink:href="tile21_23.png" preserveAspectRatio="none" x="13546.142578" y="-3484.863281" width="2.197266" height="2.197266"/>
<image xlink:href="tile21_21.png" preserveAspectRatio="none" x="13546.142578" y="-3489.257812" width="2.197266" height="2.197266"/>
<image xlink:href="tile21_20.png" preserveAspectRatio="none" x="13546.142578" y="-3491.455078" width="2.197266" height="2.197266"/>
<image xlink:href="tile22_31.png" preserveAspectRatio="none" x="13548.339844" y="-3467.285156" width="2.197266" height="2.197266"/>
<image xlink:href="tile22_30.png" preserveAspectRatio="none" x="13548.339844" y="-3469.482422" width="2.197266" height="2.197266"/>
<image xlink:href="tile22_29.png" preserveAspectRatio="none" x="13548.339844" y="-3471.679688" width="2.197266" height="2.197266"/>
<image xlink:href="tile22_28.png" preserveAspectRatio="none" x="13548.339844" y="-3473.876953" width="2.197266" height="2.197266"/>
<image xlink:href="tile22_27.png" preserveAspectRatio="none" x="13548.339844" y="-3476.074219" width="2.197266" height="2.197266"/>
<image xlink:href="tile22_26.png" preserveAspectRatio="none" x="13548.339844" y="-3478.271484" width="2.197266" height="2.197266"/>
<image xlink:href="tile22_25.png" preserveAspectRatio="none" x="13548.339844" y="-3480.46875" width="2.197266" height="2.197266"/>
<image xlink:href="tile22_24.png" preserveAspectRatio="none" x="13548.339844" y="-3482.666016" width="2.197266" height="2.197266"/>
<image xlink:href="tile22_23.png" preserveAspectRatio="none" x="13548.339844" y="-3484.863281" width="2.197266" height="2.197266"/>
<image xlink:href="tile22_20.png" preserveAspectRatio="none" x="13548.339844" y="-3491.455078" width="2.197266" height="2.197266"/>
<image xlink:href="tile22_19.png" preserveAspectRatio="none" x="13548.339844" y="-3493.652344" width="2.197266" height="2.197266"/>
<image xlink:href="tile23_30.png" preserveAspectRatio="none" x="13550.537109" y="-3469.482422" width="2.197266" height="2.197266"/>
<image xlink:href="tile23_29.png" preserveAspectRatio="none" x="13550.537109" y="-3471.679688" width="2.197266" height="2.197266"/>
<image xlink:href="tile23_28.png" preserveAspectRatio="none" x="13550.537109" y="-3473.876953" width="2.197266" height="2.197266"/>
<image xlink:href="tile23_27.png" preserveAspectRatio="none" x="13550.537109" y="-3476.074219" width="2.197266" height="2.197266"/>
<image xlink:href="tile23_26.png" preserveAspectRatio="none" x="13550.537109" y="-3478.271484" width="2.197266" height="2.197266"/>
<image xlink:href="tile23_25.png" preserveAspectRatio="none" x="13550.537109" y="-3480.46875" width="2.197266" height="2.197266"/>
<image xlink:href="tile23_24.png" preserveAspectRatio="none" x="13550.537109" y="-3482.666016" width="2.197266" height="2.197266"/>
<image xlink:href="tile23_23.png" preserveAspectRatio="none" x="13550.537109" y="-3484.863281" width="2.197266" height="2.197266"/>
<image xlink:href="tile23_22.png" preserveAspectRatio="none" x="13550.537109" y="-3487.060547" width="2.197266" height="2.197266"/>
<image xlink:href="tile23_21.png" preserveAspectRatio="none" x="13550.537109" y="-3489.257812" width="2.197266" height="2.197266"/>
<image xlink:href="tile23_20.png" preserveAspectRatio="none" x="13550.537109" y="-3491.455078" width="2.197266" height="2.197266"/>
<image xlink:href="tile23_19.png" preserveAspectRatio="none" x="13550.537109" y="-3493.652344" width="2.197266" height="2.197266"/>
<image xlink:href="tile24_31.png" preserveAspectRatio="none" x="13552.734375" y="-3467.285156" width="2.197266" height="2.197266"/>
<image xlink:href="tile24_30.png" preserveAspectRatio="none" x="13552.734375" y="-3469.482422" width="2.197266" height="2.197266"/>
<image xlink:href="tile24_29.png" preserveAspectRatio="none" x="13552.734375" y="-3471.679688" width="2.197266" height="2.197266"/>
<image xlink:href="tile24_28.png" preserveAspectRatio="none" x="13552.734375" y="-3473.876953" width="2.197266" height="2.197266"/>
<image xlink:href="tile24_27.png" preserveAspectRatio="none" x="13552.734375" y="-3476.074219" width="2.197266" height="2.197266"/>
<image xlink:href="tile24_26.png" preserveAspectRatio="none" x="13552.734375" y="-3478.271484" width="2.197266" height="2.197266"/>
<image xlink:href="tile24_25.png" preserveAspectRatio="none" x="13552.734375" y="-3480.46875" width="2.197266" height="2.197266"/>
<image xlink:href="tile24_23.png" preserveAspectRatio="none" x="13552.734375" y="-3484.863281" width="2.197266" height="2.197266"/>
<image xlink:href="tile24_22.png" preserveAspectRatio="none" x="13552.734375" y="-3487.060547" width="2.197266" height="2.197266"/>
<image xlink:href="tile25_31.png" preserveAspectRatio="none" x="13554.931641" y="-3467.285156" width="2.197266" height="2.197266"/>
<image xlink:href="tile25_30.png" preserveAspectRatio="none" x="13554.931641" y="-3469.482422" width="2.197266" height="2.197266"/>
<image xlink:href="tile25_29.png" preserveAspectRatio="none" x="13554.931641" y="-3471.679688" width="2.197266" height="2.197266"/>
<image xlink:href="tile25_28.png" preserveAspectRatio="none" x="13554.931641" y="-3473.876953" width="2.197266" height="2.197266"/>
<image xlink:href="tile25_27.png" preserveAspectRatio="none" x="13554.931641" y="-3476.074219" width="2.197266" height="2.197266"/>
<image xlink:href="tile25_26.png" preserveAspectRatio="none" x="13554.931641" y="-3478.271484" width="2.197266" height="2.197266"/>
<image xlink:href="tile25_25.png" preserveAspectRatio="none" x="13554.931641" y="-3480.46875" width="2.197266" height="2.197266"/>
<image xlink:href="tile25_24.png" preserveAspectRatio="none" x="13554.931641" y="-3482.666016" width="2.197266" height="2.197266"/>
<image xlink:href="tile25_23.png" preserveAspectRatio="none" x="13554.931641" y="-3484.863281" width="2.197266" height="2.197266"/>
<image xlink:href="tile25_22.png" preserveAspectRatio="none" x="13554.931641" y="-3487.060547" width="2.197266" height="2.197266"/>
<image xlink:href="tile26_31.png" preserveAspectRatio="none" x="13557.128906" y="-3467.285156" width="2.197266" height="2.197266"/>
<image xlink:href="tile26_30.png" preserveAspectRatio="none" x="13557.128906" y="-3469.482422" width="2.197266" height="2.197266"/>
<image xlink:href="tile26_29.png" preserveAspectRatio="none" x="13557.128906" y="-3471.679688" width="2.197266" height="2.197266"/>
<image xlink:href="tile26_28.png" preserveAspectRatio="none" x="13557.128906" y="-3473.876953" width="2.197266" height="2.197266"/>
<image xlink:href="tile26_27.png" preserveAspectRatio="none" x="13557.128906" y="-3476.074219" width="2.197266" height="2.197266"/>
<image xlink:href="tile26_26.png" preserveAspectRatio="none" x="13557.128906" y="-3478.271484" width="2.197266" height="2.197266"/>
<image xlink:href="tile26_25.png" preserveAspectRatio="none" x="13557.128906" y="-3480.46875" width="2.197266" height="2.197266"/>
<image xlink:href="tile26_24.png" preserveAspectRatio="none" x="13557.128906" y="-3482.666016" width="2.197266" height="2.197266"/>
<image xlink:href="tile26_23.png" preserveAspectRatio="none" x="13557.128906" y="-3484.863281" width="2.197266" height="2.197266"/>
<image xlink:href="tile26_22.png" preserveAspectRatio="none" x="13557.128906" y="-3487.060547" width="2.197266" height="2.197266"/>
<image xlink:href="tile26_21.png" preserveAspectRatio="none" x="13557.128906" y="-3489.257812" width="2.197266" height="2.197266"/>
<image xlink:href="tile27_31.png" preserveAspectRatio="none" x="13559.326172" y="-3467.285156" width="2.197266" height="2.197266"/>
<image xlink:href="tile27_30.png" preserveAspectRatio="none" x="13559.326172" y="-3469.482422" width="2.197266" height="2.197266"/>
<image xlink:href="tile27_29.png" preserveAspectRatio="none" x="13559.326172" y="-3471.679688" width="2.197266" height="2.197266"/>
<image xlink:href="tile27_28.png" preserveAspectRatio="none" x="13559.326172" y="-3473.876953" width="2.197266" height="2.197266"/>
<image xlink:href="tile27_27.png" preserveAspectRatio="none" x="13559.326172" y="-3476.074219" width="2.197266" height="2.197266"/>
<image xlink:href="tile27_26.png" preserveAspectRatio="none" x="13559.326172" y="-3478.271484" width="2.197266" height="2.197266"/>
<image xlink:href="tile27_25.png" preserveAspectRatio="none" x="13559.326172" y="-3480.46875" width="2.197266" height="2.197266"/>
<image xlink:href="tile27_24.png" preserveAspectRatio="none" x="13559.326172" y="-3482.666016" width="2.197266" height="2.197266"/>
<image xlink:href="tile27_23.png" preserveAspectRatio="none" x="13559.326172" y="-3484.863281" width="2.197266" height="2.197266"/>
<image xlink:href="tile27_22.png" preserveAspectRatio="none" x="13559.326172" y="-3487.060547" width="2.197266" height="2.197266"/>
<image xlink:href="tile27_21.png" preserveAspectRatio="none" x="13559.326172" y="-3489.257812" width="2.197266" height="2.197266"/>
<image xlink:href="tile27_20.png" preserveAspectRatio="none" x="13559.326172" y="-3491.455078" width="2.197266" height="2.197266"/>
<image xlink:href="tile27_19.png" preserveAspectRatio="none" x="13559.326172" y="-3493.652344" width="2.197266" height="2.197266"/>
<image xlink:href="tile27_18.png" preserveAspectRatio="none" x="13559.326172" y="-3495.849609" width="2.197266" height="2.197266"/>
<image xlink:href="tile28_31.png" preserveAspectRatio="none" x="13561.523438" y="-3467.285156" width="2.197266" height="2.197266"/>
<image xlink:href="tile28_30.png" preserveAspectRatio="none" x="13561.523438" y="-3469.482422" width="2.197266" height="2.197266"/>
<image xlink:href="tile28_29.png" preserveAspectRatio="none" x="13561.523438" y="-3471.679688" width="2.197266" height="2.197266"/>
<image xlink:href="tile28_28.png" preserveAspectRatio="none" x="13561.523438" y="-3473.876953" width="2.197266" height="2.197266"/>
<image xlink:href="tile28_27.png" preserveAspectRatio="none" x="13561.523438" y="-3476.074219" width="2.197266" height="2.197266"/>
<image xlink:href="tile28_26.png" preserveAspectRatio="none" x="13561.523438" y="-3478.271484" width="2.197266" height="2.197266"/>
<image xlink:href="tile28_25.png" preserveAspectRatio="none" x="13561.523438" y="-3480.46875" width="2.197266" height="2.197266"/>
<image xlink:href="tile28_24.png" preserveAspectRatio="none" x="13561.523438" y="-3482.666016" width="2.197266" height="2.197266"/>
<image xlink:href="tile28_23.png" preserveAspectRatio="none" x="13561.523438" y="-3484.863281" width="2.197266" height="2.197266"/>
<image xlink:href="tile28_22.png" preserveAspectRatio="none" x="13561.523438" y="-3487.060547" width="2.197266" height="2.197266"/>
<image xlink:href="tile28_21.png" preserveAspectRatio="none" x="13561.523438" y="-3489.257812" width="2.197266" height="2.197266"/>
<image xlink:href="tile29_30.png" preserveAspectRatio="none" x="13563.720703" y="-3469.482422" width="2.197266" height="2.197266"/>
<image xlink:href="tile29_29.png" preserveAspectRatio="none" x="13563.720703" y="-3471.679688" width="2.197266" height="2.197266"/>
<image xlink:href="tile29_28.png" preserveAspectRatio="none" x="13563.720703" y="-3473.876953" width="2.197266" height="2.197266"/>
<image xlink:href="tile29_27.png" preserveAspectRatio="none" x="13563.720703" y="-3476.074219" width="2.197266" height="2.197266"/>
<image xlink:href="tile29_26.png" preserveAspectRatio="none" x="13563.720703" y="-3478.271484" width="2.197266" height="2.197266"/>
<image xlink:href="tile29_25.png" preserveAspectRatio="none" x="13563.720703" y="-3480.46875" width="2.197266" height="2.197266"/>
<image xlink:href="tile29_24.png" preserveAspectRatio="none" x="13563.720703" y="-3482.666016" width="2.197266" height="2.197266"/>
<image xlink:href="tile29_23.png" preserveAspectRatio="none" x="13563.720703" y="-3484.863281" width="2.197266" height="2.197266"/>
<image xlink:href="tile29_22.png" preserveAspectRatio="none" x="13563.720703" y="-3487.060547" width="2.197266" height="2.197266"/>
<image xlink:href="tile29_21.png" preserveAspectRatio="none" x="13563.720703" y="-3489.257812" width="2.197266" height="2.197266"/>
<image xlink:href="tile30_26.png" preserveAspectRatio="none" x="13565.917969" y="-3478.271484" width="2.197266" height="2.197266"/>
<image xlink:href="tile30_25.png" preserveAspectRatio="none" x="13565.917969" y="-3480.46875" width="2.197266" height="2.197266"/>
<image xlink:href="tile30_24.png" preserveAspectRatio="none" x="13565.917969" y="-3482.666016" width="2.197266" height="2.197266"/>
<image xlink:href="tile30_23.png" preserveAspectRatio="none" x="13565.917969" y="-3484.863281" width="2.197266" height="2.197266"/>
<image xlink:href="tile30_22.png" preserveAspectRatio="none" x="13565.917969" y="-3487.060547" width="2.197266" height="2.197266"/>
<image xlink:href="tile30_21.png" preserveAspectRatio="none" x="13565.917969" y="-3489.257812" width="2.197266" height="2.197266"/>
<image xlink:href="tile30_20.png" preserveAspectRatio="none" x="13565.917969" y="-3491.455078" width="2.197266" height="2.197266"/>
<image xlink:href="tile31_30.png" preserveAspectRatio="none" x="13568.115234" y="-3469.482422" width="2.197266" height="2.197266"/>
<image xlink:href="tile31_29.png" preserveAspectRatio="none" x="13568.115234" y="-3471.679688" width="2.197266" height="2.197266"/>
<image xlink:href="tile31_28.png" preserveAspectRatio="none" x="13568.115234" y="-3473.876953" width="2.197266" height="2.197266"/>
<image xlink:href="tile31_27.png" preserveAspectRatio="none" x="13568.115234" y="-3476.074219" width="2.197266" height="2.197266"/>
<image xlink:href="tile31_26.png" preserveAspectRatio="none" x="13568.115234" y="-3478.271484" width="2.197266" height="2.197266"/>
<image xlink:href="tile31_25.png" preserveAspectRatio="none" x="13568.115234" y="-3480.46875" width="2.197266" height="2.197266"/>
<image xlink:href="tile31_24.png" preserveAspectRatio="none" x="13568.115234" y="-3482.666016" width="2.197266" height="2.197266"/>
<image xlink:href="tile31_23.png" preserveAspectRatio="none" x="13568.115234" y="-3484.863281" width="2.197266" height="2.197266"/>
<image xlink:href="tile31_22.png" preserveAspectRatio="none" x="13568.115234" y="-3487.060547" width="2.197266" height="2.197266"/>
<image xlink:href="tile31_21.png" preserveAspectRatio="none" x="13568.115234" y="-3489.257812" width="2.197266" height="2.197266"/>
<image xlink:href="tile31_20.png" preserveAspectRatio="none" x="13568.115234" y="-3491.455078" width="2.197266" height="2.197266"/>
<image xlink:href="tile31_19.png" preserveAspectRatio="none" x="13568.115234" y="-3493.652344" width="2.197266" height="2.197266"/>
<image xlink:href="tile31_17.png" preserveAspectRatio="none" x="13568.115234" y="-3498.046875" width="2.197266" height="2.197266"/>
<image xlink:href="tile31_16.png" preserveAspectRatio="none" x="13568.115234" y="-3500.244141" width="2.197266" height="2.197266"/>
</g>
</svg>
