<?xml version="1.0" encoding="UTF-8"?>
<svg  xmlns="http://www.w3.org/2000/svg" xmlns:xlink="http://www.w3.org/1999/xlink" xmlns:go="http://purl.org/svgmap/profile" viewBox="13500.0 -3533.3333332 100.0 66.6666665000001" go:dataArea="13500.0 -3533.3333332 100.0 66.6666665000001" >
<metadata>
 <rdf:RDF xmlns:rdf="http://www.w3.org/1999/02/22-rdf-syntax-ns#" xmlns:crs="http://opengis.org/xmldtds/transformations.dtd" xmlns:svg="http://www.w3.org/svg" >
  <rdf:Description>
   <crs:CoordinateReferenceSystem rdf:resource="http://purl.org/crs/84" svg:transform="matrix(100.0,0.0,0.0,-100.0,0.0,0.0)" />
  </rdf:Description>
 </rdf:RDF>
</metadata>
<globalCoordinateSystem srsName="http://purl.org/crs/84" transform="matrix(100.0,0.0,0.0,-100.0,0.0,0.0)" />
<g >
<image xlink:href="tile0_15.png" preserveAspectRatio="none" x="13500" y="-3502.441406" width="2.197266" height="2.197266"/>
<image xlink:href="tile0_14.png" preserveAspectRatio="none" x="13500" y="-3504.638672" width="2.197266" height="2.197266"/>
<image xlink:href="tile0_13.png" preserveAspectRatio="none" x="13500" y="-3506.835938" width="2.197266" height="2.197266"/>
<image xlink:href="tile0_12.png" preserveAspectRatio="none" x="13500" y="-3509.033203" width="2.197266" height="2.197266"/>
<image xlink:href="tile0_11.png" preserveAspectRatio="none" x="13500" y="-3511.230469" width="2.197266" height="2.197266"/>
<image xlink:href="tile0_10.png" preserveAspectRatio="none" x="13500" y="-3513.427734" width="2.197266" height="2.197266"/>
<image xlink:href="tile0_9.png" preserveAspectRatio="none" x="13500" y="-3515.625" width="2.197266" height="2.197266"/>
<image xlink:href="tile0_8.png" preserveAspectRatio="none" x="13500" y="-3517.822266" width="2.197266" height="2.197266"/>
<image xlink:href="tile0_7.png" preserveAspectRatio="none" x="13500" y="-3520.019531" width="2.197266" height="2.197266"/>
<image xlink:href="tile0_5.png" preserveAspectRatio="none" x="13500" y="-3524.414062" width="2.197266" height="2.197266"/>
<image xlink:href="tile0_4.png" preserveAspectRatio="none" x="13500" y="-3526.611328" width="2.197266" height="2.197266"/>
<image xlink:href="tile1_15.png" preserveAspectRatio="none" x="13502.197266" y="-3502.441406" width="2.197266" height="2.197266"/>
<image xlink:href="tile1_14.png" preserveAspectRatio="none" x="13502.197266" y="-3504.638672" width="2.197266" height="2.197266"/>
<image xlink:href="tile1_12.png" preserveAspectRatio="none" x="13502.197266" y="-3509.033203" width="2.197266" height="2.197266"/>
<image xlink:href="tile1_9.png" preserveAspectRatio="none" x="13502.197266" y="-3515.625" width="2.197266" height="2.197266"/>
<image xlink:href="tile1_8.png" preserveAspectRatio="none" x="13502.197266" y="-3517.822266" width="2.197266" height="2.197266"/>
<image xlink:href="tile1_7.png" preserveAspectRatio="none" x="13502.197266" y="-3520.019531" width="2.197266" height="2.197266"/>
<image xlink:href="tile1_6.png" preserveAspectRatio="none" x="13502.197266" y="-3522.216797" width="2.197266" height="2.197266"/>
<image xlink:href="tile1_5.png" preserveAspectRatio="none" x="13502.197266" y="-3524.414062" width="2.197266" height="2.197266"/>
<image xlink:href="tile1_4.png" preserveAspectRatio="none" x="13502.197266" y="-3526.611328" width="2.197266" height="2.197266"/>
<image xlink:href="tile2_15.png" preserveAspectRatio="none" x="13504.394531" y="-3502.441406" width="2.197266" height="2.197266"/>
<image xlink:href="tile2_14.png" preserveAspectRatio="none" x="13504.394531" y="-3504.638672" width="2.197266" height="2.197266"/>
<image xlink:href="tile2_13.png" preserveAspectRatio="none" x="13504.394531" y="-3506.835938" width="2.197266" height="2.197266"/>
<image xlink:href="tile2_12.png" preserveAspectRatio="none" x="13504.394531" y="-3509.033203" width="2.197266" height="2.197266"/>
<image xlink:href="tile2_11.png" preserveAspectRatio="none" x="13504.394531" y="-3511.230469" width="2.197266" height="2.197266"/>
<image xlink:href="tile2_10.png" preserveAspectRatio="none" x="13504.394531" y="-3513.427734" width="2.197266" height="2.197266"/>
<image xlink:href="tile2_9.png" preserveAspectRatio="none" x="13504.394531" y="-3515.625" width="2.197266" height="2.197266"/>
<image xlink:href="tile2_8.png" preserveAspectRatio="none" x="13504.394531" y="-3517.822266" width="2.197266" height="2.197266"/>
<image xlink:href="tile2_7.png" preserveAspectRatio="none" x="13504.394531" y="-3520.019531" width="2.197266" height="2.197266"/>
<image xlink:href="tile2_6.png" preserveAspectRatio="none" x="13504.394531" y="-3522.216797" width="2.197266" height="2.197266"/>
<image xlink:href="tile3_15.png" preserveAspectRatio="none" x="13506.591797" y="-3502.441406" width="2.197266" height="2.197266"/>
<image xlink:href="tile3_14.png" preserveAspectRatio="none" x="13506.591797" y="-3504.638672" width="2.197266" height="2.197266"/>
<image xlink:href="tile3_12.png" preserveAspectRatio="none" x="13506.591797" y="-3509.033203" width="2.197266" height="2.197266"/>
<image xlink:href="tile3_10.png" preserveAspectRatio="none" x="13506.591797" y="-3513.427734" width="2.197266" height="2.197266"/>
<image xlink:href="tile3_9.png" preserveAspectRatio="none" x="13506.591797" y="-3515.625" width="2.197266" height="2.197266"/>
<image xlink:href="tile3_8.png" preserveAspectRatio="none" x="13506.591797" y="-3517.822266" width="2.197266" height="2.197266"/>
<image xlink:href="tile3_7.png" preserveAspectRatio="none" x="13506.591797" y="-3520.019531" width="2.197266" height="2.197266"/>
<image xlink:href="tile3_5.png" preserveAspectRatio="none" x="13506.591797" y="-3524.414062" width="2.197266" height="2.197266"/>
<image xlink:href="tile3_1.png" preserveAspectRatio="none" x="13506.591797" y="-3533.203125" width="2.197266" height="2.197266"/>
<image xlink:href="tile3_0.png" preserveAspectRatio="none" x="13506.591797" y="-3535.400391" width="2.197266" height="2.197266"/>
<image xlink:href="tile4_15.png" preserveAspectRatio="none" x="13508.789062" y="-3502.441406" width="2.197266" height="2.197266"/>
<image xlink:href="tile4_14.png" preserveAspectRatio="none" x="13508.789062" y="-3504.638672" width="2.197266" height="2.197266"/>
<image xlink:href="tile4_12.png" preserveAspectRatio="none" x="13508.789062" y="-3509.033203" width="2.197266" height="2.197266"/>
<image xlink:href="tile4_11.png" preserveAspectRatio="none" x="13508.789062" y="-3511.230469" width="2.197266" height="2.197266"/>
<image xlink:href="tile4_10.png" preserveAspectRatio="none" x="13508.789062" y="-3513.427734" width="2.197266" height="2.197266"/>
<image xlink:href="tile4_8.png" preserveAspectRatio="none" x="13508.789062" y="-3517.822266" width="2.197266" height="2.197266"/>
<image xlink:href="tile4_7.png" preserveAspectRatio="none" x="13508.789062" y="-3520.019531" width="2.197266" height="2.197266"/>
<image xlink:href="tile4_6.png" preserveAspectRatio="none" x="13508.789062" y="-3522.216797" width="2.197266" height="2.197266"/>
<image xlink:href="tile4_5.png" preserveAspectRatio="none" x="13508.789062" y="-3524.414062" width="2.197266" height="2.197266"/>
<image xlink:href="tile4_4.png" preserveAspectRatio="none" x="13508.789062" y="-3526.611328" width="2.197266" height="2.197266"/>
<image xlink:href="tile4_2.png" preserveAspectRatio="none" x="13508.789062" y="-3531.005859" width="2.197266" height="2.197266"/>
<image xlink:href="tile4_1.png" preserveAspectRatio="none" x="13508.789062" y="-3533.203125" width="2.197266" height="2.197266"/>
<image xlink:href="tile4_0.png" preserveAspectRatio="none" x="13508.789062" y="-3535.400391" width="2.197266" height="2.197266"/>
<image xlink:href="tile5_15.png" preserveAspectRatio="none" x="13510.986328" y="-3502.441406" width="2.197266" height="2.197266"/>
<image xlink:href="tile5_14.png" preserveAspectRatio="none" x="13510.986328" y="-3504.638672" width="2.197266" height="2.197266"/>
<image xlink:href="tile5_12.png" preserveAspectRatio="none" x="13510.986328" y="-3509.033203" width="2.197266" height="2.197266"/>
<image xlink:href="tile5_11.png" preserveAspectRatio="none" x="13510.986328" y="-3511.230469" width="2.197266" height="2.197266"/>
<image xlink:href="tile5_9.png" preserveAspectRatio="none" x="13510.986328" y="-3515.625" width="2.197266" height="2.197266"/>
<image xlink:href="tile5_8.png" preserveAspectRatio="none" x="13510.986328" y="-3517.822266" width="2.197266" height="2.197266"/>
<image xlink:href="tile5_7.png" preserveAspectRatio="none" x="13510.986328" y="-3520.019531" width="2.197266" height="2.197266"/>
<image xlink:href="tile5_6.png" preserveAspectRatio="none" x="13510.986328" y="-3522.216797" width="2.197266" height="2.197266"/>
<image xlink:href="tile5_5.png" preserveAspectRatio="none" x="13510.986328" y="-3524.414062" width="2.197266" height="2.197266"/>
<image xlink:href="tile5_4.png" preserveAspectRatio="none" x="13510.986328" y="-3526.611328" width="2.197266" height="2.197266"/>
<image xlink:href="tile5_3.png" preserveAspectRatio="none" x="13510.986328" y="-3528.808594" width="2.197266" height="2.197266"/>
<image xlink:href="tile5_2.png" preserveAspectRatio="none" x="13510.986328" y="-3531.005859" width="2.197266" height="2.197266"/>
<image xlink:href="tile5_1.png" preserveAspectRatio="none" x="13510.986328" y="-3533.203125" width="2.197266" height="2.197266"/>
<image xlink:href="tile5_0.png" preserveAspectRatio="none" x="13510.986328" y="-3535.400391" width="2.197266" height="2.197266"/>
<image xlink:href="tile6_15.png" preserveAspectRatio="none" x="13513.183594" y="-3502.441406" width="2.197266" height="2.197266"/>
<image xlink:href="tile6_14.png" preserveAspectRatio="none" x="13513.183594" y="-3504.638672" width="2.197266" height="2.197266"/>
<image xlink:href="tile6_13.png" preserveAspectRatio="none" x="13513.183594" y="-3506.835938" width="2.197266" height="2.197266"/>
<image xlink:href="tile6_12.png" preserveAspectRatio="none" x="13513.183594" y="-3509.033203" width="2.197266" height="2.197266"/>
<image xlink:href="tile6_11.png" preserveAspectRatio="none" x="13513.183594" y="-3511.230469" width="2.197266" height="2.197266"/>
<image xlink:href="tile6_9.png" preserveAspectRatio="none" x="13513.183594" y="-3515.625" width="2.197266" height="2.197266"/>
<image xlink:href="tile6_8.png" preserveAspectRatio="none" x="13513.183594" y="-3517.822266" width="2.197266" height="2.197266"/>
<image xlink:href="tile6_7.png" preserveAspectRatio="none" x="13513.183594" y="-3520.019531" width="2.197266" height="2.197266"/>
<image xlink:href="tile6_6.png" preserveAspectRatio="none" x="13513.183594" y="-3522.216797" width="2.197266" height="2.197266"/>
<image xlink:href="tile6_5.png" preserveAspectRatio="none" x="13513.183594" y="-3524.414062" width="2.197266" height="2.197266"/>
<image xlink:href="tile6_4.png" preserveAspectRatio="none" x="13513.183594" y="-3526.611328" width="2.197266" height="2.197266"/>
<image xlink:href="tile6_3.png" preserveAspectRatio="none" x="13513.183594" y="-3528.808594" width="2.197266" height="2.197266"/>
<image xlink:href="tile6_2.png" preserveAspectRatio="none" x="13513.183594" y="-3531.005859" width="2.197266" height="2.197266"/>
<image xlink:href="tile6_1.png" preserveAspectRatio="none" x="13513.183594" y="-3533.203125" width="2.197266" height="2.197266"/>
<image xlink:href="tile7_15.png" preserveAspectRatio="none" x="13515.380859" y="-3502.441406" width="2.197266" height="2.197266"/>
<image xlink:href="tile7_14.png" preserveAspectRatio="none" x="13515.380859" y="-3504.638672" width="2.197266" height="2.197266"/>
<image xlink:href="tile7_13.png" preserveAspectRatio="none" x="13515.380859" y="-3506.835938" width="2.197266" height="2.197266"/>
<image xlink:href="tile7_12.png" preserveAspectRatio="none" x="13515.380859" y="-3509.033203" width="2.197266" height="2.197266"/>
<image xlink:href="tile7_11.png" preserveAspectRatio="none" x="13515.380859" y="-3511.230469" width="2.197266" height="2.197266"/>
<image xlink:href="tile7_10.png" preserveAspectRatio="none" x="13515.380859" y="-3513.427734" width="2.197266" height="2.197266"/>
<image xlink:href="tile7_9.png" preserveAspectRatio="none" x="13515.380859" y="-3515.625" width="2.197266" height="2.197266"/>
<image xlink:href="tile7_7.png" preserveAspectRatio="none" x="13515.380859" y="-3520.019531" width="2.197266" height="2.197266"/>
<image xlink:href="tile7_6.png" preserveAspectRatio="none" x="13515.380859" y="-3522.216797" width="2.197266" height="2.197266"/>
<image xlink:href="tile7_4.png" preserveAspectRatio="none" x="13515.380859" y="-3526.611328" width="2.197266" height="2.197266"/>
<image xlink:href="tile7_2.png" preserveAspectRatio="none" x="13515.380859" y="-3531.005859" width="2.197266" height="2.197266"/>
<image xlink:href="tile7_1.png" preserveAspectRatio="none" x="13515.380859" y="-3533.203125" width="2.197266" height="2.197266"/>
<image xlink:href="tile8_14.png" preserveAspectRatio="none" x="13517.578125" y="-3504.638672" width="2.197266" height="2.197266"/>
<image xlink:href="tile8_13.png" preserveAspectRatio="none" x="13517.578125" y="-3506.835938" width="2.197266" height="2.197266"/>
<image xlink:href="tile8_12.png" preserveAspectRatio="none" x="13517.578125" y="-3509.033203" width="2.197266" height="2.197266"/>
<image xlink:href="tile8_11.png" preserveAspectRatio="none" x="13517.578125" y="-3511.230469" width="2.197266" height="2.197266"/>
<image xlink:href="tile8_10.png" preserveAspectRatio="none" x="13517.578125" y="-3513.427734" width="2.197266" height="2.197266"/>
<image xlink:href="tile8_9.png" preserveAspectRatio="none" x="13517.578125" y="-3515.625" width="2.197266" height="2.197266"/>
<image xlink:href="tile8_8.png" preserveAspectRatio="none" x="13517.578125" y="-3517.822266" width="2.197266" height="2.197266"/>
<image xlink:href="tile8_2.png" preserveAspectRatio="none" x="13517.578125" y="-3531.005859" width="2.197266" height="2.197266"/>
<image xlink:href="tile8_1.png" preserveAspectRatio="none" x="13517.578125" y="-3533.203125" width="2.197266" height="2.197266"/>
<image xlink:href="tile9_14.png" preserveAspectRatio="none" x="13519.775391" y="-3504.638672" width="2.197266" height="2.197266"/>
<image xlink:href="tile9_13.png" preserveAspectRatio="none" x="13519.775391" y="-3506.835938" width="2.197266" height="2.197266"/>
<image xlink:href="tile9_12.png" preserveAspectRatio="none" x="13519.775391" y="-3509.033203" width="2.197266" height="2.197266"/>
<image xlink:href="tile9_11.png" preserveAspectRatio="none" x="13519.775391" y="-3511.230469" width="2.197266" height="2.197266"/>
<image xlink:href="tile9_10.png" preserveAspectRatio="none" x="13519.775391" y="-3513.427734" width="2.197266" height="2.197266"/>
<image xlink:href="tile9_9.png" preserveAspectRatio="none" x="13519.775391" y="-3515.625" width="2.197266" height="2.197266"/>
<image xlink:href="tile9_2.png" preserveAspectRatio="none" x="13519.775391" y="-3531.005859" width="2.197266" height="2.197266"/>
<image xlink:href="tile9_1.png" preserveAspectRatio="none" x="13519.775391" y="-3533.203125" width="2.197266" height="2.197266"/>
<image xlink:href="tile9_0.png" preserveAspectRatio="none" x="13519.775391" y="-3535.400391" width="2.197266" height="2.197266"/>
<image xlink:href="tile10_14.png" preserveAspectRatio="none" x="13521.972656" y="-3504.638672" width="2.197266" height="2.197266"/>
<image xlink:href="tile10_13.png" preserveAspectRatio="none" x="13521.972656" y="-3506.835938" width="2.197266" height="2.197266"/>
<image xlink:href="tile10_12.png" preserveAspectRatio="none" x="13521.972656" y="-3509.033203" width="2.197266" height="2.197266"/>
<image xlink:href="tile10_11.png" preserveAspectRatio="none" x="13521.972656" y="-3511.230469" width="2.197266" height="2.197266"/>
<image xlink:href="tile10_10.png" preserveAspectRatio="none" x="13521.972656" y="-3513.427734" width="2.197266" height="2.197266"/>
<image xlink:href="tile10_9.png" preserveAspectRatio="none" x="13521.972656" y="-3515.625" width="2.197266" height="2.197266"/>
<image xlink:href="tile10_8.png" preserveAspectRatio="none" x="13521.972656" y="-3517.822266" width="2.197266" height="2.197266"/>
<image xlink:href="tile10_2.png" preserveAspectRatio="none" x="13521.972656" y="-3531.005859" width="2.197266" height="2.197266"/>
<image xlink:href="tile10_1.png" preserveAspectRatio="none" x="13521.972656" y="-3533.203125" width="2.197266" height="2.197266"/>
<image xlink:href="tile11_14.png" preserveAspectRatio="none" x="13524.169922" y="-3504.638672" width="2.197266" height="2.197266"/>
<image xlink:href="tile11_13.png" preserveAspectRatio="none" x="13524.169922" y="-3506.835938" width="2.197266" height="2.197266"/>
<image xlink:href="tile11_12.png" preserveAspectRatio="none" x="13524.169922" y="-3509.033203" width="2.197266" height="2.197266"/>
<image xlink:href="tile11_11.png" preserveAspectRatio="none" x="13524.169922" y="-3511.230469" width="2.197266" height="2.197266"/>
<image xlink:href="tile11_10.png" preserveAspectRatio="none" x="13524.169922" y="-3513.427734" width="2.197266" height="2.197266"/>
<image xlink:href="tile11_9.png" preserveAspectRatio="none" x="13524.169922" y="-3515.625" width="2.197266" height="2.197266"/>
<image xlink:href="tile11_8.png" preserveAspectRatio="none" x="13524.169922" y="-3517.822266" width="2.197266" height="2.197266"/>
<image xlink:href="tile11_2.png" preserveAspectRatio="none" x="13524.169922" y="-3531.005859" width="2.197266" height="2.197266"/>
<image xlink:href="tile11_1.png" preserveAspectRatio="none" x="13524.169922" y="-3533.203125" width="2.197266" height="2.197266"/>
<image xlink:href="tile12_15.png" preserveAspectRatio="none" x="13526.367188" y="-3502.441406" width="2.197266" height="2.197266"/>
<image xlink:href="tile12_14.png" preserveAspectRatio="none" x="13526.367188" y="-3504.638672" width="2.197266" height="2.197266"/>
<image xlink:href="tile12_13.png" preserveAspectRatio="none" x="13526.367188" y="-3506.835938" width="2.197266" height="2.197266"/>
<image xlink:href="tile12_12.png" preserveAspectRatio="none" x="13526.367188" y="-3509.033203" width="2.197266" height="2.197266"/>
<image xlink:href="tile12_11.png" preserveAspectRatio="none" x="13526.367188" y="-3511.230469" width="2.197266" height="2.197266"/>
<image xlink:href="tile12_9.png" preserveAspectRatio="none" x="13526.367188" y="-3515.625" width="2.197266" height="2.197266"/>
<image xlink:href="tile12_8.png" preserveAspectRatio="none" x="13526.367188" y="-3517.822266" width="2.197266" height="2.197266"/>
<image xlink:href="tile12_2.png" preserveAspectRatio="none" x="13526.367188" y="-3531.005859" width="2.197266" height="2.197266"/>
<image xlink:href="tile13_15.png" preserveAspectRatio="none" x="13528.564453" y="-3502.441406" width="2.197266" height="2.197266"/>
<image xlink:href="tile13_14.png" preserveAspectRatio="none" x="13528.564453" y="-3504.638672" width="2.197266" height="2.197266"/>
<image xlink:href="tile13_13.png" preserveAspectRatio="none" x="13528.564453" y="-3506.835938" width="2.197266" height="2.197266"/>
<image xlink:href="tile13_12.png" preserveAspectRatio="none" x="13528.564453" y="-3509.033203" width="2.197266" height="2.197266"/>
<image xlink:href="tile13_11.png" preserveAspectRatio="none" x="13528.564453" y="-3511.230469" width="2.197266" height="2.197266"/>
<image xlink:href="tile13_9.png" preserveAspectRatio="none" x="13528.564453" y="-3515.625" width="2.197266" height="2.197266"/>
<image xlink:href="tile14_14.png" preserveAspectRatio="none" x="13530.761719" y="-3504.638672" width="2.197266" height="2.197266"/>
<image xlink:href="tile14_13.png" preserveAspectRatio="none" x="13530.761719" y="-3506.835938" width="2.197266" height="2.197266"/>
<image xlink:href="tile14_12.png" preserveAspectRatio="none" x="13530.761719" y="-3509.033203" width="2.197266" height="2.197266"/>
<image xlink:href="tile14_11.png" preserveAspectRatio="none" x="13530.761719" y="-3511.230469" width="2.197266" height="2.197266"/>
<image xlink:href="tile14_10.png" preserveAspectRatio="none" x="13530.761719" y="-3513.427734" width="2.197266" height="2.197266"/>
<image xlink:href="tile14_9.png" preserveAspectRatio="none" x="13530.761719" y="-3515.625" width="2.197266" height="2.197266"/>
<image xlink:href="tile15_14.png" preserveAspectRatio="none" x="13532.958984" y="-3504.638672" width="2.197266" height="2.197266"/>
<image xlink:href="tile15_13.png" preserveAspectRatio="none" x="13532.958984" y="-3506.835938" width="2.197266" height="2.197266"/>
<image xlink:href="tile15_12.png" preserveAspectRatio="none" x="13532.958984" y="-3509.033203" width="2.197266" height="2.197266"/>
<image xlink:href="tile15_11.png" preserveAspectRatio="none" x="13532.958984" y="-3511.230469" width="2.197266" height="2.197266"/>
<image xlink:href="tile15_10.png" preserveAspectRatio="none" x="13532.958984" y="-3513.427734" width="2.197266" height="2.197266"/>
<image xlink:href="tile15_9.png" preserveAspectRatio="none" x="13532.958984" y="-3515.625" width="2.197266" height="2.197266"/>
</g>
</svg>
