<?xml version="1.0" encoding="UTF-8"?>
<svg  xmlns="http://www.w3.org/2000/svg" xmlns:xlink="http://www.w3.org/1999/xlink" xmlns:go="http://purl.org/svgmap/profile" viewBox="13600.0 -3466.666667 85.83749999999952 56.56246699999983" go:dataArea="13600.0 -3466.666667 85.83749999999952 56.56246699999983" >
<metadata>
 <rdf:RDF xmlns:rdf="http://www.w3.org/1999/02/22-rdf-syntax-ns#" xmlns:crs="http://opengis.org/xmldtds/transformations.dtd" xmlns:svg="http://www.w3.org/svg" >
  <rdf:Description>
   <crs:CoordinateReferenceSystem rdf:resource="http://purl.org/crs/84" svg:transform="matrix(100.0,0.0,0.0,-100.0,0.0,0.0)" />
  </rdf:Description>
 </rdf:RDF>
</metadata>
<globalCoordinateSystem srsName="http://purl.org/crs/84" transform="matrix(100.0,0.0,0.0,-100.0,0.0,0.0)" />
<g >
<image xlink:href="tile0_9.png" preserveAspectRatio="none" x="13598.876953" y="-3447.509766" width="2.197266" height="2.197266"/>
<image xlink:href="tile1_9.png" preserveAspectRatio="none" x="13601.074219" y="-3447.509766" width="2.197266" height="2.197266"/>
<image xlink:href="tile1_5.png" preserveAspectRatio="none" x="13601.074219" y="-3456.298828" width="2.197266" height="2.197266"/>
<image xlink:href="tile1_4.png" preserveAspectRatio="none" x="13601.074219" y="-3458.496094" width="2.197266" height="2.197266"/>
<image xlink:href="tile2_9.png" preserveAspectRatio="none" x="13603.271484" y="-3447.509766" width="2.197266" height="2.197266"/>
<image xlink:href="tile2_4.png" preserveAspectRatio="none" x="13603.271484" y="-3458.496094" width="2.197266" height="2.197266"/>
<image xlink:href="tile2_3.png" preserveAspectRatio="none" x="13603.271484" y="-3460.693359" width="2.197266" height="2.197266"/>
<image xlink:href="tile3_4.png" preserveAspectRatio="none" x="13605.46875" y="-3458.496094" width="2.197266" height="2.197266"/>
<image xlink:href="tile3_3.png" preserveAspectRatio="none" x="13605.46875" y="-3460.693359" width="2.197266" height="2.197266"/>
<image xlink:href="tile3_2.png" preserveAspectRatio="none" x="13605.46875" y="-3462.890625" width="2.197266" height="2.197266"/>
<image xlink:href="tile3_1.png" preserveAspectRatio="none" x="13605.46875" y="-3465.087891" width="2.197266" height="2.197266"/>
<image xlink:href="tile3_0.png" preserveAspectRatio="none" x="13605.46875" y="-3467.285156" width="2.197266" height="2.197266"/>
<image xlink:href="tile4_3.png" preserveAspectRatio="none" x="13607.666016" y="-3460.693359" width="2.197266" height="2.197266"/>
<image xlink:href="tile4_2.png" preserveAspectRatio="none" x="13607.666016" y="-3462.890625" width="2.197266" height="2.197266"/>
<image xlink:href="tile4_1.png" preserveAspectRatio="none" x="13607.666016" y="-3465.087891" width="2.197266" height="2.197266"/>
<image xlink:href="tile4_0.png" preserveAspectRatio="none" x="13607.666016" y="-3467.285156" width="2.197266" height="2.197266"/>
<image xlink:href="tile5_2.png" preserveAspectRatio="none" x="13609.863281" y="-3462.890625" width="2.197266" height="2.197266"/>
<image xlink:href="tile5_1.png" preserveAspectRatio="none" x="13609.863281" y="-3465.087891" width="2.197266" height="2.197266"/>
<image xlink:href="tile7_0.png" preserveAspectRatio="none" x="13614.257812" y="-3467.285156" width="2.197266" height="2.197266"/>
<image xlink:href="tile8_0.png" preserveAspectRatio="none" x="13616.455078" y="-3467.285156" width="2.197266" height="2.197266"/>
<image xlink:href="tile12_8.png" preserveAspectRatio="none" x="13625.244141" y="-3449.707031" width="2.197266" height="2.197266"/>
<image xlink:href="tile12_7.png" preserveAspectRatio="none" x="13625.244141" y="-3451.904297" width="2.197266" height="2.197266"/>
<image xlink:href="tile12_6.png" preserveAspectRatio="none" x="13625.244141" y="-3454.101562" width="2.197266" height="2.197266"/>
<image xlink:href="tile12_5.png" preserveAspectRatio="none" x="13625.244141" y="-3456.298828" width="2.197266" height="2.197266"/>
<image xlink:href="tile12_4.png" preserveAspectRatio="none" x="13625.244141" y="-3458.496094" width="2.197266" height="2.197266"/>
<image xlink:href="tile13_4.png" preserveAspectRatio="none" x="13627.441406" y="-3458.496094" width="2.197266" height="2.197266"/>
<image xlink:href="tile13_3.png" preserveAspectRatio="none" x="13627.441406" y="-3460.693359" width="2.197266" height="2.197266"/>
<image xlink:href="tile13_2.png" preserveAspectRatio="none" x="13627.441406" y="-3462.890625" width="2.197266" height="2.197266"/>
<image xlink:href="tile14_3.png" preserveAspectRatio="none" x="13629.638672" y="-3460.693359" width="2.197266" height="2.197266"/>
<image xlink:href="tile14_2.png" preserveAspectRatio="none" x="13629.638672" y="-3462.890625" width="2.197266" height="2.197266"/>
<image xlink:href="tile14_1.png" preserveAspectRatio="none" x="13629.638672" y="-3465.087891" width="2.197266" height="2.197266"/>
<image xlink:href="tile14_0.png" preserveAspectRatio="none" x="13629.638672" y="-3467.285156" width="2.197266" height="2.197266"/>
<image xlink:href="tile15_2.png" preserveAspectRatio="none" x="13631.835938" y="-3462.890625" width="2.197266" height="2.197266"/>
<image xlink:href="tile15_1.png" preserveAspectRatio="none" x="13631.835938" y="-3465.087891" width="2.197266" height="2.197266"/>
<image xlink:href="tile15_0.png" preserveAspectRatio="none" x="13631.835938" y="-3467.285156" width="2.197266" height="2.197266"/>
</g>
</svg>
