<?xml version="1.0" encoding="UTF-8"?>
<svg  xmlns="http://www.w3.org/2000/svg" xmlns:xlink="http://www.w3.org/1999/xlink" xmlns:go="http://purl.org/svgmap/profile" viewBox="13600.0 -3466.666667 85.83749999999952 56.56246699999983" go:dataArea="13600.0 -3466.666667 85.83749999999952 56.56246699999983" >
<metadata>
 <rdf:RDF xmlns:rdf="http://www.w3.org/1999/02/22-rdf-syntax-ns#" xmlns:crs="http://opengis.org/xmldtds/transformations.dtd" xmlns:svg="http://www.w3.org/svg" >
  <rdf:Description>
   <crs:CoordinateReferenceSystem rdf:resource="http://purl.org/crs/84" svg:transform="matrix(100.0,0.0,0.0,-100.0,0.0,0.0)" />
  </rdf:Description>
 </rdf:RDF>
</metadata>
<globalCoordinateSystem srsName="http://purl.org/crs/84" transform="matrix(100.0,0.0,0.0,-100.0,0.0,0.0)" />
<g >
<image xlink:href="tile0_12.png" preserveAspectRatio="none" x="13598.876953" y="-3440.917969" width="2.197266" height="2.197266"/>
<image xlink:href="tile1_11.png" preserveAspectRatio="none" x="13601.074219" y="-3443.115234" width="2.197266" height="2.197266"/>
<image xlink:href="tile2_11.png" preserveAspectRatio="none" x="13603.271484" y="-3443.115234" width="2.197266" height="2.197266"/>
<image xlink:href="tile3_11.png" preserveAspectRatio="none" x="13605.46875" y="-3443.115234" width="2.197266" height="2.197266"/>
<image xlink:href="tile8_25.png" preserveAspectRatio="none" x="13616.455078" y="-3412.353516" width="2.197266" height="2.197266"/>
<image xlink:href="tile9_25.png" preserveAspectRatio="none" x="13618.652344" y="-3412.353516" width="2.197266" height="2.197266"/>
<image xlink:href="tile10_26.png" preserveAspectRatio="none" x="13620.849609" y="-3410.15625" width="2.197266" height="2.197266"/>
<image xlink:href="tile10_25.png" preserveAspectRatio="none" x="13620.849609" y="-3412.353516" width="2.197266" height="2.197266"/>
<image xlink:href="tile10_24.png" preserveAspectRatio="none" x="13620.849609" y="-3414.550781" width="2.197266" height="2.197266"/>
<image xlink:href="tile10_23.png" preserveAspectRatio="none" x="13620.849609" y="-3416.748047" width="2.197266" height="2.197266"/>
<image xlink:href="tile10_22.png" preserveAspectRatio="none" x="13620.849609" y="-3418.945312" width="2.197266" height="2.197266"/>
<image xlink:href="tile11_25.png" preserveAspectRatio="none" x="13623.046875" y="-3412.353516" width="2.197266" height="2.197266"/>
<image xlink:href="tile11_24.png" preserveAspectRatio="none" x="13623.046875" y="-3414.550781" width="2.197266" height="2.197266"/>
<image xlink:href="tile11_23.png" preserveAspectRatio="none" x="13623.046875" y="-3416.748047" width="2.197266" height="2.197266"/>
<image xlink:href="tile12_23.png" preserveAspectRatio="none" x="13625.244141" y="-3416.748047" width="2.197266" height="2.197266"/>
<image xlink:href="tile13_21.png" preserveAspectRatio="none" x="13627.441406" y="-3421.142578" width="2.197266" height="2.197266"/>
<image xlink:href="tile13_20.png" preserveAspectRatio="none" x="13627.441406" y="-3423.339844" width="2.197266" height="2.197266"/>
<image xlink:href="tile13_19.png" preserveAspectRatio="none" x="13627.441406" y="-3425.537109" width="2.197266" height="2.197266"/>
<image xlink:href="tile14_21.png" preserveAspectRatio="none" x="13629.638672" y="-3421.142578" width="2.197266" height="2.197266"/>
<image xlink:href="tile14_20.png" preserveAspectRatio="none" x="13629.638672" y="-3423.339844" width="2.197266" height="2.197266"/>
<image xlink:href="tile15_21.png" preserveAspectRatio="none" x="13631.835938" y="-3421.142578" width="2.197266" height="2.197266"/>
<image xlink:href="tile15_20.png" preserveAspectRatio="none" x="13631.835938" y="-3423.339844" width="2.197266" height="2.197266"/>
<image xlink:href="tile15_18.png" preserveAspectRatio="none" x="13631.835938" y="-3427.734375" width="2.197266" height="2.197266"/>
</g>
</svg>
