<?xml version="1.0" encoding="UTF-8"?>
<svg  xmlns="http://www.w3.org/2000/svg" xmlns:xlink="http://www.w3.org/1999/xlink" xmlns:go="http://purl.org/svgmap/profile" viewBox="13100.0 -3466.666667 100.0 66.66666699999979" go:dataArea="13100.0 -3466.666667 100.0 66.66666699999979" >
<metadata>
 <rdf:RDF xmlns:rdf="http://www.w3.org/1999/02/22-rdf-syntax-ns#" xmlns:crs="http://opengis.org/xmldtds/transformations.dtd" xmlns:svg="http://www.w3.org/svg" >
  <rdf:Description>
   <crs:CoordinateReferenceSystem rdf:resource="http://purl.org/crs/84" svg:transform="matrix(100.0,0.0,0.0,-100.0,0.0,0.0)" />
  </rdf:Description>
 </rdf:RDF>
</metadata>
<globalCoordinateSystem srsName="http://purl.org/crs/84" transform="matrix(100.0,0.0,0.0,-100.0,0.0,0.0)" />
<g >
<image xlink:href="tile64_55.png" preserveAspectRatio="none" x="13169.311523" y="-3406.860352" width="1.098633" height="1.098633"/>
<image xlink:href="tile64_54.png" preserveAspectRatio="none" x="13169.311523" y="-3407.958984" width="1.098633" height="1.098633"/>
<image xlink:href="tile64_47.png" preserveAspectRatio="none" x="13169.311523" y="-3415.649414" width="1.098633" height="1.098633"/>
<image xlink:href="tile64_46.png" preserveAspectRatio="none" x="13169.311523" y="-3416.748047" width="1.098633" height="1.098633"/>
<image xlink:href="tile65_55.png" preserveAspectRatio="none" x="13170.410156" y="-3406.860352" width="1.098633" height="1.098633"/>
<image xlink:href="tile65_54.png" preserveAspectRatio="none" x="13170.410156" y="-3407.958984" width="1.098633" height="1.098633"/>
<image xlink:href="tile65_53.png" preserveAspectRatio="none" x="13170.410156" y="-3409.057617" width="1.098633" height="1.098633"/>
<image xlink:href="tile65_48.png" preserveAspectRatio="none" x="13170.410156" y="-3414.550781" width="1.098633" height="1.098633"/>
<image xlink:href="tile65_47.png" preserveAspectRatio="none" x="13170.410156" y="-3415.649414" width="1.098633" height="1.098633"/>
<image xlink:href="tile65_46.png" preserveAspectRatio="none" x="13170.410156" y="-3416.748047" width="1.098633" height="1.098633"/>
<image xlink:href="tile66_55.png" preserveAspectRatio="none" x="13171.508789" y="-3406.860352" width="1.098633" height="1.098633"/>
<image xlink:href="tile66_54.png" preserveAspectRatio="none" x="13171.508789" y="-3407.958984" width="1.098633" height="1.098633"/>
<image xlink:href="tile66_53.png" preserveAspectRatio="none" x="13171.508789" y="-3409.057617" width="1.098633" height="1.098633"/>
<image xlink:href="tile66_49.png" preserveAspectRatio="none" x="13171.508789" y="-3413.452148" width="1.098633" height="1.098633"/>
<image xlink:href="tile66_48.png" preserveAspectRatio="none" x="13171.508789" y="-3414.550781" width="1.098633" height="1.098633"/>
<image xlink:href="tile66_47.png" preserveAspectRatio="none" x="13171.508789" y="-3415.649414" width="1.098633" height="1.098633"/>
<image xlink:href="tile67_55.png" preserveAspectRatio="none" x="13172.607422" y="-3406.860352" width="1.098633" height="1.098633"/>
<image xlink:href="tile67_54.png" preserveAspectRatio="none" x="13172.607422" y="-3407.958984" width="1.098633" height="1.098633"/>
<image xlink:href="tile67_48.png" preserveAspectRatio="none" x="13172.607422" y="-3414.550781" width="1.098633" height="1.098633"/>
<image xlink:href="tile67_47.png" preserveAspectRatio="none" x="13172.607422" y="-3415.649414" width="1.098633" height="1.098633"/>
<image xlink:href="tile68_55.png" preserveAspectRatio="none" x="13173.706055" y="-3406.860352" width="1.098633" height="1.098633"/>
<image xlink:href="tile68_54.png" preserveAspectRatio="none" x="13173.706055" y="-3407.958984" width="1.098633" height="1.098633"/>
<image xlink:href="tile68_47.png" preserveAspectRatio="none" x="13173.706055" y="-3415.649414" width="1.098633" height="1.098633"/>
<image xlink:href="tile69_56.png" preserveAspectRatio="none" x="13174.804688" y="-3405.761719" width="1.098633" height="1.098633"/>
<image xlink:href="tile69_55.png" preserveAspectRatio="none" x="13174.804688" y="-3406.860352" width="1.098633" height="1.098633"/>
<image xlink:href="tile69_54.png" preserveAspectRatio="none" x="13174.804688" y="-3407.958984" width="1.098633" height="1.098633"/>
<image xlink:href="tile70_56.png" preserveAspectRatio="none" x="13175.90332" y="-3405.761719" width="1.098633" height="1.098633"/>
<image xlink:href="tile70_55.png" preserveAspectRatio="none" x="13175.90332" y="-3406.860352" width="1.098633" height="1.098633"/>
<image xlink:href="tile70_54.png" preserveAspectRatio="none" x="13175.90332" y="-3407.958984" width="1.098633" height="1.098633"/>
<image xlink:href="tile71_56.png" preserveAspectRatio="none" x="13177.001953" y="-3405.761719" width="1.098633" height="1.098633"/>
<image xlink:href="tile71_55.png" preserveAspectRatio="none" x="13177.001953" y="-3406.860352" width="1.098633" height="1.098633"/>
<image xlink:href="tile71_54.png" preserveAspectRatio="none" x="13177.001953" y="-3407.958984" width="1.098633" height="1.098633"/>
<image xlink:href="tile71_53.png" preserveAspectRatio="none" x="13177.001953" y="-3409.057617" width="1.098633" height="1.098633"/>
<image xlink:href="tile72_56.png" preserveAspectRatio="none" x="13178.100586" y="-3405.761719" width="1.098633" height="1.098633"/>
<image xlink:href="tile72_55.png" preserveAspectRatio="none" x="13178.100586" y="-3406.860352" width="1.098633" height="1.098633"/>
<image xlink:href="tile72_54.png" preserveAspectRatio="none" x="13178.100586" y="-3407.958984" width="1.098633" height="1.098633"/>
<image xlink:href="tile72_53.png" preserveAspectRatio="none" x="13178.100586" y="-3409.057617" width="1.098633" height="1.098633"/>
<image xlink:href="tile72_52.png" preserveAspectRatio="none" x="13178.100586" y="-3410.15625" width="1.098633" height="1.098633"/>
<image xlink:href="tile72_51.png" preserveAspectRatio="none" x="13178.100586" y="-3411.254883" width="1.098633" height="1.098633"/>
<image xlink:href="tile73_56.png" preserveAspectRatio="none" x="13179.199219" y="-3405.761719" width="1.098633" height="1.098633"/>
<image xlink:href="tile73_55.png" preserveAspectRatio="none" x="13179.199219" y="-3406.860352" width="1.098633" height="1.098633"/>
<image xlink:href="tile73_54.png" preserveAspectRatio="none" x="13179.199219" y="-3407.958984" width="1.098633" height="1.098633"/>
<image xlink:href="tile73_52.png" preserveAspectRatio="none" x="13179.199219" y="-3410.15625" width="1.098633" height="1.098633"/>
<image xlink:href="tile73_51.png" preserveAspectRatio="none" x="13179.199219" y="-3411.254883" width="1.098633" height="1.098633"/>
<image xlink:href="tile76_60.png" preserveAspectRatio="none" x="13182.495117" y="-3401.367188" width="1.098633" height="1.098633"/>
<image xlink:href="tile76_59.png" preserveAspectRatio="none" x="13182.495117" y="-3402.46582" width="1.098633" height="1.098633"/>
<image xlink:href="tile76_58.png" preserveAspectRatio="none" x="13182.495117" y="-3403.564453" width="1.098633" height="1.098633"/>
<image xlink:href="tile76_48.png" preserveAspectRatio="none" x="13182.495117" y="-3414.550781" width="1.098633" height="1.098633"/>
<image xlink:href="tile77_60.png" preserveAspectRatio="none" x="13183.59375" y="-3401.367188" width="1.098633" height="1.098633"/>
<image xlink:href="tile77_59.png" preserveAspectRatio="none" x="13183.59375" y="-3402.46582" width="1.098633" height="1.098633"/>
<image xlink:href="tile77_58.png" preserveAspectRatio="none" x="13183.59375" y="-3403.564453" width="1.098633" height="1.098633"/>
<image xlink:href="tile77_57.png" preserveAspectRatio="none" x="13183.59375" y="-3404.663086" width="1.098633" height="1.098633"/>
<image xlink:href="tile77_49.png" preserveAspectRatio="none" x="13183.59375" y="-3413.452148" width="1.098633" height="1.098633"/>
<image xlink:href="tile77_48.png" preserveAspectRatio="none" x="13183.59375" y="-3414.550781" width="1.098633" height="1.098633"/>
<image xlink:href="tile78_60.png" preserveAspectRatio="none" x="13184.692383" y="-3401.367188" width="1.098633" height="1.098633"/>
<image xlink:href="tile78_59.png" preserveAspectRatio="none" x="13184.692383" y="-3402.46582" width="1.098633" height="1.098633"/>
<image xlink:href="tile78_58.png" preserveAspectRatio="none" x="13184.692383" y="-3403.564453" width="1.098633" height="1.098633"/>
<image xlink:href="tile78_57.png" preserveAspectRatio="none" x="13184.692383" y="-3404.663086" width="1.098633" height="1.098633"/>
<image xlink:href="tile79_61.png" preserveAspectRatio="none" x="13185.791016" y="-3400.268555" width="1.098633" height="1.098633"/>
<image xlink:href="tile79_60.png" preserveAspectRatio="none" x="13185.791016" y="-3401.367188" width="1.098633" height="1.098633"/>
<image xlink:href="tile79_59.png" preserveAspectRatio="none" x="13185.791016" y="-3402.46582" width="1.098633" height="1.098633"/>
<image xlink:href="tile79_58.png" preserveAspectRatio="none" x="13185.791016" y="-3403.564453" width="1.098633" height="1.098633"/>
<image xlink:href="tile79_57.png" preserveAspectRatio="none" x="13185.791016" y="-3404.663086" width="1.098633" height="1.098633"/>
</g>
</svg>
