<?xml version="1.0" encoding="UTF-8"?>
<svg  xmlns="http://www.w3.org/2000/svg" xmlns:xlink="http://www.w3.org/1999/xlink" xmlns:go="http://purl.org/svgmap/profile" viewBox="13100.0 -3466.666667 100.0 66.66666699999979" go:dataArea="13100.0 -3466.666667 100.0 66.66666699999979" >
<metadata>
 <rdf:RDF xmlns:rdf="http://www.w3.org/1999/02/22-rdf-syntax-ns#" xmlns:crs="http://opengis.org/xmldtds/transformations.dtd" xmlns:svg="http://www.w3.org/svg" >
  <rdf:Description>
   <crs:CoordinateReferenceSystem rdf:resource="http://purl.org/crs/84" svg:transform="matrix(100.0,0.0,0.0,-100.0,0.0,0.0)" />
  </rdf:Description>
 </rdf:RDF>
</metadata>
<globalCoordinateSystem srsName="http://purl.org/crs/84" transform="matrix(100.0,0.0,0.0,-100.0,0.0,0.0)" />
<g >
<image xlink:href="tile0_37.png" preserveAspectRatio="none" x="13098.999023" y="-3426.635742" width="1.098633" height="1.098633"/>
<image xlink:href="tile0_36.png" preserveAspectRatio="none" x="13098.999023" y="-3427.734375" width="1.098633" height="1.098633"/>
<image xlink:href="tile1_38.png" preserveAspectRatio="none" x="13100.097656" y="-3425.537109" width="1.098633" height="1.098633"/>
<image xlink:href="tile1_37.png" preserveAspectRatio="none" x="13100.097656" y="-3426.635742" width="1.098633" height="1.098633"/>
<image xlink:href="tile1_36.png" preserveAspectRatio="none" x="13100.097656" y="-3427.734375" width="1.098633" height="1.098633"/>
<image xlink:href="tile2_38.png" preserveAspectRatio="none" x="13101.196289" y="-3425.537109" width="1.098633" height="1.098633"/>
<image xlink:href="tile2_37.png" preserveAspectRatio="none" x="13101.196289" y="-3426.635742" width="1.098633" height="1.098633"/>
<image xlink:href="tile6_45.png" preserveAspectRatio="none" x="13105.59082" y="-3417.84668" width="1.098633" height="1.098633"/>
<image xlink:href="tile6_44.png" preserveAspectRatio="none" x="13105.59082" y="-3418.945312" width="1.098633" height="1.098633"/>
<image xlink:href="tile6_43.png" preserveAspectRatio="none" x="13105.59082" y="-3420.043945" width="1.098633" height="1.098633"/>
<image xlink:href="tile7_45.png" preserveAspectRatio="none" x="13106.689453" y="-3417.84668" width="1.098633" height="1.098633"/>
<image xlink:href="tile7_44.png" preserveAspectRatio="none" x="13106.689453" y="-3418.945312" width="1.098633" height="1.098633"/>
<image xlink:href="tile7_43.png" preserveAspectRatio="none" x="13106.689453" y="-3420.043945" width="1.098633" height="1.098633"/>
<image xlink:href="tile7_42.png" preserveAspectRatio="none" x="13106.689453" y="-3421.142578" width="1.098633" height="1.098633"/>
<image xlink:href="tile8_44.png" preserveAspectRatio="none" x="13107.788086" y="-3418.945312" width="1.098633" height="1.098633"/>
<image xlink:href="tile8_43.png" preserveAspectRatio="none" x="13107.788086" y="-3420.043945" width="1.098633" height="1.098633"/>
<image xlink:href="tile8_42.png" preserveAspectRatio="none" x="13107.788086" y="-3421.142578" width="1.098633" height="1.098633"/>
<image xlink:href="tile9_42.png" preserveAspectRatio="none" x="13108.886719" y="-3421.142578" width="1.098633" height="1.098633"/>
<image xlink:href="tile9_41.png" preserveAspectRatio="none" x="13108.886719" y="-3422.241211" width="1.098633" height="1.098633"/>
<image xlink:href="tile9_35.png" preserveAspectRatio="none" x="13108.886719" y="-3428.833008" width="1.098633" height="1.098633"/>
<image xlink:href="tile9_34.png" preserveAspectRatio="none" x="13108.886719" y="-3429.931641" width="1.098633" height="1.098633"/>
<image xlink:href="tile10_41.png" preserveAspectRatio="none" x="13109.985352" y="-3422.241211" width="1.098633" height="1.098633"/>
<image xlink:href="tile10_40.png" preserveAspectRatio="none" x="13109.985352" y="-3423.339844" width="1.098633" height="1.098633"/>
<image xlink:href="tile10_35.png" preserveAspectRatio="none" x="13109.985352" y="-3428.833008" width="1.098633" height="1.098633"/>
<image xlink:href="tile10_34.png" preserveAspectRatio="none" x="13109.985352" y="-3429.931641" width="1.098633" height="1.098633"/>
<image xlink:href="tile11_41.png" preserveAspectRatio="none" x="13111.083984" y="-3422.241211" width="1.098633" height="1.098633"/>
<image xlink:href="tile11_40.png" preserveAspectRatio="none" x="13111.083984" y="-3423.339844" width="1.098633" height="1.098633"/>
<image xlink:href="tile11_39.png" preserveAspectRatio="none" x="13111.083984" y="-3424.438477" width="1.098633" height="1.098633"/>
<image xlink:href="tile11_37.png" preserveAspectRatio="none" x="13111.083984" y="-3426.635742" width="1.098633" height="1.098633"/>
<image xlink:href="tile11_36.png" preserveAspectRatio="none" x="13111.083984" y="-3427.734375" width="1.098633" height="1.098633"/>
<image xlink:href="tile11_35.png" preserveAspectRatio="none" x="13111.083984" y="-3428.833008" width="1.098633" height="1.098633"/>
</g>
</svg>
