<?xml version="1.0" encoding="UTF-8"?>
<svg  xmlns="http://www.w3.org/2000/svg" xmlns:xlink="http://www.w3.org/1999/xlink" xmlns:go="http://purl.org/svgmap/profile" viewBox="13100.0 -3466.666667 100.0 66.66666699999979" go:dataArea="13100.0 -3466.666667 100.0 66.66666699999979" >
<metadata>
 <rdf:RDF xmlns:rdf="http://www.w3.org/1999/02/22-rdf-syntax-ns#" xmlns:crs="http://opengis.org/xmldtds/transformations.dtd" xmlns:svg="http://www.w3.org/svg" >
  <rdf:Description>
   <crs:CoordinateReferenceSystem rdf:resource="http://purl.org/crs/84" svg:transform="matrix(100.0,0.0,0.0,-100.0,0.0,0.0)" />
  </rdf:Description>
 </rdf:RDF>
</metadata>
<globalCoordinateSystem srsName="http://purl.org/crs/84" transform="matrix(100.0,0.0,0.0,-100.0,0.0,0.0)" />
<g >
<image xlink:href="tile32_44.png" preserveAspectRatio="none" x="13134.155273" y="-3418.945312" width="1.098633" height="1.098633"/>
<image xlink:href="tile32_43.png" preserveAspectRatio="none" x="13134.155273" y="-3420.043945" width="1.098633" height="1.098633"/>
<image xlink:href="tile32_42.png" preserveAspectRatio="none" x="13134.155273" y="-3421.142578" width="1.098633" height="1.098633"/>
<image xlink:href="tile32_41.png" preserveAspectRatio="none" x="13134.155273" y="-3422.241211" width="1.098633" height="1.098633"/>
<image xlink:href="tile32_40.png" preserveAspectRatio="none" x="13134.155273" y="-3423.339844" width="1.098633" height="1.098633"/>
<image xlink:href="tile32_39.png" preserveAspectRatio="none" x="13134.155273" y="-3424.438477" width="1.098633" height="1.098633"/>
<image xlink:href="tile33_42.png" preserveAspectRatio="none" x="13135.253906" y="-3421.142578" width="1.098633" height="1.098633"/>
<image xlink:href="tile33_40.png" preserveAspectRatio="none" x="13135.253906" y="-3423.339844" width="1.098633" height="1.098633"/>
<image xlink:href="tile33_39.png" preserveAspectRatio="none" x="13135.253906" y="-3424.438477" width="1.098633" height="1.098633"/>
<image xlink:href="tile33_38.png" preserveAspectRatio="none" x="13135.253906" y="-3425.537109" width="1.098633" height="1.098633"/>
<image xlink:href="tile34_38.png" preserveAspectRatio="none" x="13136.352539" y="-3425.537109" width="1.098633" height="1.098633"/>
<image xlink:href="tile36_32.png" preserveAspectRatio="none" x="13138.549805" y="-3432.128906" width="1.098633" height="1.098633"/>
<image xlink:href="tile36_31.png" preserveAspectRatio="none" x="13138.549805" y="-3433.227539" width="1.098633" height="1.098633"/>
<image xlink:href="tile37_31.png" preserveAspectRatio="none" x="13139.648438" y="-3433.227539" width="1.098633" height="1.098633"/>
<image xlink:href="tile37_30.png" preserveAspectRatio="none" x="13139.648438" y="-3434.326172" width="1.098633" height="1.098633"/>
<image xlink:href="tile38_31.png" preserveAspectRatio="none" x="13140.74707" y="-3433.227539" width="1.098633" height="1.098633"/>
<image xlink:href="tile38_30.png" preserveAspectRatio="none" x="13140.74707" y="-3434.326172" width="1.098633" height="1.098633"/>
<image xlink:href="tile39_45.png" preserveAspectRatio="none" x="13141.845703" y="-3417.84668" width="1.098633" height="1.098633"/>
<image xlink:href="tile40_45.png" preserveAspectRatio="none" x="13142.944336" y="-3417.84668" width="1.098633" height="1.098633"/>
<image xlink:href="tile40_44.png" preserveAspectRatio="none" x="13142.944336" y="-3418.945312" width="1.098633" height="1.098633"/>
<image xlink:href="tile41_45.png" preserveAspectRatio="none" x="13144.042969" y="-3417.84668" width="1.098633" height="1.098633"/>
<image xlink:href="tile42_45.png" preserveAspectRatio="none" x="13145.141602" y="-3417.84668" width="1.098633" height="1.098633"/>
<image xlink:href="tile43_45.png" preserveAspectRatio="none" x="13146.240234" y="-3417.84668" width="1.098633" height="1.098633"/>
<image xlink:href="tile44_45.png" preserveAspectRatio="none" x="13147.338867" y="-3417.84668" width="1.098633" height="1.098633"/>
<image xlink:href="tile44_44.png" preserveAspectRatio="none" x="13147.338867" y="-3418.945312" width="1.098633" height="1.098633"/>
<image xlink:href="tile44_43.png" preserveAspectRatio="none" x="13147.338867" y="-3420.043945" width="1.098633" height="1.098633"/>
<image xlink:href="tile45_45.png" preserveAspectRatio="none" x="13148.4375" y="-3417.84668" width="1.098633" height="1.098633"/>
<image xlink:href="tile45_44.png" preserveAspectRatio="none" x="13148.4375" y="-3418.945312" width="1.098633" height="1.098633"/>
<image xlink:href="tile46_44.png" preserveAspectRatio="none" x="13149.536133" y="-3418.945312" width="1.098633" height="1.098633"/>
<image xlink:href="tile46_43.png" preserveAspectRatio="none" x="13149.536133" y="-3420.043945" width="1.098633" height="1.098633"/>
<image xlink:href="tile47_45.png" preserveAspectRatio="none" x="13150.634766" y="-3417.84668" width="1.098633" height="1.098633"/>
<image xlink:href="tile47_43.png" preserveAspectRatio="none" x="13150.634766" y="-3420.043945" width="1.098633" height="1.098633"/>
<image xlink:href="tile47_42.png" preserveAspectRatio="none" x="13150.634766" y="-3421.142578" width="1.098633" height="1.098633"/>
<image xlink:href="tile47_41.png" preserveAspectRatio="none" x="13150.634766" y="-3422.241211" width="1.098633" height="1.098633"/>
</g>
</svg>
