<?xml version="1.0" encoding="UTF-8"?>
<svg  xmlns="http://www.w3.org/2000/svg" xmlns:xlink="http://www.w3.org/1999/xlink" xmlns:go="http://purl.org/svgmap/profile" viewBox="13100.0 -3466.666667 100.0 66.66666699999979" go:dataArea="13100.0 -3466.666667 100.0 66.66666699999979" >
<metadata>
 <rdf:RDF xmlns:rdf="http://www.w3.org/1999/02/22-rdf-syntax-ns#" xmlns:crs="http://opengis.org/xmldtds/transformations.dtd" xmlns:svg="http://www.w3.org/svg" >
  <rdf:Description>
   <crs:CoordinateReferenceSystem rdf:resource="http://purl.org/crs/84" svg:transform="matrix(100.0,0.0,0.0,-100.0,0.0,0.0)" />
  </rdf:Description>
 </rdf:RDF>
</metadata>
<globalCoordinateSystem srsName="http://purl.org/crs/84" transform="matrix(100.0,0.0,0.0,-100.0,0.0,0.0)" />
<g >
<image xlink:href="tile34_26.png" preserveAspectRatio="none" x="13136.352539" y="-3438.720703" width="1.098633" height="1.098633"/>
<image xlink:href="tile34_25.png" preserveAspectRatio="none" x="13136.352539" y="-3439.819336" width="1.098633" height="1.098633"/>
<image xlink:href="tile34_23.png" preserveAspectRatio="none" x="13136.352539" y="-3442.016602" width="1.098633" height="1.098633"/>
<image xlink:href="tile35_26.png" preserveAspectRatio="none" x="13137.451172" y="-3438.720703" width="1.098633" height="1.098633"/>
<image xlink:href="tile35_25.png" preserveAspectRatio="none" x="13137.451172" y="-3439.819336" width="1.098633" height="1.098633"/>
<image xlink:href="tile35_24.png" preserveAspectRatio="none" x="13137.451172" y="-3440.917969" width="1.098633" height="1.098633"/>
<image xlink:href="tile35_23.png" preserveAspectRatio="none" x="13137.451172" y="-3442.016602" width="1.098633" height="1.098633"/>
<image xlink:href="tile36_25.png" preserveAspectRatio="none" x="13138.549805" y="-3439.819336" width="1.098633" height="1.098633"/>
<image xlink:href="tile36_24.png" preserveAspectRatio="none" x="13138.549805" y="-3440.917969" width="1.098633" height="1.098633"/>
<image xlink:href="tile36_23.png" preserveAspectRatio="none" x="13138.549805" y="-3442.016602" width="1.098633" height="1.098633"/>
<image xlink:href="tile37_26.png" preserveAspectRatio="none" x="13139.648438" y="-3438.720703" width="1.098633" height="1.098633"/>
<image xlink:href="tile37_25.png" preserveAspectRatio="none" x="13139.648438" y="-3439.819336" width="1.098633" height="1.098633"/>
<image xlink:href="tile37_24.png" preserveAspectRatio="none" x="13139.648438" y="-3440.917969" width="1.098633" height="1.098633"/>
<image xlink:href="tile37_23.png" preserveAspectRatio="none" x="13139.648438" y="-3442.016602" width="1.098633" height="1.098633"/>
<image xlink:href="tile37_22.png" preserveAspectRatio="none" x="13139.648438" y="-3443.115234" width="1.098633" height="1.098633"/>
<image xlink:href="tile38_29.png" preserveAspectRatio="none" x="13140.74707" y="-3435.424805" width="1.098633" height="1.098633"/>
<image xlink:href="tile38_28.png" preserveAspectRatio="none" x="13140.74707" y="-3436.523438" width="1.098633" height="1.098633"/>
<image xlink:href="tile38_26.png" preserveAspectRatio="none" x="13140.74707" y="-3438.720703" width="1.098633" height="1.098633"/>
<image xlink:href="tile38_25.png" preserveAspectRatio="none" x="13140.74707" y="-3439.819336" width="1.098633" height="1.098633"/>
<image xlink:href="tile38_24.png" preserveAspectRatio="none" x="13140.74707" y="-3440.917969" width="1.098633" height="1.098633"/>
<image xlink:href="tile38_23.png" preserveAspectRatio="none" x="13140.74707" y="-3442.016602" width="1.098633" height="1.098633"/>
<image xlink:href="tile38_22.png" preserveAspectRatio="none" x="13140.74707" y="-3443.115234" width="1.098633" height="1.098633"/>
<image xlink:href="tile39_29.png" preserveAspectRatio="none" x="13141.845703" y="-3435.424805" width="1.098633" height="1.098633"/>
<image xlink:href="tile39_28.png" preserveAspectRatio="none" x="13141.845703" y="-3436.523438" width="1.098633" height="1.098633"/>
<image xlink:href="tile39_26.png" preserveAspectRatio="none" x="13141.845703" y="-3438.720703" width="1.098633" height="1.098633"/>
<image xlink:href="tile39_25.png" preserveAspectRatio="none" x="13141.845703" y="-3439.819336" width="1.098633" height="1.098633"/>
<image xlink:href="tile40_28.png" preserveAspectRatio="none" x="13142.944336" y="-3436.523438" width="1.098633" height="1.098633"/>
<image xlink:href="tile40_27.png" preserveAspectRatio="none" x="13142.944336" y="-3437.62207" width="1.098633" height="1.098633"/>
<image xlink:href="tile40_26.png" preserveAspectRatio="none" x="13142.944336" y="-3438.720703" width="1.098633" height="1.098633"/>
<image xlink:href="tile41_28.png" preserveAspectRatio="none" x="13144.042969" y="-3436.523438" width="1.098633" height="1.098633"/>
<image xlink:href="tile41_27.png" preserveAspectRatio="none" x="13144.042969" y="-3437.62207" width="1.098633" height="1.098633"/>
<image xlink:href="tile41_26.png" preserveAspectRatio="none" x="13144.042969" y="-3438.720703" width="1.098633" height="1.098633"/>
<image xlink:href="tile41_19.png" preserveAspectRatio="none" x="13144.042969" y="-3446.411133" width="1.098633" height="1.098633"/>
<image xlink:href="tile41_18.png" preserveAspectRatio="none" x="13144.042969" y="-3447.509766" width="1.098633" height="1.098633"/>
<image xlink:href="tile41_17.png" preserveAspectRatio="none" x="13144.042969" y="-3448.608398" width="1.098633" height="1.098633"/>
<image xlink:href="tile42_29.png" preserveAspectRatio="none" x="13145.141602" y="-3435.424805" width="1.098633" height="1.098633"/>
<image xlink:href="tile42_28.png" preserveAspectRatio="none" x="13145.141602" y="-3436.523438" width="1.098633" height="1.098633"/>
<image xlink:href="tile42_19.png" preserveAspectRatio="none" x="13145.141602" y="-3446.411133" width="1.098633" height="1.098633"/>
<image xlink:href="tile42_18.png" preserveAspectRatio="none" x="13145.141602" y="-3447.509766" width="1.098633" height="1.098633"/>
<image xlink:href="tile43_28.png" preserveAspectRatio="none" x="13146.240234" y="-3436.523438" width="1.098633" height="1.098633"/>
<image xlink:href="tile43_19.png" preserveAspectRatio="none" x="13146.240234" y="-3446.411133" width="1.098633" height="1.098633"/>
<image xlink:href="tile43_18.png" preserveAspectRatio="none" x="13146.240234" y="-3447.509766" width="1.098633" height="1.098633"/>
<image xlink:href="tile43_15.png" preserveAspectRatio="none" x="13146.240234" y="-3450.805664" width="1.098633" height="1.098633"/>
<image xlink:href="tile44_28.png" preserveAspectRatio="none" x="13147.338867" y="-3436.523438" width="1.098633" height="1.098633"/>
<image xlink:href="tile44_18.png" preserveAspectRatio="none" x="13147.338867" y="-3447.509766" width="1.098633" height="1.098633"/>
<image xlink:href="tile44_15.png" preserveAspectRatio="none" x="13147.338867" y="-3450.805664" width="1.098633" height="1.098633"/>
<image xlink:href="tile44_14.png" preserveAspectRatio="none" x="13147.338867" y="-3451.904297" width="1.098633" height="1.098633"/>
<image xlink:href="tile45_15.png" preserveAspectRatio="none" x="13148.4375" y="-3450.805664" width="1.098633" height="1.098633"/>
<image xlink:href="tile45_14.png" preserveAspectRatio="none" x="13148.4375" y="-3451.904297" width="1.098633" height="1.098633"/>
<image xlink:href="tile46_15.png" preserveAspectRatio="none" x="13149.536133" y="-3450.805664" width="1.098633" height="1.098633"/>
<image xlink:href="tile46_14.png" preserveAspectRatio="none" x="13149.536133" y="-3451.904297" width="1.098633" height="1.098633"/>
<image xlink:href="tile47_19.png" preserveAspectRatio="none" x="13150.634766" y="-3446.411133" width="1.098633" height="1.098633"/>
<image xlink:href="tile47_14.png" preserveAspectRatio="none" x="13150.634766" y="-3451.904297" width="1.098633" height="1.098633"/>
</g>
</svg>
