<?xml version="1.0" encoding="UTF-8"?>
<svg  xmlns="http://www.w3.org/2000/svg" xmlns:xlink="http://www.w3.org/1999/xlink" xmlns:go="http://purl.org/svgmap/profile" viewBox="13100.0 -3466.666667 100.0 66.66666699999979" go:dataArea="13100.0 -3466.666667 100.0 66.66666699999979" >
<metadata>
 <rdf:RDF xmlns:rdf="http://www.w3.org/1999/02/22-rdf-syntax-ns#" xmlns:crs="http://opengis.org/xmldtds/transformations.dtd" xmlns:svg="http://www.w3.org/svg" >
  <rdf:Description>
   <crs:CoordinateReferenceSystem rdf:resource="http://purl.org/crs/84" svg:transform="matrix(100.0,0.0,0.0,-100.0,0.0,0.0)" />
  </rdf:Description>
 </rdf:RDF>
</metadata>
<globalCoordinateSystem srsName="http://purl.org/crs/84" transform="matrix(100.0,0.0,0.0,-100.0,0.0,0.0)" />
<g >
<image xlink:href="tile0_49.png" preserveAspectRatio="none" x="13098.999023" y="-3413.452148" width="1.098633" height="1.098633"/>
<image xlink:href="tile1_56.png" preserveAspectRatio="none" x="13100.097656" y="-3405.761719" width="1.098633" height="1.098633"/>
<image xlink:href="tile1_55.png" preserveAspectRatio="none" x="13100.097656" y="-3406.860352" width="1.098633" height="1.098633"/>
<image xlink:href="tile1_54.png" preserveAspectRatio="none" x="13100.097656" y="-3407.958984" width="1.098633" height="1.098633"/>
<image xlink:href="tile1_53.png" preserveAspectRatio="none" x="13100.097656" y="-3409.057617" width="1.098633" height="1.098633"/>
<image xlink:href="tile1_52.png" preserveAspectRatio="none" x="13100.097656" y="-3410.15625" width="1.098633" height="1.098633"/>
<image xlink:href="tile1_50.png" preserveAspectRatio="none" x="13100.097656" y="-3412.353516" width="1.098633" height="1.098633"/>
<image xlink:href="tile1_49.png" preserveAspectRatio="none" x="13100.097656" y="-3413.452148" width="1.098633" height="1.098633"/>
<image xlink:href="tile2_57.png" preserveAspectRatio="none" x="13101.196289" y="-3404.663086" width="1.098633" height="1.098633"/>
<image xlink:href="tile2_56.png" preserveAspectRatio="none" x="13101.196289" y="-3405.761719" width="1.098633" height="1.098633"/>
<image xlink:href="tile2_55.png" preserveAspectRatio="none" x="13101.196289" y="-3406.860352" width="1.098633" height="1.098633"/>
<image xlink:href="tile2_50.png" preserveAspectRatio="none" x="13101.196289" y="-3412.353516" width="1.098633" height="1.098633"/>
<image xlink:href="tile2_49.png" preserveAspectRatio="none" x="13101.196289" y="-3413.452148" width="1.098633" height="1.098633"/>
<image xlink:href="tile3_57.png" preserveAspectRatio="none" x="13102.294922" y="-3404.663086" width="1.098633" height="1.098633"/>
<image xlink:href="tile3_56.png" preserveAspectRatio="none" x="13102.294922" y="-3405.761719" width="1.098633" height="1.098633"/>
<image xlink:href="tile3_55.png" preserveAspectRatio="none" x="13102.294922" y="-3406.860352" width="1.098633" height="1.098633"/>
<image xlink:href="tile3_54.png" preserveAspectRatio="none" x="13102.294922" y="-3407.958984" width="1.098633" height="1.098633"/>
<image xlink:href="tile3_50.png" preserveAspectRatio="none" x="13102.294922" y="-3412.353516" width="1.098633" height="1.098633"/>
<image xlink:href="tile3_49.png" preserveAspectRatio="none" x="13102.294922" y="-3413.452148" width="1.098633" height="1.098633"/>
<image xlink:href="tile4_56.png" preserveAspectRatio="none" x="13103.393555" y="-3405.761719" width="1.098633" height="1.098633"/>
<image xlink:href="tile4_55.png" preserveAspectRatio="none" x="13103.393555" y="-3406.860352" width="1.098633" height="1.098633"/>
<image xlink:href="tile4_54.png" preserveAspectRatio="none" x="13103.393555" y="-3407.958984" width="1.098633" height="1.098633"/>
<image xlink:href="tile4_50.png" preserveAspectRatio="none" x="13103.393555" y="-3412.353516" width="1.098633" height="1.098633"/>
<image xlink:href="tile4_49.png" preserveAspectRatio="none" x="13103.393555" y="-3413.452148" width="1.098633" height="1.098633"/>
<image xlink:href="tile4_48.png" preserveAspectRatio="none" x="13103.393555" y="-3414.550781" width="1.098633" height="1.098633"/>
<image xlink:href="tile5_56.png" preserveAspectRatio="none" x="13104.492188" y="-3405.761719" width="1.098633" height="1.098633"/>
<image xlink:href="tile5_55.png" preserveAspectRatio="none" x="13104.492188" y="-3406.860352" width="1.098633" height="1.098633"/>
<image xlink:href="tile5_54.png" preserveAspectRatio="none" x="13104.492188" y="-3407.958984" width="1.098633" height="1.098633"/>
<image xlink:href="tile5_53.png" preserveAspectRatio="none" x="13104.492188" y="-3409.057617" width="1.098633" height="1.098633"/>
<image xlink:href="tile5_52.png" preserveAspectRatio="none" x="13104.492188" y="-3410.15625" width="1.098633" height="1.098633"/>
<image xlink:href="tile5_51.png" preserveAspectRatio="none" x="13104.492188" y="-3411.254883" width="1.098633" height="1.098633"/>
<image xlink:href="tile5_50.png" preserveAspectRatio="none" x="13104.492188" y="-3412.353516" width="1.098633" height="1.098633"/>
<image xlink:href="tile5_49.png" preserveAspectRatio="none" x="13104.492188" y="-3413.452148" width="1.098633" height="1.098633"/>
<image xlink:href="tile5_46.png" preserveAspectRatio="none" x="13104.492188" y="-3416.748047" width="1.098633" height="1.098633"/>
<image xlink:href="tile6_54.png" preserveAspectRatio="none" x="13105.59082" y="-3407.958984" width="1.098633" height="1.098633"/>
<image xlink:href="tile6_53.png" preserveAspectRatio="none" x="13105.59082" y="-3409.057617" width="1.098633" height="1.098633"/>
<image xlink:href="tile6_52.png" preserveAspectRatio="none" x="13105.59082" y="-3410.15625" width="1.098633" height="1.098633"/>
<image xlink:href="tile6_51.png" preserveAspectRatio="none" x="13105.59082" y="-3411.254883" width="1.098633" height="1.098633"/>
<image xlink:href="tile6_50.png" preserveAspectRatio="none" x="13105.59082" y="-3412.353516" width="1.098633" height="1.098633"/>
<image xlink:href="tile6_46.png" preserveAspectRatio="none" x="13105.59082" y="-3416.748047" width="1.098633" height="1.098633"/>
<image xlink:href="tile7_53.png" preserveAspectRatio="none" x="13106.689453" y="-3409.057617" width="1.098633" height="1.098633"/>
<image xlink:href="tile7_52.png" preserveAspectRatio="none" x="13106.689453" y="-3410.15625" width="1.098633" height="1.098633"/>
<image xlink:href="tile12_60.png" preserveAspectRatio="none" x="13112.182617" y="-3401.367188" width="1.098633" height="1.098633"/>
<image xlink:href="tile13_60.png" preserveAspectRatio="none" x="13113.28125" y="-3401.367188" width="1.098633" height="1.098633"/>
<image xlink:href="tile13_59.png" preserveAspectRatio="none" x="13113.28125" y="-3402.46582" width="1.098633" height="1.098633"/>
<image xlink:href="tile13_56.png" preserveAspectRatio="none" x="13113.28125" y="-3405.761719" width="1.098633" height="1.098633"/>
<image xlink:href="tile13_55.png" preserveAspectRatio="none" x="13113.28125" y="-3406.860352" width="1.098633" height="1.098633"/>
<image xlink:href="tile13_51.png" preserveAspectRatio="none" x="13113.28125" y="-3411.254883" width="1.098633" height="1.098633"/>
<image xlink:href="tile14_61.png" preserveAspectRatio="none" x="13114.379883" y="-3400.268555" width="1.098633" height="1.098633"/>
<image xlink:href="tile14_60.png" preserveAspectRatio="none" x="13114.379883" y="-3401.367188" width="1.098633" height="1.098633"/>
<image xlink:href="tile14_59.png" preserveAspectRatio="none" x="13114.379883" y="-3402.46582" width="1.098633" height="1.098633"/>
<image xlink:href="tile14_58.png" preserveAspectRatio="none" x="13114.379883" y="-3403.564453" width="1.098633" height="1.098633"/>
<image xlink:href="tile14_57.png" preserveAspectRatio="none" x="13114.379883" y="-3404.663086" width="1.098633" height="1.098633"/>
<image xlink:href="tile14_56.png" preserveAspectRatio="none" x="13114.379883" y="-3405.761719" width="1.098633" height="1.098633"/>
<image xlink:href="tile14_55.png" preserveAspectRatio="none" x="13114.379883" y="-3406.860352" width="1.098633" height="1.098633"/>
<image xlink:href="tile14_51.png" preserveAspectRatio="none" x="13114.379883" y="-3411.254883" width="1.098633" height="1.098633"/>
<image xlink:href="tile14_50.png" preserveAspectRatio="none" x="13114.379883" y="-3412.353516" width="1.098633" height="1.098633"/>
<image xlink:href="tile15_61.png" preserveAspectRatio="none" x="13115.478516" y="-3400.268555" width="1.098633" height="1.098633"/>
<image xlink:href="tile15_60.png" preserveAspectRatio="none" x="13115.478516" y="-3401.367188" width="1.098633" height="1.098633"/>
<image xlink:href="tile15_59.png" preserveAspectRatio="none" x="13115.478516" y="-3402.46582" width="1.098633" height="1.098633"/>
<image xlink:href="tile15_57.png" preserveAspectRatio="none" x="13115.478516" y="-3404.663086" width="1.098633" height="1.098633"/>
<image xlink:href="tile15_56.png" preserveAspectRatio="none" x="13115.478516" y="-3405.761719" width="1.098633" height="1.098633"/>
<image xlink:href="tile15_55.png" preserveAspectRatio="none" x="13115.478516" y="-3406.860352" width="1.098633" height="1.098633"/>
<image xlink:href="tile15_51.png" preserveAspectRatio="none" x="13115.478516" y="-3411.254883" width="1.098633" height="1.098633"/>
<image xlink:href="tile15_50.png" preserveAspectRatio="none" x="13115.478516" y="-3412.353516" width="1.098633" height="1.098633"/>
<image xlink:href="tile15_49.png" preserveAspectRatio="none" x="13115.478516" y="-3413.452148" width="1.098633" height="1.098633"/>
<image xlink:href="tile15_48.png" preserveAspectRatio="none" x="13115.478516" y="-3414.550781" width="1.098633" height="1.098633"/>
<image xlink:href="tile15_47.png" preserveAspectRatio="none" x="13115.478516" y="-3415.649414" width="1.098633" height="1.098633"/>
</g>
</svg>
