<?xml version="1.0" encoding="UTF-8"?>
<svg  xmlns="http://www.w3.org/2000/svg" xmlns:xlink="http://www.w3.org/1999/xlink" xmlns:go="http://purl.org/svgmap/profile" viewBox="13100.0 -3466.666667 100.0 66.66666699999979" go:dataArea="13100.0 -3466.666667 100.0 66.66666699999979" >
<metadata>
 <rdf:RDF xmlns:rdf="http://www.w3.org/1999/02/22-rdf-syntax-ns#" xmlns:crs="http://opengis.org/xmldtds/transformations.dtd" xmlns:svg="http://www.w3.org/svg" >
  <rdf:Description>
   <crs:CoordinateReferenceSystem rdf:resource="http://purl.org/crs/84" svg:transform="matrix(100.0,0.0,0.0,-100.0,0.0,0.0)" />
  </rdf:Description>
 </rdf:RDF>
</metadata>
<globalCoordinateSystem srsName="http://purl.org/crs/84" transform="matrix(100.0,0.0,0.0,-100.0,0.0,0.0)" />
<g >
<image xlink:href="tile48_13.png" preserveAspectRatio="none" x="13151.733398" y="-3453.00293" width="1.098633" height="1.098633"/>
<image xlink:href="tile49_13.png" preserveAspectRatio="none" x="13152.832031" y="-3453.00293" width="1.098633" height="1.098633"/>
<image xlink:href="tile50_13.png" preserveAspectRatio="none" x="13153.930664" y="-3453.00293" width="1.098633" height="1.098633"/>
<image xlink:href="tile50_12.png" preserveAspectRatio="none" x="13153.930664" y="-3454.101562" width="1.098633" height="1.098633"/>
<image xlink:href="tile55_5.png" preserveAspectRatio="none" x="13159.423828" y="-3461.791992" width="1.098633" height="1.098633"/>
<image xlink:href="tile55_4.png" preserveAspectRatio="none" x="13159.423828" y="-3462.890625" width="1.098633" height="1.098633"/>
<image xlink:href="tile56_5.png" preserveAspectRatio="none" x="13160.522461" y="-3461.791992" width="1.098633" height="1.098633"/>
<image xlink:href="tile58_11.png" preserveAspectRatio="none" x="13162.719727" y="-3455.200195" width="1.098633" height="1.098633"/>
<image xlink:href="tile58_10.png" preserveAspectRatio="none" x="13162.719727" y="-3456.298828" width="1.098633" height="1.098633"/>
<image xlink:href="tile59_11.png" preserveAspectRatio="none" x="13163.818359" y="-3455.200195" width="1.098633" height="1.098633"/>
<image xlink:href="tile60_4.png" preserveAspectRatio="none" x="13164.916992" y="-3462.890625" width="1.098633" height="1.098633"/>
<image xlink:href="tile60_3.png" preserveAspectRatio="none" x="13164.916992" y="-3463.989258" width="1.098633" height="1.098633"/>
<image xlink:href="tile60_2.png" preserveAspectRatio="none" x="13164.916992" y="-3465.087891" width="1.098633" height="1.098633"/>
<image xlink:href="tile60_1.png" preserveAspectRatio="none" x="13164.916992" y="-3466.186523" width="1.098633" height="1.098633"/>
<image xlink:href="tile61_9.png" preserveAspectRatio="none" x="13166.015625" y="-3457.397461" width="1.098633" height="1.098633"/>
<image xlink:href="tile61_8.png" preserveAspectRatio="none" x="13166.015625" y="-3458.496094" width="1.098633" height="1.098633"/>
<image xlink:href="tile61_7.png" preserveAspectRatio="none" x="13166.015625" y="-3459.594727" width="1.098633" height="1.098633"/>
<image xlink:href="tile61_4.png" preserveAspectRatio="none" x="13166.015625" y="-3462.890625" width="1.098633" height="1.098633"/>
<image xlink:href="tile61_3.png" preserveAspectRatio="none" x="13166.015625" y="-3463.989258" width="1.098633" height="1.098633"/>
<image xlink:href="tile61_2.png" preserveAspectRatio="none" x="13166.015625" y="-3465.087891" width="1.098633" height="1.098633"/>
<image xlink:href="tile61_1.png" preserveAspectRatio="none" x="13166.015625" y="-3466.186523" width="1.098633" height="1.098633"/>
<image xlink:href="tile62_9.png" preserveAspectRatio="none" x="13167.114258" y="-3457.397461" width="1.098633" height="1.098633"/>
<image xlink:href="tile62_8.png" preserveAspectRatio="none" x="13167.114258" y="-3458.496094" width="1.098633" height="1.098633"/>
<image xlink:href="tile62_7.png" preserveAspectRatio="none" x="13167.114258" y="-3459.594727" width="1.098633" height="1.098633"/>
<image xlink:href="tile62_5.png" preserveAspectRatio="none" x="13167.114258" y="-3461.791992" width="1.098633" height="1.098633"/>
<image xlink:href="tile62_4.png" preserveAspectRatio="none" x="13167.114258" y="-3462.890625" width="1.098633" height="1.098633"/>
<image xlink:href="tile62_1.png" preserveAspectRatio="none" x="13167.114258" y="-3466.186523" width="1.098633" height="1.098633"/>
<image xlink:href="tile63_9.png" preserveAspectRatio="none" x="13168.212891" y="-3457.397461" width="1.098633" height="1.098633"/>
<image xlink:href="tile63_8.png" preserveAspectRatio="none" x="13168.212891" y="-3458.496094" width="1.098633" height="1.098633"/>
<image xlink:href="tile63_7.png" preserveAspectRatio="none" x="13168.212891" y="-3459.594727" width="1.098633" height="1.098633"/>
<image xlink:href="tile63_6.png" preserveAspectRatio="none" x="13168.212891" y="-3460.693359" width="1.098633" height="1.098633"/>
<image xlink:href="tile63_5.png" preserveAspectRatio="none" x="13168.212891" y="-3461.791992" width="1.098633" height="1.098633"/>
</g>
</svg>
