<?xml version="1.0" encoding="UTF-8"?>
<svg  xmlns="http://www.w3.org/2000/svg" xmlns:xlink="http://www.w3.org/1999/xlink" xmlns:go="http://purl.org/svgmap/profile" viewBox="13929.1099214 -3866.666667 70.89007859999867 66.66666699999979" go:dataArea="13929.1099214 -3866.666667 70.89007859999867 66.66666699999979" >
<metadata>
 <rdf:RDF xmlns:rdf="http://www.w3.org/1999/02/22-rdf-syntax-ns#" xmlns:crs="http://opengis.org/xmldtds/transformations.dtd" xmlns:svg="http://www.w3.org/svg" >
  <rdf:Description>
   <crs:CoordinateReferenceSystem rdf:resource="http://purl.org/crs/84" svg:transform="matrix(100.0,0.0,0.0,-100.0,0.0,0.0)" />
  </rdf:Description>
 </rdf:RDF>
</metadata>
<globalCoordinateSystem srsName="http://purl.org/crs/84" transform="matrix(100.0,0.0,0.0,-100.0,0.0,0.0)" />
<g >
<image xlink:href="tile16_57.png" preserveAspectRatio="none" x="13946.044922" y="-3804.56543" width="1.098633" height="1.098633"/>
<image xlink:href="tile16_56.png" preserveAspectRatio="none" x="13946.044922" y="-3805.664062" width="1.098633" height="1.098633"/>
<image xlink:href="tile16_51.png" preserveAspectRatio="none" x="13946.044922" y="-3811.157227" width="1.098633" height="1.098633"/>
<image xlink:href="tile16_50.png" preserveAspectRatio="none" x="13946.044922" y="-3812.255859" width="1.098633" height="1.098633"/>
<image xlink:href="tile16_49.png" preserveAspectRatio="none" x="13946.044922" y="-3813.354492" width="1.098633" height="1.098633"/>
<image xlink:href="tile16_48.png" preserveAspectRatio="none" x="13946.044922" y="-3814.453125" width="1.098633" height="1.098633"/>
<image xlink:href="tile16_47.png" preserveAspectRatio="none" x="13946.044922" y="-3815.551758" width="1.098633" height="1.098633"/>
<image xlink:href="tile16_46.png" preserveAspectRatio="none" x="13946.044922" y="-3816.650391" width="1.098633" height="1.098633"/>
<image xlink:href="tile17_57.png" preserveAspectRatio="none" x="13947.143555" y="-3804.56543" width="1.098633" height="1.098633"/>
<image xlink:href="tile17_56.png" preserveAspectRatio="none" x="13947.143555" y="-3805.664062" width="1.098633" height="1.098633"/>
<image xlink:href="tile17_51.png" preserveAspectRatio="none" x="13947.143555" y="-3811.157227" width="1.098633" height="1.098633"/>
<image xlink:href="tile17_50.png" preserveAspectRatio="none" x="13947.143555" y="-3812.255859" width="1.098633" height="1.098633"/>
<image xlink:href="tile17_49.png" preserveAspectRatio="none" x="13947.143555" y="-3813.354492" width="1.098633" height="1.098633"/>
<image xlink:href="tile18_51.png" preserveAspectRatio="none" x="13948.242188" y="-3811.157227" width="1.098633" height="1.098633"/>
<image xlink:href="tile18_50.png" preserveAspectRatio="none" x="13948.242188" y="-3812.255859" width="1.098633" height="1.098633"/>
<image xlink:href="tile18_49.png" preserveAspectRatio="none" x="13948.242188" y="-3813.354492" width="1.098633" height="1.098633"/>
<image xlink:href="tile20_52.png" preserveAspectRatio="none" x="13950.439453" y="-3810.058594" width="1.098633" height="1.098633"/>
<image xlink:href="tile20_51.png" preserveAspectRatio="none" x="13950.439453" y="-3811.157227" width="1.098633" height="1.098633"/>
<image xlink:href="tile20_50.png" preserveAspectRatio="none" x="13950.439453" y="-3812.255859" width="1.098633" height="1.098633"/>
<image xlink:href="tile21_53.png" preserveAspectRatio="none" x="13951.538086" y="-3808.959961" width="1.098633" height="1.098633"/>
<image xlink:href="tile21_52.png" preserveAspectRatio="none" x="13951.538086" y="-3810.058594" width="1.098633" height="1.098633"/>
<image xlink:href="tile21_51.png" preserveAspectRatio="none" x="13951.538086" y="-3811.157227" width="1.098633" height="1.098633"/>
<image xlink:href="tile21_50.png" preserveAspectRatio="none" x="13951.538086" y="-3812.255859" width="1.098633" height="1.098633"/>
<image xlink:href="tile21_49.png" preserveAspectRatio="none" x="13951.538086" y="-3813.354492" width="1.098633" height="1.098633"/>
<image xlink:href="tile22_53.png" preserveAspectRatio="none" x="13952.636719" y="-3808.959961" width="1.098633" height="1.098633"/>
<image xlink:href="tile22_52.png" preserveAspectRatio="none" x="13952.636719" y="-3810.058594" width="1.098633" height="1.098633"/>
<image xlink:href="tile22_51.png" preserveAspectRatio="none" x="13952.636719" y="-3811.157227" width="1.098633" height="1.098633"/>
<image xlink:href="tile22_50.png" preserveAspectRatio="none" x="13952.636719" y="-3812.255859" width="1.098633" height="1.098633"/>
<image xlink:href="tile22_49.png" preserveAspectRatio="none" x="13952.636719" y="-3813.354492" width="1.098633" height="1.098633"/>
<image xlink:href="tile23_53.png" preserveAspectRatio="none" x="13953.735352" y="-3808.959961" width="1.098633" height="1.098633"/>
<image xlink:href="tile23_52.png" preserveAspectRatio="none" x="13953.735352" y="-3810.058594" width="1.098633" height="1.098633"/>
<image xlink:href="tile23_51.png" preserveAspectRatio="none" x="13953.735352" y="-3811.157227" width="1.098633" height="1.098633"/>
<image xlink:href="tile24_53.png" preserveAspectRatio="none" x="13954.833984" y="-3808.959961" width="1.098633" height="1.098633"/>
<image xlink:href="tile24_52.png" preserveAspectRatio="none" x="13954.833984" y="-3810.058594" width="1.098633" height="1.098633"/>
<image xlink:href="tile24_51.png" preserveAspectRatio="none" x="13954.833984" y="-3811.157227" width="1.098633" height="1.098633"/>
<image xlink:href="tile25_53.png" preserveAspectRatio="none" x="13955.932617" y="-3808.959961" width="1.098633" height="1.098633"/>
<image xlink:href="tile25_52.png" preserveAspectRatio="none" x="13955.932617" y="-3810.058594" width="1.098633" height="1.098633"/>
<image xlink:href="tile26_54.png" preserveAspectRatio="none" x="13957.03125" y="-3807.861328" width="1.098633" height="1.098633"/>
<image xlink:href="tile26_53.png" preserveAspectRatio="none" x="13957.03125" y="-3808.959961" width="1.098633" height="1.098633"/>
<image xlink:href="tile26_52.png" preserveAspectRatio="none" x="13957.03125" y="-3810.058594" width="1.098633" height="1.098633"/>
<image xlink:href="tile27_54.png" preserveAspectRatio="none" x="13958.129883" y="-3807.861328" width="1.098633" height="1.098633"/>
<image xlink:href="tile27_53.png" preserveAspectRatio="none" x="13958.129883" y="-3808.959961" width="1.098633" height="1.098633"/>
<image xlink:href="tile27_52.png" preserveAspectRatio="none" x="13958.129883" y="-3810.058594" width="1.098633" height="1.098633"/>
<image xlink:href="tile28_55.png" preserveAspectRatio="none" x="13959.228516" y="-3806.762695" width="1.098633" height="1.098633"/>
<image xlink:href="tile28_54.png" preserveAspectRatio="none" x="13959.228516" y="-3807.861328" width="1.098633" height="1.098633"/>
<image xlink:href="tile29_55.png" preserveAspectRatio="none" x="13960.327148" y="-3806.762695" width="1.098633" height="1.098633"/>
<image xlink:href="tile29_54.png" preserveAspectRatio="none" x="13960.327148" y="-3807.861328" width="1.098633" height="1.098633"/>
<image xlink:href="tile30_55.png" preserveAspectRatio="none" x="13961.425781" y="-3806.762695" width="1.098633" height="1.098633"/>
<image xlink:href="tile30_54.png" preserveAspectRatio="none" x="13961.425781" y="-3807.861328" width="1.098633" height="1.098633"/>
</g>
</svg>
