<?xml version="1.0" encoding="UTF-8"?>
<svg  xmlns="http://www.w3.org/2000/svg" xmlns:xlink="http://www.w3.org/1999/xlink" xmlns:go="http://purl.org/svgmap/profile" viewBox="13700.0 -3533.3333339 100.0 66.66666690000014" go:dataArea="13700.0 -3533.3333339 100.0 66.66666690000014" >
<metadata>
 <rdf:RDF xmlns:rdf="http://www.w3.org/1999/02/22-rdf-syntax-ns#" xmlns:crs="http://opengis.org/xmldtds/transformations.dtd" xmlns:svg="http://www.w3.org/svg" >
  <rdf:Description>
   <crs:CoordinateReferenceSystem rdf:resource="http://purl.org/crs/84" svg:transform="matrix(100.0,0.0,0.0,-100.0,0.0,0.0)" />
  </rdf:Description>
 </rdf:RDF>
</metadata>
<globalCoordinateSystem srsName="http://purl.org/crs/84" transform="matrix(100.0,0.0,0.0,-100.0,0.0,0.0)" />
<g >
<image xlink:href="tile80_39.png" preserveAspectRatio="none" x="13787.841797" y="-3491.455078" width="1.098633" height="1.098633"/>
<image xlink:href="tile80_38.png" preserveAspectRatio="none" x="13787.841797" y="-3492.553711" width="1.098633" height="1.098633"/>
<image xlink:href="tile80_36.png" preserveAspectRatio="none" x="13787.841797" y="-3494.750977" width="1.098633" height="1.098633"/>
<image xlink:href="tile80_35.png" preserveAspectRatio="none" x="13787.841797" y="-3495.849609" width="1.098633" height="1.098633"/>
<image xlink:href="tile80_34.png" preserveAspectRatio="none" x="13787.841797" y="-3496.948242" width="1.098633" height="1.098633"/>
<image xlink:href="tile80_32.png" preserveAspectRatio="none" x="13787.841797" y="-3499.145508" width="1.098633" height="1.098633"/>
<image xlink:href="tile80_31.png" preserveAspectRatio="none" x="13787.841797" y="-3500.244141" width="1.098633" height="1.098633"/>
<image xlink:href="tile81_38.png" preserveAspectRatio="none" x="13788.94043" y="-3492.553711" width="1.098633" height="1.098633"/>
<image xlink:href="tile81_35.png" preserveAspectRatio="none" x="13788.94043" y="-3495.849609" width="1.098633" height="1.098633"/>
<image xlink:href="tile81_34.png" preserveAspectRatio="none" x="13788.94043" y="-3496.948242" width="1.098633" height="1.098633"/>
<image xlink:href="tile81_33.png" preserveAspectRatio="none" x="13788.94043" y="-3498.046875" width="1.098633" height="1.098633"/>
<image xlink:href="tile81_32.png" preserveAspectRatio="none" x="13788.94043" y="-3499.145508" width="1.098633" height="1.098633"/>
<image xlink:href="tile81_31.png" preserveAspectRatio="none" x="13788.94043" y="-3500.244141" width="1.098633" height="1.098633"/>
<image xlink:href="tile82_35.png" preserveAspectRatio="none" x="13790.039062" y="-3495.849609" width="1.098633" height="1.098633"/>
<image xlink:href="tile82_34.png" preserveAspectRatio="none" x="13790.039062" y="-3496.948242" width="1.098633" height="1.098633"/>
<image xlink:href="tile82_33.png" preserveAspectRatio="none" x="13790.039062" y="-3498.046875" width="1.098633" height="1.098633"/>
<image xlink:href="tile82_31.png" preserveAspectRatio="none" x="13790.039062" y="-3500.244141" width="1.098633" height="1.098633"/>
<image xlink:href="tile82_30.png" preserveAspectRatio="none" x="13790.039062" y="-3501.342773" width="1.098633" height="1.098633"/>
<image xlink:href="tile83_30.png" preserveAspectRatio="none" x="13791.137695" y="-3501.342773" width="1.098633" height="1.098633"/>
<image xlink:href="tile84_45.png" preserveAspectRatio="none" x="13792.236328" y="-3484.863281" width="1.098633" height="1.098633"/>
<image xlink:href="tile85_45.png" preserveAspectRatio="none" x="13793.334961" y="-3484.863281" width="1.098633" height="1.098633"/>
<image xlink:href="tile85_44.png" preserveAspectRatio="none" x="13793.334961" y="-3485.961914" width="1.098633" height="1.098633"/>
<image xlink:href="tile85_43.png" preserveAspectRatio="none" x="13793.334961" y="-3487.060547" width="1.098633" height="1.098633"/>
<image xlink:href="tile86_44.png" preserveAspectRatio="none" x="13794.433594" y="-3485.961914" width="1.098633" height="1.098633"/>
<image xlink:href="tile86_43.png" preserveAspectRatio="none" x="13794.433594" y="-3487.060547" width="1.098633" height="1.098633"/>
<image xlink:href="tile87_45.png" preserveAspectRatio="none" x="13795.532227" y="-3484.863281" width="1.098633" height="1.098633"/>
<image xlink:href="tile88_45.png" preserveAspectRatio="none" x="13796.630859" y="-3484.863281" width="1.098633" height="1.098633"/>
</g>
</svg>
