<?xml version="1.0" encoding="UTF-8"?>
<svg  xmlns="http://www.w3.org/2000/svg" xmlns:xlink="http://www.w3.org/1999/xlink" xmlns:go="http://purl.org/svgmap/profile" viewBox="13700.0 -3533.3333339 100.0 66.66666690000014" go:dataArea="13700.0 -3533.3333339 100.0 66.66666690000014" >
<metadata>
 <rdf:RDF xmlns:rdf="http://www.w3.org/1999/02/22-rdf-syntax-ns#" xmlns:crs="http://opengis.org/xmldtds/transformations.dtd" xmlns:svg="http://www.w3.org/svg" >
  <rdf:Description>
   <crs:CoordinateReferenceSystem rdf:resource="http://purl.org/crs/84" svg:transform="matrix(100.0,0.0,0.0,-100.0,0.0,0.0)" />
  </rdf:Description>
 </rdf:RDF>
</metadata>
<globalCoordinateSystem srsName="http://purl.org/crs/84" transform="matrix(100.0,0.0,0.0,-100.0,0.0,0.0)" />
<g >
<image xlink:href="tile64_61.png" preserveAspectRatio="none" x="13770.263672" y="-3467.285156" width="1.098633" height="1.098633"/>
<image xlink:href="tile64_60.png" preserveAspectRatio="none" x="13770.263672" y="-3468.383789" width="1.098633" height="1.098633"/>
<image xlink:href="tile64_59.png" preserveAspectRatio="none" x="13770.263672" y="-3469.482422" width="1.098633" height="1.098633"/>
<image xlink:href="tile64_58.png" preserveAspectRatio="none" x="13770.263672" y="-3470.581055" width="1.098633" height="1.098633"/>
<image xlink:href="tile64_57.png" preserveAspectRatio="none" x="13770.263672" y="-3471.679688" width="1.098633" height="1.098633"/>
<image xlink:href="tile64_48.png" preserveAspectRatio="none" x="13770.263672" y="-3481.567383" width="1.098633" height="1.098633"/>
<image xlink:href="tile64_47.png" preserveAspectRatio="none" x="13770.263672" y="-3482.666016" width="1.098633" height="1.098633"/>
<image xlink:href="tile65_61.png" preserveAspectRatio="none" x="13771.362305" y="-3467.285156" width="1.098633" height="1.098633"/>
<image xlink:href="tile65_60.png" preserveAspectRatio="none" x="13771.362305" y="-3468.383789" width="1.098633" height="1.098633"/>
<image xlink:href="tile65_59.png" preserveAspectRatio="none" x="13771.362305" y="-3469.482422" width="1.098633" height="1.098633"/>
<image xlink:href="tile65_58.png" preserveAspectRatio="none" x="13771.362305" y="-3470.581055" width="1.098633" height="1.098633"/>
<image xlink:href="tile65_57.png" preserveAspectRatio="none" x="13771.362305" y="-3471.679688" width="1.098633" height="1.098633"/>
<image xlink:href="tile65_56.png" preserveAspectRatio="none" x="13771.362305" y="-3472.77832" width="1.098633" height="1.098633"/>
<image xlink:href="tile65_48.png" preserveAspectRatio="none" x="13771.362305" y="-3481.567383" width="1.098633" height="1.098633"/>
<image xlink:href="tile65_47.png" preserveAspectRatio="none" x="13771.362305" y="-3482.666016" width="1.098633" height="1.098633"/>
<image xlink:href="tile65_46.png" preserveAspectRatio="none" x="13771.362305" y="-3483.764648" width="1.098633" height="1.098633"/>
<image xlink:href="tile66_61.png" preserveAspectRatio="none" x="13772.460938" y="-3467.285156" width="1.098633" height="1.098633"/>
<image xlink:href="tile66_60.png" preserveAspectRatio="none" x="13772.460938" y="-3468.383789" width="1.098633" height="1.098633"/>
<image xlink:href="tile66_59.png" preserveAspectRatio="none" x="13772.460938" y="-3469.482422" width="1.098633" height="1.098633"/>
<image xlink:href="tile66_58.png" preserveAspectRatio="none" x="13772.460938" y="-3470.581055" width="1.098633" height="1.098633"/>
<image xlink:href="tile66_57.png" preserveAspectRatio="none" x="13772.460938" y="-3471.679688" width="1.098633" height="1.098633"/>
<image xlink:href="tile66_56.png" preserveAspectRatio="none" x="13772.460938" y="-3472.77832" width="1.098633" height="1.098633"/>
<image xlink:href="tile66_55.png" preserveAspectRatio="none" x="13772.460938" y="-3473.876953" width="1.098633" height="1.098633"/>
<image xlink:href="tile66_47.png" preserveAspectRatio="none" x="13772.460938" y="-3482.666016" width="1.098633" height="1.098633"/>
<image xlink:href="tile66_46.png" preserveAspectRatio="none" x="13772.460938" y="-3483.764648" width="1.098633" height="1.098633"/>
<image xlink:href="tile67_61.png" preserveAspectRatio="none" x="13773.55957" y="-3467.285156" width="1.098633" height="1.098633"/>
<image xlink:href="tile67_60.png" preserveAspectRatio="none" x="13773.55957" y="-3468.383789" width="1.098633" height="1.098633"/>
<image xlink:href="tile67_59.png" preserveAspectRatio="none" x="13773.55957" y="-3469.482422" width="1.098633" height="1.098633"/>
<image xlink:href="tile67_58.png" preserveAspectRatio="none" x="13773.55957" y="-3470.581055" width="1.098633" height="1.098633"/>
<image xlink:href="tile67_57.png" preserveAspectRatio="none" x="13773.55957" y="-3471.679688" width="1.098633" height="1.098633"/>
<image xlink:href="tile67_56.png" preserveAspectRatio="none" x="13773.55957" y="-3472.77832" width="1.098633" height="1.098633"/>
<image xlink:href="tile67_55.png" preserveAspectRatio="none" x="13773.55957" y="-3473.876953" width="1.098633" height="1.098633"/>
<image xlink:href="tile67_54.png" preserveAspectRatio="none" x="13773.55957" y="-3474.975586" width="1.098633" height="1.098633"/>
<image xlink:href="tile67_53.png" preserveAspectRatio="none" x="13773.55957" y="-3476.074219" width="1.098633" height="1.098633"/>
<image xlink:href="tile67_52.png" preserveAspectRatio="none" x="13773.55957" y="-3477.172852" width="1.098633" height="1.098633"/>
<image xlink:href="tile67_51.png" preserveAspectRatio="none" x="13773.55957" y="-3478.271484" width="1.098633" height="1.098633"/>
<image xlink:href="tile68_61.png" preserveAspectRatio="none" x="13774.658203" y="-3467.285156" width="1.098633" height="1.098633"/>
<image xlink:href="tile68_60.png" preserveAspectRatio="none" x="13774.658203" y="-3468.383789" width="1.098633" height="1.098633"/>
<image xlink:href="tile68_59.png" preserveAspectRatio="none" x="13774.658203" y="-3469.482422" width="1.098633" height="1.098633"/>
<image xlink:href="tile68_58.png" preserveAspectRatio="none" x="13774.658203" y="-3470.581055" width="1.098633" height="1.098633"/>
<image xlink:href="tile68_57.png" preserveAspectRatio="none" x="13774.658203" y="-3471.679688" width="1.098633" height="1.098633"/>
<image xlink:href="tile68_56.png" preserveAspectRatio="none" x="13774.658203" y="-3472.77832" width="1.098633" height="1.098633"/>
<image xlink:href="tile68_55.png" preserveAspectRatio="none" x="13774.658203" y="-3473.876953" width="1.098633" height="1.098633"/>
<image xlink:href="tile68_54.png" preserveAspectRatio="none" x="13774.658203" y="-3474.975586" width="1.098633" height="1.098633"/>
<image xlink:href="tile68_53.png" preserveAspectRatio="none" x="13774.658203" y="-3476.074219" width="1.098633" height="1.098633"/>
<image xlink:href="tile68_52.png" preserveAspectRatio="none" x="13774.658203" y="-3477.172852" width="1.098633" height="1.098633"/>
<image xlink:href="tile68_51.png" preserveAspectRatio="none" x="13774.658203" y="-3478.271484" width="1.098633" height="1.098633"/>
<image xlink:href="tile68_50.png" preserveAspectRatio="none" x="13774.658203" y="-3479.370117" width="1.098633" height="1.098633"/>
<image xlink:href="tile69_61.png" preserveAspectRatio="none" x="13775.756836" y="-3467.285156" width="1.098633" height="1.098633"/>
<image xlink:href="tile69_60.png" preserveAspectRatio="none" x="13775.756836" y="-3468.383789" width="1.098633" height="1.098633"/>
<image xlink:href="tile69_59.png" preserveAspectRatio="none" x="13775.756836" y="-3469.482422" width="1.098633" height="1.098633"/>
<image xlink:href="tile69_58.png" preserveAspectRatio="none" x="13775.756836" y="-3470.581055" width="1.098633" height="1.098633"/>
<image xlink:href="tile69_57.png" preserveAspectRatio="none" x="13775.756836" y="-3471.679688" width="1.098633" height="1.098633"/>
<image xlink:href="tile69_56.png" preserveAspectRatio="none" x="13775.756836" y="-3472.77832" width="1.098633" height="1.098633"/>
<image xlink:href="tile69_55.png" preserveAspectRatio="none" x="13775.756836" y="-3473.876953" width="1.098633" height="1.098633"/>
<image xlink:href="tile69_54.png" preserveAspectRatio="none" x="13775.756836" y="-3474.975586" width="1.098633" height="1.098633"/>
<image xlink:href="tile69_53.png" preserveAspectRatio="none" x="13775.756836" y="-3476.074219" width="1.098633" height="1.098633"/>
<image xlink:href="tile69_52.png" preserveAspectRatio="none" x="13775.756836" y="-3477.172852" width="1.098633" height="1.098633"/>
<image xlink:href="tile69_51.png" preserveAspectRatio="none" x="13775.756836" y="-3478.271484" width="1.098633" height="1.098633"/>
<image xlink:href="tile69_50.png" preserveAspectRatio="none" x="13775.756836" y="-3479.370117" width="1.098633" height="1.098633"/>
<image xlink:href="tile69_49.png" preserveAspectRatio="none" x="13775.756836" y="-3480.46875" width="1.098633" height="1.098633"/>
<image xlink:href="tile70_61.png" preserveAspectRatio="none" x="13776.855469" y="-3467.285156" width="1.098633" height="1.098633"/>
<image xlink:href="tile70_60.png" preserveAspectRatio="none" x="13776.855469" y="-3468.383789" width="1.098633" height="1.098633"/>
<image xlink:href="tile70_59.png" preserveAspectRatio="none" x="13776.855469" y="-3469.482422" width="1.098633" height="1.098633"/>
<image xlink:href="tile70_58.png" preserveAspectRatio="none" x="13776.855469" y="-3470.581055" width="1.098633" height="1.098633"/>
<image xlink:href="tile70_57.png" preserveAspectRatio="none" x="13776.855469" y="-3471.679688" width="1.098633" height="1.098633"/>
<image xlink:href="tile70_56.png" preserveAspectRatio="none" x="13776.855469" y="-3472.77832" width="1.098633" height="1.098633"/>
<image xlink:href="tile70_55.png" preserveAspectRatio="none" x="13776.855469" y="-3473.876953" width="1.098633" height="1.098633"/>
<image xlink:href="tile70_54.png" preserveAspectRatio="none" x="13776.855469" y="-3474.975586" width="1.098633" height="1.098633"/>
<image xlink:href="tile70_53.png" preserveAspectRatio="none" x="13776.855469" y="-3476.074219" width="1.098633" height="1.098633"/>
<image xlink:href="tile70_52.png" preserveAspectRatio="none" x="13776.855469" y="-3477.172852" width="1.098633" height="1.098633"/>
<image xlink:href="tile70_51.png" preserveAspectRatio="none" x="13776.855469" y="-3478.271484" width="1.098633" height="1.098633"/>
<image xlink:href="tile70_50.png" preserveAspectRatio="none" x="13776.855469" y="-3479.370117" width="1.098633" height="1.098633"/>
<image xlink:href="tile70_49.png" preserveAspectRatio="none" x="13776.855469" y="-3480.46875" width="1.098633" height="1.098633"/>
<image xlink:href="tile70_48.png" preserveAspectRatio="none" x="13776.855469" y="-3481.567383" width="1.098633" height="1.098633"/>
<image xlink:href="tile71_61.png" preserveAspectRatio="none" x="13777.954102" y="-3467.285156" width="1.098633" height="1.098633"/>
<image xlink:href="tile71_60.png" preserveAspectRatio="none" x="13777.954102" y="-3468.383789" width="1.098633" height="1.098633"/>
<image xlink:href="tile71_59.png" preserveAspectRatio="none" x="13777.954102" y="-3469.482422" width="1.098633" height="1.098633"/>
<image xlink:href="tile71_58.png" preserveAspectRatio="none" x="13777.954102" y="-3470.581055" width="1.098633" height="1.098633"/>
<image xlink:href="tile71_57.png" preserveAspectRatio="none" x="13777.954102" y="-3471.679688" width="1.098633" height="1.098633"/>
<image xlink:href="tile71_56.png" preserveAspectRatio="none" x="13777.954102" y="-3472.77832" width="1.098633" height="1.098633"/>
<image xlink:href="tile71_55.png" preserveAspectRatio="none" x="13777.954102" y="-3473.876953" width="1.098633" height="1.098633"/>
<image xlink:href="tile71_54.png" preserveAspectRatio="none" x="13777.954102" y="-3474.975586" width="1.098633" height="1.098633"/>
<image xlink:href="tile71_53.png" preserveAspectRatio="none" x="13777.954102" y="-3476.074219" width="1.098633" height="1.098633"/>
<image xlink:href="tile71_52.png" preserveAspectRatio="none" x="13777.954102" y="-3477.172852" width="1.098633" height="1.098633"/>
<image xlink:href="tile71_51.png" preserveAspectRatio="none" x="13777.954102" y="-3478.271484" width="1.098633" height="1.098633"/>
<image xlink:href="tile71_50.png" preserveAspectRatio="none" x="13777.954102" y="-3479.370117" width="1.098633" height="1.098633"/>
<image xlink:href="tile71_49.png" preserveAspectRatio="none" x="13777.954102" y="-3480.46875" width="1.098633" height="1.098633"/>
<image xlink:href="tile71_48.png" preserveAspectRatio="none" x="13777.954102" y="-3481.567383" width="1.098633" height="1.098633"/>
<image xlink:href="tile72_61.png" preserveAspectRatio="none" x="13779.052734" y="-3467.285156" width="1.098633" height="1.098633"/>
<image xlink:href="tile72_60.png" preserveAspectRatio="none" x="13779.052734" y="-3468.383789" width="1.098633" height="1.098633"/>
<image xlink:href="tile72_59.png" preserveAspectRatio="none" x="13779.052734" y="-3469.482422" width="1.098633" height="1.098633"/>
<image xlink:href="tile72_58.png" preserveAspectRatio="none" x="13779.052734" y="-3470.581055" width="1.098633" height="1.098633"/>
<image xlink:href="tile72_57.png" preserveAspectRatio="none" x="13779.052734" y="-3471.679688" width="1.098633" height="1.098633"/>
<image xlink:href="tile72_56.png" preserveAspectRatio="none" x="13779.052734" y="-3472.77832" width="1.098633" height="1.098633"/>
<image xlink:href="tile72_55.png" preserveAspectRatio="none" x="13779.052734" y="-3473.876953" width="1.098633" height="1.098633"/>
<image xlink:href="tile72_54.png" preserveAspectRatio="none" x="13779.052734" y="-3474.975586" width="1.098633" height="1.098633"/>
<image xlink:href="tile72_53.png" preserveAspectRatio="none" x="13779.052734" y="-3476.074219" width="1.098633" height="1.098633"/>
<image xlink:href="tile72_52.png" preserveAspectRatio="none" x="13779.052734" y="-3477.172852" width="1.098633" height="1.098633"/>
<image xlink:href="tile72_51.png" preserveAspectRatio="none" x="13779.052734" y="-3478.271484" width="1.098633" height="1.098633"/>
<image xlink:href="tile72_50.png" preserveAspectRatio="none" x="13779.052734" y="-3479.370117" width="1.098633" height="1.098633"/>
<image xlink:href="tile72_49.png" preserveAspectRatio="none" x="13779.052734" y="-3480.46875" width="1.098633" height="1.098633"/>
<image xlink:href="tile72_48.png" preserveAspectRatio="none" x="13779.052734" y="-3481.567383" width="1.098633" height="1.098633"/>
<image xlink:href="tile72_47.png" preserveAspectRatio="none" x="13779.052734" y="-3482.666016" width="1.098633" height="1.098633"/>
<image xlink:href="tile72_46.png" preserveAspectRatio="none" x="13779.052734" y="-3483.764648" width="1.098633" height="1.098633"/>
<image xlink:href="tile73_61.png" preserveAspectRatio="none" x="13780.151367" y="-3467.285156" width="1.098633" height="1.098633"/>
<image xlink:href="tile73_60.png" preserveAspectRatio="none" x="13780.151367" y="-3468.383789" width="1.098633" height="1.098633"/>
<image xlink:href="tile73_59.png" preserveAspectRatio="none" x="13780.151367" y="-3469.482422" width="1.098633" height="1.098633"/>
<image xlink:href="tile73_58.png" preserveAspectRatio="none" x="13780.151367" y="-3470.581055" width="1.098633" height="1.098633"/>
<image xlink:href="tile73_57.png" preserveAspectRatio="none" x="13780.151367" y="-3471.679688" width="1.098633" height="1.098633"/>
<image xlink:href="tile73_56.png" preserveAspectRatio="none" x="13780.151367" y="-3472.77832" width="1.098633" height="1.098633"/>
<image xlink:href="tile73_55.png" preserveAspectRatio="none" x="13780.151367" y="-3473.876953" width="1.098633" height="1.098633"/>
<image xlink:href="tile73_54.png" preserveAspectRatio="none" x="13780.151367" y="-3474.975586" width="1.098633" height="1.098633"/>
<image xlink:href="tile73_53.png" preserveAspectRatio="none" x="13780.151367" y="-3476.074219" width="1.098633" height="1.098633"/>
<image xlink:href="tile73_52.png" preserveAspectRatio="none" x="13780.151367" y="-3477.172852" width="1.098633" height="1.098633"/>
<image xlink:href="tile73_51.png" preserveAspectRatio="none" x="13780.151367" y="-3478.271484" width="1.098633" height="1.098633"/>
<image xlink:href="tile73_50.png" preserveAspectRatio="none" x="13780.151367" y="-3479.370117" width="1.098633" height="1.098633"/>
<image xlink:href="tile73_49.png" preserveAspectRatio="none" x="13780.151367" y="-3480.46875" width="1.098633" height="1.098633"/>
<image xlink:href="tile73_48.png" preserveAspectRatio="none" x="13780.151367" y="-3481.567383" width="1.098633" height="1.098633"/>
<image xlink:href="tile73_47.png" preserveAspectRatio="none" x="13780.151367" y="-3482.666016" width="1.098633" height="1.098633"/>
<image xlink:href="tile73_46.png" preserveAspectRatio="none" x="13780.151367" y="-3483.764648" width="1.098633" height="1.098633"/>
<image xlink:href="tile74_61.png" preserveAspectRatio="none" x="13781.25" y="-3467.285156" width="1.098633" height="1.098633"/>
<image xlink:href="tile74_60.png" preserveAspectRatio="none" x="13781.25" y="-3468.383789" width="1.098633" height="1.098633"/>
<image xlink:href="tile74_59.png" preserveAspectRatio="none" x="13781.25" y="-3469.482422" width="1.098633" height="1.098633"/>
<image xlink:href="tile74_58.png" preserveAspectRatio="none" x="13781.25" y="-3470.581055" width="1.098633" height="1.098633"/>
<image xlink:href="tile74_57.png" preserveAspectRatio="none" x="13781.25" y="-3471.679688" width="1.098633" height="1.098633"/>
<image xlink:href="tile74_56.png" preserveAspectRatio="none" x="13781.25" y="-3472.77832" width="1.098633" height="1.098633"/>
<image xlink:href="tile74_55.png" preserveAspectRatio="none" x="13781.25" y="-3473.876953" width="1.098633" height="1.098633"/>
<image xlink:href="tile74_54.png" preserveAspectRatio="none" x="13781.25" y="-3474.975586" width="1.098633" height="1.098633"/>
<image xlink:href="tile74_53.png" preserveAspectRatio="none" x="13781.25" y="-3476.074219" width="1.098633" height="1.098633"/>
<image xlink:href="tile74_52.png" preserveAspectRatio="none" x="13781.25" y="-3477.172852" width="1.098633" height="1.098633"/>
<image xlink:href="tile74_51.png" preserveAspectRatio="none" x="13781.25" y="-3478.271484" width="1.098633" height="1.098633"/>
<image xlink:href="tile74_50.png" preserveAspectRatio="none" x="13781.25" y="-3479.370117" width="1.098633" height="1.098633"/>
<image xlink:href="tile74_49.png" preserveAspectRatio="none" x="13781.25" y="-3480.46875" width="1.098633" height="1.098633"/>
<image xlink:href="tile74_48.png" preserveAspectRatio="none" x="13781.25" y="-3481.567383" width="1.098633" height="1.098633"/>
<image xlink:href="tile74_47.png" preserveAspectRatio="none" x="13781.25" y="-3482.666016" width="1.098633" height="1.098633"/>
<image xlink:href="tile74_46.png" preserveAspectRatio="none" x="13781.25" y="-3483.764648" width="1.098633" height="1.098633"/>
<image xlink:href="tile75_61.png" preserveAspectRatio="none" x="13782.348633" y="-3467.285156" width="1.098633" height="1.098633"/>
<image xlink:href="tile75_60.png" preserveAspectRatio="none" x="13782.348633" y="-3468.383789" width="1.098633" height="1.098633"/>
<image xlink:href="tile75_59.png" preserveAspectRatio="none" x="13782.348633" y="-3469.482422" width="1.098633" height="1.098633"/>
<image xlink:href="tile75_58.png" preserveAspectRatio="none" x="13782.348633" y="-3470.581055" width="1.098633" height="1.098633"/>
<image xlink:href="tile75_57.png" preserveAspectRatio="none" x="13782.348633" y="-3471.679688" width="1.098633" height="1.098633"/>
<image xlink:href="tile75_56.png" preserveAspectRatio="none" x="13782.348633" y="-3472.77832" width="1.098633" height="1.098633"/>
<image xlink:href="tile75_55.png" preserveAspectRatio="none" x="13782.348633" y="-3473.876953" width="1.098633" height="1.098633"/>
<image xlink:href="tile75_54.png" preserveAspectRatio="none" x="13782.348633" y="-3474.975586" width="1.098633" height="1.098633"/>
<image xlink:href="tile75_53.png" preserveAspectRatio="none" x="13782.348633" y="-3476.074219" width="1.098633" height="1.098633"/>
<image xlink:href="tile75_52.png" preserveAspectRatio="none" x="13782.348633" y="-3477.172852" width="1.098633" height="1.098633"/>
<image xlink:href="tile75_51.png" preserveAspectRatio="none" x="13782.348633" y="-3478.271484" width="1.098633" height="1.098633"/>
<image xlink:href="tile75_50.png" preserveAspectRatio="none" x="13782.348633" y="-3479.370117" width="1.098633" height="1.098633"/>
<image xlink:href="tile75_49.png" preserveAspectRatio="none" x="13782.348633" y="-3480.46875" width="1.098633" height="1.098633"/>
<image xlink:href="tile75_48.png" preserveAspectRatio="none" x="13782.348633" y="-3481.567383" width="1.098633" height="1.098633"/>
<image xlink:href="tile75_47.png" preserveAspectRatio="none" x="13782.348633" y="-3482.666016" width="1.098633" height="1.098633"/>
<image xlink:href="tile75_46.png" preserveAspectRatio="none" x="13782.348633" y="-3483.764648" width="1.098633" height="1.098633"/>
<image xlink:href="tile76_61.png" preserveAspectRatio="none" x="13783.447266" y="-3467.285156" width="1.098633" height="1.098633"/>
<image xlink:href="tile76_60.png" preserveAspectRatio="none" x="13783.447266" y="-3468.383789" width="1.098633" height="1.098633"/>
<image xlink:href="tile76_59.png" preserveAspectRatio="none" x="13783.447266" y="-3469.482422" width="1.098633" height="1.098633"/>
<image xlink:href="tile76_58.png" preserveAspectRatio="none" x="13783.447266" y="-3470.581055" width="1.098633" height="1.098633"/>
<image xlink:href="tile76_57.png" preserveAspectRatio="none" x="13783.447266" y="-3471.679688" width="1.098633" height="1.098633"/>
<image xlink:href="tile76_56.png" preserveAspectRatio="none" x="13783.447266" y="-3472.77832" width="1.098633" height="1.098633"/>
<image xlink:href="tile76_55.png" preserveAspectRatio="none" x="13783.447266" y="-3473.876953" width="1.098633" height="1.098633"/>
<image xlink:href="tile76_54.png" preserveAspectRatio="none" x="13783.447266" y="-3474.975586" width="1.098633" height="1.098633"/>
<image xlink:href="tile76_53.png" preserveAspectRatio="none" x="13783.447266" y="-3476.074219" width="1.098633" height="1.098633"/>
<image xlink:href="tile76_52.png" preserveAspectRatio="none" x="13783.447266" y="-3477.172852" width="1.098633" height="1.098633"/>
<image xlink:href="tile76_51.png" preserveAspectRatio="none" x="13783.447266" y="-3478.271484" width="1.098633" height="1.098633"/>
<image xlink:href="tile76_50.png" preserveAspectRatio="none" x="13783.447266" y="-3479.370117" width="1.098633" height="1.098633"/>
<image xlink:href="tile76_49.png" preserveAspectRatio="none" x="13783.447266" y="-3480.46875" width="1.098633" height="1.098633"/>
<image xlink:href="tile76_48.png" preserveAspectRatio="none" x="13783.447266" y="-3481.567383" width="1.098633" height="1.098633"/>
<image xlink:href="tile76_47.png" preserveAspectRatio="none" x="13783.447266" y="-3482.666016" width="1.098633" height="1.098633"/>
<image xlink:href="tile76_46.png" preserveAspectRatio="none" x="13783.447266" y="-3483.764648" width="1.098633" height="1.098633"/>
<image xlink:href="tile77_61.png" preserveAspectRatio="none" x="13784.545898" y="-3467.285156" width="1.098633" height="1.098633"/>
<image xlink:href="tile77_60.png" preserveAspectRatio="none" x="13784.545898" y="-3468.383789" width="1.098633" height="1.098633"/>
<image xlink:href="tile77_59.png" preserveAspectRatio="none" x="13784.545898" y="-3469.482422" width="1.098633" height="1.098633"/>
<image xlink:href="tile77_58.png" preserveAspectRatio="none" x="13784.545898" y="-3470.581055" width="1.098633" height="1.098633"/>
<image xlink:href="tile77_57.png" preserveAspectRatio="none" x="13784.545898" y="-3471.679688" width="1.098633" height="1.098633"/>
<image xlink:href="tile77_56.png" preserveAspectRatio="none" x="13784.545898" y="-3472.77832" width="1.098633" height="1.098633"/>
<image xlink:href="tile77_49.png" preserveAspectRatio="none" x="13784.545898" y="-3480.46875" width="1.098633" height="1.098633"/>
<image xlink:href="tile77_48.png" preserveAspectRatio="none" x="13784.545898" y="-3481.567383" width="1.098633" height="1.098633"/>
<image xlink:href="tile77_47.png" preserveAspectRatio="none" x="13784.545898" y="-3482.666016" width="1.098633" height="1.098633"/>
<image xlink:href="tile77_46.png" preserveAspectRatio="none" x="13784.545898" y="-3483.764648" width="1.098633" height="1.098633"/>
<image xlink:href="tile78_61.png" preserveAspectRatio="none" x="13785.644531" y="-3467.285156" width="1.098633" height="1.098633"/>
<image xlink:href="tile78_60.png" preserveAspectRatio="none" x="13785.644531" y="-3468.383789" width="1.098633" height="1.098633"/>
<image xlink:href="tile78_59.png" preserveAspectRatio="none" x="13785.644531" y="-3469.482422" width="1.098633" height="1.098633"/>
<image xlink:href="tile78_58.png" preserveAspectRatio="none" x="13785.644531" y="-3470.581055" width="1.098633" height="1.098633"/>
<image xlink:href="tile78_57.png" preserveAspectRatio="none" x="13785.644531" y="-3471.679688" width="1.098633" height="1.098633"/>
<image xlink:href="tile78_56.png" preserveAspectRatio="none" x="13785.644531" y="-3472.77832" width="1.098633" height="1.098633"/>
<image xlink:href="tile78_55.png" preserveAspectRatio="none" x="13785.644531" y="-3473.876953" width="1.098633" height="1.098633"/>
<image xlink:href="tile78_48.png" preserveAspectRatio="none" x="13785.644531" y="-3481.567383" width="1.098633" height="1.098633"/>
<image xlink:href="tile78_47.png" preserveAspectRatio="none" x="13785.644531" y="-3482.666016" width="1.098633" height="1.098633"/>
<image xlink:href="tile78_46.png" preserveAspectRatio="none" x="13785.644531" y="-3483.764648" width="1.098633" height="1.098633"/>
<image xlink:href="tile79_61.png" preserveAspectRatio="none" x="13786.743164" y="-3467.285156" width="1.098633" height="1.098633"/>
<image xlink:href="tile79_60.png" preserveAspectRatio="none" x="13786.743164" y="-3468.383789" width="1.098633" height="1.098633"/>
<image xlink:href="tile79_59.png" preserveAspectRatio="none" x="13786.743164" y="-3469.482422" width="1.098633" height="1.098633"/>
<image xlink:href="tile79_58.png" preserveAspectRatio="none" x="13786.743164" y="-3470.581055" width="1.098633" height="1.098633"/>
<image xlink:href="tile79_57.png" preserveAspectRatio="none" x="13786.743164" y="-3471.679688" width="1.098633" height="1.098633"/>
<image xlink:href="tile79_56.png" preserveAspectRatio="none" x="13786.743164" y="-3472.77832" width="1.098633" height="1.098633"/>
<image xlink:href="tile79_53.png" preserveAspectRatio="none" x="13786.743164" y="-3476.074219" width="1.098633" height="1.098633"/>
<image xlink:href="tile79_52.png" preserveAspectRatio="none" x="13786.743164" y="-3477.172852" width="1.098633" height="1.098633"/>
<image xlink:href="tile79_51.png" preserveAspectRatio="none" x="13786.743164" y="-3478.271484" width="1.098633" height="1.098633"/>
<image xlink:href="tile79_50.png" preserveAspectRatio="none" x="13786.743164" y="-3479.370117" width="1.098633" height="1.098633"/>
<image xlink:href="tile79_49.png" preserveAspectRatio="none" x="13786.743164" y="-3480.46875" width="1.098633" height="1.098633"/>
<image xlink:href="tile79_48.png" preserveAspectRatio="none" x="13786.743164" y="-3481.567383" width="1.098633" height="1.098633"/>
<image xlink:href="tile79_47.png" preserveAspectRatio="none" x="13786.743164" y="-3482.666016" width="1.098633" height="1.098633"/>
<image xlink:href="tile79_46.png" preserveAspectRatio="none" x="13786.743164" y="-3483.764648" width="1.098633" height="1.098633"/>
</g>
</svg>
