<?xml version="1.0" encoding="UTF-8"?>
<svg  xmlns="http://www.w3.org/2000/svg" xmlns:xlink="http://www.w3.org/1999/xlink" xmlns:go="http://purl.org/svgmap/profile" viewBox="13611.093970300002 -3666.666667 88.90602969999861 66.66666699999979" go:dataArea="13611.093970300002 -3666.666667 88.90602969999861 66.66666699999979" >
<metadata>
 <rdf:RDF xmlns:rdf="http://www.w3.org/1999/02/22-rdf-syntax-ns#" xmlns:crs="http://opengis.org/xmldtds/transformations.dtd" xmlns:svg="http://www.w3.org/svg" >
  <rdf:Description>
   <crs:CoordinateReferenceSystem rdf:resource="http://purl.org/crs/84" svg:transform="matrix(100.0,0.0,0.0,-100.0,0.0,0.0)" />
  </rdf:Description>
 </rdf:RDF>
</metadata>
<globalCoordinateSystem srsName="http://purl.org/crs/84" transform="matrix(100.0,0.0,0.0,-100.0,0.0,0.0)" />
<g >
<image xlink:href="tile32_54.png" preserveAspectRatio="none" x="13646.118164" y="-3607.910156" width="1.098633" height="1.098633"/>
<image xlink:href="tile32_53.png" preserveAspectRatio="none" x="13646.118164" y="-3609.008789" width="1.098633" height="1.098633"/>
<image xlink:href="tile33_61.png" preserveAspectRatio="none" x="13647.216797" y="-3600.219727" width="1.098633" height="1.098633"/>
<image xlink:href="tile33_60.png" preserveAspectRatio="none" x="13647.216797" y="-3601.318359" width="1.098633" height="1.098633"/>
<image xlink:href="tile33_55.png" preserveAspectRatio="none" x="13647.216797" y="-3606.811523" width="1.098633" height="1.098633"/>
<image xlink:href="tile33_54.png" preserveAspectRatio="none" x="13647.216797" y="-3607.910156" width="1.098633" height="1.098633"/>
<image xlink:href="tile34_61.png" preserveAspectRatio="none" x="13648.31543" y="-3600.219727" width="1.098633" height="1.098633"/>
<image xlink:href="tile34_60.png" preserveAspectRatio="none" x="13648.31543" y="-3601.318359" width="1.098633" height="1.098633"/>
<image xlink:href="tile34_57.png" preserveAspectRatio="none" x="13648.31543" y="-3604.614258" width="1.098633" height="1.098633"/>
<image xlink:href="tile34_56.png" preserveAspectRatio="none" x="13648.31543" y="-3605.712891" width="1.098633" height="1.098633"/>
<image xlink:href="tile34_55.png" preserveAspectRatio="none" x="13648.31543" y="-3606.811523" width="1.098633" height="1.098633"/>
<image xlink:href="tile34_54.png" preserveAspectRatio="none" x="13648.31543" y="-3607.910156" width="1.098633" height="1.098633"/>
<image xlink:href="tile35_61.png" preserveAspectRatio="none" x="13649.414062" y="-3600.219727" width="1.098633" height="1.098633"/>
<image xlink:href="tile35_60.png" preserveAspectRatio="none" x="13649.414062" y="-3601.318359" width="1.098633" height="1.098633"/>
<image xlink:href="tile35_59.png" preserveAspectRatio="none" x="13649.414062" y="-3602.416992" width="1.098633" height="1.098633"/>
<image xlink:href="tile35_57.png" preserveAspectRatio="none" x="13649.414062" y="-3604.614258" width="1.098633" height="1.098633"/>
<image xlink:href="tile35_56.png" preserveAspectRatio="none" x="13649.414062" y="-3605.712891" width="1.098633" height="1.098633"/>
<image xlink:href="tile35_55.png" preserveAspectRatio="none" x="13649.414062" y="-3606.811523" width="1.098633" height="1.098633"/>
<image xlink:href="tile36_61.png" preserveAspectRatio="none" x="13650.512695" y="-3600.219727" width="1.098633" height="1.098633"/>
<image xlink:href="tile36_60.png" preserveAspectRatio="none" x="13650.512695" y="-3601.318359" width="1.098633" height="1.098633"/>
<image xlink:href="tile36_59.png" preserveAspectRatio="none" x="13650.512695" y="-3602.416992" width="1.098633" height="1.098633"/>
<image xlink:href="tile36_58.png" preserveAspectRatio="none" x="13650.512695" y="-3603.515625" width="1.098633" height="1.098633"/>
<image xlink:href="tile36_57.png" preserveAspectRatio="none" x="13650.512695" y="-3604.614258" width="1.098633" height="1.098633"/>
<image xlink:href="tile37_60.png" preserveAspectRatio="none" x="13651.611328" y="-3601.318359" width="1.098633" height="1.098633"/>
<image xlink:href="tile37_59.png" preserveAspectRatio="none" x="13651.611328" y="-3602.416992" width="1.098633" height="1.098633"/>
<image xlink:href="tile37_58.png" preserveAspectRatio="none" x="13651.611328" y="-3603.515625" width="1.098633" height="1.098633"/>
<image xlink:href="tile38_60.png" preserveAspectRatio="none" x="13652.709961" y="-3601.318359" width="1.098633" height="1.098633"/>
<image xlink:href="tile38_59.png" preserveAspectRatio="none" x="13652.709961" y="-3602.416992" width="1.098633" height="1.098633"/>
<image xlink:href="tile39_61.png" preserveAspectRatio="none" x="13653.808594" y="-3600.219727" width="1.098633" height="1.098633"/>
<image xlink:href="tile39_60.png" preserveAspectRatio="none" x="13653.808594" y="-3601.318359" width="1.098633" height="1.098633"/>
</g>
</svg>
