<?xml version="1.0" encoding="UTF-8"?>
<svg  xmlns="http://www.w3.org/2000/svg" xmlns:xlink="http://www.w3.org/1999/xlink" xmlns:go="http://purl.org/svgmap/profile" viewBox="13611.093970300002 -3666.666667 88.90602969999861 66.66666699999979" go:dataArea="13611.093970300002 -3666.666667 88.90602969999861 66.66666699999979" >
<metadata>
 <rdf:RDF xmlns:rdf="http://www.w3.org/1999/02/22-rdf-syntax-ns#" xmlns:crs="http://opengis.org/xmldtds/transformations.dtd" xmlns:svg="http://www.w3.org/svg" >
  <rdf:Description>
   <crs:CoordinateReferenceSystem rdf:resource="http://purl.org/crs/84" svg:transform="matrix(100.0,0.0,0.0,-100.0,0.0,0.0)" />
  </rdf:Description>
 </rdf:RDF>
</metadata>
<globalCoordinateSystem srsName="http://purl.org/crs/84" transform="matrix(100.0,0.0,0.0,-100.0,0.0,0.0)" />
<g >
<image xlink:href="tile1_45.png" preserveAspectRatio="none" x="13612.060547" y="-3617.797852" width="1.098633" height="1.098633"/>
<image xlink:href="tile2_45.png" preserveAspectRatio="none" x="13613.15918" y="-3617.797852" width="1.098633" height="1.098633"/>
<image xlink:href="tile2_44.png" preserveAspectRatio="none" x="13613.15918" y="-3618.896484" width="1.098633" height="1.098633"/>
<image xlink:href="tile2_42.png" preserveAspectRatio="none" x="13613.15918" y="-3621.09375" width="1.098633" height="1.098633"/>
<image xlink:href="tile2_41.png" preserveAspectRatio="none" x="13613.15918" y="-3622.192383" width="1.098633" height="1.098633"/>
<image xlink:href="tile3_45.png" preserveAspectRatio="none" x="13614.257812" y="-3617.797852" width="1.098633" height="1.098633"/>
<image xlink:href="tile3_44.png" preserveAspectRatio="none" x="13614.257812" y="-3618.896484" width="1.098633" height="1.098633"/>
<image xlink:href="tile3_43.png" preserveAspectRatio="none" x="13614.257812" y="-3619.995117" width="1.098633" height="1.098633"/>
<image xlink:href="tile3_42.png" preserveAspectRatio="none" x="13614.257812" y="-3621.09375" width="1.098633" height="1.098633"/>
<image xlink:href="tile3_41.png" preserveAspectRatio="none" x="13614.257812" y="-3622.192383" width="1.098633" height="1.098633"/>
<image xlink:href="tile4_45.png" preserveAspectRatio="none" x="13615.356445" y="-3617.797852" width="1.098633" height="1.098633"/>
<image xlink:href="tile4_44.png" preserveAspectRatio="none" x="13615.356445" y="-3618.896484" width="1.098633" height="1.098633"/>
<image xlink:href="tile4_43.png" preserveAspectRatio="none" x="13615.356445" y="-3619.995117" width="1.098633" height="1.098633"/>
<image xlink:href="tile4_42.png" preserveAspectRatio="none" x="13615.356445" y="-3621.09375" width="1.098633" height="1.098633"/>
<image xlink:href="tile4_41.png" preserveAspectRatio="none" x="13615.356445" y="-3622.192383" width="1.098633" height="1.098633"/>
<image xlink:href="tile4_40.png" preserveAspectRatio="none" x="13615.356445" y="-3623.291016" width="1.098633" height="1.098633"/>
<image xlink:href="tile5_45.png" preserveAspectRatio="none" x="13616.455078" y="-3617.797852" width="1.098633" height="1.098633"/>
<image xlink:href="tile5_44.png" preserveAspectRatio="none" x="13616.455078" y="-3618.896484" width="1.098633" height="1.098633"/>
<image xlink:href="tile5_43.png" preserveAspectRatio="none" x="13616.455078" y="-3619.995117" width="1.098633" height="1.098633"/>
<image xlink:href="tile5_42.png" preserveAspectRatio="none" x="13616.455078" y="-3621.09375" width="1.098633" height="1.098633"/>
<image xlink:href="tile5_41.png" preserveAspectRatio="none" x="13616.455078" y="-3622.192383" width="1.098633" height="1.098633"/>
<image xlink:href="tile5_40.png" preserveAspectRatio="none" x="13616.455078" y="-3623.291016" width="1.098633" height="1.098633"/>
<image xlink:href="tile6_45.png" preserveAspectRatio="none" x="13617.553711" y="-3617.797852" width="1.098633" height="1.098633"/>
<image xlink:href="tile6_44.png" preserveAspectRatio="none" x="13617.553711" y="-3618.896484" width="1.098633" height="1.098633"/>
<image xlink:href="tile6_43.png" preserveAspectRatio="none" x="13617.553711" y="-3619.995117" width="1.098633" height="1.098633"/>
<image xlink:href="tile6_42.png" preserveAspectRatio="none" x="13617.553711" y="-3621.09375" width="1.098633" height="1.098633"/>
<image xlink:href="tile6_41.png" preserveAspectRatio="none" x="13617.553711" y="-3622.192383" width="1.098633" height="1.098633"/>
<image xlink:href="tile6_40.png" preserveAspectRatio="none" x="13617.553711" y="-3623.291016" width="1.098633" height="1.098633"/>
<image xlink:href="tile7_45.png" preserveAspectRatio="none" x="13618.652344" y="-3617.797852" width="1.098633" height="1.098633"/>
<image xlink:href="tile7_44.png" preserveAspectRatio="none" x="13618.652344" y="-3618.896484" width="1.098633" height="1.098633"/>
<image xlink:href="tile7_43.png" preserveAspectRatio="none" x="13618.652344" y="-3619.995117" width="1.098633" height="1.098633"/>
<image xlink:href="tile7_42.png" preserveAspectRatio="none" x="13618.652344" y="-3621.09375" width="1.098633" height="1.098633"/>
<image xlink:href="tile7_41.png" preserveAspectRatio="none" x="13618.652344" y="-3622.192383" width="1.098633" height="1.098633"/>
<image xlink:href="tile7_40.png" preserveAspectRatio="none" x="13618.652344" y="-3623.291016" width="1.098633" height="1.098633"/>
<image xlink:href="tile8_45.png" preserveAspectRatio="none" x="13619.750977" y="-3617.797852" width="1.098633" height="1.098633"/>
<image xlink:href="tile8_44.png" preserveAspectRatio="none" x="13619.750977" y="-3618.896484" width="1.098633" height="1.098633"/>
<image xlink:href="tile8_43.png" preserveAspectRatio="none" x="13619.750977" y="-3619.995117" width="1.098633" height="1.098633"/>
<image xlink:href="tile8_42.png" preserveAspectRatio="none" x="13619.750977" y="-3621.09375" width="1.098633" height="1.098633"/>
<image xlink:href="tile8_41.png" preserveAspectRatio="none" x="13619.750977" y="-3622.192383" width="1.098633" height="1.098633"/>
<image xlink:href="tile8_40.png" preserveAspectRatio="none" x="13619.750977" y="-3623.291016" width="1.098633" height="1.098633"/>
<image xlink:href="tile9_45.png" preserveAspectRatio="none" x="13620.849609" y="-3617.797852" width="1.098633" height="1.098633"/>
<image xlink:href="tile9_44.png" preserveAspectRatio="none" x="13620.849609" y="-3618.896484" width="1.098633" height="1.098633"/>
<image xlink:href="tile9_43.png" preserveAspectRatio="none" x="13620.849609" y="-3619.995117" width="1.098633" height="1.098633"/>
<image xlink:href="tile9_42.png" preserveAspectRatio="none" x="13620.849609" y="-3621.09375" width="1.098633" height="1.098633"/>
<image xlink:href="tile9_41.png" preserveAspectRatio="none" x="13620.849609" y="-3622.192383" width="1.098633" height="1.098633"/>
<image xlink:href="tile10_45.png" preserveAspectRatio="none" x="13621.948242" y="-3617.797852" width="1.098633" height="1.098633"/>
<image xlink:href="tile10_44.png" preserveAspectRatio="none" x="13621.948242" y="-3618.896484" width="1.098633" height="1.098633"/>
<image xlink:href="tile10_43.png" preserveAspectRatio="none" x="13621.948242" y="-3619.995117" width="1.098633" height="1.098633"/>
<image xlink:href="tile10_42.png" preserveAspectRatio="none" x="13621.948242" y="-3621.09375" width="1.098633" height="1.098633"/>
<image xlink:href="tile10_41.png" preserveAspectRatio="none" x="13621.948242" y="-3622.192383" width="1.098633" height="1.098633"/>
<image xlink:href="tile11_45.png" preserveAspectRatio="none" x="13623.046875" y="-3617.797852" width="1.098633" height="1.098633"/>
<image xlink:href="tile11_44.png" preserveAspectRatio="none" x="13623.046875" y="-3618.896484" width="1.098633" height="1.098633"/>
<image xlink:href="tile11_43.png" preserveAspectRatio="none" x="13623.046875" y="-3619.995117" width="1.098633" height="1.098633"/>
<image xlink:href="tile11_42.png" preserveAspectRatio="none" x="13623.046875" y="-3621.09375" width="1.098633" height="1.098633"/>
<image xlink:href="tile11_41.png" preserveAspectRatio="none" x="13623.046875" y="-3622.192383" width="1.098633" height="1.098633"/>
<image xlink:href="tile11_40.png" preserveAspectRatio="none" x="13623.046875" y="-3623.291016" width="1.098633" height="1.098633"/>
<image xlink:href="tile12_45.png" preserveAspectRatio="none" x="13624.145508" y="-3617.797852" width="1.098633" height="1.098633"/>
<image xlink:href="tile12_44.png" preserveAspectRatio="none" x="13624.145508" y="-3618.896484" width="1.098633" height="1.098633"/>
<image xlink:href="tile12_43.png" preserveAspectRatio="none" x="13624.145508" y="-3619.995117" width="1.098633" height="1.098633"/>
<image xlink:href="tile12_42.png" preserveAspectRatio="none" x="13624.145508" y="-3621.09375" width="1.098633" height="1.098633"/>
<image xlink:href="tile12_40.png" preserveAspectRatio="none" x="13624.145508" y="-3623.291016" width="1.098633" height="1.098633"/>
<image xlink:href="tile12_34.png" preserveAspectRatio="none" x="13624.145508" y="-3629.882812" width="1.098633" height="1.098633"/>
<image xlink:href="tile13_45.png" preserveAspectRatio="none" x="13625.244141" y="-3617.797852" width="1.098633" height="1.098633"/>
<image xlink:href="tile13_44.png" preserveAspectRatio="none" x="13625.244141" y="-3618.896484" width="1.098633" height="1.098633"/>
<image xlink:href="tile13_43.png" preserveAspectRatio="none" x="13625.244141" y="-3619.995117" width="1.098633" height="1.098633"/>
<image xlink:href="tile13_42.png" preserveAspectRatio="none" x="13625.244141" y="-3621.09375" width="1.098633" height="1.098633"/>
<image xlink:href="tile13_40.png" preserveAspectRatio="none" x="13625.244141" y="-3623.291016" width="1.098633" height="1.098633"/>
<image xlink:href="tile13_39.png" preserveAspectRatio="none" x="13625.244141" y="-3624.389648" width="1.098633" height="1.098633"/>
<image xlink:href="tile13_34.png" preserveAspectRatio="none" x="13625.244141" y="-3629.882812" width="1.098633" height="1.098633"/>
<image xlink:href="tile14_45.png" preserveAspectRatio="none" x="13626.342773" y="-3617.797852" width="1.098633" height="1.098633"/>
<image xlink:href="tile14_44.png" preserveAspectRatio="none" x="13626.342773" y="-3618.896484" width="1.098633" height="1.098633"/>
<image xlink:href="tile14_43.png" preserveAspectRatio="none" x="13626.342773" y="-3619.995117" width="1.098633" height="1.098633"/>
<image xlink:href="tile14_42.png" preserveAspectRatio="none" x="13626.342773" y="-3621.09375" width="1.098633" height="1.098633"/>
<image xlink:href="tile14_34.png" preserveAspectRatio="none" x="13626.342773" y="-3629.882812" width="1.098633" height="1.098633"/>
<image xlink:href="tile14_33.png" preserveAspectRatio="none" x="13626.342773" y="-3630.981445" width="1.098633" height="1.098633"/>
<image xlink:href="tile15_45.png" preserveAspectRatio="none" x="13627.441406" y="-3617.797852" width="1.098633" height="1.098633"/>
<image xlink:href="tile15_44.png" preserveAspectRatio="none" x="13627.441406" y="-3618.896484" width="1.098633" height="1.098633"/>
<image xlink:href="tile15_43.png" preserveAspectRatio="none" x="13627.441406" y="-3619.995117" width="1.098633" height="1.098633"/>
<image xlink:href="tile15_34.png" preserveAspectRatio="none" x="13627.441406" y="-3629.882812" width="1.098633" height="1.098633"/>
<image xlink:href="tile15_33.png" preserveAspectRatio="none" x="13627.441406" y="-3630.981445" width="1.098633" height="1.098633"/>
</g>
</svg>
