<?xml version="1.0" encoding="UTF-8"?>
<svg  xmlns="http://www.w3.org/2000/svg" xmlns:xlink="http://www.w3.org/1999/xlink" xmlns:go="http://purl.org/svgmap/profile" viewBox="13300.0 -3533.3333332 100.0 66.66666660000047" go:dataArea="13300.0 -3533.3333332 100.0 66.66666660000047" >
<metadata>
 <rdf:RDF xmlns:rdf="http://www.w3.org/1999/02/22-rdf-syntax-ns#" xmlns:crs="http://opengis.org/xmldtds/transformations.dtd" xmlns:svg="http://www.w3.org/svg" >
  <rdf:Description>
   <crs:CoordinateReferenceSystem rdf:resource="http://purl.org/crs/84" svg:transform="matrix(100.0,0.0,0.0,-100.0,0.0,0.0)" />
  </rdf:Description>
 </rdf:RDF>
</metadata>
<globalCoordinateSystem srsName="http://purl.org/crs/84" transform="matrix(100.0,0.0,0.0,-100.0,0.0,0.0)" />
<g >
<image xlink:href="tile35_54.png" preserveAspectRatio="none" x="13337.402344" y="-3474.975586" width="1.098633" height="1.098633"/>
<image xlink:href="tile35_53.png" preserveAspectRatio="none" x="13337.402344" y="-3476.074219" width="1.098633" height="1.098633"/>
<image xlink:href="tile36_54.png" preserveAspectRatio="none" x="13338.500977" y="-3474.975586" width="1.098633" height="1.098633"/>
<image xlink:href="tile36_53.png" preserveAspectRatio="none" x="13338.500977" y="-3476.074219" width="1.098633" height="1.098633"/>
<image xlink:href="tile37_60.png" preserveAspectRatio="none" x="13339.599609" y="-3468.383789" width="1.098633" height="1.098633"/>
<image xlink:href="tile37_59.png" preserveAspectRatio="none" x="13339.599609" y="-3469.482422" width="1.098633" height="1.098633"/>
<image xlink:href="tile37_54.png" preserveAspectRatio="none" x="13339.599609" y="-3474.975586" width="1.098633" height="1.098633"/>
<image xlink:href="tile37_53.png" preserveAspectRatio="none" x="13339.599609" y="-3476.074219" width="1.098633" height="1.098633"/>
<image xlink:href="tile37_47.png" preserveAspectRatio="none" x="13339.599609" y="-3482.666016" width="1.098633" height="1.098633"/>
<image xlink:href="tile38_61.png" preserveAspectRatio="none" x="13340.698242" y="-3467.285156" width="1.098633" height="1.098633"/>
<image xlink:href="tile38_60.png" preserveAspectRatio="none" x="13340.698242" y="-3468.383789" width="1.098633" height="1.098633"/>
<image xlink:href="tile38_59.png" preserveAspectRatio="none" x="13340.698242" y="-3469.482422" width="1.098633" height="1.098633"/>
<image xlink:href="tile38_53.png" preserveAspectRatio="none" x="13340.698242" y="-3476.074219" width="1.098633" height="1.098633"/>
<image xlink:href="tile38_52.png" preserveAspectRatio="none" x="13340.698242" y="-3477.172852" width="1.098633" height="1.098633"/>
<image xlink:href="tile38_51.png" preserveAspectRatio="none" x="13340.698242" y="-3478.271484" width="1.098633" height="1.098633"/>
<image xlink:href="tile39_60.png" preserveAspectRatio="none" x="13341.796875" y="-3468.383789" width="1.098633" height="1.098633"/>
<image xlink:href="tile39_56.png" preserveAspectRatio="none" x="13341.796875" y="-3472.77832" width="1.098633" height="1.098633"/>
<image xlink:href="tile39_51.png" preserveAspectRatio="none" x="13341.796875" y="-3478.271484" width="1.098633" height="1.098633"/>
<image xlink:href="tile39_50.png" preserveAspectRatio="none" x="13341.796875" y="-3479.370117" width="1.098633" height="1.098633"/>
<image xlink:href="tile39_49.png" preserveAspectRatio="none" x="13341.796875" y="-3480.46875" width="1.098633" height="1.098633"/>
<image xlink:href="tile39_48.png" preserveAspectRatio="none" x="13341.796875" y="-3481.567383" width="1.098633" height="1.098633"/>
<image xlink:href="tile40_58.png" preserveAspectRatio="none" x="13342.895508" y="-3470.581055" width="1.098633" height="1.098633"/>
<image xlink:href="tile40_57.png" preserveAspectRatio="none" x="13342.895508" y="-3471.679688" width="1.098633" height="1.098633"/>
<image xlink:href="tile40_56.png" preserveAspectRatio="none" x="13342.895508" y="-3472.77832" width="1.098633" height="1.098633"/>
<image xlink:href="tile40_50.png" preserveAspectRatio="none" x="13342.895508" y="-3479.370117" width="1.098633" height="1.098633"/>
<image xlink:href="tile40_49.png" preserveAspectRatio="none" x="13342.895508" y="-3480.46875" width="1.098633" height="1.098633"/>
<image xlink:href="tile40_48.png" preserveAspectRatio="none" x="13342.895508" y="-3481.567383" width="1.098633" height="1.098633"/>
<image xlink:href="tile40_47.png" preserveAspectRatio="none" x="13342.895508" y="-3482.666016" width="1.098633" height="1.098633"/>
<image xlink:href="tile41_58.png" preserveAspectRatio="none" x="13343.994141" y="-3470.581055" width="1.098633" height="1.098633"/>
<image xlink:href="tile41_57.png" preserveAspectRatio="none" x="13343.994141" y="-3471.679688" width="1.098633" height="1.098633"/>
<image xlink:href="tile41_56.png" preserveAspectRatio="none" x="13343.994141" y="-3472.77832" width="1.098633" height="1.098633"/>
<image xlink:href="tile41_52.png" preserveAspectRatio="none" x="13343.994141" y="-3477.172852" width="1.098633" height="1.098633"/>
<image xlink:href="tile41_50.png" preserveAspectRatio="none" x="13343.994141" y="-3479.370117" width="1.098633" height="1.098633"/>
<image xlink:href="tile41_49.png" preserveAspectRatio="none" x="13343.994141" y="-3480.46875" width="1.098633" height="1.098633"/>
<image xlink:href="tile41_47.png" preserveAspectRatio="none" x="13343.994141" y="-3482.666016" width="1.098633" height="1.098633"/>
<image xlink:href="tile41_46.png" preserveAspectRatio="none" x="13343.994141" y="-3483.764648" width="1.098633" height="1.098633"/>
<image xlink:href="tile42_56.png" preserveAspectRatio="none" x="13345.092773" y="-3472.77832" width="1.098633" height="1.098633"/>
<image xlink:href="tile42_52.png" preserveAspectRatio="none" x="13345.092773" y="-3477.172852" width="1.098633" height="1.098633"/>
<image xlink:href="tile42_51.png" preserveAspectRatio="none" x="13345.092773" y="-3478.271484" width="1.098633" height="1.098633"/>
<image xlink:href="tile42_50.png" preserveAspectRatio="none" x="13345.092773" y="-3479.370117" width="1.098633" height="1.098633"/>
<image xlink:href="tile43_56.png" preserveAspectRatio="none" x="13346.191406" y="-3472.77832" width="1.098633" height="1.098633"/>
<image xlink:href="tile43_51.png" preserveAspectRatio="none" x="13346.191406" y="-3478.271484" width="1.098633" height="1.098633"/>
<image xlink:href="tile43_50.png" preserveAspectRatio="none" x="13346.191406" y="-3479.370117" width="1.098633" height="1.098633"/>
<image xlink:href="tile44_61.png" preserveAspectRatio="none" x="13347.290039" y="-3467.285156" width="1.098633" height="1.098633"/>
<image xlink:href="tile44_56.png" preserveAspectRatio="none" x="13347.290039" y="-3472.77832" width="1.098633" height="1.098633"/>
<image xlink:href="tile44_55.png" preserveAspectRatio="none" x="13347.290039" y="-3473.876953" width="1.098633" height="1.098633"/>
<image xlink:href="tile44_51.png" preserveAspectRatio="none" x="13347.290039" y="-3478.271484" width="1.098633" height="1.098633"/>
<image xlink:href="tile44_50.png" preserveAspectRatio="none" x="13347.290039" y="-3479.370117" width="1.098633" height="1.098633"/>
<image xlink:href="tile45_55.png" preserveAspectRatio="none" x="13348.388672" y="-3473.876953" width="1.098633" height="1.098633"/>
<image xlink:href="tile45_54.png" preserveAspectRatio="none" x="13348.388672" y="-3474.975586" width="1.098633" height="1.098633"/>
<image xlink:href="tile45_53.png" preserveAspectRatio="none" x="13348.388672" y="-3476.074219" width="1.098633" height="1.098633"/>
<image xlink:href="tile45_51.png" preserveAspectRatio="none" x="13348.388672" y="-3478.271484" width="1.098633" height="1.098633"/>
<image xlink:href="tile45_48.png" preserveAspectRatio="none" x="13348.388672" y="-3481.567383" width="1.098633" height="1.098633"/>
<image xlink:href="tile45_47.png" preserveAspectRatio="none" x="13348.388672" y="-3482.666016" width="1.098633" height="1.098633"/>
<image xlink:href="tile45_46.png" preserveAspectRatio="none" x="13348.388672" y="-3483.764648" width="1.098633" height="1.098633"/>
<image xlink:href="tile46_56.png" preserveAspectRatio="none" x="13349.487305" y="-3472.77832" width="1.098633" height="1.098633"/>
<image xlink:href="tile46_55.png" preserveAspectRatio="none" x="13349.487305" y="-3473.876953" width="1.098633" height="1.098633"/>
<image xlink:href="tile46_53.png" preserveAspectRatio="none" x="13349.487305" y="-3476.074219" width="1.098633" height="1.098633"/>
<image xlink:href="tile46_52.png" preserveAspectRatio="none" x="13349.487305" y="-3477.172852" width="1.098633" height="1.098633"/>
<image xlink:href="tile46_51.png" preserveAspectRatio="none" x="13349.487305" y="-3478.271484" width="1.098633" height="1.098633"/>
<image xlink:href="tile46_50.png" preserveAspectRatio="none" x="13349.487305" y="-3479.370117" width="1.098633" height="1.098633"/>
<image xlink:href="tile46_48.png" preserveAspectRatio="none" x="13349.487305" y="-3481.567383" width="1.098633" height="1.098633"/>
<image xlink:href="tile47_59.png" preserveAspectRatio="none" x="13350.585938" y="-3469.482422" width="1.098633" height="1.098633"/>
<image xlink:href="tile47_58.png" preserveAspectRatio="none" x="13350.585938" y="-3470.581055" width="1.098633" height="1.098633"/>
<image xlink:href="tile47_57.png" preserveAspectRatio="none" x="13350.585938" y="-3471.679688" width="1.098633" height="1.098633"/>
<image xlink:href="tile47_56.png" preserveAspectRatio="none" x="13350.585938" y="-3472.77832" width="1.098633" height="1.098633"/>
<image xlink:href="tile47_51.png" preserveAspectRatio="none" x="13350.585938" y="-3478.271484" width="1.098633" height="1.098633"/>
<image xlink:href="tile47_50.png" preserveAspectRatio="none" x="13350.585938" y="-3479.370117" width="1.098633" height="1.098633"/>
<image xlink:href="tile47_49.png" preserveAspectRatio="none" x="13350.585938" y="-3480.46875" width="1.098633" height="1.098633"/>
<image xlink:href="tile47_48.png" preserveAspectRatio="none" x="13350.585938" y="-3481.567383" width="1.098633" height="1.098633"/>
</g>
</svg>
