<?xml version="1.0" encoding="UTF-8"?>
<svg  xmlns="http://www.w3.org/2000/svg" xmlns:xlink="http://www.w3.org/1999/xlink" xmlns:go="http://purl.org/svgmap/profile" viewBox="13300.0 -3533.3333332 100.0 66.66666660000047" go:dataArea="13300.0 -3533.3333332 100.0 66.66666660000047" >
<metadata>
 <rdf:RDF xmlns:rdf="http://www.w3.org/1999/02/22-rdf-syntax-ns#" xmlns:crs="http://opengis.org/xmldtds/transformations.dtd" xmlns:svg="http://www.w3.org/svg" >
  <rdf:Description>
   <crs:CoordinateReferenceSystem rdf:resource="http://purl.org/crs/84" svg:transform="matrix(100.0,0.0,0.0,-100.0,0.0,0.0)" />
  </rdf:Description>
 </rdf:RDF>
</metadata>
<globalCoordinateSystem srsName="http://purl.org/crs/84" transform="matrix(100.0,0.0,0.0,-100.0,0.0,0.0)" />
<g >
<image xlink:href="tile26_16.png" preserveAspectRatio="none" x="13327.514648" y="-3516.723633" width="1.098633" height="1.098633"/>
<image xlink:href="tile27_22.png" preserveAspectRatio="none" x="13328.613281" y="-3510.131836" width="1.098633" height="1.098633"/>
<image xlink:href="tile27_16.png" preserveAspectRatio="none" x="13328.613281" y="-3516.723633" width="1.098633" height="1.098633"/>
<image xlink:href="tile28_26.png" preserveAspectRatio="none" x="13329.711914" y="-3505.737305" width="1.098633" height="1.098633"/>
<image xlink:href="tile28_25.png" preserveAspectRatio="none" x="13329.711914" y="-3506.835938" width="1.098633" height="1.098633"/>
<image xlink:href="tile28_22.png" preserveAspectRatio="none" x="13329.711914" y="-3510.131836" width="1.098633" height="1.098633"/>
<image xlink:href="tile28_16.png" preserveAspectRatio="none" x="13329.711914" y="-3516.723633" width="1.098633" height="1.098633"/>
<image xlink:href="tile28_15.png" preserveAspectRatio="none" x="13329.711914" y="-3517.822266" width="1.098633" height="1.098633"/>
<image xlink:href="tile29_26.png" preserveAspectRatio="none" x="13330.810547" y="-3505.737305" width="1.098633" height="1.098633"/>
<image xlink:href="tile29_23.png" preserveAspectRatio="none" x="13330.810547" y="-3509.033203" width="1.098633" height="1.098633"/>
<image xlink:href="tile29_22.png" preserveAspectRatio="none" x="13330.810547" y="-3510.131836" width="1.098633" height="1.098633"/>
<image xlink:href="tile29_16.png" preserveAspectRatio="none" x="13330.810547" y="-3516.723633" width="1.098633" height="1.098633"/>
<image xlink:href="tile29_15.png" preserveAspectRatio="none" x="13330.810547" y="-3517.822266" width="1.098633" height="1.098633"/>
<image xlink:href="tile30_27.png" preserveAspectRatio="none" x="13331.90918" y="-3504.638672" width="1.098633" height="1.098633"/>
<image xlink:href="tile30_26.png" preserveAspectRatio="none" x="13331.90918" y="-3505.737305" width="1.098633" height="1.098633"/>
<image xlink:href="tile30_23.png" preserveAspectRatio="none" x="13331.90918" y="-3509.033203" width="1.098633" height="1.098633"/>
<image xlink:href="tile31_28.png" preserveAspectRatio="none" x="13333.007812" y="-3503.540039" width="1.098633" height="1.098633"/>
<image xlink:href="tile31_27.png" preserveAspectRatio="none" x="13333.007812" y="-3504.638672" width="1.098633" height="1.098633"/>
<image xlink:href="tile31_24.png" preserveAspectRatio="none" x="13333.007812" y="-3507.93457" width="1.098633" height="1.098633"/>
<image xlink:href="tile31_23.png" preserveAspectRatio="none" x="13333.007812" y="-3509.033203" width="1.098633" height="1.098633"/>
</g>
</svg>
