<?xml version="1.0" encoding="UTF-8"?>
<svg  xmlns="http://www.w3.org/2000/svg" xmlns:xlink="http://www.w3.org/1999/xlink" xmlns:go="http://purl.org/svgmap/profile" viewBox="13300.0 -3533.3333332 100.0 66.66666660000047" go:dataArea="13300.0 -3533.3333332 100.0 66.66666660000047" >
<metadata>
 <rdf:RDF xmlns:rdf="http://www.w3.org/1999/02/22-rdf-syntax-ns#" xmlns:crs="http://opengis.org/xmldtds/transformations.dtd" xmlns:svg="http://www.w3.org/svg" >
  <rdf:Description>
   <crs:CoordinateReferenceSystem rdf:resource="http://purl.org/crs/84" svg:transform="matrix(100.0,0.0,0.0,-100.0,0.0,0.0)" />
  </rdf:Description>
 </rdf:RDF>
</metadata>
<globalCoordinateSystem srsName="http://purl.org/crs/84" transform="matrix(100.0,0.0,0.0,-100.0,0.0,0.0)" />
<g >
<image xlink:href="tile48_28.png" preserveAspectRatio="none" x="13351.68457" y="-3503.540039" width="1.098633" height="1.098633"/>
<image xlink:href="tile48_19.png" preserveAspectRatio="none" x="13351.68457" y="-3513.427734" width="1.098633" height="1.098633"/>
<image xlink:href="tile48_18.png" preserveAspectRatio="none" x="13351.68457" y="-3514.526367" width="1.098633" height="1.098633"/>
<image xlink:href="tile48_17.png" preserveAspectRatio="none" x="13351.68457" y="-3515.625" width="1.098633" height="1.098633"/>
<image xlink:href="tile49_20.png" preserveAspectRatio="none" x="13352.783203" y="-3512.329102" width="1.098633" height="1.098633"/>
<image xlink:href="tile49_19.png" preserveAspectRatio="none" x="13352.783203" y="-3513.427734" width="1.098633" height="1.098633"/>
<image xlink:href="tile49_18.png" preserveAspectRatio="none" x="13352.783203" y="-3514.526367" width="1.098633" height="1.098633"/>
<image xlink:href="tile49_17.png" preserveAspectRatio="none" x="13352.783203" y="-3515.625" width="1.098633" height="1.098633"/>
<image xlink:href="tile50_20.png" preserveAspectRatio="none" x="13353.881836" y="-3512.329102" width="1.098633" height="1.098633"/>
<image xlink:href="tile50_19.png" preserveAspectRatio="none" x="13353.881836" y="-3513.427734" width="1.098633" height="1.098633"/>
<image xlink:href="tile51_25.png" preserveAspectRatio="none" x="13354.980469" y="-3506.835938" width="1.098633" height="1.098633"/>
<image xlink:href="tile51_21.png" preserveAspectRatio="none" x="13354.980469" y="-3511.230469" width="1.098633" height="1.098633"/>
<image xlink:href="tile51_20.png" preserveAspectRatio="none" x="13354.980469" y="-3512.329102" width="1.098633" height="1.098633"/>
<image xlink:href="tile52_29.png" preserveAspectRatio="none" x="13356.079102" y="-3502.441406" width="1.098633" height="1.098633"/>
<image xlink:href="tile52_25.png" preserveAspectRatio="none" x="13356.079102" y="-3506.835938" width="1.098633" height="1.098633"/>
<image xlink:href="tile52_24.png" preserveAspectRatio="none" x="13356.079102" y="-3507.93457" width="1.098633" height="1.098633"/>
<image xlink:href="tile52_23.png" preserveAspectRatio="none" x="13356.079102" y="-3509.033203" width="1.098633" height="1.098633"/>
<image xlink:href="tile52_22.png" preserveAspectRatio="none" x="13356.079102" y="-3510.131836" width="1.098633" height="1.098633"/>
<image xlink:href="tile52_21.png" preserveAspectRatio="none" x="13356.079102" y="-3511.230469" width="1.098633" height="1.098633"/>
<image xlink:href="tile52_20.png" preserveAspectRatio="none" x="13356.079102" y="-3512.329102" width="1.098633" height="1.098633"/>
<image xlink:href="tile53_29.png" preserveAspectRatio="none" x="13357.177734" y="-3502.441406" width="1.098633" height="1.098633"/>
<image xlink:href="tile53_28.png" preserveAspectRatio="none" x="13357.177734" y="-3503.540039" width="1.098633" height="1.098633"/>
<image xlink:href="tile53_27.png" preserveAspectRatio="none" x="13357.177734" y="-3504.638672" width="1.098633" height="1.098633"/>
<image xlink:href="tile53_26.png" preserveAspectRatio="none" x="13357.177734" y="-3505.737305" width="1.098633" height="1.098633"/>
<image xlink:href="tile53_25.png" preserveAspectRatio="none" x="13357.177734" y="-3506.835938" width="1.098633" height="1.098633"/>
<image xlink:href="tile53_24.png" preserveAspectRatio="none" x="13357.177734" y="-3507.93457" width="1.098633" height="1.098633"/>
<image xlink:href="tile53_23.png" preserveAspectRatio="none" x="13357.177734" y="-3509.033203" width="1.098633" height="1.098633"/>
<image xlink:href="tile53_22.png" preserveAspectRatio="none" x="13357.177734" y="-3510.131836" width="1.098633" height="1.098633"/>
<image xlink:href="tile63_24.png" preserveAspectRatio="none" x="13368.164062" y="-3507.93457" width="1.098633" height="1.098633"/>
<image xlink:href="tile63_23.png" preserveAspectRatio="none" x="13368.164062" y="-3509.033203" width="1.098633" height="1.098633"/>
<image xlink:href="tile63_22.png" preserveAspectRatio="none" x="13368.164062" y="-3510.131836" width="1.098633" height="1.098633"/>
</g>
</svg>
