<?xml version="1.0" encoding="UTF-8"?>
<svg  xmlns="http://www.w3.org/2000/svg" xmlns:xlink="http://www.w3.org/1999/xlink" xmlns:go="http://purl.org/svgmap/profile" viewBox="13900.0 -3666.666667 100.0 66.66666699999979" go:dataArea="13900.0 -3666.666667 100.0 66.66666699999979" >
<metadata>
 <rdf:RDF xmlns:rdf="http://www.w3.org/1999/02/22-rdf-syntax-ns#" xmlns:crs="http://opengis.org/xmldtds/transformations.dtd" xmlns:svg="http://www.w3.org/svg" >
  <rdf:Description>
   <crs:CoordinateReferenceSystem rdf:resource="http://purl.org/crs/84" svg:transform="matrix(100.0,0.0,0.0,-100.0,0.0,0.0)" />
  </rdf:Description>
 </rdf:RDF>
</metadata>
<globalCoordinateSystem srsName="http://purl.org/crs/84" transform="matrix(100.0,0.0,0.0,-100.0,0.0,0.0)" />
<g >
<image xlink:href="tile0_10.png" preserveAspectRatio="none" x="13899.902344" y="-3625.488281" width="4.394531" height="4.394531"/>
<image xlink:href="tile0_9.png" preserveAspectRatio="none" x="13899.902344" y="-3629.882812" width="4.394531" height="4.394531"/>
<image xlink:href="tile0_8.png" preserveAspectRatio="none" x="13899.902344" y="-3634.277344" width="4.394531" height="4.394531"/>
<image xlink:href="tile0_7.png" preserveAspectRatio="none" x="13899.902344" y="-3638.671875" width="4.394531" height="4.394531"/>
<image xlink:href="tile0_6.png" preserveAspectRatio="none" x="13899.902344" y="-3643.066406" width="4.394531" height="4.394531"/>
<image xlink:href="tile0_5.png" preserveAspectRatio="none" x="13899.902344" y="-3647.460938" width="4.394531" height="4.394531"/>
<image xlink:href="tile0_4.png" preserveAspectRatio="none" x="13899.902344" y="-3651.855469" width="4.394531" height="4.394531"/>
<image xlink:href="tile1_13.png" preserveAspectRatio="none" x="13904.296875" y="-3612.304688" width="4.394531" height="4.394531"/>
<image xlink:href="tile1_12.png" preserveAspectRatio="none" x="13904.296875" y="-3616.699219" width="4.394531" height="4.394531"/>
<image xlink:href="tile1_11.png" preserveAspectRatio="none" x="13904.296875" y="-3621.09375" width="4.394531" height="4.394531"/>
<image xlink:href="tile1_10.png" preserveAspectRatio="none" x="13904.296875" y="-3625.488281" width="4.394531" height="4.394531"/>
<image xlink:href="tile1_9.png" preserveAspectRatio="none" x="13904.296875" y="-3629.882812" width="4.394531" height="4.394531"/>
<image xlink:href="tile1_8.png" preserveAspectRatio="none" x="13904.296875" y="-3634.277344" width="4.394531" height="4.394531"/>
<image xlink:href="tile1_7.png" preserveAspectRatio="none" x="13904.296875" y="-3638.671875" width="4.394531" height="4.394531"/>
<image xlink:href="tile1_6.png" preserveAspectRatio="none" x="13904.296875" y="-3643.066406" width="4.394531" height="4.394531"/>
<image xlink:href="tile1_5.png" preserveAspectRatio="none" x="13904.296875" y="-3647.460938" width="4.394531" height="4.394531"/>
<image xlink:href="tile2_12.png" preserveAspectRatio="none" x="13908.691406" y="-3616.699219" width="4.394531" height="4.394531"/>
<image xlink:href="tile2_11.png" preserveAspectRatio="none" x="13908.691406" y="-3621.09375" width="4.394531" height="4.394531"/>
<image xlink:href="tile2_10.png" preserveAspectRatio="none" x="13908.691406" y="-3625.488281" width="4.394531" height="4.394531"/>
<image xlink:href="tile2_9.png" preserveAspectRatio="none" x="13908.691406" y="-3629.882812" width="4.394531" height="4.394531"/>
<image xlink:href="tile2_8.png" preserveAspectRatio="none" x="13908.691406" y="-3634.277344" width="4.394531" height="4.394531"/>
<image xlink:href="tile2_7.png" preserveAspectRatio="none" x="13908.691406" y="-3638.671875" width="4.394531" height="4.394531"/>
<image xlink:href="tile2_6.png" preserveAspectRatio="none" x="13908.691406" y="-3643.066406" width="4.394531" height="4.394531"/>
<image xlink:href="tile3_12.png" preserveAspectRatio="none" x="13913.085938" y="-3616.699219" width="4.394531" height="4.394531"/>
<image xlink:href="tile3_11.png" preserveAspectRatio="none" x="13913.085938" y="-3621.09375" width="4.394531" height="4.394531"/>
<image xlink:href="tile3_10.png" preserveAspectRatio="none" x="13913.085938" y="-3625.488281" width="4.394531" height="4.394531"/>
<image xlink:href="tile3_9.png" preserveAspectRatio="none" x="13913.085938" y="-3629.882812" width="4.394531" height="4.394531"/>
<image xlink:href="tile3_8.png" preserveAspectRatio="none" x="13913.085938" y="-3634.277344" width="4.394531" height="4.394531"/>
<image xlink:href="tile3_7.png" preserveAspectRatio="none" x="13913.085938" y="-3638.671875" width="4.394531" height="4.394531"/>
<image xlink:href="tile3_6.png" preserveAspectRatio="none" x="13913.085938" y="-3643.066406" width="4.394531" height="4.394531"/>
<image xlink:href="tile4_14.png" preserveAspectRatio="none" x="13917.480469" y="-3607.910156" width="4.394531" height="4.394531"/>
<image xlink:href="tile4_12.png" preserveAspectRatio="none" x="13917.480469" y="-3616.699219" width="4.394531" height="4.394531"/>
<image xlink:href="tile4_11.png" preserveAspectRatio="none" x="13917.480469" y="-3621.09375" width="4.394531" height="4.394531"/>
<image xlink:href="tile4_10.png" preserveAspectRatio="none" x="13917.480469" y="-3625.488281" width="4.394531" height="4.394531"/>
<image xlink:href="tile4_9.png" preserveAspectRatio="none" x="13917.480469" y="-3629.882812" width="4.394531" height="4.394531"/>
<image xlink:href="tile4_8.png" preserveAspectRatio="none" x="13917.480469" y="-3634.277344" width="4.394531" height="4.394531"/>
<image xlink:href="tile4_7.png" preserveAspectRatio="none" x="13917.480469" y="-3638.671875" width="4.394531" height="4.394531"/>
<image xlink:href="tile5_15.png" preserveAspectRatio="none" x="13921.875" y="-3603.515625" width="4.394531" height="4.394531"/>
<image xlink:href="tile5_14.png" preserveAspectRatio="none" x="13921.875" y="-3607.910156" width="4.394531" height="4.394531"/>
<image xlink:href="tile5_13.png" preserveAspectRatio="none" x="13921.875" y="-3612.304688" width="4.394531" height="4.394531"/>
<image xlink:href="tile5_12.png" preserveAspectRatio="none" x="13921.875" y="-3616.699219" width="4.394531" height="4.394531"/>
<image xlink:href="tile5_11.png" preserveAspectRatio="none" x="13921.875" y="-3621.09375" width="4.394531" height="4.394531"/>
<image xlink:href="tile5_10.png" preserveAspectRatio="none" x="13921.875" y="-3625.488281" width="4.394531" height="4.394531"/>
<image xlink:href="tile5_9.png" preserveAspectRatio="none" x="13921.875" y="-3629.882812" width="4.394531" height="4.394531"/>
<image xlink:href="tile5_8.png" preserveAspectRatio="none" x="13921.875" y="-3634.277344" width="4.394531" height="4.394531"/>
<image xlink:href="tile5_7.png" preserveAspectRatio="none" x="13921.875" y="-3638.671875" width="4.394531" height="4.394531"/>
<image xlink:href="tile6_15.png" preserveAspectRatio="none" x="13926.269531" y="-3603.515625" width="4.394531" height="4.394531"/>
<image xlink:href="tile6_14.png" preserveAspectRatio="none" x="13926.269531" y="-3607.910156" width="4.394531" height="4.394531"/>
<image xlink:href="tile6_12.png" preserveAspectRatio="none" x="13926.269531" y="-3616.699219" width="4.394531" height="4.394531"/>
<image xlink:href="tile6_11.png" preserveAspectRatio="none" x="13926.269531" y="-3621.09375" width="4.394531" height="4.394531"/>
<image xlink:href="tile6_10.png" preserveAspectRatio="none" x="13926.269531" y="-3625.488281" width="4.394531" height="4.394531"/>
<image xlink:href="tile6_9.png" preserveAspectRatio="none" x="13926.269531" y="-3629.882812" width="4.394531" height="4.394531"/>
<image xlink:href="tile6_6.png" preserveAspectRatio="none" x="13926.269531" y="-3643.066406" width="4.394531" height="4.394531"/>
<image xlink:href="tile6_5.png" preserveAspectRatio="none" x="13926.269531" y="-3647.460938" width="4.394531" height="4.394531"/>
<image xlink:href="tile7_15.png" preserveAspectRatio="none" x="13930.664062" y="-3603.515625" width="4.394531" height="4.394531"/>
<image xlink:href="tile7_12.png" preserveAspectRatio="none" x="13930.664062" y="-3616.699219" width="4.394531" height="4.394531"/>
<image xlink:href="tile7_11.png" preserveAspectRatio="none" x="13930.664062" y="-3621.09375" width="4.394531" height="4.394531"/>
<image xlink:href="tile7_10.png" preserveAspectRatio="none" x="13930.664062" y="-3625.488281" width="4.394531" height="4.394531"/>
<image xlink:href="tile7_9.png" preserveAspectRatio="none" x="13930.664062" y="-3629.882812" width="4.394531" height="4.394531"/>
<image xlink:href="tile7_7.png" preserveAspectRatio="none" x="13930.664062" y="-3638.671875" width="4.394531" height="4.394531"/>
<image xlink:href="tile7_6.png" preserveAspectRatio="none" x="13930.664062" y="-3643.066406" width="4.394531" height="4.394531"/>
<image xlink:href="tile7_5.png" preserveAspectRatio="none" x="13930.664062" y="-3647.460938" width="4.394531" height="4.394531"/>
<image xlink:href="tile8_15.png" preserveAspectRatio="none" x="13935.058594" y="-3603.515625" width="4.394531" height="4.394531"/>
<image xlink:href="tile8_13.png" preserveAspectRatio="none" x="13935.058594" y="-3612.304688" width="4.394531" height="4.394531"/>
<image xlink:href="tile8_12.png" preserveAspectRatio="none" x="13935.058594" y="-3616.699219" width="4.394531" height="4.394531"/>
<image xlink:href="tile8_11.png" preserveAspectRatio="none" x="13935.058594" y="-3621.09375" width="4.394531" height="4.394531"/>
<image xlink:href="tile8_10.png" preserveAspectRatio="none" x="13935.058594" y="-3625.488281" width="4.394531" height="4.394531"/>
<image xlink:href="tile8_9.png" preserveAspectRatio="none" x="13935.058594" y="-3629.882812" width="4.394531" height="4.394531"/>
<image xlink:href="tile8_8.png" preserveAspectRatio="none" x="13935.058594" y="-3634.277344" width="4.394531" height="4.394531"/>
<image xlink:href="tile8_7.png" preserveAspectRatio="none" x="13935.058594" y="-3638.671875" width="4.394531" height="4.394531"/>
<image xlink:href="tile8_6.png" preserveAspectRatio="none" x="13935.058594" y="-3643.066406" width="4.394531" height="4.394531"/>
<image xlink:href="tile8_5.png" preserveAspectRatio="none" x="13935.058594" y="-3647.460938" width="4.394531" height="4.394531"/>
<image xlink:href="tile9_15.png" preserveAspectRatio="none" x="13939.453125" y="-3603.515625" width="4.394531" height="4.394531"/>
<image xlink:href="tile9_14.png" preserveAspectRatio="none" x="13939.453125" y="-3607.910156" width="4.394531" height="4.394531"/>
<image xlink:href="tile9_13.png" preserveAspectRatio="none" x="13939.453125" y="-3612.304688" width="4.394531" height="4.394531"/>
<image xlink:href="tile9_12.png" preserveAspectRatio="none" x="13939.453125" y="-3616.699219" width="4.394531" height="4.394531"/>
<image xlink:href="tile9_11.png" preserveAspectRatio="none" x="13939.453125" y="-3621.09375" width="4.394531" height="4.394531"/>
<image xlink:href="tile9_10.png" preserveAspectRatio="none" x="13939.453125" y="-3625.488281" width="4.394531" height="4.394531"/>
<image xlink:href="tile9_9.png" preserveAspectRatio="none" x="13939.453125" y="-3629.882812" width="4.394531" height="4.394531"/>
<image xlink:href="tile9_8.png" preserveAspectRatio="none" x="13939.453125" y="-3634.277344" width="4.394531" height="4.394531"/>
<image xlink:href="tile9_7.png" preserveAspectRatio="none" x="13939.453125" y="-3638.671875" width="4.394531" height="4.394531"/>
<image xlink:href="tile10_15.png" preserveAspectRatio="none" x="13943.847656" y="-3603.515625" width="4.394531" height="4.394531"/>
<image xlink:href="tile10_14.png" preserveAspectRatio="none" x="13943.847656" y="-3607.910156" width="4.394531" height="4.394531"/>
<image xlink:href="tile10_13.png" preserveAspectRatio="none" x="13943.847656" y="-3612.304688" width="4.394531" height="4.394531"/>
<image xlink:href="tile10_12.png" preserveAspectRatio="none" x="13943.847656" y="-3616.699219" width="4.394531" height="4.394531"/>
<image xlink:href="tile10_11.png" preserveAspectRatio="none" x="13943.847656" y="-3621.09375" width="4.394531" height="4.394531"/>
<image xlink:href="tile10_10.png" preserveAspectRatio="none" x="13943.847656" y="-3625.488281" width="4.394531" height="4.394531"/>
<image xlink:href="tile10_9.png" preserveAspectRatio="none" x="13943.847656" y="-3629.882812" width="4.394531" height="4.394531"/>
<image xlink:href="tile10_8.png" preserveAspectRatio="none" x="13943.847656" y="-3634.277344" width="4.394531" height="4.394531"/>
<image xlink:href="tile10_7.png" preserveAspectRatio="none" x="13943.847656" y="-3638.671875" width="4.394531" height="4.394531"/>
<image xlink:href="tile11_15.png" preserveAspectRatio="none" x="13948.242188" y="-3603.515625" width="4.394531" height="4.394531"/>
<image xlink:href="tile11_14.png" preserveAspectRatio="none" x="13948.242188" y="-3607.910156" width="4.394531" height="4.394531"/>
<image xlink:href="tile11_13.png" preserveAspectRatio="none" x="13948.242188" y="-3612.304688" width="4.394531" height="4.394531"/>
<image xlink:href="tile11_12.png" preserveAspectRatio="none" x="13948.242188" y="-3616.699219" width="4.394531" height="4.394531"/>
<image xlink:href="tile11_11.png" preserveAspectRatio="none" x="13948.242188" y="-3621.09375" width="4.394531" height="4.394531"/>
<image xlink:href="tile11_10.png" preserveAspectRatio="none" x="13948.242188" y="-3625.488281" width="4.394531" height="4.394531"/>
<image xlink:href="tile11_9.png" preserveAspectRatio="none" x="13948.242188" y="-3629.882812" width="4.394531" height="4.394531"/>
<image xlink:href="tile11_8.png" preserveAspectRatio="none" x="13948.242188" y="-3634.277344" width="4.394531" height="4.394531"/>
<image xlink:href="tile11_5.png" preserveAspectRatio="none" x="13948.242188" y="-3647.460938" width="4.394531" height="4.394531"/>
<image xlink:href="tile11_4.png" preserveAspectRatio="none" x="13948.242188" y="-3651.855469" width="4.394531" height="4.394531"/>
<image xlink:href="tile11_2.png" preserveAspectRatio="none" x="13948.242188" y="-3660.644531" width="4.394531" height="4.394531"/>
<image xlink:href="tile12_15.png" preserveAspectRatio="none" x="13952.636719" y="-3603.515625" width="4.394531" height="4.394531"/>
<image xlink:href="tile12_14.png" preserveAspectRatio="none" x="13952.636719" y="-3607.910156" width="4.394531" height="4.394531"/>
<image xlink:href="tile12_13.png" preserveAspectRatio="none" x="13952.636719" y="-3612.304688" width="4.394531" height="4.394531"/>
<image xlink:href="tile12_12.png" preserveAspectRatio="none" x="13952.636719" y="-3616.699219" width="4.394531" height="4.394531"/>
<image xlink:href="tile12_11.png" preserveAspectRatio="none" x="13952.636719" y="-3621.09375" width="4.394531" height="4.394531"/>
<image xlink:href="tile12_10.png" preserveAspectRatio="none" x="13952.636719" y="-3625.488281" width="4.394531" height="4.394531"/>
<image xlink:href="tile12_9.png" preserveAspectRatio="none" x="13952.636719" y="-3629.882812" width="4.394531" height="4.394531"/>
<image xlink:href="tile12_8.png" preserveAspectRatio="none" x="13952.636719" y="-3634.277344" width="4.394531" height="4.394531"/>
<image xlink:href="tile12_7.png" preserveAspectRatio="none" x="13952.636719" y="-3638.671875" width="4.394531" height="4.394531"/>
<image xlink:href="tile12_6.png" preserveAspectRatio="none" x="13952.636719" y="-3643.066406" width="4.394531" height="4.394531"/>
<image xlink:href="tile12_5.png" preserveAspectRatio="none" x="13952.636719" y="-3647.460938" width="4.394531" height="4.394531"/>
<image xlink:href="tile12_4.png" preserveAspectRatio="none" x="13952.636719" y="-3651.855469" width="4.394531" height="4.394531"/>
<image xlink:href="tile12_3.png" preserveAspectRatio="none" x="13952.636719" y="-3656.25" width="4.394531" height="4.394531"/>
<image xlink:href="tile12_2.png" preserveAspectRatio="none" x="13952.636719" y="-3660.644531" width="4.394531" height="4.394531"/>
<image xlink:href="tile13_15.png" preserveAspectRatio="none" x="13957.03125" y="-3603.515625" width="4.394531" height="4.394531"/>
<image xlink:href="tile13_14.png" preserveAspectRatio="none" x="13957.03125" y="-3607.910156" width="4.394531" height="4.394531"/>
<image xlink:href="tile13_13.png" preserveAspectRatio="none" x="13957.03125" y="-3612.304688" width="4.394531" height="4.394531"/>
<image xlink:href="tile13_12.png" preserveAspectRatio="none" x="13957.03125" y="-3616.699219" width="4.394531" height="4.394531"/>
<image xlink:href="tile13_11.png" preserveAspectRatio="none" x="13957.03125" y="-3621.09375" width="4.394531" height="4.394531"/>
<image xlink:href="tile13_10.png" preserveAspectRatio="none" x="13957.03125" y="-3625.488281" width="4.394531" height="4.394531"/>
<image xlink:href="tile13_9.png" preserveAspectRatio="none" x="13957.03125" y="-3629.882812" width="4.394531" height="4.394531"/>
<image xlink:href="tile13_8.png" preserveAspectRatio="none" x="13957.03125" y="-3634.277344" width="4.394531" height="4.394531"/>
<image xlink:href="tile13_7.png" preserveAspectRatio="none" x="13957.03125" y="-3638.671875" width="4.394531" height="4.394531"/>
<image xlink:href="tile13_6.png" preserveAspectRatio="none" x="13957.03125" y="-3643.066406" width="4.394531" height="4.394531"/>
<image xlink:href="tile13_5.png" preserveAspectRatio="none" x="13957.03125" y="-3647.460938" width="4.394531" height="4.394531"/>
<image xlink:href="tile13_4.png" preserveAspectRatio="none" x="13957.03125" y="-3651.855469" width="4.394531" height="4.394531"/>
<image xlink:href="tile13_3.png" preserveAspectRatio="none" x="13957.03125" y="-3656.25" width="4.394531" height="4.394531"/>
<image xlink:href="tile14_15.png" preserveAspectRatio="none" x="13961.425781" y="-3603.515625" width="4.394531" height="4.394531"/>
<image xlink:href="tile14_14.png" preserveAspectRatio="none" x="13961.425781" y="-3607.910156" width="4.394531" height="4.394531"/>
<image xlink:href="tile14_13.png" preserveAspectRatio="none" x="13961.425781" y="-3612.304688" width="4.394531" height="4.394531"/>
<image xlink:href="tile14_12.png" preserveAspectRatio="none" x="13961.425781" y="-3616.699219" width="4.394531" height="4.394531"/>
<image xlink:href="tile14_11.png" preserveAspectRatio="none" x="13961.425781" y="-3621.09375" width="4.394531" height="4.394531"/>
<image xlink:href="tile14_10.png" preserveAspectRatio="none" x="13961.425781" y="-3625.488281" width="4.394531" height="4.394531"/>
<image xlink:href="tile14_9.png" preserveAspectRatio="none" x="13961.425781" y="-3629.882812" width="4.394531" height="4.394531"/>
<image xlink:href="tile14_8.png" preserveAspectRatio="none" x="13961.425781" y="-3634.277344" width="4.394531" height="4.394531"/>
<image xlink:href="tile14_6.png" preserveAspectRatio="none" x="13961.425781" y="-3643.066406" width="4.394531" height="4.394531"/>
<image xlink:href="tile14_5.png" preserveAspectRatio="none" x="13961.425781" y="-3647.460938" width="4.394531" height="4.394531"/>
<image xlink:href="tile14_4.png" preserveAspectRatio="none" x="13961.425781" y="-3651.855469" width="4.394531" height="4.394531"/>
<image xlink:href="tile14_1.png" preserveAspectRatio="none" x="13961.425781" y="-3665.039062" width="4.394531" height="4.394531"/>
<image xlink:href="tile14_0.png" preserveAspectRatio="none" x="13961.425781" y="-3669.433594" width="4.394531" height="4.394531"/>
<image xlink:href="tile15_15.png" preserveAspectRatio="none" x="13965.820312" y="-3603.515625" width="4.394531" height="4.394531"/>
<image xlink:href="tile15_14.png" preserveAspectRatio="none" x="13965.820312" y="-3607.910156" width="4.394531" height="4.394531"/>
<image xlink:href="tile15_13.png" preserveAspectRatio="none" x="13965.820312" y="-3612.304688" width="4.394531" height="4.394531"/>
<image xlink:href="tile15_12.png" preserveAspectRatio="none" x="13965.820312" y="-3616.699219" width="4.394531" height="4.394531"/>
<image xlink:href="tile15_11.png" preserveAspectRatio="none" x="13965.820312" y="-3621.09375" width="4.394531" height="4.394531"/>
<image xlink:href="tile15_10.png" preserveAspectRatio="none" x="13965.820312" y="-3625.488281" width="4.394531" height="4.394531"/>
<image xlink:href="tile15_9.png" preserveAspectRatio="none" x="13965.820312" y="-3629.882812" width="4.394531" height="4.394531"/>
<image xlink:href="tile15_8.png" preserveAspectRatio="none" x="13965.820312" y="-3634.277344" width="4.394531" height="4.394531"/>
<image xlink:href="tile15_7.png" preserveAspectRatio="none" x="13965.820312" y="-3638.671875" width="4.394531" height="4.394531"/>
<image xlink:href="tile15_6.png" preserveAspectRatio="none" x="13965.820312" y="-3643.066406" width="4.394531" height="4.394531"/>
<image xlink:href="tile15_5.png" preserveAspectRatio="none" x="13965.820312" y="-3647.460938" width="4.394531" height="4.394531"/>
<image xlink:href="tile15_4.png" preserveAspectRatio="none" x="13965.820312" y="-3651.855469" width="4.394531" height="4.394531"/>
<image xlink:href="tile15_3.png" preserveAspectRatio="none" x="13965.820312" y="-3656.25" width="4.394531" height="4.394531"/>
<image xlink:href="tile15_1.png" preserveAspectRatio="none" x="13965.820312" y="-3665.039062" width="4.394531" height="4.394531"/>
</g>
</svg>
