<?xml version="1.0" encoding="UTF-8"?>
<svg  xmlns="http://www.w3.org/2000/svg" xmlns:xlink="http://www.w3.org/1999/xlink" xmlns:go="http://purl.org/svgmap/profile" viewBox="13900.0 -3666.666667 100.0 66.66666699999979" go:dataArea="13900.0 -3666.666667 100.0 66.66666699999979" >
<metadata>
 <rdf:RDF xmlns:rdf="http://www.w3.org/1999/02/22-rdf-syntax-ns#" xmlns:crs="http://opengis.org/xmldtds/transformations.dtd" xmlns:svg="http://www.w3.org/svg" >
  <rdf:Description>
   <crs:CoordinateReferenceSystem rdf:resource="http://purl.org/crs/84" svg:transform="matrix(100.0,0.0,0.0,-100.0,0.0,0.0)" />
  </rdf:Description>
 </rdf:RDF>
</metadata>
<globalCoordinateSystem srsName="http://purl.org/crs/84" transform="matrix(100.0,0.0,0.0,-100.0,0.0,0.0)" />
<g >
<image xlink:href="tile16_15.png" preserveAspectRatio="none" x="13970.214844" y="-3603.515625" width="4.394531" height="4.394531"/>
<image xlink:href="tile16_14.png" preserveAspectRatio="none" x="13970.214844" y="-3607.910156" width="4.394531" height="4.394531"/>
<image xlink:href="tile16_13.png" preserveAspectRatio="none" x="13970.214844" y="-3612.304688" width="4.394531" height="4.394531"/>
<image xlink:href="tile16_12.png" preserveAspectRatio="none" x="13970.214844" y="-3616.699219" width="4.394531" height="4.394531"/>
<image xlink:href="tile16_11.png" preserveAspectRatio="none" x="13970.214844" y="-3621.09375" width="4.394531" height="4.394531"/>
<image xlink:href="tile16_10.png" preserveAspectRatio="none" x="13970.214844" y="-3625.488281" width="4.394531" height="4.394531"/>
<image xlink:href="tile16_9.png" preserveAspectRatio="none" x="13970.214844" y="-3629.882812" width="4.394531" height="4.394531"/>
<image xlink:href="tile16_8.png" preserveAspectRatio="none" x="13970.214844" y="-3634.277344" width="4.394531" height="4.394531"/>
<image xlink:href="tile16_7.png" preserveAspectRatio="none" x="13970.214844" y="-3638.671875" width="4.394531" height="4.394531"/>
<image xlink:href="tile16_6.png" preserveAspectRatio="none" x="13970.214844" y="-3643.066406" width="4.394531" height="4.394531"/>
<image xlink:href="tile16_5.png" preserveAspectRatio="none" x="13970.214844" y="-3647.460938" width="4.394531" height="4.394531"/>
<image xlink:href="tile16_4.png" preserveAspectRatio="none" x="13970.214844" y="-3651.855469" width="4.394531" height="4.394531"/>
<image xlink:href="tile16_3.png" preserveAspectRatio="none" x="13970.214844" y="-3656.25" width="4.394531" height="4.394531"/>
<image xlink:href="tile16_2.png" preserveAspectRatio="none" x="13970.214844" y="-3660.644531" width="4.394531" height="4.394531"/>
<image xlink:href="tile16_1.png" preserveAspectRatio="none" x="13970.214844" y="-3665.039062" width="4.394531" height="4.394531"/>
<image xlink:href="tile17_15.png" preserveAspectRatio="none" x="13974.609375" y="-3603.515625" width="4.394531" height="4.394531"/>
<image xlink:href="tile17_14.png" preserveAspectRatio="none" x="13974.609375" y="-3607.910156" width="4.394531" height="4.394531"/>
<image xlink:href="tile17_13.png" preserveAspectRatio="none" x="13974.609375" y="-3612.304688" width="4.394531" height="4.394531"/>
<image xlink:href="tile17_12.png" preserveAspectRatio="none" x="13974.609375" y="-3616.699219" width="4.394531" height="4.394531"/>
<image xlink:href="tile17_11.png" preserveAspectRatio="none" x="13974.609375" y="-3621.09375" width="4.394531" height="4.394531"/>
<image xlink:href="tile17_10.png" preserveAspectRatio="none" x="13974.609375" y="-3625.488281" width="4.394531" height="4.394531"/>
<image xlink:href="tile17_9.png" preserveAspectRatio="none" x="13974.609375" y="-3629.882812" width="4.394531" height="4.394531"/>
<image xlink:href="tile17_8.png" preserveAspectRatio="none" x="13974.609375" y="-3634.277344" width="4.394531" height="4.394531"/>
<image xlink:href="tile17_7.png" preserveAspectRatio="none" x="13974.609375" y="-3638.671875" width="4.394531" height="4.394531"/>
<image xlink:href="tile17_6.png" preserveAspectRatio="none" x="13974.609375" y="-3643.066406" width="4.394531" height="4.394531"/>
<image xlink:href="tile17_5.png" preserveAspectRatio="none" x="13974.609375" y="-3647.460938" width="4.394531" height="4.394531"/>
<image xlink:href="tile17_4.png" preserveAspectRatio="none" x="13974.609375" y="-3651.855469" width="4.394531" height="4.394531"/>
<image xlink:href="tile17_3.png" preserveAspectRatio="none" x="13974.609375" y="-3656.25" width="4.394531" height="4.394531"/>
<image xlink:href="tile17_2.png" preserveAspectRatio="none" x="13974.609375" y="-3660.644531" width="4.394531" height="4.394531"/>
<image xlink:href="tile17_0.png" preserveAspectRatio="none" x="13974.609375" y="-3669.433594" width="4.394531" height="4.394531"/>
<image xlink:href="tile18_15.png" preserveAspectRatio="none" x="13979.003906" y="-3603.515625" width="4.394531" height="4.394531"/>
<image xlink:href="tile18_14.png" preserveAspectRatio="none" x="13979.003906" y="-3607.910156" width="4.394531" height="4.394531"/>
<image xlink:href="tile18_13.png" preserveAspectRatio="none" x="13979.003906" y="-3612.304688" width="4.394531" height="4.394531"/>
<image xlink:href="tile18_12.png" preserveAspectRatio="none" x="13979.003906" y="-3616.699219" width="4.394531" height="4.394531"/>
<image xlink:href="tile18_11.png" preserveAspectRatio="none" x="13979.003906" y="-3621.09375" width="4.394531" height="4.394531"/>
<image xlink:href="tile18_10.png" preserveAspectRatio="none" x="13979.003906" y="-3625.488281" width="4.394531" height="4.394531"/>
<image xlink:href="tile18_8.png" preserveAspectRatio="none" x="13979.003906" y="-3634.277344" width="4.394531" height="4.394531"/>
<image xlink:href="tile18_7.png" preserveAspectRatio="none" x="13979.003906" y="-3638.671875" width="4.394531" height="4.394531"/>
<image xlink:href="tile18_6.png" preserveAspectRatio="none" x="13979.003906" y="-3643.066406" width="4.394531" height="4.394531"/>
<image xlink:href="tile18_5.png" preserveAspectRatio="none" x="13979.003906" y="-3647.460938" width="4.394531" height="4.394531"/>
<image xlink:href="tile18_4.png" preserveAspectRatio="none" x="13979.003906" y="-3651.855469" width="4.394531" height="4.394531"/>
<image xlink:href="tile18_3.png" preserveAspectRatio="none" x="13979.003906" y="-3656.25" width="4.394531" height="4.394531"/>
<image xlink:href="tile18_2.png" preserveAspectRatio="none" x="13979.003906" y="-3660.644531" width="4.394531" height="4.394531"/>
<image xlink:href="tile18_1.png" preserveAspectRatio="none" x="13979.003906" y="-3665.039062" width="4.394531" height="4.394531"/>
<image xlink:href="tile18_0.png" preserveAspectRatio="none" x="13979.003906" y="-3669.433594" width="4.394531" height="4.394531"/>
<image xlink:href="tile19_15.png" preserveAspectRatio="none" x="13983.398438" y="-3603.515625" width="4.394531" height="4.394531"/>
<image xlink:href="tile19_14.png" preserveAspectRatio="none" x="13983.398438" y="-3607.910156" width="4.394531" height="4.394531"/>
<image xlink:href="tile19_13.png" preserveAspectRatio="none" x="13983.398438" y="-3612.304688" width="4.394531" height="4.394531"/>
<image xlink:href="tile19_12.png" preserveAspectRatio="none" x="13983.398438" y="-3616.699219" width="4.394531" height="4.394531"/>
<image xlink:href="tile19_11.png" preserveAspectRatio="none" x="13983.398438" y="-3621.09375" width="4.394531" height="4.394531"/>
<image xlink:href="tile19_10.png" preserveAspectRatio="none" x="13983.398438" y="-3625.488281" width="4.394531" height="4.394531"/>
<image xlink:href="tile19_9.png" preserveAspectRatio="none" x="13983.398438" y="-3629.882812" width="4.394531" height="4.394531"/>
<image xlink:href="tile19_7.png" preserveAspectRatio="none" x="13983.398438" y="-3638.671875" width="4.394531" height="4.394531"/>
<image xlink:href="tile19_6.png" preserveAspectRatio="none" x="13983.398438" y="-3643.066406" width="4.394531" height="4.394531"/>
<image xlink:href="tile19_5.png" preserveAspectRatio="none" x="13983.398438" y="-3647.460938" width="4.394531" height="4.394531"/>
<image xlink:href="tile19_4.png" preserveAspectRatio="none" x="13983.398438" y="-3651.855469" width="4.394531" height="4.394531"/>
<image xlink:href="tile19_3.png" preserveAspectRatio="none" x="13983.398438" y="-3656.25" width="4.394531" height="4.394531"/>
<image xlink:href="tile19_2.png" preserveAspectRatio="none" x="13983.398438" y="-3660.644531" width="4.394531" height="4.394531"/>
<image xlink:href="tile19_1.png" preserveAspectRatio="none" x="13983.398438" y="-3665.039062" width="4.394531" height="4.394531"/>
<image xlink:href="tile19_0.png" preserveAspectRatio="none" x="13983.398438" y="-3669.433594" width="4.394531" height="4.394531"/>
<image xlink:href="tile20_15.png" preserveAspectRatio="none" x="13987.792969" y="-3603.515625" width="4.394531" height="4.394531"/>
<image xlink:href="tile20_14.png" preserveAspectRatio="none" x="13987.792969" y="-3607.910156" width="4.394531" height="4.394531"/>
<image xlink:href="tile20_13.png" preserveAspectRatio="none" x="13987.792969" y="-3612.304688" width="4.394531" height="4.394531"/>
<image xlink:href="tile20_12.png" preserveAspectRatio="none" x="13987.792969" y="-3616.699219" width="4.394531" height="4.394531"/>
<image xlink:href="tile20_11.png" preserveAspectRatio="none" x="13987.792969" y="-3621.09375" width="4.394531" height="4.394531"/>
<image xlink:href="tile20_10.png" preserveAspectRatio="none" x="13987.792969" y="-3625.488281" width="4.394531" height="4.394531"/>
<image xlink:href="tile20_9.png" preserveAspectRatio="none" x="13987.792969" y="-3629.882812" width="4.394531" height="4.394531"/>
<image xlink:href="tile20_8.png" preserveAspectRatio="none" x="13987.792969" y="-3634.277344" width="4.394531" height="4.394531"/>
<image xlink:href="tile20_7.png" preserveAspectRatio="none" x="13987.792969" y="-3638.671875" width="4.394531" height="4.394531"/>
<image xlink:href="tile20_6.png" preserveAspectRatio="none" x="13987.792969" y="-3643.066406" width="4.394531" height="4.394531"/>
<image xlink:href="tile20_5.png" preserveAspectRatio="none" x="13987.792969" y="-3647.460938" width="4.394531" height="4.394531"/>
<image xlink:href="tile20_4.png" preserveAspectRatio="none" x="13987.792969" y="-3651.855469" width="4.394531" height="4.394531"/>
<image xlink:href="tile20_3.png" preserveAspectRatio="none" x="13987.792969" y="-3656.25" width="4.394531" height="4.394531"/>
<image xlink:href="tile20_2.png" preserveAspectRatio="none" x="13987.792969" y="-3660.644531" width="4.394531" height="4.394531"/>
<image xlink:href="tile20_1.png" preserveAspectRatio="none" x="13987.792969" y="-3665.039062" width="4.394531" height="4.394531"/>
<image xlink:href="tile21_15.png" preserveAspectRatio="none" x="13992.1875" y="-3603.515625" width="4.394531" height="4.394531"/>
<image xlink:href="tile21_14.png" preserveAspectRatio="none" x="13992.1875" y="-3607.910156" width="4.394531" height="4.394531"/>
<image xlink:href="tile21_13.png" preserveAspectRatio="none" x="13992.1875" y="-3612.304688" width="4.394531" height="4.394531"/>
<image xlink:href="tile21_12.png" preserveAspectRatio="none" x="13992.1875" y="-3616.699219" width="4.394531" height="4.394531"/>
<image xlink:href="tile21_11.png" preserveAspectRatio="none" x="13992.1875" y="-3621.09375" width="4.394531" height="4.394531"/>
<image xlink:href="tile21_10.png" preserveAspectRatio="none" x="13992.1875" y="-3625.488281" width="4.394531" height="4.394531"/>
<image xlink:href="tile21_9.png" preserveAspectRatio="none" x="13992.1875" y="-3629.882812" width="4.394531" height="4.394531"/>
<image xlink:href="tile21_8.png" preserveAspectRatio="none" x="13992.1875" y="-3634.277344" width="4.394531" height="4.394531"/>
<image xlink:href="tile21_7.png" preserveAspectRatio="none" x="13992.1875" y="-3638.671875" width="4.394531" height="4.394531"/>
<image xlink:href="tile21_6.png" preserveAspectRatio="none" x="13992.1875" y="-3643.066406" width="4.394531" height="4.394531"/>
<image xlink:href="tile21_5.png" preserveAspectRatio="none" x="13992.1875" y="-3647.460938" width="4.394531" height="4.394531"/>
<image xlink:href="tile21_4.png" preserveAspectRatio="none" x="13992.1875" y="-3651.855469" width="4.394531" height="4.394531"/>
<image xlink:href="tile21_3.png" preserveAspectRatio="none" x="13992.1875" y="-3656.25" width="4.394531" height="4.394531"/>
<image xlink:href="tile21_2.png" preserveAspectRatio="none" x="13992.1875" y="-3660.644531" width="4.394531" height="4.394531"/>
<image xlink:href="tile21_1.png" preserveAspectRatio="none" x="13992.1875" y="-3665.039062" width="4.394531" height="4.394531"/>
<image xlink:href="tile21_0.png" preserveAspectRatio="none" x="13992.1875" y="-3669.433594" width="4.394531" height="4.394531"/>
<image xlink:href="tile22_15.png" preserveAspectRatio="none" x="13996.582031" y="-3603.515625" width="4.394531" height="4.394531"/>
<image xlink:href="tile22_14.png" preserveAspectRatio="none" x="13996.582031" y="-3607.910156" width="4.394531" height="4.394531"/>
<image xlink:href="tile22_13.png" preserveAspectRatio="none" x="13996.582031" y="-3612.304688" width="4.394531" height="4.394531"/>
<image xlink:href="tile22_12.png" preserveAspectRatio="none" x="13996.582031" y="-3616.699219" width="4.394531" height="4.394531"/>
<image xlink:href="tile22_11.png" preserveAspectRatio="none" x="13996.582031" y="-3621.09375" width="4.394531" height="4.394531"/>
<image xlink:href="tile22_10.png" preserveAspectRatio="none" x="13996.582031" y="-3625.488281" width="4.394531" height="4.394531"/>
<image xlink:href="tile22_9.png" preserveAspectRatio="none" x="13996.582031" y="-3629.882812" width="4.394531" height="4.394531"/>
<image xlink:href="tile22_8.png" preserveAspectRatio="none" x="13996.582031" y="-3634.277344" width="4.394531" height="4.394531"/>
<image xlink:href="tile22_7.png" preserveAspectRatio="none" x="13996.582031" y="-3638.671875" width="4.394531" height="4.394531"/>
<image xlink:href="tile22_6.png" preserveAspectRatio="none" x="13996.582031" y="-3643.066406" width="4.394531" height="4.394531"/>
<image xlink:href="tile22_5.png" preserveAspectRatio="none" x="13996.582031" y="-3647.460938" width="4.394531" height="4.394531"/>
<image xlink:href="tile22_4.png" preserveAspectRatio="none" x="13996.582031" y="-3651.855469" width="4.394531" height="4.394531"/>
<image xlink:href="tile22_3.png" preserveAspectRatio="none" x="13996.582031" y="-3656.25" width="4.394531" height="4.394531"/>
<image xlink:href="tile22_2.png" preserveAspectRatio="none" x="13996.582031" y="-3660.644531" width="4.394531" height="4.394531"/>
<image xlink:href="tile22_1.png" preserveAspectRatio="none" x="13996.582031" y="-3665.039062" width="4.394531" height="4.394531"/>
<image xlink:href="tile22_0.png" preserveAspectRatio="none" x="13996.582031" y="-3669.433594" width="4.394531" height="4.394531"/>
</g>
</svg>
