<?xml version="1.0" encoding="UTF-8"?>
<svg  xmlns="http://www.w3.org/2000/svg" xmlns:xlink="http://www.w3.org/1999/xlink" xmlns:go="http://purl.org/svgmap/profile" viewBox="13600.0 -3466.666667 85.83749999999952 56.56246699999983" go:dataArea="13600.0 -3466.666667 85.83749999999952 56.56246699999983" >
<metadata>
 <rdf:RDF xmlns:rdf="http://www.w3.org/1999/02/22-rdf-syntax-ns#" xmlns:crs="http://opengis.org/xmldtds/transformations.dtd" xmlns:svg="http://www.w3.org/svg" >
  <rdf:Description>
   <crs:CoordinateReferenceSystem rdf:resource="http://purl.org/crs/84" svg:transform="matrix(100.0,0.0,0.0,-100.0,0.0,0.0)" />
  </rdf:Description>
 </rdf:RDF>
</metadata>
<globalCoordinateSystem srsName="http://purl.org/crs/84" transform="matrix(100.0,0.0,0.0,-100.0,0.0,0.0)" />
<g >
<image xlink:href="tile0_3.png" preserveAspectRatio="none" x="13596.679688" y="-3445.3125" width="8.789062" height="8.789062"/>
<image xlink:href="tile0_2.png" preserveAspectRatio="none" x="13596.679688" y="-3454.101562" width="8.789062" height="8.789062"/>
<image xlink:href="tile0_1.png" preserveAspectRatio="none" x="13596.679688" y="-3462.890625" width="8.789062" height="8.789062"/>
<image xlink:href="tile1_3.png" preserveAspectRatio="none" x="13605.46875" y="-3445.3125" width="8.789062" height="8.789062"/>
<image xlink:href="tile1_1.png" preserveAspectRatio="none" x="13605.46875" y="-3462.890625" width="8.789062" height="8.789062"/>
<image xlink:href="tile1_0.png" preserveAspectRatio="none" x="13605.46875" y="-3471.679688" width="8.789062" height="8.789062"/>
<image xlink:href="tile2_7.png" preserveAspectRatio="none" x="13614.257812" y="-3410.15625" width="8.789062" height="8.789062"/>
<image xlink:href="tile2_6.png" preserveAspectRatio="none" x="13614.257812" y="-3418.945312" width="8.789062" height="8.789062"/>
<image xlink:href="tile2_0.png" preserveAspectRatio="none" x="13614.257812" y="-3471.679688" width="8.789062" height="8.789062"/>
<image xlink:href="tile3_6.png" preserveAspectRatio="none" x="13623.046875" y="-3418.945312" width="8.789062" height="8.789062"/>
<image xlink:href="tile3_5.png" preserveAspectRatio="none" x="13623.046875" y="-3427.734375" width="8.789062" height="8.789062"/>
<image xlink:href="tile3_2.png" preserveAspectRatio="none" x="13623.046875" y="-3454.101562" width="8.789062" height="8.789062"/>
<image xlink:href="tile3_1.png" preserveAspectRatio="none" x="13623.046875" y="-3462.890625" width="8.789062" height="8.789062"/>
<image xlink:href="tile3_0.png" preserveAspectRatio="none" x="13623.046875" y="-3471.679688" width="8.789062" height="8.789062"/>
<image xlink:href="tile4_5.png" preserveAspectRatio="none" x="13631.835938" y="-3427.734375" width="8.789062" height="8.789062"/>
<image xlink:href="tile4_4.png" preserveAspectRatio="none" x="13631.835938" y="-3436.523438" width="8.789062" height="8.789062"/>
<image xlink:href="tile4_1.png" preserveAspectRatio="none" x="13631.835938" y="-3462.890625" width="8.789062" height="8.789062"/>
<image xlink:href="tile4_0.png" preserveAspectRatio="none" x="13631.835938" y="-3471.679688" width="8.789062" height="8.789062"/>
<image xlink:href="tile5_4.png" preserveAspectRatio="none" x="13640.625" y="-3436.523438" width="8.789062" height="8.789062"/>
<image xlink:href="tile5_3.png" preserveAspectRatio="none" x="13640.625" y="-3445.3125" width="8.789062" height="8.789062"/>
<image xlink:href="tile5_2.png" preserveAspectRatio="none" x="13640.625" y="-3454.101562" width="8.789062" height="8.789062"/>
<image xlink:href="tile5_1.png" preserveAspectRatio="none" x="13640.625" y="-3462.890625" width="8.789062" height="8.789062"/>
<image xlink:href="tile5_0.png" preserveAspectRatio="none" x="13640.625" y="-3471.679688" width="8.789062" height="8.789062"/>
<image xlink:href="tile6_3.png" preserveAspectRatio="none" x="13649.414062" y="-3445.3125" width="8.789062" height="8.789062"/>
<image xlink:href="tile6_2.png" preserveAspectRatio="none" x="13649.414062" y="-3454.101562" width="8.789062" height="8.789062"/>
<image xlink:href="tile6_1.png" preserveAspectRatio="none" x="13649.414062" y="-3462.890625" width="8.789062" height="8.789062"/>
<image xlink:href="tile6_0.png" preserveAspectRatio="none" x="13649.414062" y="-3471.679688" width="8.789062" height="8.789062"/>
<image xlink:href="tile7_3.png" preserveAspectRatio="none" x="13658.203125" y="-3445.3125" width="8.789062" height="8.789062"/>
<image xlink:href="tile7_2.png" preserveAspectRatio="none" x="13658.203125" y="-3454.101562" width="8.789062" height="8.789062"/>
<image xlink:href="tile7_1.png" preserveAspectRatio="none" x="13658.203125" y="-3462.890625" width="8.789062" height="8.789062"/>
<image xlink:href="tile8_2.png" preserveAspectRatio="none" x="13666.992188" y="-3454.101562" width="8.789062" height="8.789062"/>
<image xlink:href="tile8_1.png" preserveAspectRatio="none" x="13666.992188" y="-3462.890625" width="8.789062" height="8.789062"/>
<image xlink:href="tile9_3.png" preserveAspectRatio="none" x="13675.78125" y="-3445.3125" width="8.789062" height="8.789062"/>
<image xlink:href="tile9_2.png" preserveAspectRatio="none" x="13675.78125" y="-3454.101562" width="8.789062" height="8.789062"/>
<image xlink:href="tile10_3.png" preserveAspectRatio="none" x="13684.570312" y="-3445.3125" width="8.789062" height="8.789062"/>
<image xlink:href="tile10_2.png" preserveAspectRatio="none" x="13684.570312" y="-3454.101562" width="8.789062" height="8.789062"/>
</g>
</svg>
