<?xml version="1.0" encoding="UTF-8"?>
<svg  xmlns="http://www.w3.org/2000/svg" xmlns:xlink="http://www.w3.org/1999/xlink" xmlns:go="http://purl.org/svgmap/profile" viewBox="13400.0 -3566.3708334 100.0 33.03750030000003" go:dataArea="13400.0 -3566.3708334 100.0 33.03750030000003" >
<metadata>
 <rdf:RDF xmlns:rdf="http://www.w3.org/1999/02/22-rdf-syntax-ns#" xmlns:crs="http://opengis.org/xmldtds/transformations.dtd" xmlns:svg="http://www.w3.org/svg" >
  <rdf:Description>
   <crs:CoordinateReferenceSystem rdf:resource="http://purl.org/crs/84" svg:transform="matrix(100.0,0.0,0.0,-100.0,0.0,0.0)" />
  </rdf:Description>
 </rdf:RDF>
</metadata>
<globalCoordinateSystem srsName="http://purl.org/crs/84" transform="matrix(100.0,0.0,0.0,-100.0,0.0,0.0)" />
<g >
<image xlink:href="tile16_7.png" preserveAspectRatio="none" x="13434.082031" y="-3552.978516" width="2.197266" height="2.197266"/>
<image xlink:href="tile16_6.png" preserveAspectRatio="none" x="13434.082031" y="-3555.175781" width="2.197266" height="2.197266"/>
<image xlink:href="tile16_5.png" preserveAspectRatio="none" x="13434.082031" y="-3557.373047" width="2.197266" height="2.197266"/>
<image xlink:href="tile16_4.png" preserveAspectRatio="none" x="13434.082031" y="-3559.570312" width="2.197266" height="2.197266"/>
<image xlink:href="tile17_6.png" preserveAspectRatio="none" x="13436.279297" y="-3555.175781" width="2.197266" height="2.197266"/>
<image xlink:href="tile17_5.png" preserveAspectRatio="none" x="13436.279297" y="-3557.373047" width="2.197266" height="2.197266"/>
<image xlink:href="tile18_3.png" preserveAspectRatio="none" x="13438.476562" y="-3561.767578" width="2.197266" height="2.197266"/>
<image xlink:href="tile19_3.png" preserveAspectRatio="none" x="13440.673828" y="-3561.767578" width="2.197266" height="2.197266"/>
<image xlink:href="tile20_7.png" preserveAspectRatio="none" x="13442.871094" y="-3552.978516" width="2.197266" height="2.197266"/>
<image xlink:href="tile20_6.png" preserveAspectRatio="none" x="13442.871094" y="-3555.175781" width="2.197266" height="2.197266"/>
<image xlink:href="tile20_3.png" preserveAspectRatio="none" x="13442.871094" y="-3561.767578" width="2.197266" height="2.197266"/>
<image xlink:href="tile20_2.png" preserveAspectRatio="none" x="13442.871094" y="-3563.964844" width="2.197266" height="2.197266"/>
<image xlink:href="tile21_9.png" preserveAspectRatio="none" x="13445.068359" y="-3548.583984" width="2.197266" height="2.197266"/>
<image xlink:href="tile21_8.png" preserveAspectRatio="none" x="13445.068359" y="-3550.78125" width="2.197266" height="2.197266"/>
<image xlink:href="tile21_7.png" preserveAspectRatio="none" x="13445.068359" y="-3552.978516" width="2.197266" height="2.197266"/>
<image xlink:href="tile21_6.png" preserveAspectRatio="none" x="13445.068359" y="-3555.175781" width="2.197266" height="2.197266"/>
<image xlink:href="tile21_5.png" preserveAspectRatio="none" x="13445.068359" y="-3557.373047" width="2.197266" height="2.197266"/>
<image xlink:href="tile21_4.png" preserveAspectRatio="none" x="13445.068359" y="-3559.570312" width="2.197266" height="2.197266"/>
<image xlink:href="tile21_3.png" preserveAspectRatio="none" x="13445.068359" y="-3561.767578" width="2.197266" height="2.197266"/>
<image xlink:href="tile21_2.png" preserveAspectRatio="none" x="13445.068359" y="-3563.964844" width="2.197266" height="2.197266"/>
<image xlink:href="tile22_7.png" preserveAspectRatio="none" x="13447.265625" y="-3552.978516" width="2.197266" height="2.197266"/>
<image xlink:href="tile22_6.png" preserveAspectRatio="none" x="13447.265625" y="-3555.175781" width="2.197266" height="2.197266"/>
<image xlink:href="tile22_5.png" preserveAspectRatio="none" x="13447.265625" y="-3557.373047" width="2.197266" height="2.197266"/>
<image xlink:href="tile22_4.png" preserveAspectRatio="none" x="13447.265625" y="-3559.570312" width="2.197266" height="2.197266"/>
<image xlink:href="tile22_3.png" preserveAspectRatio="none" x="13447.265625" y="-3561.767578" width="2.197266" height="2.197266"/>
<image xlink:href="tile22_2.png" preserveAspectRatio="none" x="13447.265625" y="-3563.964844" width="2.197266" height="2.197266"/>
<image xlink:href="tile22_1.png" preserveAspectRatio="none" x="13447.265625" y="-3566.162109" width="2.197266" height="2.197266"/>
<image xlink:href="tile23_12.png" preserveAspectRatio="none" x="13449.462891" y="-3541.992188" width="2.197266" height="2.197266"/>
<image xlink:href="tile23_7.png" preserveAspectRatio="none" x="13449.462891" y="-3552.978516" width="2.197266" height="2.197266"/>
<image xlink:href="tile23_6.png" preserveAspectRatio="none" x="13449.462891" y="-3555.175781" width="2.197266" height="2.197266"/>
<image xlink:href="tile23_4.png" preserveAspectRatio="none" x="13449.462891" y="-3559.570312" width="2.197266" height="2.197266"/>
<image xlink:href="tile23_3.png" preserveAspectRatio="none" x="13449.462891" y="-3561.767578" width="2.197266" height="2.197266"/>
<image xlink:href="tile23_2.png" preserveAspectRatio="none" x="13449.462891" y="-3563.964844" width="2.197266" height="2.197266"/>
<image xlink:href="tile23_1.png" preserveAspectRatio="none" x="13449.462891" y="-3566.162109" width="2.197266" height="2.197266"/>
<image xlink:href="tile24_12.png" preserveAspectRatio="none" x="13451.660156" y="-3541.992188" width="2.197266" height="2.197266"/>
<image xlink:href="tile24_11.png" preserveAspectRatio="none" x="13451.660156" y="-3544.189453" width="2.197266" height="2.197266"/>
<image xlink:href="tile24_10.png" preserveAspectRatio="none" x="13451.660156" y="-3546.386719" width="2.197266" height="2.197266"/>
<image xlink:href="tile24_9.png" preserveAspectRatio="none" x="13451.660156" y="-3548.583984" width="2.197266" height="2.197266"/>
<image xlink:href="tile24_8.png" preserveAspectRatio="none" x="13451.660156" y="-3550.78125" width="2.197266" height="2.197266"/>
<image xlink:href="tile24_7.png" preserveAspectRatio="none" x="13451.660156" y="-3552.978516" width="2.197266" height="2.197266"/>
<image xlink:href="tile24_5.png" preserveAspectRatio="none" x="13451.660156" y="-3557.373047" width="2.197266" height="2.197266"/>
<image xlink:href="tile24_4.png" preserveAspectRatio="none" x="13451.660156" y="-3559.570312" width="2.197266" height="2.197266"/>
<image xlink:href="tile24_3.png" preserveAspectRatio="none" x="13451.660156" y="-3561.767578" width="2.197266" height="2.197266"/>
<image xlink:href="tile24_2.png" preserveAspectRatio="none" x="13451.660156" y="-3563.964844" width="2.197266" height="2.197266"/>
<image xlink:href="tile25_15.png" preserveAspectRatio="none" x="13453.857422" y="-3535.400391" width="2.197266" height="2.197266"/>
<image xlink:href="tile25_14.png" preserveAspectRatio="none" x="13453.857422" y="-3537.597656" width="2.197266" height="2.197266"/>
<image xlink:href="tile25_12.png" preserveAspectRatio="none" x="13453.857422" y="-3541.992188" width="2.197266" height="2.197266"/>
<image xlink:href="tile25_10.png" preserveAspectRatio="none" x="13453.857422" y="-3546.386719" width="2.197266" height="2.197266"/>
<image xlink:href="tile25_9.png" preserveAspectRatio="none" x="13453.857422" y="-3548.583984" width="2.197266" height="2.197266"/>
<image xlink:href="tile25_8.png" preserveAspectRatio="none" x="13453.857422" y="-3550.78125" width="2.197266" height="2.197266"/>
<image xlink:href="tile25_4.png" preserveAspectRatio="none" x="13453.857422" y="-3559.570312" width="2.197266" height="2.197266"/>
<image xlink:href="tile25_3.png" preserveAspectRatio="none" x="13453.857422" y="-3561.767578" width="2.197266" height="2.197266"/>
<image xlink:href="tile25_1.png" preserveAspectRatio="none" x="13453.857422" y="-3566.162109" width="2.197266" height="2.197266"/>
<image xlink:href="tile26_15.png" preserveAspectRatio="none" x="13456.054688" y="-3535.400391" width="2.197266" height="2.197266"/>
<image xlink:href="tile26_14.png" preserveAspectRatio="none" x="13456.054688" y="-3537.597656" width="2.197266" height="2.197266"/>
<image xlink:href="tile26_12.png" preserveAspectRatio="none" x="13456.054688" y="-3541.992188" width="2.197266" height="2.197266"/>
<image xlink:href="tile26_10.png" preserveAspectRatio="none" x="13456.054688" y="-3546.386719" width="2.197266" height="2.197266"/>
<image xlink:href="tile26_9.png" preserveAspectRatio="none" x="13456.054688" y="-3548.583984" width="2.197266" height="2.197266"/>
<image xlink:href="tile26_8.png" preserveAspectRatio="none" x="13456.054688" y="-3550.78125" width="2.197266" height="2.197266"/>
<image xlink:href="tile26_7.png" preserveAspectRatio="none" x="13456.054688" y="-3552.978516" width="2.197266" height="2.197266"/>
<image xlink:href="tile26_6.png" preserveAspectRatio="none" x="13456.054688" y="-3555.175781" width="2.197266" height="2.197266"/>
<image xlink:href="tile26_5.png" preserveAspectRatio="none" x="13456.054688" y="-3557.373047" width="2.197266" height="2.197266"/>
<image xlink:href="tile26_4.png" preserveAspectRatio="none" x="13456.054688" y="-3559.570312" width="2.197266" height="2.197266"/>
<image xlink:href="tile26_2.png" preserveAspectRatio="none" x="13456.054688" y="-3563.964844" width="2.197266" height="2.197266"/>
<image xlink:href="tile26_1.png" preserveAspectRatio="none" x="13456.054688" y="-3566.162109" width="2.197266" height="2.197266"/>
<image xlink:href="tile27_14.png" preserveAspectRatio="none" x="13458.251953" y="-3537.597656" width="2.197266" height="2.197266"/>
<image xlink:href="tile27_12.png" preserveAspectRatio="none" x="13458.251953" y="-3541.992188" width="2.197266" height="2.197266"/>
<image xlink:href="tile27_11.png" preserveAspectRatio="none" x="13458.251953" y="-3544.189453" width="2.197266" height="2.197266"/>
<image xlink:href="tile27_10.png" preserveAspectRatio="none" x="13458.251953" y="-3546.386719" width="2.197266" height="2.197266"/>
<image xlink:href="tile27_9.png" preserveAspectRatio="none" x="13458.251953" y="-3548.583984" width="2.197266" height="2.197266"/>
<image xlink:href="tile27_6.png" preserveAspectRatio="none" x="13458.251953" y="-3555.175781" width="2.197266" height="2.197266"/>
<image xlink:href="tile27_5.png" preserveAspectRatio="none" x="13458.251953" y="-3557.373047" width="2.197266" height="2.197266"/>
<image xlink:href="tile28_14.png" preserveAspectRatio="none" x="13460.449219" y="-3537.597656" width="2.197266" height="2.197266"/>
<image xlink:href="tile28_11.png" preserveAspectRatio="none" x="13460.449219" y="-3544.189453" width="2.197266" height="2.197266"/>
<image xlink:href="tile28_9.png" preserveAspectRatio="none" x="13460.449219" y="-3548.583984" width="2.197266" height="2.197266"/>
<image xlink:href="tile28_5.png" preserveAspectRatio="none" x="13460.449219" y="-3557.373047" width="2.197266" height="2.197266"/>
<image xlink:href="tile28_4.png" preserveAspectRatio="none" x="13460.449219" y="-3559.570312" width="2.197266" height="2.197266"/>
<image xlink:href="tile28_3.png" preserveAspectRatio="none" x="13460.449219" y="-3561.767578" width="2.197266" height="2.197266"/>
<image xlink:href="tile28_2.png" preserveAspectRatio="none" x="13460.449219" y="-3563.964844" width="2.197266" height="2.197266"/>
<image xlink:href="tile28_1.png" preserveAspectRatio="none" x="13460.449219" y="-3566.162109" width="2.197266" height="2.197266"/>
<image xlink:href="tile29_14.png" preserveAspectRatio="none" x="13462.646484" y="-3537.597656" width="2.197266" height="2.197266"/>
<image xlink:href="tile29_13.png" preserveAspectRatio="none" x="13462.646484" y="-3539.794922" width="2.197266" height="2.197266"/>
<image xlink:href="tile29_7.png" preserveAspectRatio="none" x="13462.646484" y="-3552.978516" width="2.197266" height="2.197266"/>
<image xlink:href="tile29_5.png" preserveAspectRatio="none" x="13462.646484" y="-3557.373047" width="2.197266" height="2.197266"/>
<image xlink:href="tile29_4.png" preserveAspectRatio="none" x="13462.646484" y="-3559.570312" width="2.197266" height="2.197266"/>
<image xlink:href="tile29_3.png" preserveAspectRatio="none" x="13462.646484" y="-3561.767578" width="2.197266" height="2.197266"/>
<image xlink:href="tile29_2.png" preserveAspectRatio="none" x="13462.646484" y="-3563.964844" width="2.197266" height="2.197266"/>
<image xlink:href="tile29_1.png" preserveAspectRatio="none" x="13462.646484" y="-3566.162109" width="2.197266" height="2.197266"/>
<image xlink:href="tile30_15.png" preserveAspectRatio="none" x="13464.84375" y="-3535.400391" width="2.197266" height="2.197266"/>
<image xlink:href="tile30_13.png" preserveAspectRatio="none" x="13464.84375" y="-3539.794922" width="2.197266" height="2.197266"/>
<image xlink:href="tile30_8.png" preserveAspectRatio="none" x="13464.84375" y="-3550.78125" width="2.197266" height="2.197266"/>
<image xlink:href="tile30_7.png" preserveAspectRatio="none" x="13464.84375" y="-3552.978516" width="2.197266" height="2.197266"/>
<image xlink:href="tile30_6.png" preserveAspectRatio="none" x="13464.84375" y="-3555.175781" width="2.197266" height="2.197266"/>
<image xlink:href="tile30_5.png" preserveAspectRatio="none" x="13464.84375" y="-3557.373047" width="2.197266" height="2.197266"/>
<image xlink:href="tile30_4.png" preserveAspectRatio="none" x="13464.84375" y="-3559.570312" width="2.197266" height="2.197266"/>
<image xlink:href="tile30_3.png" preserveAspectRatio="none" x="13464.84375" y="-3561.767578" width="2.197266" height="2.197266"/>
<image xlink:href="tile30_2.png" preserveAspectRatio="none" x="13464.84375" y="-3563.964844" width="2.197266" height="2.197266"/>
<image xlink:href="tile30_1.png" preserveAspectRatio="none" x="13464.84375" y="-3566.162109" width="2.197266" height="2.197266"/>
<image xlink:href="tile31_15.png" preserveAspectRatio="none" x="13467.041016" y="-3535.400391" width="2.197266" height="2.197266"/>
<image xlink:href="tile31_13.png" preserveAspectRatio="none" x="13467.041016" y="-3539.794922" width="2.197266" height="2.197266"/>
<image xlink:href="tile31_10.png" preserveAspectRatio="none" x="13467.041016" y="-3546.386719" width="2.197266" height="2.197266"/>
<image xlink:href="tile31_9.png" preserveAspectRatio="none" x="13467.041016" y="-3548.583984" width="2.197266" height="2.197266"/>
<image xlink:href="tile31_8.png" preserveAspectRatio="none" x="13467.041016" y="-3550.78125" width="2.197266" height="2.197266"/>
<image xlink:href="tile31_5.png" preserveAspectRatio="none" x="13467.041016" y="-3557.373047" width="2.197266" height="2.197266"/>
<image xlink:href="tile31_4.png" preserveAspectRatio="none" x="13467.041016" y="-3559.570312" width="2.197266" height="2.197266"/>
<image xlink:href="tile31_3.png" preserveAspectRatio="none" x="13467.041016" y="-3561.767578" width="2.197266" height="2.197266"/>
<image xlink:href="tile31_2.png" preserveAspectRatio="none" x="13467.041016" y="-3563.964844" width="2.197266" height="2.197266"/>
<image xlink:href="tile31_1.png" preserveAspectRatio="none" x="13467.041016" y="-3566.162109" width="2.197266" height="2.197266"/>
</g>
</svg>
