<?xml version="1.0" encoding="UTF-8"?>
<svg  xmlns="http://www.w3.org/2000/svg" xmlns:xlink="http://www.w3.org/1999/xlink" xmlns:go="http://purl.org/svgmap/profile" viewBox="13400.0 -3566.3708334 100.0 33.03750030000003" go:dataArea="13400.0 -3566.3708334 100.0 33.03750030000003" >
<metadata>
 <rdf:RDF xmlns:rdf="http://www.w3.org/1999/02/22-rdf-syntax-ns#" xmlns:crs="http://opengis.org/xmldtds/transformations.dtd" xmlns:svg="http://www.w3.org/svg" >
  <rdf:Description>
   <crs:CoordinateReferenceSystem rdf:resource="http://purl.org/crs/84" svg:transform="matrix(100.0,0.0,0.0,-100.0,0.0,0.0)" />
  </rdf:Description>
 </rdf:RDF>
</metadata>
<globalCoordinateSystem srsName="http://purl.org/crs/84" transform="matrix(100.0,0.0,0.0,-100.0,0.0,0.0)" />
<g >
<image xlink:href="tile32_15.png" preserveAspectRatio="none" x="13469.238281" y="-3535.400391" width="2.197266" height="2.197266"/>
<image xlink:href="tile32_14.png" preserveAspectRatio="none" x="13469.238281" y="-3537.597656" width="2.197266" height="2.197266"/>
<image xlink:href="tile32_13.png" preserveAspectRatio="none" x="13469.238281" y="-3539.794922" width="2.197266" height="2.197266"/>
<image xlink:href="tile32_12.png" preserveAspectRatio="none" x="13469.238281" y="-3541.992188" width="2.197266" height="2.197266"/>
<image xlink:href="tile32_11.png" preserveAspectRatio="none" x="13469.238281" y="-3544.189453" width="2.197266" height="2.197266"/>
<image xlink:href="tile32_10.png" preserveAspectRatio="none" x="13469.238281" y="-3546.386719" width="2.197266" height="2.197266"/>
<image xlink:href="tile32_9.png" preserveAspectRatio="none" x="13469.238281" y="-3548.583984" width="2.197266" height="2.197266"/>
<image xlink:href="tile32_8.png" preserveAspectRatio="none" x="13469.238281" y="-3550.78125" width="2.197266" height="2.197266"/>
<image xlink:href="tile32_7.png" preserveAspectRatio="none" x="13469.238281" y="-3552.978516" width="2.197266" height="2.197266"/>
<image xlink:href="tile32_6.png" preserveAspectRatio="none" x="13469.238281" y="-3555.175781" width="2.197266" height="2.197266"/>
<image xlink:href="tile32_5.png" preserveAspectRatio="none" x="13469.238281" y="-3557.373047" width="2.197266" height="2.197266"/>
<image xlink:href="tile32_4.png" preserveAspectRatio="none" x="13469.238281" y="-3559.570312" width="2.197266" height="2.197266"/>
<image xlink:href="tile32_3.png" preserveAspectRatio="none" x="13469.238281" y="-3561.767578" width="2.197266" height="2.197266"/>
<image xlink:href="tile32_1.png" preserveAspectRatio="none" x="13469.238281" y="-3566.162109" width="2.197266" height="2.197266"/>
<image xlink:href="tile33_14.png" preserveAspectRatio="none" x="13471.435547" y="-3537.597656" width="2.197266" height="2.197266"/>
<image xlink:href="tile33_13.png" preserveAspectRatio="none" x="13471.435547" y="-3539.794922" width="2.197266" height="2.197266"/>
<image xlink:href="tile33_12.png" preserveAspectRatio="none" x="13471.435547" y="-3541.992188" width="2.197266" height="2.197266"/>
<image xlink:href="tile33_11.png" preserveAspectRatio="none" x="13471.435547" y="-3544.189453" width="2.197266" height="2.197266"/>
<image xlink:href="tile33_10.png" preserveAspectRatio="none" x="13471.435547" y="-3546.386719" width="2.197266" height="2.197266"/>
<image xlink:href="tile33_9.png" preserveAspectRatio="none" x="13471.435547" y="-3548.583984" width="2.197266" height="2.197266"/>
<image xlink:href="tile33_7.png" preserveAspectRatio="none" x="13471.435547" y="-3552.978516" width="2.197266" height="2.197266"/>
<image xlink:href="tile33_6.png" preserveAspectRatio="none" x="13471.435547" y="-3555.175781" width="2.197266" height="2.197266"/>
<image xlink:href="tile33_5.png" preserveAspectRatio="none" x="13471.435547" y="-3557.373047" width="2.197266" height="2.197266"/>
<image xlink:href="tile33_4.png" preserveAspectRatio="none" x="13471.435547" y="-3559.570312" width="2.197266" height="2.197266"/>
<image xlink:href="tile33_3.png" preserveAspectRatio="none" x="13471.435547" y="-3561.767578" width="2.197266" height="2.197266"/>
<image xlink:href="tile33_2.png" preserveAspectRatio="none" x="13471.435547" y="-3563.964844" width="2.197266" height="2.197266"/>
<image xlink:href="tile33_1.png" preserveAspectRatio="none" x="13471.435547" y="-3566.162109" width="2.197266" height="2.197266"/>
<image xlink:href="tile34_15.png" preserveAspectRatio="none" x="13473.632812" y="-3535.400391" width="2.197266" height="2.197266"/>
<image xlink:href="tile34_14.png" preserveAspectRatio="none" x="13473.632812" y="-3537.597656" width="2.197266" height="2.197266"/>
<image xlink:href="tile34_13.png" preserveAspectRatio="none" x="13473.632812" y="-3539.794922" width="2.197266" height="2.197266"/>
<image xlink:href="tile34_12.png" preserveAspectRatio="none" x="13473.632812" y="-3541.992188" width="2.197266" height="2.197266"/>
<image xlink:href="tile34_11.png" preserveAspectRatio="none" x="13473.632812" y="-3544.189453" width="2.197266" height="2.197266"/>
<image xlink:href="tile34_10.png" preserveAspectRatio="none" x="13473.632812" y="-3546.386719" width="2.197266" height="2.197266"/>
<image xlink:href="tile34_8.png" preserveAspectRatio="none" x="13473.632812" y="-3550.78125" width="2.197266" height="2.197266"/>
<image xlink:href="tile34_7.png" preserveAspectRatio="none" x="13473.632812" y="-3552.978516" width="2.197266" height="2.197266"/>
<image xlink:href="tile34_4.png" preserveAspectRatio="none" x="13473.632812" y="-3559.570312" width="2.197266" height="2.197266"/>
<image xlink:href="tile34_3.png" preserveAspectRatio="none" x="13473.632812" y="-3561.767578" width="2.197266" height="2.197266"/>
<image xlink:href="tile34_2.png" preserveAspectRatio="none" x="13473.632812" y="-3563.964844" width="2.197266" height="2.197266"/>
<image xlink:href="tile34_1.png" preserveAspectRatio="none" x="13473.632812" y="-3566.162109" width="2.197266" height="2.197266"/>
<image xlink:href="tile35_15.png" preserveAspectRatio="none" x="13475.830078" y="-3535.400391" width="2.197266" height="2.197266"/>
<image xlink:href="tile35_14.png" preserveAspectRatio="none" x="13475.830078" y="-3537.597656" width="2.197266" height="2.197266"/>
<image xlink:href="tile35_13.png" preserveAspectRatio="none" x="13475.830078" y="-3539.794922" width="2.197266" height="2.197266"/>
<image xlink:href="tile35_12.png" preserveAspectRatio="none" x="13475.830078" y="-3541.992188" width="2.197266" height="2.197266"/>
<image xlink:href="tile35_11.png" preserveAspectRatio="none" x="13475.830078" y="-3544.189453" width="2.197266" height="2.197266"/>
<image xlink:href="tile35_10.png" preserveAspectRatio="none" x="13475.830078" y="-3546.386719" width="2.197266" height="2.197266"/>
<image xlink:href="tile35_9.png" preserveAspectRatio="none" x="13475.830078" y="-3548.583984" width="2.197266" height="2.197266"/>
<image xlink:href="tile35_8.png" preserveAspectRatio="none" x="13475.830078" y="-3550.78125" width="2.197266" height="2.197266"/>
<image xlink:href="tile35_7.png" preserveAspectRatio="none" x="13475.830078" y="-3552.978516" width="2.197266" height="2.197266"/>
<image xlink:href="tile35_6.png" preserveAspectRatio="none" x="13475.830078" y="-3555.175781" width="2.197266" height="2.197266"/>
<image xlink:href="tile35_5.png" preserveAspectRatio="none" x="13475.830078" y="-3557.373047" width="2.197266" height="2.197266"/>
<image xlink:href="tile35_4.png" preserveAspectRatio="none" x="13475.830078" y="-3559.570312" width="2.197266" height="2.197266"/>
<image xlink:href="tile35_2.png" preserveAspectRatio="none" x="13475.830078" y="-3563.964844" width="2.197266" height="2.197266"/>
<image xlink:href="tile35_1.png" preserveAspectRatio="none" x="13475.830078" y="-3566.162109" width="2.197266" height="2.197266"/>
<image xlink:href="tile35_0.png" preserveAspectRatio="none" x="13475.830078" y="-3568.359375" width="2.197266" height="2.197266"/>
<image xlink:href="tile36_15.png" preserveAspectRatio="none" x="13478.027344" y="-3535.400391" width="2.197266" height="2.197266"/>
<image xlink:href="tile36_13.png" preserveAspectRatio="none" x="13478.027344" y="-3539.794922" width="2.197266" height="2.197266"/>
<image xlink:href="tile36_12.png" preserveAspectRatio="none" x="13478.027344" y="-3541.992188" width="2.197266" height="2.197266"/>
<image xlink:href="tile36_11.png" preserveAspectRatio="none" x="13478.027344" y="-3544.189453" width="2.197266" height="2.197266"/>
<image xlink:href="tile36_10.png" preserveAspectRatio="none" x="13478.027344" y="-3546.386719" width="2.197266" height="2.197266"/>
<image xlink:href="tile36_9.png" preserveAspectRatio="none" x="13478.027344" y="-3548.583984" width="2.197266" height="2.197266"/>
<image xlink:href="tile36_8.png" preserveAspectRatio="none" x="13478.027344" y="-3550.78125" width="2.197266" height="2.197266"/>
<image xlink:href="tile36_6.png" preserveAspectRatio="none" x="13478.027344" y="-3555.175781" width="2.197266" height="2.197266"/>
<image xlink:href="tile36_5.png" preserveAspectRatio="none" x="13478.027344" y="-3557.373047" width="2.197266" height="2.197266"/>
<image xlink:href="tile36_4.png" preserveAspectRatio="none" x="13478.027344" y="-3559.570312" width="2.197266" height="2.197266"/>
<image xlink:href="tile36_3.png" preserveAspectRatio="none" x="13478.027344" y="-3561.767578" width="2.197266" height="2.197266"/>
<image xlink:href="tile36_2.png" preserveAspectRatio="none" x="13478.027344" y="-3563.964844" width="2.197266" height="2.197266"/>
<image xlink:href="tile37_14.png" preserveAspectRatio="none" x="13480.224609" y="-3537.597656" width="2.197266" height="2.197266"/>
<image xlink:href="tile37_13.png" preserveAspectRatio="none" x="13480.224609" y="-3539.794922" width="2.197266" height="2.197266"/>
<image xlink:href="tile37_12.png" preserveAspectRatio="none" x="13480.224609" y="-3541.992188" width="2.197266" height="2.197266"/>
<image xlink:href="tile37_11.png" preserveAspectRatio="none" x="13480.224609" y="-3544.189453" width="2.197266" height="2.197266"/>
<image xlink:href="tile37_10.png" preserveAspectRatio="none" x="13480.224609" y="-3546.386719" width="2.197266" height="2.197266"/>
<image xlink:href="tile37_9.png" preserveAspectRatio="none" x="13480.224609" y="-3548.583984" width="2.197266" height="2.197266"/>
<image xlink:href="tile37_8.png" preserveAspectRatio="none" x="13480.224609" y="-3550.78125" width="2.197266" height="2.197266"/>
<image xlink:href="tile37_7.png" preserveAspectRatio="none" x="13480.224609" y="-3552.978516" width="2.197266" height="2.197266"/>
<image xlink:href="tile37_6.png" preserveAspectRatio="none" x="13480.224609" y="-3555.175781" width="2.197266" height="2.197266"/>
<image xlink:href="tile37_5.png" preserveAspectRatio="none" x="13480.224609" y="-3557.373047" width="2.197266" height="2.197266"/>
<image xlink:href="tile37_4.png" preserveAspectRatio="none" x="13480.224609" y="-3559.570312" width="2.197266" height="2.197266"/>
<image xlink:href="tile37_3.png" preserveAspectRatio="none" x="13480.224609" y="-3561.767578" width="2.197266" height="2.197266"/>
<image xlink:href="tile37_2.png" preserveAspectRatio="none" x="13480.224609" y="-3563.964844" width="2.197266" height="2.197266"/>
<image xlink:href="tile37_1.png" preserveAspectRatio="none" x="13480.224609" y="-3566.162109" width="2.197266" height="2.197266"/>
<image xlink:href="tile38_15.png" preserveAspectRatio="none" x="13482.421875" y="-3535.400391" width="2.197266" height="2.197266"/>
<image xlink:href="tile38_14.png" preserveAspectRatio="none" x="13482.421875" y="-3537.597656" width="2.197266" height="2.197266"/>
<image xlink:href="tile38_13.png" preserveAspectRatio="none" x="13482.421875" y="-3539.794922" width="2.197266" height="2.197266"/>
<image xlink:href="tile38_12.png" preserveAspectRatio="none" x="13482.421875" y="-3541.992188" width="2.197266" height="2.197266"/>
<image xlink:href="tile38_11.png" preserveAspectRatio="none" x="13482.421875" y="-3544.189453" width="2.197266" height="2.197266"/>
<image xlink:href="tile38_10.png" preserveAspectRatio="none" x="13482.421875" y="-3546.386719" width="2.197266" height="2.197266"/>
<image xlink:href="tile38_9.png" preserveAspectRatio="none" x="13482.421875" y="-3548.583984" width="2.197266" height="2.197266"/>
<image xlink:href="tile38_8.png" preserveAspectRatio="none" x="13482.421875" y="-3550.78125" width="2.197266" height="2.197266"/>
<image xlink:href="tile38_7.png" preserveAspectRatio="none" x="13482.421875" y="-3552.978516" width="2.197266" height="2.197266"/>
<image xlink:href="tile38_6.png" preserveAspectRatio="none" x="13482.421875" y="-3555.175781" width="2.197266" height="2.197266"/>
<image xlink:href="tile38_5.png" preserveAspectRatio="none" x="13482.421875" y="-3557.373047" width="2.197266" height="2.197266"/>
<image xlink:href="tile38_3.png" preserveAspectRatio="none" x="13482.421875" y="-3561.767578" width="2.197266" height="2.197266"/>
<image xlink:href="tile38_2.png" preserveAspectRatio="none" x="13482.421875" y="-3563.964844" width="2.197266" height="2.197266"/>
<image xlink:href="tile38_1.png" preserveAspectRatio="none" x="13482.421875" y="-3566.162109" width="2.197266" height="2.197266"/>
<image xlink:href="tile39_15.png" preserveAspectRatio="none" x="13484.619141" y="-3535.400391" width="2.197266" height="2.197266"/>
<image xlink:href="tile39_14.png" preserveAspectRatio="none" x="13484.619141" y="-3537.597656" width="2.197266" height="2.197266"/>
<image xlink:href="tile39_13.png" preserveAspectRatio="none" x="13484.619141" y="-3539.794922" width="2.197266" height="2.197266"/>
<image xlink:href="tile39_12.png" preserveAspectRatio="none" x="13484.619141" y="-3541.992188" width="2.197266" height="2.197266"/>
<image xlink:href="tile39_11.png" preserveAspectRatio="none" x="13484.619141" y="-3544.189453" width="2.197266" height="2.197266"/>
<image xlink:href="tile39_10.png" preserveAspectRatio="none" x="13484.619141" y="-3546.386719" width="2.197266" height="2.197266"/>
<image xlink:href="tile39_9.png" preserveAspectRatio="none" x="13484.619141" y="-3548.583984" width="2.197266" height="2.197266"/>
<image xlink:href="tile39_8.png" preserveAspectRatio="none" x="13484.619141" y="-3550.78125" width="2.197266" height="2.197266"/>
<image xlink:href="tile39_7.png" preserveAspectRatio="none" x="13484.619141" y="-3552.978516" width="2.197266" height="2.197266"/>
<image xlink:href="tile39_6.png" preserveAspectRatio="none" x="13484.619141" y="-3555.175781" width="2.197266" height="2.197266"/>
<image xlink:href="tile39_5.png" preserveAspectRatio="none" x="13484.619141" y="-3557.373047" width="2.197266" height="2.197266"/>
<image xlink:href="tile39_3.png" preserveAspectRatio="none" x="13484.619141" y="-3561.767578" width="2.197266" height="2.197266"/>
<image xlink:href="tile40_15.png" preserveAspectRatio="none" x="13486.816406" y="-3535.400391" width="2.197266" height="2.197266"/>
<image xlink:href="tile40_13.png" preserveAspectRatio="none" x="13486.816406" y="-3539.794922" width="2.197266" height="2.197266"/>
<image xlink:href="tile40_12.png" preserveAspectRatio="none" x="13486.816406" y="-3541.992188" width="2.197266" height="2.197266"/>
<image xlink:href="tile40_10.png" preserveAspectRatio="none" x="13486.816406" y="-3546.386719" width="2.197266" height="2.197266"/>
<image xlink:href="tile40_9.png" preserveAspectRatio="none" x="13486.816406" y="-3548.583984" width="2.197266" height="2.197266"/>
<image xlink:href="tile40_8.png" preserveAspectRatio="none" x="13486.816406" y="-3550.78125" width="2.197266" height="2.197266"/>
<image xlink:href="tile40_7.png" preserveAspectRatio="none" x="13486.816406" y="-3552.978516" width="2.197266" height="2.197266"/>
<image xlink:href="tile40_6.png" preserveAspectRatio="none" x="13486.816406" y="-3555.175781" width="2.197266" height="2.197266"/>
<image xlink:href="tile40_5.png" preserveAspectRatio="none" x="13486.816406" y="-3557.373047" width="2.197266" height="2.197266"/>
<image xlink:href="tile41_15.png" preserveAspectRatio="none" x="13489.013672" y="-3535.400391" width="2.197266" height="2.197266"/>
<image xlink:href="tile41_13.png" preserveAspectRatio="none" x="13489.013672" y="-3539.794922" width="2.197266" height="2.197266"/>
<image xlink:href="tile41_10.png" preserveAspectRatio="none" x="13489.013672" y="-3546.386719" width="2.197266" height="2.197266"/>
<image xlink:href="tile41_8.png" preserveAspectRatio="none" x="13489.013672" y="-3550.78125" width="2.197266" height="2.197266"/>
<image xlink:href="tile41_7.png" preserveAspectRatio="none" x="13489.013672" y="-3552.978516" width="2.197266" height="2.197266"/>
<image xlink:href="tile42_11.png" preserveAspectRatio="none" x="13491.210938" y="-3544.189453" width="2.197266" height="2.197266"/>
<image xlink:href="tile42_10.png" preserveAspectRatio="none" x="13491.210938" y="-3546.386719" width="2.197266" height="2.197266"/>
<image xlink:href="tile42_9.png" preserveAspectRatio="none" x="13491.210938" y="-3548.583984" width="2.197266" height="2.197266"/>
<image xlink:href="tile43_11.png" preserveAspectRatio="none" x="13493.408203" y="-3544.189453" width="2.197266" height="2.197266"/>
<image xlink:href="tile43_10.png" preserveAspectRatio="none" x="13493.408203" y="-3546.386719" width="2.197266" height="2.197266"/>
<image xlink:href="tile43_9.png" preserveAspectRatio="none" x="13493.408203" y="-3548.583984" width="2.197266" height="2.197266"/>
<image xlink:href="tile43_8.png" preserveAspectRatio="none" x="13493.408203" y="-3550.78125" width="2.197266" height="2.197266"/>
<image xlink:href="tile44_11.png" preserveAspectRatio="none" x="13495.605469" y="-3544.189453" width="2.197266" height="2.197266"/>
<image xlink:href="tile44_10.png" preserveAspectRatio="none" x="13495.605469" y="-3546.386719" width="2.197266" height="2.197266"/>
<image xlink:href="tile44_9.png" preserveAspectRatio="none" x="13495.605469" y="-3548.583984" width="2.197266" height="2.197266"/>
<image xlink:href="tile44_8.png" preserveAspectRatio="none" x="13495.605469" y="-3550.78125" width="2.197266" height="2.197266"/>
<image xlink:href="tile45_12.png" preserveAspectRatio="none" x="13497.802734" y="-3541.992188" width="2.197266" height="2.197266"/>
<image xlink:href="tile45_11.png" preserveAspectRatio="none" x="13497.802734" y="-3544.189453" width="2.197266" height="2.197266"/>
<image xlink:href="tile45_10.png" preserveAspectRatio="none" x="13497.802734" y="-3546.386719" width="2.197266" height="2.197266"/>
<image xlink:href="tile45_8.png" preserveAspectRatio="none" x="13497.802734" y="-3550.78125" width="2.197266" height="2.197266"/>
</g>
</svg>
