<?xml version="1.0" encoding="UTF-8"?>
<svg  xmlns="http://www.w3.org/2000/svg" xmlns:xlink="http://www.w3.org/1999/xlink" xmlns:go="http://purl.org/svgmap/profile" viewBox="14164.03125 -4395.854167 35.96875000000068 62.520834000000036" go:dataArea="14164.03125 -4395.854167 35.96875000000068 62.520834000000036" >
<metadata>
 <rdf:RDF xmlns:rdf="http://www.w3.org/1999/02/22-rdf-syntax-ns#" xmlns:crs="http://opengis.org/xmldtds/transformations.dtd" xmlns:svg="http://www.w3.org/svg" >
  <rdf:Description>
   <crs:CoordinateReferenceSystem rdf:resource="http://purl.org/crs/84" svg:transform="matrix(100.0,0.0,0.0,-100.0,0.0,0.0)" />
  </rdf:Description>
 </rdf:RDF>
</metadata>
<globalCoordinateSystem srsName="http://purl.org/crs/84" transform="matrix(100.0,0.0,0.0,-100.0,0.0,0.0)" />
<g >
<image xlink:href="tile32_25.png" preserveAspectRatio="none" x="14198.730469" y="-4369.262695" width="1.098633" height="1.098633"/>
<image xlink:href="tile32_24.png" preserveAspectRatio="none" x="14198.730469" y="-4370.361328" width="1.098633" height="1.098633"/>
<image xlink:href="tile32_23.png" preserveAspectRatio="none" x="14198.730469" y="-4371.459961" width="1.098633" height="1.098633"/>
<image xlink:href="tile32_22.png" preserveAspectRatio="none" x="14198.730469" y="-4372.558594" width="1.098633" height="1.098633"/>
<image xlink:href="tile32_21.png" preserveAspectRatio="none" x="14198.730469" y="-4373.657227" width="1.098633" height="1.098633"/>
<image xlink:href="tile32_20.png" preserveAspectRatio="none" x="14198.730469" y="-4374.755859" width="1.098633" height="1.098633"/>
<image xlink:href="tile32_19.png" preserveAspectRatio="none" x="14198.730469" y="-4375.854492" width="1.098633" height="1.098633"/>
<image xlink:href="tile32_15.png" preserveAspectRatio="none" x="14198.730469" y="-4380.249023" width="1.098633" height="1.098633"/>
<image xlink:href="tile32_14.png" preserveAspectRatio="none" x="14198.730469" y="-4381.347656" width="1.098633" height="1.098633"/>
<image xlink:href="tile32_13.png" preserveAspectRatio="none" x="14198.730469" y="-4382.446289" width="1.098633" height="1.098633"/>
<image xlink:href="tile32_12.png" preserveAspectRatio="none" x="14198.730469" y="-4383.544922" width="1.098633" height="1.098633"/>
<image xlink:href="tile32_11.png" preserveAspectRatio="none" x="14198.730469" y="-4384.643555" width="1.098633" height="1.098633"/>
<image xlink:href="tile33_25.png" preserveAspectRatio="none" x="14199.829102" y="-4369.262695" width="1.098633" height="1.098633"/>
<image xlink:href="tile33_24.png" preserveAspectRatio="none" x="14199.829102" y="-4370.361328" width="1.098633" height="1.098633"/>
<image xlink:href="tile33_23.png" preserveAspectRatio="none" x="14199.829102" y="-4371.459961" width="1.098633" height="1.098633"/>
<image xlink:href="tile33_22.png" preserveAspectRatio="none" x="14199.829102" y="-4372.558594" width="1.098633" height="1.098633"/>
<image xlink:href="tile33_21.png" preserveAspectRatio="none" x="14199.829102" y="-4373.657227" width="1.098633" height="1.098633"/>
<image xlink:href="tile33_20.png" preserveAspectRatio="none" x="14199.829102" y="-4374.755859" width="1.098633" height="1.098633"/>
<image xlink:href="tile33_19.png" preserveAspectRatio="none" x="14199.829102" y="-4375.854492" width="1.098633" height="1.098633"/>
<image xlink:href="tile33_15.png" preserveAspectRatio="none" x="14199.829102" y="-4380.249023" width="1.098633" height="1.098633"/>
<image xlink:href="tile33_14.png" preserveAspectRatio="none" x="14199.829102" y="-4381.347656" width="1.098633" height="1.098633"/>
<image xlink:href="tile33_12.png" preserveAspectRatio="none" x="14199.829102" y="-4383.544922" width="1.098633" height="1.098633"/>
<image xlink:href="tile33_11.png" preserveAspectRatio="none" x="14199.829102" y="-4384.643555" width="1.098633" height="1.098633"/>
</g>
</svg>
