<?xml version="1.0" encoding="UTF-8"?>
<svg  xmlns="http://www.w3.org/2000/svg" xmlns:xlink="http://www.w3.org/1999/xlink" xmlns:go="http://purl.org/svgmap/profile" viewBox="13831.719589100001 -3800.0 68.28041089999886 61.48345000000006" go:dataArea="13831.719589100001 -3800.0 68.28041089999886 61.48345000000006" >
<metadata>
 <rdf:RDF xmlns:rdf="http://www.w3.org/1999/02/22-rdf-syntax-ns#" xmlns:crs="http://opengis.org/xmldtds/transformations.dtd" xmlns:svg="http://www.w3.org/svg" >
  <rdf:Description>
   <crs:CoordinateReferenceSystem rdf:resource="http://purl.org/crs/84" svg:transform="matrix(100.0,0.0,0.0,-100.0,0.0,0.0)" />
  </rdf:Description>
 </rdf:RDF>
</metadata>
<globalCoordinateSystem srsName="http://purl.org/crs/84" transform="matrix(100.0,0.0,0.0,-100.0,0.0,0.0)" />
<g >
<image xlink:href="tile0_0.png" preserveAspectRatio="none" x="13829.589844" y="-3801.269531" width="4.394531" height="4.394531"/>
<image xlink:href="tile1_0.png" preserveAspectRatio="none" x="13833.984375" y="-3801.269531" width="4.394531" height="4.394531"/>
<image xlink:href="tile6_14.png" preserveAspectRatio="none" x="13855.957031" y="-3739.746094" width="4.394531" height="4.394531"/>
<image xlink:href="tile6_13.png" preserveAspectRatio="none" x="13855.957031" y="-3744.140625" width="4.394531" height="4.394531"/>
<image xlink:href="tile7_14.png" preserveAspectRatio="none" x="13860.351562" y="-3739.746094" width="4.394531" height="4.394531"/>
<image xlink:href="tile7_13.png" preserveAspectRatio="none" x="13860.351562" y="-3744.140625" width="4.394531" height="4.394531"/>
<image xlink:href="tile7_12.png" preserveAspectRatio="none" x="13860.351562" y="-3748.535156" width="4.394531" height="4.394531"/>
<image xlink:href="tile8_12.png" preserveAspectRatio="none" x="13864.746094" y="-3748.535156" width="4.394531" height="4.394531"/>
<image xlink:href="tile8_11.png" preserveAspectRatio="none" x="13864.746094" y="-3752.929688" width="4.394531" height="4.394531"/>
<image xlink:href="tile9_12.png" preserveAspectRatio="none" x="13869.140625" y="-3748.535156" width="4.394531" height="4.394531"/>
<image xlink:href="tile9_11.png" preserveAspectRatio="none" x="13869.140625" y="-3752.929688" width="4.394531" height="4.394531"/>
<image xlink:href="tile9_10.png" preserveAspectRatio="none" x="13869.140625" y="-3757.324219" width="4.394531" height="4.394531"/>
<image xlink:href="tile9_9.png" preserveAspectRatio="none" x="13869.140625" y="-3761.71875" width="4.394531" height="4.394531"/>
<image xlink:href="tile10_11.png" preserveAspectRatio="none" x="13873.535156" y="-3752.929688" width="4.394531" height="4.394531"/>
<image xlink:href="tile10_10.png" preserveAspectRatio="none" x="13873.535156" y="-3757.324219" width="4.394531" height="4.394531"/>
<image xlink:href="tile10_9.png" preserveAspectRatio="none" x="13873.535156" y="-3761.71875" width="4.394531" height="4.394531"/>
<image xlink:href="tile11_13.png" preserveAspectRatio="none" x="13877.929688" y="-3744.140625" width="4.394531" height="4.394531"/>
<image xlink:href="tile11_12.png" preserveAspectRatio="none" x="13877.929688" y="-3748.535156" width="4.394531" height="4.394531"/>
<image xlink:href="tile11_11.png" preserveAspectRatio="none" x="13877.929688" y="-3752.929688" width="4.394531" height="4.394531"/>
<image xlink:href="tile11_10.png" preserveAspectRatio="none" x="13877.929688" y="-3757.324219" width="4.394531" height="4.394531"/>
<image xlink:href="tile11_9.png" preserveAspectRatio="none" x="13877.929688" y="-3761.71875" width="4.394531" height="4.394531"/>
<image xlink:href="tile11_8.png" preserveAspectRatio="none" x="13877.929688" y="-3766.113281" width="4.394531" height="4.394531"/>
<image xlink:href="tile11_7.png" preserveAspectRatio="none" x="13877.929688" y="-3770.507812" width="4.394531" height="4.394531"/>
<image xlink:href="tile12_13.png" preserveAspectRatio="none" x="13882.324219" y="-3744.140625" width="4.394531" height="4.394531"/>
<image xlink:href="tile12_12.png" preserveAspectRatio="none" x="13882.324219" y="-3748.535156" width="4.394531" height="4.394531"/>
<image xlink:href="tile12_11.png" preserveAspectRatio="none" x="13882.324219" y="-3752.929688" width="4.394531" height="4.394531"/>
<image xlink:href="tile12_10.png" preserveAspectRatio="none" x="13882.324219" y="-3757.324219" width="4.394531" height="4.394531"/>
<image xlink:href="tile12_9.png" preserveAspectRatio="none" x="13882.324219" y="-3761.71875" width="4.394531" height="4.394531"/>
<image xlink:href="tile12_8.png" preserveAspectRatio="none" x="13882.324219" y="-3766.113281" width="4.394531" height="4.394531"/>
<image xlink:href="tile12_7.png" preserveAspectRatio="none" x="13882.324219" y="-3770.507812" width="4.394531" height="4.394531"/>
<image xlink:href="tile12_6.png" preserveAspectRatio="none" x="13882.324219" y="-3774.902344" width="4.394531" height="4.394531"/>
<image xlink:href="tile12_5.png" preserveAspectRatio="none" x="13882.324219" y="-3779.296875" width="4.394531" height="4.394531"/>
<image xlink:href="tile12_4.png" preserveAspectRatio="none" x="13882.324219" y="-3783.691406" width="4.394531" height="4.394531"/>
<image xlink:href="tile13_13.png" preserveAspectRatio="none" x="13886.71875" y="-3744.140625" width="4.394531" height="4.394531"/>
<image xlink:href="tile13_12.png" preserveAspectRatio="none" x="13886.71875" y="-3748.535156" width="4.394531" height="4.394531"/>
<image xlink:href="tile13_11.png" preserveAspectRatio="none" x="13886.71875" y="-3752.929688" width="4.394531" height="4.394531"/>
<image xlink:href="tile13_8.png" preserveAspectRatio="none" x="13886.71875" y="-3766.113281" width="4.394531" height="4.394531"/>
<image xlink:href="tile13_7.png" preserveAspectRatio="none" x="13886.71875" y="-3770.507812" width="4.394531" height="4.394531"/>
<image xlink:href="tile13_6.png" preserveAspectRatio="none" x="13886.71875" y="-3774.902344" width="4.394531" height="4.394531"/>
<image xlink:href="tile13_5.png" preserveAspectRatio="none" x="13886.71875" y="-3779.296875" width="4.394531" height="4.394531"/>
<image xlink:href="tile13_4.png" preserveAspectRatio="none" x="13886.71875" y="-3783.691406" width="4.394531" height="4.394531"/>
<image xlink:href="tile13_3.png" preserveAspectRatio="none" x="13886.71875" y="-3788.085938" width="4.394531" height="4.394531"/>
<image xlink:href="tile14_8.png" preserveAspectRatio="none" x="13891.113281" y="-3766.113281" width="4.394531" height="4.394531"/>
<image xlink:href="tile14_7.png" preserveAspectRatio="none" x="13891.113281" y="-3770.507812" width="4.394531" height="4.394531"/>
<image xlink:href="tile14_6.png" preserveAspectRatio="none" x="13891.113281" y="-3774.902344" width="4.394531" height="4.394531"/>
<image xlink:href="tile14_5.png" preserveAspectRatio="none" x="13891.113281" y="-3779.296875" width="4.394531" height="4.394531"/>
<image xlink:href="tile14_4.png" preserveAspectRatio="none" x="13891.113281" y="-3783.691406" width="4.394531" height="4.394531"/>
<image xlink:href="tile14_3.png" preserveAspectRatio="none" x="13891.113281" y="-3788.085938" width="4.394531" height="4.394531"/>
<image xlink:href="tile15_11.png" preserveAspectRatio="none" x="13895.507812" y="-3752.929688" width="4.394531" height="4.394531"/>
<image xlink:href="tile15_9.png" preserveAspectRatio="none" x="13895.507812" y="-3761.71875" width="4.394531" height="4.394531"/>
<image xlink:href="tile15_8.png" preserveAspectRatio="none" x="13895.507812" y="-3766.113281" width="4.394531" height="4.394531"/>
<image xlink:href="tile15_7.png" preserveAspectRatio="none" x="13895.507812" y="-3770.507812" width="4.394531" height="4.394531"/>
<image xlink:href="tile15_6.png" preserveAspectRatio="none" x="13895.507812" y="-3774.902344" width="4.394531" height="4.394531"/>
<image xlink:href="tile15_5.png" preserveAspectRatio="none" x="13895.507812" y="-3779.296875" width="4.394531" height="4.394531"/>
<image xlink:href="tile15_4.png" preserveAspectRatio="none" x="13895.507812" y="-3783.691406" width="4.394531" height="4.394531"/>
<image xlink:href="tile15_3.png" preserveAspectRatio="none" x="13895.507812" y="-3788.085938" width="4.394531" height="4.394531"/>
<image xlink:href="tile15_2.png" preserveAspectRatio="none" x="13895.507812" y="-3792.480469" width="4.394531" height="4.394531"/>
<image xlink:href="tile16_11.png" preserveAspectRatio="none" x="13899.902344" y="-3752.929688" width="4.394531" height="4.394531"/>
<image xlink:href="tile16_9.png" preserveAspectRatio="none" x="13899.902344" y="-3761.71875" width="4.394531" height="4.394531"/>
<image xlink:href="tile16_8.png" preserveAspectRatio="none" x="13899.902344" y="-3766.113281" width="4.394531" height="4.394531"/>
<image xlink:href="tile16_7.png" preserveAspectRatio="none" x="13899.902344" y="-3770.507812" width="4.394531" height="4.394531"/>
<image xlink:href="tile16_6.png" preserveAspectRatio="none" x="13899.902344" y="-3774.902344" width="4.394531" height="4.394531"/>
<image xlink:href="tile16_5.png" preserveAspectRatio="none" x="13899.902344" y="-3779.296875" width="4.394531" height="4.394531"/>
<image xlink:href="tile16_4.png" preserveAspectRatio="none" x="13899.902344" y="-3783.691406" width="4.394531" height="4.394531"/>
<image xlink:href="tile16_3.png" preserveAspectRatio="none" x="13899.902344" y="-3788.085938" width="4.394531" height="4.394531"/>
<image xlink:href="tile16_2.png" preserveAspectRatio="none" x="13899.902344" y="-3792.480469" width="4.394531" height="4.394531"/>
</g>
</svg>
