<?xml version="1.0" encoding="UTF-8"?>
<svg  xmlns="http://www.w3.org/2000/svg" xmlns:xlink="http://www.w3.org/1999/xlink" xmlns:go="http://purl.org/svgmap/profile" viewBox="14200.0 -4400.0 79.75000000000136 66.66666699999979" go:dataArea="14200.0 -4400.0 79.75000000000136 66.66666699999979" >
<metadata>
 <rdf:RDF xmlns:rdf="http://www.w3.org/1999/02/22-rdf-syntax-ns#" xmlns:crs="http://opengis.org/xmldtds/transformations.dtd" xmlns:svg="http://www.w3.org/svg" >
  <rdf:Description>
   <crs:CoordinateReferenceSystem rdf:resource="http://purl.org/crs/84" svg:transform="matrix(100.0,0.0,0.0,-100.0,0.0,0.0)" />
  </rdf:Description>
 </rdf:RDF>
</metadata>
<globalCoordinateSystem srsName="http://purl.org/crs/84" transform="matrix(100.0,0.0,0.0,-100.0,0.0,0.0)" />
<g >
<image xlink:href="tile0_39.png" preserveAspectRatio="none" x="14199.829102" y="-4357.177734" width="1.098633" height="1.098633"/>
<image xlink:href="tile0_38.png" preserveAspectRatio="none" x="14199.829102" y="-4358.276367" width="1.098633" height="1.098633"/>
<image xlink:href="tile0_30.png" preserveAspectRatio="none" x="14199.829102" y="-4367.06543" width="1.098633" height="1.098633"/>
<image xlink:href="tile0_29.png" preserveAspectRatio="none" x="14199.829102" y="-4368.164062" width="1.098633" height="1.098633"/>
<image xlink:href="tile1_44.png" preserveAspectRatio="none" x="14200.927734" y="-4351.68457" width="1.098633" height="1.098633"/>
<image xlink:href="tile1_39.png" preserveAspectRatio="none" x="14200.927734" y="-4357.177734" width="1.098633" height="1.098633"/>
<image xlink:href="tile1_38.png" preserveAspectRatio="none" x="14200.927734" y="-4358.276367" width="1.098633" height="1.098633"/>
<image xlink:href="tile1_29.png" preserveAspectRatio="none" x="14200.927734" y="-4368.164062" width="1.098633" height="1.098633"/>
<image xlink:href="tile2_44.png" preserveAspectRatio="none" x="14202.026367" y="-4351.68457" width="1.098633" height="1.098633"/>
<image xlink:href="tile2_43.png" preserveAspectRatio="none" x="14202.026367" y="-4352.783203" width="1.098633" height="1.098633"/>
<image xlink:href="tile2_39.png" preserveAspectRatio="none" x="14202.026367" y="-4357.177734" width="1.098633" height="1.098633"/>
<image xlink:href="tile2_38.png" preserveAspectRatio="none" x="14202.026367" y="-4358.276367" width="1.098633" height="1.098633"/>
<image xlink:href="tile2_29.png" preserveAspectRatio="none" x="14202.026367" y="-4368.164062" width="1.098633" height="1.098633"/>
<image xlink:href="tile3_43.png" preserveAspectRatio="none" x="14203.125" y="-4352.783203" width="1.098633" height="1.098633"/>
<image xlink:href="tile3_40.png" preserveAspectRatio="none" x="14203.125" y="-4356.079102" width="1.098633" height="1.098633"/>
<image xlink:href="tile3_39.png" preserveAspectRatio="none" x="14203.125" y="-4357.177734" width="1.098633" height="1.098633"/>
<image xlink:href="tile3_38.png" preserveAspectRatio="none" x="14203.125" y="-4358.276367" width="1.098633" height="1.098633"/>
<image xlink:href="tile3_29.png" preserveAspectRatio="none" x="14203.125" y="-4368.164062" width="1.098633" height="1.098633"/>
<image xlink:href="tile4_43.png" preserveAspectRatio="none" x="14204.223633" y="-4352.783203" width="1.098633" height="1.098633"/>
<image xlink:href="tile4_40.png" preserveAspectRatio="none" x="14204.223633" y="-4356.079102" width="1.098633" height="1.098633"/>
<image xlink:href="tile4_39.png" preserveAspectRatio="none" x="14204.223633" y="-4357.177734" width="1.098633" height="1.098633"/>
<image xlink:href="tile5_43.png" preserveAspectRatio="none" x="14205.322266" y="-4352.783203" width="1.098633" height="1.098633"/>
<image xlink:href="tile5_41.png" preserveAspectRatio="none" x="14205.322266" y="-4354.980469" width="1.098633" height="1.098633"/>
<image xlink:href="tile5_40.png" preserveAspectRatio="none" x="14205.322266" y="-4356.079102" width="1.098633" height="1.098633"/>
<image xlink:href="tile6_41.png" preserveAspectRatio="none" x="14206.420898" y="-4354.980469" width="1.098633" height="1.098633"/>
<image xlink:href="tile6_40.png" preserveAspectRatio="none" x="14206.420898" y="-4356.079102" width="1.098633" height="1.098633"/>
<image xlink:href="tile7_42.png" preserveAspectRatio="none" x="14207.519531" y="-4353.881836" width="1.098633" height="1.098633"/>
<image xlink:href="tile7_41.png" preserveAspectRatio="none" x="14207.519531" y="-4354.980469" width="1.098633" height="1.098633"/>
<image xlink:href="tile7_40.png" preserveAspectRatio="none" x="14207.519531" y="-4356.079102" width="1.098633" height="1.098633"/>
<image xlink:href="tile8_42.png" preserveAspectRatio="none" x="14208.618164" y="-4353.881836" width="1.098633" height="1.098633"/>
<image xlink:href="tile8_41.png" preserveAspectRatio="none" x="14208.618164" y="-4354.980469" width="1.098633" height="1.098633"/>
<image xlink:href="tile9_42.png" preserveAspectRatio="none" x="14209.716797" y="-4353.881836" width="1.098633" height="1.098633"/>
<image xlink:href="tile9_41.png" preserveAspectRatio="none" x="14209.716797" y="-4354.980469" width="1.098633" height="1.098633"/>
<image xlink:href="tile10_42.png" preserveAspectRatio="none" x="14210.81543" y="-4353.881836" width="1.098633" height="1.098633"/>
<image xlink:href="tile10_41.png" preserveAspectRatio="none" x="14210.81543" y="-4354.980469" width="1.098633" height="1.098633"/>
<image xlink:href="tile11_41.png" preserveAspectRatio="none" x="14211.914062" y="-4354.980469" width="1.098633" height="1.098633"/>
<image xlink:href="tile12_41.png" preserveAspectRatio="none" x="14213.012695" y="-4354.980469" width="1.098633" height="1.098633"/>
<image xlink:href="tile13_42.png" preserveAspectRatio="none" x="14214.111328" y="-4353.881836" width="1.098633" height="1.098633"/>
<image xlink:href="tile13_41.png" preserveAspectRatio="none" x="14214.111328" y="-4354.980469" width="1.098633" height="1.098633"/>
<image xlink:href="tile13_40.png" preserveAspectRatio="none" x="14214.111328" y="-4356.079102" width="1.098633" height="1.098633"/>
<image xlink:href="tile14_41.png" preserveAspectRatio="none" x="14215.209961" y="-4354.980469" width="1.098633" height="1.098633"/>
</g>
</svg>
