<?xml version="1.0" encoding="UTF-8"?>
<svg  xmlns="http://www.w3.org/2000/svg" xmlns:xlink="http://www.w3.org/1999/xlink" xmlns:go="http://purl.org/svgmap/profile" viewBox="13249.449999999999 -3331.891667 50.250000000002615 39.724999999999966" go:dataArea="13249.449999999999 -3331.891667 50.250000000002615 39.724999999999966" >
<metadata>
 <rdf:RDF xmlns:rdf="http://www.w3.org/1999/02/22-rdf-syntax-ns#" xmlns:crs="http://opengis.org/xmldtds/transformations.dtd" xmlns:svg="http://www.w3.org/svg" >
  <rdf:Description>
   <crs:CoordinateReferenceSystem rdf:resource="http://purl.org/crs/84" svg:transform="matrix(100.0,0.0,0.0,-100.0,0.0,0.0)" />
  </rdf:Description>
 </rdf:RDF>
</metadata>
<globalCoordinateSystem srsName="http://purl.org/crs/84" transform="matrix(100.0,0.0,0.0,-100.0,0.0,0.0)" />
<g >
<image xlink:href="tile1_10.png" preserveAspectRatio="none" x="13249.511719" y="-3311.279297" width="2.197266" height="2.197266"/>
<image xlink:href="tile1_9.png" preserveAspectRatio="none" x="13249.511719" y="-3313.476562" width="2.197266" height="2.197266"/>
<image xlink:href="tile2_10.png" preserveAspectRatio="none" x="13251.708984" y="-3311.279297" width="2.197266" height="2.197266"/>
<image xlink:href="tile2_9.png" preserveAspectRatio="none" x="13251.708984" y="-3313.476562" width="2.197266" height="2.197266"/>
<image xlink:href="tile2_8.png" preserveAspectRatio="none" x="13251.708984" y="-3315.673828" width="2.197266" height="2.197266"/>
<image xlink:href="tile3_17.png" preserveAspectRatio="none" x="13253.90625" y="-3295.898438" width="2.197266" height="2.197266"/>
<image xlink:href="tile3_16.png" preserveAspectRatio="none" x="13253.90625" y="-3298.095703" width="2.197266" height="2.197266"/>
<image xlink:href="tile3_9.png" preserveAspectRatio="none" x="13253.90625" y="-3313.476562" width="2.197266" height="2.197266"/>
<image xlink:href="tile3_5.png" preserveAspectRatio="none" x="13253.90625" y="-3322.265625" width="2.197266" height="2.197266"/>
<image xlink:href="tile3_4.png" preserveAspectRatio="none" x="13253.90625" y="-3324.462891" width="2.197266" height="2.197266"/>
<image xlink:href="tile4_17.png" preserveAspectRatio="none" x="13256.103516" y="-3295.898438" width="2.197266" height="2.197266"/>
<image xlink:href="tile4_16.png" preserveAspectRatio="none" x="13256.103516" y="-3298.095703" width="2.197266" height="2.197266"/>
<image xlink:href="tile4_9.png" preserveAspectRatio="none" x="13256.103516" y="-3313.476562" width="2.197266" height="2.197266"/>
<image xlink:href="tile4_5.png" preserveAspectRatio="none" x="13256.103516" y="-3322.265625" width="2.197266" height="2.197266"/>
<image xlink:href="tile4_4.png" preserveAspectRatio="none" x="13256.103516" y="-3324.462891" width="2.197266" height="2.197266"/>
<image xlink:href="tile5_17.png" preserveAspectRatio="none" x="13258.300781" y="-3295.898438" width="2.197266" height="2.197266"/>
<image xlink:href="tile5_16.png" preserveAspectRatio="none" x="13258.300781" y="-3298.095703" width="2.197266" height="2.197266"/>
<image xlink:href="tile5_4.png" preserveAspectRatio="none" x="13258.300781" y="-3324.462891" width="2.197266" height="2.197266"/>
<image xlink:href="tile6_16.png" preserveAspectRatio="none" x="13260.498047" y="-3298.095703" width="2.197266" height="2.197266"/>
<image xlink:href="tile8_3.png" preserveAspectRatio="none" x="13264.892578" y="-3326.660156" width="2.197266" height="2.197266"/>
<image xlink:href="tile9_3.png" preserveAspectRatio="none" x="13267.089844" y="-3326.660156" width="2.197266" height="2.197266"/>
<image xlink:href="tile10_18.png" preserveAspectRatio="none" x="13269.287109" y="-3293.701172" width="2.197266" height="2.197266"/>
<image xlink:href="tile10_4.png" preserveAspectRatio="none" x="13269.287109" y="-3324.462891" width="2.197266" height="2.197266"/>
<image xlink:href="tile10_3.png" preserveAspectRatio="none" x="13269.287109" y="-3326.660156" width="2.197266" height="2.197266"/>
<image xlink:href="tile11_18.png" preserveAspectRatio="none" x="13271.484375" y="-3293.701172" width="2.197266" height="2.197266"/>
<image xlink:href="tile11_17.png" preserveAspectRatio="none" x="13271.484375" y="-3295.898438" width="2.197266" height="2.197266"/>
<image xlink:href="tile11_14.png" preserveAspectRatio="none" x="13271.484375" y="-3302.490234" width="2.197266" height="2.197266"/>
<image xlink:href="tile11_5.png" preserveAspectRatio="none" x="13271.484375" y="-3322.265625" width="2.197266" height="2.197266"/>
<image xlink:href="tile11_4.png" preserveAspectRatio="none" x="13271.484375" y="-3324.462891" width="2.197266" height="2.197266"/>
<image xlink:href="tile11_3.png" preserveAspectRatio="none" x="13271.484375" y="-3326.660156" width="2.197266" height="2.197266"/>
<image xlink:href="tile12_18.png" preserveAspectRatio="none" x="13273.681641" y="-3293.701172" width="2.197266" height="2.197266"/>
<image xlink:href="tile12_17.png" preserveAspectRatio="none" x="13273.681641" y="-3295.898438" width="2.197266" height="2.197266"/>
<image xlink:href="tile12_16.png" preserveAspectRatio="none" x="13273.681641" y="-3298.095703" width="2.197266" height="2.197266"/>
<image xlink:href="tile12_15.png" preserveAspectRatio="none" x="13273.681641" y="-3300.292969" width="2.197266" height="2.197266"/>
<image xlink:href="tile12_14.png" preserveAspectRatio="none" x="13273.681641" y="-3302.490234" width="2.197266" height="2.197266"/>
<image xlink:href="tile12_5.png" preserveAspectRatio="none" x="13273.681641" y="-3322.265625" width="2.197266" height="2.197266"/>
<image xlink:href="tile12_4.png" preserveAspectRatio="none" x="13273.681641" y="-3324.462891" width="2.197266" height="2.197266"/>
<image xlink:href="tile13_16.png" preserveAspectRatio="none" x="13275.878906" y="-3298.095703" width="2.197266" height="2.197266"/>
<image xlink:href="tile13_15.png" preserveAspectRatio="none" x="13275.878906" y="-3300.292969" width="2.197266" height="2.197266"/>
<image xlink:href="tile13_14.png" preserveAspectRatio="none" x="13275.878906" y="-3302.490234" width="2.197266" height="2.197266"/>
<image xlink:href="tile15_16.png" preserveAspectRatio="none" x="13280.273438" y="-3298.095703" width="2.197266" height="2.197266"/>
</g>
</svg>
