<?xml version="1.0" encoding="UTF-8"?>
<svg  xmlns="http://www.w3.org/2000/svg" xmlns:xlink="http://www.w3.org/1999/xlink" xmlns:go="http://purl.org/svgmap/profile" viewBox="13007.325 -3395.2125 92.67499999999984 61.87916690000037" go:dataArea="13007.325 -3395.2125 92.67499999999984 61.87916690000037" >
<metadata>
 <rdf:RDF xmlns:rdf="http://www.w3.org/1999/02/22-rdf-syntax-ns#" xmlns:crs="http://opengis.org/xmldtds/transformations.dtd" xmlns:svg="http://www.w3.org/svg" >
  <rdf:Description>
   <crs:CoordinateReferenceSystem rdf:resource="http://purl.org/crs/84" svg:transform="matrix(100.0,0.0,0.0,-100.0,0.0,0.0)" />
  </rdf:Description>
 </rdf:RDF>
</metadata>
<globalCoordinateSystem srsName="http://purl.org/crs/84" transform="matrix(100.0,0.0,0.0,-100.0,0.0,0.0)" />
<g >
<image xlink:href="tile16_16.png" preserveAspectRatio="none" x="13040.771484" y="-3361.816406" width="2.197266" height="2.197266"/>
<image xlink:href="tile17_16.png" preserveAspectRatio="none" x="13042.96875" y="-3361.816406" width="2.197266" height="2.197266"/>
<image xlink:href="tile17_15.png" preserveAspectRatio="none" x="13042.96875" y="-3364.013672" width="2.197266" height="2.197266"/>
<image xlink:href="tile17_13.png" preserveAspectRatio="none" x="13042.96875" y="-3368.408203" width="2.197266" height="2.197266"/>
<image xlink:href="tile19_23.png" preserveAspectRatio="none" x="13047.363281" y="-3346.435547" width="2.197266" height="2.197266"/>
<image xlink:href="tile20_28.png" preserveAspectRatio="none" x="13049.560547" y="-3335.449219" width="2.197266" height="2.197266"/>
<image xlink:href="tile20_23.png" preserveAspectRatio="none" x="13049.560547" y="-3346.435547" width="2.197266" height="2.197266"/>
<image xlink:href="tile20_22.png" preserveAspectRatio="none" x="13049.560547" y="-3348.632812" width="2.197266" height="2.197266"/>
<image xlink:href="tile20_19.png" preserveAspectRatio="none" x="13049.560547" y="-3355.224609" width="2.197266" height="2.197266"/>
<image xlink:href="tile20_18.png" preserveAspectRatio="none" x="13049.560547" y="-3357.421875" width="2.197266" height="2.197266"/>
<image xlink:href="tile21_28.png" preserveAspectRatio="none" x="13051.757812" y="-3335.449219" width="2.197266" height="2.197266"/>
<image xlink:href="tile21_22.png" preserveAspectRatio="none" x="13051.757812" y="-3348.632812" width="2.197266" height="2.197266"/>
<image xlink:href="tile21_21.png" preserveAspectRatio="none" x="13051.757812" y="-3350.830078" width="2.197266" height="2.197266"/>
<image xlink:href="tile21_20.png" preserveAspectRatio="none" x="13051.757812" y="-3353.027344" width="2.197266" height="2.197266"/>
<image xlink:href="tile22_22.png" preserveAspectRatio="none" x="13053.955078" y="-3348.632812" width="2.197266" height="2.197266"/>
<image xlink:href="tile22_19.png" preserveAspectRatio="none" x="13053.955078" y="-3355.224609" width="2.197266" height="2.197266"/>
<image xlink:href="tile23_24.png" preserveAspectRatio="none" x="13056.152344" y="-3344.238281" width="2.197266" height="2.197266"/>
<image xlink:href="tile23_23.png" preserveAspectRatio="none" x="13056.152344" y="-3346.435547" width="2.197266" height="2.197266"/>
<image xlink:href="tile23_22.png" preserveAspectRatio="none" x="13056.152344" y="-3348.632812" width="2.197266" height="2.197266"/>
<image xlink:href="tile23_14.png" preserveAspectRatio="none" x="13056.152344" y="-3366.210938" width="2.197266" height="2.197266"/>
<image xlink:href="tile24_28.png" preserveAspectRatio="none" x="13058.349609" y="-3335.449219" width="2.197266" height="2.197266"/>
<image xlink:href="tile24_23.png" preserveAspectRatio="none" x="13058.349609" y="-3346.435547" width="2.197266" height="2.197266"/>
<image xlink:href="tile24_22.png" preserveAspectRatio="none" x="13058.349609" y="-3348.632812" width="2.197266" height="2.197266"/>
<image xlink:href="tile24_14.png" preserveAspectRatio="none" x="13058.349609" y="-3366.210938" width="2.197266" height="2.197266"/>
<image xlink:href="tile24_13.png" preserveAspectRatio="none" x="13058.349609" y="-3368.408203" width="2.197266" height="2.197266"/>
<image xlink:href="tile25_24.png" preserveAspectRatio="none" x="13060.546875" y="-3344.238281" width="2.197266" height="2.197266"/>
<image xlink:href="tile25_23.png" preserveAspectRatio="none" x="13060.546875" y="-3346.435547" width="2.197266" height="2.197266"/>
<image xlink:href="tile25_19.png" preserveAspectRatio="none" x="13060.546875" y="-3355.224609" width="2.197266" height="2.197266"/>
<image xlink:href="tile25_18.png" preserveAspectRatio="none" x="13060.546875" y="-3357.421875" width="2.197266" height="2.197266"/>
<image xlink:href="tile25_17.png" preserveAspectRatio="none" x="13060.546875" y="-3359.619141" width="2.197266" height="2.197266"/>
<image xlink:href="tile25_15.png" preserveAspectRatio="none" x="13060.546875" y="-3364.013672" width="2.197266" height="2.197266"/>
<image xlink:href="tile25_14.png" preserveAspectRatio="none" x="13060.546875" y="-3366.210938" width="2.197266" height="2.197266"/>
<image xlink:href="tile25_13.png" preserveAspectRatio="none" x="13060.546875" y="-3368.408203" width="2.197266" height="2.197266"/>
<image xlink:href="tile26_28.png" preserveAspectRatio="none" x="13062.744141" y="-3335.449219" width="2.197266" height="2.197266"/>
<image xlink:href="tile26_27.png" preserveAspectRatio="none" x="13062.744141" y="-3337.646484" width="2.197266" height="2.197266"/>
<image xlink:href="tile26_26.png" preserveAspectRatio="none" x="13062.744141" y="-3339.84375" width="2.197266" height="2.197266"/>
<image xlink:href="tile26_18.png" preserveAspectRatio="none" x="13062.744141" y="-3357.421875" width="2.197266" height="2.197266"/>
<image xlink:href="tile26_17.png" preserveAspectRatio="none" x="13062.744141" y="-3359.619141" width="2.197266" height="2.197266"/>
<image xlink:href="tile26_16.png" preserveAspectRatio="none" x="13062.744141" y="-3361.816406" width="2.197266" height="2.197266"/>
<image xlink:href="tile27_28.png" preserveAspectRatio="none" x="13064.941406" y="-3335.449219" width="2.197266" height="2.197266"/>
<image xlink:href="tile27_27.png" preserveAspectRatio="none" x="13064.941406" y="-3337.646484" width="2.197266" height="2.197266"/>
<image xlink:href="tile27_26.png" preserveAspectRatio="none" x="13064.941406" y="-3339.84375" width="2.197266" height="2.197266"/>
<image xlink:href="tile27_18.png" preserveAspectRatio="none" x="13064.941406" y="-3357.421875" width="2.197266" height="2.197266"/>
<image xlink:href="tile27_17.png" preserveAspectRatio="none" x="13064.941406" y="-3359.619141" width="2.197266" height="2.197266"/>
<image xlink:href="tile27_16.png" preserveAspectRatio="none" x="13064.941406" y="-3361.816406" width="2.197266" height="2.197266"/>
<image xlink:href="tile27_15.png" preserveAspectRatio="none" x="13064.941406" y="-3364.013672" width="2.197266" height="2.197266"/>
<image xlink:href="tile28_28.png" preserveAspectRatio="none" x="13067.138672" y="-3335.449219" width="2.197266" height="2.197266"/>
<image xlink:href="tile28_27.png" preserveAspectRatio="none" x="13067.138672" y="-3337.646484" width="2.197266" height="2.197266"/>
<image xlink:href="tile28_17.png" preserveAspectRatio="none" x="13067.138672" y="-3359.619141" width="2.197266" height="2.197266"/>
<image xlink:href="tile28_16.png" preserveAspectRatio="none" x="13067.138672" y="-3361.816406" width="2.197266" height="2.197266"/>
<image xlink:href="tile28_15.png" preserveAspectRatio="none" x="13067.138672" y="-3364.013672" width="2.197266" height="2.197266"/>
<image xlink:href="tile28_14.png" preserveAspectRatio="none" x="13067.138672" y="-3366.210938" width="2.197266" height="2.197266"/>
<image xlink:href="tile28_13.png" preserveAspectRatio="none" x="13067.138672" y="-3368.408203" width="2.197266" height="2.197266"/>
<image xlink:href="tile29_27.png" preserveAspectRatio="none" x="13069.335938" y="-3337.646484" width="2.197266" height="2.197266"/>
<image xlink:href="tile29_20.png" preserveAspectRatio="none" x="13069.335938" y="-3353.027344" width="2.197266" height="2.197266"/>
<image xlink:href="tile29_19.png" preserveAspectRatio="none" x="13069.335938" y="-3355.224609" width="2.197266" height="2.197266"/>
<image xlink:href="tile29_18.png" preserveAspectRatio="none" x="13069.335938" y="-3357.421875" width="2.197266" height="2.197266"/>
<image xlink:href="tile29_17.png" preserveAspectRatio="none" x="13069.335938" y="-3359.619141" width="2.197266" height="2.197266"/>
<image xlink:href="tile29_15.png" preserveAspectRatio="none" x="13069.335938" y="-3364.013672" width="2.197266" height="2.197266"/>
<image xlink:href="tile29_14.png" preserveAspectRatio="none" x="13069.335938" y="-3366.210938" width="2.197266" height="2.197266"/>
<image xlink:href="tile29_13.png" preserveAspectRatio="none" x="13069.335938" y="-3368.408203" width="2.197266" height="2.197266"/>
<image xlink:href="tile30_28.png" preserveAspectRatio="none" x="13071.533203" y="-3335.449219" width="2.197266" height="2.197266"/>
<image xlink:href="tile30_27.png" preserveAspectRatio="none" x="13071.533203" y="-3337.646484" width="2.197266" height="2.197266"/>
<image xlink:href="tile30_19.png" preserveAspectRatio="none" x="13071.533203" y="-3355.224609" width="2.197266" height="2.197266"/>
<image xlink:href="tile30_18.png" preserveAspectRatio="none" x="13071.533203" y="-3357.421875" width="2.197266" height="2.197266"/>
<image xlink:href="tile30_17.png" preserveAspectRatio="none" x="13071.533203" y="-3359.619141" width="2.197266" height="2.197266"/>
<image xlink:href="tile30_16.png" preserveAspectRatio="none" x="13071.533203" y="-3361.816406" width="2.197266" height="2.197266"/>
<image xlink:href="tile30_13.png" preserveAspectRatio="none" x="13071.533203" y="-3368.408203" width="2.197266" height="2.197266"/>
<image xlink:href="tile31_28.png" preserveAspectRatio="none" x="13073.730469" y="-3335.449219" width="2.197266" height="2.197266"/>
<image xlink:href="tile31_27.png" preserveAspectRatio="none" x="13073.730469" y="-3337.646484" width="2.197266" height="2.197266"/>
<image xlink:href="tile31_24.png" preserveAspectRatio="none" x="13073.730469" y="-3344.238281" width="2.197266" height="2.197266"/>
<image xlink:href="tile31_18.png" preserveAspectRatio="none" x="13073.730469" y="-3357.421875" width="2.197266" height="2.197266"/>
<image xlink:href="tile31_17.png" preserveAspectRatio="none" x="13073.730469" y="-3359.619141" width="2.197266" height="2.197266"/>
</g>
</svg>
