<?xml version="1.0" encoding="UTF-8"?>
<svg  xmlns="http://www.w3.org/2000/svg" xmlns:xlink="http://www.w3.org/1999/xlink" xmlns:go="http://purl.org/svgmap/profile" viewBox="13007.325 -3395.2125 92.67499999999984 61.87916690000037" go:dataArea="13007.325 -3395.2125 92.67499999999984 61.87916690000037" >
<metadata>
 <rdf:RDF xmlns:rdf="http://www.w3.org/1999/02/22-rdf-syntax-ns#" xmlns:crs="http://opengis.org/xmldtds/transformations.dtd" xmlns:svg="http://www.w3.org/svg" >
  <rdf:Description>
   <crs:CoordinateReferenceSystem rdf:resource="http://purl.org/crs/84" svg:transform="matrix(100.0,0.0,0.0,-100.0,0.0,0.0)" />
  </rdf:Description>
 </rdf:RDF>
</metadata>
<globalCoordinateSystem srsName="http://purl.org/crs/84" transform="matrix(100.0,0.0,0.0,-100.0,0.0,0.0)" />
<g >
<image xlink:href="tile32_12.png" preserveAspectRatio="none" x="13075.927734" y="-3370.605469" width="2.197266" height="2.197266"/>
<image xlink:href="tile32_11.png" preserveAspectRatio="none" x="13075.927734" y="-3372.802734" width="2.197266" height="2.197266"/>
<image xlink:href="tile32_10.png" preserveAspectRatio="none" x="13075.927734" y="-3375" width="2.197266" height="2.197266"/>
<image xlink:href="tile32_9.png" preserveAspectRatio="none" x="13075.927734" y="-3377.197266" width="2.197266" height="2.197266"/>
<image xlink:href="tile32_7.png" preserveAspectRatio="none" x="13075.927734" y="-3381.591797" width="2.197266" height="2.197266"/>
<image xlink:href="tile32_6.png" preserveAspectRatio="none" x="13075.927734" y="-3383.789062" width="2.197266" height="2.197266"/>
<image xlink:href="tile32_4.png" preserveAspectRatio="none" x="13075.927734" y="-3388.183594" width="2.197266" height="2.197266"/>
<image xlink:href="tile33_12.png" preserveAspectRatio="none" x="13078.125" y="-3370.605469" width="2.197266" height="2.197266"/>
<image xlink:href="tile33_11.png" preserveAspectRatio="none" x="13078.125" y="-3372.802734" width="2.197266" height="2.197266"/>
<image xlink:href="tile33_9.png" preserveAspectRatio="none" x="13078.125" y="-3377.197266" width="2.197266" height="2.197266"/>
<image xlink:href="tile33_7.png" preserveAspectRatio="none" x="13078.125" y="-3381.591797" width="2.197266" height="2.197266"/>
<image xlink:href="tile34_12.png" preserveAspectRatio="none" x="13080.322266" y="-3370.605469" width="2.197266" height="2.197266"/>
<image xlink:href="tile34_11.png" preserveAspectRatio="none" x="13080.322266" y="-3372.802734" width="2.197266" height="2.197266"/>
<image xlink:href="tile36_12.png" preserveAspectRatio="none" x="13084.716797" y="-3370.605469" width="2.197266" height="2.197266"/>
<image xlink:href="tile36_11.png" preserveAspectRatio="none" x="13084.716797" y="-3372.802734" width="2.197266" height="2.197266"/>
<image xlink:href="tile37_4.png" preserveAspectRatio="none" x="13086.914062" y="-3388.183594" width="2.197266" height="2.197266"/>
<image xlink:href="tile37_3.png" preserveAspectRatio="none" x="13086.914062" y="-3390.380859" width="2.197266" height="2.197266"/>
<image xlink:href="tile39_7.png" preserveAspectRatio="none" x="13091.308594" y="-3381.591797" width="2.197266" height="2.197266"/>
<image xlink:href="tile39_6.png" preserveAspectRatio="none" x="13091.308594" y="-3383.789062" width="2.197266" height="2.197266"/>
<image xlink:href="tile39_3.png" preserveAspectRatio="none" x="13091.308594" y="-3390.380859" width="2.197266" height="2.197266"/>
<image xlink:href="tile39_2.png" preserveAspectRatio="none" x="13091.308594" y="-3392.578125" width="2.197266" height="2.197266"/>
<image xlink:href="tile40_7.png" preserveAspectRatio="none" x="13093.505859" y="-3381.591797" width="2.197266" height="2.197266"/>
<image xlink:href="tile40_6.png" preserveAspectRatio="none" x="13093.505859" y="-3383.789062" width="2.197266" height="2.197266"/>
<image xlink:href="tile40_4.png" preserveAspectRatio="none" x="13093.505859" y="-3388.183594" width="2.197266" height="2.197266"/>
<image xlink:href="tile40_2.png" preserveAspectRatio="none" x="13093.505859" y="-3392.578125" width="2.197266" height="2.197266"/>
<image xlink:href="tile41_7.png" preserveAspectRatio="none" x="13095.703125" y="-3381.591797" width="2.197266" height="2.197266"/>
<image xlink:href="tile41_6.png" preserveAspectRatio="none" x="13095.703125" y="-3383.789062" width="2.197266" height="2.197266"/>
<image xlink:href="tile41_4.png" preserveAspectRatio="none" x="13095.703125" y="-3388.183594" width="2.197266" height="2.197266"/>
<image xlink:href="tile41_2.png" preserveAspectRatio="none" x="13095.703125" y="-3392.578125" width="2.197266" height="2.197266"/>
<image xlink:href="tile41_1.png" preserveAspectRatio="none" x="13095.703125" y="-3394.775391" width="2.197266" height="2.197266"/>
<image xlink:href="tile41_0.png" preserveAspectRatio="none" x="13095.703125" y="-3396.972656" width="2.197266" height="2.197266"/>
<image xlink:href="tile42_4.png" preserveAspectRatio="none" x="13097.900391" y="-3388.183594" width="2.197266" height="2.197266"/>
<image xlink:href="tile42_2.png" preserveAspectRatio="none" x="13097.900391" y="-3392.578125" width="2.197266" height="2.197266"/>
<image xlink:href="tile42_1.png" preserveAspectRatio="none" x="13097.900391" y="-3394.775391" width="2.197266" height="2.197266"/>
</g>
</svg>
