<?xml version="1.0" encoding="UTF-8"?>
<svg  xmlns="http://www.w3.org/2000/svg" xmlns:xlink="http://www.w3.org/1999/xlink" xmlns:go="http://purl.org/svgmap/profile" viewBox="14000.0 -3733.333333 99.84643919999883 66.66666600000042" go:dataArea="14000.0 -3733.333333 99.84643919999883 66.66666600000042" >
<metadata>
 <rdf:RDF xmlns:rdf="http://www.w3.org/1999/02/22-rdf-syntax-ns#" xmlns:crs="http://opengis.org/xmldtds/transformations.dtd" xmlns:svg="http://www.w3.org/svg" >
  <rdf:Description>
   <crs:CoordinateReferenceSystem rdf:resource="http://purl.org/crs/84" svg:transform="matrix(100.0,0.0,0.0,-100.0,0.0,0.0)" />
  </rdf:Description>
 </rdf:RDF>
</metadata>
<globalCoordinateSystem srsName="http://purl.org/crs/84" transform="matrix(100.0,0.0,0.0,-100.0,0.0,0.0)" />
<g >
<image xlink:href="tile0_15.png" preserveAspectRatio="none" x="13996.582031" y="-3669.433594" width="4.394531" height="4.394531"/>
<image xlink:href="tile0_14.png" preserveAspectRatio="none" x="13996.582031" y="-3673.828125" width="4.394531" height="4.394531"/>
<image xlink:href="tile0_13.png" preserveAspectRatio="none" x="13996.582031" y="-3678.222656" width="4.394531" height="4.394531"/>
<image xlink:href="tile0_12.png" preserveAspectRatio="none" x="13996.582031" y="-3682.617188" width="4.394531" height="4.394531"/>
<image xlink:href="tile0_10.png" preserveAspectRatio="none" x="13996.582031" y="-3691.40625" width="4.394531" height="4.394531"/>
<image xlink:href="tile0_9.png" preserveAspectRatio="none" x="13996.582031" y="-3695.800781" width="4.394531" height="4.394531"/>
<image xlink:href="tile1_15.png" preserveAspectRatio="none" x="14000.976562" y="-3669.433594" width="4.394531" height="4.394531"/>
<image xlink:href="tile1_14.png" preserveAspectRatio="none" x="14000.976562" y="-3673.828125" width="4.394531" height="4.394531"/>
<image xlink:href="tile1_12.png" preserveAspectRatio="none" x="14000.976562" y="-3682.617188" width="4.394531" height="4.394531"/>
<image xlink:href="tile1_11.png" preserveAspectRatio="none" x="14000.976562" y="-3687.011719" width="4.394531" height="4.394531"/>
<image xlink:href="tile1_10.png" preserveAspectRatio="none" x="14000.976562" y="-3691.40625" width="4.394531" height="4.394531"/>
<image xlink:href="tile1_9.png" preserveAspectRatio="none" x="14000.976562" y="-3695.800781" width="4.394531" height="4.394531"/>
<image xlink:href="tile1_8.png" preserveAspectRatio="none" x="14000.976562" y="-3700.195312" width="4.394531" height="4.394531"/>
<image xlink:href="tile2_15.png" preserveAspectRatio="none" x="14005.371094" y="-3669.433594" width="4.394531" height="4.394531"/>
<image xlink:href="tile2_14.png" preserveAspectRatio="none" x="14005.371094" y="-3673.828125" width="4.394531" height="4.394531"/>
<image xlink:href="tile2_12.png" preserveAspectRatio="none" x="14005.371094" y="-3682.617188" width="4.394531" height="4.394531"/>
<image xlink:href="tile2_11.png" preserveAspectRatio="none" x="14005.371094" y="-3687.011719" width="4.394531" height="4.394531"/>
<image xlink:href="tile2_9.png" preserveAspectRatio="none" x="14005.371094" y="-3695.800781" width="4.394531" height="4.394531"/>
<image xlink:href="tile2_8.png" preserveAspectRatio="none" x="14005.371094" y="-3700.195312" width="4.394531" height="4.394531"/>
<image xlink:href="tile3_15.png" preserveAspectRatio="none" x="14009.765625" y="-3669.433594" width="4.394531" height="4.394531"/>
<image xlink:href="tile3_14.png" preserveAspectRatio="none" x="14009.765625" y="-3673.828125" width="4.394531" height="4.394531"/>
<image xlink:href="tile3_13.png" preserveAspectRatio="none" x="14009.765625" y="-3678.222656" width="4.394531" height="4.394531"/>
<image xlink:href="tile3_12.png" preserveAspectRatio="none" x="14009.765625" y="-3682.617188" width="4.394531" height="4.394531"/>
<image xlink:href="tile3_11.png" preserveAspectRatio="none" x="14009.765625" y="-3687.011719" width="4.394531" height="4.394531"/>
<image xlink:href="tile3_10.png" preserveAspectRatio="none" x="14009.765625" y="-3691.40625" width="4.394531" height="4.394531"/>
<image xlink:href="tile3_9.png" preserveAspectRatio="none" x="14009.765625" y="-3695.800781" width="4.394531" height="4.394531"/>
<image xlink:href="tile3_8.png" preserveAspectRatio="none" x="14009.765625" y="-3700.195312" width="4.394531" height="4.394531"/>
<image xlink:href="tile3_7.png" preserveAspectRatio="none" x="14009.765625" y="-3704.589844" width="4.394531" height="4.394531"/>
<image xlink:href="tile4_15.png" preserveAspectRatio="none" x="14014.160156" y="-3669.433594" width="4.394531" height="4.394531"/>
<image xlink:href="tile4_14.png" preserveAspectRatio="none" x="14014.160156" y="-3673.828125" width="4.394531" height="4.394531"/>
<image xlink:href="tile4_13.png" preserveAspectRatio="none" x="14014.160156" y="-3678.222656" width="4.394531" height="4.394531"/>
<image xlink:href="tile4_9.png" preserveAspectRatio="none" x="14014.160156" y="-3695.800781" width="4.394531" height="4.394531"/>
<image xlink:href="tile6_13.png" preserveAspectRatio="none" x="14022.949219" y="-3678.222656" width="4.394531" height="4.394531"/>
<image xlink:href="tile6_12.png" preserveAspectRatio="none" x="14022.949219" y="-3682.617188" width="4.394531" height="4.394531"/>
<image xlink:href="tile7_13.png" preserveAspectRatio="none" x="14027.34375" y="-3678.222656" width="4.394531" height="4.394531"/>
<image xlink:href="tile7_12.png" preserveAspectRatio="none" x="14027.34375" y="-3682.617188" width="4.394531" height="4.394531"/>
<image xlink:href="tile8_13.png" preserveAspectRatio="none" x="14031.738281" y="-3678.222656" width="4.394531" height="4.394531"/>
<image xlink:href="tile8_12.png" preserveAspectRatio="none" x="14031.738281" y="-3682.617188" width="4.394531" height="4.394531"/>
<image xlink:href="tile9_15.png" preserveAspectRatio="none" x="14036.132812" y="-3669.433594" width="4.394531" height="4.394531"/>
<image xlink:href="tile9_14.png" preserveAspectRatio="none" x="14036.132812" y="-3673.828125" width="4.394531" height="4.394531"/>
<image xlink:href="tile9_13.png" preserveAspectRatio="none" x="14036.132812" y="-3678.222656" width="4.394531" height="4.394531"/>
<image xlink:href="tile9_12.png" preserveAspectRatio="none" x="14036.132812" y="-3682.617188" width="4.394531" height="4.394531"/>
<image xlink:href="tile9_11.png" preserveAspectRatio="none" x="14036.132812" y="-3687.011719" width="4.394531" height="4.394531"/>
<image xlink:href="tile9_2.png" preserveAspectRatio="none" x="14036.132812" y="-3726.5625" width="4.394531" height="4.394531"/>
<image xlink:href="tile9_1.png" preserveAspectRatio="none" x="14036.132812" y="-3730.957031" width="4.394531" height="4.394531"/>
<image xlink:href="tile9_0.png" preserveAspectRatio="none" x="14036.132812" y="-3735.351562" width="4.394531" height="4.394531"/>
<image xlink:href="tile10_2.png" preserveAspectRatio="none" x="14040.527344" y="-3726.5625" width="4.394531" height="4.394531"/>
<image xlink:href="tile10_1.png" preserveAspectRatio="none" x="14040.527344" y="-3730.957031" width="4.394531" height="4.394531"/>
<image xlink:href="tile15_15.png" preserveAspectRatio="none" x="14062.5" y="-3669.433594" width="4.394531" height="4.394531"/>
</g>
</svg>
