<?xml version="1.0" encoding="UTF-8"?>
<svg  xmlns="http://www.w3.org/2000/svg" xmlns:xlink="http://www.w3.org/1999/xlink" xmlns:go="http://purl.org/svgmap/profile" viewBox="14000.0 -3600.0 85.11330069999872 60.0416586999998" go:dataArea="14000.0 -3600.0 85.11330069999872 60.0416586999998" >
<metadata>
 <rdf:RDF xmlns:rdf="http://www.w3.org/1999/02/22-rdf-syntax-ns#" xmlns:crs="http://opengis.org/xmldtds/transformations.dtd" xmlns:svg="http://www.w3.org/svg" >
  <rdf:Description>
   <crs:CoordinateReferenceSystem rdf:resource="http://purl.org/crs/84" svg:transform="matrix(100.0,0.0,0.0,-100.0,0.0,0.0)" />
  </rdf:Description>
 </rdf:RDF>
</metadata>
<globalCoordinateSystem srsName="http://purl.org/crs/84" transform="matrix(100.0,0.0,0.0,-100.0,0.0,0.0)" />
<g >
<image xlink:href="tile0_54.png" preserveAspectRatio="none" x="13999.87793" y="-3540.893555" width="1.098633" height="1.098633"/>
<image xlink:href="tile0_53.png" preserveAspectRatio="none" x="13999.87793" y="-3541.992188" width="1.098633" height="1.098633"/>
<image xlink:href="tile1_54.png" preserveAspectRatio="none" x="14000.976562" y="-3540.893555" width="1.098633" height="1.098633"/>
<image xlink:href="tile1_53.png" preserveAspectRatio="none" x="14000.976562" y="-3541.992188" width="1.098633" height="1.098633"/>
<image xlink:href="tile2_54.png" preserveAspectRatio="none" x="14002.075195" y="-3540.893555" width="1.098633" height="1.098633"/>
<image xlink:href="tile4_47.png" preserveAspectRatio="none" x="14004.272461" y="-3548.583984" width="1.098633" height="1.098633"/>
<image xlink:href="tile4_46.png" preserveAspectRatio="none" x="14004.272461" y="-3549.682617" width="1.098633" height="1.098633"/>
<image xlink:href="tile4_45.png" preserveAspectRatio="none" x="14004.272461" y="-3550.78125" width="1.098633" height="1.098633"/>
<image xlink:href="tile5_47.png" preserveAspectRatio="none" x="14005.371094" y="-3548.583984" width="1.098633" height="1.098633"/>
<image xlink:href="tile5_46.png" preserveAspectRatio="none" x="14005.371094" y="-3549.682617" width="1.098633" height="1.098633"/>
<image xlink:href="tile5_45.png" preserveAspectRatio="none" x="14005.371094" y="-3550.78125" width="1.098633" height="1.098633"/>
<image xlink:href="tile5_44.png" preserveAspectRatio="none" x="14005.371094" y="-3551.879883" width="1.098633" height="1.098633"/>
<image xlink:href="tile5_43.png" preserveAspectRatio="none" x="14005.371094" y="-3552.978516" width="1.098633" height="1.098633"/>
<image xlink:href="tile6_46.png" preserveAspectRatio="none" x="14006.469727" y="-3549.682617" width="1.098633" height="1.098633"/>
<image xlink:href="tile6_45.png" preserveAspectRatio="none" x="14006.469727" y="-3550.78125" width="1.098633" height="1.098633"/>
<image xlink:href="tile6_44.png" preserveAspectRatio="none" x="14006.469727" y="-3551.879883" width="1.098633" height="1.098633"/>
<image xlink:href="tile6_43.png" preserveAspectRatio="none" x="14006.469727" y="-3552.978516" width="1.098633" height="1.098633"/>
<image xlink:href="tile6_42.png" preserveAspectRatio="none" x="14006.469727" y="-3554.077148" width="1.098633" height="1.098633"/>
<image xlink:href="tile7_44.png" preserveAspectRatio="none" x="14007.568359" y="-3551.879883" width="1.098633" height="1.098633"/>
<image xlink:href="tile7_43.png" preserveAspectRatio="none" x="14007.568359" y="-3552.978516" width="1.098633" height="1.098633"/>
<image xlink:href="tile7_42.png" preserveAspectRatio="none" x="14007.568359" y="-3554.077148" width="1.098633" height="1.098633"/>
<image xlink:href="tile9_40.png" preserveAspectRatio="none" x="14009.765625" y="-3556.274414" width="1.098633" height="1.098633"/>
<image xlink:href="tile10_42.png" preserveAspectRatio="none" x="14010.864258" y="-3554.077148" width="1.098633" height="1.098633"/>
<image xlink:href="tile10_41.png" preserveAspectRatio="none" x="14010.864258" y="-3555.175781" width="1.098633" height="1.098633"/>
<image xlink:href="tile10_40.png" preserveAspectRatio="none" x="14010.864258" y="-3556.274414" width="1.098633" height="1.098633"/>
<image xlink:href="tile10_39.png" preserveAspectRatio="none" x="14010.864258" y="-3557.373047" width="1.098633" height="1.098633"/>
<image xlink:href="tile11_42.png" preserveAspectRatio="none" x="14011.962891" y="-3554.077148" width="1.098633" height="1.098633"/>
<image xlink:href="tile11_41.png" preserveAspectRatio="none" x="14011.962891" y="-3555.175781" width="1.098633" height="1.098633"/>
<image xlink:href="tile11_40.png" preserveAspectRatio="none" x="14011.962891" y="-3556.274414" width="1.098633" height="1.098633"/>
<image xlink:href="tile11_39.png" preserveAspectRatio="none" x="14011.962891" y="-3557.373047" width="1.098633" height="1.098633"/>
<image xlink:href="tile12_41.png" preserveAspectRatio="none" x="14013.061523" y="-3555.175781" width="1.098633" height="1.098633"/>
<image xlink:href="tile12_40.png" preserveAspectRatio="none" x="14013.061523" y="-3556.274414" width="1.098633" height="1.098633"/>
<image xlink:href="tile12_39.png" preserveAspectRatio="none" x="14013.061523" y="-3557.373047" width="1.098633" height="1.098633"/>
<image xlink:href="tile13_41.png" preserveAspectRatio="none" x="14014.160156" y="-3555.175781" width="1.098633" height="1.098633"/>
<image xlink:href="tile13_40.png" preserveAspectRatio="none" x="14014.160156" y="-3556.274414" width="1.098633" height="1.098633"/>
<image xlink:href="tile13_39.png" preserveAspectRatio="none" x="14014.160156" y="-3557.373047" width="1.098633" height="1.098633"/>
<image xlink:href="tile14_41.png" preserveAspectRatio="none" x="14015.258789" y="-3555.175781" width="1.098633" height="1.098633"/>
<image xlink:href="tile14_40.png" preserveAspectRatio="none" x="14015.258789" y="-3556.274414" width="1.098633" height="1.098633"/>
</g>
</svg>
