<?xml version="1.0" encoding="UTF-8"?>
<svg  xmlns="http://www.w3.org/2000/svg" xmlns:xlink="http://www.w3.org/1999/xlink" xmlns:go="http://purl.org/svgmap/profile" viewBox="14000.0 -3600.0 85.11330069999872 60.0416586999998" go:dataArea="14000.0 -3600.0 85.11330069999872 60.0416586999998" >
<metadata>
 <rdf:RDF xmlns:rdf="http://www.w3.org/1999/02/22-rdf-syntax-ns#" xmlns:crs="http://opengis.org/xmldtds/transformations.dtd" xmlns:svg="http://www.w3.org/svg" >
  <rdf:Description>
   <crs:CoordinateReferenceSystem rdf:resource="http://purl.org/crs/84" svg:transform="matrix(100.0,0.0,0.0,-100.0,0.0,0.0)" />
  </rdf:Description>
 </rdf:RDF>
</metadata>
<globalCoordinateSystem srsName="http://purl.org/crs/84" transform="matrix(100.0,0.0,0.0,-100.0,0.0,0.0)" />
<g >
<image xlink:href="tile0_3.png" preserveAspectRatio="none" x="13999.87793" y="-3596.923828" width="1.098633" height="1.098633"/>
<image xlink:href="tile0_2.png" preserveAspectRatio="none" x="13999.87793" y="-3598.022461" width="1.098633" height="1.098633"/>
<image xlink:href="tile0_1.png" preserveAspectRatio="none" x="13999.87793" y="-3599.121094" width="1.098633" height="1.098633"/>
<image xlink:href="tile0_0.png" preserveAspectRatio="none" x="13999.87793" y="-3600.219727" width="1.098633" height="1.098633"/>
<image xlink:href="tile1_4.png" preserveAspectRatio="none" x="14000.976562" y="-3595.825195" width="1.098633" height="1.098633"/>
<image xlink:href="tile1_3.png" preserveAspectRatio="none" x="14000.976562" y="-3596.923828" width="1.098633" height="1.098633"/>
<image xlink:href="tile1_2.png" preserveAspectRatio="none" x="14000.976562" y="-3598.022461" width="1.098633" height="1.098633"/>
<image xlink:href="tile1_1.png" preserveAspectRatio="none" x="14000.976562" y="-3599.121094" width="1.098633" height="1.098633"/>
<image xlink:href="tile1_0.png" preserveAspectRatio="none" x="14000.976562" y="-3600.219727" width="1.098633" height="1.098633"/>
<image xlink:href="tile2_4.png" preserveAspectRatio="none" x="14002.075195" y="-3595.825195" width="1.098633" height="1.098633"/>
<image xlink:href="tile2_3.png" preserveAspectRatio="none" x="14002.075195" y="-3596.923828" width="1.098633" height="1.098633"/>
<image xlink:href="tile2_2.png" preserveAspectRatio="none" x="14002.075195" y="-3598.022461" width="1.098633" height="1.098633"/>
<image xlink:href="tile2_1.png" preserveAspectRatio="none" x="14002.075195" y="-3599.121094" width="1.098633" height="1.098633"/>
<image xlink:href="tile2_0.png" preserveAspectRatio="none" x="14002.075195" y="-3600.219727" width="1.098633" height="1.098633"/>
<image xlink:href="tile3_5.png" preserveAspectRatio="none" x="14003.173828" y="-3594.726562" width="1.098633" height="1.098633"/>
<image xlink:href="tile3_4.png" preserveAspectRatio="none" x="14003.173828" y="-3595.825195" width="1.098633" height="1.098633"/>
<image xlink:href="tile3_3.png" preserveAspectRatio="none" x="14003.173828" y="-3596.923828" width="1.098633" height="1.098633"/>
<image xlink:href="tile3_2.png" preserveAspectRatio="none" x="14003.173828" y="-3598.022461" width="1.098633" height="1.098633"/>
<image xlink:href="tile3_1.png" preserveAspectRatio="none" x="14003.173828" y="-3599.121094" width="1.098633" height="1.098633"/>
<image xlink:href="tile4_6.png" preserveAspectRatio="none" x="14004.272461" y="-3593.62793" width="1.098633" height="1.098633"/>
<image xlink:href="tile4_5.png" preserveAspectRatio="none" x="14004.272461" y="-3594.726562" width="1.098633" height="1.098633"/>
<image xlink:href="tile4_4.png" preserveAspectRatio="none" x="14004.272461" y="-3595.825195" width="1.098633" height="1.098633"/>
<image xlink:href="tile4_3.png" preserveAspectRatio="none" x="14004.272461" y="-3596.923828" width="1.098633" height="1.098633"/>
<image xlink:href="tile4_2.png" preserveAspectRatio="none" x="14004.272461" y="-3598.022461" width="1.098633" height="1.098633"/>
<image xlink:href="tile5_5.png" preserveAspectRatio="none" x="14005.371094" y="-3594.726562" width="1.098633" height="1.098633"/>
<image xlink:href="tile5_4.png" preserveAspectRatio="none" x="14005.371094" y="-3595.825195" width="1.098633" height="1.098633"/>
<image xlink:href="tile5_3.png" preserveAspectRatio="none" x="14005.371094" y="-3596.923828" width="1.098633" height="1.098633"/>
<image xlink:href="tile5_2.png" preserveAspectRatio="none" x="14005.371094" y="-3598.022461" width="1.098633" height="1.098633"/>
<image xlink:href="tile6_6.png" preserveAspectRatio="none" x="14006.469727" y="-3593.62793" width="1.098633" height="1.098633"/>
<image xlink:href="tile6_5.png" preserveAspectRatio="none" x="14006.469727" y="-3594.726562" width="1.098633" height="1.098633"/>
<image xlink:href="tile6_4.png" preserveAspectRatio="none" x="14006.469727" y="-3595.825195" width="1.098633" height="1.098633"/>
<image xlink:href="tile6_3.png" preserveAspectRatio="none" x="14006.469727" y="-3596.923828" width="1.098633" height="1.098633"/>
<image xlink:href="tile7_6.png" preserveAspectRatio="none" x="14007.568359" y="-3593.62793" width="1.098633" height="1.098633"/>
<image xlink:href="tile7_5.png" preserveAspectRatio="none" x="14007.568359" y="-3594.726562" width="1.098633" height="1.098633"/>
<image xlink:href="tile7_4.png" preserveAspectRatio="none" x="14007.568359" y="-3595.825195" width="1.098633" height="1.098633"/>
<image xlink:href="tile7_3.png" preserveAspectRatio="none" x="14007.568359" y="-3596.923828" width="1.098633" height="1.098633"/>
<image xlink:href="tile8_6.png" preserveAspectRatio="none" x="14008.666992" y="-3593.62793" width="1.098633" height="1.098633"/>
<image xlink:href="tile8_5.png" preserveAspectRatio="none" x="14008.666992" y="-3594.726562" width="1.098633" height="1.098633"/>
<image xlink:href="tile8_4.png" preserveAspectRatio="none" x="14008.666992" y="-3595.825195" width="1.098633" height="1.098633"/>
<image xlink:href="tile8_3.png" preserveAspectRatio="none" x="14008.666992" y="-3596.923828" width="1.098633" height="1.098633"/>
<image xlink:href="tile9_6.png" preserveAspectRatio="none" x="14009.765625" y="-3593.62793" width="1.098633" height="1.098633"/>
<image xlink:href="tile9_5.png" preserveAspectRatio="none" x="14009.765625" y="-3594.726562" width="1.098633" height="1.098633"/>
<image xlink:href="tile9_4.png" preserveAspectRatio="none" x="14009.765625" y="-3595.825195" width="1.098633" height="1.098633"/>
<image xlink:href="tile10_6.png" preserveAspectRatio="none" x="14010.864258" y="-3593.62793" width="1.098633" height="1.098633"/>
<image xlink:href="tile10_5.png" preserveAspectRatio="none" x="14010.864258" y="-3594.726562" width="1.098633" height="1.098633"/>
<image xlink:href="tile10_4.png" preserveAspectRatio="none" x="14010.864258" y="-3595.825195" width="1.098633" height="1.098633"/>
<image xlink:href="tile11_6.png" preserveAspectRatio="none" x="14011.962891" y="-3593.62793" width="1.098633" height="1.098633"/>
<image xlink:href="tile11_5.png" preserveAspectRatio="none" x="14011.962891" y="-3594.726562" width="1.098633" height="1.098633"/>
<image xlink:href="tile12_6.png" preserveAspectRatio="none" x="14013.061523" y="-3593.62793" width="1.098633" height="1.098633"/>
<image xlink:href="tile12_5.png" preserveAspectRatio="none" x="14013.061523" y="-3594.726562" width="1.098633" height="1.098633"/>
<image xlink:href="tile14_6.png" preserveAspectRatio="none" x="14015.258789" y="-3593.62793" width="1.098633" height="1.098633"/>
<image xlink:href="tile15_6.png" preserveAspectRatio="none" x="14016.357422" y="-3593.62793" width="1.098633" height="1.098633"/>
</g>
</svg>
