<?xml version="1.0" encoding="UTF-8"?>
<svg  xmlns="http://www.w3.org/2000/svg" xmlns:xlink="http://www.w3.org/1999/xlink" xmlns:go="http://purl.org/svgmap/profile" viewBox="14000.0 -3600.0 85.11330069999872 60.0416586999998" go:dataArea="14000.0 -3600.0 85.11330069999872 60.0416586999998" >
<metadata>
 <rdf:RDF xmlns:rdf="http://www.w3.org/1999/02/22-rdf-syntax-ns#" xmlns:crs="http://opengis.org/xmldtds/transformations.dtd" xmlns:svg="http://www.w3.org/svg" >
  <rdf:Description>
   <crs:CoordinateReferenceSystem rdf:resource="http://purl.org/crs/84" svg:transform="matrix(100.0,0.0,0.0,-100.0,0.0,0.0)" />
  </rdf:Description>
 </rdf:RDF>
</metadata>
<globalCoordinateSystem srsName="http://purl.org/crs/84" transform="matrix(100.0,0.0,0.0,-100.0,0.0,0.0)" />
<g >
<image xlink:href="tile0_19.png" preserveAspectRatio="none" x="13999.87793" y="-3579.345703" width="1.098633" height="1.098633"/>
<image xlink:href="tile0_18.png" preserveAspectRatio="none" x="13999.87793" y="-3580.444336" width="1.098633" height="1.098633"/>
<image xlink:href="tile0_17.png" preserveAspectRatio="none" x="13999.87793" y="-3581.542969" width="1.098633" height="1.098633"/>
<image xlink:href="tile0_16.png" preserveAspectRatio="none" x="13999.87793" y="-3582.641602" width="1.098633" height="1.098633"/>
<image xlink:href="tile0_13.png" preserveAspectRatio="none" x="13999.87793" y="-3585.9375" width="1.098633" height="1.098633"/>
<image xlink:href="tile0_12.png" preserveAspectRatio="none" x="13999.87793" y="-3587.036133" width="1.098633" height="1.098633"/>
<image xlink:href="tile1_13.png" preserveAspectRatio="none" x="14000.976562" y="-3585.9375" width="1.098633" height="1.098633"/>
<image xlink:href="tile1_12.png" preserveAspectRatio="none" x="14000.976562" y="-3587.036133" width="1.098633" height="1.098633"/>
<image xlink:href="tile2_13.png" preserveAspectRatio="none" x="14002.075195" y="-3585.9375" width="1.098633" height="1.098633"/>
<image xlink:href="tile2_12.png" preserveAspectRatio="none" x="14002.075195" y="-3587.036133" width="1.098633" height="1.098633"/>
<image xlink:href="tile3_19.png" preserveAspectRatio="none" x="14003.173828" y="-3579.345703" width="1.098633" height="1.098633"/>
<image xlink:href="tile3_13.png" preserveAspectRatio="none" x="14003.173828" y="-3585.9375" width="1.098633" height="1.098633"/>
<image xlink:href="tile3_12.png" preserveAspectRatio="none" x="14003.173828" y="-3587.036133" width="1.098633" height="1.098633"/>
<image xlink:href="tile4_21.png" preserveAspectRatio="none" x="14004.272461" y="-3577.148438" width="1.098633" height="1.098633"/>
<image xlink:href="tile4_20.png" preserveAspectRatio="none" x="14004.272461" y="-3578.24707" width="1.098633" height="1.098633"/>
<image xlink:href="tile4_19.png" preserveAspectRatio="none" x="14004.272461" y="-3579.345703" width="1.098633" height="1.098633"/>
<image xlink:href="tile4_18.png" preserveAspectRatio="none" x="14004.272461" y="-3580.444336" width="1.098633" height="1.098633"/>
<image xlink:href="tile4_17.png" preserveAspectRatio="none" x="14004.272461" y="-3581.542969" width="1.098633" height="1.098633"/>
<image xlink:href="tile4_14.png" preserveAspectRatio="none" x="14004.272461" y="-3584.838867" width="1.098633" height="1.098633"/>
<image xlink:href="tile4_13.png" preserveAspectRatio="none" x="14004.272461" y="-3585.9375" width="1.098633" height="1.098633"/>
<image xlink:href="tile4_12.png" preserveAspectRatio="none" x="14004.272461" y="-3587.036133" width="1.098633" height="1.098633"/>
<image xlink:href="tile5_20.png" preserveAspectRatio="none" x="14005.371094" y="-3578.24707" width="1.098633" height="1.098633"/>
<image xlink:href="tile5_19.png" preserveAspectRatio="none" x="14005.371094" y="-3579.345703" width="1.098633" height="1.098633"/>
<image xlink:href="tile5_18.png" preserveAspectRatio="none" x="14005.371094" y="-3580.444336" width="1.098633" height="1.098633"/>
<image xlink:href="tile5_17.png" preserveAspectRatio="none" x="14005.371094" y="-3581.542969" width="1.098633" height="1.098633"/>
<image xlink:href="tile5_15.png" preserveAspectRatio="none" x="14005.371094" y="-3583.740234" width="1.098633" height="1.098633"/>
<image xlink:href="tile5_14.png" preserveAspectRatio="none" x="14005.371094" y="-3584.838867" width="1.098633" height="1.098633"/>
<image xlink:href="tile5_13.png" preserveAspectRatio="none" x="14005.371094" y="-3585.9375" width="1.098633" height="1.098633"/>
<image xlink:href="tile6_20.png" preserveAspectRatio="none" x="14006.469727" y="-3578.24707" width="1.098633" height="1.098633"/>
<image xlink:href="tile6_19.png" preserveAspectRatio="none" x="14006.469727" y="-3579.345703" width="1.098633" height="1.098633"/>
<image xlink:href="tile6_18.png" preserveAspectRatio="none" x="14006.469727" y="-3580.444336" width="1.098633" height="1.098633"/>
<image xlink:href="tile6_16.png" preserveAspectRatio="none" x="14006.469727" y="-3582.641602" width="1.098633" height="1.098633"/>
<image xlink:href="tile6_15.png" preserveAspectRatio="none" x="14006.469727" y="-3583.740234" width="1.098633" height="1.098633"/>
<image xlink:href="tile6_14.png" preserveAspectRatio="none" x="14006.469727" y="-3584.838867" width="1.098633" height="1.098633"/>
<image xlink:href="tile6_13.png" preserveAspectRatio="none" x="14006.469727" y="-3585.9375" width="1.098633" height="1.098633"/>
<image xlink:href="tile6_7.png" preserveAspectRatio="none" x="14006.469727" y="-3592.529297" width="1.098633" height="1.098633"/>
<image xlink:href="tile7_19.png" preserveAspectRatio="none" x="14007.568359" y="-3579.345703" width="1.098633" height="1.098633"/>
<image xlink:href="tile7_16.png" preserveAspectRatio="none" x="14007.568359" y="-3582.641602" width="1.098633" height="1.098633"/>
<image xlink:href="tile7_15.png" preserveAspectRatio="none" x="14007.568359" y="-3583.740234" width="1.098633" height="1.098633"/>
<image xlink:href="tile7_14.png" preserveAspectRatio="none" x="14007.568359" y="-3584.838867" width="1.098633" height="1.098633"/>
<image xlink:href="tile7_13.png" preserveAspectRatio="none" x="14007.568359" y="-3585.9375" width="1.098633" height="1.098633"/>
<image xlink:href="tile7_8.png" preserveAspectRatio="none" x="14007.568359" y="-3591.430664" width="1.098633" height="1.098633"/>
<image xlink:href="tile7_7.png" preserveAspectRatio="none" x="14007.568359" y="-3592.529297" width="1.098633" height="1.098633"/>
<image xlink:href="tile8_22.png" preserveAspectRatio="none" x="14008.666992" y="-3576.049805" width="1.098633" height="1.098633"/>
<image xlink:href="tile8_20.png" preserveAspectRatio="none" x="14008.666992" y="-3578.24707" width="1.098633" height="1.098633"/>
<image xlink:href="tile8_19.png" preserveAspectRatio="none" x="14008.666992" y="-3579.345703" width="1.098633" height="1.098633"/>
<image xlink:href="tile8_16.png" preserveAspectRatio="none" x="14008.666992" y="-3582.641602" width="1.098633" height="1.098633"/>
<image xlink:href="tile8_15.png" preserveAspectRatio="none" x="14008.666992" y="-3583.740234" width="1.098633" height="1.098633"/>
<image xlink:href="tile8_14.png" preserveAspectRatio="none" x="14008.666992" y="-3584.838867" width="1.098633" height="1.098633"/>
<image xlink:href="tile8_13.png" preserveAspectRatio="none" x="14008.666992" y="-3585.9375" width="1.098633" height="1.098633"/>
<image xlink:href="tile8_9.png" preserveAspectRatio="none" x="14008.666992" y="-3590.332031" width="1.098633" height="1.098633"/>
<image xlink:href="tile8_8.png" preserveAspectRatio="none" x="14008.666992" y="-3591.430664" width="1.098633" height="1.098633"/>
<image xlink:href="tile8_7.png" preserveAspectRatio="none" x="14008.666992" y="-3592.529297" width="1.098633" height="1.098633"/>
<image xlink:href="tile9_22.png" preserveAspectRatio="none" x="14009.765625" y="-3576.049805" width="1.098633" height="1.098633"/>
<image xlink:href="tile9_21.png" preserveAspectRatio="none" x="14009.765625" y="-3577.148438" width="1.098633" height="1.098633"/>
<image xlink:href="tile9_20.png" preserveAspectRatio="none" x="14009.765625" y="-3578.24707" width="1.098633" height="1.098633"/>
<image xlink:href="tile9_19.png" preserveAspectRatio="none" x="14009.765625" y="-3579.345703" width="1.098633" height="1.098633"/>
<image xlink:href="tile9_16.png" preserveAspectRatio="none" x="14009.765625" y="-3582.641602" width="1.098633" height="1.098633"/>
<image xlink:href="tile9_15.png" preserveAspectRatio="none" x="14009.765625" y="-3583.740234" width="1.098633" height="1.098633"/>
<image xlink:href="tile9_14.png" preserveAspectRatio="none" x="14009.765625" y="-3584.838867" width="1.098633" height="1.098633"/>
<image xlink:href="tile9_13.png" preserveAspectRatio="none" x="14009.765625" y="-3585.9375" width="1.098633" height="1.098633"/>
<image xlink:href="tile9_9.png" preserveAspectRatio="none" x="14009.765625" y="-3590.332031" width="1.098633" height="1.098633"/>
<image xlink:href="tile9_8.png" preserveAspectRatio="none" x="14009.765625" y="-3591.430664" width="1.098633" height="1.098633"/>
<image xlink:href="tile9_7.png" preserveAspectRatio="none" x="14009.765625" y="-3592.529297" width="1.098633" height="1.098633"/>
<image xlink:href="tile10_22.png" preserveAspectRatio="none" x="14010.864258" y="-3576.049805" width="1.098633" height="1.098633"/>
<image xlink:href="tile10_21.png" preserveAspectRatio="none" x="14010.864258" y="-3577.148438" width="1.098633" height="1.098633"/>
<image xlink:href="tile10_20.png" preserveAspectRatio="none" x="14010.864258" y="-3578.24707" width="1.098633" height="1.098633"/>
<image xlink:href="tile10_19.png" preserveAspectRatio="none" x="14010.864258" y="-3579.345703" width="1.098633" height="1.098633"/>
<image xlink:href="tile10_17.png" preserveAspectRatio="none" x="14010.864258" y="-3581.542969" width="1.098633" height="1.098633"/>
<image xlink:href="tile10_16.png" preserveAspectRatio="none" x="14010.864258" y="-3582.641602" width="1.098633" height="1.098633"/>
<image xlink:href="tile10_15.png" preserveAspectRatio="none" x="14010.864258" y="-3583.740234" width="1.098633" height="1.098633"/>
<image xlink:href="tile10_14.png" preserveAspectRatio="none" x="14010.864258" y="-3584.838867" width="1.098633" height="1.098633"/>
<image xlink:href="tile10_13.png" preserveAspectRatio="none" x="14010.864258" y="-3585.9375" width="1.098633" height="1.098633"/>
<image xlink:href="tile10_10.png" preserveAspectRatio="none" x="14010.864258" y="-3589.233398" width="1.098633" height="1.098633"/>
<image xlink:href="tile10_9.png" preserveAspectRatio="none" x="14010.864258" y="-3590.332031" width="1.098633" height="1.098633"/>
<image xlink:href="tile10_8.png" preserveAspectRatio="none" x="14010.864258" y="-3591.430664" width="1.098633" height="1.098633"/>
<image xlink:href="tile10_7.png" preserveAspectRatio="none" x="14010.864258" y="-3592.529297" width="1.098633" height="1.098633"/>
<image xlink:href="tile11_21.png" preserveAspectRatio="none" x="14011.962891" y="-3577.148438" width="1.098633" height="1.098633"/>
<image xlink:href="tile11_20.png" preserveAspectRatio="none" x="14011.962891" y="-3578.24707" width="1.098633" height="1.098633"/>
<image xlink:href="tile11_19.png" preserveAspectRatio="none" x="14011.962891" y="-3579.345703" width="1.098633" height="1.098633"/>
<image xlink:href="tile11_17.png" preserveAspectRatio="none" x="14011.962891" y="-3581.542969" width="1.098633" height="1.098633"/>
<image xlink:href="tile11_16.png" preserveAspectRatio="none" x="14011.962891" y="-3582.641602" width="1.098633" height="1.098633"/>
<image xlink:href="tile11_15.png" preserveAspectRatio="none" x="14011.962891" y="-3583.740234" width="1.098633" height="1.098633"/>
<image xlink:href="tile11_14.png" preserveAspectRatio="none" x="14011.962891" y="-3584.838867" width="1.098633" height="1.098633"/>
<image xlink:href="tile11_13.png" preserveAspectRatio="none" x="14011.962891" y="-3585.9375" width="1.098633" height="1.098633"/>
<image xlink:href="tile11_10.png" preserveAspectRatio="none" x="14011.962891" y="-3589.233398" width="1.098633" height="1.098633"/>
<image xlink:href="tile11_9.png" preserveAspectRatio="none" x="14011.962891" y="-3590.332031" width="1.098633" height="1.098633"/>
<image xlink:href="tile11_8.png" preserveAspectRatio="none" x="14011.962891" y="-3591.430664" width="1.098633" height="1.098633"/>
<image xlink:href="tile11_7.png" preserveAspectRatio="none" x="14011.962891" y="-3592.529297" width="1.098633" height="1.098633"/>
<image xlink:href="tile12_16.png" preserveAspectRatio="none" x="14013.061523" y="-3582.641602" width="1.098633" height="1.098633"/>
<image xlink:href="tile12_15.png" preserveAspectRatio="none" x="14013.061523" y="-3583.740234" width="1.098633" height="1.098633"/>
<image xlink:href="tile12_14.png" preserveAspectRatio="none" x="14013.061523" y="-3584.838867" width="1.098633" height="1.098633"/>
<image xlink:href="tile12_10.png" preserveAspectRatio="none" x="14013.061523" y="-3589.233398" width="1.098633" height="1.098633"/>
<image xlink:href="tile12_9.png" preserveAspectRatio="none" x="14013.061523" y="-3590.332031" width="1.098633" height="1.098633"/>
<image xlink:href="tile12_8.png" preserveAspectRatio="none" x="14013.061523" y="-3591.430664" width="1.098633" height="1.098633"/>
<image xlink:href="tile12_7.png" preserveAspectRatio="none" x="14013.061523" y="-3592.529297" width="1.098633" height="1.098633"/>
<image xlink:href="tile13_16.png" preserveAspectRatio="none" x="14014.160156" y="-3582.641602" width="1.098633" height="1.098633"/>
<image xlink:href="tile13_15.png" preserveAspectRatio="none" x="14014.160156" y="-3583.740234" width="1.098633" height="1.098633"/>
<image xlink:href="tile13_14.png" preserveAspectRatio="none" x="14014.160156" y="-3584.838867" width="1.098633" height="1.098633"/>
<image xlink:href="tile13_10.png" preserveAspectRatio="none" x="14014.160156" y="-3589.233398" width="1.098633" height="1.098633"/>
<image xlink:href="tile13_9.png" preserveAspectRatio="none" x="14014.160156" y="-3590.332031" width="1.098633" height="1.098633"/>
<image xlink:href="tile13_8.png" preserveAspectRatio="none" x="14014.160156" y="-3591.430664" width="1.098633" height="1.098633"/>
<image xlink:href="tile14_16.png" preserveAspectRatio="none" x="14015.258789" y="-3582.641602" width="1.098633" height="1.098633"/>
<image xlink:href="tile14_7.png" preserveAspectRatio="none" x="14015.258789" y="-3592.529297" width="1.098633" height="1.098633"/>
<image xlink:href="tile15_19.png" preserveAspectRatio="none" x="14016.357422" y="-3579.345703" width="1.098633" height="1.098633"/>
<image xlink:href="tile15_18.png" preserveAspectRatio="none" x="14016.357422" y="-3580.444336" width="1.098633" height="1.098633"/>
<image xlink:href="tile15_17.png" preserveAspectRatio="none" x="14016.357422" y="-3581.542969" width="1.098633" height="1.098633"/>
<image xlink:href="tile15_16.png" preserveAspectRatio="none" x="14016.357422" y="-3582.641602" width="1.098633" height="1.098633"/>
<image xlink:href="tile15_8.png" preserveAspectRatio="none" x="14016.357422" y="-3591.430664" width="1.098633" height="1.098633"/>
<image xlink:href="tile15_7.png" preserveAspectRatio="none" x="14016.357422" y="-3592.529297" width="1.098633" height="1.098633"/>
</g>
</svg>
