<?xml version="1.0" encoding="UTF-8"?>
<svg  xmlns="http://www.w3.org/2000/svg" xmlns:xlink="http://www.w3.org/1999/xlink" xmlns:go="http://purl.org/svgmap/profile" viewBox="14100.0 -3933.333333 89.59717269999885 66.66666600000042" go:dataArea="14100.0 -3933.333333 89.59717269999885 66.66666600000042" >
<metadata>
 <rdf:RDF xmlns:rdf="http://www.w3.org/1999/02/22-rdf-syntax-ns#" xmlns:crs="http://opengis.org/xmldtds/transformations.dtd" xmlns:svg="http://www.w3.org/svg" >
  <rdf:Description>
   <crs:CoordinateReferenceSystem rdf:resource="http://purl.org/crs/84" svg:transform="matrix(100.0,0.0,0.0,-100.0,0.0,0.0)" />
  </rdf:Description>
 </rdf:RDF>
</metadata>
<globalCoordinateSystem srsName="http://purl.org/crs/84" transform="matrix(100.0,0.0,0.0,-100.0,0.0,0.0)" />
<g >
<animation xlink:href="sub_0_0_container.svg" x="14099.853516" y="-3883.666992" width="17.578125" height="17.578125"/>
<animation xlink:href="sub_3_1_container.svg" x="14152.587891" y="-3901.245117" width="17.578125" height="17.578125"/>
<animation xlink:href="sub_0_1_container.svg" x="14099.853516" y="-3901.245117" width="17.578125" height="17.578125"/>
<animation xlink:href="sub_0_2_container.svg" x="14099.853516" y="-3918.823242" width="17.578125" height="17.578125"/>
<animation xlink:href="sub_3_3_container.svg" x="14152.587891" y="-3936.401367" width="17.578125" height="17.578125"/>
<animation xlink:href="sub_0_3_container.svg" x="14099.853516" y="-3936.401367" width="17.578125" height="17.578125"/>
<animation xlink:href="sub_3_2_container.svg" x="14152.587891" y="-3918.823242" width="17.578125" height="17.578125"/>
<animation xlink:href="sub_2_3_container.svg" x="14135.009766" y="-3936.401367" width="17.578125" height="17.578125"/>
<animation xlink:href="sub_2_2_container.svg" x="14135.009766" y="-3918.823242" width="17.578125" height="17.578125"/>
<animation xlink:href="sub_2_1_container.svg" x="14135.009766" y="-3901.245117" width="17.578125" height="17.578125"/>
<animation xlink:href="sub_2_0_container.svg" x="14135.009766" y="-3883.666992" width="17.578125" height="17.578125"/>
<animation xlink:href="sub_5_3_container.svg" x="14187.744141" y="-3936.401367" width="17.578125" height="17.578125"/>
<animation xlink:href="sub_1_1_container.svg" x="14117.431641" y="-3901.245117" width="17.578125" height="17.578125"/>
<animation xlink:href="sub_4_3_container.svg" x="14170.166016" y="-3936.401367" width="17.578125" height="17.578125"/>
<animation xlink:href="sub_1_0_container.svg" x="14117.431641" y="-3883.666992" width="17.578125" height="17.578125"/>
<animation xlink:href="sub_4_2_container.svg" x="14170.166016" y="-3918.823242" width="17.578125" height="17.578125"/>
<animation xlink:href="sub_1_3_container.svg" x="14117.431641" y="-3936.401367" width="17.578125" height="17.578125"/>
<animation xlink:href="sub_1_2_container.svg" x="14117.431641" y="-3918.823242" width="17.578125" height="17.578125"/>
</g>
</svg>
