<?xml version="1.0" encoding="UTF-8"?>
<svg  xmlns="http://www.w3.org/2000/svg" xmlns:xlink="http://www.w3.org/1999/xlink" xmlns:go="http://purl.org/svgmap/profile" viewBox="14100.0 -3933.333333 89.59717269999885 66.66666600000042" go:dataArea="14100.0 -3933.333333 89.59717269999885 66.66666600000042" >
<metadata>
 <rdf:RDF xmlns:rdf="http://www.w3.org/1999/02/22-rdf-syntax-ns#" xmlns:crs="http://opengis.org/xmldtds/transformations.dtd" xmlns:svg="http://www.w3.org/svg" >
  <rdf:Description>
   <crs:CoordinateReferenceSystem rdf:resource="http://purl.org/crs/84" svg:transform="matrix(100.0,0.0,0.0,-100.0,0.0,0.0)" />
  </rdf:Description>
 </rdf:RDF>
</metadata>
<globalCoordinateSystem srsName="http://purl.org/crs/84" transform="matrix(100.0,0.0,0.0,-100.0,0.0,0.0)" />
<g >
<image xlink:href="tile48_39.png" preserveAspectRatio="none" x="14152.587891" y="-3891.357422" width="1.098633" height="1.098633"/>
<image xlink:href="tile48_38.png" preserveAspectRatio="none" x="14152.587891" y="-3892.456055" width="1.098633" height="1.098633"/>
<image xlink:href="tile49_41.png" preserveAspectRatio="none" x="14153.686523" y="-3889.160156" width="1.098633" height="1.098633"/>
<image xlink:href="tile49_39.png" preserveAspectRatio="none" x="14153.686523" y="-3891.357422" width="1.098633" height="1.098633"/>
<image xlink:href="tile49_38.png" preserveAspectRatio="none" x="14153.686523" y="-3892.456055" width="1.098633" height="1.098633"/>
<image xlink:href="tile49_37.png" preserveAspectRatio="none" x="14153.686523" y="-3893.554688" width="1.098633" height="1.098633"/>
<image xlink:href="tile50_41.png" preserveAspectRatio="none" x="14154.785156" y="-3889.160156" width="1.098633" height="1.098633"/>
<image xlink:href="tile50_40.png" preserveAspectRatio="none" x="14154.785156" y="-3890.258789" width="1.098633" height="1.098633"/>
<image xlink:href="tile50_39.png" preserveAspectRatio="none" x="14154.785156" y="-3891.357422" width="1.098633" height="1.098633"/>
<image xlink:href="tile50_38.png" preserveAspectRatio="none" x="14154.785156" y="-3892.456055" width="1.098633" height="1.098633"/>
<image xlink:href="tile50_33.png" preserveAspectRatio="none" x="14154.785156" y="-3897.949219" width="1.098633" height="1.098633"/>
<image xlink:href="tile51_41.png" preserveAspectRatio="none" x="14155.883789" y="-3889.160156" width="1.098633" height="1.098633"/>
<image xlink:href="tile51_40.png" preserveAspectRatio="none" x="14155.883789" y="-3890.258789" width="1.098633" height="1.098633"/>
<image xlink:href="tile51_39.png" preserveAspectRatio="none" x="14155.883789" y="-3891.357422" width="1.098633" height="1.098633"/>
<image xlink:href="tile51_35.png" preserveAspectRatio="none" x="14155.883789" y="-3895.751953" width="1.098633" height="1.098633"/>
<image xlink:href="tile51_34.png" preserveAspectRatio="none" x="14155.883789" y="-3896.850586" width="1.098633" height="1.098633"/>
<image xlink:href="tile51_33.png" preserveAspectRatio="none" x="14155.883789" y="-3897.949219" width="1.098633" height="1.098633"/>
<image xlink:href="tile52_41.png" preserveAspectRatio="none" x="14156.982422" y="-3889.160156" width="1.098633" height="1.098633"/>
<image xlink:href="tile52_40.png" preserveAspectRatio="none" x="14156.982422" y="-3890.258789" width="1.098633" height="1.098633"/>
<image xlink:href="tile52_39.png" preserveAspectRatio="none" x="14156.982422" y="-3891.357422" width="1.098633" height="1.098633"/>
<image xlink:href="tile52_38.png" preserveAspectRatio="none" x="14156.982422" y="-3892.456055" width="1.098633" height="1.098633"/>
<image xlink:href="tile52_37.png" preserveAspectRatio="none" x="14156.982422" y="-3893.554688" width="1.098633" height="1.098633"/>
<image xlink:href="tile52_36.png" preserveAspectRatio="none" x="14156.982422" y="-3894.65332" width="1.098633" height="1.098633"/>
<image xlink:href="tile52_35.png" preserveAspectRatio="none" x="14156.982422" y="-3895.751953" width="1.098633" height="1.098633"/>
<image xlink:href="tile53_41.png" preserveAspectRatio="none" x="14158.081055" y="-3889.160156" width="1.098633" height="1.098633"/>
<image xlink:href="tile53_40.png" preserveAspectRatio="none" x="14158.081055" y="-3890.258789" width="1.098633" height="1.098633"/>
<image xlink:href="tile53_39.png" preserveAspectRatio="none" x="14158.081055" y="-3891.357422" width="1.098633" height="1.098633"/>
<image xlink:href="tile53_38.png" preserveAspectRatio="none" x="14158.081055" y="-3892.456055" width="1.098633" height="1.098633"/>
<image xlink:href="tile53_37.png" preserveAspectRatio="none" x="14158.081055" y="-3893.554688" width="1.098633" height="1.098633"/>
<image xlink:href="tile53_36.png" preserveAspectRatio="none" x="14158.081055" y="-3894.65332" width="1.098633" height="1.098633"/>
<image xlink:href="tile54_41.png" preserveAspectRatio="none" x="14159.179688" y="-3889.160156" width="1.098633" height="1.098633"/>
<image xlink:href="tile56_31.png" preserveAspectRatio="none" x="14161.376953" y="-3900.146484" width="1.098633" height="1.098633"/>
<image xlink:href="tile56_30.png" preserveAspectRatio="none" x="14161.376953" y="-3901.245117" width="1.098633" height="1.098633"/>
<image xlink:href="tile57_31.png" preserveAspectRatio="none" x="14162.475586" y="-3900.146484" width="1.098633" height="1.098633"/>
<image xlink:href="tile57_30.png" preserveAspectRatio="none" x="14162.475586" y="-3901.245117" width="1.098633" height="1.098633"/>
<image xlink:href="tile58_30.png" preserveAspectRatio="none" x="14163.574219" y="-3901.245117" width="1.098633" height="1.098633"/>
<image xlink:href="tile59_30.png" preserveAspectRatio="none" x="14164.672852" y="-3901.245117" width="1.098633" height="1.098633"/>
<image xlink:href="tile60_30.png" preserveAspectRatio="none" x="14165.771484" y="-3901.245117" width="1.098633" height="1.098633"/>
</g>
</svg>
