<?xml version="1.0" encoding="UTF-8"?>
<svg  xmlns="http://www.w3.org/2000/svg" xmlns:xlink="http://www.w3.org/1999/xlink" xmlns:go="http://purl.org/svgmap/profile" viewBox="14100.0 -3933.333333 89.59717269999885 66.66666600000042" go:dataArea="14100.0 -3933.333333 89.59717269999885 66.66666600000042" >
<metadata>
 <rdf:RDF xmlns:rdf="http://www.w3.org/1999/02/22-rdf-syntax-ns#" xmlns:crs="http://opengis.org/xmldtds/transformations.dtd" xmlns:svg="http://www.w3.org/svg" >
  <rdf:Description>
   <crs:CoordinateReferenceSystem rdf:resource="http://purl.org/crs/84" svg:transform="matrix(100.0,0.0,0.0,-100.0,0.0,0.0)" />
  </rdf:Description>
 </rdf:RDF>
</metadata>
<globalCoordinateSystem srsName="http://purl.org/crs/84" transform="matrix(100.0,0.0,0.0,-100.0,0.0,0.0)" />
<g >
<image xlink:href="tile7_31.png" preserveAspectRatio="none" x="14107.543945" y="-3900.146484" width="1.098633" height="1.098633"/>
<image xlink:href="tile7_30.png" preserveAspectRatio="none" x="14107.543945" y="-3901.245117" width="1.098633" height="1.098633"/>
<image xlink:href="tile8_31.png" preserveAspectRatio="none" x="14108.642578" y="-3900.146484" width="1.098633" height="1.098633"/>
<image xlink:href="tile8_30.png" preserveAspectRatio="none" x="14108.642578" y="-3901.245117" width="1.098633" height="1.098633"/>
<image xlink:href="tile9_33.png" preserveAspectRatio="none" x="14109.741211" y="-3897.949219" width="1.098633" height="1.098633"/>
<image xlink:href="tile9_32.png" preserveAspectRatio="none" x="14109.741211" y="-3899.047852" width="1.098633" height="1.098633"/>
<image xlink:href="tile9_31.png" preserveAspectRatio="none" x="14109.741211" y="-3900.146484" width="1.098633" height="1.098633"/>
<image xlink:href="tile9_30.png" preserveAspectRatio="none" x="14109.741211" y="-3901.245117" width="1.098633" height="1.098633"/>
<image xlink:href="tile10_37.png" preserveAspectRatio="none" x="14110.839844" y="-3893.554688" width="1.098633" height="1.098633"/>
<image xlink:href="tile10_34.png" preserveAspectRatio="none" x="14110.839844" y="-3896.850586" width="1.098633" height="1.098633"/>
<image xlink:href="tile10_33.png" preserveAspectRatio="none" x="14110.839844" y="-3897.949219" width="1.098633" height="1.098633"/>
<image xlink:href="tile10_32.png" preserveAspectRatio="none" x="14110.839844" y="-3899.047852" width="1.098633" height="1.098633"/>
<image xlink:href="tile10_31.png" preserveAspectRatio="none" x="14110.839844" y="-3900.146484" width="1.098633" height="1.098633"/>
<image xlink:href="tile10_30.png" preserveAspectRatio="none" x="14110.839844" y="-3901.245117" width="1.098633" height="1.098633"/>
<image xlink:href="tile11_37.png" preserveAspectRatio="none" x="14111.938477" y="-3893.554688" width="1.098633" height="1.098633"/>
<image xlink:href="tile11_36.png" preserveAspectRatio="none" x="14111.938477" y="-3894.65332" width="1.098633" height="1.098633"/>
<image xlink:href="tile11_35.png" preserveAspectRatio="none" x="14111.938477" y="-3895.751953" width="1.098633" height="1.098633"/>
<image xlink:href="tile11_34.png" preserveAspectRatio="none" x="14111.938477" y="-3896.850586" width="1.098633" height="1.098633"/>
<image xlink:href="tile11_33.png" preserveAspectRatio="none" x="14111.938477" y="-3897.949219" width="1.098633" height="1.098633"/>
<image xlink:href="tile11_32.png" preserveAspectRatio="none" x="14111.938477" y="-3899.047852" width="1.098633" height="1.098633"/>
<image xlink:href="tile11_31.png" preserveAspectRatio="none" x="14111.938477" y="-3900.146484" width="1.098633" height="1.098633"/>
<image xlink:href="tile11_30.png" preserveAspectRatio="none" x="14111.938477" y="-3901.245117" width="1.098633" height="1.098633"/>
<image xlink:href="tile12_38.png" preserveAspectRatio="none" x="14113.037109" y="-3892.456055" width="1.098633" height="1.098633"/>
<image xlink:href="tile12_37.png" preserveAspectRatio="none" x="14113.037109" y="-3893.554688" width="1.098633" height="1.098633"/>
<image xlink:href="tile12_36.png" preserveAspectRatio="none" x="14113.037109" y="-3894.65332" width="1.098633" height="1.098633"/>
<image xlink:href="tile12_35.png" preserveAspectRatio="none" x="14113.037109" y="-3895.751953" width="1.098633" height="1.098633"/>
<image xlink:href="tile12_34.png" preserveAspectRatio="none" x="14113.037109" y="-3896.850586" width="1.098633" height="1.098633"/>
<image xlink:href="tile12_33.png" preserveAspectRatio="none" x="14113.037109" y="-3897.949219" width="1.098633" height="1.098633"/>
<image xlink:href="tile12_32.png" preserveAspectRatio="none" x="14113.037109" y="-3899.047852" width="1.098633" height="1.098633"/>
<image xlink:href="tile12_31.png" preserveAspectRatio="none" x="14113.037109" y="-3900.146484" width="1.098633" height="1.098633"/>
<image xlink:href="tile12_30.png" preserveAspectRatio="none" x="14113.037109" y="-3901.245117" width="1.098633" height="1.098633"/>
<image xlink:href="tile13_38.png" preserveAspectRatio="none" x="14114.135742" y="-3892.456055" width="1.098633" height="1.098633"/>
<image xlink:href="tile13_37.png" preserveAspectRatio="none" x="14114.135742" y="-3893.554688" width="1.098633" height="1.098633"/>
<image xlink:href="tile13_36.png" preserveAspectRatio="none" x="14114.135742" y="-3894.65332" width="1.098633" height="1.098633"/>
<image xlink:href="tile13_35.png" preserveAspectRatio="none" x="14114.135742" y="-3895.751953" width="1.098633" height="1.098633"/>
<image xlink:href="tile13_34.png" preserveAspectRatio="none" x="14114.135742" y="-3896.850586" width="1.098633" height="1.098633"/>
<image xlink:href="tile13_33.png" preserveAspectRatio="none" x="14114.135742" y="-3897.949219" width="1.098633" height="1.098633"/>
<image xlink:href="tile13_32.png" preserveAspectRatio="none" x="14114.135742" y="-3899.047852" width="1.098633" height="1.098633"/>
<image xlink:href="tile14_37.png" preserveAspectRatio="none" x="14115.234375" y="-3893.554688" width="1.098633" height="1.098633"/>
<image xlink:href="tile14_36.png" preserveAspectRatio="none" x="14115.234375" y="-3894.65332" width="1.098633" height="1.098633"/>
<image xlink:href="tile14_35.png" preserveAspectRatio="none" x="14115.234375" y="-3895.751953" width="1.098633" height="1.098633"/>
<image xlink:href="tile14_34.png" preserveAspectRatio="none" x="14115.234375" y="-3896.850586" width="1.098633" height="1.098633"/>
<image xlink:href="tile14_33.png" preserveAspectRatio="none" x="14115.234375" y="-3897.949219" width="1.098633" height="1.098633"/>
<image xlink:href="tile15_37.png" preserveAspectRatio="none" x="14116.333008" y="-3893.554688" width="1.098633" height="1.098633"/>
<image xlink:href="tile15_36.png" preserveAspectRatio="none" x="14116.333008" y="-3894.65332" width="1.098633" height="1.098633"/>
<image xlink:href="tile15_35.png" preserveAspectRatio="none" x="14116.333008" y="-3895.751953" width="1.098633" height="1.098633"/>
<image xlink:href="tile15_34.png" preserveAspectRatio="none" x="14116.333008" y="-3896.850586" width="1.098633" height="1.098633"/>
<image xlink:href="tile15_33.png" preserveAspectRatio="none" x="14116.333008" y="-3897.949219" width="1.098633" height="1.098633"/>
</g>
</svg>
