<?xml version="1.0" encoding="UTF-8"?>
<svg  xmlns="http://www.w3.org/2000/svg" xmlns:xlink="http://www.w3.org/1999/xlink" xmlns:go="http://purl.org/svgmap/profile" viewBox="14100.0 -3933.333333 89.59717269999885 66.66666600000042" go:dataArea="14100.0 -3933.333333 89.59717269999885 66.66666600000042" >
<metadata>
 <rdf:RDF xmlns:rdf="http://www.w3.org/1999/02/22-rdf-syntax-ns#" xmlns:crs="http://opengis.org/xmldtds/transformations.dtd" xmlns:svg="http://www.w3.org/svg" >
  <rdf:Description>
   <crs:CoordinateReferenceSystem rdf:resource="http://purl.org/crs/84" svg:transform="matrix(100.0,0.0,0.0,-100.0,0.0,0.0)" />
  </rdf:Description>
 </rdf:RDF>
</metadata>
<globalCoordinateSystem srsName="http://purl.org/crs/84" transform="matrix(100.0,0.0,0.0,-100.0,0.0,0.0)" />
<g >
<image xlink:href="tile65_6.png" preserveAspectRatio="none" x="14171.264648" y="-3927.612305" width="1.098633" height="1.098633"/>
<image xlink:href="tile65_5.png" preserveAspectRatio="none" x="14171.264648" y="-3928.710938" width="1.098633" height="1.098633"/>
<image xlink:href="tile66_7.png" preserveAspectRatio="none" x="14172.363281" y="-3926.513672" width="1.098633" height="1.098633"/>
<image xlink:href="tile66_6.png" preserveAspectRatio="none" x="14172.363281" y="-3927.612305" width="1.098633" height="1.098633"/>
<image xlink:href="tile67_8.png" preserveAspectRatio="none" x="14173.461914" y="-3925.415039" width="1.098633" height="1.098633"/>
<image xlink:href="tile67_7.png" preserveAspectRatio="none" x="14173.461914" y="-3926.513672" width="1.098633" height="1.098633"/>
<image xlink:href="tile68_8.png" preserveAspectRatio="none" x="14174.560547" y="-3925.415039" width="1.098633" height="1.098633"/>
<image xlink:href="tile68_7.png" preserveAspectRatio="none" x="14174.560547" y="-3926.513672" width="1.098633" height="1.098633"/>
<image xlink:href="tile69_8.png" preserveAspectRatio="none" x="14175.65918" y="-3925.415039" width="1.098633" height="1.098633"/>
<image xlink:href="tile70_8.png" preserveAspectRatio="none" x="14176.757812" y="-3925.415039" width="1.098633" height="1.098633"/>
<image xlink:href="tile71_8.png" preserveAspectRatio="none" x="14177.856445" y="-3925.415039" width="1.098633" height="1.098633"/>
<image xlink:href="tile71_7.png" preserveAspectRatio="none" x="14177.856445" y="-3926.513672" width="1.098633" height="1.098633"/>
<image xlink:href="tile72_8.png" preserveAspectRatio="none" x="14178.955078" y="-3925.415039" width="1.098633" height="1.098633"/>
<image xlink:href="tile72_7.png" preserveAspectRatio="none" x="14178.955078" y="-3926.513672" width="1.098633" height="1.098633"/>
<image xlink:href="tile73_8.png" preserveAspectRatio="none" x="14180.053711" y="-3925.415039" width="1.098633" height="1.098633"/>
<image xlink:href="tile73_7.png" preserveAspectRatio="none" x="14180.053711" y="-3926.513672" width="1.098633" height="1.098633"/>
<image xlink:href="tile74_8.png" preserveAspectRatio="none" x="14181.152344" y="-3925.415039" width="1.098633" height="1.098633"/>
<image xlink:href="tile74_7.png" preserveAspectRatio="none" x="14181.152344" y="-3926.513672" width="1.098633" height="1.098633"/>
<image xlink:href="tile75_7.png" preserveAspectRatio="none" x="14182.250977" y="-3926.513672" width="1.098633" height="1.098633"/>
<image xlink:href="tile76_7.png" preserveAspectRatio="none" x="14183.349609" y="-3926.513672" width="1.098633" height="1.098633"/>
<image xlink:href="tile76_6.png" preserveAspectRatio="none" x="14183.349609" y="-3927.612305" width="1.098633" height="1.098633"/>
<image xlink:href="tile77_7.png" preserveAspectRatio="none" x="14184.448242" y="-3926.513672" width="1.098633" height="1.098633"/>
<image xlink:href="tile77_6.png" preserveAspectRatio="none" x="14184.448242" y="-3927.612305" width="1.098633" height="1.098633"/>
<image xlink:href="tile78_7.png" preserveAspectRatio="none" x="14185.546875" y="-3926.513672" width="1.098633" height="1.098633"/>
<image xlink:href="tile78_6.png" preserveAspectRatio="none" x="14185.546875" y="-3927.612305" width="1.098633" height="1.098633"/>
<image xlink:href="tile79_6.png" preserveAspectRatio="none" x="14186.645508" y="-3927.612305" width="1.098633" height="1.098633"/>
<image xlink:href="tile79_5.png" preserveAspectRatio="none" x="14186.645508" y="-3928.710938" width="1.098633" height="1.098633"/>
<image xlink:href="tile79_0.png" preserveAspectRatio="none" x="14186.645508" y="-3934.204102" width="1.098633" height="1.098633"/>
</g>
</svg>
