<?xml version="1.0" encoding="UTF-8"?>
<svg  xmlns="http://www.w3.org/2000/svg" xmlns:xlink="http://www.w3.org/1999/xlink" xmlns:go="http://purl.org/svgmap/profile" viewBox="14100.0 -3933.333333 89.59717269999885 66.66666600000042" go:dataArea="14100.0 -3933.333333 89.59717269999885 66.66666600000042" >
<metadata>
 <rdf:RDF xmlns:rdf="http://www.w3.org/1999/02/22-rdf-syntax-ns#" xmlns:crs="http://opengis.org/xmldtds/transformations.dtd" xmlns:svg="http://www.w3.org/svg" >
  <rdf:Description>
   <crs:CoordinateReferenceSystem rdf:resource="http://purl.org/crs/84" svg:transform="matrix(100.0,0.0,0.0,-100.0,0.0,0.0)" />
  </rdf:Description>
 </rdf:RDF>
</metadata>
<globalCoordinateSystem srsName="http://purl.org/crs/84" transform="matrix(100.0,0.0,0.0,-100.0,0.0,0.0)" />
<g >
<image xlink:href="tile0_24.png" preserveAspectRatio="none" x="14099.853516" y="-3907.836914" width="1.098633" height="1.098633"/>
<image xlink:href="tile0_23.png" preserveAspectRatio="none" x="14099.853516" y="-3908.935547" width="1.098633" height="1.098633"/>
<image xlink:href="tile0_19.png" preserveAspectRatio="none" x="14099.853516" y="-3913.330078" width="1.098633" height="1.098633"/>
<image xlink:href="tile1_24.png" preserveAspectRatio="none" x="14100.952148" y="-3907.836914" width="1.098633" height="1.098633"/>
<image xlink:href="tile1_19.png" preserveAspectRatio="none" x="14100.952148" y="-3913.330078" width="1.098633" height="1.098633"/>
<image xlink:href="tile2_25.png" preserveAspectRatio="none" x="14102.050781" y="-3906.738281" width="1.098633" height="1.098633"/>
<image xlink:href="tile2_19.png" preserveAspectRatio="none" x="14102.050781" y="-3913.330078" width="1.098633" height="1.098633"/>
<image xlink:href="tile2_18.png" preserveAspectRatio="none" x="14102.050781" y="-3914.428711" width="1.098633" height="1.098633"/>
<image xlink:href="tile3_26.png" preserveAspectRatio="none" x="14103.149414" y="-3905.639648" width="1.098633" height="1.098633"/>
<image xlink:href="tile3_25.png" preserveAspectRatio="none" x="14103.149414" y="-3906.738281" width="1.098633" height="1.098633"/>
<image xlink:href="tile3_19.png" preserveAspectRatio="none" x="14103.149414" y="-3913.330078" width="1.098633" height="1.098633"/>
<image xlink:href="tile3_18.png" preserveAspectRatio="none" x="14103.149414" y="-3914.428711" width="1.098633" height="1.098633"/>
<image xlink:href="tile3_17.png" preserveAspectRatio="none" x="14103.149414" y="-3915.527344" width="1.098633" height="1.098633"/>
<image xlink:href="tile4_27.png" preserveAspectRatio="none" x="14104.248047" y="-3904.541016" width="1.098633" height="1.098633"/>
<image xlink:href="tile4_26.png" preserveAspectRatio="none" x="14104.248047" y="-3905.639648" width="1.098633" height="1.098633"/>
<image xlink:href="tile4_19.png" preserveAspectRatio="none" x="14104.248047" y="-3913.330078" width="1.098633" height="1.098633"/>
<image xlink:href="tile4_18.png" preserveAspectRatio="none" x="14104.248047" y="-3914.428711" width="1.098633" height="1.098633"/>
<image xlink:href="tile4_17.png" preserveAspectRatio="none" x="14104.248047" y="-3915.527344" width="1.098633" height="1.098633"/>
<image xlink:href="tile5_28.png" preserveAspectRatio="none" x="14105.34668" y="-3903.442383" width="1.098633" height="1.098633"/>
<image xlink:href="tile5_27.png" preserveAspectRatio="none" x="14105.34668" y="-3904.541016" width="1.098633" height="1.098633"/>
<image xlink:href="tile5_18.png" preserveAspectRatio="none" x="14105.34668" y="-3914.428711" width="1.098633" height="1.098633"/>
<image xlink:href="tile5_17.png" preserveAspectRatio="none" x="14105.34668" y="-3915.527344" width="1.098633" height="1.098633"/>
<image xlink:href="tile5_16.png" preserveAspectRatio="none" x="14105.34668" y="-3916.625977" width="1.098633" height="1.098633"/>
<image xlink:href="tile6_29.png" preserveAspectRatio="none" x="14106.445312" y="-3902.34375" width="1.098633" height="1.098633"/>
<image xlink:href="tile6_28.png" preserveAspectRatio="none" x="14106.445312" y="-3903.442383" width="1.098633" height="1.098633"/>
<image xlink:href="tile6_27.png" preserveAspectRatio="none" x="14106.445312" y="-3904.541016" width="1.098633" height="1.098633"/>
<image xlink:href="tile6_18.png" preserveAspectRatio="none" x="14106.445312" y="-3914.428711" width="1.098633" height="1.098633"/>
<image xlink:href="tile6_17.png" preserveAspectRatio="none" x="14106.445312" y="-3915.527344" width="1.098633" height="1.098633"/>
<image xlink:href="tile6_16.png" preserveAspectRatio="none" x="14106.445312" y="-3916.625977" width="1.098633" height="1.098633"/>
<image xlink:href="tile7_29.png" preserveAspectRatio="none" x="14107.543945" y="-3902.34375" width="1.098633" height="1.098633"/>
<image xlink:href="tile7_28.png" preserveAspectRatio="none" x="14107.543945" y="-3903.442383" width="1.098633" height="1.098633"/>
<image xlink:href="tile7_17.png" preserveAspectRatio="none" x="14107.543945" y="-3915.527344" width="1.098633" height="1.098633"/>
<image xlink:href="tile7_16.png" preserveAspectRatio="none" x="14107.543945" y="-3916.625977" width="1.098633" height="1.098633"/>
<image xlink:href="tile7_15.png" preserveAspectRatio="none" x="14107.543945" y="-3917.724609" width="1.098633" height="1.098633"/>
<image xlink:href="tile8_29.png" preserveAspectRatio="none" x="14108.642578" y="-3902.34375" width="1.098633" height="1.098633"/>
<image xlink:href="tile8_17.png" preserveAspectRatio="none" x="14108.642578" y="-3915.527344" width="1.098633" height="1.098633"/>
<image xlink:href="tile8_16.png" preserveAspectRatio="none" x="14108.642578" y="-3916.625977" width="1.098633" height="1.098633"/>
<image xlink:href="tile8_15.png" preserveAspectRatio="none" x="14108.642578" y="-3917.724609" width="1.098633" height="1.098633"/>
<image xlink:href="tile8_14.png" preserveAspectRatio="none" x="14108.642578" y="-3918.823242" width="1.098633" height="1.098633"/>
<image xlink:href="tile9_29.png" preserveAspectRatio="none" x="14109.741211" y="-3902.34375" width="1.098633" height="1.098633"/>
<image xlink:href="tile9_17.png" preserveAspectRatio="none" x="14109.741211" y="-3915.527344" width="1.098633" height="1.098633"/>
<image xlink:href="tile9_16.png" preserveAspectRatio="none" x="14109.741211" y="-3916.625977" width="1.098633" height="1.098633"/>
<image xlink:href="tile9_15.png" preserveAspectRatio="none" x="14109.741211" y="-3917.724609" width="1.098633" height="1.098633"/>
<image xlink:href="tile9_14.png" preserveAspectRatio="none" x="14109.741211" y="-3918.823242" width="1.098633" height="1.098633"/>
<image xlink:href="tile10_29.png" preserveAspectRatio="none" x="14110.839844" y="-3902.34375" width="1.098633" height="1.098633"/>
<image xlink:href="tile10_27.png" preserveAspectRatio="none" x="14110.839844" y="-3904.541016" width="1.098633" height="1.098633"/>
<image xlink:href="tile10_17.png" preserveAspectRatio="none" x="14110.839844" y="-3915.527344" width="1.098633" height="1.098633"/>
<image xlink:href="tile10_16.png" preserveAspectRatio="none" x="14110.839844" y="-3916.625977" width="1.098633" height="1.098633"/>
<image xlink:href="tile10_15.png" preserveAspectRatio="none" x="14110.839844" y="-3917.724609" width="1.098633" height="1.098633"/>
<image xlink:href="tile10_14.png" preserveAspectRatio="none" x="14110.839844" y="-3918.823242" width="1.098633" height="1.098633"/>
<image xlink:href="tile11_29.png" preserveAspectRatio="none" x="14111.938477" y="-3902.34375" width="1.098633" height="1.098633"/>
<image xlink:href="tile11_28.png" preserveAspectRatio="none" x="14111.938477" y="-3903.442383" width="1.098633" height="1.098633"/>
<image xlink:href="tile11_27.png" preserveAspectRatio="none" x="14111.938477" y="-3904.541016" width="1.098633" height="1.098633"/>
<image xlink:href="tile11_26.png" preserveAspectRatio="none" x="14111.938477" y="-3905.639648" width="1.098633" height="1.098633"/>
<image xlink:href="tile11_25.png" preserveAspectRatio="none" x="14111.938477" y="-3906.738281" width="1.098633" height="1.098633"/>
<image xlink:href="tile11_17.png" preserveAspectRatio="none" x="14111.938477" y="-3915.527344" width="1.098633" height="1.098633"/>
<image xlink:href="tile11_16.png" preserveAspectRatio="none" x="14111.938477" y="-3916.625977" width="1.098633" height="1.098633"/>
<image xlink:href="tile11_15.png" preserveAspectRatio="none" x="14111.938477" y="-3917.724609" width="1.098633" height="1.098633"/>
<image xlink:href="tile11_14.png" preserveAspectRatio="none" x="14111.938477" y="-3918.823242" width="1.098633" height="1.098633"/>
<image xlink:href="tile12_29.png" preserveAspectRatio="none" x="14113.037109" y="-3902.34375" width="1.098633" height="1.098633"/>
<image xlink:href="tile12_28.png" preserveAspectRatio="none" x="14113.037109" y="-3903.442383" width="1.098633" height="1.098633"/>
<image xlink:href="tile12_27.png" preserveAspectRatio="none" x="14113.037109" y="-3904.541016" width="1.098633" height="1.098633"/>
<image xlink:href="tile12_26.png" preserveAspectRatio="none" x="14113.037109" y="-3905.639648" width="1.098633" height="1.098633"/>
<image xlink:href="tile12_25.png" preserveAspectRatio="none" x="14113.037109" y="-3906.738281" width="1.098633" height="1.098633"/>
<image xlink:href="tile12_17.png" preserveAspectRatio="none" x="14113.037109" y="-3915.527344" width="1.098633" height="1.098633"/>
<image xlink:href="tile12_16.png" preserveAspectRatio="none" x="14113.037109" y="-3916.625977" width="1.098633" height="1.098633"/>
<image xlink:href="tile12_15.png" preserveAspectRatio="none" x="14113.037109" y="-3917.724609" width="1.098633" height="1.098633"/>
<image xlink:href="tile12_14.png" preserveAspectRatio="none" x="14113.037109" y="-3918.823242" width="1.098633" height="1.098633"/>
<image xlink:href="tile13_29.png" preserveAspectRatio="none" x="14114.135742" y="-3902.34375" width="1.098633" height="1.098633"/>
<image xlink:href="tile13_28.png" preserveAspectRatio="none" x="14114.135742" y="-3903.442383" width="1.098633" height="1.098633"/>
<image xlink:href="tile13_27.png" preserveAspectRatio="none" x="14114.135742" y="-3904.541016" width="1.098633" height="1.098633"/>
<image xlink:href="tile13_26.png" preserveAspectRatio="none" x="14114.135742" y="-3905.639648" width="1.098633" height="1.098633"/>
<image xlink:href="tile13_25.png" preserveAspectRatio="none" x="14114.135742" y="-3906.738281" width="1.098633" height="1.098633"/>
<image xlink:href="tile13_24.png" preserveAspectRatio="none" x="14114.135742" y="-3907.836914" width="1.098633" height="1.098633"/>
<image xlink:href="tile13_23.png" preserveAspectRatio="none" x="14114.135742" y="-3908.935547" width="1.098633" height="1.098633"/>
<image xlink:href="tile13_17.png" preserveAspectRatio="none" x="14114.135742" y="-3915.527344" width="1.098633" height="1.098633"/>
<image xlink:href="tile13_16.png" preserveAspectRatio="none" x="14114.135742" y="-3916.625977" width="1.098633" height="1.098633"/>
<image xlink:href="tile13_15.png" preserveAspectRatio="none" x="14114.135742" y="-3917.724609" width="1.098633" height="1.098633"/>
<image xlink:href="tile13_14.png" preserveAspectRatio="none" x="14114.135742" y="-3918.823242" width="1.098633" height="1.098633"/>
<image xlink:href="tile14_27.png" preserveAspectRatio="none" x="14115.234375" y="-3904.541016" width="1.098633" height="1.098633"/>
<image xlink:href="tile14_26.png" preserveAspectRatio="none" x="14115.234375" y="-3905.639648" width="1.098633" height="1.098633"/>
<image xlink:href="tile14_25.png" preserveAspectRatio="none" x="14115.234375" y="-3906.738281" width="1.098633" height="1.098633"/>
<image xlink:href="tile14_24.png" preserveAspectRatio="none" x="14115.234375" y="-3907.836914" width="1.098633" height="1.098633"/>
<image xlink:href="tile14_23.png" preserveAspectRatio="none" x="14115.234375" y="-3908.935547" width="1.098633" height="1.098633"/>
<image xlink:href="tile14_22.png" preserveAspectRatio="none" x="14115.234375" y="-3910.03418" width="1.098633" height="1.098633"/>
<image xlink:href="tile14_21.png" preserveAspectRatio="none" x="14115.234375" y="-3911.132812" width="1.098633" height="1.098633"/>
<image xlink:href="tile14_20.png" preserveAspectRatio="none" x="14115.234375" y="-3912.231445" width="1.098633" height="1.098633"/>
<image xlink:href="tile14_18.png" preserveAspectRatio="none" x="14115.234375" y="-3914.428711" width="1.098633" height="1.098633"/>
<image xlink:href="tile14_17.png" preserveAspectRatio="none" x="14115.234375" y="-3915.527344" width="1.098633" height="1.098633"/>
<image xlink:href="tile14_16.png" preserveAspectRatio="none" x="14115.234375" y="-3916.625977" width="1.098633" height="1.098633"/>
<image xlink:href="tile14_15.png" preserveAspectRatio="none" x="14115.234375" y="-3917.724609" width="1.098633" height="1.098633"/>
<image xlink:href="tile14_14.png" preserveAspectRatio="none" x="14115.234375" y="-3918.823242" width="1.098633" height="1.098633"/>
<image xlink:href="tile15_26.png" preserveAspectRatio="none" x="14116.333008" y="-3905.639648" width="1.098633" height="1.098633"/>
<image xlink:href="tile15_25.png" preserveAspectRatio="none" x="14116.333008" y="-3906.738281" width="1.098633" height="1.098633"/>
<image xlink:href="tile15_24.png" preserveAspectRatio="none" x="14116.333008" y="-3907.836914" width="1.098633" height="1.098633"/>
<image xlink:href="tile15_23.png" preserveAspectRatio="none" x="14116.333008" y="-3908.935547" width="1.098633" height="1.098633"/>
<image xlink:href="tile15_22.png" preserveAspectRatio="none" x="14116.333008" y="-3910.03418" width="1.098633" height="1.098633"/>
<image xlink:href="tile15_21.png" preserveAspectRatio="none" x="14116.333008" y="-3911.132812" width="1.098633" height="1.098633"/>
<image xlink:href="tile15_20.png" preserveAspectRatio="none" x="14116.333008" y="-3912.231445" width="1.098633" height="1.098633"/>
<image xlink:href="tile15_19.png" preserveAspectRatio="none" x="14116.333008" y="-3913.330078" width="1.098633" height="1.098633"/>
<image xlink:href="tile15_18.png" preserveAspectRatio="none" x="14116.333008" y="-3914.428711" width="1.098633" height="1.098633"/>
<image xlink:href="tile15_17.png" preserveAspectRatio="none" x="14116.333008" y="-3915.527344" width="1.098633" height="1.098633"/>
<image xlink:href="tile15_16.png" preserveAspectRatio="none" x="14116.333008" y="-3916.625977" width="1.098633" height="1.098633"/>
<image xlink:href="tile15_15.png" preserveAspectRatio="none" x="14116.333008" y="-3917.724609" width="1.098633" height="1.098633"/>
<image xlink:href="tile15_14.png" preserveAspectRatio="none" x="14116.333008" y="-3918.823242" width="1.098633" height="1.098633"/>
</g>
</svg>
