<?xml version="1.0" encoding="UTF-8"?>
<svg  xmlns="http://www.w3.org/2000/svg" xmlns:xlink="http://www.w3.org/1999/xlink" xmlns:go="http://purl.org/svgmap/profile" viewBox="14100.0 -3933.333333 89.59717269999885 66.66666600000042" go:dataArea="14100.0 -3933.333333 89.59717269999885 66.66666600000042" >
<metadata>
 <rdf:RDF xmlns:rdf="http://www.w3.org/1999/02/22-rdf-syntax-ns#" xmlns:crs="http://opengis.org/xmldtds/transformations.dtd" xmlns:svg="http://www.w3.org/svg" >
  <rdf:Description>
   <crs:CoordinateReferenceSystem rdf:resource="http://purl.org/crs/84" svg:transform="matrix(100.0,0.0,0.0,-100.0,0.0,0.0)" />
  </rdf:Description>
 </rdf:RDF>
</metadata>
<globalCoordinateSystem srsName="http://purl.org/crs/84" transform="matrix(100.0,0.0,0.0,-100.0,0.0,0.0)" />
<g >
<image xlink:href="tile16_37.png" preserveAspectRatio="none" x="14117.431641" y="-3893.554688" width="1.098633" height="1.098633"/>
<image xlink:href="tile16_36.png" preserveAspectRatio="none" x="14117.431641" y="-3894.65332" width="1.098633" height="1.098633"/>
<image xlink:href="tile16_35.png" preserveAspectRatio="none" x="14117.431641" y="-3895.751953" width="1.098633" height="1.098633"/>
<image xlink:href="tile17_35.png" preserveAspectRatio="none" x="14118.530273" y="-3895.751953" width="1.098633" height="1.098633"/>
<image xlink:href="tile18_36.png" preserveAspectRatio="none" x="14119.628906" y="-3894.65332" width="1.098633" height="1.098633"/>
<image xlink:href="tile18_35.png" preserveAspectRatio="none" x="14119.628906" y="-3895.751953" width="1.098633" height="1.098633"/>
<image xlink:href="tile19_36.png" preserveAspectRatio="none" x="14120.727539" y="-3894.65332" width="1.098633" height="1.098633"/>
<image xlink:href="tile19_35.png" preserveAspectRatio="none" x="14120.727539" y="-3895.751953" width="1.098633" height="1.098633"/>
<image xlink:href="tile20_39.png" preserveAspectRatio="none" x="14121.826172" y="-3891.357422" width="1.098633" height="1.098633"/>
<image xlink:href="tile20_38.png" preserveAspectRatio="none" x="14121.826172" y="-3892.456055" width="1.098633" height="1.098633"/>
<image xlink:href="tile20_36.png" preserveAspectRatio="none" x="14121.826172" y="-3894.65332" width="1.098633" height="1.098633"/>
<image xlink:href="tile21_45.png" preserveAspectRatio="none" x="14122.924805" y="-3884.765625" width="1.098633" height="1.098633"/>
<image xlink:href="tile21_44.png" preserveAspectRatio="none" x="14122.924805" y="-3885.864258" width="1.098633" height="1.098633"/>
<image xlink:href="tile21_39.png" preserveAspectRatio="none" x="14122.924805" y="-3891.357422" width="1.098633" height="1.098633"/>
<image xlink:href="tile21_38.png" preserveAspectRatio="none" x="14122.924805" y="-3892.456055" width="1.098633" height="1.098633"/>
<image xlink:href="tile21_34.png" preserveAspectRatio="none" x="14122.924805" y="-3896.850586" width="1.098633" height="1.098633"/>
<image xlink:href="tile21_33.png" preserveAspectRatio="none" x="14122.924805" y="-3897.949219" width="1.098633" height="1.098633"/>
<image xlink:href="tile21_32.png" preserveAspectRatio="none" x="14122.924805" y="-3899.047852" width="1.098633" height="1.098633"/>
<image xlink:href="tile22_45.png" preserveAspectRatio="none" x="14124.023438" y="-3884.765625" width="1.098633" height="1.098633"/>
<image xlink:href="tile22_44.png" preserveAspectRatio="none" x="14124.023438" y="-3885.864258" width="1.098633" height="1.098633"/>
<image xlink:href="tile22_42.png" preserveAspectRatio="none" x="14124.023438" y="-3888.061523" width="1.098633" height="1.098633"/>
<image xlink:href="tile22_41.png" preserveAspectRatio="none" x="14124.023438" y="-3889.160156" width="1.098633" height="1.098633"/>
<image xlink:href="tile22_40.png" preserveAspectRatio="none" x="14124.023438" y="-3890.258789" width="1.098633" height="1.098633"/>
<image xlink:href="tile22_39.png" preserveAspectRatio="none" x="14124.023438" y="-3891.357422" width="1.098633" height="1.098633"/>
<image xlink:href="tile22_38.png" preserveAspectRatio="none" x="14124.023438" y="-3892.456055" width="1.098633" height="1.098633"/>
<image xlink:href="tile22_37.png" preserveAspectRatio="none" x="14124.023438" y="-3893.554688" width="1.098633" height="1.098633"/>
<image xlink:href="tile22_36.png" preserveAspectRatio="none" x="14124.023438" y="-3894.65332" width="1.098633" height="1.098633"/>
<image xlink:href="tile22_35.png" preserveAspectRatio="none" x="14124.023438" y="-3895.751953" width="1.098633" height="1.098633"/>
<image xlink:href="tile22_34.png" preserveAspectRatio="none" x="14124.023438" y="-3896.850586" width="1.098633" height="1.098633"/>
<image xlink:href="tile22_33.png" preserveAspectRatio="none" x="14124.023438" y="-3897.949219" width="1.098633" height="1.098633"/>
<image xlink:href="tile22_32.png" preserveAspectRatio="none" x="14124.023438" y="-3899.047852" width="1.098633" height="1.098633"/>
<image xlink:href="tile22_31.png" preserveAspectRatio="none" x="14124.023438" y="-3900.146484" width="1.098633" height="1.098633"/>
<image xlink:href="tile23_45.png" preserveAspectRatio="none" x="14125.12207" y="-3884.765625" width="1.098633" height="1.098633"/>
<image xlink:href="tile23_44.png" preserveAspectRatio="none" x="14125.12207" y="-3885.864258" width="1.098633" height="1.098633"/>
<image xlink:href="tile23_43.png" preserveAspectRatio="none" x="14125.12207" y="-3886.962891" width="1.098633" height="1.098633"/>
<image xlink:href="tile23_42.png" preserveAspectRatio="none" x="14125.12207" y="-3888.061523" width="1.098633" height="1.098633"/>
<image xlink:href="tile23_41.png" preserveAspectRatio="none" x="14125.12207" y="-3889.160156" width="1.098633" height="1.098633"/>
<image xlink:href="tile23_40.png" preserveAspectRatio="none" x="14125.12207" y="-3890.258789" width="1.098633" height="1.098633"/>
<image xlink:href="tile23_39.png" preserveAspectRatio="none" x="14125.12207" y="-3891.357422" width="1.098633" height="1.098633"/>
<image xlink:href="tile23_38.png" preserveAspectRatio="none" x="14125.12207" y="-3892.456055" width="1.098633" height="1.098633"/>
<image xlink:href="tile23_37.png" preserveAspectRatio="none" x="14125.12207" y="-3893.554688" width="1.098633" height="1.098633"/>
<image xlink:href="tile23_36.png" preserveAspectRatio="none" x="14125.12207" y="-3894.65332" width="1.098633" height="1.098633"/>
<image xlink:href="tile23_35.png" preserveAspectRatio="none" x="14125.12207" y="-3895.751953" width="1.098633" height="1.098633"/>
<image xlink:href="tile23_34.png" preserveAspectRatio="none" x="14125.12207" y="-3896.850586" width="1.098633" height="1.098633"/>
<image xlink:href="tile23_32.png" preserveAspectRatio="none" x="14125.12207" y="-3899.047852" width="1.098633" height="1.098633"/>
<image xlink:href="tile23_31.png" preserveAspectRatio="none" x="14125.12207" y="-3900.146484" width="1.098633" height="1.098633"/>
<image xlink:href="tile23_30.png" preserveAspectRatio="none" x="14125.12207" y="-3901.245117" width="1.098633" height="1.098633"/>
<image xlink:href="tile24_45.png" preserveAspectRatio="none" x="14126.220703" y="-3884.765625" width="1.098633" height="1.098633"/>
<image xlink:href="tile24_44.png" preserveAspectRatio="none" x="14126.220703" y="-3885.864258" width="1.098633" height="1.098633"/>
<image xlink:href="tile24_43.png" preserveAspectRatio="none" x="14126.220703" y="-3886.962891" width="1.098633" height="1.098633"/>
<image xlink:href="tile24_42.png" preserveAspectRatio="none" x="14126.220703" y="-3888.061523" width="1.098633" height="1.098633"/>
<image xlink:href="tile24_41.png" preserveAspectRatio="none" x="14126.220703" y="-3889.160156" width="1.098633" height="1.098633"/>
<image xlink:href="tile24_40.png" preserveAspectRatio="none" x="14126.220703" y="-3890.258789" width="1.098633" height="1.098633"/>
<image xlink:href="tile24_39.png" preserveAspectRatio="none" x="14126.220703" y="-3891.357422" width="1.098633" height="1.098633"/>
<image xlink:href="tile24_37.png" preserveAspectRatio="none" x="14126.220703" y="-3893.554688" width="1.098633" height="1.098633"/>
<image xlink:href="tile24_30.png" preserveAspectRatio="none" x="14126.220703" y="-3901.245117" width="1.098633" height="1.098633"/>
<image xlink:href="tile25_45.png" preserveAspectRatio="none" x="14127.319336" y="-3884.765625" width="1.098633" height="1.098633"/>
<image xlink:href="tile25_44.png" preserveAspectRatio="none" x="14127.319336" y="-3885.864258" width="1.098633" height="1.098633"/>
<image xlink:href="tile25_43.png" preserveAspectRatio="none" x="14127.319336" y="-3886.962891" width="1.098633" height="1.098633"/>
<image xlink:href="tile25_41.png" preserveAspectRatio="none" x="14127.319336" y="-3889.160156" width="1.098633" height="1.098633"/>
<image xlink:href="tile25_40.png" preserveAspectRatio="none" x="14127.319336" y="-3890.258789" width="1.098633" height="1.098633"/>
<image xlink:href="tile25_39.png" preserveAspectRatio="none" x="14127.319336" y="-3891.357422" width="1.098633" height="1.098633"/>
<image xlink:href="tile25_32.png" preserveAspectRatio="none" x="14127.319336" y="-3899.047852" width="1.098633" height="1.098633"/>
<image xlink:href="tile25_31.png" preserveAspectRatio="none" x="14127.319336" y="-3900.146484" width="1.098633" height="1.098633"/>
<image xlink:href="tile26_45.png" preserveAspectRatio="none" x="14128.417969" y="-3884.765625" width="1.098633" height="1.098633"/>
<image xlink:href="tile26_44.png" preserveAspectRatio="none" x="14128.417969" y="-3885.864258" width="1.098633" height="1.098633"/>
<image xlink:href="tile26_43.png" preserveAspectRatio="none" x="14128.417969" y="-3886.962891" width="1.098633" height="1.098633"/>
<image xlink:href="tile26_40.png" preserveAspectRatio="none" x="14128.417969" y="-3890.258789" width="1.098633" height="1.098633"/>
<image xlink:href="tile26_39.png" preserveAspectRatio="none" x="14128.417969" y="-3891.357422" width="1.098633" height="1.098633"/>
<image xlink:href="tile26_32.png" preserveAspectRatio="none" x="14128.417969" y="-3899.047852" width="1.098633" height="1.098633"/>
<image xlink:href="tile26_31.png" preserveAspectRatio="none" x="14128.417969" y="-3900.146484" width="1.098633" height="1.098633"/>
<image xlink:href="tile27_45.png" preserveAspectRatio="none" x="14129.516602" y="-3884.765625" width="1.098633" height="1.098633"/>
<image xlink:href="tile27_44.png" preserveAspectRatio="none" x="14129.516602" y="-3885.864258" width="1.098633" height="1.098633"/>
<image xlink:href="tile27_40.png" preserveAspectRatio="none" x="14129.516602" y="-3890.258789" width="1.098633" height="1.098633"/>
<image xlink:href="tile27_31.png" preserveAspectRatio="none" x="14129.516602" y="-3900.146484" width="1.098633" height="1.098633"/>
<image xlink:href="tile28_40.png" preserveAspectRatio="none" x="14130.615234" y="-3890.258789" width="1.098633" height="1.098633"/>
<image xlink:href="tile28_31.png" preserveAspectRatio="none" x="14130.615234" y="-3900.146484" width="1.098633" height="1.098633"/>
<image xlink:href="tile28_30.png" preserveAspectRatio="none" x="14130.615234" y="-3901.245117" width="1.098633" height="1.098633"/>
<image xlink:href="tile29_40.png" preserveAspectRatio="none" x="14131.713867" y="-3890.258789" width="1.098633" height="1.098633"/>
<image xlink:href="tile29_39.png" preserveAspectRatio="none" x="14131.713867" y="-3891.357422" width="1.098633" height="1.098633"/>
<image xlink:href="tile29_38.png" preserveAspectRatio="none" x="14131.713867" y="-3892.456055" width="1.098633" height="1.098633"/>
<image xlink:href="tile29_31.png" preserveAspectRatio="none" x="14131.713867" y="-3900.146484" width="1.098633" height="1.098633"/>
<image xlink:href="tile30_39.png" preserveAspectRatio="none" x="14132.8125" y="-3891.357422" width="1.098633" height="1.098633"/>
<image xlink:href="tile30_38.png" preserveAspectRatio="none" x="14132.8125" y="-3892.456055" width="1.098633" height="1.098633"/>
<image xlink:href="tile30_37.png" preserveAspectRatio="none" x="14132.8125" y="-3893.554688" width="1.098633" height="1.098633"/>
<image xlink:href="tile30_31.png" preserveAspectRatio="none" x="14132.8125" y="-3900.146484" width="1.098633" height="1.098633"/>
<image xlink:href="tile31_38.png" preserveAspectRatio="none" x="14133.911133" y="-3892.456055" width="1.098633" height="1.098633"/>
<image xlink:href="tile31_37.png" preserveAspectRatio="none" x="14133.911133" y="-3893.554688" width="1.098633" height="1.098633"/>
<image xlink:href="tile31_36.png" preserveAspectRatio="none" x="14133.911133" y="-3894.65332" width="1.098633" height="1.098633"/>
<image xlink:href="tile31_35.png" preserveAspectRatio="none" x="14133.911133" y="-3895.751953" width="1.098633" height="1.098633"/>
<image xlink:href="tile31_31.png" preserveAspectRatio="none" x="14133.911133" y="-3900.146484" width="1.098633" height="1.098633"/>
</g>
</svg>
