<?xml version="1.0" encoding="UTF-8"?>
<svg  xmlns="http://www.w3.org/2000/svg" xmlns:xlink="http://www.w3.org/1999/xlink" xmlns:go="http://purl.org/svgmap/profile" viewBox="14500.0 -4369.8791667000005 13.606250000000841 13.504166700000297" go:dataArea="14500.0 -4369.8791667000005 13.606250000000841 13.504166700000297" >
<metadata>
 <rdf:RDF xmlns:rdf="http://www.w3.org/1999/02/22-rdf-syntax-ns#" xmlns:crs="http://opengis.org/xmldtds/transformations.dtd" xmlns:svg="http://www.w3.org/svg" >
  <rdf:Description>
   <crs:CoordinateReferenceSystem rdf:resource="http://purl.org/crs/84" svg:transform="matrix(100.0,0.0,0.0,-100.0,0.0,0.0)" />
  </rdf:Description>
 </rdf:RDF>
</metadata>
<globalCoordinateSystem srsName="http://purl.org/crs/84" transform="matrix(100.0,0.0,0.0,-100.0,0.0,0.0)" />
<g >
<image xlink:href="tile0_6.png" preserveAspectRatio="none" x="14499.755859" y="-4357.177734" width="2.197266" height="2.197266"/>
<image xlink:href="tile0_5.png" preserveAspectRatio="none" x="14499.755859" y="-4359.375" width="2.197266" height="2.197266"/>
<image xlink:href="tile0_4.png" preserveAspectRatio="none" x="14499.755859" y="-4361.572266" width="2.197266" height="2.197266"/>
<image xlink:href="tile1_5.png" preserveAspectRatio="none" x="14501.953125" y="-4359.375" width="2.197266" height="2.197266"/>
<image xlink:href="tile1_4.png" preserveAspectRatio="none" x="14501.953125" y="-4361.572266" width="2.197266" height="2.197266"/>
<image xlink:href="tile1_3.png" preserveAspectRatio="none" x="14501.953125" y="-4363.769531" width="2.197266" height="2.197266"/>
<image xlink:href="tile1_2.png" preserveAspectRatio="none" x="14501.953125" y="-4365.966797" width="2.197266" height="2.197266"/>
<image xlink:href="tile2_5.png" preserveAspectRatio="none" x="14504.150391" y="-4359.375" width="2.197266" height="2.197266"/>
<image xlink:href="tile2_4.png" preserveAspectRatio="none" x="14504.150391" y="-4361.572266" width="2.197266" height="2.197266"/>
<image xlink:href="tile2_3.png" preserveAspectRatio="none" x="14504.150391" y="-4363.769531" width="2.197266" height="2.197266"/>
<image xlink:href="tile2_2.png" preserveAspectRatio="none" x="14504.150391" y="-4365.966797" width="2.197266" height="2.197266"/>
<image xlink:href="tile3_4.png" preserveAspectRatio="none" x="14506.347656" y="-4361.572266" width="2.197266" height="2.197266"/>
<image xlink:href="tile3_3.png" preserveAspectRatio="none" x="14506.347656" y="-4363.769531" width="2.197266" height="2.197266"/>
<image xlink:href="tile3_2.png" preserveAspectRatio="none" x="14506.347656" y="-4365.966797" width="2.197266" height="2.197266"/>
<image xlink:href="tile4_3.png" preserveAspectRatio="none" x="14508.544922" y="-4363.769531" width="2.197266" height="2.197266"/>
<image xlink:href="tile4_2.png" preserveAspectRatio="none" x="14508.544922" y="-4365.966797" width="2.197266" height="2.197266"/>
<image xlink:href="tile4_1.png" preserveAspectRatio="none" x="14508.544922" y="-4368.164062" width="2.197266" height="2.197266"/>
<image xlink:href="tile4_0.png" preserveAspectRatio="none" x="14508.544922" y="-4370.361328" width="2.197266" height="2.197266"/>
<image xlink:href="tile5_2.png" preserveAspectRatio="none" x="14510.742188" y="-4365.966797" width="2.197266" height="2.197266"/>
<image xlink:href="tile5_1.png" preserveAspectRatio="none" x="14510.742188" y="-4368.164062" width="2.197266" height="2.197266"/>
<image xlink:href="tile5_0.png" preserveAspectRatio="none" x="14510.742188" y="-4370.361328" width="2.197266" height="2.197266"/>
<image xlink:href="tile6_2.png" preserveAspectRatio="none" x="14512.939453" y="-4365.966797" width="2.197266" height="2.197266"/>
<image xlink:href="tile6_1.png" preserveAspectRatio="none" x="14512.939453" y="-4368.164062" width="2.197266" height="2.197266"/>
</g>
</svg>
