<?xml version="1.0" encoding="UTF-8"?>
<svg  xmlns="http://www.w3.org/2000/svg" xmlns:xlink="http://www.w3.org/1999/xlink" xmlns:go="http://purl.org/svgmap/profile" viewBox="13831.719589100001 -3800.0 68.28041089999886 61.48345000000006" go:dataArea="13831.719589100001 -3800.0 68.28041089999886 61.48345000000006" >
<metadata>
 <rdf:RDF xmlns:rdf="http://www.w3.org/1999/02/22-rdf-syntax-ns#" xmlns:crs="http://opengis.org/xmldtds/transformations.dtd" xmlns:svg="http://www.w3.org/svg" >
  <rdf:Description>
   <crs:CoordinateReferenceSystem rdf:resource="http://purl.org/crs/84" svg:transform="matrix(100.0,0.0,0.0,-100.0,0.0,0.0)" />
  </rdf:Description>
 </rdf:RDF>
</metadata>
<globalCoordinateSystem srsName="http://purl.org/crs/84" transform="matrix(100.0,0.0,0.0,-100.0,0.0,0.0)" />
<g >
<image xlink:href="tile48_35.png" preserveAspectRatio="none" x="13883.422852" y="-3761.71875" width="1.098633" height="1.098633"/>
<image xlink:href="tile48_34.png" preserveAspectRatio="none" x="13883.422852" y="-3762.817383" width="1.098633" height="1.098633"/>
<image xlink:href="tile48_33.png" preserveAspectRatio="none" x="13883.422852" y="-3763.916016" width="1.098633" height="1.098633"/>
<image xlink:href="tile48_32.png" preserveAspectRatio="none" x="13883.422852" y="-3765.014648" width="1.098633" height="1.098633"/>
<image xlink:href="tile48_30.png" preserveAspectRatio="none" x="13883.422852" y="-3767.211914" width="1.098633" height="1.098633"/>
<image xlink:href="tile48_29.png" preserveAspectRatio="none" x="13883.422852" y="-3768.310547" width="1.098633" height="1.098633"/>
<image xlink:href="tile48_28.png" preserveAspectRatio="none" x="13883.422852" y="-3769.40918" width="1.098633" height="1.098633"/>
<image xlink:href="tile48_27.png" preserveAspectRatio="none" x="13883.422852" y="-3770.507812" width="1.098633" height="1.098633"/>
<image xlink:href="tile48_26.png" preserveAspectRatio="none" x="13883.422852" y="-3771.606445" width="1.098633" height="1.098633"/>
<image xlink:href="tile48_25.png" preserveAspectRatio="none" x="13883.422852" y="-3772.705078" width="1.098633" height="1.098633"/>
<image xlink:href="tile49_35.png" preserveAspectRatio="none" x="13884.521484" y="-3761.71875" width="1.098633" height="1.098633"/>
<image xlink:href="tile49_34.png" preserveAspectRatio="none" x="13884.521484" y="-3762.817383" width="1.098633" height="1.098633"/>
<image xlink:href="tile49_33.png" preserveAspectRatio="none" x="13884.521484" y="-3763.916016" width="1.098633" height="1.098633"/>
<image xlink:href="tile49_32.png" preserveAspectRatio="none" x="13884.521484" y="-3765.014648" width="1.098633" height="1.098633"/>
<image xlink:href="tile49_29.png" preserveAspectRatio="none" x="13884.521484" y="-3768.310547" width="1.098633" height="1.098633"/>
<image xlink:href="tile49_28.png" preserveAspectRatio="none" x="13884.521484" y="-3769.40918" width="1.098633" height="1.098633"/>
<image xlink:href="tile49_27.png" preserveAspectRatio="none" x="13884.521484" y="-3770.507812" width="1.098633" height="1.098633"/>
<image xlink:href="tile49_26.png" preserveAspectRatio="none" x="13884.521484" y="-3771.606445" width="1.098633" height="1.098633"/>
<image xlink:href="tile49_25.png" preserveAspectRatio="none" x="13884.521484" y="-3772.705078" width="1.098633" height="1.098633"/>
<image xlink:href="tile50_35.png" preserveAspectRatio="none" x="13885.620117" y="-3761.71875" width="1.098633" height="1.098633"/>
<image xlink:href="tile50_34.png" preserveAspectRatio="none" x="13885.620117" y="-3762.817383" width="1.098633" height="1.098633"/>
<image xlink:href="tile50_33.png" preserveAspectRatio="none" x="13885.620117" y="-3763.916016" width="1.098633" height="1.098633"/>
<image xlink:href="tile50_32.png" preserveAspectRatio="none" x="13885.620117" y="-3765.014648" width="1.098633" height="1.098633"/>
<image xlink:href="tile50_31.png" preserveAspectRatio="none" x="13885.620117" y="-3766.113281" width="1.098633" height="1.098633"/>
<image xlink:href="tile50_29.png" preserveAspectRatio="none" x="13885.620117" y="-3768.310547" width="1.098633" height="1.098633"/>
<image xlink:href="tile50_28.png" preserveAspectRatio="none" x="13885.620117" y="-3769.40918" width="1.098633" height="1.098633"/>
<image xlink:href="tile50_27.png" preserveAspectRatio="none" x="13885.620117" y="-3770.507812" width="1.098633" height="1.098633"/>
<image xlink:href="tile50_26.png" preserveAspectRatio="none" x="13885.620117" y="-3771.606445" width="1.098633" height="1.098633"/>
<image xlink:href="tile50_25.png" preserveAspectRatio="none" x="13885.620117" y="-3772.705078" width="1.098633" height="1.098633"/>
<image xlink:href="tile51_34.png" preserveAspectRatio="none" x="13886.71875" y="-3762.817383" width="1.098633" height="1.098633"/>
<image xlink:href="tile51_33.png" preserveAspectRatio="none" x="13886.71875" y="-3763.916016" width="1.098633" height="1.098633"/>
<image xlink:href="tile51_32.png" preserveAspectRatio="none" x="13886.71875" y="-3765.014648" width="1.098633" height="1.098633"/>
<image xlink:href="tile51_31.png" preserveAspectRatio="none" x="13886.71875" y="-3766.113281" width="1.098633" height="1.098633"/>
<image xlink:href="tile51_30.png" preserveAspectRatio="none" x="13886.71875" y="-3767.211914" width="1.098633" height="1.098633"/>
<image xlink:href="tile51_29.png" preserveAspectRatio="none" x="13886.71875" y="-3768.310547" width="1.098633" height="1.098633"/>
<image xlink:href="tile51_28.png" preserveAspectRatio="none" x="13886.71875" y="-3769.40918" width="1.098633" height="1.098633"/>
<image xlink:href="tile51_27.png" preserveAspectRatio="none" x="13886.71875" y="-3770.507812" width="1.098633" height="1.098633"/>
<image xlink:href="tile51_26.png" preserveAspectRatio="none" x="13886.71875" y="-3771.606445" width="1.098633" height="1.098633"/>
<image xlink:href="tile51_25.png" preserveAspectRatio="none" x="13886.71875" y="-3772.705078" width="1.098633" height="1.098633"/>
<image xlink:href="tile52_34.png" preserveAspectRatio="none" x="13887.817383" y="-3762.817383" width="1.098633" height="1.098633"/>
<image xlink:href="tile52_33.png" preserveAspectRatio="none" x="13887.817383" y="-3763.916016" width="1.098633" height="1.098633"/>
<image xlink:href="tile52_32.png" preserveAspectRatio="none" x="13887.817383" y="-3765.014648" width="1.098633" height="1.098633"/>
<image xlink:href="tile52_31.png" preserveAspectRatio="none" x="13887.817383" y="-3766.113281" width="1.098633" height="1.098633"/>
<image xlink:href="tile52_30.png" preserveAspectRatio="none" x="13887.817383" y="-3767.211914" width="1.098633" height="1.098633"/>
<image xlink:href="tile52_29.png" preserveAspectRatio="none" x="13887.817383" y="-3768.310547" width="1.098633" height="1.098633"/>
<image xlink:href="tile52_28.png" preserveAspectRatio="none" x="13887.817383" y="-3769.40918" width="1.098633" height="1.098633"/>
<image xlink:href="tile52_27.png" preserveAspectRatio="none" x="13887.817383" y="-3770.507812" width="1.098633" height="1.098633"/>
<image xlink:href="tile52_26.png" preserveAspectRatio="none" x="13887.817383" y="-3771.606445" width="1.098633" height="1.098633"/>
<image xlink:href="tile52_25.png" preserveAspectRatio="none" x="13887.817383" y="-3772.705078" width="1.098633" height="1.098633"/>
<image xlink:href="tile53_34.png" preserveAspectRatio="none" x="13888.916016" y="-3762.817383" width="1.098633" height="1.098633"/>
<image xlink:href="tile53_33.png" preserveAspectRatio="none" x="13888.916016" y="-3763.916016" width="1.098633" height="1.098633"/>
<image xlink:href="tile53_32.png" preserveAspectRatio="none" x="13888.916016" y="-3765.014648" width="1.098633" height="1.098633"/>
<image xlink:href="tile53_31.png" preserveAspectRatio="none" x="13888.916016" y="-3766.113281" width="1.098633" height="1.098633"/>
<image xlink:href="tile53_30.png" preserveAspectRatio="none" x="13888.916016" y="-3767.211914" width="1.098633" height="1.098633"/>
<image xlink:href="tile53_29.png" preserveAspectRatio="none" x="13888.916016" y="-3768.310547" width="1.098633" height="1.098633"/>
<image xlink:href="tile53_28.png" preserveAspectRatio="none" x="13888.916016" y="-3769.40918" width="1.098633" height="1.098633"/>
<image xlink:href="tile53_27.png" preserveAspectRatio="none" x="13888.916016" y="-3770.507812" width="1.098633" height="1.098633"/>
<image xlink:href="tile53_26.png" preserveAspectRatio="none" x="13888.916016" y="-3771.606445" width="1.098633" height="1.098633"/>
<image xlink:href="tile53_25.png" preserveAspectRatio="none" x="13888.916016" y="-3772.705078" width="1.098633" height="1.098633"/>
<image xlink:href="tile54_33.png" preserveAspectRatio="none" x="13890.014648" y="-3763.916016" width="1.098633" height="1.098633"/>
<image xlink:href="tile54_32.png" preserveAspectRatio="none" x="13890.014648" y="-3765.014648" width="1.098633" height="1.098633"/>
<image xlink:href="tile54_31.png" preserveAspectRatio="none" x="13890.014648" y="-3766.113281" width="1.098633" height="1.098633"/>
<image xlink:href="tile54_30.png" preserveAspectRatio="none" x="13890.014648" y="-3767.211914" width="1.098633" height="1.098633"/>
<image xlink:href="tile54_29.png" preserveAspectRatio="none" x="13890.014648" y="-3768.310547" width="1.098633" height="1.098633"/>
<image xlink:href="tile54_28.png" preserveAspectRatio="none" x="13890.014648" y="-3769.40918" width="1.098633" height="1.098633"/>
<image xlink:href="tile54_27.png" preserveAspectRatio="none" x="13890.014648" y="-3770.507812" width="1.098633" height="1.098633"/>
<image xlink:href="tile54_26.png" preserveAspectRatio="none" x="13890.014648" y="-3771.606445" width="1.098633" height="1.098633"/>
<image xlink:href="tile54_25.png" preserveAspectRatio="none" x="13890.014648" y="-3772.705078" width="1.098633" height="1.098633"/>
<image xlink:href="tile55_33.png" preserveAspectRatio="none" x="13891.113281" y="-3763.916016" width="1.098633" height="1.098633"/>
<image xlink:href="tile55_32.png" preserveAspectRatio="none" x="13891.113281" y="-3765.014648" width="1.098633" height="1.098633"/>
<image xlink:href="tile55_31.png" preserveAspectRatio="none" x="13891.113281" y="-3766.113281" width="1.098633" height="1.098633"/>
<image xlink:href="tile55_30.png" preserveAspectRatio="none" x="13891.113281" y="-3767.211914" width="1.098633" height="1.098633"/>
<image xlink:href="tile55_29.png" preserveAspectRatio="none" x="13891.113281" y="-3768.310547" width="1.098633" height="1.098633"/>
<image xlink:href="tile55_28.png" preserveAspectRatio="none" x="13891.113281" y="-3769.40918" width="1.098633" height="1.098633"/>
<image xlink:href="tile55_27.png" preserveAspectRatio="none" x="13891.113281" y="-3770.507812" width="1.098633" height="1.098633"/>
<image xlink:href="tile55_26.png" preserveAspectRatio="none" x="13891.113281" y="-3771.606445" width="1.098633" height="1.098633"/>
<image xlink:href="tile55_25.png" preserveAspectRatio="none" x="13891.113281" y="-3772.705078" width="1.098633" height="1.098633"/>
<image xlink:href="tile56_33.png" preserveAspectRatio="none" x="13892.211914" y="-3763.916016" width="1.098633" height="1.098633"/>
<image xlink:href="tile56_32.png" preserveAspectRatio="none" x="13892.211914" y="-3765.014648" width="1.098633" height="1.098633"/>
<image xlink:href="tile56_31.png" preserveAspectRatio="none" x="13892.211914" y="-3766.113281" width="1.098633" height="1.098633"/>
<image xlink:href="tile56_30.png" preserveAspectRatio="none" x="13892.211914" y="-3767.211914" width="1.098633" height="1.098633"/>
<image xlink:href="tile56_29.png" preserveAspectRatio="none" x="13892.211914" y="-3768.310547" width="1.098633" height="1.098633"/>
<image xlink:href="tile56_28.png" preserveAspectRatio="none" x="13892.211914" y="-3769.40918" width="1.098633" height="1.098633"/>
<image xlink:href="tile56_27.png" preserveAspectRatio="none" x="13892.211914" y="-3770.507812" width="1.098633" height="1.098633"/>
<image xlink:href="tile56_26.png" preserveAspectRatio="none" x="13892.211914" y="-3771.606445" width="1.098633" height="1.098633"/>
<image xlink:href="tile56_25.png" preserveAspectRatio="none" x="13892.211914" y="-3772.705078" width="1.098633" height="1.098633"/>
<image xlink:href="tile57_30.png" preserveAspectRatio="none" x="13893.310547" y="-3767.211914" width="1.098633" height="1.098633"/>
<image xlink:href="tile57_29.png" preserveAspectRatio="none" x="13893.310547" y="-3768.310547" width="1.098633" height="1.098633"/>
<image xlink:href="tile57_28.png" preserveAspectRatio="none" x="13893.310547" y="-3769.40918" width="1.098633" height="1.098633"/>
<image xlink:href="tile57_27.png" preserveAspectRatio="none" x="13893.310547" y="-3770.507812" width="1.098633" height="1.098633"/>
<image xlink:href="tile57_26.png" preserveAspectRatio="none" x="13893.310547" y="-3771.606445" width="1.098633" height="1.098633"/>
<image xlink:href="tile57_25.png" preserveAspectRatio="none" x="13893.310547" y="-3772.705078" width="1.098633" height="1.098633"/>
<image xlink:href="tile58_31.png" preserveAspectRatio="none" x="13894.40918" y="-3766.113281" width="1.098633" height="1.098633"/>
<image xlink:href="tile58_30.png" preserveAspectRatio="none" x="13894.40918" y="-3767.211914" width="1.098633" height="1.098633"/>
<image xlink:href="tile58_29.png" preserveAspectRatio="none" x="13894.40918" y="-3768.310547" width="1.098633" height="1.098633"/>
<image xlink:href="tile58_28.png" preserveAspectRatio="none" x="13894.40918" y="-3769.40918" width="1.098633" height="1.098633"/>
<image xlink:href="tile58_27.png" preserveAspectRatio="none" x="13894.40918" y="-3770.507812" width="1.098633" height="1.098633"/>
<image xlink:href="tile58_26.png" preserveAspectRatio="none" x="13894.40918" y="-3771.606445" width="1.098633" height="1.098633"/>
<image xlink:href="tile58_25.png" preserveAspectRatio="none" x="13894.40918" y="-3772.705078" width="1.098633" height="1.098633"/>
<image xlink:href="tile59_29.png" preserveAspectRatio="none" x="13895.507812" y="-3768.310547" width="1.098633" height="1.098633"/>
<image xlink:href="tile59_28.png" preserveAspectRatio="none" x="13895.507812" y="-3769.40918" width="1.098633" height="1.098633"/>
<image xlink:href="tile59_27.png" preserveAspectRatio="none" x="13895.507812" y="-3770.507812" width="1.098633" height="1.098633"/>
<image xlink:href="tile59_26.png" preserveAspectRatio="none" x="13895.507812" y="-3771.606445" width="1.098633" height="1.098633"/>
<image xlink:href="tile59_25.png" preserveAspectRatio="none" x="13895.507812" y="-3772.705078" width="1.098633" height="1.098633"/>
<image xlink:href="tile60_29.png" preserveAspectRatio="none" x="13896.606445" y="-3768.310547" width="1.098633" height="1.098633"/>
<image xlink:href="tile60_28.png" preserveAspectRatio="none" x="13896.606445" y="-3769.40918" width="1.098633" height="1.098633"/>
<image xlink:href="tile60_27.png" preserveAspectRatio="none" x="13896.606445" y="-3770.507812" width="1.098633" height="1.098633"/>
<image xlink:href="tile60_26.png" preserveAspectRatio="none" x="13896.606445" y="-3771.606445" width="1.098633" height="1.098633"/>
<image xlink:href="tile60_25.png" preserveAspectRatio="none" x="13896.606445" y="-3772.705078" width="1.098633" height="1.098633"/>
<image xlink:href="tile61_28.png" preserveAspectRatio="none" x="13897.705078" y="-3769.40918" width="1.098633" height="1.098633"/>
<image xlink:href="tile61_27.png" preserveAspectRatio="none" x="13897.705078" y="-3770.507812" width="1.098633" height="1.098633"/>
<image xlink:href="tile61_26.png" preserveAspectRatio="none" x="13897.705078" y="-3771.606445" width="1.098633" height="1.098633"/>
<image xlink:href="tile61_25.png" preserveAspectRatio="none" x="13897.705078" y="-3772.705078" width="1.098633" height="1.098633"/>
<image xlink:href="tile62_36.png" preserveAspectRatio="none" x="13898.803711" y="-3760.620117" width="1.098633" height="1.098633"/>
<image xlink:href="tile62_33.png" preserveAspectRatio="none" x="13898.803711" y="-3763.916016" width="1.098633" height="1.098633"/>
<image xlink:href="tile62_28.png" preserveAspectRatio="none" x="13898.803711" y="-3769.40918" width="1.098633" height="1.098633"/>
<image xlink:href="tile62_27.png" preserveAspectRatio="none" x="13898.803711" y="-3770.507812" width="1.098633" height="1.098633"/>
<image xlink:href="tile62_26.png" preserveAspectRatio="none" x="13898.803711" y="-3771.606445" width="1.098633" height="1.098633"/>
<image xlink:href="tile62_25.png" preserveAspectRatio="none" x="13898.803711" y="-3772.705078" width="1.098633" height="1.098633"/>
<image xlink:href="tile63_36.png" preserveAspectRatio="none" x="13899.902344" y="-3760.620117" width="1.098633" height="1.098633"/>
<image xlink:href="tile63_33.png" preserveAspectRatio="none" x="13899.902344" y="-3763.916016" width="1.098633" height="1.098633"/>
<image xlink:href="tile63_28.png" preserveAspectRatio="none" x="13899.902344" y="-3769.40918" width="1.098633" height="1.098633"/>
<image xlink:href="tile63_27.png" preserveAspectRatio="none" x="13899.902344" y="-3770.507812" width="1.098633" height="1.098633"/>
<image xlink:href="tile63_26.png" preserveAspectRatio="none" x="13899.902344" y="-3771.606445" width="1.098633" height="1.098633"/>
<image xlink:href="tile63_25.png" preserveAspectRatio="none" x="13899.902344" y="-3772.705078" width="1.098633" height="1.098633"/>
</g>
</svg>
