<?xml version="1.0" encoding="UTF-8"?>
<svg  xmlns="http://www.w3.org/2000/svg" xmlns:xlink="http://www.w3.org/1999/xlink" xmlns:go="http://purl.org/svgmap/profile" viewBox="13100.0 -3400.0 96.83750000000089 60.17587750000004" go:dataArea="13100.0 -3400.0 96.83750000000089 60.17587750000004" >
<metadata>
 <rdf:RDF xmlns:rdf="http://www.w3.org/1999/02/22-rdf-syntax-ns#" xmlns:crs="http://opengis.org/xmldtds/transformations.dtd" xmlns:svg="http://www.w3.org/svg" >
  <rdf:Description>
   <crs:CoordinateReferenceSystem rdf:resource="http://purl.org/crs/84" svg:transform="matrix(100.0,0.0,0.0,-100.0,0.0,0.0)" />
  </rdf:Description>
 </rdf:RDF>
</metadata>
<globalCoordinateSystem srsName="http://purl.org/crs/84" transform="matrix(100.0,0.0,0.0,-100.0,0.0,0.0)" />
<g >
<image xlink:href="tile0_8.png" preserveAspectRatio="none" x="13095.703125" y="-3366.210938" width="4.394531" height="4.394531"/>
<image xlink:href="tile0_7.png" preserveAspectRatio="none" x="13095.703125" y="-3370.605469" width="4.394531" height="4.394531"/>
<image xlink:href="tile0_6.png" preserveAspectRatio="none" x="13095.703125" y="-3375" width="4.394531" height="4.394531"/>
<image xlink:href="tile1_14.png" preserveAspectRatio="none" x="13100.097656" y="-3339.84375" width="4.394531" height="4.394531"/>
<image xlink:href="tile1_13.png" preserveAspectRatio="none" x="13100.097656" y="-3344.238281" width="4.394531" height="4.394531"/>
<image xlink:href="tile1_10.png" preserveAspectRatio="none" x="13100.097656" y="-3357.421875" width="4.394531" height="4.394531"/>
<image xlink:href="tile1_9.png" preserveAspectRatio="none" x="13100.097656" y="-3361.816406" width="4.394531" height="4.394531"/>
<image xlink:href="tile1_8.png" preserveAspectRatio="none" x="13100.097656" y="-3366.210938" width="4.394531" height="4.394531"/>
<image xlink:href="tile1_7.png" preserveAspectRatio="none" x="13100.097656" y="-3370.605469" width="4.394531" height="4.394531"/>
<image xlink:href="tile1_6.png" preserveAspectRatio="none" x="13100.097656" y="-3375" width="4.394531" height="4.394531"/>
<image xlink:href="tile1_5.png" preserveAspectRatio="none" x="13100.097656" y="-3379.394531" width="4.394531" height="4.394531"/>
<image xlink:href="tile2_13.png" preserveAspectRatio="none" x="13104.492188" y="-3344.238281" width="4.394531" height="4.394531"/>
<image xlink:href="tile2_10.png" preserveAspectRatio="none" x="13104.492188" y="-3357.421875" width="4.394531" height="4.394531"/>
<image xlink:href="tile2_8.png" preserveAspectRatio="none" x="13104.492188" y="-3366.210938" width="4.394531" height="4.394531"/>
<image xlink:href="tile2_7.png" preserveAspectRatio="none" x="13104.492188" y="-3370.605469" width="4.394531" height="4.394531"/>
<image xlink:href="tile3_12.png" preserveAspectRatio="none" x="13108.886719" y="-3348.632812" width="4.394531" height="4.394531"/>
<image xlink:href="tile3_10.png" preserveAspectRatio="none" x="13108.886719" y="-3357.421875" width="4.394531" height="4.394531"/>
<image xlink:href="tile3_9.png" preserveAspectRatio="none" x="13108.886719" y="-3361.816406" width="4.394531" height="4.394531"/>
<image xlink:href="tile3_8.png" preserveAspectRatio="none" x="13108.886719" y="-3366.210938" width="4.394531" height="4.394531"/>
<image xlink:href="tile4_13.png" preserveAspectRatio="none" x="13113.28125" y="-3344.238281" width="4.394531" height="4.394531"/>
<image xlink:href="tile4_12.png" preserveAspectRatio="none" x="13113.28125" y="-3348.632812" width="4.394531" height="4.394531"/>
<image xlink:href="tile4_11.png" preserveAspectRatio="none" x="13113.28125" y="-3353.027344" width="4.394531" height="4.394531"/>
<image xlink:href="tile4_10.png" preserveAspectRatio="none" x="13113.28125" y="-3357.421875" width="4.394531" height="4.394531"/>
<image xlink:href="tile4_9.png" preserveAspectRatio="none" x="13113.28125" y="-3361.816406" width="4.394531" height="4.394531"/>
<image xlink:href="tile4_8.png" preserveAspectRatio="none" x="13113.28125" y="-3366.210938" width="4.394531" height="4.394531"/>
<image xlink:href="tile4_0.png" preserveAspectRatio="none" x="13113.28125" y="-3401.367188" width="4.394531" height="4.394531"/>
<image xlink:href="tile5_12.png" preserveAspectRatio="none" x="13117.675781" y="-3348.632812" width="4.394531" height="4.394531"/>
<image xlink:href="tile5_11.png" preserveAspectRatio="none" x="13117.675781" y="-3353.027344" width="4.394531" height="4.394531"/>
<image xlink:href="tile5_10.png" preserveAspectRatio="none" x="13117.675781" y="-3357.421875" width="4.394531" height="4.394531"/>
<image xlink:href="tile5_9.png" preserveAspectRatio="none" x="13117.675781" y="-3361.816406" width="4.394531" height="4.394531"/>
<image xlink:href="tile5_8.png" preserveAspectRatio="none" x="13117.675781" y="-3366.210938" width="4.394531" height="4.394531"/>
<image xlink:href="tile5_1.png" preserveAspectRatio="none" x="13117.675781" y="-3396.972656" width="4.394531" height="4.394531"/>
<image xlink:href="tile5_0.png" preserveAspectRatio="none" x="13117.675781" y="-3401.367188" width="4.394531" height="4.394531"/>
<image xlink:href="tile6_11.png" preserveAspectRatio="none" x="13122.070312" y="-3353.027344" width="4.394531" height="4.394531"/>
<image xlink:href="tile6_10.png" preserveAspectRatio="none" x="13122.070312" y="-3357.421875" width="4.394531" height="4.394531"/>
<image xlink:href="tile6_9.png" preserveAspectRatio="none" x="13122.070312" y="-3361.816406" width="4.394531" height="4.394531"/>
<image xlink:href="tile6_1.png" preserveAspectRatio="none" x="13122.070312" y="-3396.972656" width="4.394531" height="4.394531"/>
<image xlink:href="tile6_0.png" preserveAspectRatio="none" x="13122.070312" y="-3401.367188" width="4.394531" height="4.394531"/>
<image xlink:href="tile7_11.png" preserveAspectRatio="none" x="13126.464844" y="-3353.027344" width="4.394531" height="4.394531"/>
<image xlink:href="tile7_10.png" preserveAspectRatio="none" x="13126.464844" y="-3357.421875" width="4.394531" height="4.394531"/>
<image xlink:href="tile7_9.png" preserveAspectRatio="none" x="13126.464844" y="-3361.816406" width="4.394531" height="4.394531"/>
<image xlink:href="tile7_1.png" preserveAspectRatio="none" x="13126.464844" y="-3396.972656" width="4.394531" height="4.394531"/>
<image xlink:href="tile7_0.png" preserveAspectRatio="none" x="13126.464844" y="-3401.367188" width="4.394531" height="4.394531"/>
<image xlink:href="tile8_13.png" preserveAspectRatio="none" x="13130.859375" y="-3344.238281" width="4.394531" height="4.394531"/>
<image xlink:href="tile8_12.png" preserveAspectRatio="none" x="13130.859375" y="-3348.632812" width="4.394531" height="4.394531"/>
<image xlink:href="tile8_11.png" preserveAspectRatio="none" x="13130.859375" y="-3353.027344" width="4.394531" height="4.394531"/>
<image xlink:href="tile8_10.png" preserveAspectRatio="none" x="13130.859375" y="-3357.421875" width="4.394531" height="4.394531"/>
<image xlink:href="tile8_9.png" preserveAspectRatio="none" x="13130.859375" y="-3361.816406" width="4.394531" height="4.394531"/>
<image xlink:href="tile8_0.png" preserveAspectRatio="none" x="13130.859375" y="-3401.367188" width="4.394531" height="4.394531"/>
<image xlink:href="tile9_13.png" preserveAspectRatio="none" x="13135.253906" y="-3344.238281" width="4.394531" height="4.394531"/>
<image xlink:href="tile9_12.png" preserveAspectRatio="none" x="13135.253906" y="-3348.632812" width="4.394531" height="4.394531"/>
<image xlink:href="tile9_11.png" preserveAspectRatio="none" x="13135.253906" y="-3353.027344" width="4.394531" height="4.394531"/>
<image xlink:href="tile9_10.png" preserveAspectRatio="none" x="13135.253906" y="-3357.421875" width="4.394531" height="4.394531"/>
<image xlink:href="tile9_9.png" preserveAspectRatio="none" x="13135.253906" y="-3361.816406" width="4.394531" height="4.394531"/>
<image xlink:href="tile9_0.png" preserveAspectRatio="none" x="13135.253906" y="-3401.367188" width="4.394531" height="4.394531"/>
<image xlink:href="tile10_11.png" preserveAspectRatio="none" x="13139.648438" y="-3353.027344" width="4.394531" height="4.394531"/>
<image xlink:href="tile10_10.png" preserveAspectRatio="none" x="13139.648438" y="-3357.421875" width="4.394531" height="4.394531"/>
<image xlink:href="tile10_9.png" preserveAspectRatio="none" x="13139.648438" y="-3361.816406" width="4.394531" height="4.394531"/>
<image xlink:href="tile11_11.png" preserveAspectRatio="none" x="13144.042969" y="-3353.027344" width="4.394531" height="4.394531"/>
<image xlink:href="tile11_10.png" preserveAspectRatio="none" x="13144.042969" y="-3357.421875" width="4.394531" height="4.394531"/>
<image xlink:href="tile11_9.png" preserveAspectRatio="none" x="13144.042969" y="-3361.816406" width="4.394531" height="4.394531"/>
<image xlink:href="tile11_8.png" preserveAspectRatio="none" x="13144.042969" y="-3366.210938" width="4.394531" height="4.394531"/>
<image xlink:href="tile12_10.png" preserveAspectRatio="none" x="13148.4375" y="-3357.421875" width="4.394531" height="4.394531"/>
<image xlink:href="tile12_9.png" preserveAspectRatio="none" x="13148.4375" y="-3361.816406" width="4.394531" height="4.394531"/>
<image xlink:href="tile12_8.png" preserveAspectRatio="none" x="13148.4375" y="-3366.210938" width="4.394531" height="4.394531"/>
<image xlink:href="tile12_7.png" preserveAspectRatio="none" x="13148.4375" y="-3370.605469" width="4.394531" height="4.394531"/>
<image xlink:href="tile13_13.png" preserveAspectRatio="none" x="13152.832031" y="-3344.238281" width="4.394531" height="4.394531"/>
<image xlink:href="tile13_11.png" preserveAspectRatio="none" x="13152.832031" y="-3353.027344" width="4.394531" height="4.394531"/>
<image xlink:href="tile13_8.png" preserveAspectRatio="none" x="13152.832031" y="-3366.210938" width="4.394531" height="4.394531"/>
<image xlink:href="tile13_7.png" preserveAspectRatio="none" x="13152.832031" y="-3370.605469" width="4.394531" height="4.394531"/>
<image xlink:href="tile14_13.png" preserveAspectRatio="none" x="13157.226562" y="-3344.238281" width="4.394531" height="4.394531"/>
<image xlink:href="tile14_8.png" preserveAspectRatio="none" x="13157.226562" y="-3366.210938" width="4.394531" height="4.394531"/>
<image xlink:href="tile14_7.png" preserveAspectRatio="none" x="13157.226562" y="-3370.605469" width="4.394531" height="4.394531"/>
<image xlink:href="tile15_13.png" preserveAspectRatio="none" x="13161.621094" y="-3344.238281" width="4.394531" height="4.394531"/>
</g>
</svg>
