<?xml version="1.0" encoding="UTF-8"?>
<svg  xmlns="http://www.w3.org/2000/svg" xmlns:xlink="http://www.w3.org/1999/xlink" xmlns:go="http://purl.org/svgmap/profile" viewBox="13249.449999999999 -3331.891667 50.250000000002615 39.724999999999966" go:dataArea="13249.449999999999 -3331.891667 50.250000000002615 39.724999999999966" >
<metadata>
 <rdf:RDF xmlns:rdf="http://www.w3.org/1999/02/22-rdf-syntax-ns#" xmlns:crs="http://opengis.org/xmldtds/transformations.dtd" xmlns:svg="http://www.w3.org/svg" >
  <rdf:Description>
   <crs:CoordinateReferenceSystem rdf:resource="http://purl.org/crs/84" svg:transform="matrix(100.0,0.0,0.0,-100.0,0.0,0.0)" />
  </rdf:Description>
 </rdf:RDF>
</metadata>
<globalCoordinateSystem srsName="http://purl.org/crs/84" transform="matrix(100.0,0.0,0.0,-100.0,0.0,0.0)" />
<g >
<image xlink:href="tile0_3.png" preserveAspectRatio="none" x="13248.413086" y="-3328.857422" width="1.098633" height="1.098633"/>
<image xlink:href="tile1_3.png" preserveAspectRatio="none" x="13249.511719" y="-3328.857422" width="1.098633" height="1.098633"/>
<image xlink:href="tile1_2.png" preserveAspectRatio="none" x="13249.511719" y="-3329.956055" width="1.098633" height="1.098633"/>
<image xlink:href="tile2_2.png" preserveAspectRatio="none" x="13250.610352" y="-3329.956055" width="1.098633" height="1.098633"/>
<image xlink:href="tile3_2.png" preserveAspectRatio="none" x="13251.708984" y="-3329.956055" width="1.098633" height="1.098633"/>
<image xlink:href="tile4_4.png" preserveAspectRatio="none" x="13252.807617" y="-3327.758789" width="1.098633" height="1.098633"/>
<image xlink:href="tile4_3.png" preserveAspectRatio="none" x="13252.807617" y="-3328.857422" width="1.098633" height="1.098633"/>
<image xlink:href="tile4_2.png" preserveAspectRatio="none" x="13252.807617" y="-3329.956055" width="1.098633" height="1.098633"/>
<image xlink:href="tile4_1.png" preserveAspectRatio="none" x="13252.807617" y="-3331.054688" width="1.098633" height="1.098633"/>
<image xlink:href="tile5_4.png" preserveAspectRatio="none" x="13253.90625" y="-3327.758789" width="1.098633" height="1.098633"/>
<image xlink:href="tile5_3.png" preserveAspectRatio="none" x="13253.90625" y="-3328.857422" width="1.098633" height="1.098633"/>
<image xlink:href="tile5_2.png" preserveAspectRatio="none" x="13253.90625" y="-3329.956055" width="1.098633" height="1.098633"/>
<image xlink:href="tile5_1.png" preserveAspectRatio="none" x="13253.90625" y="-3331.054688" width="1.098633" height="1.098633"/>
<image xlink:href="tile6_2.png" preserveAspectRatio="none" x="13255.004883" y="-3329.956055" width="1.098633" height="1.098633"/>
<image xlink:href="tile6_1.png" preserveAspectRatio="none" x="13255.004883" y="-3331.054688" width="1.098633" height="1.098633"/>
<image xlink:href="tile7_1.png" preserveAspectRatio="none" x="13256.103516" y="-3331.054688" width="1.098633" height="1.098633"/>
<image xlink:href="tile7_0.png" preserveAspectRatio="none" x="13256.103516" y="-3332.15332" width="1.098633" height="1.098633"/>
<image xlink:href="tile8_1.png" preserveAspectRatio="none" x="13257.202148" y="-3331.054688" width="1.098633" height="1.098633"/>
<image xlink:href="tile9_3.png" preserveAspectRatio="none" x="13258.300781" y="-3328.857422" width="1.098633" height="1.098633"/>
<image xlink:href="tile9_2.png" preserveAspectRatio="none" x="13258.300781" y="-3329.956055" width="1.098633" height="1.098633"/>
<image xlink:href="tile9_1.png" preserveAspectRatio="none" x="13258.300781" y="-3331.054688" width="1.098633" height="1.098633"/>
<image xlink:href="tile10_3.png" preserveAspectRatio="none" x="13259.399414" y="-3328.857422" width="1.098633" height="1.098633"/>
<image xlink:href="tile10_2.png" preserveAspectRatio="none" x="13259.399414" y="-3329.956055" width="1.098633" height="1.098633"/>
<image xlink:href="tile11_3.png" preserveAspectRatio="none" x="13260.498047" y="-3328.857422" width="1.098633" height="1.098633"/>
<image xlink:href="tile11_2.png" preserveAspectRatio="none" x="13260.498047" y="-3329.956055" width="1.098633" height="1.098633"/>
<image xlink:href="tile12_3.png" preserveAspectRatio="none" x="13261.59668" y="-3328.857422" width="1.098633" height="1.098633"/>
<image xlink:href="tile12_2.png" preserveAspectRatio="none" x="13261.59668" y="-3329.956055" width="1.098633" height="1.098633"/>
<image xlink:href="tile13_3.png" preserveAspectRatio="none" x="13262.695312" y="-3328.857422" width="1.098633" height="1.098633"/>
<image xlink:href="tile13_2.png" preserveAspectRatio="none" x="13262.695312" y="-3329.956055" width="1.098633" height="1.098633"/>
<image xlink:href="tile14_4.png" preserveAspectRatio="none" x="13263.793945" y="-3327.758789" width="1.098633" height="1.098633"/>
<image xlink:href="tile14_3.png" preserveAspectRatio="none" x="13263.793945" y="-3328.857422" width="1.098633" height="1.098633"/>
<image xlink:href="tile14_2.png" preserveAspectRatio="none" x="13263.793945" y="-3329.956055" width="1.098633" height="1.098633"/>
<image xlink:href="tile15_4.png" preserveAspectRatio="none" x="13264.892578" y="-3327.758789" width="1.098633" height="1.098633"/>
</g>
</svg>
