<?xml version="1.0" encoding="UTF-8"?>
<svg  xmlns="http://www.w3.org/2000/svg" xmlns:xlink="http://www.w3.org/1999/xlink" xmlns:go="http://purl.org/svgmap/profile" viewBox="13900.0 -3724.1665758000004 100.0 57.499908800000554" go:dataArea="13900.0 -3724.1665758000004 100.0 57.499908800000554" >
<metadata>
 <rdf:RDF xmlns:rdf="http://www.w3.org/1999/02/22-rdf-syntax-ns#" xmlns:crs="http://opengis.org/xmldtds/transformations.dtd" xmlns:svg="http://www.w3.org/svg" >
  <rdf:Description>
   <crs:CoordinateReferenceSystem rdf:resource="http://purl.org/crs/84" svg:transform="matrix(100.0,0.0,0.0,-100.0,0.0,0.0)" />
  </rdf:Description>
 </rdf:RDF>
</metadata>
<globalCoordinateSystem srsName="http://purl.org/crs/84" transform="matrix(100.0,0.0,0.0,-100.0,0.0,0.0)" />
<g >
<image xlink:href="tile0_26.png" preserveAspectRatio="none" x="13899.902344" y="-3667.236328" width="2.197266" height="2.197266"/>
<image xlink:href="tile0_25.png" preserveAspectRatio="none" x="13899.902344" y="-3669.433594" width="2.197266" height="2.197266"/>
<image xlink:href="tile0_20.png" preserveAspectRatio="none" x="13899.902344" y="-3680.419922" width="2.197266" height="2.197266"/>
<image xlink:href="tile0_19.png" preserveAspectRatio="none" x="13899.902344" y="-3682.617188" width="2.197266" height="2.197266"/>
<image xlink:href="tile0_17.png" preserveAspectRatio="none" x="13899.902344" y="-3687.011719" width="2.197266" height="2.197266"/>
<image xlink:href="tile0_13.png" preserveAspectRatio="none" x="13899.902344" y="-3695.800781" width="2.197266" height="2.197266"/>
<image xlink:href="tile0_12.png" preserveAspectRatio="none" x="13899.902344" y="-3697.998047" width="2.197266" height="2.197266"/>
<image xlink:href="tile1_26.png" preserveAspectRatio="none" x="13902.099609" y="-3667.236328" width="2.197266" height="2.197266"/>
<image xlink:href="tile1_25.png" preserveAspectRatio="none" x="13902.099609" y="-3669.433594" width="2.197266" height="2.197266"/>
<image xlink:href="tile1_23.png" preserveAspectRatio="none" x="13902.099609" y="-3673.828125" width="2.197266" height="2.197266"/>
<image xlink:href="tile1_20.png" preserveAspectRatio="none" x="13902.099609" y="-3680.419922" width="2.197266" height="2.197266"/>
<image xlink:href="tile1_19.png" preserveAspectRatio="none" x="13902.099609" y="-3682.617188" width="2.197266" height="2.197266"/>
<image xlink:href="tile1_17.png" preserveAspectRatio="none" x="13902.099609" y="-3687.011719" width="2.197266" height="2.197266"/>
<image xlink:href="tile1_15.png" preserveAspectRatio="none" x="13902.099609" y="-3691.40625" width="2.197266" height="2.197266"/>
<image xlink:href="tile1_13.png" preserveAspectRatio="none" x="13902.099609" y="-3695.800781" width="2.197266" height="2.197266"/>
<image xlink:href="tile2_25.png" preserveAspectRatio="none" x="13904.296875" y="-3669.433594" width="2.197266" height="2.197266"/>
<image xlink:href="tile2_24.png" preserveAspectRatio="none" x="13904.296875" y="-3671.630859" width="2.197266" height="2.197266"/>
<image xlink:href="tile2_23.png" preserveAspectRatio="none" x="13904.296875" y="-3673.828125" width="2.197266" height="2.197266"/>
<image xlink:href="tile2_21.png" preserveAspectRatio="none" x="13904.296875" y="-3678.222656" width="2.197266" height="2.197266"/>
<image xlink:href="tile2_20.png" preserveAspectRatio="none" x="13904.296875" y="-3680.419922" width="2.197266" height="2.197266"/>
<image xlink:href="tile2_18.png" preserveAspectRatio="none" x="13904.296875" y="-3684.814453" width="2.197266" height="2.197266"/>
<image xlink:href="tile2_17.png" preserveAspectRatio="none" x="13904.296875" y="-3687.011719" width="2.197266" height="2.197266"/>
<image xlink:href="tile2_15.png" preserveAspectRatio="none" x="13904.296875" y="-3691.40625" width="2.197266" height="2.197266"/>
<image xlink:href="tile3_26.png" preserveAspectRatio="none" x="13906.494141" y="-3667.236328" width="2.197266" height="2.197266"/>
<image xlink:href="tile3_25.png" preserveAspectRatio="none" x="13906.494141" y="-3669.433594" width="2.197266" height="2.197266"/>
<image xlink:href="tile3_24.png" preserveAspectRatio="none" x="13906.494141" y="-3671.630859" width="2.197266" height="2.197266"/>
<image xlink:href="tile3_23.png" preserveAspectRatio="none" x="13906.494141" y="-3673.828125" width="2.197266" height="2.197266"/>
<image xlink:href="tile3_22.png" preserveAspectRatio="none" x="13906.494141" y="-3676.025391" width="2.197266" height="2.197266"/>
<image xlink:href="tile3_21.png" preserveAspectRatio="none" x="13906.494141" y="-3678.222656" width="2.197266" height="2.197266"/>
<image xlink:href="tile3_20.png" preserveAspectRatio="none" x="13906.494141" y="-3680.419922" width="2.197266" height="2.197266"/>
<image xlink:href="tile3_16.png" preserveAspectRatio="none" x="13906.494141" y="-3689.208984" width="2.197266" height="2.197266"/>
<image xlink:href="tile4_26.png" preserveAspectRatio="none" x="13908.691406" y="-3667.236328" width="2.197266" height="2.197266"/>
<image xlink:href="tile4_25.png" preserveAspectRatio="none" x="13908.691406" y="-3669.433594" width="2.197266" height="2.197266"/>
<image xlink:href="tile4_24.png" preserveAspectRatio="none" x="13908.691406" y="-3671.630859" width="2.197266" height="2.197266"/>
<image xlink:href="tile4_23.png" preserveAspectRatio="none" x="13908.691406" y="-3673.828125" width="2.197266" height="2.197266"/>
<image xlink:href="tile4_17.png" preserveAspectRatio="none" x="13908.691406" y="-3687.011719" width="2.197266" height="2.197266"/>
<image xlink:href="tile4_16.png" preserveAspectRatio="none" x="13908.691406" y="-3689.208984" width="2.197266" height="2.197266"/>
<image xlink:href="tile4_12.png" preserveAspectRatio="none" x="13908.691406" y="-3697.998047" width="2.197266" height="2.197266"/>
<image xlink:href="tile5_25.png" preserveAspectRatio="none" x="13910.888672" y="-3669.433594" width="2.197266" height="2.197266"/>
<image xlink:href="tile5_24.png" preserveAspectRatio="none" x="13910.888672" y="-3671.630859" width="2.197266" height="2.197266"/>
<image xlink:href="tile5_23.png" preserveAspectRatio="none" x="13910.888672" y="-3673.828125" width="2.197266" height="2.197266"/>
<image xlink:href="tile5_15.png" preserveAspectRatio="none" x="13910.888672" y="-3691.40625" width="2.197266" height="2.197266"/>
<image xlink:href="tile5_12.png" preserveAspectRatio="none" x="13910.888672" y="-3697.998047" width="2.197266" height="2.197266"/>
<image xlink:href="tile5_11.png" preserveAspectRatio="none" x="13910.888672" y="-3700.195312" width="2.197266" height="2.197266"/>
<image xlink:href="tile6_23.png" preserveAspectRatio="none" x="13913.085938" y="-3673.828125" width="2.197266" height="2.197266"/>
<image xlink:href="tile6_22.png" preserveAspectRatio="none" x="13913.085938" y="-3676.025391" width="2.197266" height="2.197266"/>
<image xlink:href="tile6_15.png" preserveAspectRatio="none" x="13913.085938" y="-3691.40625" width="2.197266" height="2.197266"/>
<image xlink:href="tile6_14.png" preserveAspectRatio="none" x="13913.085938" y="-3693.603516" width="2.197266" height="2.197266"/>
<image xlink:href="tile7_26.png" preserveAspectRatio="none" x="13915.283203" y="-3667.236328" width="2.197266" height="2.197266"/>
<image xlink:href="tile7_25.png" preserveAspectRatio="none" x="13915.283203" y="-3669.433594" width="2.197266" height="2.197266"/>
<image xlink:href="tile7_22.png" preserveAspectRatio="none" x="13915.283203" y="-3676.025391" width="2.197266" height="2.197266"/>
<image xlink:href="tile7_17.png" preserveAspectRatio="none" x="13915.283203" y="-3687.011719" width="2.197266" height="2.197266"/>
<image xlink:href="tile7_16.png" preserveAspectRatio="none" x="13915.283203" y="-3689.208984" width="2.197266" height="2.197266"/>
<image xlink:href="tile8_25.png" preserveAspectRatio="none" x="13917.480469" y="-3669.433594" width="2.197266" height="2.197266"/>
<image xlink:href="tile8_22.png" preserveAspectRatio="none" x="13917.480469" y="-3676.025391" width="2.197266" height="2.197266"/>
<image xlink:href="tile8_17.png" preserveAspectRatio="none" x="13917.480469" y="-3687.011719" width="2.197266" height="2.197266"/>
<image xlink:href="tile8_16.png" preserveAspectRatio="none" x="13917.480469" y="-3689.208984" width="2.197266" height="2.197266"/>
<image xlink:href="tile9_25.png" preserveAspectRatio="none" x="13919.677734" y="-3669.433594" width="2.197266" height="2.197266"/>
<image xlink:href="tile9_24.png" preserveAspectRatio="none" x="13919.677734" y="-3671.630859" width="2.197266" height="2.197266"/>
<image xlink:href="tile9_23.png" preserveAspectRatio="none" x="13919.677734" y="-3673.828125" width="2.197266" height="2.197266"/>
<image xlink:href="tile9_22.png" preserveAspectRatio="none" x="13919.677734" y="-3676.025391" width="2.197266" height="2.197266"/>
<image xlink:href="tile9_21.png" preserveAspectRatio="none" x="13919.677734" y="-3678.222656" width="2.197266" height="2.197266"/>
<image xlink:href="tile9_17.png" preserveAspectRatio="none" x="13919.677734" y="-3687.011719" width="2.197266" height="2.197266"/>
<image xlink:href="tile9_16.png" preserveAspectRatio="none" x="13919.677734" y="-3689.208984" width="2.197266" height="2.197266"/>
<image xlink:href="tile10_25.png" preserveAspectRatio="none" x="13921.875" y="-3669.433594" width="2.197266" height="2.197266"/>
<image xlink:href="tile10_24.png" preserveAspectRatio="none" x="13921.875" y="-3671.630859" width="2.197266" height="2.197266"/>
<image xlink:href="tile10_23.png" preserveAspectRatio="none" x="13921.875" y="-3673.828125" width="2.197266" height="2.197266"/>
<image xlink:href="tile10_22.png" preserveAspectRatio="none" x="13921.875" y="-3676.025391" width="2.197266" height="2.197266"/>
<image xlink:href="tile10_21.png" preserveAspectRatio="none" x="13921.875" y="-3678.222656" width="2.197266" height="2.197266"/>
<image xlink:href="tile10_20.png" preserveAspectRatio="none" x="13921.875" y="-3680.419922" width="2.197266" height="2.197266"/>
<image xlink:href="tile10_19.png" preserveAspectRatio="none" x="13921.875" y="-3682.617188" width="2.197266" height="2.197266"/>
<image xlink:href="tile10_18.png" preserveAspectRatio="none" x="13921.875" y="-3684.814453" width="2.197266" height="2.197266"/>
<image xlink:href="tile10_17.png" preserveAspectRatio="none" x="13921.875" y="-3687.011719" width="2.197266" height="2.197266"/>
<image xlink:href="tile11_26.png" preserveAspectRatio="none" x="13924.072266" y="-3667.236328" width="2.197266" height="2.197266"/>
<image xlink:href="tile11_25.png" preserveAspectRatio="none" x="13924.072266" y="-3669.433594" width="2.197266" height="2.197266"/>
<image xlink:href="tile11_24.png" preserveAspectRatio="none" x="13924.072266" y="-3671.630859" width="2.197266" height="2.197266"/>
<image xlink:href="tile11_23.png" preserveAspectRatio="none" x="13924.072266" y="-3673.828125" width="2.197266" height="2.197266"/>
<image xlink:href="tile11_22.png" preserveAspectRatio="none" x="13924.072266" y="-3676.025391" width="2.197266" height="2.197266"/>
<image xlink:href="tile11_21.png" preserveAspectRatio="none" x="13924.072266" y="-3678.222656" width="2.197266" height="2.197266"/>
<image xlink:href="tile11_20.png" preserveAspectRatio="none" x="13924.072266" y="-3680.419922" width="2.197266" height="2.197266"/>
<image xlink:href="tile11_19.png" preserveAspectRatio="none" x="13924.072266" y="-3682.617188" width="2.197266" height="2.197266"/>
<image xlink:href="tile11_18.png" preserveAspectRatio="none" x="13924.072266" y="-3684.814453" width="2.197266" height="2.197266"/>
<image xlink:href="tile11_17.png" preserveAspectRatio="none" x="13924.072266" y="-3687.011719" width="2.197266" height="2.197266"/>
<image xlink:href="tile12_25.png" preserveAspectRatio="none" x="13926.269531" y="-3669.433594" width="2.197266" height="2.197266"/>
<image xlink:href="tile12_24.png" preserveAspectRatio="none" x="13926.269531" y="-3671.630859" width="2.197266" height="2.197266"/>
<image xlink:href="tile12_23.png" preserveAspectRatio="none" x="13926.269531" y="-3673.828125" width="2.197266" height="2.197266"/>
<image xlink:href="tile12_20.png" preserveAspectRatio="none" x="13926.269531" y="-3680.419922" width="2.197266" height="2.197266"/>
<image xlink:href="tile12_18.png" preserveAspectRatio="none" x="13926.269531" y="-3684.814453" width="2.197266" height="2.197266"/>
<image xlink:href="tile12_17.png" preserveAspectRatio="none" x="13926.269531" y="-3687.011719" width="2.197266" height="2.197266"/>
<image xlink:href="tile13_23.png" preserveAspectRatio="none" x="13928.466797" y="-3673.828125" width="2.197266" height="2.197266"/>
<image xlink:href="tile13_20.png" preserveAspectRatio="none" x="13928.466797" y="-3680.419922" width="2.197266" height="2.197266"/>
<image xlink:href="tile13_19.png" preserveAspectRatio="none" x="13928.466797" y="-3682.617188" width="2.197266" height="2.197266"/>
<image xlink:href="tile13_17.png" preserveAspectRatio="none" x="13928.466797" y="-3687.011719" width="2.197266" height="2.197266"/>
<image xlink:href="tile13_16.png" preserveAspectRatio="none" x="13928.466797" y="-3689.208984" width="2.197266" height="2.197266"/>
<image xlink:href="tile13_15.png" preserveAspectRatio="none" x="13928.466797" y="-3691.40625" width="2.197266" height="2.197266"/>
<image xlink:href="tile14_23.png" preserveAspectRatio="none" x="13930.664062" y="-3673.828125" width="2.197266" height="2.197266"/>
<image xlink:href="tile14_20.png" preserveAspectRatio="none" x="13930.664062" y="-3680.419922" width="2.197266" height="2.197266"/>
<image xlink:href="tile14_19.png" preserveAspectRatio="none" x="13930.664062" y="-3682.617188" width="2.197266" height="2.197266"/>
<image xlink:href="tile14_16.png" preserveAspectRatio="none" x="13930.664062" y="-3689.208984" width="2.197266" height="2.197266"/>
<image xlink:href="tile14_15.png" preserveAspectRatio="none" x="13930.664062" y="-3691.40625" width="2.197266" height="2.197266"/>
<image xlink:href="tile15_19.png" preserveAspectRatio="none" x="13932.861328" y="-3682.617188" width="2.197266" height="2.197266"/>
</g>
</svg>
