<?xml version="1.0" encoding="UTF-8"?>
<svg  xmlns="http://www.w3.org/2000/svg" xmlns:xlink="http://www.w3.org/1999/xlink" xmlns:go="http://purl.org/svgmap/profile" viewBox="13000.0 -3398.5333333 100.0 65.20000029999977" go:dataArea="13000.0 -3398.5333333 100.0 65.20000029999977" >
<metadata>
 <rdf:RDF xmlns:rdf="http://www.w3.org/1999/02/22-rdf-syntax-ns#" xmlns:crs="http://opengis.org/xmldtds/transformations.dtd" xmlns:svg="http://www.w3.org/svg" >
  <rdf:Description>
   <crs:CoordinateReferenceSystem rdf:resource="http://purl.org/crs/84" svg:transform="matrix(100.0,0.0,0.0,-100.0,0.0,0.0)" />
  </rdf:Description>
 </rdf:RDF>
</metadata>
<globalCoordinateSystem srsName="http://purl.org/crs/84" transform="matrix(100.0,0.0,0.0,-100.0,0.0,0.0)" />
<g >
<image xlink:href="tile16_15.png" preserveAspectRatio="none" x="13069.335938" y="-3335.449219" width="4.394531" height="4.394531"/>
<image xlink:href="tile16_14.png" preserveAspectRatio="none" x="13069.335938" y="-3339.84375" width="4.394531" height="4.394531"/>
<image xlink:href="tile16_13.png" preserveAspectRatio="none" x="13069.335938" y="-3344.238281" width="4.394531" height="4.394531"/>
<image xlink:href="tile16_12.png" preserveAspectRatio="none" x="13069.335938" y="-3348.632812" width="4.394531" height="4.394531"/>
<image xlink:href="tile16_10.png" preserveAspectRatio="none" x="13069.335938" y="-3357.421875" width="4.394531" height="4.394531"/>
<image xlink:href="tile16_9.png" preserveAspectRatio="none" x="13069.335938" y="-3361.816406" width="4.394531" height="4.394531"/>
<image xlink:href="tile16_8.png" preserveAspectRatio="none" x="13069.335938" y="-3366.210938" width="4.394531" height="4.394531"/>
<image xlink:href="tile16_7.png" preserveAspectRatio="none" x="13069.335938" y="-3370.605469" width="4.394531" height="4.394531"/>
<image xlink:href="tile16_6.png" preserveAspectRatio="none" x="13069.335938" y="-3375" width="4.394531" height="4.394531"/>
<image xlink:href="tile16_5.png" preserveAspectRatio="none" x="13069.335938" y="-3379.394531" width="4.394531" height="4.394531"/>
<image xlink:href="tile16_4.png" preserveAspectRatio="none" x="13069.335938" y="-3383.789062" width="4.394531" height="4.394531"/>
<image xlink:href="tile16_3.png" preserveAspectRatio="none" x="13069.335938" y="-3388.183594" width="4.394531" height="4.394531"/>
<image xlink:href="tile16_2.png" preserveAspectRatio="none" x="13069.335938" y="-3392.578125" width="4.394531" height="4.394531"/>
<image xlink:href="tile17_15.png" preserveAspectRatio="none" x="13073.730469" y="-3335.449219" width="4.394531" height="4.394531"/>
<image xlink:href="tile17_14.png" preserveAspectRatio="none" x="13073.730469" y="-3339.84375" width="4.394531" height="4.394531"/>
<image xlink:href="tile17_11.png" preserveAspectRatio="none" x="13073.730469" y="-3353.027344" width="4.394531" height="4.394531"/>
<image xlink:href="tile17_10.png" preserveAspectRatio="none" x="13073.730469" y="-3357.421875" width="4.394531" height="4.394531"/>
<image xlink:href="tile17_9.png" preserveAspectRatio="none" x="13073.730469" y="-3361.816406" width="4.394531" height="4.394531"/>
<image xlink:href="tile17_8.png" preserveAspectRatio="none" x="13073.730469" y="-3366.210938" width="4.394531" height="4.394531"/>
<image xlink:href="tile17_7.png" preserveAspectRatio="none" x="13073.730469" y="-3370.605469" width="4.394531" height="4.394531"/>
<image xlink:href="tile17_6.png" preserveAspectRatio="none" x="13073.730469" y="-3375" width="4.394531" height="4.394531"/>
<image xlink:href="tile17_5.png" preserveAspectRatio="none" x="13073.730469" y="-3379.394531" width="4.394531" height="4.394531"/>
<image xlink:href="tile17_4.png" preserveAspectRatio="none" x="13073.730469" y="-3383.789062" width="4.394531" height="4.394531"/>
<image xlink:href="tile17_3.png" preserveAspectRatio="none" x="13073.730469" y="-3388.183594" width="4.394531" height="4.394531"/>
<image xlink:href="tile18_15.png" preserveAspectRatio="none" x="13078.125" y="-3335.449219" width="4.394531" height="4.394531"/>
<image xlink:href="tile18_14.png" preserveAspectRatio="none" x="13078.125" y="-3339.84375" width="4.394531" height="4.394531"/>
<image xlink:href="tile18_12.png" preserveAspectRatio="none" x="13078.125" y="-3348.632812" width="4.394531" height="4.394531"/>
<image xlink:href="tile18_11.png" preserveAspectRatio="none" x="13078.125" y="-3353.027344" width="4.394531" height="4.394531"/>
<image xlink:href="tile18_9.png" preserveAspectRatio="none" x="13078.125" y="-3361.816406" width="4.394531" height="4.394531"/>
<image xlink:href="tile18_8.png" preserveAspectRatio="none" x="13078.125" y="-3366.210938" width="4.394531" height="4.394531"/>
<image xlink:href="tile18_7.png" preserveAspectRatio="none" x="13078.125" y="-3370.605469" width="4.394531" height="4.394531"/>
<image xlink:href="tile18_3.png" preserveAspectRatio="none" x="13078.125" y="-3388.183594" width="4.394531" height="4.394531"/>
<image xlink:href="tile19_15.png" preserveAspectRatio="none" x="13082.519531" y="-3335.449219" width="4.394531" height="4.394531"/>
<image xlink:href="tile19_14.png" preserveAspectRatio="none" x="13082.519531" y="-3339.84375" width="4.394531" height="4.394531"/>
<image xlink:href="tile19_12.png" preserveAspectRatio="none" x="13082.519531" y="-3348.632812" width="4.394531" height="4.394531"/>
<image xlink:href="tile19_11.png" preserveAspectRatio="none" x="13082.519531" y="-3353.027344" width="4.394531" height="4.394531"/>
<image xlink:href="tile19_10.png" preserveAspectRatio="none" x="13082.519531" y="-3357.421875" width="4.394531" height="4.394531"/>
<image xlink:href="tile19_9.png" preserveAspectRatio="none" x="13082.519531" y="-3361.816406" width="4.394531" height="4.394531"/>
<image xlink:href="tile19_8.png" preserveAspectRatio="none" x="13082.519531" y="-3366.210938" width="4.394531" height="4.394531"/>
<image xlink:href="tile19_7.png" preserveAspectRatio="none" x="13082.519531" y="-3370.605469" width="4.394531" height="4.394531"/>
<image xlink:href="tile19_6.png" preserveAspectRatio="none" x="13082.519531" y="-3375" width="4.394531" height="4.394531"/>
<image xlink:href="tile19_5.png" preserveAspectRatio="none" x="13082.519531" y="-3379.394531" width="4.394531" height="4.394531"/>
<image xlink:href="tile19_4.png" preserveAspectRatio="none" x="13082.519531" y="-3383.789062" width="4.394531" height="4.394531"/>
<image xlink:href="tile19_3.png" preserveAspectRatio="none" x="13082.519531" y="-3388.183594" width="4.394531" height="4.394531"/>
<image xlink:href="tile19_2.png" preserveAspectRatio="none" x="13082.519531" y="-3392.578125" width="4.394531" height="4.394531"/>
<image xlink:href="tile20_15.png" preserveAspectRatio="none" x="13086.914062" y="-3335.449219" width="4.394531" height="4.394531"/>
<image xlink:href="tile20_11.png" preserveAspectRatio="none" x="13086.914062" y="-3353.027344" width="4.394531" height="4.394531"/>
<image xlink:href="tile20_10.png" preserveAspectRatio="none" x="13086.914062" y="-3357.421875" width="4.394531" height="4.394531"/>
<image xlink:href="tile20_9.png" preserveAspectRatio="none" x="13086.914062" y="-3361.816406" width="4.394531" height="4.394531"/>
<image xlink:href="tile20_8.png" preserveAspectRatio="none" x="13086.914062" y="-3366.210938" width="4.394531" height="4.394531"/>
<image xlink:href="tile20_7.png" preserveAspectRatio="none" x="13086.914062" y="-3370.605469" width="4.394531" height="4.394531"/>
<image xlink:href="tile20_6.png" preserveAspectRatio="none" x="13086.914062" y="-3375" width="4.394531" height="4.394531"/>
<image xlink:href="tile20_5.png" preserveAspectRatio="none" x="13086.914062" y="-3379.394531" width="4.394531" height="4.394531"/>
<image xlink:href="tile20_4.png" preserveAspectRatio="none" x="13086.914062" y="-3383.789062" width="4.394531" height="4.394531"/>
<image xlink:href="tile20_3.png" preserveAspectRatio="none" x="13086.914062" y="-3388.183594" width="4.394531" height="4.394531"/>
<image xlink:href="tile20_2.png" preserveAspectRatio="none" x="13086.914062" y="-3392.578125" width="4.394531" height="4.394531"/>
<image xlink:href="tile21_15.png" preserveAspectRatio="none" x="13091.308594" y="-3335.449219" width="4.394531" height="4.394531"/>
<image xlink:href="tile21_14.png" preserveAspectRatio="none" x="13091.308594" y="-3339.84375" width="4.394531" height="4.394531"/>
<image xlink:href="tile21_11.png" preserveAspectRatio="none" x="13091.308594" y="-3353.027344" width="4.394531" height="4.394531"/>
<image xlink:href="tile21_10.png" preserveAspectRatio="none" x="13091.308594" y="-3357.421875" width="4.394531" height="4.394531"/>
<image xlink:href="tile21_9.png" preserveAspectRatio="none" x="13091.308594" y="-3361.816406" width="4.394531" height="4.394531"/>
<image xlink:href="tile21_8.png" preserveAspectRatio="none" x="13091.308594" y="-3366.210938" width="4.394531" height="4.394531"/>
<image xlink:href="tile21_7.png" preserveAspectRatio="none" x="13091.308594" y="-3370.605469" width="4.394531" height="4.394531"/>
<image xlink:href="tile21_6.png" preserveAspectRatio="none" x="13091.308594" y="-3375" width="4.394531" height="4.394531"/>
<image xlink:href="tile21_5.png" preserveAspectRatio="none" x="13091.308594" y="-3379.394531" width="4.394531" height="4.394531"/>
<image xlink:href="tile21_4.png" preserveAspectRatio="none" x="13091.308594" y="-3383.789062" width="4.394531" height="4.394531"/>
<image xlink:href="tile21_3.png" preserveAspectRatio="none" x="13091.308594" y="-3388.183594" width="4.394531" height="4.394531"/>
<image xlink:href="tile21_1.png" preserveAspectRatio="none" x="13091.308594" y="-3396.972656" width="4.394531" height="4.394531"/>
<image xlink:href="tile21_0.png" preserveAspectRatio="none" x="13091.308594" y="-3401.367188" width="4.394531" height="4.394531"/>
<image xlink:href="tile22_15.png" preserveAspectRatio="none" x="13095.703125" y="-3335.449219" width="4.394531" height="4.394531"/>
<image xlink:href="tile22_14.png" preserveAspectRatio="none" x="13095.703125" y="-3339.84375" width="4.394531" height="4.394531"/>
<image xlink:href="tile22_10.png" preserveAspectRatio="none" x="13095.703125" y="-3357.421875" width="4.394531" height="4.394531"/>
<image xlink:href="tile22_9.png" preserveAspectRatio="none" x="13095.703125" y="-3361.816406" width="4.394531" height="4.394531"/>
<image xlink:href="tile22_8.png" preserveAspectRatio="none" x="13095.703125" y="-3366.210938" width="4.394531" height="4.394531"/>
<image xlink:href="tile22_7.png" preserveAspectRatio="none" x="13095.703125" y="-3370.605469" width="4.394531" height="4.394531"/>
<image xlink:href="tile22_6.png" preserveAspectRatio="none" x="13095.703125" y="-3375" width="4.394531" height="4.394531"/>
<image xlink:href="tile22_5.png" preserveAspectRatio="none" x="13095.703125" y="-3379.394531" width="4.394531" height="4.394531"/>
<image xlink:href="tile22_4.png" preserveAspectRatio="none" x="13095.703125" y="-3383.789062" width="4.394531" height="4.394531"/>
<image xlink:href="tile22_3.png" preserveAspectRatio="none" x="13095.703125" y="-3388.183594" width="4.394531" height="4.394531"/>
</g>
</svg>
