<?xml version="1.0" encoding="UTF-8"?>
<svg  xmlns="http://www.w3.org/2000/svg" xmlns:xlink="http://www.w3.org/1999/xlink" xmlns:go="http://purl.org/svgmap/profile" viewBox="14100.0 -3866.666667 46.19291710000084 42.355062699999735" go:dataArea="14100.0 -3866.666667 46.19291710000084 42.355062699999735" >
<metadata>
 <rdf:RDF xmlns:rdf="http://www.w3.org/1999/02/22-rdf-syntax-ns#" xmlns:crs="http://opengis.org/xmldtds/transformations.dtd" xmlns:svg="http://www.w3.org/svg" >
  <rdf:Description>
   <crs:CoordinateReferenceSystem rdf:resource="http://purl.org/crs/84" svg:transform="matrix(100.0,0.0,0.0,-100.0,0.0,0.0)" />
  </rdf:Description>
 </rdf:RDF>
</metadata>
<globalCoordinateSystem srsName="http://purl.org/crs/84" transform="matrix(100.0,0.0,0.0,-100.0,0.0,0.0)" />
<g >
<image xlink:href="tile0_39.png" preserveAspectRatio="none" x="14099.853516" y="-3824.34082" width="1.098633" height="1.098633"/>
<image xlink:href="tile0_38.png" preserveAspectRatio="none" x="14099.853516" y="-3825.439453" width="1.098633" height="1.098633"/>
<image xlink:href="tile0_37.png" preserveAspectRatio="none" x="14099.853516" y="-3826.538086" width="1.098633" height="1.098633"/>
<image xlink:href="tile0_36.png" preserveAspectRatio="none" x="14099.853516" y="-3827.636719" width="1.098633" height="1.098633"/>
<image xlink:href="tile0_35.png" preserveAspectRatio="none" x="14099.853516" y="-3828.735352" width="1.098633" height="1.098633"/>
<image xlink:href="tile0_34.png" preserveAspectRatio="none" x="14099.853516" y="-3829.833984" width="1.098633" height="1.098633"/>
<image xlink:href="tile1_38.png" preserveAspectRatio="none" x="14100.952148" y="-3825.439453" width="1.098633" height="1.098633"/>
<image xlink:href="tile1_37.png" preserveAspectRatio="none" x="14100.952148" y="-3826.538086" width="1.098633" height="1.098633"/>
<image xlink:href="tile1_36.png" preserveAspectRatio="none" x="14100.952148" y="-3827.636719" width="1.098633" height="1.098633"/>
<image xlink:href="tile1_35.png" preserveAspectRatio="none" x="14100.952148" y="-3828.735352" width="1.098633" height="1.098633"/>
<image xlink:href="tile1_34.png" preserveAspectRatio="none" x="14100.952148" y="-3829.833984" width="1.098633" height="1.098633"/>
<image xlink:href="tile2_35.png" preserveAspectRatio="none" x="14102.050781" y="-3828.735352" width="1.098633" height="1.098633"/>
<image xlink:href="tile2_34.png" preserveAspectRatio="none" x="14102.050781" y="-3829.833984" width="1.098633" height="1.098633"/>
<image xlink:href="tile5_25.png" preserveAspectRatio="none" x="14105.34668" y="-3839.72168" width="1.098633" height="1.098633"/>
<image xlink:href="tile6_26.png" preserveAspectRatio="none" x="14106.445312" y="-3838.623047" width="1.098633" height="1.098633"/>
<image xlink:href="tile6_25.png" preserveAspectRatio="none" x="14106.445312" y="-3839.72168" width="1.098633" height="1.098633"/>
<image xlink:href="tile6_24.png" preserveAspectRatio="none" x="14106.445312" y="-3840.820312" width="1.098633" height="1.098633"/>
<image xlink:href="tile9_24.png" preserveAspectRatio="none" x="14109.741211" y="-3840.820312" width="1.098633" height="1.098633"/>
<image xlink:href="tile10_24.png" preserveAspectRatio="none" x="14110.839844" y="-3840.820312" width="1.098633" height="1.098633"/>
<image xlink:href="tile11_24.png" preserveAspectRatio="none" x="14111.938477" y="-3840.820312" width="1.098633" height="1.098633"/>
<image xlink:href="tile12_28.png" preserveAspectRatio="none" x="14113.037109" y="-3836.425781" width="1.098633" height="1.098633"/>
<image xlink:href="tile12_27.png" preserveAspectRatio="none" x="14113.037109" y="-3837.524414" width="1.098633" height="1.098633"/>
<image xlink:href="tile12_26.png" preserveAspectRatio="none" x="14113.037109" y="-3838.623047" width="1.098633" height="1.098633"/>
<image xlink:href="tile12_25.png" preserveAspectRatio="none" x="14113.037109" y="-3839.72168" width="1.098633" height="1.098633"/>
<image xlink:href="tile12_24.png" preserveAspectRatio="none" x="14113.037109" y="-3840.820312" width="1.098633" height="1.098633"/>
<image xlink:href="tile13_28.png" preserveAspectRatio="none" x="14114.135742" y="-3836.425781" width="1.098633" height="1.098633"/>
<image xlink:href="tile13_27.png" preserveAspectRatio="none" x="14114.135742" y="-3837.524414" width="1.098633" height="1.098633"/>
<image xlink:href="tile13_26.png" preserveAspectRatio="none" x="14114.135742" y="-3838.623047" width="1.098633" height="1.098633"/>
<image xlink:href="tile13_25.png" preserveAspectRatio="none" x="14114.135742" y="-3839.72168" width="1.098633" height="1.098633"/>
<image xlink:href="tile13_24.png" preserveAspectRatio="none" x="14114.135742" y="-3840.820312" width="1.098633" height="1.098633"/>
<image xlink:href="tile14_28.png" preserveAspectRatio="none" x="14115.234375" y="-3836.425781" width="1.098633" height="1.098633"/>
<image xlink:href="tile14_27.png" preserveAspectRatio="none" x="14115.234375" y="-3837.524414" width="1.098633" height="1.098633"/>
<image xlink:href="tile14_26.png" preserveAspectRatio="none" x="14115.234375" y="-3838.623047" width="1.098633" height="1.098633"/>
<image xlink:href="tile14_25.png" preserveAspectRatio="none" x="14115.234375" y="-3839.72168" width="1.098633" height="1.098633"/>
<image xlink:href="tile14_24.png" preserveAspectRatio="none" x="14115.234375" y="-3840.820312" width="1.098633" height="1.098633"/>
<image xlink:href="tile15_27.png" preserveAspectRatio="none" x="14116.333008" y="-3837.524414" width="1.098633" height="1.098633"/>
<image xlink:href="tile15_26.png" preserveAspectRatio="none" x="14116.333008" y="-3838.623047" width="1.098633" height="1.098633"/>
<image xlink:href="tile15_25.png" preserveAspectRatio="none" x="14116.333008" y="-3839.72168" width="1.098633" height="1.098633"/>
<image xlink:href="tile15_24.png" preserveAspectRatio="none" x="14116.333008" y="-3840.820312" width="1.098633" height="1.098633"/>
</g>
</svg>
