<?xml version="1.0" encoding="UTF-8"?>
<svg  xmlns="http://www.w3.org/2000/svg" xmlns:xlink="http://www.w3.org/1999/xlink" xmlns:go="http://purl.org/svgmap/profile" viewBox="14100.0 -3866.666667 46.19291710000084 42.355062699999735" go:dataArea="14100.0 -3866.666667 46.19291710000084 42.355062699999735" >
<metadata>
 <rdf:RDF xmlns:rdf="http://www.w3.org/1999/02/22-rdf-syntax-ns#" xmlns:crs="http://opengis.org/xmldtds/transformations.dtd" xmlns:svg="http://www.w3.org/svg" >
  <rdf:Description>
   <crs:CoordinateReferenceSystem rdf:resource="http://purl.org/crs/84" svg:transform="matrix(100.0,0.0,0.0,-100.0,0.0,0.0)" />
  </rdf:Description>
 </rdf:RDF>
</metadata>
<globalCoordinateSystem srsName="http://purl.org/crs/84" transform="matrix(100.0,0.0,0.0,-100.0,0.0,0.0)" />
<g >
<image xlink:href="tile0_7.png" preserveAspectRatio="none" x="14099.853516" y="-3859.49707" width="1.098633" height="1.098633"/>
<image xlink:href="tile0_6.png" preserveAspectRatio="none" x="14099.853516" y="-3860.595703" width="1.098633" height="1.098633"/>
<image xlink:href="tile0_5.png" preserveAspectRatio="none" x="14099.853516" y="-3861.694336" width="1.098633" height="1.098633"/>
<image xlink:href="tile0_4.png" preserveAspectRatio="none" x="14099.853516" y="-3862.792969" width="1.098633" height="1.098633"/>
<image xlink:href="tile0_3.png" preserveAspectRatio="none" x="14099.853516" y="-3863.891602" width="1.098633" height="1.098633"/>
<image xlink:href="tile1_7.png" preserveAspectRatio="none" x="14100.952148" y="-3859.49707" width="1.098633" height="1.098633"/>
<image xlink:href="tile1_6.png" preserveAspectRatio="none" x="14100.952148" y="-3860.595703" width="1.098633" height="1.098633"/>
<image xlink:href="tile1_5.png" preserveAspectRatio="none" x="14100.952148" y="-3861.694336" width="1.098633" height="1.098633"/>
<image xlink:href="tile2_7.png" preserveAspectRatio="none" x="14102.050781" y="-3859.49707" width="1.098633" height="1.098633"/>
<image xlink:href="tile2_6.png" preserveAspectRatio="none" x="14102.050781" y="-3860.595703" width="1.098633" height="1.098633"/>
<image xlink:href="tile2_5.png" preserveAspectRatio="none" x="14102.050781" y="-3861.694336" width="1.098633" height="1.098633"/>
<image xlink:href="tile3_7.png" preserveAspectRatio="none" x="14103.149414" y="-3859.49707" width="1.098633" height="1.098633"/>
<image xlink:href="tile3_6.png" preserveAspectRatio="none" x="14103.149414" y="-3860.595703" width="1.098633" height="1.098633"/>
<image xlink:href="tile3_5.png" preserveAspectRatio="none" x="14103.149414" y="-3861.694336" width="1.098633" height="1.098633"/>
<image xlink:href="tile3_4.png" preserveAspectRatio="none" x="14103.149414" y="-3862.792969" width="1.098633" height="1.098633"/>
<image xlink:href="tile4_7.png" preserveAspectRatio="none" x="14104.248047" y="-3859.49707" width="1.098633" height="1.098633"/>
<image xlink:href="tile4_6.png" preserveAspectRatio="none" x="14104.248047" y="-3860.595703" width="1.098633" height="1.098633"/>
<image xlink:href="tile4_5.png" preserveAspectRatio="none" x="14104.248047" y="-3861.694336" width="1.098633" height="1.098633"/>
<image xlink:href="tile4_4.png" preserveAspectRatio="none" x="14104.248047" y="-3862.792969" width="1.098633" height="1.098633"/>
<image xlink:href="tile5_7.png" preserveAspectRatio="none" x="14105.34668" y="-3859.49707" width="1.098633" height="1.098633"/>
<image xlink:href="tile5_6.png" preserveAspectRatio="none" x="14105.34668" y="-3860.595703" width="1.098633" height="1.098633"/>
<image xlink:href="tile5_5.png" preserveAspectRatio="none" x="14105.34668" y="-3861.694336" width="1.098633" height="1.098633"/>
<image xlink:href="tile5_4.png" preserveAspectRatio="none" x="14105.34668" y="-3862.792969" width="1.098633" height="1.098633"/>
<image xlink:href="tile5_1.png" preserveAspectRatio="none" x="14105.34668" y="-3866.088867" width="1.098633" height="1.098633"/>
<image xlink:href="tile5_0.png" preserveAspectRatio="none" x="14105.34668" y="-3867.1875" width="1.098633" height="1.098633"/>
<image xlink:href="tile6_7.png" preserveAspectRatio="none" x="14106.445312" y="-3859.49707" width="1.098633" height="1.098633"/>
<image xlink:href="tile6_6.png" preserveAspectRatio="none" x="14106.445312" y="-3860.595703" width="1.098633" height="1.098633"/>
<image xlink:href="tile6_5.png" preserveAspectRatio="none" x="14106.445312" y="-3861.694336" width="1.098633" height="1.098633"/>
<image xlink:href="tile6_2.png" preserveAspectRatio="none" x="14106.445312" y="-3864.990234" width="1.098633" height="1.098633"/>
<image xlink:href="tile6_1.png" preserveAspectRatio="none" x="14106.445312" y="-3866.088867" width="1.098633" height="1.098633"/>
<image xlink:href="tile6_0.png" preserveAspectRatio="none" x="14106.445312" y="-3867.1875" width="1.098633" height="1.098633"/>
<image xlink:href="tile7_7.png" preserveAspectRatio="none" x="14107.543945" y="-3859.49707" width="1.098633" height="1.098633"/>
<image xlink:href="tile7_6.png" preserveAspectRatio="none" x="14107.543945" y="-3860.595703" width="1.098633" height="1.098633"/>
<image xlink:href="tile7_5.png" preserveAspectRatio="none" x="14107.543945" y="-3861.694336" width="1.098633" height="1.098633"/>
<image xlink:href="tile7_2.png" preserveAspectRatio="none" x="14107.543945" y="-3864.990234" width="1.098633" height="1.098633"/>
<image xlink:href="tile7_1.png" preserveAspectRatio="none" x="14107.543945" y="-3866.088867" width="1.098633" height="1.098633"/>
<image xlink:href="tile8_3.png" preserveAspectRatio="none" x="14108.642578" y="-3863.891602" width="1.098633" height="1.098633"/>
<image xlink:href="tile8_2.png" preserveAspectRatio="none" x="14108.642578" y="-3864.990234" width="1.098633" height="1.098633"/>
<image xlink:href="tile9_5.png" preserveAspectRatio="none" x="14109.741211" y="-3861.694336" width="1.098633" height="1.098633"/>
<image xlink:href="tile9_4.png" preserveAspectRatio="none" x="14109.741211" y="-3862.792969" width="1.098633" height="1.098633"/>
<image xlink:href="tile9_3.png" preserveAspectRatio="none" x="14109.741211" y="-3863.891602" width="1.098633" height="1.098633"/>
<image xlink:href="tile9_2.png" preserveAspectRatio="none" x="14109.741211" y="-3864.990234" width="1.098633" height="1.098633"/>
<image xlink:href="tile9_1.png" preserveAspectRatio="none" x="14109.741211" y="-3866.088867" width="1.098633" height="1.098633"/>
<image xlink:href="tile10_6.png" preserveAspectRatio="none" x="14110.839844" y="-3860.595703" width="1.098633" height="1.098633"/>
<image xlink:href="tile10_5.png" preserveAspectRatio="none" x="14110.839844" y="-3861.694336" width="1.098633" height="1.098633"/>
<image xlink:href="tile10_4.png" preserveAspectRatio="none" x="14110.839844" y="-3862.792969" width="1.098633" height="1.098633"/>
<image xlink:href="tile10_3.png" preserveAspectRatio="none" x="14110.839844" y="-3863.891602" width="1.098633" height="1.098633"/>
<image xlink:href="tile10_2.png" preserveAspectRatio="none" x="14110.839844" y="-3864.990234" width="1.098633" height="1.098633"/>
<image xlink:href="tile10_1.png" preserveAspectRatio="none" x="14110.839844" y="-3866.088867" width="1.098633" height="1.098633"/>
<image xlink:href="tile11_6.png" preserveAspectRatio="none" x="14111.938477" y="-3860.595703" width="1.098633" height="1.098633"/>
<image xlink:href="tile11_5.png" preserveAspectRatio="none" x="14111.938477" y="-3861.694336" width="1.098633" height="1.098633"/>
<image xlink:href="tile11_4.png" preserveAspectRatio="none" x="14111.938477" y="-3862.792969" width="1.098633" height="1.098633"/>
<image xlink:href="tile11_3.png" preserveAspectRatio="none" x="14111.938477" y="-3863.891602" width="1.098633" height="1.098633"/>
<image xlink:href="tile11_2.png" preserveAspectRatio="none" x="14111.938477" y="-3864.990234" width="1.098633" height="1.098633"/>
<image xlink:href="tile11_1.png" preserveAspectRatio="none" x="14111.938477" y="-3866.088867" width="1.098633" height="1.098633"/>
<image xlink:href="tile11_0.png" preserveAspectRatio="none" x="14111.938477" y="-3867.1875" width="1.098633" height="1.098633"/>
<image xlink:href="tile12_7.png" preserveAspectRatio="none" x="14113.037109" y="-3859.49707" width="1.098633" height="1.098633"/>
<image xlink:href="tile12_6.png" preserveAspectRatio="none" x="14113.037109" y="-3860.595703" width="1.098633" height="1.098633"/>
<image xlink:href="tile12_5.png" preserveAspectRatio="none" x="14113.037109" y="-3861.694336" width="1.098633" height="1.098633"/>
<image xlink:href="tile12_4.png" preserveAspectRatio="none" x="14113.037109" y="-3862.792969" width="1.098633" height="1.098633"/>
<image xlink:href="tile12_3.png" preserveAspectRatio="none" x="14113.037109" y="-3863.891602" width="1.098633" height="1.098633"/>
<image xlink:href="tile12_2.png" preserveAspectRatio="none" x="14113.037109" y="-3864.990234" width="1.098633" height="1.098633"/>
<image xlink:href="tile12_1.png" preserveAspectRatio="none" x="14113.037109" y="-3866.088867" width="1.098633" height="1.098633"/>
<image xlink:href="tile12_0.png" preserveAspectRatio="none" x="14113.037109" y="-3867.1875" width="1.098633" height="1.098633"/>
<image xlink:href="tile13_7.png" preserveAspectRatio="none" x="14114.135742" y="-3859.49707" width="1.098633" height="1.098633"/>
<image xlink:href="tile13_6.png" preserveAspectRatio="none" x="14114.135742" y="-3860.595703" width="1.098633" height="1.098633"/>
<image xlink:href="tile13_5.png" preserveAspectRatio="none" x="14114.135742" y="-3861.694336" width="1.098633" height="1.098633"/>
<image xlink:href="tile13_4.png" preserveAspectRatio="none" x="14114.135742" y="-3862.792969" width="1.098633" height="1.098633"/>
<image xlink:href="tile13_3.png" preserveAspectRatio="none" x="14114.135742" y="-3863.891602" width="1.098633" height="1.098633"/>
<image xlink:href="tile13_2.png" preserveAspectRatio="none" x="14114.135742" y="-3864.990234" width="1.098633" height="1.098633"/>
<image xlink:href="tile13_1.png" preserveAspectRatio="none" x="14114.135742" y="-3866.088867" width="1.098633" height="1.098633"/>
<image xlink:href="tile13_0.png" preserveAspectRatio="none" x="14114.135742" y="-3867.1875" width="1.098633" height="1.098633"/>
<image xlink:href="tile14_7.png" preserveAspectRatio="none" x="14115.234375" y="-3859.49707" width="1.098633" height="1.098633"/>
<image xlink:href="tile14_6.png" preserveAspectRatio="none" x="14115.234375" y="-3860.595703" width="1.098633" height="1.098633"/>
<image xlink:href="tile14_5.png" preserveAspectRatio="none" x="14115.234375" y="-3861.694336" width="1.098633" height="1.098633"/>
<image xlink:href="tile14_4.png" preserveAspectRatio="none" x="14115.234375" y="-3862.792969" width="1.098633" height="1.098633"/>
<image xlink:href="tile14_3.png" preserveAspectRatio="none" x="14115.234375" y="-3863.891602" width="1.098633" height="1.098633"/>
<image xlink:href="tile14_2.png" preserveAspectRatio="none" x="14115.234375" y="-3864.990234" width="1.098633" height="1.098633"/>
<image xlink:href="tile14_1.png" preserveAspectRatio="none" x="14115.234375" y="-3866.088867" width="1.098633" height="1.098633"/>
<image xlink:href="tile14_0.png" preserveAspectRatio="none" x="14115.234375" y="-3867.1875" width="1.098633" height="1.098633"/>
<image xlink:href="tile15_7.png" preserveAspectRatio="none" x="14116.333008" y="-3859.49707" width="1.098633" height="1.098633"/>
<image xlink:href="tile15_6.png" preserveAspectRatio="none" x="14116.333008" y="-3860.595703" width="1.098633" height="1.098633"/>
<image xlink:href="tile15_5.png" preserveAspectRatio="none" x="14116.333008" y="-3861.694336" width="1.098633" height="1.098633"/>
<image xlink:href="tile15_4.png" preserveAspectRatio="none" x="14116.333008" y="-3862.792969" width="1.098633" height="1.098633"/>
<image xlink:href="tile15_3.png" preserveAspectRatio="none" x="14116.333008" y="-3863.891602" width="1.098633" height="1.098633"/>
<image xlink:href="tile15_2.png" preserveAspectRatio="none" x="14116.333008" y="-3864.990234" width="1.098633" height="1.098633"/>
<image xlink:href="tile15_1.png" preserveAspectRatio="none" x="14116.333008" y="-3866.088867" width="1.098633" height="1.098633"/>
<image xlink:href="tile15_0.png" preserveAspectRatio="none" x="14116.333008" y="-3867.1875" width="1.098633" height="1.098633"/>
</g>
</svg>
