<?xml version="1.0" encoding="UTF-8"?>
<svg  xmlns="http://www.w3.org/2000/svg" xmlns:xlink="http://www.w3.org/1999/xlink" xmlns:go="http://purl.org/svgmap/profile" viewBox="14100.0 -4333.3333330000005 100.0 66.66666630000009" go:dataArea="14100.0 -4333.3333330000005 100.0 66.66666630000009" >
<metadata>
 <rdf:RDF xmlns:rdf="http://www.w3.org/1999/02/22-rdf-syntax-ns#" xmlns:crs="http://opengis.org/xmldtds/transformations.dtd" xmlns:svg="http://www.w3.org/svg" >
  <rdf:Description>
   <crs:CoordinateReferenceSystem rdf:resource="http://purl.org/crs/84" svg:transform="matrix(100.0,0.0,0.0,-100.0,0.0,0.0)" />
  </rdf:Description>
 </rdf:RDF>
</metadata>
<globalCoordinateSystem srsName="http://purl.org/crs/84" transform="matrix(100.0,0.0,0.0,-100.0,0.0,0.0)" />
<g >
<image xlink:href="tile7_9.png" preserveAspectRatio="none" x="14115.234375" y="-4315.429688" width="2.197266" height="2.197266"/>
<image xlink:href="tile8_10.png" preserveAspectRatio="none" x="14117.431641" y="-4313.232422" width="2.197266" height="2.197266"/>
<image xlink:href="tile8_9.png" preserveAspectRatio="none" x="14117.431641" y="-4315.429688" width="2.197266" height="2.197266"/>
<image xlink:href="tile9_10.png" preserveAspectRatio="none" x="14119.628906" y="-4313.232422" width="2.197266" height="2.197266"/>
<image xlink:href="tile9_9.png" preserveAspectRatio="none" x="14119.628906" y="-4315.429688" width="2.197266" height="2.197266"/>
<image xlink:href="tile9_8.png" preserveAspectRatio="none" x="14119.628906" y="-4317.626953" width="2.197266" height="2.197266"/>
<image xlink:href="tile10_10.png" preserveAspectRatio="none" x="14121.826172" y="-4313.232422" width="2.197266" height="2.197266"/>
<image xlink:href="tile10_9.png" preserveAspectRatio="none" x="14121.826172" y="-4315.429688" width="2.197266" height="2.197266"/>
<image xlink:href="tile10_8.png" preserveAspectRatio="none" x="14121.826172" y="-4317.626953" width="2.197266" height="2.197266"/>
<image xlink:href="tile11_11.png" preserveAspectRatio="none" x="14124.023438" y="-4311.035156" width="2.197266" height="2.197266"/>
<image xlink:href="tile11_10.png" preserveAspectRatio="none" x="14124.023438" y="-4313.232422" width="2.197266" height="2.197266"/>
<image xlink:href="tile11_9.png" preserveAspectRatio="none" x="14124.023438" y="-4315.429688" width="2.197266" height="2.197266"/>
<image xlink:href="tile11_8.png" preserveAspectRatio="none" x="14124.023438" y="-4317.626953" width="2.197266" height="2.197266"/>
<image xlink:href="tile12_13.png" preserveAspectRatio="none" x="14126.220703" y="-4306.640625" width="2.197266" height="2.197266"/>
<image xlink:href="tile12_12.png" preserveAspectRatio="none" x="14126.220703" y="-4308.837891" width="2.197266" height="2.197266"/>
<image xlink:href="tile12_11.png" preserveAspectRatio="none" x="14126.220703" y="-4311.035156" width="2.197266" height="2.197266"/>
<image xlink:href="tile12_10.png" preserveAspectRatio="none" x="14126.220703" y="-4313.232422" width="2.197266" height="2.197266"/>
<image xlink:href="tile12_9.png" preserveAspectRatio="none" x="14126.220703" y="-4315.429688" width="2.197266" height="2.197266"/>
<image xlink:href="tile12_8.png" preserveAspectRatio="none" x="14126.220703" y="-4317.626953" width="2.197266" height="2.197266"/>
<image xlink:href="tile13_14.png" preserveAspectRatio="none" x="14128.417969" y="-4304.443359" width="2.197266" height="2.197266"/>
<image xlink:href="tile13_13.png" preserveAspectRatio="none" x="14128.417969" y="-4306.640625" width="2.197266" height="2.197266"/>
<image xlink:href="tile13_12.png" preserveAspectRatio="none" x="14128.417969" y="-4308.837891" width="2.197266" height="2.197266"/>
<image xlink:href="tile13_11.png" preserveAspectRatio="none" x="14128.417969" y="-4311.035156" width="2.197266" height="2.197266"/>
<image xlink:href="tile13_10.png" preserveAspectRatio="none" x="14128.417969" y="-4313.232422" width="2.197266" height="2.197266"/>
<image xlink:href="tile13_9.png" preserveAspectRatio="none" x="14128.417969" y="-4315.429688" width="2.197266" height="2.197266"/>
<image xlink:href="tile13_8.png" preserveAspectRatio="none" x="14128.417969" y="-4317.626953" width="2.197266" height="2.197266"/>
<image xlink:href="tile14_14.png" preserveAspectRatio="none" x="14130.615234" y="-4304.443359" width="2.197266" height="2.197266"/>
<image xlink:href="tile14_13.png" preserveAspectRatio="none" x="14130.615234" y="-4306.640625" width="2.197266" height="2.197266"/>
<image xlink:href="tile14_12.png" preserveAspectRatio="none" x="14130.615234" y="-4308.837891" width="2.197266" height="2.197266"/>
<image xlink:href="tile14_11.png" preserveAspectRatio="none" x="14130.615234" y="-4311.035156" width="2.197266" height="2.197266"/>
<image xlink:href="tile14_10.png" preserveAspectRatio="none" x="14130.615234" y="-4313.232422" width="2.197266" height="2.197266"/>
<image xlink:href="tile14_9.png" preserveAspectRatio="none" x="14130.615234" y="-4315.429688" width="2.197266" height="2.197266"/>
<image xlink:href="tile14_8.png" preserveAspectRatio="none" x="14130.615234" y="-4317.626953" width="2.197266" height="2.197266"/>
<image xlink:href="tile14_7.png" preserveAspectRatio="none" x="14130.615234" y="-4319.824219" width="2.197266" height="2.197266"/>
<image xlink:href="tile15_15.png" preserveAspectRatio="none" x="14132.8125" y="-4302.246094" width="2.197266" height="2.197266"/>
<image xlink:href="tile15_14.png" preserveAspectRatio="none" x="14132.8125" y="-4304.443359" width="2.197266" height="2.197266"/>
<image xlink:href="tile15_13.png" preserveAspectRatio="none" x="14132.8125" y="-4306.640625" width="2.197266" height="2.197266"/>
<image xlink:href="tile15_12.png" preserveAspectRatio="none" x="14132.8125" y="-4308.837891" width="2.197266" height="2.197266"/>
<image xlink:href="tile15_11.png" preserveAspectRatio="none" x="14132.8125" y="-4311.035156" width="2.197266" height="2.197266"/>
<image xlink:href="tile15_10.png" preserveAspectRatio="none" x="14132.8125" y="-4313.232422" width="2.197266" height="2.197266"/>
<image xlink:href="tile15_9.png" preserveAspectRatio="none" x="14132.8125" y="-4315.429688" width="2.197266" height="2.197266"/>
<image xlink:href="tile15_8.png" preserveAspectRatio="none" x="14132.8125" y="-4317.626953" width="2.197266" height="2.197266"/>
<image xlink:href="tile15_7.png" preserveAspectRatio="none" x="14132.8125" y="-4319.824219" width="2.197266" height="2.197266"/>
<image xlink:href="tile15_6.png" preserveAspectRatio="none" x="14132.8125" y="-4322.021484" width="2.197266" height="2.197266"/>
<image xlink:href="tile15_5.png" preserveAspectRatio="none" x="14132.8125" y="-4324.21875" width="2.197266" height="2.197266"/>
<image xlink:href="tile15_4.png" preserveAspectRatio="none" x="14132.8125" y="-4326.416016" width="2.197266" height="2.197266"/>
</g>
</svg>
