<?xml version="1.0" encoding="UTF-8"?>
<svg  xmlns="http://www.w3.org/2000/svg" xmlns:xlink="http://www.w3.org/1999/xlink" xmlns:go="http://purl.org/svgmap/profile" viewBox="14100.0 -4333.3333330000005 100.0 66.66666630000009" go:dataArea="14100.0 -4333.3333330000005 100.0 66.66666630000009" >
<metadata>
 <rdf:RDF xmlns:rdf="http://www.w3.org/1999/02/22-rdf-syntax-ns#" xmlns:crs="http://opengis.org/xmldtds/transformations.dtd" xmlns:svg="http://www.w3.org/svg" >
  <rdf:Description>
   <crs:CoordinateReferenceSystem rdf:resource="http://purl.org/crs/84" svg:transform="matrix(100.0,0.0,0.0,-100.0,0.0,0.0)" />
  </rdf:Description>
 </rdf:RDF>
</metadata>
<globalCoordinateSystem srsName="http://purl.org/crs/84" transform="matrix(100.0,0.0,0.0,-100.0,0.0,0.0)" />
<g >
<image xlink:href="tile32_15.png" preserveAspectRatio="none" x="14170.166016" y="-4302.246094" width="2.197266" height="2.197266"/>
<image xlink:href="tile32_13.png" preserveAspectRatio="none" x="14170.166016" y="-4306.640625" width="2.197266" height="2.197266"/>
<image xlink:href="tile32_12.png" preserveAspectRatio="none" x="14170.166016" y="-4308.837891" width="2.197266" height="2.197266"/>
<image xlink:href="tile32_11.png" preserveAspectRatio="none" x="14170.166016" y="-4311.035156" width="2.197266" height="2.197266"/>
<image xlink:href="tile32_10.png" preserveAspectRatio="none" x="14170.166016" y="-4313.232422" width="2.197266" height="2.197266"/>
<image xlink:href="tile32_9.png" preserveAspectRatio="none" x="14170.166016" y="-4315.429688" width="2.197266" height="2.197266"/>
<image xlink:href="tile32_8.png" preserveAspectRatio="none" x="14170.166016" y="-4317.626953" width="2.197266" height="2.197266"/>
<image xlink:href="tile32_7.png" preserveAspectRatio="none" x="14170.166016" y="-4319.824219" width="2.197266" height="2.197266"/>
<image xlink:href="tile32_6.png" preserveAspectRatio="none" x="14170.166016" y="-4322.021484" width="2.197266" height="2.197266"/>
<image xlink:href="tile32_5.png" preserveAspectRatio="none" x="14170.166016" y="-4324.21875" width="2.197266" height="2.197266"/>
<image xlink:href="tile32_4.png" preserveAspectRatio="none" x="14170.166016" y="-4326.416016" width="2.197266" height="2.197266"/>
<image xlink:href="tile32_3.png" preserveAspectRatio="none" x="14170.166016" y="-4328.613281" width="2.197266" height="2.197266"/>
<image xlink:href="tile32_2.png" preserveAspectRatio="none" x="14170.166016" y="-4330.810547" width="2.197266" height="2.197266"/>
<image xlink:href="tile32_1.png" preserveAspectRatio="none" x="14170.166016" y="-4333.007812" width="2.197266" height="2.197266"/>
<image xlink:href="tile32_0.png" preserveAspectRatio="none" x="14170.166016" y="-4335.205078" width="2.197266" height="2.197266"/>
<image xlink:href="tile33_13.png" preserveAspectRatio="none" x="14172.363281" y="-4306.640625" width="2.197266" height="2.197266"/>
<image xlink:href="tile33_12.png" preserveAspectRatio="none" x="14172.363281" y="-4308.837891" width="2.197266" height="2.197266"/>
<image xlink:href="tile33_11.png" preserveAspectRatio="none" x="14172.363281" y="-4311.035156" width="2.197266" height="2.197266"/>
<image xlink:href="tile33_10.png" preserveAspectRatio="none" x="14172.363281" y="-4313.232422" width="2.197266" height="2.197266"/>
<image xlink:href="tile33_9.png" preserveAspectRatio="none" x="14172.363281" y="-4315.429688" width="2.197266" height="2.197266"/>
<image xlink:href="tile33_8.png" preserveAspectRatio="none" x="14172.363281" y="-4317.626953" width="2.197266" height="2.197266"/>
<image xlink:href="tile33_7.png" preserveAspectRatio="none" x="14172.363281" y="-4319.824219" width="2.197266" height="2.197266"/>
<image xlink:href="tile33_6.png" preserveAspectRatio="none" x="14172.363281" y="-4322.021484" width="2.197266" height="2.197266"/>
<image xlink:href="tile33_5.png" preserveAspectRatio="none" x="14172.363281" y="-4324.21875" width="2.197266" height="2.197266"/>
<image xlink:href="tile33_4.png" preserveAspectRatio="none" x="14172.363281" y="-4326.416016" width="2.197266" height="2.197266"/>
<image xlink:href="tile33_3.png" preserveAspectRatio="none" x="14172.363281" y="-4328.613281" width="2.197266" height="2.197266"/>
<image xlink:href="tile33_2.png" preserveAspectRatio="none" x="14172.363281" y="-4330.810547" width="2.197266" height="2.197266"/>
<image xlink:href="tile33_1.png" preserveAspectRatio="none" x="14172.363281" y="-4333.007812" width="2.197266" height="2.197266"/>
<image xlink:href="tile33_0.png" preserveAspectRatio="none" x="14172.363281" y="-4335.205078" width="2.197266" height="2.197266"/>
<image xlink:href="tile34_14.png" preserveAspectRatio="none" x="14174.560547" y="-4304.443359" width="2.197266" height="2.197266"/>
<image xlink:href="tile34_13.png" preserveAspectRatio="none" x="14174.560547" y="-4306.640625" width="2.197266" height="2.197266"/>
<image xlink:href="tile34_12.png" preserveAspectRatio="none" x="14174.560547" y="-4308.837891" width="2.197266" height="2.197266"/>
<image xlink:href="tile34_9.png" preserveAspectRatio="none" x="14174.560547" y="-4315.429688" width="2.197266" height="2.197266"/>
<image xlink:href="tile34_8.png" preserveAspectRatio="none" x="14174.560547" y="-4317.626953" width="2.197266" height="2.197266"/>
<image xlink:href="tile34_7.png" preserveAspectRatio="none" x="14174.560547" y="-4319.824219" width="2.197266" height="2.197266"/>
<image xlink:href="tile34_6.png" preserveAspectRatio="none" x="14174.560547" y="-4322.021484" width="2.197266" height="2.197266"/>
<image xlink:href="tile34_5.png" preserveAspectRatio="none" x="14174.560547" y="-4324.21875" width="2.197266" height="2.197266"/>
<image xlink:href="tile34_4.png" preserveAspectRatio="none" x="14174.560547" y="-4326.416016" width="2.197266" height="2.197266"/>
<image xlink:href="tile34_3.png" preserveAspectRatio="none" x="14174.560547" y="-4328.613281" width="2.197266" height="2.197266"/>
<image xlink:href="tile34_2.png" preserveAspectRatio="none" x="14174.560547" y="-4330.810547" width="2.197266" height="2.197266"/>
<image xlink:href="tile34_1.png" preserveAspectRatio="none" x="14174.560547" y="-4333.007812" width="2.197266" height="2.197266"/>
<image xlink:href="tile34_0.png" preserveAspectRatio="none" x="14174.560547" y="-4335.205078" width="2.197266" height="2.197266"/>
<image xlink:href="tile35_15.png" preserveAspectRatio="none" x="14176.757812" y="-4302.246094" width="2.197266" height="2.197266"/>
<image xlink:href="tile35_14.png" preserveAspectRatio="none" x="14176.757812" y="-4304.443359" width="2.197266" height="2.197266"/>
<image xlink:href="tile35_13.png" preserveAspectRatio="none" x="14176.757812" y="-4306.640625" width="2.197266" height="2.197266"/>
<image xlink:href="tile35_12.png" preserveAspectRatio="none" x="14176.757812" y="-4308.837891" width="2.197266" height="2.197266"/>
<image xlink:href="tile35_9.png" preserveAspectRatio="none" x="14176.757812" y="-4315.429688" width="2.197266" height="2.197266"/>
<image xlink:href="tile35_8.png" preserveAspectRatio="none" x="14176.757812" y="-4317.626953" width="2.197266" height="2.197266"/>
<image xlink:href="tile35_7.png" preserveAspectRatio="none" x="14176.757812" y="-4319.824219" width="2.197266" height="2.197266"/>
<image xlink:href="tile35_6.png" preserveAspectRatio="none" x="14176.757812" y="-4322.021484" width="2.197266" height="2.197266"/>
<image xlink:href="tile35_5.png" preserveAspectRatio="none" x="14176.757812" y="-4324.21875" width="2.197266" height="2.197266"/>
<image xlink:href="tile35_4.png" preserveAspectRatio="none" x="14176.757812" y="-4326.416016" width="2.197266" height="2.197266"/>
<image xlink:href="tile35_3.png" preserveAspectRatio="none" x="14176.757812" y="-4328.613281" width="2.197266" height="2.197266"/>
<image xlink:href="tile35_2.png" preserveAspectRatio="none" x="14176.757812" y="-4330.810547" width="2.197266" height="2.197266"/>
<image xlink:href="tile35_1.png" preserveAspectRatio="none" x="14176.757812" y="-4333.007812" width="2.197266" height="2.197266"/>
<image xlink:href="tile35_0.png" preserveAspectRatio="none" x="14176.757812" y="-4335.205078" width="2.197266" height="2.197266"/>
<image xlink:href="tile36_15.png" preserveAspectRatio="none" x="14178.955078" y="-4302.246094" width="2.197266" height="2.197266"/>
<image xlink:href="tile36_14.png" preserveAspectRatio="none" x="14178.955078" y="-4304.443359" width="2.197266" height="2.197266"/>
<image xlink:href="tile36_13.png" preserveAspectRatio="none" x="14178.955078" y="-4306.640625" width="2.197266" height="2.197266"/>
<image xlink:href="tile36_9.png" preserveAspectRatio="none" x="14178.955078" y="-4315.429688" width="2.197266" height="2.197266"/>
<image xlink:href="tile36_8.png" preserveAspectRatio="none" x="14178.955078" y="-4317.626953" width="2.197266" height="2.197266"/>
<image xlink:href="tile36_7.png" preserveAspectRatio="none" x="14178.955078" y="-4319.824219" width="2.197266" height="2.197266"/>
<image xlink:href="tile36_6.png" preserveAspectRatio="none" x="14178.955078" y="-4322.021484" width="2.197266" height="2.197266"/>
<image xlink:href="tile36_5.png" preserveAspectRatio="none" x="14178.955078" y="-4324.21875" width="2.197266" height="2.197266"/>
<image xlink:href="tile36_4.png" preserveAspectRatio="none" x="14178.955078" y="-4326.416016" width="2.197266" height="2.197266"/>
<image xlink:href="tile36_3.png" preserveAspectRatio="none" x="14178.955078" y="-4328.613281" width="2.197266" height="2.197266"/>
<image xlink:href="tile36_2.png" preserveAspectRatio="none" x="14178.955078" y="-4330.810547" width="2.197266" height="2.197266"/>
<image xlink:href="tile36_1.png" preserveAspectRatio="none" x="14178.955078" y="-4333.007812" width="2.197266" height="2.197266"/>
<image xlink:href="tile36_0.png" preserveAspectRatio="none" x="14178.955078" y="-4335.205078" width="2.197266" height="2.197266"/>
<image xlink:href="tile37_15.png" preserveAspectRatio="none" x="14181.152344" y="-4302.246094" width="2.197266" height="2.197266"/>
<image xlink:href="tile37_14.png" preserveAspectRatio="none" x="14181.152344" y="-4304.443359" width="2.197266" height="2.197266"/>
<image xlink:href="tile37_13.png" preserveAspectRatio="none" x="14181.152344" y="-4306.640625" width="2.197266" height="2.197266"/>
<image xlink:href="tile37_9.png" preserveAspectRatio="none" x="14181.152344" y="-4315.429688" width="2.197266" height="2.197266"/>
<image xlink:href="tile37_8.png" preserveAspectRatio="none" x="14181.152344" y="-4317.626953" width="2.197266" height="2.197266"/>
<image xlink:href="tile37_5.png" preserveAspectRatio="none" x="14181.152344" y="-4324.21875" width="2.197266" height="2.197266"/>
<image xlink:href="tile37_4.png" preserveAspectRatio="none" x="14181.152344" y="-4326.416016" width="2.197266" height="2.197266"/>
<image xlink:href="tile37_2.png" preserveAspectRatio="none" x="14181.152344" y="-4330.810547" width="2.197266" height="2.197266"/>
<image xlink:href="tile37_1.png" preserveAspectRatio="none" x="14181.152344" y="-4333.007812" width="2.197266" height="2.197266"/>
<image xlink:href="tile37_0.png" preserveAspectRatio="none" x="14181.152344" y="-4335.205078" width="2.197266" height="2.197266"/>
<image xlink:href="tile38_15.png" preserveAspectRatio="none" x="14183.349609" y="-4302.246094" width="2.197266" height="2.197266"/>
<image xlink:href="tile38_8.png" preserveAspectRatio="none" x="14183.349609" y="-4317.626953" width="2.197266" height="2.197266"/>
<image xlink:href="tile38_5.png" preserveAspectRatio="none" x="14183.349609" y="-4324.21875" width="2.197266" height="2.197266"/>
<image xlink:href="tile38_4.png" preserveAspectRatio="none" x="14183.349609" y="-4326.416016" width="2.197266" height="2.197266"/>
<image xlink:href="tile39_8.png" preserveAspectRatio="none" x="14185.546875" y="-4317.626953" width="2.197266" height="2.197266"/>
<image xlink:href="tile39_5.png" preserveAspectRatio="none" x="14185.546875" y="-4324.21875" width="2.197266" height="2.197266"/>
<image xlink:href="tile39_4.png" preserveAspectRatio="none" x="14185.546875" y="-4326.416016" width="2.197266" height="2.197266"/>
<image xlink:href="tile40_8.png" preserveAspectRatio="none" x="14187.744141" y="-4317.626953" width="2.197266" height="2.197266"/>
<image xlink:href="tile40_5.png" preserveAspectRatio="none" x="14187.744141" y="-4324.21875" width="2.197266" height="2.197266"/>
<image xlink:href="tile40_4.png" preserveAspectRatio="none" x="14187.744141" y="-4326.416016" width="2.197266" height="2.197266"/>
<image xlink:href="tile41_8.png" preserveAspectRatio="none" x="14189.941406" y="-4317.626953" width="2.197266" height="2.197266"/>
<image xlink:href="tile41_4.png" preserveAspectRatio="none" x="14189.941406" y="-4326.416016" width="2.197266" height="2.197266"/>
<image xlink:href="tile42_9.png" preserveAspectRatio="none" x="14192.138672" y="-4315.429688" width="2.197266" height="2.197266"/>
<image xlink:href="tile42_8.png" preserveAspectRatio="none" x="14192.138672" y="-4317.626953" width="2.197266" height="2.197266"/>
<image xlink:href="tile42_4.png" preserveAspectRatio="none" x="14192.138672" y="-4326.416016" width="2.197266" height="2.197266"/>
<image xlink:href="tile43_9.png" preserveAspectRatio="none" x="14194.335938" y="-4315.429688" width="2.197266" height="2.197266"/>
<image xlink:href="tile43_4.png" preserveAspectRatio="none" x="14194.335938" y="-4326.416016" width="2.197266" height="2.197266"/>
<image xlink:href="tile43_3.png" preserveAspectRatio="none" x="14194.335938" y="-4328.613281" width="2.197266" height="2.197266"/>
<image xlink:href="tile44_4.png" preserveAspectRatio="none" x="14196.533203" y="-4326.416016" width="2.197266" height="2.197266"/>
<image xlink:href="tile45_4.png" preserveAspectRatio="none" x="14198.730469" y="-4326.416016" width="2.197266" height="2.197266"/>
</g>
</svg>
