<?xml version="1.0" encoding="UTF-8"?>
<svg  xmlns="http://www.w3.org/2000/svg" xmlns:xlink="http://www.w3.org/1999/xlink" xmlns:go="http://purl.org/svgmap/profile" viewBox="13200.0 -3533.333333 100.0 66.6666670000005" go:dataArea="13200.0 -3533.333333 100.0 66.6666670000005" >
<metadata>
 <rdf:RDF xmlns:rdf="http://www.w3.org/1999/02/22-rdf-syntax-ns#" xmlns:crs="http://opengis.org/xmldtds/transformations.dtd" xmlns:svg="http://www.w3.org/svg" >
  <rdf:Description>
   <crs:CoordinateReferenceSystem rdf:resource="http://purl.org/crs/84" svg:transform="matrix(100.0,0.0,0.0,-100.0,0.0,0.0)" />
  </rdf:Description>
 </rdf:RDF>
</metadata>
<globalCoordinateSystem srsName="http://purl.org/crs/84" transform="matrix(100.0,0.0,0.0,-100.0,0.0,0.0)" />
<g >
<image xlink:href="tile32_1.png" preserveAspectRatio="none" x="13269.287109" y="-3533.203125" width="2.197266" height="2.197266"/>
<image xlink:href="tile32_0.png" preserveAspectRatio="none" x="13269.287109" y="-3535.400391" width="2.197266" height="2.197266"/>
<image xlink:href="tile33_4.png" preserveAspectRatio="none" x="13271.484375" y="-3526.611328" width="2.197266" height="2.197266"/>
<image xlink:href="tile33_3.png" preserveAspectRatio="none" x="13271.484375" y="-3528.808594" width="2.197266" height="2.197266"/>
<image xlink:href="tile33_2.png" preserveAspectRatio="none" x="13271.484375" y="-3531.005859" width="2.197266" height="2.197266"/>
<image xlink:href="tile33_1.png" preserveAspectRatio="none" x="13271.484375" y="-3533.203125" width="2.197266" height="2.197266"/>
<image xlink:href="tile33_0.png" preserveAspectRatio="none" x="13271.484375" y="-3535.400391" width="2.197266" height="2.197266"/>
<image xlink:href="tile34_2.png" preserveAspectRatio="none" x="13273.681641" y="-3531.005859" width="2.197266" height="2.197266"/>
<image xlink:href="tile34_0.png" preserveAspectRatio="none" x="13273.681641" y="-3535.400391" width="2.197266" height="2.197266"/>
<image xlink:href="tile35_2.png" preserveAspectRatio="none" x="13275.878906" y="-3531.005859" width="2.197266" height="2.197266"/>
<image xlink:href="tile35_1.png" preserveAspectRatio="none" x="13275.878906" y="-3533.203125" width="2.197266" height="2.197266"/>
<image xlink:href="tile35_0.png" preserveAspectRatio="none" x="13275.878906" y="-3535.400391" width="2.197266" height="2.197266"/>
<image xlink:href="tile37_0.png" preserveAspectRatio="none" x="13280.273438" y="-3535.400391" width="2.197266" height="2.197266"/>
<image xlink:href="tile38_0.png" preserveAspectRatio="none" x="13282.470703" y="-3535.400391" width="2.197266" height="2.197266"/>
<image xlink:href="tile39_3.png" preserveAspectRatio="none" x="13284.667969" y="-3528.808594" width="2.197266" height="2.197266"/>
<image xlink:href="tile39_2.png" preserveAspectRatio="none" x="13284.667969" y="-3531.005859" width="2.197266" height="2.197266"/>
<image xlink:href="tile40_3.png" preserveAspectRatio="none" x="13286.865234" y="-3528.808594" width="2.197266" height="2.197266"/>
<image xlink:href="tile40_2.png" preserveAspectRatio="none" x="13286.865234" y="-3531.005859" width="2.197266" height="2.197266"/>
<image xlink:href="tile40_1.png" preserveAspectRatio="none" x="13286.865234" y="-3533.203125" width="2.197266" height="2.197266"/>
<image xlink:href="tile40_0.png" preserveAspectRatio="none" x="13286.865234" y="-3535.400391" width="2.197266" height="2.197266"/>
<image xlink:href="tile41_4.png" preserveAspectRatio="none" x="13289.0625" y="-3526.611328" width="2.197266" height="2.197266"/>
<image xlink:href="tile41_3.png" preserveAspectRatio="none" x="13289.0625" y="-3528.808594" width="2.197266" height="2.197266"/>
<image xlink:href="tile41_2.png" preserveAspectRatio="none" x="13289.0625" y="-3531.005859" width="2.197266" height="2.197266"/>
<image xlink:href="tile41_1.png" preserveAspectRatio="none" x="13289.0625" y="-3533.203125" width="2.197266" height="2.197266"/>
<image xlink:href="tile42_3.png" preserveAspectRatio="none" x="13291.259766" y="-3528.808594" width="2.197266" height="2.197266"/>
<image xlink:href="tile42_2.png" preserveAspectRatio="none" x="13291.259766" y="-3531.005859" width="2.197266" height="2.197266"/>
<image xlink:href="tile42_1.png" preserveAspectRatio="none" x="13291.259766" y="-3533.203125" width="2.197266" height="2.197266"/>
<image xlink:href="tile42_0.png" preserveAspectRatio="none" x="13291.259766" y="-3535.400391" width="2.197266" height="2.197266"/>
<image xlink:href="tile43_1.png" preserveAspectRatio="none" x="13293.457031" y="-3533.203125" width="2.197266" height="2.197266"/>
<image xlink:href="tile43_0.png" preserveAspectRatio="none" x="13293.457031" y="-3535.400391" width="2.197266" height="2.197266"/>
<image xlink:href="tile44_1.png" preserveAspectRatio="none" x="13295.654297" y="-3533.203125" width="2.197266" height="2.197266"/>
</g>
</svg>
