<?xml version="1.0" encoding="UTF-8"?>
<svg  xmlns="http://www.w3.org/2000/svg" xmlns:xlink="http://www.w3.org/1999/xlink" xmlns:go="http://purl.org/svgmap/profile" viewBox="13200.0 -3533.333333 100.0 66.6666670000005" go:dataArea="13200.0 -3533.333333 100.0 66.6666670000005" >
<metadata>
 <rdf:RDF xmlns:rdf="http://www.w3.org/1999/02/22-rdf-syntax-ns#" xmlns:crs="http://opengis.org/xmldtds/transformations.dtd" xmlns:svg="http://www.w3.org/svg" >
  <rdf:Description>
   <crs:CoordinateReferenceSystem rdf:resource="http://purl.org/crs/84" svg:transform="matrix(100.0,0.0,0.0,-100.0,0.0,0.0)" />
  </rdf:Description>
 </rdf:RDF>
</metadata>
<globalCoordinateSystem srsName="http://purl.org/crs/84" transform="matrix(100.0,0.0,0.0,-100.0,0.0,0.0)" />
<g >
<image xlink:href="tile32_31.png" preserveAspectRatio="none" x="13269.287109" y="-3467.285156" width="2.197266" height="2.197266"/>
<image xlink:href="tile32_30.png" preserveAspectRatio="none" x="13269.287109" y="-3469.482422" width="2.197266" height="2.197266"/>
<image xlink:href="tile32_24.png" preserveAspectRatio="none" x="13269.287109" y="-3482.666016" width="2.197266" height="2.197266"/>
<image xlink:href="tile32_23.png" preserveAspectRatio="none" x="13269.287109" y="-3484.863281" width="2.197266" height="2.197266"/>
<image xlink:href="tile32_22.png" preserveAspectRatio="none" x="13269.287109" y="-3487.060547" width="2.197266" height="2.197266"/>
<image xlink:href="tile32_21.png" preserveAspectRatio="none" x="13269.287109" y="-3489.257812" width="2.197266" height="2.197266"/>
<image xlink:href="tile33_31.png" preserveAspectRatio="none" x="13271.484375" y="-3467.285156" width="2.197266" height="2.197266"/>
<image xlink:href="tile33_30.png" preserveAspectRatio="none" x="13271.484375" y="-3469.482422" width="2.197266" height="2.197266"/>
<image xlink:href="tile33_24.png" preserveAspectRatio="none" x="13271.484375" y="-3482.666016" width="2.197266" height="2.197266"/>
<image xlink:href="tile33_23.png" preserveAspectRatio="none" x="13271.484375" y="-3484.863281" width="2.197266" height="2.197266"/>
<image xlink:href="tile34_31.png" preserveAspectRatio="none" x="13273.681641" y="-3467.285156" width="2.197266" height="2.197266"/>
<image xlink:href="tile34_30.png" preserveAspectRatio="none" x="13273.681641" y="-3469.482422" width="2.197266" height="2.197266"/>
<image xlink:href="tile34_29.png" preserveAspectRatio="none" x="13273.681641" y="-3471.679688" width="2.197266" height="2.197266"/>
<image xlink:href="tile34_24.png" preserveAspectRatio="none" x="13273.681641" y="-3482.666016" width="2.197266" height="2.197266"/>
<image xlink:href="tile35_30.png" preserveAspectRatio="none" x="13275.878906" y="-3469.482422" width="2.197266" height="2.197266"/>
<image xlink:href="tile35_29.png" preserveAspectRatio="none" x="13275.878906" y="-3471.679688" width="2.197266" height="2.197266"/>
<image xlink:href="tile35_28.png" preserveAspectRatio="none" x="13275.878906" y="-3473.876953" width="2.197266" height="2.197266"/>
<image xlink:href="tile35_25.png" preserveAspectRatio="none" x="13275.878906" y="-3480.46875" width="2.197266" height="2.197266"/>
<image xlink:href="tile35_24.png" preserveAspectRatio="none" x="13275.878906" y="-3482.666016" width="2.197266" height="2.197266"/>
<image xlink:href="tile35_21.png" preserveAspectRatio="none" x="13275.878906" y="-3489.257812" width="2.197266" height="2.197266"/>
<image xlink:href="tile35_20.png" preserveAspectRatio="none" x="13275.878906" y="-3491.455078" width="2.197266" height="2.197266"/>
<image xlink:href="tile35_19.png" preserveAspectRatio="none" x="13275.878906" y="-3493.652344" width="2.197266" height="2.197266"/>
<image xlink:href="tile36_29.png" preserveAspectRatio="none" x="13278.076172" y="-3471.679688" width="2.197266" height="2.197266"/>
<image xlink:href="tile36_28.png" preserveAspectRatio="none" x="13278.076172" y="-3473.876953" width="2.197266" height="2.197266"/>
<image xlink:href="tile36_27.png" preserveAspectRatio="none" x="13278.076172" y="-3476.074219" width="2.197266" height="2.197266"/>
<image xlink:href="tile36_26.png" preserveAspectRatio="none" x="13278.076172" y="-3478.271484" width="2.197266" height="2.197266"/>
<image xlink:href="tile36_25.png" preserveAspectRatio="none" x="13278.076172" y="-3480.46875" width="2.197266" height="2.197266"/>
<image xlink:href="tile36_24.png" preserveAspectRatio="none" x="13278.076172" y="-3482.666016" width="2.197266" height="2.197266"/>
<image xlink:href="tile36_23.png" preserveAspectRatio="none" x="13278.076172" y="-3484.863281" width="2.197266" height="2.197266"/>
<image xlink:href="tile36_22.png" preserveAspectRatio="none" x="13278.076172" y="-3487.060547" width="2.197266" height="2.197266"/>
<image xlink:href="tile36_21.png" preserveAspectRatio="none" x="13278.076172" y="-3489.257812" width="2.197266" height="2.197266"/>
<image xlink:href="tile37_28.png" preserveAspectRatio="none" x="13280.273438" y="-3473.876953" width="2.197266" height="2.197266"/>
<image xlink:href="tile37_27.png" preserveAspectRatio="none" x="13280.273438" y="-3476.074219" width="2.197266" height="2.197266"/>
<image xlink:href="tile37_26.png" preserveAspectRatio="none" x="13280.273438" y="-3478.271484" width="2.197266" height="2.197266"/>
<image xlink:href="tile37_25.png" preserveAspectRatio="none" x="13280.273438" y="-3480.46875" width="2.197266" height="2.197266"/>
<image xlink:href="tile37_24.png" preserveAspectRatio="none" x="13280.273438" y="-3482.666016" width="2.197266" height="2.197266"/>
<image xlink:href="tile37_23.png" preserveAspectRatio="none" x="13280.273438" y="-3484.863281" width="2.197266" height="2.197266"/>
<image xlink:href="tile37_22.png" preserveAspectRatio="none" x="13280.273438" y="-3487.060547" width="2.197266" height="2.197266"/>
<image xlink:href="tile38_26.png" preserveAspectRatio="none" x="13282.470703" y="-3478.271484" width="2.197266" height="2.197266"/>
<image xlink:href="tile38_25.png" preserveAspectRatio="none" x="13282.470703" y="-3480.46875" width="2.197266" height="2.197266"/>
<image xlink:href="tile38_24.png" preserveAspectRatio="none" x="13282.470703" y="-3482.666016" width="2.197266" height="2.197266"/>
<image xlink:href="tile38_23.png" preserveAspectRatio="none" x="13282.470703" y="-3484.863281" width="2.197266" height="2.197266"/>
<image xlink:href="tile38_22.png" preserveAspectRatio="none" x="13282.470703" y="-3487.060547" width="2.197266" height="2.197266"/>
<image xlink:href="tile38_21.png" preserveAspectRatio="none" x="13282.470703" y="-3489.257812" width="2.197266" height="2.197266"/>
<image xlink:href="tile39_25.png" preserveAspectRatio="none" x="13284.667969" y="-3480.46875" width="2.197266" height="2.197266"/>
<image xlink:href="tile39_24.png" preserveAspectRatio="none" x="13284.667969" y="-3482.666016" width="2.197266" height="2.197266"/>
<image xlink:href="tile39_23.png" preserveAspectRatio="none" x="13284.667969" y="-3484.863281" width="2.197266" height="2.197266"/>
<image xlink:href="tile39_22.png" preserveAspectRatio="none" x="13284.667969" y="-3487.060547" width="2.197266" height="2.197266"/>
<image xlink:href="tile39_21.png" preserveAspectRatio="none" x="13284.667969" y="-3489.257812" width="2.197266" height="2.197266"/>
<image xlink:href="tile39_20.png" preserveAspectRatio="none" x="13284.667969" y="-3491.455078" width="2.197266" height="2.197266"/>
<image xlink:href="tile40_25.png" preserveAspectRatio="none" x="13286.865234" y="-3480.46875" width="2.197266" height="2.197266"/>
<image xlink:href="tile40_24.png" preserveAspectRatio="none" x="13286.865234" y="-3482.666016" width="2.197266" height="2.197266"/>
<image xlink:href="tile40_23.png" preserveAspectRatio="none" x="13286.865234" y="-3484.863281" width="2.197266" height="2.197266"/>
<image xlink:href="tile40_22.png" preserveAspectRatio="none" x="13286.865234" y="-3487.060547" width="2.197266" height="2.197266"/>
<image xlink:href="tile41_26.png" preserveAspectRatio="none" x="13289.0625" y="-3478.271484" width="2.197266" height="2.197266"/>
<image xlink:href="tile41_25.png" preserveAspectRatio="none" x="13289.0625" y="-3480.46875" width="2.197266" height="2.197266"/>
<image xlink:href="tile41_22.png" preserveAspectRatio="none" x="13289.0625" y="-3487.060547" width="2.197266" height="2.197266"/>
<image xlink:href="tile42_27.png" preserveAspectRatio="none" x="13291.259766" y="-3476.074219" width="2.197266" height="2.197266"/>
<image xlink:href="tile42_26.png" preserveAspectRatio="none" x="13291.259766" y="-3478.271484" width="2.197266" height="2.197266"/>
<image xlink:href="tile42_25.png" preserveAspectRatio="none" x="13291.259766" y="-3480.46875" width="2.197266" height="2.197266"/>
<image xlink:href="tile42_24.png" preserveAspectRatio="none" x="13291.259766" y="-3482.666016" width="2.197266" height="2.197266"/>
<image xlink:href="tile43_27.png" preserveAspectRatio="none" x="13293.457031" y="-3476.074219" width="2.197266" height="2.197266"/>
<image xlink:href="tile43_26.png" preserveAspectRatio="none" x="13293.457031" y="-3478.271484" width="2.197266" height="2.197266"/>
<image xlink:href="tile43_25.png" preserveAspectRatio="none" x="13293.457031" y="-3480.46875" width="2.197266" height="2.197266"/>
<image xlink:href="tile43_24.png" preserveAspectRatio="none" x="13293.457031" y="-3482.666016" width="2.197266" height="2.197266"/>
<image xlink:href="tile44_28.png" preserveAspectRatio="none" x="13295.654297" y="-3473.876953" width="2.197266" height="2.197266"/>
<image xlink:href="tile44_27.png" preserveAspectRatio="none" x="13295.654297" y="-3476.074219" width="2.197266" height="2.197266"/>
<image xlink:href="tile44_26.png" preserveAspectRatio="none" x="13295.654297" y="-3478.271484" width="2.197266" height="2.197266"/>
<image xlink:href="tile44_25.png" preserveAspectRatio="none" x="13295.654297" y="-3480.46875" width="2.197266" height="2.197266"/>
<image xlink:href="tile44_21.png" preserveAspectRatio="none" x="13295.654297" y="-3489.257812" width="2.197266" height="2.197266"/>
<image xlink:href="tile45_29.png" preserveAspectRatio="none" x="13297.851562" y="-3471.679688" width="2.197266" height="2.197266"/>
<image xlink:href="tile45_28.png" preserveAspectRatio="none" x="13297.851562" y="-3473.876953" width="2.197266" height="2.197266"/>
<image xlink:href="tile45_27.png" preserveAspectRatio="none" x="13297.851562" y="-3476.074219" width="2.197266" height="2.197266"/>
<image xlink:href="tile45_25.png" preserveAspectRatio="none" x="13297.851562" y="-3480.46875" width="2.197266" height="2.197266"/>
<image xlink:href="tile45_21.png" preserveAspectRatio="none" x="13297.851562" y="-3489.257812" width="2.197266" height="2.197266"/>
<image xlink:href="tile45_17.png" preserveAspectRatio="none" x="13297.851562" y="-3498.046875" width="2.197266" height="2.197266"/>
<image xlink:href="tile45_16.png" preserveAspectRatio="none" x="13297.851562" y="-3500.244141" width="2.197266" height="2.197266"/>
</g>
</svg>
