<?xml version="1.0" encoding="UTF-8"?>
<svg  xmlns="http://www.w3.org/2000/svg" xmlns:xlink="http://www.w3.org/1999/xlink" xmlns:go="http://purl.org/svgmap/profile" viewBox="13830.032136099999 -3800.0 69.96786390000125 66.66666699999979" go:dataArea="13830.032136099999 -3800.0 69.96786390000125 66.66666699999979" >
<metadata>
 <rdf:RDF xmlns:rdf="http://www.w3.org/1999/02/22-rdf-syntax-ns#" xmlns:crs="http://opengis.org/xmldtds/transformations.dtd" xmlns:svg="http://www.w3.org/svg" >
  <rdf:Description>
   <crs:CoordinateReferenceSystem rdf:resource="http://purl.org/crs/84" svg:transform="matrix(100.0,0.0,0.0,-100.0,0.0,0.0)" />
  </rdf:Description>
 </rdf:RDF>
</metadata>
<globalCoordinateSystem srsName="http://purl.org/crs/84" transform="matrix(100.0,0.0,0.0,-100.0,0.0,0.0)" />
<g >
<image xlink:href="tile48_44.png" preserveAspectRatio="none" x="13882.324219" y="-3751.831055" width="1.098633" height="1.098633"/>
<image xlink:href="tile48_43.png" preserveAspectRatio="none" x="13882.324219" y="-3752.929688" width="1.098633" height="1.098633"/>
<image xlink:href="tile48_42.png" preserveAspectRatio="none" x="13882.324219" y="-3754.02832" width="1.098633" height="1.098633"/>
<image xlink:href="tile48_41.png" preserveAspectRatio="none" x="13882.324219" y="-3755.126953" width="1.098633" height="1.098633"/>
<image xlink:href="tile48_40.png" preserveAspectRatio="none" x="13882.324219" y="-3756.225586" width="1.098633" height="1.098633"/>
<image xlink:href="tile48_39.png" preserveAspectRatio="none" x="13882.324219" y="-3757.324219" width="1.098633" height="1.098633"/>
<image xlink:href="tile48_38.png" preserveAspectRatio="none" x="13882.324219" y="-3758.422852" width="1.098633" height="1.098633"/>
<image xlink:href="tile48_37.png" preserveAspectRatio="none" x="13882.324219" y="-3759.521484" width="1.098633" height="1.098633"/>
<image xlink:href="tile48_36.png" preserveAspectRatio="none" x="13882.324219" y="-3760.620117" width="1.098633" height="1.098633"/>
<image xlink:href="tile48_35.png" preserveAspectRatio="none" x="13882.324219" y="-3761.71875" width="1.098633" height="1.098633"/>
<image xlink:href="tile48_34.png" preserveAspectRatio="none" x="13882.324219" y="-3762.817383" width="1.098633" height="1.098633"/>
<image xlink:href="tile48_33.png" preserveAspectRatio="none" x="13882.324219" y="-3763.916016" width="1.098633" height="1.098633"/>
<image xlink:href="tile48_32.png" preserveAspectRatio="none" x="13882.324219" y="-3765.014648" width="1.098633" height="1.098633"/>
<image xlink:href="tile48_31.png" preserveAspectRatio="none" x="13882.324219" y="-3766.113281" width="1.098633" height="1.098633"/>
<image xlink:href="tile48_30.png" preserveAspectRatio="none" x="13882.324219" y="-3767.211914" width="1.098633" height="1.098633"/>
<image xlink:href="tile48_29.png" preserveAspectRatio="none" x="13882.324219" y="-3768.310547" width="1.098633" height="1.098633"/>
<image xlink:href="tile49_44.png" preserveAspectRatio="none" x="13883.422852" y="-3751.831055" width="1.098633" height="1.098633"/>
<image xlink:href="tile49_43.png" preserveAspectRatio="none" x="13883.422852" y="-3752.929688" width="1.098633" height="1.098633"/>
<image xlink:href="tile49_42.png" preserveAspectRatio="none" x="13883.422852" y="-3754.02832" width="1.098633" height="1.098633"/>
<image xlink:href="tile49_41.png" preserveAspectRatio="none" x="13883.422852" y="-3755.126953" width="1.098633" height="1.098633"/>
<image xlink:href="tile49_40.png" preserveAspectRatio="none" x="13883.422852" y="-3756.225586" width="1.098633" height="1.098633"/>
<image xlink:href="tile49_39.png" preserveAspectRatio="none" x="13883.422852" y="-3757.324219" width="1.098633" height="1.098633"/>
<image xlink:href="tile49_38.png" preserveAspectRatio="none" x="13883.422852" y="-3758.422852" width="1.098633" height="1.098633"/>
<image xlink:href="tile49_37.png" preserveAspectRatio="none" x="13883.422852" y="-3759.521484" width="1.098633" height="1.098633"/>
<image xlink:href="tile49_36.png" preserveAspectRatio="none" x="13883.422852" y="-3760.620117" width="1.098633" height="1.098633"/>
<image xlink:href="tile49_35.png" preserveAspectRatio="none" x="13883.422852" y="-3761.71875" width="1.098633" height="1.098633"/>
<image xlink:href="tile49_34.png" preserveAspectRatio="none" x="13883.422852" y="-3762.817383" width="1.098633" height="1.098633"/>
<image xlink:href="tile49_33.png" preserveAspectRatio="none" x="13883.422852" y="-3763.916016" width="1.098633" height="1.098633"/>
<image xlink:href="tile49_32.png" preserveAspectRatio="none" x="13883.422852" y="-3765.014648" width="1.098633" height="1.098633"/>
<image xlink:href="tile49_31.png" preserveAspectRatio="none" x="13883.422852" y="-3766.113281" width="1.098633" height="1.098633"/>
<image xlink:href="tile49_30.png" preserveAspectRatio="none" x="13883.422852" y="-3767.211914" width="1.098633" height="1.098633"/>
<image xlink:href="tile49_29.png" preserveAspectRatio="none" x="13883.422852" y="-3768.310547" width="1.098633" height="1.098633"/>
<image xlink:href="tile50_44.png" preserveAspectRatio="none" x="13884.521484" y="-3751.831055" width="1.098633" height="1.098633"/>
<image xlink:href="tile50_43.png" preserveAspectRatio="none" x="13884.521484" y="-3752.929688" width="1.098633" height="1.098633"/>
<image xlink:href="tile50_42.png" preserveAspectRatio="none" x="13884.521484" y="-3754.02832" width="1.098633" height="1.098633"/>
<image xlink:href="tile50_41.png" preserveAspectRatio="none" x="13884.521484" y="-3755.126953" width="1.098633" height="1.098633"/>
<image xlink:href="tile50_40.png" preserveAspectRatio="none" x="13884.521484" y="-3756.225586" width="1.098633" height="1.098633"/>
<image xlink:href="tile50_39.png" preserveAspectRatio="none" x="13884.521484" y="-3757.324219" width="1.098633" height="1.098633"/>
<image xlink:href="tile50_38.png" preserveAspectRatio="none" x="13884.521484" y="-3758.422852" width="1.098633" height="1.098633"/>
<image xlink:href="tile50_37.png" preserveAspectRatio="none" x="13884.521484" y="-3759.521484" width="1.098633" height="1.098633"/>
<image xlink:href="tile50_36.png" preserveAspectRatio="none" x="13884.521484" y="-3760.620117" width="1.098633" height="1.098633"/>
<image xlink:href="tile50_35.png" preserveAspectRatio="none" x="13884.521484" y="-3761.71875" width="1.098633" height="1.098633"/>
<image xlink:href="tile50_34.png" preserveAspectRatio="none" x="13884.521484" y="-3762.817383" width="1.098633" height="1.098633"/>
<image xlink:href="tile50_33.png" preserveAspectRatio="none" x="13884.521484" y="-3763.916016" width="1.098633" height="1.098633"/>
<image xlink:href="tile50_32.png" preserveAspectRatio="none" x="13884.521484" y="-3765.014648" width="1.098633" height="1.098633"/>
<image xlink:href="tile50_31.png" preserveAspectRatio="none" x="13884.521484" y="-3766.113281" width="1.098633" height="1.098633"/>
<image xlink:href="tile50_30.png" preserveAspectRatio="none" x="13884.521484" y="-3767.211914" width="1.098633" height="1.098633"/>
<image xlink:href="tile50_29.png" preserveAspectRatio="none" x="13884.521484" y="-3768.310547" width="1.098633" height="1.098633"/>
<image xlink:href="tile51_44.png" preserveAspectRatio="none" x="13885.620117" y="-3751.831055" width="1.098633" height="1.098633"/>
<image xlink:href="tile51_43.png" preserveAspectRatio="none" x="13885.620117" y="-3752.929688" width="1.098633" height="1.098633"/>
<image xlink:href="tile51_42.png" preserveAspectRatio="none" x="13885.620117" y="-3754.02832" width="1.098633" height="1.098633"/>
<image xlink:href="tile51_41.png" preserveAspectRatio="none" x="13885.620117" y="-3755.126953" width="1.098633" height="1.098633"/>
<image xlink:href="tile51_40.png" preserveAspectRatio="none" x="13885.620117" y="-3756.225586" width="1.098633" height="1.098633"/>
<image xlink:href="tile51_39.png" preserveAspectRatio="none" x="13885.620117" y="-3757.324219" width="1.098633" height="1.098633"/>
<image xlink:href="tile51_38.png" preserveAspectRatio="none" x="13885.620117" y="-3758.422852" width="1.098633" height="1.098633"/>
<image xlink:href="tile51_37.png" preserveAspectRatio="none" x="13885.620117" y="-3759.521484" width="1.098633" height="1.098633"/>
<image xlink:href="tile51_36.png" preserveAspectRatio="none" x="13885.620117" y="-3760.620117" width="1.098633" height="1.098633"/>
<image xlink:href="tile51_35.png" preserveAspectRatio="none" x="13885.620117" y="-3761.71875" width="1.098633" height="1.098633"/>
<image xlink:href="tile51_34.png" preserveAspectRatio="none" x="13885.620117" y="-3762.817383" width="1.098633" height="1.098633"/>
<image xlink:href="tile51_33.png" preserveAspectRatio="none" x="13885.620117" y="-3763.916016" width="1.098633" height="1.098633"/>
<image xlink:href="tile51_32.png" preserveAspectRatio="none" x="13885.620117" y="-3765.014648" width="1.098633" height="1.098633"/>
<image xlink:href="tile51_31.png" preserveAspectRatio="none" x="13885.620117" y="-3766.113281" width="1.098633" height="1.098633"/>
<image xlink:href="tile51_30.png" preserveAspectRatio="none" x="13885.620117" y="-3767.211914" width="1.098633" height="1.098633"/>
<image xlink:href="tile51_29.png" preserveAspectRatio="none" x="13885.620117" y="-3768.310547" width="1.098633" height="1.098633"/>
<image xlink:href="tile52_44.png" preserveAspectRatio="none" x="13886.71875" y="-3751.831055" width="1.098633" height="1.098633"/>
<image xlink:href="tile52_43.png" preserveAspectRatio="none" x="13886.71875" y="-3752.929688" width="1.098633" height="1.098633"/>
<image xlink:href="tile52_42.png" preserveAspectRatio="none" x="13886.71875" y="-3754.02832" width="1.098633" height="1.098633"/>
<image xlink:href="tile52_41.png" preserveAspectRatio="none" x="13886.71875" y="-3755.126953" width="1.098633" height="1.098633"/>
<image xlink:href="tile52_40.png" preserveAspectRatio="none" x="13886.71875" y="-3756.225586" width="1.098633" height="1.098633"/>
<image xlink:href="tile52_39.png" preserveAspectRatio="none" x="13886.71875" y="-3757.324219" width="1.098633" height="1.098633"/>
<image xlink:href="tile52_38.png" preserveAspectRatio="none" x="13886.71875" y="-3758.422852" width="1.098633" height="1.098633"/>
<image xlink:href="tile52_37.png" preserveAspectRatio="none" x="13886.71875" y="-3759.521484" width="1.098633" height="1.098633"/>
<image xlink:href="tile52_36.png" preserveAspectRatio="none" x="13886.71875" y="-3760.620117" width="1.098633" height="1.098633"/>
<image xlink:href="tile52_35.png" preserveAspectRatio="none" x="13886.71875" y="-3761.71875" width="1.098633" height="1.098633"/>
<image xlink:href="tile52_34.png" preserveAspectRatio="none" x="13886.71875" y="-3762.817383" width="1.098633" height="1.098633"/>
<image xlink:href="tile52_33.png" preserveAspectRatio="none" x="13886.71875" y="-3763.916016" width="1.098633" height="1.098633"/>
<image xlink:href="tile52_32.png" preserveAspectRatio="none" x="13886.71875" y="-3765.014648" width="1.098633" height="1.098633"/>
<image xlink:href="tile52_31.png" preserveAspectRatio="none" x="13886.71875" y="-3766.113281" width="1.098633" height="1.098633"/>
<image xlink:href="tile52_30.png" preserveAspectRatio="none" x="13886.71875" y="-3767.211914" width="1.098633" height="1.098633"/>
<image xlink:href="tile52_29.png" preserveAspectRatio="none" x="13886.71875" y="-3768.310547" width="1.098633" height="1.098633"/>
<image xlink:href="tile53_44.png" preserveAspectRatio="none" x="13887.817383" y="-3751.831055" width="1.098633" height="1.098633"/>
<image xlink:href="tile53_43.png" preserveAspectRatio="none" x="13887.817383" y="-3752.929688" width="1.098633" height="1.098633"/>
<image xlink:href="tile53_42.png" preserveAspectRatio="none" x="13887.817383" y="-3754.02832" width="1.098633" height="1.098633"/>
<image xlink:href="tile53_41.png" preserveAspectRatio="none" x="13887.817383" y="-3755.126953" width="1.098633" height="1.098633"/>
<image xlink:href="tile53_40.png" preserveAspectRatio="none" x="13887.817383" y="-3756.225586" width="1.098633" height="1.098633"/>
<image xlink:href="tile53_39.png" preserveAspectRatio="none" x="13887.817383" y="-3757.324219" width="1.098633" height="1.098633"/>
<image xlink:href="tile53_38.png" preserveAspectRatio="none" x="13887.817383" y="-3758.422852" width="1.098633" height="1.098633"/>
<image xlink:href="tile53_37.png" preserveAspectRatio="none" x="13887.817383" y="-3759.521484" width="1.098633" height="1.098633"/>
<image xlink:href="tile53_36.png" preserveAspectRatio="none" x="13887.817383" y="-3760.620117" width="1.098633" height="1.098633"/>
<image xlink:href="tile53_35.png" preserveAspectRatio="none" x="13887.817383" y="-3761.71875" width="1.098633" height="1.098633"/>
<image xlink:href="tile53_34.png" preserveAspectRatio="none" x="13887.817383" y="-3762.817383" width="1.098633" height="1.098633"/>
<image xlink:href="tile53_33.png" preserveAspectRatio="none" x="13887.817383" y="-3763.916016" width="1.098633" height="1.098633"/>
<image xlink:href="tile53_32.png" preserveAspectRatio="none" x="13887.817383" y="-3765.014648" width="1.098633" height="1.098633"/>
<image xlink:href="tile53_31.png" preserveAspectRatio="none" x="13887.817383" y="-3766.113281" width="1.098633" height="1.098633"/>
<image xlink:href="tile53_30.png" preserveAspectRatio="none" x="13887.817383" y="-3767.211914" width="1.098633" height="1.098633"/>
<image xlink:href="tile53_29.png" preserveAspectRatio="none" x="13887.817383" y="-3768.310547" width="1.098633" height="1.098633"/>
<image xlink:href="tile54_44.png" preserveAspectRatio="none" x="13888.916016" y="-3751.831055" width="1.098633" height="1.098633"/>
<image xlink:href="tile54_43.png" preserveAspectRatio="none" x="13888.916016" y="-3752.929688" width="1.098633" height="1.098633"/>
<image xlink:href="tile54_42.png" preserveAspectRatio="none" x="13888.916016" y="-3754.02832" width="1.098633" height="1.098633"/>
<image xlink:href="tile54_41.png" preserveAspectRatio="none" x="13888.916016" y="-3755.126953" width="1.098633" height="1.098633"/>
<image xlink:href="tile54_40.png" preserveAspectRatio="none" x="13888.916016" y="-3756.225586" width="1.098633" height="1.098633"/>
<image xlink:href="tile54_39.png" preserveAspectRatio="none" x="13888.916016" y="-3757.324219" width="1.098633" height="1.098633"/>
<image xlink:href="tile54_38.png" preserveAspectRatio="none" x="13888.916016" y="-3758.422852" width="1.098633" height="1.098633"/>
<image xlink:href="tile54_37.png" preserveAspectRatio="none" x="13888.916016" y="-3759.521484" width="1.098633" height="1.098633"/>
<image xlink:href="tile54_36.png" preserveAspectRatio="none" x="13888.916016" y="-3760.620117" width="1.098633" height="1.098633"/>
<image xlink:href="tile54_35.png" preserveAspectRatio="none" x="13888.916016" y="-3761.71875" width="1.098633" height="1.098633"/>
<image xlink:href="tile54_34.png" preserveAspectRatio="none" x="13888.916016" y="-3762.817383" width="1.098633" height="1.098633"/>
<image xlink:href="tile54_33.png" preserveAspectRatio="none" x="13888.916016" y="-3763.916016" width="1.098633" height="1.098633"/>
<image xlink:href="tile54_32.png" preserveAspectRatio="none" x="13888.916016" y="-3765.014648" width="1.098633" height="1.098633"/>
<image xlink:href="tile54_31.png" preserveAspectRatio="none" x="13888.916016" y="-3766.113281" width="1.098633" height="1.098633"/>
<image xlink:href="tile54_30.png" preserveAspectRatio="none" x="13888.916016" y="-3767.211914" width="1.098633" height="1.098633"/>
<image xlink:href="tile54_29.png" preserveAspectRatio="none" x="13888.916016" y="-3768.310547" width="1.098633" height="1.098633"/>
<image xlink:href="tile55_44.png" preserveAspectRatio="none" x="13890.014648" y="-3751.831055" width="1.098633" height="1.098633"/>
<image xlink:href="tile55_43.png" preserveAspectRatio="none" x="13890.014648" y="-3752.929688" width="1.098633" height="1.098633"/>
<image xlink:href="tile55_42.png" preserveAspectRatio="none" x="13890.014648" y="-3754.02832" width="1.098633" height="1.098633"/>
<image xlink:href="tile55_41.png" preserveAspectRatio="none" x="13890.014648" y="-3755.126953" width="1.098633" height="1.098633"/>
<image xlink:href="tile55_40.png" preserveAspectRatio="none" x="13890.014648" y="-3756.225586" width="1.098633" height="1.098633"/>
<image xlink:href="tile55_39.png" preserveAspectRatio="none" x="13890.014648" y="-3757.324219" width="1.098633" height="1.098633"/>
<image xlink:href="tile55_38.png" preserveAspectRatio="none" x="13890.014648" y="-3758.422852" width="1.098633" height="1.098633"/>
<image xlink:href="tile55_37.png" preserveAspectRatio="none" x="13890.014648" y="-3759.521484" width="1.098633" height="1.098633"/>
<image xlink:href="tile55_36.png" preserveAspectRatio="none" x="13890.014648" y="-3760.620117" width="1.098633" height="1.098633"/>
<image xlink:href="tile55_35.png" preserveAspectRatio="none" x="13890.014648" y="-3761.71875" width="1.098633" height="1.098633"/>
<image xlink:href="tile55_34.png" preserveAspectRatio="none" x="13890.014648" y="-3762.817383" width="1.098633" height="1.098633"/>
<image xlink:href="tile55_33.png" preserveAspectRatio="none" x="13890.014648" y="-3763.916016" width="1.098633" height="1.098633"/>
<image xlink:href="tile55_32.png" preserveAspectRatio="none" x="13890.014648" y="-3765.014648" width="1.098633" height="1.098633"/>
<image xlink:href="tile55_31.png" preserveAspectRatio="none" x="13890.014648" y="-3766.113281" width="1.098633" height="1.098633"/>
<image xlink:href="tile55_30.png" preserveAspectRatio="none" x="13890.014648" y="-3767.211914" width="1.098633" height="1.098633"/>
<image xlink:href="tile55_29.png" preserveAspectRatio="none" x="13890.014648" y="-3768.310547" width="1.098633" height="1.098633"/>
<image xlink:href="tile56_44.png" preserveAspectRatio="none" x="13891.113281" y="-3751.831055" width="1.098633" height="1.098633"/>
<image xlink:href="tile56_43.png" preserveAspectRatio="none" x="13891.113281" y="-3752.929688" width="1.098633" height="1.098633"/>
<image xlink:href="tile56_42.png" preserveAspectRatio="none" x="13891.113281" y="-3754.02832" width="1.098633" height="1.098633"/>
<image xlink:href="tile56_41.png" preserveAspectRatio="none" x="13891.113281" y="-3755.126953" width="1.098633" height="1.098633"/>
<image xlink:href="tile56_40.png" preserveAspectRatio="none" x="13891.113281" y="-3756.225586" width="1.098633" height="1.098633"/>
<image xlink:href="tile56_39.png" preserveAspectRatio="none" x="13891.113281" y="-3757.324219" width="1.098633" height="1.098633"/>
<image xlink:href="tile56_38.png" preserveAspectRatio="none" x="13891.113281" y="-3758.422852" width="1.098633" height="1.098633"/>
<image xlink:href="tile56_37.png" preserveAspectRatio="none" x="13891.113281" y="-3759.521484" width="1.098633" height="1.098633"/>
<image xlink:href="tile56_36.png" preserveAspectRatio="none" x="13891.113281" y="-3760.620117" width="1.098633" height="1.098633"/>
<image xlink:href="tile56_35.png" preserveAspectRatio="none" x="13891.113281" y="-3761.71875" width="1.098633" height="1.098633"/>
<image xlink:href="tile56_34.png" preserveAspectRatio="none" x="13891.113281" y="-3762.817383" width="1.098633" height="1.098633"/>
<image xlink:href="tile56_33.png" preserveAspectRatio="none" x="13891.113281" y="-3763.916016" width="1.098633" height="1.098633"/>
<image xlink:href="tile56_32.png" preserveAspectRatio="none" x="13891.113281" y="-3765.014648" width="1.098633" height="1.098633"/>
<image xlink:href="tile56_31.png" preserveAspectRatio="none" x="13891.113281" y="-3766.113281" width="1.098633" height="1.098633"/>
<image xlink:href="tile56_30.png" preserveAspectRatio="none" x="13891.113281" y="-3767.211914" width="1.098633" height="1.098633"/>
<image xlink:href="tile56_29.png" preserveAspectRatio="none" x="13891.113281" y="-3768.310547" width="1.098633" height="1.098633"/>
<image xlink:href="tile57_44.png" preserveAspectRatio="none" x="13892.211914" y="-3751.831055" width="1.098633" height="1.098633"/>
<image xlink:href="tile57_43.png" preserveAspectRatio="none" x="13892.211914" y="-3752.929688" width="1.098633" height="1.098633"/>
<image xlink:href="tile57_42.png" preserveAspectRatio="none" x="13892.211914" y="-3754.02832" width="1.098633" height="1.098633"/>
<image xlink:href="tile57_41.png" preserveAspectRatio="none" x="13892.211914" y="-3755.126953" width="1.098633" height="1.098633"/>
<image xlink:href="tile57_40.png" preserveAspectRatio="none" x="13892.211914" y="-3756.225586" width="1.098633" height="1.098633"/>
<image xlink:href="tile57_38.png" preserveAspectRatio="none" x="13892.211914" y="-3758.422852" width="1.098633" height="1.098633"/>
<image xlink:href="tile57_37.png" preserveAspectRatio="none" x="13892.211914" y="-3759.521484" width="1.098633" height="1.098633"/>
<image xlink:href="tile57_36.png" preserveAspectRatio="none" x="13892.211914" y="-3760.620117" width="1.098633" height="1.098633"/>
<image xlink:href="tile57_35.png" preserveAspectRatio="none" x="13892.211914" y="-3761.71875" width="1.098633" height="1.098633"/>
<image xlink:href="tile57_34.png" preserveAspectRatio="none" x="13892.211914" y="-3762.817383" width="1.098633" height="1.098633"/>
<image xlink:href="tile57_33.png" preserveAspectRatio="none" x="13892.211914" y="-3763.916016" width="1.098633" height="1.098633"/>
<image xlink:href="tile57_32.png" preserveAspectRatio="none" x="13892.211914" y="-3765.014648" width="1.098633" height="1.098633"/>
<image xlink:href="tile57_31.png" preserveAspectRatio="none" x="13892.211914" y="-3766.113281" width="1.098633" height="1.098633"/>
<image xlink:href="tile57_30.png" preserveAspectRatio="none" x="13892.211914" y="-3767.211914" width="1.098633" height="1.098633"/>
<image xlink:href="tile57_29.png" preserveAspectRatio="none" x="13892.211914" y="-3768.310547" width="1.098633" height="1.098633"/>
<image xlink:href="tile58_44.png" preserveAspectRatio="none" x="13893.310547" y="-3751.831055" width="1.098633" height="1.098633"/>
<image xlink:href="tile58_43.png" preserveAspectRatio="none" x="13893.310547" y="-3752.929688" width="1.098633" height="1.098633"/>
<image xlink:href="tile58_42.png" preserveAspectRatio="none" x="13893.310547" y="-3754.02832" width="1.098633" height="1.098633"/>
<image xlink:href="tile58_38.png" preserveAspectRatio="none" x="13893.310547" y="-3758.422852" width="1.098633" height="1.098633"/>
<image xlink:href="tile58_37.png" preserveAspectRatio="none" x="13893.310547" y="-3759.521484" width="1.098633" height="1.098633"/>
<image xlink:href="tile58_36.png" preserveAspectRatio="none" x="13893.310547" y="-3760.620117" width="1.098633" height="1.098633"/>
<image xlink:href="tile58_35.png" preserveAspectRatio="none" x="13893.310547" y="-3761.71875" width="1.098633" height="1.098633"/>
<image xlink:href="tile58_34.png" preserveAspectRatio="none" x="13893.310547" y="-3762.817383" width="1.098633" height="1.098633"/>
<image xlink:href="tile58_33.png" preserveAspectRatio="none" x="13893.310547" y="-3763.916016" width="1.098633" height="1.098633"/>
<image xlink:href="tile58_32.png" preserveAspectRatio="none" x="13893.310547" y="-3765.014648" width="1.098633" height="1.098633"/>
<image xlink:href="tile58_31.png" preserveAspectRatio="none" x="13893.310547" y="-3766.113281" width="1.098633" height="1.098633"/>
<image xlink:href="tile58_29.png" preserveAspectRatio="none" x="13893.310547" y="-3768.310547" width="1.098633" height="1.098633"/>
<image xlink:href="tile59_44.png" preserveAspectRatio="none" x="13894.40918" y="-3751.831055" width="1.098633" height="1.098633"/>
<image xlink:href="tile59_43.png" preserveAspectRatio="none" x="13894.40918" y="-3752.929688" width="1.098633" height="1.098633"/>
<image xlink:href="tile59_42.png" preserveAspectRatio="none" x="13894.40918" y="-3754.02832" width="1.098633" height="1.098633"/>
<image xlink:href="tile59_38.png" preserveAspectRatio="none" x="13894.40918" y="-3758.422852" width="1.098633" height="1.098633"/>
<image xlink:href="tile59_37.png" preserveAspectRatio="none" x="13894.40918" y="-3759.521484" width="1.098633" height="1.098633"/>
<image xlink:href="tile59_36.png" preserveAspectRatio="none" x="13894.40918" y="-3760.620117" width="1.098633" height="1.098633"/>
<image xlink:href="tile59_35.png" preserveAspectRatio="none" x="13894.40918" y="-3761.71875" width="1.098633" height="1.098633"/>
<image xlink:href="tile59_34.png" preserveAspectRatio="none" x="13894.40918" y="-3762.817383" width="1.098633" height="1.098633"/>
<image xlink:href="tile59_33.png" preserveAspectRatio="none" x="13894.40918" y="-3763.916016" width="1.098633" height="1.098633"/>
<image xlink:href="tile59_32.png" preserveAspectRatio="none" x="13894.40918" y="-3765.014648" width="1.098633" height="1.098633"/>
<image xlink:href="tile59_31.png" preserveAspectRatio="none" x="13894.40918" y="-3766.113281" width="1.098633" height="1.098633"/>
<image xlink:href="tile59_29.png" preserveAspectRatio="none" x="13894.40918" y="-3768.310547" width="1.098633" height="1.098633"/>
<image xlink:href="tile60_44.png" preserveAspectRatio="none" x="13895.507812" y="-3751.831055" width="1.098633" height="1.098633"/>
<image xlink:href="tile60_43.png" preserveAspectRatio="none" x="13895.507812" y="-3752.929688" width="1.098633" height="1.098633"/>
<image xlink:href="tile60_37.png" preserveAspectRatio="none" x="13895.507812" y="-3759.521484" width="1.098633" height="1.098633"/>
<image xlink:href="tile60_36.png" preserveAspectRatio="none" x="13895.507812" y="-3760.620117" width="1.098633" height="1.098633"/>
<image xlink:href="tile60_35.png" preserveAspectRatio="none" x="13895.507812" y="-3761.71875" width="1.098633" height="1.098633"/>
<image xlink:href="tile60_34.png" preserveAspectRatio="none" x="13895.507812" y="-3762.817383" width="1.098633" height="1.098633"/>
<image xlink:href="tile60_33.png" preserveAspectRatio="none" x="13895.507812" y="-3763.916016" width="1.098633" height="1.098633"/>
<image xlink:href="tile60_32.png" preserveAspectRatio="none" x="13895.507812" y="-3765.014648" width="1.098633" height="1.098633"/>
<image xlink:href="tile60_31.png" preserveAspectRatio="none" x="13895.507812" y="-3766.113281" width="1.098633" height="1.098633"/>
<image xlink:href="tile60_30.png" preserveAspectRatio="none" x="13895.507812" y="-3767.211914" width="1.098633" height="1.098633"/>
<image xlink:href="tile60_29.png" preserveAspectRatio="none" x="13895.507812" y="-3768.310547" width="1.098633" height="1.098633"/>
<image xlink:href="tile61_44.png" preserveAspectRatio="none" x="13896.606445" y="-3751.831055" width="1.098633" height="1.098633"/>
<image xlink:href="tile61_43.png" preserveAspectRatio="none" x="13896.606445" y="-3752.929688" width="1.098633" height="1.098633"/>
<image xlink:href="tile61_36.png" preserveAspectRatio="none" x="13896.606445" y="-3760.620117" width="1.098633" height="1.098633"/>
<image xlink:href="tile61_35.png" preserveAspectRatio="none" x="13896.606445" y="-3761.71875" width="1.098633" height="1.098633"/>
<image xlink:href="tile61_34.png" preserveAspectRatio="none" x="13896.606445" y="-3762.817383" width="1.098633" height="1.098633"/>
<image xlink:href="tile61_33.png" preserveAspectRatio="none" x="13896.606445" y="-3763.916016" width="1.098633" height="1.098633"/>
<image xlink:href="tile61_32.png" preserveAspectRatio="none" x="13896.606445" y="-3765.014648" width="1.098633" height="1.098633"/>
<image xlink:href="tile61_31.png" preserveAspectRatio="none" x="13896.606445" y="-3766.113281" width="1.098633" height="1.098633"/>
<image xlink:href="tile61_30.png" preserveAspectRatio="none" x="13896.606445" y="-3767.211914" width="1.098633" height="1.098633"/>
<image xlink:href="tile61_29.png" preserveAspectRatio="none" x="13896.606445" y="-3768.310547" width="1.098633" height="1.098633"/>
<image xlink:href="tile62_44.png" preserveAspectRatio="none" x="13897.705078" y="-3751.831055" width="1.098633" height="1.098633"/>
<image xlink:href="tile62_43.png" preserveAspectRatio="none" x="13897.705078" y="-3752.929688" width="1.098633" height="1.098633"/>
<image xlink:href="tile62_36.png" preserveAspectRatio="none" x="13897.705078" y="-3760.620117" width="1.098633" height="1.098633"/>
<image xlink:href="tile62_35.png" preserveAspectRatio="none" x="13897.705078" y="-3761.71875" width="1.098633" height="1.098633"/>
<image xlink:href="tile62_34.png" preserveAspectRatio="none" x="13897.705078" y="-3762.817383" width="1.098633" height="1.098633"/>
<image xlink:href="tile62_33.png" preserveAspectRatio="none" x="13897.705078" y="-3763.916016" width="1.098633" height="1.098633"/>
<image xlink:href="tile62_32.png" preserveAspectRatio="none" x="13897.705078" y="-3765.014648" width="1.098633" height="1.098633"/>
<image xlink:href="tile62_31.png" preserveAspectRatio="none" x="13897.705078" y="-3766.113281" width="1.098633" height="1.098633"/>
<image xlink:href="tile62_30.png" preserveAspectRatio="none" x="13897.705078" y="-3767.211914" width="1.098633" height="1.098633"/>
<image xlink:href="tile62_29.png" preserveAspectRatio="none" x="13897.705078" y="-3768.310547" width="1.098633" height="1.098633"/>
<image xlink:href="tile63_44.png" preserveAspectRatio="none" x="13898.803711" y="-3751.831055" width="1.098633" height="1.098633"/>
<image xlink:href="tile63_43.png" preserveAspectRatio="none" x="13898.803711" y="-3752.929688" width="1.098633" height="1.098633"/>
<image xlink:href="tile63_37.png" preserveAspectRatio="none" x="13898.803711" y="-3759.521484" width="1.098633" height="1.098633"/>
<image xlink:href="tile63_36.png" preserveAspectRatio="none" x="13898.803711" y="-3760.620117" width="1.098633" height="1.098633"/>
<image xlink:href="tile63_35.png" preserveAspectRatio="none" x="13898.803711" y="-3761.71875" width="1.098633" height="1.098633"/>
<image xlink:href="tile63_34.png" preserveAspectRatio="none" x="13898.803711" y="-3762.817383" width="1.098633" height="1.098633"/>
<image xlink:href="tile63_33.png" preserveAspectRatio="none" x="13898.803711" y="-3763.916016" width="1.098633" height="1.098633"/>
<image xlink:href="tile63_32.png" preserveAspectRatio="none" x="13898.803711" y="-3765.014648" width="1.098633" height="1.098633"/>
<image xlink:href="tile63_31.png" preserveAspectRatio="none" x="13898.803711" y="-3766.113281" width="1.098633" height="1.098633"/>
<image xlink:href="tile63_30.png" preserveAspectRatio="none" x="13898.803711" y="-3767.211914" width="1.098633" height="1.098633"/>
<image xlink:href="tile63_29.png" preserveAspectRatio="none" x="13898.803711" y="-3768.310547" width="1.098633" height="1.098633"/>
</g>
</svg>
