<?xml version="1.0" encoding="UTF-8"?>
<svg  xmlns="http://www.w3.org/2000/svg" xmlns:xlink="http://www.w3.org/1999/xlink" xmlns:go="http://purl.org/svgmap/profile" viewBox="13400.0 -3533.3333333 100.0 66.6666665000001" go:dataArea="13400.0 -3533.3333333 100.0 66.6666665000001" >
<metadata>
 <rdf:RDF xmlns:rdf="http://www.w3.org/1999/02/22-rdf-syntax-ns#" xmlns:crs="http://opengis.org/xmldtds/transformations.dtd" xmlns:svg="http://www.w3.org/svg" >
  <rdf:Description>
   <crs:CoordinateReferenceSystem rdf:resource="http://purl.org/crs/84" svg:transform="matrix(100.0,0.0,0.0,-100.0,0.0,0.0)" />
  </rdf:Description>
 </rdf:RDF>
</metadata>
<globalCoordinateSystem srsName="http://purl.org/crs/84" transform="matrix(100.0,0.0,0.0,-100.0,0.0,0.0)" />
<g >
<image xlink:href="tile80_57.png" preserveAspectRatio="none" x="13486.816406" y="-3471.679688" width="1.098633" height="1.098633"/>
<image xlink:href="tile80_56.png" preserveAspectRatio="none" x="13486.816406" y="-3472.77832" width="1.098633" height="1.098633"/>
<image xlink:href="tile80_55.png" preserveAspectRatio="none" x="13486.816406" y="-3473.876953" width="1.098633" height="1.098633"/>
<image xlink:href="tile80_52.png" preserveAspectRatio="none" x="13486.816406" y="-3477.172852" width="1.098633" height="1.098633"/>
<image xlink:href="tile80_51.png" preserveAspectRatio="none" x="13486.816406" y="-3478.271484" width="1.098633" height="1.098633"/>
<image xlink:href="tile80_50.png" preserveAspectRatio="none" x="13486.816406" y="-3479.370117" width="1.098633" height="1.098633"/>
<image xlink:href="tile80_49.png" preserveAspectRatio="none" x="13486.816406" y="-3480.46875" width="1.098633" height="1.098633"/>
<image xlink:href="tile80_48.png" preserveAspectRatio="none" x="13486.816406" y="-3481.567383" width="1.098633" height="1.098633"/>
<image xlink:href="tile80_47.png" preserveAspectRatio="none" x="13486.816406" y="-3482.666016" width="1.098633" height="1.098633"/>
<image xlink:href="tile81_56.png" preserveAspectRatio="none" x="13487.915039" y="-3472.77832" width="1.098633" height="1.098633"/>
<image xlink:href="tile81_55.png" preserveAspectRatio="none" x="13487.915039" y="-3473.876953" width="1.098633" height="1.098633"/>
<image xlink:href="tile81_53.png" preserveAspectRatio="none" x="13487.915039" y="-3476.074219" width="1.098633" height="1.098633"/>
<image xlink:href="tile81_52.png" preserveAspectRatio="none" x="13487.915039" y="-3477.172852" width="1.098633" height="1.098633"/>
<image xlink:href="tile81_51.png" preserveAspectRatio="none" x="13487.915039" y="-3478.271484" width="1.098633" height="1.098633"/>
<image xlink:href="tile81_50.png" preserveAspectRatio="none" x="13487.915039" y="-3479.370117" width="1.098633" height="1.098633"/>
<image xlink:href="tile81_49.png" preserveAspectRatio="none" x="13487.915039" y="-3480.46875" width="1.098633" height="1.098633"/>
<image xlink:href="tile81_48.png" preserveAspectRatio="none" x="13487.915039" y="-3481.567383" width="1.098633" height="1.098633"/>
<image xlink:href="tile81_47.png" preserveAspectRatio="none" x="13487.915039" y="-3482.666016" width="1.098633" height="1.098633"/>
<image xlink:href="tile81_46.png" preserveAspectRatio="none" x="13487.915039" y="-3483.764648" width="1.098633" height="1.098633"/>
<image xlink:href="tile82_59.png" preserveAspectRatio="none" x="13489.013672" y="-3469.482422" width="1.098633" height="1.098633"/>
<image xlink:href="tile82_58.png" preserveAspectRatio="none" x="13489.013672" y="-3470.581055" width="1.098633" height="1.098633"/>
<image xlink:href="tile82_57.png" preserveAspectRatio="none" x="13489.013672" y="-3471.679688" width="1.098633" height="1.098633"/>
<image xlink:href="tile82_56.png" preserveAspectRatio="none" x="13489.013672" y="-3472.77832" width="1.098633" height="1.098633"/>
<image xlink:href="tile82_55.png" preserveAspectRatio="none" x="13489.013672" y="-3473.876953" width="1.098633" height="1.098633"/>
<image xlink:href="tile82_54.png" preserveAspectRatio="none" x="13489.013672" y="-3474.975586" width="1.098633" height="1.098633"/>
<image xlink:href="tile82_53.png" preserveAspectRatio="none" x="13489.013672" y="-3476.074219" width="1.098633" height="1.098633"/>
<image xlink:href="tile82_52.png" preserveAspectRatio="none" x="13489.013672" y="-3477.172852" width="1.098633" height="1.098633"/>
<image xlink:href="tile82_50.png" preserveAspectRatio="none" x="13489.013672" y="-3479.370117" width="1.098633" height="1.098633"/>
<image xlink:href="tile82_49.png" preserveAspectRatio="none" x="13489.013672" y="-3480.46875" width="1.098633" height="1.098633"/>
<image xlink:href="tile82_48.png" preserveAspectRatio="none" x="13489.013672" y="-3481.567383" width="1.098633" height="1.098633"/>
<image xlink:href="tile83_60.png" preserveAspectRatio="none" x="13490.112305" y="-3468.383789" width="1.098633" height="1.098633"/>
<image xlink:href="tile83_57.png" preserveAspectRatio="none" x="13490.112305" y="-3471.679688" width="1.098633" height="1.098633"/>
<image xlink:href="tile83_56.png" preserveAspectRatio="none" x="13490.112305" y="-3472.77832" width="1.098633" height="1.098633"/>
<image xlink:href="tile83_55.png" preserveAspectRatio="none" x="13490.112305" y="-3473.876953" width="1.098633" height="1.098633"/>
<image xlink:href="tile83_54.png" preserveAspectRatio="none" x="13490.112305" y="-3474.975586" width="1.098633" height="1.098633"/>
<image xlink:href="tile83_53.png" preserveAspectRatio="none" x="13490.112305" y="-3476.074219" width="1.098633" height="1.098633"/>
<image xlink:href="tile83_51.png" preserveAspectRatio="none" x="13490.112305" y="-3478.271484" width="1.098633" height="1.098633"/>
<image xlink:href="tile83_50.png" preserveAspectRatio="none" x="13490.112305" y="-3479.370117" width="1.098633" height="1.098633"/>
<image xlink:href="tile83_49.png" preserveAspectRatio="none" x="13490.112305" y="-3480.46875" width="1.098633" height="1.098633"/>
<image xlink:href="tile83_48.png" preserveAspectRatio="none" x="13490.112305" y="-3481.567383" width="1.098633" height="1.098633"/>
<image xlink:href="tile83_46.png" preserveAspectRatio="none" x="13490.112305" y="-3483.764648" width="1.098633" height="1.098633"/>
<image xlink:href="tile84_60.png" preserveAspectRatio="none" x="13491.210938" y="-3468.383789" width="1.098633" height="1.098633"/>
<image xlink:href="tile84_59.png" preserveAspectRatio="none" x="13491.210938" y="-3469.482422" width="1.098633" height="1.098633"/>
<image xlink:href="tile84_57.png" preserveAspectRatio="none" x="13491.210938" y="-3471.679688" width="1.098633" height="1.098633"/>
<image xlink:href="tile84_56.png" preserveAspectRatio="none" x="13491.210938" y="-3472.77832" width="1.098633" height="1.098633"/>
<image xlink:href="tile84_55.png" preserveAspectRatio="none" x="13491.210938" y="-3473.876953" width="1.098633" height="1.098633"/>
<image xlink:href="tile84_54.png" preserveAspectRatio="none" x="13491.210938" y="-3474.975586" width="1.098633" height="1.098633"/>
<image xlink:href="tile84_53.png" preserveAspectRatio="none" x="13491.210938" y="-3476.074219" width="1.098633" height="1.098633"/>
<image xlink:href="tile84_51.png" preserveAspectRatio="none" x="13491.210938" y="-3478.271484" width="1.098633" height="1.098633"/>
<image xlink:href="tile84_50.png" preserveAspectRatio="none" x="13491.210938" y="-3479.370117" width="1.098633" height="1.098633"/>
<image xlink:href="tile84_49.png" preserveAspectRatio="none" x="13491.210938" y="-3480.46875" width="1.098633" height="1.098633"/>
<image xlink:href="tile84_48.png" preserveAspectRatio="none" x="13491.210938" y="-3481.567383" width="1.098633" height="1.098633"/>
<image xlink:href="tile84_46.png" preserveAspectRatio="none" x="13491.210938" y="-3483.764648" width="1.098633" height="1.098633"/>
<image xlink:href="tile85_60.png" preserveAspectRatio="none" x="13492.30957" y="-3468.383789" width="1.098633" height="1.098633"/>
<image xlink:href="tile85_59.png" preserveAspectRatio="none" x="13492.30957" y="-3469.482422" width="1.098633" height="1.098633"/>
<image xlink:href="tile85_55.png" preserveAspectRatio="none" x="13492.30957" y="-3473.876953" width="1.098633" height="1.098633"/>
<image xlink:href="tile85_54.png" preserveAspectRatio="none" x="13492.30957" y="-3474.975586" width="1.098633" height="1.098633"/>
<image xlink:href="tile85_51.png" preserveAspectRatio="none" x="13492.30957" y="-3478.271484" width="1.098633" height="1.098633"/>
<image xlink:href="tile85_50.png" preserveAspectRatio="none" x="13492.30957" y="-3479.370117" width="1.098633" height="1.098633"/>
<image xlink:href="tile85_49.png" preserveAspectRatio="none" x="13492.30957" y="-3480.46875" width="1.098633" height="1.098633"/>
<image xlink:href="tile85_48.png" preserveAspectRatio="none" x="13492.30957" y="-3481.567383" width="1.098633" height="1.098633"/>
<image xlink:href="tile85_47.png" preserveAspectRatio="none" x="13492.30957" y="-3482.666016" width="1.098633" height="1.098633"/>
<image xlink:href="tile85_46.png" preserveAspectRatio="none" x="13492.30957" y="-3483.764648" width="1.098633" height="1.098633"/>
<image xlink:href="tile86_61.png" preserveAspectRatio="none" x="13493.408203" y="-3467.285156" width="1.098633" height="1.098633"/>
<image xlink:href="tile86_60.png" preserveAspectRatio="none" x="13493.408203" y="-3468.383789" width="1.098633" height="1.098633"/>
<image xlink:href="tile86_59.png" preserveAspectRatio="none" x="13493.408203" y="-3469.482422" width="1.098633" height="1.098633"/>
<image xlink:href="tile86_58.png" preserveAspectRatio="none" x="13493.408203" y="-3470.581055" width="1.098633" height="1.098633"/>
<image xlink:href="tile86_55.png" preserveAspectRatio="none" x="13493.408203" y="-3473.876953" width="1.098633" height="1.098633"/>
<image xlink:href="tile86_52.png" preserveAspectRatio="none" x="13493.408203" y="-3477.172852" width="1.098633" height="1.098633"/>
<image xlink:href="tile86_51.png" preserveAspectRatio="none" x="13493.408203" y="-3478.271484" width="1.098633" height="1.098633"/>
<image xlink:href="tile86_50.png" preserveAspectRatio="none" x="13493.408203" y="-3479.370117" width="1.098633" height="1.098633"/>
<image xlink:href="tile86_49.png" preserveAspectRatio="none" x="13493.408203" y="-3480.46875" width="1.098633" height="1.098633"/>
<image xlink:href="tile86_48.png" preserveAspectRatio="none" x="13493.408203" y="-3481.567383" width="1.098633" height="1.098633"/>
<image xlink:href="tile86_47.png" preserveAspectRatio="none" x="13493.408203" y="-3482.666016" width="1.098633" height="1.098633"/>
<image xlink:href="tile86_46.png" preserveAspectRatio="none" x="13493.408203" y="-3483.764648" width="1.098633" height="1.098633"/>
<image xlink:href="tile87_60.png" preserveAspectRatio="none" x="13494.506836" y="-3468.383789" width="1.098633" height="1.098633"/>
<image xlink:href="tile87_59.png" preserveAspectRatio="none" x="13494.506836" y="-3469.482422" width="1.098633" height="1.098633"/>
<image xlink:href="tile87_52.png" preserveAspectRatio="none" x="13494.506836" y="-3477.172852" width="1.098633" height="1.098633"/>
<image xlink:href="tile87_50.png" preserveAspectRatio="none" x="13494.506836" y="-3479.370117" width="1.098633" height="1.098633"/>
<image xlink:href="tile87_49.png" preserveAspectRatio="none" x="13494.506836" y="-3480.46875" width="1.098633" height="1.098633"/>
<image xlink:href="tile87_48.png" preserveAspectRatio="none" x="13494.506836" y="-3481.567383" width="1.098633" height="1.098633"/>
<image xlink:href="tile87_47.png" preserveAspectRatio="none" x="13494.506836" y="-3482.666016" width="1.098633" height="1.098633"/>
<image xlink:href="tile87_46.png" preserveAspectRatio="none" x="13494.506836" y="-3483.764648" width="1.098633" height="1.098633"/>
<image xlink:href="tile88_59.png" preserveAspectRatio="none" x="13495.605469" y="-3469.482422" width="1.098633" height="1.098633"/>
<image xlink:href="tile88_53.png" preserveAspectRatio="none" x="13495.605469" y="-3476.074219" width="1.098633" height="1.098633"/>
<image xlink:href="tile88_52.png" preserveAspectRatio="none" x="13495.605469" y="-3477.172852" width="1.098633" height="1.098633"/>
<image xlink:href="tile88_50.png" preserveAspectRatio="none" x="13495.605469" y="-3479.370117" width="1.098633" height="1.098633"/>
<image xlink:href="tile88_49.png" preserveAspectRatio="none" x="13495.605469" y="-3480.46875" width="1.098633" height="1.098633"/>
<image xlink:href="tile88_48.png" preserveAspectRatio="none" x="13495.605469" y="-3481.567383" width="1.098633" height="1.098633"/>
<image xlink:href="tile88_47.png" preserveAspectRatio="none" x="13495.605469" y="-3482.666016" width="1.098633" height="1.098633"/>
<image xlink:href="tile89_61.png" preserveAspectRatio="none" x="13496.704102" y="-3467.285156" width="1.098633" height="1.098633"/>
<image xlink:href="tile89_60.png" preserveAspectRatio="none" x="13496.704102" y="-3468.383789" width="1.098633" height="1.098633"/>
<image xlink:href="tile89_59.png" preserveAspectRatio="none" x="13496.704102" y="-3469.482422" width="1.098633" height="1.098633"/>
<image xlink:href="tile89_58.png" preserveAspectRatio="none" x="13496.704102" y="-3470.581055" width="1.098633" height="1.098633"/>
<image xlink:href="tile89_57.png" preserveAspectRatio="none" x="13496.704102" y="-3471.679688" width="1.098633" height="1.098633"/>
<image xlink:href="tile89_53.png" preserveAspectRatio="none" x="13496.704102" y="-3476.074219" width="1.098633" height="1.098633"/>
<image xlink:href="tile89_52.png" preserveAspectRatio="none" x="13496.704102" y="-3477.172852" width="1.098633" height="1.098633"/>
<image xlink:href="tile89_50.png" preserveAspectRatio="none" x="13496.704102" y="-3479.370117" width="1.098633" height="1.098633"/>
<image xlink:href="tile89_49.png" preserveAspectRatio="none" x="13496.704102" y="-3480.46875" width="1.098633" height="1.098633"/>
<image xlink:href="tile89_48.png" preserveAspectRatio="none" x="13496.704102" y="-3481.567383" width="1.098633" height="1.098633"/>
<image xlink:href="tile89_47.png" preserveAspectRatio="none" x="13496.704102" y="-3482.666016" width="1.098633" height="1.098633"/>
<image xlink:href="tile90_61.png" preserveAspectRatio="none" x="13497.802734" y="-3467.285156" width="1.098633" height="1.098633"/>
<image xlink:href="tile90_60.png" preserveAspectRatio="none" x="13497.802734" y="-3468.383789" width="1.098633" height="1.098633"/>
<image xlink:href="tile90_59.png" preserveAspectRatio="none" x="13497.802734" y="-3469.482422" width="1.098633" height="1.098633"/>
<image xlink:href="tile90_58.png" preserveAspectRatio="none" x="13497.802734" y="-3470.581055" width="1.098633" height="1.098633"/>
<image xlink:href="tile90_57.png" preserveAspectRatio="none" x="13497.802734" y="-3471.679688" width="1.098633" height="1.098633"/>
<image xlink:href="tile90_56.png" preserveAspectRatio="none" x="13497.802734" y="-3472.77832" width="1.098633" height="1.098633"/>
<image xlink:href="tile90_52.png" preserveAspectRatio="none" x="13497.802734" y="-3477.172852" width="1.098633" height="1.098633"/>
<image xlink:href="tile90_51.png" preserveAspectRatio="none" x="13497.802734" y="-3478.271484" width="1.098633" height="1.098633"/>
<image xlink:href="tile90_50.png" preserveAspectRatio="none" x="13497.802734" y="-3479.370117" width="1.098633" height="1.098633"/>
<image xlink:href="tile90_49.png" preserveAspectRatio="none" x="13497.802734" y="-3480.46875" width="1.098633" height="1.098633"/>
<image xlink:href="tile90_48.png" preserveAspectRatio="none" x="13497.802734" y="-3481.567383" width="1.098633" height="1.098633"/>
<image xlink:href="tile91_61.png" preserveAspectRatio="none" x="13498.901367" y="-3467.285156" width="1.098633" height="1.098633"/>
<image xlink:href="tile91_60.png" preserveAspectRatio="none" x="13498.901367" y="-3468.383789" width="1.098633" height="1.098633"/>
<image xlink:href="tile91_59.png" preserveAspectRatio="none" x="13498.901367" y="-3469.482422" width="1.098633" height="1.098633"/>
<image xlink:href="tile91_58.png" preserveAspectRatio="none" x="13498.901367" y="-3470.581055" width="1.098633" height="1.098633"/>
<image xlink:href="tile91_57.png" preserveAspectRatio="none" x="13498.901367" y="-3471.679688" width="1.098633" height="1.098633"/>
<image xlink:href="tile91_56.png" preserveAspectRatio="none" x="13498.901367" y="-3472.77832" width="1.098633" height="1.098633"/>
<image xlink:href="tile91_55.png" preserveAspectRatio="none" x="13498.901367" y="-3473.876953" width="1.098633" height="1.098633"/>
<image xlink:href="tile91_49.png" preserveAspectRatio="none" x="13498.901367" y="-3480.46875" width="1.098633" height="1.098633"/>
<image xlink:href="tile91_48.png" preserveAspectRatio="none" x="13498.901367" y="-3481.567383" width="1.098633" height="1.098633"/>
</g>
</svg>
