<?xml version="1.0" encoding="UTF-8"?>
<svg  xmlns="http://www.w3.org/2000/svg" xmlns:xlink="http://www.w3.org/1999/xlink" xmlns:go="http://purl.org/svgmap/profile" viewBox="13400.0 -3533.3333333 100.0 66.6666665000001" go:dataArea="13400.0 -3533.3333333 100.0 66.6666665000001" >
<metadata>
 <rdf:RDF xmlns:rdf="http://www.w3.org/1999/02/22-rdf-syntax-ns#" xmlns:crs="http://opengis.org/xmldtds/transformations.dtd" xmlns:svg="http://www.w3.org/svg" >
  <rdf:Description>
   <crs:CoordinateReferenceSystem rdf:resource="http://purl.org/crs/84" svg:transform="matrix(100.0,0.0,0.0,-100.0,0.0,0.0)" />
  </rdf:Description>
 </rdf:RDF>
</metadata>
<globalCoordinateSystem srsName="http://purl.org/crs/84" transform="matrix(100.0,0.0,0.0,-100.0,0.0,0.0)" />
<g >
<image xlink:href="tile80_6.png" preserveAspectRatio="none" x="13486.816406" y="-3527.709961" width="1.098633" height="1.098633"/>
<image xlink:href="tile80_5.png" preserveAspectRatio="none" x="13486.816406" y="-3528.808594" width="1.098633" height="1.098633"/>
<image xlink:href="tile80_4.png" preserveAspectRatio="none" x="13486.816406" y="-3529.907227" width="1.098633" height="1.098633"/>
<image xlink:href="tile80_3.png" preserveAspectRatio="none" x="13486.816406" y="-3531.005859" width="1.098633" height="1.098633"/>
<image xlink:href="tile80_2.png" preserveAspectRatio="none" x="13486.816406" y="-3532.104492" width="1.098633" height="1.098633"/>
<image xlink:href="tile80_1.png" preserveAspectRatio="none" x="13486.816406" y="-3533.203125" width="1.098633" height="1.098633"/>
<image xlink:href="tile81_4.png" preserveAspectRatio="none" x="13487.915039" y="-3529.907227" width="1.098633" height="1.098633"/>
<image xlink:href="tile81_3.png" preserveAspectRatio="none" x="13487.915039" y="-3531.005859" width="1.098633" height="1.098633"/>
<image xlink:href="tile81_2.png" preserveAspectRatio="none" x="13487.915039" y="-3532.104492" width="1.098633" height="1.098633"/>
<image xlink:href="tile81_1.png" preserveAspectRatio="none" x="13487.915039" y="-3533.203125" width="1.098633" height="1.098633"/>
<image xlink:href="tile82_3.png" preserveAspectRatio="none" x="13489.013672" y="-3531.005859" width="1.098633" height="1.098633"/>
<image xlink:href="tile82_2.png" preserveAspectRatio="none" x="13489.013672" y="-3532.104492" width="1.098633" height="1.098633"/>
<image xlink:href="tile83_3.png" preserveAspectRatio="none" x="13490.112305" y="-3531.005859" width="1.098633" height="1.098633"/>
<image xlink:href="tile84_3.png" preserveAspectRatio="none" x="13491.210938" y="-3531.005859" width="1.098633" height="1.098633"/>
<image xlink:href="tile85_13.png" preserveAspectRatio="none" x="13492.30957" y="-3520.019531" width="1.098633" height="1.098633"/>
<image xlink:href="tile86_13.png" preserveAspectRatio="none" x="13493.408203" y="-3520.019531" width="1.098633" height="1.098633"/>
<image xlink:href="tile86_12.png" preserveAspectRatio="none" x="13493.408203" y="-3521.118164" width="1.098633" height="1.098633"/>
<image xlink:href="tile86_9.png" preserveAspectRatio="none" x="13493.408203" y="-3524.414062" width="1.098633" height="1.098633"/>
<image xlink:href="tile86_8.png" preserveAspectRatio="none" x="13493.408203" y="-3525.512695" width="1.098633" height="1.098633"/>
<image xlink:href="tile87_9.png" preserveAspectRatio="none" x="13494.506836" y="-3524.414062" width="1.098633" height="1.098633"/>
<image xlink:href="tile87_8.png" preserveAspectRatio="none" x="13494.506836" y="-3525.512695" width="1.098633" height="1.098633"/>
<image xlink:href="tile87_4.png" preserveAspectRatio="none" x="13494.506836" y="-3529.907227" width="1.098633" height="1.098633"/>
<image xlink:href="tile88_8.png" preserveAspectRatio="none" x="13495.605469" y="-3525.512695" width="1.098633" height="1.098633"/>
<image xlink:href="tile88_6.png" preserveAspectRatio="none" x="13495.605469" y="-3527.709961" width="1.098633" height="1.098633"/>
<image xlink:href="tile88_4.png" preserveAspectRatio="none" x="13495.605469" y="-3529.907227" width="1.098633" height="1.098633"/>
<image xlink:href="tile89_8.png" preserveAspectRatio="none" x="13496.704102" y="-3525.512695" width="1.098633" height="1.098633"/>
<image xlink:href="tile89_7.png" preserveAspectRatio="none" x="13496.704102" y="-3526.611328" width="1.098633" height="1.098633"/>
<image xlink:href="tile89_6.png" preserveAspectRatio="none" x="13496.704102" y="-3527.709961" width="1.098633" height="1.098633"/>
<image xlink:href="tile89_5.png" preserveAspectRatio="none" x="13496.704102" y="-3528.808594" width="1.098633" height="1.098633"/>
<image xlink:href="tile89_4.png" preserveAspectRatio="none" x="13496.704102" y="-3529.907227" width="1.098633" height="1.098633"/>
<image xlink:href="tile90_8.png" preserveAspectRatio="none" x="13497.802734" y="-3525.512695" width="1.098633" height="1.098633"/>
<image xlink:href="tile90_6.png" preserveAspectRatio="none" x="13497.802734" y="-3527.709961" width="1.098633" height="1.098633"/>
<image xlink:href="tile90_5.png" preserveAspectRatio="none" x="13497.802734" y="-3528.808594" width="1.098633" height="1.098633"/>
<image xlink:href="tile91_8.png" preserveAspectRatio="none" x="13498.901367" y="-3525.512695" width="1.098633" height="1.098633"/>
<image xlink:href="tile91_7.png" preserveAspectRatio="none" x="13498.901367" y="-3526.611328" width="1.098633" height="1.098633"/>
<image xlink:href="tile91_6.png" preserveAspectRatio="none" x="13498.901367" y="-3527.709961" width="1.098633" height="1.098633"/>
</g>
</svg>
