<?xml version="1.0" encoding="UTF-8"?>
<svg  xmlns="http://www.w3.org/2000/svg" xmlns:xlink="http://www.w3.org/1999/xlink" xmlns:go="http://purl.org/svgmap/profile" viewBox="13400.0 -3533.3333333 100.0 66.6666665000001" go:dataArea="13400.0 -3533.3333333 100.0 66.6666665000001" >
<metadata>
 <rdf:RDF xmlns:rdf="http://www.w3.org/1999/02/22-rdf-syntax-ns#" xmlns:crs="http://opengis.org/xmldtds/transformations.dtd" xmlns:svg="http://www.w3.org/svg" >
  <rdf:Description>
   <crs:CoordinateReferenceSystem rdf:resource="http://purl.org/crs/84" svg:transform="matrix(100.0,0.0,0.0,-100.0,0.0,0.0)" />
  </rdf:Description>
 </rdf:RDF>
</metadata>
<globalCoordinateSystem srsName="http://purl.org/crs/84" transform="matrix(100.0,0.0,0.0,-100.0,0.0,0.0)" />
<g >
<image xlink:href="tile80_29.png" preserveAspectRatio="none" x="13486.816406" y="-3502.441406" width="1.098633" height="1.098633"/>
<image xlink:href="tile80_28.png" preserveAspectRatio="none" x="13486.816406" y="-3503.540039" width="1.098633" height="1.098633"/>
<image xlink:href="tile80_27.png" preserveAspectRatio="none" x="13486.816406" y="-3504.638672" width="1.098633" height="1.098633"/>
<image xlink:href="tile80_26.png" preserveAspectRatio="none" x="13486.816406" y="-3505.737305" width="1.098633" height="1.098633"/>
<image xlink:href="tile80_25.png" preserveAspectRatio="none" x="13486.816406" y="-3506.835938" width="1.098633" height="1.098633"/>
<image xlink:href="tile80_23.png" preserveAspectRatio="none" x="13486.816406" y="-3509.033203" width="1.098633" height="1.098633"/>
<image xlink:href="tile80_22.png" preserveAspectRatio="none" x="13486.816406" y="-3510.131836" width="1.098633" height="1.098633"/>
<image xlink:href="tile80_16.png" preserveAspectRatio="none" x="13486.816406" y="-3516.723633" width="1.098633" height="1.098633"/>
<image xlink:href="tile80_15.png" preserveAspectRatio="none" x="13486.816406" y="-3517.822266" width="1.098633" height="1.098633"/>
<image xlink:href="tile81_29.png" preserveAspectRatio="none" x="13487.915039" y="-3502.441406" width="1.098633" height="1.098633"/>
<image xlink:href="tile81_28.png" preserveAspectRatio="none" x="13487.915039" y="-3503.540039" width="1.098633" height="1.098633"/>
<image xlink:href="tile81_27.png" preserveAspectRatio="none" x="13487.915039" y="-3504.638672" width="1.098633" height="1.098633"/>
<image xlink:href="tile81_24.png" preserveAspectRatio="none" x="13487.915039" y="-3507.93457" width="1.098633" height="1.098633"/>
<image xlink:href="tile81_23.png" preserveAspectRatio="none" x="13487.915039" y="-3509.033203" width="1.098633" height="1.098633"/>
<image xlink:href="tile81_22.png" preserveAspectRatio="none" x="13487.915039" y="-3510.131836" width="1.098633" height="1.098633"/>
<image xlink:href="tile81_21.png" preserveAspectRatio="none" x="13487.915039" y="-3511.230469" width="1.098633" height="1.098633"/>
<image xlink:href="tile81_20.png" preserveAspectRatio="none" x="13487.915039" y="-3512.329102" width="1.098633" height="1.098633"/>
<image xlink:href="tile81_16.png" preserveAspectRatio="none" x="13487.915039" y="-3516.723633" width="1.098633" height="1.098633"/>
<image xlink:href="tile81_15.png" preserveAspectRatio="none" x="13487.915039" y="-3517.822266" width="1.098633" height="1.098633"/>
<image xlink:href="tile82_29.png" preserveAspectRatio="none" x="13489.013672" y="-3502.441406" width="1.098633" height="1.098633"/>
<image xlink:href="tile82_25.png" preserveAspectRatio="none" x="13489.013672" y="-3506.835938" width="1.098633" height="1.098633"/>
<image xlink:href="tile82_24.png" preserveAspectRatio="none" x="13489.013672" y="-3507.93457" width="1.098633" height="1.098633"/>
<image xlink:href="tile82_23.png" preserveAspectRatio="none" x="13489.013672" y="-3509.033203" width="1.098633" height="1.098633"/>
<image xlink:href="tile82_22.png" preserveAspectRatio="none" x="13489.013672" y="-3510.131836" width="1.098633" height="1.098633"/>
<image xlink:href="tile82_21.png" preserveAspectRatio="none" x="13489.013672" y="-3511.230469" width="1.098633" height="1.098633"/>
<image xlink:href="tile83_25.png" preserveAspectRatio="none" x="13490.112305" y="-3506.835938" width="1.098633" height="1.098633"/>
<image xlink:href="tile83_24.png" preserveAspectRatio="none" x="13490.112305" y="-3507.93457" width="1.098633" height="1.098633"/>
<image xlink:href="tile83_22.png" preserveAspectRatio="none" x="13490.112305" y="-3510.131836" width="1.098633" height="1.098633"/>
<image xlink:href="tile83_21.png" preserveAspectRatio="none" x="13490.112305" y="-3511.230469" width="1.098633" height="1.098633"/>
<image xlink:href="tile83_20.png" preserveAspectRatio="none" x="13490.112305" y="-3512.329102" width="1.098633" height="1.098633"/>
<image xlink:href="tile84_29.png" preserveAspectRatio="none" x="13491.210938" y="-3502.441406" width="1.098633" height="1.098633"/>
<image xlink:href="tile84_28.png" preserveAspectRatio="none" x="13491.210938" y="-3503.540039" width="1.098633" height="1.098633"/>
<image xlink:href="tile84_27.png" preserveAspectRatio="none" x="13491.210938" y="-3504.638672" width="1.098633" height="1.098633"/>
<image xlink:href="tile84_26.png" preserveAspectRatio="none" x="13491.210938" y="-3505.737305" width="1.098633" height="1.098633"/>
<image xlink:href="tile84_25.png" preserveAspectRatio="none" x="13491.210938" y="-3506.835938" width="1.098633" height="1.098633"/>
<image xlink:href="tile84_24.png" preserveAspectRatio="none" x="13491.210938" y="-3507.93457" width="1.098633" height="1.098633"/>
<image xlink:href="tile84_21.png" preserveAspectRatio="none" x="13491.210938" y="-3511.230469" width="1.098633" height="1.098633"/>
<image xlink:href="tile84_20.png" preserveAspectRatio="none" x="13491.210938" y="-3512.329102" width="1.098633" height="1.098633"/>
<image xlink:href="tile84_19.png" preserveAspectRatio="none" x="13491.210938" y="-3513.427734" width="1.098633" height="1.098633"/>
<image xlink:href="tile85_28.png" preserveAspectRatio="none" x="13492.30957" y="-3503.540039" width="1.098633" height="1.098633"/>
<image xlink:href="tile85_27.png" preserveAspectRatio="none" x="13492.30957" y="-3504.638672" width="1.098633" height="1.098633"/>
<image xlink:href="tile85_26.png" preserveAspectRatio="none" x="13492.30957" y="-3505.737305" width="1.098633" height="1.098633"/>
<image xlink:href="tile85_25.png" preserveAspectRatio="none" x="13492.30957" y="-3506.835938" width="1.098633" height="1.098633"/>
<image xlink:href="tile85_24.png" preserveAspectRatio="none" x="13492.30957" y="-3507.93457" width="1.098633" height="1.098633"/>
<image xlink:href="tile85_23.png" preserveAspectRatio="none" x="13492.30957" y="-3509.033203" width="1.098633" height="1.098633"/>
<image xlink:href="tile85_20.png" preserveAspectRatio="none" x="13492.30957" y="-3512.329102" width="1.098633" height="1.098633"/>
<image xlink:href="tile85_19.png" preserveAspectRatio="none" x="13492.30957" y="-3513.427734" width="1.098633" height="1.098633"/>
<image xlink:href="tile85_18.png" preserveAspectRatio="none" x="13492.30957" y="-3514.526367" width="1.098633" height="1.098633"/>
<image xlink:href="tile85_17.png" preserveAspectRatio="none" x="13492.30957" y="-3515.625" width="1.098633" height="1.098633"/>
<image xlink:href="tile85_16.png" preserveAspectRatio="none" x="13492.30957" y="-3516.723633" width="1.098633" height="1.098633"/>
<image xlink:href="tile85_15.png" preserveAspectRatio="none" x="13492.30957" y="-3517.822266" width="1.098633" height="1.098633"/>
<image xlink:href="tile85_14.png" preserveAspectRatio="none" x="13492.30957" y="-3518.920898" width="1.098633" height="1.098633"/>
<image xlink:href="tile86_28.png" preserveAspectRatio="none" x="13493.408203" y="-3503.540039" width="1.098633" height="1.098633"/>
<image xlink:href="tile86_27.png" preserveAspectRatio="none" x="13493.408203" y="-3504.638672" width="1.098633" height="1.098633"/>
<image xlink:href="tile86_26.png" preserveAspectRatio="none" x="13493.408203" y="-3505.737305" width="1.098633" height="1.098633"/>
<image xlink:href="tile86_14.png" preserveAspectRatio="none" x="13493.408203" y="-3518.920898" width="1.098633" height="1.098633"/>
<image xlink:href="tile87_29.png" preserveAspectRatio="none" x="13494.506836" y="-3502.441406" width="1.098633" height="1.098633"/>
<image xlink:href="tile87_28.png" preserveAspectRatio="none" x="13494.506836" y="-3503.540039" width="1.098633" height="1.098633"/>
<image xlink:href="tile87_27.png" preserveAspectRatio="none" x="13494.506836" y="-3504.638672" width="1.098633" height="1.098633"/>
<image xlink:href="tile87_26.png" preserveAspectRatio="none" x="13494.506836" y="-3505.737305" width="1.098633" height="1.098633"/>
<image xlink:href="tile87_24.png" preserveAspectRatio="none" x="13494.506836" y="-3507.93457" width="1.098633" height="1.098633"/>
<image xlink:href="tile87_23.png" preserveAspectRatio="none" x="13494.506836" y="-3509.033203" width="1.098633" height="1.098633"/>
<image xlink:href="tile88_29.png" preserveAspectRatio="none" x="13495.605469" y="-3502.441406" width="1.098633" height="1.098633"/>
<image xlink:href="tile88_28.png" preserveAspectRatio="none" x="13495.605469" y="-3503.540039" width="1.098633" height="1.098633"/>
<image xlink:href="tile88_27.png" preserveAspectRatio="none" x="13495.605469" y="-3504.638672" width="1.098633" height="1.098633"/>
<image xlink:href="tile88_23.png" preserveAspectRatio="none" x="13495.605469" y="-3509.033203" width="1.098633" height="1.098633"/>
<image xlink:href="tile88_22.png" preserveAspectRatio="none" x="13495.605469" y="-3510.131836" width="1.098633" height="1.098633"/>
<image xlink:href="tile88_21.png" preserveAspectRatio="none" x="13495.605469" y="-3511.230469" width="1.098633" height="1.098633"/>
<image xlink:href="tile89_26.png" preserveAspectRatio="none" x="13496.704102" y="-3505.737305" width="1.098633" height="1.098633"/>
<image xlink:href="tile89_23.png" preserveAspectRatio="none" x="13496.704102" y="-3509.033203" width="1.098633" height="1.098633"/>
<image xlink:href="tile89_22.png" preserveAspectRatio="none" x="13496.704102" y="-3510.131836" width="1.098633" height="1.098633"/>
<image xlink:href="tile89_21.png" preserveAspectRatio="none" x="13496.704102" y="-3511.230469" width="1.098633" height="1.098633"/>
<image xlink:href="tile90_29.png" preserveAspectRatio="none" x="13497.802734" y="-3502.441406" width="1.098633" height="1.098633"/>
<image xlink:href="tile90_28.png" preserveAspectRatio="none" x="13497.802734" y="-3503.540039" width="1.098633" height="1.098633"/>
<image xlink:href="tile90_27.png" preserveAspectRatio="none" x="13497.802734" y="-3504.638672" width="1.098633" height="1.098633"/>
<image xlink:href="tile90_26.png" preserveAspectRatio="none" x="13497.802734" y="-3505.737305" width="1.098633" height="1.098633"/>
<image xlink:href="tile90_23.png" preserveAspectRatio="none" x="13497.802734" y="-3509.033203" width="1.098633" height="1.098633"/>
<image xlink:href="tile90_22.png" preserveAspectRatio="none" x="13497.802734" y="-3510.131836" width="1.098633" height="1.098633"/>
<image xlink:href="tile90_21.png" preserveAspectRatio="none" x="13497.802734" y="-3511.230469" width="1.098633" height="1.098633"/>
<image xlink:href="tile91_29.png" preserveAspectRatio="none" x="13498.901367" y="-3502.441406" width="1.098633" height="1.098633"/>
<image xlink:href="tile91_28.png" preserveAspectRatio="none" x="13498.901367" y="-3503.540039" width="1.098633" height="1.098633"/>
<image xlink:href="tile91_27.png" preserveAspectRatio="none" x="13498.901367" y="-3504.638672" width="1.098633" height="1.098633"/>
<image xlink:href="tile91_26.png" preserveAspectRatio="none" x="13498.901367" y="-3505.737305" width="1.098633" height="1.098633"/>
<image xlink:href="tile91_25.png" preserveAspectRatio="none" x="13498.901367" y="-3506.835938" width="1.098633" height="1.098633"/>
<image xlink:href="tile91_24.png" preserveAspectRatio="none" x="13498.901367" y="-3507.93457" width="1.098633" height="1.098633"/>
<image xlink:href="tile91_23.png" preserveAspectRatio="none" x="13498.901367" y="-3509.033203" width="1.098633" height="1.098633"/>
<image xlink:href="tile91_22.png" preserveAspectRatio="none" x="13498.901367" y="-3510.131836" width="1.098633" height="1.098633"/>
<image xlink:href="tile91_21.png" preserveAspectRatio="none" x="13498.901367" y="-3511.230469" width="1.098633" height="1.098633"/>
<image xlink:href="tile91_20.png" preserveAspectRatio="none" x="13498.901367" y="-3512.329102" width="1.098633" height="1.098633"/>
<image xlink:href="tile91_15.png" preserveAspectRatio="none" x="13498.901367" y="-3517.822266" width="1.098633" height="1.098633"/>
<image xlink:href="tile91_14.png" preserveAspectRatio="none" x="13498.901367" y="-3518.920898" width="1.098633" height="1.098633"/>
</g>
</svg>
