<?xml version="1.0" encoding="UTF-8"?>
<svg  xmlns="http://www.w3.org/2000/svg" xmlns:xlink="http://www.w3.org/1999/xlink" xmlns:go="http://purl.org/svgmap/profile" viewBox="13400.0 -3533.3333333 100.0 66.6666665000001" go:dataArea="13400.0 -3533.3333333 100.0 66.6666665000001" >
<metadata>
 <rdf:RDF xmlns:rdf="http://www.w3.org/1999/02/22-rdf-syntax-ns#" xmlns:crs="http://opengis.org/xmldtds/transformations.dtd" xmlns:svg="http://www.w3.org/svg" >
  <rdf:Description>
   <crs:CoordinateReferenceSystem rdf:resource="http://purl.org/crs/84" svg:transform="matrix(100.0,0.0,0.0,-100.0,0.0,0.0)" />
  </rdf:Description>
 </rdf:RDF>
</metadata>
<globalCoordinateSystem srsName="http://purl.org/crs/84" transform="matrix(100.0,0.0,0.0,-100.0,0.0,0.0)" />
<g >
<image xlink:href="tile64_52.png" preserveAspectRatio="none" x="13469.238281" y="-3477.172852" width="1.098633" height="1.098633"/>
<image xlink:href="tile64_51.png" preserveAspectRatio="none" x="13469.238281" y="-3478.271484" width="1.098633" height="1.098633"/>
<image xlink:href="tile64_50.png" preserveAspectRatio="none" x="13469.238281" y="-3479.370117" width="1.098633" height="1.098633"/>
<image xlink:href="tile64_49.png" preserveAspectRatio="none" x="13469.238281" y="-3480.46875" width="1.098633" height="1.098633"/>
<image xlink:href="tile64_48.png" preserveAspectRatio="none" x="13469.238281" y="-3481.567383" width="1.098633" height="1.098633"/>
<image xlink:href="tile64_47.png" preserveAspectRatio="none" x="13469.238281" y="-3482.666016" width="1.098633" height="1.098633"/>
<image xlink:href="tile64_46.png" preserveAspectRatio="none" x="13469.238281" y="-3483.764648" width="1.098633" height="1.098633"/>
<image xlink:href="tile65_51.png" preserveAspectRatio="none" x="13470.336914" y="-3478.271484" width="1.098633" height="1.098633"/>
<image xlink:href="tile65_50.png" preserveAspectRatio="none" x="13470.336914" y="-3479.370117" width="1.098633" height="1.098633"/>
<image xlink:href="tile65_49.png" preserveAspectRatio="none" x="13470.336914" y="-3480.46875" width="1.098633" height="1.098633"/>
<image xlink:href="tile65_48.png" preserveAspectRatio="none" x="13470.336914" y="-3481.567383" width="1.098633" height="1.098633"/>
<image xlink:href="tile65_47.png" preserveAspectRatio="none" x="13470.336914" y="-3482.666016" width="1.098633" height="1.098633"/>
<image xlink:href="tile65_46.png" preserveAspectRatio="none" x="13470.336914" y="-3483.764648" width="1.098633" height="1.098633"/>
<image xlink:href="tile66_51.png" preserveAspectRatio="none" x="13471.435547" y="-3478.271484" width="1.098633" height="1.098633"/>
<image xlink:href="tile66_50.png" preserveAspectRatio="none" x="13471.435547" y="-3479.370117" width="1.098633" height="1.098633"/>
<image xlink:href="tile66_49.png" preserveAspectRatio="none" x="13471.435547" y="-3480.46875" width="1.098633" height="1.098633"/>
<image xlink:href="tile66_48.png" preserveAspectRatio="none" x="13471.435547" y="-3481.567383" width="1.098633" height="1.098633"/>
<image xlink:href="tile66_47.png" preserveAspectRatio="none" x="13471.435547" y="-3482.666016" width="1.098633" height="1.098633"/>
<image xlink:href="tile66_46.png" preserveAspectRatio="none" x="13471.435547" y="-3483.764648" width="1.098633" height="1.098633"/>
<image xlink:href="tile67_51.png" preserveAspectRatio="none" x="13472.53418" y="-3478.271484" width="1.098633" height="1.098633"/>
<image xlink:href="tile67_50.png" preserveAspectRatio="none" x="13472.53418" y="-3479.370117" width="1.098633" height="1.098633"/>
<image xlink:href="tile67_49.png" preserveAspectRatio="none" x="13472.53418" y="-3480.46875" width="1.098633" height="1.098633"/>
<image xlink:href="tile67_48.png" preserveAspectRatio="none" x="13472.53418" y="-3481.567383" width="1.098633" height="1.098633"/>
<image xlink:href="tile67_47.png" preserveAspectRatio="none" x="13472.53418" y="-3482.666016" width="1.098633" height="1.098633"/>
<image xlink:href="tile67_46.png" preserveAspectRatio="none" x="13472.53418" y="-3483.764648" width="1.098633" height="1.098633"/>
<image xlink:href="tile68_51.png" preserveAspectRatio="none" x="13473.632812" y="-3478.271484" width="1.098633" height="1.098633"/>
<image xlink:href="tile68_50.png" preserveAspectRatio="none" x="13473.632812" y="-3479.370117" width="1.098633" height="1.098633"/>
<image xlink:href="tile68_49.png" preserveAspectRatio="none" x="13473.632812" y="-3480.46875" width="1.098633" height="1.098633"/>
<image xlink:href="tile68_48.png" preserveAspectRatio="none" x="13473.632812" y="-3481.567383" width="1.098633" height="1.098633"/>
<image xlink:href="tile68_47.png" preserveAspectRatio="none" x="13473.632812" y="-3482.666016" width="1.098633" height="1.098633"/>
<image xlink:href="tile68_46.png" preserveAspectRatio="none" x="13473.632812" y="-3483.764648" width="1.098633" height="1.098633"/>
<image xlink:href="tile69_52.png" preserveAspectRatio="none" x="13474.731445" y="-3477.172852" width="1.098633" height="1.098633"/>
<image xlink:href="tile69_51.png" preserveAspectRatio="none" x="13474.731445" y="-3478.271484" width="1.098633" height="1.098633"/>
<image xlink:href="tile69_50.png" preserveAspectRatio="none" x="13474.731445" y="-3479.370117" width="1.098633" height="1.098633"/>
<image xlink:href="tile69_49.png" preserveAspectRatio="none" x="13474.731445" y="-3480.46875" width="1.098633" height="1.098633"/>
<image xlink:href="tile69_48.png" preserveAspectRatio="none" x="13474.731445" y="-3481.567383" width="1.098633" height="1.098633"/>
<image xlink:href="tile69_47.png" preserveAspectRatio="none" x="13474.731445" y="-3482.666016" width="1.098633" height="1.098633"/>
<image xlink:href="tile69_46.png" preserveAspectRatio="none" x="13474.731445" y="-3483.764648" width="1.098633" height="1.098633"/>
<image xlink:href="tile70_53.png" preserveAspectRatio="none" x="13475.830078" y="-3476.074219" width="1.098633" height="1.098633"/>
<image xlink:href="tile70_52.png" preserveAspectRatio="none" x="13475.830078" y="-3477.172852" width="1.098633" height="1.098633"/>
<image xlink:href="tile70_51.png" preserveAspectRatio="none" x="13475.830078" y="-3478.271484" width="1.098633" height="1.098633"/>
<image xlink:href="tile70_50.png" preserveAspectRatio="none" x="13475.830078" y="-3479.370117" width="1.098633" height="1.098633"/>
<image xlink:href="tile70_49.png" preserveAspectRatio="none" x="13475.830078" y="-3480.46875" width="1.098633" height="1.098633"/>
<image xlink:href="tile70_46.png" preserveAspectRatio="none" x="13475.830078" y="-3483.764648" width="1.098633" height="1.098633"/>
<image xlink:href="tile71_54.png" preserveAspectRatio="none" x="13476.928711" y="-3474.975586" width="1.098633" height="1.098633"/>
<image xlink:href="tile71_53.png" preserveAspectRatio="none" x="13476.928711" y="-3476.074219" width="1.098633" height="1.098633"/>
<image xlink:href="tile71_52.png" preserveAspectRatio="none" x="13476.928711" y="-3477.172852" width="1.098633" height="1.098633"/>
<image xlink:href="tile71_51.png" preserveAspectRatio="none" x="13476.928711" y="-3478.271484" width="1.098633" height="1.098633"/>
<image xlink:href="tile71_50.png" preserveAspectRatio="none" x="13476.928711" y="-3479.370117" width="1.098633" height="1.098633"/>
<image xlink:href="tile71_49.png" preserveAspectRatio="none" x="13476.928711" y="-3480.46875" width="1.098633" height="1.098633"/>
<image xlink:href="tile72_55.png" preserveAspectRatio="none" x="13478.027344" y="-3473.876953" width="1.098633" height="1.098633"/>
<image xlink:href="tile72_54.png" preserveAspectRatio="none" x="13478.027344" y="-3474.975586" width="1.098633" height="1.098633"/>
<image xlink:href="tile72_53.png" preserveAspectRatio="none" x="13478.027344" y="-3476.074219" width="1.098633" height="1.098633"/>
<image xlink:href="tile72_52.png" preserveAspectRatio="none" x="13478.027344" y="-3477.172852" width="1.098633" height="1.098633"/>
<image xlink:href="tile72_51.png" preserveAspectRatio="none" x="13478.027344" y="-3478.271484" width="1.098633" height="1.098633"/>
<image xlink:href="tile72_50.png" preserveAspectRatio="none" x="13478.027344" y="-3479.370117" width="1.098633" height="1.098633"/>
<image xlink:href="tile72_49.png" preserveAspectRatio="none" x="13478.027344" y="-3480.46875" width="1.098633" height="1.098633"/>
<image xlink:href="tile73_55.png" preserveAspectRatio="none" x="13479.125977" y="-3473.876953" width="1.098633" height="1.098633"/>
<image xlink:href="tile73_54.png" preserveAspectRatio="none" x="13479.125977" y="-3474.975586" width="1.098633" height="1.098633"/>
<image xlink:href="tile73_53.png" preserveAspectRatio="none" x="13479.125977" y="-3476.074219" width="1.098633" height="1.098633"/>
<image xlink:href="tile73_52.png" preserveAspectRatio="none" x="13479.125977" y="-3477.172852" width="1.098633" height="1.098633"/>
<image xlink:href="tile73_51.png" preserveAspectRatio="none" x="13479.125977" y="-3478.271484" width="1.098633" height="1.098633"/>
<image xlink:href="tile73_50.png" preserveAspectRatio="none" x="13479.125977" y="-3479.370117" width="1.098633" height="1.098633"/>
<image xlink:href="tile73_49.png" preserveAspectRatio="none" x="13479.125977" y="-3480.46875" width="1.098633" height="1.098633"/>
<image xlink:href="tile74_57.png" preserveAspectRatio="none" x="13480.224609" y="-3471.679688" width="1.098633" height="1.098633"/>
<image xlink:href="tile74_56.png" preserveAspectRatio="none" x="13480.224609" y="-3472.77832" width="1.098633" height="1.098633"/>
<image xlink:href="tile74_55.png" preserveAspectRatio="none" x="13480.224609" y="-3473.876953" width="1.098633" height="1.098633"/>
<image xlink:href="tile74_54.png" preserveAspectRatio="none" x="13480.224609" y="-3474.975586" width="1.098633" height="1.098633"/>
<image xlink:href="tile74_53.png" preserveAspectRatio="none" x="13480.224609" y="-3476.074219" width="1.098633" height="1.098633"/>
<image xlink:href="tile74_52.png" preserveAspectRatio="none" x="13480.224609" y="-3477.172852" width="1.098633" height="1.098633"/>
<image xlink:href="tile74_51.png" preserveAspectRatio="none" x="13480.224609" y="-3478.271484" width="1.098633" height="1.098633"/>
<image xlink:href="tile74_50.png" preserveAspectRatio="none" x="13480.224609" y="-3479.370117" width="1.098633" height="1.098633"/>
<image xlink:href="tile74_49.png" preserveAspectRatio="none" x="13480.224609" y="-3480.46875" width="1.098633" height="1.098633"/>
<image xlink:href="tile74_48.png" preserveAspectRatio="none" x="13480.224609" y="-3481.567383" width="1.098633" height="1.098633"/>
<image xlink:href="tile74_47.png" preserveAspectRatio="none" x="13480.224609" y="-3482.666016" width="1.098633" height="1.098633"/>
<image xlink:href="tile75_57.png" preserveAspectRatio="none" x="13481.323242" y="-3471.679688" width="1.098633" height="1.098633"/>
<image xlink:href="tile75_56.png" preserveAspectRatio="none" x="13481.323242" y="-3472.77832" width="1.098633" height="1.098633"/>
<image xlink:href="tile75_55.png" preserveAspectRatio="none" x="13481.323242" y="-3473.876953" width="1.098633" height="1.098633"/>
<image xlink:href="tile75_54.png" preserveAspectRatio="none" x="13481.323242" y="-3474.975586" width="1.098633" height="1.098633"/>
<image xlink:href="tile75_53.png" preserveAspectRatio="none" x="13481.323242" y="-3476.074219" width="1.098633" height="1.098633"/>
<image xlink:href="tile75_52.png" preserveAspectRatio="none" x="13481.323242" y="-3477.172852" width="1.098633" height="1.098633"/>
<image xlink:href="tile75_51.png" preserveAspectRatio="none" x="13481.323242" y="-3478.271484" width="1.098633" height="1.098633"/>
<image xlink:href="tile75_50.png" preserveAspectRatio="none" x="13481.323242" y="-3479.370117" width="1.098633" height="1.098633"/>
<image xlink:href="tile75_49.png" preserveAspectRatio="none" x="13481.323242" y="-3480.46875" width="1.098633" height="1.098633"/>
<image xlink:href="tile75_48.png" preserveAspectRatio="none" x="13481.323242" y="-3481.567383" width="1.098633" height="1.098633"/>
<image xlink:href="tile75_47.png" preserveAspectRatio="none" x="13481.323242" y="-3482.666016" width="1.098633" height="1.098633"/>
<image xlink:href="tile75_46.png" preserveAspectRatio="none" x="13481.323242" y="-3483.764648" width="1.098633" height="1.098633"/>
<image xlink:href="tile76_57.png" preserveAspectRatio="none" x="13482.421875" y="-3471.679688" width="1.098633" height="1.098633"/>
<image xlink:href="tile76_56.png" preserveAspectRatio="none" x="13482.421875" y="-3472.77832" width="1.098633" height="1.098633"/>
<image xlink:href="tile76_55.png" preserveAspectRatio="none" x="13482.421875" y="-3473.876953" width="1.098633" height="1.098633"/>
<image xlink:href="tile76_54.png" preserveAspectRatio="none" x="13482.421875" y="-3474.975586" width="1.098633" height="1.098633"/>
<image xlink:href="tile76_53.png" preserveAspectRatio="none" x="13482.421875" y="-3476.074219" width="1.098633" height="1.098633"/>
<image xlink:href="tile76_52.png" preserveAspectRatio="none" x="13482.421875" y="-3477.172852" width="1.098633" height="1.098633"/>
<image xlink:href="tile76_51.png" preserveAspectRatio="none" x="13482.421875" y="-3478.271484" width="1.098633" height="1.098633"/>
<image xlink:href="tile76_50.png" preserveAspectRatio="none" x="13482.421875" y="-3479.370117" width="1.098633" height="1.098633"/>
<image xlink:href="tile76_49.png" preserveAspectRatio="none" x="13482.421875" y="-3480.46875" width="1.098633" height="1.098633"/>
<image xlink:href="tile76_48.png" preserveAspectRatio="none" x="13482.421875" y="-3481.567383" width="1.098633" height="1.098633"/>
<image xlink:href="tile76_47.png" preserveAspectRatio="none" x="13482.421875" y="-3482.666016" width="1.098633" height="1.098633"/>
<image xlink:href="tile76_46.png" preserveAspectRatio="none" x="13482.421875" y="-3483.764648" width="1.098633" height="1.098633"/>
<image xlink:href="tile77_57.png" preserveAspectRatio="none" x="13483.520508" y="-3471.679688" width="1.098633" height="1.098633"/>
<image xlink:href="tile77_56.png" preserveAspectRatio="none" x="13483.520508" y="-3472.77832" width="1.098633" height="1.098633"/>
<image xlink:href="tile77_55.png" preserveAspectRatio="none" x="13483.520508" y="-3473.876953" width="1.098633" height="1.098633"/>
<image xlink:href="tile77_54.png" preserveAspectRatio="none" x="13483.520508" y="-3474.975586" width="1.098633" height="1.098633"/>
<image xlink:href="tile77_53.png" preserveAspectRatio="none" x="13483.520508" y="-3476.074219" width="1.098633" height="1.098633"/>
<image xlink:href="tile77_52.png" preserveAspectRatio="none" x="13483.520508" y="-3477.172852" width="1.098633" height="1.098633"/>
<image xlink:href="tile77_51.png" preserveAspectRatio="none" x="13483.520508" y="-3478.271484" width="1.098633" height="1.098633"/>
<image xlink:href="tile77_50.png" preserveAspectRatio="none" x="13483.520508" y="-3479.370117" width="1.098633" height="1.098633"/>
<image xlink:href="tile77_49.png" preserveAspectRatio="none" x="13483.520508" y="-3480.46875" width="1.098633" height="1.098633"/>
<image xlink:href="tile77_47.png" preserveAspectRatio="none" x="13483.520508" y="-3482.666016" width="1.098633" height="1.098633"/>
<image xlink:href="tile77_46.png" preserveAspectRatio="none" x="13483.520508" y="-3483.764648" width="1.098633" height="1.098633"/>
<image xlink:href="tile78_57.png" preserveAspectRatio="none" x="13484.619141" y="-3471.679688" width="1.098633" height="1.098633"/>
<image xlink:href="tile78_56.png" preserveAspectRatio="none" x="13484.619141" y="-3472.77832" width="1.098633" height="1.098633"/>
<image xlink:href="tile78_55.png" preserveAspectRatio="none" x="13484.619141" y="-3473.876953" width="1.098633" height="1.098633"/>
<image xlink:href="tile78_54.png" preserveAspectRatio="none" x="13484.619141" y="-3474.975586" width="1.098633" height="1.098633"/>
<image xlink:href="tile78_53.png" preserveAspectRatio="none" x="13484.619141" y="-3476.074219" width="1.098633" height="1.098633"/>
<image xlink:href="tile78_52.png" preserveAspectRatio="none" x="13484.619141" y="-3477.172852" width="1.098633" height="1.098633"/>
<image xlink:href="tile78_51.png" preserveAspectRatio="none" x="13484.619141" y="-3478.271484" width="1.098633" height="1.098633"/>
<image xlink:href="tile78_50.png" preserveAspectRatio="none" x="13484.619141" y="-3479.370117" width="1.098633" height="1.098633"/>
<image xlink:href="tile78_49.png" preserveAspectRatio="none" x="13484.619141" y="-3480.46875" width="1.098633" height="1.098633"/>
<image xlink:href="tile78_48.png" preserveAspectRatio="none" x="13484.619141" y="-3481.567383" width="1.098633" height="1.098633"/>
<image xlink:href="tile78_47.png" preserveAspectRatio="none" x="13484.619141" y="-3482.666016" width="1.098633" height="1.098633"/>
<image xlink:href="tile79_57.png" preserveAspectRatio="none" x="13485.717773" y="-3471.679688" width="1.098633" height="1.098633"/>
<image xlink:href="tile79_56.png" preserveAspectRatio="none" x="13485.717773" y="-3472.77832" width="1.098633" height="1.098633"/>
<image xlink:href="tile79_55.png" preserveAspectRatio="none" x="13485.717773" y="-3473.876953" width="1.098633" height="1.098633"/>
<image xlink:href="tile79_53.png" preserveAspectRatio="none" x="13485.717773" y="-3476.074219" width="1.098633" height="1.098633"/>
<image xlink:href="tile79_52.png" preserveAspectRatio="none" x="13485.717773" y="-3477.172852" width="1.098633" height="1.098633"/>
<image xlink:href="tile79_51.png" preserveAspectRatio="none" x="13485.717773" y="-3478.271484" width="1.098633" height="1.098633"/>
<image xlink:href="tile79_50.png" preserveAspectRatio="none" x="13485.717773" y="-3479.370117" width="1.098633" height="1.098633"/>
<image xlink:href="tile79_49.png" preserveAspectRatio="none" x="13485.717773" y="-3480.46875" width="1.098633" height="1.098633"/>
<image xlink:href="tile79_48.png" preserveAspectRatio="none" x="13485.717773" y="-3481.567383" width="1.098633" height="1.098633"/>
<image xlink:href="tile79_46.png" preserveAspectRatio="none" x="13485.717773" y="-3483.764648" width="1.098633" height="1.098633"/>
</g>
</svg>
