<?xml version="1.0" encoding="UTF-8"?>
<svg  xmlns="http://www.w3.org/2000/svg" xmlns:xlink="http://www.w3.org/1999/xlink" xmlns:go="http://purl.org/svgmap/profile" viewBox="13400.0 -3533.3333333 100.0 66.6666665000001" go:dataArea="13400.0 -3533.3333333 100.0 66.6666665000001" >
<metadata>
 <rdf:RDF xmlns:rdf="http://www.w3.org/1999/02/22-rdf-syntax-ns#" xmlns:crs="http://opengis.org/xmldtds/transformations.dtd" xmlns:svg="http://www.w3.org/svg" >
  <rdf:Description>
   <crs:CoordinateReferenceSystem rdf:resource="http://purl.org/crs/84" svg:transform="matrix(100.0,0.0,0.0,-100.0,0.0,0.0)" />
  </rdf:Description>
 </rdf:RDF>
</metadata>
<globalCoordinateSystem srsName="http://purl.org/crs/84" transform="matrix(100.0,0.0,0.0,-100.0,0.0,0.0)" />
<g >
<image xlink:href="tile0_26.png" preserveAspectRatio="none" x="13398.925781" y="-3505.737305" width="1.098633" height="1.098633"/>
<image xlink:href="tile0_25.png" preserveAspectRatio="none" x="13398.925781" y="-3506.835938" width="1.098633" height="1.098633"/>
<image xlink:href="tile0_23.png" preserveAspectRatio="none" x="13398.925781" y="-3509.033203" width="1.098633" height="1.098633"/>
<image xlink:href="tile0_22.png" preserveAspectRatio="none" x="13398.925781" y="-3510.131836" width="1.098633" height="1.098633"/>
<image xlink:href="tile1_26.png" preserveAspectRatio="none" x="13400.024414" y="-3505.737305" width="1.098633" height="1.098633"/>
<image xlink:href="tile1_25.png" preserveAspectRatio="none" x="13400.024414" y="-3506.835938" width="1.098633" height="1.098633"/>
<image xlink:href="tile1_24.png" preserveAspectRatio="none" x="13400.024414" y="-3507.93457" width="1.098633" height="1.098633"/>
<image xlink:href="tile1_23.png" preserveAspectRatio="none" x="13400.024414" y="-3509.033203" width="1.098633" height="1.098633"/>
<image xlink:href="tile1_22.png" preserveAspectRatio="none" x="13400.024414" y="-3510.131836" width="1.098633" height="1.098633"/>
<image xlink:href="tile1_21.png" preserveAspectRatio="none" x="13400.024414" y="-3511.230469" width="1.098633" height="1.098633"/>
<image xlink:href="tile1_20.png" preserveAspectRatio="none" x="13400.024414" y="-3512.329102" width="1.098633" height="1.098633"/>
<image xlink:href="tile2_27.png" preserveAspectRatio="none" x="13401.123047" y="-3504.638672" width="1.098633" height="1.098633"/>
<image xlink:href="tile2_26.png" preserveAspectRatio="none" x="13401.123047" y="-3505.737305" width="1.098633" height="1.098633"/>
<image xlink:href="tile2_25.png" preserveAspectRatio="none" x="13401.123047" y="-3506.835938" width="1.098633" height="1.098633"/>
<image xlink:href="tile2_24.png" preserveAspectRatio="none" x="13401.123047" y="-3507.93457" width="1.098633" height="1.098633"/>
<image xlink:href="tile2_20.png" preserveAspectRatio="none" x="13401.123047" y="-3512.329102" width="1.098633" height="1.098633"/>
<image xlink:href="tile2_19.png" preserveAspectRatio="none" x="13401.123047" y="-3513.427734" width="1.098633" height="1.098633"/>
<image xlink:href="tile3_29.png" preserveAspectRatio="none" x="13402.22168" y="-3502.441406" width="1.098633" height="1.098633"/>
<image xlink:href="tile3_28.png" preserveAspectRatio="none" x="13402.22168" y="-3503.540039" width="1.098633" height="1.098633"/>
<image xlink:href="tile3_27.png" preserveAspectRatio="none" x="13402.22168" y="-3504.638672" width="1.098633" height="1.098633"/>
<image xlink:href="tile3_26.png" preserveAspectRatio="none" x="13402.22168" y="-3505.737305" width="1.098633" height="1.098633"/>
<image xlink:href="tile3_25.png" preserveAspectRatio="none" x="13402.22168" y="-3506.835938" width="1.098633" height="1.098633"/>
<image xlink:href="tile4_28.png" preserveAspectRatio="none" x="13403.320312" y="-3503.540039" width="1.098633" height="1.098633"/>
<image xlink:href="tile4_27.png" preserveAspectRatio="none" x="13403.320312" y="-3504.638672" width="1.098633" height="1.098633"/>
<image xlink:href="tile4_26.png" preserveAspectRatio="none" x="13403.320312" y="-3505.737305" width="1.098633" height="1.098633"/>
<image xlink:href="tile4_25.png" preserveAspectRatio="none" x="13403.320312" y="-3506.835938" width="1.098633" height="1.098633"/>
<image xlink:href="tile4_24.png" preserveAspectRatio="none" x="13403.320312" y="-3507.93457" width="1.098633" height="1.098633"/>
<image xlink:href="tile5_27.png" preserveAspectRatio="none" x="13404.418945" y="-3504.638672" width="1.098633" height="1.098633"/>
<image xlink:href="tile5_26.png" preserveAspectRatio="none" x="13404.418945" y="-3505.737305" width="1.098633" height="1.098633"/>
<image xlink:href="tile5_25.png" preserveAspectRatio="none" x="13404.418945" y="-3506.835938" width="1.098633" height="1.098633"/>
<image xlink:href="tile5_24.png" preserveAspectRatio="none" x="13404.418945" y="-3507.93457" width="1.098633" height="1.098633"/>
<image xlink:href="tile6_27.png" preserveAspectRatio="none" x="13405.517578" y="-3504.638672" width="1.098633" height="1.098633"/>
<image xlink:href="tile6_26.png" preserveAspectRatio="none" x="13405.517578" y="-3505.737305" width="1.098633" height="1.098633"/>
<image xlink:href="tile6_25.png" preserveAspectRatio="none" x="13405.517578" y="-3506.835938" width="1.098633" height="1.098633"/>
<image xlink:href="tile6_24.png" preserveAspectRatio="none" x="13405.517578" y="-3507.93457" width="1.098633" height="1.098633"/>
<image xlink:href="tile6_23.png" preserveAspectRatio="none" x="13405.517578" y="-3509.033203" width="1.098633" height="1.098633"/>
<image xlink:href="tile7_27.png" preserveAspectRatio="none" x="13406.616211" y="-3504.638672" width="1.098633" height="1.098633"/>
<image xlink:href="tile7_26.png" preserveAspectRatio="none" x="13406.616211" y="-3505.737305" width="1.098633" height="1.098633"/>
<image xlink:href="tile7_25.png" preserveAspectRatio="none" x="13406.616211" y="-3506.835938" width="1.098633" height="1.098633"/>
<image xlink:href="tile7_24.png" preserveAspectRatio="none" x="13406.616211" y="-3507.93457" width="1.098633" height="1.098633"/>
<image xlink:href="tile7_23.png" preserveAspectRatio="none" x="13406.616211" y="-3509.033203" width="1.098633" height="1.098633"/>
<image xlink:href="tile7_22.png" preserveAspectRatio="none" x="13406.616211" y="-3510.131836" width="1.098633" height="1.098633"/>
<image xlink:href="tile8_27.png" preserveAspectRatio="none" x="13407.714844" y="-3504.638672" width="1.098633" height="1.098633"/>
<image xlink:href="tile8_26.png" preserveAspectRatio="none" x="13407.714844" y="-3505.737305" width="1.098633" height="1.098633"/>
<image xlink:href="tile8_25.png" preserveAspectRatio="none" x="13407.714844" y="-3506.835938" width="1.098633" height="1.098633"/>
<image xlink:href="tile8_22.png" preserveAspectRatio="none" x="13407.714844" y="-3510.131836" width="1.098633" height="1.098633"/>
<image xlink:href="tile9_25.png" preserveAspectRatio="none" x="13408.813477" y="-3506.835938" width="1.098633" height="1.098633"/>
<image xlink:href="tile9_24.png" preserveAspectRatio="none" x="13408.813477" y="-3507.93457" width="1.098633" height="1.098633"/>
<image xlink:href="tile9_23.png" preserveAspectRatio="none" x="13408.813477" y="-3509.033203" width="1.098633" height="1.098633"/>
<image xlink:href="tile9_22.png" preserveAspectRatio="none" x="13408.813477" y="-3510.131836" width="1.098633" height="1.098633"/>
<image xlink:href="tile10_24.png" preserveAspectRatio="none" x="13409.912109" y="-3507.93457" width="1.098633" height="1.098633"/>
<image xlink:href="tile10_23.png" preserveAspectRatio="none" x="13409.912109" y="-3509.033203" width="1.098633" height="1.098633"/>
<image xlink:href="tile11_28.png" preserveAspectRatio="none" x="13411.010742" y="-3503.540039" width="1.098633" height="1.098633"/>
<image xlink:href="tile11_27.png" preserveAspectRatio="none" x="13411.010742" y="-3504.638672" width="1.098633" height="1.098633"/>
<image xlink:href="tile11_26.png" preserveAspectRatio="none" x="13411.010742" y="-3505.737305" width="1.098633" height="1.098633"/>
<image xlink:href="tile11_25.png" preserveAspectRatio="none" x="13411.010742" y="-3506.835938" width="1.098633" height="1.098633"/>
<image xlink:href="tile12_29.png" preserveAspectRatio="none" x="13412.109375" y="-3502.441406" width="1.098633" height="1.098633"/>
<image xlink:href="tile12_28.png" preserveAspectRatio="none" x="13412.109375" y="-3503.540039" width="1.098633" height="1.098633"/>
<image xlink:href="tile12_27.png" preserveAspectRatio="none" x="13412.109375" y="-3504.638672" width="1.098633" height="1.098633"/>
<image xlink:href="tile12_26.png" preserveAspectRatio="none" x="13412.109375" y="-3505.737305" width="1.098633" height="1.098633"/>
<image xlink:href="tile12_25.png" preserveAspectRatio="none" x="13412.109375" y="-3506.835938" width="1.098633" height="1.098633"/>
<image xlink:href="tile12_24.png" preserveAspectRatio="none" x="13412.109375" y="-3507.93457" width="1.098633" height="1.098633"/>
<image xlink:href="tile13_29.png" preserveAspectRatio="none" x="13413.208008" y="-3502.441406" width="1.098633" height="1.098633"/>
<image xlink:href="tile13_28.png" preserveAspectRatio="none" x="13413.208008" y="-3503.540039" width="1.098633" height="1.098633"/>
<image xlink:href="tile13_25.png" preserveAspectRatio="none" x="13413.208008" y="-3506.835938" width="1.098633" height="1.098633"/>
<image xlink:href="tile13_24.png" preserveAspectRatio="none" x="13413.208008" y="-3507.93457" width="1.098633" height="1.098633"/>
<image xlink:href="tile14_29.png" preserveAspectRatio="none" x="13414.306641" y="-3502.441406" width="1.098633" height="1.098633"/>
<image xlink:href="tile14_28.png" preserveAspectRatio="none" x="13414.306641" y="-3503.540039" width="1.098633" height="1.098633"/>
<image xlink:href="tile14_25.png" preserveAspectRatio="none" x="13414.306641" y="-3506.835938" width="1.098633" height="1.098633"/>
<image xlink:href="tile14_24.png" preserveAspectRatio="none" x="13414.306641" y="-3507.93457" width="1.098633" height="1.098633"/>
<image xlink:href="tile14_23.png" preserveAspectRatio="none" x="13414.306641" y="-3509.033203" width="1.098633" height="1.098633"/>
<image xlink:href="tile15_29.png" preserveAspectRatio="none" x="13415.405273" y="-3502.441406" width="1.098633" height="1.098633"/>
<image xlink:href="tile15_28.png" preserveAspectRatio="none" x="13415.405273" y="-3503.540039" width="1.098633" height="1.098633"/>
<image xlink:href="tile15_24.png" preserveAspectRatio="none" x="13415.405273" y="-3507.93457" width="1.098633" height="1.098633"/>
<image xlink:href="tile15_23.png" preserveAspectRatio="none" x="13415.405273" y="-3509.033203" width="1.098633" height="1.098633"/>
<image xlink:href="tile15_22.png" preserveAspectRatio="none" x="13415.405273" y="-3510.131836" width="1.098633" height="1.098633"/>
</g>
</svg>
