<?xml version="1.0" encoding="UTF-8"?>
<svg  xmlns="http://www.w3.org/2000/svg" xmlns:xlink="http://www.w3.org/1999/xlink" xmlns:go="http://purl.org/svgmap/profile" viewBox="13400.0 -3533.3333333 100.0 66.6666665000001" go:dataArea="13400.0 -3533.3333333 100.0 66.6666665000001" >
<metadata>
 <rdf:RDF xmlns:rdf="http://www.w3.org/1999/02/22-rdf-syntax-ns#" xmlns:crs="http://opengis.org/xmldtds/transformations.dtd" xmlns:svg="http://www.w3.org/svg" >
  <rdf:Description>
   <crs:CoordinateReferenceSystem rdf:resource="http://purl.org/crs/84" svg:transform="matrix(100.0,0.0,0.0,-100.0,0.0,0.0)" />
  </rdf:Description>
 </rdf:RDF>
</metadata>
<globalCoordinateSystem srsName="http://purl.org/crs/84" transform="matrix(100.0,0.0,0.0,-100.0,0.0,0.0)" />
<g >
<image xlink:href="tile32_43.png" preserveAspectRatio="none" x="13434.082031" y="-3487.060547" width="1.098633" height="1.098633"/>
<image xlink:href="tile32_42.png" preserveAspectRatio="none" x="13434.082031" y="-3488.15918" width="1.098633" height="1.098633"/>
<image xlink:href="tile32_41.png" preserveAspectRatio="none" x="13434.082031" y="-3489.257812" width="1.098633" height="1.098633"/>
<image xlink:href="tile32_40.png" preserveAspectRatio="none" x="13434.082031" y="-3490.356445" width="1.098633" height="1.098633"/>
<image xlink:href="tile32_39.png" preserveAspectRatio="none" x="13434.082031" y="-3491.455078" width="1.098633" height="1.098633"/>
<image xlink:href="tile32_38.png" preserveAspectRatio="none" x="13434.082031" y="-3492.553711" width="1.098633" height="1.098633"/>
<image xlink:href="tile32_37.png" preserveAspectRatio="none" x="13434.082031" y="-3493.652344" width="1.098633" height="1.098633"/>
<image xlink:href="tile32_36.png" preserveAspectRatio="none" x="13434.082031" y="-3494.750977" width="1.098633" height="1.098633"/>
<image xlink:href="tile32_35.png" preserveAspectRatio="none" x="13434.082031" y="-3495.849609" width="1.098633" height="1.098633"/>
<image xlink:href="tile32_34.png" preserveAspectRatio="none" x="13434.082031" y="-3496.948242" width="1.098633" height="1.098633"/>
<image xlink:href="tile32_33.png" preserveAspectRatio="none" x="13434.082031" y="-3498.046875" width="1.098633" height="1.098633"/>
<image xlink:href="tile32_32.png" preserveAspectRatio="none" x="13434.082031" y="-3499.145508" width="1.098633" height="1.098633"/>
<image xlink:href="tile32_31.png" preserveAspectRatio="none" x="13434.082031" y="-3500.244141" width="1.098633" height="1.098633"/>
<image xlink:href="tile32_30.png" preserveAspectRatio="none" x="13434.082031" y="-3501.342773" width="1.098633" height="1.098633"/>
<image xlink:href="tile33_44.png" preserveAspectRatio="none" x="13435.180664" y="-3485.961914" width="1.098633" height="1.098633"/>
<image xlink:href="tile33_43.png" preserveAspectRatio="none" x="13435.180664" y="-3487.060547" width="1.098633" height="1.098633"/>
<image xlink:href="tile33_42.png" preserveAspectRatio="none" x="13435.180664" y="-3488.15918" width="1.098633" height="1.098633"/>
<image xlink:href="tile33_41.png" preserveAspectRatio="none" x="13435.180664" y="-3489.257812" width="1.098633" height="1.098633"/>
<image xlink:href="tile33_40.png" preserveAspectRatio="none" x="13435.180664" y="-3490.356445" width="1.098633" height="1.098633"/>
<image xlink:href="tile33_39.png" preserveAspectRatio="none" x="13435.180664" y="-3491.455078" width="1.098633" height="1.098633"/>
<image xlink:href="tile33_38.png" preserveAspectRatio="none" x="13435.180664" y="-3492.553711" width="1.098633" height="1.098633"/>
<image xlink:href="tile33_37.png" preserveAspectRatio="none" x="13435.180664" y="-3493.652344" width="1.098633" height="1.098633"/>
<image xlink:href="tile33_34.png" preserveAspectRatio="none" x="13435.180664" y="-3496.948242" width="1.098633" height="1.098633"/>
<image xlink:href="tile33_33.png" preserveAspectRatio="none" x="13435.180664" y="-3498.046875" width="1.098633" height="1.098633"/>
<image xlink:href="tile33_32.png" preserveAspectRatio="none" x="13435.180664" y="-3499.145508" width="1.098633" height="1.098633"/>
<image xlink:href="tile33_31.png" preserveAspectRatio="none" x="13435.180664" y="-3500.244141" width="1.098633" height="1.098633"/>
<image xlink:href="tile33_30.png" preserveAspectRatio="none" x="13435.180664" y="-3501.342773" width="1.098633" height="1.098633"/>
<image xlink:href="tile34_44.png" preserveAspectRatio="none" x="13436.279297" y="-3485.961914" width="1.098633" height="1.098633"/>
<image xlink:href="tile34_43.png" preserveAspectRatio="none" x="13436.279297" y="-3487.060547" width="1.098633" height="1.098633"/>
<image xlink:href="tile34_42.png" preserveAspectRatio="none" x="13436.279297" y="-3488.15918" width="1.098633" height="1.098633"/>
<image xlink:href="tile34_41.png" preserveAspectRatio="none" x="13436.279297" y="-3489.257812" width="1.098633" height="1.098633"/>
<image xlink:href="tile34_39.png" preserveAspectRatio="none" x="13436.279297" y="-3491.455078" width="1.098633" height="1.098633"/>
<image xlink:href="tile34_38.png" preserveAspectRatio="none" x="13436.279297" y="-3492.553711" width="1.098633" height="1.098633"/>
<image xlink:href="tile34_34.png" preserveAspectRatio="none" x="13436.279297" y="-3496.948242" width="1.098633" height="1.098633"/>
<image xlink:href="tile34_33.png" preserveAspectRatio="none" x="13436.279297" y="-3498.046875" width="1.098633" height="1.098633"/>
<image xlink:href="tile34_32.png" preserveAspectRatio="none" x="13436.279297" y="-3499.145508" width="1.098633" height="1.098633"/>
<image xlink:href="tile34_30.png" preserveAspectRatio="none" x="13436.279297" y="-3501.342773" width="1.098633" height="1.098633"/>
<image xlink:href="tile35_45.png" preserveAspectRatio="none" x="13437.37793" y="-3484.863281" width="1.098633" height="1.098633"/>
<image xlink:href="tile35_44.png" preserveAspectRatio="none" x="13437.37793" y="-3485.961914" width="1.098633" height="1.098633"/>
<image xlink:href="tile35_43.png" preserveAspectRatio="none" x="13437.37793" y="-3487.060547" width="1.098633" height="1.098633"/>
<image xlink:href="tile35_41.png" preserveAspectRatio="none" x="13437.37793" y="-3489.257812" width="1.098633" height="1.098633"/>
<image xlink:href="tile35_40.png" preserveAspectRatio="none" x="13437.37793" y="-3490.356445" width="1.098633" height="1.098633"/>
<image xlink:href="tile35_34.png" preserveAspectRatio="none" x="13437.37793" y="-3496.948242" width="1.098633" height="1.098633"/>
<image xlink:href="tile35_32.png" preserveAspectRatio="none" x="13437.37793" y="-3499.145508" width="1.098633" height="1.098633"/>
<image xlink:href="tile36_45.png" preserveAspectRatio="none" x="13438.476562" y="-3484.863281" width="1.098633" height="1.098633"/>
<image xlink:href="tile36_44.png" preserveAspectRatio="none" x="13438.476562" y="-3485.961914" width="1.098633" height="1.098633"/>
<image xlink:href="tile36_43.png" preserveAspectRatio="none" x="13438.476562" y="-3487.060547" width="1.098633" height="1.098633"/>
<image xlink:href="tile36_41.png" preserveAspectRatio="none" x="13438.476562" y="-3489.257812" width="1.098633" height="1.098633"/>
<image xlink:href="tile36_40.png" preserveAspectRatio="none" x="13438.476562" y="-3490.356445" width="1.098633" height="1.098633"/>
<image xlink:href="tile36_39.png" preserveAspectRatio="none" x="13438.476562" y="-3491.455078" width="1.098633" height="1.098633"/>
<image xlink:href="tile36_38.png" preserveAspectRatio="none" x="13438.476562" y="-3492.553711" width="1.098633" height="1.098633"/>
<image xlink:href="tile36_33.png" preserveAspectRatio="none" x="13438.476562" y="-3498.046875" width="1.098633" height="1.098633"/>
<image xlink:href="tile36_32.png" preserveAspectRatio="none" x="13438.476562" y="-3499.145508" width="1.098633" height="1.098633"/>
<image xlink:href="tile36_31.png" preserveAspectRatio="none" x="13438.476562" y="-3500.244141" width="1.098633" height="1.098633"/>
<image xlink:href="tile37_44.png" preserveAspectRatio="none" x="13439.575195" y="-3485.961914" width="1.098633" height="1.098633"/>
<image xlink:href="tile37_43.png" preserveAspectRatio="none" x="13439.575195" y="-3487.060547" width="1.098633" height="1.098633"/>
<image xlink:href="tile37_40.png" preserveAspectRatio="none" x="13439.575195" y="-3490.356445" width="1.098633" height="1.098633"/>
<image xlink:href="tile37_39.png" preserveAspectRatio="none" x="13439.575195" y="-3491.455078" width="1.098633" height="1.098633"/>
<image xlink:href="tile37_33.png" preserveAspectRatio="none" x="13439.575195" y="-3498.046875" width="1.098633" height="1.098633"/>
<image xlink:href="tile37_32.png" preserveAspectRatio="none" x="13439.575195" y="-3499.145508" width="1.098633" height="1.098633"/>
<image xlink:href="tile37_31.png" preserveAspectRatio="none" x="13439.575195" y="-3500.244141" width="1.098633" height="1.098633"/>
<image xlink:href="tile37_30.png" preserveAspectRatio="none" x="13439.575195" y="-3501.342773" width="1.098633" height="1.098633"/>
<image xlink:href="tile38_39.png" preserveAspectRatio="none" x="13440.673828" y="-3491.455078" width="1.098633" height="1.098633"/>
<image xlink:href="tile38_38.png" preserveAspectRatio="none" x="13440.673828" y="-3492.553711" width="1.098633" height="1.098633"/>
<image xlink:href="tile38_36.png" preserveAspectRatio="none" x="13440.673828" y="-3494.750977" width="1.098633" height="1.098633"/>
<image xlink:href="tile38_33.png" preserveAspectRatio="none" x="13440.673828" y="-3498.046875" width="1.098633" height="1.098633"/>
<image xlink:href="tile38_32.png" preserveAspectRatio="none" x="13440.673828" y="-3499.145508" width="1.098633" height="1.098633"/>
<image xlink:href="tile38_31.png" preserveAspectRatio="none" x="13440.673828" y="-3500.244141" width="1.098633" height="1.098633"/>
<image xlink:href="tile38_30.png" preserveAspectRatio="none" x="13440.673828" y="-3501.342773" width="1.098633" height="1.098633"/>
<image xlink:href="tile39_45.png" preserveAspectRatio="none" x="13441.772461" y="-3484.863281" width="1.098633" height="1.098633"/>
<image xlink:href="tile39_38.png" preserveAspectRatio="none" x="13441.772461" y="-3492.553711" width="1.098633" height="1.098633"/>
<image xlink:href="tile39_37.png" preserveAspectRatio="none" x="13441.772461" y="-3493.652344" width="1.098633" height="1.098633"/>
<image xlink:href="tile39_36.png" preserveAspectRatio="none" x="13441.772461" y="-3494.750977" width="1.098633" height="1.098633"/>
<image xlink:href="tile39_35.png" preserveAspectRatio="none" x="13441.772461" y="-3495.849609" width="1.098633" height="1.098633"/>
<image xlink:href="tile39_33.png" preserveAspectRatio="none" x="13441.772461" y="-3498.046875" width="1.098633" height="1.098633"/>
<image xlink:href="tile39_32.png" preserveAspectRatio="none" x="13441.772461" y="-3499.145508" width="1.098633" height="1.098633"/>
<image xlink:href="tile40_45.png" preserveAspectRatio="none" x="13442.871094" y="-3484.863281" width="1.098633" height="1.098633"/>
<image xlink:href="tile40_44.png" preserveAspectRatio="none" x="13442.871094" y="-3485.961914" width="1.098633" height="1.098633"/>
<image xlink:href="tile40_43.png" preserveAspectRatio="none" x="13442.871094" y="-3487.060547" width="1.098633" height="1.098633"/>
<image xlink:href="tile40_42.png" preserveAspectRatio="none" x="13442.871094" y="-3488.15918" width="1.098633" height="1.098633"/>
<image xlink:href="tile40_38.png" preserveAspectRatio="none" x="13442.871094" y="-3492.553711" width="1.098633" height="1.098633"/>
<image xlink:href="tile40_33.png" preserveAspectRatio="none" x="13442.871094" y="-3498.046875" width="1.098633" height="1.098633"/>
<image xlink:href="tile40_32.png" preserveAspectRatio="none" x="13442.871094" y="-3499.145508" width="1.098633" height="1.098633"/>
<image xlink:href="tile40_31.png" preserveAspectRatio="none" x="13442.871094" y="-3500.244141" width="1.098633" height="1.098633"/>
<image xlink:href="tile40_30.png" preserveAspectRatio="none" x="13442.871094" y="-3501.342773" width="1.098633" height="1.098633"/>
<image xlink:href="tile41_45.png" preserveAspectRatio="none" x="13443.969727" y="-3484.863281" width="1.098633" height="1.098633"/>
<image xlink:href="tile41_44.png" preserveAspectRatio="none" x="13443.969727" y="-3485.961914" width="1.098633" height="1.098633"/>
<image xlink:href="tile41_43.png" preserveAspectRatio="none" x="13443.969727" y="-3487.060547" width="1.098633" height="1.098633"/>
<image xlink:href="tile41_42.png" preserveAspectRatio="none" x="13443.969727" y="-3488.15918" width="1.098633" height="1.098633"/>
<image xlink:href="tile41_36.png" preserveAspectRatio="none" x="13443.969727" y="-3494.750977" width="1.098633" height="1.098633"/>
<image xlink:href="tile41_35.png" preserveAspectRatio="none" x="13443.969727" y="-3495.849609" width="1.098633" height="1.098633"/>
<image xlink:href="tile41_34.png" preserveAspectRatio="none" x="13443.969727" y="-3496.948242" width="1.098633" height="1.098633"/>
<image xlink:href="tile41_33.png" preserveAspectRatio="none" x="13443.969727" y="-3498.046875" width="1.098633" height="1.098633"/>
<image xlink:href="tile41_32.png" preserveAspectRatio="none" x="13443.969727" y="-3499.145508" width="1.098633" height="1.098633"/>
<image xlink:href="tile41_31.png" preserveAspectRatio="none" x="13443.969727" y="-3500.244141" width="1.098633" height="1.098633"/>
<image xlink:href="tile42_45.png" preserveAspectRatio="none" x="13445.068359" y="-3484.863281" width="1.098633" height="1.098633"/>
<image xlink:href="tile42_42.png" preserveAspectRatio="none" x="13445.068359" y="-3488.15918" width="1.098633" height="1.098633"/>
<image xlink:href="tile42_41.png" preserveAspectRatio="none" x="13445.068359" y="-3489.257812" width="1.098633" height="1.098633"/>
<image xlink:href="tile42_40.png" preserveAspectRatio="none" x="13445.068359" y="-3490.356445" width="1.098633" height="1.098633"/>
<image xlink:href="tile42_38.png" preserveAspectRatio="none" x="13445.068359" y="-3492.553711" width="1.098633" height="1.098633"/>
<image xlink:href="tile42_37.png" preserveAspectRatio="none" x="13445.068359" y="-3493.652344" width="1.098633" height="1.098633"/>
<image xlink:href="tile42_36.png" preserveAspectRatio="none" x="13445.068359" y="-3494.750977" width="1.098633" height="1.098633"/>
<image xlink:href="tile42_35.png" preserveAspectRatio="none" x="13445.068359" y="-3495.849609" width="1.098633" height="1.098633"/>
<image xlink:href="tile42_34.png" preserveAspectRatio="none" x="13445.068359" y="-3496.948242" width="1.098633" height="1.098633"/>
<image xlink:href="tile42_31.png" preserveAspectRatio="none" x="13445.068359" y="-3500.244141" width="1.098633" height="1.098633"/>
<image xlink:href="tile42_30.png" preserveAspectRatio="none" x="13445.068359" y="-3501.342773" width="1.098633" height="1.098633"/>
<image xlink:href="tile43_44.png" preserveAspectRatio="none" x="13446.166992" y="-3485.961914" width="1.098633" height="1.098633"/>
<image xlink:href="tile43_41.png" preserveAspectRatio="none" x="13446.166992" y="-3489.257812" width="1.098633" height="1.098633"/>
<image xlink:href="tile43_36.png" preserveAspectRatio="none" x="13446.166992" y="-3494.750977" width="1.098633" height="1.098633"/>
<image xlink:href="tile43_35.png" preserveAspectRatio="none" x="13446.166992" y="-3495.849609" width="1.098633" height="1.098633"/>
<image xlink:href="tile43_34.png" preserveAspectRatio="none" x="13446.166992" y="-3496.948242" width="1.098633" height="1.098633"/>
<image xlink:href="tile43_33.png" preserveAspectRatio="none" x="13446.166992" y="-3498.046875" width="1.098633" height="1.098633"/>
<image xlink:href="tile43_31.png" preserveAspectRatio="none" x="13446.166992" y="-3500.244141" width="1.098633" height="1.098633"/>
<image xlink:href="tile44_44.png" preserveAspectRatio="none" x="13447.265625" y="-3485.961914" width="1.098633" height="1.098633"/>
<image xlink:href="tile44_37.png" preserveAspectRatio="none" x="13447.265625" y="-3493.652344" width="1.098633" height="1.098633"/>
<image xlink:href="tile44_36.png" preserveAspectRatio="none" x="13447.265625" y="-3494.750977" width="1.098633" height="1.098633"/>
<image xlink:href="tile44_35.png" preserveAspectRatio="none" x="13447.265625" y="-3495.849609" width="1.098633" height="1.098633"/>
<image xlink:href="tile44_34.png" preserveAspectRatio="none" x="13447.265625" y="-3496.948242" width="1.098633" height="1.098633"/>
<image xlink:href="tile44_33.png" preserveAspectRatio="none" x="13447.265625" y="-3498.046875" width="1.098633" height="1.098633"/>
<image xlink:href="tile44_31.png" preserveAspectRatio="none" x="13447.265625" y="-3500.244141" width="1.098633" height="1.098633"/>
<image xlink:href="tile44_30.png" preserveAspectRatio="none" x="13447.265625" y="-3501.342773" width="1.098633" height="1.098633"/>
<image xlink:href="tile45_45.png" preserveAspectRatio="none" x="13448.364258" y="-3484.863281" width="1.098633" height="1.098633"/>
<image xlink:href="tile45_44.png" preserveAspectRatio="none" x="13448.364258" y="-3485.961914" width="1.098633" height="1.098633"/>
<image xlink:href="tile45_36.png" preserveAspectRatio="none" x="13448.364258" y="-3494.750977" width="1.098633" height="1.098633"/>
<image xlink:href="tile45_33.png" preserveAspectRatio="none" x="13448.364258" y="-3498.046875" width="1.098633" height="1.098633"/>
<image xlink:href="tile45_32.png" preserveAspectRatio="none" x="13448.364258" y="-3499.145508" width="1.098633" height="1.098633"/>
<image xlink:href="tile46_45.png" preserveAspectRatio="none" x="13449.462891" y="-3484.863281" width="1.098633" height="1.098633"/>
<image xlink:href="tile46_44.png" preserveAspectRatio="none" x="13449.462891" y="-3485.961914" width="1.098633" height="1.098633"/>
<image xlink:href="tile46_43.png" preserveAspectRatio="none" x="13449.462891" y="-3487.060547" width="1.098633" height="1.098633"/>
<image xlink:href="tile46_42.png" preserveAspectRatio="none" x="13449.462891" y="-3488.15918" width="1.098633" height="1.098633"/>
<image xlink:href="tile46_38.png" preserveAspectRatio="none" x="13449.462891" y="-3492.553711" width="1.098633" height="1.098633"/>
<image xlink:href="tile46_36.png" preserveAspectRatio="none" x="13449.462891" y="-3494.750977" width="1.098633" height="1.098633"/>
<image xlink:href="tile47_45.png" preserveAspectRatio="none" x="13450.561523" y="-3484.863281" width="1.098633" height="1.098633"/>
<image xlink:href="tile47_44.png" preserveAspectRatio="none" x="13450.561523" y="-3485.961914" width="1.098633" height="1.098633"/>
<image xlink:href="tile47_43.png" preserveAspectRatio="none" x="13450.561523" y="-3487.060547" width="1.098633" height="1.098633"/>
<image xlink:href="tile47_42.png" preserveAspectRatio="none" x="13450.561523" y="-3488.15918" width="1.098633" height="1.098633"/>
<image xlink:href="tile47_39.png" preserveAspectRatio="none" x="13450.561523" y="-3491.455078" width="1.098633" height="1.098633"/>
<image xlink:href="tile47_38.png" preserveAspectRatio="none" x="13450.561523" y="-3492.553711" width="1.098633" height="1.098633"/>
<image xlink:href="tile47_37.png" preserveAspectRatio="none" x="13450.561523" y="-3493.652344" width="1.098633" height="1.098633"/>
<image xlink:href="tile47_36.png" preserveAspectRatio="none" x="13450.561523" y="-3494.750977" width="1.098633" height="1.098633"/>
<image xlink:href="tile47_30.png" preserveAspectRatio="none" x="13450.561523" y="-3501.342773" width="1.098633" height="1.098633"/>
</g>
</svg>
