<?xml version="1.0" encoding="UTF-8"?>
<svg  xmlns="http://www.w3.org/2000/svg" xmlns:xlink="http://www.w3.org/1999/xlink" xmlns:go="http://purl.org/svgmap/profile" viewBox="14000.0 -4266.666666900001 100.0 41.97916689999985" go:dataArea="14000.0 -4266.666666900001 100.0 41.97916689999985" >
<metadata>
 <rdf:RDF xmlns:rdf="http://www.w3.org/1999/02/22-rdf-syntax-ns#" xmlns:crs="http://opengis.org/xmldtds/transformations.dtd" xmlns:svg="http://www.w3.org/svg" >
  <rdf:Description>
   <crs:CoordinateReferenceSystem rdf:resource="http://purl.org/crs/84" svg:transform="matrix(100.0,0.0,0.0,-100.0,0.0,0.0)" />
  </rdf:Description>
 </rdf:RDF>
</metadata>
<globalCoordinateSystem srsName="http://purl.org/crs/84" transform="matrix(100.0,0.0,0.0,-100.0,0.0,0.0)" />
<g >
<image xlink:href="tile0_3.png" preserveAspectRatio="none" x="13992.1875" y="-4245.117188" width="8.789062" height="8.789062"/>
<image xlink:href="tile1_3.png" preserveAspectRatio="none" x="14000.976562" y="-4245.117188" width="8.789062" height="8.789062"/>
<image xlink:href="tile2_3.png" preserveAspectRatio="none" x="14009.765625" y="-4245.117188" width="8.789062" height="8.789062"/>
<image xlink:href="tile2_2.png" preserveAspectRatio="none" x="14009.765625" y="-4253.90625" width="8.789062" height="8.789062"/>
<image xlink:href="tile3_5.png" preserveAspectRatio="none" x="14018.554688" y="-4227.539062" width="8.789062" height="8.789062"/>
<image xlink:href="tile3_4.png" preserveAspectRatio="none" x="14018.554688" y="-4236.328125" width="8.789062" height="8.789062"/>
<image xlink:href="tile3_2.png" preserveAspectRatio="none" x="14018.554688" y="-4253.90625" width="8.789062" height="8.789062"/>
<image xlink:href="tile4_5.png" preserveAspectRatio="none" x="14027.34375" y="-4227.539062" width="8.789062" height="8.789062"/>
<image xlink:href="tile4_4.png" preserveAspectRatio="none" x="14027.34375" y="-4236.328125" width="8.789062" height="8.789062"/>
<image xlink:href="tile4_2.png" preserveAspectRatio="none" x="14027.34375" y="-4253.90625" width="8.789062" height="8.789062"/>
<image xlink:href="tile4_1.png" preserveAspectRatio="none" x="14027.34375" y="-4262.695312" width="8.789062" height="8.789062"/>
<image xlink:href="tile4_0.png" preserveAspectRatio="none" x="14027.34375" y="-4271.484375" width="8.789062" height="8.789062"/>
<image xlink:href="tile5_2.png" preserveAspectRatio="none" x="14036.132812" y="-4253.90625" width="8.789062" height="8.789062"/>
<image xlink:href="tile5_1.png" preserveAspectRatio="none" x="14036.132812" y="-4262.695312" width="8.789062" height="8.789062"/>
<image xlink:href="tile10_2.png" preserveAspectRatio="none" x="14080.078125" y="-4253.90625" width="8.789062" height="8.789062"/>
<image xlink:href="tile10_1.png" preserveAspectRatio="none" x="14080.078125" y="-4262.695312" width="8.789062" height="8.789062"/>
<image xlink:href="tile11_1.png" preserveAspectRatio="none" x="14088.867188" y="-4262.695312" width="8.789062" height="8.789062"/>
<image xlink:href="tile12_4.png" preserveAspectRatio="none" x="14097.65625" y="-4236.328125" width="8.789062" height="8.789062"/>
<image xlink:href="tile12_1.png" preserveAspectRatio="none" x="14097.65625" y="-4262.695312" width="8.789062" height="8.789062"/>
</g>
</svg>
