<?xml version="1.0" encoding="UTF-8"?>
<svg  xmlns="http://www.w3.org/2000/svg" xmlns:xlink="http://www.w3.org/1999/xlink" xmlns:go="http://purl.org/svgmap/profile" viewBox="14200.0 -4513.2291667 62.93750000000102 46.562499699999904" go:dataArea="14200.0 -4513.2291667 62.93750000000102 46.562499699999904" >
<metadata>
 <rdf:RDF xmlns:rdf="http://www.w3.org/1999/02/22-rdf-syntax-ns#" xmlns:crs="http://opengis.org/xmldtds/transformations.dtd" xmlns:svg="http://www.w3.org/svg" >
  <rdf:Description>
   <crs:CoordinateReferenceSystem rdf:resource="http://purl.org/crs/84" svg:transform="matrix(100.0,0.0,0.0,-100.0,0.0,0.0)" />
  </rdf:Description>
 </rdf:RDF>
</metadata>
<globalCoordinateSystem srsName="http://purl.org/crs/84" transform="matrix(100.0,0.0,0.0,-100.0,0.0,0.0)" />
<g >
<image xlink:href="tile0_12.png" preserveAspectRatio="none" x="14198.730469" y="-4489.013672" width="2.197266" height="2.197266"/>
<image xlink:href="tile0_11.png" preserveAspectRatio="none" x="14198.730469" y="-4491.210938" width="2.197266" height="2.197266"/>
<image xlink:href="tile0_10.png" preserveAspectRatio="none" x="14198.730469" y="-4493.408203" width="2.197266" height="2.197266"/>
<image xlink:href="tile1_19.png" preserveAspectRatio="none" x="14200.927734" y="-4473.632812" width="2.197266" height="2.197266"/>
<image xlink:href="tile1_18.png" preserveAspectRatio="none" x="14200.927734" y="-4475.830078" width="2.197266" height="2.197266"/>
<image xlink:href="tile1_12.png" preserveAspectRatio="none" x="14200.927734" y="-4489.013672" width="2.197266" height="2.197266"/>
<image xlink:href="tile1_11.png" preserveAspectRatio="none" x="14200.927734" y="-4491.210938" width="2.197266" height="2.197266"/>
<image xlink:href="tile1_10.png" preserveAspectRatio="none" x="14200.927734" y="-4493.408203" width="2.197266" height="2.197266"/>
<image xlink:href="tile1_9.png" preserveAspectRatio="none" x="14200.927734" y="-4495.605469" width="2.197266" height="2.197266"/>
<image xlink:href="tile2_19.png" preserveAspectRatio="none" x="14203.125" y="-4473.632812" width="2.197266" height="2.197266"/>
<image xlink:href="tile2_18.png" preserveAspectRatio="none" x="14203.125" y="-4475.830078" width="2.197266" height="2.197266"/>
<image xlink:href="tile2_17.png" preserveAspectRatio="none" x="14203.125" y="-4478.027344" width="2.197266" height="2.197266"/>
<image xlink:href="tile2_16.png" preserveAspectRatio="none" x="14203.125" y="-4480.224609" width="2.197266" height="2.197266"/>
<image xlink:href="tile2_15.png" preserveAspectRatio="none" x="14203.125" y="-4482.421875" width="2.197266" height="2.197266"/>
<image xlink:href="tile2_14.png" preserveAspectRatio="none" x="14203.125" y="-4484.619141" width="2.197266" height="2.197266"/>
<image xlink:href="tile2_13.png" preserveAspectRatio="none" x="14203.125" y="-4486.816406" width="2.197266" height="2.197266"/>
<image xlink:href="tile2_12.png" preserveAspectRatio="none" x="14203.125" y="-4489.013672" width="2.197266" height="2.197266"/>
<image xlink:href="tile2_11.png" preserveAspectRatio="none" x="14203.125" y="-4491.210938" width="2.197266" height="2.197266"/>
<image xlink:href="tile2_10.png" preserveAspectRatio="none" x="14203.125" y="-4493.408203" width="2.197266" height="2.197266"/>
<image xlink:href="tile2_9.png" preserveAspectRatio="none" x="14203.125" y="-4495.605469" width="2.197266" height="2.197266"/>
<image xlink:href="tile2_8.png" preserveAspectRatio="none" x="14203.125" y="-4497.802734" width="2.197266" height="2.197266"/>
<image xlink:href="tile3_19.png" preserveAspectRatio="none" x="14205.322266" y="-4473.632812" width="2.197266" height="2.197266"/>
<image xlink:href="tile3_18.png" preserveAspectRatio="none" x="14205.322266" y="-4475.830078" width="2.197266" height="2.197266"/>
<image xlink:href="tile3_17.png" preserveAspectRatio="none" x="14205.322266" y="-4478.027344" width="2.197266" height="2.197266"/>
<image xlink:href="tile3_16.png" preserveAspectRatio="none" x="14205.322266" y="-4480.224609" width="2.197266" height="2.197266"/>
<image xlink:href="tile3_15.png" preserveAspectRatio="none" x="14205.322266" y="-4482.421875" width="2.197266" height="2.197266"/>
<image xlink:href="tile3_14.png" preserveAspectRatio="none" x="14205.322266" y="-4484.619141" width="2.197266" height="2.197266"/>
<image xlink:href="tile3_13.png" preserveAspectRatio="none" x="14205.322266" y="-4486.816406" width="2.197266" height="2.197266"/>
<image xlink:href="tile3_12.png" preserveAspectRatio="none" x="14205.322266" y="-4489.013672" width="2.197266" height="2.197266"/>
<image xlink:href="tile3_9.png" preserveAspectRatio="none" x="14205.322266" y="-4495.605469" width="2.197266" height="2.197266"/>
<image xlink:href="tile3_8.png" preserveAspectRatio="none" x="14205.322266" y="-4497.802734" width="2.197266" height="2.197266"/>
<image xlink:href="tile3_7.png" preserveAspectRatio="none" x="14205.322266" y="-4500" width="2.197266" height="2.197266"/>
<image xlink:href="tile4_19.png" preserveAspectRatio="none" x="14207.519531" y="-4473.632812" width="2.197266" height="2.197266"/>
<image xlink:href="tile4_17.png" preserveAspectRatio="none" x="14207.519531" y="-4478.027344" width="2.197266" height="2.197266"/>
<image xlink:href="tile4_16.png" preserveAspectRatio="none" x="14207.519531" y="-4480.224609" width="2.197266" height="2.197266"/>
<image xlink:href="tile4_15.png" preserveAspectRatio="none" x="14207.519531" y="-4482.421875" width="2.197266" height="2.197266"/>
<image xlink:href="tile4_14.png" preserveAspectRatio="none" x="14207.519531" y="-4484.619141" width="2.197266" height="2.197266"/>
<image xlink:href="tile4_13.png" preserveAspectRatio="none" x="14207.519531" y="-4486.816406" width="2.197266" height="2.197266"/>
<image xlink:href="tile4_8.png" preserveAspectRatio="none" x="14207.519531" y="-4497.802734" width="2.197266" height="2.197266"/>
<image xlink:href="tile4_7.png" preserveAspectRatio="none" x="14207.519531" y="-4500" width="2.197266" height="2.197266"/>
<image xlink:href="tile5_19.png" preserveAspectRatio="none" x="14209.716797" y="-4473.632812" width="2.197266" height="2.197266"/>
<image xlink:href="tile5_18.png" preserveAspectRatio="none" x="14209.716797" y="-4475.830078" width="2.197266" height="2.197266"/>
<image xlink:href="tile6_19.png" preserveAspectRatio="none" x="14211.914062" y="-4473.632812" width="2.197266" height="2.197266"/>
<image xlink:href="tile6_18.png" preserveAspectRatio="none" x="14211.914062" y="-4475.830078" width="2.197266" height="2.197266"/>
<image xlink:href="tile7_19.png" preserveAspectRatio="none" x="14214.111328" y="-4473.632812" width="2.197266" height="2.197266"/>
<image xlink:href="tile7_18.png" preserveAspectRatio="none" x="14214.111328" y="-4475.830078" width="2.197266" height="2.197266"/>
<image xlink:href="tile8_19.png" preserveAspectRatio="none" x="14216.308594" y="-4473.632812" width="2.197266" height="2.197266"/>
<image xlink:href="tile8_18.png" preserveAspectRatio="none" x="14216.308594" y="-4475.830078" width="2.197266" height="2.197266"/>
<image xlink:href="tile9_19.png" preserveAspectRatio="none" x="14218.505859" y="-4473.632812" width="2.197266" height="2.197266"/>
<image xlink:href="tile9_18.png" preserveAspectRatio="none" x="14218.505859" y="-4475.830078" width="2.197266" height="2.197266"/>
<image xlink:href="tile10_19.png" preserveAspectRatio="none" x="14220.703125" y="-4473.632812" width="2.197266" height="2.197266"/>
<image xlink:href="tile10_10.png" preserveAspectRatio="none" x="14220.703125" y="-4493.408203" width="2.197266" height="2.197266"/>
<image xlink:href="tile10_9.png" preserveAspectRatio="none" x="14220.703125" y="-4495.605469" width="2.197266" height="2.197266"/>
<image xlink:href="tile11_19.png" preserveAspectRatio="none" x="14222.900391" y="-4473.632812" width="2.197266" height="2.197266"/>
<image xlink:href="tile11_18.png" preserveAspectRatio="none" x="14222.900391" y="-4475.830078" width="2.197266" height="2.197266"/>
<image xlink:href="tile11_9.png" preserveAspectRatio="none" x="14222.900391" y="-4495.605469" width="2.197266" height="2.197266"/>
<image xlink:href="tile11_8.png" preserveAspectRatio="none" x="14222.900391" y="-4497.802734" width="2.197266" height="2.197266"/>
<image xlink:href="tile12_22.png" preserveAspectRatio="none" x="14225.097656" y="-4467.041016" width="2.197266" height="2.197266"/>
<image xlink:href="tile12_21.png" preserveAspectRatio="none" x="14225.097656" y="-4469.238281" width="2.197266" height="2.197266"/>
<image xlink:href="tile12_20.png" preserveAspectRatio="none" x="14225.097656" y="-4471.435547" width="2.197266" height="2.197266"/>
<image xlink:href="tile12_19.png" preserveAspectRatio="none" x="14225.097656" y="-4473.632812" width="2.197266" height="2.197266"/>
<image xlink:href="tile12_18.png" preserveAspectRatio="none" x="14225.097656" y="-4475.830078" width="2.197266" height="2.197266"/>
<image xlink:href="tile12_8.png" preserveAspectRatio="none" x="14225.097656" y="-4497.802734" width="2.197266" height="2.197266"/>
<image xlink:href="tile13_20.png" preserveAspectRatio="none" x="14227.294922" y="-4471.435547" width="2.197266" height="2.197266"/>
<image xlink:href="tile13_8.png" preserveAspectRatio="none" x="14227.294922" y="-4497.802734" width="2.197266" height="2.197266"/>
<image xlink:href="tile13_7.png" preserveAspectRatio="none" x="14227.294922" y="-4500" width="2.197266" height="2.197266"/>
<image xlink:href="tile14_8.png" preserveAspectRatio="none" x="14229.492188" y="-4497.802734" width="2.197266" height="2.197266"/>
<image xlink:href="tile14_7.png" preserveAspectRatio="none" x="14229.492188" y="-4500" width="2.197266" height="2.197266"/>
</g>
</svg>
