<?xml version="1.0" encoding="UTF-8"?>
<svg  xmlns="http://www.w3.org/2000/svg" xmlns:xlink="http://www.w3.org/1999/xlink" xmlns:go="http://purl.org/svgmap/profile" viewBox="13700.0 -3598.4374578 100.0 65.1041247000002" go:dataArea="13700.0 -3598.4374578 100.0 65.1041247000002" >
<metadata>
 <rdf:RDF xmlns:rdf="http://www.w3.org/1999/02/22-rdf-syntax-ns#" xmlns:crs="http://opengis.org/xmldtds/transformations.dtd" xmlns:svg="http://www.w3.org/svg" >
  <rdf:Description>
   <crs:CoordinateReferenceSystem rdf:resource="http://purl.org/crs/84" svg:transform="matrix(100.0,0.0,0.0,-100.0,0.0,0.0)" />
  </rdf:Description>
 </rdf:RDF>
</metadata>
<globalCoordinateSystem srsName="http://purl.org/crs/84" transform="matrix(100.0,0.0,0.0,-100.0,0.0,0.0)" />
<g >
<image xlink:href="tile32_12.png" preserveAspectRatio="none" x="13770.263672" y="-3572.753906" width="2.197266" height="2.197266"/>
<image xlink:href="tile32_11.png" preserveAspectRatio="none" x="13770.263672" y="-3574.951172" width="2.197266" height="2.197266"/>
<image xlink:href="tile32_10.png" preserveAspectRatio="none" x="13770.263672" y="-3577.148438" width="2.197266" height="2.197266"/>
<image xlink:href="tile32_6.png" preserveAspectRatio="none" x="13770.263672" y="-3585.9375" width="2.197266" height="2.197266"/>
<image xlink:href="tile32_5.png" preserveAspectRatio="none" x="13770.263672" y="-3588.134766" width="2.197266" height="2.197266"/>
<image xlink:href="tile33_5.png" preserveAspectRatio="none" x="13772.460938" y="-3588.134766" width="2.197266" height="2.197266"/>
<image xlink:href="tile34_5.png" preserveAspectRatio="none" x="13774.658203" y="-3588.134766" width="2.197266" height="2.197266"/>
<image xlink:href="tile34_4.png" preserveAspectRatio="none" x="13774.658203" y="-3590.332031" width="2.197266" height="2.197266"/>
<image xlink:href="tile35_4.png" preserveAspectRatio="none" x="13776.855469" y="-3590.332031" width="2.197266" height="2.197266"/>
<image xlink:href="tile35_3.png" preserveAspectRatio="none" x="13776.855469" y="-3592.529297" width="2.197266" height="2.197266"/>
<image xlink:href="tile42_8.png" preserveAspectRatio="none" x="13792.236328" y="-3581.542969" width="2.197266" height="2.197266"/>
<image xlink:href="tile42_7.png" preserveAspectRatio="none" x="13792.236328" y="-3583.740234" width="2.197266" height="2.197266"/>
<image xlink:href="tile43_13.png" preserveAspectRatio="none" x="13794.433594" y="-3570.556641" width="2.197266" height="2.197266"/>
<image xlink:href="tile43_12.png" preserveAspectRatio="none" x="13794.433594" y="-3572.753906" width="2.197266" height="2.197266"/>
<image xlink:href="tile43_11.png" preserveAspectRatio="none" x="13794.433594" y="-3574.951172" width="2.197266" height="2.197266"/>
<image xlink:href="tile43_10.png" preserveAspectRatio="none" x="13794.433594" y="-3577.148438" width="2.197266" height="2.197266"/>
<image xlink:href="tile43_9.png" preserveAspectRatio="none" x="13794.433594" y="-3579.345703" width="2.197266" height="2.197266"/>
<image xlink:href="tile43_8.png" preserveAspectRatio="none" x="13794.433594" y="-3581.542969" width="2.197266" height="2.197266"/>
<image xlink:href="tile43_7.png" preserveAspectRatio="none" x="13794.433594" y="-3583.740234" width="2.197266" height="2.197266"/>
<image xlink:href="tile43_6.png" preserveAspectRatio="none" x="13794.433594" y="-3585.9375" width="2.197266" height="2.197266"/>
<image xlink:href="tile44_12.png" preserveAspectRatio="none" x="13796.630859" y="-3572.753906" width="2.197266" height="2.197266"/>
<image xlink:href="tile44_11.png" preserveAspectRatio="none" x="13796.630859" y="-3574.951172" width="2.197266" height="2.197266"/>
<image xlink:href="tile44_7.png" preserveAspectRatio="none" x="13796.630859" y="-3583.740234" width="2.197266" height="2.197266"/>
<image xlink:href="tile44_6.png" preserveAspectRatio="none" x="13796.630859" y="-3585.9375" width="2.197266" height="2.197266"/>
<image xlink:href="tile44_5.png" preserveAspectRatio="none" x="13796.630859" y="-3588.134766" width="2.197266" height="2.197266"/>
<image xlink:href="tile44_4.png" preserveAspectRatio="none" x="13796.630859" y="-3590.332031" width="2.197266" height="2.197266"/>
<image xlink:href="tile44_3.png" preserveAspectRatio="none" x="13796.630859" y="-3592.529297" width="2.197266" height="2.197266"/>
<image xlink:href="tile44_2.png" preserveAspectRatio="none" x="13796.630859" y="-3594.726562" width="2.197266" height="2.197266"/>
<image xlink:href="tile44_1.png" preserveAspectRatio="none" x="13796.630859" y="-3596.923828" width="2.197266" height="2.197266"/>
<image xlink:href="tile45_5.png" preserveAspectRatio="none" x="13798.828125" y="-3588.134766" width="2.197266" height="2.197266"/>
<image xlink:href="tile45_4.png" preserveAspectRatio="none" x="13798.828125" y="-3590.332031" width="2.197266" height="2.197266"/>
<image xlink:href="tile45_3.png" preserveAspectRatio="none" x="13798.828125" y="-3592.529297" width="2.197266" height="2.197266"/>
<image xlink:href="tile45_2.png" preserveAspectRatio="none" x="13798.828125" y="-3594.726562" width="2.197266" height="2.197266"/>
<image xlink:href="tile45_1.png" preserveAspectRatio="none" x="13798.828125" y="-3596.923828" width="2.197266" height="2.197266"/>
<image xlink:href="tile45_0.png" preserveAspectRatio="none" x="13798.828125" y="-3599.121094" width="2.197266" height="2.197266"/>
</g>
</svg>
