<?xml version="1.0" encoding="UTF-8"?>
<svg  xmlns="http://www.w3.org/2000/svg" xmlns:xlink="http://www.w3.org/1999/xlink" xmlns:go="http://purl.org/svgmap/profile" viewBox="14001.388924099998 -4000.0 98.51855650000232 66.66666699999979" go:dataArea="14001.388924099998 -4000.0 98.51855650000232 66.66666699999979" >
<metadata>
 <rdf:RDF xmlns:rdf="http://www.w3.org/1999/02/22-rdf-syntax-ns#" xmlns:crs="http://opengis.org/xmldtds/transformations.dtd" xmlns:svg="http://www.w3.org/svg" >
  <rdf:Description>
   <crs:CoordinateReferenceSystem rdf:resource="http://purl.org/crs/84" svg:transform="matrix(100.0,0.0,0.0,-100.0,0.0,0.0)" />
  </rdf:Description>
 </rdf:RDF>
</metadata>
<globalCoordinateSystem srsName="http://purl.org/crs/84" transform="matrix(100.0,0.0,0.0,-100.0,0.0,0.0)" />
<g >
<image xlink:href="tile16_14.png" preserveAspectRatio="none" x="14071.289062" y="-3941.894531" width="4.394531" height="4.394531"/>
<image xlink:href="tile16_13.png" preserveAspectRatio="none" x="14071.289062" y="-3946.289062" width="4.394531" height="4.394531"/>
<image xlink:href="tile16_8.png" preserveAspectRatio="none" x="14071.289062" y="-3968.261719" width="4.394531" height="4.394531"/>
<image xlink:href="tile16_7.png" preserveAspectRatio="none" x="14071.289062" y="-3972.65625" width="4.394531" height="4.394531"/>
<image xlink:href="tile16_6.png" preserveAspectRatio="none" x="14071.289062" y="-3977.050781" width="4.394531" height="4.394531"/>
<image xlink:href="tile17_15.png" preserveAspectRatio="none" x="14075.683594" y="-3937.5" width="4.394531" height="4.394531"/>
<image xlink:href="tile17_14.png" preserveAspectRatio="none" x="14075.683594" y="-3941.894531" width="4.394531" height="4.394531"/>
<image xlink:href="tile17_13.png" preserveAspectRatio="none" x="14075.683594" y="-3946.289062" width="4.394531" height="4.394531"/>
<image xlink:href="tile17_12.png" preserveAspectRatio="none" x="14075.683594" y="-3950.683594" width="4.394531" height="4.394531"/>
<image xlink:href="tile18_12.png" preserveAspectRatio="none" x="14080.078125" y="-3950.683594" width="4.394531" height="4.394531"/>
<image xlink:href="tile18_11.png" preserveAspectRatio="none" x="14080.078125" y="-3955.078125" width="4.394531" height="4.394531"/>
<image xlink:href="tile18_10.png" preserveAspectRatio="none" x="14080.078125" y="-3959.472656" width="4.394531" height="4.394531"/>
<image xlink:href="tile19_10.png" preserveAspectRatio="none" x="14084.472656" y="-3959.472656" width="4.394531" height="4.394531"/>
<image xlink:href="tile19_7.png" preserveAspectRatio="none" x="14084.472656" y="-3972.65625" width="4.394531" height="4.394531"/>
<image xlink:href="tile20_8.png" preserveAspectRatio="none" x="14088.867188" y="-3968.261719" width="4.394531" height="4.394531"/>
<image xlink:href="tile20_7.png" preserveAspectRatio="none" x="14088.867188" y="-3972.65625" width="4.394531" height="4.394531"/>
<image xlink:href="tile21_8.png" preserveAspectRatio="none" x="14093.261719" y="-3968.261719" width="4.394531" height="4.394531"/>
<image xlink:href="tile21_7.png" preserveAspectRatio="none" x="14093.261719" y="-3972.65625" width="4.394531" height="4.394531"/>
<image xlink:href="tile21_3.png" preserveAspectRatio="none" x="14093.261719" y="-3990.234375" width="4.394531" height="4.394531"/>
<image xlink:href="tile21_2.png" preserveAspectRatio="none" x="14093.261719" y="-3994.628906" width="4.394531" height="4.394531"/>
<image xlink:href="tile22_7.png" preserveAspectRatio="none" x="14097.65625" y="-3972.65625" width="4.394531" height="4.394531"/>
<image xlink:href="tile22_2.png" preserveAspectRatio="none" x="14097.65625" y="-3994.628906" width="4.394531" height="4.394531"/>
</g>
</svg>
