<?xml version="1.0" encoding="UTF-8"?>
<svg  xmlns="http://www.w3.org/2000/svg" xmlns:xlink="http://www.w3.org/1999/xlink" xmlns:go="http://purl.org/svgmap/profile" viewBox="14100.0 -4066.666667 90.11998990000052 66.66666699999979" go:dataArea="14100.0 -4066.666667 90.11998990000052 66.66666699999979" >
<metadata>
 <rdf:RDF xmlns:rdf="http://www.w3.org/1999/02/22-rdf-syntax-ns#" xmlns:crs="http://opengis.org/xmldtds/transformations.dtd" xmlns:svg="http://www.w3.org/svg" >
  <rdf:Description>
   <crs:CoordinateReferenceSystem rdf:resource="http://purl.org/crs/84" svg:transform="matrix(100.0,0.0,0.0,-100.0,0.0,0.0)" />
  </rdf:Description>
 </rdf:RDF>
</metadata>
<globalCoordinateSystem srsName="http://purl.org/crs/84" transform="matrix(100.0,0.0,0.0,-100.0,0.0,0.0)" />
<g >
<image xlink:href="tile32_28.png" preserveAspectRatio="none" x="14170.166016" y="-4005.615234" width="2.197266" height="2.197266"/>
<image xlink:href="tile32_27.png" preserveAspectRatio="none" x="14170.166016" y="-4007.8125" width="2.197266" height="2.197266"/>
<image xlink:href="tile32_26.png" preserveAspectRatio="none" x="14170.166016" y="-4010.009766" width="2.197266" height="2.197266"/>
<image xlink:href="tile32_25.png" preserveAspectRatio="none" x="14170.166016" y="-4012.207031" width="2.197266" height="2.197266"/>
<image xlink:href="tile32_24.png" preserveAspectRatio="none" x="14170.166016" y="-4014.404297" width="2.197266" height="2.197266"/>
<image xlink:href="tile32_23.png" preserveAspectRatio="none" x="14170.166016" y="-4016.601562" width="2.197266" height="2.197266"/>
<image xlink:href="tile32_22.png" preserveAspectRatio="none" x="14170.166016" y="-4018.798828" width="2.197266" height="2.197266"/>
<image xlink:href="tile32_21.png" preserveAspectRatio="none" x="14170.166016" y="-4020.996094" width="2.197266" height="2.197266"/>
<image xlink:href="tile32_20.png" preserveAspectRatio="none" x="14170.166016" y="-4023.193359" width="2.197266" height="2.197266"/>
<image xlink:href="tile33_28.png" preserveAspectRatio="none" x="14172.363281" y="-4005.615234" width="2.197266" height="2.197266"/>
<image xlink:href="tile33_27.png" preserveAspectRatio="none" x="14172.363281" y="-4007.8125" width="2.197266" height="2.197266"/>
<image xlink:href="tile33_23.png" preserveAspectRatio="none" x="14172.363281" y="-4016.601562" width="2.197266" height="2.197266"/>
<image xlink:href="tile33_22.png" preserveAspectRatio="none" x="14172.363281" y="-4018.798828" width="2.197266" height="2.197266"/>
<image xlink:href="tile33_21.png" preserveAspectRatio="none" x="14172.363281" y="-4020.996094" width="2.197266" height="2.197266"/>
<image xlink:href="tile33_20.png" preserveAspectRatio="none" x="14172.363281" y="-4023.193359" width="2.197266" height="2.197266"/>
<image xlink:href="tile34_30.png" preserveAspectRatio="none" x="14174.560547" y="-4001.220703" width="2.197266" height="2.197266"/>
<image xlink:href="tile34_23.png" preserveAspectRatio="none" x="14174.560547" y="-4016.601562" width="2.197266" height="2.197266"/>
<image xlink:href="tile34_22.png" preserveAspectRatio="none" x="14174.560547" y="-4018.798828" width="2.197266" height="2.197266"/>
<image xlink:href="tile34_21.png" preserveAspectRatio="none" x="14174.560547" y="-4020.996094" width="2.197266" height="2.197266"/>
<image xlink:href="tile34_20.png" preserveAspectRatio="none" x="14174.560547" y="-4023.193359" width="2.197266" height="2.197266"/>
<image xlink:href="tile35_30.png" preserveAspectRatio="none" x="14176.757812" y="-4001.220703" width="2.197266" height="2.197266"/>
<image xlink:href="tile35_29.png" preserveAspectRatio="none" x="14176.757812" y="-4003.417969" width="2.197266" height="2.197266"/>
<image xlink:href="tile35_24.png" preserveAspectRatio="none" x="14176.757812" y="-4014.404297" width="2.197266" height="2.197266"/>
<image xlink:href="tile35_22.png" preserveAspectRatio="none" x="14176.757812" y="-4018.798828" width="2.197266" height="2.197266"/>
<image xlink:href="tile35_21.png" preserveAspectRatio="none" x="14176.757812" y="-4020.996094" width="2.197266" height="2.197266"/>
<image xlink:href="tile35_20.png" preserveAspectRatio="none" x="14176.757812" y="-4023.193359" width="2.197266" height="2.197266"/>
<image xlink:href="tile36_29.png" preserveAspectRatio="none" x="14178.955078" y="-4003.417969" width="2.197266" height="2.197266"/>
<image xlink:href="tile36_28.png" preserveAspectRatio="none" x="14178.955078" y="-4005.615234" width="2.197266" height="2.197266"/>
<image xlink:href="tile36_25.png" preserveAspectRatio="none" x="14178.955078" y="-4012.207031" width="2.197266" height="2.197266"/>
<image xlink:href="tile36_24.png" preserveAspectRatio="none" x="14178.955078" y="-4014.404297" width="2.197266" height="2.197266"/>
<image xlink:href="tile36_22.png" preserveAspectRatio="none" x="14178.955078" y="-4018.798828" width="2.197266" height="2.197266"/>
<image xlink:href="tile36_21.png" preserveAspectRatio="none" x="14178.955078" y="-4020.996094" width="2.197266" height="2.197266"/>
<image xlink:href="tile36_20.png" preserveAspectRatio="none" x="14178.955078" y="-4023.193359" width="2.197266" height="2.197266"/>
<image xlink:href="tile37_28.png" preserveAspectRatio="none" x="14181.152344" y="-4005.615234" width="2.197266" height="2.197266"/>
<image xlink:href="tile37_25.png" preserveAspectRatio="none" x="14181.152344" y="-4012.207031" width="2.197266" height="2.197266"/>
<image xlink:href="tile38_28.png" preserveAspectRatio="none" x="14183.349609" y="-4005.615234" width="2.197266" height="2.197266"/>
<image xlink:href="tile40_30.png" preserveAspectRatio="none" x="14187.744141" y="-4001.220703" width="2.197266" height="2.197266"/>
<image xlink:href="tile40_29.png" preserveAspectRatio="none" x="14187.744141" y="-4003.417969" width="2.197266" height="2.197266"/>
<image xlink:href="tile41_29.png" preserveAspectRatio="none" x="14189.941406" y="-4003.417969" width="2.197266" height="2.197266"/>
</g>
</svg>
