<?xml version="1.0" encoding="UTF-8"?>
<svg  xmlns="http://www.w3.org/2000/svg" xmlns:xlink="http://www.w3.org/1999/xlink" xmlns:go="http://purl.org/svgmap/profile" viewBox="14100.0 -4066.666667 90.11998990000052 66.66666699999979" go:dataArea="14100.0 -4066.666667 90.11998990000052 66.66666699999979" >
<metadata>
 <rdf:RDF xmlns:rdf="http://www.w3.org/1999/02/22-rdf-syntax-ns#" xmlns:crs="http://opengis.org/xmldtds/transformations.dtd" xmlns:svg="http://www.w3.org/svg" >
  <rdf:Description>
   <crs:CoordinateReferenceSystem rdf:resource="http://purl.org/crs/84" svg:transform="matrix(100.0,0.0,0.0,-100.0,0.0,0.0)" />
  </rdf:Description>
 </rdf:RDF>
</metadata>
<globalCoordinateSystem srsName="http://purl.org/crs/84" transform="matrix(100.0,0.0,0.0,-100.0,0.0,0.0)" />
<g >
<image xlink:href="tile0_4.png" preserveAspectRatio="none" x="14099.853516" y="-4058.349609" width="2.197266" height="2.197266"/>
<image xlink:href="tile0_3.png" preserveAspectRatio="none" x="14099.853516" y="-4060.546875" width="2.197266" height="2.197266"/>
<image xlink:href="tile1_3.png" preserveAspectRatio="none" x="14102.050781" y="-4060.546875" width="2.197266" height="2.197266"/>
<image xlink:href="tile2_4.png" preserveAspectRatio="none" x="14104.248047" y="-4058.349609" width="2.197266" height="2.197266"/>
<image xlink:href="tile2_3.png" preserveAspectRatio="none" x="14104.248047" y="-4060.546875" width="2.197266" height="2.197266"/>
<image xlink:href="tile3_4.png" preserveAspectRatio="none" x="14106.445312" y="-4058.349609" width="2.197266" height="2.197266"/>
<image xlink:href="tile3_3.png" preserveAspectRatio="none" x="14106.445312" y="-4060.546875" width="2.197266" height="2.197266"/>
<image xlink:href="tile4_14.png" preserveAspectRatio="none" x="14108.642578" y="-4036.376953" width="2.197266" height="2.197266"/>
<image xlink:href="tile4_4.png" preserveAspectRatio="none" x="14108.642578" y="-4058.349609" width="2.197266" height="2.197266"/>
<image xlink:href="tile4_3.png" preserveAspectRatio="none" x="14108.642578" y="-4060.546875" width="2.197266" height="2.197266"/>
<image xlink:href="tile5_14.png" preserveAspectRatio="none" x="14110.839844" y="-4036.376953" width="2.197266" height="2.197266"/>
<image xlink:href="tile5_3.png" preserveAspectRatio="none" x="14110.839844" y="-4060.546875" width="2.197266" height="2.197266"/>
<image xlink:href="tile6_14.png" preserveAspectRatio="none" x="14113.037109" y="-4036.376953" width="2.197266" height="2.197266"/>
<image xlink:href="tile6_9.png" preserveAspectRatio="none" x="14113.037109" y="-4047.363281" width="2.197266" height="2.197266"/>
<image xlink:href="tile6_3.png" preserveAspectRatio="none" x="14113.037109" y="-4060.546875" width="2.197266" height="2.197266"/>
<image xlink:href="tile7_14.png" preserveAspectRatio="none" x="14115.234375" y="-4036.376953" width="2.197266" height="2.197266"/>
<image xlink:href="tile7_9.png" preserveAspectRatio="none" x="14115.234375" y="-4047.363281" width="2.197266" height="2.197266"/>
<image xlink:href="tile7_3.png" preserveAspectRatio="none" x="14115.234375" y="-4060.546875" width="2.197266" height="2.197266"/>
<image xlink:href="tile7_2.png" preserveAspectRatio="none" x="14115.234375" y="-4062.744141" width="2.197266" height="2.197266"/>
<image xlink:href="tile8_14.png" preserveAspectRatio="none" x="14117.431641" y="-4036.376953" width="2.197266" height="2.197266"/>
<image xlink:href="tile8_10.png" preserveAspectRatio="none" x="14117.431641" y="-4045.166016" width="2.197266" height="2.197266"/>
<image xlink:href="tile8_9.png" preserveAspectRatio="none" x="14117.431641" y="-4047.363281" width="2.197266" height="2.197266"/>
<image xlink:href="tile8_4.png" preserveAspectRatio="none" x="14117.431641" y="-4058.349609" width="2.197266" height="2.197266"/>
<image xlink:href="tile8_3.png" preserveAspectRatio="none" x="14117.431641" y="-4060.546875" width="2.197266" height="2.197266"/>
<image xlink:href="tile9_14.png" preserveAspectRatio="none" x="14119.628906" y="-4036.376953" width="2.197266" height="2.197266"/>
<image xlink:href="tile9_10.png" preserveAspectRatio="none" x="14119.628906" y="-4045.166016" width="2.197266" height="2.197266"/>
<image xlink:href="tile9_9.png" preserveAspectRatio="none" x="14119.628906" y="-4047.363281" width="2.197266" height="2.197266"/>
<image xlink:href="tile9_8.png" preserveAspectRatio="none" x="14119.628906" y="-4049.560547" width="2.197266" height="2.197266"/>
<image xlink:href="tile9_4.png" preserveAspectRatio="none" x="14119.628906" y="-4058.349609" width="2.197266" height="2.197266"/>
<image xlink:href="tile9_3.png" preserveAspectRatio="none" x="14119.628906" y="-4060.546875" width="2.197266" height="2.197266"/>
<image xlink:href="tile10_14.png" preserveAspectRatio="none" x="14121.826172" y="-4036.376953" width="2.197266" height="2.197266"/>
<image xlink:href="tile10_13.png" preserveAspectRatio="none" x="14121.826172" y="-4038.574219" width="2.197266" height="2.197266"/>
<image xlink:href="tile10_10.png" preserveAspectRatio="none" x="14121.826172" y="-4045.166016" width="2.197266" height="2.197266"/>
<image xlink:href="tile10_8.png" preserveAspectRatio="none" x="14121.826172" y="-4049.560547" width="2.197266" height="2.197266"/>
<image xlink:href="tile10_4.png" preserveAspectRatio="none" x="14121.826172" y="-4058.349609" width="2.197266" height="2.197266"/>
<image xlink:href="tile10_3.png" preserveAspectRatio="none" x="14121.826172" y="-4060.546875" width="2.197266" height="2.197266"/>
<image xlink:href="tile11_14.png" preserveAspectRatio="none" x="14124.023438" y="-4036.376953" width="2.197266" height="2.197266"/>
<image xlink:href="tile11_13.png" preserveAspectRatio="none" x="14124.023438" y="-4038.574219" width="2.197266" height="2.197266"/>
<image xlink:href="tile11_12.png" preserveAspectRatio="none" x="14124.023438" y="-4040.771484" width="2.197266" height="2.197266"/>
<image xlink:href="tile11_11.png" preserveAspectRatio="none" x="14124.023438" y="-4042.96875" width="2.197266" height="2.197266"/>
<image xlink:href="tile11_10.png" preserveAspectRatio="none" x="14124.023438" y="-4045.166016" width="2.197266" height="2.197266"/>
<image xlink:href="tile11_9.png" preserveAspectRatio="none" x="14124.023438" y="-4047.363281" width="2.197266" height="2.197266"/>
<image xlink:href="tile11_8.png" preserveAspectRatio="none" x="14124.023438" y="-4049.560547" width="2.197266" height="2.197266"/>
<image xlink:href="tile11_7.png" preserveAspectRatio="none" x="14124.023438" y="-4051.757812" width="2.197266" height="2.197266"/>
<image xlink:href="tile11_4.png" preserveAspectRatio="none" x="14124.023438" y="-4058.349609" width="2.197266" height="2.197266"/>
<image xlink:href="tile11_3.png" preserveAspectRatio="none" x="14124.023438" y="-4060.546875" width="2.197266" height="2.197266"/>
<image xlink:href="tile12_14.png" preserveAspectRatio="none" x="14126.220703" y="-4036.376953" width="2.197266" height="2.197266"/>
<image xlink:href="tile12_13.png" preserveAspectRatio="none" x="14126.220703" y="-4038.574219" width="2.197266" height="2.197266"/>
<image xlink:href="tile12_12.png" preserveAspectRatio="none" x="14126.220703" y="-4040.771484" width="2.197266" height="2.197266"/>
<image xlink:href="tile12_11.png" preserveAspectRatio="none" x="14126.220703" y="-4042.96875" width="2.197266" height="2.197266"/>
<image xlink:href="tile12_9.png" preserveAspectRatio="none" x="14126.220703" y="-4047.363281" width="2.197266" height="2.197266"/>
<image xlink:href="tile12_7.png" preserveAspectRatio="none" x="14126.220703" y="-4051.757812" width="2.197266" height="2.197266"/>
<image xlink:href="tile12_6.png" preserveAspectRatio="none" x="14126.220703" y="-4053.955078" width="2.197266" height="2.197266"/>
<image xlink:href="tile12_3.png" preserveAspectRatio="none" x="14126.220703" y="-4060.546875" width="2.197266" height="2.197266"/>
<image xlink:href="tile13_14.png" preserveAspectRatio="none" x="14128.417969" y="-4036.376953" width="2.197266" height="2.197266"/>
<image xlink:href="tile13_12.png" preserveAspectRatio="none" x="14128.417969" y="-4040.771484" width="2.197266" height="2.197266"/>
<image xlink:href="tile13_11.png" preserveAspectRatio="none" x="14128.417969" y="-4042.96875" width="2.197266" height="2.197266"/>
<image xlink:href="tile13_9.png" preserveAspectRatio="none" x="14128.417969" y="-4047.363281" width="2.197266" height="2.197266"/>
<image xlink:href="tile13_8.png" preserveAspectRatio="none" x="14128.417969" y="-4049.560547" width="2.197266" height="2.197266"/>
<image xlink:href="tile13_6.png" preserveAspectRatio="none" x="14128.417969" y="-4053.955078" width="2.197266" height="2.197266"/>
<image xlink:href="tile13_3.png" preserveAspectRatio="none" x="14128.417969" y="-4060.546875" width="2.197266" height="2.197266"/>
<image xlink:href="tile14_11.png" preserveAspectRatio="none" x="14130.615234" y="-4042.96875" width="2.197266" height="2.197266"/>
<image xlink:href="tile14_10.png" preserveAspectRatio="none" x="14130.615234" y="-4045.166016" width="2.197266" height="2.197266"/>
<image xlink:href="tile14_8.png" preserveAspectRatio="none" x="14130.615234" y="-4049.560547" width="2.197266" height="2.197266"/>
<image xlink:href="tile14_6.png" preserveAspectRatio="none" x="14130.615234" y="-4053.955078" width="2.197266" height="2.197266"/>
<image xlink:href="tile14_5.png" preserveAspectRatio="none" x="14130.615234" y="-4056.152344" width="2.197266" height="2.197266"/>
<image xlink:href="tile14_3.png" preserveAspectRatio="none" x="14130.615234" y="-4060.546875" width="2.197266" height="2.197266"/>
<image xlink:href="tile15_11.png" preserveAspectRatio="none" x="14132.8125" y="-4042.96875" width="2.197266" height="2.197266"/>
<image xlink:href="tile15_10.png" preserveAspectRatio="none" x="14132.8125" y="-4045.166016" width="2.197266" height="2.197266"/>
<image xlink:href="tile15_9.png" preserveAspectRatio="none" x="14132.8125" y="-4047.363281" width="2.197266" height="2.197266"/>
<image xlink:href="tile15_8.png" preserveAspectRatio="none" x="14132.8125" y="-4049.560547" width="2.197266" height="2.197266"/>
<image xlink:href="tile15_7.png" preserveAspectRatio="none" x="14132.8125" y="-4051.757812" width="2.197266" height="2.197266"/>
<image xlink:href="tile15_6.png" preserveAspectRatio="none" x="14132.8125" y="-4053.955078" width="2.197266" height="2.197266"/>
<image xlink:href="tile15_5.png" preserveAspectRatio="none" x="14132.8125" y="-4056.152344" width="2.197266" height="2.197266"/>
<image xlink:href="tile15_3.png" preserveAspectRatio="none" x="14132.8125" y="-4060.546875" width="2.197266" height="2.197266"/>
<image xlink:href="tile15_2.png" preserveAspectRatio="none" x="14132.8125" y="-4062.744141" width="2.197266" height="2.197266"/>
</g>
</svg>
