<?xml version="1.0" encoding="UTF-8"?>
<svg  xmlns="http://www.w3.org/2000/svg" xmlns:xlink="http://www.w3.org/1999/xlink" xmlns:go="http://purl.org/svgmap/profile" viewBox="13600.0 -3600.0 100.0 66.6666677000002" go:dataArea="13600.0 -3600.0 100.0 66.6666677000002" >
<metadata>
 <rdf:RDF xmlns:rdf="http://www.w3.org/1999/02/22-rdf-syntax-ns#" xmlns:crs="http://opengis.org/xmldtds/transformations.dtd" xmlns:svg="http://www.w3.org/svg" >
  <rdf:Description>
   <crs:CoordinateReferenceSystem rdf:resource="http://purl.org/crs/84" svg:transform="matrix(100.0,0.0,0.0,-100.0,0.0,0.0)" />
  </rdf:Description>
 </rdf:RDF>
</metadata>
<globalCoordinateSystem srsName="http://purl.org/crs/84" transform="matrix(100.0,0.0,0.0,-100.0,0.0,0.0)" />
<g >
<image xlink:href="tile16_6.png" preserveAspectRatio="none" x="13634.033203" y="-3588.134766" width="2.197266" height="2.197266"/>
<image xlink:href="tile16_5.png" preserveAspectRatio="none" x="13634.033203" y="-3590.332031" width="2.197266" height="2.197266"/>
<image xlink:href="tile16_4.png" preserveAspectRatio="none" x="13634.033203" y="-3592.529297" width="2.197266" height="2.197266"/>
<image xlink:href="tile16_3.png" preserveAspectRatio="none" x="13634.033203" y="-3594.726562" width="2.197266" height="2.197266"/>
<image xlink:href="tile16_1.png" preserveAspectRatio="none" x="13634.033203" y="-3599.121094" width="2.197266" height="2.197266"/>
<image xlink:href="tile16_0.png" preserveAspectRatio="none" x="13634.033203" y="-3601.318359" width="2.197266" height="2.197266"/>
<image xlink:href="tile17_1.png" preserveAspectRatio="none" x="13636.230469" y="-3599.121094" width="2.197266" height="2.197266"/>
<image xlink:href="tile17_0.png" preserveAspectRatio="none" x="13636.230469" y="-3601.318359" width="2.197266" height="2.197266"/>
<image xlink:href="tile21_1.png" preserveAspectRatio="none" x="13645.019531" y="-3599.121094" width="2.197266" height="2.197266"/>
<image xlink:href="tile21_0.png" preserveAspectRatio="none" x="13645.019531" y="-3601.318359" width="2.197266" height="2.197266"/>
<image xlink:href="tile22_2.png" preserveAspectRatio="none" x="13647.216797" y="-3596.923828" width="2.197266" height="2.197266"/>
<image xlink:href="tile22_1.png" preserveAspectRatio="none" x="13647.216797" y="-3599.121094" width="2.197266" height="2.197266"/>
<image xlink:href="tile22_0.png" preserveAspectRatio="none" x="13647.216797" y="-3601.318359" width="2.197266" height="2.197266"/>
<image xlink:href="tile23_3.png" preserveAspectRatio="none" x="13649.414062" y="-3594.726562" width="2.197266" height="2.197266"/>
<image xlink:href="tile23_2.png" preserveAspectRatio="none" x="13649.414062" y="-3596.923828" width="2.197266" height="2.197266"/>
<image xlink:href="tile23_1.png" preserveAspectRatio="none" x="13649.414062" y="-3599.121094" width="2.197266" height="2.197266"/>
<image xlink:href="tile23_0.png" preserveAspectRatio="none" x="13649.414062" y="-3601.318359" width="2.197266" height="2.197266"/>
<image xlink:href="tile24_3.png" preserveAspectRatio="none" x="13651.611328" y="-3594.726562" width="2.197266" height="2.197266"/>
<image xlink:href="tile24_2.png" preserveAspectRatio="none" x="13651.611328" y="-3596.923828" width="2.197266" height="2.197266"/>
<image xlink:href="tile24_1.png" preserveAspectRatio="none" x="13651.611328" y="-3599.121094" width="2.197266" height="2.197266"/>
<image xlink:href="tile25_1.png" preserveAspectRatio="none" x="13653.808594" y="-3599.121094" width="2.197266" height="2.197266"/>
<image xlink:href="tile25_0.png" preserveAspectRatio="none" x="13653.808594" y="-3601.318359" width="2.197266" height="2.197266"/>
<image xlink:href="tile26_1.png" preserveAspectRatio="none" x="13656.005859" y="-3599.121094" width="2.197266" height="2.197266"/>
</g>
</svg>
