<?xml version="1.0" encoding="UTF-8"?>
<svg  xmlns="http://www.w3.org/2000/svg" xmlns:xlink="http://www.w3.org/1999/xlink" xmlns:go="http://purl.org/svgmap/profile" viewBox="13500.0 -3533.3333332 100.0 66.6666665000001" go:dataArea="13500.0 -3533.3333332 100.0 66.6666665000001" >
<metadata>
 <rdf:RDF xmlns:rdf="http://www.w3.org/1999/02/22-rdf-syntax-ns#" xmlns:crs="http://opengis.org/xmldtds/transformations.dtd" xmlns:svg="http://www.w3.org/svg" >
  <rdf:Description>
   <crs:CoordinateReferenceSystem rdf:resource="http://purl.org/crs/84" svg:transform="matrix(100.0,0.0,0.0,-100.0,0.0,0.0)" />
  </rdf:Description>
 </rdf:RDF>
</metadata>
<globalCoordinateSystem srsName="http://purl.org/crs/84" transform="matrix(100.0,0.0,0.0,-100.0,0.0,0.0)" />
<g >
<image xlink:href="tile0_43.png" preserveAspectRatio="none" x="13500" y="-3487.060547" width="1.098633" height="1.098633"/>
<image xlink:href="tile0_41.png" preserveAspectRatio="none" x="13500" y="-3489.257812" width="1.098633" height="1.098633"/>
<image xlink:href="tile0_38.png" preserveAspectRatio="none" x="13500" y="-3492.553711" width="1.098633" height="1.098633"/>
<image xlink:href="tile0_37.png" preserveAspectRatio="none" x="13500" y="-3493.652344" width="1.098633" height="1.098633"/>
<image xlink:href="tile0_36.png" preserveAspectRatio="none" x="13500" y="-3494.750977" width="1.098633" height="1.098633"/>
<image xlink:href="tile0_32.png" preserveAspectRatio="none" x="13500" y="-3499.145508" width="1.098633" height="1.098633"/>
<image xlink:href="tile0_31.png" preserveAspectRatio="none" x="13500" y="-3500.244141" width="1.098633" height="1.098633"/>
<image xlink:href="tile0_30.png" preserveAspectRatio="none" x="13500" y="-3501.342773" width="1.098633" height="1.098633"/>
<image xlink:href="tile1_45.png" preserveAspectRatio="none" x="13501.098633" y="-3484.863281" width="1.098633" height="1.098633"/>
<image xlink:href="tile1_43.png" preserveAspectRatio="none" x="13501.098633" y="-3487.060547" width="1.098633" height="1.098633"/>
<image xlink:href="tile1_42.png" preserveAspectRatio="none" x="13501.098633" y="-3488.15918" width="1.098633" height="1.098633"/>
<image xlink:href="tile1_41.png" preserveAspectRatio="none" x="13501.098633" y="-3489.257812" width="1.098633" height="1.098633"/>
<image xlink:href="tile1_38.png" preserveAspectRatio="none" x="13501.098633" y="-3492.553711" width="1.098633" height="1.098633"/>
<image xlink:href="tile1_37.png" preserveAspectRatio="none" x="13501.098633" y="-3493.652344" width="1.098633" height="1.098633"/>
<image xlink:href="tile1_36.png" preserveAspectRatio="none" x="13501.098633" y="-3494.750977" width="1.098633" height="1.098633"/>
<image xlink:href="tile1_31.png" preserveAspectRatio="none" x="13501.098633" y="-3500.244141" width="1.098633" height="1.098633"/>
<image xlink:href="tile2_45.png" preserveAspectRatio="none" x="13502.197266" y="-3484.863281" width="1.098633" height="1.098633"/>
<image xlink:href="tile2_43.png" preserveAspectRatio="none" x="13502.197266" y="-3487.060547" width="1.098633" height="1.098633"/>
<image xlink:href="tile2_42.png" preserveAspectRatio="none" x="13502.197266" y="-3488.15918" width="1.098633" height="1.098633"/>
<image xlink:href="tile2_41.png" preserveAspectRatio="none" x="13502.197266" y="-3489.257812" width="1.098633" height="1.098633"/>
<image xlink:href="tile2_38.png" preserveAspectRatio="none" x="13502.197266" y="-3492.553711" width="1.098633" height="1.098633"/>
<image xlink:href="tile2_37.png" preserveAspectRatio="none" x="13502.197266" y="-3493.652344" width="1.098633" height="1.098633"/>
<image xlink:href="tile2_36.png" preserveAspectRatio="none" x="13502.197266" y="-3494.750977" width="1.098633" height="1.098633"/>
<image xlink:href="tile2_35.png" preserveAspectRatio="none" x="13502.197266" y="-3495.849609" width="1.098633" height="1.098633"/>
<image xlink:href="tile2_31.png" preserveAspectRatio="none" x="13502.197266" y="-3500.244141" width="1.098633" height="1.098633"/>
<image xlink:href="tile2_30.png" preserveAspectRatio="none" x="13502.197266" y="-3501.342773" width="1.098633" height="1.098633"/>
<image xlink:href="tile3_45.png" preserveAspectRatio="none" x="13503.295898" y="-3484.863281" width="1.098633" height="1.098633"/>
<image xlink:href="tile3_44.png" preserveAspectRatio="none" x="13503.295898" y="-3485.961914" width="1.098633" height="1.098633"/>
<image xlink:href="tile3_41.png" preserveAspectRatio="none" x="13503.295898" y="-3489.257812" width="1.098633" height="1.098633"/>
<image xlink:href="tile3_39.png" preserveAspectRatio="none" x="13503.295898" y="-3491.455078" width="1.098633" height="1.098633"/>
<image xlink:href="tile3_38.png" preserveAspectRatio="none" x="13503.295898" y="-3492.553711" width="1.098633" height="1.098633"/>
<image xlink:href="tile3_35.png" preserveAspectRatio="none" x="13503.295898" y="-3495.849609" width="1.098633" height="1.098633"/>
<image xlink:href="tile3_34.png" preserveAspectRatio="none" x="13503.295898" y="-3496.948242" width="1.098633" height="1.098633"/>
<image xlink:href="tile3_30.png" preserveAspectRatio="none" x="13503.295898" y="-3501.342773" width="1.098633" height="1.098633"/>
<image xlink:href="tile4_45.png" preserveAspectRatio="none" x="13504.394531" y="-3484.863281" width="1.098633" height="1.098633"/>
<image xlink:href="tile4_44.png" preserveAspectRatio="none" x="13504.394531" y="-3485.961914" width="1.098633" height="1.098633"/>
<image xlink:href="tile4_42.png" preserveAspectRatio="none" x="13504.394531" y="-3488.15918" width="1.098633" height="1.098633"/>
<image xlink:href="tile4_41.png" preserveAspectRatio="none" x="13504.394531" y="-3489.257812" width="1.098633" height="1.098633"/>
<image xlink:href="tile4_40.png" preserveAspectRatio="none" x="13504.394531" y="-3490.356445" width="1.098633" height="1.098633"/>
<image xlink:href="tile5_44.png" preserveAspectRatio="none" x="13505.493164" y="-3485.961914" width="1.098633" height="1.098633"/>
<image xlink:href="tile5_43.png" preserveAspectRatio="none" x="13505.493164" y="-3487.060547" width="1.098633" height="1.098633"/>
<image xlink:href="tile5_40.png" preserveAspectRatio="none" x="13505.493164" y="-3490.356445" width="1.098633" height="1.098633"/>
<image xlink:href="tile5_39.png" preserveAspectRatio="none" x="13505.493164" y="-3491.455078" width="1.098633" height="1.098633"/>
<image xlink:href="tile5_35.png" preserveAspectRatio="none" x="13505.493164" y="-3495.849609" width="1.098633" height="1.098633"/>
<image xlink:href="tile5_34.png" preserveAspectRatio="none" x="13505.493164" y="-3496.948242" width="1.098633" height="1.098633"/>
<image xlink:href="tile5_33.png" preserveAspectRatio="none" x="13505.493164" y="-3498.046875" width="1.098633" height="1.098633"/>
<image xlink:href="tile5_32.png" preserveAspectRatio="none" x="13505.493164" y="-3499.145508" width="1.098633" height="1.098633"/>
<image xlink:href="tile6_44.png" preserveAspectRatio="none" x="13506.591797" y="-3485.961914" width="1.098633" height="1.098633"/>
<image xlink:href="tile6_43.png" preserveAspectRatio="none" x="13506.591797" y="-3487.060547" width="1.098633" height="1.098633"/>
<image xlink:href="tile6_42.png" preserveAspectRatio="none" x="13506.591797" y="-3488.15918" width="1.098633" height="1.098633"/>
<image xlink:href="tile6_40.png" preserveAspectRatio="none" x="13506.591797" y="-3490.356445" width="1.098633" height="1.098633"/>
<image xlink:href="tile6_39.png" preserveAspectRatio="none" x="13506.591797" y="-3491.455078" width="1.098633" height="1.098633"/>
<image xlink:href="tile6_38.png" preserveAspectRatio="none" x="13506.591797" y="-3492.553711" width="1.098633" height="1.098633"/>
<image xlink:href="tile6_37.png" preserveAspectRatio="none" x="13506.591797" y="-3493.652344" width="1.098633" height="1.098633"/>
<image xlink:href="tile6_35.png" preserveAspectRatio="none" x="13506.591797" y="-3495.849609" width="1.098633" height="1.098633"/>
<image xlink:href="tile6_34.png" preserveAspectRatio="none" x="13506.591797" y="-3496.948242" width="1.098633" height="1.098633"/>
<image xlink:href="tile7_44.png" preserveAspectRatio="none" x="13507.69043" y="-3485.961914" width="1.098633" height="1.098633"/>
<image xlink:href="tile7_43.png" preserveAspectRatio="none" x="13507.69043" y="-3487.060547" width="1.098633" height="1.098633"/>
<image xlink:href="tile7_42.png" preserveAspectRatio="none" x="13507.69043" y="-3488.15918" width="1.098633" height="1.098633"/>
<image xlink:href="tile7_40.png" preserveAspectRatio="none" x="13507.69043" y="-3490.356445" width="1.098633" height="1.098633"/>
<image xlink:href="tile7_39.png" preserveAspectRatio="none" x="13507.69043" y="-3491.455078" width="1.098633" height="1.098633"/>
<image xlink:href="tile7_38.png" preserveAspectRatio="none" x="13507.69043" y="-3492.553711" width="1.098633" height="1.098633"/>
<image xlink:href="tile7_37.png" preserveAspectRatio="none" x="13507.69043" y="-3493.652344" width="1.098633" height="1.098633"/>
<image xlink:href="tile7_30.png" preserveAspectRatio="none" x="13507.69043" y="-3501.342773" width="1.098633" height="1.098633"/>
<image xlink:href="tile8_45.png" preserveAspectRatio="none" x="13508.789062" y="-3484.863281" width="1.098633" height="1.098633"/>
<image xlink:href="tile8_43.png" preserveAspectRatio="none" x="13508.789062" y="-3487.060547" width="1.098633" height="1.098633"/>
<image xlink:href="tile8_42.png" preserveAspectRatio="none" x="13508.789062" y="-3488.15918" width="1.098633" height="1.098633"/>
<image xlink:href="tile8_41.png" preserveAspectRatio="none" x="13508.789062" y="-3489.257812" width="1.098633" height="1.098633"/>
<image xlink:href="tile8_38.png" preserveAspectRatio="none" x="13508.789062" y="-3492.553711" width="1.098633" height="1.098633"/>
<image xlink:href="tile8_37.png" preserveAspectRatio="none" x="13508.789062" y="-3493.652344" width="1.098633" height="1.098633"/>
<image xlink:href="tile8_32.png" preserveAspectRatio="none" x="13508.789062" y="-3499.145508" width="1.098633" height="1.098633"/>
<image xlink:href="tile8_31.png" preserveAspectRatio="none" x="13508.789062" y="-3500.244141" width="1.098633" height="1.098633"/>
<image xlink:href="tile8_30.png" preserveAspectRatio="none" x="13508.789062" y="-3501.342773" width="1.098633" height="1.098633"/>
<image xlink:href="tile9_42.png" preserveAspectRatio="none" x="13509.887695" y="-3488.15918" width="1.098633" height="1.098633"/>
<image xlink:href="tile9_41.png" preserveAspectRatio="none" x="13509.887695" y="-3489.257812" width="1.098633" height="1.098633"/>
<image xlink:href="tile9_40.png" preserveAspectRatio="none" x="13509.887695" y="-3490.356445" width="1.098633" height="1.098633"/>
<image xlink:href="tile9_39.png" preserveAspectRatio="none" x="13509.887695" y="-3491.455078" width="1.098633" height="1.098633"/>
<image xlink:href="tile9_33.png" preserveAspectRatio="none" x="13509.887695" y="-3498.046875" width="1.098633" height="1.098633"/>
<image xlink:href="tile9_32.png" preserveAspectRatio="none" x="13509.887695" y="-3499.145508" width="1.098633" height="1.098633"/>
<image xlink:href="tile9_31.png" preserveAspectRatio="none" x="13509.887695" y="-3500.244141" width="1.098633" height="1.098633"/>
<image xlink:href="tile9_30.png" preserveAspectRatio="none" x="13509.887695" y="-3501.342773" width="1.098633" height="1.098633"/>
<image xlink:href="tile10_42.png" preserveAspectRatio="none" x="13510.986328" y="-3488.15918" width="1.098633" height="1.098633"/>
<image xlink:href="tile10_41.png" preserveAspectRatio="none" x="13510.986328" y="-3489.257812" width="1.098633" height="1.098633"/>
<image xlink:href="tile10_39.png" preserveAspectRatio="none" x="13510.986328" y="-3491.455078" width="1.098633" height="1.098633"/>
<image xlink:href="tile10_37.png" preserveAspectRatio="none" x="13510.986328" y="-3493.652344" width="1.098633" height="1.098633"/>
<image xlink:href="tile10_36.png" preserveAspectRatio="none" x="13510.986328" y="-3494.750977" width="1.098633" height="1.098633"/>
<image xlink:href="tile11_44.png" preserveAspectRatio="none" x="13512.084961" y="-3485.961914" width="1.098633" height="1.098633"/>
<image xlink:href="tile11_41.png" preserveAspectRatio="none" x="13512.084961" y="-3489.257812" width="1.098633" height="1.098633"/>
<image xlink:href="tile11_39.png" preserveAspectRatio="none" x="13512.084961" y="-3491.455078" width="1.098633" height="1.098633"/>
<image xlink:href="tile11_34.png" preserveAspectRatio="none" x="13512.084961" y="-3496.948242" width="1.098633" height="1.098633"/>
<image xlink:href="tile11_33.png" preserveAspectRatio="none" x="13512.084961" y="-3498.046875" width="1.098633" height="1.098633"/>
<image xlink:href="tile11_32.png" preserveAspectRatio="none" x="13512.084961" y="-3499.145508" width="1.098633" height="1.098633"/>
<image xlink:href="tile11_31.png" preserveAspectRatio="none" x="13512.084961" y="-3500.244141" width="1.098633" height="1.098633"/>
<image xlink:href="tile11_30.png" preserveAspectRatio="none" x="13512.084961" y="-3501.342773" width="1.098633" height="1.098633"/>
<image xlink:href="tile12_45.png" preserveAspectRatio="none" x="13513.183594" y="-3484.863281" width="1.098633" height="1.098633"/>
<image xlink:href="tile12_44.png" preserveAspectRatio="none" x="13513.183594" y="-3485.961914" width="1.098633" height="1.098633"/>
<image xlink:href="tile12_43.png" preserveAspectRatio="none" x="13513.183594" y="-3487.060547" width="1.098633" height="1.098633"/>
<image xlink:href="tile12_42.png" preserveAspectRatio="none" x="13513.183594" y="-3488.15918" width="1.098633" height="1.098633"/>
<image xlink:href="tile12_41.png" preserveAspectRatio="none" x="13513.183594" y="-3489.257812" width="1.098633" height="1.098633"/>
<image xlink:href="tile12_39.png" preserveAspectRatio="none" x="13513.183594" y="-3491.455078" width="1.098633" height="1.098633"/>
<image xlink:href="tile12_30.png" preserveAspectRatio="none" x="13513.183594" y="-3501.342773" width="1.098633" height="1.098633"/>
<image xlink:href="tile13_45.png" preserveAspectRatio="none" x="13514.282227" y="-3484.863281" width="1.098633" height="1.098633"/>
<image xlink:href="tile13_44.png" preserveAspectRatio="none" x="13514.282227" y="-3485.961914" width="1.098633" height="1.098633"/>
<image xlink:href="tile13_43.png" preserveAspectRatio="none" x="13514.282227" y="-3487.060547" width="1.098633" height="1.098633"/>
<image xlink:href="tile13_42.png" preserveAspectRatio="none" x="13514.282227" y="-3488.15918" width="1.098633" height="1.098633"/>
<image xlink:href="tile13_39.png" preserveAspectRatio="none" x="13514.282227" y="-3491.455078" width="1.098633" height="1.098633"/>
<image xlink:href="tile13_35.png" preserveAspectRatio="none" x="13514.282227" y="-3495.849609" width="1.098633" height="1.098633"/>
<image xlink:href="tile13_34.png" preserveAspectRatio="none" x="13514.282227" y="-3496.948242" width="1.098633" height="1.098633"/>
<image xlink:href="tile13_33.png" preserveAspectRatio="none" x="13514.282227" y="-3498.046875" width="1.098633" height="1.098633"/>
<image xlink:href="tile13_32.png" preserveAspectRatio="none" x="13514.282227" y="-3499.145508" width="1.098633" height="1.098633"/>
<image xlink:href="tile13_31.png" preserveAspectRatio="none" x="13514.282227" y="-3500.244141" width="1.098633" height="1.098633"/>
<image xlink:href="tile13_30.png" preserveAspectRatio="none" x="13514.282227" y="-3501.342773" width="1.098633" height="1.098633"/>
<image xlink:href="tile14_45.png" preserveAspectRatio="none" x="13515.380859" y="-3484.863281" width="1.098633" height="1.098633"/>
<image xlink:href="tile14_44.png" preserveAspectRatio="none" x="13515.380859" y="-3485.961914" width="1.098633" height="1.098633"/>
<image xlink:href="tile14_43.png" preserveAspectRatio="none" x="13515.380859" y="-3487.060547" width="1.098633" height="1.098633"/>
<image xlink:href="tile14_42.png" preserveAspectRatio="none" x="13515.380859" y="-3488.15918" width="1.098633" height="1.098633"/>
<image xlink:href="tile14_40.png" preserveAspectRatio="none" x="13515.380859" y="-3490.356445" width="1.098633" height="1.098633"/>
<image xlink:href="tile14_39.png" preserveAspectRatio="none" x="13515.380859" y="-3491.455078" width="1.098633" height="1.098633"/>
<image xlink:href="tile14_36.png" preserveAspectRatio="none" x="13515.380859" y="-3494.750977" width="1.098633" height="1.098633"/>
<image xlink:href="tile14_35.png" preserveAspectRatio="none" x="13515.380859" y="-3495.849609" width="1.098633" height="1.098633"/>
<image xlink:href="tile14_34.png" preserveAspectRatio="none" x="13515.380859" y="-3496.948242" width="1.098633" height="1.098633"/>
<image xlink:href="tile14_33.png" preserveAspectRatio="none" x="13515.380859" y="-3498.046875" width="1.098633" height="1.098633"/>
<image xlink:href="tile14_32.png" preserveAspectRatio="none" x="13515.380859" y="-3499.145508" width="1.098633" height="1.098633"/>
<image xlink:href="tile14_31.png" preserveAspectRatio="none" x="13515.380859" y="-3500.244141" width="1.098633" height="1.098633"/>
<image xlink:href="tile14_30.png" preserveAspectRatio="none" x="13515.380859" y="-3501.342773" width="1.098633" height="1.098633"/>
<image xlink:href="tile15_45.png" preserveAspectRatio="none" x="13516.479492" y="-3484.863281" width="1.098633" height="1.098633"/>
<image xlink:href="tile15_44.png" preserveAspectRatio="none" x="13516.479492" y="-3485.961914" width="1.098633" height="1.098633"/>
<image xlink:href="tile15_43.png" preserveAspectRatio="none" x="13516.479492" y="-3487.060547" width="1.098633" height="1.098633"/>
<image xlink:href="tile15_39.png" preserveAspectRatio="none" x="13516.479492" y="-3491.455078" width="1.098633" height="1.098633"/>
<image xlink:href="tile15_38.png" preserveAspectRatio="none" x="13516.479492" y="-3492.553711" width="1.098633" height="1.098633"/>
<image xlink:href="tile15_36.png" preserveAspectRatio="none" x="13516.479492" y="-3494.750977" width="1.098633" height="1.098633"/>
<image xlink:href="tile15_33.png" preserveAspectRatio="none" x="13516.479492" y="-3498.046875" width="1.098633" height="1.098633"/>
</g>
</svg>
