<?xml version="1.0" encoding="UTF-8"?>
<svg  xmlns="http://www.w3.org/2000/svg" xmlns:xlink="http://www.w3.org/1999/xlink" xmlns:go="http://purl.org/svgmap/profile" viewBox="13900.0 -3733.333333 100.0 66.66666600000042" go:dataArea="13900.0 -3733.333333 100.0 66.66666600000042" >
<metadata>
 <rdf:RDF xmlns:rdf="http://www.w3.org/1999/02/22-rdf-syntax-ns#" xmlns:crs="http://opengis.org/xmldtds/transformations.dtd" xmlns:svg="http://www.w3.org/svg" >
  <rdf:Description>
   <crs:CoordinateReferenceSystem rdf:resource="http://purl.org/crs/84" svg:transform="matrix(100.0,0.0,0.0,-100.0,0.0,0.0)" />
  </rdf:Description>
 </rdf:RDF>
</metadata>
<globalCoordinateSystem srsName="http://purl.org/crs/84" transform="matrix(100.0,0.0,0.0,-100.0,0.0,0.0)" />
<g >
<image xlink:href="tile0_1.png" preserveAspectRatio="none" x="13895.507812" y="-3726.5625" width="8.789062" height="8.789062"/>
<image xlink:href="tile0_0.png" preserveAspectRatio="none" x="13895.507812" y="-3735.351562" width="8.789062" height="8.789062"/>
<image xlink:href="tile1_1.png" preserveAspectRatio="none" x="13904.296875" y="-3726.5625" width="8.789062" height="8.789062"/>
<image xlink:href="tile4_0.png" preserveAspectRatio="none" x="13930.664062" y="-3735.351562" width="8.789062" height="8.789062"/>
<image xlink:href="tile5_0.png" preserveAspectRatio="none" x="13939.453125" y="-3735.351562" width="8.789062" height="8.789062"/>
<image xlink:href="tile6_2.png" preserveAspectRatio="none" x="13948.242188" y="-3717.773438" width="8.789062" height="8.789062"/>
<image xlink:href="tile6_1.png" preserveAspectRatio="none" x="13948.242188" y="-3726.5625" width="8.789062" height="8.789062"/>
<image xlink:href="tile6_0.png" preserveAspectRatio="none" x="13948.242188" y="-3735.351562" width="8.789062" height="8.789062"/>
<image xlink:href="tile7_7.png" preserveAspectRatio="none" x="13957.03125" y="-3673.828125" width="8.789062" height="8.789062"/>
<image xlink:href="tile8_7.png" preserveAspectRatio="none" x="13965.820312" y="-3673.828125" width="8.789062" height="8.789062"/>
<image xlink:href="tile8_3.png" preserveAspectRatio="none" x="13965.820312" y="-3708.984375" width="8.789062" height="8.789062"/>
<image xlink:href="tile8_2.png" preserveAspectRatio="none" x="13965.820312" y="-3717.773438" width="8.789062" height="8.789062"/>
<image xlink:href="tile8_1.png" preserveAspectRatio="none" x="13965.820312" y="-3726.5625" width="8.789062" height="8.789062"/>
<image xlink:href="tile9_7.png" preserveAspectRatio="none" x="13974.609375" y="-3673.828125" width="8.789062" height="8.789062"/>
<image xlink:href="tile9_6.png" preserveAspectRatio="none" x="13974.609375" y="-3682.617188" width="8.789062" height="8.789062"/>
<image xlink:href="tile9_2.png" preserveAspectRatio="none" x="13974.609375" y="-3717.773438" width="8.789062" height="8.789062"/>
<image xlink:href="tile9_1.png" preserveAspectRatio="none" x="13974.609375" y="-3726.5625" width="8.789062" height="8.789062"/>
<image xlink:href="tile10_7.png" preserveAspectRatio="none" x="13983.398438" y="-3673.828125" width="8.789062" height="8.789062"/>
<image xlink:href="tile10_6.png" preserveAspectRatio="none" x="13983.398438" y="-3682.617188" width="8.789062" height="8.789062"/>
<image xlink:href="tile10_5.png" preserveAspectRatio="none" x="13983.398438" y="-3691.40625" width="8.789062" height="8.789062"/>
<image xlink:href="tile10_4.png" preserveAspectRatio="none" x="13983.398438" y="-3700.195312" width="8.789062" height="8.789062"/>
<image xlink:href="tile10_1.png" preserveAspectRatio="none" x="13983.398438" y="-3726.5625" width="8.789062" height="8.789062"/>
<image xlink:href="tile10_0.png" preserveAspectRatio="none" x="13983.398438" y="-3735.351562" width="8.789062" height="8.789062"/>
<image xlink:href="tile11_7.png" preserveAspectRatio="none" x="13992.1875" y="-3673.828125" width="8.789062" height="8.789062"/>
<image xlink:href="tile11_6.png" preserveAspectRatio="none" x="13992.1875" y="-3682.617188" width="8.789062" height="8.789062"/>
<image xlink:href="tile11_5.png" preserveAspectRatio="none" x="13992.1875" y="-3691.40625" width="8.789062" height="8.789062"/>
<image xlink:href="tile11_4.png" preserveAspectRatio="none" x="13992.1875" y="-3700.195312" width="8.789062" height="8.789062"/>
</g>
</svg>
