<?xml version="1.0" encoding="UTF-8"?>
<svg  xmlns="http://www.w3.org/2000/svg" xmlns:xlink="http://www.w3.org/1999/xlink" xmlns:go="http://purl.org/svgmap/profile" viewBox="13400.0 -3466.666667 100.0 66.66666699999979" go:dataArea="13400.0 -3466.666667 100.0 66.66666699999979" >
<metadata>
 <rdf:RDF xmlns:rdf="http://www.w3.org/1999/02/22-rdf-syntax-ns#" xmlns:crs="http://opengis.org/xmldtds/transformations.dtd" xmlns:svg="http://www.w3.org/svg" >
  <rdf:Description>
   <crs:CoordinateReferenceSystem rdf:resource="http://purl.org/crs/84" svg:transform="matrix(100.0,0.0,0.0,-100.0,0.0,0.0)" />
  </rdf:Description>
 </rdf:RDF>
</metadata>
<globalCoordinateSystem srsName="http://purl.org/crs/84" transform="matrix(100.0,0.0,0.0,-100.0,0.0,0.0)" />
<g >
<image xlink:href="tile80_13.png" preserveAspectRatio="none" x="13486.816406" y="-3453.00293" width="1.098633" height="1.098633"/>
<image xlink:href="tile81_13.png" preserveAspectRatio="none" x="13487.915039" y="-3453.00293" width="1.098633" height="1.098633"/>
<image xlink:href="tile81_12.png" preserveAspectRatio="none" x="13487.915039" y="-3454.101562" width="1.098633" height="1.098633"/>
<image xlink:href="tile82_13.png" preserveAspectRatio="none" x="13489.013672" y="-3453.00293" width="1.098633" height="1.098633"/>
<image xlink:href="tile82_12.png" preserveAspectRatio="none" x="13489.013672" y="-3454.101562" width="1.098633" height="1.098633"/>
<image xlink:href="tile84_12.png" preserveAspectRatio="none" x="13491.210938" y="-3454.101562" width="1.098633" height="1.098633"/>
<image xlink:href="tile84_11.png" preserveAspectRatio="none" x="13491.210938" y="-3455.200195" width="1.098633" height="1.098633"/>
<image xlink:href="tile85_12.png" preserveAspectRatio="none" x="13492.30957" y="-3454.101562" width="1.098633" height="1.098633"/>
<image xlink:href="tile85_11.png" preserveAspectRatio="none" x="13492.30957" y="-3455.200195" width="1.098633" height="1.098633"/>
<image xlink:href="tile86_10.png" preserveAspectRatio="none" x="13493.408203" y="-3456.298828" width="1.098633" height="1.098633"/>
<image xlink:href="tile86_0.png" preserveAspectRatio="none" x="13493.408203" y="-3467.285156" width="1.098633" height="1.098633"/>
<image xlink:href="tile87_10.png" preserveAspectRatio="none" x="13494.506836" y="-3456.298828" width="1.098633" height="1.098633"/>
<image xlink:href="tile88_13.png" preserveAspectRatio="none" x="13495.605469" y="-3453.00293" width="1.098633" height="1.098633"/>
<image xlink:href="tile88_12.png" preserveAspectRatio="none" x="13495.605469" y="-3454.101562" width="1.098633" height="1.098633"/>
<image xlink:href="tile88_11.png" preserveAspectRatio="none" x="13495.605469" y="-3455.200195" width="1.098633" height="1.098633"/>
<image xlink:href="tile88_10.png" preserveAspectRatio="none" x="13495.605469" y="-3456.298828" width="1.098633" height="1.098633"/>
<image xlink:href="tile88_2.png" preserveAspectRatio="none" x="13495.605469" y="-3465.087891" width="1.098633" height="1.098633"/>
<image xlink:href="tile89_13.png" preserveAspectRatio="none" x="13496.704102" y="-3453.00293" width="1.098633" height="1.098633"/>
<image xlink:href="tile89_12.png" preserveAspectRatio="none" x="13496.704102" y="-3454.101562" width="1.098633" height="1.098633"/>
<image xlink:href="tile89_2.png" preserveAspectRatio="none" x="13496.704102" y="-3465.087891" width="1.098633" height="1.098633"/>
<image xlink:href="tile89_1.png" preserveAspectRatio="none" x="13496.704102" y="-3466.186523" width="1.098633" height="1.098633"/>
<image xlink:href="tile89_0.png" preserveAspectRatio="none" x="13496.704102" y="-3467.285156" width="1.098633" height="1.098633"/>
<image xlink:href="tile90_12.png" preserveAspectRatio="none" x="13497.802734" y="-3454.101562" width="1.098633" height="1.098633"/>
<image xlink:href="tile90_9.png" preserveAspectRatio="none" x="13497.802734" y="-3457.397461" width="1.098633" height="1.098633"/>
<image xlink:href="tile90_2.png" preserveAspectRatio="none" x="13497.802734" y="-3465.087891" width="1.098633" height="1.098633"/>
<image xlink:href="tile90_1.png" preserveAspectRatio="none" x="13497.802734" y="-3466.186523" width="1.098633" height="1.098633"/>
<image xlink:href="tile90_0.png" preserveAspectRatio="none" x="13497.802734" y="-3467.285156" width="1.098633" height="1.098633"/>
<image xlink:href="tile91_13.png" preserveAspectRatio="none" x="13498.901367" y="-3453.00293" width="1.098633" height="1.098633"/>
<image xlink:href="tile91_12.png" preserveAspectRatio="none" x="13498.901367" y="-3454.101562" width="1.098633" height="1.098633"/>
<image xlink:href="tile91_11.png" preserveAspectRatio="none" x="13498.901367" y="-3455.200195" width="1.098633" height="1.098633"/>
<image xlink:href="tile91_10.png" preserveAspectRatio="none" x="13498.901367" y="-3456.298828" width="1.098633" height="1.098633"/>
<image xlink:href="tile91_9.png" preserveAspectRatio="none" x="13498.901367" y="-3457.397461" width="1.098633" height="1.098633"/>
<image xlink:href="tile91_2.png" preserveAspectRatio="none" x="13498.901367" y="-3465.087891" width="1.098633" height="1.098633"/>
<image xlink:href="tile91_1.png" preserveAspectRatio="none" x="13498.901367" y="-3466.186523" width="1.098633" height="1.098633"/>
<image xlink:href="tile91_0.png" preserveAspectRatio="none" x="13498.901367" y="-3467.285156" width="1.098633" height="1.098633"/>
</g>
</svg>
