<?xml version="1.0" encoding="UTF-8"?>
<svg  xmlns="http://www.w3.org/2000/svg" xmlns:xlink="http://www.w3.org/1999/xlink" xmlns:go="http://purl.org/svgmap/profile" viewBox="13400.0 -3466.666667 100.0 66.66666699999979" go:dataArea="13400.0 -3466.666667 100.0 66.66666699999979" >
<metadata>
 <rdf:RDF xmlns:rdf="http://www.w3.org/1999/02/22-rdf-syntax-ns#" xmlns:crs="http://opengis.org/xmldtds/transformations.dtd" xmlns:svg="http://www.w3.org/svg" >
  <rdf:Description>
   <crs:CoordinateReferenceSystem rdf:resource="http://purl.org/crs/84" svg:transform="matrix(100.0,0.0,0.0,-100.0,0.0,0.0)" />
  </rdf:Description>
 </rdf:RDF>
</metadata>
<globalCoordinateSystem srsName="http://purl.org/crs/84" transform="matrix(100.0,0.0,0.0,-100.0,0.0,0.0)" />
<g >
<image xlink:href="tile16_57.png" preserveAspectRatio="none" x="13416.503906" y="-3404.663086" width="1.098633" height="1.098633"/>
<image xlink:href="tile16_56.png" preserveAspectRatio="none" x="13416.503906" y="-3405.761719" width="1.098633" height="1.098633"/>
<image xlink:href="tile16_55.png" preserveAspectRatio="none" x="13416.503906" y="-3406.860352" width="1.098633" height="1.098633"/>
<image xlink:href="tile16_54.png" preserveAspectRatio="none" x="13416.503906" y="-3407.958984" width="1.098633" height="1.098633"/>
<image xlink:href="tile17_56.png" preserveAspectRatio="none" x="13417.602539" y="-3405.761719" width="1.098633" height="1.098633"/>
<image xlink:href="tile17_55.png" preserveAspectRatio="none" x="13417.602539" y="-3406.860352" width="1.098633" height="1.098633"/>
<image xlink:href="tile17_54.png" preserveAspectRatio="none" x="13417.602539" y="-3407.958984" width="1.098633" height="1.098633"/>
<image xlink:href="tile18_55.png" preserveAspectRatio="none" x="13418.701172" y="-3406.860352" width="1.098633" height="1.098633"/>
<image xlink:href="tile18_54.png" preserveAspectRatio="none" x="13418.701172" y="-3407.958984" width="1.098633" height="1.098633"/>
<image xlink:href="tile18_53.png" preserveAspectRatio="none" x="13418.701172" y="-3409.057617" width="1.098633" height="1.098633"/>
<image xlink:href="tile19_56.png" preserveAspectRatio="none" x="13419.799805" y="-3405.761719" width="1.098633" height="1.098633"/>
<image xlink:href="tile19_55.png" preserveAspectRatio="none" x="13419.799805" y="-3406.860352" width="1.098633" height="1.098633"/>
<image xlink:href="tile19_54.png" preserveAspectRatio="none" x="13419.799805" y="-3407.958984" width="1.098633" height="1.098633"/>
<image xlink:href="tile19_53.png" preserveAspectRatio="none" x="13419.799805" y="-3409.057617" width="1.098633" height="1.098633"/>
<image xlink:href="tile20_56.png" preserveAspectRatio="none" x="13420.898438" y="-3405.761719" width="1.098633" height="1.098633"/>
<image xlink:href="tile20_55.png" preserveAspectRatio="none" x="13420.898438" y="-3406.860352" width="1.098633" height="1.098633"/>
<image xlink:href="tile20_54.png" preserveAspectRatio="none" x="13420.898438" y="-3407.958984" width="1.098633" height="1.098633"/>
<image xlink:href="tile20_53.png" preserveAspectRatio="none" x="13420.898438" y="-3409.057617" width="1.098633" height="1.098633"/>
<image xlink:href="tile21_57.png" preserveAspectRatio="none" x="13421.99707" y="-3404.663086" width="1.098633" height="1.098633"/>
<image xlink:href="tile21_56.png" preserveAspectRatio="none" x="13421.99707" y="-3405.761719" width="1.098633" height="1.098633"/>
<image xlink:href="tile21_55.png" preserveAspectRatio="none" x="13421.99707" y="-3406.860352" width="1.098633" height="1.098633"/>
<image xlink:href="tile21_54.png" preserveAspectRatio="none" x="13421.99707" y="-3407.958984" width="1.098633" height="1.098633"/>
<image xlink:href="tile22_57.png" preserveAspectRatio="none" x="13423.095703" y="-3404.663086" width="1.098633" height="1.098633"/>
<image xlink:href="tile22_56.png" preserveAspectRatio="none" x="13423.095703" y="-3405.761719" width="1.098633" height="1.098633"/>
<image xlink:href="tile22_55.png" preserveAspectRatio="none" x="13423.095703" y="-3406.860352" width="1.098633" height="1.098633"/>
<image xlink:href="tile22_54.png" preserveAspectRatio="none" x="13423.095703" y="-3407.958984" width="1.098633" height="1.098633"/>
<image xlink:href="tile23_56.png" preserveAspectRatio="none" x="13424.194336" y="-3405.761719" width="1.098633" height="1.098633"/>
<image xlink:href="tile23_55.png" preserveAspectRatio="none" x="13424.194336" y="-3406.860352" width="1.098633" height="1.098633"/>
<image xlink:href="tile23_54.png" preserveAspectRatio="none" x="13424.194336" y="-3407.958984" width="1.098633" height="1.098633"/>
<image xlink:href="tile24_56.png" preserveAspectRatio="none" x="13425.292969" y="-3405.761719" width="1.098633" height="1.098633"/>
<image xlink:href="tile24_55.png" preserveAspectRatio="none" x="13425.292969" y="-3406.860352" width="1.098633" height="1.098633"/>
<image xlink:href="tile24_54.png" preserveAspectRatio="none" x="13425.292969" y="-3407.958984" width="1.098633" height="1.098633"/>
<image xlink:href="tile24_53.png" preserveAspectRatio="none" x="13425.292969" y="-3409.057617" width="1.098633" height="1.098633"/>
<image xlink:href="tile25_56.png" preserveAspectRatio="none" x="13426.391602" y="-3405.761719" width="1.098633" height="1.098633"/>
<image xlink:href="tile25_55.png" preserveAspectRatio="none" x="13426.391602" y="-3406.860352" width="1.098633" height="1.098633"/>
<image xlink:href="tile25_54.png" preserveAspectRatio="none" x="13426.391602" y="-3407.958984" width="1.098633" height="1.098633"/>
<image xlink:href="tile25_53.png" preserveAspectRatio="none" x="13426.391602" y="-3409.057617" width="1.098633" height="1.098633"/>
<image xlink:href="tile26_56.png" preserveAspectRatio="none" x="13427.490234" y="-3405.761719" width="1.098633" height="1.098633"/>
<image xlink:href="tile26_55.png" preserveAspectRatio="none" x="13427.490234" y="-3406.860352" width="1.098633" height="1.098633"/>
<image xlink:href="tile26_54.png" preserveAspectRatio="none" x="13427.490234" y="-3407.958984" width="1.098633" height="1.098633"/>
<image xlink:href="tile26_53.png" preserveAspectRatio="none" x="13427.490234" y="-3409.057617" width="1.098633" height="1.098633"/>
<image xlink:href="tile27_56.png" preserveAspectRatio="none" x="13428.588867" y="-3405.761719" width="1.098633" height="1.098633"/>
<image xlink:href="tile27_55.png" preserveAspectRatio="none" x="13428.588867" y="-3406.860352" width="1.098633" height="1.098633"/>
<image xlink:href="tile27_54.png" preserveAspectRatio="none" x="13428.588867" y="-3407.958984" width="1.098633" height="1.098633"/>
<image xlink:href="tile27_53.png" preserveAspectRatio="none" x="13428.588867" y="-3409.057617" width="1.098633" height="1.098633"/>
<image xlink:href="tile28_56.png" preserveAspectRatio="none" x="13429.6875" y="-3405.761719" width="1.098633" height="1.098633"/>
<image xlink:href="tile28_55.png" preserveAspectRatio="none" x="13429.6875" y="-3406.860352" width="1.098633" height="1.098633"/>
<image xlink:href="tile28_53.png" preserveAspectRatio="none" x="13429.6875" y="-3409.057617" width="1.098633" height="1.098633"/>
<image xlink:href="tile29_56.png" preserveAspectRatio="none" x="13430.786133" y="-3405.761719" width="1.098633" height="1.098633"/>
<image xlink:href="tile29_55.png" preserveAspectRatio="none" x="13430.786133" y="-3406.860352" width="1.098633" height="1.098633"/>
<image xlink:href="tile29_53.png" preserveAspectRatio="none" x="13430.786133" y="-3409.057617" width="1.098633" height="1.098633"/>
<image xlink:href="tile29_52.png" preserveAspectRatio="none" x="13430.786133" y="-3410.15625" width="1.098633" height="1.098633"/>
<image xlink:href="tile30_55.png" preserveAspectRatio="none" x="13431.884766" y="-3406.860352" width="1.098633" height="1.098633"/>
<image xlink:href="tile30_54.png" preserveAspectRatio="none" x="13431.884766" y="-3407.958984" width="1.098633" height="1.098633"/>
<image xlink:href="tile30_53.png" preserveAspectRatio="none" x="13431.884766" y="-3409.057617" width="1.098633" height="1.098633"/>
<image xlink:href="tile30_52.png" preserveAspectRatio="none" x="13431.884766" y="-3410.15625" width="1.098633" height="1.098633"/>
<image xlink:href="tile31_55.png" preserveAspectRatio="none" x="13432.983398" y="-3406.860352" width="1.098633" height="1.098633"/>
<image xlink:href="tile31_54.png" preserveAspectRatio="none" x="13432.983398" y="-3407.958984" width="1.098633" height="1.098633"/>
<image xlink:href="tile31_53.png" preserveAspectRatio="none" x="13432.983398" y="-3409.057617" width="1.098633" height="1.098633"/>
<image xlink:href="tile31_52.png" preserveAspectRatio="none" x="13432.983398" y="-3410.15625" width="1.098633" height="1.098633"/>
</g>
</svg>
