<?xml version="1.0" encoding="UTF-8"?>
<svg  xmlns="http://www.w3.org/2000/svg" xmlns:xlink="http://www.w3.org/1999/xlink" xmlns:go="http://purl.org/svgmap/profile" viewBox="13800.0 -3533.016659 100.0 66.34999229999963" go:dataArea="13800.0 -3533.016659 100.0 66.34999229999963" >
<metadata>
 <rdf:RDF xmlns:rdf="http://www.w3.org/1999/02/22-rdf-syntax-ns#" xmlns:crs="http://opengis.org/xmldtds/transformations.dtd" xmlns:svg="http://www.w3.org/svg" >
  <rdf:Description>
   <crs:CoordinateReferenceSystem rdf:resource="http://purl.org/crs/84" svg:transform="matrix(100.0,0.0,0.0,-100.0,0.0,0.0)" />
  </rdf:Description>
 </rdf:RDF>
</metadata>
<globalCoordinateSystem srsName="http://purl.org/crs/84" transform="matrix(100.0,0.0,0.0,-100.0,0.0,0.0)" />
<g >
<image xlink:href="tile64_17.png" preserveAspectRatio="none" x="13870.239258" y="-3514.526367" width="1.098633" height="1.098633"/>
<image xlink:href="tile64_16.png" preserveAspectRatio="none" x="13870.239258" y="-3515.625" width="1.098633" height="1.098633"/>
<image xlink:href="tile64_15.png" preserveAspectRatio="none" x="13870.239258" y="-3516.723633" width="1.098633" height="1.098633"/>
<image xlink:href="tile65_17.png" preserveAspectRatio="none" x="13871.337891" y="-3514.526367" width="1.098633" height="1.098633"/>
<image xlink:href="tile65_16.png" preserveAspectRatio="none" x="13871.337891" y="-3515.625" width="1.098633" height="1.098633"/>
<image xlink:href="tile65_15.png" preserveAspectRatio="none" x="13871.337891" y="-3516.723633" width="1.098633" height="1.098633"/>
<image xlink:href="tile65_14.png" preserveAspectRatio="none" x="13871.337891" y="-3517.822266" width="1.098633" height="1.098633"/>
<image xlink:href="tile65_13.png" preserveAspectRatio="none" x="13871.337891" y="-3518.920898" width="1.098633" height="1.098633"/>
<image xlink:href="tile66_17.png" preserveAspectRatio="none" x="13872.436523" y="-3514.526367" width="1.098633" height="1.098633"/>
<image xlink:href="tile66_16.png" preserveAspectRatio="none" x="13872.436523" y="-3515.625" width="1.098633" height="1.098633"/>
<image xlink:href="tile66_15.png" preserveAspectRatio="none" x="13872.436523" y="-3516.723633" width="1.098633" height="1.098633"/>
<image xlink:href="tile66_14.png" preserveAspectRatio="none" x="13872.436523" y="-3517.822266" width="1.098633" height="1.098633"/>
<image xlink:href="tile66_13.png" preserveAspectRatio="none" x="13872.436523" y="-3518.920898" width="1.098633" height="1.098633"/>
<image xlink:href="tile67_17.png" preserveAspectRatio="none" x="13873.535156" y="-3514.526367" width="1.098633" height="1.098633"/>
<image xlink:href="tile67_16.png" preserveAspectRatio="none" x="13873.535156" y="-3515.625" width="1.098633" height="1.098633"/>
<image xlink:href="tile68_18.png" preserveAspectRatio="none" x="13874.633789" y="-3513.427734" width="1.098633" height="1.098633"/>
<image xlink:href="tile68_17.png" preserveAspectRatio="none" x="13874.633789" y="-3514.526367" width="1.098633" height="1.098633"/>
<image xlink:href="tile68_16.png" preserveAspectRatio="none" x="13874.633789" y="-3515.625" width="1.098633" height="1.098633"/>
<image xlink:href="tile68_15.png" preserveAspectRatio="none" x="13874.633789" y="-3516.723633" width="1.098633" height="1.098633"/>
<image xlink:href="tile69_18.png" preserveAspectRatio="none" x="13875.732422" y="-3513.427734" width="1.098633" height="1.098633"/>
<image xlink:href="tile69_17.png" preserveAspectRatio="none" x="13875.732422" y="-3514.526367" width="1.098633" height="1.098633"/>
<image xlink:href="tile69_16.png" preserveAspectRatio="none" x="13875.732422" y="-3515.625" width="1.098633" height="1.098633"/>
<image xlink:href="tile70_18.png" preserveAspectRatio="none" x="13876.831055" y="-3513.427734" width="1.098633" height="1.098633"/>
<image xlink:href="tile70_17.png" preserveAspectRatio="none" x="13876.831055" y="-3514.526367" width="1.098633" height="1.098633"/>
<image xlink:href="tile70_16.png" preserveAspectRatio="none" x="13876.831055" y="-3515.625" width="1.098633" height="1.098633"/>
<image xlink:href="tile71_18.png" preserveAspectRatio="none" x="13877.929688" y="-3513.427734" width="1.098633" height="1.098633"/>
<image xlink:href="tile71_17.png" preserveAspectRatio="none" x="13877.929688" y="-3514.526367" width="1.098633" height="1.098633"/>
<image xlink:href="tile71_16.png" preserveAspectRatio="none" x="13877.929688" y="-3515.625" width="1.098633" height="1.098633"/>
<image xlink:href="tile72_18.png" preserveAspectRatio="none" x="13879.02832" y="-3513.427734" width="1.098633" height="1.098633"/>
<image xlink:href="tile72_17.png" preserveAspectRatio="none" x="13879.02832" y="-3514.526367" width="1.098633" height="1.098633"/>
<image xlink:href="tile72_16.png" preserveAspectRatio="none" x="13879.02832" y="-3515.625" width="1.098633" height="1.098633"/>
<image xlink:href="tile73_19.png" preserveAspectRatio="none" x="13880.126953" y="-3512.329102" width="1.098633" height="1.098633"/>
<image xlink:href="tile73_18.png" preserveAspectRatio="none" x="13880.126953" y="-3513.427734" width="1.098633" height="1.098633"/>
<image xlink:href="tile73_17.png" preserveAspectRatio="none" x="13880.126953" y="-3514.526367" width="1.098633" height="1.098633"/>
<image xlink:href="tile74_19.png" preserveAspectRatio="none" x="13881.225586" y="-3512.329102" width="1.098633" height="1.098633"/>
<image xlink:href="tile74_18.png" preserveAspectRatio="none" x="13881.225586" y="-3513.427734" width="1.098633" height="1.098633"/>
<image xlink:href="tile74_17.png" preserveAspectRatio="none" x="13881.225586" y="-3514.526367" width="1.098633" height="1.098633"/>
<image xlink:href="tile74_16.png" preserveAspectRatio="none" x="13881.225586" y="-3515.625" width="1.098633" height="1.098633"/>
<image xlink:href="tile75_20.png" preserveAspectRatio="none" x="13882.324219" y="-3511.230469" width="1.098633" height="1.098633"/>
<image xlink:href="tile75_19.png" preserveAspectRatio="none" x="13882.324219" y="-3512.329102" width="1.098633" height="1.098633"/>
<image xlink:href="tile75_18.png" preserveAspectRatio="none" x="13882.324219" y="-3513.427734" width="1.098633" height="1.098633"/>
<image xlink:href="tile75_16.png" preserveAspectRatio="none" x="13882.324219" y="-3515.625" width="1.098633" height="1.098633"/>
<image xlink:href="tile75_15.png" preserveAspectRatio="none" x="13882.324219" y="-3516.723633" width="1.098633" height="1.098633"/>
<image xlink:href="tile76_21.png" preserveAspectRatio="none" x="13883.422852" y="-3510.131836" width="1.098633" height="1.098633"/>
<image xlink:href="tile76_20.png" preserveAspectRatio="none" x="13883.422852" y="-3511.230469" width="1.098633" height="1.098633"/>
<image xlink:href="tile76_19.png" preserveAspectRatio="none" x="13883.422852" y="-3512.329102" width="1.098633" height="1.098633"/>
<image xlink:href="tile77_23.png" preserveAspectRatio="none" x="13884.521484" y="-3507.93457" width="1.098633" height="1.098633"/>
<image xlink:href="tile77_22.png" preserveAspectRatio="none" x="13884.521484" y="-3509.033203" width="1.098633" height="1.098633"/>
<image xlink:href="tile77_21.png" preserveAspectRatio="none" x="13884.521484" y="-3510.131836" width="1.098633" height="1.098633"/>
<image xlink:href="tile77_20.png" preserveAspectRatio="none" x="13884.521484" y="-3511.230469" width="1.098633" height="1.098633"/>
<image xlink:href="tile77_19.png" preserveAspectRatio="none" x="13884.521484" y="-3512.329102" width="1.098633" height="1.098633"/>
<image xlink:href="tile78_23.png" preserveAspectRatio="none" x="13885.620117" y="-3507.93457" width="1.098633" height="1.098633"/>
<image xlink:href="tile78_22.png" preserveAspectRatio="none" x="13885.620117" y="-3509.033203" width="1.098633" height="1.098633"/>
<image xlink:href="tile78_21.png" preserveAspectRatio="none" x="13885.620117" y="-3510.131836" width="1.098633" height="1.098633"/>
<image xlink:href="tile78_20.png" preserveAspectRatio="none" x="13885.620117" y="-3511.230469" width="1.098633" height="1.098633"/>
<image xlink:href="tile78_19.png" preserveAspectRatio="none" x="13885.620117" y="-3512.329102" width="1.098633" height="1.098633"/>
<image xlink:href="tile79_24.png" preserveAspectRatio="none" x="13886.71875" y="-3506.835938" width="1.098633" height="1.098633"/>
<image xlink:href="tile79_23.png" preserveAspectRatio="none" x="13886.71875" y="-3507.93457" width="1.098633" height="1.098633"/>
<image xlink:href="tile79_22.png" preserveAspectRatio="none" x="13886.71875" y="-3509.033203" width="1.098633" height="1.098633"/>
<image xlink:href="tile79_21.png" preserveAspectRatio="none" x="13886.71875" y="-3510.131836" width="1.098633" height="1.098633"/>
<image xlink:href="tile79_20.png" preserveAspectRatio="none" x="13886.71875" y="-3511.230469" width="1.098633" height="1.098633"/>
</g>
</svg>
