<?xml version="1.0" encoding="UTF-8"?>
<svg  xmlns="http://www.w3.org/2000/svg" xmlns:xlink="http://www.w3.org/1999/xlink" xmlns:go="http://purl.org/svgmap/profile" viewBox="13800.0 -3533.016659 100.0 66.34999229999963" go:dataArea="13800.0 -3533.016659 100.0 66.34999229999963" >
<metadata>
 <rdf:RDF xmlns:rdf="http://www.w3.org/1999/02/22-rdf-syntax-ns#" xmlns:crs="http://opengis.org/xmldtds/transformations.dtd" xmlns:svg="http://www.w3.org/svg" >
  <rdf:Description>
   <crs:CoordinateReferenceSystem rdf:resource="http://purl.org/crs/84" svg:transform="matrix(100.0,0.0,0.0,-100.0,0.0,0.0)" />
  </rdf:Description>
 </rdf:RDF>
</metadata>
<globalCoordinateSystem srsName="http://purl.org/crs/84" transform="matrix(100.0,0.0,0.0,-100.0,0.0,0.0)" />
<g >
<image xlink:href="tile16_44.png" preserveAspectRatio="none" x="13817.504883" y="-3484.863281" width="1.098633" height="1.098633"/>
<image xlink:href="tile16_43.png" preserveAspectRatio="none" x="13817.504883" y="-3485.961914" width="1.098633" height="1.098633"/>
<image xlink:href="tile16_42.png" preserveAspectRatio="none" x="13817.504883" y="-3487.060547" width="1.098633" height="1.098633"/>
<image xlink:href="tile16_41.png" preserveAspectRatio="none" x="13817.504883" y="-3488.15918" width="1.098633" height="1.098633"/>
<image xlink:href="tile17_44.png" preserveAspectRatio="none" x="13818.603516" y="-3484.863281" width="1.098633" height="1.098633"/>
<image xlink:href="tile17_43.png" preserveAspectRatio="none" x="13818.603516" y="-3485.961914" width="1.098633" height="1.098633"/>
<image xlink:href="tile18_44.png" preserveAspectRatio="none" x="13819.702148" y="-3484.863281" width="1.098633" height="1.098633"/>
<image xlink:href="tile18_43.png" preserveAspectRatio="none" x="13819.702148" y="-3485.961914" width="1.098633" height="1.098633"/>
<image xlink:href="tile18_39.png" preserveAspectRatio="none" x="13819.702148" y="-3490.356445" width="1.098633" height="1.098633"/>
<image xlink:href="tile19_44.png" preserveAspectRatio="none" x="13820.800781" y="-3484.863281" width="1.098633" height="1.098633"/>
<image xlink:href="tile19_41.png" preserveAspectRatio="none" x="13820.800781" y="-3488.15918" width="1.098633" height="1.098633"/>
<image xlink:href="tile19_40.png" preserveAspectRatio="none" x="13820.800781" y="-3489.257812" width="1.098633" height="1.098633"/>
<image xlink:href="tile19_39.png" preserveAspectRatio="none" x="13820.800781" y="-3490.356445" width="1.098633" height="1.098633"/>
<image xlink:href="tile20_44.png" preserveAspectRatio="none" x="13821.899414" y="-3484.863281" width="1.098633" height="1.098633"/>
<image xlink:href="tile20_42.png" preserveAspectRatio="none" x="13821.899414" y="-3487.060547" width="1.098633" height="1.098633"/>
<image xlink:href="tile20_41.png" preserveAspectRatio="none" x="13821.899414" y="-3488.15918" width="1.098633" height="1.098633"/>
<image xlink:href="tile20_40.png" preserveAspectRatio="none" x="13821.899414" y="-3489.257812" width="1.098633" height="1.098633"/>
<image xlink:href="tile20_39.png" preserveAspectRatio="none" x="13821.899414" y="-3490.356445" width="1.098633" height="1.098633"/>
<image xlink:href="tile21_44.png" preserveAspectRatio="none" x="13822.998047" y="-3484.863281" width="1.098633" height="1.098633"/>
<image xlink:href="tile21_43.png" preserveAspectRatio="none" x="13822.998047" y="-3485.961914" width="1.098633" height="1.098633"/>
<image xlink:href="tile21_42.png" preserveAspectRatio="none" x="13822.998047" y="-3487.060547" width="1.098633" height="1.098633"/>
<image xlink:href="tile21_41.png" preserveAspectRatio="none" x="13822.998047" y="-3488.15918" width="1.098633" height="1.098633"/>
<image xlink:href="tile21_39.png" preserveAspectRatio="none" x="13822.998047" y="-3490.356445" width="1.098633" height="1.098633"/>
<image xlink:href="tile22_44.png" preserveAspectRatio="none" x="13824.09668" y="-3484.863281" width="1.098633" height="1.098633"/>
<image xlink:href="tile22_43.png" preserveAspectRatio="none" x="13824.09668" y="-3485.961914" width="1.098633" height="1.098633"/>
<image xlink:href="tile22_42.png" preserveAspectRatio="none" x="13824.09668" y="-3487.060547" width="1.098633" height="1.098633"/>
<image xlink:href="tile22_41.png" preserveAspectRatio="none" x="13824.09668" y="-3488.15918" width="1.098633" height="1.098633"/>
<image xlink:href="tile22_40.png" preserveAspectRatio="none" x="13824.09668" y="-3489.257812" width="1.098633" height="1.098633"/>
<image xlink:href="tile22_39.png" preserveAspectRatio="none" x="13824.09668" y="-3490.356445" width="1.098633" height="1.098633"/>
<image xlink:href="tile22_38.png" preserveAspectRatio="none" x="13824.09668" y="-3491.455078" width="1.098633" height="1.098633"/>
<image xlink:href="tile22_34.png" preserveAspectRatio="none" x="13824.09668" y="-3495.849609" width="1.098633" height="1.098633"/>
<image xlink:href="tile23_44.png" preserveAspectRatio="none" x="13825.195312" y="-3484.863281" width="1.098633" height="1.098633"/>
<image xlink:href="tile23_43.png" preserveAspectRatio="none" x="13825.195312" y="-3485.961914" width="1.098633" height="1.098633"/>
<image xlink:href="tile23_42.png" preserveAspectRatio="none" x="13825.195312" y="-3487.060547" width="1.098633" height="1.098633"/>
<image xlink:href="tile23_41.png" preserveAspectRatio="none" x="13825.195312" y="-3488.15918" width="1.098633" height="1.098633"/>
<image xlink:href="tile23_40.png" preserveAspectRatio="none" x="13825.195312" y="-3489.257812" width="1.098633" height="1.098633"/>
<image xlink:href="tile23_39.png" preserveAspectRatio="none" x="13825.195312" y="-3490.356445" width="1.098633" height="1.098633"/>
<image xlink:href="tile23_38.png" preserveAspectRatio="none" x="13825.195312" y="-3491.455078" width="1.098633" height="1.098633"/>
<image xlink:href="tile23_37.png" preserveAspectRatio="none" x="13825.195312" y="-3492.553711" width="1.098633" height="1.098633"/>
<image xlink:href="tile23_36.png" preserveAspectRatio="none" x="13825.195312" y="-3493.652344" width="1.098633" height="1.098633"/>
<image xlink:href="tile23_35.png" preserveAspectRatio="none" x="13825.195312" y="-3494.750977" width="1.098633" height="1.098633"/>
<image xlink:href="tile23_34.png" preserveAspectRatio="none" x="13825.195312" y="-3495.849609" width="1.098633" height="1.098633"/>
<image xlink:href="tile24_44.png" preserveAspectRatio="none" x="13826.293945" y="-3484.863281" width="1.098633" height="1.098633"/>
<image xlink:href="tile24_43.png" preserveAspectRatio="none" x="13826.293945" y="-3485.961914" width="1.098633" height="1.098633"/>
<image xlink:href="tile24_42.png" preserveAspectRatio="none" x="13826.293945" y="-3487.060547" width="1.098633" height="1.098633"/>
<image xlink:href="tile24_41.png" preserveAspectRatio="none" x="13826.293945" y="-3488.15918" width="1.098633" height="1.098633"/>
<image xlink:href="tile24_40.png" preserveAspectRatio="none" x="13826.293945" y="-3489.257812" width="1.098633" height="1.098633"/>
<image xlink:href="tile24_39.png" preserveAspectRatio="none" x="13826.293945" y="-3490.356445" width="1.098633" height="1.098633"/>
<image xlink:href="tile24_38.png" preserveAspectRatio="none" x="13826.293945" y="-3491.455078" width="1.098633" height="1.098633"/>
<image xlink:href="tile24_37.png" preserveAspectRatio="none" x="13826.293945" y="-3492.553711" width="1.098633" height="1.098633"/>
<image xlink:href="tile24_36.png" preserveAspectRatio="none" x="13826.293945" y="-3493.652344" width="1.098633" height="1.098633"/>
<image xlink:href="tile24_35.png" preserveAspectRatio="none" x="13826.293945" y="-3494.750977" width="1.098633" height="1.098633"/>
<image xlink:href="tile24_29.png" preserveAspectRatio="none" x="13826.293945" y="-3501.342773" width="1.098633" height="1.098633"/>
<image xlink:href="tile25_44.png" preserveAspectRatio="none" x="13827.392578" y="-3484.863281" width="1.098633" height="1.098633"/>
<image xlink:href="tile25_43.png" preserveAspectRatio="none" x="13827.392578" y="-3485.961914" width="1.098633" height="1.098633"/>
<image xlink:href="tile25_42.png" preserveAspectRatio="none" x="13827.392578" y="-3487.060547" width="1.098633" height="1.098633"/>
<image xlink:href="tile25_41.png" preserveAspectRatio="none" x="13827.392578" y="-3488.15918" width="1.098633" height="1.098633"/>
<image xlink:href="tile25_40.png" preserveAspectRatio="none" x="13827.392578" y="-3489.257812" width="1.098633" height="1.098633"/>
<image xlink:href="tile25_39.png" preserveAspectRatio="none" x="13827.392578" y="-3490.356445" width="1.098633" height="1.098633"/>
<image xlink:href="tile25_38.png" preserveAspectRatio="none" x="13827.392578" y="-3491.455078" width="1.098633" height="1.098633"/>
<image xlink:href="tile25_36.png" preserveAspectRatio="none" x="13827.392578" y="-3493.652344" width="1.098633" height="1.098633"/>
<image xlink:href="tile25_29.png" preserveAspectRatio="none" x="13827.392578" y="-3501.342773" width="1.098633" height="1.098633"/>
<image xlink:href="tile26_44.png" preserveAspectRatio="none" x="13828.491211" y="-3484.863281" width="1.098633" height="1.098633"/>
<image xlink:href="tile26_43.png" preserveAspectRatio="none" x="13828.491211" y="-3485.961914" width="1.098633" height="1.098633"/>
<image xlink:href="tile26_42.png" preserveAspectRatio="none" x="13828.491211" y="-3487.060547" width="1.098633" height="1.098633"/>
<image xlink:href="tile26_41.png" preserveAspectRatio="none" x="13828.491211" y="-3488.15918" width="1.098633" height="1.098633"/>
<image xlink:href="tile26_40.png" preserveAspectRatio="none" x="13828.491211" y="-3489.257812" width="1.098633" height="1.098633"/>
<image xlink:href="tile26_39.png" preserveAspectRatio="none" x="13828.491211" y="-3490.356445" width="1.098633" height="1.098633"/>
<image xlink:href="tile26_38.png" preserveAspectRatio="none" x="13828.491211" y="-3491.455078" width="1.098633" height="1.098633"/>
<image xlink:href="tile26_30.png" preserveAspectRatio="none" x="13828.491211" y="-3500.244141" width="1.098633" height="1.098633"/>
<image xlink:href="tile26_29.png" preserveAspectRatio="none" x="13828.491211" y="-3501.342773" width="1.098633" height="1.098633"/>
<image xlink:href="tile27_44.png" preserveAspectRatio="none" x="13829.589844" y="-3484.863281" width="1.098633" height="1.098633"/>
<image xlink:href="tile27_43.png" preserveAspectRatio="none" x="13829.589844" y="-3485.961914" width="1.098633" height="1.098633"/>
<image xlink:href="tile27_42.png" preserveAspectRatio="none" x="13829.589844" y="-3487.060547" width="1.098633" height="1.098633"/>
<image xlink:href="tile27_41.png" preserveAspectRatio="none" x="13829.589844" y="-3488.15918" width="1.098633" height="1.098633"/>
<image xlink:href="tile27_40.png" preserveAspectRatio="none" x="13829.589844" y="-3489.257812" width="1.098633" height="1.098633"/>
<image xlink:href="tile27_39.png" preserveAspectRatio="none" x="13829.589844" y="-3490.356445" width="1.098633" height="1.098633"/>
<image xlink:href="tile27_32.png" preserveAspectRatio="none" x="13829.589844" y="-3498.046875" width="1.098633" height="1.098633"/>
<image xlink:href="tile27_31.png" preserveAspectRatio="none" x="13829.589844" y="-3499.145508" width="1.098633" height="1.098633"/>
<image xlink:href="tile27_30.png" preserveAspectRatio="none" x="13829.589844" y="-3500.244141" width="1.098633" height="1.098633"/>
<image xlink:href="tile28_44.png" preserveAspectRatio="none" x="13830.688477" y="-3484.863281" width="1.098633" height="1.098633"/>
<image xlink:href="tile28_43.png" preserveAspectRatio="none" x="13830.688477" y="-3485.961914" width="1.098633" height="1.098633"/>
<image xlink:href="tile28_42.png" preserveAspectRatio="none" x="13830.688477" y="-3487.060547" width="1.098633" height="1.098633"/>
<image xlink:href="tile28_41.png" preserveAspectRatio="none" x="13830.688477" y="-3488.15918" width="1.098633" height="1.098633"/>
<image xlink:href="tile28_40.png" preserveAspectRatio="none" x="13830.688477" y="-3489.257812" width="1.098633" height="1.098633"/>
<image xlink:href="tile28_32.png" preserveAspectRatio="none" x="13830.688477" y="-3498.046875" width="1.098633" height="1.098633"/>
<image xlink:href="tile28_31.png" preserveAspectRatio="none" x="13830.688477" y="-3499.145508" width="1.098633" height="1.098633"/>
<image xlink:href="tile29_44.png" preserveAspectRatio="none" x="13831.787109" y="-3484.863281" width="1.098633" height="1.098633"/>
<image xlink:href="tile29_43.png" preserveAspectRatio="none" x="13831.787109" y="-3485.961914" width="1.098633" height="1.098633"/>
<image xlink:href="tile29_42.png" preserveAspectRatio="none" x="13831.787109" y="-3487.060547" width="1.098633" height="1.098633"/>
<image xlink:href="tile29_41.png" preserveAspectRatio="none" x="13831.787109" y="-3488.15918" width="1.098633" height="1.098633"/>
<image xlink:href="tile29_40.png" preserveAspectRatio="none" x="13831.787109" y="-3489.257812" width="1.098633" height="1.098633"/>
<image xlink:href="tile29_39.png" preserveAspectRatio="none" x="13831.787109" y="-3490.356445" width="1.098633" height="1.098633"/>
<image xlink:href="tile29_35.png" preserveAspectRatio="none" x="13831.787109" y="-3494.750977" width="1.098633" height="1.098633"/>
<image xlink:href="tile29_34.png" preserveAspectRatio="none" x="13831.787109" y="-3495.849609" width="1.098633" height="1.098633"/>
<image xlink:href="tile29_32.png" preserveAspectRatio="none" x="13831.787109" y="-3498.046875" width="1.098633" height="1.098633"/>
<image xlink:href="tile29_31.png" preserveAspectRatio="none" x="13831.787109" y="-3499.145508" width="1.098633" height="1.098633"/>
<image xlink:href="tile30_44.png" preserveAspectRatio="none" x="13832.885742" y="-3484.863281" width="1.098633" height="1.098633"/>
<image xlink:href="tile30_41.png" preserveAspectRatio="none" x="13832.885742" y="-3488.15918" width="1.098633" height="1.098633"/>
<image xlink:href="tile30_40.png" preserveAspectRatio="none" x="13832.885742" y="-3489.257812" width="1.098633" height="1.098633"/>
<image xlink:href="tile30_39.png" preserveAspectRatio="none" x="13832.885742" y="-3490.356445" width="1.098633" height="1.098633"/>
<image xlink:href="tile30_35.png" preserveAspectRatio="none" x="13832.885742" y="-3494.750977" width="1.098633" height="1.098633"/>
<image xlink:href="tile30_34.png" preserveAspectRatio="none" x="13832.885742" y="-3495.849609" width="1.098633" height="1.098633"/>
<image xlink:href="tile30_32.png" preserveAspectRatio="none" x="13832.885742" y="-3498.046875" width="1.098633" height="1.098633"/>
<image xlink:href="tile30_31.png" preserveAspectRatio="none" x="13832.885742" y="-3499.145508" width="1.098633" height="1.098633"/>
<image xlink:href="tile31_35.png" preserveAspectRatio="none" x="13833.984375" y="-3494.750977" width="1.098633" height="1.098633"/>
<image xlink:href="tile31_34.png" preserveAspectRatio="none" x="13833.984375" y="-3495.849609" width="1.098633" height="1.098633"/>
<image xlink:href="tile31_33.png" preserveAspectRatio="none" x="13833.984375" y="-3496.948242" width="1.098633" height="1.098633"/>
<image xlink:href="tile31_32.png" preserveAspectRatio="none" x="13833.984375" y="-3498.046875" width="1.098633" height="1.098633"/>
<image xlink:href="tile31_31.png" preserveAspectRatio="none" x="13833.984375" y="-3499.145508" width="1.098633" height="1.098633"/>
<image xlink:href="tile31_30.png" preserveAspectRatio="none" x="13833.984375" y="-3500.244141" width="1.098633" height="1.098633"/>
<image xlink:href="tile31_29.png" preserveAspectRatio="none" x="13833.984375" y="-3501.342773" width="1.098633" height="1.098633"/>
</g>
</svg>
