<?xml version="1.0" encoding="UTF-8"?>
<svg  xmlns="http://www.w3.org/2000/svg" xmlns:xlink="http://www.w3.org/1999/xlink" xmlns:go="http://purl.org/svgmap/profile" viewBox="13800.0 -3533.016659 100.0 66.34999229999963" go:dataArea="13800.0 -3533.016659 100.0 66.34999229999963" >
<metadata>
 <rdf:RDF xmlns:rdf="http://www.w3.org/1999/02/22-rdf-syntax-ns#" xmlns:crs="http://opengis.org/xmldtds/transformations.dtd" xmlns:svg="http://www.w3.org/svg" >
  <rdf:Description>
   <crs:CoordinateReferenceSystem rdf:resource="http://purl.org/crs/84" svg:transform="matrix(100.0,0.0,0.0,-100.0,0.0,0.0)" />
  </rdf:Description>
 </rdf:RDF>
</metadata>
<globalCoordinateSystem srsName="http://purl.org/crs/84" transform="matrix(100.0,0.0,0.0,-100.0,0.0,0.0)" />
<g >
<image xlink:href="tile40_3.png" preserveAspectRatio="none" x="13843.87207" y="-3529.907227" width="1.098633" height="1.098633"/>
<image xlink:href="tile40_2.png" preserveAspectRatio="none" x="13843.87207" y="-3531.005859" width="1.098633" height="1.098633"/>
<image xlink:href="tile40_0.png" preserveAspectRatio="none" x="13843.87207" y="-3533.203125" width="1.098633" height="1.098633"/>
<image xlink:href="tile41_5.png" preserveAspectRatio="none" x="13844.970703" y="-3527.709961" width="1.098633" height="1.098633"/>
<image xlink:href="tile41_4.png" preserveAspectRatio="none" x="13844.970703" y="-3528.808594" width="1.098633" height="1.098633"/>
<image xlink:href="tile41_3.png" preserveAspectRatio="none" x="13844.970703" y="-3529.907227" width="1.098633" height="1.098633"/>
<image xlink:href="tile41_2.png" preserveAspectRatio="none" x="13844.970703" y="-3531.005859" width="1.098633" height="1.098633"/>
<image xlink:href="tile41_1.png" preserveAspectRatio="none" x="13844.970703" y="-3532.104492" width="1.098633" height="1.098633"/>
<image xlink:href="tile41_0.png" preserveAspectRatio="none" x="13844.970703" y="-3533.203125" width="1.098633" height="1.098633"/>
<image xlink:href="tile42_6.png" preserveAspectRatio="none" x="13846.069336" y="-3526.611328" width="1.098633" height="1.098633"/>
<image xlink:href="tile42_5.png" preserveAspectRatio="none" x="13846.069336" y="-3527.709961" width="1.098633" height="1.098633"/>
<image xlink:href="tile42_4.png" preserveAspectRatio="none" x="13846.069336" y="-3528.808594" width="1.098633" height="1.098633"/>
<image xlink:href="tile43_9.png" preserveAspectRatio="none" x="13847.167969" y="-3523.31543" width="1.098633" height="1.098633"/>
<image xlink:href="tile43_8.png" preserveAspectRatio="none" x="13847.167969" y="-3524.414062" width="1.098633" height="1.098633"/>
<image xlink:href="tile43_7.png" preserveAspectRatio="none" x="13847.167969" y="-3525.512695" width="1.098633" height="1.098633"/>
<image xlink:href="tile43_6.png" preserveAspectRatio="none" x="13847.167969" y="-3526.611328" width="1.098633" height="1.098633"/>
<image xlink:href="tile44_8.png" preserveAspectRatio="none" x="13848.266602" y="-3524.414062" width="1.098633" height="1.098633"/>
<image xlink:href="tile44_7.png" preserveAspectRatio="none" x="13848.266602" y="-3525.512695" width="1.098633" height="1.098633"/>
<image xlink:href="tile45_8.png" preserveAspectRatio="none" x="13849.365234" y="-3524.414062" width="1.098633" height="1.098633"/>
<image xlink:href="tile46_9.png" preserveAspectRatio="none" x="13850.463867" y="-3523.31543" width="1.098633" height="1.098633"/>
<image xlink:href="tile46_8.png" preserveAspectRatio="none" x="13850.463867" y="-3524.414062" width="1.098633" height="1.098633"/>
<image xlink:href="tile47_10.png" preserveAspectRatio="none" x="13851.5625" y="-3522.216797" width="1.098633" height="1.098633"/>
<image xlink:href="tile47_9.png" preserveAspectRatio="none" x="13851.5625" y="-3523.31543" width="1.098633" height="1.098633"/>
</g>
</svg>
