<?xml version="1.0" encoding="UTF-8"?>
<svg  xmlns="http://www.w3.org/2000/svg" xmlns:xlink="http://www.w3.org/1999/xlink" xmlns:go="http://purl.org/svgmap/profile" viewBox="13600.0 -3466.666667 85.83749999999952 56.56246699999983" go:dataArea="13600.0 -3466.666667 85.83749999999952 56.56246699999983" >
<metadata>
 <rdf:RDF xmlns:rdf="http://www.w3.org/1999/02/22-rdf-syntax-ns#" xmlns:crs="http://opengis.org/xmldtds/transformations.dtd" xmlns:svg="http://www.w3.org/svg" >
  <rdf:Description>
   <crs:CoordinateReferenceSystem rdf:resource="http://purl.org/crs/84" svg:transform="matrix(100.0,0.0,0.0,-100.0,0.0,0.0)" />
  </rdf:Description>
 </rdf:RDF>
</metadata>
<globalCoordinateSystem srsName="http://purl.org/crs/84" transform="matrix(100.0,0.0,0.0,-100.0,0.0,0.0)" />
<g >
<image xlink:href="tile50_21.png" preserveAspectRatio="none" x="13654.907227" y="-3444.213867" width="1.098633" height="1.098633"/>
<image xlink:href="tile51_23.png" preserveAspectRatio="none" x="13656.005859" y="-3442.016602" width="1.098633" height="1.098633"/>
<image xlink:href="tile51_22.png" preserveAspectRatio="none" x="13656.005859" y="-3443.115234" width="1.098633" height="1.098633"/>
<image xlink:href="tile51_21.png" preserveAspectRatio="none" x="13656.005859" y="-3444.213867" width="1.098633" height="1.098633"/>
<image xlink:href="tile52_23.png" preserveAspectRatio="none" x="13657.104492" y="-3442.016602" width="1.098633" height="1.098633"/>
<image xlink:href="tile52_22.png" preserveAspectRatio="none" x="13657.104492" y="-3443.115234" width="1.098633" height="1.098633"/>
<image xlink:href="tile53_22.png" preserveAspectRatio="none" x="13658.203125" y="-3443.115234" width="1.098633" height="1.098633"/>
<image xlink:href="tile53_21.png" preserveAspectRatio="none" x="13658.203125" y="-3444.213867" width="1.098633" height="1.098633"/>
<image xlink:href="tile54_22.png" preserveAspectRatio="none" x="13659.301758" y="-3443.115234" width="1.098633" height="1.098633"/>
<image xlink:href="tile54_21.png" preserveAspectRatio="none" x="13659.301758" y="-3444.213867" width="1.098633" height="1.098633"/>
<image xlink:href="tile55_23.png" preserveAspectRatio="none" x="13660.400391" y="-3442.016602" width="1.098633" height="1.098633"/>
<image xlink:href="tile55_22.png" preserveAspectRatio="none" x="13660.400391" y="-3443.115234" width="1.098633" height="1.098633"/>
<image xlink:href="tile55_21.png" preserveAspectRatio="none" x="13660.400391" y="-3444.213867" width="1.098633" height="1.098633"/>
<image xlink:href="tile56_23.png" preserveAspectRatio="none" x="13661.499023" y="-3442.016602" width="1.098633" height="1.098633"/>
<image xlink:href="tile56_22.png" preserveAspectRatio="none" x="13661.499023" y="-3443.115234" width="1.098633" height="1.098633"/>
<image xlink:href="tile56_21.png" preserveAspectRatio="none" x="13661.499023" y="-3444.213867" width="1.098633" height="1.098633"/>
<image xlink:href="tile57_23.png" preserveAspectRatio="none" x="13662.597656" y="-3442.016602" width="1.098633" height="1.098633"/>
<image xlink:href="tile57_22.png" preserveAspectRatio="none" x="13662.597656" y="-3443.115234" width="1.098633" height="1.098633"/>
<image xlink:href="tile57_21.png" preserveAspectRatio="none" x="13662.597656" y="-3444.213867" width="1.098633" height="1.098633"/>
<image xlink:href="tile58_21.png" preserveAspectRatio="none" x="13663.696289" y="-3444.213867" width="1.098633" height="1.098633"/>
<image xlink:href="tile59_21.png" preserveAspectRatio="none" x="13664.794922" y="-3444.213867" width="1.098633" height="1.098633"/>
<image xlink:href="tile60_21.png" preserveAspectRatio="none" x="13665.893555" y="-3444.213867" width="1.098633" height="1.098633"/>
</g>
</svg>
