<?xml version="1.0" encoding="UTF-8"?>
<svg  xmlns="http://www.w3.org/2000/svg" xmlns:xlink="http://www.w3.org/1999/xlink" xmlns:go="http://purl.org/svgmap/profile" viewBox="13600.0 -3466.666667 85.83749999999952 56.56246699999983" go:dataArea="13600.0 -3466.666667 85.83749999999952 56.56246699999983" >
<metadata>
 <rdf:RDF xmlns:rdf="http://www.w3.org/1999/02/22-rdf-syntax-ns#" xmlns:crs="http://opengis.org/xmldtds/transformations.dtd" xmlns:svg="http://www.w3.org/svg" >
  <rdf:Description>
   <crs:CoordinateReferenceSystem rdf:resource="http://purl.org/crs/84" svg:transform="matrix(100.0,0.0,0.0,-100.0,0.0,0.0)" />
  </rdf:Description>
 </rdf:RDF>
</metadata>
<globalCoordinateSystem srsName="http://purl.org/crs/84" transform="matrix(100.0,0.0,0.0,-100.0,0.0,0.0)" />
<g >
<image xlink:href="tile48_15.png" preserveAspectRatio="none" x="13652.709961" y="-3450.805664" width="1.098633" height="1.098633"/>
<image xlink:href="tile48_14.png" preserveAspectRatio="none" x="13652.709961" y="-3451.904297" width="1.098633" height="1.098633"/>
<image xlink:href="tile48_11.png" preserveAspectRatio="none" x="13652.709961" y="-3455.200195" width="1.098633" height="1.098633"/>
<image xlink:href="tile48_10.png" preserveAspectRatio="none" x="13652.709961" y="-3456.298828" width="1.098633" height="1.098633"/>
<image xlink:href="tile48_9.png" preserveAspectRatio="none" x="13652.709961" y="-3457.397461" width="1.098633" height="1.098633"/>
<image xlink:href="tile48_8.png" preserveAspectRatio="none" x="13652.709961" y="-3458.496094" width="1.098633" height="1.098633"/>
<image xlink:href="tile48_7.png" preserveAspectRatio="none" x="13652.709961" y="-3459.594727" width="1.098633" height="1.098633"/>
<image xlink:href="tile48_6.png" preserveAspectRatio="none" x="13652.709961" y="-3460.693359" width="1.098633" height="1.098633"/>
<image xlink:href="tile48_5.png" preserveAspectRatio="none" x="13652.709961" y="-3461.791992" width="1.098633" height="1.098633"/>
<image xlink:href="tile49_17.png" preserveAspectRatio="none" x="13653.808594" y="-3448.608398" width="1.098633" height="1.098633"/>
<image xlink:href="tile49_15.png" preserveAspectRatio="none" x="13653.808594" y="-3450.805664" width="1.098633" height="1.098633"/>
<image xlink:href="tile49_14.png" preserveAspectRatio="none" x="13653.808594" y="-3451.904297" width="1.098633" height="1.098633"/>
<image xlink:href="tile49_13.png" preserveAspectRatio="none" x="13653.808594" y="-3453.00293" width="1.098633" height="1.098633"/>
<image xlink:href="tile49_10.png" preserveAspectRatio="none" x="13653.808594" y="-3456.298828" width="1.098633" height="1.098633"/>
<image xlink:href="tile49_9.png" preserveAspectRatio="none" x="13653.808594" y="-3457.397461" width="1.098633" height="1.098633"/>
<image xlink:href="tile49_8.png" preserveAspectRatio="none" x="13653.808594" y="-3458.496094" width="1.098633" height="1.098633"/>
<image xlink:href="tile49_7.png" preserveAspectRatio="none" x="13653.808594" y="-3459.594727" width="1.098633" height="1.098633"/>
<image xlink:href="tile49_6.png" preserveAspectRatio="none" x="13653.808594" y="-3460.693359" width="1.098633" height="1.098633"/>
<image xlink:href="tile49_5.png" preserveAspectRatio="none" x="13653.808594" y="-3461.791992" width="1.098633" height="1.098633"/>
<image xlink:href="tile50_20.png" preserveAspectRatio="none" x="13654.907227" y="-3445.3125" width="1.098633" height="1.098633"/>
<image xlink:href="tile50_17.png" preserveAspectRatio="none" x="13654.907227" y="-3448.608398" width="1.098633" height="1.098633"/>
<image xlink:href="tile50_16.png" preserveAspectRatio="none" x="13654.907227" y="-3449.707031" width="1.098633" height="1.098633"/>
<image xlink:href="tile50_15.png" preserveAspectRatio="none" x="13654.907227" y="-3450.805664" width="1.098633" height="1.098633"/>
<image xlink:href="tile50_14.png" preserveAspectRatio="none" x="13654.907227" y="-3451.904297" width="1.098633" height="1.098633"/>
<image xlink:href="tile50_13.png" preserveAspectRatio="none" x="13654.907227" y="-3453.00293" width="1.098633" height="1.098633"/>
<image xlink:href="tile50_10.png" preserveAspectRatio="none" x="13654.907227" y="-3456.298828" width="1.098633" height="1.098633"/>
<image xlink:href="tile50_9.png" preserveAspectRatio="none" x="13654.907227" y="-3457.397461" width="1.098633" height="1.098633"/>
<image xlink:href="tile50_8.png" preserveAspectRatio="none" x="13654.907227" y="-3458.496094" width="1.098633" height="1.098633"/>
<image xlink:href="tile50_7.png" preserveAspectRatio="none" x="13654.907227" y="-3459.594727" width="1.098633" height="1.098633"/>
<image xlink:href="tile50_6.png" preserveAspectRatio="none" x="13654.907227" y="-3460.693359" width="1.098633" height="1.098633"/>
<image xlink:href="tile50_5.png" preserveAspectRatio="none" x="13654.907227" y="-3461.791992" width="1.098633" height="1.098633"/>
<image xlink:href="tile51_20.png" preserveAspectRatio="none" x="13656.005859" y="-3445.3125" width="1.098633" height="1.098633"/>
<image xlink:href="tile51_15.png" preserveAspectRatio="none" x="13656.005859" y="-3450.805664" width="1.098633" height="1.098633"/>
<image xlink:href="tile51_14.png" preserveAspectRatio="none" x="13656.005859" y="-3451.904297" width="1.098633" height="1.098633"/>
<image xlink:href="tile51_13.png" preserveAspectRatio="none" x="13656.005859" y="-3453.00293" width="1.098633" height="1.098633"/>
<image xlink:href="tile51_12.png" preserveAspectRatio="none" x="13656.005859" y="-3454.101562" width="1.098633" height="1.098633"/>
<image xlink:href="tile51_11.png" preserveAspectRatio="none" x="13656.005859" y="-3455.200195" width="1.098633" height="1.098633"/>
<image xlink:href="tile51_10.png" preserveAspectRatio="none" x="13656.005859" y="-3456.298828" width="1.098633" height="1.098633"/>
<image xlink:href="tile51_9.png" preserveAspectRatio="none" x="13656.005859" y="-3457.397461" width="1.098633" height="1.098633"/>
<image xlink:href="tile51_8.png" preserveAspectRatio="none" x="13656.005859" y="-3458.496094" width="1.098633" height="1.098633"/>
<image xlink:href="tile51_7.png" preserveAspectRatio="none" x="13656.005859" y="-3459.594727" width="1.098633" height="1.098633"/>
<image xlink:href="tile51_6.png" preserveAspectRatio="none" x="13656.005859" y="-3460.693359" width="1.098633" height="1.098633"/>
<image xlink:href="tile52_14.png" preserveAspectRatio="none" x="13657.104492" y="-3451.904297" width="1.098633" height="1.098633"/>
<image xlink:href="tile52_13.png" preserveAspectRatio="none" x="13657.104492" y="-3453.00293" width="1.098633" height="1.098633"/>
<image xlink:href="tile52_12.png" preserveAspectRatio="none" x="13657.104492" y="-3454.101562" width="1.098633" height="1.098633"/>
<image xlink:href="tile52_11.png" preserveAspectRatio="none" x="13657.104492" y="-3455.200195" width="1.098633" height="1.098633"/>
<image xlink:href="tile52_10.png" preserveAspectRatio="none" x="13657.104492" y="-3456.298828" width="1.098633" height="1.098633"/>
<image xlink:href="tile52_9.png" preserveAspectRatio="none" x="13657.104492" y="-3457.397461" width="1.098633" height="1.098633"/>
<image xlink:href="tile52_8.png" preserveAspectRatio="none" x="13657.104492" y="-3458.496094" width="1.098633" height="1.098633"/>
<image xlink:href="tile52_7.png" preserveAspectRatio="none" x="13657.104492" y="-3459.594727" width="1.098633" height="1.098633"/>
<image xlink:href="tile52_6.png" preserveAspectRatio="none" x="13657.104492" y="-3460.693359" width="1.098633" height="1.098633"/>
<image xlink:href="tile53_20.png" preserveAspectRatio="none" x="13658.203125" y="-3445.3125" width="1.098633" height="1.098633"/>
<image xlink:href="tile53_14.png" preserveAspectRatio="none" x="13658.203125" y="-3451.904297" width="1.098633" height="1.098633"/>
<image xlink:href="tile53_13.png" preserveAspectRatio="none" x="13658.203125" y="-3453.00293" width="1.098633" height="1.098633"/>
<image xlink:href="tile53_12.png" preserveAspectRatio="none" x="13658.203125" y="-3454.101562" width="1.098633" height="1.098633"/>
<image xlink:href="tile53_11.png" preserveAspectRatio="none" x="13658.203125" y="-3455.200195" width="1.098633" height="1.098633"/>
<image xlink:href="tile53_10.png" preserveAspectRatio="none" x="13658.203125" y="-3456.298828" width="1.098633" height="1.098633"/>
<image xlink:href="tile53_9.png" preserveAspectRatio="none" x="13658.203125" y="-3457.397461" width="1.098633" height="1.098633"/>
<image xlink:href="tile53_8.png" preserveAspectRatio="none" x="13658.203125" y="-3458.496094" width="1.098633" height="1.098633"/>
<image xlink:href="tile53_7.png" preserveAspectRatio="none" x="13658.203125" y="-3459.594727" width="1.098633" height="1.098633"/>
<image xlink:href="tile53_6.png" preserveAspectRatio="none" x="13658.203125" y="-3460.693359" width="1.098633" height="1.098633"/>
<image xlink:href="tile54_20.png" preserveAspectRatio="none" x="13659.301758" y="-3445.3125" width="1.098633" height="1.098633"/>
<image xlink:href="tile54_13.png" preserveAspectRatio="none" x="13659.301758" y="-3453.00293" width="1.098633" height="1.098633"/>
<image xlink:href="tile54_12.png" preserveAspectRatio="none" x="13659.301758" y="-3454.101562" width="1.098633" height="1.098633"/>
<image xlink:href="tile54_11.png" preserveAspectRatio="none" x="13659.301758" y="-3455.200195" width="1.098633" height="1.098633"/>
<image xlink:href="tile54_10.png" preserveAspectRatio="none" x="13659.301758" y="-3456.298828" width="1.098633" height="1.098633"/>
<image xlink:href="tile54_9.png" preserveAspectRatio="none" x="13659.301758" y="-3457.397461" width="1.098633" height="1.098633"/>
<image xlink:href="tile54_8.png" preserveAspectRatio="none" x="13659.301758" y="-3458.496094" width="1.098633" height="1.098633"/>
<image xlink:href="tile54_7.png" preserveAspectRatio="none" x="13659.301758" y="-3459.594727" width="1.098633" height="1.098633"/>
<image xlink:href="tile54_6.png" preserveAspectRatio="none" x="13659.301758" y="-3460.693359" width="1.098633" height="1.098633"/>
<image xlink:href="tile55_20.png" preserveAspectRatio="none" x="13660.400391" y="-3445.3125" width="1.098633" height="1.098633"/>
<image xlink:href="tile55_12.png" preserveAspectRatio="none" x="13660.400391" y="-3454.101562" width="1.098633" height="1.098633"/>
<image xlink:href="tile55_11.png" preserveAspectRatio="none" x="13660.400391" y="-3455.200195" width="1.098633" height="1.098633"/>
<image xlink:href="tile55_10.png" preserveAspectRatio="none" x="13660.400391" y="-3456.298828" width="1.098633" height="1.098633"/>
<image xlink:href="tile55_9.png" preserveAspectRatio="none" x="13660.400391" y="-3457.397461" width="1.098633" height="1.098633"/>
<image xlink:href="tile55_8.png" preserveAspectRatio="none" x="13660.400391" y="-3458.496094" width="1.098633" height="1.098633"/>
<image xlink:href="tile55_7.png" preserveAspectRatio="none" x="13660.400391" y="-3459.594727" width="1.098633" height="1.098633"/>
<image xlink:href="tile55_6.png" preserveAspectRatio="none" x="13660.400391" y="-3460.693359" width="1.098633" height="1.098633"/>
<image xlink:href="tile56_13.png" preserveAspectRatio="none" x="13661.499023" y="-3453.00293" width="1.098633" height="1.098633"/>
<image xlink:href="tile56_12.png" preserveAspectRatio="none" x="13661.499023" y="-3454.101562" width="1.098633" height="1.098633"/>
<image xlink:href="tile56_11.png" preserveAspectRatio="none" x="13661.499023" y="-3455.200195" width="1.098633" height="1.098633"/>
<image xlink:href="tile56_10.png" preserveAspectRatio="none" x="13661.499023" y="-3456.298828" width="1.098633" height="1.098633"/>
<image xlink:href="tile56_9.png" preserveAspectRatio="none" x="13661.499023" y="-3457.397461" width="1.098633" height="1.098633"/>
<image xlink:href="tile56_8.png" preserveAspectRatio="none" x="13661.499023" y="-3458.496094" width="1.098633" height="1.098633"/>
<image xlink:href="tile56_7.png" preserveAspectRatio="none" x="13661.499023" y="-3459.594727" width="1.098633" height="1.098633"/>
<image xlink:href="tile56_6.png" preserveAspectRatio="none" x="13661.499023" y="-3460.693359" width="1.098633" height="1.098633"/>
<image xlink:href="tile57_20.png" preserveAspectRatio="none" x="13662.597656" y="-3445.3125" width="1.098633" height="1.098633"/>
<image xlink:href="tile57_13.png" preserveAspectRatio="none" x="13662.597656" y="-3453.00293" width="1.098633" height="1.098633"/>
<image xlink:href="tile57_12.png" preserveAspectRatio="none" x="13662.597656" y="-3454.101562" width="1.098633" height="1.098633"/>
<image xlink:href="tile57_11.png" preserveAspectRatio="none" x="13662.597656" y="-3455.200195" width="1.098633" height="1.098633"/>
<image xlink:href="tile57_10.png" preserveAspectRatio="none" x="13662.597656" y="-3456.298828" width="1.098633" height="1.098633"/>
<image xlink:href="tile57_9.png" preserveAspectRatio="none" x="13662.597656" y="-3457.397461" width="1.098633" height="1.098633"/>
<image xlink:href="tile57_8.png" preserveAspectRatio="none" x="13662.597656" y="-3458.496094" width="1.098633" height="1.098633"/>
<image xlink:href="tile57_7.png" preserveAspectRatio="none" x="13662.597656" y="-3459.594727" width="1.098633" height="1.098633"/>
<image xlink:href="tile58_20.png" preserveAspectRatio="none" x="13663.696289" y="-3445.3125" width="1.098633" height="1.098633"/>
<image xlink:href="tile58_19.png" preserveAspectRatio="none" x="13663.696289" y="-3446.411133" width="1.098633" height="1.098633"/>
<image xlink:href="tile58_18.png" preserveAspectRatio="none" x="13663.696289" y="-3447.509766" width="1.098633" height="1.098633"/>
<image xlink:href="tile58_12.png" preserveAspectRatio="none" x="13663.696289" y="-3454.101562" width="1.098633" height="1.098633"/>
<image xlink:href="tile58_11.png" preserveAspectRatio="none" x="13663.696289" y="-3455.200195" width="1.098633" height="1.098633"/>
<image xlink:href="tile58_10.png" preserveAspectRatio="none" x="13663.696289" y="-3456.298828" width="1.098633" height="1.098633"/>
<image xlink:href="tile58_9.png" preserveAspectRatio="none" x="13663.696289" y="-3457.397461" width="1.098633" height="1.098633"/>
<image xlink:href="tile58_8.png" preserveAspectRatio="none" x="13663.696289" y="-3458.496094" width="1.098633" height="1.098633"/>
<image xlink:href="tile58_7.png" preserveAspectRatio="none" x="13663.696289" y="-3459.594727" width="1.098633" height="1.098633"/>
<image xlink:href="tile59_20.png" preserveAspectRatio="none" x="13664.794922" y="-3445.3125" width="1.098633" height="1.098633"/>
<image xlink:href="tile59_19.png" preserveAspectRatio="none" x="13664.794922" y="-3446.411133" width="1.098633" height="1.098633"/>
<image xlink:href="tile59_18.png" preserveAspectRatio="none" x="13664.794922" y="-3447.509766" width="1.098633" height="1.098633"/>
<image xlink:href="tile59_17.png" preserveAspectRatio="none" x="13664.794922" y="-3448.608398" width="1.098633" height="1.098633"/>
<image xlink:href="tile59_16.png" preserveAspectRatio="none" x="13664.794922" y="-3449.707031" width="1.098633" height="1.098633"/>
<image xlink:href="tile59_15.png" preserveAspectRatio="none" x="13664.794922" y="-3450.805664" width="1.098633" height="1.098633"/>
<image xlink:href="tile59_14.png" preserveAspectRatio="none" x="13664.794922" y="-3451.904297" width="1.098633" height="1.098633"/>
<image xlink:href="tile59_12.png" preserveAspectRatio="none" x="13664.794922" y="-3454.101562" width="1.098633" height="1.098633"/>
<image xlink:href="tile59_11.png" preserveAspectRatio="none" x="13664.794922" y="-3455.200195" width="1.098633" height="1.098633"/>
<image xlink:href="tile59_10.png" preserveAspectRatio="none" x="13664.794922" y="-3456.298828" width="1.098633" height="1.098633"/>
<image xlink:href="tile59_9.png" preserveAspectRatio="none" x="13664.794922" y="-3457.397461" width="1.098633" height="1.098633"/>
<image xlink:href="tile59_8.png" preserveAspectRatio="none" x="13664.794922" y="-3458.496094" width="1.098633" height="1.098633"/>
<image xlink:href="tile59_7.png" preserveAspectRatio="none" x="13664.794922" y="-3459.594727" width="1.098633" height="1.098633"/>
<image xlink:href="tile60_20.png" preserveAspectRatio="none" x="13665.893555" y="-3445.3125" width="1.098633" height="1.098633"/>
<image xlink:href="tile60_19.png" preserveAspectRatio="none" x="13665.893555" y="-3446.411133" width="1.098633" height="1.098633"/>
<image xlink:href="tile60_18.png" preserveAspectRatio="none" x="13665.893555" y="-3447.509766" width="1.098633" height="1.098633"/>
<image xlink:href="tile60_17.png" preserveAspectRatio="none" x="13665.893555" y="-3448.608398" width="1.098633" height="1.098633"/>
<image xlink:href="tile60_16.png" preserveAspectRatio="none" x="13665.893555" y="-3449.707031" width="1.098633" height="1.098633"/>
<image xlink:href="tile60_15.png" preserveAspectRatio="none" x="13665.893555" y="-3450.805664" width="1.098633" height="1.098633"/>
<image xlink:href="tile60_14.png" preserveAspectRatio="none" x="13665.893555" y="-3451.904297" width="1.098633" height="1.098633"/>
<image xlink:href="tile60_12.png" preserveAspectRatio="none" x="13665.893555" y="-3454.101562" width="1.098633" height="1.098633"/>
<image xlink:href="tile60_11.png" preserveAspectRatio="none" x="13665.893555" y="-3455.200195" width="1.098633" height="1.098633"/>
<image xlink:href="tile60_10.png" preserveAspectRatio="none" x="13665.893555" y="-3456.298828" width="1.098633" height="1.098633"/>
<image xlink:href="tile61_18.png" preserveAspectRatio="none" x="13666.992188" y="-3447.509766" width="1.098633" height="1.098633"/>
<image xlink:href="tile61_17.png" preserveAspectRatio="none" x="13666.992188" y="-3448.608398" width="1.098633" height="1.098633"/>
<image xlink:href="tile61_16.png" preserveAspectRatio="none" x="13666.992188" y="-3449.707031" width="1.098633" height="1.098633"/>
<image xlink:href="tile61_15.png" preserveAspectRatio="none" x="13666.992188" y="-3450.805664" width="1.098633" height="1.098633"/>
<image xlink:href="tile61_14.png" preserveAspectRatio="none" x="13666.992188" y="-3451.904297" width="1.098633" height="1.098633"/>
<image xlink:href="tile61_13.png" preserveAspectRatio="none" x="13666.992188" y="-3453.00293" width="1.098633" height="1.098633"/>
<image xlink:href="tile61_12.png" preserveAspectRatio="none" x="13666.992188" y="-3454.101562" width="1.098633" height="1.098633"/>
<image xlink:href="tile61_11.png" preserveAspectRatio="none" x="13666.992188" y="-3455.200195" width="1.098633" height="1.098633"/>
<image xlink:href="tile61_10.png" preserveAspectRatio="none" x="13666.992188" y="-3456.298828" width="1.098633" height="1.098633"/>
<image xlink:href="tile62_18.png" preserveAspectRatio="none" x="13668.09082" y="-3447.509766" width="1.098633" height="1.098633"/>
<image xlink:href="tile62_17.png" preserveAspectRatio="none" x="13668.09082" y="-3448.608398" width="1.098633" height="1.098633"/>
<image xlink:href="tile62_16.png" preserveAspectRatio="none" x="13668.09082" y="-3449.707031" width="1.098633" height="1.098633"/>
<image xlink:href="tile62_15.png" preserveAspectRatio="none" x="13668.09082" y="-3450.805664" width="1.098633" height="1.098633"/>
<image xlink:href="tile62_14.png" preserveAspectRatio="none" x="13668.09082" y="-3451.904297" width="1.098633" height="1.098633"/>
<image xlink:href="tile62_13.png" preserveAspectRatio="none" x="13668.09082" y="-3453.00293" width="1.098633" height="1.098633"/>
<image xlink:href="tile62_12.png" preserveAspectRatio="none" x="13668.09082" y="-3454.101562" width="1.098633" height="1.098633"/>
<image xlink:href="tile62_11.png" preserveAspectRatio="none" x="13668.09082" y="-3455.200195" width="1.098633" height="1.098633"/>
<image xlink:href="tile63_17.png" preserveAspectRatio="none" x="13669.189453" y="-3448.608398" width="1.098633" height="1.098633"/>
<image xlink:href="tile63_16.png" preserveAspectRatio="none" x="13669.189453" y="-3449.707031" width="1.098633" height="1.098633"/>
<image xlink:href="tile63_15.png" preserveAspectRatio="none" x="13669.189453" y="-3450.805664" width="1.098633" height="1.098633"/>
<image xlink:href="tile63_14.png" preserveAspectRatio="none" x="13669.189453" y="-3451.904297" width="1.098633" height="1.098633"/>
<image xlink:href="tile63_13.png" preserveAspectRatio="none" x="13669.189453" y="-3453.00293" width="1.098633" height="1.098633"/>
<image xlink:href="tile63_12.png" preserveAspectRatio="none" x="13669.189453" y="-3454.101562" width="1.098633" height="1.098633"/>
<image xlink:href="tile63_11.png" preserveAspectRatio="none" x="13669.189453" y="-3455.200195" width="1.098633" height="1.098633"/>
</g>
</svg>
