<?xml version="1.0" encoding="UTF-8"?>
<svg  xmlns="http://www.w3.org/2000/svg" xmlns:xlink="http://www.w3.org/1999/xlink" xmlns:go="http://purl.org/svgmap/profile" viewBox="14103.8137368 -4000.0 93.81289869999989 66.66666699999979" go:dataArea="14103.8137368 -4000.0 93.81289869999989 66.66666699999979" >
<metadata>
 <rdf:RDF xmlns:rdf="http://www.w3.org/1999/02/22-rdf-syntax-ns#" xmlns:crs="http://opengis.org/xmldtds/transformations.dtd" xmlns:svg="http://www.w3.org/svg" >
  <rdf:Description>
   <crs:CoordinateReferenceSystem rdf:resource="http://purl.org/crs/84" svg:transform="matrix(100.0,0.0,0.0,-100.0,0.0,0.0)" />
  </rdf:Description>
 </rdf:RDF>
</metadata>
<globalCoordinateSystem srsName="http://purl.org/crs/84" transform="matrix(100.0,0.0,0.0,-100.0,0.0,0.0)" />
<g >
<image xlink:href="tile64_58.png" preserveAspectRatio="none" x="14173.461914" y="-3936.401367" width="1.098633" height="1.098633"/>
<image xlink:href="tile64_57.png" preserveAspectRatio="none" x="14173.461914" y="-3937.5" width="1.098633" height="1.098633"/>
<image xlink:href="tile65_58.png" preserveAspectRatio="none" x="14174.560547" y="-3936.401367" width="1.098633" height="1.098633"/>
<image xlink:href="tile65_57.png" preserveAspectRatio="none" x="14174.560547" y="-3937.5" width="1.098633" height="1.098633"/>
<image xlink:href="tile66_58.png" preserveAspectRatio="none" x="14175.65918" y="-3936.401367" width="1.098633" height="1.098633"/>
<image xlink:href="tile67_58.png" preserveAspectRatio="none" x="14176.757812" y="-3936.401367" width="1.098633" height="1.098633"/>
<image xlink:href="tile68_59.png" preserveAspectRatio="none" x="14177.856445" y="-3935.302734" width="1.098633" height="1.098633"/>
<image xlink:href="tile68_58.png" preserveAspectRatio="none" x="14177.856445" y="-3936.401367" width="1.098633" height="1.098633"/>
<image xlink:href="tile69_59.png" preserveAspectRatio="none" x="14178.955078" y="-3935.302734" width="1.098633" height="1.098633"/>
<image xlink:href="tile69_58.png" preserveAspectRatio="none" x="14178.955078" y="-3936.401367" width="1.098633" height="1.098633"/>
<image xlink:href="tile69_50.png" preserveAspectRatio="none" x="14178.955078" y="-3945.19043" width="1.098633" height="1.098633"/>
<image xlink:href="tile69_49.png" preserveAspectRatio="none" x="14178.955078" y="-3946.289062" width="1.098633" height="1.098633"/>
<image xlink:href="tile70_58.png" preserveAspectRatio="none" x="14180.053711" y="-3936.401367" width="1.098633" height="1.098633"/>
<image xlink:href="tile70_51.png" preserveAspectRatio="none" x="14180.053711" y="-3944.091797" width="1.098633" height="1.098633"/>
<image xlink:href="tile70_50.png" preserveAspectRatio="none" x="14180.053711" y="-3945.19043" width="1.098633" height="1.098633"/>
<image xlink:href="tile70_49.png" preserveAspectRatio="none" x="14180.053711" y="-3946.289062" width="1.098633" height="1.098633"/>
<image xlink:href="tile71_58.png" preserveAspectRatio="none" x="14181.152344" y="-3936.401367" width="1.098633" height="1.098633"/>
<image xlink:href="tile71_55.png" preserveAspectRatio="none" x="14181.152344" y="-3939.697266" width="1.098633" height="1.098633"/>
<image xlink:href="tile71_52.png" preserveAspectRatio="none" x="14181.152344" y="-3942.993164" width="1.098633" height="1.098633"/>
<image xlink:href="tile71_51.png" preserveAspectRatio="none" x="14181.152344" y="-3944.091797" width="1.098633" height="1.098633"/>
<image xlink:href="tile72_59.png" preserveAspectRatio="none" x="14182.250977" y="-3935.302734" width="1.098633" height="1.098633"/>
<image xlink:href="tile72_58.png" preserveAspectRatio="none" x="14182.250977" y="-3936.401367" width="1.098633" height="1.098633"/>
<image xlink:href="tile72_56.png" preserveAspectRatio="none" x="14182.250977" y="-3938.598633" width="1.098633" height="1.098633"/>
<image xlink:href="tile72_55.png" preserveAspectRatio="none" x="14182.250977" y="-3939.697266" width="1.098633" height="1.098633"/>
<image xlink:href="tile72_52.png" preserveAspectRatio="none" x="14182.250977" y="-3942.993164" width="1.098633" height="1.098633"/>
<image xlink:href="tile72_51.png" preserveAspectRatio="none" x="14182.250977" y="-3944.091797" width="1.098633" height="1.098633"/>
<image xlink:href="tile73_60.png" preserveAspectRatio="none" x="14183.349609" y="-3934.204102" width="1.098633" height="1.098633"/>
<image xlink:href="tile73_59.png" preserveAspectRatio="none" x="14183.349609" y="-3935.302734" width="1.098633" height="1.098633"/>
<image xlink:href="tile73_56.png" preserveAspectRatio="none" x="14183.349609" y="-3938.598633" width="1.098633" height="1.098633"/>
<image xlink:href="tile73_54.png" preserveAspectRatio="none" x="14183.349609" y="-3940.795898" width="1.098633" height="1.098633"/>
<image xlink:href="tile73_53.png" preserveAspectRatio="none" x="14183.349609" y="-3941.894531" width="1.098633" height="1.098633"/>
<image xlink:href="tile73_52.png" preserveAspectRatio="none" x="14183.349609" y="-3942.993164" width="1.098633" height="1.098633"/>
<image xlink:href="tile74_60.png" preserveAspectRatio="none" x="14184.448242" y="-3934.204102" width="1.098633" height="1.098633"/>
<image xlink:href="tile74_59.png" preserveAspectRatio="none" x="14184.448242" y="-3935.302734" width="1.098633" height="1.098633"/>
<image xlink:href="tile74_57.png" preserveAspectRatio="none" x="14184.448242" y="-3937.5" width="1.098633" height="1.098633"/>
<image xlink:href="tile74_56.png" preserveAspectRatio="none" x="14184.448242" y="-3938.598633" width="1.098633" height="1.098633"/>
<image xlink:href="tile74_55.png" preserveAspectRatio="none" x="14184.448242" y="-3939.697266" width="1.098633" height="1.098633"/>
<image xlink:href="tile74_54.png" preserveAspectRatio="none" x="14184.448242" y="-3940.795898" width="1.098633" height="1.098633"/>
<image xlink:href="tile74_53.png" preserveAspectRatio="none" x="14184.448242" y="-3941.894531" width="1.098633" height="1.098633"/>
<image xlink:href="tile74_52.png" preserveAspectRatio="none" x="14184.448242" y="-3942.993164" width="1.098633" height="1.098633"/>
<image xlink:href="tile75_60.png" preserveAspectRatio="none" x="14185.546875" y="-3934.204102" width="1.098633" height="1.098633"/>
<image xlink:href="tile75_57.png" preserveAspectRatio="none" x="14185.546875" y="-3937.5" width="1.098633" height="1.098633"/>
<image xlink:href="tile75_56.png" preserveAspectRatio="none" x="14185.546875" y="-3938.598633" width="1.098633" height="1.098633"/>
<image xlink:href="tile75_55.png" preserveAspectRatio="none" x="14185.546875" y="-3939.697266" width="1.098633" height="1.098633"/>
<image xlink:href="tile76_60.png" preserveAspectRatio="none" x="14186.645508" y="-3934.204102" width="1.098633" height="1.098633"/>
<image xlink:href="tile76_58.png" preserveAspectRatio="none" x="14186.645508" y="-3936.401367" width="1.098633" height="1.098633"/>
<image xlink:href="tile76_57.png" preserveAspectRatio="none" x="14186.645508" y="-3937.5" width="1.098633" height="1.098633"/>
<image xlink:href="tile76_56.png" preserveAspectRatio="none" x="14186.645508" y="-3938.598633" width="1.098633" height="1.098633"/>
<image xlink:href="tile76_55.png" preserveAspectRatio="none" x="14186.645508" y="-3939.697266" width="1.098633" height="1.098633"/>
<image xlink:href="tile77_60.png" preserveAspectRatio="none" x="14187.744141" y="-3934.204102" width="1.098633" height="1.098633"/>
<image xlink:href="tile77_58.png" preserveAspectRatio="none" x="14187.744141" y="-3936.401367" width="1.098633" height="1.098633"/>
<image xlink:href="tile77_57.png" preserveAspectRatio="none" x="14187.744141" y="-3937.5" width="1.098633" height="1.098633"/>
<image xlink:href="tile77_56.png" preserveAspectRatio="none" x="14187.744141" y="-3938.598633" width="1.098633" height="1.098633"/>
<image xlink:href="tile77_55.png" preserveAspectRatio="none" x="14187.744141" y="-3939.697266" width="1.098633" height="1.098633"/>
<image xlink:href="tile78_60.png" preserveAspectRatio="none" x="14188.842773" y="-3934.204102" width="1.098633" height="1.098633"/>
<image xlink:href="tile78_59.png" preserveAspectRatio="none" x="14188.842773" y="-3935.302734" width="1.098633" height="1.098633"/>
<image xlink:href="tile78_58.png" preserveAspectRatio="none" x="14188.842773" y="-3936.401367" width="1.098633" height="1.098633"/>
<image xlink:href="tile78_57.png" preserveAspectRatio="none" x="14188.842773" y="-3937.5" width="1.098633" height="1.098633"/>
<image xlink:href="tile78_56.png" preserveAspectRatio="none" x="14188.842773" y="-3938.598633" width="1.098633" height="1.098633"/>
<image xlink:href="tile78_45.png" preserveAspectRatio="none" x="14188.842773" y="-3950.683594" width="1.098633" height="1.098633"/>
<image xlink:href="tile79_59.png" preserveAspectRatio="none" x="14189.941406" y="-3935.302734" width="1.098633" height="1.098633"/>
<image xlink:href="tile79_58.png" preserveAspectRatio="none" x="14189.941406" y="-3936.401367" width="1.098633" height="1.098633"/>
<image xlink:href="tile79_57.png" preserveAspectRatio="none" x="14189.941406" y="-3937.5" width="1.098633" height="1.098633"/>
<image xlink:href="tile79_48.png" preserveAspectRatio="none" x="14189.941406" y="-3947.387695" width="1.098633" height="1.098633"/>
<image xlink:href="tile79_47.png" preserveAspectRatio="none" x="14189.941406" y="-3948.486328" width="1.098633" height="1.098633"/>
<image xlink:href="tile79_45.png" preserveAspectRatio="none" x="14189.941406" y="-3950.683594" width="1.098633" height="1.098633"/>
</g>
</svg>
