<?xml version="1.0" encoding="UTF-8"?>
<svg  xmlns="http://www.w3.org/2000/svg" xmlns:xlink="http://www.w3.org/1999/xlink" xmlns:go="http://purl.org/svgmap/profile" viewBox="14103.8137368 -4000.0 93.81289869999989 66.66666699999979" go:dataArea="14103.8137368 -4000.0 93.81289869999989 66.66666699999979" >
<metadata>
 <rdf:RDF xmlns:rdf="http://www.w3.org/1999/02/22-rdf-syntax-ns#" xmlns:crs="http://opengis.org/xmldtds/transformations.dtd" xmlns:svg="http://www.w3.org/svg" >
  <rdf:Description>
   <crs:CoordinateReferenceSystem rdf:resource="http://purl.org/crs/84" svg:transform="matrix(100.0,0.0,0.0,-100.0,0.0,0.0)" />
  </rdf:Description>
 </rdf:RDF>
</metadata>
<globalCoordinateSystem srsName="http://purl.org/crs/84" transform="matrix(100.0,0.0,0.0,-100.0,0.0,0.0)" />
<g >
<image xlink:href="tile50_32.png" preserveAspectRatio="none" x="14158.081055" y="-3964.96582" width="1.098633" height="1.098633"/>
<image xlink:href="tile50_31.png" preserveAspectRatio="none" x="14158.081055" y="-3966.064453" width="1.098633" height="1.098633"/>
<image xlink:href="tile51_33.png" preserveAspectRatio="none" x="14159.179688" y="-3963.867188" width="1.098633" height="1.098633"/>
<image xlink:href="tile51_32.png" preserveAspectRatio="none" x="14159.179688" y="-3964.96582" width="1.098633" height="1.098633"/>
<image xlink:href="tile51_31.png" preserveAspectRatio="none" x="14159.179688" y="-3966.064453" width="1.098633" height="1.098633"/>
<image xlink:href="tile52_33.png" preserveAspectRatio="none" x="14160.27832" y="-3963.867188" width="1.098633" height="1.098633"/>
<image xlink:href="tile53_35.png" preserveAspectRatio="none" x="14161.376953" y="-3961.669922" width="1.098633" height="1.098633"/>
<image xlink:href="tile53_34.png" preserveAspectRatio="none" x="14161.376953" y="-3962.768555" width="1.098633" height="1.098633"/>
<image xlink:href="tile54_35.png" preserveAspectRatio="none" x="14162.475586" y="-3961.669922" width="1.098633" height="1.098633"/>
<image xlink:href="tile54_34.png" preserveAspectRatio="none" x="14162.475586" y="-3962.768555" width="1.098633" height="1.098633"/>
<image xlink:href="tile55_35.png" preserveAspectRatio="none" x="14163.574219" y="-3961.669922" width="1.098633" height="1.098633"/>
<image xlink:href="tile56_36.png" preserveAspectRatio="none" x="14164.672852" y="-3960.571289" width="1.098633" height="1.098633"/>
<image xlink:href="tile56_35.png" preserveAspectRatio="none" x="14164.672852" y="-3961.669922" width="1.098633" height="1.098633"/>
<image xlink:href="tile57_38.png" preserveAspectRatio="none" x="14165.771484" y="-3958.374023" width="1.098633" height="1.098633"/>
<image xlink:href="tile57_37.png" preserveAspectRatio="none" x="14165.771484" y="-3959.472656" width="1.098633" height="1.098633"/>
<image xlink:href="tile57_36.png" preserveAspectRatio="none" x="14165.771484" y="-3960.571289" width="1.098633" height="1.098633"/>
<image xlink:href="tile58_37.png" preserveAspectRatio="none" x="14166.870117" y="-3959.472656" width="1.098633" height="1.098633"/>
<image xlink:href="tile58_36.png" preserveAspectRatio="none" x="14166.870117" y="-3960.571289" width="1.098633" height="1.098633"/>
<image xlink:href="tile59_36.png" preserveAspectRatio="none" x="14167.96875" y="-3960.571289" width="1.098633" height="1.098633"/>
<image xlink:href="tile60_36.png" preserveAspectRatio="none" x="14169.067383" y="-3960.571289" width="1.098633" height="1.098633"/>
<image xlink:href="tile61_36.png" preserveAspectRatio="none" x="14170.166016" y="-3960.571289" width="1.098633" height="1.098633"/>
<image xlink:href="tile62_36.png" preserveAspectRatio="none" x="14171.264648" y="-3960.571289" width="1.098633" height="1.098633"/>
<image xlink:href="tile62_29.png" preserveAspectRatio="none" x="14171.264648" y="-3968.261719" width="1.098633" height="1.098633"/>
<image xlink:href="tile63_36.png" preserveAspectRatio="none" x="14172.363281" y="-3960.571289" width="1.098633" height="1.098633"/>
<image xlink:href="tile63_30.png" preserveAspectRatio="none" x="14172.363281" y="-3967.163086" width="1.098633" height="1.098633"/>
</g>
</svg>
