<?xml version="1.0" encoding="UTF-8"?>
<svg  xmlns="http://www.w3.org/2000/svg" xmlns:xlink="http://www.w3.org/1999/xlink" xmlns:go="http://purl.org/svgmap/profile" viewBox="14103.8137368 -4000.0 93.81289869999989 66.66666699999979" go:dataArea="14103.8137368 -4000.0 93.81289869999989 66.66666699999979" >
<metadata>
 <rdf:RDF xmlns:rdf="http://www.w3.org/1999/02/22-rdf-syntax-ns#" xmlns:crs="http://opengis.org/xmldtds/transformations.dtd" xmlns:svg="http://www.w3.org/svg" >
  <rdf:Description>
   <crs:CoordinateReferenceSystem rdf:resource="http://purl.org/crs/84" svg:transform="matrix(100.0,0.0,0.0,-100.0,0.0,0.0)" />
  </rdf:Description>
 </rdf:RDF>
</metadata>
<globalCoordinateSystem srsName="http://purl.org/crs/84" transform="matrix(100.0,0.0,0.0,-100.0,0.0,0.0)" />
<g >
<image xlink:href="tile48_19.png" preserveAspectRatio="none" x="14155.883789" y="-3979.248047" width="1.098633" height="1.098633"/>
<image xlink:href="tile49_19.png" preserveAspectRatio="none" x="14156.982422" y="-3979.248047" width="1.098633" height="1.098633"/>
<image xlink:href="tile50_19.png" preserveAspectRatio="none" x="14158.081055" y="-3979.248047" width="1.098633" height="1.098633"/>
<image xlink:href="tile50_18.png" preserveAspectRatio="none" x="14158.081055" y="-3980.34668" width="1.098633" height="1.098633"/>
<image xlink:href="tile51_19.png" preserveAspectRatio="none" x="14159.179688" y="-3979.248047" width="1.098633" height="1.098633"/>
<image xlink:href="tile51_18.png" preserveAspectRatio="none" x="14159.179688" y="-3980.34668" width="1.098633" height="1.098633"/>
<image xlink:href="tile51_17.png" preserveAspectRatio="none" x="14159.179688" y="-3981.445312" width="1.098633" height="1.098633"/>
<image xlink:href="tile52_18.png" preserveAspectRatio="none" x="14160.27832" y="-3980.34668" width="1.098633" height="1.098633"/>
<image xlink:href="tile53_18.png" preserveAspectRatio="none" x="14161.376953" y="-3980.34668" width="1.098633" height="1.098633"/>
<image xlink:href="tile54_18.png" preserveAspectRatio="none" x="14162.475586" y="-3980.34668" width="1.098633" height="1.098633"/>
<image xlink:href="tile55_18.png" preserveAspectRatio="none" x="14163.574219" y="-3980.34668" width="1.098633" height="1.098633"/>
<image xlink:href="tile55_17.png" preserveAspectRatio="none" x="14163.574219" y="-3981.445312" width="1.098633" height="1.098633"/>
<image xlink:href="tile56_18.png" preserveAspectRatio="none" x="14164.672852" y="-3980.34668" width="1.098633" height="1.098633"/>
<image xlink:href="tile56_17.png" preserveAspectRatio="none" x="14164.672852" y="-3981.445312" width="1.098633" height="1.098633"/>
<image xlink:href="tile57_18.png" preserveAspectRatio="none" x="14165.771484" y="-3980.34668" width="1.098633" height="1.098633"/>
<image xlink:href="tile58_18.png" preserveAspectRatio="none" x="14166.870117" y="-3980.34668" width="1.098633" height="1.098633"/>
<image xlink:href="tile58_13.png" preserveAspectRatio="none" x="14166.870117" y="-3985.839844" width="1.098633" height="1.098633"/>
<image xlink:href="tile59_18.png" preserveAspectRatio="none" x="14167.96875" y="-3980.34668" width="1.098633" height="1.098633"/>
<image xlink:href="tile59_17.png" preserveAspectRatio="none" x="14167.96875" y="-3981.445312" width="1.098633" height="1.098633"/>
<image xlink:href="tile59_14.png" preserveAspectRatio="none" x="14167.96875" y="-3984.741211" width="1.098633" height="1.098633"/>
<image xlink:href="tile59_13.png" preserveAspectRatio="none" x="14167.96875" y="-3985.839844" width="1.098633" height="1.098633"/>
<image xlink:href="tile60_17.png" preserveAspectRatio="none" x="14169.067383" y="-3981.445312" width="1.098633" height="1.098633"/>
<image xlink:href="tile60_14.png" preserveAspectRatio="none" x="14169.067383" y="-3984.741211" width="1.098633" height="1.098633"/>
<image xlink:href="tile60_13.png" preserveAspectRatio="none" x="14169.067383" y="-3985.839844" width="1.098633" height="1.098633"/>
<image xlink:href="tile61_17.png" preserveAspectRatio="none" x="14170.166016" y="-3981.445312" width="1.098633" height="1.098633"/>
<image xlink:href="tile61_16.png" preserveAspectRatio="none" x="14170.166016" y="-3982.543945" width="1.098633" height="1.098633"/>
<image xlink:href="tile61_15.png" preserveAspectRatio="none" x="14170.166016" y="-3983.642578" width="1.098633" height="1.098633"/>
<image xlink:href="tile61_14.png" preserveAspectRatio="none" x="14170.166016" y="-3984.741211" width="1.098633" height="1.098633"/>
<image xlink:href="tile61_13.png" preserveAspectRatio="none" x="14170.166016" y="-3985.839844" width="1.098633" height="1.098633"/>
<image xlink:href="tile62_28.png" preserveAspectRatio="none" x="14171.264648" y="-3969.360352" width="1.098633" height="1.098633"/>
<image xlink:href="tile62_16.png" preserveAspectRatio="none" x="14171.264648" y="-3982.543945" width="1.098633" height="1.098633"/>
<image xlink:href="tile62_15.png" preserveAspectRatio="none" x="14171.264648" y="-3983.642578" width="1.098633" height="1.098633"/>
<image xlink:href="tile62_14.png" preserveAspectRatio="none" x="14171.264648" y="-3984.741211" width="1.098633" height="1.098633"/>
<image xlink:href="tile63_16.png" preserveAspectRatio="none" x="14172.363281" y="-3982.543945" width="1.098633" height="1.098633"/>
<image xlink:href="tile63_15.png" preserveAspectRatio="none" x="14172.363281" y="-3983.642578" width="1.098633" height="1.098633"/>
</g>
</svg>
