<?xml version="1.0" encoding="UTF-8"?>
<svg  xmlns="http://www.w3.org/2000/svg" xmlns:xlink="http://www.w3.org/1999/xlink" xmlns:go="http://purl.org/svgmap/profile" viewBox="14212.2625 -4466.6666669999995 64.02500000000089 66.66666699999979" go:dataArea="14212.2625 -4466.6666669999995 64.02500000000089 66.66666699999979" >
<metadata>
 <rdf:RDF xmlns:rdf="http://www.w3.org/1999/02/22-rdf-syntax-ns#" xmlns:crs="http://opengis.org/xmldtds/transformations.dtd" xmlns:svg="http://www.w3.org/svg" >
  <rdf:Description>
   <crs:CoordinateReferenceSystem rdf:resource="http://purl.org/crs/84" svg:transform="matrix(100.0,0.0,0.0,-100.0,0.0,0.0)" />
  </rdf:Description>
 </rdf:RDF>
</metadata>
<globalCoordinateSystem srsName="http://purl.org/crs/84" transform="matrix(100.0,0.0,0.0,-100.0,0.0,0.0)" />
<g >
<image xlink:href="tile16_24.png" preserveAspectRatio="none" x="14247.070312" y="-4414.306641" width="2.197266" height="2.197266"/>
<image xlink:href="tile16_15.png" preserveAspectRatio="none" x="14247.070312" y="-4434.082031" width="2.197266" height="2.197266"/>
<image xlink:href="tile17_24.png" preserveAspectRatio="none" x="14249.267578" y="-4414.306641" width="2.197266" height="2.197266"/>
<image xlink:href="tile17_15.png" preserveAspectRatio="none" x="14249.267578" y="-4434.082031" width="2.197266" height="2.197266"/>
<image xlink:href="tile18_25.png" preserveAspectRatio="none" x="14251.464844" y="-4412.109375" width="2.197266" height="2.197266"/>
<image xlink:href="tile18_24.png" preserveAspectRatio="none" x="14251.464844" y="-4414.306641" width="2.197266" height="2.197266"/>
<image xlink:href="tile18_15.png" preserveAspectRatio="none" x="14251.464844" y="-4434.082031" width="2.197266" height="2.197266"/>
<image xlink:href="tile19_25.png" preserveAspectRatio="none" x="14253.662109" y="-4412.109375" width="2.197266" height="2.197266"/>
<image xlink:href="tile19_24.png" preserveAspectRatio="none" x="14253.662109" y="-4414.306641" width="2.197266" height="2.197266"/>
<image xlink:href="tile19_16.png" preserveAspectRatio="none" x="14253.662109" y="-4431.884766" width="2.197266" height="2.197266"/>
<image xlink:href="tile19_15.png" preserveAspectRatio="none" x="14253.662109" y="-4434.082031" width="2.197266" height="2.197266"/>
<image xlink:href="tile20_25.png" preserveAspectRatio="none" x="14255.859375" y="-4412.109375" width="2.197266" height="2.197266"/>
<image xlink:href="tile20_16.png" preserveAspectRatio="none" x="14255.859375" y="-4431.884766" width="2.197266" height="2.197266"/>
<image xlink:href="tile20_15.png" preserveAspectRatio="none" x="14255.859375" y="-4434.082031" width="2.197266" height="2.197266"/>
<image xlink:href="tile21_25.png" preserveAspectRatio="none" x="14258.056641" y="-4412.109375" width="2.197266" height="2.197266"/>
<image xlink:href="tile21_16.png" preserveAspectRatio="none" x="14258.056641" y="-4431.884766" width="2.197266" height="2.197266"/>
<image xlink:href="tile21_15.png" preserveAspectRatio="none" x="14258.056641" y="-4434.082031" width="2.197266" height="2.197266"/>
<image xlink:href="tile22_25.png" preserveAspectRatio="none" x="14260.253906" y="-4412.109375" width="2.197266" height="2.197266"/>
<image xlink:href="tile22_16.png" preserveAspectRatio="none" x="14260.253906" y="-4431.884766" width="2.197266" height="2.197266"/>
<image xlink:href="tile22_15.png" preserveAspectRatio="none" x="14260.253906" y="-4434.082031" width="2.197266" height="2.197266"/>
<image xlink:href="tile23_25.png" preserveAspectRatio="none" x="14262.451172" y="-4412.109375" width="2.197266" height="2.197266"/>
<image xlink:href="tile23_24.png" preserveAspectRatio="none" x="14262.451172" y="-4414.306641" width="2.197266" height="2.197266"/>
<image xlink:href="tile23_17.png" preserveAspectRatio="none" x="14262.451172" y="-4429.6875" width="2.197266" height="2.197266"/>
<image xlink:href="tile23_16.png" preserveAspectRatio="none" x="14262.451172" y="-4431.884766" width="2.197266" height="2.197266"/>
<image xlink:href="tile24_25.png" preserveAspectRatio="none" x="14264.648438" y="-4412.109375" width="2.197266" height="2.197266"/>
<image xlink:href="tile24_24.png" preserveAspectRatio="none" x="14264.648438" y="-4414.306641" width="2.197266" height="2.197266"/>
<image xlink:href="tile24_17.png" preserveAspectRatio="none" x="14264.648438" y="-4429.6875" width="2.197266" height="2.197266"/>
<image xlink:href="tile24_16.png" preserveAspectRatio="none" x="14264.648438" y="-4431.884766" width="2.197266" height="2.197266"/>
<image xlink:href="tile25_25.png" preserveAspectRatio="none" x="14266.845703" y="-4412.109375" width="2.197266" height="2.197266"/>
<image xlink:href="tile25_24.png" preserveAspectRatio="none" x="14266.845703" y="-4414.306641" width="2.197266" height="2.197266"/>
<image xlink:href="tile25_17.png" preserveAspectRatio="none" x="14266.845703" y="-4429.6875" width="2.197266" height="2.197266"/>
<image xlink:href="tile25_16.png" preserveAspectRatio="none" x="14266.845703" y="-4431.884766" width="2.197266" height="2.197266"/>
<image xlink:href="tile26_25.png" preserveAspectRatio="none" x="14269.042969" y="-4412.109375" width="2.197266" height="2.197266"/>
<image xlink:href="tile26_24.png" preserveAspectRatio="none" x="14269.042969" y="-4414.306641" width="2.197266" height="2.197266"/>
<image xlink:href="tile26_16.png" preserveAspectRatio="none" x="14269.042969" y="-4431.884766" width="2.197266" height="2.197266"/>
<image xlink:href="tile26_15.png" preserveAspectRatio="none" x="14269.042969" y="-4434.082031" width="2.197266" height="2.197266"/>
<image xlink:href="tile27_16.png" preserveAspectRatio="none" x="14271.240234" y="-4431.884766" width="2.197266" height="2.197266"/>
<image xlink:href="tile27_15.png" preserveAspectRatio="none" x="14271.240234" y="-4434.082031" width="2.197266" height="2.197266"/>
<image xlink:href="tile28_16.png" preserveAspectRatio="none" x="14273.4375" y="-4431.884766" width="2.197266" height="2.197266"/>
<image xlink:href="tile28_15.png" preserveAspectRatio="none" x="14273.4375" y="-4434.082031" width="2.197266" height="2.197266"/>
<image xlink:href="tile29_15.png" preserveAspectRatio="none" x="14275.634766" y="-4434.082031" width="2.197266" height="2.197266"/>
</g>
</svg>
