<?xml version="1.0" encoding="UTF-8"?>
<svg  xmlns="http://www.w3.org/2000/svg" xmlns:xlink="http://www.w3.org/1999/xlink" xmlns:go="http://purl.org/svgmap/profile" viewBox="13900.0 -3600.0 100.0 65.76247980000005" go:dataArea="13900.0 -3600.0 100.0 65.76247980000005" >
<metadata>
 <rdf:RDF xmlns:rdf="http://www.w3.org/1999/02/22-rdf-syntax-ns#" xmlns:crs="http://opengis.org/xmldtds/transformations.dtd" xmlns:svg="http://www.w3.org/svg" >
  <rdf:Description>
   <crs:CoordinateReferenceSystem rdf:resource="http://purl.org/crs/84" svg:transform="matrix(100.0,0.0,0.0,-100.0,0.0,0.0)" />
  </rdf:Description>
 </rdf:RDF>
</metadata>
<globalCoordinateSystem srsName="http://purl.org/crs/84" transform="matrix(100.0,0.0,0.0,-100.0,0.0,0.0)" />
<g >
<image xlink:href="tile48_24.png" preserveAspectRatio="none" x="13952.636719" y="-3573.852539" width="1.098633" height="1.098633"/>
<image xlink:href="tile48_23.png" preserveAspectRatio="none" x="13952.636719" y="-3574.951172" width="1.098633" height="1.098633"/>
<image xlink:href="tile48_22.png" preserveAspectRatio="none" x="13952.636719" y="-3576.049805" width="1.098633" height="1.098633"/>
<image xlink:href="tile48_21.png" preserveAspectRatio="none" x="13952.636719" y="-3577.148438" width="1.098633" height="1.098633"/>
<image xlink:href="tile48_20.png" preserveAspectRatio="none" x="13952.636719" y="-3578.24707" width="1.098633" height="1.098633"/>
<image xlink:href="tile48_19.png" preserveAspectRatio="none" x="13952.636719" y="-3579.345703" width="1.098633" height="1.098633"/>
<image xlink:href="tile48_18.png" preserveAspectRatio="none" x="13952.636719" y="-3580.444336" width="1.098633" height="1.098633"/>
<image xlink:href="tile49_23.png" preserveAspectRatio="none" x="13953.735352" y="-3574.951172" width="1.098633" height="1.098633"/>
<image xlink:href="tile49_22.png" preserveAspectRatio="none" x="13953.735352" y="-3576.049805" width="1.098633" height="1.098633"/>
<image xlink:href="tile49_21.png" preserveAspectRatio="none" x="13953.735352" y="-3577.148438" width="1.098633" height="1.098633"/>
<image xlink:href="tile49_20.png" preserveAspectRatio="none" x="13953.735352" y="-3578.24707" width="1.098633" height="1.098633"/>
<image xlink:href="tile49_19.png" preserveAspectRatio="none" x="13953.735352" y="-3579.345703" width="1.098633" height="1.098633"/>
<image xlink:href="tile49_18.png" preserveAspectRatio="none" x="13953.735352" y="-3580.444336" width="1.098633" height="1.098633"/>
<image xlink:href="tile49_17.png" preserveAspectRatio="none" x="13953.735352" y="-3581.542969" width="1.098633" height="1.098633"/>
<image xlink:href="tile58_21.png" preserveAspectRatio="none" x="13963.623047" y="-3577.148438" width="1.098633" height="1.098633"/>
<image xlink:href="tile58_20.png" preserveAspectRatio="none" x="13963.623047" y="-3578.24707" width="1.098633" height="1.098633"/>
<image xlink:href="tile58_19.png" preserveAspectRatio="none" x="13963.623047" y="-3579.345703" width="1.098633" height="1.098633"/>
<image xlink:href="tile58_18.png" preserveAspectRatio="none" x="13963.623047" y="-3580.444336" width="1.098633" height="1.098633"/>
<image xlink:href="tile58_17.png" preserveAspectRatio="none" x="13963.623047" y="-3581.542969" width="1.098633" height="1.098633"/>
<image xlink:href="tile58_16.png" preserveAspectRatio="none" x="13963.623047" y="-3582.641602" width="1.098633" height="1.098633"/>
<image xlink:href="tile58_15.png" preserveAspectRatio="none" x="13963.623047" y="-3583.740234" width="1.098633" height="1.098633"/>
<image xlink:href="tile58_14.png" preserveAspectRatio="none" x="13963.623047" y="-3584.838867" width="1.098633" height="1.098633"/>
<image xlink:href="tile59_21.png" preserveAspectRatio="none" x="13964.72168" y="-3577.148438" width="1.098633" height="1.098633"/>
<image xlink:href="tile59_20.png" preserveAspectRatio="none" x="13964.72168" y="-3578.24707" width="1.098633" height="1.098633"/>
<image xlink:href="tile59_19.png" preserveAspectRatio="none" x="13964.72168" y="-3579.345703" width="1.098633" height="1.098633"/>
<image xlink:href="tile59_18.png" preserveAspectRatio="none" x="13964.72168" y="-3580.444336" width="1.098633" height="1.098633"/>
<image xlink:href="tile59_17.png" preserveAspectRatio="none" x="13964.72168" y="-3581.542969" width="1.098633" height="1.098633"/>
<image xlink:href="tile59_16.png" preserveAspectRatio="none" x="13964.72168" y="-3582.641602" width="1.098633" height="1.098633"/>
<image xlink:href="tile59_15.png" preserveAspectRatio="none" x="13964.72168" y="-3583.740234" width="1.098633" height="1.098633"/>
<image xlink:href="tile59_14.png" preserveAspectRatio="none" x="13964.72168" y="-3584.838867" width="1.098633" height="1.098633"/>
<image xlink:href="tile60_21.png" preserveAspectRatio="none" x="13965.820312" y="-3577.148438" width="1.098633" height="1.098633"/>
<image xlink:href="tile60_20.png" preserveAspectRatio="none" x="13965.820312" y="-3578.24707" width="1.098633" height="1.098633"/>
<image xlink:href="tile60_19.png" preserveAspectRatio="none" x="13965.820312" y="-3579.345703" width="1.098633" height="1.098633"/>
<image xlink:href="tile60_18.png" preserveAspectRatio="none" x="13965.820312" y="-3580.444336" width="1.098633" height="1.098633"/>
<image xlink:href="tile60_17.png" preserveAspectRatio="none" x="13965.820312" y="-3581.542969" width="1.098633" height="1.098633"/>
<image xlink:href="tile60_16.png" preserveAspectRatio="none" x="13965.820312" y="-3582.641602" width="1.098633" height="1.098633"/>
<image xlink:href="tile60_15.png" preserveAspectRatio="none" x="13965.820312" y="-3583.740234" width="1.098633" height="1.098633"/>
<image xlink:href="tile60_14.png" preserveAspectRatio="none" x="13965.820312" y="-3584.838867" width="1.098633" height="1.098633"/>
<image xlink:href="tile61_21.png" preserveAspectRatio="none" x="13966.918945" y="-3577.148438" width="1.098633" height="1.098633"/>
<image xlink:href="tile61_20.png" preserveAspectRatio="none" x="13966.918945" y="-3578.24707" width="1.098633" height="1.098633"/>
<image xlink:href="tile61_19.png" preserveAspectRatio="none" x="13966.918945" y="-3579.345703" width="1.098633" height="1.098633"/>
<image xlink:href="tile61_18.png" preserveAspectRatio="none" x="13966.918945" y="-3580.444336" width="1.098633" height="1.098633"/>
<image xlink:href="tile61_17.png" preserveAspectRatio="none" x="13966.918945" y="-3581.542969" width="1.098633" height="1.098633"/>
<image xlink:href="tile61_16.png" preserveAspectRatio="none" x="13966.918945" y="-3582.641602" width="1.098633" height="1.098633"/>
<image xlink:href="tile62_21.png" preserveAspectRatio="none" x="13968.017578" y="-3577.148438" width="1.098633" height="1.098633"/>
<image xlink:href="tile62_20.png" preserveAspectRatio="none" x="13968.017578" y="-3578.24707" width="1.098633" height="1.098633"/>
<image xlink:href="tile62_19.png" preserveAspectRatio="none" x="13968.017578" y="-3579.345703" width="1.098633" height="1.098633"/>
<image xlink:href="tile62_18.png" preserveAspectRatio="none" x="13968.017578" y="-3580.444336" width="1.098633" height="1.098633"/>
<image xlink:href="tile62_17.png" preserveAspectRatio="none" x="13968.017578" y="-3581.542969" width="1.098633" height="1.098633"/>
<image xlink:href="tile62_16.png" preserveAspectRatio="none" x="13968.017578" y="-3582.641602" width="1.098633" height="1.098633"/>
<image xlink:href="tile63_21.png" preserveAspectRatio="none" x="13969.116211" y="-3577.148438" width="1.098633" height="1.098633"/>
<image xlink:href="tile63_20.png" preserveAspectRatio="none" x="13969.116211" y="-3578.24707" width="1.098633" height="1.098633"/>
<image xlink:href="tile63_19.png" preserveAspectRatio="none" x="13969.116211" y="-3579.345703" width="1.098633" height="1.098633"/>
<image xlink:href="tile63_18.png" preserveAspectRatio="none" x="13969.116211" y="-3580.444336" width="1.098633" height="1.098633"/>
<image xlink:href="tile63_17.png" preserveAspectRatio="none" x="13969.116211" y="-3581.542969" width="1.098633" height="1.098633"/>
<image xlink:href="tile63_16.png" preserveAspectRatio="none" x="13969.116211" y="-3582.641602" width="1.098633" height="1.098633"/>
</g>
</svg>
