<?xml version="1.0" encoding="UTF-8"?>
<svg  xmlns="http://www.w3.org/2000/svg" xmlns:xlink="http://www.w3.org/1999/xlink" xmlns:go="http://purl.org/svgmap/profile" viewBox="13900.0 -3600.0 100.0 65.76247980000005" go:dataArea="13900.0 -3600.0 100.0 65.76247980000005" >
<metadata>
 <rdf:RDF xmlns:rdf="http://www.w3.org/1999/02/22-rdf-syntax-ns#" xmlns:crs="http://opengis.org/xmldtds/transformations.dtd" xmlns:svg="http://www.w3.org/svg" >
  <rdf:Description>
   <crs:CoordinateReferenceSystem rdf:resource="http://purl.org/crs/84" svg:transform="matrix(100.0,0.0,0.0,-100.0,0.0,0.0)" />
  </rdf:Description>
 </rdf:RDF>
</metadata>
<globalCoordinateSystem srsName="http://purl.org/crs/84" transform="matrix(100.0,0.0,0.0,-100.0,0.0,0.0)" />
<g >
<image xlink:href="tile0_12.png" preserveAspectRatio="none" x="13899.902344" y="-3587.036133" width="1.098633" height="1.098633"/>
<image xlink:href="tile0_11.png" preserveAspectRatio="none" x="13899.902344" y="-3588.134766" width="1.098633" height="1.098633"/>
<image xlink:href="tile0_10.png" preserveAspectRatio="none" x="13899.902344" y="-3589.233398" width="1.098633" height="1.098633"/>
<image xlink:href="tile0_9.png" preserveAspectRatio="none" x="13899.902344" y="-3590.332031" width="1.098633" height="1.098633"/>
<image xlink:href="tile0_4.png" preserveAspectRatio="none" x="13899.902344" y="-3595.825195" width="1.098633" height="1.098633"/>
<image xlink:href="tile0_3.png" preserveAspectRatio="none" x="13899.902344" y="-3596.923828" width="1.098633" height="1.098633"/>
<image xlink:href="tile0_2.png" preserveAspectRatio="none" x="13899.902344" y="-3598.022461" width="1.098633" height="1.098633"/>
<image xlink:href="tile1_12.png" preserveAspectRatio="none" x="13901.000977" y="-3587.036133" width="1.098633" height="1.098633"/>
<image xlink:href="tile1_11.png" preserveAspectRatio="none" x="13901.000977" y="-3588.134766" width="1.098633" height="1.098633"/>
<image xlink:href="tile1_10.png" preserveAspectRatio="none" x="13901.000977" y="-3589.233398" width="1.098633" height="1.098633"/>
<image xlink:href="tile1_9.png" preserveAspectRatio="none" x="13901.000977" y="-3590.332031" width="1.098633" height="1.098633"/>
<image xlink:href="tile1_4.png" preserveAspectRatio="none" x="13901.000977" y="-3595.825195" width="1.098633" height="1.098633"/>
<image xlink:href="tile1_3.png" preserveAspectRatio="none" x="13901.000977" y="-3596.923828" width="1.098633" height="1.098633"/>
<image xlink:href="tile1_2.png" preserveAspectRatio="none" x="13901.000977" y="-3598.022461" width="1.098633" height="1.098633"/>
<image xlink:href="tile2_12.png" preserveAspectRatio="none" x="13902.099609" y="-3587.036133" width="1.098633" height="1.098633"/>
<image xlink:href="tile2_11.png" preserveAspectRatio="none" x="13902.099609" y="-3588.134766" width="1.098633" height="1.098633"/>
<image xlink:href="tile2_10.png" preserveAspectRatio="none" x="13902.099609" y="-3589.233398" width="1.098633" height="1.098633"/>
<image xlink:href="tile2_9.png" preserveAspectRatio="none" x="13902.099609" y="-3590.332031" width="1.098633" height="1.098633"/>
<image xlink:href="tile2_5.png" preserveAspectRatio="none" x="13902.099609" y="-3594.726562" width="1.098633" height="1.098633"/>
<image xlink:href="tile2_4.png" preserveAspectRatio="none" x="13902.099609" y="-3595.825195" width="1.098633" height="1.098633"/>
<image xlink:href="tile2_3.png" preserveAspectRatio="none" x="13902.099609" y="-3596.923828" width="1.098633" height="1.098633"/>
<image xlink:href="tile2_2.png" preserveAspectRatio="none" x="13902.099609" y="-3598.022461" width="1.098633" height="1.098633"/>
<image xlink:href="tile2_0.png" preserveAspectRatio="none" x="13902.099609" y="-3600.219727" width="1.098633" height="1.098633"/>
<image xlink:href="tile3_12.png" preserveAspectRatio="none" x="13903.198242" y="-3587.036133" width="1.098633" height="1.098633"/>
<image xlink:href="tile3_11.png" preserveAspectRatio="none" x="13903.198242" y="-3588.134766" width="1.098633" height="1.098633"/>
<image xlink:href="tile3_10.png" preserveAspectRatio="none" x="13903.198242" y="-3589.233398" width="1.098633" height="1.098633"/>
<image xlink:href="tile3_3.png" preserveAspectRatio="none" x="13903.198242" y="-3596.923828" width="1.098633" height="1.098633"/>
<image xlink:href="tile3_0.png" preserveAspectRatio="none" x="13903.198242" y="-3600.219727" width="1.098633" height="1.098633"/>
<image xlink:href="tile4_12.png" preserveAspectRatio="none" x="13904.296875" y="-3587.036133" width="1.098633" height="1.098633"/>
<image xlink:href="tile4_11.png" preserveAspectRatio="none" x="13904.296875" y="-3588.134766" width="1.098633" height="1.098633"/>
<image xlink:href="tile4_10.png" preserveAspectRatio="none" x="13904.296875" y="-3589.233398" width="1.098633" height="1.098633"/>
<image xlink:href="tile4_4.png" preserveAspectRatio="none" x="13904.296875" y="-3595.825195" width="1.098633" height="1.098633"/>
<image xlink:href="tile4_3.png" preserveAspectRatio="none" x="13904.296875" y="-3596.923828" width="1.098633" height="1.098633"/>
<image xlink:href="tile4_2.png" preserveAspectRatio="none" x="13904.296875" y="-3598.022461" width="1.098633" height="1.098633"/>
<image xlink:href="tile5_12.png" preserveAspectRatio="none" x="13905.395508" y="-3587.036133" width="1.098633" height="1.098633"/>
<image xlink:href="tile5_11.png" preserveAspectRatio="none" x="13905.395508" y="-3588.134766" width="1.098633" height="1.098633"/>
<image xlink:href="tile5_4.png" preserveAspectRatio="none" x="13905.395508" y="-3595.825195" width="1.098633" height="1.098633"/>
<image xlink:href="tile5_3.png" preserveAspectRatio="none" x="13905.395508" y="-3596.923828" width="1.098633" height="1.098633"/>
<image xlink:href="tile5_2.png" preserveAspectRatio="none" x="13905.395508" y="-3598.022461" width="1.098633" height="1.098633"/>
<image xlink:href="tile5_1.png" preserveAspectRatio="none" x="13905.395508" y="-3599.121094" width="1.098633" height="1.098633"/>
<image xlink:href="tile6_12.png" preserveAspectRatio="none" x="13906.494141" y="-3587.036133" width="1.098633" height="1.098633"/>
<image xlink:href="tile6_11.png" preserveAspectRatio="none" x="13906.494141" y="-3588.134766" width="1.098633" height="1.098633"/>
<image xlink:href="tile6_4.png" preserveAspectRatio="none" x="13906.494141" y="-3595.825195" width="1.098633" height="1.098633"/>
<image xlink:href="tile6_2.png" preserveAspectRatio="none" x="13906.494141" y="-3598.022461" width="1.098633" height="1.098633"/>
<image xlink:href="tile6_1.png" preserveAspectRatio="none" x="13906.494141" y="-3599.121094" width="1.098633" height="1.098633"/>
<image xlink:href="tile6_0.png" preserveAspectRatio="none" x="13906.494141" y="-3600.219727" width="1.098633" height="1.098633"/>
<image xlink:href="tile7_12.png" preserveAspectRatio="none" x="13907.592773" y="-3587.036133" width="1.098633" height="1.098633"/>
<image xlink:href="tile7_11.png" preserveAspectRatio="none" x="13907.592773" y="-3588.134766" width="1.098633" height="1.098633"/>
<image xlink:href="tile8_12.png" preserveAspectRatio="none" x="13908.691406" y="-3587.036133" width="1.098633" height="1.098633"/>
<image xlink:href="tile8_11.png" preserveAspectRatio="none" x="13908.691406" y="-3588.134766" width="1.098633" height="1.098633"/>
<image xlink:href="tile9_12.png" preserveAspectRatio="none" x="13909.790039" y="-3587.036133" width="1.098633" height="1.098633"/>
<image xlink:href="tile9_3.png" preserveAspectRatio="none" x="13909.790039" y="-3596.923828" width="1.098633" height="1.098633"/>
<image xlink:href="tile9_2.png" preserveAspectRatio="none" x="13909.790039" y="-3598.022461" width="1.098633" height="1.098633"/>
<image xlink:href="tile9_1.png" preserveAspectRatio="none" x="13909.790039" y="-3599.121094" width="1.098633" height="1.098633"/>
<image xlink:href="tile9_0.png" preserveAspectRatio="none" x="13909.790039" y="-3600.219727" width="1.098633" height="1.098633"/>
<image xlink:href="tile10_12.png" preserveAspectRatio="none" x="13910.888672" y="-3587.036133" width="1.098633" height="1.098633"/>
<image xlink:href="tile10_5.png" preserveAspectRatio="none" x="13910.888672" y="-3594.726562" width="1.098633" height="1.098633"/>
<image xlink:href="tile10_4.png" preserveAspectRatio="none" x="13910.888672" y="-3595.825195" width="1.098633" height="1.098633"/>
<image xlink:href="tile10_3.png" preserveAspectRatio="none" x="13910.888672" y="-3596.923828" width="1.098633" height="1.098633"/>
<image xlink:href="tile10_2.png" preserveAspectRatio="none" x="13910.888672" y="-3598.022461" width="1.098633" height="1.098633"/>
<image xlink:href="tile10_1.png" preserveAspectRatio="none" x="13910.888672" y="-3599.121094" width="1.098633" height="1.098633"/>
<image xlink:href="tile11_12.png" preserveAspectRatio="none" x="13911.987305" y="-3587.036133" width="1.098633" height="1.098633"/>
<image xlink:href="tile11_3.png" preserveAspectRatio="none" x="13911.987305" y="-3596.923828" width="1.098633" height="1.098633"/>
<image xlink:href="tile11_2.png" preserveAspectRatio="none" x="13911.987305" y="-3598.022461" width="1.098633" height="1.098633"/>
<image xlink:href="tile12_12.png" preserveAspectRatio="none" x="13913.085938" y="-3587.036133" width="1.098633" height="1.098633"/>
<image xlink:href="tile12_2.png" preserveAspectRatio="none" x="13913.085938" y="-3598.022461" width="1.098633" height="1.098633"/>
<image xlink:href="tile13_12.png" preserveAspectRatio="none" x="13914.18457" y="-3587.036133" width="1.098633" height="1.098633"/>
<image xlink:href="tile13_4.png" preserveAspectRatio="none" x="13914.18457" y="-3595.825195" width="1.098633" height="1.098633"/>
<image xlink:href="tile13_2.png" preserveAspectRatio="none" x="13914.18457" y="-3598.022461" width="1.098633" height="1.098633"/>
<image xlink:href="tile14_4.png" preserveAspectRatio="none" x="13915.283203" y="-3595.825195" width="1.098633" height="1.098633"/>
<image xlink:href="tile14_3.png" preserveAspectRatio="none" x="13915.283203" y="-3596.923828" width="1.098633" height="1.098633"/>
<image xlink:href="tile14_2.png" preserveAspectRatio="none" x="13915.283203" y="-3598.022461" width="1.098633" height="1.098633"/>
</g>
</svg>
