<?xml version="1.0" encoding="UTF-8"?>
<svg  xmlns="http://www.w3.org/2000/svg" xmlns:xlink="http://www.w3.org/1999/xlink" xmlns:go="http://purl.org/svgmap/profile" viewBox="13900.0 -3600.0 100.0 65.76247980000005" go:dataArea="13900.0 -3600.0 100.0 65.76247980000005" >
<metadata>
 <rdf:RDF xmlns:rdf="http://www.w3.org/1999/02/22-rdf-syntax-ns#" xmlns:crs="http://opengis.org/xmldtds/transformations.dtd" xmlns:svg="http://www.w3.org/svg" >
  <rdf:Description>
   <crs:CoordinateReferenceSystem rdf:resource="http://purl.org/crs/84" svg:transform="matrix(100.0,0.0,0.0,-100.0,0.0,0.0)" />
  </rdf:Description>
 </rdf:RDF>
</metadata>
<globalCoordinateSystem srsName="http://purl.org/crs/84" transform="matrix(100.0,0.0,0.0,-100.0,0.0,0.0)" />
<g >
<image xlink:href="tile0_23.png" preserveAspectRatio="none" x="13899.902344" y="-3574.951172" width="1.098633" height="1.098633"/>
<image xlink:href="tile0_22.png" preserveAspectRatio="none" x="13899.902344" y="-3576.049805" width="1.098633" height="1.098633"/>
<image xlink:href="tile0_21.png" preserveAspectRatio="none" x="13899.902344" y="-3577.148438" width="1.098633" height="1.098633"/>
<image xlink:href="tile0_20.png" preserveAspectRatio="none" x="13899.902344" y="-3578.24707" width="1.098633" height="1.098633"/>
<image xlink:href="tile0_19.png" preserveAspectRatio="none" x="13899.902344" y="-3579.345703" width="1.098633" height="1.098633"/>
<image xlink:href="tile0_18.png" preserveAspectRatio="none" x="13899.902344" y="-3580.444336" width="1.098633" height="1.098633"/>
<image xlink:href="tile0_17.png" preserveAspectRatio="none" x="13899.902344" y="-3581.542969" width="1.098633" height="1.098633"/>
<image xlink:href="tile0_16.png" preserveAspectRatio="none" x="13899.902344" y="-3582.641602" width="1.098633" height="1.098633"/>
<image xlink:href="tile0_15.png" preserveAspectRatio="none" x="13899.902344" y="-3583.740234" width="1.098633" height="1.098633"/>
<image xlink:href="tile0_14.png" preserveAspectRatio="none" x="13899.902344" y="-3584.838867" width="1.098633" height="1.098633"/>
<image xlink:href="tile0_13.png" preserveAspectRatio="none" x="13899.902344" y="-3585.9375" width="1.098633" height="1.098633"/>
<image xlink:href="tile1_24.png" preserveAspectRatio="none" x="13901.000977" y="-3573.852539" width="1.098633" height="1.098633"/>
<image xlink:href="tile1_23.png" preserveAspectRatio="none" x="13901.000977" y="-3574.951172" width="1.098633" height="1.098633"/>
<image xlink:href="tile1_22.png" preserveAspectRatio="none" x="13901.000977" y="-3576.049805" width="1.098633" height="1.098633"/>
<image xlink:href="tile1_21.png" preserveAspectRatio="none" x="13901.000977" y="-3577.148438" width="1.098633" height="1.098633"/>
<image xlink:href="tile1_20.png" preserveAspectRatio="none" x="13901.000977" y="-3578.24707" width="1.098633" height="1.098633"/>
<image xlink:href="tile1_19.png" preserveAspectRatio="none" x="13901.000977" y="-3579.345703" width="1.098633" height="1.098633"/>
<image xlink:href="tile1_18.png" preserveAspectRatio="none" x="13901.000977" y="-3580.444336" width="1.098633" height="1.098633"/>
<image xlink:href="tile1_17.png" preserveAspectRatio="none" x="13901.000977" y="-3581.542969" width="1.098633" height="1.098633"/>
<image xlink:href="tile1_16.png" preserveAspectRatio="none" x="13901.000977" y="-3582.641602" width="1.098633" height="1.098633"/>
<image xlink:href="tile1_15.png" preserveAspectRatio="none" x="13901.000977" y="-3583.740234" width="1.098633" height="1.098633"/>
<image xlink:href="tile1_14.png" preserveAspectRatio="none" x="13901.000977" y="-3584.838867" width="1.098633" height="1.098633"/>
<image xlink:href="tile1_13.png" preserveAspectRatio="none" x="13901.000977" y="-3585.9375" width="1.098633" height="1.098633"/>
<image xlink:href="tile2_25.png" preserveAspectRatio="none" x="13902.099609" y="-3572.753906" width="1.098633" height="1.098633"/>
<image xlink:href="tile2_24.png" preserveAspectRatio="none" x="13902.099609" y="-3573.852539" width="1.098633" height="1.098633"/>
<image xlink:href="tile2_23.png" preserveAspectRatio="none" x="13902.099609" y="-3574.951172" width="1.098633" height="1.098633"/>
<image xlink:href="tile2_22.png" preserveAspectRatio="none" x="13902.099609" y="-3576.049805" width="1.098633" height="1.098633"/>
<image xlink:href="tile2_21.png" preserveAspectRatio="none" x="13902.099609" y="-3577.148438" width="1.098633" height="1.098633"/>
<image xlink:href="tile2_20.png" preserveAspectRatio="none" x="13902.099609" y="-3578.24707" width="1.098633" height="1.098633"/>
<image xlink:href="tile2_19.png" preserveAspectRatio="none" x="13902.099609" y="-3579.345703" width="1.098633" height="1.098633"/>
<image xlink:href="tile2_18.png" preserveAspectRatio="none" x="13902.099609" y="-3580.444336" width="1.098633" height="1.098633"/>
<image xlink:href="tile2_17.png" preserveAspectRatio="none" x="13902.099609" y="-3581.542969" width="1.098633" height="1.098633"/>
<image xlink:href="tile2_16.png" preserveAspectRatio="none" x="13902.099609" y="-3582.641602" width="1.098633" height="1.098633"/>
<image xlink:href="tile2_15.png" preserveAspectRatio="none" x="13902.099609" y="-3583.740234" width="1.098633" height="1.098633"/>
<image xlink:href="tile2_14.png" preserveAspectRatio="none" x="13902.099609" y="-3584.838867" width="1.098633" height="1.098633"/>
<image xlink:href="tile2_13.png" preserveAspectRatio="none" x="13902.099609" y="-3585.9375" width="1.098633" height="1.098633"/>
<image xlink:href="tile3_26.png" preserveAspectRatio="none" x="13903.198242" y="-3571.655273" width="1.098633" height="1.098633"/>
<image xlink:href="tile3_25.png" preserveAspectRatio="none" x="13903.198242" y="-3572.753906" width="1.098633" height="1.098633"/>
<image xlink:href="tile3_24.png" preserveAspectRatio="none" x="13903.198242" y="-3573.852539" width="1.098633" height="1.098633"/>
<image xlink:href="tile3_23.png" preserveAspectRatio="none" x="13903.198242" y="-3574.951172" width="1.098633" height="1.098633"/>
<image xlink:href="tile3_22.png" preserveAspectRatio="none" x="13903.198242" y="-3576.049805" width="1.098633" height="1.098633"/>
<image xlink:href="tile3_21.png" preserveAspectRatio="none" x="13903.198242" y="-3577.148438" width="1.098633" height="1.098633"/>
<image xlink:href="tile3_20.png" preserveAspectRatio="none" x="13903.198242" y="-3578.24707" width="1.098633" height="1.098633"/>
<image xlink:href="tile3_19.png" preserveAspectRatio="none" x="13903.198242" y="-3579.345703" width="1.098633" height="1.098633"/>
<image xlink:href="tile3_18.png" preserveAspectRatio="none" x="13903.198242" y="-3580.444336" width="1.098633" height="1.098633"/>
<image xlink:href="tile3_17.png" preserveAspectRatio="none" x="13903.198242" y="-3581.542969" width="1.098633" height="1.098633"/>
<image xlink:href="tile3_16.png" preserveAspectRatio="none" x="13903.198242" y="-3582.641602" width="1.098633" height="1.098633"/>
<image xlink:href="tile3_15.png" preserveAspectRatio="none" x="13903.198242" y="-3583.740234" width="1.098633" height="1.098633"/>
<image xlink:href="tile3_14.png" preserveAspectRatio="none" x="13903.198242" y="-3584.838867" width="1.098633" height="1.098633"/>
<image xlink:href="tile3_13.png" preserveAspectRatio="none" x="13903.198242" y="-3585.9375" width="1.098633" height="1.098633"/>
<image xlink:href="tile4_26.png" preserveAspectRatio="none" x="13904.296875" y="-3571.655273" width="1.098633" height="1.098633"/>
<image xlink:href="tile4_25.png" preserveAspectRatio="none" x="13904.296875" y="-3572.753906" width="1.098633" height="1.098633"/>
<image xlink:href="tile4_24.png" preserveAspectRatio="none" x="13904.296875" y="-3573.852539" width="1.098633" height="1.098633"/>
<image xlink:href="tile4_23.png" preserveAspectRatio="none" x="13904.296875" y="-3574.951172" width="1.098633" height="1.098633"/>
<image xlink:href="tile4_22.png" preserveAspectRatio="none" x="13904.296875" y="-3576.049805" width="1.098633" height="1.098633"/>
<image xlink:href="tile4_21.png" preserveAspectRatio="none" x="13904.296875" y="-3577.148438" width="1.098633" height="1.098633"/>
<image xlink:href="tile4_20.png" preserveAspectRatio="none" x="13904.296875" y="-3578.24707" width="1.098633" height="1.098633"/>
<image xlink:href="tile4_19.png" preserveAspectRatio="none" x="13904.296875" y="-3579.345703" width="1.098633" height="1.098633"/>
<image xlink:href="tile4_18.png" preserveAspectRatio="none" x="13904.296875" y="-3580.444336" width="1.098633" height="1.098633"/>
<image xlink:href="tile4_17.png" preserveAspectRatio="none" x="13904.296875" y="-3581.542969" width="1.098633" height="1.098633"/>
<image xlink:href="tile4_16.png" preserveAspectRatio="none" x="13904.296875" y="-3582.641602" width="1.098633" height="1.098633"/>
<image xlink:href="tile4_15.png" preserveAspectRatio="none" x="13904.296875" y="-3583.740234" width="1.098633" height="1.098633"/>
<image xlink:href="tile4_14.png" preserveAspectRatio="none" x="13904.296875" y="-3584.838867" width="1.098633" height="1.098633"/>
<image xlink:href="tile4_13.png" preserveAspectRatio="none" x="13904.296875" y="-3585.9375" width="1.098633" height="1.098633"/>
<image xlink:href="tile5_27.png" preserveAspectRatio="none" x="13905.395508" y="-3570.556641" width="1.098633" height="1.098633"/>
<image xlink:href="tile5_26.png" preserveAspectRatio="none" x="13905.395508" y="-3571.655273" width="1.098633" height="1.098633"/>
<image xlink:href="tile5_25.png" preserveAspectRatio="none" x="13905.395508" y="-3572.753906" width="1.098633" height="1.098633"/>
<image xlink:href="tile5_24.png" preserveAspectRatio="none" x="13905.395508" y="-3573.852539" width="1.098633" height="1.098633"/>
<image xlink:href="tile5_23.png" preserveAspectRatio="none" x="13905.395508" y="-3574.951172" width="1.098633" height="1.098633"/>
<image xlink:href="tile5_22.png" preserveAspectRatio="none" x="13905.395508" y="-3576.049805" width="1.098633" height="1.098633"/>
<image xlink:href="tile5_21.png" preserveAspectRatio="none" x="13905.395508" y="-3577.148438" width="1.098633" height="1.098633"/>
<image xlink:href="tile5_20.png" preserveAspectRatio="none" x="13905.395508" y="-3578.24707" width="1.098633" height="1.098633"/>
<image xlink:href="tile5_19.png" preserveAspectRatio="none" x="13905.395508" y="-3579.345703" width="1.098633" height="1.098633"/>
<image xlink:href="tile5_18.png" preserveAspectRatio="none" x="13905.395508" y="-3580.444336" width="1.098633" height="1.098633"/>
<image xlink:href="tile5_17.png" preserveAspectRatio="none" x="13905.395508" y="-3581.542969" width="1.098633" height="1.098633"/>
<image xlink:href="tile5_16.png" preserveAspectRatio="none" x="13905.395508" y="-3582.641602" width="1.098633" height="1.098633"/>
<image xlink:href="tile5_15.png" preserveAspectRatio="none" x="13905.395508" y="-3583.740234" width="1.098633" height="1.098633"/>
<image xlink:href="tile5_14.png" preserveAspectRatio="none" x="13905.395508" y="-3584.838867" width="1.098633" height="1.098633"/>
<image xlink:href="tile5_13.png" preserveAspectRatio="none" x="13905.395508" y="-3585.9375" width="1.098633" height="1.098633"/>
<image xlink:href="tile6_27.png" preserveAspectRatio="none" x="13906.494141" y="-3570.556641" width="1.098633" height="1.098633"/>
<image xlink:href="tile6_26.png" preserveAspectRatio="none" x="13906.494141" y="-3571.655273" width="1.098633" height="1.098633"/>
<image xlink:href="tile6_25.png" preserveAspectRatio="none" x="13906.494141" y="-3572.753906" width="1.098633" height="1.098633"/>
<image xlink:href="tile6_24.png" preserveAspectRatio="none" x="13906.494141" y="-3573.852539" width="1.098633" height="1.098633"/>
<image xlink:href="tile6_23.png" preserveAspectRatio="none" x="13906.494141" y="-3574.951172" width="1.098633" height="1.098633"/>
<image xlink:href="tile6_22.png" preserveAspectRatio="none" x="13906.494141" y="-3576.049805" width="1.098633" height="1.098633"/>
<image xlink:href="tile6_21.png" preserveAspectRatio="none" x="13906.494141" y="-3577.148438" width="1.098633" height="1.098633"/>
<image xlink:href="tile6_20.png" preserveAspectRatio="none" x="13906.494141" y="-3578.24707" width="1.098633" height="1.098633"/>
<image xlink:href="tile6_19.png" preserveAspectRatio="none" x="13906.494141" y="-3579.345703" width="1.098633" height="1.098633"/>
<image xlink:href="tile6_18.png" preserveAspectRatio="none" x="13906.494141" y="-3580.444336" width="1.098633" height="1.098633"/>
<image xlink:href="tile6_17.png" preserveAspectRatio="none" x="13906.494141" y="-3581.542969" width="1.098633" height="1.098633"/>
<image xlink:href="tile6_16.png" preserveAspectRatio="none" x="13906.494141" y="-3582.641602" width="1.098633" height="1.098633"/>
<image xlink:href="tile6_15.png" preserveAspectRatio="none" x="13906.494141" y="-3583.740234" width="1.098633" height="1.098633"/>
<image xlink:href="tile6_14.png" preserveAspectRatio="none" x="13906.494141" y="-3584.838867" width="1.098633" height="1.098633"/>
<image xlink:href="tile6_13.png" preserveAspectRatio="none" x="13906.494141" y="-3585.9375" width="1.098633" height="1.098633"/>
<image xlink:href="tile7_28.png" preserveAspectRatio="none" x="13907.592773" y="-3569.458008" width="1.098633" height="1.098633"/>
<image xlink:href="tile7_27.png" preserveAspectRatio="none" x="13907.592773" y="-3570.556641" width="1.098633" height="1.098633"/>
<image xlink:href="tile7_26.png" preserveAspectRatio="none" x="13907.592773" y="-3571.655273" width="1.098633" height="1.098633"/>
<image xlink:href="tile7_25.png" preserveAspectRatio="none" x="13907.592773" y="-3572.753906" width="1.098633" height="1.098633"/>
<image xlink:href="tile7_24.png" preserveAspectRatio="none" x="13907.592773" y="-3573.852539" width="1.098633" height="1.098633"/>
<image xlink:href="tile7_23.png" preserveAspectRatio="none" x="13907.592773" y="-3574.951172" width="1.098633" height="1.098633"/>
<image xlink:href="tile7_22.png" preserveAspectRatio="none" x="13907.592773" y="-3576.049805" width="1.098633" height="1.098633"/>
<image xlink:href="tile7_21.png" preserveAspectRatio="none" x="13907.592773" y="-3577.148438" width="1.098633" height="1.098633"/>
<image xlink:href="tile7_20.png" preserveAspectRatio="none" x="13907.592773" y="-3578.24707" width="1.098633" height="1.098633"/>
<image xlink:href="tile7_19.png" preserveAspectRatio="none" x="13907.592773" y="-3579.345703" width="1.098633" height="1.098633"/>
<image xlink:href="tile7_18.png" preserveAspectRatio="none" x="13907.592773" y="-3580.444336" width="1.098633" height="1.098633"/>
<image xlink:href="tile7_17.png" preserveAspectRatio="none" x="13907.592773" y="-3581.542969" width="1.098633" height="1.098633"/>
<image xlink:href="tile7_16.png" preserveAspectRatio="none" x="13907.592773" y="-3582.641602" width="1.098633" height="1.098633"/>
<image xlink:href="tile7_15.png" preserveAspectRatio="none" x="13907.592773" y="-3583.740234" width="1.098633" height="1.098633"/>
<image xlink:href="tile7_14.png" preserveAspectRatio="none" x="13907.592773" y="-3584.838867" width="1.098633" height="1.098633"/>
<image xlink:href="tile7_13.png" preserveAspectRatio="none" x="13907.592773" y="-3585.9375" width="1.098633" height="1.098633"/>
<image xlink:href="tile8_28.png" preserveAspectRatio="none" x="13908.691406" y="-3569.458008" width="1.098633" height="1.098633"/>
<image xlink:href="tile8_27.png" preserveAspectRatio="none" x="13908.691406" y="-3570.556641" width="1.098633" height="1.098633"/>
<image xlink:href="tile8_26.png" preserveAspectRatio="none" x="13908.691406" y="-3571.655273" width="1.098633" height="1.098633"/>
<image xlink:href="tile8_25.png" preserveAspectRatio="none" x="13908.691406" y="-3572.753906" width="1.098633" height="1.098633"/>
<image xlink:href="tile8_24.png" preserveAspectRatio="none" x="13908.691406" y="-3573.852539" width="1.098633" height="1.098633"/>
<image xlink:href="tile8_23.png" preserveAspectRatio="none" x="13908.691406" y="-3574.951172" width="1.098633" height="1.098633"/>
<image xlink:href="tile8_22.png" preserveAspectRatio="none" x="13908.691406" y="-3576.049805" width="1.098633" height="1.098633"/>
<image xlink:href="tile8_21.png" preserveAspectRatio="none" x="13908.691406" y="-3577.148438" width="1.098633" height="1.098633"/>
<image xlink:href="tile8_20.png" preserveAspectRatio="none" x="13908.691406" y="-3578.24707" width="1.098633" height="1.098633"/>
<image xlink:href="tile8_19.png" preserveAspectRatio="none" x="13908.691406" y="-3579.345703" width="1.098633" height="1.098633"/>
<image xlink:href="tile8_18.png" preserveAspectRatio="none" x="13908.691406" y="-3580.444336" width="1.098633" height="1.098633"/>
<image xlink:href="tile8_17.png" preserveAspectRatio="none" x="13908.691406" y="-3581.542969" width="1.098633" height="1.098633"/>
<image xlink:href="tile8_16.png" preserveAspectRatio="none" x="13908.691406" y="-3582.641602" width="1.098633" height="1.098633"/>
<image xlink:href="tile8_15.png" preserveAspectRatio="none" x="13908.691406" y="-3583.740234" width="1.098633" height="1.098633"/>
<image xlink:href="tile8_14.png" preserveAspectRatio="none" x="13908.691406" y="-3584.838867" width="1.098633" height="1.098633"/>
<image xlink:href="tile8_13.png" preserveAspectRatio="none" x="13908.691406" y="-3585.9375" width="1.098633" height="1.098633"/>
<image xlink:href="tile9_28.png" preserveAspectRatio="none" x="13909.790039" y="-3569.458008" width="1.098633" height="1.098633"/>
<image xlink:href="tile9_27.png" preserveAspectRatio="none" x="13909.790039" y="-3570.556641" width="1.098633" height="1.098633"/>
<image xlink:href="tile9_26.png" preserveAspectRatio="none" x="13909.790039" y="-3571.655273" width="1.098633" height="1.098633"/>
<image xlink:href="tile9_25.png" preserveAspectRatio="none" x="13909.790039" y="-3572.753906" width="1.098633" height="1.098633"/>
<image xlink:href="tile9_24.png" preserveAspectRatio="none" x="13909.790039" y="-3573.852539" width="1.098633" height="1.098633"/>
<image xlink:href="tile9_23.png" preserveAspectRatio="none" x="13909.790039" y="-3574.951172" width="1.098633" height="1.098633"/>
<image xlink:href="tile9_22.png" preserveAspectRatio="none" x="13909.790039" y="-3576.049805" width="1.098633" height="1.098633"/>
<image xlink:href="tile9_21.png" preserveAspectRatio="none" x="13909.790039" y="-3577.148438" width="1.098633" height="1.098633"/>
<image xlink:href="tile9_20.png" preserveAspectRatio="none" x="13909.790039" y="-3578.24707" width="1.098633" height="1.098633"/>
<image xlink:href="tile9_19.png" preserveAspectRatio="none" x="13909.790039" y="-3579.345703" width="1.098633" height="1.098633"/>
<image xlink:href="tile9_18.png" preserveAspectRatio="none" x="13909.790039" y="-3580.444336" width="1.098633" height="1.098633"/>
<image xlink:href="tile9_17.png" preserveAspectRatio="none" x="13909.790039" y="-3581.542969" width="1.098633" height="1.098633"/>
<image xlink:href="tile9_16.png" preserveAspectRatio="none" x="13909.790039" y="-3582.641602" width="1.098633" height="1.098633"/>
<image xlink:href="tile9_15.png" preserveAspectRatio="none" x="13909.790039" y="-3583.740234" width="1.098633" height="1.098633"/>
<image xlink:href="tile9_14.png" preserveAspectRatio="none" x="13909.790039" y="-3584.838867" width="1.098633" height="1.098633"/>
<image xlink:href="tile9_13.png" preserveAspectRatio="none" x="13909.790039" y="-3585.9375" width="1.098633" height="1.098633"/>
<image xlink:href="tile10_28.png" preserveAspectRatio="none" x="13910.888672" y="-3569.458008" width="1.098633" height="1.098633"/>
<image xlink:href="tile10_27.png" preserveAspectRatio="none" x="13910.888672" y="-3570.556641" width="1.098633" height="1.098633"/>
<image xlink:href="tile10_26.png" preserveAspectRatio="none" x="13910.888672" y="-3571.655273" width="1.098633" height="1.098633"/>
<image xlink:href="tile10_25.png" preserveAspectRatio="none" x="13910.888672" y="-3572.753906" width="1.098633" height="1.098633"/>
<image xlink:href="tile10_24.png" preserveAspectRatio="none" x="13910.888672" y="-3573.852539" width="1.098633" height="1.098633"/>
<image xlink:href="tile10_23.png" preserveAspectRatio="none" x="13910.888672" y="-3574.951172" width="1.098633" height="1.098633"/>
<image xlink:href="tile10_22.png" preserveAspectRatio="none" x="13910.888672" y="-3576.049805" width="1.098633" height="1.098633"/>
<image xlink:href="tile10_21.png" preserveAspectRatio="none" x="13910.888672" y="-3577.148438" width="1.098633" height="1.098633"/>
<image xlink:href="tile10_20.png" preserveAspectRatio="none" x="13910.888672" y="-3578.24707" width="1.098633" height="1.098633"/>
<image xlink:href="tile10_19.png" preserveAspectRatio="none" x="13910.888672" y="-3579.345703" width="1.098633" height="1.098633"/>
<image xlink:href="tile10_18.png" preserveAspectRatio="none" x="13910.888672" y="-3580.444336" width="1.098633" height="1.098633"/>
<image xlink:href="tile10_17.png" preserveAspectRatio="none" x="13910.888672" y="-3581.542969" width="1.098633" height="1.098633"/>
<image xlink:href="tile10_16.png" preserveAspectRatio="none" x="13910.888672" y="-3582.641602" width="1.098633" height="1.098633"/>
<image xlink:href="tile10_15.png" preserveAspectRatio="none" x="13910.888672" y="-3583.740234" width="1.098633" height="1.098633"/>
<image xlink:href="tile10_14.png" preserveAspectRatio="none" x="13910.888672" y="-3584.838867" width="1.098633" height="1.098633"/>
<image xlink:href="tile10_13.png" preserveAspectRatio="none" x="13910.888672" y="-3585.9375" width="1.098633" height="1.098633"/>
<image xlink:href="tile11_28.png" preserveAspectRatio="none" x="13911.987305" y="-3569.458008" width="1.098633" height="1.098633"/>
<image xlink:href="tile11_27.png" preserveAspectRatio="none" x="13911.987305" y="-3570.556641" width="1.098633" height="1.098633"/>
<image xlink:href="tile11_26.png" preserveAspectRatio="none" x="13911.987305" y="-3571.655273" width="1.098633" height="1.098633"/>
<image xlink:href="tile11_25.png" preserveAspectRatio="none" x="13911.987305" y="-3572.753906" width="1.098633" height="1.098633"/>
<image xlink:href="tile11_24.png" preserveAspectRatio="none" x="13911.987305" y="-3573.852539" width="1.098633" height="1.098633"/>
<image xlink:href="tile11_23.png" preserveAspectRatio="none" x="13911.987305" y="-3574.951172" width="1.098633" height="1.098633"/>
<image xlink:href="tile11_22.png" preserveAspectRatio="none" x="13911.987305" y="-3576.049805" width="1.098633" height="1.098633"/>
<image xlink:href="tile11_21.png" preserveAspectRatio="none" x="13911.987305" y="-3577.148438" width="1.098633" height="1.098633"/>
<image xlink:href="tile11_20.png" preserveAspectRatio="none" x="13911.987305" y="-3578.24707" width="1.098633" height="1.098633"/>
<image xlink:href="tile11_19.png" preserveAspectRatio="none" x="13911.987305" y="-3579.345703" width="1.098633" height="1.098633"/>
<image xlink:href="tile11_18.png" preserveAspectRatio="none" x="13911.987305" y="-3580.444336" width="1.098633" height="1.098633"/>
<image xlink:href="tile11_17.png" preserveAspectRatio="none" x="13911.987305" y="-3581.542969" width="1.098633" height="1.098633"/>
<image xlink:href="tile11_16.png" preserveAspectRatio="none" x="13911.987305" y="-3582.641602" width="1.098633" height="1.098633"/>
<image xlink:href="tile11_15.png" preserveAspectRatio="none" x="13911.987305" y="-3583.740234" width="1.098633" height="1.098633"/>
<image xlink:href="tile11_14.png" preserveAspectRatio="none" x="13911.987305" y="-3584.838867" width="1.098633" height="1.098633"/>
<image xlink:href="tile11_13.png" preserveAspectRatio="none" x="13911.987305" y="-3585.9375" width="1.098633" height="1.098633"/>
<image xlink:href="tile12_28.png" preserveAspectRatio="none" x="13913.085938" y="-3569.458008" width="1.098633" height="1.098633"/>
<image xlink:href="tile12_27.png" preserveAspectRatio="none" x="13913.085938" y="-3570.556641" width="1.098633" height="1.098633"/>
<image xlink:href="tile12_26.png" preserveAspectRatio="none" x="13913.085938" y="-3571.655273" width="1.098633" height="1.098633"/>
<image xlink:href="tile12_25.png" preserveAspectRatio="none" x="13913.085938" y="-3572.753906" width="1.098633" height="1.098633"/>
<image xlink:href="tile12_24.png" preserveAspectRatio="none" x="13913.085938" y="-3573.852539" width="1.098633" height="1.098633"/>
<image xlink:href="tile12_23.png" preserveAspectRatio="none" x="13913.085938" y="-3574.951172" width="1.098633" height="1.098633"/>
<image xlink:href="tile12_22.png" preserveAspectRatio="none" x="13913.085938" y="-3576.049805" width="1.098633" height="1.098633"/>
<image xlink:href="tile12_21.png" preserveAspectRatio="none" x="13913.085938" y="-3577.148438" width="1.098633" height="1.098633"/>
<image xlink:href="tile12_20.png" preserveAspectRatio="none" x="13913.085938" y="-3578.24707" width="1.098633" height="1.098633"/>
<image xlink:href="tile12_19.png" preserveAspectRatio="none" x="13913.085938" y="-3579.345703" width="1.098633" height="1.098633"/>
<image xlink:href="tile12_18.png" preserveAspectRatio="none" x="13913.085938" y="-3580.444336" width="1.098633" height="1.098633"/>
<image xlink:href="tile12_17.png" preserveAspectRatio="none" x="13913.085938" y="-3581.542969" width="1.098633" height="1.098633"/>
<image xlink:href="tile12_16.png" preserveAspectRatio="none" x="13913.085938" y="-3582.641602" width="1.098633" height="1.098633"/>
<image xlink:href="tile12_15.png" preserveAspectRatio="none" x="13913.085938" y="-3583.740234" width="1.098633" height="1.098633"/>
<image xlink:href="tile12_14.png" preserveAspectRatio="none" x="13913.085938" y="-3584.838867" width="1.098633" height="1.098633"/>
<image xlink:href="tile12_13.png" preserveAspectRatio="none" x="13913.085938" y="-3585.9375" width="1.098633" height="1.098633"/>
<image xlink:href="tile13_28.png" preserveAspectRatio="none" x="13914.18457" y="-3569.458008" width="1.098633" height="1.098633"/>
<image xlink:href="tile13_27.png" preserveAspectRatio="none" x="13914.18457" y="-3570.556641" width="1.098633" height="1.098633"/>
<image xlink:href="tile13_26.png" preserveAspectRatio="none" x="13914.18457" y="-3571.655273" width="1.098633" height="1.098633"/>
<image xlink:href="tile13_25.png" preserveAspectRatio="none" x="13914.18457" y="-3572.753906" width="1.098633" height="1.098633"/>
<image xlink:href="tile13_24.png" preserveAspectRatio="none" x="13914.18457" y="-3573.852539" width="1.098633" height="1.098633"/>
<image xlink:href="tile13_23.png" preserveAspectRatio="none" x="13914.18457" y="-3574.951172" width="1.098633" height="1.098633"/>
<image xlink:href="tile13_22.png" preserveAspectRatio="none" x="13914.18457" y="-3576.049805" width="1.098633" height="1.098633"/>
<image xlink:href="tile13_21.png" preserveAspectRatio="none" x="13914.18457" y="-3577.148438" width="1.098633" height="1.098633"/>
<image xlink:href="tile13_20.png" preserveAspectRatio="none" x="13914.18457" y="-3578.24707" width="1.098633" height="1.098633"/>
<image xlink:href="tile13_19.png" preserveAspectRatio="none" x="13914.18457" y="-3579.345703" width="1.098633" height="1.098633"/>
<image xlink:href="tile13_18.png" preserveAspectRatio="none" x="13914.18457" y="-3580.444336" width="1.098633" height="1.098633"/>
<image xlink:href="tile13_17.png" preserveAspectRatio="none" x="13914.18457" y="-3581.542969" width="1.098633" height="1.098633"/>
<image xlink:href="tile13_16.png" preserveAspectRatio="none" x="13914.18457" y="-3582.641602" width="1.098633" height="1.098633"/>
<image xlink:href="tile13_15.png" preserveAspectRatio="none" x="13914.18457" y="-3583.740234" width="1.098633" height="1.098633"/>
<image xlink:href="tile13_14.png" preserveAspectRatio="none" x="13914.18457" y="-3584.838867" width="1.098633" height="1.098633"/>
<image xlink:href="tile13_13.png" preserveAspectRatio="none" x="13914.18457" y="-3585.9375" width="1.098633" height="1.098633"/>
<image xlink:href="tile14_28.png" preserveAspectRatio="none" x="13915.283203" y="-3569.458008" width="1.098633" height="1.098633"/>
<image xlink:href="tile14_27.png" preserveAspectRatio="none" x="13915.283203" y="-3570.556641" width="1.098633" height="1.098633"/>
<image xlink:href="tile14_26.png" preserveAspectRatio="none" x="13915.283203" y="-3571.655273" width="1.098633" height="1.098633"/>
<image xlink:href="tile14_25.png" preserveAspectRatio="none" x="13915.283203" y="-3572.753906" width="1.098633" height="1.098633"/>
<image xlink:href="tile14_24.png" preserveAspectRatio="none" x="13915.283203" y="-3573.852539" width="1.098633" height="1.098633"/>
<image xlink:href="tile14_23.png" preserveAspectRatio="none" x="13915.283203" y="-3574.951172" width="1.098633" height="1.098633"/>
<image xlink:href="tile14_22.png" preserveAspectRatio="none" x="13915.283203" y="-3576.049805" width="1.098633" height="1.098633"/>
<image xlink:href="tile14_21.png" preserveAspectRatio="none" x="13915.283203" y="-3577.148438" width="1.098633" height="1.098633"/>
<image xlink:href="tile14_20.png" preserveAspectRatio="none" x="13915.283203" y="-3578.24707" width="1.098633" height="1.098633"/>
<image xlink:href="tile14_19.png" preserveAspectRatio="none" x="13915.283203" y="-3579.345703" width="1.098633" height="1.098633"/>
<image xlink:href="tile14_18.png" preserveAspectRatio="none" x="13915.283203" y="-3580.444336" width="1.098633" height="1.098633"/>
<image xlink:href="tile14_17.png" preserveAspectRatio="none" x="13915.283203" y="-3581.542969" width="1.098633" height="1.098633"/>
<image xlink:href="tile14_16.png" preserveAspectRatio="none" x="13915.283203" y="-3582.641602" width="1.098633" height="1.098633"/>
<image xlink:href="tile14_15.png" preserveAspectRatio="none" x="13915.283203" y="-3583.740234" width="1.098633" height="1.098633"/>
<image xlink:href="tile14_14.png" preserveAspectRatio="none" x="13915.283203" y="-3584.838867" width="1.098633" height="1.098633"/>
<image xlink:href="tile14_13.png" preserveAspectRatio="none" x="13915.283203" y="-3585.9375" width="1.098633" height="1.098633"/>
<image xlink:href="tile15_28.png" preserveAspectRatio="none" x="13916.381836" y="-3569.458008" width="1.098633" height="1.098633"/>
<image xlink:href="tile15_27.png" preserveAspectRatio="none" x="13916.381836" y="-3570.556641" width="1.098633" height="1.098633"/>
<image xlink:href="tile15_26.png" preserveAspectRatio="none" x="13916.381836" y="-3571.655273" width="1.098633" height="1.098633"/>
<image xlink:href="tile15_25.png" preserveAspectRatio="none" x="13916.381836" y="-3572.753906" width="1.098633" height="1.098633"/>
<image xlink:href="tile15_24.png" preserveAspectRatio="none" x="13916.381836" y="-3573.852539" width="1.098633" height="1.098633"/>
<image xlink:href="tile15_23.png" preserveAspectRatio="none" x="13916.381836" y="-3574.951172" width="1.098633" height="1.098633"/>
<image xlink:href="tile15_22.png" preserveAspectRatio="none" x="13916.381836" y="-3576.049805" width="1.098633" height="1.098633"/>
<image xlink:href="tile15_21.png" preserveAspectRatio="none" x="13916.381836" y="-3577.148438" width="1.098633" height="1.098633"/>
<image xlink:href="tile15_20.png" preserveAspectRatio="none" x="13916.381836" y="-3578.24707" width="1.098633" height="1.098633"/>
<image xlink:href="tile15_19.png" preserveAspectRatio="none" x="13916.381836" y="-3579.345703" width="1.098633" height="1.098633"/>
<image xlink:href="tile15_18.png" preserveAspectRatio="none" x="13916.381836" y="-3580.444336" width="1.098633" height="1.098633"/>
<image xlink:href="tile15_17.png" preserveAspectRatio="none" x="13916.381836" y="-3581.542969" width="1.098633" height="1.098633"/>
<image xlink:href="tile15_16.png" preserveAspectRatio="none" x="13916.381836" y="-3582.641602" width="1.098633" height="1.098633"/>
<image xlink:href="tile15_15.png" preserveAspectRatio="none" x="13916.381836" y="-3583.740234" width="1.098633" height="1.098633"/>
<image xlink:href="tile15_14.png" preserveAspectRatio="none" x="13916.381836" y="-3584.838867" width="1.098633" height="1.098633"/>
<image xlink:href="tile15_13.png" preserveAspectRatio="none" x="13916.381836" y="-3585.9375" width="1.098633" height="1.098633"/>
</g>
</svg>
