<?xml version="1.0" encoding="UTF-8"?>
<svg  xmlns="http://www.w3.org/2000/svg" xmlns:xlink="http://www.w3.org/1999/xlink" xmlns:go="http://purl.org/svgmap/profile" viewBox="13900.0 -3600.0 100.0 65.76247980000005" go:dataArea="13900.0 -3600.0 100.0 65.76247980000005" >
<metadata>
 <rdf:RDF xmlns:rdf="http://www.w3.org/1999/02/22-rdf-syntax-ns#" xmlns:crs="http://opengis.org/xmldtds/transformations.dtd" xmlns:svg="http://www.w3.org/svg" >
  <rdf:Description>
   <crs:CoordinateReferenceSystem rdf:resource="http://purl.org/crs/84" svg:transform="matrix(100.0,0.0,0.0,-100.0,0.0,0.0)" />
  </rdf:Description>
 </rdf:RDF>
</metadata>
<globalCoordinateSystem srsName="http://purl.org/crs/84" transform="matrix(100.0,0.0,0.0,-100.0,0.0,0.0)" />
<g >
<image xlink:href="tile16_28.png" preserveAspectRatio="none" x="13917.480469" y="-3569.458008" width="1.098633" height="1.098633"/>
<image xlink:href="tile16_27.png" preserveAspectRatio="none" x="13917.480469" y="-3570.556641" width="1.098633" height="1.098633"/>
<image xlink:href="tile16_26.png" preserveAspectRatio="none" x="13917.480469" y="-3571.655273" width="1.098633" height="1.098633"/>
<image xlink:href="tile16_25.png" preserveAspectRatio="none" x="13917.480469" y="-3572.753906" width="1.098633" height="1.098633"/>
<image xlink:href="tile16_24.png" preserveAspectRatio="none" x="13917.480469" y="-3573.852539" width="1.098633" height="1.098633"/>
<image xlink:href="tile16_23.png" preserveAspectRatio="none" x="13917.480469" y="-3574.951172" width="1.098633" height="1.098633"/>
<image xlink:href="tile16_22.png" preserveAspectRatio="none" x="13917.480469" y="-3576.049805" width="1.098633" height="1.098633"/>
<image xlink:href="tile16_21.png" preserveAspectRatio="none" x="13917.480469" y="-3577.148438" width="1.098633" height="1.098633"/>
<image xlink:href="tile16_20.png" preserveAspectRatio="none" x="13917.480469" y="-3578.24707" width="1.098633" height="1.098633"/>
<image xlink:href="tile16_19.png" preserveAspectRatio="none" x="13917.480469" y="-3579.345703" width="1.098633" height="1.098633"/>
<image xlink:href="tile16_18.png" preserveAspectRatio="none" x="13917.480469" y="-3580.444336" width="1.098633" height="1.098633"/>
<image xlink:href="tile16_17.png" preserveAspectRatio="none" x="13917.480469" y="-3581.542969" width="1.098633" height="1.098633"/>
<image xlink:href="tile16_16.png" preserveAspectRatio="none" x="13917.480469" y="-3582.641602" width="1.098633" height="1.098633"/>
<image xlink:href="tile16_15.png" preserveAspectRatio="none" x="13917.480469" y="-3583.740234" width="1.098633" height="1.098633"/>
<image xlink:href="tile16_14.png" preserveAspectRatio="none" x="13917.480469" y="-3584.838867" width="1.098633" height="1.098633"/>
<image xlink:href="tile17_28.png" preserveAspectRatio="none" x="13918.579102" y="-3569.458008" width="1.098633" height="1.098633"/>
<image xlink:href="tile17_27.png" preserveAspectRatio="none" x="13918.579102" y="-3570.556641" width="1.098633" height="1.098633"/>
<image xlink:href="tile17_26.png" preserveAspectRatio="none" x="13918.579102" y="-3571.655273" width="1.098633" height="1.098633"/>
<image xlink:href="tile17_25.png" preserveAspectRatio="none" x="13918.579102" y="-3572.753906" width="1.098633" height="1.098633"/>
<image xlink:href="tile17_24.png" preserveAspectRatio="none" x="13918.579102" y="-3573.852539" width="1.098633" height="1.098633"/>
<image xlink:href="tile17_23.png" preserveAspectRatio="none" x="13918.579102" y="-3574.951172" width="1.098633" height="1.098633"/>
<image xlink:href="tile17_22.png" preserveAspectRatio="none" x="13918.579102" y="-3576.049805" width="1.098633" height="1.098633"/>
<image xlink:href="tile17_21.png" preserveAspectRatio="none" x="13918.579102" y="-3577.148438" width="1.098633" height="1.098633"/>
<image xlink:href="tile17_20.png" preserveAspectRatio="none" x="13918.579102" y="-3578.24707" width="1.098633" height="1.098633"/>
<image xlink:href="tile17_19.png" preserveAspectRatio="none" x="13918.579102" y="-3579.345703" width="1.098633" height="1.098633"/>
<image xlink:href="tile17_18.png" preserveAspectRatio="none" x="13918.579102" y="-3580.444336" width="1.098633" height="1.098633"/>
<image xlink:href="tile17_17.png" preserveAspectRatio="none" x="13918.579102" y="-3581.542969" width="1.098633" height="1.098633"/>
<image xlink:href="tile17_16.png" preserveAspectRatio="none" x="13918.579102" y="-3582.641602" width="1.098633" height="1.098633"/>
<image xlink:href="tile17_15.png" preserveAspectRatio="none" x="13918.579102" y="-3583.740234" width="1.098633" height="1.098633"/>
<image xlink:href="tile17_14.png" preserveAspectRatio="none" x="13918.579102" y="-3584.838867" width="1.098633" height="1.098633"/>
<image xlink:href="tile18_28.png" preserveAspectRatio="none" x="13919.677734" y="-3569.458008" width="1.098633" height="1.098633"/>
<image xlink:href="tile18_27.png" preserveAspectRatio="none" x="13919.677734" y="-3570.556641" width="1.098633" height="1.098633"/>
<image xlink:href="tile18_26.png" preserveAspectRatio="none" x="13919.677734" y="-3571.655273" width="1.098633" height="1.098633"/>
<image xlink:href="tile18_25.png" preserveAspectRatio="none" x="13919.677734" y="-3572.753906" width="1.098633" height="1.098633"/>
<image xlink:href="tile18_24.png" preserveAspectRatio="none" x="13919.677734" y="-3573.852539" width="1.098633" height="1.098633"/>
<image xlink:href="tile18_23.png" preserveAspectRatio="none" x="13919.677734" y="-3574.951172" width="1.098633" height="1.098633"/>
<image xlink:href="tile18_22.png" preserveAspectRatio="none" x="13919.677734" y="-3576.049805" width="1.098633" height="1.098633"/>
<image xlink:href="tile18_21.png" preserveAspectRatio="none" x="13919.677734" y="-3577.148438" width="1.098633" height="1.098633"/>
<image xlink:href="tile18_20.png" preserveAspectRatio="none" x="13919.677734" y="-3578.24707" width="1.098633" height="1.098633"/>
<image xlink:href="tile18_19.png" preserveAspectRatio="none" x="13919.677734" y="-3579.345703" width="1.098633" height="1.098633"/>
<image xlink:href="tile18_18.png" preserveAspectRatio="none" x="13919.677734" y="-3580.444336" width="1.098633" height="1.098633"/>
<image xlink:href="tile18_17.png" preserveAspectRatio="none" x="13919.677734" y="-3581.542969" width="1.098633" height="1.098633"/>
<image xlink:href="tile18_16.png" preserveAspectRatio="none" x="13919.677734" y="-3582.641602" width="1.098633" height="1.098633"/>
<image xlink:href="tile18_15.png" preserveAspectRatio="none" x="13919.677734" y="-3583.740234" width="1.098633" height="1.098633"/>
<image xlink:href="tile18_14.png" preserveAspectRatio="none" x="13919.677734" y="-3584.838867" width="1.098633" height="1.098633"/>
<image xlink:href="tile19_28.png" preserveAspectRatio="none" x="13920.776367" y="-3569.458008" width="1.098633" height="1.098633"/>
<image xlink:href="tile19_27.png" preserveAspectRatio="none" x="13920.776367" y="-3570.556641" width="1.098633" height="1.098633"/>
<image xlink:href="tile19_26.png" preserveAspectRatio="none" x="13920.776367" y="-3571.655273" width="1.098633" height="1.098633"/>
<image xlink:href="tile19_25.png" preserveAspectRatio="none" x="13920.776367" y="-3572.753906" width="1.098633" height="1.098633"/>
<image xlink:href="tile19_24.png" preserveAspectRatio="none" x="13920.776367" y="-3573.852539" width="1.098633" height="1.098633"/>
<image xlink:href="tile19_23.png" preserveAspectRatio="none" x="13920.776367" y="-3574.951172" width="1.098633" height="1.098633"/>
<image xlink:href="tile19_22.png" preserveAspectRatio="none" x="13920.776367" y="-3576.049805" width="1.098633" height="1.098633"/>
<image xlink:href="tile19_21.png" preserveAspectRatio="none" x="13920.776367" y="-3577.148438" width="1.098633" height="1.098633"/>
<image xlink:href="tile19_20.png" preserveAspectRatio="none" x="13920.776367" y="-3578.24707" width="1.098633" height="1.098633"/>
<image xlink:href="tile19_19.png" preserveAspectRatio="none" x="13920.776367" y="-3579.345703" width="1.098633" height="1.098633"/>
<image xlink:href="tile19_18.png" preserveAspectRatio="none" x="13920.776367" y="-3580.444336" width="1.098633" height="1.098633"/>
<image xlink:href="tile19_17.png" preserveAspectRatio="none" x="13920.776367" y="-3581.542969" width="1.098633" height="1.098633"/>
<image xlink:href="tile19_16.png" preserveAspectRatio="none" x="13920.776367" y="-3582.641602" width="1.098633" height="1.098633"/>
<image xlink:href="tile19_15.png" preserveAspectRatio="none" x="13920.776367" y="-3583.740234" width="1.098633" height="1.098633"/>
<image xlink:href="tile19_14.png" preserveAspectRatio="none" x="13920.776367" y="-3584.838867" width="1.098633" height="1.098633"/>
<image xlink:href="tile20_28.png" preserveAspectRatio="none" x="13921.875" y="-3569.458008" width="1.098633" height="1.098633"/>
<image xlink:href="tile20_27.png" preserveAspectRatio="none" x="13921.875" y="-3570.556641" width="1.098633" height="1.098633"/>
<image xlink:href="tile20_26.png" preserveAspectRatio="none" x="13921.875" y="-3571.655273" width="1.098633" height="1.098633"/>
<image xlink:href="tile20_25.png" preserveAspectRatio="none" x="13921.875" y="-3572.753906" width="1.098633" height="1.098633"/>
<image xlink:href="tile20_24.png" preserveAspectRatio="none" x="13921.875" y="-3573.852539" width="1.098633" height="1.098633"/>
<image xlink:href="tile20_23.png" preserveAspectRatio="none" x="13921.875" y="-3574.951172" width="1.098633" height="1.098633"/>
<image xlink:href="tile20_22.png" preserveAspectRatio="none" x="13921.875" y="-3576.049805" width="1.098633" height="1.098633"/>
<image xlink:href="tile20_21.png" preserveAspectRatio="none" x="13921.875" y="-3577.148438" width="1.098633" height="1.098633"/>
<image xlink:href="tile20_20.png" preserveAspectRatio="none" x="13921.875" y="-3578.24707" width="1.098633" height="1.098633"/>
<image xlink:href="tile20_19.png" preserveAspectRatio="none" x="13921.875" y="-3579.345703" width="1.098633" height="1.098633"/>
<image xlink:href="tile20_18.png" preserveAspectRatio="none" x="13921.875" y="-3580.444336" width="1.098633" height="1.098633"/>
<image xlink:href="tile20_17.png" preserveAspectRatio="none" x="13921.875" y="-3581.542969" width="1.098633" height="1.098633"/>
<image xlink:href="tile20_16.png" preserveAspectRatio="none" x="13921.875" y="-3582.641602" width="1.098633" height="1.098633"/>
<image xlink:href="tile20_15.png" preserveAspectRatio="none" x="13921.875" y="-3583.740234" width="1.098633" height="1.098633"/>
<image xlink:href="tile20_14.png" preserveAspectRatio="none" x="13921.875" y="-3584.838867" width="1.098633" height="1.098633"/>
<image xlink:href="tile21_28.png" preserveAspectRatio="none" x="13922.973633" y="-3569.458008" width="1.098633" height="1.098633"/>
<image xlink:href="tile21_27.png" preserveAspectRatio="none" x="13922.973633" y="-3570.556641" width="1.098633" height="1.098633"/>
<image xlink:href="tile21_26.png" preserveAspectRatio="none" x="13922.973633" y="-3571.655273" width="1.098633" height="1.098633"/>
<image xlink:href="tile21_25.png" preserveAspectRatio="none" x="13922.973633" y="-3572.753906" width="1.098633" height="1.098633"/>
<image xlink:href="tile21_24.png" preserveAspectRatio="none" x="13922.973633" y="-3573.852539" width="1.098633" height="1.098633"/>
<image xlink:href="tile21_23.png" preserveAspectRatio="none" x="13922.973633" y="-3574.951172" width="1.098633" height="1.098633"/>
<image xlink:href="tile21_22.png" preserveAspectRatio="none" x="13922.973633" y="-3576.049805" width="1.098633" height="1.098633"/>
<image xlink:href="tile21_21.png" preserveAspectRatio="none" x="13922.973633" y="-3577.148438" width="1.098633" height="1.098633"/>
<image xlink:href="tile21_20.png" preserveAspectRatio="none" x="13922.973633" y="-3578.24707" width="1.098633" height="1.098633"/>
<image xlink:href="tile21_19.png" preserveAspectRatio="none" x="13922.973633" y="-3579.345703" width="1.098633" height="1.098633"/>
<image xlink:href="tile21_18.png" preserveAspectRatio="none" x="13922.973633" y="-3580.444336" width="1.098633" height="1.098633"/>
<image xlink:href="tile21_17.png" preserveAspectRatio="none" x="13922.973633" y="-3581.542969" width="1.098633" height="1.098633"/>
<image xlink:href="tile21_16.png" preserveAspectRatio="none" x="13922.973633" y="-3582.641602" width="1.098633" height="1.098633"/>
<image xlink:href="tile21_15.png" preserveAspectRatio="none" x="13922.973633" y="-3583.740234" width="1.098633" height="1.098633"/>
<image xlink:href="tile22_28.png" preserveAspectRatio="none" x="13924.072266" y="-3569.458008" width="1.098633" height="1.098633"/>
<image xlink:href="tile22_27.png" preserveAspectRatio="none" x="13924.072266" y="-3570.556641" width="1.098633" height="1.098633"/>
<image xlink:href="tile22_26.png" preserveAspectRatio="none" x="13924.072266" y="-3571.655273" width="1.098633" height="1.098633"/>
<image xlink:href="tile22_25.png" preserveAspectRatio="none" x="13924.072266" y="-3572.753906" width="1.098633" height="1.098633"/>
<image xlink:href="tile22_24.png" preserveAspectRatio="none" x="13924.072266" y="-3573.852539" width="1.098633" height="1.098633"/>
<image xlink:href="tile22_23.png" preserveAspectRatio="none" x="13924.072266" y="-3574.951172" width="1.098633" height="1.098633"/>
<image xlink:href="tile22_22.png" preserveAspectRatio="none" x="13924.072266" y="-3576.049805" width="1.098633" height="1.098633"/>
<image xlink:href="tile22_21.png" preserveAspectRatio="none" x="13924.072266" y="-3577.148438" width="1.098633" height="1.098633"/>
<image xlink:href="tile22_20.png" preserveAspectRatio="none" x="13924.072266" y="-3578.24707" width="1.098633" height="1.098633"/>
<image xlink:href="tile22_19.png" preserveAspectRatio="none" x="13924.072266" y="-3579.345703" width="1.098633" height="1.098633"/>
<image xlink:href="tile22_18.png" preserveAspectRatio="none" x="13924.072266" y="-3580.444336" width="1.098633" height="1.098633"/>
<image xlink:href="tile22_17.png" preserveAspectRatio="none" x="13924.072266" y="-3581.542969" width="1.098633" height="1.098633"/>
<image xlink:href="tile22_16.png" preserveAspectRatio="none" x="13924.072266" y="-3582.641602" width="1.098633" height="1.098633"/>
<image xlink:href="tile22_15.png" preserveAspectRatio="none" x="13924.072266" y="-3583.740234" width="1.098633" height="1.098633"/>
<image xlink:href="tile22_14.png" preserveAspectRatio="none" x="13924.072266" y="-3584.838867" width="1.098633" height="1.098633"/>
<image xlink:href="tile23_28.png" preserveAspectRatio="none" x="13925.170898" y="-3569.458008" width="1.098633" height="1.098633"/>
<image xlink:href="tile23_27.png" preserveAspectRatio="none" x="13925.170898" y="-3570.556641" width="1.098633" height="1.098633"/>
<image xlink:href="tile23_26.png" preserveAspectRatio="none" x="13925.170898" y="-3571.655273" width="1.098633" height="1.098633"/>
<image xlink:href="tile23_25.png" preserveAspectRatio="none" x="13925.170898" y="-3572.753906" width="1.098633" height="1.098633"/>
<image xlink:href="tile23_24.png" preserveAspectRatio="none" x="13925.170898" y="-3573.852539" width="1.098633" height="1.098633"/>
<image xlink:href="tile23_23.png" preserveAspectRatio="none" x="13925.170898" y="-3574.951172" width="1.098633" height="1.098633"/>
<image xlink:href="tile23_22.png" preserveAspectRatio="none" x="13925.170898" y="-3576.049805" width="1.098633" height="1.098633"/>
<image xlink:href="tile23_21.png" preserveAspectRatio="none" x="13925.170898" y="-3577.148438" width="1.098633" height="1.098633"/>
<image xlink:href="tile23_20.png" preserveAspectRatio="none" x="13925.170898" y="-3578.24707" width="1.098633" height="1.098633"/>
<image xlink:href="tile23_19.png" preserveAspectRatio="none" x="13925.170898" y="-3579.345703" width="1.098633" height="1.098633"/>
<image xlink:href="tile23_18.png" preserveAspectRatio="none" x="13925.170898" y="-3580.444336" width="1.098633" height="1.098633"/>
<image xlink:href="tile23_17.png" preserveAspectRatio="none" x="13925.170898" y="-3581.542969" width="1.098633" height="1.098633"/>
<image xlink:href="tile23_16.png" preserveAspectRatio="none" x="13925.170898" y="-3582.641602" width="1.098633" height="1.098633"/>
<image xlink:href="tile23_15.png" preserveAspectRatio="none" x="13925.170898" y="-3583.740234" width="1.098633" height="1.098633"/>
<image xlink:href="tile23_14.png" preserveAspectRatio="none" x="13925.170898" y="-3584.838867" width="1.098633" height="1.098633"/>
<image xlink:href="tile24_28.png" preserveAspectRatio="none" x="13926.269531" y="-3569.458008" width="1.098633" height="1.098633"/>
<image xlink:href="tile24_27.png" preserveAspectRatio="none" x="13926.269531" y="-3570.556641" width="1.098633" height="1.098633"/>
<image xlink:href="tile24_26.png" preserveAspectRatio="none" x="13926.269531" y="-3571.655273" width="1.098633" height="1.098633"/>
<image xlink:href="tile24_25.png" preserveAspectRatio="none" x="13926.269531" y="-3572.753906" width="1.098633" height="1.098633"/>
<image xlink:href="tile24_24.png" preserveAspectRatio="none" x="13926.269531" y="-3573.852539" width="1.098633" height="1.098633"/>
<image xlink:href="tile24_23.png" preserveAspectRatio="none" x="13926.269531" y="-3574.951172" width="1.098633" height="1.098633"/>
<image xlink:href="tile24_22.png" preserveAspectRatio="none" x="13926.269531" y="-3576.049805" width="1.098633" height="1.098633"/>
<image xlink:href="tile24_21.png" preserveAspectRatio="none" x="13926.269531" y="-3577.148438" width="1.098633" height="1.098633"/>
<image xlink:href="tile24_20.png" preserveAspectRatio="none" x="13926.269531" y="-3578.24707" width="1.098633" height="1.098633"/>
<image xlink:href="tile24_19.png" preserveAspectRatio="none" x="13926.269531" y="-3579.345703" width="1.098633" height="1.098633"/>
<image xlink:href="tile24_18.png" preserveAspectRatio="none" x="13926.269531" y="-3580.444336" width="1.098633" height="1.098633"/>
<image xlink:href="tile24_17.png" preserveAspectRatio="none" x="13926.269531" y="-3581.542969" width="1.098633" height="1.098633"/>
<image xlink:href="tile24_16.png" preserveAspectRatio="none" x="13926.269531" y="-3582.641602" width="1.098633" height="1.098633"/>
<image xlink:href="tile24_15.png" preserveAspectRatio="none" x="13926.269531" y="-3583.740234" width="1.098633" height="1.098633"/>
<image xlink:href="tile24_14.png" preserveAspectRatio="none" x="13926.269531" y="-3584.838867" width="1.098633" height="1.098633"/>
<image xlink:href="tile25_28.png" preserveAspectRatio="none" x="13927.368164" y="-3569.458008" width="1.098633" height="1.098633"/>
<image xlink:href="tile25_27.png" preserveAspectRatio="none" x="13927.368164" y="-3570.556641" width="1.098633" height="1.098633"/>
<image xlink:href="tile25_26.png" preserveAspectRatio="none" x="13927.368164" y="-3571.655273" width="1.098633" height="1.098633"/>
<image xlink:href="tile25_25.png" preserveAspectRatio="none" x="13927.368164" y="-3572.753906" width="1.098633" height="1.098633"/>
<image xlink:href="tile25_24.png" preserveAspectRatio="none" x="13927.368164" y="-3573.852539" width="1.098633" height="1.098633"/>
<image xlink:href="tile25_23.png" preserveAspectRatio="none" x="13927.368164" y="-3574.951172" width="1.098633" height="1.098633"/>
<image xlink:href="tile25_22.png" preserveAspectRatio="none" x="13927.368164" y="-3576.049805" width="1.098633" height="1.098633"/>
<image xlink:href="tile25_21.png" preserveAspectRatio="none" x="13927.368164" y="-3577.148438" width="1.098633" height="1.098633"/>
<image xlink:href="tile25_20.png" preserveAspectRatio="none" x="13927.368164" y="-3578.24707" width="1.098633" height="1.098633"/>
<image xlink:href="tile25_19.png" preserveAspectRatio="none" x="13927.368164" y="-3579.345703" width="1.098633" height="1.098633"/>
<image xlink:href="tile25_18.png" preserveAspectRatio="none" x="13927.368164" y="-3580.444336" width="1.098633" height="1.098633"/>
<image xlink:href="tile25_17.png" preserveAspectRatio="none" x="13927.368164" y="-3581.542969" width="1.098633" height="1.098633"/>
<image xlink:href="tile25_16.png" preserveAspectRatio="none" x="13927.368164" y="-3582.641602" width="1.098633" height="1.098633"/>
<image xlink:href="tile25_15.png" preserveAspectRatio="none" x="13927.368164" y="-3583.740234" width="1.098633" height="1.098633"/>
<image xlink:href="tile25_14.png" preserveAspectRatio="none" x="13927.368164" y="-3584.838867" width="1.098633" height="1.098633"/>
<image xlink:href="tile26_28.png" preserveAspectRatio="none" x="13928.466797" y="-3569.458008" width="1.098633" height="1.098633"/>
<image xlink:href="tile26_27.png" preserveAspectRatio="none" x="13928.466797" y="-3570.556641" width="1.098633" height="1.098633"/>
<image xlink:href="tile26_26.png" preserveAspectRatio="none" x="13928.466797" y="-3571.655273" width="1.098633" height="1.098633"/>
<image xlink:href="tile26_25.png" preserveAspectRatio="none" x="13928.466797" y="-3572.753906" width="1.098633" height="1.098633"/>
<image xlink:href="tile26_24.png" preserveAspectRatio="none" x="13928.466797" y="-3573.852539" width="1.098633" height="1.098633"/>
<image xlink:href="tile26_23.png" preserveAspectRatio="none" x="13928.466797" y="-3574.951172" width="1.098633" height="1.098633"/>
<image xlink:href="tile26_22.png" preserveAspectRatio="none" x="13928.466797" y="-3576.049805" width="1.098633" height="1.098633"/>
<image xlink:href="tile26_21.png" preserveAspectRatio="none" x="13928.466797" y="-3577.148438" width="1.098633" height="1.098633"/>
<image xlink:href="tile26_19.png" preserveAspectRatio="none" x="13928.466797" y="-3579.345703" width="1.098633" height="1.098633"/>
<image xlink:href="tile26_18.png" preserveAspectRatio="none" x="13928.466797" y="-3580.444336" width="1.098633" height="1.098633"/>
<image xlink:href="tile26_17.png" preserveAspectRatio="none" x="13928.466797" y="-3581.542969" width="1.098633" height="1.098633"/>
<image xlink:href="tile26_16.png" preserveAspectRatio="none" x="13928.466797" y="-3582.641602" width="1.098633" height="1.098633"/>
<image xlink:href="tile26_15.png" preserveAspectRatio="none" x="13928.466797" y="-3583.740234" width="1.098633" height="1.098633"/>
<image xlink:href="tile26_14.png" preserveAspectRatio="none" x="13928.466797" y="-3584.838867" width="1.098633" height="1.098633"/>
<image xlink:href="tile27_28.png" preserveAspectRatio="none" x="13929.56543" y="-3569.458008" width="1.098633" height="1.098633"/>
<image xlink:href="tile27_27.png" preserveAspectRatio="none" x="13929.56543" y="-3570.556641" width="1.098633" height="1.098633"/>
<image xlink:href="tile27_26.png" preserveAspectRatio="none" x="13929.56543" y="-3571.655273" width="1.098633" height="1.098633"/>
<image xlink:href="tile27_25.png" preserveAspectRatio="none" x="13929.56543" y="-3572.753906" width="1.098633" height="1.098633"/>
<image xlink:href="tile27_24.png" preserveAspectRatio="none" x="13929.56543" y="-3573.852539" width="1.098633" height="1.098633"/>
<image xlink:href="tile27_23.png" preserveAspectRatio="none" x="13929.56543" y="-3574.951172" width="1.098633" height="1.098633"/>
<image xlink:href="tile27_22.png" preserveAspectRatio="none" x="13929.56543" y="-3576.049805" width="1.098633" height="1.098633"/>
<image xlink:href="tile27_19.png" preserveAspectRatio="none" x="13929.56543" y="-3579.345703" width="1.098633" height="1.098633"/>
<image xlink:href="tile27_18.png" preserveAspectRatio="none" x="13929.56543" y="-3580.444336" width="1.098633" height="1.098633"/>
<image xlink:href="tile27_17.png" preserveAspectRatio="none" x="13929.56543" y="-3581.542969" width="1.098633" height="1.098633"/>
<image xlink:href="tile27_16.png" preserveAspectRatio="none" x="13929.56543" y="-3582.641602" width="1.098633" height="1.098633"/>
<image xlink:href="tile27_15.png" preserveAspectRatio="none" x="13929.56543" y="-3583.740234" width="1.098633" height="1.098633"/>
<image xlink:href="tile28_28.png" preserveAspectRatio="none" x="13930.664062" y="-3569.458008" width="1.098633" height="1.098633"/>
<image xlink:href="tile28_27.png" preserveAspectRatio="none" x="13930.664062" y="-3570.556641" width="1.098633" height="1.098633"/>
<image xlink:href="tile28_26.png" preserveAspectRatio="none" x="13930.664062" y="-3571.655273" width="1.098633" height="1.098633"/>
<image xlink:href="tile28_25.png" preserveAspectRatio="none" x="13930.664062" y="-3572.753906" width="1.098633" height="1.098633"/>
<image xlink:href="tile28_24.png" preserveAspectRatio="none" x="13930.664062" y="-3573.852539" width="1.098633" height="1.098633"/>
<image xlink:href="tile28_23.png" preserveAspectRatio="none" x="13930.664062" y="-3574.951172" width="1.098633" height="1.098633"/>
<image xlink:href="tile28_20.png" preserveAspectRatio="none" x="13930.664062" y="-3578.24707" width="1.098633" height="1.098633"/>
<image xlink:href="tile28_19.png" preserveAspectRatio="none" x="13930.664062" y="-3579.345703" width="1.098633" height="1.098633"/>
<image xlink:href="tile28_18.png" preserveAspectRatio="none" x="13930.664062" y="-3580.444336" width="1.098633" height="1.098633"/>
<image xlink:href="tile28_17.png" preserveAspectRatio="none" x="13930.664062" y="-3581.542969" width="1.098633" height="1.098633"/>
<image xlink:href="tile28_16.png" preserveAspectRatio="none" x="13930.664062" y="-3582.641602" width="1.098633" height="1.098633"/>
<image xlink:href="tile29_28.png" preserveAspectRatio="none" x="13931.762695" y="-3569.458008" width="1.098633" height="1.098633"/>
<image xlink:href="tile29_27.png" preserveAspectRatio="none" x="13931.762695" y="-3570.556641" width="1.098633" height="1.098633"/>
<image xlink:href="tile29_26.png" preserveAspectRatio="none" x="13931.762695" y="-3571.655273" width="1.098633" height="1.098633"/>
<image xlink:href="tile29_25.png" preserveAspectRatio="none" x="13931.762695" y="-3572.753906" width="1.098633" height="1.098633"/>
<image xlink:href="tile29_24.png" preserveAspectRatio="none" x="13931.762695" y="-3573.852539" width="1.098633" height="1.098633"/>
<image xlink:href="tile29_20.png" preserveAspectRatio="none" x="13931.762695" y="-3578.24707" width="1.098633" height="1.098633"/>
<image xlink:href="tile29_19.png" preserveAspectRatio="none" x="13931.762695" y="-3579.345703" width="1.098633" height="1.098633"/>
<image xlink:href="tile29_18.png" preserveAspectRatio="none" x="13931.762695" y="-3580.444336" width="1.098633" height="1.098633"/>
<image xlink:href="tile29_17.png" preserveAspectRatio="none" x="13931.762695" y="-3581.542969" width="1.098633" height="1.098633"/>
<image xlink:href="tile30_28.png" preserveAspectRatio="none" x="13932.861328" y="-3569.458008" width="1.098633" height="1.098633"/>
<image xlink:href="tile30_27.png" preserveAspectRatio="none" x="13932.861328" y="-3570.556641" width="1.098633" height="1.098633"/>
<image xlink:href="tile30_26.png" preserveAspectRatio="none" x="13932.861328" y="-3571.655273" width="1.098633" height="1.098633"/>
<image xlink:href="tile30_21.png" preserveAspectRatio="none" x="13932.861328" y="-3577.148438" width="1.098633" height="1.098633"/>
<image xlink:href="tile30_20.png" preserveAspectRatio="none" x="13932.861328" y="-3578.24707" width="1.098633" height="1.098633"/>
<image xlink:href="tile30_19.png" preserveAspectRatio="none" x="13932.861328" y="-3579.345703" width="1.098633" height="1.098633"/>
<image xlink:href="tile30_18.png" preserveAspectRatio="none" x="13932.861328" y="-3580.444336" width="1.098633" height="1.098633"/>
<image xlink:href="tile31_28.png" preserveAspectRatio="none" x="13933.959961" y="-3569.458008" width="1.098633" height="1.098633"/>
<image xlink:href="tile31_27.png" preserveAspectRatio="none" x="13933.959961" y="-3570.556641" width="1.098633" height="1.098633"/>
<image xlink:href="tile31_22.png" preserveAspectRatio="none" x="13933.959961" y="-3576.049805" width="1.098633" height="1.098633"/>
<image xlink:href="tile31_21.png" preserveAspectRatio="none" x="13933.959961" y="-3577.148438" width="1.098633" height="1.098633"/>
<image xlink:href="tile31_20.png" preserveAspectRatio="none" x="13933.959961" y="-3578.24707" width="1.098633" height="1.098633"/>
<image xlink:href="tile31_19.png" preserveAspectRatio="none" x="13933.959961" y="-3579.345703" width="1.098633" height="1.098633"/>
</g>
</svg>
