<?xml version="1.0" encoding="UTF-8"?>
<svg  xmlns="http://www.w3.org/2000/svg" xmlns:xlink="http://www.w3.org/1999/xlink" xmlns:go="http://purl.org/svgmap/profile" viewBox="13900.0 -3600.0 100.0 65.76247980000005" go:dataArea="13900.0 -3600.0 100.0 65.76247980000005" >
<metadata>
 <rdf:RDF xmlns:rdf="http://www.w3.org/1999/02/22-rdf-syntax-ns#" xmlns:crs="http://opengis.org/xmldtds/transformations.dtd" xmlns:svg="http://www.w3.org/svg" >
  <rdf:Description>
   <crs:CoordinateReferenceSystem rdf:resource="http://purl.org/crs/84" svg:transform="matrix(100.0,0.0,0.0,-100.0,0.0,0.0)" />
  </rdf:Description>
 </rdf:RDF>
</metadata>
<globalCoordinateSystem srsName="http://purl.org/crs/84" transform="matrix(100.0,0.0,0.0,-100.0,0.0,0.0)" />
<g >
<image xlink:href="tile80_28.png" preserveAspectRatio="none" x="13987.792969" y="-3569.458008" width="1.098633" height="1.098633"/>
<image xlink:href="tile80_27.png" preserveAspectRatio="none" x="13987.792969" y="-3570.556641" width="1.098633" height="1.098633"/>
<image xlink:href="tile80_26.png" preserveAspectRatio="none" x="13987.792969" y="-3571.655273" width="1.098633" height="1.098633"/>
<image xlink:href="tile80_25.png" preserveAspectRatio="none" x="13987.792969" y="-3572.753906" width="1.098633" height="1.098633"/>
<image xlink:href="tile80_24.png" preserveAspectRatio="none" x="13987.792969" y="-3573.852539" width="1.098633" height="1.098633"/>
<image xlink:href="tile80_23.png" preserveAspectRatio="none" x="13987.792969" y="-3574.951172" width="1.098633" height="1.098633"/>
<image xlink:href="tile80_22.png" preserveAspectRatio="none" x="13987.792969" y="-3576.049805" width="1.098633" height="1.098633"/>
<image xlink:href="tile80_21.png" preserveAspectRatio="none" x="13987.792969" y="-3577.148438" width="1.098633" height="1.098633"/>
<image xlink:href="tile80_20.png" preserveAspectRatio="none" x="13987.792969" y="-3578.24707" width="1.098633" height="1.098633"/>
<image xlink:href="tile80_18.png" preserveAspectRatio="none" x="13987.792969" y="-3580.444336" width="1.098633" height="1.098633"/>
<image xlink:href="tile80_17.png" preserveAspectRatio="none" x="13987.792969" y="-3581.542969" width="1.098633" height="1.098633"/>
<image xlink:href="tile80_16.png" preserveAspectRatio="none" x="13987.792969" y="-3582.641602" width="1.098633" height="1.098633"/>
<image xlink:href="tile80_15.png" preserveAspectRatio="none" x="13987.792969" y="-3583.740234" width="1.098633" height="1.098633"/>
<image xlink:href="tile80_14.png" preserveAspectRatio="none" x="13987.792969" y="-3584.838867" width="1.098633" height="1.098633"/>
<image xlink:href="tile80_13.png" preserveAspectRatio="none" x="13987.792969" y="-3585.9375" width="1.098633" height="1.098633"/>
<image xlink:href="tile81_28.png" preserveAspectRatio="none" x="13988.891602" y="-3569.458008" width="1.098633" height="1.098633"/>
<image xlink:href="tile81_27.png" preserveAspectRatio="none" x="13988.891602" y="-3570.556641" width="1.098633" height="1.098633"/>
<image xlink:href="tile81_26.png" preserveAspectRatio="none" x="13988.891602" y="-3571.655273" width="1.098633" height="1.098633"/>
<image xlink:href="tile81_25.png" preserveAspectRatio="none" x="13988.891602" y="-3572.753906" width="1.098633" height="1.098633"/>
<image xlink:href="tile81_24.png" preserveAspectRatio="none" x="13988.891602" y="-3573.852539" width="1.098633" height="1.098633"/>
<image xlink:href="tile81_23.png" preserveAspectRatio="none" x="13988.891602" y="-3574.951172" width="1.098633" height="1.098633"/>
<image xlink:href="tile81_18.png" preserveAspectRatio="none" x="13988.891602" y="-3580.444336" width="1.098633" height="1.098633"/>
<image xlink:href="tile81_14.png" preserveAspectRatio="none" x="13988.891602" y="-3584.838867" width="1.098633" height="1.098633"/>
<image xlink:href="tile81_13.png" preserveAspectRatio="none" x="13988.891602" y="-3585.9375" width="1.098633" height="1.098633"/>
<image xlink:href="tile82_28.png" preserveAspectRatio="none" x="13989.990234" y="-3569.458008" width="1.098633" height="1.098633"/>
<image xlink:href="tile82_27.png" preserveAspectRatio="none" x="13989.990234" y="-3570.556641" width="1.098633" height="1.098633"/>
<image xlink:href="tile82_26.png" preserveAspectRatio="none" x="13989.990234" y="-3571.655273" width="1.098633" height="1.098633"/>
<image xlink:href="tile82_25.png" preserveAspectRatio="none" x="13989.990234" y="-3572.753906" width="1.098633" height="1.098633"/>
<image xlink:href="tile82_24.png" preserveAspectRatio="none" x="13989.990234" y="-3573.852539" width="1.098633" height="1.098633"/>
<image xlink:href="tile82_14.png" preserveAspectRatio="none" x="13989.990234" y="-3584.838867" width="1.098633" height="1.098633"/>
<image xlink:href="tile82_13.png" preserveAspectRatio="none" x="13989.990234" y="-3585.9375" width="1.098633" height="1.098633"/>
<image xlink:href="tile83_28.png" preserveAspectRatio="none" x="13991.088867" y="-3569.458008" width="1.098633" height="1.098633"/>
<image xlink:href="tile83_27.png" preserveAspectRatio="none" x="13991.088867" y="-3570.556641" width="1.098633" height="1.098633"/>
<image xlink:href="tile83_26.png" preserveAspectRatio="none" x="13991.088867" y="-3571.655273" width="1.098633" height="1.098633"/>
<image xlink:href="tile83_25.png" preserveAspectRatio="none" x="13991.088867" y="-3572.753906" width="1.098633" height="1.098633"/>
<image xlink:href="tile84_27.png" preserveAspectRatio="none" x="13992.1875" y="-3570.556641" width="1.098633" height="1.098633"/>
<image xlink:href="tile84_26.png" preserveAspectRatio="none" x="13992.1875" y="-3571.655273" width="1.098633" height="1.098633"/>
<image xlink:href="tile84_25.png" preserveAspectRatio="none" x="13992.1875" y="-3572.753906" width="1.098633" height="1.098633"/>
<image xlink:href="tile85_28.png" preserveAspectRatio="none" x="13993.286133" y="-3569.458008" width="1.098633" height="1.098633"/>
<image xlink:href="tile85_27.png" preserveAspectRatio="none" x="13993.286133" y="-3570.556641" width="1.098633" height="1.098633"/>
<image xlink:href="tile85_26.png" preserveAspectRatio="none" x="13993.286133" y="-3571.655273" width="1.098633" height="1.098633"/>
<image xlink:href="tile85_25.png" preserveAspectRatio="none" x="13993.286133" y="-3572.753906" width="1.098633" height="1.098633"/>
<image xlink:href="tile86_28.png" preserveAspectRatio="none" x="13994.384766" y="-3569.458008" width="1.098633" height="1.098633"/>
<image xlink:href="tile86_27.png" preserveAspectRatio="none" x="13994.384766" y="-3570.556641" width="1.098633" height="1.098633"/>
<image xlink:href="tile86_26.png" preserveAspectRatio="none" x="13994.384766" y="-3571.655273" width="1.098633" height="1.098633"/>
<image xlink:href="tile89_28.png" preserveAspectRatio="none" x="13997.680664" y="-3569.458008" width="1.098633" height="1.098633"/>
<image xlink:href="tile89_14.png" preserveAspectRatio="none" x="13997.680664" y="-3584.838867" width="1.098633" height="1.098633"/>
<image xlink:href="tile90_28.png" preserveAspectRatio="none" x="13998.779297" y="-3569.458008" width="1.098633" height="1.098633"/>
<image xlink:href="tile90_16.png" preserveAspectRatio="none" x="13998.779297" y="-3582.641602" width="1.098633" height="1.098633"/>
<image xlink:href="tile90_15.png" preserveAspectRatio="none" x="13998.779297" y="-3583.740234" width="1.098633" height="1.098633"/>
<image xlink:href="tile90_14.png" preserveAspectRatio="none" x="13998.779297" y="-3584.838867" width="1.098633" height="1.098633"/>
<image xlink:href="tile90_13.png" preserveAspectRatio="none" x="13998.779297" y="-3585.9375" width="1.098633" height="1.098633"/>
<image xlink:href="tile91_28.png" preserveAspectRatio="none" x="13999.87793" y="-3569.458008" width="1.098633" height="1.098633"/>
<image xlink:href="tile91_16.png" preserveAspectRatio="none" x="13999.87793" y="-3582.641602" width="1.098633" height="1.098633"/>
<image xlink:href="tile91_15.png" preserveAspectRatio="none" x="13999.87793" y="-3583.740234" width="1.098633" height="1.098633"/>
<image xlink:href="tile91_13.png" preserveAspectRatio="none" x="13999.87793" y="-3585.9375" width="1.098633" height="1.098633"/>
</g>
</svg>
