<?xml version="1.0" encoding="UTF-8"?>
<svg  xmlns="http://www.w3.org/2000/svg" xmlns:xlink="http://www.w3.org/1999/xlink" xmlns:go="http://purl.org/svgmap/profile" viewBox="13100.0 -3266.666667 72.59375499999976 66.66666699999979" go:dataArea="13100.0 -3266.666667 72.59375499999976 66.66666699999979" >
<metadata>
 <rdf:RDF xmlns:rdf="http://www.w3.org/1999/02/22-rdf-syntax-ns#" xmlns:crs="http://opengis.org/xmldtds/transformations.dtd" xmlns:svg="http://www.w3.org/svg" >
  <rdf:Description>
   <crs:CoordinateReferenceSystem rdf:resource="http://purl.org/crs/84" svg:transform="matrix(100.0,0.0,0.0,-100.0,0.0,0.0)" />
  </rdf:Description>
 </rdf:RDF>
</metadata>
<globalCoordinateSystem srsName="http://purl.org/crs/84" transform="matrix(100.0,0.0,0.0,-100.0,0.0,0.0)" />
<g >
<image xlink:href="tile16_30.png" preserveAspectRatio="none" x="13133.056641" y="-3201.416016" width="2.197266" height="2.197266"/>
<image xlink:href="tile16_28.png" preserveAspectRatio="none" x="13133.056641" y="-3205.810547" width="2.197266" height="2.197266"/>
<image xlink:href="tile16_27.png" preserveAspectRatio="none" x="13133.056641" y="-3208.007812" width="2.197266" height="2.197266"/>
<image xlink:href="tile16_26.png" preserveAspectRatio="none" x="13133.056641" y="-3210.205078" width="2.197266" height="2.197266"/>
<image xlink:href="tile16_25.png" preserveAspectRatio="none" x="13133.056641" y="-3212.402344" width="2.197266" height="2.197266"/>
<image xlink:href="tile17_30.png" preserveAspectRatio="none" x="13135.253906" y="-3201.416016" width="2.197266" height="2.197266"/>
<image xlink:href="tile17_28.png" preserveAspectRatio="none" x="13135.253906" y="-3205.810547" width="2.197266" height="2.197266"/>
<image xlink:href="tile17_27.png" preserveAspectRatio="none" x="13135.253906" y="-3208.007812" width="2.197266" height="2.197266"/>
<image xlink:href="tile17_26.png" preserveAspectRatio="none" x="13135.253906" y="-3210.205078" width="2.197266" height="2.197266"/>
<image xlink:href="tile17_25.png" preserveAspectRatio="none" x="13135.253906" y="-3212.402344" width="2.197266" height="2.197266"/>
<image xlink:href="tile17_24.png" preserveAspectRatio="none" x="13135.253906" y="-3214.599609" width="2.197266" height="2.197266"/>
<image xlink:href="tile17_23.png" preserveAspectRatio="none" x="13135.253906" y="-3216.796875" width="2.197266" height="2.197266"/>
<image xlink:href="tile18_27.png" preserveAspectRatio="none" x="13137.451172" y="-3208.007812" width="2.197266" height="2.197266"/>
<image xlink:href="tile18_26.png" preserveAspectRatio="none" x="13137.451172" y="-3210.205078" width="2.197266" height="2.197266"/>
<image xlink:href="tile18_25.png" preserveAspectRatio="none" x="13137.451172" y="-3212.402344" width="2.197266" height="2.197266"/>
<image xlink:href="tile18_24.png" preserveAspectRatio="none" x="13137.451172" y="-3214.599609" width="2.197266" height="2.197266"/>
<image xlink:href="tile18_23.png" preserveAspectRatio="none" x="13137.451172" y="-3216.796875" width="2.197266" height="2.197266"/>
<image xlink:href="tile18_15.png" preserveAspectRatio="none" x="13137.451172" y="-3234.375" width="2.197266" height="2.197266"/>
<image xlink:href="tile19_28.png" preserveAspectRatio="none" x="13139.648438" y="-3205.810547" width="2.197266" height="2.197266"/>
<image xlink:href="tile19_27.png" preserveAspectRatio="none" x="13139.648438" y="-3208.007812" width="2.197266" height="2.197266"/>
<image xlink:href="tile19_26.png" preserveAspectRatio="none" x="13139.648438" y="-3210.205078" width="2.197266" height="2.197266"/>
<image xlink:href="tile19_25.png" preserveAspectRatio="none" x="13139.648438" y="-3212.402344" width="2.197266" height="2.197266"/>
<image xlink:href="tile19_24.png" preserveAspectRatio="none" x="13139.648438" y="-3214.599609" width="2.197266" height="2.197266"/>
<image xlink:href="tile19_23.png" preserveAspectRatio="none" x="13139.648438" y="-3216.796875" width="2.197266" height="2.197266"/>
<image xlink:href="tile19_15.png" preserveAspectRatio="none" x="13139.648438" y="-3234.375" width="2.197266" height="2.197266"/>
<image xlink:href="tile20_30.png" preserveAspectRatio="none" x="13141.845703" y="-3201.416016" width="2.197266" height="2.197266"/>
<image xlink:href="tile20_28.png" preserveAspectRatio="none" x="13141.845703" y="-3205.810547" width="2.197266" height="2.197266"/>
<image xlink:href="tile20_27.png" preserveAspectRatio="none" x="13141.845703" y="-3208.007812" width="2.197266" height="2.197266"/>
<image xlink:href="tile20_26.png" preserveAspectRatio="none" x="13141.845703" y="-3210.205078" width="2.197266" height="2.197266"/>
<image xlink:href="tile20_25.png" preserveAspectRatio="none" x="13141.845703" y="-3212.402344" width="2.197266" height="2.197266"/>
<image xlink:href="tile20_24.png" preserveAspectRatio="none" x="13141.845703" y="-3214.599609" width="2.197266" height="2.197266"/>
<image xlink:href="tile21_30.png" preserveAspectRatio="none" x="13144.042969" y="-3201.416016" width="2.197266" height="2.197266"/>
<image xlink:href="tile21_29.png" preserveAspectRatio="none" x="13144.042969" y="-3203.613281" width="2.197266" height="2.197266"/>
<image xlink:href="tile21_28.png" preserveAspectRatio="none" x="13144.042969" y="-3205.810547" width="2.197266" height="2.197266"/>
<image xlink:href="tile21_27.png" preserveAspectRatio="none" x="13144.042969" y="-3208.007812" width="2.197266" height="2.197266"/>
<image xlink:href="tile21_23.png" preserveAspectRatio="none" x="13144.042969" y="-3216.796875" width="2.197266" height="2.197266"/>
<image xlink:href="tile21_22.png" preserveAspectRatio="none" x="13144.042969" y="-3218.994141" width="2.197266" height="2.197266"/>
<image xlink:href="tile22_30.png" preserveAspectRatio="none" x="13146.240234" y="-3201.416016" width="2.197266" height="2.197266"/>
<image xlink:href="tile22_29.png" preserveAspectRatio="none" x="13146.240234" y="-3203.613281" width="2.197266" height="2.197266"/>
<image xlink:href="tile22_28.png" preserveAspectRatio="none" x="13146.240234" y="-3205.810547" width="2.197266" height="2.197266"/>
<image xlink:href="tile22_27.png" preserveAspectRatio="none" x="13146.240234" y="-3208.007812" width="2.197266" height="2.197266"/>
<image xlink:href="tile22_23.png" preserveAspectRatio="none" x="13146.240234" y="-3216.796875" width="2.197266" height="2.197266"/>
<image xlink:href="tile23_30.png" preserveAspectRatio="none" x="13148.4375" y="-3201.416016" width="2.197266" height="2.197266"/>
<image xlink:href="tile23_29.png" preserveAspectRatio="none" x="13148.4375" y="-3203.613281" width="2.197266" height="2.197266"/>
<image xlink:href="tile23_28.png" preserveAspectRatio="none" x="13148.4375" y="-3205.810547" width="2.197266" height="2.197266"/>
<image xlink:href="tile23_27.png" preserveAspectRatio="none" x="13148.4375" y="-3208.007812" width="2.197266" height="2.197266"/>
<image xlink:href="tile23_25.png" preserveAspectRatio="none" x="13148.4375" y="-3212.402344" width="2.197266" height="2.197266"/>
<image xlink:href="tile23_24.png" preserveAspectRatio="none" x="13148.4375" y="-3214.599609" width="2.197266" height="2.197266"/>
<image xlink:href="tile23_23.png" preserveAspectRatio="none" x="13148.4375" y="-3216.796875" width="2.197266" height="2.197266"/>
<image xlink:href="tile24_25.png" preserveAspectRatio="none" x="13150.634766" y="-3212.402344" width="2.197266" height="2.197266"/>
<image xlink:href="tile24_24.png" preserveAspectRatio="none" x="13150.634766" y="-3214.599609" width="2.197266" height="2.197266"/>
<image xlink:href="tile24_23.png" preserveAspectRatio="none" x="13150.634766" y="-3216.796875" width="2.197266" height="2.197266"/>
<image xlink:href="tile25_25.png" preserveAspectRatio="none" x="13152.832031" y="-3212.402344" width="2.197266" height="2.197266"/>
<image xlink:href="tile25_24.png" preserveAspectRatio="none" x="13152.832031" y="-3214.599609" width="2.197266" height="2.197266"/>
<image xlink:href="tile28_15.png" preserveAspectRatio="none" x="13159.423828" y="-3234.375" width="2.197266" height="2.197266"/>
<image xlink:href="tile29_15.png" preserveAspectRatio="none" x="13161.621094" y="-3234.375" width="2.197266" height="2.197266"/>
</g>
</svg>
