<?xml version="1.0" encoding="UTF-8"?>
<svg  xmlns="http://www.w3.org/2000/svg" xmlns:xlink="http://www.w3.org/1999/xlink" xmlns:go="http://purl.org/svgmap/profile" viewBox="13700.0 -3533.3333326 46.46874999999966 37.37499930000041" go:dataArea="13700.0 -3533.3333326 46.46874999999966 37.37499930000041" >
<metadata>
 <rdf:RDF xmlns:rdf="http://www.w3.org/1999/02/22-rdf-syntax-ns#" xmlns:crs="http://opengis.org/xmldtds/transformations.dtd" xmlns:svg="http://www.w3.org/svg" >
  <rdf:Description>
   <crs:CoordinateReferenceSystem rdf:resource="http://purl.org/crs/84" svg:transform="matrix(100.0,0.0,0.0,-100.0,0.0,0.0)" />
  </rdf:Description>
 </rdf:RDF>
</metadata>
<globalCoordinateSystem srsName="http://purl.org/crs/84" transform="matrix(100.0,0.0,0.0,-100.0,0.0,0.0)" />
<g >
<image xlink:href="tile32_29.png" preserveAspectRatio="none" x="13735.107422" y="-3502.441406" width="1.098633" height="1.098633"/>
<image xlink:href="tile32_28.png" preserveAspectRatio="none" x="13735.107422" y="-3503.540039" width="1.098633" height="1.098633"/>
<image xlink:href="tile32_26.png" preserveAspectRatio="none" x="13735.107422" y="-3505.737305" width="1.098633" height="1.098633"/>
<image xlink:href="tile32_22.png" preserveAspectRatio="none" x="13735.107422" y="-3510.131836" width="1.098633" height="1.098633"/>
<image xlink:href="tile32_21.png" preserveAspectRatio="none" x="13735.107422" y="-3511.230469" width="1.098633" height="1.098633"/>
<image xlink:href="tile32_20.png" preserveAspectRatio="none" x="13735.107422" y="-3512.329102" width="1.098633" height="1.098633"/>
<image xlink:href="tile33_28.png" preserveAspectRatio="none" x="13736.206055" y="-3503.540039" width="1.098633" height="1.098633"/>
<image xlink:href="tile33_27.png" preserveAspectRatio="none" x="13736.206055" y="-3504.638672" width="1.098633" height="1.098633"/>
<image xlink:href="tile33_26.png" preserveAspectRatio="none" x="13736.206055" y="-3505.737305" width="1.098633" height="1.098633"/>
<image xlink:href="tile33_23.png" preserveAspectRatio="none" x="13736.206055" y="-3509.033203" width="1.098633" height="1.098633"/>
<image xlink:href="tile33_22.png" preserveAspectRatio="none" x="13736.206055" y="-3510.131836" width="1.098633" height="1.098633"/>
<image xlink:href="tile33_20.png" preserveAspectRatio="none" x="13736.206055" y="-3512.329102" width="1.098633" height="1.098633"/>
<image xlink:href="tile34_27.png" preserveAspectRatio="none" x="13737.304688" y="-3504.638672" width="1.098633" height="1.098633"/>
<image xlink:href="tile34_26.png" preserveAspectRatio="none" x="13737.304688" y="-3505.737305" width="1.098633" height="1.098633"/>
<image xlink:href="tile34_23.png" preserveAspectRatio="none" x="13737.304688" y="-3509.033203" width="1.098633" height="1.098633"/>
<image xlink:href="tile34_20.png" preserveAspectRatio="none" x="13737.304688" y="-3512.329102" width="1.098633" height="1.098633"/>
<image xlink:href="tile35_27.png" preserveAspectRatio="none" x="13738.40332" y="-3504.638672" width="1.098633" height="1.098633"/>
<image xlink:href="tile35_26.png" preserveAspectRatio="none" x="13738.40332" y="-3505.737305" width="1.098633" height="1.098633"/>
<image xlink:href="tile35_20.png" preserveAspectRatio="none" x="13738.40332" y="-3512.329102" width="1.098633" height="1.098633"/>
<image xlink:href="tile36_31.png" preserveAspectRatio="none" x="13739.501953" y="-3500.244141" width="1.098633" height="1.098633"/>
<image xlink:href="tile36_27.png" preserveAspectRatio="none" x="13739.501953" y="-3504.638672" width="1.098633" height="1.098633"/>
<image xlink:href="tile36_26.png" preserveAspectRatio="none" x="13739.501953" y="-3505.737305" width="1.098633" height="1.098633"/>
<image xlink:href="tile36_25.png" preserveAspectRatio="none" x="13739.501953" y="-3506.835938" width="1.098633" height="1.098633"/>
<image xlink:href="tile36_24.png" preserveAspectRatio="none" x="13739.501953" y="-3507.93457" width="1.098633" height="1.098633"/>
<image xlink:href="tile36_20.png" preserveAspectRatio="none" x="13739.501953" y="-3512.329102" width="1.098633" height="1.098633"/>
<image xlink:href="tile37_31.png" preserveAspectRatio="none" x="13740.600586" y="-3500.244141" width="1.098633" height="1.098633"/>
<image xlink:href="tile37_30.png" preserveAspectRatio="none" x="13740.600586" y="-3501.342773" width="1.098633" height="1.098633"/>
<image xlink:href="tile37_24.png" preserveAspectRatio="none" x="13740.600586" y="-3507.93457" width="1.098633" height="1.098633"/>
<image xlink:href="tile38_31.png" preserveAspectRatio="none" x="13741.699219" y="-3500.244141" width="1.098633" height="1.098633"/>
<image xlink:href="tile38_30.png" preserveAspectRatio="none" x="13741.699219" y="-3501.342773" width="1.098633" height="1.098633"/>
<image xlink:href="tile38_29.png" preserveAspectRatio="none" x="13741.699219" y="-3502.441406" width="1.098633" height="1.098633"/>
<image xlink:href="tile38_28.png" preserveAspectRatio="none" x="13741.699219" y="-3503.540039" width="1.098633" height="1.098633"/>
<image xlink:href="tile39_32.png" preserveAspectRatio="none" x="13742.797852" y="-3499.145508" width="1.098633" height="1.098633"/>
<image xlink:href="tile39_31.png" preserveAspectRatio="none" x="13742.797852" y="-3500.244141" width="1.098633" height="1.098633"/>
<image xlink:href="tile39_30.png" preserveAspectRatio="none" x="13742.797852" y="-3501.342773" width="1.098633" height="1.098633"/>
<image xlink:href="tile39_29.png" preserveAspectRatio="none" x="13742.797852" y="-3502.441406" width="1.098633" height="1.098633"/>
<image xlink:href="tile39_28.png" preserveAspectRatio="none" x="13742.797852" y="-3503.540039" width="1.098633" height="1.098633"/>
<image xlink:href="tile40_31.png" preserveAspectRatio="none" x="13743.896484" y="-3500.244141" width="1.098633" height="1.098633"/>
<image xlink:href="tile40_30.png" preserveAspectRatio="none" x="13743.896484" y="-3501.342773" width="1.098633" height="1.098633"/>
<image xlink:href="tile40_29.png" preserveAspectRatio="none" x="13743.896484" y="-3502.441406" width="1.098633" height="1.098633"/>
<image xlink:href="tile41_30.png" preserveAspectRatio="none" x="13744.995117" y="-3501.342773" width="1.098633" height="1.098633"/>
<image xlink:href="tile41_29.png" preserveAspectRatio="none" x="13744.995117" y="-3502.441406" width="1.098633" height="1.098633"/>
<image xlink:href="tile41_28.png" preserveAspectRatio="none" x="13744.995117" y="-3503.540039" width="1.098633" height="1.098633"/>
<image xlink:href="tile41_27.png" preserveAspectRatio="none" x="13744.995117" y="-3504.638672" width="1.098633" height="1.098633"/>
<image xlink:href="tile42_28.png" preserveAspectRatio="none" x="13746.09375" y="-3503.540039" width="1.098633" height="1.098633"/>
<image xlink:href="tile42_27.png" preserveAspectRatio="none" x="13746.09375" y="-3504.638672" width="1.098633" height="1.098633"/>
</g>
</svg>
