<?xml version="1.0" encoding="UTF-8"?>
<svg  xmlns="http://www.w3.org/2000/svg" xmlns:xlink="http://www.w3.org/1999/xlink" xmlns:go="http://purl.org/svgmap/profile" viewBox="13700.0 -3533.3333326 46.46874999999966 37.37499930000041" go:dataArea="13700.0 -3533.3333326 46.46874999999966 37.37499930000041" >
<metadata>
 <rdf:RDF xmlns:rdf="http://www.w3.org/1999/02/22-rdf-syntax-ns#" xmlns:crs="http://opengis.org/xmldtds/transformations.dtd" xmlns:svg="http://www.w3.org/svg" >
  <rdf:Description>
   <crs:CoordinateReferenceSystem rdf:resource="http://purl.org/crs/84" svg:transform="matrix(100.0,0.0,0.0,-100.0,0.0,0.0)" />
  </rdf:Description>
 </rdf:RDF>
</metadata>
<globalCoordinateSystem srsName="http://purl.org/crs/84" transform="matrix(100.0,0.0,0.0,-100.0,0.0,0.0)" />
<g >
<image xlink:href="tile1_8.png" preserveAspectRatio="none" x="13701.049805" y="-3525.512695" width="1.098633" height="1.098633"/>
<image xlink:href="tile1_7.png" preserveAspectRatio="none" x="13701.049805" y="-3526.611328" width="1.098633" height="1.098633"/>
<image xlink:href="tile2_8.png" preserveAspectRatio="none" x="13702.148438" y="-3525.512695" width="1.098633" height="1.098633"/>
<image xlink:href="tile2_7.png" preserveAspectRatio="none" x="13702.148438" y="-3526.611328" width="1.098633" height="1.098633"/>
<image xlink:href="tile2_6.png" preserveAspectRatio="none" x="13702.148438" y="-3527.709961" width="1.098633" height="1.098633"/>
<image xlink:href="tile3_7.png" preserveAspectRatio="none" x="13703.24707" y="-3526.611328" width="1.098633" height="1.098633"/>
<image xlink:href="tile3_6.png" preserveAspectRatio="none" x="13703.24707" y="-3527.709961" width="1.098633" height="1.098633"/>
<image xlink:href="tile5_8.png" preserveAspectRatio="none" x="13705.444336" y="-3525.512695" width="1.098633" height="1.098633"/>
<image xlink:href="tile5_7.png" preserveAspectRatio="none" x="13705.444336" y="-3526.611328" width="1.098633" height="1.098633"/>
<image xlink:href="tile5_6.png" preserveAspectRatio="none" x="13705.444336" y="-3527.709961" width="1.098633" height="1.098633"/>
<image xlink:href="tile5_4.png" preserveAspectRatio="none" x="13705.444336" y="-3529.907227" width="1.098633" height="1.098633"/>
<image xlink:href="tile6_8.png" preserveAspectRatio="none" x="13706.542969" y="-3525.512695" width="1.098633" height="1.098633"/>
<image xlink:href="tile6_7.png" preserveAspectRatio="none" x="13706.542969" y="-3526.611328" width="1.098633" height="1.098633"/>
<image xlink:href="tile6_6.png" preserveAspectRatio="none" x="13706.542969" y="-3527.709961" width="1.098633" height="1.098633"/>
<image xlink:href="tile6_5.png" preserveAspectRatio="none" x="13706.542969" y="-3528.808594" width="1.098633" height="1.098633"/>
<image xlink:href="tile6_4.png" preserveAspectRatio="none" x="13706.542969" y="-3529.907227" width="1.098633" height="1.098633"/>
<image xlink:href="tile7_8.png" preserveAspectRatio="none" x="13707.641602" y="-3525.512695" width="1.098633" height="1.098633"/>
<image xlink:href="tile8_8.png" preserveAspectRatio="none" x="13708.740234" y="-3525.512695" width="1.098633" height="1.098633"/>
<image xlink:href="tile8_7.png" preserveAspectRatio="none" x="13708.740234" y="-3526.611328" width="1.098633" height="1.098633"/>
<image xlink:href="tile9_8.png" preserveAspectRatio="none" x="13709.838867" y="-3525.512695" width="1.098633" height="1.098633"/>
<image xlink:href="tile9_7.png" preserveAspectRatio="none" x="13709.838867" y="-3526.611328" width="1.098633" height="1.098633"/>
<image xlink:href="tile10_8.png" preserveAspectRatio="none" x="13710.9375" y="-3525.512695" width="1.098633" height="1.098633"/>
<image xlink:href="tile10_7.png" preserveAspectRatio="none" x="13710.9375" y="-3526.611328" width="1.098633" height="1.098633"/>
<image xlink:href="tile11_8.png" preserveAspectRatio="none" x="13712.036133" y="-3525.512695" width="1.098633" height="1.098633"/>
<image xlink:href="tile12_8.png" preserveAspectRatio="none" x="13713.134766" y="-3525.512695" width="1.098633" height="1.098633"/>
<image xlink:href="tile12_7.png" preserveAspectRatio="none" x="13713.134766" y="-3526.611328" width="1.098633" height="1.098633"/>
<image xlink:href="tile13_7.png" preserveAspectRatio="none" x="13714.233398" y="-3526.611328" width="1.098633" height="1.098633"/>
</g>
</svg>
