<?xml version="1.0" encoding="UTF-8"?>
<svg  xmlns="http://www.w3.org/2000/svg" xmlns:xlink="http://www.w3.org/1999/xlink" xmlns:go="http://purl.org/svgmap/profile" viewBox="13819.2507158 -3733.333333 80.74928419999878 66.66666600000042" go:dataArea="13819.2507158 -3733.333333 80.74928419999878 66.66666600000042" >
<metadata>
 <rdf:RDF xmlns:rdf="http://www.w3.org/1999/02/22-rdf-syntax-ns#" xmlns:crs="http://opengis.org/xmldtds/transformations.dtd" xmlns:svg="http://www.w3.org/svg" >
  <rdf:Description>
   <crs:CoordinateReferenceSystem rdf:resource="http://purl.org/crs/84" svg:transform="matrix(100.0,0.0,0.0,-100.0,0.0,0.0)" />
  </rdf:Description>
 </rdf:RDF>
</metadata>
<globalCoordinateSystem srsName="http://purl.org/crs/84" transform="matrix(100.0,0.0,0.0,-100.0,0.0,0.0)" />
<g >
<image xlink:href="tile16_61.png" preserveAspectRatio="none" x="13836.181641" y="-3667.236328" width="1.098633" height="1.098633"/>
<image xlink:href="tile16_56.png" preserveAspectRatio="none" x="13836.181641" y="-3672.729492" width="1.098633" height="1.098633"/>
<image xlink:href="tile16_55.png" preserveAspectRatio="none" x="13836.181641" y="-3673.828125" width="1.098633" height="1.098633"/>
<image xlink:href="tile16_54.png" preserveAspectRatio="none" x="13836.181641" y="-3674.926758" width="1.098633" height="1.098633"/>
<image xlink:href="tile16_53.png" preserveAspectRatio="none" x="13836.181641" y="-3676.025391" width="1.098633" height="1.098633"/>
<image xlink:href="tile16_52.png" preserveAspectRatio="none" x="13836.181641" y="-3677.124023" width="1.098633" height="1.098633"/>
<image xlink:href="tile16_51.png" preserveAspectRatio="none" x="13836.181641" y="-3678.222656" width="1.098633" height="1.098633"/>
<image xlink:href="tile16_50.png" preserveAspectRatio="none" x="13836.181641" y="-3679.321289" width="1.098633" height="1.098633"/>
<image xlink:href="tile16_47.png" preserveAspectRatio="none" x="13836.181641" y="-3682.617188" width="1.098633" height="1.098633"/>
<image xlink:href="tile16_46.png" preserveAspectRatio="none" x="13836.181641" y="-3683.71582" width="1.098633" height="1.098633"/>
<image xlink:href="tile17_55.png" preserveAspectRatio="none" x="13837.280273" y="-3673.828125" width="1.098633" height="1.098633"/>
<image xlink:href="tile17_54.png" preserveAspectRatio="none" x="13837.280273" y="-3674.926758" width="1.098633" height="1.098633"/>
<image xlink:href="tile17_53.png" preserveAspectRatio="none" x="13837.280273" y="-3676.025391" width="1.098633" height="1.098633"/>
<image xlink:href="tile17_52.png" preserveAspectRatio="none" x="13837.280273" y="-3677.124023" width="1.098633" height="1.098633"/>
<image xlink:href="tile17_51.png" preserveAspectRatio="none" x="13837.280273" y="-3678.222656" width="1.098633" height="1.098633"/>
<image xlink:href="tile18_54.png" preserveAspectRatio="none" x="13838.378906" y="-3674.926758" width="1.098633" height="1.098633"/>
<image xlink:href="tile18_53.png" preserveAspectRatio="none" x="13838.378906" y="-3676.025391" width="1.098633" height="1.098633"/>
<image xlink:href="tile18_52.png" preserveAspectRatio="none" x="13838.378906" y="-3677.124023" width="1.098633" height="1.098633"/>
<image xlink:href="tile19_54.png" preserveAspectRatio="none" x="13839.477539" y="-3674.926758" width="1.098633" height="1.098633"/>
<image xlink:href="tile19_53.png" preserveAspectRatio="none" x="13839.477539" y="-3676.025391" width="1.098633" height="1.098633"/>
<image xlink:href="tile19_52.png" preserveAspectRatio="none" x="13839.477539" y="-3677.124023" width="1.098633" height="1.098633"/>
<image xlink:href="tile20_55.png" preserveAspectRatio="none" x="13840.576172" y="-3673.828125" width="1.098633" height="1.098633"/>
<image xlink:href="tile20_54.png" preserveAspectRatio="none" x="13840.576172" y="-3674.926758" width="1.098633" height="1.098633"/>
<image xlink:href="tile20_53.png" preserveAspectRatio="none" x="13840.576172" y="-3676.025391" width="1.098633" height="1.098633"/>
<image xlink:href="tile21_55.png" preserveAspectRatio="none" x="13841.674805" y="-3673.828125" width="1.098633" height="1.098633"/>
<image xlink:href="tile21_54.png" preserveAspectRatio="none" x="13841.674805" y="-3674.926758" width="1.098633" height="1.098633"/>
<image xlink:href="tile22_55.png" preserveAspectRatio="none" x="13842.773438" y="-3673.828125" width="1.098633" height="1.098633"/>
</g>
</svg>
