<?xml version="1.0" encoding="UTF-8"?>
<svg  xmlns="http://www.w3.org/2000/svg" xmlns:xlink="http://www.w3.org/1999/xlink" xmlns:go="http://purl.org/svgmap/profile" viewBox="13000.0 -3333.3333332 100.0 66.66666620000044" go:dataArea="13000.0 -3333.3333332 100.0 66.66666620000044" >
<metadata>
 <rdf:RDF xmlns:rdf="http://www.w3.org/1999/02/22-rdf-syntax-ns#" xmlns:crs="http://opengis.org/xmldtds/transformations.dtd" xmlns:svg="http://www.w3.org/svg" >
  <rdf:Description>
   <crs:CoordinateReferenceSystem rdf:resource="http://purl.org/crs/84" svg:transform="matrix(100.0,0.0,0.0,-100.0,0.0,0.0)" />
  </rdf:Description>
 </rdf:RDF>
</metadata>
<globalCoordinateSystem srsName="http://purl.org/crs/84" transform="matrix(100.0,0.0,0.0,-100.0,0.0,0.0)" />
<g >
<image xlink:href="tile48_44.png" preserveAspectRatio="none" x="13051.757812" y="-3286.010742" width="1.098633" height="1.098633"/>
<image xlink:href="tile48_43.png" preserveAspectRatio="none" x="13051.757812" y="-3287.109375" width="1.098633" height="1.098633"/>
<image xlink:href="tile48_42.png" preserveAspectRatio="none" x="13051.757812" y="-3288.208008" width="1.098633" height="1.098633"/>
<image xlink:href="tile48_41.png" preserveAspectRatio="none" x="13051.757812" y="-3289.306641" width="1.098633" height="1.098633"/>
<image xlink:href="tile48_40.png" preserveAspectRatio="none" x="13051.757812" y="-3290.405273" width="1.098633" height="1.098633"/>
<image xlink:href="tile48_39.png" preserveAspectRatio="none" x="13051.757812" y="-3291.503906" width="1.098633" height="1.098633"/>
<image xlink:href="tile48_38.png" preserveAspectRatio="none" x="13051.757812" y="-3292.602539" width="1.098633" height="1.098633"/>
<image xlink:href="tile48_30.png" preserveAspectRatio="none" x="13051.757812" y="-3301.391602" width="1.098633" height="1.098633"/>
<image xlink:href="tile49_45.png" preserveAspectRatio="none" x="13052.856445" y="-3284.912109" width="1.098633" height="1.098633"/>
<image xlink:href="tile49_44.png" preserveAspectRatio="none" x="13052.856445" y="-3286.010742" width="1.098633" height="1.098633"/>
<image xlink:href="tile49_43.png" preserveAspectRatio="none" x="13052.856445" y="-3287.109375" width="1.098633" height="1.098633"/>
<image xlink:href="tile49_42.png" preserveAspectRatio="none" x="13052.856445" y="-3288.208008" width="1.098633" height="1.098633"/>
<image xlink:href="tile49_41.png" preserveAspectRatio="none" x="13052.856445" y="-3289.306641" width="1.098633" height="1.098633"/>
<image xlink:href="tile49_40.png" preserveAspectRatio="none" x="13052.856445" y="-3290.405273" width="1.098633" height="1.098633"/>
<image xlink:href="tile49_39.png" preserveAspectRatio="none" x="13052.856445" y="-3291.503906" width="1.098633" height="1.098633"/>
<image xlink:href="tile49_38.png" preserveAspectRatio="none" x="13052.856445" y="-3292.602539" width="1.098633" height="1.098633"/>
<image xlink:href="tile49_30.png" preserveAspectRatio="none" x="13052.856445" y="-3301.391602" width="1.098633" height="1.098633"/>
<image xlink:href="tile50_45.png" preserveAspectRatio="none" x="13053.955078" y="-3284.912109" width="1.098633" height="1.098633"/>
<image xlink:href="tile50_44.png" preserveAspectRatio="none" x="13053.955078" y="-3286.010742" width="1.098633" height="1.098633"/>
<image xlink:href="tile50_43.png" preserveAspectRatio="none" x="13053.955078" y="-3287.109375" width="1.098633" height="1.098633"/>
<image xlink:href="tile50_42.png" preserveAspectRatio="none" x="13053.955078" y="-3288.208008" width="1.098633" height="1.098633"/>
<image xlink:href="tile50_41.png" preserveAspectRatio="none" x="13053.955078" y="-3289.306641" width="1.098633" height="1.098633"/>
<image xlink:href="tile50_40.png" preserveAspectRatio="none" x="13053.955078" y="-3290.405273" width="1.098633" height="1.098633"/>
<image xlink:href="tile50_39.png" preserveAspectRatio="none" x="13053.955078" y="-3291.503906" width="1.098633" height="1.098633"/>
<image xlink:href="tile50_38.png" preserveAspectRatio="none" x="13053.955078" y="-3292.602539" width="1.098633" height="1.098633"/>
<image xlink:href="tile51_45.png" preserveAspectRatio="none" x="13055.053711" y="-3284.912109" width="1.098633" height="1.098633"/>
<image xlink:href="tile51_44.png" preserveAspectRatio="none" x="13055.053711" y="-3286.010742" width="1.098633" height="1.098633"/>
<image xlink:href="tile51_43.png" preserveAspectRatio="none" x="13055.053711" y="-3287.109375" width="1.098633" height="1.098633"/>
<image xlink:href="tile51_42.png" preserveAspectRatio="none" x="13055.053711" y="-3288.208008" width="1.098633" height="1.098633"/>
<image xlink:href="tile51_41.png" preserveAspectRatio="none" x="13055.053711" y="-3289.306641" width="1.098633" height="1.098633"/>
<image xlink:href="tile51_40.png" preserveAspectRatio="none" x="13055.053711" y="-3290.405273" width="1.098633" height="1.098633"/>
<image xlink:href="tile51_39.png" preserveAspectRatio="none" x="13055.053711" y="-3291.503906" width="1.098633" height="1.098633"/>
<image xlink:href="tile51_38.png" preserveAspectRatio="none" x="13055.053711" y="-3292.602539" width="1.098633" height="1.098633"/>
<image xlink:href="tile51_37.png" preserveAspectRatio="none" x="13055.053711" y="-3293.701172" width="1.098633" height="1.098633"/>
<image xlink:href="tile51_36.png" preserveAspectRatio="none" x="13055.053711" y="-3294.799805" width="1.098633" height="1.098633"/>
<image xlink:href="tile51_35.png" preserveAspectRatio="none" x="13055.053711" y="-3295.898438" width="1.098633" height="1.098633"/>
<image xlink:href="tile51_34.png" preserveAspectRatio="none" x="13055.053711" y="-3296.99707" width="1.098633" height="1.098633"/>
<image xlink:href="tile52_45.png" preserveAspectRatio="none" x="13056.152344" y="-3284.912109" width="1.098633" height="1.098633"/>
<image xlink:href="tile52_44.png" preserveAspectRatio="none" x="13056.152344" y="-3286.010742" width="1.098633" height="1.098633"/>
<image xlink:href="tile52_43.png" preserveAspectRatio="none" x="13056.152344" y="-3287.109375" width="1.098633" height="1.098633"/>
<image xlink:href="tile52_42.png" preserveAspectRatio="none" x="13056.152344" y="-3288.208008" width="1.098633" height="1.098633"/>
<image xlink:href="tile52_41.png" preserveAspectRatio="none" x="13056.152344" y="-3289.306641" width="1.098633" height="1.098633"/>
<image xlink:href="tile52_40.png" preserveAspectRatio="none" x="13056.152344" y="-3290.405273" width="1.098633" height="1.098633"/>
<image xlink:href="tile52_39.png" preserveAspectRatio="none" x="13056.152344" y="-3291.503906" width="1.098633" height="1.098633"/>
<image xlink:href="tile52_38.png" preserveAspectRatio="none" x="13056.152344" y="-3292.602539" width="1.098633" height="1.098633"/>
<image xlink:href="tile52_37.png" preserveAspectRatio="none" x="13056.152344" y="-3293.701172" width="1.098633" height="1.098633"/>
<image xlink:href="tile52_36.png" preserveAspectRatio="none" x="13056.152344" y="-3294.799805" width="1.098633" height="1.098633"/>
<image xlink:href="tile52_35.png" preserveAspectRatio="none" x="13056.152344" y="-3295.898438" width="1.098633" height="1.098633"/>
<image xlink:href="tile52_34.png" preserveAspectRatio="none" x="13056.152344" y="-3296.99707" width="1.098633" height="1.098633"/>
<image xlink:href="tile52_33.png" preserveAspectRatio="none" x="13056.152344" y="-3298.095703" width="1.098633" height="1.098633"/>
<image xlink:href="tile53_44.png" preserveAspectRatio="none" x="13057.250977" y="-3286.010742" width="1.098633" height="1.098633"/>
<image xlink:href="tile53_43.png" preserveAspectRatio="none" x="13057.250977" y="-3287.109375" width="1.098633" height="1.098633"/>
<image xlink:href="tile53_42.png" preserveAspectRatio="none" x="13057.250977" y="-3288.208008" width="1.098633" height="1.098633"/>
<image xlink:href="tile53_41.png" preserveAspectRatio="none" x="13057.250977" y="-3289.306641" width="1.098633" height="1.098633"/>
<image xlink:href="tile53_40.png" preserveAspectRatio="none" x="13057.250977" y="-3290.405273" width="1.098633" height="1.098633"/>
<image xlink:href="tile53_38.png" preserveAspectRatio="none" x="13057.250977" y="-3292.602539" width="1.098633" height="1.098633"/>
<image xlink:href="tile53_37.png" preserveAspectRatio="none" x="13057.250977" y="-3293.701172" width="1.098633" height="1.098633"/>
<image xlink:href="tile53_36.png" preserveAspectRatio="none" x="13057.250977" y="-3294.799805" width="1.098633" height="1.098633"/>
<image xlink:href="tile53_35.png" preserveAspectRatio="none" x="13057.250977" y="-3295.898438" width="1.098633" height="1.098633"/>
<image xlink:href="tile53_34.png" preserveAspectRatio="none" x="13057.250977" y="-3296.99707" width="1.098633" height="1.098633"/>
<image xlink:href="tile54_44.png" preserveAspectRatio="none" x="13058.349609" y="-3286.010742" width="1.098633" height="1.098633"/>
<image xlink:href="tile54_43.png" preserveAspectRatio="none" x="13058.349609" y="-3287.109375" width="1.098633" height="1.098633"/>
<image xlink:href="tile54_42.png" preserveAspectRatio="none" x="13058.349609" y="-3288.208008" width="1.098633" height="1.098633"/>
<image xlink:href="tile54_41.png" preserveAspectRatio="none" x="13058.349609" y="-3289.306641" width="1.098633" height="1.098633"/>
<image xlink:href="tile54_40.png" preserveAspectRatio="none" x="13058.349609" y="-3290.405273" width="1.098633" height="1.098633"/>
<image xlink:href="tile54_37.png" preserveAspectRatio="none" x="13058.349609" y="-3293.701172" width="1.098633" height="1.098633"/>
<image xlink:href="tile54_36.png" preserveAspectRatio="none" x="13058.349609" y="-3294.799805" width="1.098633" height="1.098633"/>
<image xlink:href="tile54_35.png" preserveAspectRatio="none" x="13058.349609" y="-3295.898438" width="1.098633" height="1.098633"/>
<image xlink:href="tile54_34.png" preserveAspectRatio="none" x="13058.349609" y="-3296.99707" width="1.098633" height="1.098633"/>
<image xlink:href="tile54_33.png" preserveAspectRatio="none" x="13058.349609" y="-3298.095703" width="1.098633" height="1.098633"/>
<image xlink:href="tile54_31.png" preserveAspectRatio="none" x="13058.349609" y="-3300.292969" width="1.098633" height="1.098633"/>
<image xlink:href="tile55_43.png" preserveAspectRatio="none" x="13059.448242" y="-3287.109375" width="1.098633" height="1.098633"/>
<image xlink:href="tile55_38.png" preserveAspectRatio="none" x="13059.448242" y="-3292.602539" width="1.098633" height="1.098633"/>
<image xlink:href="tile55_37.png" preserveAspectRatio="none" x="13059.448242" y="-3293.701172" width="1.098633" height="1.098633"/>
<image xlink:href="tile55_36.png" preserveAspectRatio="none" x="13059.448242" y="-3294.799805" width="1.098633" height="1.098633"/>
<image xlink:href="tile55_35.png" preserveAspectRatio="none" x="13059.448242" y="-3295.898438" width="1.098633" height="1.098633"/>
<image xlink:href="tile55_34.png" preserveAspectRatio="none" x="13059.448242" y="-3296.99707" width="1.098633" height="1.098633"/>
<image xlink:href="tile55_33.png" preserveAspectRatio="none" x="13059.448242" y="-3298.095703" width="1.098633" height="1.098633"/>
<image xlink:href="tile55_32.png" preserveAspectRatio="none" x="13059.448242" y="-3299.194336" width="1.098633" height="1.098633"/>
<image xlink:href="tile55_31.png" preserveAspectRatio="none" x="13059.448242" y="-3300.292969" width="1.098633" height="1.098633"/>
<image xlink:href="tile55_30.png" preserveAspectRatio="none" x="13059.448242" y="-3301.391602" width="1.098633" height="1.098633"/>
<image xlink:href="tile56_39.png" preserveAspectRatio="none" x="13060.546875" y="-3291.503906" width="1.098633" height="1.098633"/>
<image xlink:href="tile56_38.png" preserveAspectRatio="none" x="13060.546875" y="-3292.602539" width="1.098633" height="1.098633"/>
<image xlink:href="tile56_37.png" preserveAspectRatio="none" x="13060.546875" y="-3293.701172" width="1.098633" height="1.098633"/>
<image xlink:href="tile56_33.png" preserveAspectRatio="none" x="13060.546875" y="-3298.095703" width="1.098633" height="1.098633"/>
<image xlink:href="tile56_31.png" preserveAspectRatio="none" x="13060.546875" y="-3300.292969" width="1.098633" height="1.098633"/>
<image xlink:href="tile56_30.png" preserveAspectRatio="none" x="13060.546875" y="-3301.391602" width="1.098633" height="1.098633"/>
<image xlink:href="tile57_39.png" preserveAspectRatio="none" x="13061.645508" y="-3291.503906" width="1.098633" height="1.098633"/>
<image xlink:href="tile57_38.png" preserveAspectRatio="none" x="13061.645508" y="-3292.602539" width="1.098633" height="1.098633"/>
<image xlink:href="tile58_39.png" preserveAspectRatio="none" x="13062.744141" y="-3291.503906" width="1.098633" height="1.098633"/>
<image xlink:href="tile58_38.png" preserveAspectRatio="none" x="13062.744141" y="-3292.602539" width="1.098633" height="1.098633"/>
<image xlink:href="tile58_30.png" preserveAspectRatio="none" x="13062.744141" y="-3301.391602" width="1.098633" height="1.098633"/>
<image xlink:href="tile59_31.png" preserveAspectRatio="none" x="13063.842773" y="-3300.292969" width="1.098633" height="1.098633"/>
<image xlink:href="tile59_30.png" preserveAspectRatio="none" x="13063.842773" y="-3301.391602" width="1.098633" height="1.098633"/>
<image xlink:href="tile60_31.png" preserveAspectRatio="none" x="13064.941406" y="-3300.292969" width="1.098633" height="1.098633"/>
<image xlink:href="tile60_30.png" preserveAspectRatio="none" x="13064.941406" y="-3301.391602" width="1.098633" height="1.098633"/>
<image xlink:href="tile61_31.png" preserveAspectRatio="none" x="13066.040039" y="-3300.292969" width="1.098633" height="1.098633"/>
<image xlink:href="tile61_30.png" preserveAspectRatio="none" x="13066.040039" y="-3301.391602" width="1.098633" height="1.098633"/>
<image xlink:href="tile62_42.png" preserveAspectRatio="none" x="13067.138672" y="-3288.208008" width="1.098633" height="1.098633"/>
<image xlink:href="tile62_31.png" preserveAspectRatio="none" x="13067.138672" y="-3300.292969" width="1.098633" height="1.098633"/>
<image xlink:href="tile62_30.png" preserveAspectRatio="none" x="13067.138672" y="-3301.391602" width="1.098633" height="1.098633"/>
<image xlink:href="tile63_45.png" preserveAspectRatio="none" x="13068.237305" y="-3284.912109" width="1.098633" height="1.098633"/>
<image xlink:href="tile63_44.png" preserveAspectRatio="none" x="13068.237305" y="-3286.010742" width="1.098633" height="1.098633"/>
<image xlink:href="tile63_43.png" preserveAspectRatio="none" x="13068.237305" y="-3287.109375" width="1.098633" height="1.098633"/>
<image xlink:href="tile63_42.png" preserveAspectRatio="none" x="13068.237305" y="-3288.208008" width="1.098633" height="1.098633"/>
<image xlink:href="tile63_32.png" preserveAspectRatio="none" x="13068.237305" y="-3299.194336" width="1.098633" height="1.098633"/>
<image xlink:href="tile63_31.png" preserveAspectRatio="none" x="13068.237305" y="-3300.292969" width="1.098633" height="1.098633"/>
<image xlink:href="tile63_30.png" preserveAspectRatio="none" x="13068.237305" y="-3301.391602" width="1.098633" height="1.098633"/>
</g>
</svg>
