<?xml version="1.0" encoding="UTF-8"?>
<svg  xmlns="http://www.w3.org/2000/svg" xmlns:xlink="http://www.w3.org/1999/xlink" xmlns:go="http://purl.org/svgmap/profile" viewBox="13000.0 -3333.3333332 100.0 66.66666620000044" go:dataArea="13000.0 -3333.3333332 100.0 66.66666620000044" >
<metadata>
 <rdf:RDF xmlns:rdf="http://www.w3.org/1999/02/22-rdf-syntax-ns#" xmlns:crs="http://opengis.org/xmldtds/transformations.dtd" xmlns:svg="http://www.w3.org/svg" >
  <rdf:Description>
   <crs:CoordinateReferenceSystem rdf:resource="http://purl.org/crs/84" svg:transform="matrix(100.0,0.0,0.0,-100.0,0.0,0.0)" />
  </rdf:Description>
 </rdf:RDF>
</metadata>
<globalCoordinateSystem srsName="http://purl.org/crs/84" transform="matrix(100.0,0.0,0.0,-100.0,0.0,0.0)" />
<g >
<image xlink:href="tile16_13.png" preserveAspectRatio="none" x="13016.601562" y="-3320.068359" width="1.098633" height="1.098633"/>
<image xlink:href="tile16_12.png" preserveAspectRatio="none" x="13016.601562" y="-3321.166992" width="1.098633" height="1.098633"/>
<image xlink:href="tile16_11.png" preserveAspectRatio="none" x="13016.601562" y="-3322.265625" width="1.098633" height="1.098633"/>
<image xlink:href="tile16_10.png" preserveAspectRatio="none" x="13016.601562" y="-3323.364258" width="1.098633" height="1.098633"/>
<image xlink:href="tile16_9.png" preserveAspectRatio="none" x="13016.601562" y="-3324.462891" width="1.098633" height="1.098633"/>
<image xlink:href="tile16_8.png" preserveAspectRatio="none" x="13016.601562" y="-3325.561523" width="1.098633" height="1.098633"/>
<image xlink:href="tile16_7.png" preserveAspectRatio="none" x="13016.601562" y="-3326.660156" width="1.098633" height="1.098633"/>
<image xlink:href="tile16_6.png" preserveAspectRatio="none" x="13016.601562" y="-3327.758789" width="1.098633" height="1.098633"/>
<image xlink:href="tile16_5.png" preserveAspectRatio="none" x="13016.601562" y="-3328.857422" width="1.098633" height="1.098633"/>
<image xlink:href="tile16_4.png" preserveAspectRatio="none" x="13016.601562" y="-3329.956055" width="1.098633" height="1.098633"/>
<image xlink:href="tile16_3.png" preserveAspectRatio="none" x="13016.601562" y="-3331.054688" width="1.098633" height="1.098633"/>
<image xlink:href="tile17_13.png" preserveAspectRatio="none" x="13017.700195" y="-3320.068359" width="1.098633" height="1.098633"/>
<image xlink:href="tile17_12.png" preserveAspectRatio="none" x="13017.700195" y="-3321.166992" width="1.098633" height="1.098633"/>
<image xlink:href="tile17_11.png" preserveAspectRatio="none" x="13017.700195" y="-3322.265625" width="1.098633" height="1.098633"/>
<image xlink:href="tile17_10.png" preserveAspectRatio="none" x="13017.700195" y="-3323.364258" width="1.098633" height="1.098633"/>
<image xlink:href="tile17_9.png" preserveAspectRatio="none" x="13017.700195" y="-3324.462891" width="1.098633" height="1.098633"/>
<image xlink:href="tile17_8.png" preserveAspectRatio="none" x="13017.700195" y="-3325.561523" width="1.098633" height="1.098633"/>
<image xlink:href="tile17_7.png" preserveAspectRatio="none" x="13017.700195" y="-3326.660156" width="1.098633" height="1.098633"/>
<image xlink:href="tile17_6.png" preserveAspectRatio="none" x="13017.700195" y="-3327.758789" width="1.098633" height="1.098633"/>
<image xlink:href="tile17_5.png" preserveAspectRatio="none" x="13017.700195" y="-3328.857422" width="1.098633" height="1.098633"/>
<image xlink:href="tile17_4.png" preserveAspectRatio="none" x="13017.700195" y="-3329.956055" width="1.098633" height="1.098633"/>
<image xlink:href="tile17_2.png" preserveAspectRatio="none" x="13017.700195" y="-3332.15332" width="1.098633" height="1.098633"/>
<image xlink:href="tile18_13.png" preserveAspectRatio="none" x="13018.798828" y="-3320.068359" width="1.098633" height="1.098633"/>
<image xlink:href="tile18_12.png" preserveAspectRatio="none" x="13018.798828" y="-3321.166992" width="1.098633" height="1.098633"/>
<image xlink:href="tile18_11.png" preserveAspectRatio="none" x="13018.798828" y="-3322.265625" width="1.098633" height="1.098633"/>
<image xlink:href="tile18_10.png" preserveAspectRatio="none" x="13018.798828" y="-3323.364258" width="1.098633" height="1.098633"/>
<image xlink:href="tile18_9.png" preserveAspectRatio="none" x="13018.798828" y="-3324.462891" width="1.098633" height="1.098633"/>
<image xlink:href="tile18_8.png" preserveAspectRatio="none" x="13018.798828" y="-3325.561523" width="1.098633" height="1.098633"/>
<image xlink:href="tile18_7.png" preserveAspectRatio="none" x="13018.798828" y="-3326.660156" width="1.098633" height="1.098633"/>
<image xlink:href="tile18_6.png" preserveAspectRatio="none" x="13018.798828" y="-3327.758789" width="1.098633" height="1.098633"/>
<image xlink:href="tile18_5.png" preserveAspectRatio="none" x="13018.798828" y="-3328.857422" width="1.098633" height="1.098633"/>
<image xlink:href="tile18_4.png" preserveAspectRatio="none" x="13018.798828" y="-3329.956055" width="1.098633" height="1.098633"/>
<image xlink:href="tile18_3.png" preserveAspectRatio="none" x="13018.798828" y="-3331.054688" width="1.098633" height="1.098633"/>
<image xlink:href="tile18_2.png" preserveAspectRatio="none" x="13018.798828" y="-3332.15332" width="1.098633" height="1.098633"/>
<image xlink:href="tile19_13.png" preserveAspectRatio="none" x="13019.897461" y="-3320.068359" width="1.098633" height="1.098633"/>
<image xlink:href="tile19_12.png" preserveAspectRatio="none" x="13019.897461" y="-3321.166992" width="1.098633" height="1.098633"/>
<image xlink:href="tile19_11.png" preserveAspectRatio="none" x="13019.897461" y="-3322.265625" width="1.098633" height="1.098633"/>
<image xlink:href="tile19_10.png" preserveAspectRatio="none" x="13019.897461" y="-3323.364258" width="1.098633" height="1.098633"/>
<image xlink:href="tile19_9.png" preserveAspectRatio="none" x="13019.897461" y="-3324.462891" width="1.098633" height="1.098633"/>
<image xlink:href="tile19_8.png" preserveAspectRatio="none" x="13019.897461" y="-3325.561523" width="1.098633" height="1.098633"/>
<image xlink:href="tile19_7.png" preserveAspectRatio="none" x="13019.897461" y="-3326.660156" width="1.098633" height="1.098633"/>
<image xlink:href="tile19_6.png" preserveAspectRatio="none" x="13019.897461" y="-3327.758789" width="1.098633" height="1.098633"/>
<image xlink:href="tile19_5.png" preserveAspectRatio="none" x="13019.897461" y="-3328.857422" width="1.098633" height="1.098633"/>
<image xlink:href="tile19_4.png" preserveAspectRatio="none" x="13019.897461" y="-3329.956055" width="1.098633" height="1.098633"/>
<image xlink:href="tile19_3.png" preserveAspectRatio="none" x="13019.897461" y="-3331.054688" width="1.098633" height="1.098633"/>
<image xlink:href="tile20_13.png" preserveAspectRatio="none" x="13020.996094" y="-3320.068359" width="1.098633" height="1.098633"/>
<image xlink:href="tile20_12.png" preserveAspectRatio="none" x="13020.996094" y="-3321.166992" width="1.098633" height="1.098633"/>
<image xlink:href="tile20_11.png" preserveAspectRatio="none" x="13020.996094" y="-3322.265625" width="1.098633" height="1.098633"/>
<image xlink:href="tile20_10.png" preserveAspectRatio="none" x="13020.996094" y="-3323.364258" width="1.098633" height="1.098633"/>
<image xlink:href="tile20_9.png" preserveAspectRatio="none" x="13020.996094" y="-3324.462891" width="1.098633" height="1.098633"/>
<image xlink:href="tile20_8.png" preserveAspectRatio="none" x="13020.996094" y="-3325.561523" width="1.098633" height="1.098633"/>
<image xlink:href="tile20_7.png" preserveAspectRatio="none" x="13020.996094" y="-3326.660156" width="1.098633" height="1.098633"/>
<image xlink:href="tile20_6.png" preserveAspectRatio="none" x="13020.996094" y="-3327.758789" width="1.098633" height="1.098633"/>
<image xlink:href="tile20_5.png" preserveAspectRatio="none" x="13020.996094" y="-3328.857422" width="1.098633" height="1.098633"/>
<image xlink:href="tile20_4.png" preserveAspectRatio="none" x="13020.996094" y="-3329.956055" width="1.098633" height="1.098633"/>
<image xlink:href="tile20_3.png" preserveAspectRatio="none" x="13020.996094" y="-3331.054688" width="1.098633" height="1.098633"/>
<image xlink:href="tile21_13.png" preserveAspectRatio="none" x="13022.094727" y="-3320.068359" width="1.098633" height="1.098633"/>
<image xlink:href="tile21_12.png" preserveAspectRatio="none" x="13022.094727" y="-3321.166992" width="1.098633" height="1.098633"/>
<image xlink:href="tile21_11.png" preserveAspectRatio="none" x="13022.094727" y="-3322.265625" width="1.098633" height="1.098633"/>
<image xlink:href="tile21_10.png" preserveAspectRatio="none" x="13022.094727" y="-3323.364258" width="1.098633" height="1.098633"/>
<image xlink:href="tile21_9.png" preserveAspectRatio="none" x="13022.094727" y="-3324.462891" width="1.098633" height="1.098633"/>
<image xlink:href="tile21_8.png" preserveAspectRatio="none" x="13022.094727" y="-3325.561523" width="1.098633" height="1.098633"/>
<image xlink:href="tile21_7.png" preserveAspectRatio="none" x="13022.094727" y="-3326.660156" width="1.098633" height="1.098633"/>
<image xlink:href="tile21_6.png" preserveAspectRatio="none" x="13022.094727" y="-3327.758789" width="1.098633" height="1.098633"/>
<image xlink:href="tile21_5.png" preserveAspectRatio="none" x="13022.094727" y="-3328.857422" width="1.098633" height="1.098633"/>
<image xlink:href="tile21_4.png" preserveAspectRatio="none" x="13022.094727" y="-3329.956055" width="1.098633" height="1.098633"/>
<image xlink:href="tile21_3.png" preserveAspectRatio="none" x="13022.094727" y="-3331.054688" width="1.098633" height="1.098633"/>
<image xlink:href="tile22_13.png" preserveAspectRatio="none" x="13023.193359" y="-3320.068359" width="1.098633" height="1.098633"/>
<image xlink:href="tile22_12.png" preserveAspectRatio="none" x="13023.193359" y="-3321.166992" width="1.098633" height="1.098633"/>
<image xlink:href="tile22_11.png" preserveAspectRatio="none" x="13023.193359" y="-3322.265625" width="1.098633" height="1.098633"/>
<image xlink:href="tile22_10.png" preserveAspectRatio="none" x="13023.193359" y="-3323.364258" width="1.098633" height="1.098633"/>
<image xlink:href="tile22_9.png" preserveAspectRatio="none" x="13023.193359" y="-3324.462891" width="1.098633" height="1.098633"/>
<image xlink:href="tile22_8.png" preserveAspectRatio="none" x="13023.193359" y="-3325.561523" width="1.098633" height="1.098633"/>
<image xlink:href="tile22_7.png" preserveAspectRatio="none" x="13023.193359" y="-3326.660156" width="1.098633" height="1.098633"/>
<image xlink:href="tile22_6.png" preserveAspectRatio="none" x="13023.193359" y="-3327.758789" width="1.098633" height="1.098633"/>
<image xlink:href="tile22_5.png" preserveAspectRatio="none" x="13023.193359" y="-3328.857422" width="1.098633" height="1.098633"/>
<image xlink:href="tile22_4.png" preserveAspectRatio="none" x="13023.193359" y="-3329.956055" width="1.098633" height="1.098633"/>
<image xlink:href="tile22_3.png" preserveAspectRatio="none" x="13023.193359" y="-3331.054688" width="1.098633" height="1.098633"/>
<image xlink:href="tile23_13.png" preserveAspectRatio="none" x="13024.291992" y="-3320.068359" width="1.098633" height="1.098633"/>
<image xlink:href="tile23_12.png" preserveAspectRatio="none" x="13024.291992" y="-3321.166992" width="1.098633" height="1.098633"/>
<image xlink:href="tile23_11.png" preserveAspectRatio="none" x="13024.291992" y="-3322.265625" width="1.098633" height="1.098633"/>
<image xlink:href="tile23_10.png" preserveAspectRatio="none" x="13024.291992" y="-3323.364258" width="1.098633" height="1.098633"/>
<image xlink:href="tile23_9.png" preserveAspectRatio="none" x="13024.291992" y="-3324.462891" width="1.098633" height="1.098633"/>
<image xlink:href="tile23_8.png" preserveAspectRatio="none" x="13024.291992" y="-3325.561523" width="1.098633" height="1.098633"/>
<image xlink:href="tile23_7.png" preserveAspectRatio="none" x="13024.291992" y="-3326.660156" width="1.098633" height="1.098633"/>
<image xlink:href="tile23_6.png" preserveAspectRatio="none" x="13024.291992" y="-3327.758789" width="1.098633" height="1.098633"/>
<image xlink:href="tile23_5.png" preserveAspectRatio="none" x="13024.291992" y="-3328.857422" width="1.098633" height="1.098633"/>
<image xlink:href="tile23_4.png" preserveAspectRatio="none" x="13024.291992" y="-3329.956055" width="1.098633" height="1.098633"/>
<image xlink:href="tile23_3.png" preserveAspectRatio="none" x="13024.291992" y="-3331.054688" width="1.098633" height="1.098633"/>
<image xlink:href="tile23_2.png" preserveAspectRatio="none" x="13024.291992" y="-3332.15332" width="1.098633" height="1.098633"/>
<image xlink:href="tile24_13.png" preserveAspectRatio="none" x="13025.390625" y="-3320.068359" width="1.098633" height="1.098633"/>
<image xlink:href="tile24_12.png" preserveAspectRatio="none" x="13025.390625" y="-3321.166992" width="1.098633" height="1.098633"/>
<image xlink:href="tile24_11.png" preserveAspectRatio="none" x="13025.390625" y="-3322.265625" width="1.098633" height="1.098633"/>
<image xlink:href="tile24_10.png" preserveAspectRatio="none" x="13025.390625" y="-3323.364258" width="1.098633" height="1.098633"/>
<image xlink:href="tile24_9.png" preserveAspectRatio="none" x="13025.390625" y="-3324.462891" width="1.098633" height="1.098633"/>
<image xlink:href="tile24_8.png" preserveAspectRatio="none" x="13025.390625" y="-3325.561523" width="1.098633" height="1.098633"/>
<image xlink:href="tile24_7.png" preserveAspectRatio="none" x="13025.390625" y="-3326.660156" width="1.098633" height="1.098633"/>
<image xlink:href="tile24_6.png" preserveAspectRatio="none" x="13025.390625" y="-3327.758789" width="1.098633" height="1.098633"/>
<image xlink:href="tile24_5.png" preserveAspectRatio="none" x="13025.390625" y="-3328.857422" width="1.098633" height="1.098633"/>
<image xlink:href="tile24_4.png" preserveAspectRatio="none" x="13025.390625" y="-3329.956055" width="1.098633" height="1.098633"/>
<image xlink:href="tile24_3.png" preserveAspectRatio="none" x="13025.390625" y="-3331.054688" width="1.098633" height="1.098633"/>
<image xlink:href="tile24_2.png" preserveAspectRatio="none" x="13025.390625" y="-3332.15332" width="1.098633" height="1.098633"/>
<image xlink:href="tile24_1.png" preserveAspectRatio="none" x="13025.390625" y="-3333.251953" width="1.098633" height="1.098633"/>
<image xlink:href="tile25_13.png" preserveAspectRatio="none" x="13026.489258" y="-3320.068359" width="1.098633" height="1.098633"/>
<image xlink:href="tile25_12.png" preserveAspectRatio="none" x="13026.489258" y="-3321.166992" width="1.098633" height="1.098633"/>
<image xlink:href="tile25_11.png" preserveAspectRatio="none" x="13026.489258" y="-3322.265625" width="1.098633" height="1.098633"/>
<image xlink:href="tile25_10.png" preserveAspectRatio="none" x="13026.489258" y="-3323.364258" width="1.098633" height="1.098633"/>
<image xlink:href="tile25_9.png" preserveAspectRatio="none" x="13026.489258" y="-3324.462891" width="1.098633" height="1.098633"/>
<image xlink:href="tile25_8.png" preserveAspectRatio="none" x="13026.489258" y="-3325.561523" width="1.098633" height="1.098633"/>
<image xlink:href="tile25_7.png" preserveAspectRatio="none" x="13026.489258" y="-3326.660156" width="1.098633" height="1.098633"/>
<image xlink:href="tile25_6.png" preserveAspectRatio="none" x="13026.489258" y="-3327.758789" width="1.098633" height="1.098633"/>
<image xlink:href="tile25_5.png" preserveAspectRatio="none" x="13026.489258" y="-3328.857422" width="1.098633" height="1.098633"/>
<image xlink:href="tile25_4.png" preserveAspectRatio="none" x="13026.489258" y="-3329.956055" width="1.098633" height="1.098633"/>
<image xlink:href="tile25_3.png" preserveAspectRatio="none" x="13026.489258" y="-3331.054688" width="1.098633" height="1.098633"/>
<image xlink:href="tile25_2.png" preserveAspectRatio="none" x="13026.489258" y="-3332.15332" width="1.098633" height="1.098633"/>
<image xlink:href="tile25_1.png" preserveAspectRatio="none" x="13026.489258" y="-3333.251953" width="1.098633" height="1.098633"/>
<image xlink:href="tile26_13.png" preserveAspectRatio="none" x="13027.587891" y="-3320.068359" width="1.098633" height="1.098633"/>
<image xlink:href="tile26_12.png" preserveAspectRatio="none" x="13027.587891" y="-3321.166992" width="1.098633" height="1.098633"/>
<image xlink:href="tile26_11.png" preserveAspectRatio="none" x="13027.587891" y="-3322.265625" width="1.098633" height="1.098633"/>
<image xlink:href="tile26_10.png" preserveAspectRatio="none" x="13027.587891" y="-3323.364258" width="1.098633" height="1.098633"/>
<image xlink:href="tile26_9.png" preserveAspectRatio="none" x="13027.587891" y="-3324.462891" width="1.098633" height="1.098633"/>
<image xlink:href="tile26_8.png" preserveAspectRatio="none" x="13027.587891" y="-3325.561523" width="1.098633" height="1.098633"/>
<image xlink:href="tile26_7.png" preserveAspectRatio="none" x="13027.587891" y="-3326.660156" width="1.098633" height="1.098633"/>
<image xlink:href="tile26_6.png" preserveAspectRatio="none" x="13027.587891" y="-3327.758789" width="1.098633" height="1.098633"/>
<image xlink:href="tile26_5.png" preserveAspectRatio="none" x="13027.587891" y="-3328.857422" width="1.098633" height="1.098633"/>
<image xlink:href="tile26_4.png" preserveAspectRatio="none" x="13027.587891" y="-3329.956055" width="1.098633" height="1.098633"/>
<image xlink:href="tile26_3.png" preserveAspectRatio="none" x="13027.587891" y="-3331.054688" width="1.098633" height="1.098633"/>
<image xlink:href="tile26_2.png" preserveAspectRatio="none" x="13027.587891" y="-3332.15332" width="1.098633" height="1.098633"/>
<image xlink:href="tile27_13.png" preserveAspectRatio="none" x="13028.686523" y="-3320.068359" width="1.098633" height="1.098633"/>
<image xlink:href="tile27_12.png" preserveAspectRatio="none" x="13028.686523" y="-3321.166992" width="1.098633" height="1.098633"/>
<image xlink:href="tile27_11.png" preserveAspectRatio="none" x="13028.686523" y="-3322.265625" width="1.098633" height="1.098633"/>
<image xlink:href="tile27_10.png" preserveAspectRatio="none" x="13028.686523" y="-3323.364258" width="1.098633" height="1.098633"/>
<image xlink:href="tile27_9.png" preserveAspectRatio="none" x="13028.686523" y="-3324.462891" width="1.098633" height="1.098633"/>
<image xlink:href="tile27_8.png" preserveAspectRatio="none" x="13028.686523" y="-3325.561523" width="1.098633" height="1.098633"/>
<image xlink:href="tile27_7.png" preserveAspectRatio="none" x="13028.686523" y="-3326.660156" width="1.098633" height="1.098633"/>
<image xlink:href="tile27_6.png" preserveAspectRatio="none" x="13028.686523" y="-3327.758789" width="1.098633" height="1.098633"/>
<image xlink:href="tile27_5.png" preserveAspectRatio="none" x="13028.686523" y="-3328.857422" width="1.098633" height="1.098633"/>
<image xlink:href="tile27_4.png" preserveAspectRatio="none" x="13028.686523" y="-3329.956055" width="1.098633" height="1.098633"/>
<image xlink:href="tile27_3.png" preserveAspectRatio="none" x="13028.686523" y="-3331.054688" width="1.098633" height="1.098633"/>
<image xlink:href="tile27_2.png" preserveAspectRatio="none" x="13028.686523" y="-3332.15332" width="1.098633" height="1.098633"/>
<image xlink:href="tile28_13.png" preserveAspectRatio="none" x="13029.785156" y="-3320.068359" width="1.098633" height="1.098633"/>
<image xlink:href="tile28_12.png" preserveAspectRatio="none" x="13029.785156" y="-3321.166992" width="1.098633" height="1.098633"/>
<image xlink:href="tile28_11.png" preserveAspectRatio="none" x="13029.785156" y="-3322.265625" width="1.098633" height="1.098633"/>
<image xlink:href="tile28_10.png" preserveAspectRatio="none" x="13029.785156" y="-3323.364258" width="1.098633" height="1.098633"/>
<image xlink:href="tile28_9.png" preserveAspectRatio="none" x="13029.785156" y="-3324.462891" width="1.098633" height="1.098633"/>
<image xlink:href="tile28_8.png" preserveAspectRatio="none" x="13029.785156" y="-3325.561523" width="1.098633" height="1.098633"/>
<image xlink:href="tile28_7.png" preserveAspectRatio="none" x="13029.785156" y="-3326.660156" width="1.098633" height="1.098633"/>
<image xlink:href="tile28_6.png" preserveAspectRatio="none" x="13029.785156" y="-3327.758789" width="1.098633" height="1.098633"/>
<image xlink:href="tile28_5.png" preserveAspectRatio="none" x="13029.785156" y="-3328.857422" width="1.098633" height="1.098633"/>
<image xlink:href="tile28_4.png" preserveAspectRatio="none" x="13029.785156" y="-3329.956055" width="1.098633" height="1.098633"/>
<image xlink:href="tile28_3.png" preserveAspectRatio="none" x="13029.785156" y="-3331.054688" width="1.098633" height="1.098633"/>
<image xlink:href="tile28_2.png" preserveAspectRatio="none" x="13029.785156" y="-3332.15332" width="1.098633" height="1.098633"/>
<image xlink:href="tile29_13.png" preserveAspectRatio="none" x="13030.883789" y="-3320.068359" width="1.098633" height="1.098633"/>
<image xlink:href="tile29_12.png" preserveAspectRatio="none" x="13030.883789" y="-3321.166992" width="1.098633" height="1.098633"/>
<image xlink:href="tile29_11.png" preserveAspectRatio="none" x="13030.883789" y="-3322.265625" width="1.098633" height="1.098633"/>
<image xlink:href="tile29_10.png" preserveAspectRatio="none" x="13030.883789" y="-3323.364258" width="1.098633" height="1.098633"/>
<image xlink:href="tile29_9.png" preserveAspectRatio="none" x="13030.883789" y="-3324.462891" width="1.098633" height="1.098633"/>
<image xlink:href="tile29_8.png" preserveAspectRatio="none" x="13030.883789" y="-3325.561523" width="1.098633" height="1.098633"/>
<image xlink:href="tile29_7.png" preserveAspectRatio="none" x="13030.883789" y="-3326.660156" width="1.098633" height="1.098633"/>
<image xlink:href="tile29_6.png" preserveAspectRatio="none" x="13030.883789" y="-3327.758789" width="1.098633" height="1.098633"/>
<image xlink:href="tile29_5.png" preserveAspectRatio="none" x="13030.883789" y="-3328.857422" width="1.098633" height="1.098633"/>
<image xlink:href="tile29_4.png" preserveAspectRatio="none" x="13030.883789" y="-3329.956055" width="1.098633" height="1.098633"/>
<image xlink:href="tile29_3.png" preserveAspectRatio="none" x="13030.883789" y="-3331.054688" width="1.098633" height="1.098633"/>
<image xlink:href="tile29_2.png" preserveAspectRatio="none" x="13030.883789" y="-3332.15332" width="1.098633" height="1.098633"/>
<image xlink:href="tile29_1.png" preserveAspectRatio="none" x="13030.883789" y="-3333.251953" width="1.098633" height="1.098633"/>
<image xlink:href="tile30_13.png" preserveAspectRatio="none" x="13031.982422" y="-3320.068359" width="1.098633" height="1.098633"/>
<image xlink:href="tile30_12.png" preserveAspectRatio="none" x="13031.982422" y="-3321.166992" width="1.098633" height="1.098633"/>
<image xlink:href="tile30_11.png" preserveAspectRatio="none" x="13031.982422" y="-3322.265625" width="1.098633" height="1.098633"/>
<image xlink:href="tile30_10.png" preserveAspectRatio="none" x="13031.982422" y="-3323.364258" width="1.098633" height="1.098633"/>
<image xlink:href="tile30_9.png" preserveAspectRatio="none" x="13031.982422" y="-3324.462891" width="1.098633" height="1.098633"/>
<image xlink:href="tile30_8.png" preserveAspectRatio="none" x="13031.982422" y="-3325.561523" width="1.098633" height="1.098633"/>
<image xlink:href="tile30_7.png" preserveAspectRatio="none" x="13031.982422" y="-3326.660156" width="1.098633" height="1.098633"/>
<image xlink:href="tile30_6.png" preserveAspectRatio="none" x="13031.982422" y="-3327.758789" width="1.098633" height="1.098633"/>
<image xlink:href="tile30_5.png" preserveAspectRatio="none" x="13031.982422" y="-3328.857422" width="1.098633" height="1.098633"/>
<image xlink:href="tile30_4.png" preserveAspectRatio="none" x="13031.982422" y="-3329.956055" width="1.098633" height="1.098633"/>
<image xlink:href="tile30_3.png" preserveAspectRatio="none" x="13031.982422" y="-3331.054688" width="1.098633" height="1.098633"/>
<image xlink:href="tile30_2.png" preserveAspectRatio="none" x="13031.982422" y="-3332.15332" width="1.098633" height="1.098633"/>
<image xlink:href="tile30_1.png" preserveAspectRatio="none" x="13031.982422" y="-3333.251953" width="1.098633" height="1.098633"/>
<image xlink:href="tile30_0.png" preserveAspectRatio="none" x="13031.982422" y="-3334.350586" width="1.098633" height="1.098633"/>
<image xlink:href="tile31_13.png" preserveAspectRatio="none" x="13033.081055" y="-3320.068359" width="1.098633" height="1.098633"/>
<image xlink:href="tile31_12.png" preserveAspectRatio="none" x="13033.081055" y="-3321.166992" width="1.098633" height="1.098633"/>
<image xlink:href="tile31_11.png" preserveAspectRatio="none" x="13033.081055" y="-3322.265625" width="1.098633" height="1.098633"/>
<image xlink:href="tile31_10.png" preserveAspectRatio="none" x="13033.081055" y="-3323.364258" width="1.098633" height="1.098633"/>
<image xlink:href="tile31_9.png" preserveAspectRatio="none" x="13033.081055" y="-3324.462891" width="1.098633" height="1.098633"/>
<image xlink:href="tile31_8.png" preserveAspectRatio="none" x="13033.081055" y="-3325.561523" width="1.098633" height="1.098633"/>
<image xlink:href="tile31_7.png" preserveAspectRatio="none" x="13033.081055" y="-3326.660156" width="1.098633" height="1.098633"/>
<image xlink:href="tile31_6.png" preserveAspectRatio="none" x="13033.081055" y="-3327.758789" width="1.098633" height="1.098633"/>
<image xlink:href="tile31_5.png" preserveAspectRatio="none" x="13033.081055" y="-3328.857422" width="1.098633" height="1.098633"/>
<image xlink:href="tile31_4.png" preserveAspectRatio="none" x="13033.081055" y="-3329.956055" width="1.098633" height="1.098633"/>
<image xlink:href="tile31_3.png" preserveAspectRatio="none" x="13033.081055" y="-3331.054688" width="1.098633" height="1.098633"/>
<image xlink:href="tile31_2.png" preserveAspectRatio="none" x="13033.081055" y="-3332.15332" width="1.098633" height="1.098633"/>
<image xlink:href="tile31_1.png" preserveAspectRatio="none" x="13033.081055" y="-3333.251953" width="1.098633" height="1.098633"/>
</g>
</svg>
