<?xml version="1.0" encoding="UTF-8"?>
<svg  xmlns="http://www.w3.org/2000/svg" xmlns:xlink="http://www.w3.org/1999/xlink" xmlns:go="http://purl.org/svgmap/profile" viewBox="13000.0 -3333.3333332 100.0 66.66666620000044" go:dataArea="13000.0 -3333.3333332 100.0 66.66666620000044" >
<metadata>
 <rdf:RDF xmlns:rdf="http://www.w3.org/1999/02/22-rdf-syntax-ns#" xmlns:crs="http://opengis.org/xmldtds/transformations.dtd" xmlns:svg="http://www.w3.org/svg" >
  <rdf:Description>
   <crs:CoordinateReferenceSystem rdf:resource="http://purl.org/crs/84" svg:transform="matrix(100.0,0.0,0.0,-100.0,0.0,0.0)" />
  </rdf:Description>
 </rdf:RDF>
</metadata>
<globalCoordinateSystem srsName="http://purl.org/crs/84" transform="matrix(100.0,0.0,0.0,-100.0,0.0,0.0)" />
<g >
<image xlink:href="tile32_13.png" preserveAspectRatio="none" x="13034.179688" y="-3320.068359" width="1.098633" height="1.098633"/>
<image xlink:href="tile32_12.png" preserveAspectRatio="none" x="13034.179688" y="-3321.166992" width="1.098633" height="1.098633"/>
<image xlink:href="tile32_11.png" preserveAspectRatio="none" x="13034.179688" y="-3322.265625" width="1.098633" height="1.098633"/>
<image xlink:href="tile32_10.png" preserveAspectRatio="none" x="13034.179688" y="-3323.364258" width="1.098633" height="1.098633"/>
<image xlink:href="tile32_9.png" preserveAspectRatio="none" x="13034.179688" y="-3324.462891" width="1.098633" height="1.098633"/>
<image xlink:href="tile32_8.png" preserveAspectRatio="none" x="13034.179688" y="-3325.561523" width="1.098633" height="1.098633"/>
<image xlink:href="tile32_7.png" preserveAspectRatio="none" x="13034.179688" y="-3326.660156" width="1.098633" height="1.098633"/>
<image xlink:href="tile32_6.png" preserveAspectRatio="none" x="13034.179688" y="-3327.758789" width="1.098633" height="1.098633"/>
<image xlink:href="tile32_5.png" preserveAspectRatio="none" x="13034.179688" y="-3328.857422" width="1.098633" height="1.098633"/>
<image xlink:href="tile32_4.png" preserveAspectRatio="none" x="13034.179688" y="-3329.956055" width="1.098633" height="1.098633"/>
<image xlink:href="tile32_3.png" preserveAspectRatio="none" x="13034.179688" y="-3331.054688" width="1.098633" height="1.098633"/>
<image xlink:href="tile32_2.png" preserveAspectRatio="none" x="13034.179688" y="-3332.15332" width="1.098633" height="1.098633"/>
<image xlink:href="tile33_13.png" preserveAspectRatio="none" x="13035.27832" y="-3320.068359" width="1.098633" height="1.098633"/>
<image xlink:href="tile33_12.png" preserveAspectRatio="none" x="13035.27832" y="-3321.166992" width="1.098633" height="1.098633"/>
<image xlink:href="tile33_11.png" preserveAspectRatio="none" x="13035.27832" y="-3322.265625" width="1.098633" height="1.098633"/>
<image xlink:href="tile33_10.png" preserveAspectRatio="none" x="13035.27832" y="-3323.364258" width="1.098633" height="1.098633"/>
<image xlink:href="tile33_9.png" preserveAspectRatio="none" x="13035.27832" y="-3324.462891" width="1.098633" height="1.098633"/>
<image xlink:href="tile33_8.png" preserveAspectRatio="none" x="13035.27832" y="-3325.561523" width="1.098633" height="1.098633"/>
<image xlink:href="tile33_7.png" preserveAspectRatio="none" x="13035.27832" y="-3326.660156" width="1.098633" height="1.098633"/>
<image xlink:href="tile33_6.png" preserveAspectRatio="none" x="13035.27832" y="-3327.758789" width="1.098633" height="1.098633"/>
<image xlink:href="tile33_5.png" preserveAspectRatio="none" x="13035.27832" y="-3328.857422" width="1.098633" height="1.098633"/>
<image xlink:href="tile33_4.png" preserveAspectRatio="none" x="13035.27832" y="-3329.956055" width="1.098633" height="1.098633"/>
<image xlink:href="tile33_3.png" preserveAspectRatio="none" x="13035.27832" y="-3331.054688" width="1.098633" height="1.098633"/>
<image xlink:href="tile33_2.png" preserveAspectRatio="none" x="13035.27832" y="-3332.15332" width="1.098633" height="1.098633"/>
<image xlink:href="tile33_1.png" preserveAspectRatio="none" x="13035.27832" y="-3333.251953" width="1.098633" height="1.098633"/>
<image xlink:href="tile34_13.png" preserveAspectRatio="none" x="13036.376953" y="-3320.068359" width="1.098633" height="1.098633"/>
<image xlink:href="tile34_12.png" preserveAspectRatio="none" x="13036.376953" y="-3321.166992" width="1.098633" height="1.098633"/>
<image xlink:href="tile34_11.png" preserveAspectRatio="none" x="13036.376953" y="-3322.265625" width="1.098633" height="1.098633"/>
<image xlink:href="tile34_10.png" preserveAspectRatio="none" x="13036.376953" y="-3323.364258" width="1.098633" height="1.098633"/>
<image xlink:href="tile34_9.png" preserveAspectRatio="none" x="13036.376953" y="-3324.462891" width="1.098633" height="1.098633"/>
<image xlink:href="tile34_8.png" preserveAspectRatio="none" x="13036.376953" y="-3325.561523" width="1.098633" height="1.098633"/>
<image xlink:href="tile34_7.png" preserveAspectRatio="none" x="13036.376953" y="-3326.660156" width="1.098633" height="1.098633"/>
<image xlink:href="tile34_6.png" preserveAspectRatio="none" x="13036.376953" y="-3327.758789" width="1.098633" height="1.098633"/>
<image xlink:href="tile34_5.png" preserveAspectRatio="none" x="13036.376953" y="-3328.857422" width="1.098633" height="1.098633"/>
<image xlink:href="tile34_4.png" preserveAspectRatio="none" x="13036.376953" y="-3329.956055" width="1.098633" height="1.098633"/>
<image xlink:href="tile34_3.png" preserveAspectRatio="none" x="13036.376953" y="-3331.054688" width="1.098633" height="1.098633"/>
<image xlink:href="tile34_2.png" preserveAspectRatio="none" x="13036.376953" y="-3332.15332" width="1.098633" height="1.098633"/>
<image xlink:href="tile34_1.png" preserveAspectRatio="none" x="13036.376953" y="-3333.251953" width="1.098633" height="1.098633"/>
<image xlink:href="tile34_0.png" preserveAspectRatio="none" x="13036.376953" y="-3334.350586" width="1.098633" height="1.098633"/>
<image xlink:href="tile35_13.png" preserveAspectRatio="none" x="13037.475586" y="-3320.068359" width="1.098633" height="1.098633"/>
<image xlink:href="tile35_12.png" preserveAspectRatio="none" x="13037.475586" y="-3321.166992" width="1.098633" height="1.098633"/>
<image xlink:href="tile35_11.png" preserveAspectRatio="none" x="13037.475586" y="-3322.265625" width="1.098633" height="1.098633"/>
<image xlink:href="tile35_10.png" preserveAspectRatio="none" x="13037.475586" y="-3323.364258" width="1.098633" height="1.098633"/>
<image xlink:href="tile35_9.png" preserveAspectRatio="none" x="13037.475586" y="-3324.462891" width="1.098633" height="1.098633"/>
<image xlink:href="tile35_8.png" preserveAspectRatio="none" x="13037.475586" y="-3325.561523" width="1.098633" height="1.098633"/>
<image xlink:href="tile35_7.png" preserveAspectRatio="none" x="13037.475586" y="-3326.660156" width="1.098633" height="1.098633"/>
<image xlink:href="tile35_6.png" preserveAspectRatio="none" x="13037.475586" y="-3327.758789" width="1.098633" height="1.098633"/>
<image xlink:href="tile35_5.png" preserveAspectRatio="none" x="13037.475586" y="-3328.857422" width="1.098633" height="1.098633"/>
<image xlink:href="tile35_4.png" preserveAspectRatio="none" x="13037.475586" y="-3329.956055" width="1.098633" height="1.098633"/>
<image xlink:href="tile35_3.png" preserveAspectRatio="none" x="13037.475586" y="-3331.054688" width="1.098633" height="1.098633"/>
<image xlink:href="tile35_2.png" preserveAspectRatio="none" x="13037.475586" y="-3332.15332" width="1.098633" height="1.098633"/>
<image xlink:href="tile35_1.png" preserveAspectRatio="none" x="13037.475586" y="-3333.251953" width="1.098633" height="1.098633"/>
<image xlink:href="tile35_0.png" preserveAspectRatio="none" x="13037.475586" y="-3334.350586" width="1.098633" height="1.098633"/>
<image xlink:href="tile36_13.png" preserveAspectRatio="none" x="13038.574219" y="-3320.068359" width="1.098633" height="1.098633"/>
<image xlink:href="tile36_12.png" preserveAspectRatio="none" x="13038.574219" y="-3321.166992" width="1.098633" height="1.098633"/>
<image xlink:href="tile36_11.png" preserveAspectRatio="none" x="13038.574219" y="-3322.265625" width="1.098633" height="1.098633"/>
<image xlink:href="tile36_10.png" preserveAspectRatio="none" x="13038.574219" y="-3323.364258" width="1.098633" height="1.098633"/>
<image xlink:href="tile36_9.png" preserveAspectRatio="none" x="13038.574219" y="-3324.462891" width="1.098633" height="1.098633"/>
<image xlink:href="tile36_8.png" preserveAspectRatio="none" x="13038.574219" y="-3325.561523" width="1.098633" height="1.098633"/>
<image xlink:href="tile36_7.png" preserveAspectRatio="none" x="13038.574219" y="-3326.660156" width="1.098633" height="1.098633"/>
<image xlink:href="tile36_6.png" preserveAspectRatio="none" x="13038.574219" y="-3327.758789" width="1.098633" height="1.098633"/>
<image xlink:href="tile36_5.png" preserveAspectRatio="none" x="13038.574219" y="-3328.857422" width="1.098633" height="1.098633"/>
<image xlink:href="tile36_4.png" preserveAspectRatio="none" x="13038.574219" y="-3329.956055" width="1.098633" height="1.098633"/>
<image xlink:href="tile36_3.png" preserveAspectRatio="none" x="13038.574219" y="-3331.054688" width="1.098633" height="1.098633"/>
<image xlink:href="tile36_2.png" preserveAspectRatio="none" x="13038.574219" y="-3332.15332" width="1.098633" height="1.098633"/>
<image xlink:href="tile36_1.png" preserveAspectRatio="none" x="13038.574219" y="-3333.251953" width="1.098633" height="1.098633"/>
<image xlink:href="tile36_0.png" preserveAspectRatio="none" x="13038.574219" y="-3334.350586" width="1.098633" height="1.098633"/>
<image xlink:href="tile37_13.png" preserveAspectRatio="none" x="13039.672852" y="-3320.068359" width="1.098633" height="1.098633"/>
<image xlink:href="tile37_12.png" preserveAspectRatio="none" x="13039.672852" y="-3321.166992" width="1.098633" height="1.098633"/>
<image xlink:href="tile37_11.png" preserveAspectRatio="none" x="13039.672852" y="-3322.265625" width="1.098633" height="1.098633"/>
<image xlink:href="tile37_10.png" preserveAspectRatio="none" x="13039.672852" y="-3323.364258" width="1.098633" height="1.098633"/>
<image xlink:href="tile37_9.png" preserveAspectRatio="none" x="13039.672852" y="-3324.462891" width="1.098633" height="1.098633"/>
<image xlink:href="tile37_8.png" preserveAspectRatio="none" x="13039.672852" y="-3325.561523" width="1.098633" height="1.098633"/>
<image xlink:href="tile37_7.png" preserveAspectRatio="none" x="13039.672852" y="-3326.660156" width="1.098633" height="1.098633"/>
<image xlink:href="tile37_6.png" preserveAspectRatio="none" x="13039.672852" y="-3327.758789" width="1.098633" height="1.098633"/>
<image xlink:href="tile37_5.png" preserveAspectRatio="none" x="13039.672852" y="-3328.857422" width="1.098633" height="1.098633"/>
<image xlink:href="tile37_4.png" preserveAspectRatio="none" x="13039.672852" y="-3329.956055" width="1.098633" height="1.098633"/>
<image xlink:href="tile37_3.png" preserveAspectRatio="none" x="13039.672852" y="-3331.054688" width="1.098633" height="1.098633"/>
<image xlink:href="tile37_2.png" preserveAspectRatio="none" x="13039.672852" y="-3332.15332" width="1.098633" height="1.098633"/>
<image xlink:href="tile37_1.png" preserveAspectRatio="none" x="13039.672852" y="-3333.251953" width="1.098633" height="1.098633"/>
<image xlink:href="tile37_0.png" preserveAspectRatio="none" x="13039.672852" y="-3334.350586" width="1.098633" height="1.098633"/>
<image xlink:href="tile38_13.png" preserveAspectRatio="none" x="13040.771484" y="-3320.068359" width="1.098633" height="1.098633"/>
<image xlink:href="tile38_12.png" preserveAspectRatio="none" x="13040.771484" y="-3321.166992" width="1.098633" height="1.098633"/>
<image xlink:href="tile38_11.png" preserveAspectRatio="none" x="13040.771484" y="-3322.265625" width="1.098633" height="1.098633"/>
<image xlink:href="tile38_10.png" preserveAspectRatio="none" x="13040.771484" y="-3323.364258" width="1.098633" height="1.098633"/>
<image xlink:href="tile38_9.png" preserveAspectRatio="none" x="13040.771484" y="-3324.462891" width="1.098633" height="1.098633"/>
<image xlink:href="tile38_8.png" preserveAspectRatio="none" x="13040.771484" y="-3325.561523" width="1.098633" height="1.098633"/>
<image xlink:href="tile38_7.png" preserveAspectRatio="none" x="13040.771484" y="-3326.660156" width="1.098633" height="1.098633"/>
<image xlink:href="tile38_6.png" preserveAspectRatio="none" x="13040.771484" y="-3327.758789" width="1.098633" height="1.098633"/>
<image xlink:href="tile38_5.png" preserveAspectRatio="none" x="13040.771484" y="-3328.857422" width="1.098633" height="1.098633"/>
<image xlink:href="tile38_4.png" preserveAspectRatio="none" x="13040.771484" y="-3329.956055" width="1.098633" height="1.098633"/>
<image xlink:href="tile38_3.png" preserveAspectRatio="none" x="13040.771484" y="-3331.054688" width="1.098633" height="1.098633"/>
<image xlink:href="tile38_2.png" preserveAspectRatio="none" x="13040.771484" y="-3332.15332" width="1.098633" height="1.098633"/>
<image xlink:href="tile39_13.png" preserveAspectRatio="none" x="13041.870117" y="-3320.068359" width="1.098633" height="1.098633"/>
<image xlink:href="tile39_12.png" preserveAspectRatio="none" x="13041.870117" y="-3321.166992" width="1.098633" height="1.098633"/>
<image xlink:href="tile39_11.png" preserveAspectRatio="none" x="13041.870117" y="-3322.265625" width="1.098633" height="1.098633"/>
<image xlink:href="tile39_10.png" preserveAspectRatio="none" x="13041.870117" y="-3323.364258" width="1.098633" height="1.098633"/>
<image xlink:href="tile39_9.png" preserveAspectRatio="none" x="13041.870117" y="-3324.462891" width="1.098633" height="1.098633"/>
<image xlink:href="tile39_8.png" preserveAspectRatio="none" x="13041.870117" y="-3325.561523" width="1.098633" height="1.098633"/>
<image xlink:href="tile39_7.png" preserveAspectRatio="none" x="13041.870117" y="-3326.660156" width="1.098633" height="1.098633"/>
<image xlink:href="tile39_6.png" preserveAspectRatio="none" x="13041.870117" y="-3327.758789" width="1.098633" height="1.098633"/>
<image xlink:href="tile39_5.png" preserveAspectRatio="none" x="13041.870117" y="-3328.857422" width="1.098633" height="1.098633"/>
<image xlink:href="tile39_4.png" preserveAspectRatio="none" x="13041.870117" y="-3329.956055" width="1.098633" height="1.098633"/>
<image xlink:href="tile39_3.png" preserveAspectRatio="none" x="13041.870117" y="-3331.054688" width="1.098633" height="1.098633"/>
<image xlink:href="tile39_2.png" preserveAspectRatio="none" x="13041.870117" y="-3332.15332" width="1.098633" height="1.098633"/>
<image xlink:href="tile39_1.png" preserveAspectRatio="none" x="13041.870117" y="-3333.251953" width="1.098633" height="1.098633"/>
<image xlink:href="tile40_13.png" preserveAspectRatio="none" x="13042.96875" y="-3320.068359" width="1.098633" height="1.098633"/>
<image xlink:href="tile40_12.png" preserveAspectRatio="none" x="13042.96875" y="-3321.166992" width="1.098633" height="1.098633"/>
<image xlink:href="tile40_11.png" preserveAspectRatio="none" x="13042.96875" y="-3322.265625" width="1.098633" height="1.098633"/>
<image xlink:href="tile40_10.png" preserveAspectRatio="none" x="13042.96875" y="-3323.364258" width="1.098633" height="1.098633"/>
<image xlink:href="tile40_9.png" preserveAspectRatio="none" x="13042.96875" y="-3324.462891" width="1.098633" height="1.098633"/>
<image xlink:href="tile40_8.png" preserveAspectRatio="none" x="13042.96875" y="-3325.561523" width="1.098633" height="1.098633"/>
<image xlink:href="tile40_7.png" preserveAspectRatio="none" x="13042.96875" y="-3326.660156" width="1.098633" height="1.098633"/>
<image xlink:href="tile40_6.png" preserveAspectRatio="none" x="13042.96875" y="-3327.758789" width="1.098633" height="1.098633"/>
<image xlink:href="tile40_5.png" preserveAspectRatio="none" x="13042.96875" y="-3328.857422" width="1.098633" height="1.098633"/>
<image xlink:href="tile40_4.png" preserveAspectRatio="none" x="13042.96875" y="-3329.956055" width="1.098633" height="1.098633"/>
<image xlink:href="tile40_3.png" preserveAspectRatio="none" x="13042.96875" y="-3331.054688" width="1.098633" height="1.098633"/>
<image xlink:href="tile40_2.png" preserveAspectRatio="none" x="13042.96875" y="-3332.15332" width="1.098633" height="1.098633"/>
<image xlink:href="tile40_1.png" preserveAspectRatio="none" x="13042.96875" y="-3333.251953" width="1.098633" height="1.098633"/>
<image xlink:href="tile41_13.png" preserveAspectRatio="none" x="13044.067383" y="-3320.068359" width="1.098633" height="1.098633"/>
<image xlink:href="tile41_12.png" preserveAspectRatio="none" x="13044.067383" y="-3321.166992" width="1.098633" height="1.098633"/>
<image xlink:href="tile41_11.png" preserveAspectRatio="none" x="13044.067383" y="-3322.265625" width="1.098633" height="1.098633"/>
<image xlink:href="tile41_10.png" preserveAspectRatio="none" x="13044.067383" y="-3323.364258" width="1.098633" height="1.098633"/>
<image xlink:href="tile41_9.png" preserveAspectRatio="none" x="13044.067383" y="-3324.462891" width="1.098633" height="1.098633"/>
<image xlink:href="tile41_8.png" preserveAspectRatio="none" x="13044.067383" y="-3325.561523" width="1.098633" height="1.098633"/>
<image xlink:href="tile41_7.png" preserveAspectRatio="none" x="13044.067383" y="-3326.660156" width="1.098633" height="1.098633"/>
<image xlink:href="tile41_6.png" preserveAspectRatio="none" x="13044.067383" y="-3327.758789" width="1.098633" height="1.098633"/>
<image xlink:href="tile41_5.png" preserveAspectRatio="none" x="13044.067383" y="-3328.857422" width="1.098633" height="1.098633"/>
<image xlink:href="tile41_4.png" preserveAspectRatio="none" x="13044.067383" y="-3329.956055" width="1.098633" height="1.098633"/>
<image xlink:href="tile41_3.png" preserveAspectRatio="none" x="13044.067383" y="-3331.054688" width="1.098633" height="1.098633"/>
<image xlink:href="tile41_2.png" preserveAspectRatio="none" x="13044.067383" y="-3332.15332" width="1.098633" height="1.098633"/>
<image xlink:href="tile41_1.png" preserveAspectRatio="none" x="13044.067383" y="-3333.251953" width="1.098633" height="1.098633"/>
<image xlink:href="tile41_0.png" preserveAspectRatio="none" x="13044.067383" y="-3334.350586" width="1.098633" height="1.098633"/>
<image xlink:href="tile42_13.png" preserveAspectRatio="none" x="13045.166016" y="-3320.068359" width="1.098633" height="1.098633"/>
<image xlink:href="tile42_12.png" preserveAspectRatio="none" x="13045.166016" y="-3321.166992" width="1.098633" height="1.098633"/>
<image xlink:href="tile42_11.png" preserveAspectRatio="none" x="13045.166016" y="-3322.265625" width="1.098633" height="1.098633"/>
<image xlink:href="tile42_10.png" preserveAspectRatio="none" x="13045.166016" y="-3323.364258" width="1.098633" height="1.098633"/>
<image xlink:href="tile42_9.png" preserveAspectRatio="none" x="13045.166016" y="-3324.462891" width="1.098633" height="1.098633"/>
<image xlink:href="tile42_8.png" preserveAspectRatio="none" x="13045.166016" y="-3325.561523" width="1.098633" height="1.098633"/>
<image xlink:href="tile42_7.png" preserveAspectRatio="none" x="13045.166016" y="-3326.660156" width="1.098633" height="1.098633"/>
<image xlink:href="tile42_6.png" preserveAspectRatio="none" x="13045.166016" y="-3327.758789" width="1.098633" height="1.098633"/>
<image xlink:href="tile42_5.png" preserveAspectRatio="none" x="13045.166016" y="-3328.857422" width="1.098633" height="1.098633"/>
<image xlink:href="tile42_4.png" preserveAspectRatio="none" x="13045.166016" y="-3329.956055" width="1.098633" height="1.098633"/>
<image xlink:href="tile42_3.png" preserveAspectRatio="none" x="13045.166016" y="-3331.054688" width="1.098633" height="1.098633"/>
<image xlink:href="tile42_2.png" preserveAspectRatio="none" x="13045.166016" y="-3332.15332" width="1.098633" height="1.098633"/>
<image xlink:href="tile42_1.png" preserveAspectRatio="none" x="13045.166016" y="-3333.251953" width="1.098633" height="1.098633"/>
<image xlink:href="tile42_0.png" preserveAspectRatio="none" x="13045.166016" y="-3334.350586" width="1.098633" height="1.098633"/>
<image xlink:href="tile43_13.png" preserveAspectRatio="none" x="13046.264648" y="-3320.068359" width="1.098633" height="1.098633"/>
<image xlink:href="tile43_12.png" preserveAspectRatio="none" x="13046.264648" y="-3321.166992" width="1.098633" height="1.098633"/>
<image xlink:href="tile43_11.png" preserveAspectRatio="none" x="13046.264648" y="-3322.265625" width="1.098633" height="1.098633"/>
<image xlink:href="tile43_10.png" preserveAspectRatio="none" x="13046.264648" y="-3323.364258" width="1.098633" height="1.098633"/>
<image xlink:href="tile43_9.png" preserveAspectRatio="none" x="13046.264648" y="-3324.462891" width="1.098633" height="1.098633"/>
<image xlink:href="tile43_8.png" preserveAspectRatio="none" x="13046.264648" y="-3325.561523" width="1.098633" height="1.098633"/>
<image xlink:href="tile43_7.png" preserveAspectRatio="none" x="13046.264648" y="-3326.660156" width="1.098633" height="1.098633"/>
<image xlink:href="tile43_6.png" preserveAspectRatio="none" x="13046.264648" y="-3327.758789" width="1.098633" height="1.098633"/>
<image xlink:href="tile43_5.png" preserveAspectRatio="none" x="13046.264648" y="-3328.857422" width="1.098633" height="1.098633"/>
<image xlink:href="tile43_4.png" preserveAspectRatio="none" x="13046.264648" y="-3329.956055" width="1.098633" height="1.098633"/>
<image xlink:href="tile43_3.png" preserveAspectRatio="none" x="13046.264648" y="-3331.054688" width="1.098633" height="1.098633"/>
<image xlink:href="tile43_2.png" preserveAspectRatio="none" x="13046.264648" y="-3332.15332" width="1.098633" height="1.098633"/>
<image xlink:href="tile43_1.png" preserveAspectRatio="none" x="13046.264648" y="-3333.251953" width="1.098633" height="1.098633"/>
<image xlink:href="tile44_13.png" preserveAspectRatio="none" x="13047.363281" y="-3320.068359" width="1.098633" height="1.098633"/>
<image xlink:href="tile44_12.png" preserveAspectRatio="none" x="13047.363281" y="-3321.166992" width="1.098633" height="1.098633"/>
<image xlink:href="tile44_11.png" preserveAspectRatio="none" x="13047.363281" y="-3322.265625" width="1.098633" height="1.098633"/>
<image xlink:href="tile44_10.png" preserveAspectRatio="none" x="13047.363281" y="-3323.364258" width="1.098633" height="1.098633"/>
<image xlink:href="tile44_9.png" preserveAspectRatio="none" x="13047.363281" y="-3324.462891" width="1.098633" height="1.098633"/>
<image xlink:href="tile44_7.png" preserveAspectRatio="none" x="13047.363281" y="-3326.660156" width="1.098633" height="1.098633"/>
<image xlink:href="tile44_6.png" preserveAspectRatio="none" x="13047.363281" y="-3327.758789" width="1.098633" height="1.098633"/>
<image xlink:href="tile44_5.png" preserveAspectRatio="none" x="13047.363281" y="-3328.857422" width="1.098633" height="1.098633"/>
<image xlink:href="tile44_4.png" preserveAspectRatio="none" x="13047.363281" y="-3329.956055" width="1.098633" height="1.098633"/>
<image xlink:href="tile44_3.png" preserveAspectRatio="none" x="13047.363281" y="-3331.054688" width="1.098633" height="1.098633"/>
<image xlink:href="tile44_2.png" preserveAspectRatio="none" x="13047.363281" y="-3332.15332" width="1.098633" height="1.098633"/>
<image xlink:href="tile44_1.png" preserveAspectRatio="none" x="13047.363281" y="-3333.251953" width="1.098633" height="1.098633"/>
<image xlink:href="tile44_0.png" preserveAspectRatio="none" x="13047.363281" y="-3334.350586" width="1.098633" height="1.098633"/>
<image xlink:href="tile45_13.png" preserveAspectRatio="none" x="13048.461914" y="-3320.068359" width="1.098633" height="1.098633"/>
<image xlink:href="tile45_12.png" preserveAspectRatio="none" x="13048.461914" y="-3321.166992" width="1.098633" height="1.098633"/>
<image xlink:href="tile45_11.png" preserveAspectRatio="none" x="13048.461914" y="-3322.265625" width="1.098633" height="1.098633"/>
<image xlink:href="tile45_7.png" preserveAspectRatio="none" x="13048.461914" y="-3326.660156" width="1.098633" height="1.098633"/>
<image xlink:href="tile45_6.png" preserveAspectRatio="none" x="13048.461914" y="-3327.758789" width="1.098633" height="1.098633"/>
<image xlink:href="tile45_5.png" preserveAspectRatio="none" x="13048.461914" y="-3328.857422" width="1.098633" height="1.098633"/>
<image xlink:href="tile45_4.png" preserveAspectRatio="none" x="13048.461914" y="-3329.956055" width="1.098633" height="1.098633"/>
<image xlink:href="tile45_3.png" preserveAspectRatio="none" x="13048.461914" y="-3331.054688" width="1.098633" height="1.098633"/>
<image xlink:href="tile45_2.png" preserveAspectRatio="none" x="13048.461914" y="-3332.15332" width="1.098633" height="1.098633"/>
<image xlink:href="tile45_1.png" preserveAspectRatio="none" x="13048.461914" y="-3333.251953" width="1.098633" height="1.098633"/>
<image xlink:href="tile45_0.png" preserveAspectRatio="none" x="13048.461914" y="-3334.350586" width="1.098633" height="1.098633"/>
<image xlink:href="tile46_13.png" preserveAspectRatio="none" x="13049.560547" y="-3320.068359" width="1.098633" height="1.098633"/>
<image xlink:href="tile46_12.png" preserveAspectRatio="none" x="13049.560547" y="-3321.166992" width="1.098633" height="1.098633"/>
<image xlink:href="tile46_11.png" preserveAspectRatio="none" x="13049.560547" y="-3322.265625" width="1.098633" height="1.098633"/>
<image xlink:href="tile46_7.png" preserveAspectRatio="none" x="13049.560547" y="-3326.660156" width="1.098633" height="1.098633"/>
<image xlink:href="tile46_6.png" preserveAspectRatio="none" x="13049.560547" y="-3327.758789" width="1.098633" height="1.098633"/>
<image xlink:href="tile46_5.png" preserveAspectRatio="none" x="13049.560547" y="-3328.857422" width="1.098633" height="1.098633"/>
<image xlink:href="tile46_4.png" preserveAspectRatio="none" x="13049.560547" y="-3329.956055" width="1.098633" height="1.098633"/>
<image xlink:href="tile46_3.png" preserveAspectRatio="none" x="13049.560547" y="-3331.054688" width="1.098633" height="1.098633"/>
<image xlink:href="tile46_2.png" preserveAspectRatio="none" x="13049.560547" y="-3332.15332" width="1.098633" height="1.098633"/>
<image xlink:href="tile46_1.png" preserveAspectRatio="none" x="13049.560547" y="-3333.251953" width="1.098633" height="1.098633"/>
<image xlink:href="tile46_0.png" preserveAspectRatio="none" x="13049.560547" y="-3334.350586" width="1.098633" height="1.098633"/>
<image xlink:href="tile47_13.png" preserveAspectRatio="none" x="13050.65918" y="-3320.068359" width="1.098633" height="1.098633"/>
<image xlink:href="tile47_12.png" preserveAspectRatio="none" x="13050.65918" y="-3321.166992" width="1.098633" height="1.098633"/>
<image xlink:href="tile47_11.png" preserveAspectRatio="none" x="13050.65918" y="-3322.265625" width="1.098633" height="1.098633"/>
<image xlink:href="tile47_8.png" preserveAspectRatio="none" x="13050.65918" y="-3325.561523" width="1.098633" height="1.098633"/>
<image xlink:href="tile47_7.png" preserveAspectRatio="none" x="13050.65918" y="-3326.660156" width="1.098633" height="1.098633"/>
<image xlink:href="tile47_6.png" preserveAspectRatio="none" x="13050.65918" y="-3327.758789" width="1.098633" height="1.098633"/>
<image xlink:href="tile47_5.png" preserveAspectRatio="none" x="13050.65918" y="-3328.857422" width="1.098633" height="1.098633"/>
<image xlink:href="tile47_4.png" preserveAspectRatio="none" x="13050.65918" y="-3329.956055" width="1.098633" height="1.098633"/>
<image xlink:href="tile47_3.png" preserveAspectRatio="none" x="13050.65918" y="-3331.054688" width="1.098633" height="1.098633"/>
<image xlink:href="tile47_2.png" preserveAspectRatio="none" x="13050.65918" y="-3332.15332" width="1.098633" height="1.098633"/>
<image xlink:href="tile47_1.png" preserveAspectRatio="none" x="13050.65918" y="-3333.251953" width="1.098633" height="1.098633"/>
<image xlink:href="tile47_0.png" preserveAspectRatio="none" x="13050.65918" y="-3334.350586" width="1.098633" height="1.098633"/>
</g>
</svg>
