<?xml version="1.0" encoding="UTF-8"?>
<svg  xmlns="http://www.w3.org/2000/svg" xmlns:xlink="http://www.w3.org/1999/xlink" xmlns:go="http://purl.org/svgmap/profile" viewBox="13000.0 -3333.3333332 100.0 66.66666620000044" go:dataArea="13000.0 -3333.3333332 100.0 66.66666620000044" >
<metadata>
 <rdf:RDF xmlns:rdf="http://www.w3.org/1999/02/22-rdf-syntax-ns#" xmlns:crs="http://opengis.org/xmldtds/transformations.dtd" xmlns:svg="http://www.w3.org/svg" >
  <rdf:Description>
   <crs:CoordinateReferenceSystem rdf:resource="http://purl.org/crs/84" svg:transform="matrix(100.0,0.0,0.0,-100.0,0.0,0.0)" />
  </rdf:Description>
 </rdf:RDF>
</metadata>
<globalCoordinateSystem srsName="http://purl.org/crs/84" transform="matrix(100.0,0.0,0.0,-100.0,0.0,0.0)" />
<g >
<image xlink:href="tile0_35.png" preserveAspectRatio="none" x="12999.023438" y="-3295.898438" width="1.098633" height="1.098633"/>
<image xlink:href="tile1_35.png" preserveAspectRatio="none" x="13000.12207" y="-3295.898438" width="1.098633" height="1.098633"/>
<image xlink:href="tile2_34.png" preserveAspectRatio="none" x="13001.220703" y="-3296.99707" width="1.098633" height="1.098633"/>
<image xlink:href="tile2_33.png" preserveAspectRatio="none" x="13001.220703" y="-3298.095703" width="1.098633" height="1.098633"/>
<image xlink:href="tile4_45.png" preserveAspectRatio="none" x="13003.417969" y="-3284.912109" width="1.098633" height="1.098633"/>
<image xlink:href="tile4_44.png" preserveAspectRatio="none" x="13003.417969" y="-3286.010742" width="1.098633" height="1.098633"/>
<image xlink:href="tile4_43.png" preserveAspectRatio="none" x="13003.417969" y="-3287.109375" width="1.098633" height="1.098633"/>
<image xlink:href="tile5_45.png" preserveAspectRatio="none" x="13004.516602" y="-3284.912109" width="1.098633" height="1.098633"/>
<image xlink:href="tile5_44.png" preserveAspectRatio="none" x="13004.516602" y="-3286.010742" width="1.098633" height="1.098633"/>
<image xlink:href="tile6_45.png" preserveAspectRatio="none" x="13005.615234" y="-3284.912109" width="1.098633" height="1.098633"/>
<image xlink:href="tile6_44.png" preserveAspectRatio="none" x="13005.615234" y="-3286.010742" width="1.098633" height="1.098633"/>
<image xlink:href="tile7_45.png" preserveAspectRatio="none" x="13006.713867" y="-3284.912109" width="1.098633" height="1.098633"/>
<image xlink:href="tile7_44.png" preserveAspectRatio="none" x="13006.713867" y="-3286.010742" width="1.098633" height="1.098633"/>
<image xlink:href="tile7_43.png" preserveAspectRatio="none" x="13006.713867" y="-3287.109375" width="1.098633" height="1.098633"/>
<image xlink:href="tile8_45.png" preserveAspectRatio="none" x="13007.8125" y="-3284.912109" width="1.098633" height="1.098633"/>
<image xlink:href="tile8_44.png" preserveAspectRatio="none" x="13007.8125" y="-3286.010742" width="1.098633" height="1.098633"/>
<image xlink:href="tile8_43.png" preserveAspectRatio="none" x="13007.8125" y="-3287.109375" width="1.098633" height="1.098633"/>
<image xlink:href="tile9_45.png" preserveAspectRatio="none" x="13008.911133" y="-3284.912109" width="1.098633" height="1.098633"/>
<image xlink:href="tile9_44.png" preserveAspectRatio="none" x="13008.911133" y="-3286.010742" width="1.098633" height="1.098633"/>
<image xlink:href="tile9_43.png" preserveAspectRatio="none" x="13008.911133" y="-3287.109375" width="1.098633" height="1.098633"/>
<image xlink:href="tile9_42.png" preserveAspectRatio="none" x="13008.911133" y="-3288.208008" width="1.098633" height="1.098633"/>
<image xlink:href="tile10_45.png" preserveAspectRatio="none" x="13010.009766" y="-3284.912109" width="1.098633" height="1.098633"/>
<image xlink:href="tile10_44.png" preserveAspectRatio="none" x="13010.009766" y="-3286.010742" width="1.098633" height="1.098633"/>
<image xlink:href="tile10_43.png" preserveAspectRatio="none" x="13010.009766" y="-3287.109375" width="1.098633" height="1.098633"/>
<image xlink:href="tile10_42.png" preserveAspectRatio="none" x="13010.009766" y="-3288.208008" width="1.098633" height="1.098633"/>
<image xlink:href="tile10_41.png" preserveAspectRatio="none" x="13010.009766" y="-3289.306641" width="1.098633" height="1.098633"/>
<image xlink:href="tile11_45.png" preserveAspectRatio="none" x="13011.108398" y="-3284.912109" width="1.098633" height="1.098633"/>
<image xlink:href="tile11_44.png" preserveAspectRatio="none" x="13011.108398" y="-3286.010742" width="1.098633" height="1.098633"/>
<image xlink:href="tile11_43.png" preserveAspectRatio="none" x="13011.108398" y="-3287.109375" width="1.098633" height="1.098633"/>
<image xlink:href="tile11_42.png" preserveAspectRatio="none" x="13011.108398" y="-3288.208008" width="1.098633" height="1.098633"/>
<image xlink:href="tile12_45.png" preserveAspectRatio="none" x="13012.207031" y="-3284.912109" width="1.098633" height="1.098633"/>
<image xlink:href="tile12_44.png" preserveAspectRatio="none" x="13012.207031" y="-3286.010742" width="1.098633" height="1.098633"/>
<image xlink:href="tile12_43.png" preserveAspectRatio="none" x="13012.207031" y="-3287.109375" width="1.098633" height="1.098633"/>
<image xlink:href="tile12_42.png" preserveAspectRatio="none" x="13012.207031" y="-3288.208008" width="1.098633" height="1.098633"/>
<image xlink:href="tile12_40.png" preserveAspectRatio="none" x="13012.207031" y="-3290.405273" width="1.098633" height="1.098633"/>
<image xlink:href="tile13_45.png" preserveAspectRatio="none" x="13013.305664" y="-3284.912109" width="1.098633" height="1.098633"/>
<image xlink:href="tile13_44.png" preserveAspectRatio="none" x="13013.305664" y="-3286.010742" width="1.098633" height="1.098633"/>
<image xlink:href="tile13_43.png" preserveAspectRatio="none" x="13013.305664" y="-3287.109375" width="1.098633" height="1.098633"/>
<image xlink:href="tile13_40.png" preserveAspectRatio="none" x="13013.305664" y="-3290.405273" width="1.098633" height="1.098633"/>
</g>
</svg>
