<?xml version="1.0" encoding="UTF-8"?>
<svg  xmlns="http://www.w3.org/2000/svg" xmlns:xlink="http://www.w3.org/1999/xlink" xmlns:go="http://purl.org/svgmap/profile" viewBox="13000.0 -3333.3333332 100.0 66.66666620000044" go:dataArea="13000.0 -3333.3333332 100.0 66.66666620000044" >
<metadata>
 <rdf:RDF xmlns:rdf="http://www.w3.org/1999/02/22-rdf-syntax-ns#" xmlns:crs="http://opengis.org/xmldtds/transformations.dtd" xmlns:svg="http://www.w3.org/svg" >
  <rdf:Description>
   <crs:CoordinateReferenceSystem rdf:resource="http://purl.org/crs/84" svg:transform="matrix(100.0,0.0,0.0,-100.0,0.0,0.0)" />
  </rdf:Description>
 </rdf:RDF>
</metadata>
<globalCoordinateSystem srsName="http://purl.org/crs/84" transform="matrix(100.0,0.0,0.0,-100.0,0.0,0.0)" />
<g >
<image xlink:href="tile1_13.png" preserveAspectRatio="none" x="13000.12207" y="-3320.068359" width="1.098633" height="1.098633"/>
<image xlink:href="tile2_13.png" preserveAspectRatio="none" x="13001.220703" y="-3320.068359" width="1.098633" height="1.098633"/>
<image xlink:href="tile2_10.png" preserveAspectRatio="none" x="13001.220703" y="-3323.364258" width="1.098633" height="1.098633"/>
<image xlink:href="tile3_13.png" preserveAspectRatio="none" x="13002.319336" y="-3320.068359" width="1.098633" height="1.098633"/>
<image xlink:href="tile3_12.png" preserveAspectRatio="none" x="13002.319336" y="-3321.166992" width="1.098633" height="1.098633"/>
<image xlink:href="tile3_11.png" preserveAspectRatio="none" x="13002.319336" y="-3322.265625" width="1.098633" height="1.098633"/>
<image xlink:href="tile3_10.png" preserveAspectRatio="none" x="13002.319336" y="-3323.364258" width="1.098633" height="1.098633"/>
<image xlink:href="tile3_9.png" preserveAspectRatio="none" x="13002.319336" y="-3324.462891" width="1.098633" height="1.098633"/>
<image xlink:href="tile4_13.png" preserveAspectRatio="none" x="13003.417969" y="-3320.068359" width="1.098633" height="1.098633"/>
<image xlink:href="tile4_12.png" preserveAspectRatio="none" x="13003.417969" y="-3321.166992" width="1.098633" height="1.098633"/>
<image xlink:href="tile4_11.png" preserveAspectRatio="none" x="13003.417969" y="-3322.265625" width="1.098633" height="1.098633"/>
<image xlink:href="tile4_10.png" preserveAspectRatio="none" x="13003.417969" y="-3323.364258" width="1.098633" height="1.098633"/>
<image xlink:href="tile4_2.png" preserveAspectRatio="none" x="13003.417969" y="-3332.15332" width="1.098633" height="1.098633"/>
<image xlink:href="tile4_1.png" preserveAspectRatio="none" x="13003.417969" y="-3333.251953" width="1.098633" height="1.098633"/>
<image xlink:href="tile4_0.png" preserveAspectRatio="none" x="13003.417969" y="-3334.350586" width="1.098633" height="1.098633"/>
<image xlink:href="tile5_13.png" preserveAspectRatio="none" x="13004.516602" y="-3320.068359" width="1.098633" height="1.098633"/>
<image xlink:href="tile5_12.png" preserveAspectRatio="none" x="13004.516602" y="-3321.166992" width="1.098633" height="1.098633"/>
<image xlink:href="tile5_11.png" preserveAspectRatio="none" x="13004.516602" y="-3322.265625" width="1.098633" height="1.098633"/>
<image xlink:href="tile5_10.png" preserveAspectRatio="none" x="13004.516602" y="-3323.364258" width="1.098633" height="1.098633"/>
<image xlink:href="tile5_1.png" preserveAspectRatio="none" x="13004.516602" y="-3333.251953" width="1.098633" height="1.098633"/>
<image xlink:href="tile6_13.png" preserveAspectRatio="none" x="13005.615234" y="-3320.068359" width="1.098633" height="1.098633"/>
<image xlink:href="tile6_12.png" preserveAspectRatio="none" x="13005.615234" y="-3321.166992" width="1.098633" height="1.098633"/>
<image xlink:href="tile6_11.png" preserveAspectRatio="none" x="13005.615234" y="-3322.265625" width="1.098633" height="1.098633"/>
<image xlink:href="tile6_10.png" preserveAspectRatio="none" x="13005.615234" y="-3323.364258" width="1.098633" height="1.098633"/>
<image xlink:href="tile6_7.png" preserveAspectRatio="none" x="13005.615234" y="-3326.660156" width="1.098633" height="1.098633"/>
<image xlink:href="tile6_2.png" preserveAspectRatio="none" x="13005.615234" y="-3332.15332" width="1.098633" height="1.098633"/>
<image xlink:href="tile6_1.png" preserveAspectRatio="none" x="13005.615234" y="-3333.251953" width="1.098633" height="1.098633"/>
<image xlink:href="tile7_12.png" preserveAspectRatio="none" x="13006.713867" y="-3321.166992" width="1.098633" height="1.098633"/>
<image xlink:href="tile7_11.png" preserveAspectRatio="none" x="13006.713867" y="-3322.265625" width="1.098633" height="1.098633"/>
<image xlink:href="tile7_10.png" preserveAspectRatio="none" x="13006.713867" y="-3323.364258" width="1.098633" height="1.098633"/>
<image xlink:href="tile7_8.png" preserveAspectRatio="none" x="13006.713867" y="-3325.561523" width="1.098633" height="1.098633"/>
<image xlink:href="tile7_7.png" preserveAspectRatio="none" x="13006.713867" y="-3326.660156" width="1.098633" height="1.098633"/>
<image xlink:href="tile7_2.png" preserveAspectRatio="none" x="13006.713867" y="-3332.15332" width="1.098633" height="1.098633"/>
<image xlink:href="tile7_1.png" preserveAspectRatio="none" x="13006.713867" y="-3333.251953" width="1.098633" height="1.098633"/>
<image xlink:href="tile8_13.png" preserveAspectRatio="none" x="13007.8125" y="-3320.068359" width="1.098633" height="1.098633"/>
<image xlink:href="tile8_12.png" preserveAspectRatio="none" x="13007.8125" y="-3321.166992" width="1.098633" height="1.098633"/>
<image xlink:href="tile8_11.png" preserveAspectRatio="none" x="13007.8125" y="-3322.265625" width="1.098633" height="1.098633"/>
<image xlink:href="tile8_8.png" preserveAspectRatio="none" x="13007.8125" y="-3325.561523" width="1.098633" height="1.098633"/>
<image xlink:href="tile8_7.png" preserveAspectRatio="none" x="13007.8125" y="-3326.660156" width="1.098633" height="1.098633"/>
<image xlink:href="tile8_6.png" preserveAspectRatio="none" x="13007.8125" y="-3327.758789" width="1.098633" height="1.098633"/>
<image xlink:href="tile8_5.png" preserveAspectRatio="none" x="13007.8125" y="-3328.857422" width="1.098633" height="1.098633"/>
<image xlink:href="tile8_4.png" preserveAspectRatio="none" x="13007.8125" y="-3329.956055" width="1.098633" height="1.098633"/>
<image xlink:href="tile8_3.png" preserveAspectRatio="none" x="13007.8125" y="-3331.054688" width="1.098633" height="1.098633"/>
<image xlink:href="tile8_2.png" preserveAspectRatio="none" x="13007.8125" y="-3332.15332" width="1.098633" height="1.098633"/>
<image xlink:href="tile9_13.png" preserveAspectRatio="none" x="13008.911133" y="-3320.068359" width="1.098633" height="1.098633"/>
<image xlink:href="tile9_12.png" preserveAspectRatio="none" x="13008.911133" y="-3321.166992" width="1.098633" height="1.098633"/>
<image xlink:href="tile9_11.png" preserveAspectRatio="none" x="13008.911133" y="-3322.265625" width="1.098633" height="1.098633"/>
<image xlink:href="tile9_7.png" preserveAspectRatio="none" x="13008.911133" y="-3326.660156" width="1.098633" height="1.098633"/>
<image xlink:href="tile9_6.png" preserveAspectRatio="none" x="13008.911133" y="-3327.758789" width="1.098633" height="1.098633"/>
<image xlink:href="tile9_5.png" preserveAspectRatio="none" x="13008.911133" y="-3328.857422" width="1.098633" height="1.098633"/>
<image xlink:href="tile9_4.png" preserveAspectRatio="none" x="13008.911133" y="-3329.956055" width="1.098633" height="1.098633"/>
<image xlink:href="tile9_3.png" preserveAspectRatio="none" x="13008.911133" y="-3331.054688" width="1.098633" height="1.098633"/>
<image xlink:href="tile9_2.png" preserveAspectRatio="none" x="13008.911133" y="-3332.15332" width="1.098633" height="1.098633"/>
<image xlink:href="tile9_1.png" preserveAspectRatio="none" x="13008.911133" y="-3333.251953" width="1.098633" height="1.098633"/>
<image xlink:href="tile10_13.png" preserveAspectRatio="none" x="13010.009766" y="-3320.068359" width="1.098633" height="1.098633"/>
<image xlink:href="tile10_12.png" preserveAspectRatio="none" x="13010.009766" y="-3321.166992" width="1.098633" height="1.098633"/>
<image xlink:href="tile10_11.png" preserveAspectRatio="none" x="13010.009766" y="-3322.265625" width="1.098633" height="1.098633"/>
<image xlink:href="tile10_6.png" preserveAspectRatio="none" x="13010.009766" y="-3327.758789" width="1.098633" height="1.098633"/>
<image xlink:href="tile10_5.png" preserveAspectRatio="none" x="13010.009766" y="-3328.857422" width="1.098633" height="1.098633"/>
<image xlink:href="tile10_4.png" preserveAspectRatio="none" x="13010.009766" y="-3329.956055" width="1.098633" height="1.098633"/>
<image xlink:href="tile10_3.png" preserveAspectRatio="none" x="13010.009766" y="-3331.054688" width="1.098633" height="1.098633"/>
<image xlink:href="tile10_2.png" preserveAspectRatio="none" x="13010.009766" y="-3332.15332" width="1.098633" height="1.098633"/>
<image xlink:href="tile11_13.png" preserveAspectRatio="none" x="13011.108398" y="-3320.068359" width="1.098633" height="1.098633"/>
<image xlink:href="tile11_12.png" preserveAspectRatio="none" x="13011.108398" y="-3321.166992" width="1.098633" height="1.098633"/>
<image xlink:href="tile11_11.png" preserveAspectRatio="none" x="13011.108398" y="-3322.265625" width="1.098633" height="1.098633"/>
<image xlink:href="tile11_6.png" preserveAspectRatio="none" x="13011.108398" y="-3327.758789" width="1.098633" height="1.098633"/>
<image xlink:href="tile11_5.png" preserveAspectRatio="none" x="13011.108398" y="-3328.857422" width="1.098633" height="1.098633"/>
<image xlink:href="tile11_4.png" preserveAspectRatio="none" x="13011.108398" y="-3329.956055" width="1.098633" height="1.098633"/>
<image xlink:href="tile11_3.png" preserveAspectRatio="none" x="13011.108398" y="-3331.054688" width="1.098633" height="1.098633"/>
<image xlink:href="tile11_2.png" preserveAspectRatio="none" x="13011.108398" y="-3332.15332" width="1.098633" height="1.098633"/>
<image xlink:href="tile12_13.png" preserveAspectRatio="none" x="13012.207031" y="-3320.068359" width="1.098633" height="1.098633"/>
<image xlink:href="tile12_12.png" preserveAspectRatio="none" x="13012.207031" y="-3321.166992" width="1.098633" height="1.098633"/>
<image xlink:href="tile12_11.png" preserveAspectRatio="none" x="13012.207031" y="-3322.265625" width="1.098633" height="1.098633"/>
<image xlink:href="tile12_7.png" preserveAspectRatio="none" x="13012.207031" y="-3326.660156" width="1.098633" height="1.098633"/>
<image xlink:href="tile12_6.png" preserveAspectRatio="none" x="13012.207031" y="-3327.758789" width="1.098633" height="1.098633"/>
<image xlink:href="tile12_5.png" preserveAspectRatio="none" x="13012.207031" y="-3328.857422" width="1.098633" height="1.098633"/>
<image xlink:href="tile12_4.png" preserveAspectRatio="none" x="13012.207031" y="-3329.956055" width="1.098633" height="1.098633"/>
<image xlink:href="tile12_2.png" preserveAspectRatio="none" x="13012.207031" y="-3332.15332" width="1.098633" height="1.098633"/>
<image xlink:href="tile13_13.png" preserveAspectRatio="none" x="13013.305664" y="-3320.068359" width="1.098633" height="1.098633"/>
<image xlink:href="tile13_12.png" preserveAspectRatio="none" x="13013.305664" y="-3321.166992" width="1.098633" height="1.098633"/>
<image xlink:href="tile13_11.png" preserveAspectRatio="none" x="13013.305664" y="-3322.265625" width="1.098633" height="1.098633"/>
<image xlink:href="tile13_10.png" preserveAspectRatio="none" x="13013.305664" y="-3323.364258" width="1.098633" height="1.098633"/>
<image xlink:href="tile13_7.png" preserveAspectRatio="none" x="13013.305664" y="-3326.660156" width="1.098633" height="1.098633"/>
<image xlink:href="tile13_6.png" preserveAspectRatio="none" x="13013.305664" y="-3327.758789" width="1.098633" height="1.098633"/>
<image xlink:href="tile13_5.png" preserveAspectRatio="none" x="13013.305664" y="-3328.857422" width="1.098633" height="1.098633"/>
<image xlink:href="tile13_4.png" preserveAspectRatio="none" x="13013.305664" y="-3329.956055" width="1.098633" height="1.098633"/>
<image xlink:href="tile14_13.png" preserveAspectRatio="none" x="13014.404297" y="-3320.068359" width="1.098633" height="1.098633"/>
<image xlink:href="tile14_12.png" preserveAspectRatio="none" x="13014.404297" y="-3321.166992" width="1.098633" height="1.098633"/>
<image xlink:href="tile14_11.png" preserveAspectRatio="none" x="13014.404297" y="-3322.265625" width="1.098633" height="1.098633"/>
<image xlink:href="tile14_10.png" preserveAspectRatio="none" x="13014.404297" y="-3323.364258" width="1.098633" height="1.098633"/>
<image xlink:href="tile14_6.png" preserveAspectRatio="none" x="13014.404297" y="-3327.758789" width="1.098633" height="1.098633"/>
<image xlink:href="tile14_5.png" preserveAspectRatio="none" x="13014.404297" y="-3328.857422" width="1.098633" height="1.098633"/>
<image xlink:href="tile15_13.png" preserveAspectRatio="none" x="13015.50293" y="-3320.068359" width="1.098633" height="1.098633"/>
<image xlink:href="tile15_12.png" preserveAspectRatio="none" x="13015.50293" y="-3321.166992" width="1.098633" height="1.098633"/>
<image xlink:href="tile15_11.png" preserveAspectRatio="none" x="13015.50293" y="-3322.265625" width="1.098633" height="1.098633"/>
<image xlink:href="tile15_10.png" preserveAspectRatio="none" x="13015.50293" y="-3323.364258" width="1.098633" height="1.098633"/>
<image xlink:href="tile15_6.png" preserveAspectRatio="none" x="13015.50293" y="-3327.758789" width="1.098633" height="1.098633"/>
<image xlink:href="tile15_5.png" preserveAspectRatio="none" x="13015.50293" y="-3328.857422" width="1.098633" height="1.098633"/>
<image xlink:href="tile15_4.png" preserveAspectRatio="none" x="13015.50293" y="-3329.956055" width="1.098633" height="1.098633"/>
<image xlink:href="tile15_3.png" preserveAspectRatio="none" x="13015.50293" y="-3331.054688" width="1.098633" height="1.098633"/>
<image xlink:href="tile15_2.png" preserveAspectRatio="none" x="13015.50293" y="-3332.15332" width="1.098633" height="1.098633"/>
</g>
</svg>
