<?xml version="1.0" encoding="UTF-8"?>
<svg  xmlns="http://www.w3.org/2000/svg" xmlns:xlink="http://www.w3.org/1999/xlink" xmlns:go="http://purl.org/svgmap/profile" viewBox="13300.0 -3466.666667 100.0 66.66666699999979" go:dataArea="13300.0 -3466.666667 100.0 66.66666699999979" >
<metadata>
 <rdf:RDF xmlns:rdf="http://www.w3.org/1999/02/22-rdf-syntax-ns#" xmlns:crs="http://opengis.org/xmldtds/transformations.dtd" xmlns:svg="http://www.w3.org/svg" >
  <rdf:Description>
   <crs:CoordinateReferenceSystem rdf:resource="http://purl.org/crs/84" svg:transform="matrix(100.0,0.0,0.0,-100.0,0.0,0.0)" />
  </rdf:Description>
 </rdf:RDF>
</metadata>
<globalCoordinateSystem srsName="http://purl.org/crs/84" transform="matrix(100.0,0.0,0.0,-100.0,0.0,0.0)" />
<g >
<image xlink:href="tile16_14.png" preserveAspectRatio="none" x="13368.164062" y="-3405.761719" width="4.394531" height="4.394531"/>
<image xlink:href="tile16_13.png" preserveAspectRatio="none" x="13368.164062" y="-3410.15625" width="4.394531" height="4.394531"/>
<image xlink:href="tile16_12.png" preserveAspectRatio="none" x="13368.164062" y="-3414.550781" width="4.394531" height="4.394531"/>
<image xlink:href="tile16_11.png" preserveAspectRatio="none" x="13368.164062" y="-3418.945312" width="4.394531" height="4.394531"/>
<image xlink:href="tile16_10.png" preserveAspectRatio="none" x="13368.164062" y="-3423.339844" width="4.394531" height="4.394531"/>
<image xlink:href="tile16_9.png" preserveAspectRatio="none" x="13368.164062" y="-3427.734375" width="4.394531" height="4.394531"/>
<image xlink:href="tile16_4.png" preserveAspectRatio="none" x="13368.164062" y="-3449.707031" width="4.394531" height="4.394531"/>
<image xlink:href="tile16_3.png" preserveAspectRatio="none" x="13368.164062" y="-3454.101562" width="4.394531" height="4.394531"/>
<image xlink:href="tile16_2.png" preserveAspectRatio="none" x="13368.164062" y="-3458.496094" width="4.394531" height="4.394531"/>
<image xlink:href="tile16_1.png" preserveAspectRatio="none" x="13368.164062" y="-3462.890625" width="4.394531" height="4.394531"/>
<image xlink:href="tile16_0.png" preserveAspectRatio="none" x="13368.164062" y="-3467.285156" width="4.394531" height="4.394531"/>
<image xlink:href="tile17_13.png" preserveAspectRatio="none" x="13372.558594" y="-3410.15625" width="4.394531" height="4.394531"/>
<image xlink:href="tile17_12.png" preserveAspectRatio="none" x="13372.558594" y="-3414.550781" width="4.394531" height="4.394531"/>
<image xlink:href="tile17_11.png" preserveAspectRatio="none" x="13372.558594" y="-3418.945312" width="4.394531" height="4.394531"/>
<image xlink:href="tile17_10.png" preserveAspectRatio="none" x="13372.558594" y="-3423.339844" width="4.394531" height="4.394531"/>
<image xlink:href="tile17_9.png" preserveAspectRatio="none" x="13372.558594" y="-3427.734375" width="4.394531" height="4.394531"/>
<image xlink:href="tile17_8.png" preserveAspectRatio="none" x="13372.558594" y="-3432.128906" width="4.394531" height="4.394531"/>
<image xlink:href="tile17_4.png" preserveAspectRatio="none" x="13372.558594" y="-3449.707031" width="4.394531" height="4.394531"/>
<image xlink:href="tile17_3.png" preserveAspectRatio="none" x="13372.558594" y="-3454.101562" width="4.394531" height="4.394531"/>
<image xlink:href="tile17_2.png" preserveAspectRatio="none" x="13372.558594" y="-3458.496094" width="4.394531" height="4.394531"/>
<image xlink:href="tile17_1.png" preserveAspectRatio="none" x="13372.558594" y="-3462.890625" width="4.394531" height="4.394531"/>
<image xlink:href="tile17_0.png" preserveAspectRatio="none" x="13372.558594" y="-3467.285156" width="4.394531" height="4.394531"/>
<image xlink:href="tile18_14.png" preserveAspectRatio="none" x="13376.953125" y="-3405.761719" width="4.394531" height="4.394531"/>
<image xlink:href="tile18_12.png" preserveAspectRatio="none" x="13376.953125" y="-3414.550781" width="4.394531" height="4.394531"/>
<image xlink:href="tile18_10.png" preserveAspectRatio="none" x="13376.953125" y="-3423.339844" width="4.394531" height="4.394531"/>
<image xlink:href="tile18_9.png" preserveAspectRatio="none" x="13376.953125" y="-3427.734375" width="4.394531" height="4.394531"/>
<image xlink:href="tile18_8.png" preserveAspectRatio="none" x="13376.953125" y="-3432.128906" width="4.394531" height="4.394531"/>
<image xlink:href="tile18_3.png" preserveAspectRatio="none" x="13376.953125" y="-3454.101562" width="4.394531" height="4.394531"/>
<image xlink:href="tile18_2.png" preserveAspectRatio="none" x="13376.953125" y="-3458.496094" width="4.394531" height="4.394531"/>
<image xlink:href="tile18_1.png" preserveAspectRatio="none" x="13376.953125" y="-3462.890625" width="4.394531" height="4.394531"/>
<image xlink:href="tile18_0.png" preserveAspectRatio="none" x="13376.953125" y="-3467.285156" width="4.394531" height="4.394531"/>
<image xlink:href="tile19_14.png" preserveAspectRatio="none" x="13381.347656" y="-3405.761719" width="4.394531" height="4.394531"/>
<image xlink:href="tile19_11.png" preserveAspectRatio="none" x="13381.347656" y="-3418.945312" width="4.394531" height="4.394531"/>
<image xlink:href="tile19_10.png" preserveAspectRatio="none" x="13381.347656" y="-3423.339844" width="4.394531" height="4.394531"/>
<image xlink:href="tile19_9.png" preserveAspectRatio="none" x="13381.347656" y="-3427.734375" width="4.394531" height="4.394531"/>
<image xlink:href="tile19_8.png" preserveAspectRatio="none" x="13381.347656" y="-3432.128906" width="4.394531" height="4.394531"/>
<image xlink:href="tile19_7.png" preserveAspectRatio="none" x="13381.347656" y="-3436.523438" width="4.394531" height="4.394531"/>
<image xlink:href="tile19_3.png" preserveAspectRatio="none" x="13381.347656" y="-3454.101562" width="4.394531" height="4.394531"/>
<image xlink:href="tile19_2.png" preserveAspectRatio="none" x="13381.347656" y="-3458.496094" width="4.394531" height="4.394531"/>
<image xlink:href="tile19_1.png" preserveAspectRatio="none" x="13381.347656" y="-3462.890625" width="4.394531" height="4.394531"/>
<image xlink:href="tile19_0.png" preserveAspectRatio="none" x="13381.347656" y="-3467.285156" width="4.394531" height="4.394531"/>
<image xlink:href="tile20_14.png" preserveAspectRatio="none" x="13385.742188" y="-3405.761719" width="4.394531" height="4.394531"/>
<image xlink:href="tile20_11.png" preserveAspectRatio="none" x="13385.742188" y="-3418.945312" width="4.394531" height="4.394531"/>
<image xlink:href="tile20_10.png" preserveAspectRatio="none" x="13385.742188" y="-3423.339844" width="4.394531" height="4.394531"/>
<image xlink:href="tile20_9.png" preserveAspectRatio="none" x="13385.742188" y="-3427.734375" width="4.394531" height="4.394531"/>
<image xlink:href="tile20_8.png" preserveAspectRatio="none" x="13385.742188" y="-3432.128906" width="4.394531" height="4.394531"/>
<image xlink:href="tile20_7.png" preserveAspectRatio="none" x="13385.742188" y="-3436.523438" width="4.394531" height="4.394531"/>
<image xlink:href="tile20_3.png" preserveAspectRatio="none" x="13385.742188" y="-3454.101562" width="4.394531" height="4.394531"/>
<image xlink:href="tile20_2.png" preserveAspectRatio="none" x="13385.742188" y="-3458.496094" width="4.394531" height="4.394531"/>
<image xlink:href="tile20_1.png" preserveAspectRatio="none" x="13385.742188" y="-3462.890625" width="4.394531" height="4.394531"/>
<image xlink:href="tile20_0.png" preserveAspectRatio="none" x="13385.742188" y="-3467.285156" width="4.394531" height="4.394531"/>
<image xlink:href="tile21_14.png" preserveAspectRatio="none" x="13390.136719" y="-3405.761719" width="4.394531" height="4.394531"/>
<image xlink:href="tile21_10.png" preserveAspectRatio="none" x="13390.136719" y="-3423.339844" width="4.394531" height="4.394531"/>
<image xlink:href="tile21_9.png" preserveAspectRatio="none" x="13390.136719" y="-3427.734375" width="4.394531" height="4.394531"/>
<image xlink:href="tile21_8.png" preserveAspectRatio="none" x="13390.136719" y="-3432.128906" width="4.394531" height="4.394531"/>
<image xlink:href="tile21_7.png" preserveAspectRatio="none" x="13390.136719" y="-3436.523438" width="4.394531" height="4.394531"/>
<image xlink:href="tile21_3.png" preserveAspectRatio="none" x="13390.136719" y="-3454.101562" width="4.394531" height="4.394531"/>
<image xlink:href="tile21_2.png" preserveAspectRatio="none" x="13390.136719" y="-3458.496094" width="4.394531" height="4.394531"/>
<image xlink:href="tile21_1.png" preserveAspectRatio="none" x="13390.136719" y="-3462.890625" width="4.394531" height="4.394531"/>
<image xlink:href="tile21_0.png" preserveAspectRatio="none" x="13390.136719" y="-3467.285156" width="4.394531" height="4.394531"/>
<image xlink:href="tile22_14.png" preserveAspectRatio="none" x="13394.53125" y="-3405.761719" width="4.394531" height="4.394531"/>
<image xlink:href="tile22_10.png" preserveAspectRatio="none" x="13394.53125" y="-3423.339844" width="4.394531" height="4.394531"/>
<image xlink:href="tile22_9.png" preserveAspectRatio="none" x="13394.53125" y="-3427.734375" width="4.394531" height="4.394531"/>
<image xlink:href="tile22_8.png" preserveAspectRatio="none" x="13394.53125" y="-3432.128906" width="4.394531" height="4.394531"/>
<image xlink:href="tile22_1.png" preserveAspectRatio="none" x="13394.53125" y="-3462.890625" width="4.394531" height="4.394531"/>
<image xlink:href="tile22_0.png" preserveAspectRatio="none" x="13394.53125" y="-3467.285156" width="4.394531" height="4.394531"/>
<image xlink:href="tile23_14.png" preserveAspectRatio="none" x="13398.925781" y="-3405.761719" width="4.394531" height="4.394531"/>
<image xlink:href="tile23_10.png" preserveAspectRatio="none" x="13398.925781" y="-3423.339844" width="4.394531" height="4.394531"/>
<image xlink:href="tile23_9.png" preserveAspectRatio="none" x="13398.925781" y="-3427.734375" width="4.394531" height="4.394531"/>
<image xlink:href="tile23_8.png" preserveAspectRatio="none" x="13398.925781" y="-3432.128906" width="4.394531" height="4.394531"/>
<image xlink:href="tile23_7.png" preserveAspectRatio="none" x="13398.925781" y="-3436.523438" width="4.394531" height="4.394531"/>
<image xlink:href="tile23_1.png" preserveAspectRatio="none" x="13398.925781" y="-3462.890625" width="4.394531" height="4.394531"/>
<image xlink:href="tile23_0.png" preserveAspectRatio="none" x="13398.925781" y="-3467.285156" width="4.394531" height="4.394531"/>
</g>
</svg>
