<?xml version="1.0" encoding="UTF-8"?>
<svg  xmlns="http://www.w3.org/2000/svg" xmlns:xlink="http://www.w3.org/1999/xlink" xmlns:go="http://purl.org/svgmap/profile" viewBox="13665.937894300001 -3729.8332111 34.06210569999928 63.166544100000266" go:dataArea="13665.937894300001 -3729.8332111 34.06210569999928 63.166544100000266" >
<metadata>
 <rdf:RDF xmlns:rdf="http://www.w3.org/1999/02/22-rdf-syntax-ns#" xmlns:crs="http://opengis.org/xmldtds/transformations.dtd" xmlns:svg="http://www.w3.org/svg" >
  <rdf:Description>
   <crs:CoordinateReferenceSystem rdf:resource="http://purl.org/crs/84" svg:transform="matrix(100.0,0.0,0.0,-100.0,0.0,0.0)" />
  </rdf:Description>
 </rdf:RDF>
</metadata>
<globalCoordinateSystem srsName="http://purl.org/crs/84" transform="matrix(100.0,0.0,0.0,-100.0,0.0,0.0)" />
<g >
<image xlink:href="tile16_18.png" preserveAspectRatio="none" x="13683.47168" y="-3710.083008" width="1.098633" height="1.098633"/>
<image xlink:href="tile16_17.png" preserveAspectRatio="none" x="13683.47168" y="-3711.181641" width="1.098633" height="1.098633"/>
<image xlink:href="tile16_16.png" preserveAspectRatio="none" x="13683.47168" y="-3712.280273" width="1.098633" height="1.098633"/>
<image xlink:href="tile16_15.png" preserveAspectRatio="none" x="13683.47168" y="-3713.378906" width="1.098633" height="1.098633"/>
<image xlink:href="tile17_18.png" preserveAspectRatio="none" x="13684.570312" y="-3710.083008" width="1.098633" height="1.098633"/>
<image xlink:href="tile17_17.png" preserveAspectRatio="none" x="13684.570312" y="-3711.181641" width="1.098633" height="1.098633"/>
<image xlink:href="tile17_16.png" preserveAspectRatio="none" x="13684.570312" y="-3712.280273" width="1.098633" height="1.098633"/>
<image xlink:href="tile17_15.png" preserveAspectRatio="none" x="13684.570312" y="-3713.378906" width="1.098633" height="1.098633"/>
<image xlink:href="tile18_18.png" preserveAspectRatio="none" x="13685.668945" y="-3710.083008" width="1.098633" height="1.098633"/>
<image xlink:href="tile18_17.png" preserveAspectRatio="none" x="13685.668945" y="-3711.181641" width="1.098633" height="1.098633"/>
<image xlink:href="tile18_16.png" preserveAspectRatio="none" x="13685.668945" y="-3712.280273" width="1.098633" height="1.098633"/>
<image xlink:href="tile19_17.png" preserveAspectRatio="none" x="13686.767578" y="-3711.181641" width="1.098633" height="1.098633"/>
<image xlink:href="tile19_16.png" preserveAspectRatio="none" x="13686.767578" y="-3712.280273" width="1.098633" height="1.098633"/>
<image xlink:href="tile20_25.png" preserveAspectRatio="none" x="13687.866211" y="-3702.392578" width="1.098633" height="1.098633"/>
<image xlink:href="tile20_24.png" preserveAspectRatio="none" x="13687.866211" y="-3703.491211" width="1.098633" height="1.098633"/>
<image xlink:href="tile20_23.png" preserveAspectRatio="none" x="13687.866211" y="-3704.589844" width="1.098633" height="1.098633"/>
<image xlink:href="tile20_22.png" preserveAspectRatio="none" x="13687.866211" y="-3705.688477" width="1.098633" height="1.098633"/>
<image xlink:href="tile20_21.png" preserveAspectRatio="none" x="13687.866211" y="-3706.787109" width="1.098633" height="1.098633"/>
<image xlink:href="tile20_20.png" preserveAspectRatio="none" x="13687.866211" y="-3707.885742" width="1.098633" height="1.098633"/>
<image xlink:href="tile21_24.png" preserveAspectRatio="none" x="13688.964844" y="-3703.491211" width="1.098633" height="1.098633"/>
<image xlink:href="tile21_23.png" preserveAspectRatio="none" x="13688.964844" y="-3704.589844" width="1.098633" height="1.098633"/>
<image xlink:href="tile21_22.png" preserveAspectRatio="none" x="13688.964844" y="-3705.688477" width="1.098633" height="1.098633"/>
<image xlink:href="tile21_21.png" preserveAspectRatio="none" x="13688.964844" y="-3706.787109" width="1.098633" height="1.098633"/>
<image xlink:href="tile21_20.png" preserveAspectRatio="none" x="13688.964844" y="-3707.885742" width="1.098633" height="1.098633"/>
<image xlink:href="tile22_25.png" preserveAspectRatio="none" x="13690.063477" y="-3702.392578" width="1.098633" height="1.098633"/>
<image xlink:href="tile22_24.png" preserveAspectRatio="none" x="13690.063477" y="-3703.491211" width="1.098633" height="1.098633"/>
<image xlink:href="tile22_23.png" preserveAspectRatio="none" x="13690.063477" y="-3704.589844" width="1.098633" height="1.098633"/>
<image xlink:href="tile22_22.png" preserveAspectRatio="none" x="13690.063477" y="-3705.688477" width="1.098633" height="1.098633"/>
<image xlink:href="tile22_21.png" preserveAspectRatio="none" x="13690.063477" y="-3706.787109" width="1.098633" height="1.098633"/>
<image xlink:href="tile22_20.png" preserveAspectRatio="none" x="13690.063477" y="-3707.885742" width="1.098633" height="1.098633"/>
<image xlink:href="tile23_25.png" preserveAspectRatio="none" x="13691.162109" y="-3702.392578" width="1.098633" height="1.098633"/>
<image xlink:href="tile23_24.png" preserveAspectRatio="none" x="13691.162109" y="-3703.491211" width="1.098633" height="1.098633"/>
<image xlink:href="tile23_23.png" preserveAspectRatio="none" x="13691.162109" y="-3704.589844" width="1.098633" height="1.098633"/>
<image xlink:href="tile23_20.png" preserveAspectRatio="none" x="13691.162109" y="-3707.885742" width="1.098633" height="1.098633"/>
<image xlink:href="tile26_24.png" preserveAspectRatio="none" x="13694.458008" y="-3703.491211" width="1.098633" height="1.098633"/>
<image xlink:href="tile26_23.png" preserveAspectRatio="none" x="13694.458008" y="-3704.589844" width="1.098633" height="1.098633"/>
<image xlink:href="tile26_22.png" preserveAspectRatio="none" x="13694.458008" y="-3705.688477" width="1.098633" height="1.098633"/>
<image xlink:href="tile27_24.png" preserveAspectRatio="none" x="13695.556641" y="-3703.491211" width="1.098633" height="1.098633"/>
<image xlink:href="tile27_23.png" preserveAspectRatio="none" x="13695.556641" y="-3704.589844" width="1.098633" height="1.098633"/>
<image xlink:href="tile27_22.png" preserveAspectRatio="none" x="13695.556641" y="-3705.688477" width="1.098633" height="1.098633"/>
<image xlink:href="tile28_23.png" preserveAspectRatio="none" x="13696.655273" y="-3704.589844" width="1.098633" height="1.098633"/>
<image xlink:href="tile28_22.png" preserveAspectRatio="none" x="13696.655273" y="-3705.688477" width="1.098633" height="1.098633"/>
</g>
</svg>
