<?xml version="1.0" encoding="UTF-8"?>
<svg  xmlns="http://www.w3.org/2000/svg" xmlns:xlink="http://www.w3.org/1999/xlink" xmlns:go="http://purl.org/svgmap/profile" viewBox="13665.937894300001 -3729.8332111 34.06210569999928 63.166544100000266" go:dataArea="13665.937894300001 -3729.8332111 34.06210569999928 63.166544100000266" >
<metadata>
 <rdf:RDF xmlns:rdf="http://www.w3.org/1999/02/22-rdf-syntax-ns#" xmlns:crs="http://opengis.org/xmldtds/transformations.dtd" xmlns:svg="http://www.w3.org/svg" >
  <rdf:Description>
   <crs:CoordinateReferenceSystem rdf:resource="http://purl.org/crs/84" svg:transform="matrix(100.0,0.0,0.0,-100.0,0.0,0.0)" />
  </rdf:Description>
 </rdf:RDF>
</metadata>
<globalCoordinateSystem srsName="http://purl.org/crs/84" transform="matrix(100.0,0.0,0.0,-100.0,0.0,0.0)" />
<g >
<image xlink:href="tile16_35.png" preserveAspectRatio="none" x="13683.47168" y="-3691.40625" width="1.098633" height="1.098633"/>
<image xlink:href="tile16_34.png" preserveAspectRatio="none" x="13683.47168" y="-3692.504883" width="1.098633" height="1.098633"/>
<image xlink:href="tile16_33.png" preserveAspectRatio="none" x="13683.47168" y="-3693.603516" width="1.098633" height="1.098633"/>
<image xlink:href="tile16_32.png" preserveAspectRatio="none" x="13683.47168" y="-3694.702148" width="1.098633" height="1.098633"/>
<image xlink:href="tile16_31.png" preserveAspectRatio="none" x="13683.47168" y="-3695.800781" width="1.098633" height="1.098633"/>
<image xlink:href="tile17_33.png" preserveAspectRatio="none" x="13684.570312" y="-3693.603516" width="1.098633" height="1.098633"/>
<image xlink:href="tile17_32.png" preserveAspectRatio="none" x="13684.570312" y="-3694.702148" width="1.098633" height="1.098633"/>
<image xlink:href="tile17_31.png" preserveAspectRatio="none" x="13684.570312" y="-3695.800781" width="1.098633" height="1.098633"/>
<image xlink:href="tile18_31.png" preserveAspectRatio="none" x="13685.668945" y="-3695.800781" width="1.098633" height="1.098633"/>
<image xlink:href="tile18_30.png" preserveAspectRatio="none" x="13685.668945" y="-3696.899414" width="1.098633" height="1.098633"/>
<image xlink:href="tile19_31.png" preserveAspectRatio="none" x="13686.767578" y="-3695.800781" width="1.098633" height="1.098633"/>
<image xlink:href="tile19_30.png" preserveAspectRatio="none" x="13686.767578" y="-3696.899414" width="1.098633" height="1.098633"/>
<image xlink:href="tile19_29.png" preserveAspectRatio="none" x="13686.767578" y="-3697.998047" width="1.098633" height="1.098633"/>
<image xlink:href="tile20_30.png" preserveAspectRatio="none" x="13687.866211" y="-3696.899414" width="1.098633" height="1.098633"/>
<image xlink:href="tile20_29.png" preserveAspectRatio="none" x="13687.866211" y="-3697.998047" width="1.098633" height="1.098633"/>
<image xlink:href="tile21_41.png" preserveAspectRatio="none" x="13688.964844" y="-3684.814453" width="1.098633" height="1.098633"/>
<image xlink:href="tile21_40.png" preserveAspectRatio="none" x="13688.964844" y="-3685.913086" width="1.098633" height="1.098633"/>
<image xlink:href="tile21_29.png" preserveAspectRatio="none" x="13688.964844" y="-3697.998047" width="1.098633" height="1.098633"/>
<image xlink:href="tile21_28.png" preserveAspectRatio="none" x="13688.964844" y="-3699.09668" width="1.098633" height="1.098633"/>
<image xlink:href="tile21_27.png" preserveAspectRatio="none" x="13688.964844" y="-3700.195312" width="1.098633" height="1.098633"/>
<image xlink:href="tile21_26.png" preserveAspectRatio="none" x="13688.964844" y="-3701.293945" width="1.098633" height="1.098633"/>
<image xlink:href="tile22_41.png" preserveAspectRatio="none" x="13690.063477" y="-3684.814453" width="1.098633" height="1.098633"/>
<image xlink:href="tile22_40.png" preserveAspectRatio="none" x="13690.063477" y="-3685.913086" width="1.098633" height="1.098633"/>
<image xlink:href="tile22_39.png" preserveAspectRatio="none" x="13690.063477" y="-3687.011719" width="1.098633" height="1.098633"/>
<image xlink:href="tile22_29.png" preserveAspectRatio="none" x="13690.063477" y="-3697.998047" width="1.098633" height="1.098633"/>
<image xlink:href="tile22_28.png" preserveAspectRatio="none" x="13690.063477" y="-3699.09668" width="1.098633" height="1.098633"/>
<image xlink:href="tile22_27.png" preserveAspectRatio="none" x="13690.063477" y="-3700.195312" width="1.098633" height="1.098633"/>
<image xlink:href="tile22_26.png" preserveAspectRatio="none" x="13690.063477" y="-3701.293945" width="1.098633" height="1.098633"/>
<image xlink:href="tile23_41.png" preserveAspectRatio="none" x="13691.162109" y="-3684.814453" width="1.098633" height="1.098633"/>
<image xlink:href="tile23_40.png" preserveAspectRatio="none" x="13691.162109" y="-3685.913086" width="1.098633" height="1.098633"/>
<image xlink:href="tile23_39.png" preserveAspectRatio="none" x="13691.162109" y="-3687.011719" width="1.098633" height="1.098633"/>
<image xlink:href="tile23_29.png" preserveAspectRatio="none" x="13691.162109" y="-3697.998047" width="1.098633" height="1.098633"/>
<image xlink:href="tile23_28.png" preserveAspectRatio="none" x="13691.162109" y="-3699.09668" width="1.098633" height="1.098633"/>
<image xlink:href="tile23_27.png" preserveAspectRatio="none" x="13691.162109" y="-3700.195312" width="1.098633" height="1.098633"/>
<image xlink:href="tile23_26.png" preserveAspectRatio="none" x="13691.162109" y="-3701.293945" width="1.098633" height="1.098633"/>
<image xlink:href="tile24_40.png" preserveAspectRatio="none" x="13692.260742" y="-3685.913086" width="1.098633" height="1.098633"/>
<image xlink:href="tile24_39.png" preserveAspectRatio="none" x="13692.260742" y="-3687.011719" width="1.098633" height="1.098633"/>
<image xlink:href="tile24_38.png" preserveAspectRatio="none" x="13692.260742" y="-3688.110352" width="1.098633" height="1.098633"/>
<image xlink:href="tile24_37.png" preserveAspectRatio="none" x="13692.260742" y="-3689.208984" width="1.098633" height="1.098633"/>
<image xlink:href="tile24_29.png" preserveAspectRatio="none" x="13692.260742" y="-3697.998047" width="1.098633" height="1.098633"/>
<image xlink:href="tile24_28.png" preserveAspectRatio="none" x="13692.260742" y="-3699.09668" width="1.098633" height="1.098633"/>
<image xlink:href="tile25_40.png" preserveAspectRatio="none" x="13693.359375" y="-3685.913086" width="1.098633" height="1.098633"/>
<image xlink:href="tile25_39.png" preserveAspectRatio="none" x="13693.359375" y="-3687.011719" width="1.098633" height="1.098633"/>
<image xlink:href="tile25_38.png" preserveAspectRatio="none" x="13693.359375" y="-3688.110352" width="1.098633" height="1.098633"/>
<image xlink:href="tile25_37.png" preserveAspectRatio="none" x="13693.359375" y="-3689.208984" width="1.098633" height="1.098633"/>
<image xlink:href="tile26_41.png" preserveAspectRatio="none" x="13694.458008" y="-3684.814453" width="1.098633" height="1.098633"/>
<image xlink:href="tile26_40.png" preserveAspectRatio="none" x="13694.458008" y="-3685.913086" width="1.098633" height="1.098633"/>
<image xlink:href="tile26_39.png" preserveAspectRatio="none" x="13694.458008" y="-3687.011719" width="1.098633" height="1.098633"/>
<image xlink:href="tile26_38.png" preserveAspectRatio="none" x="13694.458008" y="-3688.110352" width="1.098633" height="1.098633"/>
<image xlink:href="tile26_37.png" preserveAspectRatio="none" x="13694.458008" y="-3689.208984" width="1.098633" height="1.098633"/>
<image xlink:href="tile26_36.png" preserveAspectRatio="none" x="13694.458008" y="-3690.307617" width="1.098633" height="1.098633"/>
<image xlink:href="tile26_35.png" preserveAspectRatio="none" x="13694.458008" y="-3691.40625" width="1.098633" height="1.098633"/>
<image xlink:href="tile27_41.png" preserveAspectRatio="none" x="13695.556641" y="-3684.814453" width="1.098633" height="1.098633"/>
<image xlink:href="tile27_40.png" preserveAspectRatio="none" x="13695.556641" y="-3685.913086" width="1.098633" height="1.098633"/>
<image xlink:href="tile27_39.png" preserveAspectRatio="none" x="13695.556641" y="-3687.011719" width="1.098633" height="1.098633"/>
<image xlink:href="tile27_38.png" preserveAspectRatio="none" x="13695.556641" y="-3688.110352" width="1.098633" height="1.098633"/>
<image xlink:href="tile27_37.png" preserveAspectRatio="none" x="13695.556641" y="-3689.208984" width="1.098633" height="1.098633"/>
<image xlink:href="tile27_36.png" preserveAspectRatio="none" x="13695.556641" y="-3690.307617" width="1.098633" height="1.098633"/>
<image xlink:href="tile27_35.png" preserveAspectRatio="none" x="13695.556641" y="-3691.40625" width="1.098633" height="1.098633"/>
<image xlink:href="tile28_41.png" preserveAspectRatio="none" x="13696.655273" y="-3684.814453" width="1.098633" height="1.098633"/>
<image xlink:href="tile28_40.png" preserveAspectRatio="none" x="13696.655273" y="-3685.913086" width="1.098633" height="1.098633"/>
<image xlink:href="tile28_39.png" preserveAspectRatio="none" x="13696.655273" y="-3687.011719" width="1.098633" height="1.098633"/>
<image xlink:href="tile28_38.png" preserveAspectRatio="none" x="13696.655273" y="-3688.110352" width="1.098633" height="1.098633"/>
<image xlink:href="tile28_37.png" preserveAspectRatio="none" x="13696.655273" y="-3689.208984" width="1.098633" height="1.098633"/>
<image xlink:href="tile28_36.png" preserveAspectRatio="none" x="13696.655273" y="-3690.307617" width="1.098633" height="1.098633"/>
<image xlink:href="tile29_41.png" preserveAspectRatio="none" x="13697.753906" y="-3684.814453" width="1.098633" height="1.098633"/>
<image xlink:href="tile29_40.png" preserveAspectRatio="none" x="13697.753906" y="-3685.913086" width="1.098633" height="1.098633"/>
<image xlink:href="tile29_39.png" preserveAspectRatio="none" x="13697.753906" y="-3687.011719" width="1.098633" height="1.098633"/>
<image xlink:href="tile29_38.png" preserveAspectRatio="none" x="13697.753906" y="-3688.110352" width="1.098633" height="1.098633"/>
<image xlink:href="tile29_37.png" preserveAspectRatio="none" x="13697.753906" y="-3689.208984" width="1.098633" height="1.098633"/>
<image xlink:href="tile29_36.png" preserveAspectRatio="none" x="13697.753906" y="-3690.307617" width="1.098633" height="1.098633"/>
<image xlink:href="tile30_41.png" preserveAspectRatio="none" x="13698.852539" y="-3684.814453" width="1.098633" height="1.098633"/>
<image xlink:href="tile30_40.png" preserveAspectRatio="none" x="13698.852539" y="-3685.913086" width="1.098633" height="1.098633"/>
<image xlink:href="tile30_39.png" preserveAspectRatio="none" x="13698.852539" y="-3687.011719" width="1.098633" height="1.098633"/>
<image xlink:href="tile30_38.png" preserveAspectRatio="none" x="13698.852539" y="-3688.110352" width="1.098633" height="1.098633"/>
<image xlink:href="tile30_37.png" preserveAspectRatio="none" x="13698.852539" y="-3689.208984" width="1.098633" height="1.098633"/>
<image xlink:href="tile30_34.png" preserveAspectRatio="none" x="13698.852539" y="-3692.504883" width="1.098633" height="1.098633"/>
<image xlink:href="tile30_33.png" preserveAspectRatio="none" x="13698.852539" y="-3693.603516" width="1.098633" height="1.098633"/>
<image xlink:href="tile31_34.png" preserveAspectRatio="none" x="13699.951172" y="-3692.504883" width="1.098633" height="1.098633"/>
</g>
</svg>
