<?xml version="1.0" encoding="UTF-8"?>
<svg  xmlns="http://www.w3.org/2000/svg" xmlns:xlink="http://www.w3.org/1999/xlink" xmlns:go="http://purl.org/svgmap/profile" viewBox="13300.0 -3533.3333332 100.0 66.66666660000047" go:dataArea="13300.0 -3533.3333332 100.0 66.66666660000047" >
<metadata>
 <rdf:RDF xmlns:rdf="http://www.w3.org/1999/02/22-rdf-syntax-ns#" xmlns:crs="http://opengis.org/xmldtds/transformations.dtd" xmlns:svg="http://www.w3.org/svg" >
  <rdf:Description>
   <crs:CoordinateReferenceSystem rdf:resource="http://purl.org/crs/84" svg:transform="matrix(100.0,0.0,0.0,-100.0,0.0,0.0)" />
  </rdf:Description>
 </rdf:RDF>
</metadata>
<globalCoordinateSystem srsName="http://purl.org/crs/84" transform="matrix(100.0,0.0,0.0,-100.0,0.0,0.0)" />
<g >
<image xlink:href="tile0_21.png" preserveAspectRatio="none" x="13297.851562" y="-3489.257812" width="2.197266" height="2.197266"/>
<image xlink:href="tile1_23.png" preserveAspectRatio="none" x="13300.048828" y="-3484.863281" width="2.197266" height="2.197266"/>
<image xlink:href="tile1_22.png" preserveAspectRatio="none" x="13300.048828" y="-3487.060547" width="2.197266" height="2.197266"/>
<image xlink:href="tile1_21.png" preserveAspectRatio="none" x="13300.048828" y="-3489.257812" width="2.197266" height="2.197266"/>
<image xlink:href="tile2_28.png" preserveAspectRatio="none" x="13302.246094" y="-3473.876953" width="2.197266" height="2.197266"/>
<image xlink:href="tile2_27.png" preserveAspectRatio="none" x="13302.246094" y="-3476.074219" width="2.197266" height="2.197266"/>
<image xlink:href="tile2_23.png" preserveAspectRatio="none" x="13302.246094" y="-3484.863281" width="2.197266" height="2.197266"/>
<image xlink:href="tile2_22.png" preserveAspectRatio="none" x="13302.246094" y="-3487.060547" width="2.197266" height="2.197266"/>
<image xlink:href="tile2_21.png" preserveAspectRatio="none" x="13302.246094" y="-3489.257812" width="2.197266" height="2.197266"/>
<image xlink:href="tile3_28.png" preserveAspectRatio="none" x="13304.443359" y="-3473.876953" width="2.197266" height="2.197266"/>
<image xlink:href="tile3_27.png" preserveAspectRatio="none" x="13304.443359" y="-3476.074219" width="2.197266" height="2.197266"/>
<image xlink:href="tile3_22.png" preserveAspectRatio="none" x="13304.443359" y="-3487.060547" width="2.197266" height="2.197266"/>
<image xlink:href="tile3_21.png" preserveAspectRatio="none" x="13304.443359" y="-3489.257812" width="2.197266" height="2.197266"/>
<image xlink:href="tile4_21.png" preserveAspectRatio="none" x="13306.640625" y="-3489.257812" width="2.197266" height="2.197266"/>
<image xlink:href="tile4_20.png" preserveAspectRatio="none" x="13306.640625" y="-3491.455078" width="2.197266" height="2.197266"/>
<image xlink:href="tile5_20.png" preserveAspectRatio="none" x="13308.837891" y="-3491.455078" width="2.197266" height="2.197266"/>
<image xlink:href="tile5_19.png" preserveAspectRatio="none" x="13308.837891" y="-3493.652344" width="2.197266" height="2.197266"/>
<image xlink:href="tile6_20.png" preserveAspectRatio="none" x="13311.035156" y="-3491.455078" width="2.197266" height="2.197266"/>
<image xlink:href="tile6_19.png" preserveAspectRatio="none" x="13311.035156" y="-3493.652344" width="2.197266" height="2.197266"/>
<image xlink:href="tile6_18.png" preserveAspectRatio="none" x="13311.035156" y="-3495.849609" width="2.197266" height="2.197266"/>
<image xlink:href="tile6_17.png" preserveAspectRatio="none" x="13311.035156" y="-3498.046875" width="2.197266" height="2.197266"/>
<image xlink:href="tile12_20.png" preserveAspectRatio="none" x="13324.21875" y="-3491.455078" width="2.197266" height="2.197266"/>
<image xlink:href="tile12_19.png" preserveAspectRatio="none" x="13324.21875" y="-3493.652344" width="2.197266" height="2.197266"/>
<image xlink:href="tile13_21.png" preserveAspectRatio="none" x="13326.416016" y="-3489.257812" width="2.197266" height="2.197266"/>
<image xlink:href="tile13_20.png" preserveAspectRatio="none" x="13326.416016" y="-3491.455078" width="2.197266" height="2.197266"/>
<image xlink:href="tile14_20.png" preserveAspectRatio="none" x="13328.613281" y="-3491.455078" width="2.197266" height="2.197266"/>
<image xlink:href="tile15_20.png" preserveAspectRatio="none" x="13330.810547" y="-3491.455078" width="2.197266" height="2.197266"/>
<image xlink:href="tile15_19.png" preserveAspectRatio="none" x="13330.810547" y="-3493.652344" width="2.197266" height="2.197266"/>
<image xlink:href="tile15_18.png" preserveAspectRatio="none" x="13330.810547" y="-3495.849609" width="2.197266" height="2.197266"/>
</g>
</svg>
