<?xml version="1.0" encoding="UTF-8"?>
<svg  xmlns="http://www.w3.org/2000/svg" xmlns:xlink="http://www.w3.org/1999/xlink" xmlns:go="http://purl.org/svgmap/profile" viewBox="12906.4875 -3333.333333 93.51249999999993 59.58333300000049" go:dataArea="12906.4875 -3333.333333 93.51249999999993 59.58333300000049" >
<metadata>
 <rdf:RDF xmlns:rdf="http://www.w3.org/1999/02/22-rdf-syntax-ns#" xmlns:crs="http://opengis.org/xmldtds/transformations.dtd" xmlns:svg="http://www.w3.org/svg" >
  <rdf:Description>
   <crs:CoordinateReferenceSystem rdf:resource="http://purl.org/crs/84" svg:transform="matrix(100.0,0.0,0.0,-100.0,0.0,0.0)" />
  </rdf:Description>
 </rdf:RDF>
</metadata>
<globalCoordinateSystem srsName="http://purl.org/crs/84" transform="matrix(100.0,0.0,0.0,-100.0,0.0,0.0)" />
<g >
<image xlink:href="tile32_5.png" preserveAspectRatio="none" x="12974.853516" y="-3324.462891" width="2.197266" height="2.197266"/>
<image xlink:href="tile32_4.png" preserveAspectRatio="none" x="12974.853516" y="-3326.660156" width="2.197266" height="2.197266"/>
<image xlink:href="tile33_5.png" preserveAspectRatio="none" x="12977.050781" y="-3324.462891" width="2.197266" height="2.197266"/>
<image xlink:href="tile34_12.png" preserveAspectRatio="none" x="12979.248047" y="-3309.082031" width="2.197266" height="2.197266"/>
<image xlink:href="tile34_10.png" preserveAspectRatio="none" x="12979.248047" y="-3313.476562" width="2.197266" height="2.197266"/>
<image xlink:href="tile34_9.png" preserveAspectRatio="none" x="12979.248047" y="-3315.673828" width="2.197266" height="2.197266"/>
<image xlink:href="tile35_12.png" preserveAspectRatio="none" x="12981.445312" y="-3309.082031" width="2.197266" height="2.197266"/>
<image xlink:href="tile35_11.png" preserveAspectRatio="none" x="12981.445312" y="-3311.279297" width="2.197266" height="2.197266"/>
<image xlink:href="tile35_10.png" preserveAspectRatio="none" x="12981.445312" y="-3313.476562" width="2.197266" height="2.197266"/>
<image xlink:href="tile35_9.png" preserveAspectRatio="none" x="12981.445312" y="-3315.673828" width="2.197266" height="2.197266"/>
<image xlink:href="tile35_8.png" preserveAspectRatio="none" x="12981.445312" y="-3317.871094" width="2.197266" height="2.197266"/>
<image xlink:href="tile36_12.png" preserveAspectRatio="none" x="12983.642578" y="-3309.082031" width="2.197266" height="2.197266"/>
<image xlink:href="tile36_8.png" preserveAspectRatio="none" x="12983.642578" y="-3317.871094" width="2.197266" height="2.197266"/>
<image xlink:href="tile36_7.png" preserveAspectRatio="none" x="12983.642578" y="-3320.068359" width="2.197266" height="2.197266"/>
<image xlink:href="tile36_6.png" preserveAspectRatio="none" x="12983.642578" y="-3322.265625" width="2.197266" height="2.197266"/>
<image xlink:href="tile36_5.png" preserveAspectRatio="none" x="12983.642578" y="-3324.462891" width="2.197266" height="2.197266"/>
<image xlink:href="tile36_4.png" preserveAspectRatio="none" x="12983.642578" y="-3326.660156" width="2.197266" height="2.197266"/>
<image xlink:href="tile36_3.png" preserveAspectRatio="none" x="12983.642578" y="-3328.857422" width="2.197266" height="2.197266"/>
<image xlink:href="tile36_2.png" preserveAspectRatio="none" x="12983.642578" y="-3331.054688" width="2.197266" height="2.197266"/>
<image xlink:href="tile37_12.png" preserveAspectRatio="none" x="12985.839844" y="-3309.082031" width="2.197266" height="2.197266"/>
<image xlink:href="tile37_11.png" preserveAspectRatio="none" x="12985.839844" y="-3311.279297" width="2.197266" height="2.197266"/>
<image xlink:href="tile37_10.png" preserveAspectRatio="none" x="12985.839844" y="-3313.476562" width="2.197266" height="2.197266"/>
<image xlink:href="tile37_7.png" preserveAspectRatio="none" x="12985.839844" y="-3320.068359" width="2.197266" height="2.197266"/>
<image xlink:href="tile37_4.png" preserveAspectRatio="none" x="12985.839844" y="-3326.660156" width="2.197266" height="2.197266"/>
<image xlink:href="tile37_3.png" preserveAspectRatio="none" x="12985.839844" y="-3328.857422" width="2.197266" height="2.197266"/>
<image xlink:href="tile37_2.png" preserveAspectRatio="none" x="12985.839844" y="-3331.054688" width="2.197266" height="2.197266"/>
<image xlink:href="tile38_10.png" preserveAspectRatio="none" x="12988.037109" y="-3313.476562" width="2.197266" height="2.197266"/>
<image xlink:href="tile38_9.png" preserveAspectRatio="none" x="12988.037109" y="-3315.673828" width="2.197266" height="2.197266"/>
<image xlink:href="tile38_8.png" preserveAspectRatio="none" x="12988.037109" y="-3317.871094" width="2.197266" height="2.197266"/>
<image xlink:href="tile38_7.png" preserveAspectRatio="none" x="12988.037109" y="-3320.068359" width="2.197266" height="2.197266"/>
<image xlink:href="tile38_5.png" preserveAspectRatio="none" x="12988.037109" y="-3324.462891" width="2.197266" height="2.197266"/>
<image xlink:href="tile38_4.png" preserveAspectRatio="none" x="12988.037109" y="-3326.660156" width="2.197266" height="2.197266"/>
<image xlink:href="tile38_3.png" preserveAspectRatio="none" x="12988.037109" y="-3328.857422" width="2.197266" height="2.197266"/>
<image xlink:href="tile39_9.png" preserveAspectRatio="none" x="12990.234375" y="-3315.673828" width="2.197266" height="2.197266"/>
<image xlink:href="tile39_8.png" preserveAspectRatio="none" x="12990.234375" y="-3317.871094" width="2.197266" height="2.197266"/>
<image xlink:href="tile39_6.png" preserveAspectRatio="none" x="12990.234375" y="-3322.265625" width="2.197266" height="2.197266"/>
<image xlink:href="tile40_10.png" preserveAspectRatio="none" x="12992.431641" y="-3313.476562" width="2.197266" height="2.197266"/>
<image xlink:href="tile40_9.png" preserveAspectRatio="none" x="12992.431641" y="-3315.673828" width="2.197266" height="2.197266"/>
<image xlink:href="tile40_7.png" preserveAspectRatio="none" x="12992.431641" y="-3320.068359" width="2.197266" height="2.197266"/>
<image xlink:href="tile40_6.png" preserveAspectRatio="none" x="12992.431641" y="-3322.265625" width="2.197266" height="2.197266"/>
<image xlink:href="tile40_1.png" preserveAspectRatio="none" x="12992.431641" y="-3333.251953" width="2.197266" height="2.197266"/>
<image xlink:href="tile40_0.png" preserveAspectRatio="none" x="12992.431641" y="-3335.449219" width="2.197266" height="2.197266"/>
<image xlink:href="tile41_12.png" preserveAspectRatio="none" x="12994.628906" y="-3309.082031" width="2.197266" height="2.197266"/>
<image xlink:href="tile41_6.png" preserveAspectRatio="none" x="12994.628906" y="-3322.265625" width="2.197266" height="2.197266"/>
<image xlink:href="tile41_5.png" preserveAspectRatio="none" x="12994.628906" y="-3324.462891" width="2.197266" height="2.197266"/>
<image xlink:href="tile41_4.png" preserveAspectRatio="none" x="12994.628906" y="-3326.660156" width="2.197266" height="2.197266"/>
<image xlink:href="tile41_3.png" preserveAspectRatio="none" x="12994.628906" y="-3328.857422" width="2.197266" height="2.197266"/>
<image xlink:href="tile41_2.png" preserveAspectRatio="none" x="12994.628906" y="-3331.054688" width="2.197266" height="2.197266"/>
<image xlink:href="tile41_1.png" preserveAspectRatio="none" x="12994.628906" y="-3333.251953" width="2.197266" height="2.197266"/>
<image xlink:href="tile42_12.png" preserveAspectRatio="none" x="12996.826172" y="-3309.082031" width="2.197266" height="2.197266"/>
<image xlink:href="tile42_11.png" preserveAspectRatio="none" x="12996.826172" y="-3311.279297" width="2.197266" height="2.197266"/>
<image xlink:href="tile42_8.png" preserveAspectRatio="none" x="12996.826172" y="-3317.871094" width="2.197266" height="2.197266"/>
<image xlink:href="tile42_7.png" preserveAspectRatio="none" x="12996.826172" y="-3320.068359" width="2.197266" height="2.197266"/>
<image xlink:href="tile42_6.png" preserveAspectRatio="none" x="12996.826172" y="-3322.265625" width="2.197266" height="2.197266"/>
<image xlink:href="tile42_5.png" preserveAspectRatio="none" x="12996.826172" y="-3324.462891" width="2.197266" height="2.197266"/>
<image xlink:href="tile42_4.png" preserveAspectRatio="none" x="12996.826172" y="-3326.660156" width="2.197266" height="2.197266"/>
<image xlink:href="tile42_3.png" preserveAspectRatio="none" x="12996.826172" y="-3328.857422" width="2.197266" height="2.197266"/>
<image xlink:href="tile42_2.png" preserveAspectRatio="none" x="12996.826172" y="-3331.054688" width="2.197266" height="2.197266"/>
<image xlink:href="tile42_1.png" preserveAspectRatio="none" x="12996.826172" y="-3333.251953" width="2.197266" height="2.197266"/>
<image xlink:href="tile42_0.png" preserveAspectRatio="none" x="12996.826172" y="-3335.449219" width="2.197266" height="2.197266"/>
<image xlink:href="tile43_11.png" preserveAspectRatio="none" x="12999.023438" y="-3311.279297" width="2.197266" height="2.197266"/>
<image xlink:href="tile43_10.png" preserveAspectRatio="none" x="12999.023438" y="-3313.476562" width="2.197266" height="2.197266"/>
<image xlink:href="tile43_8.png" preserveAspectRatio="none" x="12999.023438" y="-3317.871094" width="2.197266" height="2.197266"/>
<image xlink:href="tile43_7.png" preserveAspectRatio="none" x="12999.023438" y="-3320.068359" width="2.197266" height="2.197266"/>
</g>
</svg>
