<?xml version="1.0" encoding="UTF-8"?>
<svg  xmlns="http://www.w3.org/2000/svg" xmlns:xlink="http://www.w3.org/1999/xlink" xmlns:go="http://purl.org/svgmap/profile" viewBox="13700.0 -3533.3333339 100.0 66.66666690000014" go:dataArea="13700.0 -3533.3333339 100.0 66.66666690000014" >
<metadata>
 <rdf:RDF xmlns:rdf="http://www.w3.org/1999/02/22-rdf-syntax-ns#" xmlns:crs="http://opengis.org/xmldtds/transformations.dtd" xmlns:svg="http://www.w3.org/svg" >
  <rdf:Description>
   <crs:CoordinateReferenceSystem rdf:resource="http://purl.org/crs/84" svg:transform="matrix(100.0,0.0,0.0,-100.0,0.0,0.0)" />
  </rdf:Description>
 </rdf:RDF>
</metadata>
<globalCoordinateSystem srsName="http://purl.org/crs/84" transform="matrix(100.0,0.0,0.0,-100.0,0.0,0.0)" />
<g >
<image xlink:href="tile38_12.png" preserveAspectRatio="none" x="13783.447266" y="-3509.033203" width="2.197266" height="2.197266"/>
<image xlink:href="tile38_11.png" preserveAspectRatio="none" x="13783.447266" y="-3511.230469" width="2.197266" height="2.197266"/>
<image xlink:href="tile38_10.png" preserveAspectRatio="none" x="13783.447266" y="-3513.427734" width="2.197266" height="2.197266"/>
<image xlink:href="tile39_12.png" preserveAspectRatio="none" x="13785.644531" y="-3509.033203" width="2.197266" height="2.197266"/>
<image xlink:href="tile39_10.png" preserveAspectRatio="none" x="13785.644531" y="-3513.427734" width="2.197266" height="2.197266"/>
<image xlink:href="tile39_9.png" preserveAspectRatio="none" x="13785.644531" y="-3515.625" width="2.197266" height="2.197266"/>
<image xlink:href="tile39_8.png" preserveAspectRatio="none" x="13785.644531" y="-3517.822266" width="2.197266" height="2.197266"/>
<image xlink:href="tile40_15.png" preserveAspectRatio="none" x="13787.841797" y="-3502.441406" width="2.197266" height="2.197266"/>
<image xlink:href="tile40_8.png" preserveAspectRatio="none" x="13787.841797" y="-3517.822266" width="2.197266" height="2.197266"/>
<image xlink:href="tile40_7.png" preserveAspectRatio="none" x="13787.841797" y="-3520.019531" width="2.197266" height="2.197266"/>
<image xlink:href="tile40_2.png" preserveAspectRatio="none" x="13787.841797" y="-3531.005859" width="2.197266" height="2.197266"/>
<image xlink:href="tile41_15.png" preserveAspectRatio="none" x="13790.039062" y="-3502.441406" width="2.197266" height="2.197266"/>
<image xlink:href="tile41_14.png" preserveAspectRatio="none" x="13790.039062" y="-3504.638672" width="2.197266" height="2.197266"/>
<image xlink:href="tile41_13.png" preserveAspectRatio="none" x="13790.039062" y="-3506.835938" width="2.197266" height="2.197266"/>
<image xlink:href="tile41_12.png" preserveAspectRatio="none" x="13790.039062" y="-3509.033203" width="2.197266" height="2.197266"/>
<image xlink:href="tile41_11.png" preserveAspectRatio="none" x="13790.039062" y="-3511.230469" width="2.197266" height="2.197266"/>
<image xlink:href="tile41_10.png" preserveAspectRatio="none" x="13790.039062" y="-3513.427734" width="2.197266" height="2.197266"/>
<image xlink:href="tile41_7.png" preserveAspectRatio="none" x="13790.039062" y="-3520.019531" width="2.197266" height="2.197266"/>
<image xlink:href="tile41_2.png" preserveAspectRatio="none" x="13790.039062" y="-3531.005859" width="2.197266" height="2.197266"/>
<image xlink:href="tile41_1.png" preserveAspectRatio="none" x="13790.039062" y="-3533.203125" width="2.197266" height="2.197266"/>
<image xlink:href="tile42_14.png" preserveAspectRatio="none" x="13792.236328" y="-3504.638672" width="2.197266" height="2.197266"/>
<image xlink:href="tile42_10.png" preserveAspectRatio="none" x="13792.236328" y="-3513.427734" width="2.197266" height="2.197266"/>
<image xlink:href="tile42_7.png" preserveAspectRatio="none" x="13792.236328" y="-3520.019531" width="2.197266" height="2.197266"/>
<image xlink:href="tile42_1.png" preserveAspectRatio="none" x="13792.236328" y="-3533.203125" width="2.197266" height="2.197266"/>
<image xlink:href="tile43_1.png" preserveAspectRatio="none" x="13794.433594" y="-3533.203125" width="2.197266" height="2.197266"/>
</g>
</svg>
