<?xml version="1.0" encoding="UTF-8"?>
<svg  xmlns="http://www.w3.org/2000/svg" xmlns:xlink="http://www.w3.org/1999/xlink" xmlns:go="http://purl.org/svgmap/profile" viewBox="13700.0 -3533.3333339 100.0 66.66666690000014" go:dataArea="13700.0 -3533.3333339 100.0 66.66666690000014" >
<metadata>
 <rdf:RDF xmlns:rdf="http://www.w3.org/1999/02/22-rdf-syntax-ns#" xmlns:crs="http://opengis.org/xmldtds/transformations.dtd" xmlns:svg="http://www.w3.org/svg" >
  <rdf:Description>
   <crs:CoordinateReferenceSystem rdf:resource="http://purl.org/crs/84" svg:transform="matrix(100.0,0.0,0.0,-100.0,0.0,0.0)" />
  </rdf:Description>
 </rdf:RDF>
</metadata>
<globalCoordinateSystem srsName="http://purl.org/crs/84" transform="matrix(100.0,0.0,0.0,-100.0,0.0,0.0)" />
<g >
<image xlink:href="tile32_31.png" preserveAspectRatio="none" x="13770.263672" y="-3467.285156" width="2.197266" height="2.197266"/>
<image xlink:href="tile32_30.png" preserveAspectRatio="none" x="13770.263672" y="-3469.482422" width="2.197266" height="2.197266"/>
<image xlink:href="tile32_29.png" preserveAspectRatio="none" x="13770.263672" y="-3471.679688" width="2.197266" height="2.197266"/>
<image xlink:href="tile32_28.png" preserveAspectRatio="none" x="13770.263672" y="-3473.876953" width="2.197266" height="2.197266"/>
<image xlink:href="tile32_24.png" preserveAspectRatio="none" x="13770.263672" y="-3482.666016" width="2.197266" height="2.197266"/>
<image xlink:href="tile32_23.png" preserveAspectRatio="none" x="13770.263672" y="-3484.863281" width="2.197266" height="2.197266"/>
<image xlink:href="tile33_31.png" preserveAspectRatio="none" x="13772.460938" y="-3467.285156" width="2.197266" height="2.197266"/>
<image xlink:href="tile33_30.png" preserveAspectRatio="none" x="13772.460938" y="-3469.482422" width="2.197266" height="2.197266"/>
<image xlink:href="tile33_29.png" preserveAspectRatio="none" x="13772.460938" y="-3471.679688" width="2.197266" height="2.197266"/>
<image xlink:href="tile33_28.png" preserveAspectRatio="none" x="13772.460938" y="-3473.876953" width="2.197266" height="2.197266"/>
<image xlink:href="tile33_27.png" preserveAspectRatio="none" x="13772.460938" y="-3476.074219" width="2.197266" height="2.197266"/>
<image xlink:href="tile33_26.png" preserveAspectRatio="none" x="13772.460938" y="-3478.271484" width="2.197266" height="2.197266"/>
<image xlink:href="tile33_24.png" preserveAspectRatio="none" x="13772.460938" y="-3482.666016" width="2.197266" height="2.197266"/>
<image xlink:href="tile33_23.png" preserveAspectRatio="none" x="13772.460938" y="-3484.863281" width="2.197266" height="2.197266"/>
<image xlink:href="tile33_18.png" preserveAspectRatio="none" x="13772.460938" y="-3495.849609" width="2.197266" height="2.197266"/>
<image xlink:href="tile33_17.png" preserveAspectRatio="none" x="13772.460938" y="-3498.046875" width="2.197266" height="2.197266"/>
<image xlink:href="tile34_31.png" preserveAspectRatio="none" x="13774.658203" y="-3467.285156" width="2.197266" height="2.197266"/>
<image xlink:href="tile34_30.png" preserveAspectRatio="none" x="13774.658203" y="-3469.482422" width="2.197266" height="2.197266"/>
<image xlink:href="tile34_29.png" preserveAspectRatio="none" x="13774.658203" y="-3471.679688" width="2.197266" height="2.197266"/>
<image xlink:href="tile34_28.png" preserveAspectRatio="none" x="13774.658203" y="-3473.876953" width="2.197266" height="2.197266"/>
<image xlink:href="tile34_27.png" preserveAspectRatio="none" x="13774.658203" y="-3476.074219" width="2.197266" height="2.197266"/>
<image xlink:href="tile34_26.png" preserveAspectRatio="none" x="13774.658203" y="-3478.271484" width="2.197266" height="2.197266"/>
<image xlink:href="tile34_25.png" preserveAspectRatio="none" x="13774.658203" y="-3480.46875" width="2.197266" height="2.197266"/>
<image xlink:href="tile34_20.png" preserveAspectRatio="none" x="13774.658203" y="-3491.455078" width="2.197266" height="2.197266"/>
<image xlink:href="tile34_17.png" preserveAspectRatio="none" x="13774.658203" y="-3498.046875" width="2.197266" height="2.197266"/>
<image xlink:href="tile35_31.png" preserveAspectRatio="none" x="13776.855469" y="-3467.285156" width="2.197266" height="2.197266"/>
<image xlink:href="tile35_30.png" preserveAspectRatio="none" x="13776.855469" y="-3469.482422" width="2.197266" height="2.197266"/>
<image xlink:href="tile35_29.png" preserveAspectRatio="none" x="13776.855469" y="-3471.679688" width="2.197266" height="2.197266"/>
<image xlink:href="tile35_28.png" preserveAspectRatio="none" x="13776.855469" y="-3473.876953" width="2.197266" height="2.197266"/>
<image xlink:href="tile35_27.png" preserveAspectRatio="none" x="13776.855469" y="-3476.074219" width="2.197266" height="2.197266"/>
<image xlink:href="tile35_26.png" preserveAspectRatio="none" x="13776.855469" y="-3478.271484" width="2.197266" height="2.197266"/>
<image xlink:href="tile35_25.png" preserveAspectRatio="none" x="13776.855469" y="-3480.46875" width="2.197266" height="2.197266"/>
<image xlink:href="tile35_24.png" preserveAspectRatio="none" x="13776.855469" y="-3482.666016" width="2.197266" height="2.197266"/>
<image xlink:href="tile35_22.png" preserveAspectRatio="none" x="13776.855469" y="-3487.060547" width="2.197266" height="2.197266"/>
<image xlink:href="tile35_21.png" preserveAspectRatio="none" x="13776.855469" y="-3489.257812" width="2.197266" height="2.197266"/>
<image xlink:href="tile35_20.png" preserveAspectRatio="none" x="13776.855469" y="-3491.455078" width="2.197266" height="2.197266"/>
<image xlink:href="tile35_19.png" preserveAspectRatio="none" x="13776.855469" y="-3493.652344" width="2.197266" height="2.197266"/>
<image xlink:href="tile36_31.png" preserveAspectRatio="none" x="13779.052734" y="-3467.285156" width="2.197266" height="2.197266"/>
<image xlink:href="tile36_30.png" preserveAspectRatio="none" x="13779.052734" y="-3469.482422" width="2.197266" height="2.197266"/>
<image xlink:href="tile36_29.png" preserveAspectRatio="none" x="13779.052734" y="-3471.679688" width="2.197266" height="2.197266"/>
<image xlink:href="tile36_28.png" preserveAspectRatio="none" x="13779.052734" y="-3473.876953" width="2.197266" height="2.197266"/>
<image xlink:href="tile36_27.png" preserveAspectRatio="none" x="13779.052734" y="-3476.074219" width="2.197266" height="2.197266"/>
<image xlink:href="tile36_26.png" preserveAspectRatio="none" x="13779.052734" y="-3478.271484" width="2.197266" height="2.197266"/>
<image xlink:href="tile36_25.png" preserveAspectRatio="none" x="13779.052734" y="-3480.46875" width="2.197266" height="2.197266"/>
<image xlink:href="tile36_24.png" preserveAspectRatio="none" x="13779.052734" y="-3482.666016" width="2.197266" height="2.197266"/>
<image xlink:href="tile36_23.png" preserveAspectRatio="none" x="13779.052734" y="-3484.863281" width="2.197266" height="2.197266"/>
<image xlink:href="tile36_22.png" preserveAspectRatio="none" x="13779.052734" y="-3487.060547" width="2.197266" height="2.197266"/>
<image xlink:href="tile36_21.png" preserveAspectRatio="none" x="13779.052734" y="-3489.257812" width="2.197266" height="2.197266"/>
<image xlink:href="tile37_31.png" preserveAspectRatio="none" x="13781.25" y="-3467.285156" width="2.197266" height="2.197266"/>
<image xlink:href="tile37_30.png" preserveAspectRatio="none" x="13781.25" y="-3469.482422" width="2.197266" height="2.197266"/>
<image xlink:href="tile37_29.png" preserveAspectRatio="none" x="13781.25" y="-3471.679688" width="2.197266" height="2.197266"/>
<image xlink:href="tile37_28.png" preserveAspectRatio="none" x="13781.25" y="-3473.876953" width="2.197266" height="2.197266"/>
<image xlink:href="tile37_27.png" preserveAspectRatio="none" x="13781.25" y="-3476.074219" width="2.197266" height="2.197266"/>
<image xlink:href="tile37_26.png" preserveAspectRatio="none" x="13781.25" y="-3478.271484" width="2.197266" height="2.197266"/>
<image xlink:href="tile37_25.png" preserveAspectRatio="none" x="13781.25" y="-3480.46875" width="2.197266" height="2.197266"/>
<image xlink:href="tile37_24.png" preserveAspectRatio="none" x="13781.25" y="-3482.666016" width="2.197266" height="2.197266"/>
<image xlink:href="tile37_23.png" preserveAspectRatio="none" x="13781.25" y="-3484.863281" width="2.197266" height="2.197266"/>
<image xlink:href="tile37_22.png" preserveAspectRatio="none" x="13781.25" y="-3487.060547" width="2.197266" height="2.197266"/>
<image xlink:href="tile37_21.png" preserveAspectRatio="none" x="13781.25" y="-3489.257812" width="2.197266" height="2.197266"/>
<image xlink:href="tile37_20.png" preserveAspectRatio="none" x="13781.25" y="-3491.455078" width="2.197266" height="2.197266"/>
<image xlink:href="tile38_31.png" preserveAspectRatio="none" x="13783.447266" y="-3467.285156" width="2.197266" height="2.197266"/>
<image xlink:href="tile38_30.png" preserveAspectRatio="none" x="13783.447266" y="-3469.482422" width="2.197266" height="2.197266"/>
<image xlink:href="tile38_29.png" preserveAspectRatio="none" x="13783.447266" y="-3471.679688" width="2.197266" height="2.197266"/>
<image xlink:href="tile38_28.png" preserveAspectRatio="none" x="13783.447266" y="-3473.876953" width="2.197266" height="2.197266"/>
<image xlink:href="tile38_27.png" preserveAspectRatio="none" x="13783.447266" y="-3476.074219" width="2.197266" height="2.197266"/>
<image xlink:href="tile38_26.png" preserveAspectRatio="none" x="13783.447266" y="-3478.271484" width="2.197266" height="2.197266"/>
<image xlink:href="tile38_25.png" preserveAspectRatio="none" x="13783.447266" y="-3480.46875" width="2.197266" height="2.197266"/>
<image xlink:href="tile38_24.png" preserveAspectRatio="none" x="13783.447266" y="-3482.666016" width="2.197266" height="2.197266"/>
<image xlink:href="tile38_23.png" preserveAspectRatio="none" x="13783.447266" y="-3484.863281" width="2.197266" height="2.197266"/>
<image xlink:href="tile38_22.png" preserveAspectRatio="none" x="13783.447266" y="-3487.060547" width="2.197266" height="2.197266"/>
<image xlink:href="tile38_21.png" preserveAspectRatio="none" x="13783.447266" y="-3489.257812" width="2.197266" height="2.197266"/>
<image xlink:href="tile38_20.png" preserveAspectRatio="none" x="13783.447266" y="-3491.455078" width="2.197266" height="2.197266"/>
<image xlink:href="tile38_19.png" preserveAspectRatio="none" x="13783.447266" y="-3493.652344" width="2.197266" height="2.197266"/>
<image xlink:href="tile38_18.png" preserveAspectRatio="none" x="13783.447266" y="-3495.849609" width="2.197266" height="2.197266"/>
<image xlink:href="tile39_31.png" preserveAspectRatio="none" x="13785.644531" y="-3467.285156" width="2.197266" height="2.197266"/>
<image xlink:href="tile39_30.png" preserveAspectRatio="none" x="13785.644531" y="-3469.482422" width="2.197266" height="2.197266"/>
<image xlink:href="tile39_29.png" preserveAspectRatio="none" x="13785.644531" y="-3471.679688" width="2.197266" height="2.197266"/>
<image xlink:href="tile39_28.png" preserveAspectRatio="none" x="13785.644531" y="-3473.876953" width="2.197266" height="2.197266"/>
<image xlink:href="tile39_27.png" preserveAspectRatio="none" x="13785.644531" y="-3476.074219" width="2.197266" height="2.197266"/>
<image xlink:href="tile39_26.png" preserveAspectRatio="none" x="13785.644531" y="-3478.271484" width="2.197266" height="2.197266"/>
<image xlink:href="tile39_25.png" preserveAspectRatio="none" x="13785.644531" y="-3480.46875" width="2.197266" height="2.197266"/>
<image xlink:href="tile39_24.png" preserveAspectRatio="none" x="13785.644531" y="-3482.666016" width="2.197266" height="2.197266"/>
<image xlink:href="tile39_23.png" preserveAspectRatio="none" x="13785.644531" y="-3484.863281" width="2.197266" height="2.197266"/>
<image xlink:href="tile39_21.png" preserveAspectRatio="none" x="13785.644531" y="-3489.257812" width="2.197266" height="2.197266"/>
<image xlink:href="tile39_20.png" preserveAspectRatio="none" x="13785.644531" y="-3491.455078" width="2.197266" height="2.197266"/>
<image xlink:href="tile39_18.png" preserveAspectRatio="none" x="13785.644531" y="-3495.849609" width="2.197266" height="2.197266"/>
<image xlink:href="tile39_17.png" preserveAspectRatio="none" x="13785.644531" y="-3498.046875" width="2.197266" height="2.197266"/>
<image xlink:href="tile40_31.png" preserveAspectRatio="none" x="13787.841797" y="-3467.285156" width="2.197266" height="2.197266"/>
<image xlink:href="tile40_30.png" preserveAspectRatio="none" x="13787.841797" y="-3469.482422" width="2.197266" height="2.197266"/>
<image xlink:href="tile40_29.png" preserveAspectRatio="none" x="13787.841797" y="-3471.679688" width="2.197266" height="2.197266"/>
<image xlink:href="tile40_28.png" preserveAspectRatio="none" x="13787.841797" y="-3473.876953" width="2.197266" height="2.197266"/>
<image xlink:href="tile40_27.png" preserveAspectRatio="none" x="13787.841797" y="-3476.074219" width="2.197266" height="2.197266"/>
<image xlink:href="tile40_26.png" preserveAspectRatio="none" x="13787.841797" y="-3478.271484" width="2.197266" height="2.197266"/>
<image xlink:href="tile40_25.png" preserveAspectRatio="none" x="13787.841797" y="-3480.46875" width="2.197266" height="2.197266"/>
<image xlink:href="tile40_24.png" preserveAspectRatio="none" x="13787.841797" y="-3482.666016" width="2.197266" height="2.197266"/>
<image xlink:href="tile40_20.png" preserveAspectRatio="none" x="13787.841797" y="-3491.455078" width="2.197266" height="2.197266"/>
<image xlink:href="tile40_19.png" preserveAspectRatio="none" x="13787.841797" y="-3493.652344" width="2.197266" height="2.197266"/>
<image xlink:href="tile40_18.png" preserveAspectRatio="none" x="13787.841797" y="-3495.849609" width="2.197266" height="2.197266"/>
<image xlink:href="tile40_17.png" preserveAspectRatio="none" x="13787.841797" y="-3498.046875" width="2.197266" height="2.197266"/>
<image xlink:href="tile40_16.png" preserveAspectRatio="none" x="13787.841797" y="-3500.244141" width="2.197266" height="2.197266"/>
<image xlink:href="tile41_31.png" preserveAspectRatio="none" x="13790.039062" y="-3467.285156" width="2.197266" height="2.197266"/>
<image xlink:href="tile41_30.png" preserveAspectRatio="none" x="13790.039062" y="-3469.482422" width="2.197266" height="2.197266"/>
<image xlink:href="tile41_29.png" preserveAspectRatio="none" x="13790.039062" y="-3471.679688" width="2.197266" height="2.197266"/>
<image xlink:href="tile41_28.png" preserveAspectRatio="none" x="13790.039062" y="-3473.876953" width="2.197266" height="2.197266"/>
<image xlink:href="tile41_27.png" preserveAspectRatio="none" x="13790.039062" y="-3476.074219" width="2.197266" height="2.197266"/>
<image xlink:href="tile41_26.png" preserveAspectRatio="none" x="13790.039062" y="-3478.271484" width="2.197266" height="2.197266"/>
<image xlink:href="tile41_25.png" preserveAspectRatio="none" x="13790.039062" y="-3480.46875" width="2.197266" height="2.197266"/>
<image xlink:href="tile41_24.png" preserveAspectRatio="none" x="13790.039062" y="-3482.666016" width="2.197266" height="2.197266"/>
<image xlink:href="tile41_23.png" preserveAspectRatio="none" x="13790.039062" y="-3484.863281" width="2.197266" height="2.197266"/>
<image xlink:href="tile41_18.png" preserveAspectRatio="none" x="13790.039062" y="-3495.849609" width="2.197266" height="2.197266"/>
<image xlink:href="tile41_17.png" preserveAspectRatio="none" x="13790.039062" y="-3498.046875" width="2.197266" height="2.197266"/>
<image xlink:href="tile41_16.png" preserveAspectRatio="none" x="13790.039062" y="-3500.244141" width="2.197266" height="2.197266"/>
<image xlink:href="tile42_31.png" preserveAspectRatio="none" x="13792.236328" y="-3467.285156" width="2.197266" height="2.197266"/>
<image xlink:href="tile42_30.png" preserveAspectRatio="none" x="13792.236328" y="-3469.482422" width="2.197266" height="2.197266"/>
<image xlink:href="tile42_29.png" preserveAspectRatio="none" x="13792.236328" y="-3471.679688" width="2.197266" height="2.197266"/>
<image xlink:href="tile42_28.png" preserveAspectRatio="none" x="13792.236328" y="-3473.876953" width="2.197266" height="2.197266"/>
<image xlink:href="tile42_27.png" preserveAspectRatio="none" x="13792.236328" y="-3476.074219" width="2.197266" height="2.197266"/>
<image xlink:href="tile42_26.png" preserveAspectRatio="none" x="13792.236328" y="-3478.271484" width="2.197266" height="2.197266"/>
<image xlink:href="tile42_25.png" preserveAspectRatio="none" x="13792.236328" y="-3480.46875" width="2.197266" height="2.197266"/>
<image xlink:href="tile42_24.png" preserveAspectRatio="none" x="13792.236328" y="-3482.666016" width="2.197266" height="2.197266"/>
<image xlink:href="tile42_23.png" preserveAspectRatio="none" x="13792.236328" y="-3484.863281" width="2.197266" height="2.197266"/>
<image xlink:href="tile42_22.png" preserveAspectRatio="none" x="13792.236328" y="-3487.060547" width="2.197266" height="2.197266"/>
<image xlink:href="tile43_31.png" preserveAspectRatio="none" x="13794.433594" y="-3467.285156" width="2.197266" height="2.197266"/>
<image xlink:href="tile43_30.png" preserveAspectRatio="none" x="13794.433594" y="-3469.482422" width="2.197266" height="2.197266"/>
<image xlink:href="tile43_29.png" preserveAspectRatio="none" x="13794.433594" y="-3471.679688" width="2.197266" height="2.197266"/>
<image xlink:href="tile43_27.png" preserveAspectRatio="none" x="13794.433594" y="-3476.074219" width="2.197266" height="2.197266"/>
<image xlink:href="tile43_26.png" preserveAspectRatio="none" x="13794.433594" y="-3478.271484" width="2.197266" height="2.197266"/>
<image xlink:href="tile43_25.png" preserveAspectRatio="none" x="13794.433594" y="-3480.46875" width="2.197266" height="2.197266"/>
<image xlink:href="tile43_24.png" preserveAspectRatio="none" x="13794.433594" y="-3482.666016" width="2.197266" height="2.197266"/>
<image xlink:href="tile43_23.png" preserveAspectRatio="none" x="13794.433594" y="-3484.863281" width="2.197266" height="2.197266"/>
<image xlink:href="tile43_22.png" preserveAspectRatio="none" x="13794.433594" y="-3487.060547" width="2.197266" height="2.197266"/>
<image xlink:href="tile44_31.png" preserveAspectRatio="none" x="13796.630859" y="-3467.285156" width="2.197266" height="2.197266"/>
<image xlink:href="tile44_30.png" preserveAspectRatio="none" x="13796.630859" y="-3469.482422" width="2.197266" height="2.197266"/>
<image xlink:href="tile44_27.png" preserveAspectRatio="none" x="13796.630859" y="-3476.074219" width="2.197266" height="2.197266"/>
<image xlink:href="tile44_26.png" preserveAspectRatio="none" x="13796.630859" y="-3478.271484" width="2.197266" height="2.197266"/>
<image xlink:href="tile44_25.png" preserveAspectRatio="none" x="13796.630859" y="-3480.46875" width="2.197266" height="2.197266"/>
<image xlink:href="tile44_23.png" preserveAspectRatio="none" x="13796.630859" y="-3484.863281" width="2.197266" height="2.197266"/>
<image xlink:href="tile45_26.png" preserveAspectRatio="none" x="13798.828125" y="-3478.271484" width="2.197266" height="2.197266"/>
</g>
</svg>
