<?xml version="1.0" encoding="UTF-8"?>
<svg  xmlns="http://www.w3.org/2000/svg" xmlns:xlink="http://www.w3.org/1999/xlink" xmlns:go="http://purl.org/svgmap/profile" viewBox="14001.388924099998 -4000.0 98.51855650000232 66.66666699999979" go:dataArea="14001.388924099998 -4000.0 98.51855650000232 66.66666699999979" >
<metadata>
 <rdf:RDF xmlns:rdf="http://www.w3.org/1999/02/22-rdf-syntax-ns#" xmlns:crs="http://opengis.org/xmldtds/transformations.dtd" xmlns:svg="http://www.w3.org/svg" >
  <rdf:Description>
   <crs:CoordinateReferenceSystem rdf:resource="http://purl.org/crs/84" svg:transform="matrix(100.0,0.0,0.0,-100.0,0.0,0.0)" />
  </rdf:Description>
 </rdf:RDF>
</metadata>
<globalCoordinateSystem srsName="http://purl.org/crs/84" transform="matrix(100.0,0.0,0.0,-100.0,0.0,0.0)" />
<g >
<image xlink:href="tile48_60.png" preserveAspectRatio="none" x="14053.710938" y="-3934.204102" width="1.098633" height="1.098633"/>
<image xlink:href="tile48_59.png" preserveAspectRatio="none" x="14053.710938" y="-3935.302734" width="1.098633" height="1.098633"/>
<image xlink:href="tile48_58.png" preserveAspectRatio="none" x="14053.710938" y="-3936.401367" width="1.098633" height="1.098633"/>
<image xlink:href="tile48_53.png" preserveAspectRatio="none" x="14053.710938" y="-3941.894531" width="1.098633" height="1.098633"/>
<image xlink:href="tile48_52.png" preserveAspectRatio="none" x="14053.710938" y="-3942.993164" width="1.098633" height="1.098633"/>
<image xlink:href="tile48_51.png" preserveAspectRatio="none" x="14053.710938" y="-3944.091797" width="1.098633" height="1.098633"/>
<image xlink:href="tile48_50.png" preserveAspectRatio="none" x="14053.710938" y="-3945.19043" width="1.098633" height="1.098633"/>
<image xlink:href="tile48_49.png" preserveAspectRatio="none" x="14053.710938" y="-3946.289062" width="1.098633" height="1.098633"/>
<image xlink:href="tile48_48.png" preserveAspectRatio="none" x="14053.710938" y="-3947.387695" width="1.098633" height="1.098633"/>
<image xlink:href="tile48_47.png" preserveAspectRatio="none" x="14053.710938" y="-3948.486328" width="1.098633" height="1.098633"/>
<image xlink:href="tile48_46.png" preserveAspectRatio="none" x="14053.710938" y="-3949.584961" width="1.098633" height="1.098633"/>
<image xlink:href="tile48_45.png" preserveAspectRatio="none" x="14053.710938" y="-3950.683594" width="1.098633" height="1.098633"/>
<image xlink:href="tile49_60.png" preserveAspectRatio="none" x="14054.80957" y="-3934.204102" width="1.098633" height="1.098633"/>
<image xlink:href="tile49_59.png" preserveAspectRatio="none" x="14054.80957" y="-3935.302734" width="1.098633" height="1.098633"/>
<image xlink:href="tile49_53.png" preserveAspectRatio="none" x="14054.80957" y="-3941.894531" width="1.098633" height="1.098633"/>
<image xlink:href="tile49_51.png" preserveAspectRatio="none" x="14054.80957" y="-3944.091797" width="1.098633" height="1.098633"/>
<image xlink:href="tile49_50.png" preserveAspectRatio="none" x="14054.80957" y="-3945.19043" width="1.098633" height="1.098633"/>
<image xlink:href="tile49_49.png" preserveAspectRatio="none" x="14054.80957" y="-3946.289062" width="1.098633" height="1.098633"/>
<image xlink:href="tile49_48.png" preserveAspectRatio="none" x="14054.80957" y="-3947.387695" width="1.098633" height="1.098633"/>
<image xlink:href="tile49_47.png" preserveAspectRatio="none" x="14054.80957" y="-3948.486328" width="1.098633" height="1.098633"/>
<image xlink:href="tile49_46.png" preserveAspectRatio="none" x="14054.80957" y="-3949.584961" width="1.098633" height="1.098633"/>
<image xlink:href="tile49_45.png" preserveAspectRatio="none" x="14054.80957" y="-3950.683594" width="1.098633" height="1.098633"/>
<image xlink:href="tile50_60.png" preserveAspectRatio="none" x="14055.908203" y="-3934.204102" width="1.098633" height="1.098633"/>
<image xlink:href="tile50_53.png" preserveAspectRatio="none" x="14055.908203" y="-3941.894531" width="1.098633" height="1.098633"/>
<image xlink:href="tile50_52.png" preserveAspectRatio="none" x="14055.908203" y="-3942.993164" width="1.098633" height="1.098633"/>
<image xlink:href="tile50_51.png" preserveAspectRatio="none" x="14055.908203" y="-3944.091797" width="1.098633" height="1.098633"/>
<image xlink:href="tile50_50.png" preserveAspectRatio="none" x="14055.908203" y="-3945.19043" width="1.098633" height="1.098633"/>
<image xlink:href="tile50_49.png" preserveAspectRatio="none" x="14055.908203" y="-3946.289062" width="1.098633" height="1.098633"/>
<image xlink:href="tile50_48.png" preserveAspectRatio="none" x="14055.908203" y="-3947.387695" width="1.098633" height="1.098633"/>
<image xlink:href="tile50_47.png" preserveAspectRatio="none" x="14055.908203" y="-3948.486328" width="1.098633" height="1.098633"/>
<image xlink:href="tile50_46.png" preserveAspectRatio="none" x="14055.908203" y="-3949.584961" width="1.098633" height="1.098633"/>
<image xlink:href="tile50_45.png" preserveAspectRatio="none" x="14055.908203" y="-3950.683594" width="1.098633" height="1.098633"/>
<image xlink:href="tile51_53.png" preserveAspectRatio="none" x="14057.006836" y="-3941.894531" width="1.098633" height="1.098633"/>
<image xlink:href="tile51_52.png" preserveAspectRatio="none" x="14057.006836" y="-3942.993164" width="1.098633" height="1.098633"/>
<image xlink:href="tile51_51.png" preserveAspectRatio="none" x="14057.006836" y="-3944.091797" width="1.098633" height="1.098633"/>
<image xlink:href="tile51_50.png" preserveAspectRatio="none" x="14057.006836" y="-3945.19043" width="1.098633" height="1.098633"/>
<image xlink:href="tile51_49.png" preserveAspectRatio="none" x="14057.006836" y="-3946.289062" width="1.098633" height="1.098633"/>
<image xlink:href="tile51_47.png" preserveAspectRatio="none" x="14057.006836" y="-3948.486328" width="1.098633" height="1.098633"/>
<image xlink:href="tile51_46.png" preserveAspectRatio="none" x="14057.006836" y="-3949.584961" width="1.098633" height="1.098633"/>
<image xlink:href="tile51_45.png" preserveAspectRatio="none" x="14057.006836" y="-3950.683594" width="1.098633" height="1.098633"/>
<image xlink:href="tile52_53.png" preserveAspectRatio="none" x="14058.105469" y="-3941.894531" width="1.098633" height="1.098633"/>
<image xlink:href="tile52_52.png" preserveAspectRatio="none" x="14058.105469" y="-3942.993164" width="1.098633" height="1.098633"/>
<image xlink:href="tile52_51.png" preserveAspectRatio="none" x="14058.105469" y="-3944.091797" width="1.098633" height="1.098633"/>
<image xlink:href="tile52_50.png" preserveAspectRatio="none" x="14058.105469" y="-3945.19043" width="1.098633" height="1.098633"/>
<image xlink:href="tile52_47.png" preserveAspectRatio="none" x="14058.105469" y="-3948.486328" width="1.098633" height="1.098633"/>
<image xlink:href="tile52_46.png" preserveAspectRatio="none" x="14058.105469" y="-3949.584961" width="1.098633" height="1.098633"/>
<image xlink:href="tile52_45.png" preserveAspectRatio="none" x="14058.105469" y="-3950.683594" width="1.098633" height="1.098633"/>
<image xlink:href="tile53_53.png" preserveAspectRatio="none" x="14059.204102" y="-3941.894531" width="1.098633" height="1.098633"/>
<image xlink:href="tile53_46.png" preserveAspectRatio="none" x="14059.204102" y="-3949.584961" width="1.098633" height="1.098633"/>
<image xlink:href="tile53_45.png" preserveAspectRatio="none" x="14059.204102" y="-3950.683594" width="1.098633" height="1.098633"/>
<image xlink:href="tile54_46.png" preserveAspectRatio="none" x="14060.302734" y="-3949.584961" width="1.098633" height="1.098633"/>
<image xlink:href="tile54_45.png" preserveAspectRatio="none" x="14060.302734" y="-3950.683594" width="1.098633" height="1.098633"/>
<image xlink:href="tile55_46.png" preserveAspectRatio="none" x="14061.401367" y="-3949.584961" width="1.098633" height="1.098633"/>
<image xlink:href="tile55_45.png" preserveAspectRatio="none" x="14061.401367" y="-3950.683594" width="1.098633" height="1.098633"/>
<image xlink:href="tile56_46.png" preserveAspectRatio="none" x="14062.5" y="-3949.584961" width="1.098633" height="1.098633"/>
<image xlink:href="tile56_45.png" preserveAspectRatio="none" x="14062.5" y="-3950.683594" width="1.098633" height="1.098633"/>
<image xlink:href="tile57_45.png" preserveAspectRatio="none" x="14063.598633" y="-3950.683594" width="1.098633" height="1.098633"/>
</g>
</svg>
