<?xml version="1.0" encoding="UTF-8"?>
<svg  xmlns="http://www.w3.org/2000/svg" xmlns:xlink="http://www.w3.org/1999/xlink" xmlns:go="http://purl.org/svgmap/profile" viewBox="13000.0 -3333.3333332 100.0 66.66666620000044" go:dataArea="13000.0 -3333.3333332 100.0 66.66666620000044" >
<metadata>
 <rdf:RDF xmlns:rdf="http://www.w3.org/1999/02/22-rdf-syntax-ns#" xmlns:crs="http://opengis.org/xmldtds/transformations.dtd" xmlns:svg="http://www.w3.org/svg" >
  <rdf:Description>
   <crs:CoordinateReferenceSystem rdf:resource="http://purl.org/crs/84" svg:transform="matrix(100.0,0.0,0.0,-100.0,0.0,0.0)" />
  </rdf:Description>
 </rdf:RDF>
</metadata>
<globalCoordinateSystem srsName="http://purl.org/crs/84" transform="matrix(100.0,0.0,0.0,-100.0,0.0,0.0)" />
<g >
<image xlink:href="tile0_18.png" preserveAspectRatio="none" x="12999.023438" y="-3295.898438" width="2.197266" height="2.197266"/>
<image xlink:href="tile1_17.png" preserveAspectRatio="none" x="13001.220703" y="-3298.095703" width="2.197266" height="2.197266"/>
<image xlink:href="tile2_24.png" preserveAspectRatio="none" x="13003.417969" y="-3282.714844" width="2.197266" height="2.197266"/>
<image xlink:href="tile2_23.png" preserveAspectRatio="none" x="13003.417969" y="-3284.912109" width="2.197266" height="2.197266"/>
<image xlink:href="tile2_22.png" preserveAspectRatio="none" x="13003.417969" y="-3287.109375" width="2.197266" height="2.197266"/>
<image xlink:href="tile3_24.png" preserveAspectRatio="none" x="13005.615234" y="-3282.714844" width="2.197266" height="2.197266"/>
<image xlink:href="tile3_23.png" preserveAspectRatio="none" x="13005.615234" y="-3284.912109" width="2.197266" height="2.197266"/>
<image xlink:href="tile3_22.png" preserveAspectRatio="none" x="13005.615234" y="-3287.109375" width="2.197266" height="2.197266"/>
<image xlink:href="tile4_24.png" preserveAspectRatio="none" x="13007.8125" y="-3282.714844" width="2.197266" height="2.197266"/>
<image xlink:href="tile4_23.png" preserveAspectRatio="none" x="13007.8125" y="-3284.912109" width="2.197266" height="2.197266"/>
<image xlink:href="tile4_22.png" preserveAspectRatio="none" x="13007.8125" y="-3287.109375" width="2.197266" height="2.197266"/>
<image xlink:href="tile4_21.png" preserveAspectRatio="none" x="13007.8125" y="-3289.306641" width="2.197266" height="2.197266"/>
<image xlink:href="tile5_24.png" preserveAspectRatio="none" x="13010.009766" y="-3282.714844" width="2.197266" height="2.197266"/>
<image xlink:href="tile5_23.png" preserveAspectRatio="none" x="13010.009766" y="-3284.912109" width="2.197266" height="2.197266"/>
<image xlink:href="tile5_22.png" preserveAspectRatio="none" x="13010.009766" y="-3287.109375" width="2.197266" height="2.197266"/>
<image xlink:href="tile5_21.png" preserveAspectRatio="none" x="13010.009766" y="-3289.306641" width="2.197266" height="2.197266"/>
<image xlink:href="tile6_23.png" preserveAspectRatio="none" x="13012.207031" y="-3284.912109" width="2.197266" height="2.197266"/>
<image xlink:href="tile6_22.png" preserveAspectRatio="none" x="13012.207031" y="-3287.109375" width="2.197266" height="2.197266"/>
<image xlink:href="tile6_21.png" preserveAspectRatio="none" x="13012.207031" y="-3289.306641" width="2.197266" height="2.197266"/>
<image xlink:href="tile6_20.png" preserveAspectRatio="none" x="13012.207031" y="-3291.503906" width="2.197266" height="2.197266"/>
<image xlink:href="tile8_23.png" preserveAspectRatio="none" x="13016.601562" y="-3284.912109" width="2.197266" height="2.197266"/>
<image xlink:href="tile9_24.png" preserveAspectRatio="none" x="13018.798828" y="-3282.714844" width="2.197266" height="2.197266"/>
<image xlink:href="tile9_23.png" preserveAspectRatio="none" x="13018.798828" y="-3284.912109" width="2.197266" height="2.197266"/>
<image xlink:href="tile13_31.png" preserveAspectRatio="none" x="13027.587891" y="-3267.333984" width="2.197266" height="2.197266"/>
<image xlink:href="tile14_31.png" preserveAspectRatio="none" x="13029.785156" y="-3267.333984" width="2.197266" height="2.197266"/>
</g>
</svg>
