<?xml version="1.0" encoding="UTF-8"?>
<svg  xmlns="http://www.w3.org/2000/svg" xmlns:xlink="http://www.w3.org/1999/xlink" xmlns:go="http://purl.org/svgmap/profile" viewBox="14000.1196316 -4066.666667 99.8803683999995 66.66666699999979" go:dataArea="14000.1196316 -4066.666667 99.8803683999995 66.66666699999979" >
<metadata>
 <rdf:RDF xmlns:rdf="http://www.w3.org/1999/02/22-rdf-syntax-ns#" xmlns:crs="http://opengis.org/xmldtds/transformations.dtd" xmlns:svg="http://www.w3.org/svg" >
  <rdf:Description>
   <crs:CoordinateReferenceSystem rdf:resource="http://purl.org/crs/84" svg:transform="matrix(100.0,0.0,0.0,-100.0,0.0,0.0)" />
  </rdf:Description>
 </rdf:RDF>
</metadata>
<globalCoordinateSystem srsName="http://purl.org/crs/84" transform="matrix(100.0,0.0,0.0,-100.0,0.0,0.0)" />
<g >
<image xlink:href="tile64_40.png" preserveAspectRatio="none" x="14070.19043" y="-4023.193359" width="1.098633" height="1.098633"/>
<image xlink:href="tile64_39.png" preserveAspectRatio="none" x="14070.19043" y="-4024.291992" width="1.098633" height="1.098633"/>
<image xlink:href="tile65_40.png" preserveAspectRatio="none" x="14071.289062" y="-4023.193359" width="1.098633" height="1.098633"/>
<image xlink:href="tile65_39.png" preserveAspectRatio="none" x="14071.289062" y="-4024.291992" width="1.098633" height="1.098633"/>
<image xlink:href="tile66_40.png" preserveAspectRatio="none" x="14072.387695" y="-4023.193359" width="1.098633" height="1.098633"/>
<image xlink:href="tile66_39.png" preserveAspectRatio="none" x="14072.387695" y="-4024.291992" width="1.098633" height="1.098633"/>
<image xlink:href="tile66_38.png" preserveAspectRatio="none" x="14072.387695" y="-4025.390625" width="1.098633" height="1.098633"/>
<image xlink:href="tile66_30.png" preserveAspectRatio="none" x="14072.387695" y="-4034.179688" width="1.098633" height="1.098633"/>
<image xlink:href="tile67_40.png" preserveAspectRatio="none" x="14073.486328" y="-4023.193359" width="1.098633" height="1.098633"/>
<image xlink:href="tile67_39.png" preserveAspectRatio="none" x="14073.486328" y="-4024.291992" width="1.098633" height="1.098633"/>
<image xlink:href="tile67_38.png" preserveAspectRatio="none" x="14073.486328" y="-4025.390625" width="1.098633" height="1.098633"/>
<image xlink:href="tile67_34.png" preserveAspectRatio="none" x="14073.486328" y="-4029.785156" width="1.098633" height="1.098633"/>
<image xlink:href="tile67_33.png" preserveAspectRatio="none" x="14073.486328" y="-4030.883789" width="1.098633" height="1.098633"/>
<image xlink:href="tile67_32.png" preserveAspectRatio="none" x="14073.486328" y="-4031.982422" width="1.098633" height="1.098633"/>
<image xlink:href="tile67_31.png" preserveAspectRatio="none" x="14073.486328" y="-4033.081055" width="1.098633" height="1.098633"/>
<image xlink:href="tile67_30.png" preserveAspectRatio="none" x="14073.486328" y="-4034.179688" width="1.098633" height="1.098633"/>
<image xlink:href="tile68_38.png" preserveAspectRatio="none" x="14074.584961" y="-4025.390625" width="1.098633" height="1.098633"/>
<image xlink:href="tile68_37.png" preserveAspectRatio="none" x="14074.584961" y="-4026.489258" width="1.098633" height="1.098633"/>
<image xlink:href="tile68_36.png" preserveAspectRatio="none" x="14074.584961" y="-4027.587891" width="1.098633" height="1.098633"/>
<image xlink:href="tile68_35.png" preserveAspectRatio="none" x="14074.584961" y="-4028.686523" width="1.098633" height="1.098633"/>
<image xlink:href="tile68_34.png" preserveAspectRatio="none" x="14074.584961" y="-4029.785156" width="1.098633" height="1.098633"/>
<image xlink:href="tile68_33.png" preserveAspectRatio="none" x="14074.584961" y="-4030.883789" width="1.098633" height="1.098633"/>
<image xlink:href="tile68_32.png" preserveAspectRatio="none" x="14074.584961" y="-4031.982422" width="1.098633" height="1.098633"/>
<image xlink:href="tile68_31.png" preserveAspectRatio="none" x="14074.584961" y="-4033.081055" width="1.098633" height="1.098633"/>
<image xlink:href="tile69_38.png" preserveAspectRatio="none" x="14075.683594" y="-4025.390625" width="1.098633" height="1.098633"/>
<image xlink:href="tile69_37.png" preserveAspectRatio="none" x="14075.683594" y="-4026.489258" width="1.098633" height="1.098633"/>
<image xlink:href="tile69_36.png" preserveAspectRatio="none" x="14075.683594" y="-4027.587891" width="1.098633" height="1.098633"/>
<image xlink:href="tile69_35.png" preserveAspectRatio="none" x="14075.683594" y="-4028.686523" width="1.098633" height="1.098633"/>
<image xlink:href="tile69_34.png" preserveAspectRatio="none" x="14075.683594" y="-4029.785156" width="1.098633" height="1.098633"/>
<image xlink:href="tile70_43.png" preserveAspectRatio="none" x="14076.782227" y="-4019.897461" width="1.098633" height="1.098633"/>
<image xlink:href="tile70_42.png" preserveAspectRatio="none" x="14076.782227" y="-4020.996094" width="1.098633" height="1.098633"/>
<image xlink:href="tile70_41.png" preserveAspectRatio="none" x="14076.782227" y="-4022.094727" width="1.098633" height="1.098633"/>
<image xlink:href="tile70_40.png" preserveAspectRatio="none" x="14076.782227" y="-4023.193359" width="1.098633" height="1.098633"/>
<image xlink:href="tile70_39.png" preserveAspectRatio="none" x="14076.782227" y="-4024.291992" width="1.098633" height="1.098633"/>
<image xlink:href="tile70_38.png" preserveAspectRatio="none" x="14076.782227" y="-4025.390625" width="1.098633" height="1.098633"/>
<image xlink:href="tile70_37.png" preserveAspectRatio="none" x="14076.782227" y="-4026.489258" width="1.098633" height="1.098633"/>
<image xlink:href="tile70_36.png" preserveAspectRatio="none" x="14076.782227" y="-4027.587891" width="1.098633" height="1.098633"/>
<image xlink:href="tile71_45.png" preserveAspectRatio="none" x="14077.880859" y="-4017.700195" width="1.098633" height="1.098633"/>
<image xlink:href="tile71_44.png" preserveAspectRatio="none" x="14077.880859" y="-4018.798828" width="1.098633" height="1.098633"/>
<image xlink:href="tile71_43.png" preserveAspectRatio="none" x="14077.880859" y="-4019.897461" width="1.098633" height="1.098633"/>
<image xlink:href="tile71_42.png" preserveAspectRatio="none" x="14077.880859" y="-4020.996094" width="1.098633" height="1.098633"/>
<image xlink:href="tile71_41.png" preserveAspectRatio="none" x="14077.880859" y="-4022.094727" width="1.098633" height="1.098633"/>
<image xlink:href="tile71_40.png" preserveAspectRatio="none" x="14077.880859" y="-4023.193359" width="1.098633" height="1.098633"/>
<image xlink:href="tile71_39.png" preserveAspectRatio="none" x="14077.880859" y="-4024.291992" width="1.098633" height="1.098633"/>
<image xlink:href="tile71_38.png" preserveAspectRatio="none" x="14077.880859" y="-4025.390625" width="1.098633" height="1.098633"/>
<image xlink:href="tile71_37.png" preserveAspectRatio="none" x="14077.880859" y="-4026.489258" width="1.098633" height="1.098633"/>
<image xlink:href="tile71_36.png" preserveAspectRatio="none" x="14077.880859" y="-4027.587891" width="1.098633" height="1.098633"/>
<image xlink:href="tile72_45.png" preserveAspectRatio="none" x="14078.979492" y="-4017.700195" width="1.098633" height="1.098633"/>
<image xlink:href="tile72_43.png" preserveAspectRatio="none" x="14078.979492" y="-4019.897461" width="1.098633" height="1.098633"/>
<image xlink:href="tile72_42.png" preserveAspectRatio="none" x="14078.979492" y="-4020.996094" width="1.098633" height="1.098633"/>
<image xlink:href="tile72_40.png" preserveAspectRatio="none" x="14078.979492" y="-4023.193359" width="1.098633" height="1.098633"/>
<image xlink:href="tile72_37.png" preserveAspectRatio="none" x="14078.979492" y="-4026.489258" width="1.098633" height="1.098633"/>
<image xlink:href="tile72_36.png" preserveAspectRatio="none" x="14078.979492" y="-4027.587891" width="1.098633" height="1.098633"/>
<image xlink:href="tile72_35.png" preserveAspectRatio="none" x="14078.979492" y="-4028.686523" width="1.098633" height="1.098633"/>
<image xlink:href="tile73_44.png" preserveAspectRatio="none" x="14080.078125" y="-4018.798828" width="1.098633" height="1.098633"/>
<image xlink:href="tile73_43.png" preserveAspectRatio="none" x="14080.078125" y="-4019.897461" width="1.098633" height="1.098633"/>
<image xlink:href="tile73_36.png" preserveAspectRatio="none" x="14080.078125" y="-4027.587891" width="1.098633" height="1.098633"/>
<image xlink:href="tile73_35.png" preserveAspectRatio="none" x="14080.078125" y="-4028.686523" width="1.098633" height="1.098633"/>
<image xlink:href="tile73_34.png" preserveAspectRatio="none" x="14080.078125" y="-4029.785156" width="1.098633" height="1.098633"/>
<image xlink:href="tile74_44.png" preserveAspectRatio="none" x="14081.176758" y="-4018.798828" width="1.098633" height="1.098633"/>
<image xlink:href="tile74_43.png" preserveAspectRatio="none" x="14081.176758" y="-4019.897461" width="1.098633" height="1.098633"/>
<image xlink:href="tile74_34.png" preserveAspectRatio="none" x="14081.176758" y="-4029.785156" width="1.098633" height="1.098633"/>
<image xlink:href="tile75_34.png" preserveAspectRatio="none" x="14082.275391" y="-4029.785156" width="1.098633" height="1.098633"/>
<image xlink:href="tile75_33.png" preserveAspectRatio="none" x="14082.275391" y="-4030.883789" width="1.098633" height="1.098633"/>
<image xlink:href="tile76_34.png" preserveAspectRatio="none" x="14083.374023" y="-4029.785156" width="1.098633" height="1.098633"/>
<image xlink:href="tile76_33.png" preserveAspectRatio="none" x="14083.374023" y="-4030.883789" width="1.098633" height="1.098633"/>
</g>
</svg>
