<?xml version="1.0" encoding="UTF-8"?>
<svg  xmlns="http://www.w3.org/2000/svg" xmlns:xlink="http://www.w3.org/1999/xlink" xmlns:go="http://purl.org/svgmap/profile" viewBox="14000.1196316 -4066.666667 99.8803683999995 66.66666699999979" go:dataArea="14000.1196316 -4066.666667 99.8803683999995 66.66666699999979" >
<metadata>
 <rdf:RDF xmlns:rdf="http://www.w3.org/1999/02/22-rdf-syntax-ns#" xmlns:crs="http://opengis.org/xmldtds/transformations.dtd" xmlns:svg="http://www.w3.org/svg" >
  <rdf:Description>
   <crs:CoordinateReferenceSystem rdf:resource="http://purl.org/crs/84" svg:transform="matrix(100.0,0.0,0.0,-100.0,0.0,0.0)" />
  </rdf:Description>
 </rdf:RDF>
</metadata>
<globalCoordinateSystem srsName="http://purl.org/crs/84" transform="matrix(100.0,0.0,0.0,-100.0,0.0,0.0)" />
<g >
<image xlink:href="tile0_53.png" preserveAspectRatio="none" x="13999.87793" y="-4008.911133" width="1.098633" height="1.098633"/>
<image xlink:href="tile0_52.png" preserveAspectRatio="none" x="13999.87793" y="-4010.009766" width="1.098633" height="1.098633"/>
<image xlink:href="tile0_51.png" preserveAspectRatio="none" x="13999.87793" y="-4011.108398" width="1.098633" height="1.098633"/>
<image xlink:href="tile1_53.png" preserveAspectRatio="none" x="14000.976562" y="-4008.911133" width="1.098633" height="1.098633"/>
<image xlink:href="tile1_52.png" preserveAspectRatio="none" x="14000.976562" y="-4010.009766" width="1.098633" height="1.098633"/>
<image xlink:href="tile1_51.png" preserveAspectRatio="none" x="14000.976562" y="-4011.108398" width="1.098633" height="1.098633"/>
<image xlink:href="tile2_54.png" preserveAspectRatio="none" x="14002.075195" y="-4007.8125" width="1.098633" height="1.098633"/>
<image xlink:href="tile2_53.png" preserveAspectRatio="none" x="14002.075195" y="-4008.911133" width="1.098633" height="1.098633"/>
<image xlink:href="tile2_52.png" preserveAspectRatio="none" x="14002.075195" y="-4010.009766" width="1.098633" height="1.098633"/>
<image xlink:href="tile2_51.png" preserveAspectRatio="none" x="14002.075195" y="-4011.108398" width="1.098633" height="1.098633"/>
<image xlink:href="tile3_54.png" preserveAspectRatio="none" x="14003.173828" y="-4007.8125" width="1.098633" height="1.098633"/>
<image xlink:href="tile3_53.png" preserveAspectRatio="none" x="14003.173828" y="-4008.911133" width="1.098633" height="1.098633"/>
<image xlink:href="tile3_52.png" preserveAspectRatio="none" x="14003.173828" y="-4010.009766" width="1.098633" height="1.098633"/>
<image xlink:href="tile3_51.png" preserveAspectRatio="none" x="14003.173828" y="-4011.108398" width="1.098633" height="1.098633"/>
<image xlink:href="tile4_54.png" preserveAspectRatio="none" x="14004.272461" y="-4007.8125" width="1.098633" height="1.098633"/>
<image xlink:href="tile4_53.png" preserveAspectRatio="none" x="14004.272461" y="-4008.911133" width="1.098633" height="1.098633"/>
<image xlink:href="tile4_52.png" preserveAspectRatio="none" x="14004.272461" y="-4010.009766" width="1.098633" height="1.098633"/>
<image xlink:href="tile4_51.png" preserveAspectRatio="none" x="14004.272461" y="-4011.108398" width="1.098633" height="1.098633"/>
<image xlink:href="tile5_55.png" preserveAspectRatio="none" x="14005.371094" y="-4006.713867" width="1.098633" height="1.098633"/>
<image xlink:href="tile5_54.png" preserveAspectRatio="none" x="14005.371094" y="-4007.8125" width="1.098633" height="1.098633"/>
<image xlink:href="tile5_53.png" preserveAspectRatio="none" x="14005.371094" y="-4008.911133" width="1.098633" height="1.098633"/>
<image xlink:href="tile5_52.png" preserveAspectRatio="none" x="14005.371094" y="-4010.009766" width="1.098633" height="1.098633"/>
<image xlink:href="tile5_51.png" preserveAspectRatio="none" x="14005.371094" y="-4011.108398" width="1.098633" height="1.098633"/>
<image xlink:href="tile5_50.png" preserveAspectRatio="none" x="14005.371094" y="-4012.207031" width="1.098633" height="1.098633"/>
<image xlink:href="tile6_55.png" preserveAspectRatio="none" x="14006.469727" y="-4006.713867" width="1.098633" height="1.098633"/>
<image xlink:href="tile6_54.png" preserveAspectRatio="none" x="14006.469727" y="-4007.8125" width="1.098633" height="1.098633"/>
<image xlink:href="tile6_52.png" preserveAspectRatio="none" x="14006.469727" y="-4010.009766" width="1.098633" height="1.098633"/>
<image xlink:href="tile6_51.png" preserveAspectRatio="none" x="14006.469727" y="-4011.108398" width="1.098633" height="1.098633"/>
<image xlink:href="tile7_52.png" preserveAspectRatio="none" x="14007.568359" y="-4010.009766" width="1.098633" height="1.098633"/>
<image xlink:href="tile7_51.png" preserveAspectRatio="none" x="14007.568359" y="-4011.108398" width="1.098633" height="1.098633"/>
<image xlink:href="tile8_53.png" preserveAspectRatio="none" x="14008.666992" y="-4008.911133" width="1.098633" height="1.098633"/>
<image xlink:href="tile8_52.png" preserveAspectRatio="none" x="14008.666992" y="-4010.009766" width="1.098633" height="1.098633"/>
<image xlink:href="tile9_53.png" preserveAspectRatio="none" x="14009.765625" y="-4008.911133" width="1.098633" height="1.098633"/>
<image xlink:href="tile9_52.png" preserveAspectRatio="none" x="14009.765625" y="-4010.009766" width="1.098633" height="1.098633"/>
<image xlink:href="tile10_53.png" preserveAspectRatio="none" x="14010.864258" y="-4008.911133" width="1.098633" height="1.098633"/>
<image xlink:href="tile10_52.png" preserveAspectRatio="none" x="14010.864258" y="-4010.009766" width="1.098633" height="1.098633"/>
<image xlink:href="tile11_53.png" preserveAspectRatio="none" x="14011.962891" y="-4008.911133" width="1.098633" height="1.098633"/>
<image xlink:href="tile11_52.png" preserveAspectRatio="none" x="14011.962891" y="-4010.009766" width="1.098633" height="1.098633"/>
<image xlink:href="tile11_51.png" preserveAspectRatio="none" x="14011.962891" y="-4011.108398" width="1.098633" height="1.098633"/>
<image xlink:href="tile12_54.png" preserveAspectRatio="none" x="14013.061523" y="-4007.8125" width="1.098633" height="1.098633"/>
<image xlink:href="tile12_53.png" preserveAspectRatio="none" x="14013.061523" y="-4008.911133" width="1.098633" height="1.098633"/>
<image xlink:href="tile12_52.png" preserveAspectRatio="none" x="14013.061523" y="-4010.009766" width="1.098633" height="1.098633"/>
<image xlink:href="tile12_51.png" preserveAspectRatio="none" x="14013.061523" y="-4011.108398" width="1.098633" height="1.098633"/>
<image xlink:href="tile13_56.png" preserveAspectRatio="none" x="14014.160156" y="-4005.615234" width="1.098633" height="1.098633"/>
<image xlink:href="tile13_55.png" preserveAspectRatio="none" x="14014.160156" y="-4006.713867" width="1.098633" height="1.098633"/>
<image xlink:href="tile13_54.png" preserveAspectRatio="none" x="14014.160156" y="-4007.8125" width="1.098633" height="1.098633"/>
<image xlink:href="tile13_53.png" preserveAspectRatio="none" x="14014.160156" y="-4008.911133" width="1.098633" height="1.098633"/>
<image xlink:href="tile13_52.png" preserveAspectRatio="none" x="14014.160156" y="-4010.009766" width="1.098633" height="1.098633"/>
<image xlink:href="tile13_51.png" preserveAspectRatio="none" x="14014.160156" y="-4011.108398" width="1.098633" height="1.098633"/>
<image xlink:href="tile14_57.png" preserveAspectRatio="none" x="14015.258789" y="-4004.516602" width="1.098633" height="1.098633"/>
<image xlink:href="tile14_56.png" preserveAspectRatio="none" x="14015.258789" y="-4005.615234" width="1.098633" height="1.098633"/>
<image xlink:href="tile14_55.png" preserveAspectRatio="none" x="14015.258789" y="-4006.713867" width="1.098633" height="1.098633"/>
<image xlink:href="tile15_57.png" preserveAspectRatio="none" x="14016.357422" y="-4004.516602" width="1.098633" height="1.098633"/>
</g>
</svg>
