<?xml version="1.0" encoding="UTF-8"?>
<svg  xmlns="http://www.w3.org/2000/svg" xmlns:xlink="http://www.w3.org/1999/xlink" xmlns:go="http://purl.org/svgmap/profile" viewBox="13900.0 -3600.0 100.0 65.76247980000005" go:dataArea="13900.0 -3600.0 100.0 65.76247980000005" >
<metadata>
 <rdf:RDF xmlns:rdf="http://www.w3.org/1999/02/22-rdf-syntax-ns#" xmlns:crs="http://opengis.org/xmldtds/transformations.dtd" xmlns:svg="http://www.w3.org/svg" >
  <rdf:Description>
   <crs:CoordinateReferenceSystem rdf:resource="http://purl.org/crs/84" svg:transform="matrix(100.0,0.0,0.0,-100.0,0.0,0.0)" />
  </rdf:Description>
 </rdf:RDF>
</metadata>
<globalCoordinateSystem srsName="http://purl.org/crs/84" transform="matrix(100.0,0.0,0.0,-100.0,0.0,0.0)" />
<g >
<image xlink:href="tile16_18.png" preserveAspectRatio="none" x="13935.058594" y="-3561.767578" width="2.197266" height="2.197266"/>
<image xlink:href="tile16_17.png" preserveAspectRatio="none" x="13935.058594" y="-3563.964844" width="2.197266" height="2.197266"/>
<image xlink:href="tile16_16.png" preserveAspectRatio="none" x="13935.058594" y="-3566.162109" width="2.197266" height="2.197266"/>
<image xlink:href="tile16_15.png" preserveAspectRatio="none" x="13935.058594" y="-3568.359375" width="2.197266" height="2.197266"/>
<image xlink:href="tile17_18.png" preserveAspectRatio="none" x="13937.255859" y="-3561.767578" width="2.197266" height="2.197266"/>
<image xlink:href="tile17_17.png" preserveAspectRatio="none" x="13937.255859" y="-3563.964844" width="2.197266" height="2.197266"/>
<image xlink:href="tile17_16.png" preserveAspectRatio="none" x="13937.255859" y="-3566.162109" width="2.197266" height="2.197266"/>
<image xlink:href="tile17_15.png" preserveAspectRatio="none" x="13937.255859" y="-3568.359375" width="2.197266" height="2.197266"/>
<image xlink:href="tile18_18.png" preserveAspectRatio="none" x="13939.453125" y="-3561.767578" width="2.197266" height="2.197266"/>
<image xlink:href="tile18_17.png" preserveAspectRatio="none" x="13939.453125" y="-3563.964844" width="2.197266" height="2.197266"/>
<image xlink:href="tile18_16.png" preserveAspectRatio="none" x="13939.453125" y="-3566.162109" width="2.197266" height="2.197266"/>
<image xlink:href="tile18_15.png" preserveAspectRatio="none" x="13939.453125" y="-3568.359375" width="2.197266" height="2.197266"/>
<image xlink:href="tile19_18.png" preserveAspectRatio="none" x="13941.650391" y="-3561.767578" width="2.197266" height="2.197266"/>
<image xlink:href="tile19_17.png" preserveAspectRatio="none" x="13941.650391" y="-3563.964844" width="2.197266" height="2.197266"/>
<image xlink:href="tile19_16.png" preserveAspectRatio="none" x="13941.650391" y="-3566.162109" width="2.197266" height="2.197266"/>
<image xlink:href="tile19_15.png" preserveAspectRatio="none" x="13941.650391" y="-3568.359375" width="2.197266" height="2.197266"/>
<image xlink:href="tile20_18.png" preserveAspectRatio="none" x="13943.847656" y="-3561.767578" width="2.197266" height="2.197266"/>
<image xlink:href="tile20_17.png" preserveAspectRatio="none" x="13943.847656" y="-3563.964844" width="2.197266" height="2.197266"/>
<image xlink:href="tile20_16.png" preserveAspectRatio="none" x="13943.847656" y="-3566.162109" width="2.197266" height="2.197266"/>
<image xlink:href="tile21_18.png" preserveAspectRatio="none" x="13946.044922" y="-3561.767578" width="2.197266" height="2.197266"/>
<image xlink:href="tile21_17.png" preserveAspectRatio="none" x="13946.044922" y="-3563.964844" width="2.197266" height="2.197266"/>
<image xlink:href="tile21_16.png" preserveAspectRatio="none" x="13946.044922" y="-3566.162109" width="2.197266" height="2.197266"/>
<image xlink:href="tile22_18.png" preserveAspectRatio="none" x="13948.242188" y="-3561.767578" width="2.197266" height="2.197266"/>
<image xlink:href="tile22_17.png" preserveAspectRatio="none" x="13948.242188" y="-3563.964844" width="2.197266" height="2.197266"/>
<image xlink:href="tile22_16.png" preserveAspectRatio="none" x="13948.242188" y="-3566.162109" width="2.197266" height="2.197266"/>
<image xlink:href="tile23_17.png" preserveAspectRatio="none" x="13950.439453" y="-3563.964844" width="2.197266" height="2.197266"/>
<image xlink:href="tile23_16.png" preserveAspectRatio="none" x="13950.439453" y="-3566.162109" width="2.197266" height="2.197266"/>
</g>
</svg>
