<?xml version="1.0" encoding="UTF-8"?>
<svg  xmlns="http://www.w3.org/2000/svg" xmlns:xlink="http://www.w3.org/1999/xlink" xmlns:go="http://purl.org/svgmap/profile" viewBox="13900.0 -3600.0 100.0 65.76247980000005" go:dataArea="13900.0 -3600.0 100.0 65.76247980000005" >
<metadata>
 <rdf:RDF xmlns:rdf="http://www.w3.org/1999/02/22-rdf-syntax-ns#" xmlns:crs="http://opengis.org/xmldtds/transformations.dtd" xmlns:svg="http://www.w3.org/svg" >
  <rdf:Description>
   <crs:CoordinateReferenceSystem rdf:resource="http://purl.org/crs/84" svg:transform="matrix(100.0,0.0,0.0,-100.0,0.0,0.0)" />
  </rdf:Description>
 </rdf:RDF>
</metadata>
<globalCoordinateSystem srsName="http://purl.org/crs/84" transform="matrix(100.0,0.0,0.0,-100.0,0.0,0.0)" />
<g >
<image xlink:href="tile16_14.png" preserveAspectRatio="none" x="13935.058594" y="-3570.556641" width="2.197266" height="2.197266"/>
<image xlink:href="tile16_13.png" preserveAspectRatio="none" x="13935.058594" y="-3572.753906" width="2.197266" height="2.197266"/>
<image xlink:href="tile16_12.png" preserveAspectRatio="none" x="13935.058594" y="-3574.951172" width="2.197266" height="2.197266"/>
<image xlink:href="tile16_11.png" preserveAspectRatio="none" x="13935.058594" y="-3577.148438" width="2.197266" height="2.197266"/>
<image xlink:href="tile16_10.png" preserveAspectRatio="none" x="13935.058594" y="-3579.345703" width="2.197266" height="2.197266"/>
<image xlink:href="tile17_14.png" preserveAspectRatio="none" x="13937.255859" y="-3570.556641" width="2.197266" height="2.197266"/>
<image xlink:href="tile17_13.png" preserveAspectRatio="none" x="13937.255859" y="-3572.753906" width="2.197266" height="2.197266"/>
<image xlink:href="tile17_12.png" preserveAspectRatio="none" x="13937.255859" y="-3574.951172" width="2.197266" height="2.197266"/>
<image xlink:href="tile17_11.png" preserveAspectRatio="none" x="13937.255859" y="-3577.148438" width="2.197266" height="2.197266"/>
<image xlink:href="tile17_10.png" preserveAspectRatio="none" x="13937.255859" y="-3579.345703" width="2.197266" height="2.197266"/>
<image xlink:href="tile18_14.png" preserveAspectRatio="none" x="13939.453125" y="-3570.556641" width="2.197266" height="2.197266"/>
<image xlink:href="tile18_13.png" preserveAspectRatio="none" x="13939.453125" y="-3572.753906" width="2.197266" height="2.197266"/>
<image xlink:href="tile18_12.png" preserveAspectRatio="none" x="13939.453125" y="-3574.951172" width="2.197266" height="2.197266"/>
<image xlink:href="tile18_11.png" preserveAspectRatio="none" x="13939.453125" y="-3577.148438" width="2.197266" height="2.197266"/>
<image xlink:href="tile19_12.png" preserveAspectRatio="none" x="13941.650391" y="-3574.951172" width="2.197266" height="2.197266"/>
<image xlink:href="tile19_11.png" preserveAspectRatio="none" x="13941.650391" y="-3577.148438" width="2.197266" height="2.197266"/>
<image xlink:href="tile20_12.png" preserveAspectRatio="none" x="13943.847656" y="-3574.951172" width="2.197266" height="2.197266"/>
<image xlink:href="tile20_11.png" preserveAspectRatio="none" x="13943.847656" y="-3577.148438" width="2.197266" height="2.197266"/>
<image xlink:href="tile20_10.png" preserveAspectRatio="none" x="13943.847656" y="-3579.345703" width="2.197266" height="2.197266"/>
<image xlink:href="tile21_12.png" preserveAspectRatio="none" x="13946.044922" y="-3574.951172" width="2.197266" height="2.197266"/>
<image xlink:href="tile21_11.png" preserveAspectRatio="none" x="13946.044922" y="-3577.148438" width="2.197266" height="2.197266"/>
<image xlink:href="tile21_10.png" preserveAspectRatio="none" x="13946.044922" y="-3579.345703" width="2.197266" height="2.197266"/>
<image xlink:href="tile22_12.png" preserveAspectRatio="none" x="13948.242188" y="-3574.951172" width="2.197266" height="2.197266"/>
<image xlink:href="tile22_11.png" preserveAspectRatio="none" x="13948.242188" y="-3577.148438" width="2.197266" height="2.197266"/>
<image xlink:href="tile22_10.png" preserveAspectRatio="none" x="13948.242188" y="-3579.345703" width="2.197266" height="2.197266"/>
<image xlink:href="tile23_12.png" preserveAspectRatio="none" x="13950.439453" y="-3574.951172" width="2.197266" height="2.197266"/>
<image xlink:href="tile23_11.png" preserveAspectRatio="none" x="13950.439453" y="-3577.148438" width="2.197266" height="2.197266"/>
<image xlink:href="tile23_10.png" preserveAspectRatio="none" x="13950.439453" y="-3579.345703" width="2.197266" height="2.197266"/>
<image xlink:href="tile24_12.png" preserveAspectRatio="none" x="13952.636719" y="-3574.951172" width="2.197266" height="2.197266"/>
<image xlink:href="tile24_11.png" preserveAspectRatio="none" x="13952.636719" y="-3577.148438" width="2.197266" height="2.197266"/>
<image xlink:href="tile24_10.png" preserveAspectRatio="none" x="13952.636719" y="-3579.345703" width="2.197266" height="2.197266"/>
<image xlink:href="tile24_9.png" preserveAspectRatio="none" x="13952.636719" y="-3581.542969" width="2.197266" height="2.197266"/>
<image xlink:href="tile24_1.png" preserveAspectRatio="none" x="13952.636719" y="-3599.121094" width="2.197266" height="2.197266"/>
<image xlink:href="tile24_0.png" preserveAspectRatio="none" x="13952.636719" y="-3601.318359" width="2.197266" height="2.197266"/>
<image xlink:href="tile25_1.png" preserveAspectRatio="none" x="13954.833984" y="-3599.121094" width="2.197266" height="2.197266"/>
<image xlink:href="tile28_2.png" preserveAspectRatio="none" x="13961.425781" y="-3596.923828" width="2.197266" height="2.197266"/>
<image xlink:href="tile28_1.png" preserveAspectRatio="none" x="13961.425781" y="-3599.121094" width="2.197266" height="2.197266"/>
<image xlink:href="tile28_0.png" preserveAspectRatio="none" x="13961.425781" y="-3601.318359" width="2.197266" height="2.197266"/>
<image xlink:href="tile29_11.png" preserveAspectRatio="none" x="13963.623047" y="-3577.148438" width="2.197266" height="2.197266"/>
<image xlink:href="tile29_10.png" preserveAspectRatio="none" x="13963.623047" y="-3579.345703" width="2.197266" height="2.197266"/>
<image xlink:href="tile29_9.png" preserveAspectRatio="none" x="13963.623047" y="-3581.542969" width="2.197266" height="2.197266"/>
<image xlink:href="tile29_8.png" preserveAspectRatio="none" x="13963.623047" y="-3583.740234" width="2.197266" height="2.197266"/>
<image xlink:href="tile29_7.png" preserveAspectRatio="none" x="13963.623047" y="-3585.9375" width="2.197266" height="2.197266"/>
<image xlink:href="tile29_2.png" preserveAspectRatio="none" x="13963.623047" y="-3596.923828" width="2.197266" height="2.197266"/>
<image xlink:href="tile29_1.png" preserveAspectRatio="none" x="13963.623047" y="-3599.121094" width="2.197266" height="2.197266"/>
<image xlink:href="tile29_0.png" preserveAspectRatio="none" x="13963.623047" y="-3601.318359" width="2.197266" height="2.197266"/>
<image xlink:href="tile30_11.png" preserveAspectRatio="none" x="13965.820312" y="-3577.148438" width="2.197266" height="2.197266"/>
<image xlink:href="tile30_10.png" preserveAspectRatio="none" x="13965.820312" y="-3579.345703" width="2.197266" height="2.197266"/>
<image xlink:href="tile30_9.png" preserveAspectRatio="none" x="13965.820312" y="-3581.542969" width="2.197266" height="2.197266"/>
<image xlink:href="tile30_8.png" preserveAspectRatio="none" x="13965.820312" y="-3583.740234" width="2.197266" height="2.197266"/>
<image xlink:href="tile30_7.png" preserveAspectRatio="none" x="13965.820312" y="-3585.9375" width="2.197266" height="2.197266"/>
<image xlink:href="tile30_3.png" preserveAspectRatio="none" x="13965.820312" y="-3594.726562" width="2.197266" height="2.197266"/>
<image xlink:href="tile30_2.png" preserveAspectRatio="none" x="13965.820312" y="-3596.923828" width="2.197266" height="2.197266"/>
<image xlink:href="tile30_1.png" preserveAspectRatio="none" x="13965.820312" y="-3599.121094" width="2.197266" height="2.197266"/>
<image xlink:href="tile30_0.png" preserveAspectRatio="none" x="13965.820312" y="-3601.318359" width="2.197266" height="2.197266"/>
<image xlink:href="tile31_11.png" preserveAspectRatio="none" x="13968.017578" y="-3577.148438" width="2.197266" height="2.197266"/>
<image xlink:href="tile31_10.png" preserveAspectRatio="none" x="13968.017578" y="-3579.345703" width="2.197266" height="2.197266"/>
<image xlink:href="tile31_9.png" preserveAspectRatio="none" x="13968.017578" y="-3581.542969" width="2.197266" height="2.197266"/>
<image xlink:href="tile31_8.png" preserveAspectRatio="none" x="13968.017578" y="-3583.740234" width="2.197266" height="2.197266"/>
<image xlink:href="tile31_4.png" preserveAspectRatio="none" x="13968.017578" y="-3592.529297" width="2.197266" height="2.197266"/>
<image xlink:href="tile31_3.png" preserveAspectRatio="none" x="13968.017578" y="-3594.726562" width="2.197266" height="2.197266"/>
<image xlink:href="tile31_2.png" preserveAspectRatio="none" x="13968.017578" y="-3596.923828" width="2.197266" height="2.197266"/>
<image xlink:href="tile31_1.png" preserveAspectRatio="none" x="13968.017578" y="-3599.121094" width="2.197266" height="2.197266"/>
<image xlink:href="tile31_0.png" preserveAspectRatio="none" x="13968.017578" y="-3601.318359" width="2.197266" height="2.197266"/>
</g>
</svg>
