<?xml version="1.0" encoding="UTF-8"?>
<svg  xmlns="http://www.w3.org/2000/svg" xmlns:xlink="http://www.w3.org/1999/xlink" xmlns:go="http://purl.org/svgmap/profile" viewBox="14000.1196316 -4066.666667 99.8803683999995 66.66666699999979" go:dataArea="14000.1196316 -4066.666667 99.8803683999995 66.66666699999979" >
<metadata>
 <rdf:RDF xmlns:rdf="http://www.w3.org/1999/02/22-rdf-syntax-ns#" xmlns:crs="http://opengis.org/xmldtds/transformations.dtd" xmlns:svg="http://www.w3.org/svg" >
  <rdf:Description>
   <crs:CoordinateReferenceSystem rdf:resource="http://purl.org/crs/84" svg:transform="matrix(100.0,0.0,0.0,-100.0,0.0,0.0)" />
  </rdf:Description>
 </rdf:RDF>
</metadata>
<globalCoordinateSystem srsName="http://purl.org/crs/84" transform="matrix(100.0,0.0,0.0,-100.0,0.0,0.0)" />
<g >
<image xlink:href="tile16_24.png" preserveAspectRatio="none" x="14033.935547" y="-4014.404297" width="2.197266" height="2.197266"/>
<image xlink:href="tile16_23.png" preserveAspectRatio="none" x="14033.935547" y="-4016.601562" width="2.197266" height="2.197266"/>
<image xlink:href="tile16_21.png" preserveAspectRatio="none" x="14033.935547" y="-4020.996094" width="2.197266" height="2.197266"/>
<image xlink:href="tile16_20.png" preserveAspectRatio="none" x="14033.935547" y="-4023.193359" width="2.197266" height="2.197266"/>
<image xlink:href="tile16_19.png" preserveAspectRatio="none" x="14033.935547" y="-4025.390625" width="2.197266" height="2.197266"/>
<image xlink:href="tile17_25.png" preserveAspectRatio="none" x="14036.132812" y="-4012.207031" width="2.197266" height="2.197266"/>
<image xlink:href="tile17_24.png" preserveAspectRatio="none" x="14036.132812" y="-4014.404297" width="2.197266" height="2.197266"/>
<image xlink:href="tile17_21.png" preserveAspectRatio="none" x="14036.132812" y="-4020.996094" width="2.197266" height="2.197266"/>
<image xlink:href="tile17_20.png" preserveAspectRatio="none" x="14036.132812" y="-4023.193359" width="2.197266" height="2.197266"/>
<image xlink:href="tile17_19.png" preserveAspectRatio="none" x="14036.132812" y="-4025.390625" width="2.197266" height="2.197266"/>
<image xlink:href="tile18_30.png" preserveAspectRatio="none" x="14038.330078" y="-4001.220703" width="2.197266" height="2.197266"/>
<image xlink:href="tile18_29.png" preserveAspectRatio="none" x="14038.330078" y="-4003.417969" width="2.197266" height="2.197266"/>
<image xlink:href="tile18_28.png" preserveAspectRatio="none" x="14038.330078" y="-4005.615234" width="2.197266" height="2.197266"/>
<image xlink:href="tile18_25.png" preserveAspectRatio="none" x="14038.330078" y="-4012.207031" width="2.197266" height="2.197266"/>
<image xlink:href="tile18_22.png" preserveAspectRatio="none" x="14038.330078" y="-4018.798828" width="2.197266" height="2.197266"/>
<image xlink:href="tile18_21.png" preserveAspectRatio="none" x="14038.330078" y="-4020.996094" width="2.197266" height="2.197266"/>
<image xlink:href="tile18_20.png" preserveAspectRatio="none" x="14038.330078" y="-4023.193359" width="2.197266" height="2.197266"/>
<image xlink:href="tile18_19.png" preserveAspectRatio="none" x="14038.330078" y="-4025.390625" width="2.197266" height="2.197266"/>
<image xlink:href="tile18_18.png" preserveAspectRatio="none" x="14038.330078" y="-4027.587891" width="2.197266" height="2.197266"/>
<image xlink:href="tile19_27.png" preserveAspectRatio="none" x="14040.527344" y="-4007.8125" width="2.197266" height="2.197266"/>
<image xlink:href="tile19_26.png" preserveAspectRatio="none" x="14040.527344" y="-4010.009766" width="2.197266" height="2.197266"/>
<image xlink:href="tile19_25.png" preserveAspectRatio="none" x="14040.527344" y="-4012.207031" width="2.197266" height="2.197266"/>
<image xlink:href="tile19_22.png" preserveAspectRatio="none" x="14040.527344" y="-4018.798828" width="2.197266" height="2.197266"/>
<image xlink:href="tile19_21.png" preserveAspectRatio="none" x="14040.527344" y="-4020.996094" width="2.197266" height="2.197266"/>
<image xlink:href="tile19_20.png" preserveAspectRatio="none" x="14040.527344" y="-4023.193359" width="2.197266" height="2.197266"/>
<image xlink:href="tile19_19.png" preserveAspectRatio="none" x="14040.527344" y="-4025.390625" width="2.197266" height="2.197266"/>
<image xlink:href="tile19_18.png" preserveAspectRatio="none" x="14040.527344" y="-4027.587891" width="2.197266" height="2.197266"/>
<image xlink:href="tile20_18.png" preserveAspectRatio="none" x="14042.724609" y="-4027.587891" width="2.197266" height="2.197266"/>
<image xlink:href="tile20_17.png" preserveAspectRatio="none" x="14042.724609" y="-4029.785156" width="2.197266" height="2.197266"/>
<image xlink:href="tile21_18.png" preserveAspectRatio="none" x="14044.921875" y="-4027.587891" width="2.197266" height="2.197266"/>
<image xlink:href="tile21_17.png" preserveAspectRatio="none" x="14044.921875" y="-4029.785156" width="2.197266" height="2.197266"/>
<image xlink:href="tile22_19.png" preserveAspectRatio="none" x="14047.119141" y="-4025.390625" width="2.197266" height="2.197266"/>
<image xlink:href="tile22_18.png" preserveAspectRatio="none" x="14047.119141" y="-4027.587891" width="2.197266" height="2.197266"/>
<image xlink:href="tile22_17.png" preserveAspectRatio="none" x="14047.119141" y="-4029.785156" width="2.197266" height="2.197266"/>
<image xlink:href="tile23_19.png" preserveAspectRatio="none" x="14049.316406" y="-4025.390625" width="2.197266" height="2.197266"/>
<image xlink:href="tile23_18.png" preserveAspectRatio="none" x="14049.316406" y="-4027.587891" width="2.197266" height="2.197266"/>
<image xlink:href="tile23_17.png" preserveAspectRatio="none" x="14049.316406" y="-4029.785156" width="2.197266" height="2.197266"/>
<image xlink:href="tile24_19.png" preserveAspectRatio="none" x="14051.513672" y="-4025.390625" width="2.197266" height="2.197266"/>
<image xlink:href="tile24_18.png" preserveAspectRatio="none" x="14051.513672" y="-4027.587891" width="2.197266" height="2.197266"/>
<image xlink:href="tile24_17.png" preserveAspectRatio="none" x="14051.513672" y="-4029.785156" width="2.197266" height="2.197266"/>
<image xlink:href="tile25_21.png" preserveAspectRatio="none" x="14053.710938" y="-4020.996094" width="2.197266" height="2.197266"/>
<image xlink:href="tile25_20.png" preserveAspectRatio="none" x="14053.710938" y="-4023.193359" width="2.197266" height="2.197266"/>
<image xlink:href="tile25_19.png" preserveAspectRatio="none" x="14053.710938" y="-4025.390625" width="2.197266" height="2.197266"/>
<image xlink:href="tile25_18.png" preserveAspectRatio="none" x="14053.710938" y="-4027.587891" width="2.197266" height="2.197266"/>
<image xlink:href="tile25_17.png" preserveAspectRatio="none" x="14053.710938" y="-4029.785156" width="2.197266" height="2.197266"/>
<image xlink:href="tile25_16.png" preserveAspectRatio="none" x="14053.710938" y="-4031.982422" width="2.197266" height="2.197266"/>
<image xlink:href="tile25_15.png" preserveAspectRatio="none" x="14053.710938" y="-4034.179688" width="2.197266" height="2.197266"/>
<image xlink:href="tile26_21.png" preserveAspectRatio="none" x="14055.908203" y="-4020.996094" width="2.197266" height="2.197266"/>
<image xlink:href="tile26_20.png" preserveAspectRatio="none" x="14055.908203" y="-4023.193359" width="2.197266" height="2.197266"/>
<image xlink:href="tile26_19.png" preserveAspectRatio="none" x="14055.908203" y="-4025.390625" width="2.197266" height="2.197266"/>
<image xlink:href="tile26_18.png" preserveAspectRatio="none" x="14055.908203" y="-4027.587891" width="2.197266" height="2.197266"/>
<image xlink:href="tile26_17.png" preserveAspectRatio="none" x="14055.908203" y="-4029.785156" width="2.197266" height="2.197266"/>
<image xlink:href="tile26_16.png" preserveAspectRatio="none" x="14055.908203" y="-4031.982422" width="2.197266" height="2.197266"/>
<image xlink:href="tile26_15.png" preserveAspectRatio="none" x="14055.908203" y="-4034.179688" width="2.197266" height="2.197266"/>
<image xlink:href="tile27_22.png" preserveAspectRatio="none" x="14058.105469" y="-4018.798828" width="2.197266" height="2.197266"/>
<image xlink:href="tile27_21.png" preserveAspectRatio="none" x="14058.105469" y="-4020.996094" width="2.197266" height="2.197266"/>
<image xlink:href="tile27_20.png" preserveAspectRatio="none" x="14058.105469" y="-4023.193359" width="2.197266" height="2.197266"/>
<image xlink:href="tile27_19.png" preserveAspectRatio="none" x="14058.105469" y="-4025.390625" width="2.197266" height="2.197266"/>
<image xlink:href="tile27_17.png" preserveAspectRatio="none" x="14058.105469" y="-4029.785156" width="2.197266" height="2.197266"/>
<image xlink:href="tile27_15.png" preserveAspectRatio="none" x="14058.105469" y="-4034.179688" width="2.197266" height="2.197266"/>
<image xlink:href="tile28_23.png" preserveAspectRatio="none" x="14060.302734" y="-4016.601562" width="2.197266" height="2.197266"/>
<image xlink:href="tile28_22.png" preserveAspectRatio="none" x="14060.302734" y="-4018.798828" width="2.197266" height="2.197266"/>
<image xlink:href="tile28_21.png" preserveAspectRatio="none" x="14060.302734" y="-4020.996094" width="2.197266" height="2.197266"/>
<image xlink:href="tile28_20.png" preserveAspectRatio="none" x="14060.302734" y="-4023.193359" width="2.197266" height="2.197266"/>
<image xlink:href="tile28_17.png" preserveAspectRatio="none" x="14060.302734" y="-4029.785156" width="2.197266" height="2.197266"/>
<image xlink:href="tile29_24.png" preserveAspectRatio="none" x="14062.5" y="-4014.404297" width="2.197266" height="2.197266"/>
<image xlink:href="tile29_23.png" preserveAspectRatio="none" x="14062.5" y="-4016.601562" width="2.197266" height="2.197266"/>
<image xlink:href="tile29_20.png" preserveAspectRatio="none" x="14062.5" y="-4023.193359" width="2.197266" height="2.197266"/>
<image xlink:href="tile30_24.png" preserveAspectRatio="none" x="14064.697266" y="-4014.404297" width="2.197266" height="2.197266"/>
<image xlink:href="tile30_20.png" preserveAspectRatio="none" x="14064.697266" y="-4023.193359" width="2.197266" height="2.197266"/>
<image xlink:href="tile31_25.png" preserveAspectRatio="none" x="14066.894531" y="-4012.207031" width="2.197266" height="2.197266"/>
<image xlink:href="tile31_24.png" preserveAspectRatio="none" x="14066.894531" y="-4014.404297" width="2.197266" height="2.197266"/>
<image xlink:href="tile31_20.png" preserveAspectRatio="none" x="14066.894531" y="-4023.193359" width="2.197266" height="2.197266"/>
<image xlink:href="tile31_19.png" preserveAspectRatio="none" x="14066.894531" y="-4025.390625" width="2.197266" height="2.197266"/>
</g>
</svg>
