<?xml version="1.0" encoding="UTF-8"?>
<svg  xmlns="http://www.w3.org/2000/svg" xmlns:xlink="http://www.w3.org/1999/xlink" xmlns:go="http://purl.org/svgmap/profile" viewBox="14083.322199299999 -3859.3323069 14.869048299999577 49.249671700000164" go:dataArea="14083.322199299999 -3859.3323069 14.869048299999577 49.249671700000164" >
<metadata>
 <rdf:RDF xmlns:rdf="http://www.w3.org/1999/02/22-rdf-syntax-ns#" xmlns:crs="http://opengis.org/xmldtds/transformations.dtd" xmlns:svg="http://www.w3.org/svg" >
  <rdf:Description>
   <crs:CoordinateReferenceSystem rdf:resource="http://purl.org/crs/84" svg:transform="matrix(100.0,0.0,0.0,-100.0,0.0,0.0)" />
  </rdf:Description>
 </rdf:RDF>
</metadata>
<globalCoordinateSystem srsName="http://purl.org/crs/84" transform="matrix(100.0,0.0,0.0,-100.0,0.0,0.0)" />
<g >
<image xlink:href="tile0_40.png" preserveAspectRatio="none" x="14082.275391" y="-3815.551758" width="1.098633" height="1.098633"/>
<image xlink:href="tile0_39.png" preserveAspectRatio="none" x="14082.275391" y="-3816.650391" width="1.098633" height="1.098633"/>
<image xlink:href="tile1_40.png" preserveAspectRatio="none" x="14083.374023" y="-3815.551758" width="1.098633" height="1.098633"/>
<image xlink:href="tile1_39.png" preserveAspectRatio="none" x="14083.374023" y="-3816.650391" width="1.098633" height="1.098633"/>
<image xlink:href="tile2_43.png" preserveAspectRatio="none" x="14084.472656" y="-3812.255859" width="1.098633" height="1.098633"/>
<image xlink:href="tile2_42.png" preserveAspectRatio="none" x="14084.472656" y="-3813.354492" width="1.098633" height="1.098633"/>
<image xlink:href="tile2_41.png" preserveAspectRatio="none" x="14084.472656" y="-3814.453125" width="1.098633" height="1.098633"/>
<image xlink:href="tile2_40.png" preserveAspectRatio="none" x="14084.472656" y="-3815.551758" width="1.098633" height="1.098633"/>
<image xlink:href="tile2_39.png" preserveAspectRatio="none" x="14084.472656" y="-3816.650391" width="1.098633" height="1.098633"/>
<image xlink:href="tile3_44.png" preserveAspectRatio="none" x="14085.571289" y="-3811.157227" width="1.098633" height="1.098633"/>
<image xlink:href="tile3_43.png" preserveAspectRatio="none" x="14085.571289" y="-3812.255859" width="1.098633" height="1.098633"/>
<image xlink:href="tile3_42.png" preserveAspectRatio="none" x="14085.571289" y="-3813.354492" width="1.098633" height="1.098633"/>
<image xlink:href="tile3_41.png" preserveAspectRatio="none" x="14085.571289" y="-3814.453125" width="1.098633" height="1.098633"/>
<image xlink:href="tile3_40.png" preserveAspectRatio="none" x="14085.571289" y="-3815.551758" width="1.098633" height="1.098633"/>
<image xlink:href="tile4_44.png" preserveAspectRatio="none" x="14086.669922" y="-3811.157227" width="1.098633" height="1.098633"/>
<image xlink:href="tile4_43.png" preserveAspectRatio="none" x="14086.669922" y="-3812.255859" width="1.098633" height="1.098633"/>
<image xlink:href="tile4_42.png" preserveAspectRatio="none" x="14086.669922" y="-3813.354492" width="1.098633" height="1.098633"/>
<image xlink:href="tile4_41.png" preserveAspectRatio="none" x="14086.669922" y="-3814.453125" width="1.098633" height="1.098633"/>
<image xlink:href="tile4_40.png" preserveAspectRatio="none" x="14086.669922" y="-3815.551758" width="1.098633" height="1.098633"/>
<image xlink:href="tile5_43.png" preserveAspectRatio="none" x="14087.768555" y="-3812.255859" width="1.098633" height="1.098633"/>
<image xlink:href="tile5_42.png" preserveAspectRatio="none" x="14087.768555" y="-3813.354492" width="1.098633" height="1.098633"/>
<image xlink:href="tile5_41.png" preserveAspectRatio="none" x="14087.768555" y="-3814.453125" width="1.098633" height="1.098633"/>
<image xlink:href="tile5_40.png" preserveAspectRatio="none" x="14087.768555" y="-3815.551758" width="1.098633" height="1.098633"/>
<image xlink:href="tile6_43.png" preserveAspectRatio="none" x="14088.867188" y="-3812.255859" width="1.098633" height="1.098633"/>
<image xlink:href="tile6_42.png" preserveAspectRatio="none" x="14088.867188" y="-3813.354492" width="1.098633" height="1.098633"/>
<image xlink:href="tile6_41.png" preserveAspectRatio="none" x="14088.867188" y="-3814.453125" width="1.098633" height="1.098633"/>
<image xlink:href="tile6_40.png" preserveAspectRatio="none" x="14088.867188" y="-3815.551758" width="1.098633" height="1.098633"/>
<image xlink:href="tile7_42.png" preserveAspectRatio="none" x="14089.96582" y="-3813.354492" width="1.098633" height="1.098633"/>
<image xlink:href="tile7_41.png" preserveAspectRatio="none" x="14089.96582" y="-3814.453125" width="1.098633" height="1.098633"/>
<image xlink:href="tile7_40.png" preserveAspectRatio="none" x="14089.96582" y="-3815.551758" width="1.098633" height="1.098633"/>
<image xlink:href="tile7_39.png" preserveAspectRatio="none" x="14089.96582" y="-3816.650391" width="1.098633" height="1.098633"/>
<image xlink:href="tile8_41.png" preserveAspectRatio="none" x="14091.064453" y="-3814.453125" width="1.098633" height="1.098633"/>
<image xlink:href="tile8_40.png" preserveAspectRatio="none" x="14091.064453" y="-3815.551758" width="1.098633" height="1.098633"/>
<image xlink:href="tile8_39.png" preserveAspectRatio="none" x="14091.064453" y="-3816.650391" width="1.098633" height="1.098633"/>
<image xlink:href="tile9_40.png" preserveAspectRatio="none" x="14092.163086" y="-3815.551758" width="1.098633" height="1.098633"/>
</g>
</svg>
