<?xml version="1.0" encoding="UTF-8"?>
<svg  xmlns="http://www.w3.org/2000/svg" xmlns:xlink="http://www.w3.org/1999/xlink" xmlns:go="http://purl.org/svgmap/profile" viewBox="13700.0 -3598.4374578 100.0 65.1041247000002" go:dataArea="13700.0 -3598.4374578 100.0 65.1041247000002" >
<metadata>
 <rdf:RDF xmlns:rdf="http://www.w3.org/1999/02/22-rdf-syntax-ns#" xmlns:crs="http://opengis.org/xmldtds/transformations.dtd" xmlns:svg="http://www.w3.org/svg" >
  <rdf:Description>
   <crs:CoordinateReferenceSystem rdf:resource="http://purl.org/crs/84" svg:transform="matrix(100.0,0.0,0.0,-100.0,0.0,0.0)" />
  </rdf:Description>
 </rdf:RDF>
</metadata>
<globalCoordinateSystem srsName="http://purl.org/crs/84" transform="matrix(100.0,0.0,0.0,-100.0,0.0,0.0)" />
<g >
<image xlink:href="tile0_52.png" preserveAspectRatio="none" x="13699.951172" y="-3541.992188" width="1.098633" height="1.098633"/>
<image xlink:href="tile0_51.png" preserveAspectRatio="none" x="13699.951172" y="-3543.09082" width="1.098633" height="1.098633"/>
<image xlink:href="tile0_50.png" preserveAspectRatio="none" x="13699.951172" y="-3544.189453" width="1.098633" height="1.098633"/>
<image xlink:href="tile0_49.png" preserveAspectRatio="none" x="13699.951172" y="-3545.288086" width="1.098633" height="1.098633"/>
<image xlink:href="tile1_52.png" preserveAspectRatio="none" x="13701.049805" y="-3541.992188" width="1.098633" height="1.098633"/>
<image xlink:href="tile1_51.png" preserveAspectRatio="none" x="13701.049805" y="-3543.09082" width="1.098633" height="1.098633"/>
<image xlink:href="tile1_50.png" preserveAspectRatio="none" x="13701.049805" y="-3544.189453" width="1.098633" height="1.098633"/>
<image xlink:href="tile1_49.png" preserveAspectRatio="none" x="13701.049805" y="-3545.288086" width="1.098633" height="1.098633"/>
<image xlink:href="tile2_52.png" preserveAspectRatio="none" x="13702.148438" y="-3541.992188" width="1.098633" height="1.098633"/>
<image xlink:href="tile2_51.png" preserveAspectRatio="none" x="13702.148438" y="-3543.09082" width="1.098633" height="1.098633"/>
<image xlink:href="tile2_50.png" preserveAspectRatio="none" x="13702.148438" y="-3544.189453" width="1.098633" height="1.098633"/>
<image xlink:href="tile2_49.png" preserveAspectRatio="none" x="13702.148438" y="-3545.288086" width="1.098633" height="1.098633"/>
<image xlink:href="tile3_51.png" preserveAspectRatio="none" x="13703.24707" y="-3543.09082" width="1.098633" height="1.098633"/>
<image xlink:href="tile3_50.png" preserveAspectRatio="none" x="13703.24707" y="-3544.189453" width="1.098633" height="1.098633"/>
<image xlink:href="tile3_49.png" preserveAspectRatio="none" x="13703.24707" y="-3545.288086" width="1.098633" height="1.098633"/>
<image xlink:href="tile4_49.png" preserveAspectRatio="none" x="13704.345703" y="-3545.288086" width="1.098633" height="1.098633"/>
<image xlink:href="tile9_59.png" preserveAspectRatio="none" x="13709.838867" y="-3534.301758" width="1.098633" height="1.098633"/>
<image xlink:href="tile9_58.png" preserveAspectRatio="none" x="13709.838867" y="-3535.400391" width="1.098633" height="1.098633"/>
<image xlink:href="tile10_59.png" preserveAspectRatio="none" x="13710.9375" y="-3534.301758" width="1.098633" height="1.098633"/>
<image xlink:href="tile10_58.png" preserveAspectRatio="none" x="13710.9375" y="-3535.400391" width="1.098633" height="1.098633"/>
<image xlink:href="tile11_59.png" preserveAspectRatio="none" x="13712.036133" y="-3534.301758" width="1.098633" height="1.098633"/>
<image xlink:href="tile11_58.png" preserveAspectRatio="none" x="13712.036133" y="-3535.400391" width="1.098633" height="1.098633"/>
<image xlink:href="tile12_59.png" preserveAspectRatio="none" x="13713.134766" y="-3534.301758" width="1.098633" height="1.098633"/>
<image xlink:href="tile12_58.png" preserveAspectRatio="none" x="13713.134766" y="-3535.400391" width="1.098633" height="1.098633"/>
<image xlink:href="tile13_59.png" preserveAspectRatio="none" x="13714.233398" y="-3534.301758" width="1.098633" height="1.098633"/>
<image xlink:href="tile13_58.png" preserveAspectRatio="none" x="13714.233398" y="-3535.400391" width="1.098633" height="1.098633"/>
<image xlink:href="tile14_58.png" preserveAspectRatio="none" x="13715.332031" y="-3535.400391" width="1.098633" height="1.098633"/>
<image xlink:href="tile15_58.png" preserveAspectRatio="none" x="13716.430664" y="-3535.400391" width="1.098633" height="1.098633"/>
<image xlink:href="tile15_57.png" preserveAspectRatio="none" x="13716.430664" y="-3536.499023" width="1.098633" height="1.098633"/>
</g>
</svg>
