<?xml version="1.0" encoding="UTF-8"?>
<svg  xmlns="http://www.w3.org/2000/svg" xmlns:xlink="http://www.w3.org/1999/xlink" xmlns:go="http://purl.org/svgmap/profile" viewBox="13700.0 -3598.4374578 100.0 65.1041247000002" go:dataArea="13700.0 -3598.4374578 100.0 65.1041247000002" >
<metadata>
 <rdf:RDF xmlns:rdf="http://www.w3.org/1999/02/22-rdf-syntax-ns#" xmlns:crs="http://opengis.org/xmldtds/transformations.dtd" xmlns:svg="http://www.w3.org/svg" >
  <rdf:Description>
   <crs:CoordinateReferenceSystem rdf:resource="http://purl.org/crs/84" svg:transform="matrix(100.0,0.0,0.0,-100.0,0.0,0.0)" />
  </rdf:Description>
 </rdf:RDF>
</metadata>
<globalCoordinateSystem srsName="http://purl.org/crs/84" transform="matrix(100.0,0.0,0.0,-100.0,0.0,0.0)" />
<g >
<image xlink:href="tile16_59.png" preserveAspectRatio="none" x="13717.529297" y="-3534.301758" width="1.098633" height="1.098633"/>
<image xlink:href="tile16_58.png" preserveAspectRatio="none" x="13717.529297" y="-3535.400391" width="1.098633" height="1.098633"/>
<image xlink:href="tile16_57.png" preserveAspectRatio="none" x="13717.529297" y="-3536.499023" width="1.098633" height="1.098633"/>
<image xlink:href="tile16_56.png" preserveAspectRatio="none" x="13717.529297" y="-3537.597656" width="1.098633" height="1.098633"/>
<image xlink:href="tile17_58.png" preserveAspectRatio="none" x="13718.62793" y="-3535.400391" width="1.098633" height="1.098633"/>
<image xlink:href="tile17_57.png" preserveAspectRatio="none" x="13718.62793" y="-3536.499023" width="1.098633" height="1.098633"/>
<image xlink:href="tile17_56.png" preserveAspectRatio="none" x="13718.62793" y="-3537.597656" width="1.098633" height="1.098633"/>
<image xlink:href="tile18_57.png" preserveAspectRatio="none" x="13719.726562" y="-3536.499023" width="1.098633" height="1.098633"/>
<image xlink:href="tile18_56.png" preserveAspectRatio="none" x="13719.726562" y="-3537.597656" width="1.098633" height="1.098633"/>
<image xlink:href="tile19_57.png" preserveAspectRatio="none" x="13720.825195" y="-3536.499023" width="1.098633" height="1.098633"/>
<image xlink:href="tile19_56.png" preserveAspectRatio="none" x="13720.825195" y="-3537.597656" width="1.098633" height="1.098633"/>
<image xlink:href="tile20_57.png" preserveAspectRatio="none" x="13721.923828" y="-3536.499023" width="1.098633" height="1.098633"/>
<image xlink:href="tile20_56.png" preserveAspectRatio="none" x="13721.923828" y="-3537.597656" width="1.098633" height="1.098633"/>
<image xlink:href="tile21_57.png" preserveAspectRatio="none" x="13723.022461" y="-3536.499023" width="1.098633" height="1.098633"/>
<image xlink:href="tile21_56.png" preserveAspectRatio="none" x="13723.022461" y="-3537.597656" width="1.098633" height="1.098633"/>
<image xlink:href="tile22_57.png" preserveAspectRatio="none" x="13724.121094" y="-3536.499023" width="1.098633" height="1.098633"/>
<image xlink:href="tile22_56.png" preserveAspectRatio="none" x="13724.121094" y="-3537.597656" width="1.098633" height="1.098633"/>
<image xlink:href="tile23_57.png" preserveAspectRatio="none" x="13725.219727" y="-3536.499023" width="1.098633" height="1.098633"/>
<image xlink:href="tile23_56.png" preserveAspectRatio="none" x="13725.219727" y="-3537.597656" width="1.098633" height="1.098633"/>
<image xlink:href="tile23_55.png" preserveAspectRatio="none" x="13725.219727" y="-3538.696289" width="1.098633" height="1.098633"/>
<image xlink:href="tile24_57.png" preserveAspectRatio="none" x="13726.318359" y="-3536.499023" width="1.098633" height="1.098633"/>
<image xlink:href="tile24_56.png" preserveAspectRatio="none" x="13726.318359" y="-3537.597656" width="1.098633" height="1.098633"/>
<image xlink:href="tile24_55.png" preserveAspectRatio="none" x="13726.318359" y="-3538.696289" width="1.098633" height="1.098633"/>
<image xlink:href="tile24_54.png" preserveAspectRatio="none" x="13726.318359" y="-3539.794922" width="1.098633" height="1.098633"/>
<image xlink:href="tile25_55.png" preserveAspectRatio="none" x="13727.416992" y="-3538.696289" width="1.098633" height="1.098633"/>
<image xlink:href="tile25_54.png" preserveAspectRatio="none" x="13727.416992" y="-3539.794922" width="1.098633" height="1.098633"/>
<image xlink:href="tile25_53.png" preserveAspectRatio="none" x="13727.416992" y="-3540.893555" width="1.098633" height="1.098633"/>
<image xlink:href="tile26_54.png" preserveAspectRatio="none" x="13728.515625" y="-3539.794922" width="1.098633" height="1.098633"/>
<image xlink:href="tile26_53.png" preserveAspectRatio="none" x="13728.515625" y="-3540.893555" width="1.098633" height="1.098633"/>
<image xlink:href="tile27_53.png" preserveAspectRatio="none" x="13729.614258" y="-3540.893555" width="1.098633" height="1.098633"/>
<image xlink:href="tile27_52.png" preserveAspectRatio="none" x="13729.614258" y="-3541.992188" width="1.098633" height="1.098633"/>
<image xlink:href="tile28_53.png" preserveAspectRatio="none" x="13730.712891" y="-3540.893555" width="1.098633" height="1.098633"/>
<image xlink:href="tile28_52.png" preserveAspectRatio="none" x="13730.712891" y="-3541.992188" width="1.098633" height="1.098633"/>
</g>
</svg>
