<?xml version="1.0" encoding="UTF-8"?>
<svg  xmlns="http://www.w3.org/2000/svg" xmlns:xlink="http://www.w3.org/1999/xlink" xmlns:go="http://purl.org/svgmap/profile" viewBox="13700.0 -3598.4374578 100.0 65.1041247000002" go:dataArea="13700.0 -3598.4374578 100.0 65.1041247000002" >
<metadata>
 <rdf:RDF xmlns:rdf="http://www.w3.org/1999/02/22-rdf-syntax-ns#" xmlns:crs="http://opengis.org/xmldtds/transformations.dtd" xmlns:svg="http://www.w3.org/svg" >
  <rdf:Description>
   <crs:CoordinateReferenceSystem rdf:resource="http://purl.org/crs/84" svg:transform="matrix(100.0,0.0,0.0,-100.0,0.0,0.0)" />
  </rdf:Description>
 </rdf:RDF>
</metadata>
<globalCoordinateSystem srsName="http://purl.org/crs/84" transform="matrix(100.0,0.0,0.0,-100.0,0.0,0.0)" />
<g >
<image xlink:href="tile80_42.png" preserveAspectRatio="none" x="13787.841797" y="-3552.978516" width="1.098633" height="1.098633"/>
<image xlink:href="tile80_41.png" preserveAspectRatio="none" x="13787.841797" y="-3554.077148" width="1.098633" height="1.098633"/>
<image xlink:href="tile80_40.png" preserveAspectRatio="none" x="13787.841797" y="-3555.175781" width="1.098633" height="1.098633"/>
<image xlink:href="tile80_39.png" preserveAspectRatio="none" x="13787.841797" y="-3556.274414" width="1.098633" height="1.098633"/>
<image xlink:href="tile80_38.png" preserveAspectRatio="none" x="13787.841797" y="-3557.373047" width="1.098633" height="1.098633"/>
<image xlink:href="tile81_41.png" preserveAspectRatio="none" x="13788.94043" y="-3554.077148" width="1.098633" height="1.098633"/>
<image xlink:href="tile81_40.png" preserveAspectRatio="none" x="13788.94043" y="-3555.175781" width="1.098633" height="1.098633"/>
<image xlink:href="tile81_39.png" preserveAspectRatio="none" x="13788.94043" y="-3556.274414" width="1.098633" height="1.098633"/>
<image xlink:href="tile81_38.png" preserveAspectRatio="none" x="13788.94043" y="-3557.373047" width="1.098633" height="1.098633"/>
<image xlink:href="tile81_37.png" preserveAspectRatio="none" x="13788.94043" y="-3558.47168" width="1.098633" height="1.098633"/>
<image xlink:href="tile82_39.png" preserveAspectRatio="none" x="13790.039062" y="-3556.274414" width="1.098633" height="1.098633"/>
<image xlink:href="tile82_38.png" preserveAspectRatio="none" x="13790.039062" y="-3557.373047" width="1.098633" height="1.098633"/>
<image xlink:href="tile82_37.png" preserveAspectRatio="none" x="13790.039062" y="-3558.47168" width="1.098633" height="1.098633"/>
<image xlink:href="tile83_38.png" preserveAspectRatio="none" x="13791.137695" y="-3557.373047" width="1.098633" height="1.098633"/>
<image xlink:href="tile83_37.png" preserveAspectRatio="none" x="13791.137695" y="-3558.47168" width="1.098633" height="1.098633"/>
<image xlink:href="tile83_36.png" preserveAspectRatio="none" x="13791.137695" y="-3559.570312" width="1.098633" height="1.098633"/>
<image xlink:href="tile83_34.png" preserveAspectRatio="none" x="13791.137695" y="-3561.767578" width="1.098633" height="1.098633"/>
<image xlink:href="tile83_33.png" preserveAspectRatio="none" x="13791.137695" y="-3562.866211" width="1.098633" height="1.098633"/>
<image xlink:href="tile84_37.png" preserveAspectRatio="none" x="13792.236328" y="-3558.47168" width="1.098633" height="1.098633"/>
<image xlink:href="tile84_36.png" preserveAspectRatio="none" x="13792.236328" y="-3559.570312" width="1.098633" height="1.098633"/>
<image xlink:href="tile84_35.png" preserveAspectRatio="none" x="13792.236328" y="-3560.668945" width="1.098633" height="1.098633"/>
<image xlink:href="tile84_34.png" preserveAspectRatio="none" x="13792.236328" y="-3561.767578" width="1.098633" height="1.098633"/>
<image xlink:href="tile84_33.png" preserveAspectRatio="none" x="13792.236328" y="-3562.866211" width="1.098633" height="1.098633"/>
<image xlink:href="tile84_32.png" preserveAspectRatio="none" x="13792.236328" y="-3563.964844" width="1.098633" height="1.098633"/>
<image xlink:href="tile84_31.png" preserveAspectRatio="none" x="13792.236328" y="-3565.063477" width="1.098633" height="1.098633"/>
<image xlink:href="tile85_35.png" preserveAspectRatio="none" x="13793.334961" y="-3560.668945" width="1.098633" height="1.098633"/>
<image xlink:href="tile85_34.png" preserveAspectRatio="none" x="13793.334961" y="-3561.767578" width="1.098633" height="1.098633"/>
<image xlink:href="tile85_32.png" preserveAspectRatio="none" x="13793.334961" y="-3563.964844" width="1.098633" height="1.098633"/>
<image xlink:href="tile85_31.png" preserveAspectRatio="none" x="13793.334961" y="-3565.063477" width="1.098633" height="1.098633"/>
<image xlink:href="tile85_30.png" preserveAspectRatio="none" x="13793.334961" y="-3566.162109" width="1.098633" height="1.098633"/>
<image xlink:href="tile85_28.png" preserveAspectRatio="none" x="13793.334961" y="-3568.359375" width="1.098633" height="1.098633"/>
<image xlink:href="tile86_31.png" preserveAspectRatio="none" x="13794.433594" y="-3565.063477" width="1.098633" height="1.098633"/>
<image xlink:href="tile86_30.png" preserveAspectRatio="none" x="13794.433594" y="-3566.162109" width="1.098633" height="1.098633"/>
<image xlink:href="tile86_29.png" preserveAspectRatio="none" x="13794.433594" y="-3567.260742" width="1.098633" height="1.098633"/>
<image xlink:href="tile86_28.png" preserveAspectRatio="none" x="13794.433594" y="-3568.359375" width="1.098633" height="1.098633"/>
</g>
</svg>
