<?xml version="1.0" encoding="UTF-8"?>
<svg  xmlns="http://www.w3.org/2000/svg" xmlns:xlink="http://www.w3.org/1999/xlink" xmlns:go="http://purl.org/svgmap/profile" viewBox="13007.325 -3395.2125 92.67499999999984 61.87916690000037" go:dataArea="13007.325 -3395.2125 92.67499999999984 61.87916690000037" >
<metadata>
 <rdf:RDF xmlns:rdf="http://www.w3.org/1999/02/22-rdf-syntax-ns#" xmlns:crs="http://opengis.org/xmldtds/transformations.dtd" xmlns:svg="http://www.w3.org/svg" >
  <rdf:Description>
   <crs:CoordinateReferenceSystem rdf:resource="http://purl.org/crs/84" svg:transform="matrix(100.0,0.0,0.0,-100.0,0.0,0.0)" />
  </rdf:Description>
 </rdf:RDF>
</metadata>
<globalCoordinateSystem srsName="http://purl.org/crs/84" transform="matrix(100.0,0.0,0.0,-100.0,0.0,0.0)" />
<g >
<image xlink:href="tile16_14.png" preserveAspectRatio="none" x="13073.730469" y="-3335.449219" width="4.394531" height="4.394531"/>
<image xlink:href="tile16_13.png" preserveAspectRatio="none" x="13073.730469" y="-3339.84375" width="4.394531" height="4.394531"/>
<image xlink:href="tile16_12.png" preserveAspectRatio="none" x="13073.730469" y="-3344.238281" width="4.394531" height="4.394531"/>
<image xlink:href="tile16_9.png" preserveAspectRatio="none" x="13073.730469" y="-3357.421875" width="4.394531" height="4.394531"/>
<image xlink:href="tile16_8.png" preserveAspectRatio="none" x="13073.730469" y="-3361.816406" width="4.394531" height="4.394531"/>
<image xlink:href="tile16_7.png" preserveAspectRatio="none" x="13073.730469" y="-3366.210938" width="4.394531" height="4.394531"/>
<image xlink:href="tile16_6.png" preserveAspectRatio="none" x="13073.730469" y="-3370.605469" width="4.394531" height="4.394531"/>
<image xlink:href="tile16_5.png" preserveAspectRatio="none" x="13073.730469" y="-3375" width="4.394531" height="4.394531"/>
<image xlink:href="tile16_4.png" preserveAspectRatio="none" x="13073.730469" y="-3379.394531" width="4.394531" height="4.394531"/>
<image xlink:href="tile16_3.png" preserveAspectRatio="none" x="13073.730469" y="-3383.789062" width="4.394531" height="4.394531"/>
<image xlink:href="tile16_2.png" preserveAspectRatio="none" x="13073.730469" y="-3388.183594" width="4.394531" height="4.394531"/>
<image xlink:href="tile16_1.png" preserveAspectRatio="none" x="13073.730469" y="-3392.578125" width="4.394531" height="4.394531"/>
<image xlink:href="tile17_14.png" preserveAspectRatio="none" x="13078.125" y="-3335.449219" width="4.394531" height="4.394531"/>
<image xlink:href="tile17_13.png" preserveAspectRatio="none" x="13078.125" y="-3339.84375" width="4.394531" height="4.394531"/>
<image xlink:href="tile17_12.png" preserveAspectRatio="none" x="13078.125" y="-3344.238281" width="4.394531" height="4.394531"/>
<image xlink:href="tile17_11.png" preserveAspectRatio="none" x="13078.125" y="-3348.632812" width="4.394531" height="4.394531"/>
<image xlink:href="tile17_9.png" preserveAspectRatio="none" x="13078.125" y="-3357.421875" width="4.394531" height="4.394531"/>
<image xlink:href="tile17_8.png" preserveAspectRatio="none" x="13078.125" y="-3361.816406" width="4.394531" height="4.394531"/>
<image xlink:href="tile17_7.png" preserveAspectRatio="none" x="13078.125" y="-3366.210938" width="4.394531" height="4.394531"/>
<image xlink:href="tile17_6.png" preserveAspectRatio="none" x="13078.125" y="-3370.605469" width="4.394531" height="4.394531"/>
<image xlink:href="tile17_5.png" preserveAspectRatio="none" x="13078.125" y="-3375" width="4.394531" height="4.394531"/>
<image xlink:href="tile17_4.png" preserveAspectRatio="none" x="13078.125" y="-3379.394531" width="4.394531" height="4.394531"/>
<image xlink:href="tile17_3.png" preserveAspectRatio="none" x="13078.125" y="-3383.789062" width="4.394531" height="4.394531"/>
<image xlink:href="tile18_13.png" preserveAspectRatio="none" x="13082.519531" y="-3339.84375" width="4.394531" height="4.394531"/>
<image xlink:href="tile18_12.png" preserveAspectRatio="none" x="13082.519531" y="-3344.238281" width="4.394531" height="4.394531"/>
<image xlink:href="tile18_11.png" preserveAspectRatio="none" x="13082.519531" y="-3348.632812" width="4.394531" height="4.394531"/>
<image xlink:href="tile18_10.png" preserveAspectRatio="none" x="13082.519531" y="-3353.027344" width="4.394531" height="4.394531"/>
<image xlink:href="tile18_9.png" preserveAspectRatio="none" x="13082.519531" y="-3357.421875" width="4.394531" height="4.394531"/>
<image xlink:href="tile18_8.png" preserveAspectRatio="none" x="13082.519531" y="-3361.816406" width="4.394531" height="4.394531"/>
<image xlink:href="tile18_7.png" preserveAspectRatio="none" x="13082.519531" y="-3366.210938" width="4.394531" height="4.394531"/>
<image xlink:href="tile18_6.png" preserveAspectRatio="none" x="13082.519531" y="-3370.605469" width="4.394531" height="4.394531"/>
<image xlink:href="tile18_5.png" preserveAspectRatio="none" x="13082.519531" y="-3375" width="4.394531" height="4.394531"/>
<image xlink:href="tile19_13.png" preserveAspectRatio="none" x="13086.914062" y="-3339.84375" width="4.394531" height="4.394531"/>
<image xlink:href="tile19_12.png" preserveAspectRatio="none" x="13086.914062" y="-3344.238281" width="4.394531" height="4.394531"/>
<image xlink:href="tile19_11.png" preserveAspectRatio="none" x="13086.914062" y="-3348.632812" width="4.394531" height="4.394531"/>
<image xlink:href="tile19_10.png" preserveAspectRatio="none" x="13086.914062" y="-3353.027344" width="4.394531" height="4.394531"/>
<image xlink:href="tile19_8.png" preserveAspectRatio="none" x="13086.914062" y="-3361.816406" width="4.394531" height="4.394531"/>
<image xlink:href="tile19_7.png" preserveAspectRatio="none" x="13086.914062" y="-3366.210938" width="4.394531" height="4.394531"/>
<image xlink:href="tile19_6.png" preserveAspectRatio="none" x="13086.914062" y="-3370.605469" width="4.394531" height="4.394531"/>
<image xlink:href="tile19_2.png" preserveAspectRatio="none" x="13086.914062" y="-3388.183594" width="4.394531" height="4.394531"/>
<image xlink:href="tile19_1.png" preserveAspectRatio="none" x="13086.914062" y="-3392.578125" width="4.394531" height="4.394531"/>
<image xlink:href="tile20_3.png" preserveAspectRatio="none" x="13091.308594" y="-3383.789062" width="4.394531" height="4.394531"/>
<image xlink:href="tile20_2.png" preserveAspectRatio="none" x="13091.308594" y="-3388.183594" width="4.394531" height="4.394531"/>
<image xlink:href="tile20_1.png" preserveAspectRatio="none" x="13091.308594" y="-3392.578125" width="4.394531" height="4.394531"/>
<image xlink:href="tile21_3.png" preserveAspectRatio="none" x="13095.703125" y="-3383.789062" width="4.394531" height="4.394531"/>
<image xlink:href="tile21_2.png" preserveAspectRatio="none" x="13095.703125" y="-3388.183594" width="4.394531" height="4.394531"/>
<image xlink:href="tile21_1.png" preserveAspectRatio="none" x="13095.703125" y="-3392.578125" width="4.394531" height="4.394531"/>
<image xlink:href="tile21_0.png" preserveAspectRatio="none" x="13095.703125" y="-3396.972656" width="4.394531" height="4.394531"/>
</g>
</svg>
