<?xml version="1.0" encoding="UTF-8"?>
<svg  xmlns="http://www.w3.org/2000/svg" xmlns:xlink="http://www.w3.org/1999/xlink" xmlns:go="http://purl.org/svgmap/profile" viewBox="13100.0 -3200.0 47.96878299999889 65.08333300000011" go:dataArea="13100.0 -3200.0 47.96878299999889 65.08333300000011" >
<metadata>
 <rdf:RDF xmlns:rdf="http://www.w3.org/1999/02/22-rdf-syntax-ns#" xmlns:crs="http://opengis.org/xmldtds/transformations.dtd" xmlns:svg="http://www.w3.org/svg" >
  <rdf:Description>
   <crs:CoordinateReferenceSystem rdf:resource="http://purl.org/crs/84" svg:transform="matrix(100.0,0.0,0.0,-100.0,0.0,0.0)" />
  </rdf:Description>
 </rdf:RDF>
</metadata>
<globalCoordinateSystem srsName="http://purl.org/crs/84" transform="matrix(100.0,0.0,0.0,-100.0,0.0,0.0)" />
<g >
<image xlink:href="tile32_43.png" preserveAspectRatio="none" x="13134.155273" y="-3153.076172" width="1.098633" height="1.098633"/>
<image xlink:href="tile32_42.png" preserveAspectRatio="none" x="13134.155273" y="-3154.174805" width="1.098633" height="1.098633"/>
<image xlink:href="tile32_41.png" preserveAspectRatio="none" x="13134.155273" y="-3155.273438" width="1.098633" height="1.098633"/>
<image xlink:href="tile32_40.png" preserveAspectRatio="none" x="13134.155273" y="-3156.37207" width="1.098633" height="1.098633"/>
<image xlink:href="tile32_39.png" preserveAspectRatio="none" x="13134.155273" y="-3157.470703" width="1.098633" height="1.098633"/>
<image xlink:href="tile32_34.png" preserveAspectRatio="none" x="13134.155273" y="-3162.963867" width="1.098633" height="1.098633"/>
<image xlink:href="tile32_33.png" preserveAspectRatio="none" x="13134.155273" y="-3164.0625" width="1.098633" height="1.098633"/>
<image xlink:href="tile33_43.png" preserveAspectRatio="none" x="13135.253906" y="-3153.076172" width="1.098633" height="1.098633"/>
<image xlink:href="tile33_42.png" preserveAspectRatio="none" x="13135.253906" y="-3154.174805" width="1.098633" height="1.098633"/>
<image xlink:href="tile33_41.png" preserveAspectRatio="none" x="13135.253906" y="-3155.273438" width="1.098633" height="1.098633"/>
<image xlink:href="tile33_40.png" preserveAspectRatio="none" x="13135.253906" y="-3156.37207" width="1.098633" height="1.098633"/>
<image xlink:href="tile33_39.png" preserveAspectRatio="none" x="13135.253906" y="-3157.470703" width="1.098633" height="1.098633"/>
<image xlink:href="tile33_34.png" preserveAspectRatio="none" x="13135.253906" y="-3162.963867" width="1.098633" height="1.098633"/>
<image xlink:href="tile33_33.png" preserveAspectRatio="none" x="13135.253906" y="-3164.0625" width="1.098633" height="1.098633"/>
<image xlink:href="tile34_43.png" preserveAspectRatio="none" x="13136.352539" y="-3153.076172" width="1.098633" height="1.098633"/>
<image xlink:href="tile34_42.png" preserveAspectRatio="none" x="13136.352539" y="-3154.174805" width="1.098633" height="1.098633"/>
<image xlink:href="tile34_41.png" preserveAspectRatio="none" x="13136.352539" y="-3155.273438" width="1.098633" height="1.098633"/>
<image xlink:href="tile34_40.png" preserveAspectRatio="none" x="13136.352539" y="-3156.37207" width="1.098633" height="1.098633"/>
<image xlink:href="tile34_39.png" preserveAspectRatio="none" x="13136.352539" y="-3157.470703" width="1.098633" height="1.098633"/>
<image xlink:href="tile34_37.png" preserveAspectRatio="none" x="13136.352539" y="-3159.667969" width="1.098633" height="1.098633"/>
<image xlink:href="tile34_36.png" preserveAspectRatio="none" x="13136.352539" y="-3160.766602" width="1.098633" height="1.098633"/>
<image xlink:href="tile34_35.png" preserveAspectRatio="none" x="13136.352539" y="-3161.865234" width="1.098633" height="1.098633"/>
<image xlink:href="tile34_34.png" preserveAspectRatio="none" x="13136.352539" y="-3162.963867" width="1.098633" height="1.098633"/>
<image xlink:href="tile34_33.png" preserveAspectRatio="none" x="13136.352539" y="-3164.0625" width="1.098633" height="1.098633"/>
<image xlink:href="tile34_32.png" preserveAspectRatio="none" x="13136.352539" y="-3165.161133" width="1.098633" height="1.098633"/>
<image xlink:href="tile34_31.png" preserveAspectRatio="none" x="13136.352539" y="-3166.259766" width="1.098633" height="1.098633"/>
<image xlink:href="tile34_30.png" preserveAspectRatio="none" x="13136.352539" y="-3167.358398" width="1.098633" height="1.098633"/>
<image xlink:href="tile34_29.png" preserveAspectRatio="none" x="13136.352539" y="-3168.457031" width="1.098633" height="1.098633"/>
<image xlink:href="tile34_28.png" preserveAspectRatio="none" x="13136.352539" y="-3169.555664" width="1.098633" height="1.098633"/>
<image xlink:href="tile35_43.png" preserveAspectRatio="none" x="13137.451172" y="-3153.076172" width="1.098633" height="1.098633"/>
<image xlink:href="tile35_42.png" preserveAspectRatio="none" x="13137.451172" y="-3154.174805" width="1.098633" height="1.098633"/>
<image xlink:href="tile35_41.png" preserveAspectRatio="none" x="13137.451172" y="-3155.273438" width="1.098633" height="1.098633"/>
<image xlink:href="tile35_40.png" preserveAspectRatio="none" x="13137.451172" y="-3156.37207" width="1.098633" height="1.098633"/>
<image xlink:href="tile35_39.png" preserveAspectRatio="none" x="13137.451172" y="-3157.470703" width="1.098633" height="1.098633"/>
<image xlink:href="tile35_37.png" preserveAspectRatio="none" x="13137.451172" y="-3159.667969" width="1.098633" height="1.098633"/>
<image xlink:href="tile35_36.png" preserveAspectRatio="none" x="13137.451172" y="-3160.766602" width="1.098633" height="1.098633"/>
<image xlink:href="tile35_35.png" preserveAspectRatio="none" x="13137.451172" y="-3161.865234" width="1.098633" height="1.098633"/>
<image xlink:href="tile35_34.png" preserveAspectRatio="none" x="13137.451172" y="-3162.963867" width="1.098633" height="1.098633"/>
<image xlink:href="tile35_33.png" preserveAspectRatio="none" x="13137.451172" y="-3164.0625" width="1.098633" height="1.098633"/>
<image xlink:href="tile35_32.png" preserveAspectRatio="none" x="13137.451172" y="-3165.161133" width="1.098633" height="1.098633"/>
<image xlink:href="tile35_31.png" preserveAspectRatio="none" x="13137.451172" y="-3166.259766" width="1.098633" height="1.098633"/>
<image xlink:href="tile35_30.png" preserveAspectRatio="none" x="13137.451172" y="-3167.358398" width="1.098633" height="1.098633"/>
<image xlink:href="tile35_29.png" preserveAspectRatio="none" x="13137.451172" y="-3168.457031" width="1.098633" height="1.098633"/>
<image xlink:href="tile35_28.png" preserveAspectRatio="none" x="13137.451172" y="-3169.555664" width="1.098633" height="1.098633"/>
<image xlink:href="tile36_37.png" preserveAspectRatio="none" x="13138.549805" y="-3159.667969" width="1.098633" height="1.098633"/>
<image xlink:href="tile36_36.png" preserveAspectRatio="none" x="13138.549805" y="-3160.766602" width="1.098633" height="1.098633"/>
<image xlink:href="tile36_35.png" preserveAspectRatio="none" x="13138.549805" y="-3161.865234" width="1.098633" height="1.098633"/>
<image xlink:href="tile36_34.png" preserveAspectRatio="none" x="13138.549805" y="-3162.963867" width="1.098633" height="1.098633"/>
<image xlink:href="tile36_33.png" preserveAspectRatio="none" x="13138.549805" y="-3164.0625" width="1.098633" height="1.098633"/>
<image xlink:href="tile36_32.png" preserveAspectRatio="none" x="13138.549805" y="-3165.161133" width="1.098633" height="1.098633"/>
<image xlink:href="tile36_31.png" preserveAspectRatio="none" x="13138.549805" y="-3166.259766" width="1.098633" height="1.098633"/>
<image xlink:href="tile36_29.png" preserveAspectRatio="none" x="13138.549805" y="-3168.457031" width="1.098633" height="1.098633"/>
<image xlink:href="tile36_28.png" preserveAspectRatio="none" x="13138.549805" y="-3169.555664" width="1.098633" height="1.098633"/>
<image xlink:href="tile37_38.png" preserveAspectRatio="none" x="13139.648438" y="-3158.569336" width="1.098633" height="1.098633"/>
<image xlink:href="tile37_37.png" preserveAspectRatio="none" x="13139.648438" y="-3159.667969" width="1.098633" height="1.098633"/>
<image xlink:href="tile37_36.png" preserveAspectRatio="none" x="13139.648438" y="-3160.766602" width="1.098633" height="1.098633"/>
<image xlink:href="tile37_35.png" preserveAspectRatio="none" x="13139.648438" y="-3161.865234" width="1.098633" height="1.098633"/>
<image xlink:href="tile37_34.png" preserveAspectRatio="none" x="13139.648438" y="-3162.963867" width="1.098633" height="1.098633"/>
<image xlink:href="tile38_37.png" preserveAspectRatio="none" x="13140.74707" y="-3159.667969" width="1.098633" height="1.098633"/>
<image xlink:href="tile38_36.png" preserveAspectRatio="none" x="13140.74707" y="-3160.766602" width="1.098633" height="1.098633"/>
<image xlink:href="tile39_36.png" preserveAspectRatio="none" x="13141.845703" y="-3160.766602" width="1.098633" height="1.098633"/>
</g>
</svg>
