<?xml version="1.0" encoding="UTF-8"?>
<svg  xmlns="http://www.w3.org/2000/svg" xmlns:xlink="http://www.w3.org/1999/xlink" xmlns:go="http://purl.org/svgmap/profile" viewBox="13100.0 -3200.0 47.96878299999889 65.08333300000011" go:dataArea="13100.0 -3200.0 47.96878299999889 65.08333300000011" >
<metadata>
 <rdf:RDF xmlns:rdf="http://www.w3.org/1999/02/22-rdf-syntax-ns#" xmlns:crs="http://opengis.org/xmldtds/transformations.dtd" xmlns:svg="http://www.w3.org/svg" >
  <rdf:Description>
   <crs:CoordinateReferenceSystem rdf:resource="http://purl.org/crs/84" svg:transform="matrix(100.0,0.0,0.0,-100.0,0.0,0.0)" />
  </rdf:Description>
 </rdf:RDF>
</metadata>
<globalCoordinateSystem srsName="http://purl.org/crs/84" transform="matrix(100.0,0.0,0.0,-100.0,0.0,0.0)" />
<g >
<image xlink:href="tile19_50.png" preserveAspectRatio="none" x="13119.873047" y="-3145.385742" width="1.098633" height="1.098633"/>
<image xlink:href="tile19_49.png" preserveAspectRatio="none" x="13119.873047" y="-3146.484375" width="1.098633" height="1.098633"/>
<image xlink:href="tile19_48.png" preserveAspectRatio="none" x="13119.873047" y="-3147.583008" width="1.098633" height="1.098633"/>
<image xlink:href="tile20_51.png" preserveAspectRatio="none" x="13120.97168" y="-3144.287109" width="1.098633" height="1.098633"/>
<image xlink:href="tile20_50.png" preserveAspectRatio="none" x="13120.97168" y="-3145.385742" width="1.098633" height="1.098633"/>
<image xlink:href="tile20_49.png" preserveAspectRatio="none" x="13120.97168" y="-3146.484375" width="1.098633" height="1.098633"/>
<image xlink:href="tile20_48.png" preserveAspectRatio="none" x="13120.97168" y="-3147.583008" width="1.098633" height="1.098633"/>
<image xlink:href="tile21_52.png" preserveAspectRatio="none" x="13122.070312" y="-3143.188477" width="1.098633" height="1.098633"/>
<image xlink:href="tile21_51.png" preserveAspectRatio="none" x="13122.070312" y="-3144.287109" width="1.098633" height="1.098633"/>
<image xlink:href="tile21_50.png" preserveAspectRatio="none" x="13122.070312" y="-3145.385742" width="1.098633" height="1.098633"/>
<image xlink:href="tile21_49.png" preserveAspectRatio="none" x="13122.070312" y="-3146.484375" width="1.098633" height="1.098633"/>
<image xlink:href="tile21_48.png" preserveAspectRatio="none" x="13122.070312" y="-3147.583008" width="1.098633" height="1.098633"/>
<image xlink:href="tile21_45.png" preserveAspectRatio="none" x="13122.070312" y="-3150.878906" width="1.098633" height="1.098633"/>
<image xlink:href="tile21_44.png" preserveAspectRatio="none" x="13122.070312" y="-3151.977539" width="1.098633" height="1.098633"/>
<image xlink:href="tile22_50.png" preserveAspectRatio="none" x="13123.168945" y="-3145.385742" width="1.098633" height="1.098633"/>
<image xlink:href="tile22_49.png" preserveAspectRatio="none" x="13123.168945" y="-3146.484375" width="1.098633" height="1.098633"/>
<image xlink:href="tile22_48.png" preserveAspectRatio="none" x="13123.168945" y="-3147.583008" width="1.098633" height="1.098633"/>
<image xlink:href="tile22_47.png" preserveAspectRatio="none" x="13123.168945" y="-3148.681641" width="1.098633" height="1.098633"/>
<image xlink:href="tile22_46.png" preserveAspectRatio="none" x="13123.168945" y="-3149.780273" width="1.098633" height="1.098633"/>
<image xlink:href="tile22_45.png" preserveAspectRatio="none" x="13123.168945" y="-3150.878906" width="1.098633" height="1.098633"/>
<image xlink:href="tile22_44.png" preserveAspectRatio="none" x="13123.168945" y="-3151.977539" width="1.098633" height="1.098633"/>
<image xlink:href="tile23_52.png" preserveAspectRatio="none" x="13124.267578" y="-3143.188477" width="1.098633" height="1.098633"/>
<image xlink:href="tile23_51.png" preserveAspectRatio="none" x="13124.267578" y="-3144.287109" width="1.098633" height="1.098633"/>
<image xlink:href="tile23_49.png" preserveAspectRatio="none" x="13124.267578" y="-3146.484375" width="1.098633" height="1.098633"/>
<image xlink:href="tile23_48.png" preserveAspectRatio="none" x="13124.267578" y="-3147.583008" width="1.098633" height="1.098633"/>
<image xlink:href="tile23_47.png" preserveAspectRatio="none" x="13124.267578" y="-3148.681641" width="1.098633" height="1.098633"/>
<image xlink:href="tile23_46.png" preserveAspectRatio="none" x="13124.267578" y="-3149.780273" width="1.098633" height="1.098633"/>
<image xlink:href="tile23_45.png" preserveAspectRatio="none" x="13124.267578" y="-3150.878906" width="1.098633" height="1.098633"/>
<image xlink:href="tile23_44.png" preserveAspectRatio="none" x="13124.267578" y="-3151.977539" width="1.098633" height="1.098633"/>
<image xlink:href="tile24_52.png" preserveAspectRatio="none" x="13125.366211" y="-3143.188477" width="1.098633" height="1.098633"/>
<image xlink:href="tile24_51.png" preserveAspectRatio="none" x="13125.366211" y="-3144.287109" width="1.098633" height="1.098633"/>
<image xlink:href="tile24_47.png" preserveAspectRatio="none" x="13125.366211" y="-3148.681641" width="1.098633" height="1.098633"/>
<image xlink:href="tile24_46.png" preserveAspectRatio="none" x="13125.366211" y="-3149.780273" width="1.098633" height="1.098633"/>
<image xlink:href="tile24_45.png" preserveAspectRatio="none" x="13125.366211" y="-3150.878906" width="1.098633" height="1.098633"/>
<image xlink:href="tile24_44.png" preserveAspectRatio="none" x="13125.366211" y="-3151.977539" width="1.098633" height="1.098633"/>
<image xlink:href="tile25_52.png" preserveAspectRatio="none" x="13126.464844" y="-3143.188477" width="1.098633" height="1.098633"/>
<image xlink:href="tile25_51.png" preserveAspectRatio="none" x="13126.464844" y="-3144.287109" width="1.098633" height="1.098633"/>
<image xlink:href="tile25_50.png" preserveAspectRatio="none" x="13126.464844" y="-3145.385742" width="1.098633" height="1.098633"/>
<image xlink:href="tile25_46.png" preserveAspectRatio="none" x="13126.464844" y="-3149.780273" width="1.098633" height="1.098633"/>
<image xlink:href="tile25_45.png" preserveAspectRatio="none" x="13126.464844" y="-3150.878906" width="1.098633" height="1.098633"/>
<image xlink:href="tile26_52.png" preserveAspectRatio="none" x="13127.563477" y="-3143.188477" width="1.098633" height="1.098633"/>
<image xlink:href="tile26_51.png" preserveAspectRatio="none" x="13127.563477" y="-3144.287109" width="1.098633" height="1.098633"/>
<image xlink:href="tile26_50.png" preserveAspectRatio="none" x="13127.563477" y="-3145.385742" width="1.098633" height="1.098633"/>
<image xlink:href="tile27_52.png" preserveAspectRatio="none" x="13128.662109" y="-3143.188477" width="1.098633" height="1.098633"/>
<image xlink:href="tile28_44.png" preserveAspectRatio="none" x="13129.760742" y="-3151.977539" width="1.098633" height="1.098633"/>
<image xlink:href="tile29_45.png" preserveAspectRatio="none" x="13130.859375" y="-3150.878906" width="1.098633" height="1.098633"/>
<image xlink:href="tile29_44.png" preserveAspectRatio="none" x="13130.859375" y="-3151.977539" width="1.098633" height="1.098633"/>
<image xlink:href="tile30_47.png" preserveAspectRatio="none" x="13131.958008" y="-3148.681641" width="1.098633" height="1.098633"/>
<image xlink:href="tile30_44.png" preserveAspectRatio="none" x="13131.958008" y="-3151.977539" width="1.098633" height="1.098633"/>
<image xlink:href="tile31_48.png" preserveAspectRatio="none" x="13133.056641" y="-3147.583008" width="1.098633" height="1.098633"/>
<image xlink:href="tile31_47.png" preserveAspectRatio="none" x="13133.056641" y="-3148.681641" width="1.098633" height="1.098633"/>
<image xlink:href="tile31_45.png" preserveAspectRatio="none" x="13133.056641" y="-3150.878906" width="1.098633" height="1.098633"/>
<image xlink:href="tile31_44.png" preserveAspectRatio="none" x="13133.056641" y="-3151.977539" width="1.098633" height="1.098633"/>
</g>
</svg>
