<?xml version="1.0" encoding="UTF-8"?>
<svg  xmlns="http://www.w3.org/2000/svg" xmlns:xlink="http://www.w3.org/1999/xlink" xmlns:go="http://purl.org/svgmap/profile" viewBox="13320.275000000001 -3370.6791670000002 76.92215120000014 32.81250040000003" go:dataArea="13320.275000000001 -3370.6791670000002 76.92215120000014 32.81250040000003" >
<metadata>
 <rdf:RDF xmlns:rdf="http://www.w3.org/1999/02/22-rdf-syntax-ns#" xmlns:crs="http://opengis.org/xmldtds/transformations.dtd" xmlns:svg="http://www.w3.org/svg" >
  <rdf:Description>
   <crs:CoordinateReferenceSystem rdf:resource="http://purl.org/crs/84" svg:transform="matrix(100.0,0.0,0.0,-100.0,0.0,0.0)" />
  </rdf:Description>
 </rdf:RDF>
</metadata>
<globalCoordinateSystem srsName="http://purl.org/crs/84" transform="matrix(100.0,0.0,0.0,-100.0,0.0,0.0)" />
<g >
<image xlink:href="tile0_24.png" preserveAspectRatio="none" x="13319.824219" y="-3345.336914" width="1.098633" height="1.098633"/>
<image xlink:href="tile1_29.png" preserveAspectRatio="none" x="13320.922852" y="-3339.84375" width="1.098633" height="1.098633"/>
<image xlink:href="tile1_17.png" preserveAspectRatio="none" x="13320.922852" y="-3353.027344" width="1.098633" height="1.098633"/>
<image xlink:href="tile1_15.png" preserveAspectRatio="none" x="13320.922852" y="-3355.224609" width="1.098633" height="1.098633"/>
<image xlink:href="tile2_29.png" preserveAspectRatio="none" x="13322.021484" y="-3339.84375" width="1.098633" height="1.098633"/>
<image xlink:href="tile2_28.png" preserveAspectRatio="none" x="13322.021484" y="-3340.942383" width="1.098633" height="1.098633"/>
<image xlink:href="tile2_26.png" preserveAspectRatio="none" x="13322.021484" y="-3343.139648" width="1.098633" height="1.098633"/>
<image xlink:href="tile2_25.png" preserveAspectRatio="none" x="13322.021484" y="-3344.238281" width="1.098633" height="1.098633"/>
<image xlink:href="tile2_20.png" preserveAspectRatio="none" x="13322.021484" y="-3349.731445" width="1.098633" height="1.098633"/>
<image xlink:href="tile2_19.png" preserveAspectRatio="none" x="13322.021484" y="-3350.830078" width="1.098633" height="1.098633"/>
<image xlink:href="tile2_17.png" preserveAspectRatio="none" x="13322.021484" y="-3353.027344" width="1.098633" height="1.098633"/>
<image xlink:href="tile2_16.png" preserveAspectRatio="none" x="13322.021484" y="-3354.125977" width="1.098633" height="1.098633"/>
<image xlink:href="tile2_15.png" preserveAspectRatio="none" x="13322.021484" y="-3355.224609" width="1.098633" height="1.098633"/>
<image xlink:href="tile3_29.png" preserveAspectRatio="none" x="13323.120117" y="-3339.84375" width="1.098633" height="1.098633"/>
<image xlink:href="tile3_28.png" preserveAspectRatio="none" x="13323.120117" y="-3340.942383" width="1.098633" height="1.098633"/>
<image xlink:href="tile3_27.png" preserveAspectRatio="none" x="13323.120117" y="-3342.041016" width="1.098633" height="1.098633"/>
<image xlink:href="tile3_26.png" preserveAspectRatio="none" x="13323.120117" y="-3343.139648" width="1.098633" height="1.098633"/>
<image xlink:href="tile3_25.png" preserveAspectRatio="none" x="13323.120117" y="-3344.238281" width="1.098633" height="1.098633"/>
<image xlink:href="tile3_20.png" preserveAspectRatio="none" x="13323.120117" y="-3349.731445" width="1.098633" height="1.098633"/>
<image xlink:href="tile3_19.png" preserveAspectRatio="none" x="13323.120117" y="-3350.830078" width="1.098633" height="1.098633"/>
<image xlink:href="tile3_17.png" preserveAspectRatio="none" x="13323.120117" y="-3353.027344" width="1.098633" height="1.098633"/>
<image xlink:href="tile3_16.png" preserveAspectRatio="none" x="13323.120117" y="-3354.125977" width="1.098633" height="1.098633"/>
<image xlink:href="tile3_15.png" preserveAspectRatio="none" x="13323.120117" y="-3355.224609" width="1.098633" height="1.098633"/>
<image xlink:href="tile4_29.png" preserveAspectRatio="none" x="13324.21875" y="-3339.84375" width="1.098633" height="1.098633"/>
<image xlink:href="tile4_28.png" preserveAspectRatio="none" x="13324.21875" y="-3340.942383" width="1.098633" height="1.098633"/>
<image xlink:href="tile4_27.png" preserveAspectRatio="none" x="13324.21875" y="-3342.041016" width="1.098633" height="1.098633"/>
<image xlink:href="tile4_20.png" preserveAspectRatio="none" x="13324.21875" y="-3349.731445" width="1.098633" height="1.098633"/>
<image xlink:href="tile4_17.png" preserveAspectRatio="none" x="13324.21875" y="-3353.027344" width="1.098633" height="1.098633"/>
<image xlink:href="tile4_16.png" preserveAspectRatio="none" x="13324.21875" y="-3354.125977" width="1.098633" height="1.098633"/>
<image xlink:href="tile4_15.png" preserveAspectRatio="none" x="13324.21875" y="-3355.224609" width="1.098633" height="1.098633"/>
<image xlink:href="tile5_29.png" preserveAspectRatio="none" x="13325.317383" y="-3339.84375" width="1.098633" height="1.098633"/>
<image xlink:href="tile5_28.png" preserveAspectRatio="none" x="13325.317383" y="-3340.942383" width="1.098633" height="1.098633"/>
<image xlink:href="tile5_20.png" preserveAspectRatio="none" x="13325.317383" y="-3349.731445" width="1.098633" height="1.098633"/>
<image xlink:href="tile5_17.png" preserveAspectRatio="none" x="13325.317383" y="-3353.027344" width="1.098633" height="1.098633"/>
<image xlink:href="tile5_16.png" preserveAspectRatio="none" x="13325.317383" y="-3354.125977" width="1.098633" height="1.098633"/>
<image xlink:href="tile5_15.png" preserveAspectRatio="none" x="13325.317383" y="-3355.224609" width="1.098633" height="1.098633"/>
<image xlink:href="tile6_30.png" preserveAspectRatio="none" x="13326.416016" y="-3338.745117" width="1.098633" height="1.098633"/>
<image xlink:href="tile6_29.png" preserveAspectRatio="none" x="13326.416016" y="-3339.84375" width="1.098633" height="1.098633"/>
<image xlink:href="tile6_28.png" preserveAspectRatio="none" x="13326.416016" y="-3340.942383" width="1.098633" height="1.098633"/>
<image xlink:href="tile6_20.png" preserveAspectRatio="none" x="13326.416016" y="-3349.731445" width="1.098633" height="1.098633"/>
<image xlink:href="tile6_19.png" preserveAspectRatio="none" x="13326.416016" y="-3350.830078" width="1.098633" height="1.098633"/>
<image xlink:href="tile6_18.png" preserveAspectRatio="none" x="13326.416016" y="-3351.928711" width="1.098633" height="1.098633"/>
<image xlink:href="tile6_17.png" preserveAspectRatio="none" x="13326.416016" y="-3353.027344" width="1.098633" height="1.098633"/>
<image xlink:href="tile6_16.png" preserveAspectRatio="none" x="13326.416016" y="-3354.125977" width="1.098633" height="1.098633"/>
<image xlink:href="tile6_15.png" preserveAspectRatio="none" x="13326.416016" y="-3355.224609" width="1.098633" height="1.098633"/>
<image xlink:href="tile7_30.png" preserveAspectRatio="none" x="13327.514648" y="-3338.745117" width="1.098633" height="1.098633"/>
<image xlink:href="tile7_29.png" preserveAspectRatio="none" x="13327.514648" y="-3339.84375" width="1.098633" height="1.098633"/>
<image xlink:href="tile7_28.png" preserveAspectRatio="none" x="13327.514648" y="-3340.942383" width="1.098633" height="1.098633"/>
<image xlink:href="tile7_27.png" preserveAspectRatio="none" x="13327.514648" y="-3342.041016" width="1.098633" height="1.098633"/>
<image xlink:href="tile7_26.png" preserveAspectRatio="none" x="13327.514648" y="-3343.139648" width="1.098633" height="1.098633"/>
<image xlink:href="tile7_20.png" preserveAspectRatio="none" x="13327.514648" y="-3349.731445" width="1.098633" height="1.098633"/>
<image xlink:href="tile7_19.png" preserveAspectRatio="none" x="13327.514648" y="-3350.830078" width="1.098633" height="1.098633"/>
<image xlink:href="tile7_18.png" preserveAspectRatio="none" x="13327.514648" y="-3351.928711" width="1.098633" height="1.098633"/>
<image xlink:href="tile7_17.png" preserveAspectRatio="none" x="13327.514648" y="-3353.027344" width="1.098633" height="1.098633"/>
<image xlink:href="tile7_16.png" preserveAspectRatio="none" x="13327.514648" y="-3354.125977" width="1.098633" height="1.098633"/>
<image xlink:href="tile7_15.png" preserveAspectRatio="none" x="13327.514648" y="-3355.224609" width="1.098633" height="1.098633"/>
<image xlink:href="tile8_28.png" preserveAspectRatio="none" x="13328.613281" y="-3340.942383" width="1.098633" height="1.098633"/>
<image xlink:href="tile8_27.png" preserveAspectRatio="none" x="13328.613281" y="-3342.041016" width="1.098633" height="1.098633"/>
<image xlink:href="tile8_26.png" preserveAspectRatio="none" x="13328.613281" y="-3343.139648" width="1.098633" height="1.098633"/>
<image xlink:href="tile8_25.png" preserveAspectRatio="none" x="13328.613281" y="-3344.238281" width="1.098633" height="1.098633"/>
<image xlink:href="tile8_19.png" preserveAspectRatio="none" x="13328.613281" y="-3350.830078" width="1.098633" height="1.098633"/>
<image xlink:href="tile8_18.png" preserveAspectRatio="none" x="13328.613281" y="-3351.928711" width="1.098633" height="1.098633"/>
<image xlink:href="tile8_17.png" preserveAspectRatio="none" x="13328.613281" y="-3353.027344" width="1.098633" height="1.098633"/>
<image xlink:href="tile8_16.png" preserveAspectRatio="none" x="13328.613281" y="-3354.125977" width="1.098633" height="1.098633"/>
<image xlink:href="tile8_15.png" preserveAspectRatio="none" x="13328.613281" y="-3355.224609" width="1.098633" height="1.098633"/>
<image xlink:href="tile9_28.png" preserveAspectRatio="none" x="13329.711914" y="-3340.942383" width="1.098633" height="1.098633"/>
<image xlink:href="tile9_27.png" preserveAspectRatio="none" x="13329.711914" y="-3342.041016" width="1.098633" height="1.098633"/>
<image xlink:href="tile9_26.png" preserveAspectRatio="none" x="13329.711914" y="-3343.139648" width="1.098633" height="1.098633"/>
<image xlink:href="tile9_18.png" preserveAspectRatio="none" x="13329.711914" y="-3351.928711" width="1.098633" height="1.098633"/>
<image xlink:href="tile9_16.png" preserveAspectRatio="none" x="13329.711914" y="-3354.125977" width="1.098633" height="1.098633"/>
<image xlink:href="tile10_28.png" preserveAspectRatio="none" x="13330.810547" y="-3340.942383" width="1.098633" height="1.098633"/>
<image xlink:href="tile10_27.png" preserveAspectRatio="none" x="13330.810547" y="-3342.041016" width="1.098633" height="1.098633"/>
</g>
</svg>
