<?xml version="1.0" encoding="UTF-8"?>
<svg  xmlns="http://www.w3.org/2000/svg" xmlns:xlink="http://www.w3.org/1999/xlink" xmlns:go="http://purl.org/svgmap/profile" viewBox="13000.5625 -3266.666667 99.43749999999909 66.66666699999979" go:dataArea="13000.5625 -3266.666667 99.43749999999909 66.66666699999979" >
<metadata>
 <rdf:RDF xmlns:rdf="http://www.w3.org/1999/02/22-rdf-syntax-ns#" xmlns:crs="http://opengis.org/xmldtds/transformations.dtd" xmlns:svg="http://www.w3.org/svg" >
  <rdf:Description>
   <crs:CoordinateReferenceSystem rdf:resource="http://purl.org/crs/84" svg:transform="matrix(100.0,0.0,0.0,-100.0,0.0,0.0)" />
  </rdf:Description>
 </rdf:RDF>
</metadata>
<globalCoordinateSystem srsName="http://purl.org/crs/84" transform="matrix(100.0,0.0,0.0,-100.0,0.0,0.0)" />
<g >
<image xlink:href="tile0_8.png" preserveAspectRatio="none" x="12999.023438" y="-3234.375" width="4.394531" height="4.394531"/>
<image xlink:href="tile0_6.png" preserveAspectRatio="none" x="12999.023438" y="-3243.164062" width="4.394531" height="4.394531"/>
<image xlink:href="tile1_8.png" preserveAspectRatio="none" x="13003.417969" y="-3234.375" width="4.394531" height="4.394531"/>
<image xlink:href="tile1_4.png" preserveAspectRatio="none" x="13003.417969" y="-3251.953125" width="4.394531" height="4.394531"/>
<image xlink:href="tile1_3.png" preserveAspectRatio="none" x="13003.417969" y="-3256.347656" width="4.394531" height="4.394531"/>
<image xlink:href="tile2_8.png" preserveAspectRatio="none" x="13007.8125" y="-3234.375" width="4.394531" height="4.394531"/>
<image xlink:href="tile2_4.png" preserveAspectRatio="none" x="13007.8125" y="-3251.953125" width="4.394531" height="4.394531"/>
<image xlink:href="tile2_3.png" preserveAspectRatio="none" x="13007.8125" y="-3256.347656" width="4.394531" height="4.394531"/>
<image xlink:href="tile3_7.png" preserveAspectRatio="none" x="13012.207031" y="-3238.769531" width="4.394531" height="4.394531"/>
<image xlink:href="tile3_6.png" preserveAspectRatio="none" x="13012.207031" y="-3243.164062" width="4.394531" height="4.394531"/>
<image xlink:href="tile3_5.png" preserveAspectRatio="none" x="13012.207031" y="-3247.558594" width="4.394531" height="4.394531"/>
<image xlink:href="tile3_3.png" preserveAspectRatio="none" x="13012.207031" y="-3256.347656" width="4.394531" height="4.394531"/>
<image xlink:href="tile4_7.png" preserveAspectRatio="none" x="13016.601562" y="-3238.769531" width="4.394531" height="4.394531"/>
<image xlink:href="tile4_6.png" preserveAspectRatio="none" x="13016.601562" y="-3243.164062" width="4.394531" height="4.394531"/>
<image xlink:href="tile4_5.png" preserveAspectRatio="none" x="13016.601562" y="-3247.558594" width="4.394531" height="4.394531"/>
<image xlink:href="tile6_6.png" preserveAspectRatio="none" x="13025.390625" y="-3243.164062" width="4.394531" height="4.394531"/>
<image xlink:href="tile6_5.png" preserveAspectRatio="none" x="13025.390625" y="-3247.558594" width="4.394531" height="4.394531"/>
<image xlink:href="tile6_0.png" preserveAspectRatio="none" x="13025.390625" y="-3269.53125" width="4.394531" height="4.394531"/>
<image xlink:href="tile7_13.png" preserveAspectRatio="none" x="13029.785156" y="-3212.402344" width="4.394531" height="4.394531"/>
<image xlink:href="tile7_12.png" preserveAspectRatio="none" x="13029.785156" y="-3216.796875" width="4.394531" height="4.394531"/>
<image xlink:href="tile7_5.png" preserveAspectRatio="none" x="13029.785156" y="-3247.558594" width="4.394531" height="4.394531"/>
<image xlink:href="tile7_0.png" preserveAspectRatio="none" x="13029.785156" y="-3269.53125" width="4.394531" height="4.394531"/>
<image xlink:href="tile8_14.png" preserveAspectRatio="none" x="13034.179688" y="-3208.007812" width="4.394531" height="4.394531"/>
<image xlink:href="tile8_13.png" preserveAspectRatio="none" x="13034.179688" y="-3212.402344" width="4.394531" height="4.394531"/>
<image xlink:href="tile8_12.png" preserveAspectRatio="none" x="13034.179688" y="-3216.796875" width="4.394531" height="4.394531"/>
<image xlink:href="tile8_11.png" preserveAspectRatio="none" x="13034.179688" y="-3221.191406" width="4.394531" height="4.394531"/>
<image xlink:href="tile8_10.png" preserveAspectRatio="none" x="13034.179688" y="-3225.585938" width="4.394531" height="4.394531"/>
<image xlink:href="tile9_11.png" preserveAspectRatio="none" x="13038.574219" y="-3221.191406" width="4.394531" height="4.394531"/>
<image xlink:href="tile9_10.png" preserveAspectRatio="none" x="13038.574219" y="-3225.585938" width="4.394531" height="4.394531"/>
<image xlink:href="tile9_4.png" preserveAspectRatio="none" x="13038.574219" y="-3251.953125" width="4.394531" height="4.394531"/>
<image xlink:href="tile10_11.png" preserveAspectRatio="none" x="13042.96875" y="-3221.191406" width="4.394531" height="4.394531"/>
<image xlink:href="tile10_10.png" preserveAspectRatio="none" x="13042.96875" y="-3225.585938" width="4.394531" height="4.394531"/>
<image xlink:href="tile11_10.png" preserveAspectRatio="none" x="13047.363281" y="-3225.585938" width="4.394531" height="4.394531"/>
<image xlink:href="tile11_9.png" preserveAspectRatio="none" x="13047.363281" y="-3229.980469" width="4.394531" height="4.394531"/>
<image xlink:href="tile11_8.png" preserveAspectRatio="none" x="13047.363281" y="-3234.375" width="4.394531" height="4.394531"/>
<image xlink:href="tile11_7.png" preserveAspectRatio="none" x="13047.363281" y="-3238.769531" width="4.394531" height="4.394531"/>
<image xlink:href="tile11_1.png" preserveAspectRatio="none" x="13047.363281" y="-3265.136719" width="4.394531" height="4.394531"/>
<image xlink:href="tile12_9.png" preserveAspectRatio="none" x="13051.757812" y="-3229.980469" width="4.394531" height="4.394531"/>
<image xlink:href="tile12_7.png" preserveAspectRatio="none" x="13051.757812" y="-3238.769531" width="4.394531" height="4.394531"/>
<image xlink:href="tile12_6.png" preserveAspectRatio="none" x="13051.757812" y="-3243.164062" width="4.394531" height="4.394531"/>
<image xlink:href="tile12_4.png" preserveAspectRatio="none" x="13051.757812" y="-3251.953125" width="4.394531" height="4.394531"/>
<image xlink:href="tile12_3.png" preserveAspectRatio="none" x="13051.757812" y="-3256.347656" width="4.394531" height="4.394531"/>
<image xlink:href="tile13_15.png" preserveAspectRatio="none" x="13056.152344" y="-3203.613281" width="4.394531" height="4.394531"/>
<image xlink:href="tile13_14.png" preserveAspectRatio="none" x="13056.152344" y="-3208.007812" width="4.394531" height="4.394531"/>
<image xlink:href="tile13_9.png" preserveAspectRatio="none" x="13056.152344" y="-3229.980469" width="4.394531" height="4.394531"/>
<image xlink:href="tile13_8.png" preserveAspectRatio="none" x="13056.152344" y="-3234.375" width="4.394531" height="4.394531"/>
<image xlink:href="tile13_7.png" preserveAspectRatio="none" x="13056.152344" y="-3238.769531" width="4.394531" height="4.394531"/>
<image xlink:href="tile13_6.png" preserveAspectRatio="none" x="13056.152344" y="-3243.164062" width="4.394531" height="4.394531"/>
<image xlink:href="tile13_5.png" preserveAspectRatio="none" x="13056.152344" y="-3247.558594" width="4.394531" height="4.394531"/>
<image xlink:href="tile13_4.png" preserveAspectRatio="none" x="13056.152344" y="-3251.953125" width="4.394531" height="4.394531"/>
<image xlink:href="tile13_3.png" preserveAspectRatio="none" x="13056.152344" y="-3256.347656" width="4.394531" height="4.394531"/>
<image xlink:href="tile13_2.png" preserveAspectRatio="none" x="13056.152344" y="-3260.742188" width="4.394531" height="4.394531"/>
<image xlink:href="tile14_15.png" preserveAspectRatio="none" x="13060.546875" y="-3203.613281" width="4.394531" height="4.394531"/>
<image xlink:href="tile14_14.png" preserveAspectRatio="none" x="13060.546875" y="-3208.007812" width="4.394531" height="4.394531"/>
<image xlink:href="tile14_10.png" preserveAspectRatio="none" x="13060.546875" y="-3225.585938" width="4.394531" height="4.394531"/>
<image xlink:href="tile14_9.png" preserveAspectRatio="none" x="13060.546875" y="-3229.980469" width="4.394531" height="4.394531"/>
<image xlink:href="tile14_8.png" preserveAspectRatio="none" x="13060.546875" y="-3234.375" width="4.394531" height="4.394531"/>
<image xlink:href="tile14_7.png" preserveAspectRatio="none" x="13060.546875" y="-3238.769531" width="4.394531" height="4.394531"/>
<image xlink:href="tile14_6.png" preserveAspectRatio="none" x="13060.546875" y="-3243.164062" width="4.394531" height="4.394531"/>
<image xlink:href="tile14_5.png" preserveAspectRatio="none" x="13060.546875" y="-3247.558594" width="4.394531" height="4.394531"/>
<image xlink:href="tile14_4.png" preserveAspectRatio="none" x="13060.546875" y="-3251.953125" width="4.394531" height="4.394531"/>
<image xlink:href="tile14_3.png" preserveAspectRatio="none" x="13060.546875" y="-3256.347656" width="4.394531" height="4.394531"/>
<image xlink:href="tile14_2.png" preserveAspectRatio="none" x="13060.546875" y="-3260.742188" width="4.394531" height="4.394531"/>
<image xlink:href="tile14_1.png" preserveAspectRatio="none" x="13060.546875" y="-3265.136719" width="4.394531" height="4.394531"/>
<image xlink:href="tile15_10.png" preserveAspectRatio="none" x="13064.941406" y="-3225.585938" width="4.394531" height="4.394531"/>
<image xlink:href="tile15_9.png" preserveAspectRatio="none" x="13064.941406" y="-3229.980469" width="4.394531" height="4.394531"/>
<image xlink:href="tile15_7.png" preserveAspectRatio="none" x="13064.941406" y="-3238.769531" width="4.394531" height="4.394531"/>
<image xlink:href="tile15_6.png" preserveAspectRatio="none" x="13064.941406" y="-3243.164062" width="4.394531" height="4.394531"/>
<image xlink:href="tile15_5.png" preserveAspectRatio="none" x="13064.941406" y="-3247.558594" width="4.394531" height="4.394531"/>
<image xlink:href="tile15_4.png" preserveAspectRatio="none" x="13064.941406" y="-3251.953125" width="4.394531" height="4.394531"/>
<image xlink:href="tile15_3.png" preserveAspectRatio="none" x="13064.941406" y="-3256.347656" width="4.394531" height="4.394531"/>
<image xlink:href="tile15_2.png" preserveAspectRatio="none" x="13064.941406" y="-3260.742188" width="4.394531" height="4.394531"/>
<image xlink:href="tile15_1.png" preserveAspectRatio="none" x="13064.941406" y="-3265.136719" width="4.394531" height="4.394531"/>
<image xlink:href="tile15_0.png" preserveAspectRatio="none" x="13064.941406" y="-3269.53125" width="4.394531" height="4.394531"/>
</g>
</svg>
