<?xml version="1.0" encoding="UTF-8"?>
<svg  xmlns="http://www.w3.org/2000/svg" xmlns:xlink="http://www.w3.org/1999/xlink" xmlns:go="http://purl.org/svgmap/profile" viewBox="13100.0 -3200.0 47.96878299999889 65.08333300000011" go:dataArea="13100.0 -3200.0 47.96878299999889 65.08333300000011" >
<metadata>
 <rdf:RDF xmlns:rdf="http://www.w3.org/1999/02/22-rdf-syntax-ns#" xmlns:crs="http://opengis.org/xmldtds/transformations.dtd" xmlns:svg="http://www.w3.org/svg" >
  <rdf:Description>
   <crs:CoordinateReferenceSystem rdf:resource="http://purl.org/crs/84" svg:transform="matrix(100.0,0.0,0.0,-100.0,0.0,0.0)" />
  </rdf:Description>
 </rdf:RDF>
</metadata>
<globalCoordinateSystem srsName="http://purl.org/crs/84" transform="matrix(100.0,0.0,0.0,-100.0,0.0,0.0)" />
<g >
<image xlink:href="tile0_8.png" preserveAspectRatio="none" x="13095.703125" y="-3137.695312" width="8.789062" height="8.789062"/>
<image xlink:href="tile0_7.png" preserveAspectRatio="none" x="13095.703125" y="-3146.484375" width="8.789062" height="8.789062"/>
<image xlink:href="tile0_3.png" preserveAspectRatio="none" x="13095.703125" y="-3181.640625" width="8.789062" height="8.789062"/>
<image xlink:href="tile0_2.png" preserveAspectRatio="none" x="13095.703125" y="-3190.429688" width="8.789062" height="8.789062"/>
<image xlink:href="tile0_1.png" preserveAspectRatio="none" x="13095.703125" y="-3199.21875" width="8.789062" height="8.789062"/>
<image xlink:href="tile0_0.png" preserveAspectRatio="none" x="13095.703125" y="-3208.007812" width="8.789062" height="8.789062"/>
<image xlink:href="tile1_4.png" preserveAspectRatio="none" x="13104.492188" y="-3172.851562" width="8.789062" height="8.789062"/>
<image xlink:href="tile1_3.png" preserveAspectRatio="none" x="13104.492188" y="-3181.640625" width="8.789062" height="8.789062"/>
<image xlink:href="tile1_2.png" preserveAspectRatio="none" x="13104.492188" y="-3190.429688" width="8.789062" height="8.789062"/>
<image xlink:href="tile1_1.png" preserveAspectRatio="none" x="13104.492188" y="-3199.21875" width="8.789062" height="8.789062"/>
<image xlink:href="tile2_7.png" preserveAspectRatio="none" x="13113.28125" y="-3146.484375" width="8.789062" height="8.789062"/>
<image xlink:href="tile2_6.png" preserveAspectRatio="none" x="13113.28125" y="-3155.273438" width="8.789062" height="8.789062"/>
<image xlink:href="tile2_4.png" preserveAspectRatio="none" x="13113.28125" y="-3172.851562" width="8.789062" height="8.789062"/>
<image xlink:href="tile2_3.png" preserveAspectRatio="none" x="13113.28125" y="-3181.640625" width="8.789062" height="8.789062"/>
<image xlink:href="tile2_2.png" preserveAspectRatio="none" x="13113.28125" y="-3190.429688" width="8.789062" height="8.789062"/>
<image xlink:href="tile3_7.png" preserveAspectRatio="none" x="13122.070312" y="-3146.484375" width="8.789062" height="8.789062"/>
<image xlink:href="tile3_6.png" preserveAspectRatio="none" x="13122.070312" y="-3155.273438" width="8.789062" height="8.789062"/>
<image xlink:href="tile3_5.png" preserveAspectRatio="none" x="13122.070312" y="-3164.0625" width="8.789062" height="8.789062"/>
<image xlink:href="tile3_4.png" preserveAspectRatio="none" x="13122.070312" y="-3172.851562" width="8.789062" height="8.789062"/>
<image xlink:href="tile3_1.png" preserveAspectRatio="none" x="13122.070312" y="-3199.21875" width="8.789062" height="8.789062"/>
<image xlink:href="tile3_0.png" preserveAspectRatio="none" x="13122.070312" y="-3208.007812" width="8.789062" height="8.789062"/>
<image xlink:href="tile4_7.png" preserveAspectRatio="none" x="13130.859375" y="-3146.484375" width="8.789062" height="8.789062"/>
<image xlink:href="tile4_6.png" preserveAspectRatio="none" x="13130.859375" y="-3155.273438" width="8.789062" height="8.789062"/>
<image xlink:href="tile4_5.png" preserveAspectRatio="none" x="13130.859375" y="-3164.0625" width="8.789062" height="8.789062"/>
<image xlink:href="tile4_4.png" preserveAspectRatio="none" x="13130.859375" y="-3172.851562" width="8.789062" height="8.789062"/>
<image xlink:href="tile4_2.png" preserveAspectRatio="none" x="13130.859375" y="-3190.429688" width="8.789062" height="8.789062"/>
<image xlink:href="tile4_1.png" preserveAspectRatio="none" x="13130.859375" y="-3199.21875" width="8.789062" height="8.789062"/>
<image xlink:href="tile4_0.png" preserveAspectRatio="none" x="13130.859375" y="-3208.007812" width="8.789062" height="8.789062"/>
<image xlink:href="tile5_5.png" preserveAspectRatio="none" x="13139.648438" y="-3164.0625" width="8.789062" height="8.789062"/>
<image xlink:href="tile5_3.png" preserveAspectRatio="none" x="13139.648438" y="-3181.640625" width="8.789062" height="8.789062"/>
<image xlink:href="tile5_2.png" preserveAspectRatio="none" x="13139.648438" y="-3190.429688" width="8.789062" height="8.789062"/>
<image xlink:href="tile5_1.png" preserveAspectRatio="none" x="13139.648438" y="-3199.21875" width="8.789062" height="8.789062"/>
<image xlink:href="tile5_0.png" preserveAspectRatio="none" x="13139.648438" y="-3208.007812" width="8.789062" height="8.789062"/>
</g>
</svg>
