<?xml version="1.0" encoding="UTF-8"?>
<svg  xmlns="http://www.w3.org/2000/svg" xmlns:xlink="http://www.w3.org/1999/xlink" xmlns:go="http://purl.org/svgmap/profile" viewBox="13512.65625 -3400.0 87.34374999999943 48.44583300000025" go:dataArea="13512.65625 -3400.0 87.34374999999943 48.44583300000025" >
<metadata>
 <rdf:RDF xmlns:rdf="http://www.w3.org/1999/02/22-rdf-syntax-ns#" xmlns:crs="http://opengis.org/xmldtds/transformations.dtd" xmlns:svg="http://www.w3.org/svg" >
  <rdf:Description>
   <crs:CoordinateReferenceSystem rdf:resource="http://purl.org/crs/84" svg:transform="matrix(100.0,0.0,0.0,-100.0,0.0,0.0)" />
  </rdf:Description>
 </rdf:RDF>
</metadata>
<globalCoordinateSystem srsName="http://purl.org/crs/84" transform="matrix(100.0,0.0,0.0,-100.0,0.0,0.0)" />
<g >
<image xlink:href="tile0_5.png" preserveAspectRatio="none" x="13510.986328" y="-3390.380859" width="2.197266" height="2.197266"/>
<image xlink:href="tile0_4.png" preserveAspectRatio="none" x="13510.986328" y="-3392.578125" width="2.197266" height="2.197266"/>
<image xlink:href="tile1_6.png" preserveAspectRatio="none" x="13513.183594" y="-3388.183594" width="2.197266" height="2.197266"/>
<image xlink:href="tile1_5.png" preserveAspectRatio="none" x="13513.183594" y="-3390.380859" width="2.197266" height="2.197266"/>
<image xlink:href="tile1_4.png" preserveAspectRatio="none" x="13513.183594" y="-3392.578125" width="2.197266" height="2.197266"/>
<image xlink:href="tile1_3.png" preserveAspectRatio="none" x="13513.183594" y="-3394.775391" width="2.197266" height="2.197266"/>
<image xlink:href="tile2_6.png" preserveAspectRatio="none" x="13515.380859" y="-3388.183594" width="2.197266" height="2.197266"/>
<image xlink:href="tile2_5.png" preserveAspectRatio="none" x="13515.380859" y="-3390.380859" width="2.197266" height="2.197266"/>
<image xlink:href="tile2_4.png" preserveAspectRatio="none" x="13515.380859" y="-3392.578125" width="2.197266" height="2.197266"/>
<image xlink:href="tile3_5.png" preserveAspectRatio="none" x="13517.578125" y="-3390.380859" width="2.197266" height="2.197266"/>
<image xlink:href="tile3_4.png" preserveAspectRatio="none" x="13517.578125" y="-3392.578125" width="2.197266" height="2.197266"/>
<image xlink:href="tile3_0.png" preserveAspectRatio="none" x="13517.578125" y="-3401.367188" width="2.197266" height="2.197266"/>
<image xlink:href="tile4_5.png" preserveAspectRatio="none" x="13519.775391" y="-3390.380859" width="2.197266" height="2.197266"/>
<image xlink:href="tile4_4.png" preserveAspectRatio="none" x="13519.775391" y="-3392.578125" width="2.197266" height="2.197266"/>
<image xlink:href="tile4_3.png" preserveAspectRatio="none" x="13519.775391" y="-3394.775391" width="2.197266" height="2.197266"/>
<image xlink:href="tile4_2.png" preserveAspectRatio="none" x="13519.775391" y="-3396.972656" width="2.197266" height="2.197266"/>
<image xlink:href="tile4_1.png" preserveAspectRatio="none" x="13519.775391" y="-3399.169922" width="2.197266" height="2.197266"/>
<image xlink:href="tile4_0.png" preserveAspectRatio="none" x="13519.775391" y="-3401.367188" width="2.197266" height="2.197266"/>
<image xlink:href="tile5_6.png" preserveAspectRatio="none" x="13521.972656" y="-3388.183594" width="2.197266" height="2.197266"/>
<image xlink:href="tile5_5.png" preserveAspectRatio="none" x="13521.972656" y="-3390.380859" width="2.197266" height="2.197266"/>
<image xlink:href="tile5_4.png" preserveAspectRatio="none" x="13521.972656" y="-3392.578125" width="2.197266" height="2.197266"/>
<image xlink:href="tile5_3.png" preserveAspectRatio="none" x="13521.972656" y="-3394.775391" width="2.197266" height="2.197266"/>
<image xlink:href="tile5_2.png" preserveAspectRatio="none" x="13521.972656" y="-3396.972656" width="2.197266" height="2.197266"/>
<image xlink:href="tile5_1.png" preserveAspectRatio="none" x="13521.972656" y="-3399.169922" width="2.197266" height="2.197266"/>
<image xlink:href="tile6_3.png" preserveAspectRatio="none" x="13524.169922" y="-3394.775391" width="2.197266" height="2.197266"/>
<image xlink:href="tile6_2.png" preserveAspectRatio="none" x="13524.169922" y="-3396.972656" width="2.197266" height="2.197266"/>
<image xlink:href="tile7_6.png" preserveAspectRatio="none" x="13526.367188" y="-3388.183594" width="2.197266" height="2.197266"/>
<image xlink:href="tile7_3.png" preserveAspectRatio="none" x="13526.367188" y="-3394.775391" width="2.197266" height="2.197266"/>
<image xlink:href="tile7_2.png" preserveAspectRatio="none" x="13526.367188" y="-3396.972656" width="2.197266" height="2.197266"/>
<image xlink:href="tile8_6.png" preserveAspectRatio="none" x="13528.564453" y="-3388.183594" width="2.197266" height="2.197266"/>
<image xlink:href="tile8_4.png" preserveAspectRatio="none" x="13528.564453" y="-3392.578125" width="2.197266" height="2.197266"/>
<image xlink:href="tile8_3.png" preserveAspectRatio="none" x="13528.564453" y="-3394.775391" width="2.197266" height="2.197266"/>
<image xlink:href="tile8_2.png" preserveAspectRatio="none" x="13528.564453" y="-3396.972656" width="2.197266" height="2.197266"/>
<image xlink:href="tile9_6.png" preserveAspectRatio="none" x="13530.761719" y="-3388.183594" width="2.197266" height="2.197266"/>
<image xlink:href="tile9_4.png" preserveAspectRatio="none" x="13530.761719" y="-3392.578125" width="2.197266" height="2.197266"/>
<image xlink:href="tile9_3.png" preserveAspectRatio="none" x="13530.761719" y="-3394.775391" width="2.197266" height="2.197266"/>
<image xlink:href="tile9_2.png" preserveAspectRatio="none" x="13530.761719" y="-3396.972656" width="2.197266" height="2.197266"/>
<image xlink:href="tile9_1.png" preserveAspectRatio="none" x="13530.761719" y="-3399.169922" width="2.197266" height="2.197266"/>
<image xlink:href="tile10_3.png" preserveAspectRatio="none" x="13532.958984" y="-3394.775391" width="2.197266" height="2.197266"/>
<image xlink:href="tile10_2.png" preserveAspectRatio="none" x="13532.958984" y="-3396.972656" width="2.197266" height="2.197266"/>
<image xlink:href="tile10_1.png" preserveAspectRatio="none" x="13532.958984" y="-3399.169922" width="2.197266" height="2.197266"/>
<image xlink:href="tile11_3.png" preserveAspectRatio="none" x="13535.15625" y="-3394.775391" width="2.197266" height="2.197266"/>
<image xlink:href="tile11_2.png" preserveAspectRatio="none" x="13535.15625" y="-3396.972656" width="2.197266" height="2.197266"/>
<image xlink:href="tile11_1.png" preserveAspectRatio="none" x="13535.15625" y="-3399.169922" width="2.197266" height="2.197266"/>
<image xlink:href="tile12_2.png" preserveAspectRatio="none" x="13537.353516" y="-3396.972656" width="2.197266" height="2.197266"/>
<image xlink:href="tile12_1.png" preserveAspectRatio="none" x="13537.353516" y="-3399.169922" width="2.197266" height="2.197266"/>
</g>
</svg>
