<?xml version="1.0" encoding="UTF-8"?>
<svg  xmlns="http://www.w3.org/2000/svg" xmlns:xlink="http://www.w3.org/1999/xlink" xmlns:go="http://purl.org/svgmap/profile" viewBox="13800.0 -3730.383233 100.0 63.716566000000086" go:dataArea="13800.0 -3730.383233 100.0 63.716566000000086" >
<metadata>
 <rdf:RDF xmlns:rdf="http://www.w3.org/1999/02/22-rdf-syntax-ns#" xmlns:crs="http://opengis.org/xmldtds/transformations.dtd" xmlns:svg="http://www.w3.org/svg" >
  <rdf:Description>
   <crs:CoordinateReferenceSystem rdf:resource="http://purl.org/crs/84" svg:transform="matrix(100.0,0.0,0.0,-100.0,0.0,0.0)" />
  </rdf:Description>
 </rdf:RDF>
</metadata>
<globalCoordinateSystem srsName="http://purl.org/crs/84" transform="matrix(100.0,0.0,0.0,-100.0,0.0,0.0)" />
<g >
<image xlink:href="tile0_7.png" preserveAspectRatio="none" x="13798.828125" y="-3700.195312" width="4.394531" height="4.394531"/>
<image xlink:href="tile0_6.png" preserveAspectRatio="none" x="13798.828125" y="-3704.589844" width="4.394531" height="4.394531"/>
<image xlink:href="tile0_5.png" preserveAspectRatio="none" x="13798.828125" y="-3708.984375" width="4.394531" height="4.394531"/>
<image xlink:href="tile0_4.png" preserveAspectRatio="none" x="13798.828125" y="-3713.378906" width="4.394531" height="4.394531"/>
<image xlink:href="tile1_6.png" preserveAspectRatio="none" x="13803.222656" y="-3704.589844" width="4.394531" height="4.394531"/>
<image xlink:href="tile1_5.png" preserveAspectRatio="none" x="13803.222656" y="-3708.984375" width="4.394531" height="4.394531"/>
<image xlink:href="tile1_4.png" preserveAspectRatio="none" x="13803.222656" y="-3713.378906" width="4.394531" height="4.394531"/>
<image xlink:href="tile1_3.png" preserveAspectRatio="none" x="13803.222656" y="-3717.773438" width="4.394531" height="4.394531"/>
<image xlink:href="tile2_5.png" preserveAspectRatio="none" x="13807.617188" y="-3708.984375" width="4.394531" height="4.394531"/>
<image xlink:href="tile2_4.png" preserveAspectRatio="none" x="13807.617188" y="-3713.378906" width="4.394531" height="4.394531"/>
<image xlink:href="tile2_3.png" preserveAspectRatio="none" x="13807.617188" y="-3717.773438" width="4.394531" height="4.394531"/>
<image xlink:href="tile5_5.png" preserveAspectRatio="none" x="13820.800781" y="-3708.984375" width="4.394531" height="4.394531"/>
<image xlink:href="tile5_4.png" preserveAspectRatio="none" x="13820.800781" y="-3713.378906" width="4.394531" height="4.394531"/>
<image xlink:href="tile5_3.png" preserveAspectRatio="none" x="13820.800781" y="-3717.773438" width="4.394531" height="4.394531"/>
<image xlink:href="tile5_2.png" preserveAspectRatio="none" x="13820.800781" y="-3722.167969" width="4.394531" height="4.394531"/>
<image xlink:href="tile6_14.png" preserveAspectRatio="none" x="13825.195312" y="-3669.433594" width="4.394531" height="4.394531"/>
<image xlink:href="tile6_6.png" preserveAspectRatio="none" x="13825.195312" y="-3704.589844" width="4.394531" height="4.394531"/>
<image xlink:href="tile6_5.png" preserveAspectRatio="none" x="13825.195312" y="-3708.984375" width="4.394531" height="4.394531"/>
<image xlink:href="tile6_4.png" preserveAspectRatio="none" x="13825.195312" y="-3713.378906" width="4.394531" height="4.394531"/>
<image xlink:href="tile6_3.png" preserveAspectRatio="none" x="13825.195312" y="-3717.773438" width="4.394531" height="4.394531"/>
<image xlink:href="tile6_2.png" preserveAspectRatio="none" x="13825.195312" y="-3722.167969" width="4.394531" height="4.394531"/>
<image xlink:href="tile7_14.png" preserveAspectRatio="none" x="13829.589844" y="-3669.433594" width="4.394531" height="4.394531"/>
<image xlink:href="tile7_6.png" preserveAspectRatio="none" x="13829.589844" y="-3704.589844" width="4.394531" height="4.394531"/>
<image xlink:href="tile7_5.png" preserveAspectRatio="none" x="13829.589844" y="-3708.984375" width="4.394531" height="4.394531"/>
<image xlink:href="tile7_4.png" preserveAspectRatio="none" x="13829.589844" y="-3713.378906" width="4.394531" height="4.394531"/>
<image xlink:href="tile7_3.png" preserveAspectRatio="none" x="13829.589844" y="-3717.773438" width="4.394531" height="4.394531"/>
<image xlink:href="tile7_2.png" preserveAspectRatio="none" x="13829.589844" y="-3722.167969" width="4.394531" height="4.394531"/>
<image xlink:href="tile8_5.png" preserveAspectRatio="none" x="13833.984375" y="-3708.984375" width="4.394531" height="4.394531"/>
<image xlink:href="tile8_4.png" preserveAspectRatio="none" x="13833.984375" y="-3713.378906" width="4.394531" height="4.394531"/>
<image xlink:href="tile8_3.png" preserveAspectRatio="none" x="13833.984375" y="-3717.773438" width="4.394531" height="4.394531"/>
<image xlink:href="tile8_2.png" preserveAspectRatio="none" x="13833.984375" y="-3722.167969" width="4.394531" height="4.394531"/>
<image xlink:href="tile8_1.png" preserveAspectRatio="none" x="13833.984375" y="-3726.5625" width="4.394531" height="4.394531"/>
<image xlink:href="tile8_0.png" preserveAspectRatio="none" x="13833.984375" y="-3730.957031" width="4.394531" height="4.394531"/>
<image xlink:href="tile9_13.png" preserveAspectRatio="none" x="13838.378906" y="-3673.828125" width="4.394531" height="4.394531"/>
<image xlink:href="tile9_12.png" preserveAspectRatio="none" x="13838.378906" y="-3678.222656" width="4.394531" height="4.394531"/>
<image xlink:href="tile9_2.png" preserveAspectRatio="none" x="13838.378906" y="-3722.167969" width="4.394531" height="4.394531"/>
<image xlink:href="tile9_1.png" preserveAspectRatio="none" x="13838.378906" y="-3726.5625" width="4.394531" height="4.394531"/>
<image xlink:href="tile9_0.png" preserveAspectRatio="none" x="13838.378906" y="-3730.957031" width="4.394531" height="4.394531"/>
<image xlink:href="tile10_13.png" preserveAspectRatio="none" x="13842.773438" y="-3673.828125" width="4.394531" height="4.394531"/>
<image xlink:href="tile10_2.png" preserveAspectRatio="none" x="13842.773438" y="-3722.167969" width="4.394531" height="4.394531"/>
<image xlink:href="tile10_1.png" preserveAspectRatio="none" x="13842.773438" y="-3726.5625" width="4.394531" height="4.394531"/>
<image xlink:href="tile13_14.png" preserveAspectRatio="none" x="13855.957031" y="-3669.433594" width="4.394531" height="4.394531"/>
<image xlink:href="tile15_14.png" preserveAspectRatio="none" x="13864.746094" y="-3669.433594" width="4.394531" height="4.394531"/>
<image xlink:href="tile15_13.png" preserveAspectRatio="none" x="13864.746094" y="-3673.828125" width="4.394531" height="4.394531"/>
</g>
</svg>
