<?xml version="1.0" encoding="UTF-8"?>
<svg  xmlns="http://www.w3.org/2000/svg" xmlns:xlink="http://www.w3.org/1999/xlink" xmlns:go="http://purl.org/svgmap/profile" viewBox="14301.2188 -4448.825 98.7811999999991 48.825000000000074" go:dataArea="14301.2188 -4448.825 98.7811999999991 48.825000000000074" >
<metadata>
 <rdf:RDF xmlns:rdf="http://www.w3.org/1999/02/22-rdf-syntax-ns#" xmlns:crs="http://opengis.org/xmldtds/transformations.dtd" xmlns:svg="http://www.w3.org/svg" >
  <rdf:Description>
   <crs:CoordinateReferenceSystem rdf:resource="http://purl.org/crs/84" svg:transform="matrix(100.0,0.0,0.0,-100.0,0.0,0.0)" />
  </rdf:Description>
 </rdf:RDF>
</metadata>
<globalCoordinateSystem srsName="http://purl.org/crs/84" transform="matrix(100.0,0.0,0.0,-100.0,0.0,0.0)" />
<g >
<image xlink:href="tile32_16.png" preserveAspectRatio="none" x="14370.117188" y="-4414.306641" width="2.197266" height="2.197266"/>
<image xlink:href="tile32_15.png" preserveAspectRatio="none" x="14370.117188" y="-4416.503906" width="2.197266" height="2.197266"/>
<image xlink:href="tile33_22.png" preserveAspectRatio="none" x="14372.314453" y="-4401.123047" width="2.197266" height="2.197266"/>
<image xlink:href="tile34_22.png" preserveAspectRatio="none" x="14374.511719" y="-4401.123047" width="2.197266" height="2.197266"/>
<image xlink:href="tile35_22.png" preserveAspectRatio="none" x="14376.708984" y="-4401.123047" width="2.197266" height="2.197266"/>
<image xlink:href="tile35_21.png" preserveAspectRatio="none" x="14376.708984" y="-4403.320312" width="2.197266" height="2.197266"/>
<image xlink:href="tile36_21.png" preserveAspectRatio="none" x="14378.90625" y="-4403.320312" width="2.197266" height="2.197266"/>
<image xlink:href="tile37_21.png" preserveAspectRatio="none" x="14381.103516" y="-4403.320312" width="2.197266" height="2.197266"/>
<image xlink:href="tile38_21.png" preserveAspectRatio="none" x="14383.300781" y="-4403.320312" width="2.197266" height="2.197266"/>
<image xlink:href="tile39_21.png" preserveAspectRatio="none" x="14385.498047" y="-4403.320312" width="2.197266" height="2.197266"/>
<image xlink:href="tile40_21.png" preserveAspectRatio="none" x="14387.695312" y="-4403.320312" width="2.197266" height="2.197266"/>
<image xlink:href="tile40_20.png" preserveAspectRatio="none" x="14387.695312" y="-4405.517578" width="2.197266" height="2.197266"/>
<image xlink:href="tile41_20.png" preserveAspectRatio="none" x="14389.892578" y="-4405.517578" width="2.197266" height="2.197266"/>
<image xlink:href="tile41_19.png" preserveAspectRatio="none" x="14389.892578" y="-4407.714844" width="2.197266" height="2.197266"/>
<image xlink:href="tile42_20.png" preserveAspectRatio="none" x="14392.089844" y="-4405.517578" width="2.197266" height="2.197266"/>
<image xlink:href="tile42_19.png" preserveAspectRatio="none" x="14392.089844" y="-4407.714844" width="2.197266" height="2.197266"/>
<image xlink:href="tile42_18.png" preserveAspectRatio="none" x="14392.089844" y="-4409.912109" width="2.197266" height="2.197266"/>
<image xlink:href="tile43_22.png" preserveAspectRatio="none" x="14394.287109" y="-4401.123047" width="2.197266" height="2.197266"/>
<image xlink:href="tile43_19.png" preserveAspectRatio="none" x="14394.287109" y="-4407.714844" width="2.197266" height="2.197266"/>
<image xlink:href="tile43_18.png" preserveAspectRatio="none" x="14394.287109" y="-4409.912109" width="2.197266" height="2.197266"/>
<image xlink:href="tile44_22.png" preserveAspectRatio="none" x="14396.484375" y="-4401.123047" width="2.197266" height="2.197266"/>
<image xlink:href="tile44_21.png" preserveAspectRatio="none" x="14396.484375" y="-4403.320312" width="2.197266" height="2.197266"/>
<image xlink:href="tile44_16.png" preserveAspectRatio="none" x="14396.484375" y="-4414.306641" width="2.197266" height="2.197266"/>
<image xlink:href="tile45_21.png" preserveAspectRatio="none" x="14398.681641" y="-4403.320312" width="2.197266" height="2.197266"/>
<image xlink:href="tile45_19.png" preserveAspectRatio="none" x="14398.681641" y="-4407.714844" width="2.197266" height="2.197266"/>
<image xlink:href="tile45_18.png" preserveAspectRatio="none" x="14398.681641" y="-4409.912109" width="2.197266" height="2.197266"/>
<image xlink:href="tile45_17.png" preserveAspectRatio="none" x="14398.681641" y="-4412.109375" width="2.197266" height="2.197266"/>
<image xlink:href="tile45_16.png" preserveAspectRatio="none" x="14398.681641" y="-4414.306641" width="2.197266" height="2.197266"/>
</g>
</svg>
