<?xml version="1.0" encoding="UTF-8"?>
<svg  xmlns="http://www.w3.org/2000/svg" xmlns:xlink="http://www.w3.org/1999/xlink" xmlns:go="http://purl.org/svgmap/profile" viewBox="14301.2188 -4448.825 98.7811999999991 48.825000000000074" go:dataArea="14301.2188 -4448.825 98.7811999999991 48.825000000000074" >
<metadata>
 <rdf:RDF xmlns:rdf="http://www.w3.org/1999/02/22-rdf-syntax-ns#" xmlns:crs="http://opengis.org/xmldtds/transformations.dtd" xmlns:svg="http://www.w3.org/svg" >
  <rdf:Description>
   <crs:CoordinateReferenceSystem rdf:resource="http://purl.org/crs/84" svg:transform="matrix(100.0,0.0,0.0,-100.0,0.0,0.0)" />
  </rdf:Description>
 </rdf:RDF>
</metadata>
<globalCoordinateSystem srsName="http://purl.org/crs/84" transform="matrix(100.0,0.0,0.0,-100.0,0.0,0.0)" />
<g >
<image xlink:href="tile22_21.png" preserveAspectRatio="none" x="14348.144531" y="-4403.320312" width="2.197266" height="2.197266"/>
<image xlink:href="tile22_20.png" preserveAspectRatio="none" x="14348.144531" y="-4405.517578" width="2.197266" height="2.197266"/>
<image xlink:href="tile23_21.png" preserveAspectRatio="none" x="14350.341797" y="-4403.320312" width="2.197266" height="2.197266"/>
<image xlink:href="tile23_20.png" preserveAspectRatio="none" x="14350.341797" y="-4405.517578" width="2.197266" height="2.197266"/>
<image xlink:href="tile23_19.png" preserveAspectRatio="none" x="14350.341797" y="-4407.714844" width="2.197266" height="2.197266"/>
<image xlink:href="tile24_22.png" preserveAspectRatio="none" x="14352.539062" y="-4401.123047" width="2.197266" height="2.197266"/>
<image xlink:href="tile24_21.png" preserveAspectRatio="none" x="14352.539062" y="-4403.320312" width="2.197266" height="2.197266"/>
<image xlink:href="tile24_20.png" preserveAspectRatio="none" x="14352.539062" y="-4405.517578" width="2.197266" height="2.197266"/>
<image xlink:href="tile24_19.png" preserveAspectRatio="none" x="14352.539062" y="-4407.714844" width="2.197266" height="2.197266"/>
<image xlink:href="tile24_18.png" preserveAspectRatio="none" x="14352.539062" y="-4409.912109" width="2.197266" height="2.197266"/>
<image xlink:href="tile24_17.png" preserveAspectRatio="none" x="14352.539062" y="-4412.109375" width="2.197266" height="2.197266"/>
<image xlink:href="tile24_16.png" preserveAspectRatio="none" x="14352.539062" y="-4414.306641" width="2.197266" height="2.197266"/>
<image xlink:href="tile24_15.png" preserveAspectRatio="none" x="14352.539062" y="-4416.503906" width="2.197266" height="2.197266"/>
<image xlink:href="tile25_20.png" preserveAspectRatio="none" x="14354.736328" y="-4405.517578" width="2.197266" height="2.197266"/>
<image xlink:href="tile25_17.png" preserveAspectRatio="none" x="14354.736328" y="-4412.109375" width="2.197266" height="2.197266"/>
<image xlink:href="tile25_16.png" preserveAspectRatio="none" x="14354.736328" y="-4414.306641" width="2.197266" height="2.197266"/>
<image xlink:href="tile25_15.png" preserveAspectRatio="none" x="14354.736328" y="-4416.503906" width="2.197266" height="2.197266"/>
<image xlink:href="tile25_14.png" preserveAspectRatio="none" x="14354.736328" y="-4418.701172" width="2.197266" height="2.197266"/>
<image xlink:href="tile25_12.png" preserveAspectRatio="none" x="14354.736328" y="-4423.095703" width="2.197266" height="2.197266"/>
<image xlink:href="tile26_16.png" preserveAspectRatio="none" x="14356.933594" y="-4414.306641" width="2.197266" height="2.197266"/>
<image xlink:href="tile26_15.png" preserveAspectRatio="none" x="14356.933594" y="-4416.503906" width="2.197266" height="2.197266"/>
<image xlink:href="tile26_14.png" preserveAspectRatio="none" x="14356.933594" y="-4418.701172" width="2.197266" height="2.197266"/>
<image xlink:href="tile26_13.png" preserveAspectRatio="none" x="14356.933594" y="-4420.898438" width="2.197266" height="2.197266"/>
<image xlink:href="tile26_12.png" preserveAspectRatio="none" x="14356.933594" y="-4423.095703" width="2.197266" height="2.197266"/>
<image xlink:href="tile26_11.png" preserveAspectRatio="none" x="14356.933594" y="-4425.292969" width="2.197266" height="2.197266"/>
<image xlink:href="tile27_14.png" preserveAspectRatio="none" x="14359.130859" y="-4418.701172" width="2.197266" height="2.197266"/>
<image xlink:href="tile27_13.png" preserveAspectRatio="none" x="14359.130859" y="-4420.898438" width="2.197266" height="2.197266"/>
<image xlink:href="tile27_12.png" preserveAspectRatio="none" x="14359.130859" y="-4423.095703" width="2.197266" height="2.197266"/>
<image xlink:href="tile27_11.png" preserveAspectRatio="none" x="14359.130859" y="-4425.292969" width="2.197266" height="2.197266"/>
<image xlink:href="tile28_21.png" preserveAspectRatio="none" x="14361.328125" y="-4403.320312" width="2.197266" height="2.197266"/>
<image xlink:href="tile28_20.png" preserveAspectRatio="none" x="14361.328125" y="-4405.517578" width="2.197266" height="2.197266"/>
<image xlink:href="tile28_13.png" preserveAspectRatio="none" x="14361.328125" y="-4420.898438" width="2.197266" height="2.197266"/>
<image xlink:href="tile28_12.png" preserveAspectRatio="none" x="14361.328125" y="-4423.095703" width="2.197266" height="2.197266"/>
<image xlink:href="tile28_11.png" preserveAspectRatio="none" x="14361.328125" y="-4425.292969" width="2.197266" height="2.197266"/>
<image xlink:href="tile29_20.png" preserveAspectRatio="none" x="14363.525391" y="-4405.517578" width="2.197266" height="2.197266"/>
<image xlink:href="tile29_19.png" preserveAspectRatio="none" x="14363.525391" y="-4407.714844" width="2.197266" height="2.197266"/>
<image xlink:href="tile29_18.png" preserveAspectRatio="none" x="14363.525391" y="-4409.912109" width="2.197266" height="2.197266"/>
<image xlink:href="tile29_17.png" preserveAspectRatio="none" x="14363.525391" y="-4412.109375" width="2.197266" height="2.197266"/>
<image xlink:href="tile29_16.png" preserveAspectRatio="none" x="14363.525391" y="-4414.306641" width="2.197266" height="2.197266"/>
<image xlink:href="tile29_13.png" preserveAspectRatio="none" x="14363.525391" y="-4420.898438" width="2.197266" height="2.197266"/>
<image xlink:href="tile29_12.png" preserveAspectRatio="none" x="14363.525391" y="-4423.095703" width="2.197266" height="2.197266"/>
<image xlink:href="tile30_18.png" preserveAspectRatio="none" x="14365.722656" y="-4409.912109" width="2.197266" height="2.197266"/>
<image xlink:href="tile30_17.png" preserveAspectRatio="none" x="14365.722656" y="-4412.109375" width="2.197266" height="2.197266"/>
<image xlink:href="tile30_16.png" preserveAspectRatio="none" x="14365.722656" y="-4414.306641" width="2.197266" height="2.197266"/>
<image xlink:href="tile30_15.png" preserveAspectRatio="none" x="14365.722656" y="-4416.503906" width="2.197266" height="2.197266"/>
<image xlink:href="tile31_16.png" preserveAspectRatio="none" x="14367.919922" y="-4414.306641" width="2.197266" height="2.197266"/>
<image xlink:href="tile31_15.png" preserveAspectRatio="none" x="14367.919922" y="-4416.503906" width="2.197266" height="2.197266"/>
</g>
</svg>
