<?xml version="1.0" encoding="UTF-8"?>
<svg  xmlns="http://www.w3.org/2000/svg" xmlns:xlink="http://www.w3.org/1999/xlink" xmlns:go="http://purl.org/svgmap/profile" viewBox="13900.0 -3800.0 96.37680600000067 66.66666699999979" go:dataArea="13900.0 -3800.0 96.37680600000067 66.66666699999979" >
<metadata>
 <rdf:RDF xmlns:rdf="http://www.w3.org/1999/02/22-rdf-syntax-ns#" xmlns:crs="http://opengis.org/xmldtds/transformations.dtd" xmlns:svg="http://www.w3.org/svg" >
  <rdf:Description>
   <crs:CoordinateReferenceSystem rdf:resource="http://purl.org/crs/84" svg:transform="matrix(100.0,0.0,0.0,-100.0,0.0,0.0)" />
  </rdf:Description>
 </rdf:RDF>
</metadata>
<globalCoordinateSystem srsName="http://purl.org/crs/84" transform="matrix(100.0,0.0,0.0,-100.0,0.0,0.0)" />
<g >
<image xlink:href="tile0_6.png" preserveAspectRatio="none" x="13895.507812" y="-3752.929688" width="8.789062" height="8.789062"/>
<image xlink:href="tile0_5.png" preserveAspectRatio="none" x="13895.507812" y="-3761.71875" width="8.789062" height="8.789062"/>
<image xlink:href="tile0_4.png" preserveAspectRatio="none" x="13895.507812" y="-3770.507812" width="8.789062" height="8.789062"/>
<image xlink:href="tile0_3.png" preserveAspectRatio="none" x="13895.507812" y="-3779.296875" width="8.789062" height="8.789062"/>
<image xlink:href="tile0_2.png" preserveAspectRatio="none" x="13895.507812" y="-3788.085938" width="8.789062" height="8.789062"/>
<image xlink:href="tile0_1.png" preserveAspectRatio="none" x="13895.507812" y="-3796.875" width="8.789062" height="8.789062"/>
<image xlink:href="tile1_5.png" preserveAspectRatio="none" x="13904.296875" y="-3761.71875" width="8.789062" height="8.789062"/>
<image xlink:href="tile1_4.png" preserveAspectRatio="none" x="13904.296875" y="-3770.507812" width="8.789062" height="8.789062"/>
<image xlink:href="tile1_3.png" preserveAspectRatio="none" x="13904.296875" y="-3779.296875" width="8.789062" height="8.789062"/>
<image xlink:href="tile1_2.png" preserveAspectRatio="none" x="13904.296875" y="-3788.085938" width="8.789062" height="8.789062"/>
<image xlink:href="tile1_1.png" preserveAspectRatio="none" x="13904.296875" y="-3796.875" width="8.789062" height="8.789062"/>
<image xlink:href="tile2_6.png" preserveAspectRatio="none" x="13913.085938" y="-3752.929688" width="8.789062" height="8.789062"/>
<image xlink:href="tile2_5.png" preserveAspectRatio="none" x="13913.085938" y="-3761.71875" width="8.789062" height="8.789062"/>
<image xlink:href="tile2_4.png" preserveAspectRatio="none" x="13913.085938" y="-3770.507812" width="8.789062" height="8.789062"/>
<image xlink:href="tile2_3.png" preserveAspectRatio="none" x="13913.085938" y="-3779.296875" width="8.789062" height="8.789062"/>
<image xlink:href="tile2_2.png" preserveAspectRatio="none" x="13913.085938" y="-3788.085938" width="8.789062" height="8.789062"/>
<image xlink:href="tile2_1.png" preserveAspectRatio="none" x="13913.085938" y="-3796.875" width="8.789062" height="8.789062"/>
<image xlink:href="tile3_8.png" preserveAspectRatio="none" x="13921.875" y="-3735.351562" width="8.789062" height="8.789062"/>
<image xlink:href="tile3_4.png" preserveAspectRatio="none" x="13921.875" y="-3770.507812" width="8.789062" height="8.789062"/>
<image xlink:href="tile3_3.png" preserveAspectRatio="none" x="13921.875" y="-3779.296875" width="8.789062" height="8.789062"/>
<image xlink:href="tile3_2.png" preserveAspectRatio="none" x="13921.875" y="-3788.085938" width="8.789062" height="8.789062"/>
<image xlink:href="tile3_1.png" preserveAspectRatio="none" x="13921.875" y="-3796.875" width="8.789062" height="8.789062"/>
<image xlink:href="tile3_0.png" preserveAspectRatio="none" x="13921.875" y="-3805.664062" width="8.789062" height="8.789062"/>
<image xlink:href="tile4_8.png" preserveAspectRatio="none" x="13930.664062" y="-3735.351562" width="8.789062" height="8.789062"/>
<image xlink:href="tile4_7.png" preserveAspectRatio="none" x="13930.664062" y="-3744.140625" width="8.789062" height="8.789062"/>
<image xlink:href="tile4_5.png" preserveAspectRatio="none" x="13930.664062" y="-3761.71875" width="8.789062" height="8.789062"/>
<image xlink:href="tile4_4.png" preserveAspectRatio="none" x="13930.664062" y="-3770.507812" width="8.789062" height="8.789062"/>
<image xlink:href="tile4_3.png" preserveAspectRatio="none" x="13930.664062" y="-3779.296875" width="8.789062" height="8.789062"/>
<image xlink:href="tile4_1.png" preserveAspectRatio="none" x="13930.664062" y="-3796.875" width="8.789062" height="8.789062"/>
<image xlink:href="tile4_0.png" preserveAspectRatio="none" x="13930.664062" y="-3805.664062" width="8.789062" height="8.789062"/>
<image xlink:href="tile5_5.png" preserveAspectRatio="none" x="13939.453125" y="-3761.71875" width="8.789062" height="8.789062"/>
<image xlink:href="tile5_4.png" preserveAspectRatio="none" x="13939.453125" y="-3770.507812" width="8.789062" height="8.789062"/>
<image xlink:href="tile5_3.png" preserveAspectRatio="none" x="13939.453125" y="-3779.296875" width="8.789062" height="8.789062"/>
<image xlink:href="tile5_2.png" preserveAspectRatio="none" x="13939.453125" y="-3788.085938" width="8.789062" height="8.789062"/>
<image xlink:href="tile5_1.png" preserveAspectRatio="none" x="13939.453125" y="-3796.875" width="8.789062" height="8.789062"/>
<image xlink:href="tile6_4.png" preserveAspectRatio="none" x="13948.242188" y="-3770.507812" width="8.789062" height="8.789062"/>
<image xlink:href="tile6_3.png" preserveAspectRatio="none" x="13948.242188" y="-3779.296875" width="8.789062" height="8.789062"/>
<image xlink:href="tile6_2.png" preserveAspectRatio="none" x="13948.242188" y="-3788.085938" width="8.789062" height="8.789062"/>
<image xlink:href="tile7_4.png" preserveAspectRatio="none" x="13957.03125" y="-3770.507812" width="8.789062" height="8.789062"/>
<image xlink:href="tile9_7.png" preserveAspectRatio="none" x="13974.609375" y="-3744.140625" width="8.789062" height="8.789062"/>
<image xlink:href="tile9_6.png" preserveAspectRatio="none" x="13974.609375" y="-3752.929688" width="8.789062" height="8.789062"/>
<image xlink:href="tile9_5.png" preserveAspectRatio="none" x="13974.609375" y="-3761.71875" width="8.789062" height="8.789062"/>
<image xlink:href="tile9_4.png" preserveAspectRatio="none" x="13974.609375" y="-3770.507812" width="8.789062" height="8.789062"/>
<image xlink:href="tile10_7.png" preserveAspectRatio="none" x="13983.398438" y="-3744.140625" width="8.789062" height="8.789062"/>
<image xlink:href="tile10_6.png" preserveAspectRatio="none" x="13983.398438" y="-3752.929688" width="8.789062" height="8.789062"/>
<image xlink:href="tile10_5.png" preserveAspectRatio="none" x="13983.398438" y="-3761.71875" width="8.789062" height="8.789062"/>
<image xlink:href="tile10_4.png" preserveAspectRatio="none" x="13983.398438" y="-3770.507812" width="8.789062" height="8.789062"/>
<image xlink:href="tile11_7.png" preserveAspectRatio="none" x="13992.1875" y="-3744.140625" width="8.789062" height="8.789062"/>
<image xlink:href="tile11_6.png" preserveAspectRatio="none" x="13992.1875" y="-3752.929688" width="8.789062" height="8.789062"/>
<image xlink:href="tile11_5.png" preserveAspectRatio="none" x="13992.1875" y="-3761.71875" width="8.789062" height="8.789062"/>
<image xlink:href="tile11_0.png" preserveAspectRatio="none" x="13992.1875" y="-3805.664062" width="8.789062" height="8.789062"/>
</g>
</svg>
