<?xml version="1.0" encoding="UTF-8"?>
<svg  xmlns="http://www.w3.org/2000/svg" xmlns:xlink="http://www.w3.org/1999/xlink" xmlns:go="http://purl.org/svgmap/profile" viewBox="14000.0 -3866.666667 100.0 66.66666699999979" go:dataArea="14000.0 -3866.666667 100.0 66.66666699999979" >
<metadata>
 <rdf:RDF xmlns:rdf="http://www.w3.org/1999/02/22-rdf-syntax-ns#" xmlns:crs="http://opengis.org/xmldtds/transformations.dtd" xmlns:svg="http://www.w3.org/svg" >
  <rdf:Description>
   <crs:CoordinateReferenceSystem rdf:resource="http://purl.org/crs/84" svg:transform="matrix(100.0,0.0,0.0,-100.0,0.0,0.0)" />
  </rdf:Description>
 </rdf:RDF>
</metadata>
<globalCoordinateSystem srsName="http://purl.org/crs/84" transform="matrix(100.0,0.0,0.0,-100.0,0.0,0.0)" />
<g >
<image xlink:href="tile1_1.png" preserveAspectRatio="none" x="14000.976562" y="-3864.990234" width="2.197266" height="2.197266"/>
<image xlink:href="tile4_13.png" preserveAspectRatio="none" x="14007.568359" y="-3838.623047" width="2.197266" height="2.197266"/>
<image xlink:href="tile5_13.png" preserveAspectRatio="none" x="14009.765625" y="-3838.623047" width="2.197266" height="2.197266"/>
<image xlink:href="tile5_12.png" preserveAspectRatio="none" x="14009.765625" y="-3840.820312" width="2.197266" height="2.197266"/>
<image xlink:href="tile6_13.png" preserveAspectRatio="none" x="14011.962891" y="-3838.623047" width="2.197266" height="2.197266"/>
<image xlink:href="tile6_12.png" preserveAspectRatio="none" x="14011.962891" y="-3840.820312" width="2.197266" height="2.197266"/>
<image xlink:href="tile6_0.png" preserveAspectRatio="none" x="14011.962891" y="-3867.1875" width="2.197266" height="2.197266"/>
<image xlink:href="tile7_13.png" preserveAspectRatio="none" x="14014.160156" y="-3838.623047" width="2.197266" height="2.197266"/>
<image xlink:href="tile7_0.png" preserveAspectRatio="none" x="14014.160156" y="-3867.1875" width="2.197266" height="2.197266"/>
<image xlink:href="tile8_14.png" preserveAspectRatio="none" x="14016.357422" y="-3836.425781" width="2.197266" height="2.197266"/>
<image xlink:href="tile8_13.png" preserveAspectRatio="none" x="14016.357422" y="-3838.623047" width="2.197266" height="2.197266"/>
<image xlink:href="tile8_11.png" preserveAspectRatio="none" x="14016.357422" y="-3843.017578" width="2.197266" height="2.197266"/>
<image xlink:href="tile9_14.png" preserveAspectRatio="none" x="14018.554688" y="-3836.425781" width="2.197266" height="2.197266"/>
<image xlink:href="tile9_13.png" preserveAspectRatio="none" x="14018.554688" y="-3838.623047" width="2.197266" height="2.197266"/>
<image xlink:href="tile9_12.png" preserveAspectRatio="none" x="14018.554688" y="-3840.820312" width="2.197266" height="2.197266"/>
<image xlink:href="tile9_11.png" preserveAspectRatio="none" x="14018.554688" y="-3843.017578" width="2.197266" height="2.197266"/>
<image xlink:href="tile10_14.png" preserveAspectRatio="none" x="14020.751953" y="-3836.425781" width="2.197266" height="2.197266"/>
<image xlink:href="tile10_13.png" preserveAspectRatio="none" x="14020.751953" y="-3838.623047" width="2.197266" height="2.197266"/>
<image xlink:href="tile10_12.png" preserveAspectRatio="none" x="14020.751953" y="-3840.820312" width="2.197266" height="2.197266"/>
<image xlink:href="tile10_11.png" preserveAspectRatio="none" x="14020.751953" y="-3843.017578" width="2.197266" height="2.197266"/>
<image xlink:href="tile11_14.png" preserveAspectRatio="none" x="14022.949219" y="-3836.425781" width="2.197266" height="2.197266"/>
<image xlink:href="tile11_13.png" preserveAspectRatio="none" x="14022.949219" y="-3838.623047" width="2.197266" height="2.197266"/>
<image xlink:href="tile11_12.png" preserveAspectRatio="none" x="14022.949219" y="-3840.820312" width="2.197266" height="2.197266"/>
<image xlink:href="tile11_11.png" preserveAspectRatio="none" x="14022.949219" y="-3843.017578" width="2.197266" height="2.197266"/>
<image xlink:href="tile12_14.png" preserveAspectRatio="none" x="14025.146484" y="-3836.425781" width="2.197266" height="2.197266"/>
<image xlink:href="tile12_13.png" preserveAspectRatio="none" x="14025.146484" y="-3838.623047" width="2.197266" height="2.197266"/>
<image xlink:href="tile12_12.png" preserveAspectRatio="none" x="14025.146484" y="-3840.820312" width="2.197266" height="2.197266"/>
<image xlink:href="tile12_11.png" preserveAspectRatio="none" x="14025.146484" y="-3843.017578" width="2.197266" height="2.197266"/>
<image xlink:href="tile12_0.png" preserveAspectRatio="none" x="14025.146484" y="-3867.1875" width="2.197266" height="2.197266"/>
<image xlink:href="tile13_14.png" preserveAspectRatio="none" x="14027.34375" y="-3836.425781" width="2.197266" height="2.197266"/>
<image xlink:href="tile13_13.png" preserveAspectRatio="none" x="14027.34375" y="-3838.623047" width="2.197266" height="2.197266"/>
<image xlink:href="tile13_12.png" preserveAspectRatio="none" x="14027.34375" y="-3840.820312" width="2.197266" height="2.197266"/>
<image xlink:href="tile13_11.png" preserveAspectRatio="none" x="14027.34375" y="-3843.017578" width="2.197266" height="2.197266"/>
<image xlink:href="tile13_5.png" preserveAspectRatio="none" x="14027.34375" y="-3856.201172" width="2.197266" height="2.197266"/>
<image xlink:href="tile13_4.png" preserveAspectRatio="none" x="14027.34375" y="-3858.398438" width="2.197266" height="2.197266"/>
<image xlink:href="tile13_0.png" preserveAspectRatio="none" x="14027.34375" y="-3867.1875" width="2.197266" height="2.197266"/>
<image xlink:href="tile14_14.png" preserveAspectRatio="none" x="14029.541016" y="-3836.425781" width="2.197266" height="2.197266"/>
<image xlink:href="tile14_13.png" preserveAspectRatio="none" x="14029.541016" y="-3838.623047" width="2.197266" height="2.197266"/>
<image xlink:href="tile14_12.png" preserveAspectRatio="none" x="14029.541016" y="-3840.820312" width="2.197266" height="2.197266"/>
<image xlink:href="tile14_11.png" preserveAspectRatio="none" x="14029.541016" y="-3843.017578" width="2.197266" height="2.197266"/>
<image xlink:href="tile14_10.png" preserveAspectRatio="none" x="14029.541016" y="-3845.214844" width="2.197266" height="2.197266"/>
<image xlink:href="tile14_5.png" preserveAspectRatio="none" x="14029.541016" y="-3856.201172" width="2.197266" height="2.197266"/>
<image xlink:href="tile14_4.png" preserveAspectRatio="none" x="14029.541016" y="-3858.398438" width="2.197266" height="2.197266"/>
<image xlink:href="tile14_0.png" preserveAspectRatio="none" x="14029.541016" y="-3867.1875" width="2.197266" height="2.197266"/>
<image xlink:href="tile15_14.png" preserveAspectRatio="none" x="14031.738281" y="-3836.425781" width="2.197266" height="2.197266"/>
<image xlink:href="tile15_13.png" preserveAspectRatio="none" x="14031.738281" y="-3838.623047" width="2.197266" height="2.197266"/>
<image xlink:href="tile15_12.png" preserveAspectRatio="none" x="14031.738281" y="-3840.820312" width="2.197266" height="2.197266"/>
<image xlink:href="tile15_11.png" preserveAspectRatio="none" x="14031.738281" y="-3843.017578" width="2.197266" height="2.197266"/>
<image xlink:href="tile15_10.png" preserveAspectRatio="none" x="14031.738281" y="-3845.214844" width="2.197266" height="2.197266"/>
<image xlink:href="tile15_9.png" preserveAspectRatio="none" x="14031.738281" y="-3847.412109" width="2.197266" height="2.197266"/>
<image xlink:href="tile15_8.png" preserveAspectRatio="none" x="14031.738281" y="-3849.609375" width="2.197266" height="2.197266"/>
<image xlink:href="tile15_7.png" preserveAspectRatio="none" x="14031.738281" y="-3851.806641" width="2.197266" height="2.197266"/>
<image xlink:href="tile15_6.png" preserveAspectRatio="none" x="14031.738281" y="-3854.003906" width="2.197266" height="2.197266"/>
<image xlink:href="tile15_5.png" preserveAspectRatio="none" x="14031.738281" y="-3856.201172" width="2.197266" height="2.197266"/>
<image xlink:href="tile15_2.png" preserveAspectRatio="none" x="14031.738281" y="-3862.792969" width="2.197266" height="2.197266"/>
<image xlink:href="tile15_1.png" preserveAspectRatio="none" x="14031.738281" y="-3864.990234" width="2.197266" height="2.197266"/>
<image xlink:href="tile15_0.png" preserveAspectRatio="none" x="14031.738281" y="-3867.1875" width="2.197266" height="2.197266"/>
</g>
</svg>
