<?xml version="1.0" encoding="UTF-8"?>
<svg  xmlns="http://www.w3.org/2000/svg" xmlns:xlink="http://www.w3.org/1999/xlink" xmlns:go="http://purl.org/svgmap/profile" viewBox="14000.0 -3866.666667 100.0 66.66666699999979" go:dataArea="14000.0 -3866.666667 100.0 66.66666699999979" >
<metadata>
 <rdf:RDF xmlns:rdf="http://www.w3.org/1999/02/22-rdf-syntax-ns#" xmlns:crs="http://opengis.org/xmldtds/transformations.dtd" xmlns:svg="http://www.w3.org/svg" >
  <rdf:Description>
   <crs:CoordinateReferenceSystem rdf:resource="http://purl.org/crs/84" svg:transform="matrix(100.0,0.0,0.0,-100.0,0.0,0.0)" />
  </rdf:Description>
 </rdf:RDF>
</metadata>
<globalCoordinateSystem srsName="http://purl.org/crs/84" transform="matrix(100.0,0.0,0.0,-100.0,0.0,0.0)" />
<g >
<image xlink:href="tile16_18.png" preserveAspectRatio="none" x="14033.935547" y="-3827.636719" width="2.197266" height="2.197266"/>
<image xlink:href="tile16_17.png" preserveAspectRatio="none" x="14033.935547" y="-3829.833984" width="2.197266" height="2.197266"/>
<image xlink:href="tile16_16.png" preserveAspectRatio="none" x="14033.935547" y="-3832.03125" width="2.197266" height="2.197266"/>
<image xlink:href="tile16_15.png" preserveAspectRatio="none" x="14033.935547" y="-3834.228516" width="2.197266" height="2.197266"/>
<image xlink:href="tile17_19.png" preserveAspectRatio="none" x="14036.132812" y="-3825.439453" width="2.197266" height="2.197266"/>
<image xlink:href="tile17_16.png" preserveAspectRatio="none" x="14036.132812" y="-3832.03125" width="2.197266" height="2.197266"/>
<image xlink:href="tile18_19.png" preserveAspectRatio="none" x="14038.330078" y="-3825.439453" width="2.197266" height="2.197266"/>
<image xlink:href="tile18_16.png" preserveAspectRatio="none" x="14038.330078" y="-3832.03125" width="2.197266" height="2.197266"/>
<image xlink:href="tile18_15.png" preserveAspectRatio="none" x="14038.330078" y="-3834.228516" width="2.197266" height="2.197266"/>
<image xlink:href="tile19_16.png" preserveAspectRatio="none" x="14040.527344" y="-3832.03125" width="2.197266" height="2.197266"/>
<image xlink:href="tile19_15.png" preserveAspectRatio="none" x="14040.527344" y="-3834.228516" width="2.197266" height="2.197266"/>
<image xlink:href="tile20_16.png" preserveAspectRatio="none" x="14042.724609" y="-3832.03125" width="2.197266" height="2.197266"/>
<image xlink:href="tile27_30.png" preserveAspectRatio="none" x="14058.105469" y="-3801.269531" width="2.197266" height="2.197266"/>
<image xlink:href="tile28_30.png" preserveAspectRatio="none" x="14060.302734" y="-3801.269531" width="2.197266" height="2.197266"/>
<image xlink:href="tile28_29.png" preserveAspectRatio="none" x="14060.302734" y="-3803.466797" width="2.197266" height="2.197266"/>
<image xlink:href="tile29_30.png" preserveAspectRatio="none" x="14062.5" y="-3801.269531" width="2.197266" height="2.197266"/>
<image xlink:href="tile29_29.png" preserveAspectRatio="none" x="14062.5" y="-3803.466797" width="2.197266" height="2.197266"/>
<image xlink:href="tile29_28.png" preserveAspectRatio="none" x="14062.5" y="-3805.664062" width="2.197266" height="2.197266"/>
<image xlink:href="tile30_29.png" preserveAspectRatio="none" x="14064.697266" y="-3803.466797" width="2.197266" height="2.197266"/>
<image xlink:href="tile30_28.png" preserveAspectRatio="none" x="14064.697266" y="-3805.664062" width="2.197266" height="2.197266"/>
<image xlink:href="tile31_29.png" preserveAspectRatio="none" x="14066.894531" y="-3803.466797" width="2.197266" height="2.197266"/>
<image xlink:href="tile31_28.png" preserveAspectRatio="none" x="14066.894531" y="-3805.664062" width="2.197266" height="2.197266"/>
</g>
</svg>
