<?xml version="1.0" encoding="UTF-8"?>
<svg  xmlns="http://www.w3.org/2000/svg" xmlns:xlink="http://www.w3.org/1999/xlink" xmlns:go="http://purl.org/svgmap/profile" viewBox="14000.0 -3866.666667 100.0 66.66666699999979" go:dataArea="14000.0 -3866.666667 100.0 66.66666699999979" >
<metadata>
 <rdf:RDF xmlns:rdf="http://www.w3.org/1999/02/22-rdf-syntax-ns#" xmlns:crs="http://opengis.org/xmldtds/transformations.dtd" xmlns:svg="http://www.w3.org/svg" >
  <rdf:Description>
   <crs:CoordinateReferenceSystem rdf:resource="http://purl.org/crs/84" svg:transform="matrix(100.0,0.0,0.0,-100.0,0.0,0.0)" />
  </rdf:Description>
 </rdf:RDF>
</metadata>
<globalCoordinateSystem srsName="http://purl.org/crs/84" transform="matrix(100.0,0.0,0.0,-100.0,0.0,0.0)" />
<g >
<image xlink:href="tile0_29.png" preserveAspectRatio="none" x="13998.779297" y="-3803.466797" width="2.197266" height="2.197266"/>
<image xlink:href="tile0_28.png" preserveAspectRatio="none" x="13998.779297" y="-3805.664062" width="2.197266" height="2.197266"/>
<image xlink:href="tile0_25.png" preserveAspectRatio="none" x="13998.779297" y="-3812.255859" width="2.197266" height="2.197266"/>
<image xlink:href="tile1_30.png" preserveAspectRatio="none" x="14000.976562" y="-3801.269531" width="2.197266" height="2.197266"/>
<image xlink:href="tile1_28.png" preserveAspectRatio="none" x="14000.976562" y="-3805.664062" width="2.197266" height="2.197266"/>
<image xlink:href="tile1_27.png" preserveAspectRatio="none" x="14000.976562" y="-3807.861328" width="2.197266" height="2.197266"/>
<image xlink:href="tile1_26.png" preserveAspectRatio="none" x="14000.976562" y="-3810.058594" width="2.197266" height="2.197266"/>
<image xlink:href="tile1_25.png" preserveAspectRatio="none" x="14000.976562" y="-3812.255859" width="2.197266" height="2.197266"/>
<image xlink:href="tile2_30.png" preserveAspectRatio="none" x="14003.173828" y="-3801.269531" width="2.197266" height="2.197266"/>
<image xlink:href="tile2_29.png" preserveAspectRatio="none" x="14003.173828" y="-3803.466797" width="2.197266" height="2.197266"/>
<image xlink:href="tile2_28.png" preserveAspectRatio="none" x="14003.173828" y="-3805.664062" width="2.197266" height="2.197266"/>
<image xlink:href="tile2_27.png" preserveAspectRatio="none" x="14003.173828" y="-3807.861328" width="2.197266" height="2.197266"/>
<image xlink:href="tile2_26.png" preserveAspectRatio="none" x="14003.173828" y="-3810.058594" width="2.197266" height="2.197266"/>
<image xlink:href="tile2_25.png" preserveAspectRatio="none" x="14003.173828" y="-3812.255859" width="2.197266" height="2.197266"/>
<image xlink:href="tile2_24.png" preserveAspectRatio="none" x="14003.173828" y="-3814.453125" width="2.197266" height="2.197266"/>
<image xlink:href="tile2_23.png" preserveAspectRatio="none" x="14003.173828" y="-3816.650391" width="2.197266" height="2.197266"/>
<image xlink:href="tile3_30.png" preserveAspectRatio="none" x="14005.371094" y="-3801.269531" width="2.197266" height="2.197266"/>
<image xlink:href="tile3_29.png" preserveAspectRatio="none" x="14005.371094" y="-3803.466797" width="2.197266" height="2.197266"/>
<image xlink:href="tile3_28.png" preserveAspectRatio="none" x="14005.371094" y="-3805.664062" width="2.197266" height="2.197266"/>
<image xlink:href="tile3_27.png" preserveAspectRatio="none" x="14005.371094" y="-3807.861328" width="2.197266" height="2.197266"/>
<image xlink:href="tile3_26.png" preserveAspectRatio="none" x="14005.371094" y="-3810.058594" width="2.197266" height="2.197266"/>
<image xlink:href="tile3_25.png" preserveAspectRatio="none" x="14005.371094" y="-3812.255859" width="2.197266" height="2.197266"/>
<image xlink:href="tile3_24.png" preserveAspectRatio="none" x="14005.371094" y="-3814.453125" width="2.197266" height="2.197266"/>
<image xlink:href="tile3_23.png" preserveAspectRatio="none" x="14005.371094" y="-3816.650391" width="2.197266" height="2.197266"/>
<image xlink:href="tile3_22.png" preserveAspectRatio="none" x="14005.371094" y="-3818.847656" width="2.197266" height="2.197266"/>
<image xlink:href="tile3_21.png" preserveAspectRatio="none" x="14005.371094" y="-3821.044922" width="2.197266" height="2.197266"/>
<image xlink:href="tile4_30.png" preserveAspectRatio="none" x="14007.568359" y="-3801.269531" width="2.197266" height="2.197266"/>
<image xlink:href="tile4_29.png" preserveAspectRatio="none" x="14007.568359" y="-3803.466797" width="2.197266" height="2.197266"/>
<image xlink:href="tile4_28.png" preserveAspectRatio="none" x="14007.568359" y="-3805.664062" width="2.197266" height="2.197266"/>
<image xlink:href="tile4_27.png" preserveAspectRatio="none" x="14007.568359" y="-3807.861328" width="2.197266" height="2.197266"/>
<image xlink:href="tile4_23.png" preserveAspectRatio="none" x="14007.568359" y="-3816.650391" width="2.197266" height="2.197266"/>
<image xlink:href="tile4_22.png" preserveAspectRatio="none" x="14007.568359" y="-3818.847656" width="2.197266" height="2.197266"/>
<image xlink:href="tile4_21.png" preserveAspectRatio="none" x="14007.568359" y="-3821.044922" width="2.197266" height="2.197266"/>
<image xlink:href="tile4_20.png" preserveAspectRatio="none" x="14007.568359" y="-3823.242188" width="2.197266" height="2.197266"/>
<image xlink:href="tile4_19.png" preserveAspectRatio="none" x="14007.568359" y="-3825.439453" width="2.197266" height="2.197266"/>
<image xlink:href="tile5_30.png" preserveAspectRatio="none" x="14009.765625" y="-3801.269531" width="2.197266" height="2.197266"/>
<image xlink:href="tile5_29.png" preserveAspectRatio="none" x="14009.765625" y="-3803.466797" width="2.197266" height="2.197266"/>
<image xlink:href="tile5_28.png" preserveAspectRatio="none" x="14009.765625" y="-3805.664062" width="2.197266" height="2.197266"/>
<image xlink:href="tile5_27.png" preserveAspectRatio="none" x="14009.765625" y="-3807.861328" width="2.197266" height="2.197266"/>
<image xlink:href="tile5_22.png" preserveAspectRatio="none" x="14009.765625" y="-3818.847656" width="2.197266" height="2.197266"/>
<image xlink:href="tile5_21.png" preserveAspectRatio="none" x="14009.765625" y="-3821.044922" width="2.197266" height="2.197266"/>
<image xlink:href="tile5_20.png" preserveAspectRatio="none" x="14009.765625" y="-3823.242188" width="2.197266" height="2.197266"/>
<image xlink:href="tile5_19.png" preserveAspectRatio="none" x="14009.765625" y="-3825.439453" width="2.197266" height="2.197266"/>
<image xlink:href="tile5_18.png" preserveAspectRatio="none" x="14009.765625" y="-3827.636719" width="2.197266" height="2.197266"/>
<image xlink:href="tile6_30.png" preserveAspectRatio="none" x="14011.962891" y="-3801.269531" width="2.197266" height="2.197266"/>
<image xlink:href="tile6_29.png" preserveAspectRatio="none" x="14011.962891" y="-3803.466797" width="2.197266" height="2.197266"/>
<image xlink:href="tile6_28.png" preserveAspectRatio="none" x="14011.962891" y="-3805.664062" width="2.197266" height="2.197266"/>
<image xlink:href="tile6_27.png" preserveAspectRatio="none" x="14011.962891" y="-3807.861328" width="2.197266" height="2.197266"/>
<image xlink:href="tile6_17.png" preserveAspectRatio="none" x="14011.962891" y="-3829.833984" width="2.197266" height="2.197266"/>
<image xlink:href="tile6_16.png" preserveAspectRatio="none" x="14011.962891" y="-3832.03125" width="2.197266" height="2.197266"/>
<image xlink:href="tile7_30.png" preserveAspectRatio="none" x="14014.160156" y="-3801.269531" width="2.197266" height="2.197266"/>
<image xlink:href="tile7_29.png" preserveAspectRatio="none" x="14014.160156" y="-3803.466797" width="2.197266" height="2.197266"/>
<image xlink:href="tile7_28.png" preserveAspectRatio="none" x="14014.160156" y="-3805.664062" width="2.197266" height="2.197266"/>
<image xlink:href="tile7_27.png" preserveAspectRatio="none" x="14014.160156" y="-3807.861328" width="2.197266" height="2.197266"/>
<image xlink:href="tile7_26.png" preserveAspectRatio="none" x="14014.160156" y="-3810.058594" width="2.197266" height="2.197266"/>
<image xlink:href="tile7_25.png" preserveAspectRatio="none" x="14014.160156" y="-3812.255859" width="2.197266" height="2.197266"/>
<image xlink:href="tile7_24.png" preserveAspectRatio="none" x="14014.160156" y="-3814.453125" width="2.197266" height="2.197266"/>
<image xlink:href="tile7_16.png" preserveAspectRatio="none" x="14014.160156" y="-3832.03125" width="2.197266" height="2.197266"/>
<image xlink:href="tile7_15.png" preserveAspectRatio="none" x="14014.160156" y="-3834.228516" width="2.197266" height="2.197266"/>
<image xlink:href="tile8_30.png" preserveAspectRatio="none" x="14016.357422" y="-3801.269531" width="2.197266" height="2.197266"/>
<image xlink:href="tile8_29.png" preserveAspectRatio="none" x="14016.357422" y="-3803.466797" width="2.197266" height="2.197266"/>
<image xlink:href="tile8_28.png" preserveAspectRatio="none" x="14016.357422" y="-3805.664062" width="2.197266" height="2.197266"/>
<image xlink:href="tile8_27.png" preserveAspectRatio="none" x="14016.357422" y="-3807.861328" width="2.197266" height="2.197266"/>
<image xlink:href="tile8_25.png" preserveAspectRatio="none" x="14016.357422" y="-3812.255859" width="2.197266" height="2.197266"/>
<image xlink:href="tile8_24.png" preserveAspectRatio="none" x="14016.357422" y="-3814.453125" width="2.197266" height="2.197266"/>
<image xlink:href="tile8_23.png" preserveAspectRatio="none" x="14016.357422" y="-3816.650391" width="2.197266" height="2.197266"/>
<image xlink:href="tile8_22.png" preserveAspectRatio="none" x="14016.357422" y="-3818.847656" width="2.197266" height="2.197266"/>
<image xlink:href="tile8_21.png" preserveAspectRatio="none" x="14016.357422" y="-3821.044922" width="2.197266" height="2.197266"/>
<image xlink:href="tile8_15.png" preserveAspectRatio="none" x="14016.357422" y="-3834.228516" width="2.197266" height="2.197266"/>
<image xlink:href="tile9_30.png" preserveAspectRatio="none" x="14018.554688" y="-3801.269531" width="2.197266" height="2.197266"/>
<image xlink:href="tile9_29.png" preserveAspectRatio="none" x="14018.554688" y="-3803.466797" width="2.197266" height="2.197266"/>
<image xlink:href="tile9_28.png" preserveAspectRatio="none" x="14018.554688" y="-3805.664062" width="2.197266" height="2.197266"/>
<image xlink:href="tile9_27.png" preserveAspectRatio="none" x="14018.554688" y="-3807.861328" width="2.197266" height="2.197266"/>
<image xlink:href="tile9_22.png" preserveAspectRatio="none" x="14018.554688" y="-3818.847656" width="2.197266" height="2.197266"/>
<image xlink:href="tile9_21.png" preserveAspectRatio="none" x="14018.554688" y="-3821.044922" width="2.197266" height="2.197266"/>
<image xlink:href="tile9_15.png" preserveAspectRatio="none" x="14018.554688" y="-3834.228516" width="2.197266" height="2.197266"/>
<image xlink:href="tile10_30.png" preserveAspectRatio="none" x="14020.751953" y="-3801.269531" width="2.197266" height="2.197266"/>
<image xlink:href="tile10_29.png" preserveAspectRatio="none" x="14020.751953" y="-3803.466797" width="2.197266" height="2.197266"/>
<image xlink:href="tile10_28.png" preserveAspectRatio="none" x="14020.751953" y="-3805.664062" width="2.197266" height="2.197266"/>
<image xlink:href="tile11_30.png" preserveAspectRatio="none" x="14022.949219" y="-3801.269531" width="2.197266" height="2.197266"/>
<image xlink:href="tile11_29.png" preserveAspectRatio="none" x="14022.949219" y="-3803.466797" width="2.197266" height="2.197266"/>
<image xlink:href="tile12_29.png" preserveAspectRatio="none" x="14025.146484" y="-3803.466797" width="2.197266" height="2.197266"/>
<image xlink:href="tile12_24.png" preserveAspectRatio="none" x="14025.146484" y="-3814.453125" width="2.197266" height="2.197266"/>
<image xlink:href="tile12_23.png" preserveAspectRatio="none" x="14025.146484" y="-3816.650391" width="2.197266" height="2.197266"/>
<image xlink:href="tile12_19.png" preserveAspectRatio="none" x="14025.146484" y="-3825.439453" width="2.197266" height="2.197266"/>
<image xlink:href="tile12_18.png" preserveAspectRatio="none" x="14025.146484" y="-3827.636719" width="2.197266" height="2.197266"/>
<image xlink:href="tile12_17.png" preserveAspectRatio="none" x="14025.146484" y="-3829.833984" width="2.197266" height="2.197266"/>
<image xlink:href="tile12_16.png" preserveAspectRatio="none" x="14025.146484" y="-3832.03125" width="2.197266" height="2.197266"/>
<image xlink:href="tile12_15.png" preserveAspectRatio="none" x="14025.146484" y="-3834.228516" width="2.197266" height="2.197266"/>
<image xlink:href="tile13_24.png" preserveAspectRatio="none" x="14027.34375" y="-3814.453125" width="2.197266" height="2.197266"/>
<image xlink:href="tile13_23.png" preserveAspectRatio="none" x="14027.34375" y="-3816.650391" width="2.197266" height="2.197266"/>
<image xlink:href="tile13_22.png" preserveAspectRatio="none" x="14027.34375" y="-3818.847656" width="2.197266" height="2.197266"/>
<image xlink:href="tile13_20.png" preserveAspectRatio="none" x="14027.34375" y="-3823.242188" width="2.197266" height="2.197266"/>
<image xlink:href="tile13_19.png" preserveAspectRatio="none" x="14027.34375" y="-3825.439453" width="2.197266" height="2.197266"/>
<image xlink:href="tile13_18.png" preserveAspectRatio="none" x="14027.34375" y="-3827.636719" width="2.197266" height="2.197266"/>
<image xlink:href="tile13_17.png" preserveAspectRatio="none" x="14027.34375" y="-3829.833984" width="2.197266" height="2.197266"/>
<image xlink:href="tile13_16.png" preserveAspectRatio="none" x="14027.34375" y="-3832.03125" width="2.197266" height="2.197266"/>
<image xlink:href="tile13_15.png" preserveAspectRatio="none" x="14027.34375" y="-3834.228516" width="2.197266" height="2.197266"/>
<image xlink:href="tile14_23.png" preserveAspectRatio="none" x="14029.541016" y="-3816.650391" width="2.197266" height="2.197266"/>
<image xlink:href="tile14_22.png" preserveAspectRatio="none" x="14029.541016" y="-3818.847656" width="2.197266" height="2.197266"/>
<image xlink:href="tile14_21.png" preserveAspectRatio="none" x="14029.541016" y="-3821.044922" width="2.197266" height="2.197266"/>
<image xlink:href="tile14_20.png" preserveAspectRatio="none" x="14029.541016" y="-3823.242188" width="2.197266" height="2.197266"/>
<image xlink:href="tile14_19.png" preserveAspectRatio="none" x="14029.541016" y="-3825.439453" width="2.197266" height="2.197266"/>
<image xlink:href="tile14_18.png" preserveAspectRatio="none" x="14029.541016" y="-3827.636719" width="2.197266" height="2.197266"/>
<image xlink:href="tile14_17.png" preserveAspectRatio="none" x="14029.541016" y="-3829.833984" width="2.197266" height="2.197266"/>
<image xlink:href="tile14_16.png" preserveAspectRatio="none" x="14029.541016" y="-3832.03125" width="2.197266" height="2.197266"/>
<image xlink:href="tile14_15.png" preserveAspectRatio="none" x="14029.541016" y="-3834.228516" width="2.197266" height="2.197266"/>
<image xlink:href="tile15_18.png" preserveAspectRatio="none" x="14031.738281" y="-3827.636719" width="2.197266" height="2.197266"/>
<image xlink:href="tile15_17.png" preserveAspectRatio="none" x="14031.738281" y="-3829.833984" width="2.197266" height="2.197266"/>
<image xlink:href="tile15_16.png" preserveAspectRatio="none" x="14031.738281" y="-3832.03125" width="2.197266" height="2.197266"/>
<image xlink:href="tile15_15.png" preserveAspectRatio="none" x="14031.738281" y="-3834.228516" width="2.197266" height="2.197266"/>
</g>
</svg>
