<?xml version="1.0" encoding="UTF-8"?>
<svg  xmlns="http://www.w3.org/2000/svg" xmlns:xlink="http://www.w3.org/1999/xlink" xmlns:go="http://purl.org/svgmap/profile" viewBox="14162.6563 -4516.791700000001 37.34369999999956 30.154200000000486" go:dataArea="14162.6563 -4516.791700000001 37.34369999999956 30.154200000000486" >
<metadata>
 <rdf:RDF xmlns:rdf="http://www.w3.org/1999/02/22-rdf-syntax-ns#" xmlns:crs="http://opengis.org/xmldtds/transformations.dtd" xmlns:svg="http://www.w3.org/svg" >
  <rdf:Description>
   <crs:CoordinateReferenceSystem rdf:resource="http://purl.org/crs/84" svg:transform="matrix(100.0,0.0,0.0,-100.0,0.0,0.0)" />
  </rdf:Description>
 </rdf:RDF>
</metadata>
<globalCoordinateSystem srsName="http://purl.org/crs/84" transform="matrix(100.0,0.0,0.0,-100.0,0.0,0.0)" />
<g >
<image xlink:href="tile0_0.png" preserveAspectRatio="none" x="14159.179688" y="-4517.578125" width="4.394531" height="4.394531"/>
<image xlink:href="tile1_2.png" preserveAspectRatio="none" x="14163.574219" y="-4508.789062" width="4.394531" height="4.394531"/>
<image xlink:href="tile1_1.png" preserveAspectRatio="none" x="14163.574219" y="-4513.183594" width="4.394531" height="4.394531"/>
<image xlink:href="tile1_0.png" preserveAspectRatio="none" x="14163.574219" y="-4517.578125" width="4.394531" height="4.394531"/>
<image xlink:href="tile2_5.png" preserveAspectRatio="none" x="14167.96875" y="-4495.605469" width="4.394531" height="4.394531"/>
<image xlink:href="tile2_4.png" preserveAspectRatio="none" x="14167.96875" y="-4500" width="4.394531" height="4.394531"/>
<image xlink:href="tile2_3.png" preserveAspectRatio="none" x="14167.96875" y="-4504.394531" width="4.394531" height="4.394531"/>
<image xlink:href="tile2_2.png" preserveAspectRatio="none" x="14167.96875" y="-4508.789062" width="4.394531" height="4.394531"/>
<image xlink:href="tile2_1.png" preserveAspectRatio="none" x="14167.96875" y="-4513.183594" width="4.394531" height="4.394531"/>
<image xlink:href="tile3_6.png" preserveAspectRatio="none" x="14172.363281" y="-4491.210938" width="4.394531" height="4.394531"/>
<image xlink:href="tile3_4.png" preserveAspectRatio="none" x="14172.363281" y="-4500" width="4.394531" height="4.394531"/>
<image xlink:href="tile3_3.png" preserveAspectRatio="none" x="14172.363281" y="-4504.394531" width="4.394531" height="4.394531"/>
<image xlink:href="tile3_2.png" preserveAspectRatio="none" x="14172.363281" y="-4508.789062" width="4.394531" height="4.394531"/>
<image xlink:href="tile4_4.png" preserveAspectRatio="none" x="14176.757812" y="-4500" width="4.394531" height="4.394531"/>
<image xlink:href="tile4_3.png" preserveAspectRatio="none" x="14176.757812" y="-4504.394531" width="4.394531" height="4.394531"/>
<image xlink:href="tile5_5.png" preserveAspectRatio="none" x="14181.152344" y="-4495.605469" width="4.394531" height="4.394531"/>
<image xlink:href="tile5_4.png" preserveAspectRatio="none" x="14181.152344" y="-4500" width="4.394531" height="4.394531"/>
<image xlink:href="tile6_6.png" preserveAspectRatio="none" x="14185.546875" y="-4491.210938" width="4.394531" height="4.394531"/>
<image xlink:href="tile6_5.png" preserveAspectRatio="none" x="14185.546875" y="-4495.605469" width="4.394531" height="4.394531"/>
<image xlink:href="tile6_4.png" preserveAspectRatio="none" x="14185.546875" y="-4500" width="4.394531" height="4.394531"/>
<image xlink:href="tile7_6.png" preserveAspectRatio="none" x="14189.941406" y="-4491.210938" width="4.394531" height="4.394531"/>
<image xlink:href="tile7_5.png" preserveAspectRatio="none" x="14189.941406" y="-4495.605469" width="4.394531" height="4.394531"/>
<image xlink:href="tile8_6.png" preserveAspectRatio="none" x="14194.335938" y="-4491.210938" width="4.394531" height="4.394531"/>
<image xlink:href="tile8_5.png" preserveAspectRatio="none" x="14194.335938" y="-4495.605469" width="4.394531" height="4.394531"/>
<image xlink:href="tile9_6.png" preserveAspectRatio="none" x="14198.730469" y="-4491.210938" width="4.394531" height="4.394531"/>
<image xlink:href="tile9_5.png" preserveAspectRatio="none" x="14198.730469" y="-4495.605469" width="4.394531" height="4.394531"/>
</g>
</svg>
