<?xml version="1.0" encoding="UTF-8"?>
<svg  xmlns="http://www.w3.org/2000/svg" xmlns:xlink="http://www.w3.org/1999/xlink" xmlns:go="http://purl.org/svgmap/profile" viewBox="13200.0 -3466.6666681 100.0 64.56666810000016" go:dataArea="13200.0 -3466.6666681 100.0 64.56666810000016" >
<metadata>
 <rdf:RDF xmlns:rdf="http://www.w3.org/1999/02/22-rdf-syntax-ns#" xmlns:crs="http://opengis.org/xmldtds/transformations.dtd" xmlns:svg="http://www.w3.org/svg" >
  <rdf:Description>
   <crs:CoordinateReferenceSystem rdf:resource="http://purl.org/crs/84" svg:transform="matrix(100.0,0.0,0.0,-100.0,0.0,0.0)" />
  </rdf:Description>
 </rdf:RDF>
</metadata>
<globalCoordinateSystem srsName="http://purl.org/crs/84" transform="matrix(100.0,0.0,0.0,-100.0,0.0,0.0)" />
<g >
<image xlink:href="tile0_14.png" preserveAspectRatio="none" x="13196.777344" y="-3405.761719" width="4.394531" height="4.394531"/>
<image xlink:href="tile0_13.png" preserveAspectRatio="none" x="13196.777344" y="-3410.15625" width="4.394531" height="4.394531"/>
<image xlink:href="tile0_10.png" preserveAspectRatio="none" x="13196.777344" y="-3423.339844" width="4.394531" height="4.394531"/>
<image xlink:href="tile0_9.png" preserveAspectRatio="none" x="13196.777344" y="-3427.734375" width="4.394531" height="4.394531"/>
<image xlink:href="tile0_7.png" preserveAspectRatio="none" x="13196.777344" y="-3436.523438" width="4.394531" height="4.394531"/>
<image xlink:href="tile1_13.png" preserveAspectRatio="none" x="13201.171875" y="-3410.15625" width="4.394531" height="4.394531"/>
<image xlink:href="tile1_12.png" preserveAspectRatio="none" x="13201.171875" y="-3414.550781" width="4.394531" height="4.394531"/>
<image xlink:href="tile1_10.png" preserveAspectRatio="none" x="13201.171875" y="-3423.339844" width="4.394531" height="4.394531"/>
<image xlink:href="tile1_9.png" preserveAspectRatio="none" x="13201.171875" y="-3427.734375" width="4.394531" height="4.394531"/>
<image xlink:href="tile1_8.png" preserveAspectRatio="none" x="13201.171875" y="-3432.128906" width="4.394531" height="4.394531"/>
<image xlink:href="tile2_13.png" preserveAspectRatio="none" x="13205.566406" y="-3410.15625" width="4.394531" height="4.394531"/>
<image xlink:href="tile2_11.png" preserveAspectRatio="none" x="13205.566406" y="-3418.945312" width="4.394531" height="4.394531"/>
<image xlink:href="tile2_10.png" preserveAspectRatio="none" x="13205.566406" y="-3423.339844" width="4.394531" height="4.394531"/>
<image xlink:href="tile2_9.png" preserveAspectRatio="none" x="13205.566406" y="-3427.734375" width="4.394531" height="4.394531"/>
<image xlink:href="tile3_13.png" preserveAspectRatio="none" x="13209.960938" y="-3410.15625" width="4.394531" height="4.394531"/>
<image xlink:href="tile3_11.png" preserveAspectRatio="none" x="13209.960938" y="-3418.945312" width="4.394531" height="4.394531"/>
<image xlink:href="tile4_14.png" preserveAspectRatio="none" x="13214.355469" y="-3405.761719" width="4.394531" height="4.394531"/>
<image xlink:href="tile4_12.png" preserveAspectRatio="none" x="13214.355469" y="-3414.550781" width="4.394531" height="4.394531"/>
<image xlink:href="tile4_11.png" preserveAspectRatio="none" x="13214.355469" y="-3418.945312" width="4.394531" height="4.394531"/>
<image xlink:href="tile4_10.png" preserveAspectRatio="none" x="13214.355469" y="-3423.339844" width="4.394531" height="4.394531"/>
<image xlink:href="tile5_14.png" preserveAspectRatio="none" x="13218.75" y="-3405.761719" width="4.394531" height="4.394531"/>
<image xlink:href="tile5_12.png" preserveAspectRatio="none" x="13218.75" y="-3414.550781" width="4.394531" height="4.394531"/>
<image xlink:href="tile5_11.png" preserveAspectRatio="none" x="13218.75" y="-3418.945312" width="4.394531" height="4.394531"/>
<image xlink:href="tile5_10.png" preserveAspectRatio="none" x="13218.75" y="-3423.339844" width="4.394531" height="4.394531"/>
<image xlink:href="tile5_4.png" preserveAspectRatio="none" x="13218.75" y="-3449.707031" width="4.394531" height="4.394531"/>
<image xlink:href="tile5_2.png" preserveAspectRatio="none" x="13218.75" y="-3458.496094" width="4.394531" height="4.394531"/>
<image xlink:href="tile6_12.png" preserveAspectRatio="none" x="13223.144531" y="-3414.550781" width="4.394531" height="4.394531"/>
<image xlink:href="tile6_11.png" preserveAspectRatio="none" x="13223.144531" y="-3418.945312" width="4.394531" height="4.394531"/>
<image xlink:href="tile6_10.png" preserveAspectRatio="none" x="13223.144531" y="-3423.339844" width="4.394531" height="4.394531"/>
<image xlink:href="tile6_4.png" preserveAspectRatio="none" x="13223.144531" y="-3449.707031" width="4.394531" height="4.394531"/>
<image xlink:href="tile6_2.png" preserveAspectRatio="none" x="13223.144531" y="-3458.496094" width="4.394531" height="4.394531"/>
<image xlink:href="tile7_4.png" preserveAspectRatio="none" x="13227.539062" y="-3449.707031" width="4.394531" height="4.394531"/>
<image xlink:href="tile7_3.png" preserveAspectRatio="none" x="13227.539062" y="-3454.101562" width="4.394531" height="4.394531"/>
<image xlink:href="tile7_2.png" preserveAspectRatio="none" x="13227.539062" y="-3458.496094" width="4.394531" height="4.394531"/>
<image xlink:href="tile7_1.png" preserveAspectRatio="none" x="13227.539062" y="-3462.890625" width="4.394531" height="4.394531"/>
<image xlink:href="tile8_3.png" preserveAspectRatio="none" x="13231.933594" y="-3454.101562" width="4.394531" height="4.394531"/>
<image xlink:href="tile8_2.png" preserveAspectRatio="none" x="13231.933594" y="-3458.496094" width="4.394531" height="4.394531"/>
<image xlink:href="tile8_1.png" preserveAspectRatio="none" x="13231.933594" y="-3462.890625" width="4.394531" height="4.394531"/>
<image xlink:href="tile9_7.png" preserveAspectRatio="none" x="13236.328125" y="-3436.523438" width="4.394531" height="4.394531"/>
<image xlink:href="tile9_6.png" preserveAspectRatio="none" x="13236.328125" y="-3440.917969" width="4.394531" height="4.394531"/>
<image xlink:href="tile9_3.png" preserveAspectRatio="none" x="13236.328125" y="-3454.101562" width="4.394531" height="4.394531"/>
<image xlink:href="tile9_2.png" preserveAspectRatio="none" x="13236.328125" y="-3458.496094" width="4.394531" height="4.394531"/>
<image xlink:href="tile10_7.png" preserveAspectRatio="none" x="13240.722656" y="-3436.523438" width="4.394531" height="4.394531"/>
<image xlink:href="tile10_6.png" preserveAspectRatio="none" x="13240.722656" y="-3440.917969" width="4.394531" height="4.394531"/>
<image xlink:href="tile10_5.png" preserveAspectRatio="none" x="13240.722656" y="-3445.3125" width="4.394531" height="4.394531"/>
<image xlink:href="tile10_4.png" preserveAspectRatio="none" x="13240.722656" y="-3449.707031" width="4.394531" height="4.394531"/>
<image xlink:href="tile10_3.png" preserveAspectRatio="none" x="13240.722656" y="-3454.101562" width="4.394531" height="4.394531"/>
<image xlink:href="tile10_2.png" preserveAspectRatio="none" x="13240.722656" y="-3458.496094" width="4.394531" height="4.394531"/>
<image xlink:href="tile11_7.png" preserveAspectRatio="none" x="13245.117188" y="-3436.523438" width="4.394531" height="4.394531"/>
<image xlink:href="tile11_6.png" preserveAspectRatio="none" x="13245.117188" y="-3440.917969" width="4.394531" height="4.394531"/>
<image xlink:href="tile11_5.png" preserveAspectRatio="none" x="13245.117188" y="-3445.3125" width="4.394531" height="4.394531"/>
<image xlink:href="tile11_4.png" preserveAspectRatio="none" x="13245.117188" y="-3449.707031" width="4.394531" height="4.394531"/>
<image xlink:href="tile11_3.png" preserveAspectRatio="none" x="13245.117188" y="-3454.101562" width="4.394531" height="4.394531"/>
<image xlink:href="tile11_2.png" preserveAspectRatio="none" x="13245.117188" y="-3458.496094" width="4.394531" height="4.394531"/>
<image xlink:href="tile12_7.png" preserveAspectRatio="none" x="13249.511719" y="-3436.523438" width="4.394531" height="4.394531"/>
<image xlink:href="tile12_6.png" preserveAspectRatio="none" x="13249.511719" y="-3440.917969" width="4.394531" height="4.394531"/>
<image xlink:href="tile12_5.png" preserveAspectRatio="none" x="13249.511719" y="-3445.3125" width="4.394531" height="4.394531"/>
<image xlink:href="tile12_4.png" preserveAspectRatio="none" x="13249.511719" y="-3449.707031" width="4.394531" height="4.394531"/>
<image xlink:href="tile12_3.png" preserveAspectRatio="none" x="13249.511719" y="-3454.101562" width="4.394531" height="4.394531"/>
<image xlink:href="tile12_2.png" preserveAspectRatio="none" x="13249.511719" y="-3458.496094" width="4.394531" height="4.394531"/>
<image xlink:href="tile12_1.png" preserveAspectRatio="none" x="13249.511719" y="-3462.890625" width="4.394531" height="4.394531"/>
<image xlink:href="tile12_0.png" preserveAspectRatio="none" x="13249.511719" y="-3467.285156" width="4.394531" height="4.394531"/>
<image xlink:href="tile13_7.png" preserveAspectRatio="none" x="13253.90625" y="-3436.523438" width="4.394531" height="4.394531"/>
<image xlink:href="tile13_6.png" preserveAspectRatio="none" x="13253.90625" y="-3440.917969" width="4.394531" height="4.394531"/>
<image xlink:href="tile13_5.png" preserveAspectRatio="none" x="13253.90625" y="-3445.3125" width="4.394531" height="4.394531"/>
<image xlink:href="tile13_4.png" preserveAspectRatio="none" x="13253.90625" y="-3449.707031" width="4.394531" height="4.394531"/>
<image xlink:href="tile13_2.png" preserveAspectRatio="none" x="13253.90625" y="-3458.496094" width="4.394531" height="4.394531"/>
<image xlink:href="tile14_10.png" preserveAspectRatio="none" x="13258.300781" y="-3423.339844" width="4.394531" height="4.394531"/>
<image xlink:href="tile14_9.png" preserveAspectRatio="none" x="13258.300781" y="-3427.734375" width="4.394531" height="4.394531"/>
<image xlink:href="tile14_6.png" preserveAspectRatio="none" x="13258.300781" y="-3440.917969" width="4.394531" height="4.394531"/>
<image xlink:href="tile14_5.png" preserveAspectRatio="none" x="13258.300781" y="-3445.3125" width="4.394531" height="4.394531"/>
<image xlink:href="tile14_4.png" preserveAspectRatio="none" x="13258.300781" y="-3449.707031" width="4.394531" height="4.394531"/>
<image xlink:href="tile14_3.png" preserveAspectRatio="none" x="13258.300781" y="-3454.101562" width="4.394531" height="4.394531"/>
<image xlink:href="tile14_0.png" preserveAspectRatio="none" x="13258.300781" y="-3467.285156" width="4.394531" height="4.394531"/>
<image xlink:href="tile15_10.png" preserveAspectRatio="none" x="13262.695312" y="-3423.339844" width="4.394531" height="4.394531"/>
<image xlink:href="tile15_9.png" preserveAspectRatio="none" x="13262.695312" y="-3427.734375" width="4.394531" height="4.394531"/>
<image xlink:href="tile15_8.png" preserveAspectRatio="none" x="13262.695312" y="-3432.128906" width="4.394531" height="4.394531"/>
<image xlink:href="tile15_7.png" preserveAspectRatio="none" x="13262.695312" y="-3436.523438" width="4.394531" height="4.394531"/>
<image xlink:href="tile15_5.png" preserveAspectRatio="none" x="13262.695312" y="-3445.3125" width="4.394531" height="4.394531"/>
<image xlink:href="tile15_3.png" preserveAspectRatio="none" x="13262.695312" y="-3454.101562" width="4.394531" height="4.394531"/>
<image xlink:href="tile15_2.png" preserveAspectRatio="none" x="13262.695312" y="-3458.496094" width="4.394531" height="4.394531"/>
<image xlink:href="tile15_1.png" preserveAspectRatio="none" x="13262.695312" y="-3462.890625" width="4.394531" height="4.394531"/>
<image xlink:href="tile15_0.png" preserveAspectRatio="none" x="13262.695312" y="-3467.285156" width="4.394531" height="4.394531"/>
</g>
</svg>
