<?xml version="1.0" encoding="UTF-8"?>
<svg  xmlns="http://www.w3.org/2000/svg" xmlns:xlink="http://www.w3.org/1999/xlink" xmlns:go="http://purl.org/svgmap/profile" viewBox="14000.776823 -3800.0 99.22317699999894 66.66666699999979" go:dataArea="14000.776823 -3800.0 99.22317699999894 66.66666699999979" >
<metadata>
 <rdf:RDF xmlns:rdf="http://www.w3.org/1999/02/22-rdf-syntax-ns#" xmlns:crs="http://opengis.org/xmldtds/transformations.dtd" xmlns:svg="http://www.w3.org/svg" >
  <rdf:Description>
   <crs:CoordinateReferenceSystem rdf:resource="http://purl.org/crs/84" svg:transform="matrix(100.0,0.0,0.0,-100.0,0.0,0.0)" />
  </rdf:Description>
 </rdf:RDF>
</metadata>
<globalCoordinateSystem srsName="http://purl.org/crs/84" transform="matrix(100.0,0.0,0.0,-100.0,0.0,0.0)" />
<g >
<image xlink:href="tile16_13.png" preserveAspectRatio="none" x="14033.935547" y="-3772.705078" width="2.197266" height="2.197266"/>
<image xlink:href="tile16_12.png" preserveAspectRatio="none" x="14033.935547" y="-3774.902344" width="2.197266" height="2.197266"/>
<image xlink:href="tile17_13.png" preserveAspectRatio="none" x="14036.132812" y="-3772.705078" width="2.197266" height="2.197266"/>
<image xlink:href="tile17_12.png" preserveAspectRatio="none" x="14036.132812" y="-3774.902344" width="2.197266" height="2.197266"/>
<image xlink:href="tile17_11.png" preserveAspectRatio="none" x="14036.132812" y="-3777.099609" width="2.197266" height="2.197266"/>
<image xlink:href="tile18_13.png" preserveAspectRatio="none" x="14038.330078" y="-3772.705078" width="2.197266" height="2.197266"/>
<image xlink:href="tile18_12.png" preserveAspectRatio="none" x="14038.330078" y="-3774.902344" width="2.197266" height="2.197266"/>
<image xlink:href="tile18_11.png" preserveAspectRatio="none" x="14038.330078" y="-3777.099609" width="2.197266" height="2.197266"/>
<image xlink:href="tile19_12.png" preserveAspectRatio="none" x="14040.527344" y="-3774.902344" width="2.197266" height="2.197266"/>
<image xlink:href="tile19_11.png" preserveAspectRatio="none" x="14040.527344" y="-3777.099609" width="2.197266" height="2.197266"/>
<image xlink:href="tile20_13.png" preserveAspectRatio="none" x="14042.724609" y="-3772.705078" width="2.197266" height="2.197266"/>
<image xlink:href="tile20_12.png" preserveAspectRatio="none" x="14042.724609" y="-3774.902344" width="2.197266" height="2.197266"/>
<image xlink:href="tile20_11.png" preserveAspectRatio="none" x="14042.724609" y="-3777.099609" width="2.197266" height="2.197266"/>
<image xlink:href="tile20_10.png" preserveAspectRatio="none" x="14042.724609" y="-3779.296875" width="2.197266" height="2.197266"/>
<image xlink:href="tile21_13.png" preserveAspectRatio="none" x="14044.921875" y="-3772.705078" width="2.197266" height="2.197266"/>
<image xlink:href="tile21_12.png" preserveAspectRatio="none" x="14044.921875" y="-3774.902344" width="2.197266" height="2.197266"/>
<image xlink:href="tile21_11.png" preserveAspectRatio="none" x="14044.921875" y="-3777.099609" width="2.197266" height="2.197266"/>
<image xlink:href="tile21_10.png" preserveAspectRatio="none" x="14044.921875" y="-3779.296875" width="2.197266" height="2.197266"/>
<image xlink:href="tile22_13.png" preserveAspectRatio="none" x="14047.119141" y="-3772.705078" width="2.197266" height="2.197266"/>
<image xlink:href="tile22_12.png" preserveAspectRatio="none" x="14047.119141" y="-3774.902344" width="2.197266" height="2.197266"/>
<image xlink:href="tile22_11.png" preserveAspectRatio="none" x="14047.119141" y="-3777.099609" width="2.197266" height="2.197266"/>
<image xlink:href="tile22_10.png" preserveAspectRatio="none" x="14047.119141" y="-3779.296875" width="2.197266" height="2.197266"/>
<image xlink:href="tile22_9.png" preserveAspectRatio="none" x="14047.119141" y="-3781.494141" width="2.197266" height="2.197266"/>
<image xlink:href="tile23_11.png" preserveAspectRatio="none" x="14049.316406" y="-3777.099609" width="2.197266" height="2.197266"/>
<image xlink:href="tile23_10.png" preserveAspectRatio="none" x="14049.316406" y="-3779.296875" width="2.197266" height="2.197266"/>
<image xlink:href="tile23_9.png" preserveAspectRatio="none" x="14049.316406" y="-3781.494141" width="2.197266" height="2.197266"/>
<image xlink:href="tile23_8.png" preserveAspectRatio="none" x="14049.316406" y="-3783.691406" width="2.197266" height="2.197266"/>
<image xlink:href="tile24_10.png" preserveAspectRatio="none" x="14051.513672" y="-3779.296875" width="2.197266" height="2.197266"/>
<image xlink:href="tile24_9.png" preserveAspectRatio="none" x="14051.513672" y="-3781.494141" width="2.197266" height="2.197266"/>
<image xlink:href="tile24_8.png" preserveAspectRatio="none" x="14051.513672" y="-3783.691406" width="2.197266" height="2.197266"/>
<image xlink:href="tile24_7.png" preserveAspectRatio="none" x="14051.513672" y="-3785.888672" width="2.197266" height="2.197266"/>
<image xlink:href="tile25_8.png" preserveAspectRatio="none" x="14053.710938" y="-3783.691406" width="2.197266" height="2.197266"/>
<image xlink:href="tile25_7.png" preserveAspectRatio="none" x="14053.710938" y="-3785.888672" width="2.197266" height="2.197266"/>
<image xlink:href="tile25_6.png" preserveAspectRatio="none" x="14053.710938" y="-3788.085938" width="2.197266" height="2.197266"/>
<image xlink:href="tile26_8.png" preserveAspectRatio="none" x="14055.908203" y="-3783.691406" width="2.197266" height="2.197266"/>
<image xlink:href="tile26_7.png" preserveAspectRatio="none" x="14055.908203" y="-3785.888672" width="2.197266" height="2.197266"/>
<image xlink:href="tile26_6.png" preserveAspectRatio="none" x="14055.908203" y="-3788.085938" width="2.197266" height="2.197266"/>
<image xlink:href="tile27_8.png" preserveAspectRatio="none" x="14058.105469" y="-3783.691406" width="2.197266" height="2.197266"/>
<image xlink:href="tile27_7.png" preserveAspectRatio="none" x="14058.105469" y="-3785.888672" width="2.197266" height="2.197266"/>
<image xlink:href="tile27_6.png" preserveAspectRatio="none" x="14058.105469" y="-3788.085938" width="2.197266" height="2.197266"/>
<image xlink:href="tile28_7.png" preserveAspectRatio="none" x="14060.302734" y="-3785.888672" width="2.197266" height="2.197266"/>
<image xlink:href="tile28_6.png" preserveAspectRatio="none" x="14060.302734" y="-3788.085938" width="2.197266" height="2.197266"/>
<image xlink:href="tile28_5.png" preserveAspectRatio="none" x="14060.302734" y="-3790.283203" width="2.197266" height="2.197266"/>
<image xlink:href="tile28_1.png" preserveAspectRatio="none" x="14060.302734" y="-3799.072266" width="2.197266" height="2.197266"/>
<image xlink:href="tile28_0.png" preserveAspectRatio="none" x="14060.302734" y="-3801.269531" width="2.197266" height="2.197266"/>
<image xlink:href="tile29_6.png" preserveAspectRatio="none" x="14062.5" y="-3788.085938" width="2.197266" height="2.197266"/>
<image xlink:href="tile29_5.png" preserveAspectRatio="none" x="14062.5" y="-3790.283203" width="2.197266" height="2.197266"/>
<image xlink:href="tile29_1.png" preserveAspectRatio="none" x="14062.5" y="-3799.072266" width="2.197266" height="2.197266"/>
<image xlink:href="tile29_0.png" preserveAspectRatio="none" x="14062.5" y="-3801.269531" width="2.197266" height="2.197266"/>
<image xlink:href="tile30_5.png" preserveAspectRatio="none" x="14064.697266" y="-3790.283203" width="2.197266" height="2.197266"/>
<image xlink:href="tile30_4.png" preserveAspectRatio="none" x="14064.697266" y="-3792.480469" width="2.197266" height="2.197266"/>
<image xlink:href="tile31_4.png" preserveAspectRatio="none" x="14066.894531" y="-3792.480469" width="2.197266" height="2.197266"/>
<image xlink:href="tile31_3.png" preserveAspectRatio="none" x="14066.894531" y="-3794.677734" width="2.197266" height="2.197266"/>
</g>
</svg>
