<?xml version="1.0" encoding="UTF-8"?>
<svg  xmlns="http://www.w3.org/2000/svg" xmlns:xlink="http://www.w3.org/1999/xlink" xmlns:go="http://purl.org/svgmap/profile" viewBox="14000.776823 -3800.0 99.22317699999894 66.66666699999979" go:dataArea="14000.776823 -3800.0 99.22317699999894 66.66666699999979" >
<metadata>
 <rdf:RDF xmlns:rdf="http://www.w3.org/1999/02/22-rdf-syntax-ns#" xmlns:crs="http://opengis.org/xmldtds/transformations.dtd" xmlns:svg="http://www.w3.org/svg" >
  <rdf:Description>
   <crs:CoordinateReferenceSystem rdf:resource="http://purl.org/crs/84" svg:transform="matrix(100.0,0.0,0.0,-100.0,0.0,0.0)" />
  </rdf:Description>
 </rdf:RDF>
</metadata>
<globalCoordinateSystem srsName="http://purl.org/crs/84" transform="matrix(100.0,0.0,0.0,-100.0,0.0,0.0)" />
<g >
<image xlink:href="tile32_4.png" preserveAspectRatio="none" x="14069.091797" y="-3792.480469" width="2.197266" height="2.197266"/>
<image xlink:href="tile32_3.png" preserveAspectRatio="none" x="14069.091797" y="-3794.677734" width="2.197266" height="2.197266"/>
<image xlink:href="tile33_3.png" preserveAspectRatio="none" x="14071.289062" y="-3794.677734" width="2.197266" height="2.197266"/>
<image xlink:href="tile33_0.png" preserveAspectRatio="none" x="14071.289062" y="-3801.269531" width="2.197266" height="2.197266"/>
<image xlink:href="tile34_4.png" preserveAspectRatio="none" x="14073.486328" y="-3792.480469" width="2.197266" height="2.197266"/>
<image xlink:href="tile34_3.png" preserveAspectRatio="none" x="14073.486328" y="-3794.677734" width="2.197266" height="2.197266"/>
<image xlink:href="tile34_2.png" preserveAspectRatio="none" x="14073.486328" y="-3796.875" width="2.197266" height="2.197266"/>
<image xlink:href="tile34_1.png" preserveAspectRatio="none" x="14073.486328" y="-3799.072266" width="2.197266" height="2.197266"/>
<image xlink:href="tile34_0.png" preserveAspectRatio="none" x="14073.486328" y="-3801.269531" width="2.197266" height="2.197266"/>
<image xlink:href="tile35_4.png" preserveAspectRatio="none" x="14075.683594" y="-3792.480469" width="2.197266" height="2.197266"/>
<image xlink:href="tile35_3.png" preserveAspectRatio="none" x="14075.683594" y="-3794.677734" width="2.197266" height="2.197266"/>
<image xlink:href="tile35_2.png" preserveAspectRatio="none" x="14075.683594" y="-3796.875" width="2.197266" height="2.197266"/>
<image xlink:href="tile35_1.png" preserveAspectRatio="none" x="14075.683594" y="-3799.072266" width="2.197266" height="2.197266"/>
<image xlink:href="tile35_0.png" preserveAspectRatio="none" x="14075.683594" y="-3801.269531" width="2.197266" height="2.197266"/>
<image xlink:href="tile36_5.png" preserveAspectRatio="none" x="14077.880859" y="-3790.283203" width="2.197266" height="2.197266"/>
<image xlink:href="tile36_4.png" preserveAspectRatio="none" x="14077.880859" y="-3792.480469" width="2.197266" height="2.197266"/>
<image xlink:href="tile36_3.png" preserveAspectRatio="none" x="14077.880859" y="-3794.677734" width="2.197266" height="2.197266"/>
<image xlink:href="tile36_2.png" preserveAspectRatio="none" x="14077.880859" y="-3796.875" width="2.197266" height="2.197266"/>
<image xlink:href="tile36_1.png" preserveAspectRatio="none" x="14077.880859" y="-3799.072266" width="2.197266" height="2.197266"/>
<image xlink:href="tile36_0.png" preserveAspectRatio="none" x="14077.880859" y="-3801.269531" width="2.197266" height="2.197266"/>
<image xlink:href="tile37_7.png" preserveAspectRatio="none" x="14080.078125" y="-3785.888672" width="2.197266" height="2.197266"/>
<image xlink:href="tile37_6.png" preserveAspectRatio="none" x="14080.078125" y="-3788.085938" width="2.197266" height="2.197266"/>
<image xlink:href="tile37_5.png" preserveAspectRatio="none" x="14080.078125" y="-3790.283203" width="2.197266" height="2.197266"/>
<image xlink:href="tile37_4.png" preserveAspectRatio="none" x="14080.078125" y="-3792.480469" width="2.197266" height="2.197266"/>
<image xlink:href="tile37_3.png" preserveAspectRatio="none" x="14080.078125" y="-3794.677734" width="2.197266" height="2.197266"/>
<image xlink:href="tile37_2.png" preserveAspectRatio="none" x="14080.078125" y="-3796.875" width="2.197266" height="2.197266"/>
<image xlink:href="tile37_1.png" preserveAspectRatio="none" x="14080.078125" y="-3799.072266" width="2.197266" height="2.197266"/>
<image xlink:href="tile37_0.png" preserveAspectRatio="none" x="14080.078125" y="-3801.269531" width="2.197266" height="2.197266"/>
<image xlink:href="tile38_8.png" preserveAspectRatio="none" x="14082.275391" y="-3783.691406" width="2.197266" height="2.197266"/>
<image xlink:href="tile38_7.png" preserveAspectRatio="none" x="14082.275391" y="-3785.888672" width="2.197266" height="2.197266"/>
<image xlink:href="tile38_6.png" preserveAspectRatio="none" x="14082.275391" y="-3788.085938" width="2.197266" height="2.197266"/>
<image xlink:href="tile38_5.png" preserveAspectRatio="none" x="14082.275391" y="-3790.283203" width="2.197266" height="2.197266"/>
<image xlink:href="tile38_4.png" preserveAspectRatio="none" x="14082.275391" y="-3792.480469" width="2.197266" height="2.197266"/>
<image xlink:href="tile38_3.png" preserveAspectRatio="none" x="14082.275391" y="-3794.677734" width="2.197266" height="2.197266"/>
<image xlink:href="tile38_2.png" preserveAspectRatio="none" x="14082.275391" y="-3796.875" width="2.197266" height="2.197266"/>
<image xlink:href="tile38_1.png" preserveAspectRatio="none" x="14082.275391" y="-3799.072266" width="2.197266" height="2.197266"/>
<image xlink:href="tile38_0.png" preserveAspectRatio="none" x="14082.275391" y="-3801.269531" width="2.197266" height="2.197266"/>
<image xlink:href="tile39_8.png" preserveAspectRatio="none" x="14084.472656" y="-3783.691406" width="2.197266" height="2.197266"/>
<image xlink:href="tile40_4.png" preserveAspectRatio="none" x="14086.669922" y="-3792.480469" width="2.197266" height="2.197266"/>
<image xlink:href="tile40_3.png" preserveAspectRatio="none" x="14086.669922" y="-3794.677734" width="2.197266" height="2.197266"/>
<image xlink:href="tile41_10.png" preserveAspectRatio="none" x="14088.867188" y="-3779.296875" width="2.197266" height="2.197266"/>
<image xlink:href="tile41_9.png" preserveAspectRatio="none" x="14088.867188" y="-3781.494141" width="2.197266" height="2.197266"/>
<image xlink:href="tile41_4.png" preserveAspectRatio="none" x="14088.867188" y="-3792.480469" width="2.197266" height="2.197266"/>
<image xlink:href="tile41_3.png" preserveAspectRatio="none" x="14088.867188" y="-3794.677734" width="2.197266" height="2.197266"/>
<image xlink:href="tile41_2.png" preserveAspectRatio="none" x="14088.867188" y="-3796.875" width="2.197266" height="2.197266"/>
<image xlink:href="tile41_1.png" preserveAspectRatio="none" x="14088.867188" y="-3799.072266" width="2.197266" height="2.197266"/>
<image xlink:href="tile41_0.png" preserveAspectRatio="none" x="14088.867188" y="-3801.269531" width="2.197266" height="2.197266"/>
<image xlink:href="tile42_10.png" preserveAspectRatio="none" x="14091.064453" y="-3779.296875" width="2.197266" height="2.197266"/>
<image xlink:href="tile42_9.png" preserveAspectRatio="none" x="14091.064453" y="-3781.494141" width="2.197266" height="2.197266"/>
<image xlink:href="tile42_5.png" preserveAspectRatio="none" x="14091.064453" y="-3790.283203" width="2.197266" height="2.197266"/>
<image xlink:href="tile42_4.png" preserveAspectRatio="none" x="14091.064453" y="-3792.480469" width="2.197266" height="2.197266"/>
<image xlink:href="tile42_3.png" preserveAspectRatio="none" x="14091.064453" y="-3794.677734" width="2.197266" height="2.197266"/>
<image xlink:href="tile42_2.png" preserveAspectRatio="none" x="14091.064453" y="-3796.875" width="2.197266" height="2.197266"/>
<image xlink:href="tile42_1.png" preserveAspectRatio="none" x="14091.064453" y="-3799.072266" width="2.197266" height="2.197266"/>
<image xlink:href="tile42_0.png" preserveAspectRatio="none" x="14091.064453" y="-3801.269531" width="2.197266" height="2.197266"/>
<image xlink:href="tile43_10.png" preserveAspectRatio="none" x="14093.261719" y="-3779.296875" width="2.197266" height="2.197266"/>
<image xlink:href="tile43_9.png" preserveAspectRatio="none" x="14093.261719" y="-3781.494141" width="2.197266" height="2.197266"/>
<image xlink:href="tile44_10.png" preserveAspectRatio="none" x="14095.458984" y="-3779.296875" width="2.197266" height="2.197266"/>
<image xlink:href="tile44_9.png" preserveAspectRatio="none" x="14095.458984" y="-3781.494141" width="2.197266" height="2.197266"/>
<image xlink:href="tile44_8.png" preserveAspectRatio="none" x="14095.458984" y="-3783.691406" width="2.197266" height="2.197266"/>
</g>
</svg>
