<?xml version="1.0" encoding="UTF-8"?>
<svg  xmlns="http://www.w3.org/2000/svg" xmlns:xlink="http://www.w3.org/1999/xlink" xmlns:go="http://purl.org/svgmap/profile" viewBox="14301.2188 -4448.825 98.7811999999991 48.825000000000074" go:dataArea="14301.2188 -4448.825 98.7811999999991 48.825000000000074" >
<metadata>
 <rdf:RDF xmlns:rdf="http://www.w3.org/1999/02/22-rdf-syntax-ns#" xmlns:crs="http://opengis.org/xmldtds/transformations.dtd" xmlns:svg="http://www.w3.org/svg" >
  <rdf:Description>
   <crs:CoordinateReferenceSystem rdf:resource="http://purl.org/crs/84" svg:transform="matrix(100.0,0.0,0.0,-100.0,0.0,0.0)" />
  </rdf:Description>
 </rdf:RDF>
</metadata>
<globalCoordinateSystem srsName="http://purl.org/crs/84" transform="matrix(100.0,0.0,0.0,-100.0,0.0,0.0)" />
<g >
<image xlink:href="tile48_45.png" preserveAspectRatio="none" x="14353.637695" y="-4400.024414" width="1.098633" height="1.098633"/>
<image xlink:href="tile48_44.png" preserveAspectRatio="none" x="14353.637695" y="-4401.123047" width="1.098633" height="1.098633"/>
<image xlink:href="tile48_43.png" preserveAspectRatio="none" x="14353.637695" y="-4402.22168" width="1.098633" height="1.098633"/>
<image xlink:href="tile48_42.png" preserveAspectRatio="none" x="14353.637695" y="-4403.320312" width="1.098633" height="1.098633"/>
<image xlink:href="tile48_41.png" preserveAspectRatio="none" x="14353.637695" y="-4404.418945" width="1.098633" height="1.098633"/>
<image xlink:href="tile48_40.png" preserveAspectRatio="none" x="14353.637695" y="-4405.517578" width="1.098633" height="1.098633"/>
<image xlink:href="tile48_39.png" preserveAspectRatio="none" x="14353.637695" y="-4406.616211" width="1.098633" height="1.098633"/>
<image xlink:href="tile48_38.png" preserveAspectRatio="none" x="14353.637695" y="-4407.714844" width="1.098633" height="1.098633"/>
<image xlink:href="tile48_36.png" preserveAspectRatio="none" x="14353.637695" y="-4409.912109" width="1.098633" height="1.098633"/>
<image xlink:href="tile48_35.png" preserveAspectRatio="none" x="14353.637695" y="-4411.010742" width="1.098633" height="1.098633"/>
<image xlink:href="tile48_34.png" preserveAspectRatio="none" x="14353.637695" y="-4412.109375" width="1.098633" height="1.098633"/>
<image xlink:href="tile48_33.png" preserveAspectRatio="none" x="14353.637695" y="-4413.208008" width="1.098633" height="1.098633"/>
<image xlink:href="tile48_32.png" preserveAspectRatio="none" x="14353.637695" y="-4414.306641" width="1.098633" height="1.098633"/>
<image xlink:href="tile48_31.png" preserveAspectRatio="none" x="14353.637695" y="-4415.405273" width="1.098633" height="1.098633"/>
<image xlink:href="tile48_30.png" preserveAspectRatio="none" x="14353.637695" y="-4416.503906" width="1.098633" height="1.098633"/>
<image xlink:href="tile49_40.png" preserveAspectRatio="none" x="14354.736328" y="-4405.517578" width="1.098633" height="1.098633"/>
<image xlink:href="tile49_35.png" preserveAspectRatio="none" x="14354.736328" y="-4411.010742" width="1.098633" height="1.098633"/>
<image xlink:href="tile49_34.png" preserveAspectRatio="none" x="14354.736328" y="-4412.109375" width="1.098633" height="1.098633"/>
<image xlink:href="tile49_33.png" preserveAspectRatio="none" x="14354.736328" y="-4413.208008" width="1.098633" height="1.098633"/>
<image xlink:href="tile49_32.png" preserveAspectRatio="none" x="14354.736328" y="-4414.306641" width="1.098633" height="1.098633"/>
<image xlink:href="tile49_31.png" preserveAspectRatio="none" x="14354.736328" y="-4415.405273" width="1.098633" height="1.098633"/>
<image xlink:href="tile49_30.png" preserveAspectRatio="none" x="14354.736328" y="-4416.503906" width="1.098633" height="1.098633"/>
<image xlink:href="tile50_34.png" preserveAspectRatio="none" x="14355.834961" y="-4412.109375" width="1.098633" height="1.098633"/>
<image xlink:href="tile50_33.png" preserveAspectRatio="none" x="14355.834961" y="-4413.208008" width="1.098633" height="1.098633"/>
<image xlink:href="tile50_32.png" preserveAspectRatio="none" x="14355.834961" y="-4414.306641" width="1.098633" height="1.098633"/>
<image xlink:href="tile50_31.png" preserveAspectRatio="none" x="14355.834961" y="-4415.405273" width="1.098633" height="1.098633"/>
<image xlink:href="tile50_30.png" preserveAspectRatio="none" x="14355.834961" y="-4416.503906" width="1.098633" height="1.098633"/>
<image xlink:href="tile51_32.png" preserveAspectRatio="none" x="14356.933594" y="-4414.306641" width="1.098633" height="1.098633"/>
<image xlink:href="tile51_31.png" preserveAspectRatio="none" x="14356.933594" y="-4415.405273" width="1.098633" height="1.098633"/>
<image xlink:href="tile51_30.png" preserveAspectRatio="none" x="14356.933594" y="-4416.503906" width="1.098633" height="1.098633"/>
<image xlink:href="tile52_31.png" preserveAspectRatio="none" x="14358.032227" y="-4415.405273" width="1.098633" height="1.098633"/>
<image xlink:href="tile52_30.png" preserveAspectRatio="none" x="14358.032227" y="-4416.503906" width="1.098633" height="1.098633"/>
<image xlink:href="tile55_42.png" preserveAspectRatio="none" x="14361.328125" y="-4403.320312" width="1.098633" height="1.098633"/>
<image xlink:href="tile56_42.png" preserveAspectRatio="none" x="14362.426758" y="-4403.320312" width="1.098633" height="1.098633"/>
<image xlink:href="tile56_41.png" preserveAspectRatio="none" x="14362.426758" y="-4404.418945" width="1.098633" height="1.098633"/>
<image xlink:href="tile57_41.png" preserveAspectRatio="none" x="14363.525391" y="-4404.418945" width="1.098633" height="1.098633"/>
<image xlink:href="tile57_40.png" preserveAspectRatio="none" x="14363.525391" y="-4405.517578" width="1.098633" height="1.098633"/>
<image xlink:href="tile58_40.png" preserveAspectRatio="none" x="14364.624023" y="-4405.517578" width="1.098633" height="1.098633"/>
<image xlink:href="tile58_39.png" preserveAspectRatio="none" x="14364.624023" y="-4406.616211" width="1.098633" height="1.098633"/>
<image xlink:href="tile58_38.png" preserveAspectRatio="none" x="14364.624023" y="-4407.714844" width="1.098633" height="1.098633"/>
<image xlink:href="tile58_37.png" preserveAspectRatio="none" x="14364.624023" y="-4408.813477" width="1.098633" height="1.098633"/>
<image xlink:href="tile58_36.png" preserveAspectRatio="none" x="14364.624023" y="-4409.912109" width="1.098633" height="1.098633"/>
<image xlink:href="tile58_35.png" preserveAspectRatio="none" x="14364.624023" y="-4411.010742" width="1.098633" height="1.098633"/>
<image xlink:href="tile58_34.png" preserveAspectRatio="none" x="14364.624023" y="-4412.109375" width="1.098633" height="1.098633"/>
<image xlink:href="tile58_33.png" preserveAspectRatio="none" x="14364.624023" y="-4413.208008" width="1.098633" height="1.098633"/>
<image xlink:href="tile59_37.png" preserveAspectRatio="none" x="14365.722656" y="-4408.813477" width="1.098633" height="1.098633"/>
<image xlink:href="tile59_36.png" preserveAspectRatio="none" x="14365.722656" y="-4409.912109" width="1.098633" height="1.098633"/>
<image xlink:href="tile59_35.png" preserveAspectRatio="none" x="14365.722656" y="-4411.010742" width="1.098633" height="1.098633"/>
<image xlink:href="tile59_34.png" preserveAspectRatio="none" x="14365.722656" y="-4412.109375" width="1.098633" height="1.098633"/>
<image xlink:href="tile59_33.png" preserveAspectRatio="none" x="14365.722656" y="-4413.208008" width="1.098633" height="1.098633"/>
<image xlink:href="tile59_32.png" preserveAspectRatio="none" x="14365.722656" y="-4414.306641" width="1.098633" height="1.098633"/>
<image xlink:href="tile59_31.png" preserveAspectRatio="none" x="14365.722656" y="-4415.405273" width="1.098633" height="1.098633"/>
<image xlink:href="tile60_33.png" preserveAspectRatio="none" x="14366.821289" y="-4413.208008" width="1.098633" height="1.098633"/>
<image xlink:href="tile60_32.png" preserveAspectRatio="none" x="14366.821289" y="-4414.306641" width="1.098633" height="1.098633"/>
<image xlink:href="tile60_31.png" preserveAspectRatio="none" x="14366.821289" y="-4415.405273" width="1.098633" height="1.098633"/>
<image xlink:href="tile61_31.png" preserveAspectRatio="none" x="14367.919922" y="-4415.405273" width="1.098633" height="1.098633"/>
<image xlink:href="tile62_32.png" preserveAspectRatio="none" x="14369.018555" y="-4414.306641" width="1.098633" height="1.098633"/>
<image xlink:href="tile62_31.png" preserveAspectRatio="none" x="14369.018555" y="-4415.405273" width="1.098633" height="1.098633"/>
<image xlink:href="tile62_30.png" preserveAspectRatio="none" x="14369.018555" y="-4416.503906" width="1.098633" height="1.098633"/>
<image xlink:href="tile63_32.png" preserveAspectRatio="none" x="14370.117188" y="-4414.306641" width="1.098633" height="1.098633"/>
<image xlink:href="tile63_31.png" preserveAspectRatio="none" x="14370.117188" y="-4415.405273" width="1.098633" height="1.098633"/>
<image xlink:href="tile63_30.png" preserveAspectRatio="none" x="14370.117188" y="-4416.503906" width="1.098633" height="1.098633"/>
</g>
</svg>
