<?xml version="1.0" encoding="UTF-8"?>
<svg  xmlns="http://www.w3.org/2000/svg" xmlns:xlink="http://www.w3.org/1999/xlink" xmlns:go="http://purl.org/svgmap/profile" viewBox="13600.0 -3600.0 100.0 66.6666677000002" go:dataArea="13600.0 -3600.0 100.0 66.6666677000002" >
<metadata>
 <rdf:RDF xmlns:rdf="http://www.w3.org/1999/02/22-rdf-syntax-ns#" xmlns:crs="http://opengis.org/xmldtds/transformations.dtd" xmlns:svg="http://www.w3.org/svg" >
  <rdf:Description>
   <crs:CoordinateReferenceSystem rdf:resource="http://purl.org/crs/84" svg:transform="matrix(100.0,0.0,0.0,-100.0,0.0,0.0)" />
  </rdf:Description>
 </rdf:RDF>
</metadata>
<globalCoordinateSystem srsName="http://purl.org/crs/84" transform="matrix(100.0,0.0,0.0,-100.0,0.0,0.0)" />
<g >
<image xlink:href="tile81_18.png" preserveAspectRatio="none" x="13688.964844" y="-3580.444336" width="1.098633" height="1.098633"/>
<image xlink:href="tile81_17.png" preserveAspectRatio="none" x="13688.964844" y="-3581.542969" width="1.098633" height="1.098633"/>
<image xlink:href="tile81_16.png" preserveAspectRatio="none" x="13688.964844" y="-3582.641602" width="1.098633" height="1.098633"/>
<image xlink:href="tile82_20.png" preserveAspectRatio="none" x="13690.063477" y="-3578.24707" width="1.098633" height="1.098633"/>
<image xlink:href="tile82_19.png" preserveAspectRatio="none" x="13690.063477" y="-3579.345703" width="1.098633" height="1.098633"/>
<image xlink:href="tile82_18.png" preserveAspectRatio="none" x="13690.063477" y="-3580.444336" width="1.098633" height="1.098633"/>
<image xlink:href="tile82_17.png" preserveAspectRatio="none" x="13690.063477" y="-3581.542969" width="1.098633" height="1.098633"/>
<image xlink:href="tile83_20.png" preserveAspectRatio="none" x="13691.162109" y="-3578.24707" width="1.098633" height="1.098633"/>
<image xlink:href="tile83_19.png" preserveAspectRatio="none" x="13691.162109" y="-3579.345703" width="1.098633" height="1.098633"/>
<image xlink:href="tile84_25.png" preserveAspectRatio="none" x="13692.260742" y="-3572.753906" width="1.098633" height="1.098633"/>
<image xlink:href="tile84_21.png" preserveAspectRatio="none" x="13692.260742" y="-3577.148438" width="1.098633" height="1.098633"/>
<image xlink:href="tile84_20.png" preserveAspectRatio="none" x="13692.260742" y="-3578.24707" width="1.098633" height="1.098633"/>
<image xlink:href="tile85_26.png" preserveAspectRatio="none" x="13693.359375" y="-3571.655273" width="1.098633" height="1.098633"/>
<image xlink:href="tile85_25.png" preserveAspectRatio="none" x="13693.359375" y="-3572.753906" width="1.098633" height="1.098633"/>
<image xlink:href="tile85_22.png" preserveAspectRatio="none" x="13693.359375" y="-3576.049805" width="1.098633" height="1.098633"/>
<image xlink:href="tile85_21.png" preserveAspectRatio="none" x="13693.359375" y="-3577.148438" width="1.098633" height="1.098633"/>
<image xlink:href="tile86_28.png" preserveAspectRatio="none" x="13694.458008" y="-3569.458008" width="1.098633" height="1.098633"/>
<image xlink:href="tile86_27.png" preserveAspectRatio="none" x="13694.458008" y="-3570.556641" width="1.098633" height="1.098633"/>
<image xlink:href="tile86_26.png" preserveAspectRatio="none" x="13694.458008" y="-3571.655273" width="1.098633" height="1.098633"/>
<image xlink:href="tile86_25.png" preserveAspectRatio="none" x="13694.458008" y="-3572.753906" width="1.098633" height="1.098633"/>
<image xlink:href="tile86_24.png" preserveAspectRatio="none" x="13694.458008" y="-3573.852539" width="1.098633" height="1.098633"/>
<image xlink:href="tile86_23.png" preserveAspectRatio="none" x="13694.458008" y="-3574.951172" width="1.098633" height="1.098633"/>
<image xlink:href="tile86_22.png" preserveAspectRatio="none" x="13694.458008" y="-3576.049805" width="1.098633" height="1.098633"/>
<image xlink:href="tile87_28.png" preserveAspectRatio="none" x="13695.556641" y="-3569.458008" width="1.098633" height="1.098633"/>
<image xlink:href="tile87_27.png" preserveAspectRatio="none" x="13695.556641" y="-3570.556641" width="1.098633" height="1.098633"/>
<image xlink:href="tile87_24.png" preserveAspectRatio="none" x="13695.556641" y="-3573.852539" width="1.098633" height="1.098633"/>
<image xlink:href="tile88_28.png" preserveAspectRatio="none" x="13696.655273" y="-3569.458008" width="1.098633" height="1.098633"/>
</g>
</svg>
