<?xml version="1.0" encoding="UTF-8"?>
<svg  xmlns="http://www.w3.org/2000/svg" xmlns:xlink="http://www.w3.org/1999/xlink" xmlns:go="http://purl.org/svgmap/profile" viewBox="13600.0 -3600.0 100.0 66.6666677000002" go:dataArea="13600.0 -3600.0 100.0 66.6666677000002" >
<metadata>
 <rdf:RDF xmlns:rdf="http://www.w3.org/1999/02/22-rdf-syntax-ns#" xmlns:crs="http://opengis.org/xmldtds/transformations.dtd" xmlns:svg="http://www.w3.org/svg" >
  <rdf:Description>
   <crs:CoordinateReferenceSystem rdf:resource="http://purl.org/crs/84" svg:transform="matrix(100.0,0.0,0.0,-100.0,0.0,0.0)" />
  </rdf:Description>
 </rdf:RDF>
</metadata>
<globalCoordinateSystem srsName="http://purl.org/crs/84" transform="matrix(100.0,0.0,0.0,-100.0,0.0,0.0)" />
<g >
<image xlink:href="tile16_14.png" preserveAspectRatio="none" x="13617.553711" y="-3584.838867" width="1.098633" height="1.098633"/>
<image xlink:href="tile16_13.png" preserveAspectRatio="none" x="13617.553711" y="-3585.9375" width="1.098633" height="1.098633"/>
<image xlink:href="tile17_20.png" preserveAspectRatio="none" x="13618.652344" y="-3578.24707" width="1.098633" height="1.098633"/>
<image xlink:href="tile17_19.png" preserveAspectRatio="none" x="13618.652344" y="-3579.345703" width="1.098633" height="1.098633"/>
<image xlink:href="tile17_18.png" preserveAspectRatio="none" x="13618.652344" y="-3580.444336" width="1.098633" height="1.098633"/>
<image xlink:href="tile17_17.png" preserveAspectRatio="none" x="13618.652344" y="-3581.542969" width="1.098633" height="1.098633"/>
<image xlink:href="tile17_16.png" preserveAspectRatio="none" x="13618.652344" y="-3582.641602" width="1.098633" height="1.098633"/>
<image xlink:href="tile17_15.png" preserveAspectRatio="none" x="13618.652344" y="-3583.740234" width="1.098633" height="1.098633"/>
<image xlink:href="tile17_14.png" preserveAspectRatio="none" x="13618.652344" y="-3584.838867" width="1.098633" height="1.098633"/>
<image xlink:href="tile17_13.png" preserveAspectRatio="none" x="13618.652344" y="-3585.9375" width="1.098633" height="1.098633"/>
<image xlink:href="tile18_21.png" preserveAspectRatio="none" x="13619.750977" y="-3577.148438" width="1.098633" height="1.098633"/>
<image xlink:href="tile18_20.png" preserveAspectRatio="none" x="13619.750977" y="-3578.24707" width="1.098633" height="1.098633"/>
<image xlink:href="tile18_19.png" preserveAspectRatio="none" x="13619.750977" y="-3579.345703" width="1.098633" height="1.098633"/>
<image xlink:href="tile18_18.png" preserveAspectRatio="none" x="13619.750977" y="-3580.444336" width="1.098633" height="1.098633"/>
<image xlink:href="tile18_17.png" preserveAspectRatio="none" x="13619.750977" y="-3581.542969" width="1.098633" height="1.098633"/>
<image xlink:href="tile18_16.png" preserveAspectRatio="none" x="13619.750977" y="-3582.641602" width="1.098633" height="1.098633"/>
<image xlink:href="tile18_15.png" preserveAspectRatio="none" x="13619.750977" y="-3583.740234" width="1.098633" height="1.098633"/>
<image xlink:href="tile18_14.png" preserveAspectRatio="none" x="13619.750977" y="-3584.838867" width="1.098633" height="1.098633"/>
<image xlink:href="tile19_19.png" preserveAspectRatio="none" x="13620.849609" y="-3579.345703" width="1.098633" height="1.098633"/>
<image xlink:href="tile19_18.png" preserveAspectRatio="none" x="13620.849609" y="-3580.444336" width="1.098633" height="1.098633"/>
</g>
</svg>
