<?xml version="1.0" encoding="UTF-8"?>
<svg  xmlns="http://www.w3.org/2000/svg" xmlns:xlink="http://www.w3.org/1999/xlink" xmlns:go="http://purl.org/svgmap/profile" viewBox="13600.0 -3600.0 100.0 66.6666677000002" go:dataArea="13600.0 -3600.0 100.0 66.6666677000002" >
<metadata>
 <rdf:RDF xmlns:rdf="http://www.w3.org/1999/02/22-rdf-syntax-ns#" xmlns:crs="http://opengis.org/xmldtds/transformations.dtd" xmlns:svg="http://www.w3.org/svg" >
  <rdf:Description>
   <crs:CoordinateReferenceSystem rdf:resource="http://purl.org/crs/84" svg:transform="matrix(100.0,0.0,0.0,-100.0,0.0,0.0)" />
  </rdf:Description>
 </rdf:RDF>
</metadata>
<globalCoordinateSystem srsName="http://purl.org/crs/84" transform="matrix(100.0,0.0,0.0,-100.0,0.0,0.0)" />
<g >
<image xlink:href="tile80_44.png" preserveAspectRatio="none" x="13687.866211" y="-3551.879883" width="1.098633" height="1.098633"/>
<image xlink:href="tile80_43.png" preserveAspectRatio="none" x="13687.866211" y="-3552.978516" width="1.098633" height="1.098633"/>
<image xlink:href="tile81_44.png" preserveAspectRatio="none" x="13688.964844" y="-3551.879883" width="1.098633" height="1.098633"/>
<image xlink:href="tile81_43.png" preserveAspectRatio="none" x="13688.964844" y="-3552.978516" width="1.098633" height="1.098633"/>
<image xlink:href="tile81_42.png" preserveAspectRatio="none" x="13688.964844" y="-3554.077148" width="1.098633" height="1.098633"/>
<image xlink:href="tile81_41.png" preserveAspectRatio="none" x="13688.964844" y="-3555.175781" width="1.098633" height="1.098633"/>
<image xlink:href="tile82_44.png" preserveAspectRatio="none" x="13690.063477" y="-3551.879883" width="1.098633" height="1.098633"/>
<image xlink:href="tile82_43.png" preserveAspectRatio="none" x="13690.063477" y="-3552.978516" width="1.098633" height="1.098633"/>
<image xlink:href="tile82_42.png" preserveAspectRatio="none" x="13690.063477" y="-3554.077148" width="1.098633" height="1.098633"/>
<image xlink:href="tile82_41.png" preserveAspectRatio="none" x="13690.063477" y="-3555.175781" width="1.098633" height="1.098633"/>
<image xlink:href="tile82_40.png" preserveAspectRatio="none" x="13690.063477" y="-3556.274414" width="1.098633" height="1.098633"/>
<image xlink:href="tile82_39.png" preserveAspectRatio="none" x="13690.063477" y="-3557.373047" width="1.098633" height="1.098633"/>
<image xlink:href="tile83_40.png" preserveAspectRatio="none" x="13691.162109" y="-3556.274414" width="1.098633" height="1.098633"/>
<image xlink:href="tile83_39.png" preserveAspectRatio="none" x="13691.162109" y="-3557.373047" width="1.098633" height="1.098633"/>
<image xlink:href="tile84_39.png" preserveAspectRatio="none" x="13692.260742" y="-3557.373047" width="1.098633" height="1.098633"/>
<image xlink:href="tile84_38.png" preserveAspectRatio="none" x="13692.260742" y="-3558.47168" width="1.098633" height="1.098633"/>
<image xlink:href="tile85_39.png" preserveAspectRatio="none" x="13693.359375" y="-3557.373047" width="1.098633" height="1.098633"/>
<image xlink:href="tile85_38.png" preserveAspectRatio="none" x="13693.359375" y="-3558.47168" width="1.098633" height="1.098633"/>
<image xlink:href="tile85_37.png" preserveAspectRatio="none" x="13693.359375" y="-3559.570312" width="1.098633" height="1.098633"/>
<image xlink:href="tile85_36.png" preserveAspectRatio="none" x="13693.359375" y="-3560.668945" width="1.098633" height="1.098633"/>
<image xlink:href="tile85_35.png" preserveAspectRatio="none" x="13693.359375" y="-3561.767578" width="1.098633" height="1.098633"/>
<image xlink:href="tile85_34.png" preserveAspectRatio="none" x="13693.359375" y="-3562.866211" width="1.098633" height="1.098633"/>
<image xlink:href="tile85_33.png" preserveAspectRatio="none" x="13693.359375" y="-3563.964844" width="1.098633" height="1.098633"/>
<image xlink:href="tile85_32.png" preserveAspectRatio="none" x="13693.359375" y="-3565.063477" width="1.098633" height="1.098633"/>
<image xlink:href="tile86_39.png" preserveAspectRatio="none" x="13694.458008" y="-3557.373047" width="1.098633" height="1.098633"/>
<image xlink:href="tile86_38.png" preserveAspectRatio="none" x="13694.458008" y="-3558.47168" width="1.098633" height="1.098633"/>
<image xlink:href="tile86_37.png" preserveAspectRatio="none" x="13694.458008" y="-3559.570312" width="1.098633" height="1.098633"/>
<image xlink:href="tile86_36.png" preserveAspectRatio="none" x="13694.458008" y="-3560.668945" width="1.098633" height="1.098633"/>
<image xlink:href="tile86_35.png" preserveAspectRatio="none" x="13694.458008" y="-3561.767578" width="1.098633" height="1.098633"/>
<image xlink:href="tile86_34.png" preserveAspectRatio="none" x="13694.458008" y="-3562.866211" width="1.098633" height="1.098633"/>
<image xlink:href="tile86_33.png" preserveAspectRatio="none" x="13694.458008" y="-3563.964844" width="1.098633" height="1.098633"/>
<image xlink:href="tile86_32.png" preserveAspectRatio="none" x="13694.458008" y="-3565.063477" width="1.098633" height="1.098633"/>
<image xlink:href="tile86_31.png" preserveAspectRatio="none" x="13694.458008" y="-3566.162109" width="1.098633" height="1.098633"/>
<image xlink:href="tile86_30.png" preserveAspectRatio="none" x="13694.458008" y="-3567.260742" width="1.098633" height="1.098633"/>
<image xlink:href="tile87_43.png" preserveAspectRatio="none" x="13695.556641" y="-3552.978516" width="1.098633" height="1.098633"/>
<image xlink:href="tile87_37.png" preserveAspectRatio="none" x="13695.556641" y="-3559.570312" width="1.098633" height="1.098633"/>
<image xlink:href="tile87_36.png" preserveAspectRatio="none" x="13695.556641" y="-3560.668945" width="1.098633" height="1.098633"/>
<image xlink:href="tile87_31.png" preserveAspectRatio="none" x="13695.556641" y="-3566.162109" width="1.098633" height="1.098633"/>
<image xlink:href="tile87_30.png" preserveAspectRatio="none" x="13695.556641" y="-3567.260742" width="1.098633" height="1.098633"/>
<image xlink:href="tile87_29.png" preserveAspectRatio="none" x="13695.556641" y="-3568.359375" width="1.098633" height="1.098633"/>
<image xlink:href="tile88_44.png" preserveAspectRatio="none" x="13696.655273" y="-3551.879883" width="1.098633" height="1.098633"/>
<image xlink:href="tile88_43.png" preserveAspectRatio="none" x="13696.655273" y="-3552.978516" width="1.098633" height="1.098633"/>
<image xlink:href="tile88_29.png" preserveAspectRatio="none" x="13696.655273" y="-3568.359375" width="1.098633" height="1.098633"/>
<image xlink:href="tile89_44.png" preserveAspectRatio="none" x="13697.753906" y="-3551.879883" width="1.098633" height="1.098633"/>
<image xlink:href="tile89_43.png" preserveAspectRatio="none" x="13697.753906" y="-3552.978516" width="1.098633" height="1.098633"/>
<image xlink:href="tile89_42.png" preserveAspectRatio="none" x="13697.753906" y="-3554.077148" width="1.098633" height="1.098633"/>
<image xlink:href="tile90_44.png" preserveAspectRatio="none" x="13698.852539" y="-3551.879883" width="1.098633" height="1.098633"/>
<image xlink:href="tile90_43.png" preserveAspectRatio="none" x="13698.852539" y="-3552.978516" width="1.098633" height="1.098633"/>
<image xlink:href="tile90_42.png" preserveAspectRatio="none" x="13698.852539" y="-3554.077148" width="1.098633" height="1.098633"/>
<image xlink:href="tile91_42.png" preserveAspectRatio="none" x="13699.951172" y="-3554.077148" width="1.098633" height="1.098633"/>
<image xlink:href="tile91_41.png" preserveAspectRatio="none" x="13699.951172" y="-3555.175781" width="1.098633" height="1.098633"/>
</g>
</svg>
