<?xml version="1.0" encoding="UTF-8"?>
<svg  xmlns="http://www.w3.org/2000/svg" xmlns:xlink="http://www.w3.org/1999/xlink" xmlns:go="http://purl.org/svgmap/profile" viewBox="13201.0625 -3399.55 96.48750000000064 65.69583300000019" go:dataArea="13201.0625 -3399.55 96.48750000000064 65.69583300000019" >
<metadata>
 <rdf:RDF xmlns:rdf="http://www.w3.org/1999/02/22-rdf-syntax-ns#" xmlns:crs="http://opengis.org/xmldtds/transformations.dtd" xmlns:svg="http://www.w3.org/svg" >
  <rdf:Description>
   <crs:CoordinateReferenceSystem rdf:resource="http://purl.org/crs/84" svg:transform="matrix(100.0,0.0,0.0,-100.0,0.0,0.0)" />
  </rdf:Description>
 </rdf:RDF>
</metadata>
<globalCoordinateSystem srsName="http://purl.org/crs/84" transform="matrix(100.0,0.0,0.0,-100.0,0.0,0.0)" />
<g >
<image xlink:href="tile35_48.png" preserveAspectRatio="none" x="13238.525391" y="-3347.53418" width="1.098633" height="1.098633"/>
<image xlink:href="tile35_47.png" preserveAspectRatio="none" x="13238.525391" y="-3348.632812" width="1.098633" height="1.098633"/>
<image xlink:href="tile35_46.png" preserveAspectRatio="none" x="13238.525391" y="-3349.731445" width="1.098633" height="1.098633"/>
<image xlink:href="tile36_48.png" preserveAspectRatio="none" x="13239.624023" y="-3347.53418" width="1.098633" height="1.098633"/>
<image xlink:href="tile36_47.png" preserveAspectRatio="none" x="13239.624023" y="-3348.632812" width="1.098633" height="1.098633"/>
<image xlink:href="tile36_46.png" preserveAspectRatio="none" x="13239.624023" y="-3349.731445" width="1.098633" height="1.098633"/>
<image xlink:href="tile37_49.png" preserveAspectRatio="none" x="13240.722656" y="-3346.435547" width="1.098633" height="1.098633"/>
<image xlink:href="tile37_47.png" preserveAspectRatio="none" x="13240.722656" y="-3348.632812" width="1.098633" height="1.098633"/>
<image xlink:href="tile37_46.png" preserveAspectRatio="none" x="13240.722656" y="-3349.731445" width="1.098633" height="1.098633"/>
<image xlink:href="tile38_50.png" preserveAspectRatio="none" x="13241.821289" y="-3345.336914" width="1.098633" height="1.098633"/>
<image xlink:href="tile38_49.png" preserveAspectRatio="none" x="13241.821289" y="-3346.435547" width="1.098633" height="1.098633"/>
<image xlink:href="tile38_48.png" preserveAspectRatio="none" x="13241.821289" y="-3347.53418" width="1.098633" height="1.098633"/>
<image xlink:href="tile38_46.png" preserveAspectRatio="none" x="13241.821289" y="-3349.731445" width="1.098633" height="1.098633"/>
<image xlink:href="tile38_45.png" preserveAspectRatio="none" x="13241.821289" y="-3350.830078" width="1.098633" height="1.098633"/>
<image xlink:href="tile39_50.png" preserveAspectRatio="none" x="13242.919922" y="-3345.336914" width="1.098633" height="1.098633"/>
<image xlink:href="tile39_49.png" preserveAspectRatio="none" x="13242.919922" y="-3346.435547" width="1.098633" height="1.098633"/>
<image xlink:href="tile39_45.png" preserveAspectRatio="none" x="13242.919922" y="-3350.830078" width="1.098633" height="1.098633"/>
<image xlink:href="tile40_49.png" preserveAspectRatio="none" x="13244.018555" y="-3346.435547" width="1.098633" height="1.098633"/>
<image xlink:href="tile40_48.png" preserveAspectRatio="none" x="13244.018555" y="-3347.53418" width="1.098633" height="1.098633"/>
<image xlink:href="tile41_49.png" preserveAspectRatio="none" x="13245.117188" y="-3346.435547" width="1.098633" height="1.098633"/>
<image xlink:href="tile41_48.png" preserveAspectRatio="none" x="13245.117188" y="-3347.53418" width="1.098633" height="1.098633"/>
<image xlink:href="tile42_48.png" preserveAspectRatio="none" x="13246.21582" y="-3347.53418" width="1.098633" height="1.098633"/>
<image xlink:href="tile43_56.png" preserveAspectRatio="none" x="13247.314453" y="-3338.745117" width="1.098633" height="1.098633"/>
<image xlink:href="tile44_56.png" preserveAspectRatio="none" x="13248.413086" y="-3338.745117" width="1.098633" height="1.098633"/>
<image xlink:href="tile45_57.png" preserveAspectRatio="none" x="13249.511719" y="-3337.646484" width="1.098633" height="1.098633"/>
<image xlink:href="tile45_56.png" preserveAspectRatio="none" x="13249.511719" y="-3338.745117" width="1.098633" height="1.098633"/>
<image xlink:href="tile45_55.png" preserveAspectRatio="none" x="13249.511719" y="-3339.84375" width="1.098633" height="1.098633"/>
<image xlink:href="tile45_54.png" preserveAspectRatio="none" x="13249.511719" y="-3340.942383" width="1.098633" height="1.098633"/>
<image xlink:href="tile46_58.png" preserveAspectRatio="none" x="13250.610352" y="-3336.547852" width="1.098633" height="1.098633"/>
<image xlink:href="tile46_57.png" preserveAspectRatio="none" x="13250.610352" y="-3337.646484" width="1.098633" height="1.098633"/>
<image xlink:href="tile46_55.png" preserveAspectRatio="none" x="13250.610352" y="-3339.84375" width="1.098633" height="1.098633"/>
<image xlink:href="tile46_54.png" preserveAspectRatio="none" x="13250.610352" y="-3340.942383" width="1.098633" height="1.098633"/>
<image xlink:href="tile46_53.png" preserveAspectRatio="none" x="13250.610352" y="-3342.041016" width="1.098633" height="1.098633"/>
<image xlink:href="tile46_46.png" preserveAspectRatio="none" x="13250.610352" y="-3349.731445" width="1.098633" height="1.098633"/>
<image xlink:href="tile46_45.png" preserveAspectRatio="none" x="13250.610352" y="-3350.830078" width="1.098633" height="1.098633"/>
<image xlink:href="tile47_59.png" preserveAspectRatio="none" x="13251.708984" y="-3335.449219" width="1.098633" height="1.098633"/>
<image xlink:href="tile47_58.png" preserveAspectRatio="none" x="13251.708984" y="-3336.547852" width="1.098633" height="1.098633"/>
<image xlink:href="tile47_46.png" preserveAspectRatio="none" x="13251.708984" y="-3349.731445" width="1.098633" height="1.098633"/>
<image xlink:href="tile47_45.png" preserveAspectRatio="none" x="13251.708984" y="-3350.830078" width="1.098633" height="1.098633"/>
</g>
</svg>
