<?xml version="1.0" encoding="UTF-8"?>
<svg  xmlns="http://www.w3.org/2000/svg" xmlns:xlink="http://www.w3.org/1999/xlink" xmlns:go="http://purl.org/svgmap/profile" viewBox="13880.0127562 -3600.0 19.987243799999987 24.823458200000204" go:dataArea="13880.0127562 -3600.0 19.987243799999987 24.823458200000204" >
<metadata>
 <rdf:RDF xmlns:rdf="http://www.w3.org/1999/02/22-rdf-syntax-ns#" xmlns:crs="http://opengis.org/xmldtds/transformations.dtd" xmlns:svg="http://www.w3.org/svg" >
  <rdf:Description>
   <crs:CoordinateReferenceSystem rdf:resource="http://purl.org/crs/84" svg:transform="matrix(100.0,0.0,0.0,-100.0,0.0,0.0)" />
  </rdf:Description>
 </rdf:RDF>
</metadata>
<globalCoordinateSystem srsName="http://purl.org/crs/84" transform="matrix(100.0,0.0,0.0,-100.0,0.0,0.0)" />
<g >
<image xlink:href="tile0_6.png" preserveAspectRatio="none" x="13879.02832" y="-3593.62793" width="1.098633" height="1.098633"/>
<image xlink:href="tile1_6.png" preserveAspectRatio="none" x="13880.126953" y="-3593.62793" width="1.098633" height="1.098633"/>
<image xlink:href="tile1_5.png" preserveAspectRatio="none" x="13880.126953" y="-3594.726562" width="1.098633" height="1.098633"/>
<image xlink:href="tile2_6.png" preserveAspectRatio="none" x="13881.225586" y="-3593.62793" width="1.098633" height="1.098633"/>
<image xlink:href="tile2_5.png" preserveAspectRatio="none" x="13881.225586" y="-3594.726562" width="1.098633" height="1.098633"/>
<image xlink:href="tile2_0.png" preserveAspectRatio="none" x="13881.225586" y="-3600.219727" width="1.098633" height="1.098633"/>
<image xlink:href="tile3_6.png" preserveAspectRatio="none" x="13882.324219" y="-3593.62793" width="1.098633" height="1.098633"/>
<image xlink:href="tile3_5.png" preserveAspectRatio="none" x="13882.324219" y="-3594.726562" width="1.098633" height="1.098633"/>
<image xlink:href="tile3_1.png" preserveAspectRatio="none" x="13882.324219" y="-3599.121094" width="1.098633" height="1.098633"/>
<image xlink:href="tile3_0.png" preserveAspectRatio="none" x="13882.324219" y="-3600.219727" width="1.098633" height="1.098633"/>
<image xlink:href="tile4_6.png" preserveAspectRatio="none" x="13883.422852" y="-3593.62793" width="1.098633" height="1.098633"/>
<image xlink:href="tile4_5.png" preserveAspectRatio="none" x="13883.422852" y="-3594.726562" width="1.098633" height="1.098633"/>
<image xlink:href="tile4_3.png" preserveAspectRatio="none" x="13883.422852" y="-3596.923828" width="1.098633" height="1.098633"/>
<image xlink:href="tile4_2.png" preserveAspectRatio="none" x="13883.422852" y="-3598.022461" width="1.098633" height="1.098633"/>
<image xlink:href="tile4_1.png" preserveAspectRatio="none" x="13883.422852" y="-3599.121094" width="1.098633" height="1.098633"/>
<image xlink:href="tile5_6.png" preserveAspectRatio="none" x="13884.521484" y="-3593.62793" width="1.098633" height="1.098633"/>
<image xlink:href="tile5_5.png" preserveAspectRatio="none" x="13884.521484" y="-3594.726562" width="1.098633" height="1.098633"/>
<image xlink:href="tile5_3.png" preserveAspectRatio="none" x="13884.521484" y="-3596.923828" width="1.098633" height="1.098633"/>
<image xlink:href="tile6_5.png" preserveAspectRatio="none" x="13885.620117" y="-3594.726562" width="1.098633" height="1.098633"/>
<image xlink:href="tile6_4.png" preserveAspectRatio="none" x="13885.620117" y="-3595.825195" width="1.098633" height="1.098633"/>
<image xlink:href="tile6_3.png" preserveAspectRatio="none" x="13885.620117" y="-3596.923828" width="1.098633" height="1.098633"/>
<image xlink:href="tile7_5.png" preserveAspectRatio="none" x="13886.71875" y="-3594.726562" width="1.098633" height="1.098633"/>
<image xlink:href="tile7_4.png" preserveAspectRatio="none" x="13886.71875" y="-3595.825195" width="1.098633" height="1.098633"/>
<image xlink:href="tile7_3.png" preserveAspectRatio="none" x="13886.71875" y="-3596.923828" width="1.098633" height="1.098633"/>
<image xlink:href="tile8_4.png" preserveAspectRatio="none" x="13887.817383" y="-3595.825195" width="1.098633" height="1.098633"/>
<image xlink:href="tile9_4.png" preserveAspectRatio="none" x="13888.916016" y="-3595.825195" width="1.098633" height="1.098633"/>
<image xlink:href="tile10_4.png" preserveAspectRatio="none" x="13890.014648" y="-3595.825195" width="1.098633" height="1.098633"/>
<image xlink:href="tile11_5.png" preserveAspectRatio="none" x="13891.113281" y="-3594.726562" width="1.098633" height="1.098633"/>
<image xlink:href="tile11_4.png" preserveAspectRatio="none" x="13891.113281" y="-3595.825195" width="1.098633" height="1.098633"/>
<image xlink:href="tile12_5.png" preserveAspectRatio="none" x="13892.211914" y="-3594.726562" width="1.098633" height="1.098633"/>
<image xlink:href="tile12_4.png" preserveAspectRatio="none" x="13892.211914" y="-3595.825195" width="1.098633" height="1.098633"/>
<image xlink:href="tile12_1.png" preserveAspectRatio="none" x="13892.211914" y="-3599.121094" width="1.098633" height="1.098633"/>
<image xlink:href="tile13_6.png" preserveAspectRatio="none" x="13893.310547" y="-3593.62793" width="1.098633" height="1.098633"/>
<image xlink:href="tile13_5.png" preserveAspectRatio="none" x="13893.310547" y="-3594.726562" width="1.098633" height="1.098633"/>
<image xlink:href="tile13_4.png" preserveAspectRatio="none" x="13893.310547" y="-3595.825195" width="1.098633" height="1.098633"/>
<image xlink:href="tile13_1.png" preserveAspectRatio="none" x="13893.310547" y="-3599.121094" width="1.098633" height="1.098633"/>
<image xlink:href="tile14_6.png" preserveAspectRatio="none" x="13894.40918" y="-3593.62793" width="1.098633" height="1.098633"/>
<image xlink:href="tile14_5.png" preserveAspectRatio="none" x="13894.40918" y="-3594.726562" width="1.098633" height="1.098633"/>
<image xlink:href="tile15_6.png" preserveAspectRatio="none" x="13895.507812" y="-3593.62793" width="1.098633" height="1.098633"/>
<image xlink:href="tile15_5.png" preserveAspectRatio="none" x="13895.507812" y="-3594.726562" width="1.098633" height="1.098633"/>
<image xlink:href="tile15_4.png" preserveAspectRatio="none" x="13895.507812" y="-3595.825195" width="1.098633" height="1.098633"/>
</g>
</svg>
