<?xml version="1.0" encoding="UTF-8"?>
<svg  xmlns="http://www.w3.org/2000/svg" xmlns:xlink="http://www.w3.org/1999/xlink" xmlns:go="http://purl.org/svgmap/profile" viewBox="13585.4875 -3399.8291667 14.512500000000728 25.924999999999443" go:dataArea="13585.4875 -3399.8291667 14.512500000000728 25.924999999999443" >
<metadata>
 <rdf:RDF xmlns:rdf="http://www.w3.org/1999/02/22-rdf-syntax-ns#" xmlns:crs="http://opengis.org/xmldtds/transformations.dtd" xmlns:svg="http://www.w3.org/svg" >
  <rdf:Description>
   <crs:CoordinateReferenceSystem rdf:resource="http://purl.org/crs/84" svg:transform="matrix(100.0,0.0,0.0,-100.0,0.0,0.0)" />
  </rdf:Description>
 </rdf:RDF>
</metadata>
<globalCoordinateSystem srsName="http://purl.org/crs/84" transform="matrix(100.0,0.0,0.0,-100.0,0.0,0.0)" />
<g >
<image xlink:href="tile4_7.png" preserveAspectRatio="none" x="13588.989258" y="-3392.578125" width="1.098633" height="1.098633"/>
<image xlink:href="tile5_7.png" preserveAspectRatio="none" x="13590.087891" y="-3392.578125" width="1.098633" height="1.098633"/>
<image xlink:href="tile6_7.png" preserveAspectRatio="none" x="13591.186523" y="-3392.578125" width="1.098633" height="1.098633"/>
<image xlink:href="tile6_6.png" preserveAspectRatio="none" x="13591.186523" y="-3393.676758" width="1.098633" height="1.098633"/>
<image xlink:href="tile7_7.png" preserveAspectRatio="none" x="13592.285156" y="-3392.578125" width="1.098633" height="1.098633"/>
<image xlink:href="tile7_6.png" preserveAspectRatio="none" x="13592.285156" y="-3393.676758" width="1.098633" height="1.098633"/>
<image xlink:href="tile7_5.png" preserveAspectRatio="none" x="13592.285156" y="-3394.775391" width="1.098633" height="1.098633"/>
<image xlink:href="tile8_7.png" preserveAspectRatio="none" x="13593.383789" y="-3392.578125" width="1.098633" height="1.098633"/>
<image xlink:href="tile8_5.png" preserveAspectRatio="none" x="13593.383789" y="-3394.775391" width="1.098633" height="1.098633"/>
<image xlink:href="tile9_6.png" preserveAspectRatio="none" x="13594.482422" y="-3393.676758" width="1.098633" height="1.098633"/>
<image xlink:href="tile10_7.png" preserveAspectRatio="none" x="13595.581055" y="-3392.578125" width="1.098633" height="1.098633"/>
<image xlink:href="tile10_6.png" preserveAspectRatio="none" x="13595.581055" y="-3393.676758" width="1.098633" height="1.098633"/>
<image xlink:href="tile11_7.png" preserveAspectRatio="none" x="13596.679688" y="-3392.578125" width="1.098633" height="1.098633"/>
<image xlink:href="tile11_6.png" preserveAspectRatio="none" x="13596.679688" y="-3393.676758" width="1.098633" height="1.098633"/>
<image xlink:href="tile11_5.png" preserveAspectRatio="none" x="13596.679688" y="-3394.775391" width="1.098633" height="1.098633"/>
<image xlink:href="tile11_4.png" preserveAspectRatio="none" x="13596.679688" y="-3395.874023" width="1.098633" height="1.098633"/>
<image xlink:href="tile11_3.png" preserveAspectRatio="none" x="13596.679688" y="-3396.972656" width="1.098633" height="1.098633"/>
<image xlink:href="tile12_7.png" preserveAspectRatio="none" x="13597.77832" y="-3392.578125" width="1.098633" height="1.098633"/>
<image xlink:href="tile12_6.png" preserveAspectRatio="none" x="13597.77832" y="-3393.676758" width="1.098633" height="1.098633"/>
<image xlink:href="tile12_5.png" preserveAspectRatio="none" x="13597.77832" y="-3394.775391" width="1.098633" height="1.098633"/>
<image xlink:href="tile12_4.png" preserveAspectRatio="none" x="13597.77832" y="-3395.874023" width="1.098633" height="1.098633"/>
<image xlink:href="tile12_3.png" preserveAspectRatio="none" x="13597.77832" y="-3396.972656" width="1.098633" height="1.098633"/>
<image xlink:href="tile13_7.png" preserveAspectRatio="none" x="13598.876953" y="-3392.578125" width="1.098633" height="1.098633"/>
<image xlink:href="tile13_4.png" preserveAspectRatio="none" x="13598.876953" y="-3395.874023" width="1.098633" height="1.098633"/>
<image xlink:href="tile13_3.png" preserveAspectRatio="none" x="13598.876953" y="-3396.972656" width="1.098633" height="1.098633"/>
<image xlink:href="tile13_0.png" preserveAspectRatio="none" x="13598.876953" y="-3400.268555" width="1.098633" height="1.098633"/>
</g>
</svg>
