<?xml version="1.0" encoding="UTF-8"?>
<svg  xmlns="http://www.w3.org/2000/svg" xmlns:xlink="http://www.w3.org/1999/xlink" xmlns:go="http://purl.org/svgmap/profile" viewBox="13585.4875 -3399.8291667 14.512500000000728 25.924999999999443" go:dataArea="13585.4875 -3399.8291667 14.512500000000728 25.924999999999443" >
<metadata>
 <rdf:RDF xmlns:rdf="http://www.w3.org/1999/02/22-rdf-syntax-ns#" xmlns:crs="http://opengis.org/xmldtds/transformations.dtd" xmlns:svg="http://www.w3.org/svg" >
  <rdf:Description>
   <crs:CoordinateReferenceSystem rdf:resource="http://purl.org/crs/84" svg:transform="matrix(100.0,0.0,0.0,-100.0,0.0,0.0)" />
  </rdf:Description>
 </rdf:RDF>
</metadata>
<globalCoordinateSystem srsName="http://purl.org/crs/84" transform="matrix(100.0,0.0,0.0,-100.0,0.0,0.0)" />
<g >
<image xlink:href="tile0_13.png" preserveAspectRatio="none" x="13584.594727" y="-3385.986328" width="1.098633" height="1.098633"/>
<image xlink:href="tile0_12.png" preserveAspectRatio="none" x="13584.594727" y="-3387.084961" width="1.098633" height="1.098633"/>
<image xlink:href="tile1_17.png" preserveAspectRatio="none" x="13585.693359" y="-3381.591797" width="1.098633" height="1.098633"/>
<image xlink:href="tile1_16.png" preserveAspectRatio="none" x="13585.693359" y="-3382.69043" width="1.098633" height="1.098633"/>
<image xlink:href="tile1_15.png" preserveAspectRatio="none" x="13585.693359" y="-3383.789062" width="1.098633" height="1.098633"/>
<image xlink:href="tile1_14.png" preserveAspectRatio="none" x="13585.693359" y="-3384.887695" width="1.098633" height="1.098633"/>
<image xlink:href="tile1_13.png" preserveAspectRatio="none" x="13585.693359" y="-3385.986328" width="1.098633" height="1.098633"/>
<image xlink:href="tile1_12.png" preserveAspectRatio="none" x="13585.693359" y="-3387.084961" width="1.098633" height="1.098633"/>
<image xlink:href="tile1_11.png" preserveAspectRatio="none" x="13585.693359" y="-3388.183594" width="1.098633" height="1.098633"/>
<image xlink:href="tile2_16.png" preserveAspectRatio="none" x="13586.791992" y="-3382.69043" width="1.098633" height="1.098633"/>
<image xlink:href="tile2_15.png" preserveAspectRatio="none" x="13586.791992" y="-3383.789062" width="1.098633" height="1.098633"/>
<image xlink:href="tile2_12.png" preserveAspectRatio="none" x="13586.791992" y="-3387.084961" width="1.098633" height="1.098633"/>
<image xlink:href="tile3_16.png" preserveAspectRatio="none" x="13587.890625" y="-3382.69043" width="1.098633" height="1.098633"/>
<image xlink:href="tile3_15.png" preserveAspectRatio="none" x="13587.890625" y="-3383.789062" width="1.098633" height="1.098633"/>
<image xlink:href="tile3_12.png" preserveAspectRatio="none" x="13587.890625" y="-3387.084961" width="1.098633" height="1.098633"/>
<image xlink:href="tile3_11.png" preserveAspectRatio="none" x="13587.890625" y="-3388.183594" width="1.098633" height="1.098633"/>
<image xlink:href="tile3_10.png" preserveAspectRatio="none" x="13587.890625" y="-3389.282227" width="1.098633" height="1.098633"/>
<image xlink:href="tile3_9.png" preserveAspectRatio="none" x="13587.890625" y="-3390.380859" width="1.098633" height="1.098633"/>
<image xlink:href="tile3_8.png" preserveAspectRatio="none" x="13587.890625" y="-3391.479492" width="1.098633" height="1.098633"/>
<image xlink:href="tile4_15.png" preserveAspectRatio="none" x="13588.989258" y="-3383.789062" width="1.098633" height="1.098633"/>
<image xlink:href="tile4_12.png" preserveAspectRatio="none" x="13588.989258" y="-3387.084961" width="1.098633" height="1.098633"/>
<image xlink:href="tile4_11.png" preserveAspectRatio="none" x="13588.989258" y="-3388.183594" width="1.098633" height="1.098633"/>
<image xlink:href="tile4_10.png" preserveAspectRatio="none" x="13588.989258" y="-3389.282227" width="1.098633" height="1.098633"/>
<image xlink:href="tile4_8.png" preserveAspectRatio="none" x="13588.989258" y="-3391.479492" width="1.098633" height="1.098633"/>
<image xlink:href="tile5_15.png" preserveAspectRatio="none" x="13590.087891" y="-3383.789062" width="1.098633" height="1.098633"/>
<image xlink:href="tile5_14.png" preserveAspectRatio="none" x="13590.087891" y="-3384.887695" width="1.098633" height="1.098633"/>
<image xlink:href="tile5_11.png" preserveAspectRatio="none" x="13590.087891" y="-3388.183594" width="1.098633" height="1.098633"/>
<image xlink:href="tile5_10.png" preserveAspectRatio="none" x="13590.087891" y="-3389.282227" width="1.098633" height="1.098633"/>
<image xlink:href="tile6_15.png" preserveAspectRatio="none" x="13591.186523" y="-3383.789062" width="1.098633" height="1.098633"/>
<image xlink:href="tile6_14.png" preserveAspectRatio="none" x="13591.186523" y="-3384.887695" width="1.098633" height="1.098633"/>
<image xlink:href="tile6_11.png" preserveAspectRatio="none" x="13591.186523" y="-3388.183594" width="1.098633" height="1.098633"/>
<image xlink:href="tile6_8.png" preserveAspectRatio="none" x="13591.186523" y="-3391.479492" width="1.098633" height="1.098633"/>
<image xlink:href="tile7_22.png" preserveAspectRatio="none" x="13592.285156" y="-3376.098633" width="1.098633" height="1.098633"/>
<image xlink:href="tile7_21.png" preserveAspectRatio="none" x="13592.285156" y="-3377.197266" width="1.098633" height="1.098633"/>
<image xlink:href="tile7_15.png" preserveAspectRatio="none" x="13592.285156" y="-3383.789062" width="1.098633" height="1.098633"/>
<image xlink:href="tile7_12.png" preserveAspectRatio="none" x="13592.285156" y="-3387.084961" width="1.098633" height="1.098633"/>
<image xlink:href="tile7_11.png" preserveAspectRatio="none" x="13592.285156" y="-3388.183594" width="1.098633" height="1.098633"/>
<image xlink:href="tile7_8.png" preserveAspectRatio="none" x="13592.285156" y="-3391.479492" width="1.098633" height="1.098633"/>
<image xlink:href="tile8_22.png" preserveAspectRatio="none" x="13593.383789" y="-3376.098633" width="1.098633" height="1.098633"/>
<image xlink:href="tile8_21.png" preserveAspectRatio="none" x="13593.383789" y="-3377.197266" width="1.098633" height="1.098633"/>
<image xlink:href="tile8_18.png" preserveAspectRatio="none" x="13593.383789" y="-3380.493164" width="1.098633" height="1.098633"/>
<image xlink:href="tile8_17.png" preserveAspectRatio="none" x="13593.383789" y="-3381.591797" width="1.098633" height="1.098633"/>
<image xlink:href="tile8_13.png" preserveAspectRatio="none" x="13593.383789" y="-3385.986328" width="1.098633" height="1.098633"/>
<image xlink:href="tile8_12.png" preserveAspectRatio="none" x="13593.383789" y="-3387.084961" width="1.098633" height="1.098633"/>
<image xlink:href="tile9_22.png" preserveAspectRatio="none" x="13594.482422" y="-3376.098633" width="1.098633" height="1.098633"/>
<image xlink:href="tile9_18.png" preserveAspectRatio="none" x="13594.482422" y="-3380.493164" width="1.098633" height="1.098633"/>
<image xlink:href="tile9_17.png" preserveAspectRatio="none" x="13594.482422" y="-3381.591797" width="1.098633" height="1.098633"/>
<image xlink:href="tile9_12.png" preserveAspectRatio="none" x="13594.482422" y="-3387.084961" width="1.098633" height="1.098633"/>
<image xlink:href="tile10_23.png" preserveAspectRatio="none" x="13595.581055" y="-3375" width="1.098633" height="1.098633"/>
<image xlink:href="tile10_20.png" preserveAspectRatio="none" x="13595.581055" y="-3378.295898" width="1.098633" height="1.098633"/>
<image xlink:href="tile10_18.png" preserveAspectRatio="none" x="13595.581055" y="-3380.493164" width="1.098633" height="1.098633"/>
<image xlink:href="tile10_17.png" preserveAspectRatio="none" x="13595.581055" y="-3381.591797" width="1.098633" height="1.098633"/>
<image xlink:href="tile10_16.png" preserveAspectRatio="none" x="13595.581055" y="-3382.69043" width="1.098633" height="1.098633"/>
<image xlink:href="tile11_23.png" preserveAspectRatio="none" x="13596.679688" y="-3375" width="1.098633" height="1.098633"/>
<image xlink:href="tile11_22.png" preserveAspectRatio="none" x="13596.679688" y="-3376.098633" width="1.098633" height="1.098633"/>
<image xlink:href="tile11_21.png" preserveAspectRatio="none" x="13596.679688" y="-3377.197266" width="1.098633" height="1.098633"/>
<image xlink:href="tile11_20.png" preserveAspectRatio="none" x="13596.679688" y="-3378.295898" width="1.098633" height="1.098633"/>
<image xlink:href="tile11_18.png" preserveAspectRatio="none" x="13596.679688" y="-3380.493164" width="1.098633" height="1.098633"/>
<image xlink:href="tile11_17.png" preserveAspectRatio="none" x="13596.679688" y="-3381.591797" width="1.098633" height="1.098633"/>
<image xlink:href="tile11_15.png" preserveAspectRatio="none" x="13596.679688" y="-3383.789062" width="1.098633" height="1.098633"/>
<image xlink:href="tile11_14.png" preserveAspectRatio="none" x="13596.679688" y="-3384.887695" width="1.098633" height="1.098633"/>
<image xlink:href="tile12_22.png" preserveAspectRatio="none" x="13597.77832" y="-3376.098633" width="1.098633" height="1.098633"/>
<image xlink:href="tile12_21.png" preserveAspectRatio="none" x="13597.77832" y="-3377.197266" width="1.098633" height="1.098633"/>
<image xlink:href="tile12_20.png" preserveAspectRatio="none" x="13597.77832" y="-3378.295898" width="1.098633" height="1.098633"/>
<image xlink:href="tile12_19.png" preserveAspectRatio="none" x="13597.77832" y="-3379.394531" width="1.098633" height="1.098633"/>
<image xlink:href="tile12_18.png" preserveAspectRatio="none" x="13597.77832" y="-3380.493164" width="1.098633" height="1.098633"/>
<image xlink:href="tile12_15.png" preserveAspectRatio="none" x="13597.77832" y="-3383.789062" width="1.098633" height="1.098633"/>
<image xlink:href="tile12_14.png" preserveAspectRatio="none" x="13597.77832" y="-3384.887695" width="1.098633" height="1.098633"/>
<image xlink:href="tile12_13.png" preserveAspectRatio="none" x="13597.77832" y="-3385.986328" width="1.098633" height="1.098633"/>
<image xlink:href="tile12_12.png" preserveAspectRatio="none" x="13597.77832" y="-3387.084961" width="1.098633" height="1.098633"/>
<image xlink:href="tile12_8.png" preserveAspectRatio="none" x="13597.77832" y="-3391.479492" width="1.098633" height="1.098633"/>
<image xlink:href="tile13_23.png" preserveAspectRatio="none" x="13598.876953" y="-3375" width="1.098633" height="1.098633"/>
<image xlink:href="tile13_21.png" preserveAspectRatio="none" x="13598.876953" y="-3377.197266" width="1.098633" height="1.098633"/>
<image xlink:href="tile13_20.png" preserveAspectRatio="none" x="13598.876953" y="-3378.295898" width="1.098633" height="1.098633"/>
<image xlink:href="tile13_19.png" preserveAspectRatio="none" x="13598.876953" y="-3379.394531" width="1.098633" height="1.098633"/>
<image xlink:href="tile13_18.png" preserveAspectRatio="none" x="13598.876953" y="-3380.493164" width="1.098633" height="1.098633"/>
<image xlink:href="tile13_15.png" preserveAspectRatio="none" x="13598.876953" y="-3383.789062" width="1.098633" height="1.098633"/>
<image xlink:href="tile13_14.png" preserveAspectRatio="none" x="13598.876953" y="-3384.887695" width="1.098633" height="1.098633"/>
<image xlink:href="tile13_13.png" preserveAspectRatio="none" x="13598.876953" y="-3385.986328" width="1.098633" height="1.098633"/>
<image xlink:href="tile13_12.png" preserveAspectRatio="none" x="13598.876953" y="-3387.084961" width="1.098633" height="1.098633"/>
<image xlink:href="tile13_8.png" preserveAspectRatio="none" x="13598.876953" y="-3391.479492" width="1.098633" height="1.098633"/>
<image xlink:href="tile14_23.png" preserveAspectRatio="none" x="13599.975586" y="-3375" width="1.098633" height="1.098633"/>
<image xlink:href="tile14_21.png" preserveAspectRatio="none" x="13599.975586" y="-3377.197266" width="1.098633" height="1.098633"/>
<image xlink:href="tile14_19.png" preserveAspectRatio="none" x="13599.975586" y="-3379.394531" width="1.098633" height="1.098633"/>
<image xlink:href="tile14_13.png" preserveAspectRatio="none" x="13599.975586" y="-3385.986328" width="1.098633" height="1.098633"/>
<image xlink:href="tile14_12.png" preserveAspectRatio="none" x="13599.975586" y="-3387.084961" width="1.098633" height="1.098633"/>
<image xlink:href="tile14_8.png" preserveAspectRatio="none" x="13599.975586" y="-3391.479492" width="1.098633" height="1.098633"/>
</g>
</svg>
