<?xml version="1.0" encoding="UTF-8"?>
<svg  xmlns="http://www.w3.org/2000/svg" xmlns:xlink="http://www.w3.org/1999/xlink" xmlns:go="http://purl.org/svgmap/profile" viewBox="13100.0 -3466.666667 100.0 66.66666699999979" go:dataArea="13100.0 -3466.666667 100.0 66.66666699999979" >
<metadata>
 <rdf:RDF xmlns:rdf="http://www.w3.org/1999/02/22-rdf-syntax-ns#" xmlns:crs="http://opengis.org/xmldtds/transformations.dtd" xmlns:svg="http://www.w3.org/svg" >
  <rdf:Description>
   <crs:CoordinateReferenceSystem rdf:resource="http://purl.org/crs/84" svg:transform="matrix(100.0,0.0,0.0,-100.0,0.0,0.0)" />
  </rdf:Description>
 </rdf:RDF>
</metadata>
<globalCoordinateSystem srsName="http://purl.org/crs/84" transform="matrix(100.0,0.0,0.0,-100.0,0.0,0.0)" />
<g >
<image xlink:href="tile16_13.png" preserveAspectRatio="none" x="13166.015625" y="-3410.15625" width="4.394531" height="4.394531"/>
<image xlink:href="tile16_11.png" preserveAspectRatio="none" x="13166.015625" y="-3418.945312" width="4.394531" height="4.394531"/>
<image xlink:href="tile16_10.png" preserveAspectRatio="none" x="13166.015625" y="-3423.339844" width="4.394531" height="4.394531"/>
<image xlink:href="tile16_9.png" preserveAspectRatio="none" x="13166.015625" y="-3427.734375" width="4.394531" height="4.394531"/>
<image xlink:href="tile16_7.png" preserveAspectRatio="none" x="13166.015625" y="-3436.523438" width="4.394531" height="4.394531"/>
<image xlink:href="tile16_6.png" preserveAspectRatio="none" x="13166.015625" y="-3440.917969" width="4.394531" height="4.394531"/>
<image xlink:href="tile16_2.png" preserveAspectRatio="none" x="13166.015625" y="-3458.496094" width="4.394531" height="4.394531"/>
<image xlink:href="tile16_1.png" preserveAspectRatio="none" x="13166.015625" y="-3462.890625" width="4.394531" height="4.394531"/>
<image xlink:href="tile16_0.png" preserveAspectRatio="none" x="13166.015625" y="-3467.285156" width="4.394531" height="4.394531"/>
<image xlink:href="tile17_13.png" preserveAspectRatio="none" x="13170.410156" y="-3410.15625" width="4.394531" height="4.394531"/>
<image xlink:href="tile17_12.png" preserveAspectRatio="none" x="13170.410156" y="-3414.550781" width="4.394531" height="4.394531"/>
<image xlink:href="tile17_11.png" preserveAspectRatio="none" x="13170.410156" y="-3418.945312" width="4.394531" height="4.394531"/>
<image xlink:href="tile17_6.png" preserveAspectRatio="none" x="13170.410156" y="-3440.917969" width="4.394531" height="4.394531"/>
<image xlink:href="tile17_4.png" preserveAspectRatio="none" x="13170.410156" y="-3449.707031" width="4.394531" height="4.394531"/>
<image xlink:href="tile18_14.png" preserveAspectRatio="none" x="13174.804688" y="-3405.761719" width="4.394531" height="4.394531"/>
<image xlink:href="tile18_13.png" preserveAspectRatio="none" x="13174.804688" y="-3410.15625" width="4.394531" height="4.394531"/>
<image xlink:href="tile18_12.png" preserveAspectRatio="none" x="13174.804688" y="-3414.550781" width="4.394531" height="4.394531"/>
<image xlink:href="tile18_5.png" preserveAspectRatio="none" x="13174.804688" y="-3445.3125" width="4.394531" height="4.394531"/>
<image xlink:href="tile18_4.png" preserveAspectRatio="none" x="13174.804688" y="-3449.707031" width="4.394531" height="4.394531"/>
<image xlink:href="tile18_1.png" preserveAspectRatio="none" x="13174.804688" y="-3462.890625" width="4.394531" height="4.394531"/>
<image xlink:href="tile18_0.png" preserveAspectRatio="none" x="13174.804688" y="-3467.285156" width="4.394531" height="4.394531"/>
<image xlink:href="tile19_15.png" preserveAspectRatio="none" x="13179.199219" y="-3401.367188" width="4.394531" height="4.394531"/>
<image xlink:href="tile19_14.png" preserveAspectRatio="none" x="13179.199219" y="-3405.761719" width="4.394531" height="4.394531"/>
<image xlink:href="tile19_13.png" preserveAspectRatio="none" x="13179.199219" y="-3410.15625" width="4.394531" height="4.394531"/>
<image xlink:href="tile19_12.png" preserveAspectRatio="none" x="13179.199219" y="-3414.550781" width="4.394531" height="4.394531"/>
<image xlink:href="tile19_11.png" preserveAspectRatio="none" x="13179.199219" y="-3418.945312" width="4.394531" height="4.394531"/>
<image xlink:href="tile19_10.png" preserveAspectRatio="none" x="13179.199219" y="-3423.339844" width="4.394531" height="4.394531"/>
<image xlink:href="tile19_9.png" preserveAspectRatio="none" x="13179.199219" y="-3427.734375" width="4.394531" height="4.394531"/>
<image xlink:href="tile19_1.png" preserveAspectRatio="none" x="13179.199219" y="-3462.890625" width="4.394531" height="4.394531"/>
<image xlink:href="tile19_0.png" preserveAspectRatio="none" x="13179.199219" y="-3467.285156" width="4.394531" height="4.394531"/>
<image xlink:href="tile20_15.png" preserveAspectRatio="none" x="13183.59375" y="-3401.367188" width="4.394531" height="4.394531"/>
<image xlink:href="tile20_14.png" preserveAspectRatio="none" x="13183.59375" y="-3405.761719" width="4.394531" height="4.394531"/>
<image xlink:href="tile20_13.png" preserveAspectRatio="none" x="13183.59375" y="-3410.15625" width="4.394531" height="4.394531"/>
<image xlink:href="tile20_12.png" preserveAspectRatio="none" x="13183.59375" y="-3414.550781" width="4.394531" height="4.394531"/>
<image xlink:href="tile20_9.png" preserveAspectRatio="none" x="13183.59375" y="-3427.734375" width="4.394531" height="4.394531"/>
<image xlink:href="tile21_14.png" preserveAspectRatio="none" x="13187.988281" y="-3405.761719" width="4.394531" height="4.394531"/>
<image xlink:href="tile21_13.png" preserveAspectRatio="none" x="13187.988281" y="-3410.15625" width="4.394531" height="4.394531"/>
<image xlink:href="tile21_7.png" preserveAspectRatio="none" x="13187.988281" y="-3436.523438" width="4.394531" height="4.394531"/>
<image xlink:href="tile21_6.png" preserveAspectRatio="none" x="13187.988281" y="-3440.917969" width="4.394531" height="4.394531"/>
<image xlink:href="tile21_0.png" preserveAspectRatio="none" x="13187.988281" y="-3467.285156" width="4.394531" height="4.394531"/>
<image xlink:href="tile22_15.png" preserveAspectRatio="none" x="13192.382812" y="-3401.367188" width="4.394531" height="4.394531"/>
<image xlink:href="tile22_14.png" preserveAspectRatio="none" x="13192.382812" y="-3405.761719" width="4.394531" height="4.394531"/>
<image xlink:href="tile22_9.png" preserveAspectRatio="none" x="13192.382812" y="-3427.734375" width="4.394531" height="4.394531"/>
<image xlink:href="tile22_8.png" preserveAspectRatio="none" x="13192.382812" y="-3432.128906" width="4.394531" height="4.394531"/>
<image xlink:href="tile22_7.png" preserveAspectRatio="none" x="13192.382812" y="-3436.523438" width="4.394531" height="4.394531"/>
<image xlink:href="tile23_15.png" preserveAspectRatio="none" x="13196.777344" y="-3401.367188" width="4.394531" height="4.394531"/>
<image xlink:href="tile23_14.png" preserveAspectRatio="none" x="13196.777344" y="-3405.761719" width="4.394531" height="4.394531"/>
<image xlink:href="tile23_10.png" preserveAspectRatio="none" x="13196.777344" y="-3423.339844" width="4.394531" height="4.394531"/>
<image xlink:href="tile23_9.png" preserveAspectRatio="none" x="13196.777344" y="-3427.734375" width="4.394531" height="4.394531"/>
<image xlink:href="tile23_8.png" preserveAspectRatio="none" x="13196.777344" y="-3432.128906" width="4.394531" height="4.394531"/>
<image xlink:href="tile23_7.png" preserveAspectRatio="none" x="13196.777344" y="-3436.523438" width="4.394531" height="4.394531"/>
</g>
</svg>
