<?xml version="1.0" encoding="UTF-8"?>
<svg  xmlns="http://www.w3.org/2000/svg" xmlns:xlink="http://www.w3.org/1999/xlink" xmlns:go="http://purl.org/svgmap/profile" viewBox="14100.0 -4266.666666900001 100.0 32.52083360000029" go:dataArea="14100.0 -4266.666666900001 100.0 32.52083360000029" >
<metadata>
 <rdf:RDF xmlns:rdf="http://www.w3.org/1999/02/22-rdf-syntax-ns#" xmlns:crs="http://opengis.org/xmldtds/transformations.dtd" xmlns:svg="http://www.w3.org/svg" >
  <rdf:Description>
   <crs:CoordinateReferenceSystem rdf:resource="http://purl.org/crs/84" svg:transform="matrix(100.0,0.0,0.0,-100.0,0.0,0.0)" />
  </rdf:Description>
 </rdf:RDF>
</metadata>
<globalCoordinateSystem srsName="http://purl.org/crs/84" transform="matrix(100.0,0.0,0.0,-100.0,0.0,0.0)" />
<g >
<image xlink:href="tile0_4.png" preserveAspectRatio="none" x="14097.65625" y="-4236.328125" width="8.789062" height="8.789062"/>
<image xlink:href="tile0_3.png" preserveAspectRatio="none" x="14097.65625" y="-4245.117188" width="8.789062" height="8.789062"/>
<image xlink:href="tile0_1.png" preserveAspectRatio="none" x="14097.65625" y="-4262.695312" width="8.789062" height="8.789062"/>
<image xlink:href="tile0_0.png" preserveAspectRatio="none" x="14097.65625" y="-4271.484375" width="8.789062" height="8.789062"/>
<image xlink:href="tile1_0.png" preserveAspectRatio="none" x="14106.445312" y="-4271.484375" width="8.789062" height="8.789062"/>
<image xlink:href="tile3_2.png" preserveAspectRatio="none" x="14124.023438" y="-4253.90625" width="8.789062" height="8.789062"/>
<image xlink:href="tile3_1.png" preserveAspectRatio="none" x="14124.023438" y="-4262.695312" width="8.789062" height="8.789062"/>
<image xlink:href="tile4_2.png" preserveAspectRatio="none" x="14132.8125" y="-4253.90625" width="8.789062" height="8.789062"/>
<image xlink:href="tile4_1.png" preserveAspectRatio="none" x="14132.8125" y="-4262.695312" width="8.789062" height="8.789062"/>
<image xlink:href="tile6_1.png" preserveAspectRatio="none" x="14150.390625" y="-4262.695312" width="8.789062" height="8.789062"/>
<image xlink:href="tile6_0.png" preserveAspectRatio="none" x="14150.390625" y="-4271.484375" width="8.789062" height="8.789062"/>
<image xlink:href="tile7_0.png" preserveAspectRatio="none" x="14159.179688" y="-4271.484375" width="8.789062" height="8.789062"/>
<image xlink:href="tile8_1.png" preserveAspectRatio="none" x="14167.96875" y="-4262.695312" width="8.789062" height="8.789062"/>
<image xlink:href="tile8_0.png" preserveAspectRatio="none" x="14167.96875" y="-4271.484375" width="8.789062" height="8.789062"/>
<image xlink:href="tile9_1.png" preserveAspectRatio="none" x="14176.757812" y="-4262.695312" width="8.789062" height="8.789062"/>
<image xlink:href="tile9_0.png" preserveAspectRatio="none" x="14176.757812" y="-4271.484375" width="8.789062" height="8.789062"/>
<image xlink:href="tile10_1.png" preserveAspectRatio="none" x="14185.546875" y="-4262.695312" width="8.789062" height="8.789062"/>
<image xlink:href="tile10_0.png" preserveAspectRatio="none" x="14185.546875" y="-4271.484375" width="8.789062" height="8.789062"/>
<image xlink:href="tile11_1.png" preserveAspectRatio="none" x="14194.335938" y="-4262.695312" width="8.789062" height="8.789062"/>
</g>
</svg>
