<?xml version="1.0" encoding="UTF-8"?>
<svg  xmlns="http://www.w3.org/2000/svg" xmlns:xlink="http://www.w3.org/1999/xlink" xmlns:go="http://purl.org/svgmap/profile" viewBox="14000.0 -3933.3333334000004 100.0 66.66666640000045" go:dataArea="14000.0 -3933.3333334000004 100.0 66.66666640000045" >
<metadata>
 <rdf:RDF xmlns:rdf="http://www.w3.org/1999/02/22-rdf-syntax-ns#" xmlns:crs="http://opengis.org/xmldtds/transformations.dtd" xmlns:svg="http://www.w3.org/svg" >
  <rdf:Description>
   <crs:CoordinateReferenceSystem rdf:resource="http://purl.org/crs/84" svg:transform="matrix(100.0,0.0,0.0,-100.0,0.0,0.0)" />
  </rdf:Description>
 </rdf:RDF>
</metadata>
<globalCoordinateSystem srsName="http://purl.org/crs/84" transform="matrix(100.0,0.0,0.0,-100.0,0.0,0.0)" />
<g >
<image xlink:href="tile37_29.png" preserveAspectRatio="none" x="14080.078125" y="-3871.582031" width="2.197266" height="2.197266"/>
<image xlink:href="tile37_28.png" preserveAspectRatio="none" x="14080.078125" y="-3873.779297" width="2.197266" height="2.197266"/>
<image xlink:href="tile38_30.png" preserveAspectRatio="none" x="14082.275391" y="-3869.384766" width="2.197266" height="2.197266"/>
<image xlink:href="tile38_29.png" preserveAspectRatio="none" x="14082.275391" y="-3871.582031" width="2.197266" height="2.197266"/>
<image xlink:href="tile38_28.png" preserveAspectRatio="none" x="14082.275391" y="-3873.779297" width="2.197266" height="2.197266"/>
<image xlink:href="tile39_31.png" preserveAspectRatio="none" x="14084.472656" y="-3867.1875" width="2.197266" height="2.197266"/>
<image xlink:href="tile39_30.png" preserveAspectRatio="none" x="14084.472656" y="-3869.384766" width="2.197266" height="2.197266"/>
<image xlink:href="tile39_29.png" preserveAspectRatio="none" x="14084.472656" y="-3871.582031" width="2.197266" height="2.197266"/>
<image xlink:href="tile40_31.png" preserveAspectRatio="none" x="14086.669922" y="-3867.1875" width="2.197266" height="2.197266"/>
<image xlink:href="tile40_30.png" preserveAspectRatio="none" x="14086.669922" y="-3869.384766" width="2.197266" height="2.197266"/>
<image xlink:href="tile43_25.png" preserveAspectRatio="none" x="14093.261719" y="-3880.371094" width="2.197266" height="2.197266"/>
<image xlink:href="tile43_24.png" preserveAspectRatio="none" x="14093.261719" y="-3882.568359" width="2.197266" height="2.197266"/>
<image xlink:href="tile44_26.png" preserveAspectRatio="none" x="14095.458984" y="-3878.173828" width="2.197266" height="2.197266"/>
<image xlink:href="tile44_25.png" preserveAspectRatio="none" x="14095.458984" y="-3880.371094" width="2.197266" height="2.197266"/>
<image xlink:href="tile44_24.png" preserveAspectRatio="none" x="14095.458984" y="-3882.568359" width="2.197266" height="2.197266"/>
<image xlink:href="tile45_27.png" preserveAspectRatio="none" x="14097.65625" y="-3875.976562" width="2.197266" height="2.197266"/>
<image xlink:href="tile45_26.png" preserveAspectRatio="none" x="14097.65625" y="-3878.173828" width="2.197266" height="2.197266"/>
<image xlink:href="tile45_25.png" preserveAspectRatio="none" x="14097.65625" y="-3880.371094" width="2.197266" height="2.197266"/>
<image xlink:href="tile45_24.png" preserveAspectRatio="none" x="14097.65625" y="-3882.568359" width="2.197266" height="2.197266"/>
<image xlink:href="tile46_26.png" preserveAspectRatio="none" x="14099.853516" y="-3878.173828" width="2.197266" height="2.197266"/>
<image xlink:href="tile46_25.png" preserveAspectRatio="none" x="14099.853516" y="-3880.371094" width="2.197266" height="2.197266"/>
<image xlink:href="tile46_24.png" preserveAspectRatio="none" x="14099.853516" y="-3882.568359" width="2.197266" height="2.197266"/>
</g>
</svg>
