<?xml version="1.0" encoding="UTF-8"?>
<svg  xmlns="http://www.w3.org/2000/svg" xmlns:xlink="http://www.w3.org/1999/xlink" xmlns:go="http://purl.org/svgmap/profile" viewBox="14000.0 -3933.3333334000004 100.0 66.66666640000045" go:dataArea="14000.0 -3933.3333334000004 100.0 66.66666640000045" >
<metadata>
 <rdf:RDF xmlns:rdf="http://www.w3.org/1999/02/22-rdf-syntax-ns#" xmlns:crs="http://opengis.org/xmldtds/transformations.dtd" xmlns:svg="http://www.w3.org/svg" >
  <rdf:Description>
   <crs:CoordinateReferenceSystem rdf:resource="http://purl.org/crs/84" svg:transform="matrix(100.0,0.0,0.0,-100.0,0.0,0.0)" />
  </rdf:Description>
 </rdf:RDF>
</metadata>
<globalCoordinateSystem srsName="http://purl.org/crs/84" transform="matrix(100.0,0.0,0.0,-100.0,0.0,0.0)" />
<g >
<image xlink:href="tile18_5.png" preserveAspectRatio="none" x="14038.330078" y="-3924.316406" width="2.197266" height="2.197266"/>
<image xlink:href="tile18_4.png" preserveAspectRatio="none" x="14038.330078" y="-3926.513672" width="2.197266" height="2.197266"/>
<image xlink:href="tile18_3.png" preserveAspectRatio="none" x="14038.330078" y="-3928.710938" width="2.197266" height="2.197266"/>
<image xlink:href="tile18_2.png" preserveAspectRatio="none" x="14038.330078" y="-3930.908203" width="2.197266" height="2.197266"/>
<image xlink:href="tile19_7.png" preserveAspectRatio="none" x="14040.527344" y="-3919.921875" width="2.197266" height="2.197266"/>
<image xlink:href="tile19_6.png" preserveAspectRatio="none" x="14040.527344" y="-3922.119141" width="2.197266" height="2.197266"/>
<image xlink:href="tile19_5.png" preserveAspectRatio="none" x="14040.527344" y="-3924.316406" width="2.197266" height="2.197266"/>
<image xlink:href="tile19_4.png" preserveAspectRatio="none" x="14040.527344" y="-3926.513672" width="2.197266" height="2.197266"/>
<image xlink:href="tile19_3.png" preserveAspectRatio="none" x="14040.527344" y="-3928.710938" width="2.197266" height="2.197266"/>
<image xlink:href="tile19_2.png" preserveAspectRatio="none" x="14040.527344" y="-3930.908203" width="2.197266" height="2.197266"/>
<image xlink:href="tile19_1.png" preserveAspectRatio="none" x="14040.527344" y="-3933.105469" width="2.197266" height="2.197266"/>
<image xlink:href="tile19_0.png" preserveAspectRatio="none" x="14040.527344" y="-3935.302734" width="2.197266" height="2.197266"/>
<image xlink:href="tile20_14.png" preserveAspectRatio="none" x="14042.724609" y="-3904.541016" width="2.197266" height="2.197266"/>
<image xlink:href="tile20_13.png" preserveAspectRatio="none" x="14042.724609" y="-3906.738281" width="2.197266" height="2.197266"/>
<image xlink:href="tile20_12.png" preserveAspectRatio="none" x="14042.724609" y="-3908.935547" width="2.197266" height="2.197266"/>
<image xlink:href="tile20_8.png" preserveAspectRatio="none" x="14042.724609" y="-3917.724609" width="2.197266" height="2.197266"/>
<image xlink:href="tile20_7.png" preserveAspectRatio="none" x="14042.724609" y="-3919.921875" width="2.197266" height="2.197266"/>
<image xlink:href="tile20_6.png" preserveAspectRatio="none" x="14042.724609" y="-3922.119141" width="2.197266" height="2.197266"/>
<image xlink:href="tile20_5.png" preserveAspectRatio="none" x="14042.724609" y="-3924.316406" width="2.197266" height="2.197266"/>
<image xlink:href="tile20_4.png" preserveAspectRatio="none" x="14042.724609" y="-3926.513672" width="2.197266" height="2.197266"/>
<image xlink:href="tile20_3.png" preserveAspectRatio="none" x="14042.724609" y="-3928.710938" width="2.197266" height="2.197266"/>
<image xlink:href="tile20_2.png" preserveAspectRatio="none" x="14042.724609" y="-3930.908203" width="2.197266" height="2.197266"/>
<image xlink:href="tile20_1.png" preserveAspectRatio="none" x="14042.724609" y="-3933.105469" width="2.197266" height="2.197266"/>
<image xlink:href="tile20_0.png" preserveAspectRatio="none" x="14042.724609" y="-3935.302734" width="2.197266" height="2.197266"/>
<image xlink:href="tile21_15.png" preserveAspectRatio="none" x="14044.921875" y="-3902.34375" width="2.197266" height="2.197266"/>
<image xlink:href="tile21_14.png" preserveAspectRatio="none" x="14044.921875" y="-3904.541016" width="2.197266" height="2.197266"/>
<image xlink:href="tile21_13.png" preserveAspectRatio="none" x="14044.921875" y="-3906.738281" width="2.197266" height="2.197266"/>
<image xlink:href="tile21_12.png" preserveAspectRatio="none" x="14044.921875" y="-3908.935547" width="2.197266" height="2.197266"/>
<image xlink:href="tile21_11.png" preserveAspectRatio="none" x="14044.921875" y="-3911.132812" width="2.197266" height="2.197266"/>
<image xlink:href="tile21_10.png" preserveAspectRatio="none" x="14044.921875" y="-3913.330078" width="2.197266" height="2.197266"/>
<image xlink:href="tile21_9.png" preserveAspectRatio="none" x="14044.921875" y="-3915.527344" width="2.197266" height="2.197266"/>
<image xlink:href="tile21_8.png" preserveAspectRatio="none" x="14044.921875" y="-3917.724609" width="2.197266" height="2.197266"/>
<image xlink:href="tile21_7.png" preserveAspectRatio="none" x="14044.921875" y="-3919.921875" width="2.197266" height="2.197266"/>
<image xlink:href="tile21_6.png" preserveAspectRatio="none" x="14044.921875" y="-3922.119141" width="2.197266" height="2.197266"/>
<image xlink:href="tile21_5.png" preserveAspectRatio="none" x="14044.921875" y="-3924.316406" width="2.197266" height="2.197266"/>
<image xlink:href="tile21_4.png" preserveAspectRatio="none" x="14044.921875" y="-3926.513672" width="2.197266" height="2.197266"/>
<image xlink:href="tile21_3.png" preserveAspectRatio="none" x="14044.921875" y="-3928.710938" width="2.197266" height="2.197266"/>
<image xlink:href="tile21_2.png" preserveAspectRatio="none" x="14044.921875" y="-3930.908203" width="2.197266" height="2.197266"/>
<image xlink:href="tile21_1.png" preserveAspectRatio="none" x="14044.921875" y="-3933.105469" width="2.197266" height="2.197266"/>
<image xlink:href="tile21_0.png" preserveAspectRatio="none" x="14044.921875" y="-3935.302734" width="2.197266" height="2.197266"/>
<image xlink:href="tile22_12.png" preserveAspectRatio="none" x="14047.119141" y="-3908.935547" width="2.197266" height="2.197266"/>
<image xlink:href="tile22_11.png" preserveAspectRatio="none" x="14047.119141" y="-3911.132812" width="2.197266" height="2.197266"/>
<image xlink:href="tile22_10.png" preserveAspectRatio="none" x="14047.119141" y="-3913.330078" width="2.197266" height="2.197266"/>
<image xlink:href="tile22_9.png" preserveAspectRatio="none" x="14047.119141" y="-3915.527344" width="2.197266" height="2.197266"/>
<image xlink:href="tile22_8.png" preserveAspectRatio="none" x="14047.119141" y="-3917.724609" width="2.197266" height="2.197266"/>
<image xlink:href="tile22_7.png" preserveAspectRatio="none" x="14047.119141" y="-3919.921875" width="2.197266" height="2.197266"/>
<image xlink:href="tile22_6.png" preserveAspectRatio="none" x="14047.119141" y="-3922.119141" width="2.197266" height="2.197266"/>
<image xlink:href="tile22_5.png" preserveAspectRatio="none" x="14047.119141" y="-3924.316406" width="2.197266" height="2.197266"/>
<image xlink:href="tile22_4.png" preserveAspectRatio="none" x="14047.119141" y="-3926.513672" width="2.197266" height="2.197266"/>
<image xlink:href="tile22_3.png" preserveAspectRatio="none" x="14047.119141" y="-3928.710938" width="2.197266" height="2.197266"/>
<image xlink:href="tile22_2.png" preserveAspectRatio="none" x="14047.119141" y="-3930.908203" width="2.197266" height="2.197266"/>
<image xlink:href="tile22_1.png" preserveAspectRatio="none" x="14047.119141" y="-3933.105469" width="2.197266" height="2.197266"/>
<image xlink:href="tile22_0.png" preserveAspectRatio="none" x="14047.119141" y="-3935.302734" width="2.197266" height="2.197266"/>
<image xlink:href="tile23_7.png" preserveAspectRatio="none" x="14049.316406" y="-3919.921875" width="2.197266" height="2.197266"/>
<image xlink:href="tile23_6.png" preserveAspectRatio="none" x="14049.316406" y="-3922.119141" width="2.197266" height="2.197266"/>
<image xlink:href="tile23_5.png" preserveAspectRatio="none" x="14049.316406" y="-3924.316406" width="2.197266" height="2.197266"/>
<image xlink:href="tile23_4.png" preserveAspectRatio="none" x="14049.316406" y="-3926.513672" width="2.197266" height="2.197266"/>
<image xlink:href="tile23_3.png" preserveAspectRatio="none" x="14049.316406" y="-3928.710938" width="2.197266" height="2.197266"/>
<image xlink:href="tile23_1.png" preserveAspectRatio="none" x="14049.316406" y="-3933.105469" width="2.197266" height="2.197266"/>
<image xlink:href="tile23_0.png" preserveAspectRatio="none" x="14049.316406" y="-3935.302734" width="2.197266" height="2.197266"/>
<image xlink:href="tile24_7.png" preserveAspectRatio="none" x="14051.513672" y="-3919.921875" width="2.197266" height="2.197266"/>
<image xlink:href="tile24_6.png" preserveAspectRatio="none" x="14051.513672" y="-3922.119141" width="2.197266" height="2.197266"/>
<image xlink:href="tile24_5.png" preserveAspectRatio="none" x="14051.513672" y="-3924.316406" width="2.197266" height="2.197266"/>
<image xlink:href="tile24_4.png" preserveAspectRatio="none" x="14051.513672" y="-3926.513672" width="2.197266" height="2.197266"/>
<image xlink:href="tile24_1.png" preserveAspectRatio="none" x="14051.513672" y="-3933.105469" width="2.197266" height="2.197266"/>
<image xlink:href="tile24_0.png" preserveAspectRatio="none" x="14051.513672" y="-3935.302734" width="2.197266" height="2.197266"/>
<image xlink:href="tile25_7.png" preserveAspectRatio="none" x="14053.710938" y="-3919.921875" width="2.197266" height="2.197266"/>
<image xlink:href="tile25_6.png" preserveAspectRatio="none" x="14053.710938" y="-3922.119141" width="2.197266" height="2.197266"/>
<image xlink:href="tile25_2.png" preserveAspectRatio="none" x="14053.710938" y="-3930.908203" width="2.197266" height="2.197266"/>
<image xlink:href="tile25_1.png" preserveAspectRatio="none" x="14053.710938" y="-3933.105469" width="2.197266" height="2.197266"/>
<image xlink:href="tile25_0.png" preserveAspectRatio="none" x="14053.710938" y="-3935.302734" width="2.197266" height="2.197266"/>
<image xlink:href="tile26_7.png" preserveAspectRatio="none" x="14055.908203" y="-3919.921875" width="2.197266" height="2.197266"/>
<image xlink:href="tile26_6.png" preserveAspectRatio="none" x="14055.908203" y="-3922.119141" width="2.197266" height="2.197266"/>
<image xlink:href="tile26_2.png" preserveAspectRatio="none" x="14055.908203" y="-3930.908203" width="2.197266" height="2.197266"/>
<image xlink:href="tile26_1.png" preserveAspectRatio="none" x="14055.908203" y="-3933.105469" width="2.197266" height="2.197266"/>
<image xlink:href="tile26_0.png" preserveAspectRatio="none" x="14055.908203" y="-3935.302734" width="2.197266" height="2.197266"/>
<image xlink:href="tile27_2.png" preserveAspectRatio="none" x="14058.105469" y="-3930.908203" width="2.197266" height="2.197266"/>
<image xlink:href="tile27_1.png" preserveAspectRatio="none" x="14058.105469" y="-3933.105469" width="2.197266" height="2.197266"/>
</g>
</svg>
