<?xml version="1.0" encoding="UTF-8"?>
<svg  xmlns="http://www.w3.org/2000/svg" xmlns:xlink="http://www.w3.org/1999/xlink" xmlns:go="http://purl.org/svgmap/profile" viewBox="14000.1196316 -4066.666667 99.8803683999995 66.66666699999979" go:dataArea="14000.1196316 -4066.666667 99.8803683999995 66.66666699999979" >
<metadata>
 <rdf:RDF xmlns:rdf="http://www.w3.org/1999/02/22-rdf-syntax-ns#" xmlns:crs="http://opengis.org/xmldtds/transformations.dtd" xmlns:svg="http://www.w3.org/svg" >
  <rdf:Description>
   <crs:CoordinateReferenceSystem rdf:resource="http://purl.org/crs/84" svg:transform="matrix(100.0,0.0,0.0,-100.0,0.0,0.0)" />
  </rdf:Description>
 </rdf:RDF>
</metadata>
<globalCoordinateSystem srsName="http://purl.org/crs/84" transform="matrix(100.0,0.0,0.0,-100.0,0.0,0.0)" />
<g >
<image xlink:href="tile16_13.png" preserveAspectRatio="none" x="14066.894531" y="-4012.207031" width="4.394531" height="4.394531"/>
<image xlink:href="tile16_12.png" preserveAspectRatio="none" x="14066.894531" y="-4016.601562" width="4.394531" height="4.394531"/>
<image xlink:href="tile16_10.png" preserveAspectRatio="none" x="14066.894531" y="-4025.390625" width="4.394531" height="4.394531"/>
<image xlink:href="tile17_10.png" preserveAspectRatio="none" x="14071.289062" y="-4025.390625" width="4.394531" height="4.394531"/>
<image xlink:href="tile17_9.png" preserveAspectRatio="none" x="14071.289062" y="-4029.785156" width="4.394531" height="4.394531"/>
<image xlink:href="tile17_8.png" preserveAspectRatio="none" x="14071.289062" y="-4034.179688" width="4.394531" height="4.394531"/>
<image xlink:href="tile17_7.png" preserveAspectRatio="none" x="14071.289062" y="-4038.574219" width="4.394531" height="4.394531"/>
<image xlink:href="tile18_14.png" preserveAspectRatio="none" x="14075.683594" y="-4007.8125" width="4.394531" height="4.394531"/>
<image xlink:href="tile18_13.png" preserveAspectRatio="none" x="14075.683594" y="-4012.207031" width="4.394531" height="4.394531"/>
<image xlink:href="tile18_12.png" preserveAspectRatio="none" x="14075.683594" y="-4016.601562" width="4.394531" height="4.394531"/>
<image xlink:href="tile18_11.png" preserveAspectRatio="none" x="14075.683594" y="-4020.996094" width="4.394531" height="4.394531"/>
<image xlink:href="tile18_10.png" preserveAspectRatio="none" x="14075.683594" y="-4025.390625" width="4.394531" height="4.394531"/>
<image xlink:href="tile18_9.png" preserveAspectRatio="none" x="14075.683594" y="-4029.785156" width="4.394531" height="4.394531"/>
<image xlink:href="tile19_14.png" preserveAspectRatio="none" x="14080.078125" y="-4007.8125" width="4.394531" height="4.394531"/>
<image xlink:href="tile19_13.png" preserveAspectRatio="none" x="14080.078125" y="-4012.207031" width="4.394531" height="4.394531"/>
<image xlink:href="tile19_12.png" preserveAspectRatio="none" x="14080.078125" y="-4016.601562" width="4.394531" height="4.394531"/>
<image xlink:href="tile19_11.png" preserveAspectRatio="none" x="14080.078125" y="-4020.996094" width="4.394531" height="4.394531"/>
<image xlink:href="tile19_9.png" preserveAspectRatio="none" x="14080.078125" y="-4029.785156" width="4.394531" height="4.394531"/>
<image xlink:href="tile19_8.png" preserveAspectRatio="none" x="14080.078125" y="-4034.179688" width="4.394531" height="4.394531"/>
<image xlink:href="tile20_13.png" preserveAspectRatio="none" x="14084.472656" y="-4012.207031" width="4.394531" height="4.394531"/>
<image xlink:href="tile20_12.png" preserveAspectRatio="none" x="14084.472656" y="-4016.601562" width="4.394531" height="4.394531"/>
<image xlink:href="tile23_14.png" preserveAspectRatio="none" x="14097.65625" y="-4007.8125" width="4.394531" height="4.394531"/>
<image xlink:href="tile23_9.png" preserveAspectRatio="none" x="14097.65625" y="-4029.785156" width="4.394531" height="4.394531"/>
<image xlink:href="tile23_2.png" preserveAspectRatio="none" x="14097.65625" y="-4060.546875" width="4.394531" height="4.394531"/>
</g>
</svg>
