<?xml version="1.0" encoding="UTF-8"?>
<svg  xmlns="http://www.w3.org/2000/svg" xmlns:xlink="http://www.w3.org/1999/xlink" xmlns:go="http://purl.org/svgmap/profile" viewBox="14342.193750000002 -4400.0 55.68124999999782 66.66666690000014" go:dataArea="14342.193750000002 -4400.0 55.68124999999782 66.66666690000014" >
<metadata>
 <rdf:RDF xmlns:rdf="http://www.w3.org/1999/02/22-rdf-syntax-ns#" xmlns:crs="http://opengis.org/xmldtds/transformations.dtd" xmlns:svg="http://www.w3.org/svg" >
  <rdf:Description>
   <crs:CoordinateReferenceSystem rdf:resource="http://purl.org/crs/84" svg:transform="matrix(100.0,0.0,0.0,-100.0,0.0,0.0)" />
  </rdf:Description>
 </rdf:RDF>
</metadata>
<globalCoordinateSystem srsName="http://purl.org/crs/84" transform="matrix(100.0,0.0,0.0,-100.0,0.0,0.0)" />
<g >
<image xlink:href="tile48_12.png" preserveAspectRatio="none" x="14394.287109" y="-4386.84082" width="1.098633" height="1.098633"/>
<image xlink:href="tile48_11.png" preserveAspectRatio="none" x="14394.287109" y="-4387.939453" width="1.098633" height="1.098633"/>
<image xlink:href="tile48_10.png" preserveAspectRatio="none" x="14394.287109" y="-4389.038086" width="1.098633" height="1.098633"/>
<image xlink:href="tile48_9.png" preserveAspectRatio="none" x="14394.287109" y="-4390.136719" width="1.098633" height="1.098633"/>
<image xlink:href="tile48_6.png" preserveAspectRatio="none" x="14394.287109" y="-4393.432617" width="1.098633" height="1.098633"/>
<image xlink:href="tile48_5.png" preserveAspectRatio="none" x="14394.287109" y="-4394.53125" width="1.098633" height="1.098633"/>
<image xlink:href="tile48_4.png" preserveAspectRatio="none" x="14394.287109" y="-4395.629883" width="1.098633" height="1.098633"/>
<image xlink:href="tile48_3.png" preserveAspectRatio="none" x="14394.287109" y="-4396.728516" width="1.098633" height="1.098633"/>
<image xlink:href="tile48_2.png" preserveAspectRatio="none" x="14394.287109" y="-4397.827148" width="1.098633" height="1.098633"/>
<image xlink:href="tile48_1.png" preserveAspectRatio="none" x="14394.287109" y="-4398.925781" width="1.098633" height="1.098633"/>
<image xlink:href="tile48_0.png" preserveAspectRatio="none" x="14394.287109" y="-4400.024414" width="1.098633" height="1.098633"/>
<image xlink:href="tile49_12.png" preserveAspectRatio="none" x="14395.385742" y="-4386.84082" width="1.098633" height="1.098633"/>
<image xlink:href="tile49_11.png" preserveAspectRatio="none" x="14395.385742" y="-4387.939453" width="1.098633" height="1.098633"/>
<image xlink:href="tile49_10.png" preserveAspectRatio="none" x="14395.385742" y="-4389.038086" width="1.098633" height="1.098633"/>
<image xlink:href="tile49_9.png" preserveAspectRatio="none" x="14395.385742" y="-4390.136719" width="1.098633" height="1.098633"/>
<image xlink:href="tile49_8.png" preserveAspectRatio="none" x="14395.385742" y="-4391.235352" width="1.098633" height="1.098633"/>
<image xlink:href="tile49_6.png" preserveAspectRatio="none" x="14395.385742" y="-4393.432617" width="1.098633" height="1.098633"/>
<image xlink:href="tile49_5.png" preserveAspectRatio="none" x="14395.385742" y="-4394.53125" width="1.098633" height="1.098633"/>
<image xlink:href="tile49_1.png" preserveAspectRatio="none" x="14395.385742" y="-4398.925781" width="1.098633" height="1.098633"/>
<image xlink:href="tile49_0.png" preserveAspectRatio="none" x="14395.385742" y="-4400.024414" width="1.098633" height="1.098633"/>
<image xlink:href="tile50_12.png" preserveAspectRatio="none" x="14396.484375" y="-4386.84082" width="1.098633" height="1.098633"/>
<image xlink:href="tile50_11.png" preserveAspectRatio="none" x="14396.484375" y="-4387.939453" width="1.098633" height="1.098633"/>
<image xlink:href="tile50_10.png" preserveAspectRatio="none" x="14396.484375" y="-4389.038086" width="1.098633" height="1.098633"/>
<image xlink:href="tile50_9.png" preserveAspectRatio="none" x="14396.484375" y="-4390.136719" width="1.098633" height="1.098633"/>
<image xlink:href="tile50_8.png" preserveAspectRatio="none" x="14396.484375" y="-4391.235352" width="1.098633" height="1.098633"/>
<image xlink:href="tile50_7.png" preserveAspectRatio="none" x="14396.484375" y="-4392.333984" width="1.098633" height="1.098633"/>
<image xlink:href="tile50_0.png" preserveAspectRatio="none" x="14396.484375" y="-4400.024414" width="1.098633" height="1.098633"/>
<image xlink:href="tile51_9.png" preserveAspectRatio="none" x="14397.583008" y="-4390.136719" width="1.098633" height="1.098633"/>
<image xlink:href="tile51_7.png" preserveAspectRatio="none" x="14397.583008" y="-4392.333984" width="1.098633" height="1.098633"/>
</g>
</svg>
