<?xml version="1.0" encoding="UTF-8"?>
<svg  xmlns="http://www.w3.org/2000/svg" xmlns:xlink="http://www.w3.org/1999/xlink" xmlns:go="http://purl.org/svgmap/profile" viewBox="13700.0 -3666.666667 100.0 57.041725099999496" go:dataArea="13700.0 -3666.666667 100.0 57.041725099999496" >
<metadata>
 <rdf:RDF xmlns:rdf="http://www.w3.org/1999/02/22-rdf-syntax-ns#" xmlns:crs="http://opengis.org/xmldtds/transformations.dtd" xmlns:svg="http://www.w3.org/svg" >
  <rdf:Description>
   <crs:CoordinateReferenceSystem rdf:resource="http://purl.org/crs/84" svg:transform="matrix(100.0,0.0,0.0,-100.0,0.0,0.0)" />
  </rdf:Description>
 </rdf:RDF>
</metadata>
<globalCoordinateSystem srsName="http://purl.org/crs/84" transform="matrix(100.0,0.0,0.0,-100.0,0.0,0.0)" />
<g >
<image xlink:href="tile37_22.png" preserveAspectRatio="none" x="13781.25" y="-3618.896484" width="2.197266" height="2.197266"/>
<image xlink:href="tile37_21.png" preserveAspectRatio="none" x="13781.25" y="-3621.09375" width="2.197266" height="2.197266"/>
<image xlink:href="tile37_13.png" preserveAspectRatio="none" x="13781.25" y="-3638.671875" width="2.197266" height="2.197266"/>
<image xlink:href="tile37_12.png" preserveAspectRatio="none" x="13781.25" y="-3640.869141" width="2.197266" height="2.197266"/>
<image xlink:href="tile38_21.png" preserveAspectRatio="none" x="13783.447266" y="-3621.09375" width="2.197266" height="2.197266"/>
<image xlink:href="tile38_20.png" preserveAspectRatio="none" x="13783.447266" y="-3623.291016" width="2.197266" height="2.197266"/>
<image xlink:href="tile38_19.png" preserveAspectRatio="none" x="13783.447266" y="-3625.488281" width="2.197266" height="2.197266"/>
<image xlink:href="tile38_13.png" preserveAspectRatio="none" x="13783.447266" y="-3638.671875" width="2.197266" height="2.197266"/>
<image xlink:href="tile38_12.png" preserveAspectRatio="none" x="13783.447266" y="-3640.869141" width="2.197266" height="2.197266"/>
<image xlink:href="tile38_11.png" preserveAspectRatio="none" x="13783.447266" y="-3643.066406" width="2.197266" height="2.197266"/>
<image xlink:href="tile39_21.png" preserveAspectRatio="none" x="13785.644531" y="-3621.09375" width="2.197266" height="2.197266"/>
<image xlink:href="tile39_20.png" preserveAspectRatio="none" x="13785.644531" y="-3623.291016" width="2.197266" height="2.197266"/>
<image xlink:href="tile39_19.png" preserveAspectRatio="none" x="13785.644531" y="-3625.488281" width="2.197266" height="2.197266"/>
<image xlink:href="tile39_18.png" preserveAspectRatio="none" x="13785.644531" y="-3627.685547" width="2.197266" height="2.197266"/>
<image xlink:href="tile39_17.png" preserveAspectRatio="none" x="13785.644531" y="-3629.882812" width="2.197266" height="2.197266"/>
<image xlink:href="tile39_14.png" preserveAspectRatio="none" x="13785.644531" y="-3636.474609" width="2.197266" height="2.197266"/>
<image xlink:href="tile39_13.png" preserveAspectRatio="none" x="13785.644531" y="-3638.671875" width="2.197266" height="2.197266"/>
<image xlink:href="tile39_12.png" preserveAspectRatio="none" x="13785.644531" y="-3640.869141" width="2.197266" height="2.197266"/>
<image xlink:href="tile39_11.png" preserveAspectRatio="none" x="13785.644531" y="-3643.066406" width="2.197266" height="2.197266"/>
<image xlink:href="tile40_20.png" preserveAspectRatio="none" x="13787.841797" y="-3623.291016" width="2.197266" height="2.197266"/>
<image xlink:href="tile40_19.png" preserveAspectRatio="none" x="13787.841797" y="-3625.488281" width="2.197266" height="2.197266"/>
<image xlink:href="tile40_18.png" preserveAspectRatio="none" x="13787.841797" y="-3627.685547" width="2.197266" height="2.197266"/>
<image xlink:href="tile40_17.png" preserveAspectRatio="none" x="13787.841797" y="-3629.882812" width="2.197266" height="2.197266"/>
<image xlink:href="tile40_16.png" preserveAspectRatio="none" x="13787.841797" y="-3632.080078" width="2.197266" height="2.197266"/>
<image xlink:href="tile40_15.png" preserveAspectRatio="none" x="13787.841797" y="-3634.277344" width="2.197266" height="2.197266"/>
<image xlink:href="tile40_14.png" preserveAspectRatio="none" x="13787.841797" y="-3636.474609" width="2.197266" height="2.197266"/>
<image xlink:href="tile40_13.png" preserveAspectRatio="none" x="13787.841797" y="-3638.671875" width="2.197266" height="2.197266"/>
<image xlink:href="tile40_12.png" preserveAspectRatio="none" x="13787.841797" y="-3640.869141" width="2.197266" height="2.197266"/>
<image xlink:href="tile40_11.png" preserveAspectRatio="none" x="13787.841797" y="-3643.066406" width="2.197266" height="2.197266"/>
<image xlink:href="tile41_26.png" preserveAspectRatio="none" x="13790.039062" y="-3610.107422" width="2.197266" height="2.197266"/>
<image xlink:href="tile41_25.png" preserveAspectRatio="none" x="13790.039062" y="-3612.304688" width="2.197266" height="2.197266"/>
<image xlink:href="tile41_20.png" preserveAspectRatio="none" x="13790.039062" y="-3623.291016" width="2.197266" height="2.197266"/>
<image xlink:href="tile41_19.png" preserveAspectRatio="none" x="13790.039062" y="-3625.488281" width="2.197266" height="2.197266"/>
<image xlink:href="tile41_18.png" preserveAspectRatio="none" x="13790.039062" y="-3627.685547" width="2.197266" height="2.197266"/>
<image xlink:href="tile41_17.png" preserveAspectRatio="none" x="13790.039062" y="-3629.882812" width="2.197266" height="2.197266"/>
<image xlink:href="tile41_16.png" preserveAspectRatio="none" x="13790.039062" y="-3632.080078" width="2.197266" height="2.197266"/>
<image xlink:href="tile41_15.png" preserveAspectRatio="none" x="13790.039062" y="-3634.277344" width="2.197266" height="2.197266"/>
<image xlink:href="tile41_14.png" preserveAspectRatio="none" x="13790.039062" y="-3636.474609" width="2.197266" height="2.197266"/>
<image xlink:href="tile41_13.png" preserveAspectRatio="none" x="13790.039062" y="-3638.671875" width="2.197266" height="2.197266"/>
<image xlink:href="tile41_12.png" preserveAspectRatio="none" x="13790.039062" y="-3640.869141" width="2.197266" height="2.197266"/>
<image xlink:href="tile41_11.png" preserveAspectRatio="none" x="13790.039062" y="-3643.066406" width="2.197266" height="2.197266"/>
<image xlink:href="tile42_25.png" preserveAspectRatio="none" x="13792.236328" y="-3612.304688" width="2.197266" height="2.197266"/>
<image xlink:href="tile42_24.png" preserveAspectRatio="none" x="13792.236328" y="-3614.501953" width="2.197266" height="2.197266"/>
<image xlink:href="tile42_23.png" preserveAspectRatio="none" x="13792.236328" y="-3616.699219" width="2.197266" height="2.197266"/>
<image xlink:href="tile42_22.png" preserveAspectRatio="none" x="13792.236328" y="-3618.896484" width="2.197266" height="2.197266"/>
<image xlink:href="tile42_21.png" preserveAspectRatio="none" x="13792.236328" y="-3621.09375" width="2.197266" height="2.197266"/>
<image xlink:href="tile42_20.png" preserveAspectRatio="none" x="13792.236328" y="-3623.291016" width="2.197266" height="2.197266"/>
<image xlink:href="tile42_19.png" preserveAspectRatio="none" x="13792.236328" y="-3625.488281" width="2.197266" height="2.197266"/>
<image xlink:href="tile42_18.png" preserveAspectRatio="none" x="13792.236328" y="-3627.685547" width="2.197266" height="2.197266"/>
<image xlink:href="tile42_17.png" preserveAspectRatio="none" x="13792.236328" y="-3629.882812" width="2.197266" height="2.197266"/>
<image xlink:href="tile42_16.png" preserveAspectRatio="none" x="13792.236328" y="-3632.080078" width="2.197266" height="2.197266"/>
<image xlink:href="tile42_15.png" preserveAspectRatio="none" x="13792.236328" y="-3634.277344" width="2.197266" height="2.197266"/>
<image xlink:href="tile42_14.png" preserveAspectRatio="none" x="13792.236328" y="-3636.474609" width="2.197266" height="2.197266"/>
<image xlink:href="tile42_13.png" preserveAspectRatio="none" x="13792.236328" y="-3638.671875" width="2.197266" height="2.197266"/>
<image xlink:href="tile42_12.png" preserveAspectRatio="none" x="13792.236328" y="-3640.869141" width="2.197266" height="2.197266"/>
<image xlink:href="tile42_11.png" preserveAspectRatio="none" x="13792.236328" y="-3643.066406" width="2.197266" height="2.197266"/>
<image xlink:href="tile43_25.png" preserveAspectRatio="none" x="13794.433594" y="-3612.304688" width="2.197266" height="2.197266"/>
<image xlink:href="tile43_24.png" preserveAspectRatio="none" x="13794.433594" y="-3614.501953" width="2.197266" height="2.197266"/>
<image xlink:href="tile43_23.png" preserveAspectRatio="none" x="13794.433594" y="-3616.699219" width="2.197266" height="2.197266"/>
<image xlink:href="tile43_22.png" preserveAspectRatio="none" x="13794.433594" y="-3618.896484" width="2.197266" height="2.197266"/>
<image xlink:href="tile43_21.png" preserveAspectRatio="none" x="13794.433594" y="-3621.09375" width="2.197266" height="2.197266"/>
<image xlink:href="tile43_20.png" preserveAspectRatio="none" x="13794.433594" y="-3623.291016" width="2.197266" height="2.197266"/>
<image xlink:href="tile43_19.png" preserveAspectRatio="none" x="13794.433594" y="-3625.488281" width="2.197266" height="2.197266"/>
<image xlink:href="tile43_18.png" preserveAspectRatio="none" x="13794.433594" y="-3627.685547" width="2.197266" height="2.197266"/>
<image xlink:href="tile44_25.png" preserveAspectRatio="none" x="13796.630859" y="-3612.304688" width="2.197266" height="2.197266"/>
<image xlink:href="tile44_24.png" preserveAspectRatio="none" x="13796.630859" y="-3614.501953" width="2.197266" height="2.197266"/>
<image xlink:href="tile44_23.png" preserveAspectRatio="none" x="13796.630859" y="-3616.699219" width="2.197266" height="2.197266"/>
<image xlink:href="tile44_22.png" preserveAspectRatio="none" x="13796.630859" y="-3618.896484" width="2.197266" height="2.197266"/>
<image xlink:href="tile44_21.png" preserveAspectRatio="none" x="13796.630859" y="-3621.09375" width="2.197266" height="2.197266"/>
<image xlink:href="tile44_20.png" preserveAspectRatio="none" x="13796.630859" y="-3623.291016" width="2.197266" height="2.197266"/>
<image xlink:href="tile44_19.png" preserveAspectRatio="none" x="13796.630859" y="-3625.488281" width="2.197266" height="2.197266"/>
<image xlink:href="tile44_18.png" preserveAspectRatio="none" x="13796.630859" y="-3627.685547" width="2.197266" height="2.197266"/>
<image xlink:href="tile44_17.png" preserveAspectRatio="none" x="13796.630859" y="-3629.882812" width="2.197266" height="2.197266"/>
<image xlink:href="tile45_20.png" preserveAspectRatio="none" x="13798.828125" y="-3623.291016" width="2.197266" height="2.197266"/>
<image xlink:href="tile45_19.png" preserveAspectRatio="none" x="13798.828125" y="-3625.488281" width="2.197266" height="2.197266"/>
<image xlink:href="tile45_18.png" preserveAspectRatio="none" x="13798.828125" y="-3627.685547" width="2.197266" height="2.197266"/>
</g>
</svg>
