<?xml version="1.0" encoding="UTF-8"?>
<svg  xmlns="http://www.w3.org/2000/svg" xmlns:xlink="http://www.w3.org/1999/xlink" xmlns:go="http://purl.org/svgmap/profile" viewBox="13700.0 -3666.666667 100.0 57.041725099999496" go:dataArea="13700.0 -3666.666667 100.0 57.041725099999496" >
<metadata>
 <rdf:RDF xmlns:rdf="http://www.w3.org/1999/02/22-rdf-syntax-ns#" xmlns:crs="http://opengis.org/xmldtds/transformations.dtd" xmlns:svg="http://www.w3.org/svg" >
  <rdf:Description>
   <crs:CoordinateReferenceSystem rdf:resource="http://purl.org/crs/84" svg:transform="matrix(100.0,0.0,0.0,-100.0,0.0,0.0)" />
  </rdf:Description>
 </rdf:RDF>
</metadata>
<globalCoordinateSystem srsName="http://purl.org/crs/84" transform="matrix(100.0,0.0,0.0,-100.0,0.0,0.0)" />
<g >
<image xlink:href="tile36_7.png" preserveAspectRatio="none" x="13779.052734" y="-3651.855469" width="2.197266" height="2.197266"/>
<image xlink:href="tile37_9.png" preserveAspectRatio="none" x="13781.25" y="-3647.460938" width="2.197266" height="2.197266"/>
<image xlink:href="tile37_8.png" preserveAspectRatio="none" x="13781.25" y="-3649.658203" width="2.197266" height="2.197266"/>
<image xlink:href="tile37_7.png" preserveAspectRatio="none" x="13781.25" y="-3651.855469" width="2.197266" height="2.197266"/>
<image xlink:href="tile38_10.png" preserveAspectRatio="none" x="13783.447266" y="-3645.263672" width="2.197266" height="2.197266"/>
<image xlink:href="tile38_9.png" preserveAspectRatio="none" x="13783.447266" y="-3647.460938" width="2.197266" height="2.197266"/>
<image xlink:href="tile38_8.png" preserveAspectRatio="none" x="13783.447266" y="-3649.658203" width="2.197266" height="2.197266"/>
<image xlink:href="tile38_7.png" preserveAspectRatio="none" x="13783.447266" y="-3651.855469" width="2.197266" height="2.197266"/>
<image xlink:href="tile38_1.png" preserveAspectRatio="none" x="13783.447266" y="-3665.039062" width="2.197266" height="2.197266"/>
<image xlink:href="tile38_0.png" preserveAspectRatio="none" x="13783.447266" y="-3667.236328" width="2.197266" height="2.197266"/>
<image xlink:href="tile39_10.png" preserveAspectRatio="none" x="13785.644531" y="-3645.263672" width="2.197266" height="2.197266"/>
<image xlink:href="tile39_9.png" preserveAspectRatio="none" x="13785.644531" y="-3647.460938" width="2.197266" height="2.197266"/>
<image xlink:href="tile39_8.png" preserveAspectRatio="none" x="13785.644531" y="-3649.658203" width="2.197266" height="2.197266"/>
<image xlink:href="tile39_7.png" preserveAspectRatio="none" x="13785.644531" y="-3651.855469" width="2.197266" height="2.197266"/>
<image xlink:href="tile41_10.png" preserveAspectRatio="none" x="13790.039062" y="-3645.263672" width="2.197266" height="2.197266"/>
<image xlink:href="tile42_10.png" preserveAspectRatio="none" x="13792.236328" y="-3645.263672" width="2.197266" height="2.197266"/>
<image xlink:href="tile42_9.png" preserveAspectRatio="none" x="13792.236328" y="-3647.460938" width="2.197266" height="2.197266"/>
<image xlink:href="tile43_10.png" preserveAspectRatio="none" x="13794.433594" y="-3645.263672" width="2.197266" height="2.197266"/>
<image xlink:href="tile43_9.png" preserveAspectRatio="none" x="13794.433594" y="-3647.460938" width="2.197266" height="2.197266"/>
<image xlink:href="tile43_8.png" preserveAspectRatio="none" x="13794.433594" y="-3649.658203" width="2.197266" height="2.197266"/>
<image xlink:href="tile43_7.png" preserveAspectRatio="none" x="13794.433594" y="-3651.855469" width="2.197266" height="2.197266"/>
<image xlink:href="tile43_6.png" preserveAspectRatio="none" x="13794.433594" y="-3654.052734" width="2.197266" height="2.197266"/>
<image xlink:href="tile43_5.png" preserveAspectRatio="none" x="13794.433594" y="-3656.25" width="2.197266" height="2.197266"/>
<image xlink:href="tile44_6.png" preserveAspectRatio="none" x="13796.630859" y="-3654.052734" width="2.197266" height="2.197266"/>
<image xlink:href="tile44_5.png" preserveAspectRatio="none" x="13796.630859" y="-3656.25" width="2.197266" height="2.197266"/>
<image xlink:href="tile45_5.png" preserveAspectRatio="none" x="13798.828125" y="-3656.25" width="2.197266" height="2.197266"/>
<image xlink:href="tile45_4.png" preserveAspectRatio="none" x="13798.828125" y="-3658.447266" width="2.197266" height="2.197266"/>
</g>
</svg>
