<?xml version="1.0" encoding="UTF-8"?>
<svg  xmlns="http://www.w3.org/2000/svg" xmlns:xlink="http://www.w3.org/1999/xlink" xmlns:go="http://purl.org/svgmap/profile" viewBox="14400.343749999998 -4333.3333330000005 71.875 36.63749970000012" go:dataArea="14400.343749999998 -4333.3333330000005 71.875 36.63749970000012" >
<metadata>
 <rdf:RDF xmlns:rdf="http://www.w3.org/1999/02/22-rdf-syntax-ns#" xmlns:crs="http://opengis.org/xmldtds/transformations.dtd" xmlns:svg="http://www.w3.org/svg" >
  <rdf:Description>
   <crs:CoordinateReferenceSystem rdf:resource="http://purl.org/crs/84" svg:transform="matrix(100.0,0.0,0.0,-100.0,0.0,0.0)" />
  </rdf:Description>
 </rdf:RDF>
</metadata>
<globalCoordinateSystem srsName="http://purl.org/crs/84" transform="matrix(100.0,0.0,0.0,-100.0,0.0,0.0)" />
<g >
<image xlink:href="tile0_3.png" preserveAspectRatio="none" x="14396.484375" y="-4315.429688" width="8.789062" height="8.789062"/>
<image xlink:href="tile0_2.png" preserveAspectRatio="none" x="14396.484375" y="-4324.21875" width="8.789062" height="8.789062"/>
<image xlink:href="tile1_5.png" preserveAspectRatio="none" x="14405.273438" y="-4297.851562" width="8.789062" height="8.789062"/>
<image xlink:href="tile1_4.png" preserveAspectRatio="none" x="14405.273438" y="-4306.640625" width="8.789062" height="8.789062"/>
<image xlink:href="tile1_3.png" preserveAspectRatio="none" x="14405.273438" y="-4315.429688" width="8.789062" height="8.789062"/>
<image xlink:href="tile2_5.png" preserveAspectRatio="none" x="14414.0625" y="-4297.851562" width="8.789062" height="8.789062"/>
<image xlink:href="tile2_4.png" preserveAspectRatio="none" x="14414.0625" y="-4306.640625" width="8.789062" height="8.789062"/>
<image xlink:href="tile4_5.png" preserveAspectRatio="none" x="14431.640625" y="-4297.851562" width="8.789062" height="8.789062"/>
<image xlink:href="tile4_4.png" preserveAspectRatio="none" x="14431.640625" y="-4306.640625" width="8.789062" height="8.789062"/>
<image xlink:href="tile4_3.png" preserveAspectRatio="none" x="14431.640625" y="-4315.429688" width="8.789062" height="8.789062"/>
<image xlink:href="tile5_5.png" preserveAspectRatio="none" x="14440.429688" y="-4297.851562" width="8.789062" height="8.789062"/>
<image xlink:href="tile5_4.png" preserveAspectRatio="none" x="14440.429688" y="-4306.640625" width="8.789062" height="8.789062"/>
<image xlink:href="tile5_3.png" preserveAspectRatio="none" x="14440.429688" y="-4315.429688" width="8.789062" height="8.789062"/>
<image xlink:href="tile5_2.png" preserveAspectRatio="none" x="14440.429688" y="-4324.21875" width="8.789062" height="8.789062"/>
<image xlink:href="tile5_1.png" preserveAspectRatio="none" x="14440.429688" y="-4333.007812" width="8.789062" height="8.789062"/>
<image xlink:href="tile5_0.png" preserveAspectRatio="none" x="14440.429688" y="-4341.796875" width="8.789062" height="8.789062"/>
<image xlink:href="tile6_4.png" preserveAspectRatio="none" x="14449.21875" y="-4306.640625" width="8.789062" height="8.789062"/>
<image xlink:href="tile6_2.png" preserveAspectRatio="none" x="14449.21875" y="-4324.21875" width="8.789062" height="8.789062"/>
<image xlink:href="tile6_1.png" preserveAspectRatio="none" x="14449.21875" y="-4333.007812" width="8.789062" height="8.789062"/>
<image xlink:href="tile6_0.png" preserveAspectRatio="none" x="14449.21875" y="-4341.796875" width="8.789062" height="8.789062"/>
<image xlink:href="tile7_4.png" preserveAspectRatio="none" x="14458.007812" y="-4306.640625" width="8.789062" height="8.789062"/>
<image xlink:href="tile7_1.png" preserveAspectRatio="none" x="14458.007812" y="-4333.007812" width="8.789062" height="8.789062"/>
<image xlink:href="tile7_0.png" preserveAspectRatio="none" x="14458.007812" y="-4341.796875" width="8.789062" height="8.789062"/>
<image xlink:href="tile8_4.png" preserveAspectRatio="none" x="14466.796875" y="-4306.640625" width="8.789062" height="8.789062"/>
</g>
</svg>
