<?xml version="1.0" encoding="UTF-8"?>
<svg  xmlns="http://www.w3.org/2000/svg" xmlns:xlink="http://www.w3.org/1999/xlink" xmlns:go="http://purl.org/svgmap/profile" viewBox="13800.0 -3600.0 100.0 66.47917579999998" go:dataArea="13800.0 -3600.0 100.0 66.47917579999998" >
<metadata>
 <rdf:RDF xmlns:rdf="http://www.w3.org/1999/02/22-rdf-syntax-ns#" xmlns:crs="http://opengis.org/xmldtds/transformations.dtd" xmlns:svg="http://www.w3.org/svg" >
  <rdf:Description>
   <crs:CoordinateReferenceSystem rdf:resource="http://purl.org/crs/84" svg:transform="matrix(100.0,0.0,0.0,-100.0,0.0,0.0)" />
  </rdf:Description>
 </rdf:RDF>
</metadata>
<globalCoordinateSystem srsName="http://purl.org/crs/84" transform="matrix(100.0,0.0,0.0,-100.0,0.0,0.0)" />
<g >
<image xlink:href="tile32_16.png" preserveAspectRatio="none" x="13869.140625" y="-3566.162109" width="2.197266" height="2.197266"/>
<image xlink:href="tile32_15.png" preserveAspectRatio="none" x="13869.140625" y="-3568.359375" width="2.197266" height="2.197266"/>
<image xlink:href="tile33_16.png" preserveAspectRatio="none" x="13871.337891" y="-3566.162109" width="2.197266" height="2.197266"/>
<image xlink:href="tile33_15.png" preserveAspectRatio="none" x="13871.337891" y="-3568.359375" width="2.197266" height="2.197266"/>
<image xlink:href="tile35_25.png" preserveAspectRatio="none" x="13875.732422" y="-3546.386719" width="2.197266" height="2.197266"/>
<image xlink:href="tile35_24.png" preserveAspectRatio="none" x="13875.732422" y="-3548.583984" width="2.197266" height="2.197266"/>
<image xlink:href="tile36_24.png" preserveAspectRatio="none" x="13877.929688" y="-3548.583984" width="2.197266" height="2.197266"/>
<image xlink:href="tile36_23.png" preserveAspectRatio="none" x="13877.929688" y="-3550.78125" width="2.197266" height="2.197266"/>
<image xlink:href="tile37_25.png" preserveAspectRatio="none" x="13880.126953" y="-3546.386719" width="2.197266" height="2.197266"/>
<image xlink:href="tile37_24.png" preserveAspectRatio="none" x="13880.126953" y="-3548.583984" width="2.197266" height="2.197266"/>
<image xlink:href="tile37_23.png" preserveAspectRatio="none" x="13880.126953" y="-3550.78125" width="2.197266" height="2.197266"/>
<image xlink:href="tile38_25.png" preserveAspectRatio="none" x="13882.324219" y="-3546.386719" width="2.197266" height="2.197266"/>
<image xlink:href="tile38_24.png" preserveAspectRatio="none" x="13882.324219" y="-3548.583984" width="2.197266" height="2.197266"/>
<image xlink:href="tile38_23.png" preserveAspectRatio="none" x="13882.324219" y="-3550.78125" width="2.197266" height="2.197266"/>
<image xlink:href="tile38_22.png" preserveAspectRatio="none" x="13882.324219" y="-3552.978516" width="2.197266" height="2.197266"/>
<image xlink:href="tile39_26.png" preserveAspectRatio="none" x="13884.521484" y="-3544.189453" width="2.197266" height="2.197266"/>
<image xlink:href="tile39_25.png" preserveAspectRatio="none" x="13884.521484" y="-3546.386719" width="2.197266" height="2.197266"/>
<image xlink:href="tile39_24.png" preserveAspectRatio="none" x="13884.521484" y="-3548.583984" width="2.197266" height="2.197266"/>
<image xlink:href="tile39_22.png" preserveAspectRatio="none" x="13884.521484" y="-3552.978516" width="2.197266" height="2.197266"/>
<image xlink:href="tile39_21.png" preserveAspectRatio="none" x="13884.521484" y="-3555.175781" width="2.197266" height="2.197266"/>
<image xlink:href="tile40_22.png" preserveAspectRatio="none" x="13886.71875" y="-3552.978516" width="2.197266" height="2.197266"/>
<image xlink:href="tile40_21.png" preserveAspectRatio="none" x="13886.71875" y="-3555.175781" width="2.197266" height="2.197266"/>
<image xlink:href="tile41_21.png" preserveAspectRatio="none" x="13888.916016" y="-3555.175781" width="2.197266" height="2.197266"/>
<image xlink:href="tile41_20.png" preserveAspectRatio="none" x="13888.916016" y="-3557.373047" width="2.197266" height="2.197266"/>
<image xlink:href="tile42_19.png" preserveAspectRatio="none" x="13891.113281" y="-3559.570312" width="2.197266" height="2.197266"/>
<image xlink:href="tile42_18.png" preserveAspectRatio="none" x="13891.113281" y="-3561.767578" width="2.197266" height="2.197266"/>
<image xlink:href="tile43_19.png" preserveAspectRatio="none" x="13893.310547" y="-3559.570312" width="2.197266" height="2.197266"/>
<image xlink:href="tile43_18.png" preserveAspectRatio="none" x="13893.310547" y="-3561.767578" width="2.197266" height="2.197266"/>
<image xlink:href="tile44_18.png" preserveAspectRatio="none" x="13895.507812" y="-3561.767578" width="2.197266" height="2.197266"/>
<image xlink:href="tile45_30.png" preserveAspectRatio="none" x="13897.705078" y="-3535.400391" width="2.197266" height="2.197266"/>
<image xlink:href="tile45_29.png" preserveAspectRatio="none" x="13897.705078" y="-3537.597656" width="2.197266" height="2.197266"/>
<image xlink:href="tile45_18.png" preserveAspectRatio="none" x="13897.705078" y="-3561.767578" width="2.197266" height="2.197266"/>
<image xlink:href="tile46_29.png" preserveAspectRatio="none" x="13899.902344" y="-3537.597656" width="2.197266" height="2.197266"/>
</g>
</svg>
