<?xml version="1.0" encoding="UTF-8"?>
<svg  xmlns="http://www.w3.org/2000/svg" xmlns:xlink="http://www.w3.org/1999/xlink" xmlns:go="http://purl.org/svgmap/profile" viewBox="13800.0 -3600.0 100.0 66.47917579999998" go:dataArea="13800.0 -3600.0 100.0 66.47917579999998" >
<metadata>
 <rdf:RDF xmlns:rdf="http://www.w3.org/1999/02/22-rdf-syntax-ns#" xmlns:crs="http://opengis.org/xmldtds/transformations.dtd" xmlns:svg="http://www.w3.org/svg" >
  <rdf:Description>
   <crs:CoordinateReferenceSystem rdf:resource="http://purl.org/crs/84" svg:transform="matrix(100.0,0.0,0.0,-100.0,0.0,0.0)" />
  </rdf:Description>
 </rdf:RDF>
</metadata>
<globalCoordinateSystem srsName="http://purl.org/crs/84" transform="matrix(100.0,0.0,0.0,-100.0,0.0,0.0)" />
<g >
<image xlink:href="tile16_9.png" preserveAspectRatio="none" x="13833.984375" y="-3581.542969" width="2.197266" height="2.197266"/>
<image xlink:href="tile17_10.png" preserveAspectRatio="none" x="13836.181641" y="-3579.345703" width="2.197266" height="2.197266"/>
<image xlink:href="tile17_9.png" preserveAspectRatio="none" x="13836.181641" y="-3581.542969" width="2.197266" height="2.197266"/>
<image xlink:href="tile18_12.png" preserveAspectRatio="none" x="13838.378906" y="-3574.951172" width="2.197266" height="2.197266"/>
<image xlink:href="tile18_11.png" preserveAspectRatio="none" x="13838.378906" y="-3577.148438" width="2.197266" height="2.197266"/>
<image xlink:href="tile18_10.png" preserveAspectRatio="none" x="13838.378906" y="-3579.345703" width="2.197266" height="2.197266"/>
<image xlink:href="tile19_13.png" preserveAspectRatio="none" x="13840.576172" y="-3572.753906" width="2.197266" height="2.197266"/>
<image xlink:href="tile19_12.png" preserveAspectRatio="none" x="13840.576172" y="-3574.951172" width="2.197266" height="2.197266"/>
<image xlink:href="tile19_11.png" preserveAspectRatio="none" x="13840.576172" y="-3577.148438" width="2.197266" height="2.197266"/>
<image xlink:href="tile19_10.png" preserveAspectRatio="none" x="13840.576172" y="-3579.345703" width="2.197266" height="2.197266"/>
<image xlink:href="tile20_14.png" preserveAspectRatio="none" x="13842.773438" y="-3570.556641" width="2.197266" height="2.197266"/>
<image xlink:href="tile20_13.png" preserveAspectRatio="none" x="13842.773438" y="-3572.753906" width="2.197266" height="2.197266"/>
<image xlink:href="tile20_12.png" preserveAspectRatio="none" x="13842.773438" y="-3574.951172" width="2.197266" height="2.197266"/>
<image xlink:href="tile20_11.png" preserveAspectRatio="none" x="13842.773438" y="-3577.148438" width="2.197266" height="2.197266"/>
<image xlink:href="tile20_10.png" preserveAspectRatio="none" x="13842.773438" y="-3579.345703" width="2.197266" height="2.197266"/>
<image xlink:href="tile20_9.png" preserveAspectRatio="none" x="13842.773438" y="-3581.542969" width="2.197266" height="2.197266"/>
<image xlink:href="tile21_14.png" preserveAspectRatio="none" x="13844.970703" y="-3570.556641" width="2.197266" height="2.197266"/>
<image xlink:href="tile21_13.png" preserveAspectRatio="none" x="13844.970703" y="-3572.753906" width="2.197266" height="2.197266"/>
<image xlink:href="tile21_12.png" preserveAspectRatio="none" x="13844.970703" y="-3574.951172" width="2.197266" height="2.197266"/>
<image xlink:href="tile22_14.png" preserveAspectRatio="none" x="13847.167969" y="-3570.556641" width="2.197266" height="2.197266"/>
<image xlink:href="tile23_14.png" preserveAspectRatio="none" x="13849.365234" y="-3570.556641" width="2.197266" height="2.197266"/>
<image xlink:href="tile23_1.png" preserveAspectRatio="none" x="13849.365234" y="-3599.121094" width="2.197266" height="2.197266"/>
<image xlink:href="tile23_0.png" preserveAspectRatio="none" x="13849.365234" y="-3601.318359" width="2.197266" height="2.197266"/>
<image xlink:href="tile24_14.png" preserveAspectRatio="none" x="13851.5625" y="-3570.556641" width="2.197266" height="2.197266"/>
<image xlink:href="tile24_1.png" preserveAspectRatio="none" x="13851.5625" y="-3599.121094" width="2.197266" height="2.197266"/>
<image xlink:href="tile24_0.png" preserveAspectRatio="none" x="13851.5625" y="-3601.318359" width="2.197266" height="2.197266"/>
<image xlink:href="tile25_14.png" preserveAspectRatio="none" x="13853.759766" y="-3570.556641" width="2.197266" height="2.197266"/>
<image xlink:href="tile25_2.png" preserveAspectRatio="none" x="13853.759766" y="-3596.923828" width="2.197266" height="2.197266"/>
<image xlink:href="tile25_1.png" preserveAspectRatio="none" x="13853.759766" y="-3599.121094" width="2.197266" height="2.197266"/>
<image xlink:href="tile26_14.png" preserveAspectRatio="none" x="13855.957031" y="-3570.556641" width="2.197266" height="2.197266"/>
<image xlink:href="tile26_1.png" preserveAspectRatio="none" x="13855.957031" y="-3599.121094" width="2.197266" height="2.197266"/>
<image xlink:href="tile27_1.png" preserveAspectRatio="none" x="13858.154297" y="-3599.121094" width="2.197266" height="2.197266"/>
<image xlink:href="tile28_2.png" preserveAspectRatio="none" x="13860.351562" y="-3596.923828" width="2.197266" height="2.197266"/>
<image xlink:href="tile28_1.png" preserveAspectRatio="none" x="13860.351562" y="-3599.121094" width="2.197266" height="2.197266"/>
<image xlink:href="tile29_2.png" preserveAspectRatio="none" x="13862.548828" y="-3596.923828" width="2.197266" height="2.197266"/>
<image xlink:href="tile29_1.png" preserveAspectRatio="none" x="13862.548828" y="-3599.121094" width="2.197266" height="2.197266"/>
<image xlink:href="tile30_14.png" preserveAspectRatio="none" x="13864.746094" y="-3570.556641" width="2.197266" height="2.197266"/>
<image xlink:href="tile30_2.png" preserveAspectRatio="none" x="13864.746094" y="-3596.923828" width="2.197266" height="2.197266"/>
<image xlink:href="tile31_14.png" preserveAspectRatio="none" x="13866.943359" y="-3570.556641" width="2.197266" height="2.197266"/>
<image xlink:href="tile31_2.png" preserveAspectRatio="none" x="13866.943359" y="-3596.923828" width="2.197266" height="2.197266"/>
</g>
</svg>
