<?xml version="1.0" encoding="UTF-8"?>
<svg  xmlns="http://www.w3.org/2000/svg" xmlns:xlink="http://www.w3.org/1999/xlink" xmlns:go="http://purl.org/svgmap/profile" viewBox="14400.343749999998 -4333.3333330000005 71.875 36.63749970000012" go:dataArea="14400.343749999998 -4333.3333330000005 71.875 36.63749970000012" >
<metadata>
 <rdf:RDF xmlns:rdf="http://www.w3.org/1999/02/22-rdf-syntax-ns#" xmlns:crs="http://opengis.org/xmldtds/transformations.dtd" xmlns:svg="http://www.w3.org/svg" >
  <rdf:Description>
   <crs:CoordinateReferenceSystem rdf:resource="http://purl.org/crs/84" svg:transform="matrix(100.0,0.0,0.0,-100.0,0.0,0.0)" />
  </rdf:Description>
 </rdf:RDF>
</metadata>
<globalCoordinateSystem srsName="http://purl.org/crs/84" transform="matrix(100.0,0.0,0.0,-100.0,0.0,0.0)" />
<g >
<image xlink:href="tile2_19.png" preserveAspectRatio="none" x="14401.977539" y="-4313.232422" width="1.098633" height="1.098633"/>
<image xlink:href="tile3_21.png" preserveAspectRatio="none" x="14403.076172" y="-4311.035156" width="1.098633" height="1.098633"/>
<image xlink:href="tile3_20.png" preserveAspectRatio="none" x="14403.076172" y="-4312.133789" width="1.098633" height="1.098633"/>
<image xlink:href="tile3_19.png" preserveAspectRatio="none" x="14403.076172" y="-4313.232422" width="1.098633" height="1.098633"/>
<image xlink:href="tile4_22.png" preserveAspectRatio="none" x="14404.174805" y="-4309.936523" width="1.098633" height="1.098633"/>
<image xlink:href="tile4_21.png" preserveAspectRatio="none" x="14404.174805" y="-4311.035156" width="1.098633" height="1.098633"/>
<image xlink:href="tile5_23.png" preserveAspectRatio="none" x="14405.273438" y="-4308.837891" width="1.098633" height="1.098633"/>
<image xlink:href="tile6_24.png" preserveAspectRatio="none" x="14406.37207" y="-4307.739258" width="1.098633" height="1.098633"/>
<image xlink:href="tile6_23.png" preserveAspectRatio="none" x="14406.37207" y="-4308.837891" width="1.098633" height="1.098633"/>
<image xlink:href="tile7_27.png" preserveAspectRatio="none" x="14407.470703" y="-4304.443359" width="1.098633" height="1.098633"/>
<image xlink:href="tile7_26.png" preserveAspectRatio="none" x="14407.470703" y="-4305.541992" width="1.098633" height="1.098633"/>
<image xlink:href="tile7_25.png" preserveAspectRatio="none" x="14407.470703" y="-4306.640625" width="1.098633" height="1.098633"/>
<image xlink:href="tile7_24.png" preserveAspectRatio="none" x="14407.470703" y="-4307.739258" width="1.098633" height="1.098633"/>
<image xlink:href="tile8_28.png" preserveAspectRatio="none" x="14408.569336" y="-4303.344727" width="1.098633" height="1.098633"/>
<image xlink:href="tile8_27.png" preserveAspectRatio="none" x="14408.569336" y="-4304.443359" width="1.098633" height="1.098633"/>
<image xlink:href="tile9_29.png" preserveAspectRatio="none" x="14409.667969" y="-4302.246094" width="1.098633" height="1.098633"/>
<image xlink:href="tile9_28.png" preserveAspectRatio="none" x="14409.667969" y="-4303.344727" width="1.098633" height="1.098633"/>
<image xlink:href="tile9_27.png" preserveAspectRatio="none" x="14409.667969" y="-4304.443359" width="1.098633" height="1.098633"/>
<image xlink:href="tile10_30.png" preserveAspectRatio="none" x="14410.766602" y="-4301.147461" width="1.098633" height="1.098633"/>
<image xlink:href="tile10_29.png" preserveAspectRatio="none" x="14410.766602" y="-4302.246094" width="1.098633" height="1.098633"/>
<image xlink:href="tile10_28.png" preserveAspectRatio="none" x="14410.766602" y="-4303.344727" width="1.098633" height="1.098633"/>
<image xlink:href="tile11_32.png" preserveAspectRatio="none" x="14411.865234" y="-4298.950195" width="1.098633" height="1.098633"/>
<image xlink:href="tile11_31.png" preserveAspectRatio="none" x="14411.865234" y="-4300.048828" width="1.098633" height="1.098633"/>
<image xlink:href="tile11_30.png" preserveAspectRatio="none" x="14411.865234" y="-4301.147461" width="1.098633" height="1.098633"/>
<image xlink:href="tile11_29.png" preserveAspectRatio="none" x="14411.865234" y="-4302.246094" width="1.098633" height="1.098633"/>
<image xlink:href="tile12_33.png" preserveAspectRatio="none" x="14412.963867" y="-4297.851562" width="1.098633" height="1.098633"/>
<image xlink:href="tile12_32.png" preserveAspectRatio="none" x="14412.963867" y="-4298.950195" width="1.098633" height="1.098633"/>
<image xlink:href="tile12_31.png" preserveAspectRatio="none" x="14412.963867" y="-4300.048828" width="1.098633" height="1.098633"/>
<image xlink:href="tile12_30.png" preserveAspectRatio="none" x="14412.963867" y="-4301.147461" width="1.098633" height="1.098633"/>
<image xlink:href="tile12_29.png" preserveAspectRatio="none" x="14412.963867" y="-4302.246094" width="1.098633" height="1.098633"/>
<image xlink:href="tile13_33.png" preserveAspectRatio="none" x="14414.0625" y="-4297.851562" width="1.098633" height="1.098633"/>
<image xlink:href="tile13_32.png" preserveAspectRatio="none" x="14414.0625" y="-4298.950195" width="1.098633" height="1.098633"/>
<image xlink:href="tile14_32.png" preserveAspectRatio="none" x="14415.161133" y="-4298.950195" width="1.098633" height="1.098633"/>
<image xlink:href="tile14_31.png" preserveAspectRatio="none" x="14415.161133" y="-4300.048828" width="1.098633" height="1.098633"/>
</g>
</svg>
