<?xml version="1.0" encoding="UTF-8"?>
<svg  xmlns="http://www.w3.org/2000/svg" xmlns:xlink="http://www.w3.org/1999/xlink" xmlns:go="http://purl.org/svgmap/profile" viewBox="13035.550000000001 -3333.3333333 48.90000000000043 32.15416629999979" go:dataArea="13035.550000000001 -3333.3333333 48.90000000000043 32.15416629999979" >
<metadata>
 <rdf:RDF xmlns:rdf="http://www.w3.org/1999/02/22-rdf-syntax-ns#" xmlns:crs="http://opengis.org/xmldtds/transformations.dtd" xmlns:svg="http://www.w3.org/svg" >
  <rdf:Description>
   <crs:CoordinateReferenceSystem rdf:resource="http://purl.org/crs/84" svg:transform="matrix(100.0,0.0,0.0,-100.0,0.0,0.0)" />
  </rdf:Description>
 </rdf:RDF>
</metadata>
<globalCoordinateSystem srsName="http://purl.org/crs/84" transform="matrix(100.0,0.0,0.0,-100.0,0.0,0.0)" />
<g >
<image xlink:href="tile0_8.png" preserveAspectRatio="none" x="13034.179688" y="-3317.871094" width="2.197266" height="2.197266"/>
<image xlink:href="tile0_7.png" preserveAspectRatio="none" x="13034.179688" y="-3320.068359" width="2.197266" height="2.197266"/>
<image xlink:href="tile0_6.png" preserveAspectRatio="none" x="13034.179688" y="-3322.265625" width="2.197266" height="2.197266"/>
<image xlink:href="tile1_9.png" preserveAspectRatio="none" x="13036.376953" y="-3315.673828" width="2.197266" height="2.197266"/>
<image xlink:href="tile1_8.png" preserveAspectRatio="none" x="13036.376953" y="-3317.871094" width="2.197266" height="2.197266"/>
<image xlink:href="tile1_7.png" preserveAspectRatio="none" x="13036.376953" y="-3320.068359" width="2.197266" height="2.197266"/>
<image xlink:href="tile1_6.png" preserveAspectRatio="none" x="13036.376953" y="-3322.265625" width="2.197266" height="2.197266"/>
<image xlink:href="tile1_5.png" preserveAspectRatio="none" x="13036.376953" y="-3324.462891" width="2.197266" height="2.197266"/>
<image xlink:href="tile1_4.png" preserveAspectRatio="none" x="13036.376953" y="-3326.660156" width="2.197266" height="2.197266"/>
<image xlink:href="tile2_11.png" preserveAspectRatio="none" x="13038.574219" y="-3311.279297" width="2.197266" height="2.197266"/>
<image xlink:href="tile2_10.png" preserveAspectRatio="none" x="13038.574219" y="-3313.476562" width="2.197266" height="2.197266"/>
<image xlink:href="tile2_9.png" preserveAspectRatio="none" x="13038.574219" y="-3315.673828" width="2.197266" height="2.197266"/>
<image xlink:href="tile2_8.png" preserveAspectRatio="none" x="13038.574219" y="-3317.871094" width="2.197266" height="2.197266"/>
<image xlink:href="tile2_7.png" preserveAspectRatio="none" x="13038.574219" y="-3320.068359" width="2.197266" height="2.197266"/>
<image xlink:href="tile2_6.png" preserveAspectRatio="none" x="13038.574219" y="-3322.265625" width="2.197266" height="2.197266"/>
<image xlink:href="tile2_5.png" preserveAspectRatio="none" x="13038.574219" y="-3324.462891" width="2.197266" height="2.197266"/>
<image xlink:href="tile2_4.png" preserveAspectRatio="none" x="13038.574219" y="-3326.660156" width="2.197266" height="2.197266"/>
<image xlink:href="tile3_14.png" preserveAspectRatio="none" x="13040.771484" y="-3304.6875" width="2.197266" height="2.197266"/>
<image xlink:href="tile3_13.png" preserveAspectRatio="none" x="13040.771484" y="-3306.884766" width="2.197266" height="2.197266"/>
<image xlink:href="tile3_12.png" preserveAspectRatio="none" x="13040.771484" y="-3309.082031" width="2.197266" height="2.197266"/>
<image xlink:href="tile3_11.png" preserveAspectRatio="none" x="13040.771484" y="-3311.279297" width="2.197266" height="2.197266"/>
<image xlink:href="tile3_10.png" preserveAspectRatio="none" x="13040.771484" y="-3313.476562" width="2.197266" height="2.197266"/>
<image xlink:href="tile3_9.png" preserveAspectRatio="none" x="13040.771484" y="-3315.673828" width="2.197266" height="2.197266"/>
<image xlink:href="tile3_8.png" preserveAspectRatio="none" x="13040.771484" y="-3317.871094" width="2.197266" height="2.197266"/>
<image xlink:href="tile3_7.png" preserveAspectRatio="none" x="13040.771484" y="-3320.068359" width="2.197266" height="2.197266"/>
<image xlink:href="tile3_6.png" preserveAspectRatio="none" x="13040.771484" y="-3322.265625" width="2.197266" height="2.197266"/>
<image xlink:href="tile3_5.png" preserveAspectRatio="none" x="13040.771484" y="-3324.462891" width="2.197266" height="2.197266"/>
<image xlink:href="tile3_4.png" preserveAspectRatio="none" x="13040.771484" y="-3326.660156" width="2.197266" height="2.197266"/>
<image xlink:href="tile4_15.png" preserveAspectRatio="none" x="13042.96875" y="-3302.490234" width="2.197266" height="2.197266"/>
<image xlink:href="tile4_14.png" preserveAspectRatio="none" x="13042.96875" y="-3304.6875" width="2.197266" height="2.197266"/>
<image xlink:href="tile4_13.png" preserveAspectRatio="none" x="13042.96875" y="-3306.884766" width="2.197266" height="2.197266"/>
<image xlink:href="tile4_12.png" preserveAspectRatio="none" x="13042.96875" y="-3309.082031" width="2.197266" height="2.197266"/>
<image xlink:href="tile4_11.png" preserveAspectRatio="none" x="13042.96875" y="-3311.279297" width="2.197266" height="2.197266"/>
<image xlink:href="tile4_10.png" preserveAspectRatio="none" x="13042.96875" y="-3313.476562" width="2.197266" height="2.197266"/>
<image xlink:href="tile4_9.png" preserveAspectRatio="none" x="13042.96875" y="-3315.673828" width="2.197266" height="2.197266"/>
<image xlink:href="tile4_8.png" preserveAspectRatio="none" x="13042.96875" y="-3317.871094" width="2.197266" height="2.197266"/>
<image xlink:href="tile4_7.png" preserveAspectRatio="none" x="13042.96875" y="-3320.068359" width="2.197266" height="2.197266"/>
<image xlink:href="tile4_6.png" preserveAspectRatio="none" x="13042.96875" y="-3322.265625" width="2.197266" height="2.197266"/>
<image xlink:href="tile4_5.png" preserveAspectRatio="none" x="13042.96875" y="-3324.462891" width="2.197266" height="2.197266"/>
<image xlink:href="tile5_15.png" preserveAspectRatio="none" x="13045.166016" y="-3302.490234" width="2.197266" height="2.197266"/>
<image xlink:href="tile5_14.png" preserveAspectRatio="none" x="13045.166016" y="-3304.6875" width="2.197266" height="2.197266"/>
<image xlink:href="tile5_13.png" preserveAspectRatio="none" x="13045.166016" y="-3306.884766" width="2.197266" height="2.197266"/>
<image xlink:href="tile5_12.png" preserveAspectRatio="none" x="13045.166016" y="-3309.082031" width="2.197266" height="2.197266"/>
<image xlink:href="tile5_11.png" preserveAspectRatio="none" x="13045.166016" y="-3311.279297" width="2.197266" height="2.197266"/>
<image xlink:href="tile5_10.png" preserveAspectRatio="none" x="13045.166016" y="-3313.476562" width="2.197266" height="2.197266"/>
<image xlink:href="tile5_9.png" preserveAspectRatio="none" x="13045.166016" y="-3315.673828" width="2.197266" height="2.197266"/>
<image xlink:href="tile5_8.png" preserveAspectRatio="none" x="13045.166016" y="-3317.871094" width="2.197266" height="2.197266"/>
<image xlink:href="tile5_7.png" preserveAspectRatio="none" x="13045.166016" y="-3320.068359" width="2.197266" height="2.197266"/>
<image xlink:href="tile5_6.png" preserveAspectRatio="none" x="13045.166016" y="-3322.265625" width="2.197266" height="2.197266"/>
<image xlink:href="tile5_3.png" preserveAspectRatio="none" x="13045.166016" y="-3328.857422" width="2.197266" height="2.197266"/>
<image xlink:href="tile5_2.png" preserveAspectRatio="none" x="13045.166016" y="-3331.054688" width="2.197266" height="2.197266"/>
<image xlink:href="tile6_15.png" preserveAspectRatio="none" x="13047.363281" y="-3302.490234" width="2.197266" height="2.197266"/>
<image xlink:href="tile6_12.png" preserveAspectRatio="none" x="13047.363281" y="-3309.082031" width="2.197266" height="2.197266"/>
<image xlink:href="tile6_11.png" preserveAspectRatio="none" x="13047.363281" y="-3311.279297" width="2.197266" height="2.197266"/>
<image xlink:href="tile6_10.png" preserveAspectRatio="none" x="13047.363281" y="-3313.476562" width="2.197266" height="2.197266"/>
<image xlink:href="tile6_9.png" preserveAspectRatio="none" x="13047.363281" y="-3315.673828" width="2.197266" height="2.197266"/>
<image xlink:href="tile6_8.png" preserveAspectRatio="none" x="13047.363281" y="-3317.871094" width="2.197266" height="2.197266"/>
<image xlink:href="tile6_7.png" preserveAspectRatio="none" x="13047.363281" y="-3320.068359" width="2.197266" height="2.197266"/>
<image xlink:href="tile6_6.png" preserveAspectRatio="none" x="13047.363281" y="-3322.265625" width="2.197266" height="2.197266"/>
<image xlink:href="tile6_3.png" preserveAspectRatio="none" x="13047.363281" y="-3328.857422" width="2.197266" height="2.197266"/>
<image xlink:href="tile6_2.png" preserveAspectRatio="none" x="13047.363281" y="-3331.054688" width="2.197266" height="2.197266"/>
<image xlink:href="tile6_1.png" preserveAspectRatio="none" x="13047.363281" y="-3333.251953" width="2.197266" height="2.197266"/>
<image xlink:href="tile7_10.png" preserveAspectRatio="none" x="13049.560547" y="-3313.476562" width="2.197266" height="2.197266"/>
<image xlink:href="tile7_9.png" preserveAspectRatio="none" x="13049.560547" y="-3315.673828" width="2.197266" height="2.197266"/>
<image xlink:href="tile7_8.png" preserveAspectRatio="none" x="13049.560547" y="-3317.871094" width="2.197266" height="2.197266"/>
<image xlink:href="tile7_7.png" preserveAspectRatio="none" x="13049.560547" y="-3320.068359" width="2.197266" height="2.197266"/>
<image xlink:href="tile7_6.png" preserveAspectRatio="none" x="13049.560547" y="-3322.265625" width="2.197266" height="2.197266"/>
<image xlink:href="tile7_2.png" preserveAspectRatio="none" x="13049.560547" y="-3331.054688" width="2.197266" height="2.197266"/>
<image xlink:href="tile7_1.png" preserveAspectRatio="none" x="13049.560547" y="-3333.251953" width="2.197266" height="2.197266"/>
<image xlink:href="tile7_0.png" preserveAspectRatio="none" x="13049.560547" y="-3335.449219" width="2.197266" height="2.197266"/>
<image xlink:href="tile8_11.png" preserveAspectRatio="none" x="13051.757812" y="-3311.279297" width="2.197266" height="2.197266"/>
<image xlink:href="tile8_10.png" preserveAspectRatio="none" x="13051.757812" y="-3313.476562" width="2.197266" height="2.197266"/>
<image xlink:href="tile8_9.png" preserveAspectRatio="none" x="13051.757812" y="-3315.673828" width="2.197266" height="2.197266"/>
<image xlink:href="tile8_7.png" preserveAspectRatio="none" x="13051.757812" y="-3320.068359" width="2.197266" height="2.197266"/>
<image xlink:href="tile8_6.png" preserveAspectRatio="none" x="13051.757812" y="-3322.265625" width="2.197266" height="2.197266"/>
<image xlink:href="tile8_2.png" preserveAspectRatio="none" x="13051.757812" y="-3331.054688" width="2.197266" height="2.197266"/>
<image xlink:href="tile8_1.png" preserveAspectRatio="none" x="13051.757812" y="-3333.251953" width="2.197266" height="2.197266"/>
<image xlink:href="tile8_0.png" preserveAspectRatio="none" x="13051.757812" y="-3335.449219" width="2.197266" height="2.197266"/>
<image xlink:href="tile9_12.png" preserveAspectRatio="none" x="13053.955078" y="-3309.082031" width="2.197266" height="2.197266"/>
<image xlink:href="tile9_11.png" preserveAspectRatio="none" x="13053.955078" y="-3311.279297" width="2.197266" height="2.197266"/>
<image xlink:href="tile9_10.png" preserveAspectRatio="none" x="13053.955078" y="-3313.476562" width="2.197266" height="2.197266"/>
<image xlink:href="tile9_8.png" preserveAspectRatio="none" x="13053.955078" y="-3317.871094" width="2.197266" height="2.197266"/>
<image xlink:href="tile9_7.png" preserveAspectRatio="none" x="13053.955078" y="-3320.068359" width="2.197266" height="2.197266"/>
<image xlink:href="tile9_6.png" preserveAspectRatio="none" x="13053.955078" y="-3322.265625" width="2.197266" height="2.197266"/>
<image xlink:href="tile9_1.png" preserveAspectRatio="none" x="13053.955078" y="-3333.251953" width="2.197266" height="2.197266"/>
<image xlink:href="tile10_10.png" preserveAspectRatio="none" x="13056.152344" y="-3313.476562" width="2.197266" height="2.197266"/>
<image xlink:href="tile10_9.png" preserveAspectRatio="none" x="13056.152344" y="-3315.673828" width="2.197266" height="2.197266"/>
<image xlink:href="tile10_8.png" preserveAspectRatio="none" x="13056.152344" y="-3317.871094" width="2.197266" height="2.197266"/>
<image xlink:href="tile10_7.png" preserveAspectRatio="none" x="13056.152344" y="-3320.068359" width="2.197266" height="2.197266"/>
<image xlink:href="tile10_6.png" preserveAspectRatio="none" x="13056.152344" y="-3322.265625" width="2.197266" height="2.197266"/>
<image xlink:href="tile10_1.png" preserveAspectRatio="none" x="13056.152344" y="-3333.251953" width="2.197266" height="2.197266"/>
<image xlink:href="tile11_10.png" preserveAspectRatio="none" x="13058.349609" y="-3313.476562" width="2.197266" height="2.197266"/>
<image xlink:href="tile11_7.png" preserveAspectRatio="none" x="13058.349609" y="-3320.068359" width="2.197266" height="2.197266"/>
<image xlink:href="tile11_6.png" preserveAspectRatio="none" x="13058.349609" y="-3322.265625" width="2.197266" height="2.197266"/>
<image xlink:href="tile11_2.png" preserveAspectRatio="none" x="13058.349609" y="-3331.054688" width="2.197266" height="2.197266"/>
<image xlink:href="tile11_1.png" preserveAspectRatio="none" x="13058.349609" y="-3333.251953" width="2.197266" height="2.197266"/>
<image xlink:href="tile11_0.png" preserveAspectRatio="none" x="13058.349609" y="-3335.449219" width="2.197266" height="2.197266"/>
<image xlink:href="tile12_10.png" preserveAspectRatio="none" x="13060.546875" y="-3313.476562" width="2.197266" height="2.197266"/>
<image xlink:href="tile12_9.png" preserveAspectRatio="none" x="13060.546875" y="-3315.673828" width="2.197266" height="2.197266"/>
<image xlink:href="tile12_8.png" preserveAspectRatio="none" x="13060.546875" y="-3317.871094" width="2.197266" height="2.197266"/>
<image xlink:href="tile12_7.png" preserveAspectRatio="none" x="13060.546875" y="-3320.068359" width="2.197266" height="2.197266"/>
<image xlink:href="tile12_2.png" preserveAspectRatio="none" x="13060.546875" y="-3331.054688" width="2.197266" height="2.197266"/>
<image xlink:href="tile12_1.png" preserveAspectRatio="none" x="13060.546875" y="-3333.251953" width="2.197266" height="2.197266"/>
<image xlink:href="tile13_10.png" preserveAspectRatio="none" x="13062.744141" y="-3313.476562" width="2.197266" height="2.197266"/>
<image xlink:href="tile13_9.png" preserveAspectRatio="none" x="13062.744141" y="-3315.673828" width="2.197266" height="2.197266"/>
<image xlink:href="tile13_1.png" preserveAspectRatio="none" x="13062.744141" y="-3333.251953" width="2.197266" height="2.197266"/>
<image xlink:href="tile13_0.png" preserveAspectRatio="none" x="13062.744141" y="-3335.449219" width="2.197266" height="2.197266"/>
<image xlink:href="tile14_9.png" preserveAspectRatio="none" x="13064.941406" y="-3315.673828" width="2.197266" height="2.197266"/>
<image xlink:href="tile14_8.png" preserveAspectRatio="none" x="13064.941406" y="-3317.871094" width="2.197266" height="2.197266"/>
<image xlink:href="tile14_7.png" preserveAspectRatio="none" x="13064.941406" y="-3320.068359" width="2.197266" height="2.197266"/>
<image xlink:href="tile14_6.png" preserveAspectRatio="none" x="13064.941406" y="-3322.265625" width="2.197266" height="2.197266"/>
<image xlink:href="tile14_1.png" preserveAspectRatio="none" x="13064.941406" y="-3333.251953" width="2.197266" height="2.197266"/>
<image xlink:href="tile14_0.png" preserveAspectRatio="none" x="13064.941406" y="-3335.449219" width="2.197266" height="2.197266"/>
<image xlink:href="tile15_6.png" preserveAspectRatio="none" x="13067.138672" y="-3322.265625" width="2.197266" height="2.197266"/>
<image xlink:href="tile15_5.png" preserveAspectRatio="none" x="13067.138672" y="-3324.462891" width="2.197266" height="2.197266"/>
<image xlink:href="tile15_1.png" preserveAspectRatio="none" x="13067.138672" y="-3333.251953" width="2.197266" height="2.197266"/>
<image xlink:href="tile15_0.png" preserveAspectRatio="none" x="13067.138672" y="-3335.449219" width="2.197266" height="2.197266"/>
</g>
</svg>
