<?xml version="1.0" encoding="UTF-8"?>
<svg  xmlns="http://www.w3.org/2000/svg" xmlns:xlink="http://www.w3.org/1999/xlink" xmlns:go="http://purl.org/svgmap/profile" viewBox="14000.0 -3866.666667 100.0 66.66666699999979" go:dataArea="14000.0 -3866.666667 100.0 66.66666699999979" >
<metadata>
 <rdf:RDF xmlns:rdf="http://www.w3.org/1999/02/22-rdf-syntax-ns#" xmlns:crs="http://opengis.org/xmldtds/transformations.dtd" xmlns:svg="http://www.w3.org/svg" >
  <rdf:Description>
   <crs:CoordinateReferenceSystem rdf:resource="http://purl.org/crs/84" svg:transform="matrix(100.0,0.0,0.0,-100.0,0.0,0.0)" />
  </rdf:Description>
 </rdf:RDF>
</metadata>
<globalCoordinateSystem srsName="http://purl.org/crs/84" transform="matrix(100.0,0.0,0.0,-100.0,0.0,0.0)" />
<g >
<image xlink:href="tile0_7.png" preserveAspectRatio="none" x="13992.1875" y="-3805.664062" width="8.789062" height="8.789062"/>
<image xlink:href="tile0_6.png" preserveAspectRatio="none" x="13992.1875" y="-3814.453125" width="8.789062" height="8.789062"/>
<image xlink:href="tile1_7.png" preserveAspectRatio="none" x="14000.976562" y="-3805.664062" width="8.789062" height="8.789062"/>
<image xlink:href="tile1_6.png" preserveAspectRatio="none" x="14000.976562" y="-3814.453125" width="8.789062" height="8.789062"/>
<image xlink:href="tile1_5.png" preserveAspectRatio="none" x="14000.976562" y="-3823.242188" width="8.789062" height="8.789062"/>
<image xlink:href="tile1_4.png" preserveAspectRatio="none" x="14000.976562" y="-3832.03125" width="8.789062" height="8.789062"/>
<image xlink:href="tile1_3.png" preserveAspectRatio="none" x="14000.976562" y="-3840.820312" width="8.789062" height="8.789062"/>
<image xlink:href="tile1_0.png" preserveAspectRatio="none" x="14000.976562" y="-3867.1875" width="8.789062" height="8.789062"/>
<image xlink:href="tile2_7.png" preserveAspectRatio="none" x="14009.765625" y="-3805.664062" width="8.789062" height="8.789062"/>
<image xlink:href="tile2_6.png" preserveAspectRatio="none" x="14009.765625" y="-3814.453125" width="8.789062" height="8.789062"/>
<image xlink:href="tile2_5.png" preserveAspectRatio="none" x="14009.765625" y="-3823.242188" width="8.789062" height="8.789062"/>
<image xlink:href="tile2_4.png" preserveAspectRatio="none" x="14009.765625" y="-3832.03125" width="8.789062" height="8.789062"/>
<image xlink:href="tile2_3.png" preserveAspectRatio="none" x="14009.765625" y="-3840.820312" width="8.789062" height="8.789062"/>
<image xlink:href="tile2_2.png" preserveAspectRatio="none" x="14009.765625" y="-3849.609375" width="8.789062" height="8.789062"/>
<image xlink:href="tile2_0.png" preserveAspectRatio="none" x="14009.765625" y="-3867.1875" width="8.789062" height="8.789062"/>
<image xlink:href="tile3_7.png" preserveAspectRatio="none" x="14018.554688" y="-3805.664062" width="8.789062" height="8.789062"/>
<image xlink:href="tile3_6.png" preserveAspectRatio="none" x="14018.554688" y="-3814.453125" width="8.789062" height="8.789062"/>
<image xlink:href="tile3_5.png" preserveAspectRatio="none" x="14018.554688" y="-3823.242188" width="8.789062" height="8.789062"/>
<image xlink:href="tile3_4.png" preserveAspectRatio="none" x="14018.554688" y="-3832.03125" width="8.789062" height="8.789062"/>
<image xlink:href="tile3_3.png" preserveAspectRatio="none" x="14018.554688" y="-3840.820312" width="8.789062" height="8.789062"/>
<image xlink:href="tile3_2.png" preserveAspectRatio="none" x="14018.554688" y="-3849.609375" width="8.789062" height="8.789062"/>
<image xlink:href="tile3_0.png" preserveAspectRatio="none" x="14018.554688" y="-3867.1875" width="8.789062" height="8.789062"/>
<image xlink:href="tile4_6.png" preserveAspectRatio="none" x="14027.34375" y="-3814.453125" width="8.789062" height="8.789062"/>
<image xlink:href="tile4_5.png" preserveAspectRatio="none" x="14027.34375" y="-3823.242188" width="8.789062" height="8.789062"/>
<image xlink:href="tile4_4.png" preserveAspectRatio="none" x="14027.34375" y="-3832.03125" width="8.789062" height="8.789062"/>
<image xlink:href="tile4_3.png" preserveAspectRatio="none" x="14027.34375" y="-3840.820312" width="8.789062" height="8.789062"/>
<image xlink:href="tile4_2.png" preserveAspectRatio="none" x="14027.34375" y="-3849.609375" width="8.789062" height="8.789062"/>
<image xlink:href="tile4_1.png" preserveAspectRatio="none" x="14027.34375" y="-3858.398438" width="8.789062" height="8.789062"/>
<image xlink:href="tile4_0.png" preserveAspectRatio="none" x="14027.34375" y="-3867.1875" width="8.789062" height="8.789062"/>
<image xlink:href="tile5_4.png" preserveAspectRatio="none" x="14036.132812" y="-3832.03125" width="8.789062" height="8.789062"/>
<image xlink:href="tile5_3.png" preserveAspectRatio="none" x="14036.132812" y="-3840.820312" width="8.789062" height="8.789062"/>
<image xlink:href="tile5_2.png" preserveAspectRatio="none" x="14036.132812" y="-3849.609375" width="8.789062" height="8.789062"/>
<image xlink:href="tile5_1.png" preserveAspectRatio="none" x="14036.132812" y="-3858.398438" width="8.789062" height="8.789062"/>
<image xlink:href="tile5_0.png" preserveAspectRatio="none" x="14036.132812" y="-3867.1875" width="8.789062" height="8.789062"/>
<image xlink:href="tile6_1.png" preserveAspectRatio="none" x="14044.921875" y="-3858.398438" width="8.789062" height="8.789062"/>
<image xlink:href="tile6_0.png" preserveAspectRatio="none" x="14044.921875" y="-3867.1875" width="8.789062" height="8.789062"/>
<image xlink:href="tile7_7.png" preserveAspectRatio="none" x="14053.710938" y="-3805.664062" width="8.789062" height="8.789062"/>
<image xlink:href="tile8_7.png" preserveAspectRatio="none" x="14062.5" y="-3805.664062" width="8.789062" height="8.789062"/>
<image xlink:href="tile8_6.png" preserveAspectRatio="none" x="14062.5" y="-3814.453125" width="8.789062" height="8.789062"/>
<image xlink:href="tile8_0.png" preserveAspectRatio="none" x="14062.5" y="-3867.1875" width="8.789062" height="8.789062"/>
<image xlink:href="tile9_7.png" preserveAspectRatio="none" x="14071.289062" y="-3805.664062" width="8.789062" height="8.789062"/>
<image xlink:href="tile9_6.png" preserveAspectRatio="none" x="14071.289062" y="-3814.453125" width="8.789062" height="8.789062"/>
<image xlink:href="tile9_3.png" preserveAspectRatio="none" x="14071.289062" y="-3840.820312" width="8.789062" height="8.789062"/>
<image xlink:href="tile9_1.png" preserveAspectRatio="none" x="14071.289062" y="-3858.398438" width="8.789062" height="8.789062"/>
<image xlink:href="tile9_0.png" preserveAspectRatio="none" x="14071.289062" y="-3867.1875" width="8.789062" height="8.789062"/>
<image xlink:href="tile10_7.png" preserveAspectRatio="none" x="14080.078125" y="-3805.664062" width="8.789062" height="8.789062"/>
<image xlink:href="tile10_6.png" preserveAspectRatio="none" x="14080.078125" y="-3814.453125" width="8.789062" height="8.789062"/>
<image xlink:href="tile10_5.png" preserveAspectRatio="none" x="14080.078125" y="-3823.242188" width="8.789062" height="8.789062"/>
<image xlink:href="tile10_4.png" preserveAspectRatio="none" x="14080.078125" y="-3832.03125" width="8.789062" height="8.789062"/>
<image xlink:href="tile10_3.png" preserveAspectRatio="none" x="14080.078125" y="-3840.820312" width="8.789062" height="8.789062"/>
<image xlink:href="tile10_2.png" preserveAspectRatio="none" x="14080.078125" y="-3849.609375" width="8.789062" height="8.789062"/>
<image xlink:href="tile10_1.png" preserveAspectRatio="none" x="14080.078125" y="-3858.398438" width="8.789062" height="8.789062"/>
<image xlink:href="tile10_0.png" preserveAspectRatio="none" x="14080.078125" y="-3867.1875" width="8.789062" height="8.789062"/>
<image xlink:href="tile11_7.png" preserveAspectRatio="none" x="14088.867188" y="-3805.664062" width="8.789062" height="8.789062"/>
<image xlink:href="tile11_6.png" preserveAspectRatio="none" x="14088.867188" y="-3814.453125" width="8.789062" height="8.789062"/>
<image xlink:href="tile11_5.png" preserveAspectRatio="none" x="14088.867188" y="-3823.242188" width="8.789062" height="8.789062"/>
<image xlink:href="tile11_4.png" preserveAspectRatio="none" x="14088.867188" y="-3832.03125" width="8.789062" height="8.789062"/>
<image xlink:href="tile11_3.png" preserveAspectRatio="none" x="14088.867188" y="-3840.820312" width="8.789062" height="8.789062"/>
<image xlink:href="tile11_2.png" preserveAspectRatio="none" x="14088.867188" y="-3849.609375" width="8.789062" height="8.789062"/>
<image xlink:href="tile11_1.png" preserveAspectRatio="none" x="14088.867188" y="-3858.398438" width="8.789062" height="8.789062"/>
<image xlink:href="tile11_0.png" preserveAspectRatio="none" x="14088.867188" y="-3867.1875" width="8.789062" height="8.789062"/>
<image xlink:href="tile12_5.png" preserveAspectRatio="none" x="14097.65625" y="-3823.242188" width="8.789062" height="8.789062"/>
<image xlink:href="tile12_4.png" preserveAspectRatio="none" x="14097.65625" y="-3832.03125" width="8.789062" height="8.789062"/>
<image xlink:href="tile12_2.png" preserveAspectRatio="none" x="14097.65625" y="-3849.609375" width="8.789062" height="8.789062"/>
<image xlink:href="tile12_1.png" preserveAspectRatio="none" x="14097.65625" y="-3858.398438" width="8.789062" height="8.789062"/>
<image xlink:href="tile12_0.png" preserveAspectRatio="none" x="14097.65625" y="-3867.1875" width="8.789062" height="8.789062"/>
</g>
</svg>
