<?xml version="1.0" encoding="UTF-8"?>
<svg  xmlns="http://www.w3.org/2000/svg" xmlns:xlink="http://www.w3.org/1999/xlink" xmlns:go="http://purl.org/svgmap/profile" viewBox="13800.0 -3533.016659 100.0 66.34999229999963" go:dataArea="13800.0 -3533.016659 100.0 66.34999229999963" >
<metadata>
 <rdf:RDF xmlns:rdf="http://www.w3.org/1999/02/22-rdf-syntax-ns#" xmlns:crs="http://opengis.org/xmldtds/transformations.dtd" xmlns:svg="http://www.w3.org/svg" >
  <rdf:Description>
   <crs:CoordinateReferenceSystem rdf:resource="http://purl.org/crs/84" svg:transform="matrix(100.0,0.0,0.0,-100.0,0.0,0.0)" />
  </rdf:Description>
 </rdf:RDF>
</metadata>
<globalCoordinateSystem srsName="http://purl.org/crs/84" transform="matrix(100.0,0.0,0.0,-100.0,0.0,0.0)" />
<g >
<image xlink:href="tile35_26.png" preserveAspectRatio="none" x="13875.732422" y="-3476.074219" width="2.197266" height="2.197266"/>
<image xlink:href="tile35_25.png" preserveAspectRatio="none" x="13875.732422" y="-3478.271484" width="2.197266" height="2.197266"/>
<image xlink:href="tile36_29.png" preserveAspectRatio="none" x="13877.929688" y="-3469.482422" width="2.197266" height="2.197266"/>
<image xlink:href="tile36_28.png" preserveAspectRatio="none" x="13877.929688" y="-3471.679688" width="2.197266" height="2.197266"/>
<image xlink:href="tile36_26.png" preserveAspectRatio="none" x="13877.929688" y="-3476.074219" width="2.197266" height="2.197266"/>
<image xlink:href="tile36_25.png" preserveAspectRatio="none" x="13877.929688" y="-3478.271484" width="2.197266" height="2.197266"/>
<image xlink:href="tile36_24.png" preserveAspectRatio="none" x="13877.929688" y="-3480.46875" width="2.197266" height="2.197266"/>
<image xlink:href="tile36_19.png" preserveAspectRatio="none" x="13877.929688" y="-3491.455078" width="2.197266" height="2.197266"/>
<image xlink:href="tile36_18.png" preserveAspectRatio="none" x="13877.929688" y="-3493.652344" width="2.197266" height="2.197266"/>
<image xlink:href="tile37_29.png" preserveAspectRatio="none" x="13880.126953" y="-3469.482422" width="2.197266" height="2.197266"/>
<image xlink:href="tile37_26.png" preserveAspectRatio="none" x="13880.126953" y="-3476.074219" width="2.197266" height="2.197266"/>
<image xlink:href="tile37_24.png" preserveAspectRatio="none" x="13880.126953" y="-3480.46875" width="2.197266" height="2.197266"/>
<image xlink:href="tile37_23.png" preserveAspectRatio="none" x="13880.126953" y="-3482.666016" width="2.197266" height="2.197266"/>
<image xlink:href="tile37_19.png" preserveAspectRatio="none" x="13880.126953" y="-3491.455078" width="2.197266" height="2.197266"/>
<image xlink:href="tile38_30.png" preserveAspectRatio="none" x="13882.324219" y="-3467.285156" width="2.197266" height="2.197266"/>
<image xlink:href="tile38_29.png" preserveAspectRatio="none" x="13882.324219" y="-3469.482422" width="2.197266" height="2.197266"/>
<image xlink:href="tile38_26.png" preserveAspectRatio="none" x="13882.324219" y="-3476.074219" width="2.197266" height="2.197266"/>
<image xlink:href="tile38_23.png" preserveAspectRatio="none" x="13882.324219" y="-3482.666016" width="2.197266" height="2.197266"/>
<image xlink:href="tile39_30.png" preserveAspectRatio="none" x="13884.521484" y="-3467.285156" width="2.197266" height="2.197266"/>
<image xlink:href="tile39_26.png" preserveAspectRatio="none" x="13884.521484" y="-3476.074219" width="2.197266" height="2.197266"/>
<image xlink:href="tile40_27.png" preserveAspectRatio="none" x="13886.71875" y="-3473.876953" width="2.197266" height="2.197266"/>
<image xlink:href="tile40_16.png" preserveAspectRatio="none" x="13886.71875" y="-3498.046875" width="2.197266" height="2.197266"/>
<image xlink:href="tile41_27.png" preserveAspectRatio="none" x="13888.916016" y="-3473.876953" width="2.197266" height="2.197266"/>
<image xlink:href="tile41_16.png" preserveAspectRatio="none" x="13888.916016" y="-3498.046875" width="2.197266" height="2.197266"/>
<image xlink:href="tile42_27.png" preserveAspectRatio="none" x="13891.113281" y="-3473.876953" width="2.197266" height="2.197266"/>
<image xlink:href="tile42_20.png" preserveAspectRatio="none" x="13891.113281" y="-3489.257812" width="2.197266" height="2.197266"/>
<image xlink:href="tile42_19.png" preserveAspectRatio="none" x="13891.113281" y="-3491.455078" width="2.197266" height="2.197266"/>
<image xlink:href="tile42_18.png" preserveAspectRatio="none" x="13891.113281" y="-3493.652344" width="2.197266" height="2.197266"/>
<image xlink:href="tile42_17.png" preserveAspectRatio="none" x="13891.113281" y="-3495.849609" width="2.197266" height="2.197266"/>
<image xlink:href="tile42_16.png" preserveAspectRatio="none" x="13891.113281" y="-3498.046875" width="2.197266" height="2.197266"/>
<image xlink:href="tile42_15.png" preserveAspectRatio="none" x="13891.113281" y="-3500.244141" width="2.197266" height="2.197266"/>
<image xlink:href="tile43_30.png" preserveAspectRatio="none" x="13893.310547" y="-3467.285156" width="2.197266" height="2.197266"/>
<image xlink:href="tile43_29.png" preserveAspectRatio="none" x="13893.310547" y="-3469.482422" width="2.197266" height="2.197266"/>
<image xlink:href="tile43_28.png" preserveAspectRatio="none" x="13893.310547" y="-3471.679688" width="2.197266" height="2.197266"/>
<image xlink:href="tile43_27.png" preserveAspectRatio="none" x="13893.310547" y="-3473.876953" width="2.197266" height="2.197266"/>
<image xlink:href="tile43_18.png" preserveAspectRatio="none" x="13893.310547" y="-3493.652344" width="2.197266" height="2.197266"/>
<image xlink:href="tile43_17.png" preserveAspectRatio="none" x="13893.310547" y="-3495.849609" width="2.197266" height="2.197266"/>
<image xlink:href="tile43_16.png" preserveAspectRatio="none" x="13893.310547" y="-3498.046875" width="2.197266" height="2.197266"/>
<image xlink:href="tile43_15.png" preserveAspectRatio="none" x="13893.310547" y="-3500.244141" width="2.197266" height="2.197266"/>
<image xlink:href="tile44_25.png" preserveAspectRatio="none" x="13895.507812" y="-3478.271484" width="2.197266" height="2.197266"/>
<image xlink:href="tile44_19.png" preserveAspectRatio="none" x="13895.507812" y="-3491.455078" width="2.197266" height="2.197266"/>
<image xlink:href="tile44_18.png" preserveAspectRatio="none" x="13895.507812" y="-3493.652344" width="2.197266" height="2.197266"/>
<image xlink:href="tile44_16.png" preserveAspectRatio="none" x="13895.507812" y="-3498.046875" width="2.197266" height="2.197266"/>
<image xlink:href="tile44_15.png" preserveAspectRatio="none" x="13895.507812" y="-3500.244141" width="2.197266" height="2.197266"/>
<image xlink:href="tile45_26.png" preserveAspectRatio="none" x="13897.705078" y="-3476.074219" width="2.197266" height="2.197266"/>
<image xlink:href="tile45_25.png" preserveAspectRatio="none" x="13897.705078" y="-3478.271484" width="2.197266" height="2.197266"/>
<image xlink:href="tile45_19.png" preserveAspectRatio="none" x="13897.705078" y="-3491.455078" width="2.197266" height="2.197266"/>
<image xlink:href="tile45_18.png" preserveAspectRatio="none" x="13897.705078" y="-3493.652344" width="2.197266" height="2.197266"/>
<image xlink:href="tile45_17.png" preserveAspectRatio="none" x="13897.705078" y="-3495.849609" width="2.197266" height="2.197266"/>
<image xlink:href="tile45_16.png" preserveAspectRatio="none" x="13897.705078" y="-3498.046875" width="2.197266" height="2.197266"/>
<image xlink:href="tile46_26.png" preserveAspectRatio="none" x="13899.902344" y="-3476.074219" width="2.197266" height="2.197266"/>
</g>
</svg>
