<?xml version="1.0" encoding="UTF-8"?>
<svg  xmlns="http://www.w3.org/2000/svg" xmlns:xlink="http://www.w3.org/1999/xlink" xmlns:go="http://purl.org/svgmap/profile" viewBox="13400.0 -3566.3708334 100.0 33.03750030000003" go:dataArea="13400.0 -3566.3708334 100.0 33.03750030000003" >
<metadata>
 <rdf:RDF xmlns:rdf="http://www.w3.org/1999/02/22-rdf-syntax-ns#" xmlns:crs="http://opengis.org/xmldtds/transformations.dtd" xmlns:svg="http://www.w3.org/svg" >
  <rdf:Description>
   <crs:CoordinateReferenceSystem rdf:resource="http://purl.org/crs/84" svg:transform="matrix(100.0,0.0,0.0,-100.0,0.0,0.0)" />
  </rdf:Description>
 </rdf:RDF>
</metadata>
<globalCoordinateSystem srsName="http://purl.org/crs/84" transform="matrix(100.0,0.0,0.0,-100.0,0.0,0.0)" />
<g >
<image xlink:href="tile0_4.png" preserveAspectRatio="none" x="13398.925781" y="-3550.78125" width="4.394531" height="4.394531"/>
<image xlink:href="tile0_3.png" preserveAspectRatio="none" x="13398.925781" y="-3555.175781" width="4.394531" height="4.394531"/>
<image xlink:href="tile1_4.png" preserveAspectRatio="none" x="13403.320312" y="-3550.78125" width="4.394531" height="4.394531"/>
<image xlink:href="tile1_3.png" preserveAspectRatio="none" x="13403.320312" y="-3555.175781" width="4.394531" height="4.394531"/>
<image xlink:href="tile2_4.png" preserveAspectRatio="none" x="13407.714844" y="-3550.78125" width="4.394531" height="4.394531"/>
<image xlink:href="tile2_3.png" preserveAspectRatio="none" x="13407.714844" y="-3555.175781" width="4.394531" height="4.394531"/>
<image xlink:href="tile3_4.png" preserveAspectRatio="none" x="13412.109375" y="-3550.78125" width="4.394531" height="4.394531"/>
<image xlink:href="tile3_3.png" preserveAspectRatio="none" x="13412.109375" y="-3555.175781" width="4.394531" height="4.394531"/>
<image xlink:href="tile4_7.png" preserveAspectRatio="none" x="13416.503906" y="-3537.597656" width="4.394531" height="4.394531"/>
<image xlink:href="tile4_6.png" preserveAspectRatio="none" x="13416.503906" y="-3541.992188" width="4.394531" height="4.394531"/>
<image xlink:href="tile4_5.png" preserveAspectRatio="none" x="13416.503906" y="-3546.386719" width="4.394531" height="4.394531"/>
<image xlink:href="tile4_4.png" preserveAspectRatio="none" x="13416.503906" y="-3550.78125" width="4.394531" height="4.394531"/>
<image xlink:href="tile4_3.png" preserveAspectRatio="none" x="13416.503906" y="-3555.175781" width="4.394531" height="4.394531"/>
<image xlink:href="tile5_7.png" preserveAspectRatio="none" x="13420.898438" y="-3537.597656" width="4.394531" height="4.394531"/>
<image xlink:href="tile5_6.png" preserveAspectRatio="none" x="13420.898438" y="-3541.992188" width="4.394531" height="4.394531"/>
<image xlink:href="tile5_5.png" preserveAspectRatio="none" x="13420.898438" y="-3546.386719" width="4.394531" height="4.394531"/>
<image xlink:href="tile5_4.png" preserveAspectRatio="none" x="13420.898438" y="-3550.78125" width="4.394531" height="4.394531"/>
<image xlink:href="tile5_3.png" preserveAspectRatio="none" x="13420.898438" y="-3555.175781" width="4.394531" height="4.394531"/>
<image xlink:href="tile6_7.png" preserveAspectRatio="none" x="13425.292969" y="-3537.597656" width="4.394531" height="4.394531"/>
<image xlink:href="tile6_6.png" preserveAspectRatio="none" x="13425.292969" y="-3541.992188" width="4.394531" height="4.394531"/>
<image xlink:href="tile6_5.png" preserveAspectRatio="none" x="13425.292969" y="-3546.386719" width="4.394531" height="4.394531"/>
<image xlink:href="tile6_4.png" preserveAspectRatio="none" x="13425.292969" y="-3550.78125" width="4.394531" height="4.394531"/>
<image xlink:href="tile6_3.png" preserveAspectRatio="none" x="13425.292969" y="-3555.175781" width="4.394531" height="4.394531"/>
<image xlink:href="tile6_2.png" preserveAspectRatio="none" x="13425.292969" y="-3559.570312" width="4.394531" height="4.394531"/>
<image xlink:href="tile7_7.png" preserveAspectRatio="none" x="13429.6875" y="-3537.597656" width="4.394531" height="4.394531"/>
<image xlink:href="tile7_6.png" preserveAspectRatio="none" x="13429.6875" y="-3541.992188" width="4.394531" height="4.394531"/>
<image xlink:href="tile7_3.png" preserveAspectRatio="none" x="13429.6875" y="-3555.175781" width="4.394531" height="4.394531"/>
<image xlink:href="tile7_2.png" preserveAspectRatio="none" x="13429.6875" y="-3559.570312" width="4.394531" height="4.394531"/>
<image xlink:href="tile8_3.png" preserveAspectRatio="none" x="13434.082031" y="-3555.175781" width="4.394531" height="4.394531"/>
<image xlink:href="tile8_2.png" preserveAspectRatio="none" x="13434.082031" y="-3559.570312" width="4.394531" height="4.394531"/>
<image xlink:href="tile9_1.png" preserveAspectRatio="none" x="13438.476562" y="-3563.964844" width="4.394531" height="4.394531"/>
<image xlink:href="tile10_4.png" preserveAspectRatio="none" x="13442.871094" y="-3550.78125" width="4.394531" height="4.394531"/>
<image xlink:href="tile10_3.png" preserveAspectRatio="none" x="13442.871094" y="-3555.175781" width="4.394531" height="4.394531"/>
<image xlink:href="tile10_2.png" preserveAspectRatio="none" x="13442.871094" y="-3559.570312" width="4.394531" height="4.394531"/>
<image xlink:href="tile10_1.png" preserveAspectRatio="none" x="13442.871094" y="-3563.964844" width="4.394531" height="4.394531"/>
<image xlink:href="tile11_6.png" preserveAspectRatio="none" x="13447.265625" y="-3541.992188" width="4.394531" height="4.394531"/>
<image xlink:href="tile11_3.png" preserveAspectRatio="none" x="13447.265625" y="-3555.175781" width="4.394531" height="4.394531"/>
<image xlink:href="tile11_2.png" preserveAspectRatio="none" x="13447.265625" y="-3559.570312" width="4.394531" height="4.394531"/>
<image xlink:href="tile11_1.png" preserveAspectRatio="none" x="13447.265625" y="-3563.964844" width="4.394531" height="4.394531"/>
<image xlink:href="tile11_0.png" preserveAspectRatio="none" x="13447.265625" y="-3568.359375" width="4.394531" height="4.394531"/>
<image xlink:href="tile12_7.png" preserveAspectRatio="none" x="13451.660156" y="-3537.597656" width="4.394531" height="4.394531"/>
<image xlink:href="tile12_6.png" preserveAspectRatio="none" x="13451.660156" y="-3541.992188" width="4.394531" height="4.394531"/>
<image xlink:href="tile12_5.png" preserveAspectRatio="none" x="13451.660156" y="-3546.386719" width="4.394531" height="4.394531"/>
<image xlink:href="tile12_4.png" preserveAspectRatio="none" x="13451.660156" y="-3550.78125" width="4.394531" height="4.394531"/>
<image xlink:href="tile12_3.png" preserveAspectRatio="none" x="13451.660156" y="-3555.175781" width="4.394531" height="4.394531"/>
<image xlink:href="tile12_2.png" preserveAspectRatio="none" x="13451.660156" y="-3559.570312" width="4.394531" height="4.394531"/>
<image xlink:href="tile12_1.png" preserveAspectRatio="none" x="13451.660156" y="-3563.964844" width="4.394531" height="4.394531"/>
<image xlink:href="tile12_0.png" preserveAspectRatio="none" x="13451.660156" y="-3568.359375" width="4.394531" height="4.394531"/>
<image xlink:href="tile13_7.png" preserveAspectRatio="none" x="13456.054688" y="-3537.597656" width="4.394531" height="4.394531"/>
<image xlink:href="tile13_6.png" preserveAspectRatio="none" x="13456.054688" y="-3541.992188" width="4.394531" height="4.394531"/>
<image xlink:href="tile13_5.png" preserveAspectRatio="none" x="13456.054688" y="-3546.386719" width="4.394531" height="4.394531"/>
<image xlink:href="tile13_4.png" preserveAspectRatio="none" x="13456.054688" y="-3550.78125" width="4.394531" height="4.394531"/>
<image xlink:href="tile13_3.png" preserveAspectRatio="none" x="13456.054688" y="-3555.175781" width="4.394531" height="4.394531"/>
<image xlink:href="tile13_2.png" preserveAspectRatio="none" x="13456.054688" y="-3559.570312" width="4.394531" height="4.394531"/>
<image xlink:href="tile13_1.png" preserveAspectRatio="none" x="13456.054688" y="-3563.964844" width="4.394531" height="4.394531"/>
<image xlink:href="tile13_0.png" preserveAspectRatio="none" x="13456.054688" y="-3568.359375" width="4.394531" height="4.394531"/>
<image xlink:href="tile14_7.png" preserveAspectRatio="none" x="13460.449219" y="-3537.597656" width="4.394531" height="4.394531"/>
<image xlink:href="tile14_6.png" preserveAspectRatio="none" x="13460.449219" y="-3541.992188" width="4.394531" height="4.394531"/>
<image xlink:href="tile14_5.png" preserveAspectRatio="none" x="13460.449219" y="-3546.386719" width="4.394531" height="4.394531"/>
<image xlink:href="tile14_4.png" preserveAspectRatio="none" x="13460.449219" y="-3550.78125" width="4.394531" height="4.394531"/>
<image xlink:href="tile14_3.png" preserveAspectRatio="none" x="13460.449219" y="-3555.175781" width="4.394531" height="4.394531"/>
<image xlink:href="tile14_2.png" preserveAspectRatio="none" x="13460.449219" y="-3559.570312" width="4.394531" height="4.394531"/>
<image xlink:href="tile14_1.png" preserveAspectRatio="none" x="13460.449219" y="-3563.964844" width="4.394531" height="4.394531"/>
<image xlink:href="tile14_0.png" preserveAspectRatio="none" x="13460.449219" y="-3568.359375" width="4.394531" height="4.394531"/>
<image xlink:href="tile15_7.png" preserveAspectRatio="none" x="13464.84375" y="-3537.597656" width="4.394531" height="4.394531"/>
<image xlink:href="tile15_6.png" preserveAspectRatio="none" x="13464.84375" y="-3541.992188" width="4.394531" height="4.394531"/>
<image xlink:href="tile15_5.png" preserveAspectRatio="none" x="13464.84375" y="-3546.386719" width="4.394531" height="4.394531"/>
<image xlink:href="tile15_4.png" preserveAspectRatio="none" x="13464.84375" y="-3550.78125" width="4.394531" height="4.394531"/>
<image xlink:href="tile15_3.png" preserveAspectRatio="none" x="13464.84375" y="-3555.175781" width="4.394531" height="4.394531"/>
<image xlink:href="tile15_2.png" preserveAspectRatio="none" x="13464.84375" y="-3559.570312" width="4.394531" height="4.394531"/>
<image xlink:href="tile15_1.png" preserveAspectRatio="none" x="13464.84375" y="-3563.964844" width="4.394531" height="4.394531"/>
<image xlink:href="tile15_0.png" preserveAspectRatio="none" x="13464.84375" y="-3568.359375" width="4.394531" height="4.394531"/>
<image xlink:href="tile16_7.png" preserveAspectRatio="none" x="13469.238281" y="-3537.597656" width="4.394531" height="4.394531"/>
<image xlink:href="tile16_6.png" preserveAspectRatio="none" x="13469.238281" y="-3541.992188" width="4.394531" height="4.394531"/>
<image xlink:href="tile16_5.png" preserveAspectRatio="none" x="13469.238281" y="-3546.386719" width="4.394531" height="4.394531"/>
<image xlink:href="tile16_4.png" preserveAspectRatio="none" x="13469.238281" y="-3550.78125" width="4.394531" height="4.394531"/>
<image xlink:href="tile16_3.png" preserveAspectRatio="none" x="13469.238281" y="-3555.175781" width="4.394531" height="4.394531"/>
<image xlink:href="tile16_2.png" preserveAspectRatio="none" x="13469.238281" y="-3559.570312" width="4.394531" height="4.394531"/>
<image xlink:href="tile16_1.png" preserveAspectRatio="none" x="13469.238281" y="-3563.964844" width="4.394531" height="4.394531"/>
<image xlink:href="tile16_0.png" preserveAspectRatio="none" x="13469.238281" y="-3568.359375" width="4.394531" height="4.394531"/>
<image xlink:href="tile17_7.png" preserveAspectRatio="none" x="13473.632812" y="-3537.597656" width="4.394531" height="4.394531"/>
<image xlink:href="tile17_6.png" preserveAspectRatio="none" x="13473.632812" y="-3541.992188" width="4.394531" height="4.394531"/>
<image xlink:href="tile17_5.png" preserveAspectRatio="none" x="13473.632812" y="-3546.386719" width="4.394531" height="4.394531"/>
<image xlink:href="tile17_4.png" preserveAspectRatio="none" x="13473.632812" y="-3550.78125" width="4.394531" height="4.394531"/>
<image xlink:href="tile17_3.png" preserveAspectRatio="none" x="13473.632812" y="-3555.175781" width="4.394531" height="4.394531"/>
<image xlink:href="tile17_2.png" preserveAspectRatio="none" x="13473.632812" y="-3559.570312" width="4.394531" height="4.394531"/>
<image xlink:href="tile17_1.png" preserveAspectRatio="none" x="13473.632812" y="-3563.964844" width="4.394531" height="4.394531"/>
<image xlink:href="tile17_0.png" preserveAspectRatio="none" x="13473.632812" y="-3568.359375" width="4.394531" height="4.394531"/>
<image xlink:href="tile18_7.png" preserveAspectRatio="none" x="13478.027344" y="-3537.597656" width="4.394531" height="4.394531"/>
<image xlink:href="tile18_6.png" preserveAspectRatio="none" x="13478.027344" y="-3541.992188" width="4.394531" height="4.394531"/>
<image xlink:href="tile18_5.png" preserveAspectRatio="none" x="13478.027344" y="-3546.386719" width="4.394531" height="4.394531"/>
<image xlink:href="tile18_4.png" preserveAspectRatio="none" x="13478.027344" y="-3550.78125" width="4.394531" height="4.394531"/>
<image xlink:href="tile18_3.png" preserveAspectRatio="none" x="13478.027344" y="-3555.175781" width="4.394531" height="4.394531"/>
<image xlink:href="tile18_2.png" preserveAspectRatio="none" x="13478.027344" y="-3559.570312" width="4.394531" height="4.394531"/>
<image xlink:href="tile18_1.png" preserveAspectRatio="none" x="13478.027344" y="-3563.964844" width="4.394531" height="4.394531"/>
<image xlink:href="tile18_0.png" preserveAspectRatio="none" x="13478.027344" y="-3568.359375" width="4.394531" height="4.394531"/>
<image xlink:href="tile19_7.png" preserveAspectRatio="none" x="13482.421875" y="-3537.597656" width="4.394531" height="4.394531"/>
<image xlink:href="tile19_6.png" preserveAspectRatio="none" x="13482.421875" y="-3541.992188" width="4.394531" height="4.394531"/>
<image xlink:href="tile19_5.png" preserveAspectRatio="none" x="13482.421875" y="-3546.386719" width="4.394531" height="4.394531"/>
<image xlink:href="tile19_4.png" preserveAspectRatio="none" x="13482.421875" y="-3550.78125" width="4.394531" height="4.394531"/>
<image xlink:href="tile19_3.png" preserveAspectRatio="none" x="13482.421875" y="-3555.175781" width="4.394531" height="4.394531"/>
<image xlink:href="tile19_2.png" preserveAspectRatio="none" x="13482.421875" y="-3559.570312" width="4.394531" height="4.394531"/>
<image xlink:href="tile19_1.png" preserveAspectRatio="none" x="13482.421875" y="-3563.964844" width="4.394531" height="4.394531"/>
<image xlink:href="tile19_0.png" preserveAspectRatio="none" x="13482.421875" y="-3568.359375" width="4.394531" height="4.394531"/>
<image xlink:href="tile20_7.png" preserveAspectRatio="none" x="13486.816406" y="-3537.597656" width="4.394531" height="4.394531"/>
<image xlink:href="tile20_6.png" preserveAspectRatio="none" x="13486.816406" y="-3541.992188" width="4.394531" height="4.394531"/>
<image xlink:href="tile20_5.png" preserveAspectRatio="none" x="13486.816406" y="-3546.386719" width="4.394531" height="4.394531"/>
<image xlink:href="tile20_4.png" preserveAspectRatio="none" x="13486.816406" y="-3550.78125" width="4.394531" height="4.394531"/>
<image xlink:href="tile20_3.png" preserveAspectRatio="none" x="13486.816406" y="-3555.175781" width="4.394531" height="4.394531"/>
<image xlink:href="tile20_2.png" preserveAspectRatio="none" x="13486.816406" y="-3559.570312" width="4.394531" height="4.394531"/>
<image xlink:href="tile21_5.png" preserveAspectRatio="none" x="13491.210938" y="-3546.386719" width="4.394531" height="4.394531"/>
<image xlink:href="tile21_4.png" preserveAspectRatio="none" x="13491.210938" y="-3550.78125" width="4.394531" height="4.394531"/>
<image xlink:href="tile22_6.png" preserveAspectRatio="none" x="13495.605469" y="-3541.992188" width="4.394531" height="4.394531"/>
<image xlink:href="tile22_5.png" preserveAspectRatio="none" x="13495.605469" y="-3546.386719" width="4.394531" height="4.394531"/>
<image xlink:href="tile22_4.png" preserveAspectRatio="none" x="13495.605469" y="-3550.78125" width="4.394531" height="4.394531"/>
</g>
</svg>
