<?xml version="1.0" encoding="UTF-8"?>
<svg  xmlns="http://www.w3.org/2000/svg" xmlns:xlink="http://www.w3.org/1999/xlink" xmlns:go="http://purl.org/svgmap/profile" viewBox="14000.0 -3600.0 84.0695629999999 66.66666699999979" go:dataArea="14000.0 -3600.0 84.0695629999999 66.66666699999979" >
<metadata>
 <rdf:RDF xmlns:rdf="http://www.w3.org/1999/02/22-rdf-syntax-ns#" xmlns:crs="http://opengis.org/xmldtds/transformations.dtd" xmlns:svg="http://www.w3.org/svg" >
  <rdf:Description>
   <crs:CoordinateReferenceSystem rdf:resource="http://purl.org/crs/84" svg:transform="matrix(100.0,0.0,0.0,-100.0,0.0,0.0)" />
  </rdf:Description>
 </rdf:RDF>
</metadata>
<globalCoordinateSystem srsName="http://purl.org/crs/84" transform="matrix(100.0,0.0,0.0,-100.0,0.0,0.0)" />
<g >
<image xlink:href="tile48_12.png" preserveAspectRatio="none" x="14052.612305" y="-3587.036133" width="1.098633" height="1.098633"/>
<image xlink:href="tile48_11.png" preserveAspectRatio="none" x="14052.612305" y="-3588.134766" width="1.098633" height="1.098633"/>
<image xlink:href="tile48_10.png" preserveAspectRatio="none" x="14052.612305" y="-3589.233398" width="1.098633" height="1.098633"/>
<image xlink:href="tile48_9.png" preserveAspectRatio="none" x="14052.612305" y="-3590.332031" width="1.098633" height="1.098633"/>
<image xlink:href="tile48_8.png" preserveAspectRatio="none" x="14052.612305" y="-3591.430664" width="1.098633" height="1.098633"/>
<image xlink:href="tile48_7.png" preserveAspectRatio="none" x="14052.612305" y="-3592.529297" width="1.098633" height="1.098633"/>
<image xlink:href="tile48_6.png" preserveAspectRatio="none" x="14052.612305" y="-3593.62793" width="1.098633" height="1.098633"/>
<image xlink:href="tile48_5.png" preserveAspectRatio="none" x="14052.612305" y="-3594.726562" width="1.098633" height="1.098633"/>
<image xlink:href="tile48_4.png" preserveAspectRatio="none" x="14052.612305" y="-3595.825195" width="1.098633" height="1.098633"/>
<image xlink:href="tile49_12.png" preserveAspectRatio="none" x="14053.710938" y="-3587.036133" width="1.098633" height="1.098633"/>
<image xlink:href="tile49_10.png" preserveAspectRatio="none" x="14053.710938" y="-3589.233398" width="1.098633" height="1.098633"/>
<image xlink:href="tile49_9.png" preserveAspectRatio="none" x="14053.710938" y="-3590.332031" width="1.098633" height="1.098633"/>
<image xlink:href="tile49_8.png" preserveAspectRatio="none" x="14053.710938" y="-3591.430664" width="1.098633" height="1.098633"/>
<image xlink:href="tile49_7.png" preserveAspectRatio="none" x="14053.710938" y="-3592.529297" width="1.098633" height="1.098633"/>
<image xlink:href="tile49_6.png" preserveAspectRatio="none" x="14053.710938" y="-3593.62793" width="1.098633" height="1.098633"/>
<image xlink:href="tile49_5.png" preserveAspectRatio="none" x="14053.710938" y="-3594.726562" width="1.098633" height="1.098633"/>
<image xlink:href="tile50_9.png" preserveAspectRatio="none" x="14054.80957" y="-3590.332031" width="1.098633" height="1.098633"/>
<image xlink:href="tile50_8.png" preserveAspectRatio="none" x="14054.80957" y="-3591.430664" width="1.098633" height="1.098633"/>
<image xlink:href="tile50_7.png" preserveAspectRatio="none" x="14054.80957" y="-3592.529297" width="1.098633" height="1.098633"/>
<image xlink:href="tile50_6.png" preserveAspectRatio="none" x="14054.80957" y="-3593.62793" width="1.098633" height="1.098633"/>
<image xlink:href="tile50_5.png" preserveAspectRatio="none" x="14054.80957" y="-3594.726562" width="1.098633" height="1.098633"/>
<image xlink:href="tile50_0.png" preserveAspectRatio="none" x="14054.80957" y="-3600.219727" width="1.098633" height="1.098633"/>
<image xlink:href="tile51_10.png" preserveAspectRatio="none" x="14055.908203" y="-3589.233398" width="1.098633" height="1.098633"/>
<image xlink:href="tile51_9.png" preserveAspectRatio="none" x="14055.908203" y="-3590.332031" width="1.098633" height="1.098633"/>
<image xlink:href="tile51_8.png" preserveAspectRatio="none" x="14055.908203" y="-3591.430664" width="1.098633" height="1.098633"/>
<image xlink:href="tile51_7.png" preserveAspectRatio="none" x="14055.908203" y="-3592.529297" width="1.098633" height="1.098633"/>
<image xlink:href="tile51_6.png" preserveAspectRatio="none" x="14055.908203" y="-3593.62793" width="1.098633" height="1.098633"/>
<image xlink:href="tile51_5.png" preserveAspectRatio="none" x="14055.908203" y="-3594.726562" width="1.098633" height="1.098633"/>
<image xlink:href="tile51_4.png" preserveAspectRatio="none" x="14055.908203" y="-3595.825195" width="1.098633" height="1.098633"/>
<image xlink:href="tile51_0.png" preserveAspectRatio="none" x="14055.908203" y="-3600.219727" width="1.098633" height="1.098633"/>
<image xlink:href="tile52_11.png" preserveAspectRatio="none" x="14057.006836" y="-3588.134766" width="1.098633" height="1.098633"/>
<image xlink:href="tile52_10.png" preserveAspectRatio="none" x="14057.006836" y="-3589.233398" width="1.098633" height="1.098633"/>
<image xlink:href="tile52_9.png" preserveAspectRatio="none" x="14057.006836" y="-3590.332031" width="1.098633" height="1.098633"/>
<image xlink:href="tile52_8.png" preserveAspectRatio="none" x="14057.006836" y="-3591.430664" width="1.098633" height="1.098633"/>
<image xlink:href="tile52_7.png" preserveAspectRatio="none" x="14057.006836" y="-3592.529297" width="1.098633" height="1.098633"/>
<image xlink:href="tile52_6.png" preserveAspectRatio="none" x="14057.006836" y="-3593.62793" width="1.098633" height="1.098633"/>
<image xlink:href="tile52_5.png" preserveAspectRatio="none" x="14057.006836" y="-3594.726562" width="1.098633" height="1.098633"/>
<image xlink:href="tile52_4.png" preserveAspectRatio="none" x="14057.006836" y="-3595.825195" width="1.098633" height="1.098633"/>
<image xlink:href="tile52_3.png" preserveAspectRatio="none" x="14057.006836" y="-3596.923828" width="1.098633" height="1.098633"/>
<image xlink:href="tile52_2.png" preserveAspectRatio="none" x="14057.006836" y="-3598.022461" width="1.098633" height="1.098633"/>
<image xlink:href="tile52_1.png" preserveAspectRatio="none" x="14057.006836" y="-3599.121094" width="1.098633" height="1.098633"/>
<image xlink:href="tile52_0.png" preserveAspectRatio="none" x="14057.006836" y="-3600.219727" width="1.098633" height="1.098633"/>
<image xlink:href="tile53_12.png" preserveAspectRatio="none" x="14058.105469" y="-3587.036133" width="1.098633" height="1.098633"/>
<image xlink:href="tile53_11.png" preserveAspectRatio="none" x="14058.105469" y="-3588.134766" width="1.098633" height="1.098633"/>
<image xlink:href="tile53_10.png" preserveAspectRatio="none" x="14058.105469" y="-3589.233398" width="1.098633" height="1.098633"/>
<image xlink:href="tile53_9.png" preserveAspectRatio="none" x="14058.105469" y="-3590.332031" width="1.098633" height="1.098633"/>
<image xlink:href="tile53_8.png" preserveAspectRatio="none" x="14058.105469" y="-3591.430664" width="1.098633" height="1.098633"/>
<image xlink:href="tile53_7.png" preserveAspectRatio="none" x="14058.105469" y="-3592.529297" width="1.098633" height="1.098633"/>
<image xlink:href="tile53_6.png" preserveAspectRatio="none" x="14058.105469" y="-3593.62793" width="1.098633" height="1.098633"/>
<image xlink:href="tile53_5.png" preserveAspectRatio="none" x="14058.105469" y="-3594.726562" width="1.098633" height="1.098633"/>
<image xlink:href="tile53_4.png" preserveAspectRatio="none" x="14058.105469" y="-3595.825195" width="1.098633" height="1.098633"/>
<image xlink:href="tile53_3.png" preserveAspectRatio="none" x="14058.105469" y="-3596.923828" width="1.098633" height="1.098633"/>
<image xlink:href="tile53_2.png" preserveAspectRatio="none" x="14058.105469" y="-3598.022461" width="1.098633" height="1.098633"/>
<image xlink:href="tile53_1.png" preserveAspectRatio="none" x="14058.105469" y="-3599.121094" width="1.098633" height="1.098633"/>
<image xlink:href="tile54_12.png" preserveAspectRatio="none" x="14059.204102" y="-3587.036133" width="1.098633" height="1.098633"/>
<image xlink:href="tile54_11.png" preserveAspectRatio="none" x="14059.204102" y="-3588.134766" width="1.098633" height="1.098633"/>
<image xlink:href="tile54_10.png" preserveAspectRatio="none" x="14059.204102" y="-3589.233398" width="1.098633" height="1.098633"/>
<image xlink:href="tile54_9.png" preserveAspectRatio="none" x="14059.204102" y="-3590.332031" width="1.098633" height="1.098633"/>
<image xlink:href="tile54_8.png" preserveAspectRatio="none" x="14059.204102" y="-3591.430664" width="1.098633" height="1.098633"/>
<image xlink:href="tile54_6.png" preserveAspectRatio="none" x="14059.204102" y="-3593.62793" width="1.098633" height="1.098633"/>
<image xlink:href="tile54_5.png" preserveAspectRatio="none" x="14059.204102" y="-3594.726562" width="1.098633" height="1.098633"/>
<image xlink:href="tile54_4.png" preserveAspectRatio="none" x="14059.204102" y="-3595.825195" width="1.098633" height="1.098633"/>
<image xlink:href="tile54_3.png" preserveAspectRatio="none" x="14059.204102" y="-3596.923828" width="1.098633" height="1.098633"/>
<image xlink:href="tile54_2.png" preserveAspectRatio="none" x="14059.204102" y="-3598.022461" width="1.098633" height="1.098633"/>
<image xlink:href="tile54_1.png" preserveAspectRatio="none" x="14059.204102" y="-3599.121094" width="1.098633" height="1.098633"/>
<image xlink:href="tile54_0.png" preserveAspectRatio="none" x="14059.204102" y="-3600.219727" width="1.098633" height="1.098633"/>
<image xlink:href="tile55_12.png" preserveAspectRatio="none" x="14060.302734" y="-3587.036133" width="1.098633" height="1.098633"/>
<image xlink:href="tile55_11.png" preserveAspectRatio="none" x="14060.302734" y="-3588.134766" width="1.098633" height="1.098633"/>
<image xlink:href="tile55_10.png" preserveAspectRatio="none" x="14060.302734" y="-3589.233398" width="1.098633" height="1.098633"/>
<image xlink:href="tile55_9.png" preserveAspectRatio="none" x="14060.302734" y="-3590.332031" width="1.098633" height="1.098633"/>
<image xlink:href="tile55_8.png" preserveAspectRatio="none" x="14060.302734" y="-3591.430664" width="1.098633" height="1.098633"/>
<image xlink:href="tile55_7.png" preserveAspectRatio="none" x="14060.302734" y="-3592.529297" width="1.098633" height="1.098633"/>
<image xlink:href="tile55_6.png" preserveAspectRatio="none" x="14060.302734" y="-3593.62793" width="1.098633" height="1.098633"/>
<image xlink:href="tile55_5.png" preserveAspectRatio="none" x="14060.302734" y="-3594.726562" width="1.098633" height="1.098633"/>
<image xlink:href="tile55_4.png" preserveAspectRatio="none" x="14060.302734" y="-3595.825195" width="1.098633" height="1.098633"/>
<image xlink:href="tile55_3.png" preserveAspectRatio="none" x="14060.302734" y="-3596.923828" width="1.098633" height="1.098633"/>
<image xlink:href="tile55_2.png" preserveAspectRatio="none" x="14060.302734" y="-3598.022461" width="1.098633" height="1.098633"/>
<image xlink:href="tile55_1.png" preserveAspectRatio="none" x="14060.302734" y="-3599.121094" width="1.098633" height="1.098633"/>
<image xlink:href="tile56_12.png" preserveAspectRatio="none" x="14061.401367" y="-3587.036133" width="1.098633" height="1.098633"/>
<image xlink:href="tile56_11.png" preserveAspectRatio="none" x="14061.401367" y="-3588.134766" width="1.098633" height="1.098633"/>
<image xlink:href="tile56_10.png" preserveAspectRatio="none" x="14061.401367" y="-3589.233398" width="1.098633" height="1.098633"/>
<image xlink:href="tile56_9.png" preserveAspectRatio="none" x="14061.401367" y="-3590.332031" width="1.098633" height="1.098633"/>
<image xlink:href="tile56_8.png" preserveAspectRatio="none" x="14061.401367" y="-3591.430664" width="1.098633" height="1.098633"/>
<image xlink:href="tile56_7.png" preserveAspectRatio="none" x="14061.401367" y="-3592.529297" width="1.098633" height="1.098633"/>
<image xlink:href="tile56_6.png" preserveAspectRatio="none" x="14061.401367" y="-3593.62793" width="1.098633" height="1.098633"/>
<image xlink:href="tile56_5.png" preserveAspectRatio="none" x="14061.401367" y="-3594.726562" width="1.098633" height="1.098633"/>
<image xlink:href="tile56_4.png" preserveAspectRatio="none" x="14061.401367" y="-3595.825195" width="1.098633" height="1.098633"/>
<image xlink:href="tile56_3.png" preserveAspectRatio="none" x="14061.401367" y="-3596.923828" width="1.098633" height="1.098633"/>
<image xlink:href="tile57_12.png" preserveAspectRatio="none" x="14062.5" y="-3587.036133" width="1.098633" height="1.098633"/>
<image xlink:href="tile57_11.png" preserveAspectRatio="none" x="14062.5" y="-3588.134766" width="1.098633" height="1.098633"/>
<image xlink:href="tile57_10.png" preserveAspectRatio="none" x="14062.5" y="-3589.233398" width="1.098633" height="1.098633"/>
<image xlink:href="tile57_9.png" preserveAspectRatio="none" x="14062.5" y="-3590.332031" width="1.098633" height="1.098633"/>
<image xlink:href="tile57_8.png" preserveAspectRatio="none" x="14062.5" y="-3591.430664" width="1.098633" height="1.098633"/>
<image xlink:href="tile57_7.png" preserveAspectRatio="none" x="14062.5" y="-3592.529297" width="1.098633" height="1.098633"/>
<image xlink:href="tile57_6.png" preserveAspectRatio="none" x="14062.5" y="-3593.62793" width="1.098633" height="1.098633"/>
<image xlink:href="tile57_5.png" preserveAspectRatio="none" x="14062.5" y="-3594.726562" width="1.098633" height="1.098633"/>
<image xlink:href="tile57_4.png" preserveAspectRatio="none" x="14062.5" y="-3595.825195" width="1.098633" height="1.098633"/>
<image xlink:href="tile58_12.png" preserveAspectRatio="none" x="14063.598633" y="-3587.036133" width="1.098633" height="1.098633"/>
<image xlink:href="tile58_11.png" preserveAspectRatio="none" x="14063.598633" y="-3588.134766" width="1.098633" height="1.098633"/>
<image xlink:href="tile58_8.png" preserveAspectRatio="none" x="14063.598633" y="-3591.430664" width="1.098633" height="1.098633"/>
<image xlink:href="tile58_7.png" preserveAspectRatio="none" x="14063.598633" y="-3592.529297" width="1.098633" height="1.098633"/>
<image xlink:href="tile58_6.png" preserveAspectRatio="none" x="14063.598633" y="-3593.62793" width="1.098633" height="1.098633"/>
<image xlink:href="tile58_5.png" preserveAspectRatio="none" x="14063.598633" y="-3594.726562" width="1.098633" height="1.098633"/>
<image xlink:href="tile59_12.png" preserveAspectRatio="none" x="14064.697266" y="-3587.036133" width="1.098633" height="1.098633"/>
<image xlink:href="tile59_11.png" preserveAspectRatio="none" x="14064.697266" y="-3588.134766" width="1.098633" height="1.098633"/>
<image xlink:href="tile59_10.png" preserveAspectRatio="none" x="14064.697266" y="-3589.233398" width="1.098633" height="1.098633"/>
<image xlink:href="tile59_7.png" preserveAspectRatio="none" x="14064.697266" y="-3592.529297" width="1.098633" height="1.098633"/>
<image xlink:href="tile59_6.png" preserveAspectRatio="none" x="14064.697266" y="-3593.62793" width="1.098633" height="1.098633"/>
<image xlink:href="tile59_5.png" preserveAspectRatio="none" x="14064.697266" y="-3594.726562" width="1.098633" height="1.098633"/>
<image xlink:href="tile60_12.png" preserveAspectRatio="none" x="14065.795898" y="-3587.036133" width="1.098633" height="1.098633"/>
<image xlink:href="tile60_11.png" preserveAspectRatio="none" x="14065.795898" y="-3588.134766" width="1.098633" height="1.098633"/>
<image xlink:href="tile60_10.png" preserveAspectRatio="none" x="14065.795898" y="-3589.233398" width="1.098633" height="1.098633"/>
<image xlink:href="tile60_7.png" preserveAspectRatio="none" x="14065.795898" y="-3592.529297" width="1.098633" height="1.098633"/>
<image xlink:href="tile60_6.png" preserveAspectRatio="none" x="14065.795898" y="-3593.62793" width="1.098633" height="1.098633"/>
<image xlink:href="tile61_12.png" preserveAspectRatio="none" x="14066.894531" y="-3587.036133" width="1.098633" height="1.098633"/>
<image xlink:href="tile62_12.png" preserveAspectRatio="none" x="14067.993164" y="-3587.036133" width="1.098633" height="1.098633"/>
<image xlink:href="tile63_12.png" preserveAspectRatio="none" x="14069.091797" y="-3587.036133" width="1.098633" height="1.098633"/>
</g>
</svg>
