<?xml version="1.0" encoding="UTF-8"?>
<svg  xmlns="http://www.w3.org/2000/svg" xmlns:xlink="http://www.w3.org/1999/xlink" xmlns:go="http://purl.org/svgmap/profile" viewBox="14000.0 -3600.0 84.0695629999999 66.66666699999979" go:dataArea="14000.0 -3600.0 84.0695629999999 66.66666699999979" >
<metadata>
 <rdf:RDF xmlns:rdf="http://www.w3.org/1999/02/22-rdf-syntax-ns#" xmlns:crs="http://opengis.org/xmldtds/transformations.dtd" xmlns:svg="http://www.w3.org/svg" >
  <rdf:Description>
   <crs:CoordinateReferenceSystem rdf:resource="http://purl.org/crs/84" svg:transform="matrix(100.0,0.0,0.0,-100.0,0.0,0.0)" />
  </rdf:Description>
 </rdf:RDF>
</metadata>
<globalCoordinateSystem srsName="http://purl.org/crs/84" transform="matrix(100.0,0.0,0.0,-100.0,0.0,0.0)" />
<g >
<image xlink:href="tile0_29.png" preserveAspectRatio="none" x="13999.87793" y="-3568.359375" width="1.098633" height="1.098633"/>
<image xlink:href="tile1_29.png" preserveAspectRatio="none" x="14000.976562" y="-3568.359375" width="1.098633" height="1.098633"/>
<image xlink:href="tile4_44.png" preserveAspectRatio="none" x="14004.272461" y="-3551.879883" width="1.098633" height="1.098633"/>
<image xlink:href="tile4_43.png" preserveAspectRatio="none" x="14004.272461" y="-3552.978516" width="1.098633" height="1.098633"/>
<image xlink:href="tile5_44.png" preserveAspectRatio="none" x="14005.371094" y="-3551.879883" width="1.098633" height="1.098633"/>
<image xlink:href="tile5_43.png" preserveAspectRatio="none" x="14005.371094" y="-3552.978516" width="1.098633" height="1.098633"/>
<image xlink:href="tile5_42.png" preserveAspectRatio="none" x="14005.371094" y="-3554.077148" width="1.098633" height="1.098633"/>
<image xlink:href="tile5_41.png" preserveAspectRatio="none" x="14005.371094" y="-3555.175781" width="1.098633" height="1.098633"/>
<image xlink:href="tile6_44.png" preserveAspectRatio="none" x="14006.469727" y="-3551.879883" width="1.098633" height="1.098633"/>
<image xlink:href="tile6_43.png" preserveAspectRatio="none" x="14006.469727" y="-3552.978516" width="1.098633" height="1.098633"/>
<image xlink:href="tile6_42.png" preserveAspectRatio="none" x="14006.469727" y="-3554.077148" width="1.098633" height="1.098633"/>
<image xlink:href="tile6_41.png" preserveAspectRatio="none" x="14006.469727" y="-3555.175781" width="1.098633" height="1.098633"/>
<image xlink:href="tile7_44.png" preserveAspectRatio="none" x="14007.568359" y="-3551.879883" width="1.098633" height="1.098633"/>
<image xlink:href="tile7_43.png" preserveAspectRatio="none" x="14007.568359" y="-3552.978516" width="1.098633" height="1.098633"/>
<image xlink:href="tile7_42.png" preserveAspectRatio="none" x="14007.568359" y="-3554.077148" width="1.098633" height="1.098633"/>
<image xlink:href="tile7_41.png" preserveAspectRatio="none" x="14007.568359" y="-3555.175781" width="1.098633" height="1.098633"/>
<image xlink:href="tile7_34.png" preserveAspectRatio="none" x="14007.568359" y="-3562.866211" width="1.098633" height="1.098633"/>
<image xlink:href="tile8_44.png" preserveAspectRatio="none" x="14008.666992" y="-3551.879883" width="1.098633" height="1.098633"/>
<image xlink:href="tile8_43.png" preserveAspectRatio="none" x="14008.666992" y="-3552.978516" width="1.098633" height="1.098633"/>
<image xlink:href="tile8_42.png" preserveAspectRatio="none" x="14008.666992" y="-3554.077148" width="1.098633" height="1.098633"/>
<image xlink:href="tile8_41.png" preserveAspectRatio="none" x="14008.666992" y="-3555.175781" width="1.098633" height="1.098633"/>
<image xlink:href="tile8_36.png" preserveAspectRatio="none" x="14008.666992" y="-3560.668945" width="1.098633" height="1.098633"/>
<image xlink:href="tile8_35.png" preserveAspectRatio="none" x="14008.666992" y="-3561.767578" width="1.098633" height="1.098633"/>
<image xlink:href="tile8_34.png" preserveAspectRatio="none" x="14008.666992" y="-3562.866211" width="1.098633" height="1.098633"/>
<image xlink:href="tile9_44.png" preserveAspectRatio="none" x="14009.765625" y="-3551.879883" width="1.098633" height="1.098633"/>
<image xlink:href="tile9_43.png" preserveAspectRatio="none" x="14009.765625" y="-3552.978516" width="1.098633" height="1.098633"/>
<image xlink:href="tile9_42.png" preserveAspectRatio="none" x="14009.765625" y="-3554.077148" width="1.098633" height="1.098633"/>
<image xlink:href="tile9_37.png" preserveAspectRatio="none" x="14009.765625" y="-3559.570312" width="1.098633" height="1.098633"/>
<image xlink:href="tile9_36.png" preserveAspectRatio="none" x="14009.765625" y="-3560.668945" width="1.098633" height="1.098633"/>
<image xlink:href="tile9_35.png" preserveAspectRatio="none" x="14009.765625" y="-3561.767578" width="1.098633" height="1.098633"/>
<image xlink:href="tile9_34.png" preserveAspectRatio="none" x="14009.765625" y="-3562.866211" width="1.098633" height="1.098633"/>
<image xlink:href="tile10_44.png" preserveAspectRatio="none" x="14010.864258" y="-3551.879883" width="1.098633" height="1.098633"/>
<image xlink:href="tile10_43.png" preserveAspectRatio="none" x="14010.864258" y="-3552.978516" width="1.098633" height="1.098633"/>
<image xlink:href="tile10_42.png" preserveAspectRatio="none" x="14010.864258" y="-3554.077148" width="1.098633" height="1.098633"/>
<image xlink:href="tile10_41.png" preserveAspectRatio="none" x="14010.864258" y="-3555.175781" width="1.098633" height="1.098633"/>
<image xlink:href="tile10_40.png" preserveAspectRatio="none" x="14010.864258" y="-3556.274414" width="1.098633" height="1.098633"/>
<image xlink:href="tile10_39.png" preserveAspectRatio="none" x="14010.864258" y="-3557.373047" width="1.098633" height="1.098633"/>
<image xlink:href="tile10_37.png" preserveAspectRatio="none" x="14010.864258" y="-3559.570312" width="1.098633" height="1.098633"/>
<image xlink:href="tile10_36.png" preserveAspectRatio="none" x="14010.864258" y="-3560.668945" width="1.098633" height="1.098633"/>
<image xlink:href="tile10_35.png" preserveAspectRatio="none" x="14010.864258" y="-3561.767578" width="1.098633" height="1.098633"/>
<image xlink:href="tile11_42.png" preserveAspectRatio="none" x="14011.962891" y="-3554.077148" width="1.098633" height="1.098633"/>
<image xlink:href="tile11_41.png" preserveAspectRatio="none" x="14011.962891" y="-3555.175781" width="1.098633" height="1.098633"/>
<image xlink:href="tile11_40.png" preserveAspectRatio="none" x="14011.962891" y="-3556.274414" width="1.098633" height="1.098633"/>
<image xlink:href="tile11_39.png" preserveAspectRatio="none" x="14011.962891" y="-3557.373047" width="1.098633" height="1.098633"/>
<image xlink:href="tile11_38.png" preserveAspectRatio="none" x="14011.962891" y="-3558.47168" width="1.098633" height="1.098633"/>
<image xlink:href="tile11_37.png" preserveAspectRatio="none" x="14011.962891" y="-3559.570312" width="1.098633" height="1.098633"/>
<image xlink:href="tile11_36.png" preserveAspectRatio="none" x="14011.962891" y="-3560.668945" width="1.098633" height="1.098633"/>
<image xlink:href="tile11_35.png" preserveAspectRatio="none" x="14011.962891" y="-3561.767578" width="1.098633" height="1.098633"/>
<image xlink:href="tile11_34.png" preserveAspectRatio="none" x="14011.962891" y="-3562.866211" width="1.098633" height="1.098633"/>
<image xlink:href="tile12_42.png" preserveAspectRatio="none" x="14013.061523" y="-3554.077148" width="1.098633" height="1.098633"/>
<image xlink:href="tile12_41.png" preserveAspectRatio="none" x="14013.061523" y="-3555.175781" width="1.098633" height="1.098633"/>
<image xlink:href="tile12_40.png" preserveAspectRatio="none" x="14013.061523" y="-3556.274414" width="1.098633" height="1.098633"/>
<image xlink:href="tile12_39.png" preserveAspectRatio="none" x="14013.061523" y="-3557.373047" width="1.098633" height="1.098633"/>
<image xlink:href="tile12_38.png" preserveAspectRatio="none" x="14013.061523" y="-3558.47168" width="1.098633" height="1.098633"/>
<image xlink:href="tile12_37.png" preserveAspectRatio="none" x="14013.061523" y="-3559.570312" width="1.098633" height="1.098633"/>
<image xlink:href="tile12_36.png" preserveAspectRatio="none" x="14013.061523" y="-3560.668945" width="1.098633" height="1.098633"/>
<image xlink:href="tile12_35.png" preserveAspectRatio="none" x="14013.061523" y="-3561.767578" width="1.098633" height="1.098633"/>
<image xlink:href="tile12_34.png" preserveAspectRatio="none" x="14013.061523" y="-3562.866211" width="1.098633" height="1.098633"/>
<image xlink:href="tile13_42.png" preserveAspectRatio="none" x="14014.160156" y="-3554.077148" width="1.098633" height="1.098633"/>
<image xlink:href="tile13_41.png" preserveAspectRatio="none" x="14014.160156" y="-3555.175781" width="1.098633" height="1.098633"/>
<image xlink:href="tile13_40.png" preserveAspectRatio="none" x="14014.160156" y="-3556.274414" width="1.098633" height="1.098633"/>
<image xlink:href="tile13_36.png" preserveAspectRatio="none" x="14014.160156" y="-3560.668945" width="1.098633" height="1.098633"/>
<image xlink:href="tile13_35.png" preserveAspectRatio="none" x="14014.160156" y="-3561.767578" width="1.098633" height="1.098633"/>
<image xlink:href="tile14_44.png" preserveAspectRatio="none" x="14015.258789" y="-3551.879883" width="1.098633" height="1.098633"/>
<image xlink:href="tile14_43.png" preserveAspectRatio="none" x="14015.258789" y="-3552.978516" width="1.098633" height="1.098633"/>
<image xlink:href="tile14_42.png" preserveAspectRatio="none" x="14015.258789" y="-3554.077148" width="1.098633" height="1.098633"/>
<image xlink:href="tile14_41.png" preserveAspectRatio="none" x="14015.258789" y="-3555.175781" width="1.098633" height="1.098633"/>
<image xlink:href="tile14_40.png" preserveAspectRatio="none" x="14015.258789" y="-3556.274414" width="1.098633" height="1.098633"/>
<image xlink:href="tile14_37.png" preserveAspectRatio="none" x="14015.258789" y="-3559.570312" width="1.098633" height="1.098633"/>
<image xlink:href="tile14_36.png" preserveAspectRatio="none" x="14015.258789" y="-3560.668945" width="1.098633" height="1.098633"/>
<image xlink:href="tile14_35.png" preserveAspectRatio="none" x="14015.258789" y="-3561.767578" width="1.098633" height="1.098633"/>
<image xlink:href="tile15_43.png" preserveAspectRatio="none" x="14016.357422" y="-3552.978516" width="1.098633" height="1.098633"/>
<image xlink:href="tile15_42.png" preserveAspectRatio="none" x="14016.357422" y="-3554.077148" width="1.098633" height="1.098633"/>
<image xlink:href="tile15_38.png" preserveAspectRatio="none" x="14016.357422" y="-3558.47168" width="1.098633" height="1.098633"/>
<image xlink:href="tile15_37.png" preserveAspectRatio="none" x="14016.357422" y="-3559.570312" width="1.098633" height="1.098633"/>
<image xlink:href="tile15_36.png" preserveAspectRatio="none" x="14016.357422" y="-3560.668945" width="1.098633" height="1.098633"/>
<image xlink:href="tile15_35.png" preserveAspectRatio="none" x="14016.357422" y="-3561.767578" width="1.098633" height="1.098633"/>
<image xlink:href="tile15_34.png" preserveAspectRatio="none" x="14016.357422" y="-3562.866211" width="1.098633" height="1.098633"/>
<image xlink:href="tile15_33.png" preserveAspectRatio="none" x="14016.357422" y="-3563.964844" width="1.098633" height="1.098633"/>
</g>
</svg>
