<?xml version="1.0" encoding="UTF-8"?>
<svg  xmlns="http://www.w3.org/2000/svg" xmlns:xlink="http://www.w3.org/1999/xlink" xmlns:go="http://purl.org/svgmap/profile" viewBox="14000.0 -3600.0 84.0695629999999 66.66666699999979" go:dataArea="14000.0 -3600.0 84.0695629999999 66.66666699999979" >
<metadata>
 <rdf:RDF xmlns:rdf="http://www.w3.org/1999/02/22-rdf-syntax-ns#" xmlns:crs="http://opengis.org/xmldtds/transformations.dtd" xmlns:svg="http://www.w3.org/svg" >
  <rdf:Description>
   <crs:CoordinateReferenceSystem rdf:resource="http://purl.org/crs/84" svg:transform="matrix(100.0,0.0,0.0,-100.0,0.0,0.0)" />
  </rdf:Description>
 </rdf:RDF>
</metadata>
<globalCoordinateSystem srsName="http://purl.org/crs/84" transform="matrix(100.0,0.0,0.0,-100.0,0.0,0.0)" />
<g >
<image xlink:href="tile16_44.png" preserveAspectRatio="none" x="14017.456055" y="-3551.879883" width="1.098633" height="1.098633"/>
<image xlink:href="tile16_43.png" preserveAspectRatio="none" x="14017.456055" y="-3552.978516" width="1.098633" height="1.098633"/>
<image xlink:href="tile16_40.png" preserveAspectRatio="none" x="14017.456055" y="-3556.274414" width="1.098633" height="1.098633"/>
<image xlink:href="tile16_39.png" preserveAspectRatio="none" x="14017.456055" y="-3557.373047" width="1.098633" height="1.098633"/>
<image xlink:href="tile16_38.png" preserveAspectRatio="none" x="14017.456055" y="-3558.47168" width="1.098633" height="1.098633"/>
<image xlink:href="tile16_36.png" preserveAspectRatio="none" x="14017.456055" y="-3560.668945" width="1.098633" height="1.098633"/>
<image xlink:href="tile16_35.png" preserveAspectRatio="none" x="14017.456055" y="-3561.767578" width="1.098633" height="1.098633"/>
<image xlink:href="tile16_31.png" preserveAspectRatio="none" x="14017.456055" y="-3566.162109" width="1.098633" height="1.098633"/>
<image xlink:href="tile16_30.png" preserveAspectRatio="none" x="14017.456055" y="-3567.260742" width="1.098633" height="1.098633"/>
<image xlink:href="tile16_29.png" preserveAspectRatio="none" x="14017.456055" y="-3568.359375" width="1.098633" height="1.098633"/>
<image xlink:href="tile17_44.png" preserveAspectRatio="none" x="14018.554688" y="-3551.879883" width="1.098633" height="1.098633"/>
<image xlink:href="tile17_43.png" preserveAspectRatio="none" x="14018.554688" y="-3552.978516" width="1.098633" height="1.098633"/>
<image xlink:href="tile17_42.png" preserveAspectRatio="none" x="14018.554688" y="-3554.077148" width="1.098633" height="1.098633"/>
<image xlink:href="tile17_36.png" preserveAspectRatio="none" x="14018.554688" y="-3560.668945" width="1.098633" height="1.098633"/>
<image xlink:href="tile17_35.png" preserveAspectRatio="none" x="14018.554688" y="-3561.767578" width="1.098633" height="1.098633"/>
<image xlink:href="tile17_30.png" preserveAspectRatio="none" x="14018.554688" y="-3567.260742" width="1.098633" height="1.098633"/>
<image xlink:href="tile17_29.png" preserveAspectRatio="none" x="14018.554688" y="-3568.359375" width="1.098633" height="1.098633"/>
<image xlink:href="tile18_43.png" preserveAspectRatio="none" x="14019.65332" y="-3552.978516" width="1.098633" height="1.098633"/>
<image xlink:href="tile18_42.png" preserveAspectRatio="none" x="14019.65332" y="-3554.077148" width="1.098633" height="1.098633"/>
<image xlink:href="tile18_37.png" preserveAspectRatio="none" x="14019.65332" y="-3559.570312" width="1.098633" height="1.098633"/>
<image xlink:href="tile18_36.png" preserveAspectRatio="none" x="14019.65332" y="-3560.668945" width="1.098633" height="1.098633"/>
<image xlink:href="tile18_32.png" preserveAspectRatio="none" x="14019.65332" y="-3565.063477" width="1.098633" height="1.098633"/>
<image xlink:href="tile18_31.png" preserveAspectRatio="none" x="14019.65332" y="-3566.162109" width="1.098633" height="1.098633"/>
<image xlink:href="tile18_29.png" preserveAspectRatio="none" x="14019.65332" y="-3568.359375" width="1.098633" height="1.098633"/>
<image xlink:href="tile19_44.png" preserveAspectRatio="none" x="14020.751953" y="-3551.879883" width="1.098633" height="1.098633"/>
<image xlink:href="tile19_43.png" preserveAspectRatio="none" x="14020.751953" y="-3552.978516" width="1.098633" height="1.098633"/>
<image xlink:href="tile19_42.png" preserveAspectRatio="none" x="14020.751953" y="-3554.077148" width="1.098633" height="1.098633"/>
<image xlink:href="tile19_37.png" preserveAspectRatio="none" x="14020.751953" y="-3559.570312" width="1.098633" height="1.098633"/>
<image xlink:href="tile19_36.png" preserveAspectRatio="none" x="14020.751953" y="-3560.668945" width="1.098633" height="1.098633"/>
<image xlink:href="tile19_34.png" preserveAspectRatio="none" x="14020.751953" y="-3562.866211" width="1.098633" height="1.098633"/>
<image xlink:href="tile19_33.png" preserveAspectRatio="none" x="14020.751953" y="-3563.964844" width="1.098633" height="1.098633"/>
<image xlink:href="tile19_31.png" preserveAspectRatio="none" x="14020.751953" y="-3566.162109" width="1.098633" height="1.098633"/>
<image xlink:href="tile19_30.png" preserveAspectRatio="none" x="14020.751953" y="-3567.260742" width="1.098633" height="1.098633"/>
<image xlink:href="tile19_29.png" preserveAspectRatio="none" x="14020.751953" y="-3568.359375" width="1.098633" height="1.098633"/>
<image xlink:href="tile20_43.png" preserveAspectRatio="none" x="14021.850586" y="-3552.978516" width="1.098633" height="1.098633"/>
<image xlink:href="tile20_42.png" preserveAspectRatio="none" x="14021.850586" y="-3554.077148" width="1.098633" height="1.098633"/>
<image xlink:href="tile20_34.png" preserveAspectRatio="none" x="14021.850586" y="-3562.866211" width="1.098633" height="1.098633"/>
<image xlink:href="tile20_33.png" preserveAspectRatio="none" x="14021.850586" y="-3563.964844" width="1.098633" height="1.098633"/>
<image xlink:href="tile20_32.png" preserveAspectRatio="none" x="14021.850586" y="-3565.063477" width="1.098633" height="1.098633"/>
<image xlink:href="tile20_31.png" preserveAspectRatio="none" x="14021.850586" y="-3566.162109" width="1.098633" height="1.098633"/>
<image xlink:href="tile20_30.png" preserveAspectRatio="none" x="14021.850586" y="-3567.260742" width="1.098633" height="1.098633"/>
<image xlink:href="tile20_29.png" preserveAspectRatio="none" x="14021.850586" y="-3568.359375" width="1.098633" height="1.098633"/>
<image xlink:href="tile21_43.png" preserveAspectRatio="none" x="14022.949219" y="-3552.978516" width="1.098633" height="1.098633"/>
<image xlink:href="tile21_42.png" preserveAspectRatio="none" x="14022.949219" y="-3554.077148" width="1.098633" height="1.098633"/>
<image xlink:href="tile21_34.png" preserveAspectRatio="none" x="14022.949219" y="-3562.866211" width="1.098633" height="1.098633"/>
<image xlink:href="tile21_32.png" preserveAspectRatio="none" x="14022.949219" y="-3565.063477" width="1.098633" height="1.098633"/>
<image xlink:href="tile21_31.png" preserveAspectRatio="none" x="14022.949219" y="-3566.162109" width="1.098633" height="1.098633"/>
<image xlink:href="tile21_30.png" preserveAspectRatio="none" x="14022.949219" y="-3567.260742" width="1.098633" height="1.098633"/>
<image xlink:href="tile21_29.png" preserveAspectRatio="none" x="14022.949219" y="-3568.359375" width="1.098633" height="1.098633"/>
<image xlink:href="tile22_43.png" preserveAspectRatio="none" x="14024.047852" y="-3552.978516" width="1.098633" height="1.098633"/>
<image xlink:href="tile22_33.png" preserveAspectRatio="none" x="14024.047852" y="-3563.964844" width="1.098633" height="1.098633"/>
<image xlink:href="tile22_32.png" preserveAspectRatio="none" x="14024.047852" y="-3565.063477" width="1.098633" height="1.098633"/>
<image xlink:href="tile23_44.png" preserveAspectRatio="none" x="14025.146484" y="-3551.879883" width="1.098633" height="1.098633"/>
<image xlink:href="tile23_43.png" preserveAspectRatio="none" x="14025.146484" y="-3552.978516" width="1.098633" height="1.098633"/>
<image xlink:href="tile23_33.png" preserveAspectRatio="none" x="14025.146484" y="-3563.964844" width="1.098633" height="1.098633"/>
<image xlink:href="tile23_32.png" preserveAspectRatio="none" x="14025.146484" y="-3565.063477" width="1.098633" height="1.098633"/>
<image xlink:href="tile24_33.png" preserveAspectRatio="none" x="14026.245117" y="-3563.964844" width="1.098633" height="1.098633"/>
<image xlink:href="tile24_32.png" preserveAspectRatio="none" x="14026.245117" y="-3565.063477" width="1.098633" height="1.098633"/>
<image xlink:href="tile27_44.png" preserveAspectRatio="none" x="14029.541016" y="-3551.879883" width="1.098633" height="1.098633"/>
<image xlink:href="tile27_43.png" preserveAspectRatio="none" x="14029.541016" y="-3552.978516" width="1.098633" height="1.098633"/>
<image xlink:href="tile28_44.png" preserveAspectRatio="none" x="14030.639648" y="-3551.879883" width="1.098633" height="1.098633"/>
<image xlink:href="tile28_43.png" preserveAspectRatio="none" x="14030.639648" y="-3552.978516" width="1.098633" height="1.098633"/>
<image xlink:href="tile29_44.png" preserveAspectRatio="none" x="14031.738281" y="-3551.879883" width="1.098633" height="1.098633"/>
<image xlink:href="tile29_43.png" preserveAspectRatio="none" x="14031.738281" y="-3552.978516" width="1.098633" height="1.098633"/>
<image xlink:href="tile29_42.png" preserveAspectRatio="none" x="14031.738281" y="-3554.077148" width="1.098633" height="1.098633"/>
<image xlink:href="tile29_41.png" preserveAspectRatio="none" x="14031.738281" y="-3555.175781" width="1.098633" height="1.098633"/>
<image xlink:href="tile30_44.png" preserveAspectRatio="none" x="14032.836914" y="-3551.879883" width="1.098633" height="1.098633"/>
<image xlink:href="tile30_43.png" preserveAspectRatio="none" x="14032.836914" y="-3552.978516" width="1.098633" height="1.098633"/>
<image xlink:href="tile30_42.png" preserveAspectRatio="none" x="14032.836914" y="-3554.077148" width="1.098633" height="1.098633"/>
<image xlink:href="tile30_41.png" preserveAspectRatio="none" x="14032.836914" y="-3555.175781" width="1.098633" height="1.098633"/>
<image xlink:href="tile30_34.png" preserveAspectRatio="none" x="14032.836914" y="-3562.866211" width="1.098633" height="1.098633"/>
<image xlink:href="tile31_44.png" preserveAspectRatio="none" x="14033.935547" y="-3551.879883" width="1.098633" height="1.098633"/>
<image xlink:href="tile31_43.png" preserveAspectRatio="none" x="14033.935547" y="-3552.978516" width="1.098633" height="1.098633"/>
<image xlink:href="tile31_42.png" preserveAspectRatio="none" x="14033.935547" y="-3554.077148" width="1.098633" height="1.098633"/>
<image xlink:href="tile31_41.png" preserveAspectRatio="none" x="14033.935547" y="-3555.175781" width="1.098633" height="1.098633"/>
<image xlink:href="tile31_37.png" preserveAspectRatio="none" x="14033.935547" y="-3559.570312" width="1.098633" height="1.098633"/>
<image xlink:href="tile31_34.png" preserveAspectRatio="none" x="14033.935547" y="-3562.866211" width="1.098633" height="1.098633"/>
<image xlink:href="tile31_33.png" preserveAspectRatio="none" x="14033.935547" y="-3563.964844" width="1.098633" height="1.098633"/>
<image xlink:href="tile31_32.png" preserveAspectRatio="none" x="14033.935547" y="-3565.063477" width="1.098633" height="1.098633"/>
</g>
</svg>
