<?xml version="1.0" encoding="UTF-8"?>
<svg  xmlns="http://www.w3.org/2000/svg" xmlns:xlink="http://www.w3.org/1999/xlink" xmlns:go="http://purl.org/svgmap/profile" viewBox="14000.0 -3600.0 84.0695629999999 66.66666699999979" go:dataArea="14000.0 -3600.0 84.0695629999999 66.66666699999979" >
<metadata>
 <rdf:RDF xmlns:rdf="http://www.w3.org/1999/02/22-rdf-syntax-ns#" xmlns:crs="http://opengis.org/xmldtds/transformations.dtd" xmlns:svg="http://www.w3.org/svg" >
  <rdf:Description>
   <crs:CoordinateReferenceSystem rdf:resource="http://purl.org/crs/84" svg:transform="matrix(100.0,0.0,0.0,-100.0,0.0,0.0)" />
  </rdf:Description>
 </rdf:RDF>
</metadata>
<globalCoordinateSystem srsName="http://purl.org/crs/84" transform="matrix(100.0,0.0,0.0,-100.0,0.0,0.0)" />
<g >
<image xlink:href="tile16_54.png" preserveAspectRatio="none" x="14017.456055" y="-3540.893555" width="1.098633" height="1.098633"/>
<image xlink:href="tile17_54.png" preserveAspectRatio="none" x="14018.554688" y="-3540.893555" width="1.098633" height="1.098633"/>
<image xlink:href="tile17_53.png" preserveAspectRatio="none" x="14018.554688" y="-3541.992188" width="1.098633" height="1.098633"/>
<image xlink:href="tile17_52.png" preserveAspectRatio="none" x="14018.554688" y="-3543.09082" width="1.098633" height="1.098633"/>
<image xlink:href="tile17_46.png" preserveAspectRatio="none" x="14018.554688" y="-3549.682617" width="1.098633" height="1.098633"/>
<image xlink:href="tile17_45.png" preserveAspectRatio="none" x="14018.554688" y="-3550.78125" width="1.098633" height="1.098633"/>
<image xlink:href="tile18_54.png" preserveAspectRatio="none" x="14019.65332" y="-3540.893555" width="1.098633" height="1.098633"/>
<image xlink:href="tile18_53.png" preserveAspectRatio="none" x="14019.65332" y="-3541.992188" width="1.098633" height="1.098633"/>
<image xlink:href="tile18_52.png" preserveAspectRatio="none" x="14019.65332" y="-3543.09082" width="1.098633" height="1.098633"/>
<image xlink:href="tile18_51.png" preserveAspectRatio="none" x="14019.65332" y="-3544.189453" width="1.098633" height="1.098633"/>
<image xlink:href="tile18_47.png" preserveAspectRatio="none" x="14019.65332" y="-3548.583984" width="1.098633" height="1.098633"/>
<image xlink:href="tile18_46.png" preserveAspectRatio="none" x="14019.65332" y="-3549.682617" width="1.098633" height="1.098633"/>
<image xlink:href="tile19_55.png" preserveAspectRatio="none" x="14020.751953" y="-3539.794922" width="1.098633" height="1.098633"/>
<image xlink:href="tile19_54.png" preserveAspectRatio="none" x="14020.751953" y="-3540.893555" width="1.098633" height="1.098633"/>
<image xlink:href="tile19_53.png" preserveAspectRatio="none" x="14020.751953" y="-3541.992188" width="1.098633" height="1.098633"/>
<image xlink:href="tile19_52.png" preserveAspectRatio="none" x="14020.751953" y="-3543.09082" width="1.098633" height="1.098633"/>
<image xlink:href="tile19_51.png" preserveAspectRatio="none" x="14020.751953" y="-3544.189453" width="1.098633" height="1.098633"/>
<image xlink:href="tile20_59.png" preserveAspectRatio="none" x="14021.850586" y="-3535.400391" width="1.098633" height="1.098633"/>
<image xlink:href="tile20_58.png" preserveAspectRatio="none" x="14021.850586" y="-3536.499023" width="1.098633" height="1.098633"/>
<image xlink:href="tile20_57.png" preserveAspectRatio="none" x="14021.850586" y="-3537.597656" width="1.098633" height="1.098633"/>
<image xlink:href="tile20_55.png" preserveAspectRatio="none" x="14021.850586" y="-3539.794922" width="1.098633" height="1.098633"/>
<image xlink:href="tile20_54.png" preserveAspectRatio="none" x="14021.850586" y="-3540.893555" width="1.098633" height="1.098633"/>
<image xlink:href="tile20_52.png" preserveAspectRatio="none" x="14021.850586" y="-3543.09082" width="1.098633" height="1.098633"/>
<image xlink:href="tile20_51.png" preserveAspectRatio="none" x="14021.850586" y="-3544.189453" width="1.098633" height="1.098633"/>
<image xlink:href="tile21_58.png" preserveAspectRatio="none" x="14022.949219" y="-3536.499023" width="1.098633" height="1.098633"/>
<image xlink:href="tile21_57.png" preserveAspectRatio="none" x="14022.949219" y="-3537.597656" width="1.098633" height="1.098633"/>
<image xlink:href="tile21_55.png" preserveAspectRatio="none" x="14022.949219" y="-3539.794922" width="1.098633" height="1.098633"/>
<image xlink:href="tile21_54.png" preserveAspectRatio="none" x="14022.949219" y="-3540.893555" width="1.098633" height="1.098633"/>
<image xlink:href="tile21_53.png" preserveAspectRatio="none" x="14022.949219" y="-3541.992188" width="1.098633" height="1.098633"/>
<image xlink:href="tile21_52.png" preserveAspectRatio="none" x="14022.949219" y="-3543.09082" width="1.098633" height="1.098633"/>
<image xlink:href="tile21_51.png" preserveAspectRatio="none" x="14022.949219" y="-3544.189453" width="1.098633" height="1.098633"/>
<image xlink:href="tile22_60.png" preserveAspectRatio="none" x="14024.047852" y="-3534.301758" width="1.098633" height="1.098633"/>
<image xlink:href="tile22_59.png" preserveAspectRatio="none" x="14024.047852" y="-3535.400391" width="1.098633" height="1.098633"/>
<image xlink:href="tile22_57.png" preserveAspectRatio="none" x="14024.047852" y="-3537.597656" width="1.098633" height="1.098633"/>
<image xlink:href="tile22_56.png" preserveAspectRatio="none" x="14024.047852" y="-3538.696289" width="1.098633" height="1.098633"/>
<image xlink:href="tile22_54.png" preserveAspectRatio="none" x="14024.047852" y="-3540.893555" width="1.098633" height="1.098633"/>
<image xlink:href="tile22_53.png" preserveAspectRatio="none" x="14024.047852" y="-3541.992188" width="1.098633" height="1.098633"/>
<image xlink:href="tile22_52.png" preserveAspectRatio="none" x="14024.047852" y="-3543.09082" width="1.098633" height="1.098633"/>
<image xlink:href="tile22_51.png" preserveAspectRatio="none" x="14024.047852" y="-3544.189453" width="1.098633" height="1.098633"/>
<image xlink:href="tile22_50.png" preserveAspectRatio="none" x="14024.047852" y="-3545.288086" width="1.098633" height="1.098633"/>
<image xlink:href="tile22_49.png" preserveAspectRatio="none" x="14024.047852" y="-3546.386719" width="1.098633" height="1.098633"/>
<image xlink:href="tile22_48.png" preserveAspectRatio="none" x="14024.047852" y="-3547.485352" width="1.098633" height="1.098633"/>
<image xlink:href="tile23_59.png" preserveAspectRatio="none" x="14025.146484" y="-3535.400391" width="1.098633" height="1.098633"/>
<image xlink:href="tile23_58.png" preserveAspectRatio="none" x="14025.146484" y="-3536.499023" width="1.098633" height="1.098633"/>
<image xlink:href="tile23_57.png" preserveAspectRatio="none" x="14025.146484" y="-3537.597656" width="1.098633" height="1.098633"/>
<image xlink:href="tile23_56.png" preserveAspectRatio="none" x="14025.146484" y="-3538.696289" width="1.098633" height="1.098633"/>
<image xlink:href="tile23_55.png" preserveAspectRatio="none" x="14025.146484" y="-3539.794922" width="1.098633" height="1.098633"/>
<image xlink:href="tile23_53.png" preserveAspectRatio="none" x="14025.146484" y="-3541.992188" width="1.098633" height="1.098633"/>
<image xlink:href="tile23_52.png" preserveAspectRatio="none" x="14025.146484" y="-3543.09082" width="1.098633" height="1.098633"/>
<image xlink:href="tile23_51.png" preserveAspectRatio="none" x="14025.146484" y="-3544.189453" width="1.098633" height="1.098633"/>
<image xlink:href="tile23_50.png" preserveAspectRatio="none" x="14025.146484" y="-3545.288086" width="1.098633" height="1.098633"/>
<image xlink:href="tile23_49.png" preserveAspectRatio="none" x="14025.146484" y="-3546.386719" width="1.098633" height="1.098633"/>
<image xlink:href="tile23_45.png" preserveAspectRatio="none" x="14025.146484" y="-3550.78125" width="1.098633" height="1.098633"/>
<image xlink:href="tile24_58.png" preserveAspectRatio="none" x="14026.245117" y="-3536.499023" width="1.098633" height="1.098633"/>
<image xlink:href="tile24_57.png" preserveAspectRatio="none" x="14026.245117" y="-3537.597656" width="1.098633" height="1.098633"/>
<image xlink:href="tile24_56.png" preserveAspectRatio="none" x="14026.245117" y="-3538.696289" width="1.098633" height="1.098633"/>
<image xlink:href="tile24_55.png" preserveAspectRatio="none" x="14026.245117" y="-3539.794922" width="1.098633" height="1.098633"/>
<image xlink:href="tile24_53.png" preserveAspectRatio="none" x="14026.245117" y="-3541.992188" width="1.098633" height="1.098633"/>
<image xlink:href="tile24_52.png" preserveAspectRatio="none" x="14026.245117" y="-3543.09082" width="1.098633" height="1.098633"/>
<image xlink:href="tile24_51.png" preserveAspectRatio="none" x="14026.245117" y="-3544.189453" width="1.098633" height="1.098633"/>
<image xlink:href="tile24_50.png" preserveAspectRatio="none" x="14026.245117" y="-3545.288086" width="1.098633" height="1.098633"/>
<image xlink:href="tile24_49.png" preserveAspectRatio="none" x="14026.245117" y="-3546.386719" width="1.098633" height="1.098633"/>
<image xlink:href="tile25_60.png" preserveAspectRatio="none" x="14027.34375" y="-3534.301758" width="1.098633" height="1.098633"/>
<image xlink:href="tile25_59.png" preserveAspectRatio="none" x="14027.34375" y="-3535.400391" width="1.098633" height="1.098633"/>
<image xlink:href="tile25_57.png" preserveAspectRatio="none" x="14027.34375" y="-3537.597656" width="1.098633" height="1.098633"/>
<image xlink:href="tile25_56.png" preserveAspectRatio="none" x="14027.34375" y="-3538.696289" width="1.098633" height="1.098633"/>
<image xlink:href="tile25_55.png" preserveAspectRatio="none" x="14027.34375" y="-3539.794922" width="1.098633" height="1.098633"/>
<image xlink:href="tile25_54.png" preserveAspectRatio="none" x="14027.34375" y="-3540.893555" width="1.098633" height="1.098633"/>
<image xlink:href="tile25_53.png" preserveAspectRatio="none" x="14027.34375" y="-3541.992188" width="1.098633" height="1.098633"/>
<image xlink:href="tile25_52.png" preserveAspectRatio="none" x="14027.34375" y="-3543.09082" width="1.098633" height="1.098633"/>
<image xlink:href="tile25_51.png" preserveAspectRatio="none" x="14027.34375" y="-3544.189453" width="1.098633" height="1.098633"/>
<image xlink:href="tile25_50.png" preserveAspectRatio="none" x="14027.34375" y="-3545.288086" width="1.098633" height="1.098633"/>
<image xlink:href="tile25_49.png" preserveAspectRatio="none" x="14027.34375" y="-3546.386719" width="1.098633" height="1.098633"/>
<image xlink:href="tile25_48.png" preserveAspectRatio="none" x="14027.34375" y="-3547.485352" width="1.098633" height="1.098633"/>
<image xlink:href="tile26_55.png" preserveAspectRatio="none" x="14028.442383" y="-3539.794922" width="1.098633" height="1.098633"/>
<image xlink:href="tile26_54.png" preserveAspectRatio="none" x="14028.442383" y="-3540.893555" width="1.098633" height="1.098633"/>
<image xlink:href="tile26_53.png" preserveAspectRatio="none" x="14028.442383" y="-3541.992188" width="1.098633" height="1.098633"/>
<image xlink:href="tile26_52.png" preserveAspectRatio="none" x="14028.442383" y="-3543.09082" width="1.098633" height="1.098633"/>
<image xlink:href="tile26_51.png" preserveAspectRatio="none" x="14028.442383" y="-3544.189453" width="1.098633" height="1.098633"/>
<image xlink:href="tile26_50.png" preserveAspectRatio="none" x="14028.442383" y="-3545.288086" width="1.098633" height="1.098633"/>
<image xlink:href="tile26_49.png" preserveAspectRatio="none" x="14028.442383" y="-3546.386719" width="1.098633" height="1.098633"/>
<image xlink:href="tile26_48.png" preserveAspectRatio="none" x="14028.442383" y="-3547.485352" width="1.098633" height="1.098633"/>
<image xlink:href="tile27_57.png" preserveAspectRatio="none" x="14029.541016" y="-3537.597656" width="1.098633" height="1.098633"/>
<image xlink:href="tile27_55.png" preserveAspectRatio="none" x="14029.541016" y="-3539.794922" width="1.098633" height="1.098633"/>
<image xlink:href="tile27_54.png" preserveAspectRatio="none" x="14029.541016" y="-3540.893555" width="1.098633" height="1.098633"/>
<image xlink:href="tile27_53.png" preserveAspectRatio="none" x="14029.541016" y="-3541.992188" width="1.098633" height="1.098633"/>
<image xlink:href="tile27_52.png" preserveAspectRatio="none" x="14029.541016" y="-3543.09082" width="1.098633" height="1.098633"/>
<image xlink:href="tile27_51.png" preserveAspectRatio="none" x="14029.541016" y="-3544.189453" width="1.098633" height="1.098633"/>
<image xlink:href="tile27_50.png" preserveAspectRatio="none" x="14029.541016" y="-3545.288086" width="1.098633" height="1.098633"/>
<image xlink:href="tile27_49.png" preserveAspectRatio="none" x="14029.541016" y="-3546.386719" width="1.098633" height="1.098633"/>
<image xlink:href="tile27_48.png" preserveAspectRatio="none" x="14029.541016" y="-3547.485352" width="1.098633" height="1.098633"/>
<image xlink:href="tile27_47.png" preserveAspectRatio="none" x="14029.541016" y="-3548.583984" width="1.098633" height="1.098633"/>
<image xlink:href="tile27_46.png" preserveAspectRatio="none" x="14029.541016" y="-3549.682617" width="1.098633" height="1.098633"/>
<image xlink:href="tile28_59.png" preserveAspectRatio="none" x="14030.639648" y="-3535.400391" width="1.098633" height="1.098633"/>
<image xlink:href="tile28_58.png" preserveAspectRatio="none" x="14030.639648" y="-3536.499023" width="1.098633" height="1.098633"/>
<image xlink:href="tile28_57.png" preserveAspectRatio="none" x="14030.639648" y="-3537.597656" width="1.098633" height="1.098633"/>
<image xlink:href="tile28_55.png" preserveAspectRatio="none" x="14030.639648" y="-3539.794922" width="1.098633" height="1.098633"/>
<image xlink:href="tile28_54.png" preserveAspectRatio="none" x="14030.639648" y="-3540.893555" width="1.098633" height="1.098633"/>
<image xlink:href="tile28_53.png" preserveAspectRatio="none" x="14030.639648" y="-3541.992188" width="1.098633" height="1.098633"/>
<image xlink:href="tile28_52.png" preserveAspectRatio="none" x="14030.639648" y="-3543.09082" width="1.098633" height="1.098633"/>
<image xlink:href="tile28_51.png" preserveAspectRatio="none" x="14030.639648" y="-3544.189453" width="1.098633" height="1.098633"/>
<image xlink:href="tile28_50.png" preserveAspectRatio="none" x="14030.639648" y="-3545.288086" width="1.098633" height="1.098633"/>
<image xlink:href="tile28_49.png" preserveAspectRatio="none" x="14030.639648" y="-3546.386719" width="1.098633" height="1.098633"/>
<image xlink:href="tile28_48.png" preserveAspectRatio="none" x="14030.639648" y="-3547.485352" width="1.098633" height="1.098633"/>
<image xlink:href="tile28_47.png" preserveAspectRatio="none" x="14030.639648" y="-3548.583984" width="1.098633" height="1.098633"/>
<image xlink:href="tile28_46.png" preserveAspectRatio="none" x="14030.639648" y="-3549.682617" width="1.098633" height="1.098633"/>
<image xlink:href="tile28_45.png" preserveAspectRatio="none" x="14030.639648" y="-3550.78125" width="1.098633" height="1.098633"/>
<image xlink:href="tile29_58.png" preserveAspectRatio="none" x="14031.738281" y="-3536.499023" width="1.098633" height="1.098633"/>
<image xlink:href="tile29_57.png" preserveAspectRatio="none" x="14031.738281" y="-3537.597656" width="1.098633" height="1.098633"/>
<image xlink:href="tile29_56.png" preserveAspectRatio="none" x="14031.738281" y="-3538.696289" width="1.098633" height="1.098633"/>
<image xlink:href="tile29_55.png" preserveAspectRatio="none" x="14031.738281" y="-3539.794922" width="1.098633" height="1.098633"/>
<image xlink:href="tile29_54.png" preserveAspectRatio="none" x="14031.738281" y="-3540.893555" width="1.098633" height="1.098633"/>
<image xlink:href="tile29_53.png" preserveAspectRatio="none" x="14031.738281" y="-3541.992188" width="1.098633" height="1.098633"/>
<image xlink:href="tile29_52.png" preserveAspectRatio="none" x="14031.738281" y="-3543.09082" width="1.098633" height="1.098633"/>
<image xlink:href="tile29_51.png" preserveAspectRatio="none" x="14031.738281" y="-3544.189453" width="1.098633" height="1.098633"/>
<image xlink:href="tile29_50.png" preserveAspectRatio="none" x="14031.738281" y="-3545.288086" width="1.098633" height="1.098633"/>
<image xlink:href="tile29_49.png" preserveAspectRatio="none" x="14031.738281" y="-3546.386719" width="1.098633" height="1.098633"/>
<image xlink:href="tile29_48.png" preserveAspectRatio="none" x="14031.738281" y="-3547.485352" width="1.098633" height="1.098633"/>
<image xlink:href="tile29_47.png" preserveAspectRatio="none" x="14031.738281" y="-3548.583984" width="1.098633" height="1.098633"/>
<image xlink:href="tile29_46.png" preserveAspectRatio="none" x="14031.738281" y="-3549.682617" width="1.098633" height="1.098633"/>
<image xlink:href="tile29_45.png" preserveAspectRatio="none" x="14031.738281" y="-3550.78125" width="1.098633" height="1.098633"/>
<image xlink:href="tile30_58.png" preserveAspectRatio="none" x="14032.836914" y="-3536.499023" width="1.098633" height="1.098633"/>
<image xlink:href="tile30_57.png" preserveAspectRatio="none" x="14032.836914" y="-3537.597656" width="1.098633" height="1.098633"/>
<image xlink:href="tile30_56.png" preserveAspectRatio="none" x="14032.836914" y="-3538.696289" width="1.098633" height="1.098633"/>
<image xlink:href="tile30_55.png" preserveAspectRatio="none" x="14032.836914" y="-3539.794922" width="1.098633" height="1.098633"/>
<image xlink:href="tile30_53.png" preserveAspectRatio="none" x="14032.836914" y="-3541.992188" width="1.098633" height="1.098633"/>
<image xlink:href="tile30_52.png" preserveAspectRatio="none" x="14032.836914" y="-3543.09082" width="1.098633" height="1.098633"/>
<image xlink:href="tile30_51.png" preserveAspectRatio="none" x="14032.836914" y="-3544.189453" width="1.098633" height="1.098633"/>
<image xlink:href="tile30_50.png" preserveAspectRatio="none" x="14032.836914" y="-3545.288086" width="1.098633" height="1.098633"/>
<image xlink:href="tile30_49.png" preserveAspectRatio="none" x="14032.836914" y="-3546.386719" width="1.098633" height="1.098633"/>
<image xlink:href="tile30_48.png" preserveAspectRatio="none" x="14032.836914" y="-3547.485352" width="1.098633" height="1.098633"/>
<image xlink:href="tile30_47.png" preserveAspectRatio="none" x="14032.836914" y="-3548.583984" width="1.098633" height="1.098633"/>
<image xlink:href="tile30_46.png" preserveAspectRatio="none" x="14032.836914" y="-3549.682617" width="1.098633" height="1.098633"/>
<image xlink:href="tile30_45.png" preserveAspectRatio="none" x="14032.836914" y="-3550.78125" width="1.098633" height="1.098633"/>
<image xlink:href="tile31_58.png" preserveAspectRatio="none" x="14033.935547" y="-3536.499023" width="1.098633" height="1.098633"/>
<image xlink:href="tile31_57.png" preserveAspectRatio="none" x="14033.935547" y="-3537.597656" width="1.098633" height="1.098633"/>
<image xlink:href="tile31_56.png" preserveAspectRatio="none" x="14033.935547" y="-3538.696289" width="1.098633" height="1.098633"/>
<image xlink:href="tile31_55.png" preserveAspectRatio="none" x="14033.935547" y="-3539.794922" width="1.098633" height="1.098633"/>
<image xlink:href="tile31_53.png" preserveAspectRatio="none" x="14033.935547" y="-3541.992188" width="1.098633" height="1.098633"/>
<image xlink:href="tile31_52.png" preserveAspectRatio="none" x="14033.935547" y="-3543.09082" width="1.098633" height="1.098633"/>
<image xlink:href="tile31_51.png" preserveAspectRatio="none" x="14033.935547" y="-3544.189453" width="1.098633" height="1.098633"/>
<image xlink:href="tile31_50.png" preserveAspectRatio="none" x="14033.935547" y="-3545.288086" width="1.098633" height="1.098633"/>
<image xlink:href="tile31_49.png" preserveAspectRatio="none" x="14033.935547" y="-3546.386719" width="1.098633" height="1.098633"/>
<image xlink:href="tile31_48.png" preserveAspectRatio="none" x="14033.935547" y="-3547.485352" width="1.098633" height="1.098633"/>
<image xlink:href="tile31_47.png" preserveAspectRatio="none" x="14033.935547" y="-3548.583984" width="1.098633" height="1.098633"/>
<image xlink:href="tile31_46.png" preserveAspectRatio="none" x="14033.935547" y="-3549.682617" width="1.098633" height="1.098633"/>
<image xlink:href="tile31_45.png" preserveAspectRatio="none" x="14033.935547" y="-3550.78125" width="1.098633" height="1.098633"/>
</g>
</svg>
