<?xml version="1.0" encoding="UTF-8"?>
<svg  xmlns="http://www.w3.org/2000/svg" xmlns:xlink="http://www.w3.org/1999/xlink" xmlns:go="http://purl.org/svgmap/profile" viewBox="13900.0 -3800.0 96.37680600000067 66.66666699999979" go:dataArea="13900.0 -3800.0 96.37680600000067 66.66666699999979" >
<metadata>
 <rdf:RDF xmlns:rdf="http://www.w3.org/1999/02/22-rdf-syntax-ns#" xmlns:crs="http://opengis.org/xmldtds/transformations.dtd" xmlns:svg="http://www.w3.org/svg" >
  <rdf:Description>
   <crs:CoordinateReferenceSystem rdf:resource="http://purl.org/crs/84" svg:transform="matrix(100.0,0.0,0.0,-100.0,0.0,0.0)" />
  </rdf:Description>
 </rdf:RDF>
</metadata>
<globalCoordinateSystem srsName="http://purl.org/crs/84" transform="matrix(100.0,0.0,0.0,-100.0,0.0,0.0)" />
<g >
<image xlink:href="tile0_25.png" preserveAspectRatio="none" x="13899.902344" y="-3746.337891" width="2.197266" height="2.197266"/>
<image xlink:href="tile0_24.png" preserveAspectRatio="none" x="13899.902344" y="-3748.535156" width="2.197266" height="2.197266"/>
<image xlink:href="tile0_23.png" preserveAspectRatio="none" x="13899.902344" y="-3750.732422" width="2.197266" height="2.197266"/>
<image xlink:href="tile0_19.png" preserveAspectRatio="none" x="13899.902344" y="-3759.521484" width="2.197266" height="2.197266"/>
<image xlink:href="tile0_18.png" preserveAspectRatio="none" x="13899.902344" y="-3761.71875" width="2.197266" height="2.197266"/>
<image xlink:href="tile0_17.png" preserveAspectRatio="none" x="13899.902344" y="-3763.916016" width="2.197266" height="2.197266"/>
<image xlink:href="tile0_16.png" preserveAspectRatio="none" x="13899.902344" y="-3766.113281" width="2.197266" height="2.197266"/>
<image xlink:href="tile0_15.png" preserveAspectRatio="none" x="13899.902344" y="-3768.310547" width="2.197266" height="2.197266"/>
<image xlink:href="tile1_20.png" preserveAspectRatio="none" x="13902.099609" y="-3757.324219" width="2.197266" height="2.197266"/>
<image xlink:href="tile1_19.png" preserveAspectRatio="none" x="13902.099609" y="-3759.521484" width="2.197266" height="2.197266"/>
<image xlink:href="tile1_17.png" preserveAspectRatio="none" x="13902.099609" y="-3763.916016" width="2.197266" height="2.197266"/>
<image xlink:href="tile1_16.png" preserveAspectRatio="none" x="13902.099609" y="-3766.113281" width="2.197266" height="2.197266"/>
<image xlink:href="tile1_15.png" preserveAspectRatio="none" x="13902.099609" y="-3768.310547" width="2.197266" height="2.197266"/>
<image xlink:href="tile2_20.png" preserveAspectRatio="none" x="13904.296875" y="-3757.324219" width="2.197266" height="2.197266"/>
<image xlink:href="tile2_19.png" preserveAspectRatio="none" x="13904.296875" y="-3759.521484" width="2.197266" height="2.197266"/>
<image xlink:href="tile2_16.png" preserveAspectRatio="none" x="13904.296875" y="-3766.113281" width="2.197266" height="2.197266"/>
<image xlink:href="tile2_15.png" preserveAspectRatio="none" x="13904.296875" y="-3768.310547" width="2.197266" height="2.197266"/>
<image xlink:href="tile3_21.png" preserveAspectRatio="none" x="13906.494141" y="-3755.126953" width="2.197266" height="2.197266"/>
<image xlink:href="tile3_20.png" preserveAspectRatio="none" x="13906.494141" y="-3757.324219" width="2.197266" height="2.197266"/>
<image xlink:href="tile3_16.png" preserveAspectRatio="none" x="13906.494141" y="-3766.113281" width="2.197266" height="2.197266"/>
<image xlink:href="tile4_21.png" preserveAspectRatio="none" x="13908.691406" y="-3755.126953" width="2.197266" height="2.197266"/>
<image xlink:href="tile4_18.png" preserveAspectRatio="none" x="13908.691406" y="-3761.71875" width="2.197266" height="2.197266"/>
<image xlink:href="tile4_17.png" preserveAspectRatio="none" x="13908.691406" y="-3763.916016" width="2.197266" height="2.197266"/>
<image xlink:href="tile4_16.png" preserveAspectRatio="none" x="13908.691406" y="-3766.113281" width="2.197266" height="2.197266"/>
<image xlink:href="tile5_21.png" preserveAspectRatio="none" x="13910.888672" y="-3755.126953" width="2.197266" height="2.197266"/>
<image xlink:href="tile5_19.png" preserveAspectRatio="none" x="13910.888672" y="-3759.521484" width="2.197266" height="2.197266"/>
<image xlink:href="tile5_18.png" preserveAspectRatio="none" x="13910.888672" y="-3761.71875" width="2.197266" height="2.197266"/>
<image xlink:href="tile5_17.png" preserveAspectRatio="none" x="13910.888672" y="-3763.916016" width="2.197266" height="2.197266"/>
<image xlink:href="tile5_15.png" preserveAspectRatio="none" x="13910.888672" y="-3768.310547" width="2.197266" height="2.197266"/>
<image xlink:href="tile6_22.png" preserveAspectRatio="none" x="13913.085938" y="-3752.929688" width="2.197266" height="2.197266"/>
<image xlink:href="tile6_21.png" preserveAspectRatio="none" x="13913.085938" y="-3755.126953" width="2.197266" height="2.197266"/>
<image xlink:href="tile6_19.png" preserveAspectRatio="none" x="13913.085938" y="-3759.521484" width="2.197266" height="2.197266"/>
<image xlink:href="tile6_18.png" preserveAspectRatio="none" x="13913.085938" y="-3761.71875" width="2.197266" height="2.197266"/>
<image xlink:href="tile6_17.png" preserveAspectRatio="none" x="13913.085938" y="-3763.916016" width="2.197266" height="2.197266"/>
<image xlink:href="tile6_16.png" preserveAspectRatio="none" x="13913.085938" y="-3766.113281" width="2.197266" height="2.197266"/>
<image xlink:href="tile6_15.png" preserveAspectRatio="none" x="13913.085938" y="-3768.310547" width="2.197266" height="2.197266"/>
<image xlink:href="tile7_17.png" preserveAspectRatio="none" x="13915.283203" y="-3763.916016" width="2.197266" height="2.197266"/>
<image xlink:href="tile7_16.png" preserveAspectRatio="none" x="13915.283203" y="-3766.113281" width="2.197266" height="2.197266"/>
<image xlink:href="tile7_15.png" preserveAspectRatio="none" x="13915.283203" y="-3768.310547" width="2.197266" height="2.197266"/>
<image xlink:href="tile8_15.png" preserveAspectRatio="none" x="13917.480469" y="-3768.310547" width="2.197266" height="2.197266"/>
<image xlink:href="tile9_15.png" preserveAspectRatio="none" x="13919.677734" y="-3768.310547" width="2.197266" height="2.197266"/>
<image xlink:href="tile10_15.png" preserveAspectRatio="none" x="13921.875" y="-3768.310547" width="2.197266" height="2.197266"/>
<image xlink:href="tile11_15.png" preserveAspectRatio="none" x="13924.072266" y="-3768.310547" width="2.197266" height="2.197266"/>
<image xlink:href="tile12_16.png" preserveAspectRatio="none" x="13926.269531" y="-3766.113281" width="2.197266" height="2.197266"/>
<image xlink:href="tile12_15.png" preserveAspectRatio="none" x="13926.269531" y="-3768.310547" width="2.197266" height="2.197266"/>
<image xlink:href="tile13_30.png" preserveAspectRatio="none" x="13928.466797" y="-3735.351562" width="2.197266" height="2.197266"/>
<image xlink:href="tile14_30.png" preserveAspectRatio="none" x="13930.664062" y="-3735.351562" width="2.197266" height="2.197266"/>
<image xlink:href="tile14_29.png" preserveAspectRatio="none" x="13930.664062" y="-3737.548828" width="2.197266" height="2.197266"/>
<image xlink:href="tile14_28.png" preserveAspectRatio="none" x="13930.664062" y="-3739.746094" width="2.197266" height="2.197266"/>
<image xlink:href="tile15_30.png" preserveAspectRatio="none" x="13932.861328" y="-3735.351562" width="2.197266" height="2.197266"/>
<image xlink:href="tile15_29.png" preserveAspectRatio="none" x="13932.861328" y="-3737.548828" width="2.197266" height="2.197266"/>
<image xlink:href="tile15_28.png" preserveAspectRatio="none" x="13932.861328" y="-3739.746094" width="2.197266" height="2.197266"/>
</g>
</svg>
