<?xml version="1.0" encoding="UTF-8"?>
<svg  xmlns="http://www.w3.org/2000/svg" xmlns:xlink="http://www.w3.org/1999/xlink" xmlns:go="http://purl.org/svgmap/profile" viewBox="13900.0 -3800.0 96.37680600000067 66.66666699999979" go:dataArea="13900.0 -3800.0 96.37680600000067 66.66666699999979" >
<metadata>
 <rdf:RDF xmlns:rdf="http://www.w3.org/1999/02/22-rdf-syntax-ns#" xmlns:crs="http://opengis.org/xmldtds/transformations.dtd" xmlns:svg="http://www.w3.org/svg" >
  <rdf:Description>
   <crs:CoordinateReferenceSystem rdf:resource="http://purl.org/crs/84" svg:transform="matrix(100.0,0.0,0.0,-100.0,0.0,0.0)" />
  </rdf:Description>
 </rdf:RDF>
</metadata>
<globalCoordinateSystem srsName="http://purl.org/crs/84" transform="matrix(100.0,0.0,0.0,-100.0,0.0,0.0)" />
<g >
<image xlink:href="tile16_14.png" preserveAspectRatio="none" x="13935.058594" y="-3770.507812" width="2.197266" height="2.197266"/>
<image xlink:href="tile16_13.png" preserveAspectRatio="none" x="13935.058594" y="-3772.705078" width="2.197266" height="2.197266"/>
<image xlink:href="tile16_5.png" preserveAspectRatio="none" x="13935.058594" y="-3790.283203" width="2.197266" height="2.197266"/>
<image xlink:href="tile16_4.png" preserveAspectRatio="none" x="13935.058594" y="-3792.480469" width="2.197266" height="2.197266"/>
<image xlink:href="tile16_3.png" preserveAspectRatio="none" x="13935.058594" y="-3794.677734" width="2.197266" height="2.197266"/>
<image xlink:href="tile16_2.png" preserveAspectRatio="none" x="13935.058594" y="-3796.875" width="2.197266" height="2.197266"/>
<image xlink:href="tile16_1.png" preserveAspectRatio="none" x="13935.058594" y="-3799.072266" width="2.197266" height="2.197266"/>
<image xlink:href="tile16_0.png" preserveAspectRatio="none" x="13935.058594" y="-3801.269531" width="2.197266" height="2.197266"/>
<image xlink:href="tile17_14.png" preserveAspectRatio="none" x="13937.255859" y="-3770.507812" width="2.197266" height="2.197266"/>
<image xlink:href="tile17_13.png" preserveAspectRatio="none" x="13937.255859" y="-3772.705078" width="2.197266" height="2.197266"/>
<image xlink:href="tile17_12.png" preserveAspectRatio="none" x="13937.255859" y="-3774.902344" width="2.197266" height="2.197266"/>
<image xlink:href="tile17_6.png" preserveAspectRatio="none" x="13937.255859" y="-3788.085938" width="2.197266" height="2.197266"/>
<image xlink:href="tile17_5.png" preserveAspectRatio="none" x="13937.255859" y="-3790.283203" width="2.197266" height="2.197266"/>
<image xlink:href="tile17_4.png" preserveAspectRatio="none" x="13937.255859" y="-3792.480469" width="2.197266" height="2.197266"/>
<image xlink:href="tile17_3.png" preserveAspectRatio="none" x="13937.255859" y="-3794.677734" width="2.197266" height="2.197266"/>
<image xlink:href="tile17_2.png" preserveAspectRatio="none" x="13937.255859" y="-3796.875" width="2.197266" height="2.197266"/>
<image xlink:href="tile18_14.png" preserveAspectRatio="none" x="13939.453125" y="-3770.507812" width="2.197266" height="2.197266"/>
<image xlink:href="tile18_12.png" preserveAspectRatio="none" x="13939.453125" y="-3774.902344" width="2.197266" height="2.197266"/>
<image xlink:href="tile18_6.png" preserveAspectRatio="none" x="13939.453125" y="-3788.085938" width="2.197266" height="2.197266"/>
<image xlink:href="tile18_5.png" preserveAspectRatio="none" x="13939.453125" y="-3790.283203" width="2.197266" height="2.197266"/>
<image xlink:href="tile19_14.png" preserveAspectRatio="none" x="13941.650391" y="-3770.507812" width="2.197266" height="2.197266"/>
<image xlink:href="tile20_14.png" preserveAspectRatio="none" x="13943.847656" y="-3770.507812" width="2.197266" height="2.197266"/>
<image xlink:href="tile21_14.png" preserveAspectRatio="none" x="13946.044922" y="-3770.507812" width="2.197266" height="2.197266"/>
<image xlink:href="tile21_13.png" preserveAspectRatio="none" x="13946.044922" y="-3772.705078" width="2.197266" height="2.197266"/>
<image xlink:href="tile21_8.png" preserveAspectRatio="none" x="13946.044922" y="-3783.691406" width="2.197266" height="2.197266"/>
<image xlink:href="tile22_14.png" preserveAspectRatio="none" x="13948.242188" y="-3770.507812" width="2.197266" height="2.197266"/>
<image xlink:href="tile22_13.png" preserveAspectRatio="none" x="13948.242188" y="-3772.705078" width="2.197266" height="2.197266"/>
<image xlink:href="tile22_9.png" preserveAspectRatio="none" x="13948.242188" y="-3781.494141" width="2.197266" height="2.197266"/>
<image xlink:href="tile22_8.png" preserveAspectRatio="none" x="13948.242188" y="-3783.691406" width="2.197266" height="2.197266"/>
<image xlink:href="tile23_14.png" preserveAspectRatio="none" x="13950.439453" y="-3770.507812" width="2.197266" height="2.197266"/>
<image xlink:href="tile23_13.png" preserveAspectRatio="none" x="13950.439453" y="-3772.705078" width="2.197266" height="2.197266"/>
<image xlink:href="tile24_14.png" preserveAspectRatio="none" x="13952.636719" y="-3770.507812" width="2.197266" height="2.197266"/>
<image xlink:href="tile24_13.png" preserveAspectRatio="none" x="13952.636719" y="-3772.705078" width="2.197266" height="2.197266"/>
<image xlink:href="tile25_14.png" preserveAspectRatio="none" x="13954.833984" y="-3770.507812" width="2.197266" height="2.197266"/>
<image xlink:href="tile25_13.png" preserveAspectRatio="none" x="13954.833984" y="-3772.705078" width="2.197266" height="2.197266"/>
<image xlink:href="tile26_14.png" preserveAspectRatio="none" x="13957.03125" y="-3770.507812" width="2.197266" height="2.197266"/>
<image xlink:href="tile26_13.png" preserveAspectRatio="none" x="13957.03125" y="-3772.705078" width="2.197266" height="2.197266"/>
</g>
</svg>
