<?xml version="1.0" encoding="UTF-8"?>
<svg  xmlns="http://www.w3.org/2000/svg" xmlns:xlink="http://www.w3.org/1999/xlink" xmlns:go="http://purl.org/svgmap/profile" viewBox="14100.0 -4333.3333330000005 100.0 66.66666630000009" go:dataArea="14100.0 -4333.3333330000005 100.0 66.66666630000009" >
<metadata>
 <rdf:RDF xmlns:rdf="http://www.w3.org/1999/02/22-rdf-syntax-ns#" xmlns:crs="http://opengis.org/xmldtds/transformations.dtd" xmlns:svg="http://www.w3.org/svg" >
  <rdf:Description>
   <crs:CoordinateReferenceSystem rdf:resource="http://purl.org/crs/84" svg:transform="matrix(100.0,0.0,0.0,-100.0,0.0,0.0)" />
  </rdf:Description>
 </rdf:RDF>
</metadata>
<globalCoordinateSystem srsName="http://purl.org/crs/84" transform="matrix(100.0,0.0,0.0,-100.0,0.0,0.0)" />
<g >
<image xlink:href="tile0_3.png" preserveAspectRatio="none" x="14097.65625" y="-4289.0625" width="17.578125" height="17.578125"/>
<image xlink:href="tile1_2.png" preserveAspectRatio="none" x="14115.234375" y="-4306.640625" width="17.578125" height="17.578125"/>
<image xlink:href="tile1_1.png" preserveAspectRatio="none" x="14115.234375" y="-4324.21875" width="17.578125" height="17.578125"/>
<image xlink:href="tile2_2.png" preserveAspectRatio="none" x="14132.8125" y="-4306.640625" width="17.578125" height="17.578125"/>
<image xlink:href="tile2_1.png" preserveAspectRatio="none" x="14132.8125" y="-4324.21875" width="17.578125" height="17.578125"/>
<image xlink:href="tile2_0.png" preserveAspectRatio="none" x="14132.8125" y="-4341.796875" width="17.578125" height="17.578125"/>
<image xlink:href="tile3_4.png" preserveAspectRatio="none" x="14150.390625" y="-4271.484375" width="17.578125" height="17.578125"/>
<image xlink:href="tile3_3.png" preserveAspectRatio="none" x="14150.390625" y="-4289.0625" width="17.578125" height="17.578125"/>
<image xlink:href="tile3_2.png" preserveAspectRatio="none" x="14150.390625" y="-4306.640625" width="17.578125" height="17.578125"/>
<image xlink:href="tile3_1.png" preserveAspectRatio="none" x="14150.390625" y="-4324.21875" width="17.578125" height="17.578125"/>
<image xlink:href="tile3_0.png" preserveAspectRatio="none" x="14150.390625" y="-4341.796875" width="17.578125" height="17.578125"/>
<image xlink:href="tile4_4.png" preserveAspectRatio="none" x="14167.96875" y="-4271.484375" width="17.578125" height="17.578125"/>
<image xlink:href="tile4_3.png" preserveAspectRatio="none" x="14167.96875" y="-4289.0625" width="17.578125" height="17.578125"/>
<image xlink:href="tile4_2.png" preserveAspectRatio="none" x="14167.96875" y="-4306.640625" width="17.578125" height="17.578125"/>
<image xlink:href="tile4_1.png" preserveAspectRatio="none" x="14167.96875" y="-4324.21875" width="17.578125" height="17.578125"/>
<image xlink:href="tile4_0.png" preserveAspectRatio="none" x="14167.96875" y="-4341.796875" width="17.578125" height="17.578125"/>
<image xlink:href="tile5_4.png" preserveAspectRatio="none" x="14185.546875" y="-4271.484375" width="17.578125" height="17.578125"/>
<image xlink:href="tile5_3.png" preserveAspectRatio="none" x="14185.546875" y="-4289.0625" width="17.578125" height="17.578125"/>
<image xlink:href="tile5_2.png" preserveAspectRatio="none" x="14185.546875" y="-4306.640625" width="17.578125" height="17.578125"/>
<image xlink:href="tile5_1.png" preserveAspectRatio="none" x="14185.546875" y="-4324.21875" width="17.578125" height="17.578125"/>
<image xlink:href="tile5_0.png" preserveAspectRatio="none" x="14185.546875" y="-4341.796875" width="17.578125" height="17.578125"/>
</g>
</svg>
