<?xml version="1.0" encoding="UTF-8"?>
<svg  xmlns="http://www.w3.org/2000/svg" xmlns:xlink="http://www.w3.org/1999/xlink" xmlns:go="http://purl.org/svgmap/profile" viewBox="13400.25 -3358.5029397 13.374999999999204 16.502939699999786" go:dataArea="13400.25 -3358.5029397 13.374999999999204 16.502939699999786" >
<metadata>
 <rdf:RDF xmlns:rdf="http://www.w3.org/1999/02/22-rdf-syntax-ns#" xmlns:crs="http://opengis.org/xmldtds/transformations.dtd" xmlns:svg="http://www.w3.org/svg" >
  <rdf:Description>
   <crs:CoordinateReferenceSystem rdf:resource="http://purl.org/crs/84" svg:transform="matrix(100.0,0.0,0.0,-100.0,0.0,0.0)" />
  </rdf:Description>
 </rdf:RDF>
</metadata>
<globalCoordinateSystem srsName="http://purl.org/crs/84" transform="matrix(100.0,0.0,0.0,-100.0,0.0,0.0)" />
<g >
<image xlink:href="tile0_14.png" preserveAspectRatio="none" x="13400.024414" y="-3343.139648" width="1.098633" height="1.098633"/>
<image xlink:href="tile0_13.png" preserveAspectRatio="none" x="13400.024414" y="-3344.238281" width="1.098633" height="1.098633"/>
<image xlink:href="tile1_15.png" preserveAspectRatio="none" x="13401.123047" y="-3342.041016" width="1.098633" height="1.098633"/>
<image xlink:href="tile1_14.png" preserveAspectRatio="none" x="13401.123047" y="-3343.139648" width="1.098633" height="1.098633"/>
<image xlink:href="tile1_13.png" preserveAspectRatio="none" x="13401.123047" y="-3344.238281" width="1.098633" height="1.098633"/>
<image xlink:href="tile2_14.png" preserveAspectRatio="none" x="13402.22168" y="-3343.139648" width="1.098633" height="1.098633"/>
<image xlink:href="tile2_13.png" preserveAspectRatio="none" x="13402.22168" y="-3344.238281" width="1.098633" height="1.098633"/>
<image xlink:href="tile2_12.png" preserveAspectRatio="none" x="13402.22168" y="-3345.336914" width="1.098633" height="1.098633"/>
<image xlink:href="tile3_13.png" preserveAspectRatio="none" x="13403.320312" y="-3344.238281" width="1.098633" height="1.098633"/>
<image xlink:href="tile3_12.png" preserveAspectRatio="none" x="13403.320312" y="-3345.336914" width="1.098633" height="1.098633"/>
<image xlink:href="tile3_11.png" preserveAspectRatio="none" x="13403.320312" y="-3346.435547" width="1.098633" height="1.098633"/>
<image xlink:href="tile4_12.png" preserveAspectRatio="none" x="13404.418945" y="-3345.336914" width="1.098633" height="1.098633"/>
<image xlink:href="tile4_11.png" preserveAspectRatio="none" x="13404.418945" y="-3346.435547" width="1.098633" height="1.098633"/>
<image xlink:href="tile5_11.png" preserveAspectRatio="none" x="13405.517578" y="-3346.435547" width="1.098633" height="1.098633"/>
<image xlink:href="tile5_10.png" preserveAspectRatio="none" x="13405.517578" y="-3347.53418" width="1.098633" height="1.098633"/>
<image xlink:href="tile6_11.png" preserveAspectRatio="none" x="13406.616211" y="-3346.435547" width="1.098633" height="1.098633"/>
<image xlink:href="tile6_9.png" preserveAspectRatio="none" x="13406.616211" y="-3348.632812" width="1.098633" height="1.098633"/>
<image xlink:href="tile7_9.png" preserveAspectRatio="none" x="13407.714844" y="-3348.632812" width="1.098633" height="1.098633"/>
<image xlink:href="tile7_8.png" preserveAspectRatio="none" x="13407.714844" y="-3349.731445" width="1.098633" height="1.098633"/>
<image xlink:href="tile8_8.png" preserveAspectRatio="none" x="13408.813477" y="-3349.731445" width="1.098633" height="1.098633"/>
<image xlink:href="tile8_7.png" preserveAspectRatio="none" x="13408.813477" y="-3350.830078" width="1.098633" height="1.098633"/>
<image xlink:href="tile9_8.png" preserveAspectRatio="none" x="13409.912109" y="-3349.731445" width="1.098633" height="1.098633"/>
<image xlink:href="tile9_7.png" preserveAspectRatio="none" x="13409.912109" y="-3350.830078" width="1.098633" height="1.098633"/>
<image xlink:href="tile9_0.png" preserveAspectRatio="none" x="13409.912109" y="-3358.520508" width="1.098633" height="1.098633"/>
<image xlink:href="tile10_7.png" preserveAspectRatio="none" x="13411.010742" y="-3350.830078" width="1.098633" height="1.098633"/>
<image xlink:href="tile10_6.png" preserveAspectRatio="none" x="13411.010742" y="-3351.928711" width="1.098633" height="1.098633"/>
<image xlink:href="tile10_3.png" preserveAspectRatio="none" x="13411.010742" y="-3355.224609" width="1.098633" height="1.098633"/>
<image xlink:href="tile10_2.png" preserveAspectRatio="none" x="13411.010742" y="-3356.323242" width="1.098633" height="1.098633"/>
<image xlink:href="tile10_0.png" preserveAspectRatio="none" x="13411.010742" y="-3358.520508" width="1.098633" height="1.098633"/>
<image xlink:href="tile11_6.png" preserveAspectRatio="none" x="13412.109375" y="-3351.928711" width="1.098633" height="1.098633"/>
<image xlink:href="tile11_5.png" preserveAspectRatio="none" x="13412.109375" y="-3353.027344" width="1.098633" height="1.098633"/>
<image xlink:href="tile11_4.png" preserveAspectRatio="none" x="13412.109375" y="-3354.125977" width="1.098633" height="1.098633"/>
<image xlink:href="tile11_3.png" preserveAspectRatio="none" x="13412.109375" y="-3355.224609" width="1.098633" height="1.098633"/>
<image xlink:href="tile12_6.png" preserveAspectRatio="none" x="13413.208008" y="-3351.928711" width="1.098633" height="1.098633"/>
<image xlink:href="tile12_5.png" preserveAspectRatio="none" x="13413.208008" y="-3353.027344" width="1.098633" height="1.098633"/>
</g>
</svg>
