<?xml version="1.0" encoding="UTF-8"?>
<svg  xmlns="http://www.w3.org/2000/svg" xmlns:xlink="http://www.w3.org/1999/xlink" xmlns:go="http://purl.org/svgmap/profile" viewBox="13023.099999999999 -3200.0 76.90000000000055 66.66666690000014" go:dataArea="13023.099999999999 -3200.0 76.90000000000055 66.66666690000014" >
<metadata>
 <rdf:RDF xmlns:rdf="http://www.w3.org/1999/02/22-rdf-syntax-ns#" xmlns:crs="http://opengis.org/xmldtds/transformations.dtd" xmlns:svg="http://www.w3.org/svg" >
  <rdf:Description>
   <crs:CoordinateReferenceSystem rdf:resource="http://purl.org/crs/84" svg:transform="matrix(100.0,0.0,0.0,-100.0,0.0,0.0)" />
  </rdf:Description>
 </rdf:RDF>
</metadata>
<globalCoordinateSystem srsName="http://purl.org/crs/84" transform="matrix(100.0,0.0,0.0,-100.0,0.0,0.0)" />
<g >
<image xlink:href="tile0_5.png" preserveAspectRatio="none" x="13020.996094" y="-3181.640625" width="4.394531" height="4.394531"/>
<image xlink:href="tile0_4.png" preserveAspectRatio="none" x="13020.996094" y="-3186.035156" width="4.394531" height="4.394531"/>
<image xlink:href="tile1_14.png" preserveAspectRatio="none" x="13025.390625" y="-3142.089844" width="4.394531" height="4.394531"/>
<image xlink:href="tile1_13.png" preserveAspectRatio="none" x="13025.390625" y="-3146.484375" width="4.394531" height="4.394531"/>
<image xlink:href="tile1_5.png" preserveAspectRatio="none" x="13025.390625" y="-3181.640625" width="4.394531" height="4.394531"/>
<image xlink:href="tile1_4.png" preserveAspectRatio="none" x="13025.390625" y="-3186.035156" width="4.394531" height="4.394531"/>
<image xlink:href="tile2_15.png" preserveAspectRatio="none" x="13029.785156" y="-3137.695312" width="4.394531" height="4.394531"/>
<image xlink:href="tile2_14.png" preserveAspectRatio="none" x="13029.785156" y="-3142.089844" width="4.394531" height="4.394531"/>
<image xlink:href="tile2_13.png" preserveAspectRatio="none" x="13029.785156" y="-3146.484375" width="4.394531" height="4.394531"/>
<image xlink:href="tile2_12.png" preserveAspectRatio="none" x="13029.785156" y="-3150.878906" width="4.394531" height="4.394531"/>
<image xlink:href="tile2_9.png" preserveAspectRatio="none" x="13029.785156" y="-3164.0625" width="4.394531" height="4.394531"/>
<image xlink:href="tile2_5.png" preserveAspectRatio="none" x="13029.785156" y="-3181.640625" width="4.394531" height="4.394531"/>
<image xlink:href="tile2_4.png" preserveAspectRatio="none" x="13029.785156" y="-3186.035156" width="4.394531" height="4.394531"/>
<image xlink:href="tile2_3.png" preserveAspectRatio="none" x="13029.785156" y="-3190.429688" width="4.394531" height="4.394531"/>
<image xlink:href="tile3_15.png" preserveAspectRatio="none" x="13034.179688" y="-3137.695312" width="4.394531" height="4.394531"/>
<image xlink:href="tile3_14.png" preserveAspectRatio="none" x="13034.179688" y="-3142.089844" width="4.394531" height="4.394531"/>
<image xlink:href="tile3_13.png" preserveAspectRatio="none" x="13034.179688" y="-3146.484375" width="4.394531" height="4.394531"/>
<image xlink:href="tile3_12.png" preserveAspectRatio="none" x="13034.179688" y="-3150.878906" width="4.394531" height="4.394531"/>
<image xlink:href="tile3_9.png" preserveAspectRatio="none" x="13034.179688" y="-3164.0625" width="4.394531" height="4.394531"/>
<image xlink:href="tile3_8.png" preserveAspectRatio="none" x="13034.179688" y="-3168.457031" width="4.394531" height="4.394531"/>
<image xlink:href="tile3_5.png" preserveAspectRatio="none" x="13034.179688" y="-3181.640625" width="4.394531" height="4.394531"/>
<image xlink:href="tile3_4.png" preserveAspectRatio="none" x="13034.179688" y="-3186.035156" width="4.394531" height="4.394531"/>
<image xlink:href="tile3_3.png" preserveAspectRatio="none" x="13034.179688" y="-3190.429688" width="4.394531" height="4.394531"/>
<image xlink:href="tile4_15.png" preserveAspectRatio="none" x="13038.574219" y="-3137.695312" width="4.394531" height="4.394531"/>
<image xlink:href="tile4_14.png" preserveAspectRatio="none" x="13038.574219" y="-3142.089844" width="4.394531" height="4.394531"/>
<image xlink:href="tile4_9.png" preserveAspectRatio="none" x="13038.574219" y="-3164.0625" width="4.394531" height="4.394531"/>
<image xlink:href="tile4_8.png" preserveAspectRatio="none" x="13038.574219" y="-3168.457031" width="4.394531" height="4.394531"/>
<image xlink:href="tile4_4.png" preserveAspectRatio="none" x="13038.574219" y="-3186.035156" width="4.394531" height="4.394531"/>
<image xlink:href="tile4_3.png" preserveAspectRatio="none" x="13038.574219" y="-3190.429688" width="4.394531" height="4.394531"/>
<image xlink:href="tile5_9.png" preserveAspectRatio="none" x="13042.96875" y="-3164.0625" width="4.394531" height="4.394531"/>
<image xlink:href="tile5_8.png" preserveAspectRatio="none" x="13042.96875" y="-3168.457031" width="4.394531" height="4.394531"/>
<image xlink:href="tile5_7.png" preserveAspectRatio="none" x="13042.96875" y="-3172.851562" width="4.394531" height="4.394531"/>
<image xlink:href="tile5_3.png" preserveAspectRatio="none" x="13042.96875" y="-3190.429688" width="4.394531" height="4.394531"/>
<image xlink:href="tile5_2.png" preserveAspectRatio="none" x="13042.96875" y="-3194.824219" width="4.394531" height="4.394531"/>
<image xlink:href="tile5_1.png" preserveAspectRatio="none" x="13042.96875" y="-3199.21875" width="4.394531" height="4.394531"/>
<image xlink:href="tile6_11.png" preserveAspectRatio="none" x="13047.363281" y="-3155.273438" width="4.394531" height="4.394531"/>
<image xlink:href="tile6_10.png" preserveAspectRatio="none" x="13047.363281" y="-3159.667969" width="4.394531" height="4.394531"/>
<image xlink:href="tile6_9.png" preserveAspectRatio="none" x="13047.363281" y="-3164.0625" width="4.394531" height="4.394531"/>
<image xlink:href="tile6_8.png" preserveAspectRatio="none" x="13047.363281" y="-3168.457031" width="4.394531" height="4.394531"/>
<image xlink:href="tile6_2.png" preserveAspectRatio="none" x="13047.363281" y="-3194.824219" width="4.394531" height="4.394531"/>
<image xlink:href="tile6_1.png" preserveAspectRatio="none" x="13047.363281" y="-3199.21875" width="4.394531" height="4.394531"/>
<image xlink:href="tile7_11.png" preserveAspectRatio="none" x="13051.757812" y="-3155.273438" width="4.394531" height="4.394531"/>
<image xlink:href="tile7_10.png" preserveAspectRatio="none" x="13051.757812" y="-3159.667969" width="4.394531" height="4.394531"/>
<image xlink:href="tile7_9.png" preserveAspectRatio="none" x="13051.757812" y="-3164.0625" width="4.394531" height="4.394531"/>
<image xlink:href="tile7_8.png" preserveAspectRatio="none" x="13051.757812" y="-3168.457031" width="4.394531" height="4.394531"/>
<image xlink:href="tile7_7.png" preserveAspectRatio="none" x="13051.757812" y="-3172.851562" width="4.394531" height="4.394531"/>
<image xlink:href="tile8_10.png" preserveAspectRatio="none" x="13056.152344" y="-3159.667969" width="4.394531" height="4.394531"/>
<image xlink:href="tile8_9.png" preserveAspectRatio="none" x="13056.152344" y="-3164.0625" width="4.394531" height="4.394531"/>
<image xlink:href="tile8_8.png" preserveAspectRatio="none" x="13056.152344" y="-3168.457031" width="4.394531" height="4.394531"/>
<image xlink:href="tile9_1.png" preserveAspectRatio="none" x="13060.546875" y="-3199.21875" width="4.394531" height="4.394531"/>
<image xlink:href="tile9_0.png" preserveAspectRatio="none" x="13060.546875" y="-3203.613281" width="4.394531" height="4.394531"/>
<image xlink:href="tile10_12.png" preserveAspectRatio="none" x="13064.941406" y="-3150.878906" width="4.394531" height="4.394531"/>
<image xlink:href="tile10_1.png" preserveAspectRatio="none" x="13064.941406" y="-3199.21875" width="4.394531" height="4.394531"/>
<image xlink:href="tile10_0.png" preserveAspectRatio="none" x="13064.941406" y="-3203.613281" width="4.394531" height="4.394531"/>
<image xlink:href="tile11_12.png" preserveAspectRatio="none" x="13069.335938" y="-3150.878906" width="4.394531" height="4.394531"/>
<image xlink:href="tile11_7.png" preserveAspectRatio="none" x="13069.335938" y="-3172.851562" width="4.394531" height="4.394531"/>
<image xlink:href="tile11_6.png" preserveAspectRatio="none" x="13069.335938" y="-3177.246094" width="4.394531" height="4.394531"/>
<image xlink:href="tile11_2.png" preserveAspectRatio="none" x="13069.335938" y="-3194.824219" width="4.394531" height="4.394531"/>
<image xlink:href="tile11_1.png" preserveAspectRatio="none" x="13069.335938" y="-3199.21875" width="4.394531" height="4.394531"/>
<image xlink:href="tile12_12.png" preserveAspectRatio="none" x="13073.730469" y="-3150.878906" width="4.394531" height="4.394531"/>
<image xlink:href="tile12_7.png" preserveAspectRatio="none" x="13073.730469" y="-3172.851562" width="4.394531" height="4.394531"/>
<image xlink:href="tile12_6.png" preserveAspectRatio="none" x="13073.730469" y="-3177.246094" width="4.394531" height="4.394531"/>
<image xlink:href="tile12_5.png" preserveAspectRatio="none" x="13073.730469" y="-3181.640625" width="4.394531" height="4.394531"/>
<image xlink:href="tile12_1.png" preserveAspectRatio="none" x="13073.730469" y="-3199.21875" width="4.394531" height="4.394531"/>
<image xlink:href="tile12_0.png" preserveAspectRatio="none" x="13073.730469" y="-3203.613281" width="4.394531" height="4.394531"/>
<image xlink:href="tile13_7.png" preserveAspectRatio="none" x="13078.125" y="-3172.851562" width="4.394531" height="4.394531"/>
<image xlink:href="tile13_6.png" preserveAspectRatio="none" x="13078.125" y="-3177.246094" width="4.394531" height="4.394531"/>
<image xlink:href="tile13_5.png" preserveAspectRatio="none" x="13078.125" y="-3181.640625" width="4.394531" height="4.394531"/>
<image xlink:href="tile14_15.png" preserveAspectRatio="none" x="13082.519531" y="-3137.695312" width="4.394531" height="4.394531"/>
<image xlink:href="tile14_14.png" preserveAspectRatio="none" x="13082.519531" y="-3142.089844" width="4.394531" height="4.394531"/>
<image xlink:href="tile15_15.png" preserveAspectRatio="none" x="13086.914062" y="-3137.695312" width="4.394531" height="4.394531"/>
<image xlink:href="tile15_14.png" preserveAspectRatio="none" x="13086.914062" y="-3142.089844" width="4.394531" height="4.394531"/>
</g>
</svg>
