<?xml version="1.0" encoding="UTF-8"?>
<svg  xmlns="http://www.w3.org/2000/svg" xmlns:xlink="http://www.w3.org/1999/xlink" xmlns:go="http://purl.org/svgmap/profile" viewBox="13800.0 -3666.666667 100.0 66.66666699999979" go:dataArea="13800.0 -3666.666667 100.0 66.66666699999979" >
<metadata>
 <rdf:RDF xmlns:rdf="http://www.w3.org/1999/02/22-rdf-syntax-ns#" xmlns:crs="http://opengis.org/xmldtds/transformations.dtd" xmlns:svg="http://www.w3.org/svg" >
  <rdf:Description>
   <crs:CoordinateReferenceSystem rdf:resource="http://purl.org/crs/84" svg:transform="matrix(100.0,0.0,0.0,-100.0,0.0,0.0)" />
  </rdf:Description>
 </rdf:RDF>
</metadata>
<globalCoordinateSystem srsName="http://purl.org/crs/84" transform="matrix(100.0,0.0,0.0,-100.0,0.0,0.0)" />
<g >
<image xlink:href="tile64_58.png" preserveAspectRatio="none" x="13870.239258" y="-3603.515625" width="1.098633" height="1.098633"/>
<image xlink:href="tile64_56.png" preserveAspectRatio="none" x="13870.239258" y="-3605.712891" width="1.098633" height="1.098633"/>
<image xlink:href="tile64_55.png" preserveAspectRatio="none" x="13870.239258" y="-3606.811523" width="1.098633" height="1.098633"/>
<image xlink:href="tile64_54.png" preserveAspectRatio="none" x="13870.239258" y="-3607.910156" width="1.098633" height="1.098633"/>
<image xlink:href="tile64_53.png" preserveAspectRatio="none" x="13870.239258" y="-3609.008789" width="1.098633" height="1.098633"/>
<image xlink:href="tile64_52.png" preserveAspectRatio="none" x="13870.239258" y="-3610.107422" width="1.098633" height="1.098633"/>
<image xlink:href="tile64_51.png" preserveAspectRatio="none" x="13870.239258" y="-3611.206055" width="1.098633" height="1.098633"/>
<image xlink:href="tile64_48.png" preserveAspectRatio="none" x="13870.239258" y="-3614.501953" width="1.098633" height="1.098633"/>
<image xlink:href="tile64_47.png" preserveAspectRatio="none" x="13870.239258" y="-3615.600586" width="1.098633" height="1.098633"/>
<image xlink:href="tile64_46.png" preserveAspectRatio="none" x="13870.239258" y="-3616.699219" width="1.098633" height="1.098633"/>
<image xlink:href="tile65_58.png" preserveAspectRatio="none" x="13871.337891" y="-3603.515625" width="1.098633" height="1.098633"/>
<image xlink:href="tile65_53.png" preserveAspectRatio="none" x="13871.337891" y="-3609.008789" width="1.098633" height="1.098633"/>
<image xlink:href="tile65_52.png" preserveAspectRatio="none" x="13871.337891" y="-3610.107422" width="1.098633" height="1.098633"/>
<image xlink:href="tile65_51.png" preserveAspectRatio="none" x="13871.337891" y="-3611.206055" width="1.098633" height="1.098633"/>
<image xlink:href="tile65_50.png" preserveAspectRatio="none" x="13871.337891" y="-3612.304688" width="1.098633" height="1.098633"/>
<image xlink:href="tile65_46.png" preserveAspectRatio="none" x="13871.337891" y="-3616.699219" width="1.098633" height="1.098633"/>
<image xlink:href="tile66_53.png" preserveAspectRatio="none" x="13872.436523" y="-3609.008789" width="1.098633" height="1.098633"/>
<image xlink:href="tile66_50.png" preserveAspectRatio="none" x="13872.436523" y="-3612.304688" width="1.098633" height="1.098633"/>
<image xlink:href="tile66_47.png" preserveAspectRatio="none" x="13872.436523" y="-3615.600586" width="1.098633" height="1.098633"/>
<image xlink:href="tile66_46.png" preserveAspectRatio="none" x="13872.436523" y="-3616.699219" width="1.098633" height="1.098633"/>
<image xlink:href="tile67_53.png" preserveAspectRatio="none" x="13873.535156" y="-3609.008789" width="1.098633" height="1.098633"/>
<image xlink:href="tile67_48.png" preserveAspectRatio="none" x="13873.535156" y="-3614.501953" width="1.098633" height="1.098633"/>
<image xlink:href="tile67_47.png" preserveAspectRatio="none" x="13873.535156" y="-3615.600586" width="1.098633" height="1.098633"/>
<image xlink:href="tile67_46.png" preserveAspectRatio="none" x="13873.535156" y="-3616.699219" width="1.098633" height="1.098633"/>
<image xlink:href="tile68_54.png" preserveAspectRatio="none" x="13874.633789" y="-3607.910156" width="1.098633" height="1.098633"/>
<image xlink:href="tile68_53.png" preserveAspectRatio="none" x="13874.633789" y="-3609.008789" width="1.098633" height="1.098633"/>
<image xlink:href="tile69_54.png" preserveAspectRatio="none" x="13875.732422" y="-3607.910156" width="1.098633" height="1.098633"/>
<image xlink:href="tile69_53.png" preserveAspectRatio="none" x="13875.732422" y="-3609.008789" width="1.098633" height="1.098633"/>
<image xlink:href="tile69_52.png" preserveAspectRatio="none" x="13875.732422" y="-3610.107422" width="1.098633" height="1.098633"/>
<image xlink:href="tile69_51.png" preserveAspectRatio="none" x="13875.732422" y="-3611.206055" width="1.098633" height="1.098633"/>
<image xlink:href="tile69_50.png" preserveAspectRatio="none" x="13875.732422" y="-3612.304688" width="1.098633" height="1.098633"/>
<image xlink:href="tile70_54.png" preserveAspectRatio="none" x="13876.831055" y="-3607.910156" width="1.098633" height="1.098633"/>
<image xlink:href="tile70_53.png" preserveAspectRatio="none" x="13876.831055" y="-3609.008789" width="1.098633" height="1.098633"/>
<image xlink:href="tile70_52.png" preserveAspectRatio="none" x="13876.831055" y="-3610.107422" width="1.098633" height="1.098633"/>
<image xlink:href="tile70_46.png" preserveAspectRatio="none" x="13876.831055" y="-3616.699219" width="1.098633" height="1.098633"/>
<image xlink:href="tile71_56.png" preserveAspectRatio="none" x="13877.929688" y="-3605.712891" width="1.098633" height="1.098633"/>
<image xlink:href="tile71_55.png" preserveAspectRatio="none" x="13877.929688" y="-3606.811523" width="1.098633" height="1.098633"/>
<image xlink:href="tile71_54.png" preserveAspectRatio="none" x="13877.929688" y="-3607.910156" width="1.098633" height="1.098633"/>
<image xlink:href="tile71_53.png" preserveAspectRatio="none" x="13877.929688" y="-3609.008789" width="1.098633" height="1.098633"/>
<image xlink:href="tile71_46.png" preserveAspectRatio="none" x="13877.929688" y="-3616.699219" width="1.098633" height="1.098633"/>
<image xlink:href="tile72_55.png" preserveAspectRatio="none" x="13879.02832" y="-3606.811523" width="1.098633" height="1.098633"/>
<image xlink:href="tile72_54.png" preserveAspectRatio="none" x="13879.02832" y="-3607.910156" width="1.098633" height="1.098633"/>
<image xlink:href="tile72_53.png" preserveAspectRatio="none" x="13879.02832" y="-3609.008789" width="1.098633" height="1.098633"/>
<image xlink:href="tile72_52.png" preserveAspectRatio="none" x="13879.02832" y="-3610.107422" width="1.098633" height="1.098633"/>
<image xlink:href="tile72_51.png" preserveAspectRatio="none" x="13879.02832" y="-3611.206055" width="1.098633" height="1.098633"/>
<image xlink:href="tile72_46.png" preserveAspectRatio="none" x="13879.02832" y="-3616.699219" width="1.098633" height="1.098633"/>
<image xlink:href="tile73_60.png" preserveAspectRatio="none" x="13880.126953" y="-3601.318359" width="1.098633" height="1.098633"/>
<image xlink:href="tile73_59.png" preserveAspectRatio="none" x="13880.126953" y="-3602.416992" width="1.098633" height="1.098633"/>
<image xlink:href="tile73_55.png" preserveAspectRatio="none" x="13880.126953" y="-3606.811523" width="1.098633" height="1.098633"/>
<image xlink:href="tile73_54.png" preserveAspectRatio="none" x="13880.126953" y="-3607.910156" width="1.098633" height="1.098633"/>
<image xlink:href="tile73_53.png" preserveAspectRatio="none" x="13880.126953" y="-3609.008789" width="1.098633" height="1.098633"/>
<image xlink:href="tile73_52.png" preserveAspectRatio="none" x="13880.126953" y="-3610.107422" width="1.098633" height="1.098633"/>
<image xlink:href="tile73_51.png" preserveAspectRatio="none" x="13880.126953" y="-3611.206055" width="1.098633" height="1.098633"/>
<image xlink:href="tile74_61.png" preserveAspectRatio="none" x="13881.225586" y="-3600.219727" width="1.098633" height="1.098633"/>
<image xlink:href="tile74_60.png" preserveAspectRatio="none" x="13881.225586" y="-3601.318359" width="1.098633" height="1.098633"/>
<image xlink:href="tile74_59.png" preserveAspectRatio="none" x="13881.225586" y="-3602.416992" width="1.098633" height="1.098633"/>
<image xlink:href="tile74_58.png" preserveAspectRatio="none" x="13881.225586" y="-3603.515625" width="1.098633" height="1.098633"/>
<image xlink:href="tile74_52.png" preserveAspectRatio="none" x="13881.225586" y="-3610.107422" width="1.098633" height="1.098633"/>
<image xlink:href="tile74_51.png" preserveAspectRatio="none" x="13881.225586" y="-3611.206055" width="1.098633" height="1.098633"/>
<image xlink:href="tile75_61.png" preserveAspectRatio="none" x="13882.324219" y="-3600.219727" width="1.098633" height="1.098633"/>
<image xlink:href="tile75_55.png" preserveAspectRatio="none" x="13882.324219" y="-3606.811523" width="1.098633" height="1.098633"/>
<image xlink:href="tile75_54.png" preserveAspectRatio="none" x="13882.324219" y="-3607.910156" width="1.098633" height="1.098633"/>
<image xlink:href="tile75_53.png" preserveAspectRatio="none" x="13882.324219" y="-3609.008789" width="1.098633" height="1.098633"/>
<image xlink:href="tile75_52.png" preserveAspectRatio="none" x="13882.324219" y="-3610.107422" width="1.098633" height="1.098633"/>
<image xlink:href="tile75_51.png" preserveAspectRatio="none" x="13882.324219" y="-3611.206055" width="1.098633" height="1.098633"/>
<image xlink:href="tile76_53.png" preserveAspectRatio="none" x="13883.422852" y="-3609.008789" width="1.098633" height="1.098633"/>
<image xlink:href="tile76_52.png" preserveAspectRatio="none" x="13883.422852" y="-3610.107422" width="1.098633" height="1.098633"/>
<image xlink:href="tile76_50.png" preserveAspectRatio="none" x="13883.422852" y="-3612.304688" width="1.098633" height="1.098633"/>
<image xlink:href="tile76_49.png" preserveAspectRatio="none" x="13883.422852" y="-3613.40332" width="1.098633" height="1.098633"/>
<image xlink:href="tile77_53.png" preserveAspectRatio="none" x="13884.521484" y="-3609.008789" width="1.098633" height="1.098633"/>
<image xlink:href="tile77_52.png" preserveAspectRatio="none" x="13884.521484" y="-3610.107422" width="1.098633" height="1.098633"/>
<image xlink:href="tile77_50.png" preserveAspectRatio="none" x="13884.521484" y="-3612.304688" width="1.098633" height="1.098633"/>
<image xlink:href="tile77_47.png" preserveAspectRatio="none" x="13884.521484" y="-3615.600586" width="1.098633" height="1.098633"/>
<image xlink:href="tile77_46.png" preserveAspectRatio="none" x="13884.521484" y="-3616.699219" width="1.098633" height="1.098633"/>
<image xlink:href="tile78_52.png" preserveAspectRatio="none" x="13885.620117" y="-3610.107422" width="1.098633" height="1.098633"/>
<image xlink:href="tile78_51.png" preserveAspectRatio="none" x="13885.620117" y="-3611.206055" width="1.098633" height="1.098633"/>
<image xlink:href="tile78_50.png" preserveAspectRatio="none" x="13885.620117" y="-3612.304688" width="1.098633" height="1.098633"/>
<image xlink:href="tile78_49.png" preserveAspectRatio="none" x="13885.620117" y="-3613.40332" width="1.098633" height="1.098633"/>
<image xlink:href="tile78_48.png" preserveAspectRatio="none" x="13885.620117" y="-3614.501953" width="1.098633" height="1.098633"/>
<image xlink:href="tile78_46.png" preserveAspectRatio="none" x="13885.620117" y="-3616.699219" width="1.098633" height="1.098633"/>
<image xlink:href="tile79_52.png" preserveAspectRatio="none" x="13886.71875" y="-3610.107422" width="1.098633" height="1.098633"/>
<image xlink:href="tile79_51.png" preserveAspectRatio="none" x="13886.71875" y="-3611.206055" width="1.098633" height="1.098633"/>
<image xlink:href="tile79_50.png" preserveAspectRatio="none" x="13886.71875" y="-3612.304688" width="1.098633" height="1.098633"/>
<image xlink:href="tile79_49.png" preserveAspectRatio="none" x="13886.71875" y="-3613.40332" width="1.098633" height="1.098633"/>
<image xlink:href="tile79_46.png" preserveAspectRatio="none" x="13886.71875" y="-3616.699219" width="1.098633" height="1.098633"/>
</g>
</svg>
