<?xml version="1.0" encoding="UTF-8"?>
<svg  xmlns="http://www.w3.org/2000/svg" xmlns:xlink="http://www.w3.org/1999/xlink" xmlns:go="http://purl.org/svgmap/profile" viewBox="13800.0 -3666.666667 100.0 66.66666699999979" go:dataArea="13800.0 -3666.666667 100.0 66.66666699999979" >
<metadata>
 <rdf:RDF xmlns:rdf="http://www.w3.org/1999/02/22-rdf-syntax-ns#" xmlns:crs="http://opengis.org/xmldtds/transformations.dtd" xmlns:svg="http://www.w3.org/svg" >
  <rdf:Description>
   <crs:CoordinateReferenceSystem rdf:resource="http://purl.org/crs/84" svg:transform="matrix(100.0,0.0,0.0,-100.0,0.0,0.0)" />
  </rdf:Description>
 </rdf:RDF>
</metadata>
<globalCoordinateSystem srsName="http://purl.org/crs/84" transform="matrix(100.0,0.0,0.0,-100.0,0.0,0.0)" />
<g >
<image xlink:href="tile64_41.png" preserveAspectRatio="none" x="13870.239258" y="-3622.192383" width="1.098633" height="1.098633"/>
<image xlink:href="tile64_40.png" preserveAspectRatio="none" x="13870.239258" y="-3623.291016" width="1.098633" height="1.098633"/>
<image xlink:href="tile64_39.png" preserveAspectRatio="none" x="13870.239258" y="-3624.389648" width="1.098633" height="1.098633"/>
<image xlink:href="tile64_38.png" preserveAspectRatio="none" x="13870.239258" y="-3625.488281" width="1.098633" height="1.098633"/>
<image xlink:href="tile64_37.png" preserveAspectRatio="none" x="13870.239258" y="-3626.586914" width="1.098633" height="1.098633"/>
<image xlink:href="tile64_31.png" preserveAspectRatio="none" x="13870.239258" y="-3633.178711" width="1.098633" height="1.098633"/>
<image xlink:href="tile65_43.png" preserveAspectRatio="none" x="13871.337891" y="-3619.995117" width="1.098633" height="1.098633"/>
<image xlink:href="tile65_40.png" preserveAspectRatio="none" x="13871.337891" y="-3623.291016" width="1.098633" height="1.098633"/>
<image xlink:href="tile65_39.png" preserveAspectRatio="none" x="13871.337891" y="-3624.389648" width="1.098633" height="1.098633"/>
<image xlink:href="tile65_34.png" preserveAspectRatio="none" x="13871.337891" y="-3629.882812" width="1.098633" height="1.098633"/>
<image xlink:href="tile65_33.png" preserveAspectRatio="none" x="13871.337891" y="-3630.981445" width="1.098633" height="1.098633"/>
<image xlink:href="tile65_31.png" preserveAspectRatio="none" x="13871.337891" y="-3633.178711" width="1.098633" height="1.098633"/>
<image xlink:href="tile65_30.png" preserveAspectRatio="none" x="13871.337891" y="-3634.277344" width="1.098633" height="1.098633"/>
<image xlink:href="tile66_45.png" preserveAspectRatio="none" x="13872.436523" y="-3617.797852" width="1.098633" height="1.098633"/>
<image xlink:href="tile66_44.png" preserveAspectRatio="none" x="13872.436523" y="-3618.896484" width="1.098633" height="1.098633"/>
<image xlink:href="tile66_43.png" preserveAspectRatio="none" x="13872.436523" y="-3619.995117" width="1.098633" height="1.098633"/>
<image xlink:href="tile66_40.png" preserveAspectRatio="none" x="13872.436523" y="-3623.291016" width="1.098633" height="1.098633"/>
<image xlink:href="tile66_39.png" preserveAspectRatio="none" x="13872.436523" y="-3624.389648" width="1.098633" height="1.098633"/>
<image xlink:href="tile66_37.png" preserveAspectRatio="none" x="13872.436523" y="-3626.586914" width="1.098633" height="1.098633"/>
<image xlink:href="tile66_36.png" preserveAspectRatio="none" x="13872.436523" y="-3627.685547" width="1.098633" height="1.098633"/>
<image xlink:href="tile66_33.png" preserveAspectRatio="none" x="13872.436523" y="-3630.981445" width="1.098633" height="1.098633"/>
<image xlink:href="tile66_30.png" preserveAspectRatio="none" x="13872.436523" y="-3634.277344" width="1.098633" height="1.098633"/>
<image xlink:href="tile67_45.png" preserveAspectRatio="none" x="13873.535156" y="-3617.797852" width="1.098633" height="1.098633"/>
<image xlink:href="tile67_44.png" preserveAspectRatio="none" x="13873.535156" y="-3618.896484" width="1.098633" height="1.098633"/>
<image xlink:href="tile67_40.png" preserveAspectRatio="none" x="13873.535156" y="-3623.291016" width="1.098633" height="1.098633"/>
<image xlink:href="tile67_37.png" preserveAspectRatio="none" x="13873.535156" y="-3626.586914" width="1.098633" height="1.098633"/>
<image xlink:href="tile67_36.png" preserveAspectRatio="none" x="13873.535156" y="-3627.685547" width="1.098633" height="1.098633"/>
<image xlink:href="tile67_33.png" preserveAspectRatio="none" x="13873.535156" y="-3630.981445" width="1.098633" height="1.098633"/>
<image xlink:href="tile67_32.png" preserveAspectRatio="none" x="13873.535156" y="-3632.080078" width="1.098633" height="1.098633"/>
<image xlink:href="tile67_30.png" preserveAspectRatio="none" x="13873.535156" y="-3634.277344" width="1.098633" height="1.098633"/>
<image xlink:href="tile68_44.png" preserveAspectRatio="none" x="13874.633789" y="-3618.896484" width="1.098633" height="1.098633"/>
<image xlink:href="tile68_43.png" preserveAspectRatio="none" x="13874.633789" y="-3619.995117" width="1.098633" height="1.098633"/>
<image xlink:href="tile68_40.png" preserveAspectRatio="none" x="13874.633789" y="-3623.291016" width="1.098633" height="1.098633"/>
<image xlink:href="tile68_39.png" preserveAspectRatio="none" x="13874.633789" y="-3624.389648" width="1.098633" height="1.098633"/>
<image xlink:href="tile68_38.png" preserveAspectRatio="none" x="13874.633789" y="-3625.488281" width="1.098633" height="1.098633"/>
<image xlink:href="tile68_37.png" preserveAspectRatio="none" x="13874.633789" y="-3626.586914" width="1.098633" height="1.098633"/>
<image xlink:href="tile68_36.png" preserveAspectRatio="none" x="13874.633789" y="-3627.685547" width="1.098633" height="1.098633"/>
<image xlink:href="tile68_35.png" preserveAspectRatio="none" x="13874.633789" y="-3628.78418" width="1.098633" height="1.098633"/>
<image xlink:href="tile68_34.png" preserveAspectRatio="none" x="13874.633789" y="-3629.882812" width="1.098633" height="1.098633"/>
<image xlink:href="tile68_32.png" preserveAspectRatio="none" x="13874.633789" y="-3632.080078" width="1.098633" height="1.098633"/>
<image xlink:href="tile68_31.png" preserveAspectRatio="none" x="13874.633789" y="-3633.178711" width="1.098633" height="1.098633"/>
<image xlink:href="tile68_30.png" preserveAspectRatio="none" x="13874.633789" y="-3634.277344" width="1.098633" height="1.098633"/>
<image xlink:href="tile69_44.png" preserveAspectRatio="none" x="13875.732422" y="-3618.896484" width="1.098633" height="1.098633"/>
<image xlink:href="tile69_43.png" preserveAspectRatio="none" x="13875.732422" y="-3619.995117" width="1.098633" height="1.098633"/>
<image xlink:href="tile69_42.png" preserveAspectRatio="none" x="13875.732422" y="-3621.09375" width="1.098633" height="1.098633"/>
<image xlink:href="tile69_40.png" preserveAspectRatio="none" x="13875.732422" y="-3623.291016" width="1.098633" height="1.098633"/>
<image xlink:href="tile69_39.png" preserveAspectRatio="none" x="13875.732422" y="-3624.389648" width="1.098633" height="1.098633"/>
<image xlink:href="tile69_37.png" preserveAspectRatio="none" x="13875.732422" y="-3626.586914" width="1.098633" height="1.098633"/>
<image xlink:href="tile69_36.png" preserveAspectRatio="none" x="13875.732422" y="-3627.685547" width="1.098633" height="1.098633"/>
<image xlink:href="tile69_34.png" preserveAspectRatio="none" x="13875.732422" y="-3629.882812" width="1.098633" height="1.098633"/>
<image xlink:href="tile69_33.png" preserveAspectRatio="none" x="13875.732422" y="-3630.981445" width="1.098633" height="1.098633"/>
<image xlink:href="tile69_32.png" preserveAspectRatio="none" x="13875.732422" y="-3632.080078" width="1.098633" height="1.098633"/>
<image xlink:href="tile69_31.png" preserveAspectRatio="none" x="13875.732422" y="-3633.178711" width="1.098633" height="1.098633"/>
<image xlink:href="tile70_45.png" preserveAspectRatio="none" x="13876.831055" y="-3617.797852" width="1.098633" height="1.098633"/>
<image xlink:href="tile70_44.png" preserveAspectRatio="none" x="13876.831055" y="-3618.896484" width="1.098633" height="1.098633"/>
<image xlink:href="tile70_43.png" preserveAspectRatio="none" x="13876.831055" y="-3619.995117" width="1.098633" height="1.098633"/>
<image xlink:href="tile70_42.png" preserveAspectRatio="none" x="13876.831055" y="-3621.09375" width="1.098633" height="1.098633"/>
<image xlink:href="tile70_41.png" preserveAspectRatio="none" x="13876.831055" y="-3622.192383" width="1.098633" height="1.098633"/>
<image xlink:href="tile70_40.png" preserveAspectRatio="none" x="13876.831055" y="-3623.291016" width="1.098633" height="1.098633"/>
<image xlink:href="tile70_37.png" preserveAspectRatio="none" x="13876.831055" y="-3626.586914" width="1.098633" height="1.098633"/>
<image xlink:href="tile70_36.png" preserveAspectRatio="none" x="13876.831055" y="-3627.685547" width="1.098633" height="1.098633"/>
<image xlink:href="tile70_35.png" preserveAspectRatio="none" x="13876.831055" y="-3628.78418" width="1.098633" height="1.098633"/>
<image xlink:href="tile70_34.png" preserveAspectRatio="none" x="13876.831055" y="-3629.882812" width="1.098633" height="1.098633"/>
<image xlink:href="tile70_33.png" preserveAspectRatio="none" x="13876.831055" y="-3630.981445" width="1.098633" height="1.098633"/>
<image xlink:href="tile70_32.png" preserveAspectRatio="none" x="13876.831055" y="-3632.080078" width="1.098633" height="1.098633"/>
<image xlink:href="tile70_31.png" preserveAspectRatio="none" x="13876.831055" y="-3633.178711" width="1.098633" height="1.098633"/>
<image xlink:href="tile70_30.png" preserveAspectRatio="none" x="13876.831055" y="-3634.277344" width="1.098633" height="1.098633"/>
<image xlink:href="tile71_45.png" preserveAspectRatio="none" x="13877.929688" y="-3617.797852" width="1.098633" height="1.098633"/>
<image xlink:href="tile71_43.png" preserveAspectRatio="none" x="13877.929688" y="-3619.995117" width="1.098633" height="1.098633"/>
<image xlink:href="tile71_42.png" preserveAspectRatio="none" x="13877.929688" y="-3621.09375" width="1.098633" height="1.098633"/>
<image xlink:href="tile71_41.png" preserveAspectRatio="none" x="13877.929688" y="-3622.192383" width="1.098633" height="1.098633"/>
<image xlink:href="tile71_35.png" preserveAspectRatio="none" x="13877.929688" y="-3628.78418" width="1.098633" height="1.098633"/>
<image xlink:href="tile71_34.png" preserveAspectRatio="none" x="13877.929688" y="-3629.882812" width="1.098633" height="1.098633"/>
<image xlink:href="tile71_33.png" preserveAspectRatio="none" x="13877.929688" y="-3630.981445" width="1.098633" height="1.098633"/>
<image xlink:href="tile71_32.png" preserveAspectRatio="none" x="13877.929688" y="-3632.080078" width="1.098633" height="1.098633"/>
<image xlink:href="tile71_30.png" preserveAspectRatio="none" x="13877.929688" y="-3634.277344" width="1.098633" height="1.098633"/>
<image xlink:href="tile72_45.png" preserveAspectRatio="none" x="13879.02832" y="-3617.797852" width="1.098633" height="1.098633"/>
<image xlink:href="tile72_44.png" preserveAspectRatio="none" x="13879.02832" y="-3618.896484" width="1.098633" height="1.098633"/>
<image xlink:href="tile72_43.png" preserveAspectRatio="none" x="13879.02832" y="-3619.995117" width="1.098633" height="1.098633"/>
<image xlink:href="tile72_42.png" preserveAspectRatio="none" x="13879.02832" y="-3621.09375" width="1.098633" height="1.098633"/>
<image xlink:href="tile72_41.png" preserveAspectRatio="none" x="13879.02832" y="-3622.192383" width="1.098633" height="1.098633"/>
<image xlink:href="tile72_40.png" preserveAspectRatio="none" x="13879.02832" y="-3623.291016" width="1.098633" height="1.098633"/>
<image xlink:href="tile72_39.png" preserveAspectRatio="none" x="13879.02832" y="-3624.389648" width="1.098633" height="1.098633"/>
<image xlink:href="tile72_38.png" preserveAspectRatio="none" x="13879.02832" y="-3625.488281" width="1.098633" height="1.098633"/>
<image xlink:href="tile72_37.png" preserveAspectRatio="none" x="13879.02832" y="-3626.586914" width="1.098633" height="1.098633"/>
<image xlink:href="tile72_36.png" preserveAspectRatio="none" x="13879.02832" y="-3627.685547" width="1.098633" height="1.098633"/>
<image xlink:href="tile72_34.png" preserveAspectRatio="none" x="13879.02832" y="-3629.882812" width="1.098633" height="1.098633"/>
<image xlink:href="tile72_33.png" preserveAspectRatio="none" x="13879.02832" y="-3630.981445" width="1.098633" height="1.098633"/>
<image xlink:href="tile72_32.png" preserveAspectRatio="none" x="13879.02832" y="-3632.080078" width="1.098633" height="1.098633"/>
<image xlink:href="tile72_31.png" preserveAspectRatio="none" x="13879.02832" y="-3633.178711" width="1.098633" height="1.098633"/>
<image xlink:href="tile72_30.png" preserveAspectRatio="none" x="13879.02832" y="-3634.277344" width="1.098633" height="1.098633"/>
<image xlink:href="tile73_45.png" preserveAspectRatio="none" x="13880.126953" y="-3617.797852" width="1.098633" height="1.098633"/>
<image xlink:href="tile73_44.png" preserveAspectRatio="none" x="13880.126953" y="-3618.896484" width="1.098633" height="1.098633"/>
<image xlink:href="tile73_41.png" preserveAspectRatio="none" x="13880.126953" y="-3622.192383" width="1.098633" height="1.098633"/>
<image xlink:href="tile73_40.png" preserveAspectRatio="none" x="13880.126953" y="-3623.291016" width="1.098633" height="1.098633"/>
<image xlink:href="tile73_39.png" preserveAspectRatio="none" x="13880.126953" y="-3624.389648" width="1.098633" height="1.098633"/>
<image xlink:href="tile73_38.png" preserveAspectRatio="none" x="13880.126953" y="-3625.488281" width="1.098633" height="1.098633"/>
<image xlink:href="tile73_36.png" preserveAspectRatio="none" x="13880.126953" y="-3627.685547" width="1.098633" height="1.098633"/>
<image xlink:href="tile73_34.png" preserveAspectRatio="none" x="13880.126953" y="-3629.882812" width="1.098633" height="1.098633"/>
<image xlink:href="tile73_33.png" preserveAspectRatio="none" x="13880.126953" y="-3630.981445" width="1.098633" height="1.098633"/>
<image xlink:href="tile73_32.png" preserveAspectRatio="none" x="13880.126953" y="-3632.080078" width="1.098633" height="1.098633"/>
<image xlink:href="tile73_31.png" preserveAspectRatio="none" x="13880.126953" y="-3633.178711" width="1.098633" height="1.098633"/>
<image xlink:href="tile73_30.png" preserveAspectRatio="none" x="13880.126953" y="-3634.277344" width="1.098633" height="1.098633"/>
<image xlink:href="tile74_42.png" preserveAspectRatio="none" x="13881.225586" y="-3621.09375" width="1.098633" height="1.098633"/>
<image xlink:href="tile74_41.png" preserveAspectRatio="none" x="13881.225586" y="-3622.192383" width="1.098633" height="1.098633"/>
<image xlink:href="tile74_40.png" preserveAspectRatio="none" x="13881.225586" y="-3623.291016" width="1.098633" height="1.098633"/>
<image xlink:href="tile74_39.png" preserveAspectRatio="none" x="13881.225586" y="-3624.389648" width="1.098633" height="1.098633"/>
<image xlink:href="tile74_38.png" preserveAspectRatio="none" x="13881.225586" y="-3625.488281" width="1.098633" height="1.098633"/>
<image xlink:href="tile74_37.png" preserveAspectRatio="none" x="13881.225586" y="-3626.586914" width="1.098633" height="1.098633"/>
<image xlink:href="tile74_36.png" preserveAspectRatio="none" x="13881.225586" y="-3627.685547" width="1.098633" height="1.098633"/>
<image xlink:href="tile74_34.png" preserveAspectRatio="none" x="13881.225586" y="-3629.882812" width="1.098633" height="1.098633"/>
<image xlink:href="tile74_33.png" preserveAspectRatio="none" x="13881.225586" y="-3630.981445" width="1.098633" height="1.098633"/>
<image xlink:href="tile74_32.png" preserveAspectRatio="none" x="13881.225586" y="-3632.080078" width="1.098633" height="1.098633"/>
<image xlink:href="tile74_31.png" preserveAspectRatio="none" x="13881.225586" y="-3633.178711" width="1.098633" height="1.098633"/>
<image xlink:href="tile74_30.png" preserveAspectRatio="none" x="13881.225586" y="-3634.277344" width="1.098633" height="1.098633"/>
<image xlink:href="tile75_39.png" preserveAspectRatio="none" x="13882.324219" y="-3624.389648" width="1.098633" height="1.098633"/>
<image xlink:href="tile75_38.png" preserveAspectRatio="none" x="13882.324219" y="-3625.488281" width="1.098633" height="1.098633"/>
<image xlink:href="tile75_37.png" preserveAspectRatio="none" x="13882.324219" y="-3626.586914" width="1.098633" height="1.098633"/>
<image xlink:href="tile75_34.png" preserveAspectRatio="none" x="13882.324219" y="-3629.882812" width="1.098633" height="1.098633"/>
<image xlink:href="tile75_33.png" preserveAspectRatio="none" x="13882.324219" y="-3630.981445" width="1.098633" height="1.098633"/>
<image xlink:href="tile75_32.png" preserveAspectRatio="none" x="13882.324219" y="-3632.080078" width="1.098633" height="1.098633"/>
<image xlink:href="tile75_31.png" preserveAspectRatio="none" x="13882.324219" y="-3633.178711" width="1.098633" height="1.098633"/>
<image xlink:href="tile75_30.png" preserveAspectRatio="none" x="13882.324219" y="-3634.277344" width="1.098633" height="1.098633"/>
<image xlink:href="tile76_45.png" preserveAspectRatio="none" x="13883.422852" y="-3617.797852" width="1.098633" height="1.098633"/>
<image xlink:href="tile76_42.png" preserveAspectRatio="none" x="13883.422852" y="-3621.09375" width="1.098633" height="1.098633"/>
<image xlink:href="tile76_41.png" preserveAspectRatio="none" x="13883.422852" y="-3622.192383" width="1.098633" height="1.098633"/>
<image xlink:href="tile76_40.png" preserveAspectRatio="none" x="13883.422852" y="-3623.291016" width="1.098633" height="1.098633"/>
<image xlink:href="tile76_39.png" preserveAspectRatio="none" x="13883.422852" y="-3624.389648" width="1.098633" height="1.098633"/>
<image xlink:href="tile76_38.png" preserveAspectRatio="none" x="13883.422852" y="-3625.488281" width="1.098633" height="1.098633"/>
<image xlink:href="tile76_37.png" preserveAspectRatio="none" x="13883.422852" y="-3626.586914" width="1.098633" height="1.098633"/>
<image xlink:href="tile76_35.png" preserveAspectRatio="none" x="13883.422852" y="-3628.78418" width="1.098633" height="1.098633"/>
<image xlink:href="tile76_34.png" preserveAspectRatio="none" x="13883.422852" y="-3629.882812" width="1.098633" height="1.098633"/>
<image xlink:href="tile76_33.png" preserveAspectRatio="none" x="13883.422852" y="-3630.981445" width="1.098633" height="1.098633"/>
<image xlink:href="tile76_32.png" preserveAspectRatio="none" x="13883.422852" y="-3632.080078" width="1.098633" height="1.098633"/>
<image xlink:href="tile76_31.png" preserveAspectRatio="none" x="13883.422852" y="-3633.178711" width="1.098633" height="1.098633"/>
<image xlink:href="tile76_30.png" preserveAspectRatio="none" x="13883.422852" y="-3634.277344" width="1.098633" height="1.098633"/>
<image xlink:href="tile77_45.png" preserveAspectRatio="none" x="13884.521484" y="-3617.797852" width="1.098633" height="1.098633"/>
<image xlink:href="tile77_44.png" preserveAspectRatio="none" x="13884.521484" y="-3618.896484" width="1.098633" height="1.098633"/>
<image xlink:href="tile77_40.png" preserveAspectRatio="none" x="13884.521484" y="-3623.291016" width="1.098633" height="1.098633"/>
<image xlink:href="tile77_39.png" preserveAspectRatio="none" x="13884.521484" y="-3624.389648" width="1.098633" height="1.098633"/>
<image xlink:href="tile77_38.png" preserveAspectRatio="none" x="13884.521484" y="-3625.488281" width="1.098633" height="1.098633"/>
<image xlink:href="tile77_37.png" preserveAspectRatio="none" x="13884.521484" y="-3626.586914" width="1.098633" height="1.098633"/>
<image xlink:href="tile77_35.png" preserveAspectRatio="none" x="13884.521484" y="-3628.78418" width="1.098633" height="1.098633"/>
<image xlink:href="tile77_34.png" preserveAspectRatio="none" x="13884.521484" y="-3629.882812" width="1.098633" height="1.098633"/>
<image xlink:href="tile77_33.png" preserveAspectRatio="none" x="13884.521484" y="-3630.981445" width="1.098633" height="1.098633"/>
<image xlink:href="tile77_32.png" preserveAspectRatio="none" x="13884.521484" y="-3632.080078" width="1.098633" height="1.098633"/>
<image xlink:href="tile77_31.png" preserveAspectRatio="none" x="13884.521484" y="-3633.178711" width="1.098633" height="1.098633"/>
<image xlink:href="tile77_30.png" preserveAspectRatio="none" x="13884.521484" y="-3634.277344" width="1.098633" height="1.098633"/>
<image xlink:href="tile78_45.png" preserveAspectRatio="none" x="13885.620117" y="-3617.797852" width="1.098633" height="1.098633"/>
<image xlink:href="tile78_44.png" preserveAspectRatio="none" x="13885.620117" y="-3618.896484" width="1.098633" height="1.098633"/>
<image xlink:href="tile78_43.png" preserveAspectRatio="none" x="13885.620117" y="-3619.995117" width="1.098633" height="1.098633"/>
<image xlink:href="tile78_42.png" preserveAspectRatio="none" x="13885.620117" y="-3621.09375" width="1.098633" height="1.098633"/>
<image xlink:href="tile78_41.png" preserveAspectRatio="none" x="13885.620117" y="-3622.192383" width="1.098633" height="1.098633"/>
<image xlink:href="tile78_40.png" preserveAspectRatio="none" x="13885.620117" y="-3623.291016" width="1.098633" height="1.098633"/>
<image xlink:href="tile78_39.png" preserveAspectRatio="none" x="13885.620117" y="-3624.389648" width="1.098633" height="1.098633"/>
<image xlink:href="tile78_38.png" preserveAspectRatio="none" x="13885.620117" y="-3625.488281" width="1.098633" height="1.098633"/>
<image xlink:href="tile78_37.png" preserveAspectRatio="none" x="13885.620117" y="-3626.586914" width="1.098633" height="1.098633"/>
<image xlink:href="tile78_35.png" preserveAspectRatio="none" x="13885.620117" y="-3628.78418" width="1.098633" height="1.098633"/>
<image xlink:href="tile78_34.png" preserveAspectRatio="none" x="13885.620117" y="-3629.882812" width="1.098633" height="1.098633"/>
<image xlink:href="tile78_33.png" preserveAspectRatio="none" x="13885.620117" y="-3630.981445" width="1.098633" height="1.098633"/>
<image xlink:href="tile78_32.png" preserveAspectRatio="none" x="13885.620117" y="-3632.080078" width="1.098633" height="1.098633"/>
<image xlink:href="tile78_31.png" preserveAspectRatio="none" x="13885.620117" y="-3633.178711" width="1.098633" height="1.098633"/>
<image xlink:href="tile78_30.png" preserveAspectRatio="none" x="13885.620117" y="-3634.277344" width="1.098633" height="1.098633"/>
<image xlink:href="tile79_45.png" preserveAspectRatio="none" x="13886.71875" y="-3617.797852" width="1.098633" height="1.098633"/>
<image xlink:href="tile79_44.png" preserveAspectRatio="none" x="13886.71875" y="-3618.896484" width="1.098633" height="1.098633"/>
<image xlink:href="tile79_43.png" preserveAspectRatio="none" x="13886.71875" y="-3619.995117" width="1.098633" height="1.098633"/>
<image xlink:href="tile79_42.png" preserveAspectRatio="none" x="13886.71875" y="-3621.09375" width="1.098633" height="1.098633"/>
<image xlink:href="tile79_41.png" preserveAspectRatio="none" x="13886.71875" y="-3622.192383" width="1.098633" height="1.098633"/>
<image xlink:href="tile79_40.png" preserveAspectRatio="none" x="13886.71875" y="-3623.291016" width="1.098633" height="1.098633"/>
<image xlink:href="tile79_39.png" preserveAspectRatio="none" x="13886.71875" y="-3624.389648" width="1.098633" height="1.098633"/>
<image xlink:href="tile79_38.png" preserveAspectRatio="none" x="13886.71875" y="-3625.488281" width="1.098633" height="1.098633"/>
<image xlink:href="tile79_37.png" preserveAspectRatio="none" x="13886.71875" y="-3626.586914" width="1.098633" height="1.098633"/>
<image xlink:href="tile79_35.png" preserveAspectRatio="none" x="13886.71875" y="-3628.78418" width="1.098633" height="1.098633"/>
<image xlink:href="tile79_34.png" preserveAspectRatio="none" x="13886.71875" y="-3629.882812" width="1.098633" height="1.098633"/>
<image xlink:href="tile79_33.png" preserveAspectRatio="none" x="13886.71875" y="-3630.981445" width="1.098633" height="1.098633"/>
<image xlink:href="tile79_32.png" preserveAspectRatio="none" x="13886.71875" y="-3632.080078" width="1.098633" height="1.098633"/>
<image xlink:href="tile79_31.png" preserveAspectRatio="none" x="13886.71875" y="-3633.178711" width="1.098633" height="1.098633"/>
<image xlink:href="tile79_30.png" preserveAspectRatio="none" x="13886.71875" y="-3634.277344" width="1.098633" height="1.098633"/>
</g>
</svg>
