<?xml version="1.0" encoding="UTF-8"?>
<svg  xmlns="http://www.w3.org/2000/svg" xmlns:xlink="http://www.w3.org/1999/xlink" xmlns:go="http://purl.org/svgmap/profile" viewBox="13800.0 -3666.666667 100.0 66.66666699999979" go:dataArea="13800.0 -3666.666667 100.0 66.66666699999979" >
<metadata>
 <rdf:RDF xmlns:rdf="http://www.w3.org/1999/02/22-rdf-syntax-ns#" xmlns:crs="http://opengis.org/xmldtds/transformations.dtd" xmlns:svg="http://www.w3.org/svg" >
  <rdf:Description>
   <crs:CoordinateReferenceSystem rdf:resource="http://purl.org/crs/84" svg:transform="matrix(100.0,0.0,0.0,-100.0,0.0,0.0)" />
  </rdf:Description>
 </rdf:RDF>
</metadata>
<globalCoordinateSystem srsName="http://purl.org/crs/84" transform="matrix(100.0,0.0,0.0,-100.0,0.0,0.0)" />
<g >
<image xlink:href="tile48_13.png" preserveAspectRatio="none" x="13852.661133" y="-3652.954102" width="1.098633" height="1.098633"/>
<image xlink:href="tile48_12.png" preserveAspectRatio="none" x="13852.661133" y="-3654.052734" width="1.098633" height="1.098633"/>
<image xlink:href="tile48_7.png" preserveAspectRatio="none" x="13852.661133" y="-3659.545898" width="1.098633" height="1.098633"/>
<image xlink:href="tile48_6.png" preserveAspectRatio="none" x="13852.661133" y="-3660.644531" width="1.098633" height="1.098633"/>
<image xlink:href="tile49_13.png" preserveAspectRatio="none" x="13853.759766" y="-3652.954102" width="1.098633" height="1.098633"/>
<image xlink:href="tile49_12.png" preserveAspectRatio="none" x="13853.759766" y="-3654.052734" width="1.098633" height="1.098633"/>
<image xlink:href="tile49_8.png" preserveAspectRatio="none" x="13853.759766" y="-3658.447266" width="1.098633" height="1.098633"/>
<image xlink:href="tile49_7.png" preserveAspectRatio="none" x="13853.759766" y="-3659.545898" width="1.098633" height="1.098633"/>
<image xlink:href="tile49_5.png" preserveAspectRatio="none" x="13853.759766" y="-3661.743164" width="1.098633" height="1.098633"/>
<image xlink:href="tile49_1.png" preserveAspectRatio="none" x="13853.759766" y="-3666.137695" width="1.098633" height="1.098633"/>
<image xlink:href="tile50_13.png" preserveAspectRatio="none" x="13854.858398" y="-3652.954102" width="1.098633" height="1.098633"/>
<image xlink:href="tile50_12.png" preserveAspectRatio="none" x="13854.858398" y="-3654.052734" width="1.098633" height="1.098633"/>
<image xlink:href="tile50_11.png" preserveAspectRatio="none" x="13854.858398" y="-3655.151367" width="1.098633" height="1.098633"/>
<image xlink:href="tile50_10.png" preserveAspectRatio="none" x="13854.858398" y="-3656.25" width="1.098633" height="1.098633"/>
<image xlink:href="tile50_9.png" preserveAspectRatio="none" x="13854.858398" y="-3657.348633" width="1.098633" height="1.098633"/>
<image xlink:href="tile50_8.png" preserveAspectRatio="none" x="13854.858398" y="-3658.447266" width="1.098633" height="1.098633"/>
<image xlink:href="tile50_7.png" preserveAspectRatio="none" x="13854.858398" y="-3659.545898" width="1.098633" height="1.098633"/>
<image xlink:href="tile50_6.png" preserveAspectRatio="none" x="13854.858398" y="-3660.644531" width="1.098633" height="1.098633"/>
<image xlink:href="tile50_5.png" preserveAspectRatio="none" x="13854.858398" y="-3661.743164" width="1.098633" height="1.098633"/>
<image xlink:href="tile50_2.png" preserveAspectRatio="none" x="13854.858398" y="-3665.039062" width="1.098633" height="1.098633"/>
<image xlink:href="tile50_1.png" preserveAspectRatio="none" x="13854.858398" y="-3666.137695" width="1.098633" height="1.098633"/>
<image xlink:href="tile51_13.png" preserveAspectRatio="none" x="13855.957031" y="-3652.954102" width="1.098633" height="1.098633"/>
<image xlink:href="tile51_12.png" preserveAspectRatio="none" x="13855.957031" y="-3654.052734" width="1.098633" height="1.098633"/>
<image xlink:href="tile51_11.png" preserveAspectRatio="none" x="13855.957031" y="-3655.151367" width="1.098633" height="1.098633"/>
<image xlink:href="tile51_10.png" preserveAspectRatio="none" x="13855.957031" y="-3656.25" width="1.098633" height="1.098633"/>
<image xlink:href="tile51_8.png" preserveAspectRatio="none" x="13855.957031" y="-3658.447266" width="1.098633" height="1.098633"/>
<image xlink:href="tile51_7.png" preserveAspectRatio="none" x="13855.957031" y="-3659.545898" width="1.098633" height="1.098633"/>
<image xlink:href="tile51_6.png" preserveAspectRatio="none" x="13855.957031" y="-3660.644531" width="1.098633" height="1.098633"/>
<image xlink:href="tile51_5.png" preserveAspectRatio="none" x="13855.957031" y="-3661.743164" width="1.098633" height="1.098633"/>
<image xlink:href="tile51_3.png" preserveAspectRatio="none" x="13855.957031" y="-3663.94043" width="1.098633" height="1.098633"/>
<image xlink:href="tile51_2.png" preserveAspectRatio="none" x="13855.957031" y="-3665.039062" width="1.098633" height="1.098633"/>
<image xlink:href="tile52_13.png" preserveAspectRatio="none" x="13857.055664" y="-3652.954102" width="1.098633" height="1.098633"/>
<image xlink:href="tile52_12.png" preserveAspectRatio="none" x="13857.055664" y="-3654.052734" width="1.098633" height="1.098633"/>
<image xlink:href="tile52_11.png" preserveAspectRatio="none" x="13857.055664" y="-3655.151367" width="1.098633" height="1.098633"/>
<image xlink:href="tile52_10.png" preserveAspectRatio="none" x="13857.055664" y="-3656.25" width="1.098633" height="1.098633"/>
<image xlink:href="tile52_9.png" preserveAspectRatio="none" x="13857.055664" y="-3657.348633" width="1.098633" height="1.098633"/>
<image xlink:href="tile52_8.png" preserveAspectRatio="none" x="13857.055664" y="-3658.447266" width="1.098633" height="1.098633"/>
<image xlink:href="tile52_7.png" preserveAspectRatio="none" x="13857.055664" y="-3659.545898" width="1.098633" height="1.098633"/>
<image xlink:href="tile52_6.png" preserveAspectRatio="none" x="13857.055664" y="-3660.644531" width="1.098633" height="1.098633"/>
<image xlink:href="tile52_3.png" preserveAspectRatio="none" x="13857.055664" y="-3663.94043" width="1.098633" height="1.098633"/>
<image xlink:href="tile52_2.png" preserveAspectRatio="none" x="13857.055664" y="-3665.039062" width="1.098633" height="1.098633"/>
<image xlink:href="tile52_1.png" preserveAspectRatio="none" x="13857.055664" y="-3666.137695" width="1.098633" height="1.098633"/>
<image xlink:href="tile53_11.png" preserveAspectRatio="none" x="13858.154297" y="-3655.151367" width="1.098633" height="1.098633"/>
<image xlink:href="tile53_10.png" preserveAspectRatio="none" x="13858.154297" y="-3656.25" width="1.098633" height="1.098633"/>
<image xlink:href="tile53_9.png" preserveAspectRatio="none" x="13858.154297" y="-3657.348633" width="1.098633" height="1.098633"/>
<image xlink:href="tile53_8.png" preserveAspectRatio="none" x="13858.154297" y="-3658.447266" width="1.098633" height="1.098633"/>
<image xlink:href="tile53_7.png" preserveAspectRatio="none" x="13858.154297" y="-3659.545898" width="1.098633" height="1.098633"/>
<image xlink:href="tile53_5.png" preserveAspectRatio="none" x="13858.154297" y="-3661.743164" width="1.098633" height="1.098633"/>
<image xlink:href="tile53_4.png" preserveAspectRatio="none" x="13858.154297" y="-3662.841797" width="1.098633" height="1.098633"/>
<image xlink:href="tile53_3.png" preserveAspectRatio="none" x="13858.154297" y="-3663.94043" width="1.098633" height="1.098633"/>
<image xlink:href="tile53_2.png" preserveAspectRatio="none" x="13858.154297" y="-3665.039062" width="1.098633" height="1.098633"/>
<image xlink:href="tile53_1.png" preserveAspectRatio="none" x="13858.154297" y="-3666.137695" width="1.098633" height="1.098633"/>
<image xlink:href="tile54_11.png" preserveAspectRatio="none" x="13859.25293" y="-3655.151367" width="1.098633" height="1.098633"/>
<image xlink:href="tile54_10.png" preserveAspectRatio="none" x="13859.25293" y="-3656.25" width="1.098633" height="1.098633"/>
<image xlink:href="tile54_9.png" preserveAspectRatio="none" x="13859.25293" y="-3657.348633" width="1.098633" height="1.098633"/>
<image xlink:href="tile54_7.png" preserveAspectRatio="none" x="13859.25293" y="-3659.545898" width="1.098633" height="1.098633"/>
<image xlink:href="tile54_6.png" preserveAspectRatio="none" x="13859.25293" y="-3660.644531" width="1.098633" height="1.098633"/>
<image xlink:href="tile54_5.png" preserveAspectRatio="none" x="13859.25293" y="-3661.743164" width="1.098633" height="1.098633"/>
<image xlink:href="tile54_4.png" preserveAspectRatio="none" x="13859.25293" y="-3662.841797" width="1.098633" height="1.098633"/>
<image xlink:href="tile54_3.png" preserveAspectRatio="none" x="13859.25293" y="-3663.94043" width="1.098633" height="1.098633"/>
<image xlink:href="tile54_2.png" preserveAspectRatio="none" x="13859.25293" y="-3665.039062" width="1.098633" height="1.098633"/>
<image xlink:href="tile54_1.png" preserveAspectRatio="none" x="13859.25293" y="-3666.137695" width="1.098633" height="1.098633"/>
<image xlink:href="tile54_0.png" preserveAspectRatio="none" x="13859.25293" y="-3667.236328" width="1.098633" height="1.098633"/>
<image xlink:href="tile55_11.png" preserveAspectRatio="none" x="13860.351562" y="-3655.151367" width="1.098633" height="1.098633"/>
<image xlink:href="tile55_10.png" preserveAspectRatio="none" x="13860.351562" y="-3656.25" width="1.098633" height="1.098633"/>
<image xlink:href="tile55_7.png" preserveAspectRatio="none" x="13860.351562" y="-3659.545898" width="1.098633" height="1.098633"/>
<image xlink:href="tile55_6.png" preserveAspectRatio="none" x="13860.351562" y="-3660.644531" width="1.098633" height="1.098633"/>
<image xlink:href="tile55_5.png" preserveAspectRatio="none" x="13860.351562" y="-3661.743164" width="1.098633" height="1.098633"/>
<image xlink:href="tile55_4.png" preserveAspectRatio="none" x="13860.351562" y="-3662.841797" width="1.098633" height="1.098633"/>
<image xlink:href="tile55_3.png" preserveAspectRatio="none" x="13860.351562" y="-3663.94043" width="1.098633" height="1.098633"/>
<image xlink:href="tile55_2.png" preserveAspectRatio="none" x="13860.351562" y="-3665.039062" width="1.098633" height="1.098633"/>
<image xlink:href="tile55_1.png" preserveAspectRatio="none" x="13860.351562" y="-3666.137695" width="1.098633" height="1.098633"/>
<image xlink:href="tile55_0.png" preserveAspectRatio="none" x="13860.351562" y="-3667.236328" width="1.098633" height="1.098633"/>
<image xlink:href="tile56_13.png" preserveAspectRatio="none" x="13861.450195" y="-3652.954102" width="1.098633" height="1.098633"/>
<image xlink:href="tile56_12.png" preserveAspectRatio="none" x="13861.450195" y="-3654.052734" width="1.098633" height="1.098633"/>
<image xlink:href="tile56_11.png" preserveAspectRatio="none" x="13861.450195" y="-3655.151367" width="1.098633" height="1.098633"/>
<image xlink:href="tile56_10.png" preserveAspectRatio="none" x="13861.450195" y="-3656.25" width="1.098633" height="1.098633"/>
<image xlink:href="tile56_9.png" preserveAspectRatio="none" x="13861.450195" y="-3657.348633" width="1.098633" height="1.098633"/>
<image xlink:href="tile56_8.png" preserveAspectRatio="none" x="13861.450195" y="-3658.447266" width="1.098633" height="1.098633"/>
<image xlink:href="tile56_7.png" preserveAspectRatio="none" x="13861.450195" y="-3659.545898" width="1.098633" height="1.098633"/>
<image xlink:href="tile56_6.png" preserveAspectRatio="none" x="13861.450195" y="-3660.644531" width="1.098633" height="1.098633"/>
<image xlink:href="tile56_5.png" preserveAspectRatio="none" x="13861.450195" y="-3661.743164" width="1.098633" height="1.098633"/>
<image xlink:href="tile56_4.png" preserveAspectRatio="none" x="13861.450195" y="-3662.841797" width="1.098633" height="1.098633"/>
<image xlink:href="tile56_3.png" preserveAspectRatio="none" x="13861.450195" y="-3663.94043" width="1.098633" height="1.098633"/>
<image xlink:href="tile56_2.png" preserveAspectRatio="none" x="13861.450195" y="-3665.039062" width="1.098633" height="1.098633"/>
<image xlink:href="tile56_1.png" preserveAspectRatio="none" x="13861.450195" y="-3666.137695" width="1.098633" height="1.098633"/>
<image xlink:href="tile57_11.png" preserveAspectRatio="none" x="13862.548828" y="-3655.151367" width="1.098633" height="1.098633"/>
<image xlink:href="tile57_10.png" preserveAspectRatio="none" x="13862.548828" y="-3656.25" width="1.098633" height="1.098633"/>
<image xlink:href="tile57_9.png" preserveAspectRatio="none" x="13862.548828" y="-3657.348633" width="1.098633" height="1.098633"/>
<image xlink:href="tile57_8.png" preserveAspectRatio="none" x="13862.548828" y="-3658.447266" width="1.098633" height="1.098633"/>
<image xlink:href="tile57_7.png" preserveAspectRatio="none" x="13862.548828" y="-3659.545898" width="1.098633" height="1.098633"/>
<image xlink:href="tile57_6.png" preserveAspectRatio="none" x="13862.548828" y="-3660.644531" width="1.098633" height="1.098633"/>
<image xlink:href="tile57_4.png" preserveAspectRatio="none" x="13862.548828" y="-3662.841797" width="1.098633" height="1.098633"/>
<image xlink:href="tile57_3.png" preserveAspectRatio="none" x="13862.548828" y="-3663.94043" width="1.098633" height="1.098633"/>
<image xlink:href="tile57_2.png" preserveAspectRatio="none" x="13862.548828" y="-3665.039062" width="1.098633" height="1.098633"/>
<image xlink:href="tile57_1.png" preserveAspectRatio="none" x="13862.548828" y="-3666.137695" width="1.098633" height="1.098633"/>
<image xlink:href="tile58_11.png" preserveAspectRatio="none" x="13863.647461" y="-3655.151367" width="1.098633" height="1.098633"/>
<image xlink:href="tile58_10.png" preserveAspectRatio="none" x="13863.647461" y="-3656.25" width="1.098633" height="1.098633"/>
<image xlink:href="tile58_9.png" preserveAspectRatio="none" x="13863.647461" y="-3657.348633" width="1.098633" height="1.098633"/>
<image xlink:href="tile58_6.png" preserveAspectRatio="none" x="13863.647461" y="-3660.644531" width="1.098633" height="1.098633"/>
<image xlink:href="tile58_5.png" preserveAspectRatio="none" x="13863.647461" y="-3661.743164" width="1.098633" height="1.098633"/>
<image xlink:href="tile58_4.png" preserveAspectRatio="none" x="13863.647461" y="-3662.841797" width="1.098633" height="1.098633"/>
<image xlink:href="tile58_3.png" preserveAspectRatio="none" x="13863.647461" y="-3663.94043" width="1.098633" height="1.098633"/>
<image xlink:href="tile58_2.png" preserveAspectRatio="none" x="13863.647461" y="-3665.039062" width="1.098633" height="1.098633"/>
<image xlink:href="tile58_1.png" preserveAspectRatio="none" x="13863.647461" y="-3666.137695" width="1.098633" height="1.098633"/>
<image xlink:href="tile59_11.png" preserveAspectRatio="none" x="13864.746094" y="-3655.151367" width="1.098633" height="1.098633"/>
<image xlink:href="tile59_10.png" preserveAspectRatio="none" x="13864.746094" y="-3656.25" width="1.098633" height="1.098633"/>
<image xlink:href="tile59_6.png" preserveAspectRatio="none" x="13864.746094" y="-3660.644531" width="1.098633" height="1.098633"/>
<image xlink:href="tile59_5.png" preserveAspectRatio="none" x="13864.746094" y="-3661.743164" width="1.098633" height="1.098633"/>
<image xlink:href="tile59_4.png" preserveAspectRatio="none" x="13864.746094" y="-3662.841797" width="1.098633" height="1.098633"/>
<image xlink:href="tile59_3.png" preserveAspectRatio="none" x="13864.746094" y="-3663.94043" width="1.098633" height="1.098633"/>
<image xlink:href="tile59_2.png" preserveAspectRatio="none" x="13864.746094" y="-3665.039062" width="1.098633" height="1.098633"/>
<image xlink:href="tile59_1.png" preserveAspectRatio="none" x="13864.746094" y="-3666.137695" width="1.098633" height="1.098633"/>
<image xlink:href="tile60_12.png" preserveAspectRatio="none" x="13865.844727" y="-3654.052734" width="1.098633" height="1.098633"/>
<image xlink:href="tile60_11.png" preserveAspectRatio="none" x="13865.844727" y="-3655.151367" width="1.098633" height="1.098633"/>
<image xlink:href="tile60_5.png" preserveAspectRatio="none" x="13865.844727" y="-3661.743164" width="1.098633" height="1.098633"/>
<image xlink:href="tile60_1.png" preserveAspectRatio="none" x="13865.844727" y="-3666.137695" width="1.098633" height="1.098633"/>
<image xlink:href="tile61_12.png" preserveAspectRatio="none" x="13866.943359" y="-3654.052734" width="1.098633" height="1.098633"/>
<image xlink:href="tile61_11.png" preserveAspectRatio="none" x="13866.943359" y="-3655.151367" width="1.098633" height="1.098633"/>
<image xlink:href="tile61_6.png" preserveAspectRatio="none" x="13866.943359" y="-3660.644531" width="1.098633" height="1.098633"/>
<image xlink:href="tile61_5.png" preserveAspectRatio="none" x="13866.943359" y="-3661.743164" width="1.098633" height="1.098633"/>
<image xlink:href="tile61_1.png" preserveAspectRatio="none" x="13866.943359" y="-3666.137695" width="1.098633" height="1.098633"/>
<image xlink:href="tile62_11.png" preserveAspectRatio="none" x="13868.041992" y="-3655.151367" width="1.098633" height="1.098633"/>
<image xlink:href="tile62_10.png" preserveAspectRatio="none" x="13868.041992" y="-3656.25" width="1.098633" height="1.098633"/>
<image xlink:href="tile62_6.png" preserveAspectRatio="none" x="13868.041992" y="-3660.644531" width="1.098633" height="1.098633"/>
<image xlink:href="tile62_5.png" preserveAspectRatio="none" x="13868.041992" y="-3661.743164" width="1.098633" height="1.098633"/>
<image xlink:href="tile62_1.png" preserveAspectRatio="none" x="13868.041992" y="-3666.137695" width="1.098633" height="1.098633"/>
<image xlink:href="tile62_0.png" preserveAspectRatio="none" x="13868.041992" y="-3667.236328" width="1.098633" height="1.098633"/>
<image xlink:href="tile63_11.png" preserveAspectRatio="none" x="13869.140625" y="-3655.151367" width="1.098633" height="1.098633"/>
<image xlink:href="tile63_10.png" preserveAspectRatio="none" x="13869.140625" y="-3656.25" width="1.098633" height="1.098633"/>
<image xlink:href="tile63_8.png" preserveAspectRatio="none" x="13869.140625" y="-3658.447266" width="1.098633" height="1.098633"/>
</g>
</svg>
