<?xml version="1.0" encoding="UTF-8"?>
<svg  xmlns="http://www.w3.org/2000/svg" xmlns:xlink="http://www.w3.org/1999/xlink" xmlns:go="http://purl.org/svgmap/profile" viewBox="13800.0 -3666.666667 100.0 66.66666699999979" go:dataArea="13800.0 -3666.666667 100.0 66.66666699999979" >
<metadata>
 <rdf:RDF xmlns:rdf="http://www.w3.org/1999/02/22-rdf-syntax-ns#" xmlns:crs="http://opengis.org/xmldtds/transformations.dtd" xmlns:svg="http://www.w3.org/svg" >
  <rdf:Description>
   <crs:CoordinateReferenceSystem rdf:resource="http://purl.org/crs/84" svg:transform="matrix(100.0,0.0,0.0,-100.0,0.0,0.0)" />
  </rdf:Description>
 </rdf:RDF>
</metadata>
<globalCoordinateSystem srsName="http://purl.org/crs/84" transform="matrix(100.0,0.0,0.0,-100.0,0.0,0.0)" />
<g >
<image xlink:href="tile80_44.png" preserveAspectRatio="none" x="13887.817383" y="-3618.896484" width="1.098633" height="1.098633"/>
<image xlink:href="tile80_43.png" preserveAspectRatio="none" x="13887.817383" y="-3619.995117" width="1.098633" height="1.098633"/>
<image xlink:href="tile80_41.png" preserveAspectRatio="none" x="13887.817383" y="-3622.192383" width="1.098633" height="1.098633"/>
<image xlink:href="tile80_40.png" preserveAspectRatio="none" x="13887.817383" y="-3623.291016" width="1.098633" height="1.098633"/>
<image xlink:href="tile80_39.png" preserveAspectRatio="none" x="13887.817383" y="-3624.389648" width="1.098633" height="1.098633"/>
<image xlink:href="tile80_38.png" preserveAspectRatio="none" x="13887.817383" y="-3625.488281" width="1.098633" height="1.098633"/>
<image xlink:href="tile80_37.png" preserveAspectRatio="none" x="13887.817383" y="-3626.586914" width="1.098633" height="1.098633"/>
<image xlink:href="tile80_35.png" preserveAspectRatio="none" x="13887.817383" y="-3628.78418" width="1.098633" height="1.098633"/>
<image xlink:href="tile80_34.png" preserveAspectRatio="none" x="13887.817383" y="-3629.882812" width="1.098633" height="1.098633"/>
<image xlink:href="tile80_33.png" preserveAspectRatio="none" x="13887.817383" y="-3630.981445" width="1.098633" height="1.098633"/>
<image xlink:href="tile80_32.png" preserveAspectRatio="none" x="13887.817383" y="-3632.080078" width="1.098633" height="1.098633"/>
<image xlink:href="tile80_31.png" preserveAspectRatio="none" x="13887.817383" y="-3633.178711" width="1.098633" height="1.098633"/>
<image xlink:href="tile80_30.png" preserveAspectRatio="none" x="13887.817383" y="-3634.277344" width="1.098633" height="1.098633"/>
<image xlink:href="tile81_45.png" preserveAspectRatio="none" x="13888.916016" y="-3617.797852" width="1.098633" height="1.098633"/>
<image xlink:href="tile81_43.png" preserveAspectRatio="none" x="13888.916016" y="-3619.995117" width="1.098633" height="1.098633"/>
<image xlink:href="tile81_42.png" preserveAspectRatio="none" x="13888.916016" y="-3621.09375" width="1.098633" height="1.098633"/>
<image xlink:href="tile81_41.png" preserveAspectRatio="none" x="13888.916016" y="-3622.192383" width="1.098633" height="1.098633"/>
<image xlink:href="tile81_40.png" preserveAspectRatio="none" x="13888.916016" y="-3623.291016" width="1.098633" height="1.098633"/>
<image xlink:href="tile81_39.png" preserveAspectRatio="none" x="13888.916016" y="-3624.389648" width="1.098633" height="1.098633"/>
<image xlink:href="tile81_38.png" preserveAspectRatio="none" x="13888.916016" y="-3625.488281" width="1.098633" height="1.098633"/>
<image xlink:href="tile81_36.png" preserveAspectRatio="none" x="13888.916016" y="-3627.685547" width="1.098633" height="1.098633"/>
<image xlink:href="tile81_35.png" preserveAspectRatio="none" x="13888.916016" y="-3628.78418" width="1.098633" height="1.098633"/>
<image xlink:href="tile81_34.png" preserveAspectRatio="none" x="13888.916016" y="-3629.882812" width="1.098633" height="1.098633"/>
<image xlink:href="tile81_33.png" preserveAspectRatio="none" x="13888.916016" y="-3630.981445" width="1.098633" height="1.098633"/>
<image xlink:href="tile81_32.png" preserveAspectRatio="none" x="13888.916016" y="-3632.080078" width="1.098633" height="1.098633"/>
<image xlink:href="tile81_31.png" preserveAspectRatio="none" x="13888.916016" y="-3633.178711" width="1.098633" height="1.098633"/>
<image xlink:href="tile81_30.png" preserveAspectRatio="none" x="13888.916016" y="-3634.277344" width="1.098633" height="1.098633"/>
<image xlink:href="tile82_45.png" preserveAspectRatio="none" x="13890.014648" y="-3617.797852" width="1.098633" height="1.098633"/>
<image xlink:href="tile82_42.png" preserveAspectRatio="none" x="13890.014648" y="-3621.09375" width="1.098633" height="1.098633"/>
<image xlink:href="tile82_41.png" preserveAspectRatio="none" x="13890.014648" y="-3622.192383" width="1.098633" height="1.098633"/>
<image xlink:href="tile82_40.png" preserveAspectRatio="none" x="13890.014648" y="-3623.291016" width="1.098633" height="1.098633"/>
<image xlink:href="tile82_39.png" preserveAspectRatio="none" x="13890.014648" y="-3624.389648" width="1.098633" height="1.098633"/>
<image xlink:href="tile82_38.png" preserveAspectRatio="none" x="13890.014648" y="-3625.488281" width="1.098633" height="1.098633"/>
<image xlink:href="tile82_37.png" preserveAspectRatio="none" x="13890.014648" y="-3626.586914" width="1.098633" height="1.098633"/>
<image xlink:href="tile82_36.png" preserveAspectRatio="none" x="13890.014648" y="-3627.685547" width="1.098633" height="1.098633"/>
<image xlink:href="tile82_35.png" preserveAspectRatio="none" x="13890.014648" y="-3628.78418" width="1.098633" height="1.098633"/>
<image xlink:href="tile82_33.png" preserveAspectRatio="none" x="13890.014648" y="-3630.981445" width="1.098633" height="1.098633"/>
<image xlink:href="tile82_32.png" preserveAspectRatio="none" x="13890.014648" y="-3632.080078" width="1.098633" height="1.098633"/>
<image xlink:href="tile82_31.png" preserveAspectRatio="none" x="13890.014648" y="-3633.178711" width="1.098633" height="1.098633"/>
<image xlink:href="tile82_30.png" preserveAspectRatio="none" x="13890.014648" y="-3634.277344" width="1.098633" height="1.098633"/>
<image xlink:href="tile83_45.png" preserveAspectRatio="none" x="13891.113281" y="-3617.797852" width="1.098633" height="1.098633"/>
<image xlink:href="tile83_44.png" preserveAspectRatio="none" x="13891.113281" y="-3618.896484" width="1.098633" height="1.098633"/>
<image xlink:href="tile83_41.png" preserveAspectRatio="none" x="13891.113281" y="-3622.192383" width="1.098633" height="1.098633"/>
<image xlink:href="tile83_40.png" preserveAspectRatio="none" x="13891.113281" y="-3623.291016" width="1.098633" height="1.098633"/>
<image xlink:href="tile83_39.png" preserveAspectRatio="none" x="13891.113281" y="-3624.389648" width="1.098633" height="1.098633"/>
<image xlink:href="tile83_38.png" preserveAspectRatio="none" x="13891.113281" y="-3625.488281" width="1.098633" height="1.098633"/>
<image xlink:href="tile83_37.png" preserveAspectRatio="none" x="13891.113281" y="-3626.586914" width="1.098633" height="1.098633"/>
<image xlink:href="tile83_36.png" preserveAspectRatio="none" x="13891.113281" y="-3627.685547" width="1.098633" height="1.098633"/>
<image xlink:href="tile83_35.png" preserveAspectRatio="none" x="13891.113281" y="-3628.78418" width="1.098633" height="1.098633"/>
<image xlink:href="tile83_34.png" preserveAspectRatio="none" x="13891.113281" y="-3629.882812" width="1.098633" height="1.098633"/>
<image xlink:href="tile83_31.png" preserveAspectRatio="none" x="13891.113281" y="-3633.178711" width="1.098633" height="1.098633"/>
<image xlink:href="tile83_30.png" preserveAspectRatio="none" x="13891.113281" y="-3634.277344" width="1.098633" height="1.098633"/>
<image xlink:href="tile84_45.png" preserveAspectRatio="none" x="13892.211914" y="-3617.797852" width="1.098633" height="1.098633"/>
<image xlink:href="tile84_44.png" preserveAspectRatio="none" x="13892.211914" y="-3618.896484" width="1.098633" height="1.098633"/>
<image xlink:href="tile84_42.png" preserveAspectRatio="none" x="13892.211914" y="-3621.09375" width="1.098633" height="1.098633"/>
<image xlink:href="tile84_41.png" preserveAspectRatio="none" x="13892.211914" y="-3622.192383" width="1.098633" height="1.098633"/>
<image xlink:href="tile84_40.png" preserveAspectRatio="none" x="13892.211914" y="-3623.291016" width="1.098633" height="1.098633"/>
<image xlink:href="tile84_39.png" preserveAspectRatio="none" x="13892.211914" y="-3624.389648" width="1.098633" height="1.098633"/>
<image xlink:href="tile84_37.png" preserveAspectRatio="none" x="13892.211914" y="-3626.586914" width="1.098633" height="1.098633"/>
<image xlink:href="tile84_35.png" preserveAspectRatio="none" x="13892.211914" y="-3628.78418" width="1.098633" height="1.098633"/>
<image xlink:href="tile84_34.png" preserveAspectRatio="none" x="13892.211914" y="-3629.882812" width="1.098633" height="1.098633"/>
<image xlink:href="tile84_33.png" preserveAspectRatio="none" x="13892.211914" y="-3630.981445" width="1.098633" height="1.098633"/>
<image xlink:href="tile84_32.png" preserveAspectRatio="none" x="13892.211914" y="-3632.080078" width="1.098633" height="1.098633"/>
<image xlink:href="tile84_31.png" preserveAspectRatio="none" x="13892.211914" y="-3633.178711" width="1.098633" height="1.098633"/>
<image xlink:href="tile84_30.png" preserveAspectRatio="none" x="13892.211914" y="-3634.277344" width="1.098633" height="1.098633"/>
<image xlink:href="tile85_45.png" preserveAspectRatio="none" x="13893.310547" y="-3617.797852" width="1.098633" height="1.098633"/>
<image xlink:href="tile85_44.png" preserveAspectRatio="none" x="13893.310547" y="-3618.896484" width="1.098633" height="1.098633"/>
<image xlink:href="tile85_42.png" preserveAspectRatio="none" x="13893.310547" y="-3621.09375" width="1.098633" height="1.098633"/>
<image xlink:href="tile85_41.png" preserveAspectRatio="none" x="13893.310547" y="-3622.192383" width="1.098633" height="1.098633"/>
<image xlink:href="tile85_40.png" preserveAspectRatio="none" x="13893.310547" y="-3623.291016" width="1.098633" height="1.098633"/>
<image xlink:href="tile85_39.png" preserveAspectRatio="none" x="13893.310547" y="-3624.389648" width="1.098633" height="1.098633"/>
<image xlink:href="tile85_38.png" preserveAspectRatio="none" x="13893.310547" y="-3625.488281" width="1.098633" height="1.098633"/>
<image xlink:href="tile85_37.png" preserveAspectRatio="none" x="13893.310547" y="-3626.586914" width="1.098633" height="1.098633"/>
<image xlink:href="tile85_36.png" preserveAspectRatio="none" x="13893.310547" y="-3627.685547" width="1.098633" height="1.098633"/>
<image xlink:href="tile85_35.png" preserveAspectRatio="none" x="13893.310547" y="-3628.78418" width="1.098633" height="1.098633"/>
<image xlink:href="tile85_34.png" preserveAspectRatio="none" x="13893.310547" y="-3629.882812" width="1.098633" height="1.098633"/>
<image xlink:href="tile85_33.png" preserveAspectRatio="none" x="13893.310547" y="-3630.981445" width="1.098633" height="1.098633"/>
<image xlink:href="tile85_32.png" preserveAspectRatio="none" x="13893.310547" y="-3632.080078" width="1.098633" height="1.098633"/>
<image xlink:href="tile85_31.png" preserveAspectRatio="none" x="13893.310547" y="-3633.178711" width="1.098633" height="1.098633"/>
<image xlink:href="tile85_30.png" preserveAspectRatio="none" x="13893.310547" y="-3634.277344" width="1.098633" height="1.098633"/>
<image xlink:href="tile86_44.png" preserveAspectRatio="none" x="13894.40918" y="-3618.896484" width="1.098633" height="1.098633"/>
<image xlink:href="tile86_43.png" preserveAspectRatio="none" x="13894.40918" y="-3619.995117" width="1.098633" height="1.098633"/>
<image xlink:href="tile86_42.png" preserveAspectRatio="none" x="13894.40918" y="-3621.09375" width="1.098633" height="1.098633"/>
<image xlink:href="tile86_41.png" preserveAspectRatio="none" x="13894.40918" y="-3622.192383" width="1.098633" height="1.098633"/>
<image xlink:href="tile86_40.png" preserveAspectRatio="none" x="13894.40918" y="-3623.291016" width="1.098633" height="1.098633"/>
<image xlink:href="tile86_39.png" preserveAspectRatio="none" x="13894.40918" y="-3624.389648" width="1.098633" height="1.098633"/>
<image xlink:href="tile86_38.png" preserveAspectRatio="none" x="13894.40918" y="-3625.488281" width="1.098633" height="1.098633"/>
<image xlink:href="tile86_37.png" preserveAspectRatio="none" x="13894.40918" y="-3626.586914" width="1.098633" height="1.098633"/>
<image xlink:href="tile86_36.png" preserveAspectRatio="none" x="13894.40918" y="-3627.685547" width="1.098633" height="1.098633"/>
<image xlink:href="tile86_35.png" preserveAspectRatio="none" x="13894.40918" y="-3628.78418" width="1.098633" height="1.098633"/>
<image xlink:href="tile86_34.png" preserveAspectRatio="none" x="13894.40918" y="-3629.882812" width="1.098633" height="1.098633"/>
<image xlink:href="tile86_33.png" preserveAspectRatio="none" x="13894.40918" y="-3630.981445" width="1.098633" height="1.098633"/>
<image xlink:href="tile86_32.png" preserveAspectRatio="none" x="13894.40918" y="-3632.080078" width="1.098633" height="1.098633"/>
<image xlink:href="tile86_31.png" preserveAspectRatio="none" x="13894.40918" y="-3633.178711" width="1.098633" height="1.098633"/>
<image xlink:href="tile86_30.png" preserveAspectRatio="none" x="13894.40918" y="-3634.277344" width="1.098633" height="1.098633"/>
<image xlink:href="tile87_43.png" preserveAspectRatio="none" x="13895.507812" y="-3619.995117" width="1.098633" height="1.098633"/>
<image xlink:href="tile87_41.png" preserveAspectRatio="none" x="13895.507812" y="-3622.192383" width="1.098633" height="1.098633"/>
<image xlink:href="tile87_40.png" preserveAspectRatio="none" x="13895.507812" y="-3623.291016" width="1.098633" height="1.098633"/>
<image xlink:href="tile87_39.png" preserveAspectRatio="none" x="13895.507812" y="-3624.389648" width="1.098633" height="1.098633"/>
<image xlink:href="tile87_38.png" preserveAspectRatio="none" x="13895.507812" y="-3625.488281" width="1.098633" height="1.098633"/>
<image xlink:href="tile87_37.png" preserveAspectRatio="none" x="13895.507812" y="-3626.586914" width="1.098633" height="1.098633"/>
<image xlink:href="tile87_36.png" preserveAspectRatio="none" x="13895.507812" y="-3627.685547" width="1.098633" height="1.098633"/>
<image xlink:href="tile87_35.png" preserveAspectRatio="none" x="13895.507812" y="-3628.78418" width="1.098633" height="1.098633"/>
<image xlink:href="tile87_34.png" preserveAspectRatio="none" x="13895.507812" y="-3629.882812" width="1.098633" height="1.098633"/>
<image xlink:href="tile87_33.png" preserveAspectRatio="none" x="13895.507812" y="-3630.981445" width="1.098633" height="1.098633"/>
<image xlink:href="tile87_32.png" preserveAspectRatio="none" x="13895.507812" y="-3632.080078" width="1.098633" height="1.098633"/>
<image xlink:href="tile87_30.png" preserveAspectRatio="none" x="13895.507812" y="-3634.277344" width="1.098633" height="1.098633"/>
<image xlink:href="tile88_43.png" preserveAspectRatio="none" x="13896.606445" y="-3619.995117" width="1.098633" height="1.098633"/>
<image xlink:href="tile88_41.png" preserveAspectRatio="none" x="13896.606445" y="-3622.192383" width="1.098633" height="1.098633"/>
<image xlink:href="tile88_40.png" preserveAspectRatio="none" x="13896.606445" y="-3623.291016" width="1.098633" height="1.098633"/>
<image xlink:href="tile88_39.png" preserveAspectRatio="none" x="13896.606445" y="-3624.389648" width="1.098633" height="1.098633"/>
<image xlink:href="tile88_37.png" preserveAspectRatio="none" x="13896.606445" y="-3626.586914" width="1.098633" height="1.098633"/>
<image xlink:href="tile88_36.png" preserveAspectRatio="none" x="13896.606445" y="-3627.685547" width="1.098633" height="1.098633"/>
<image xlink:href="tile88_35.png" preserveAspectRatio="none" x="13896.606445" y="-3628.78418" width="1.098633" height="1.098633"/>
<image xlink:href="tile88_33.png" preserveAspectRatio="none" x="13896.606445" y="-3630.981445" width="1.098633" height="1.098633"/>
<image xlink:href="tile88_32.png" preserveAspectRatio="none" x="13896.606445" y="-3632.080078" width="1.098633" height="1.098633"/>
<image xlink:href="tile88_31.png" preserveAspectRatio="none" x="13896.606445" y="-3633.178711" width="1.098633" height="1.098633"/>
<image xlink:href="tile88_30.png" preserveAspectRatio="none" x="13896.606445" y="-3634.277344" width="1.098633" height="1.098633"/>
<image xlink:href="tile89_44.png" preserveAspectRatio="none" x="13897.705078" y="-3618.896484" width="1.098633" height="1.098633"/>
<image xlink:href="tile89_43.png" preserveAspectRatio="none" x="13897.705078" y="-3619.995117" width="1.098633" height="1.098633"/>
<image xlink:href="tile89_41.png" preserveAspectRatio="none" x="13897.705078" y="-3622.192383" width="1.098633" height="1.098633"/>
<image xlink:href="tile89_40.png" preserveAspectRatio="none" x="13897.705078" y="-3623.291016" width="1.098633" height="1.098633"/>
<image xlink:href="tile89_39.png" preserveAspectRatio="none" x="13897.705078" y="-3624.389648" width="1.098633" height="1.098633"/>
<image xlink:href="tile89_38.png" preserveAspectRatio="none" x="13897.705078" y="-3625.488281" width="1.098633" height="1.098633"/>
<image xlink:href="tile89_37.png" preserveAspectRatio="none" x="13897.705078" y="-3626.586914" width="1.098633" height="1.098633"/>
<image xlink:href="tile89_36.png" preserveAspectRatio="none" x="13897.705078" y="-3627.685547" width="1.098633" height="1.098633"/>
<image xlink:href="tile89_35.png" preserveAspectRatio="none" x="13897.705078" y="-3628.78418" width="1.098633" height="1.098633"/>
<image xlink:href="tile89_33.png" preserveAspectRatio="none" x="13897.705078" y="-3630.981445" width="1.098633" height="1.098633"/>
<image xlink:href="tile89_32.png" preserveAspectRatio="none" x="13897.705078" y="-3632.080078" width="1.098633" height="1.098633"/>
<image xlink:href="tile89_31.png" preserveAspectRatio="none" x="13897.705078" y="-3633.178711" width="1.098633" height="1.098633"/>
<image xlink:href="tile89_30.png" preserveAspectRatio="none" x="13897.705078" y="-3634.277344" width="1.098633" height="1.098633"/>
<image xlink:href="tile90_44.png" preserveAspectRatio="none" x="13898.803711" y="-3618.896484" width="1.098633" height="1.098633"/>
<image xlink:href="tile90_43.png" preserveAspectRatio="none" x="13898.803711" y="-3619.995117" width="1.098633" height="1.098633"/>
<image xlink:href="tile90_42.png" preserveAspectRatio="none" x="13898.803711" y="-3621.09375" width="1.098633" height="1.098633"/>
<image xlink:href="tile90_41.png" preserveAspectRatio="none" x="13898.803711" y="-3622.192383" width="1.098633" height="1.098633"/>
<image xlink:href="tile90_40.png" preserveAspectRatio="none" x="13898.803711" y="-3623.291016" width="1.098633" height="1.098633"/>
<image xlink:href="tile90_39.png" preserveAspectRatio="none" x="13898.803711" y="-3624.389648" width="1.098633" height="1.098633"/>
<image xlink:href="tile90_38.png" preserveAspectRatio="none" x="13898.803711" y="-3625.488281" width="1.098633" height="1.098633"/>
<image xlink:href="tile90_37.png" preserveAspectRatio="none" x="13898.803711" y="-3626.586914" width="1.098633" height="1.098633"/>
<image xlink:href="tile90_36.png" preserveAspectRatio="none" x="13898.803711" y="-3627.685547" width="1.098633" height="1.098633"/>
<image xlink:href="tile90_35.png" preserveAspectRatio="none" x="13898.803711" y="-3628.78418" width="1.098633" height="1.098633"/>
<image xlink:href="tile90_34.png" preserveAspectRatio="none" x="13898.803711" y="-3629.882812" width="1.098633" height="1.098633"/>
<image xlink:href="tile90_33.png" preserveAspectRatio="none" x="13898.803711" y="-3630.981445" width="1.098633" height="1.098633"/>
<image xlink:href="tile90_32.png" preserveAspectRatio="none" x="13898.803711" y="-3632.080078" width="1.098633" height="1.098633"/>
<image xlink:href="tile90_31.png" preserveAspectRatio="none" x="13898.803711" y="-3633.178711" width="1.098633" height="1.098633"/>
<image xlink:href="tile90_30.png" preserveAspectRatio="none" x="13898.803711" y="-3634.277344" width="1.098633" height="1.098633"/>
<image xlink:href="tile91_42.png" preserveAspectRatio="none" x="13899.902344" y="-3621.09375" width="1.098633" height="1.098633"/>
<image xlink:href="tile91_41.png" preserveAspectRatio="none" x="13899.902344" y="-3622.192383" width="1.098633" height="1.098633"/>
<image xlink:href="tile91_40.png" preserveAspectRatio="none" x="13899.902344" y="-3623.291016" width="1.098633" height="1.098633"/>
<image xlink:href="tile91_39.png" preserveAspectRatio="none" x="13899.902344" y="-3624.389648" width="1.098633" height="1.098633"/>
<image xlink:href="tile91_38.png" preserveAspectRatio="none" x="13899.902344" y="-3625.488281" width="1.098633" height="1.098633"/>
<image xlink:href="tile91_37.png" preserveAspectRatio="none" x="13899.902344" y="-3626.586914" width="1.098633" height="1.098633"/>
<image xlink:href="tile91_36.png" preserveAspectRatio="none" x="13899.902344" y="-3627.685547" width="1.098633" height="1.098633"/>
<image xlink:href="tile91_35.png" preserveAspectRatio="none" x="13899.902344" y="-3628.78418" width="1.098633" height="1.098633"/>
<image xlink:href="tile91_34.png" preserveAspectRatio="none" x="13899.902344" y="-3629.882812" width="1.098633" height="1.098633"/>
<image xlink:href="tile91_33.png" preserveAspectRatio="none" x="13899.902344" y="-3630.981445" width="1.098633" height="1.098633"/>
<image xlink:href="tile91_32.png" preserveAspectRatio="none" x="13899.902344" y="-3632.080078" width="1.098633" height="1.098633"/>
<image xlink:href="tile91_30.png" preserveAspectRatio="none" x="13899.902344" y="-3634.277344" width="1.098633" height="1.098633"/>
</g>
</svg>
