<?xml version="1.0" encoding="UTF-8"?>
<svg  xmlns="http://www.w3.org/2000/svg" xmlns:xlink="http://www.w3.org/1999/xlink" xmlns:go="http://purl.org/svgmap/profile" viewBox="13900.0 -3666.666667 100.0 66.66666699999979" go:dataArea="13900.0 -3666.666667 100.0 66.66666699999979" >
<metadata>
 <rdf:RDF xmlns:rdf="http://www.w3.org/1999/02/22-rdf-syntax-ns#" xmlns:crs="http://opengis.org/xmldtds/transformations.dtd" xmlns:svg="http://www.w3.org/svg" >
  <rdf:Description>
   <crs:CoordinateReferenceSystem rdf:resource="http://purl.org/crs/84" svg:transform="matrix(100.0,0.0,0.0,-100.0,0.0,0.0)" />
  </rdf:Description>
 </rdf:RDF>
</metadata>
<globalCoordinateSystem srsName="http://purl.org/crs/84" transform="matrix(100.0,0.0,0.0,-100.0,0.0,0.0)" />
<g >
<image xlink:href="tile0_18.png" preserveAspectRatio="none" x="13899.902344" y="-3627.685547" width="2.197266" height="2.197266"/>
<image xlink:href="tile0_17.png" preserveAspectRatio="none" x="13899.902344" y="-3629.882812" width="2.197266" height="2.197266"/>
<image xlink:href="tile0_16.png" preserveAspectRatio="none" x="13899.902344" y="-3632.080078" width="2.197266" height="2.197266"/>
<image xlink:href="tile1_19.png" preserveAspectRatio="none" x="13902.099609" y="-3625.488281" width="2.197266" height="2.197266"/>
<image xlink:href="tile1_18.png" preserveAspectRatio="none" x="13902.099609" y="-3627.685547" width="2.197266" height="2.197266"/>
<image xlink:href="tile1_17.png" preserveAspectRatio="none" x="13902.099609" y="-3629.882812" width="2.197266" height="2.197266"/>
<image xlink:href="tile1_15.png" preserveAspectRatio="none" x="13902.099609" y="-3634.277344" width="2.197266" height="2.197266"/>
<image xlink:href="tile2_25.png" preserveAspectRatio="none" x="13904.296875" y="-3612.304688" width="2.197266" height="2.197266"/>
<image xlink:href="tile2_19.png" preserveAspectRatio="none" x="13904.296875" y="-3625.488281" width="2.197266" height="2.197266"/>
<image xlink:href="tile2_18.png" preserveAspectRatio="none" x="13904.296875" y="-3627.685547" width="2.197266" height="2.197266"/>
<image xlink:href="tile2_17.png" preserveAspectRatio="none" x="13904.296875" y="-3629.882812" width="2.197266" height="2.197266"/>
<image xlink:href="tile2_15.png" preserveAspectRatio="none" x="13904.296875" y="-3634.277344" width="2.197266" height="2.197266"/>
<image xlink:href="tile3_24.png" preserveAspectRatio="none" x="13906.494141" y="-3614.501953" width="2.197266" height="2.197266"/>
<image xlink:href="tile3_23.png" preserveAspectRatio="none" x="13906.494141" y="-3616.699219" width="2.197266" height="2.197266"/>
<image xlink:href="tile3_21.png" preserveAspectRatio="none" x="13906.494141" y="-3621.09375" width="2.197266" height="2.197266"/>
<image xlink:href="tile3_20.png" preserveAspectRatio="none" x="13906.494141" y="-3623.291016" width="2.197266" height="2.197266"/>
<image xlink:href="tile3_19.png" preserveAspectRatio="none" x="13906.494141" y="-3625.488281" width="2.197266" height="2.197266"/>
<image xlink:href="tile3_18.png" preserveAspectRatio="none" x="13906.494141" y="-3627.685547" width="2.197266" height="2.197266"/>
<image xlink:href="tile3_17.png" preserveAspectRatio="none" x="13906.494141" y="-3629.882812" width="2.197266" height="2.197266"/>
<image xlink:href="tile3_16.png" preserveAspectRatio="none" x="13906.494141" y="-3632.080078" width="2.197266" height="2.197266"/>
<image xlink:href="tile3_15.png" preserveAspectRatio="none" x="13906.494141" y="-3634.277344" width="2.197266" height="2.197266"/>
<image xlink:href="tile4_23.png" preserveAspectRatio="none" x="13908.691406" y="-3616.699219" width="2.197266" height="2.197266"/>
<image xlink:href="tile4_22.png" preserveAspectRatio="none" x="13908.691406" y="-3618.896484" width="2.197266" height="2.197266"/>
<image xlink:href="tile4_21.png" preserveAspectRatio="none" x="13908.691406" y="-3621.09375" width="2.197266" height="2.197266"/>
<image xlink:href="tile4_20.png" preserveAspectRatio="none" x="13908.691406" y="-3623.291016" width="2.197266" height="2.197266"/>
<image xlink:href="tile4_19.png" preserveAspectRatio="none" x="13908.691406" y="-3625.488281" width="2.197266" height="2.197266"/>
<image xlink:href="tile4_18.png" preserveAspectRatio="none" x="13908.691406" y="-3627.685547" width="2.197266" height="2.197266"/>
<image xlink:href="tile4_17.png" preserveAspectRatio="none" x="13908.691406" y="-3629.882812" width="2.197266" height="2.197266"/>
<image xlink:href="tile4_16.png" preserveAspectRatio="none" x="13908.691406" y="-3632.080078" width="2.197266" height="2.197266"/>
<image xlink:href="tile4_15.png" preserveAspectRatio="none" x="13908.691406" y="-3634.277344" width="2.197266" height="2.197266"/>
<image xlink:href="tile5_23.png" preserveAspectRatio="none" x="13910.888672" y="-3616.699219" width="2.197266" height="2.197266"/>
<image xlink:href="tile5_22.png" preserveAspectRatio="none" x="13910.888672" y="-3618.896484" width="2.197266" height="2.197266"/>
<image xlink:href="tile5_21.png" preserveAspectRatio="none" x="13910.888672" y="-3621.09375" width="2.197266" height="2.197266"/>
<image xlink:href="tile5_20.png" preserveAspectRatio="none" x="13910.888672" y="-3623.291016" width="2.197266" height="2.197266"/>
<image xlink:href="tile5_19.png" preserveAspectRatio="none" x="13910.888672" y="-3625.488281" width="2.197266" height="2.197266"/>
<image xlink:href="tile5_18.png" preserveAspectRatio="none" x="13910.888672" y="-3627.685547" width="2.197266" height="2.197266"/>
<image xlink:href="tile5_17.png" preserveAspectRatio="none" x="13910.888672" y="-3629.882812" width="2.197266" height="2.197266"/>
<image xlink:href="tile5_16.png" preserveAspectRatio="none" x="13910.888672" y="-3632.080078" width="2.197266" height="2.197266"/>
<image xlink:href="tile5_15.png" preserveAspectRatio="none" x="13910.888672" y="-3634.277344" width="2.197266" height="2.197266"/>
<image xlink:href="tile6_22.png" preserveAspectRatio="none" x="13913.085938" y="-3618.896484" width="2.197266" height="2.197266"/>
<image xlink:href="tile6_21.png" preserveAspectRatio="none" x="13913.085938" y="-3621.09375" width="2.197266" height="2.197266"/>
<image xlink:href="tile6_20.png" preserveAspectRatio="none" x="13913.085938" y="-3623.291016" width="2.197266" height="2.197266"/>
<image xlink:href="tile6_19.png" preserveAspectRatio="none" x="13913.085938" y="-3625.488281" width="2.197266" height="2.197266"/>
<image xlink:href="tile6_18.png" preserveAspectRatio="none" x="13913.085938" y="-3627.685547" width="2.197266" height="2.197266"/>
<image xlink:href="tile6_17.png" preserveAspectRatio="none" x="13913.085938" y="-3629.882812" width="2.197266" height="2.197266"/>
<image xlink:href="tile6_16.png" preserveAspectRatio="none" x="13913.085938" y="-3632.080078" width="2.197266" height="2.197266"/>
<image xlink:href="tile6_15.png" preserveAspectRatio="none" x="13913.085938" y="-3634.277344" width="2.197266" height="2.197266"/>
<image xlink:href="tile7_23.png" preserveAspectRatio="none" x="13915.283203" y="-3616.699219" width="2.197266" height="2.197266"/>
<image xlink:href="tile7_22.png" preserveAspectRatio="none" x="13915.283203" y="-3618.896484" width="2.197266" height="2.197266"/>
<image xlink:href="tile7_21.png" preserveAspectRatio="none" x="13915.283203" y="-3621.09375" width="2.197266" height="2.197266"/>
<image xlink:href="tile7_20.png" preserveAspectRatio="none" x="13915.283203" y="-3623.291016" width="2.197266" height="2.197266"/>
<image xlink:href="tile7_19.png" preserveAspectRatio="none" x="13915.283203" y="-3625.488281" width="2.197266" height="2.197266"/>
<image xlink:href="tile7_18.png" preserveAspectRatio="none" x="13915.283203" y="-3627.685547" width="2.197266" height="2.197266"/>
<image xlink:href="tile7_17.png" preserveAspectRatio="none" x="13915.283203" y="-3629.882812" width="2.197266" height="2.197266"/>
<image xlink:href="tile7_16.png" preserveAspectRatio="none" x="13915.283203" y="-3632.080078" width="2.197266" height="2.197266"/>
<image xlink:href="tile7_15.png" preserveAspectRatio="none" x="13915.283203" y="-3634.277344" width="2.197266" height="2.197266"/>
<image xlink:href="tile8_28.png" preserveAspectRatio="none" x="13917.480469" y="-3605.712891" width="2.197266" height="2.197266"/>
<image xlink:href="tile8_27.png" preserveAspectRatio="none" x="13917.480469" y="-3607.910156" width="2.197266" height="2.197266"/>
<image xlink:href="tile8_23.png" preserveAspectRatio="none" x="13917.480469" y="-3616.699219" width="2.197266" height="2.197266"/>
<image xlink:href="tile8_22.png" preserveAspectRatio="none" x="13917.480469" y="-3618.896484" width="2.197266" height="2.197266"/>
<image xlink:href="tile8_21.png" preserveAspectRatio="none" x="13917.480469" y="-3621.09375" width="2.197266" height="2.197266"/>
<image xlink:href="tile8_20.png" preserveAspectRatio="none" x="13917.480469" y="-3623.291016" width="2.197266" height="2.197266"/>
<image xlink:href="tile8_19.png" preserveAspectRatio="none" x="13917.480469" y="-3625.488281" width="2.197266" height="2.197266"/>
<image xlink:href="tile8_18.png" preserveAspectRatio="none" x="13917.480469" y="-3627.685547" width="2.197266" height="2.197266"/>
<image xlink:href="tile8_17.png" preserveAspectRatio="none" x="13917.480469" y="-3629.882812" width="2.197266" height="2.197266"/>
<image xlink:href="tile8_16.png" preserveAspectRatio="none" x="13917.480469" y="-3632.080078" width="2.197266" height="2.197266"/>
<image xlink:href="tile8_15.png" preserveAspectRatio="none" x="13917.480469" y="-3634.277344" width="2.197266" height="2.197266"/>
<image xlink:href="tile9_28.png" preserveAspectRatio="none" x="13919.677734" y="-3605.712891" width="2.197266" height="2.197266"/>
<image xlink:href="tile9_23.png" preserveAspectRatio="none" x="13919.677734" y="-3616.699219" width="2.197266" height="2.197266"/>
<image xlink:href="tile9_22.png" preserveAspectRatio="none" x="13919.677734" y="-3618.896484" width="2.197266" height="2.197266"/>
<image xlink:href="tile9_21.png" preserveAspectRatio="none" x="13919.677734" y="-3621.09375" width="2.197266" height="2.197266"/>
<image xlink:href="tile9_20.png" preserveAspectRatio="none" x="13919.677734" y="-3623.291016" width="2.197266" height="2.197266"/>
<image xlink:href="tile9_19.png" preserveAspectRatio="none" x="13919.677734" y="-3625.488281" width="2.197266" height="2.197266"/>
<image xlink:href="tile9_18.png" preserveAspectRatio="none" x="13919.677734" y="-3627.685547" width="2.197266" height="2.197266"/>
<image xlink:href="tile9_17.png" preserveAspectRatio="none" x="13919.677734" y="-3629.882812" width="2.197266" height="2.197266"/>
<image xlink:href="tile9_16.png" preserveAspectRatio="none" x="13919.677734" y="-3632.080078" width="2.197266" height="2.197266"/>
<image xlink:href="tile9_15.png" preserveAspectRatio="none" x="13919.677734" y="-3634.277344" width="2.197266" height="2.197266"/>
<image xlink:href="tile10_28.png" preserveAspectRatio="none" x="13921.875" y="-3605.712891" width="2.197266" height="2.197266"/>
<image xlink:href="tile10_27.png" preserveAspectRatio="none" x="13921.875" y="-3607.910156" width="2.197266" height="2.197266"/>
<image xlink:href="tile10_25.png" preserveAspectRatio="none" x="13921.875" y="-3612.304688" width="2.197266" height="2.197266"/>
<image xlink:href="tile10_22.png" preserveAspectRatio="none" x="13921.875" y="-3618.896484" width="2.197266" height="2.197266"/>
<image xlink:href="tile10_21.png" preserveAspectRatio="none" x="13921.875" y="-3621.09375" width="2.197266" height="2.197266"/>
<image xlink:href="tile10_20.png" preserveAspectRatio="none" x="13921.875" y="-3623.291016" width="2.197266" height="2.197266"/>
<image xlink:href="tile10_19.png" preserveAspectRatio="none" x="13921.875" y="-3625.488281" width="2.197266" height="2.197266"/>
<image xlink:href="tile10_18.png" preserveAspectRatio="none" x="13921.875" y="-3627.685547" width="2.197266" height="2.197266"/>
<image xlink:href="tile10_17.png" preserveAspectRatio="none" x="13921.875" y="-3629.882812" width="2.197266" height="2.197266"/>
<image xlink:href="tile10_16.png" preserveAspectRatio="none" x="13921.875" y="-3632.080078" width="2.197266" height="2.197266"/>
<image xlink:href="tile10_15.png" preserveAspectRatio="none" x="13921.875" y="-3634.277344" width="2.197266" height="2.197266"/>
<image xlink:href="tile11_30.png" preserveAspectRatio="none" x="13924.072266" y="-3601.318359" width="2.197266" height="2.197266"/>
<image xlink:href="tile11_29.png" preserveAspectRatio="none" x="13924.072266" y="-3603.515625" width="2.197266" height="2.197266"/>
<image xlink:href="tile11_28.png" preserveAspectRatio="none" x="13924.072266" y="-3605.712891" width="2.197266" height="2.197266"/>
<image xlink:href="tile11_27.png" preserveAspectRatio="none" x="13924.072266" y="-3607.910156" width="2.197266" height="2.197266"/>
<image xlink:href="tile11_25.png" preserveAspectRatio="none" x="13924.072266" y="-3612.304688" width="2.197266" height="2.197266"/>
<image xlink:href="tile11_24.png" preserveAspectRatio="none" x="13924.072266" y="-3614.501953" width="2.197266" height="2.197266"/>
<image xlink:href="tile11_21.png" preserveAspectRatio="none" x="13924.072266" y="-3621.09375" width="2.197266" height="2.197266"/>
<image xlink:href="tile11_20.png" preserveAspectRatio="none" x="13924.072266" y="-3623.291016" width="2.197266" height="2.197266"/>
<image xlink:href="tile11_19.png" preserveAspectRatio="none" x="13924.072266" y="-3625.488281" width="2.197266" height="2.197266"/>
<image xlink:href="tile11_18.png" preserveAspectRatio="none" x="13924.072266" y="-3627.685547" width="2.197266" height="2.197266"/>
<image xlink:href="tile11_17.png" preserveAspectRatio="none" x="13924.072266" y="-3629.882812" width="2.197266" height="2.197266"/>
<image xlink:href="tile12_30.png" preserveAspectRatio="none" x="13926.269531" y="-3601.318359" width="2.197266" height="2.197266"/>
<image xlink:href="tile12_29.png" preserveAspectRatio="none" x="13926.269531" y="-3603.515625" width="2.197266" height="2.197266"/>
<image xlink:href="tile12_28.png" preserveAspectRatio="none" x="13926.269531" y="-3605.712891" width="2.197266" height="2.197266"/>
<image xlink:href="tile12_27.png" preserveAspectRatio="none" x="13926.269531" y="-3607.910156" width="2.197266" height="2.197266"/>
<image xlink:href="tile12_24.png" preserveAspectRatio="none" x="13926.269531" y="-3614.501953" width="2.197266" height="2.197266"/>
<image xlink:href="tile12_22.png" preserveAspectRatio="none" x="13926.269531" y="-3618.896484" width="2.197266" height="2.197266"/>
<image xlink:href="tile12_21.png" preserveAspectRatio="none" x="13926.269531" y="-3621.09375" width="2.197266" height="2.197266"/>
<image xlink:href="tile12_20.png" preserveAspectRatio="none" x="13926.269531" y="-3623.291016" width="2.197266" height="2.197266"/>
<image xlink:href="tile12_19.png" preserveAspectRatio="none" x="13926.269531" y="-3625.488281" width="2.197266" height="2.197266"/>
<image xlink:href="tile12_18.png" preserveAspectRatio="none" x="13926.269531" y="-3627.685547" width="2.197266" height="2.197266"/>
<image xlink:href="tile12_17.png" preserveAspectRatio="none" x="13926.269531" y="-3629.882812" width="2.197266" height="2.197266"/>
<image xlink:href="tile13_30.png" preserveAspectRatio="none" x="13928.466797" y="-3601.318359" width="2.197266" height="2.197266"/>
<image xlink:href="tile13_29.png" preserveAspectRatio="none" x="13928.466797" y="-3603.515625" width="2.197266" height="2.197266"/>
<image xlink:href="tile13_28.png" preserveAspectRatio="none" x="13928.466797" y="-3605.712891" width="2.197266" height="2.197266"/>
<image xlink:href="tile13_24.png" preserveAspectRatio="none" x="13928.466797" y="-3614.501953" width="2.197266" height="2.197266"/>
<image xlink:href="tile13_23.png" preserveAspectRatio="none" x="13928.466797" y="-3616.699219" width="2.197266" height="2.197266"/>
<image xlink:href="tile13_22.png" preserveAspectRatio="none" x="13928.466797" y="-3618.896484" width="2.197266" height="2.197266"/>
<image xlink:href="tile13_21.png" preserveAspectRatio="none" x="13928.466797" y="-3621.09375" width="2.197266" height="2.197266"/>
<image xlink:href="tile13_20.png" preserveAspectRatio="none" x="13928.466797" y="-3623.291016" width="2.197266" height="2.197266"/>
<image xlink:href="tile13_19.png" preserveAspectRatio="none" x="13928.466797" y="-3625.488281" width="2.197266" height="2.197266"/>
<image xlink:href="tile13_18.png" preserveAspectRatio="none" x="13928.466797" y="-3627.685547" width="2.197266" height="2.197266"/>
<image xlink:href="tile14_29.png" preserveAspectRatio="none" x="13930.664062" y="-3603.515625" width="2.197266" height="2.197266"/>
<image xlink:href="tile14_24.png" preserveAspectRatio="none" x="13930.664062" y="-3614.501953" width="2.197266" height="2.197266"/>
<image xlink:href="tile14_23.png" preserveAspectRatio="none" x="13930.664062" y="-3616.699219" width="2.197266" height="2.197266"/>
<image xlink:href="tile14_22.png" preserveAspectRatio="none" x="13930.664062" y="-3618.896484" width="2.197266" height="2.197266"/>
<image xlink:href="tile14_21.png" preserveAspectRatio="none" x="13930.664062" y="-3621.09375" width="2.197266" height="2.197266"/>
<image xlink:href="tile14_20.png" preserveAspectRatio="none" x="13930.664062" y="-3623.291016" width="2.197266" height="2.197266"/>
<image xlink:href="tile14_19.png" preserveAspectRatio="none" x="13930.664062" y="-3625.488281" width="2.197266" height="2.197266"/>
<image xlink:href="tile14_18.png" preserveAspectRatio="none" x="13930.664062" y="-3627.685547" width="2.197266" height="2.197266"/>
<image xlink:href="tile15_29.png" preserveAspectRatio="none" x="13932.861328" y="-3603.515625" width="2.197266" height="2.197266"/>
<image xlink:href="tile15_24.png" preserveAspectRatio="none" x="13932.861328" y="-3614.501953" width="2.197266" height="2.197266"/>
<image xlink:href="tile15_23.png" preserveAspectRatio="none" x="13932.861328" y="-3616.699219" width="2.197266" height="2.197266"/>
<image xlink:href="tile15_22.png" preserveAspectRatio="none" x="13932.861328" y="-3618.896484" width="2.197266" height="2.197266"/>
<image xlink:href="tile15_21.png" preserveAspectRatio="none" x="13932.861328" y="-3621.09375" width="2.197266" height="2.197266"/>
<image xlink:href="tile15_20.png" preserveAspectRatio="none" x="13932.861328" y="-3623.291016" width="2.197266" height="2.197266"/>
<image xlink:href="tile15_19.png" preserveAspectRatio="none" x="13932.861328" y="-3625.488281" width="2.197266" height="2.197266"/>
<image xlink:href="tile15_18.png" preserveAspectRatio="none" x="13932.861328" y="-3627.685547" width="2.197266" height="2.197266"/>
</g>
</svg>
