<?xml version="1.0" encoding="UTF-8"?>
<svg  xmlns="http://www.w3.org/2000/svg" xmlns:xlink="http://www.w3.org/1999/xlink" xmlns:go="http://purl.org/svgmap/profile" viewBox="13800.0 -3533.016659 100.0 66.34999229999963" go:dataArea="13800.0 -3533.016659 100.0 66.34999229999963" >
<metadata>
 <rdf:RDF xmlns:rdf="http://www.w3.org/1999/02/22-rdf-syntax-ns#" xmlns:crs="http://opengis.org/xmldtds/transformations.dtd" xmlns:svg="http://www.w3.org/svg" >
  <rdf:Description>
   <crs:CoordinateReferenceSystem rdf:resource="http://purl.org/crs/84" svg:transform="matrix(100.0,0.0,0.0,-100.0,0.0,0.0)" />
  </rdf:Description>
 </rdf:RDF>
</metadata>
<globalCoordinateSystem srsName="http://purl.org/crs/84" transform="matrix(100.0,0.0,0.0,-100.0,0.0,0.0)" />
<g >
<image xlink:href="tile0_3.png" preserveAspectRatio="none" x="13798.828125" y="-3480.46875" width="17.578125" height="17.578125"/>
<image xlink:href="tile0_2.png" preserveAspectRatio="none" x="13798.828125" y="-3498.046875" width="17.578125" height="17.578125"/>
<image xlink:href="tile0_1.png" preserveAspectRatio="none" x="13798.828125" y="-3515.625" width="17.578125" height="17.578125"/>
<image xlink:href="tile1_3.png" preserveAspectRatio="none" x="13816.40625" y="-3480.46875" width="17.578125" height="17.578125"/>
<image xlink:href="tile1_2.png" preserveAspectRatio="none" x="13816.40625" y="-3498.046875" width="17.578125" height="17.578125"/>
<image xlink:href="tile1_1.png" preserveAspectRatio="none" x="13816.40625" y="-3515.625" width="17.578125" height="17.578125"/>
<image xlink:href="tile2_2.png" preserveAspectRatio="none" x="13833.984375" y="-3498.046875" width="17.578125" height="17.578125"/>
<image xlink:href="tile2_1.png" preserveAspectRatio="none" x="13833.984375" y="-3515.625" width="17.578125" height="17.578125"/>
<image xlink:href="tile2_0.png" preserveAspectRatio="none" x="13833.984375" y="-3533.203125" width="17.578125" height="17.578125"/>
<image xlink:href="tile3_1.png" preserveAspectRatio="none" x="13851.5625" y="-3515.625" width="17.578125" height="17.578125"/>
<image xlink:href="tile3_0.png" preserveAspectRatio="none" x="13851.5625" y="-3533.203125" width="17.578125" height="17.578125"/>
<image xlink:href="tile4_3.png" preserveAspectRatio="none" x="13869.140625" y="-3480.46875" width="17.578125" height="17.578125"/>
<image xlink:href="tile4_2.png" preserveAspectRatio="none" x="13869.140625" y="-3498.046875" width="17.578125" height="17.578125"/>
<image xlink:href="tile4_1.png" preserveAspectRatio="none" x="13869.140625" y="-3515.625" width="17.578125" height="17.578125"/>
<image xlink:href="tile4_0.png" preserveAspectRatio="none" x="13869.140625" y="-3533.203125" width="17.578125" height="17.578125"/>
<image xlink:href="tile5_3.png" preserveAspectRatio="none" x="13886.71875" y="-3480.46875" width="17.578125" height="17.578125"/>
<image xlink:href="tile5_2.png" preserveAspectRatio="none" x="13886.71875" y="-3498.046875" width="17.578125" height="17.578125"/>
<image xlink:href="tile5_1.png" preserveAspectRatio="none" x="13886.71875" y="-3515.625" width="17.578125" height="17.578125"/>
<image xlink:href="tile5_0.png" preserveAspectRatio="none" x="13886.71875" y="-3533.203125" width="17.578125" height="17.578125"/>
</g>
</svg>
