<?xml version="1.0" encoding="UTF-8"?>
<svg  xmlns="http://www.w3.org/2000/svg" xmlns:xlink="http://www.w3.org/1999/xlink" xmlns:go="http://purl.org/svgmap/profile" viewBox="13200.0 -3533.333333 100.0 66.6666670000005" go:dataArea="13200.0 -3533.333333 100.0 66.6666670000005" >
<metadata>
 <rdf:RDF xmlns:rdf="http://www.w3.org/1999/02/22-rdf-syntax-ns#" xmlns:crs="http://opengis.org/xmldtds/transformations.dtd" xmlns:svg="http://www.w3.org/svg" >
  <rdf:Description>
   <crs:CoordinateReferenceSystem rdf:resource="http://purl.org/crs/84" svg:transform="matrix(100.0,0.0,0.0,-100.0,0.0,0.0)" />
  </rdf:Description>
 </rdf:RDF>
</metadata>
<globalCoordinateSystem srsName="http://purl.org/crs/84" transform="matrix(100.0,0.0,0.0,-100.0,0.0,0.0)" />
<g >
<image xlink:href="tile16_16.png" preserveAspectRatio="none" x="13267.089844" y="-3467.285156" width="4.394531" height="4.394531"/>
<image xlink:href="tile16_15.png" preserveAspectRatio="none" x="13267.089844" y="-3471.679688" width="4.394531" height="4.394531"/>
<image xlink:href="tile16_12.png" preserveAspectRatio="none" x="13267.089844" y="-3484.863281" width="4.394531" height="4.394531"/>
<image xlink:href="tile16_11.png" preserveAspectRatio="none" x="13267.089844" y="-3489.257812" width="4.394531" height="4.394531"/>
<image xlink:href="tile16_10.png" preserveAspectRatio="none" x="13267.089844" y="-3493.652344" width="4.394531" height="4.394531"/>
<image xlink:href="tile16_1.png" preserveAspectRatio="none" x="13267.089844" y="-3533.203125" width="4.394531" height="4.394531"/>
<image xlink:href="tile17_16.png" preserveAspectRatio="none" x="13271.484375" y="-3467.285156" width="4.394531" height="4.394531"/>
<image xlink:href="tile17_15.png" preserveAspectRatio="none" x="13271.484375" y="-3471.679688" width="4.394531" height="4.394531"/>
<image xlink:href="tile17_12.png" preserveAspectRatio="none" x="13271.484375" y="-3484.863281" width="4.394531" height="4.394531"/>
<image xlink:href="tile17_2.png" preserveAspectRatio="none" x="13271.484375" y="-3528.808594" width="4.394531" height="4.394531"/>
<image xlink:href="tile17_1.png" preserveAspectRatio="none" x="13271.484375" y="-3533.203125" width="4.394531" height="4.394531"/>
<image xlink:href="tile18_15.png" preserveAspectRatio="none" x="13275.878906" y="-3471.679688" width="4.394531" height="4.394531"/>
<image xlink:href="tile18_14.png" preserveAspectRatio="none" x="13275.878906" y="-3476.074219" width="4.394531" height="4.394531"/>
<image xlink:href="tile18_13.png" preserveAspectRatio="none" x="13275.878906" y="-3480.46875" width="4.394531" height="4.394531"/>
<image xlink:href="tile18_12.png" preserveAspectRatio="none" x="13275.878906" y="-3484.863281" width="4.394531" height="4.394531"/>
<image xlink:href="tile18_11.png" preserveAspectRatio="none" x="13275.878906" y="-3489.257812" width="4.394531" height="4.394531"/>
<image xlink:href="tile18_10.png" preserveAspectRatio="none" x="13275.878906" y="-3493.652344" width="4.394531" height="4.394531"/>
<image xlink:href="tile18_1.png" preserveAspectRatio="none" x="13275.878906" y="-3533.203125" width="4.394531" height="4.394531"/>
<image xlink:href="tile19_14.png" preserveAspectRatio="none" x="13280.273438" y="-3476.074219" width="4.394531" height="4.394531"/>
<image xlink:href="tile19_13.png" preserveAspectRatio="none" x="13280.273438" y="-3480.46875" width="4.394531" height="4.394531"/>
<image xlink:href="tile19_12.png" preserveAspectRatio="none" x="13280.273438" y="-3484.863281" width="4.394531" height="4.394531"/>
<image xlink:href="tile19_11.png" preserveAspectRatio="none" x="13280.273438" y="-3489.257812" width="4.394531" height="4.394531"/>
<image xlink:href="tile20_13.png" preserveAspectRatio="none" x="13284.667969" y="-3480.46875" width="4.394531" height="4.394531"/>
<image xlink:href="tile20_12.png" preserveAspectRatio="none" x="13284.667969" y="-3484.863281" width="4.394531" height="4.394531"/>
<image xlink:href="tile20_11.png" preserveAspectRatio="none" x="13284.667969" y="-3489.257812" width="4.394531" height="4.394531"/>
<image xlink:href="tile20_10.png" preserveAspectRatio="none" x="13284.667969" y="-3493.652344" width="4.394531" height="4.394531"/>
<image xlink:href="tile20_2.png" preserveAspectRatio="none" x="13284.667969" y="-3528.808594" width="4.394531" height="4.394531"/>
<image xlink:href="tile20_1.png" preserveAspectRatio="none" x="13284.667969" y="-3533.203125" width="4.394531" height="4.394531"/>
<image xlink:href="tile21_14.png" preserveAspectRatio="none" x="13289.0625" y="-3476.074219" width="4.394531" height="4.394531"/>
<image xlink:href="tile21_13.png" preserveAspectRatio="none" x="13289.0625" y="-3480.46875" width="4.394531" height="4.394531"/>
<image xlink:href="tile21_12.png" preserveAspectRatio="none" x="13289.0625" y="-3484.863281" width="4.394531" height="4.394531"/>
<image xlink:href="tile21_11.png" preserveAspectRatio="none" x="13289.0625" y="-3489.257812" width="4.394531" height="4.394531"/>
<image xlink:href="tile21_2.png" preserveAspectRatio="none" x="13289.0625" y="-3528.808594" width="4.394531" height="4.394531"/>
<image xlink:href="tile21_1.png" preserveAspectRatio="none" x="13289.0625" y="-3533.203125" width="4.394531" height="4.394531"/>
<image xlink:href="tile22_14.png" preserveAspectRatio="none" x="13293.457031" y="-3476.074219" width="4.394531" height="4.394531"/>
<image xlink:href="tile22_13.png" preserveAspectRatio="none" x="13293.457031" y="-3480.46875" width="4.394531" height="4.394531"/>
<image xlink:href="tile22_12.png" preserveAspectRatio="none" x="13293.457031" y="-3484.863281" width="4.394531" height="4.394531"/>
<image xlink:href="tile22_11.png" preserveAspectRatio="none" x="13293.457031" y="-3489.257812" width="4.394531" height="4.394531"/>
<image xlink:href="tile22_1.png" preserveAspectRatio="none" x="13293.457031" y="-3533.203125" width="4.394531" height="4.394531"/>
<image xlink:href="tile23_15.png" preserveAspectRatio="none" x="13297.851562" y="-3471.679688" width="4.394531" height="4.394531"/>
<image xlink:href="tile23_14.png" preserveAspectRatio="none" x="13297.851562" y="-3476.074219" width="4.394531" height="4.394531"/>
<image xlink:href="tile23_13.png" preserveAspectRatio="none" x="13297.851562" y="-3480.46875" width="4.394531" height="4.394531"/>
<image xlink:href="tile23_11.png" preserveAspectRatio="none" x="13297.851562" y="-3489.257812" width="4.394531" height="4.394531"/>
<image xlink:href="tile23_9.png" preserveAspectRatio="none" x="13297.851562" y="-3498.046875" width="4.394531" height="4.394531"/>
<image xlink:href="tile23_8.png" preserveAspectRatio="none" x="13297.851562" y="-3502.441406" width="4.394531" height="4.394531"/>
</g>
</svg>
