<?xml version="1.0" encoding="UTF-8"?>
<svg  xmlns="http://www.w3.org/2000/svg" xmlns:xlink="http://www.w3.org/1999/xlink" xmlns:go="http://purl.org/svgmap/profile" viewBox="14212.2625 -4466.6666669999995 64.02500000000089 66.66666699999979" go:dataArea="14212.2625 -4466.6666669999995 64.02500000000089 66.66666699999979" >
<metadata>
 <rdf:RDF xmlns:rdf="http://www.w3.org/1999/02/22-rdf-syntax-ns#" xmlns:crs="http://opengis.org/xmldtds/transformations.dtd" xmlns:svg="http://www.w3.org/svg" >
  <rdf:Description>
   <crs:CoordinateReferenceSystem rdf:resource="http://purl.org/crs/84" svg:transform="matrix(100.0,0.0,0.0,-100.0,0.0,0.0)" />
  </rdf:Description>
 </rdf:RDF>
</metadata>
<globalCoordinateSystem srsName="http://purl.org/crs/84" transform="matrix(100.0,0.0,0.0,-100.0,0.0,0.0)" />
<g >
<image xlink:href="tile32_49.png" preserveAspectRatio="none" x="14247.070312" y="-4413.208008" width="1.098633" height="1.098633"/>
<image xlink:href="tile32_48.png" preserveAspectRatio="none" x="14247.070312" y="-4414.306641" width="1.098633" height="1.098633"/>
<image xlink:href="tile33_49.png" preserveAspectRatio="none" x="14248.168945" y="-4413.208008" width="1.098633" height="1.098633"/>
<image xlink:href="tile33_48.png" preserveAspectRatio="none" x="14248.168945" y="-4414.306641" width="1.098633" height="1.098633"/>
<image xlink:href="tile34_49.png" preserveAspectRatio="none" x="14249.267578" y="-4413.208008" width="1.098633" height="1.098633"/>
<image xlink:href="tile34_48.png" preserveAspectRatio="none" x="14249.267578" y="-4414.306641" width="1.098633" height="1.098633"/>
<image xlink:href="tile35_49.png" preserveAspectRatio="none" x="14250.366211" y="-4413.208008" width="1.098633" height="1.098633"/>
<image xlink:href="tile36_49.png" preserveAspectRatio="none" x="14251.464844" y="-4413.208008" width="1.098633" height="1.098633"/>
<image xlink:href="tile37_50.png" preserveAspectRatio="none" x="14252.563477" y="-4412.109375" width="1.098633" height="1.098633"/>
<image xlink:href="tile37_49.png" preserveAspectRatio="none" x="14252.563477" y="-4413.208008" width="1.098633" height="1.098633"/>
<image xlink:href="tile38_50.png" preserveAspectRatio="none" x="14253.662109" y="-4412.109375" width="1.098633" height="1.098633"/>
<image xlink:href="tile38_49.png" preserveAspectRatio="none" x="14253.662109" y="-4413.208008" width="1.098633" height="1.098633"/>
<image xlink:href="tile39_51.png" preserveAspectRatio="none" x="14254.760742" y="-4411.010742" width="1.098633" height="1.098633"/>
<image xlink:href="tile39_50.png" preserveAspectRatio="none" x="14254.760742" y="-4412.109375" width="1.098633" height="1.098633"/>
<image xlink:href="tile39_49.png" preserveAspectRatio="none" x="14254.760742" y="-4413.208008" width="1.098633" height="1.098633"/>
<image xlink:href="tile40_51.png" preserveAspectRatio="none" x="14255.859375" y="-4411.010742" width="1.098633" height="1.098633"/>
<image xlink:href="tile40_50.png" preserveAspectRatio="none" x="14255.859375" y="-4412.109375" width="1.098633" height="1.098633"/>
<image xlink:href="tile41_51.png" preserveAspectRatio="none" x="14256.958008" y="-4411.010742" width="1.098633" height="1.098633"/>
<image xlink:href="tile41_50.png" preserveAspectRatio="none" x="14256.958008" y="-4412.109375" width="1.098633" height="1.098633"/>
<image xlink:href="tile42_50.png" preserveAspectRatio="none" x="14258.056641" y="-4412.109375" width="1.098633" height="1.098633"/>
<image xlink:href="tile43_51.png" preserveAspectRatio="none" x="14259.155273" y="-4411.010742" width="1.098633" height="1.098633"/>
<image xlink:href="tile43_50.png" preserveAspectRatio="none" x="14259.155273" y="-4412.109375" width="1.098633" height="1.098633"/>
<image xlink:href="tile44_51.png" preserveAspectRatio="none" x="14260.253906" y="-4411.010742" width="1.098633" height="1.098633"/>
<image xlink:href="tile44_50.png" preserveAspectRatio="none" x="14260.253906" y="-4412.109375" width="1.098633" height="1.098633"/>
<image xlink:href="tile45_50.png" preserveAspectRatio="none" x="14261.352539" y="-4412.109375" width="1.098633" height="1.098633"/>
<image xlink:href="tile46_50.png" preserveAspectRatio="none" x="14262.451172" y="-4412.109375" width="1.098633" height="1.098633"/>
<image xlink:href="tile46_49.png" preserveAspectRatio="none" x="14262.451172" y="-4413.208008" width="1.098633" height="1.098633"/>
<image xlink:href="tile47_50.png" preserveAspectRatio="none" x="14263.549805" y="-4412.109375" width="1.098633" height="1.098633"/>
<image xlink:href="tile47_49.png" preserveAspectRatio="none" x="14263.549805" y="-4413.208008" width="1.098633" height="1.098633"/>
</g>
</svg>
