<?xml version="1.0" encoding="UTF-8"?>
<svg  xmlns="http://www.w3.org/2000/svg" xmlns:xlink="http://www.w3.org/1999/xlink" xmlns:go="http://purl.org/svgmap/profile" viewBox="13400.0 -3566.3708334 100.0 33.03750030000003" go:dataArea="13400.0 -3566.3708334 100.0 33.03750030000003" >
<metadata>
 <rdf:RDF xmlns:rdf="http://www.w3.org/1999/02/22-rdf-syntax-ns#" xmlns:crs="http://opengis.org/xmldtds/transformations.dtd" xmlns:svg="http://www.w3.org/svg" >
  <rdf:Description>
   <crs:CoordinateReferenceSystem rdf:resource="http://purl.org/crs/84" svg:transform="matrix(100.0,0.0,0.0,-100.0,0.0,0.0)" />
  </rdf:Description>
 </rdf:RDF>
</metadata>
<globalCoordinateSystem srsName="http://purl.org/crs/84" transform="matrix(100.0,0.0,0.0,-100.0,0.0,0.0)" />
<g >
<image xlink:href="tile64_13.png" preserveAspectRatio="none" x="13469.238281" y="-3552.978516" width="1.098633" height="1.098633"/>
<image xlink:href="tile64_12.png" preserveAspectRatio="none" x="13469.238281" y="-3554.077148" width="1.098633" height="1.098633"/>
<image xlink:href="tile64_11.png" preserveAspectRatio="none" x="13469.238281" y="-3555.175781" width="1.098633" height="1.098633"/>
<image xlink:href="tile64_9.png" preserveAspectRatio="none" x="13469.238281" y="-3557.373047" width="1.098633" height="1.098633"/>
<image xlink:href="tile64_8.png" preserveAspectRatio="none" x="13469.238281" y="-3558.47168" width="1.098633" height="1.098633"/>
<image xlink:href="tile64_7.png" preserveAspectRatio="none" x="13469.238281" y="-3559.570312" width="1.098633" height="1.098633"/>
<image xlink:href="tile64_6.png" preserveAspectRatio="none" x="13469.238281" y="-3560.668945" width="1.098633" height="1.098633"/>
<image xlink:href="tile64_5.png" preserveAspectRatio="none" x="13469.238281" y="-3561.767578" width="1.098633" height="1.098633"/>
<image xlink:href="tile64_2.png" preserveAspectRatio="none" x="13469.238281" y="-3565.063477" width="1.098633" height="1.098633"/>
<image xlink:href="tile64_1.png" preserveAspectRatio="none" x="13469.238281" y="-3566.162109" width="1.098633" height="1.098633"/>
<image xlink:href="tile65_12.png" preserveAspectRatio="none" x="13470.336914" y="-3554.077148" width="1.098633" height="1.098633"/>
<image xlink:href="tile65_11.png" preserveAspectRatio="none" x="13470.336914" y="-3555.175781" width="1.098633" height="1.098633"/>
<image xlink:href="tile65_10.png" preserveAspectRatio="none" x="13470.336914" y="-3556.274414" width="1.098633" height="1.098633"/>
<image xlink:href="tile65_8.png" preserveAspectRatio="none" x="13470.336914" y="-3558.47168" width="1.098633" height="1.098633"/>
<image xlink:href="tile65_7.png" preserveAspectRatio="none" x="13470.336914" y="-3559.570312" width="1.098633" height="1.098633"/>
<image xlink:href="tile65_2.png" preserveAspectRatio="none" x="13470.336914" y="-3565.063477" width="1.098633" height="1.098633"/>
<image xlink:href="tile65_1.png" preserveAspectRatio="none" x="13470.336914" y="-3566.162109" width="1.098633" height="1.098633"/>
<image xlink:href="tile66_10.png" preserveAspectRatio="none" x="13471.435547" y="-3556.274414" width="1.098633" height="1.098633"/>
<image xlink:href="tile66_8.png" preserveAspectRatio="none" x="13471.435547" y="-3558.47168" width="1.098633" height="1.098633"/>
<image xlink:href="tile66_7.png" preserveAspectRatio="none" x="13471.435547" y="-3559.570312" width="1.098633" height="1.098633"/>
<image xlink:href="tile67_13.png" preserveAspectRatio="none" x="13472.53418" y="-3552.978516" width="1.098633" height="1.098633"/>
<image xlink:href="tile67_12.png" preserveAspectRatio="none" x="13472.53418" y="-3554.077148" width="1.098633" height="1.098633"/>
<image xlink:href="tile67_10.png" preserveAspectRatio="none" x="13472.53418" y="-3556.274414" width="1.098633" height="1.098633"/>
<image xlink:href="tile67_9.png" preserveAspectRatio="none" x="13472.53418" y="-3557.373047" width="1.098633" height="1.098633"/>
<image xlink:href="tile67_8.png" preserveAspectRatio="none" x="13472.53418" y="-3558.47168" width="1.098633" height="1.098633"/>
<image xlink:href="tile67_7.png" preserveAspectRatio="none" x="13472.53418" y="-3559.570312" width="1.098633" height="1.098633"/>
<image xlink:href="tile67_5.png" preserveAspectRatio="none" x="13472.53418" y="-3561.767578" width="1.098633" height="1.098633"/>
<image xlink:href="tile67_3.png" preserveAspectRatio="none" x="13472.53418" y="-3563.964844" width="1.098633" height="1.098633"/>
<image xlink:href="tile67_2.png" preserveAspectRatio="none" x="13472.53418" y="-3565.063477" width="1.098633" height="1.098633"/>
<image xlink:href="tile67_1.png" preserveAspectRatio="none" x="13472.53418" y="-3566.162109" width="1.098633" height="1.098633"/>
<image xlink:href="tile68_14.png" preserveAspectRatio="none" x="13473.632812" y="-3551.879883" width="1.098633" height="1.098633"/>
<image xlink:href="tile68_13.png" preserveAspectRatio="none" x="13473.632812" y="-3552.978516" width="1.098633" height="1.098633"/>
<image xlink:href="tile68_8.png" preserveAspectRatio="none" x="13473.632812" y="-3558.47168" width="1.098633" height="1.098633"/>
<image xlink:href="tile68_7.png" preserveAspectRatio="none" x="13473.632812" y="-3559.570312" width="1.098633" height="1.098633"/>
<image xlink:href="tile68_6.png" preserveAspectRatio="none" x="13473.632812" y="-3560.668945" width="1.098633" height="1.098633"/>
<image xlink:href="tile68_5.png" preserveAspectRatio="none" x="13473.632812" y="-3561.767578" width="1.098633" height="1.098633"/>
<image xlink:href="tile69_14.png" preserveAspectRatio="none" x="13474.731445" y="-3551.879883" width="1.098633" height="1.098633"/>
<image xlink:href="tile69_13.png" preserveAspectRatio="none" x="13474.731445" y="-3552.978516" width="1.098633" height="1.098633"/>
<image xlink:href="tile69_6.png" preserveAspectRatio="none" x="13474.731445" y="-3560.668945" width="1.098633" height="1.098633"/>
<image xlink:href="tile69_5.png" preserveAspectRatio="none" x="13474.731445" y="-3561.767578" width="1.098633" height="1.098633"/>
<image xlink:href="tile69_4.png" preserveAspectRatio="none" x="13474.731445" y="-3562.866211" width="1.098633" height="1.098633"/>
<image xlink:href="tile69_3.png" preserveAspectRatio="none" x="13474.731445" y="-3563.964844" width="1.098633" height="1.098633"/>
<image xlink:href="tile69_2.png" preserveAspectRatio="none" x="13474.731445" y="-3565.063477" width="1.098633" height="1.098633"/>
<image xlink:href="tile69_1.png" preserveAspectRatio="none" x="13474.731445" y="-3566.162109" width="1.098633" height="1.098633"/>
<image xlink:href="tile70_13.png" preserveAspectRatio="none" x="13475.830078" y="-3552.978516" width="1.098633" height="1.098633"/>
<image xlink:href="tile70_12.png" preserveAspectRatio="none" x="13475.830078" y="-3554.077148" width="1.098633" height="1.098633"/>
<image xlink:href="tile70_9.png" preserveAspectRatio="none" x="13475.830078" y="-3557.373047" width="1.098633" height="1.098633"/>
<image xlink:href="tile70_8.png" preserveAspectRatio="none" x="13475.830078" y="-3558.47168" width="1.098633" height="1.098633"/>
<image xlink:href="tile70_4.png" preserveAspectRatio="none" x="13475.830078" y="-3562.866211" width="1.098633" height="1.098633"/>
<image xlink:href="tile70_3.png" preserveAspectRatio="none" x="13475.830078" y="-3563.964844" width="1.098633" height="1.098633"/>
<image xlink:href="tile70_2.png" preserveAspectRatio="none" x="13475.830078" y="-3565.063477" width="1.098633" height="1.098633"/>
<image xlink:href="tile70_1.png" preserveAspectRatio="none" x="13475.830078" y="-3566.162109" width="1.098633" height="1.098633"/>
<image xlink:href="tile70_0.png" preserveAspectRatio="none" x="13475.830078" y="-3567.260742" width="1.098633" height="1.098633"/>
<image xlink:href="tile71_12.png" preserveAspectRatio="none" x="13476.928711" y="-3554.077148" width="1.098633" height="1.098633"/>
<image xlink:href="tile71_11.png" preserveAspectRatio="none" x="13476.928711" y="-3555.175781" width="1.098633" height="1.098633"/>
<image xlink:href="tile71_9.png" preserveAspectRatio="none" x="13476.928711" y="-3557.373047" width="1.098633" height="1.098633"/>
<image xlink:href="tile71_8.png" preserveAspectRatio="none" x="13476.928711" y="-3558.47168" width="1.098633" height="1.098633"/>
<image xlink:href="tile72_12.png" preserveAspectRatio="none" x="13478.027344" y="-3554.077148" width="1.098633" height="1.098633"/>
<image xlink:href="tile72_11.png" preserveAspectRatio="none" x="13478.027344" y="-3555.175781" width="1.098633" height="1.098633"/>
<image xlink:href="tile72_10.png" preserveAspectRatio="none" x="13478.027344" y="-3556.274414" width="1.098633" height="1.098633"/>
<image xlink:href="tile72_9.png" preserveAspectRatio="none" x="13478.027344" y="-3557.373047" width="1.098633" height="1.098633"/>
<image xlink:href="tile73_11.png" preserveAspectRatio="none" x="13479.125977" y="-3555.175781" width="1.098633" height="1.098633"/>
<image xlink:href="tile73_10.png" preserveAspectRatio="none" x="13479.125977" y="-3556.274414" width="1.098633" height="1.098633"/>
<image xlink:href="tile73_9.png" preserveAspectRatio="none" x="13479.125977" y="-3557.373047" width="1.098633" height="1.098633"/>
<image xlink:href="tile73_8.png" preserveAspectRatio="none" x="13479.125977" y="-3558.47168" width="1.098633" height="1.098633"/>
<image xlink:href="tile73_7.png" preserveAspectRatio="none" x="13479.125977" y="-3559.570312" width="1.098633" height="1.098633"/>
<image xlink:href="tile73_6.png" preserveAspectRatio="none" x="13479.125977" y="-3560.668945" width="1.098633" height="1.098633"/>
<image xlink:href="tile73_5.png" preserveAspectRatio="none" x="13479.125977" y="-3561.767578" width="1.098633" height="1.098633"/>
<image xlink:href="tile73_4.png" preserveAspectRatio="none" x="13479.125977" y="-3562.866211" width="1.098633" height="1.098633"/>
<image xlink:href="tile73_3.png" preserveAspectRatio="none" x="13479.125977" y="-3563.964844" width="1.098633" height="1.098633"/>
<image xlink:href="tile74_14.png" preserveAspectRatio="none" x="13480.224609" y="-3551.879883" width="1.098633" height="1.098633"/>
<image xlink:href="tile74_13.png" preserveAspectRatio="none" x="13480.224609" y="-3552.978516" width="1.098633" height="1.098633"/>
<image xlink:href="tile74_12.png" preserveAspectRatio="none" x="13480.224609" y="-3554.077148" width="1.098633" height="1.098633"/>
<image xlink:href="tile74_11.png" preserveAspectRatio="none" x="13480.224609" y="-3555.175781" width="1.098633" height="1.098633"/>
<image xlink:href="tile74_10.png" preserveAspectRatio="none" x="13480.224609" y="-3556.274414" width="1.098633" height="1.098633"/>
<image xlink:href="tile74_9.png" preserveAspectRatio="none" x="13480.224609" y="-3557.373047" width="1.098633" height="1.098633"/>
<image xlink:href="tile74_8.png" preserveAspectRatio="none" x="13480.224609" y="-3558.47168" width="1.098633" height="1.098633"/>
<image xlink:href="tile74_7.png" preserveAspectRatio="none" x="13480.224609" y="-3559.570312" width="1.098633" height="1.098633"/>
<image xlink:href="tile74_6.png" preserveAspectRatio="none" x="13480.224609" y="-3560.668945" width="1.098633" height="1.098633"/>
<image xlink:href="tile74_5.png" preserveAspectRatio="none" x="13480.224609" y="-3561.767578" width="1.098633" height="1.098633"/>
<image xlink:href="tile74_4.png" preserveAspectRatio="none" x="13480.224609" y="-3562.866211" width="1.098633" height="1.098633"/>
<image xlink:href="tile74_3.png" preserveAspectRatio="none" x="13480.224609" y="-3563.964844" width="1.098633" height="1.098633"/>
<image xlink:href="tile75_14.png" preserveAspectRatio="none" x="13481.323242" y="-3551.879883" width="1.098633" height="1.098633"/>
<image xlink:href="tile75_13.png" preserveAspectRatio="none" x="13481.323242" y="-3552.978516" width="1.098633" height="1.098633"/>
<image xlink:href="tile75_12.png" preserveAspectRatio="none" x="13481.323242" y="-3554.077148" width="1.098633" height="1.098633"/>
<image xlink:href="tile75_11.png" preserveAspectRatio="none" x="13481.323242" y="-3555.175781" width="1.098633" height="1.098633"/>
<image xlink:href="tile75_10.png" preserveAspectRatio="none" x="13481.323242" y="-3556.274414" width="1.098633" height="1.098633"/>
<image xlink:href="tile75_9.png" preserveAspectRatio="none" x="13481.323242" y="-3557.373047" width="1.098633" height="1.098633"/>
<image xlink:href="tile75_8.png" preserveAspectRatio="none" x="13481.323242" y="-3558.47168" width="1.098633" height="1.098633"/>
<image xlink:href="tile75_5.png" preserveAspectRatio="none" x="13481.323242" y="-3561.767578" width="1.098633" height="1.098633"/>
<image xlink:href="tile75_4.png" preserveAspectRatio="none" x="13481.323242" y="-3562.866211" width="1.098633" height="1.098633"/>
<image xlink:href="tile75_3.png" preserveAspectRatio="none" x="13481.323242" y="-3563.964844" width="1.098633" height="1.098633"/>
<image xlink:href="tile75_2.png" preserveAspectRatio="none" x="13481.323242" y="-3565.063477" width="1.098633" height="1.098633"/>
<image xlink:href="tile76_14.png" preserveAspectRatio="none" x="13482.421875" y="-3551.879883" width="1.098633" height="1.098633"/>
<image xlink:href="tile76_13.png" preserveAspectRatio="none" x="13482.421875" y="-3552.978516" width="1.098633" height="1.098633"/>
<image xlink:href="tile76_12.png" preserveAspectRatio="none" x="13482.421875" y="-3554.077148" width="1.098633" height="1.098633"/>
<image xlink:href="tile76_11.png" preserveAspectRatio="none" x="13482.421875" y="-3555.175781" width="1.098633" height="1.098633"/>
<image xlink:href="tile76_10.png" preserveAspectRatio="none" x="13482.421875" y="-3556.274414" width="1.098633" height="1.098633"/>
<image xlink:href="tile76_9.png" preserveAspectRatio="none" x="13482.421875" y="-3557.373047" width="1.098633" height="1.098633"/>
<image xlink:href="tile76_6.png" preserveAspectRatio="none" x="13482.421875" y="-3560.668945" width="1.098633" height="1.098633"/>
<image xlink:href="tile76_5.png" preserveAspectRatio="none" x="13482.421875" y="-3561.767578" width="1.098633" height="1.098633"/>
<image xlink:href="tile76_3.png" preserveAspectRatio="none" x="13482.421875" y="-3563.964844" width="1.098633" height="1.098633"/>
<image xlink:href="tile76_2.png" preserveAspectRatio="none" x="13482.421875" y="-3565.063477" width="1.098633" height="1.098633"/>
<image xlink:href="tile76_1.png" preserveAspectRatio="none" x="13482.421875" y="-3566.162109" width="1.098633" height="1.098633"/>
<image xlink:href="tile77_14.png" preserveAspectRatio="none" x="13483.520508" y="-3551.879883" width="1.098633" height="1.098633"/>
<image xlink:href="tile77_13.png" preserveAspectRatio="none" x="13483.520508" y="-3552.978516" width="1.098633" height="1.098633"/>
<image xlink:href="tile77_12.png" preserveAspectRatio="none" x="13483.520508" y="-3554.077148" width="1.098633" height="1.098633"/>
<image xlink:href="tile77_11.png" preserveAspectRatio="none" x="13483.520508" y="-3555.175781" width="1.098633" height="1.098633"/>
<image xlink:href="tile77_10.png" preserveAspectRatio="none" x="13483.520508" y="-3556.274414" width="1.098633" height="1.098633"/>
<image xlink:href="tile77_9.png" preserveAspectRatio="none" x="13483.520508" y="-3557.373047" width="1.098633" height="1.098633"/>
<image xlink:href="tile77_5.png" preserveAspectRatio="none" x="13483.520508" y="-3561.767578" width="1.098633" height="1.098633"/>
<image xlink:href="tile77_4.png" preserveAspectRatio="none" x="13483.520508" y="-3562.866211" width="1.098633" height="1.098633"/>
<image xlink:href="tile77_3.png" preserveAspectRatio="none" x="13483.520508" y="-3563.964844" width="1.098633" height="1.098633"/>
<image xlink:href="tile77_2.png" preserveAspectRatio="none" x="13483.520508" y="-3565.063477" width="1.098633" height="1.098633"/>
<image xlink:href="tile78_14.png" preserveAspectRatio="none" x="13484.619141" y="-3551.879883" width="1.098633" height="1.098633"/>
<image xlink:href="tile78_13.png" preserveAspectRatio="none" x="13484.619141" y="-3552.978516" width="1.098633" height="1.098633"/>
<image xlink:href="tile78_12.png" preserveAspectRatio="none" x="13484.619141" y="-3554.077148" width="1.098633" height="1.098633"/>
<image xlink:href="tile78_11.png" preserveAspectRatio="none" x="13484.619141" y="-3555.175781" width="1.098633" height="1.098633"/>
<image xlink:href="tile78_10.png" preserveAspectRatio="none" x="13484.619141" y="-3556.274414" width="1.098633" height="1.098633"/>
<image xlink:href="tile78_9.png" preserveAspectRatio="none" x="13484.619141" y="-3557.373047" width="1.098633" height="1.098633"/>
<image xlink:href="tile78_5.png" preserveAspectRatio="none" x="13484.619141" y="-3561.767578" width="1.098633" height="1.098633"/>
<image xlink:href="tile79_14.png" preserveAspectRatio="none" x="13485.717773" y="-3551.879883" width="1.098633" height="1.098633"/>
<image xlink:href="tile79_13.png" preserveAspectRatio="none" x="13485.717773" y="-3552.978516" width="1.098633" height="1.098633"/>
<image xlink:href="tile79_12.png" preserveAspectRatio="none" x="13485.717773" y="-3554.077148" width="1.098633" height="1.098633"/>
<image xlink:href="tile79_11.png" preserveAspectRatio="none" x="13485.717773" y="-3555.175781" width="1.098633" height="1.098633"/>
<image xlink:href="tile79_10.png" preserveAspectRatio="none" x="13485.717773" y="-3556.274414" width="1.098633" height="1.098633"/>
</g>
</svg>
