<?xml version="1.0" encoding="UTF-8"?>
<svg  xmlns="http://www.w3.org/2000/svg" xmlns:xlink="http://www.w3.org/1999/xlink" xmlns:go="http://purl.org/svgmap/profile" viewBox="13400.0 -3566.3708334 100.0 33.03750030000003" go:dataArea="13400.0 -3566.3708334 100.0 33.03750030000003" >
<metadata>
 <rdf:RDF xmlns:rdf="http://www.w3.org/1999/02/22-rdf-syntax-ns#" xmlns:crs="http://opengis.org/xmldtds/transformations.dtd" xmlns:svg="http://www.w3.org/svg" >
  <rdf:Description>
   <crs:CoordinateReferenceSystem rdf:resource="http://purl.org/crs/84" svg:transform="matrix(100.0,0.0,0.0,-100.0,0.0,0.0)" />
  </rdf:Description>
 </rdf:RDF>
</metadata>
<globalCoordinateSystem srsName="http://purl.org/crs/84" transform="matrix(100.0,0.0,0.0,-100.0,0.0,0.0)" />
<g >
<image xlink:href="tile32_13.png" preserveAspectRatio="none" x="13434.082031" y="-3552.978516" width="1.098633" height="1.098633"/>
<image xlink:href="tile32_12.png" preserveAspectRatio="none" x="13434.082031" y="-3554.077148" width="1.098633" height="1.098633"/>
<image xlink:href="tile32_10.png" preserveAspectRatio="none" x="13434.082031" y="-3556.274414" width="1.098633" height="1.098633"/>
<image xlink:href="tile32_9.png" preserveAspectRatio="none" x="13434.082031" y="-3557.373047" width="1.098633" height="1.098633"/>
<image xlink:href="tile32_8.png" preserveAspectRatio="none" x="13434.082031" y="-3558.47168" width="1.098633" height="1.098633"/>
<image xlink:href="tile33_10.png" preserveAspectRatio="none" x="13435.180664" y="-3556.274414" width="1.098633" height="1.098633"/>
<image xlink:href="tile34_10.png" preserveAspectRatio="none" x="13436.279297" y="-3556.274414" width="1.098633" height="1.098633"/>
<image xlink:href="tile35_11.png" preserveAspectRatio="none" x="13437.37793" y="-3555.175781" width="1.098633" height="1.098633"/>
<image xlink:href="tile35_10.png" preserveAspectRatio="none" x="13437.37793" y="-3556.274414" width="1.098633" height="1.098633"/>
<image xlink:href="tile36_5.png" preserveAspectRatio="none" x="13438.476562" y="-3561.767578" width="1.098633" height="1.098633"/>
<image xlink:href="tile37_6.png" preserveAspectRatio="none" x="13439.575195" y="-3560.668945" width="1.098633" height="1.098633"/>
<image xlink:href="tile37_5.png" preserveAspectRatio="none" x="13439.575195" y="-3561.767578" width="1.098633" height="1.098633"/>
<image xlink:href="tile39_6.png" preserveAspectRatio="none" x="13441.772461" y="-3560.668945" width="1.098633" height="1.098633"/>
<image xlink:href="tile39_5.png" preserveAspectRatio="none" x="13441.772461" y="-3561.767578" width="1.098633" height="1.098633"/>
<image xlink:href="tile40_6.png" preserveAspectRatio="none" x="13442.871094" y="-3560.668945" width="1.098633" height="1.098633"/>
<image xlink:href="tile40_5.png" preserveAspectRatio="none" x="13442.871094" y="-3561.767578" width="1.098633" height="1.098633"/>
<image xlink:href="tile40_4.png" preserveAspectRatio="none" x="13442.871094" y="-3562.866211" width="1.098633" height="1.098633"/>
<image xlink:href="tile41_14.png" preserveAspectRatio="none" x="13443.969727" y="-3551.879883" width="1.098633" height="1.098633"/>
<image xlink:href="tile41_13.png" preserveAspectRatio="none" x="13443.969727" y="-3552.978516" width="1.098633" height="1.098633"/>
<image xlink:href="tile41_12.png" preserveAspectRatio="none" x="13443.969727" y="-3554.077148" width="1.098633" height="1.098633"/>
<image xlink:href="tile41_11.png" preserveAspectRatio="none" x="13443.969727" y="-3555.175781" width="1.098633" height="1.098633"/>
<image xlink:href="tile41_5.png" preserveAspectRatio="none" x="13443.969727" y="-3561.767578" width="1.098633" height="1.098633"/>
<image xlink:href="tile41_4.png" preserveAspectRatio="none" x="13443.969727" y="-3562.866211" width="1.098633" height="1.098633"/>
<image xlink:href="tile41_3.png" preserveAspectRatio="none" x="13443.969727" y="-3563.964844" width="1.098633" height="1.098633"/>
<image xlink:href="tile42_14.png" preserveAspectRatio="none" x="13445.068359" y="-3551.879883" width="1.098633" height="1.098633"/>
<image xlink:href="tile42_11.png" preserveAspectRatio="none" x="13445.068359" y="-3555.175781" width="1.098633" height="1.098633"/>
<image xlink:href="tile42_10.png" preserveAspectRatio="none" x="13445.068359" y="-3556.274414" width="1.098633" height="1.098633"/>
<image xlink:href="tile42_5.png" preserveAspectRatio="none" x="13445.068359" y="-3561.767578" width="1.098633" height="1.098633"/>
<image xlink:href="tile42_4.png" preserveAspectRatio="none" x="13445.068359" y="-3562.866211" width="1.098633" height="1.098633"/>
<image xlink:href="tile42_3.png" preserveAspectRatio="none" x="13445.068359" y="-3563.964844" width="1.098633" height="1.098633"/>
<image xlink:href="tile43_13.png" preserveAspectRatio="none" x="13446.166992" y="-3552.978516" width="1.098633" height="1.098633"/>
<image xlink:href="tile43_12.png" preserveAspectRatio="none" x="13446.166992" y="-3554.077148" width="1.098633" height="1.098633"/>
<image xlink:href="tile43_11.png" preserveAspectRatio="none" x="13446.166992" y="-3555.175781" width="1.098633" height="1.098633"/>
<image xlink:href="tile43_10.png" preserveAspectRatio="none" x="13446.166992" y="-3556.274414" width="1.098633" height="1.098633"/>
<image xlink:href="tile43_9.png" preserveAspectRatio="none" x="13446.166992" y="-3557.373047" width="1.098633" height="1.098633"/>
<image xlink:href="tile43_7.png" preserveAspectRatio="none" x="13446.166992" y="-3559.570312" width="1.098633" height="1.098633"/>
<image xlink:href="tile43_6.png" preserveAspectRatio="none" x="13446.166992" y="-3560.668945" width="1.098633" height="1.098633"/>
<image xlink:href="tile43_5.png" preserveAspectRatio="none" x="13446.166992" y="-3561.767578" width="1.098633" height="1.098633"/>
<image xlink:href="tile43_4.png" preserveAspectRatio="none" x="13446.166992" y="-3562.866211" width="1.098633" height="1.098633"/>
<image xlink:href="tile43_3.png" preserveAspectRatio="none" x="13446.166992" y="-3563.964844" width="1.098633" height="1.098633"/>
<image xlink:href="tile44_13.png" preserveAspectRatio="none" x="13447.265625" y="-3552.978516" width="1.098633" height="1.098633"/>
<image xlink:href="tile44_10.png" preserveAspectRatio="none" x="13447.265625" y="-3556.274414" width="1.098633" height="1.098633"/>
<image xlink:href="tile44_9.png" preserveAspectRatio="none" x="13447.265625" y="-3557.373047" width="1.098633" height="1.098633"/>
<image xlink:href="tile44_7.png" preserveAspectRatio="none" x="13447.265625" y="-3559.570312" width="1.098633" height="1.098633"/>
<image xlink:href="tile44_6.png" preserveAspectRatio="none" x="13447.265625" y="-3560.668945" width="1.098633" height="1.098633"/>
<image xlink:href="tile44_5.png" preserveAspectRatio="none" x="13447.265625" y="-3561.767578" width="1.098633" height="1.098633"/>
<image xlink:href="tile44_4.png" preserveAspectRatio="none" x="13447.265625" y="-3562.866211" width="1.098633" height="1.098633"/>
<image xlink:href="tile44_3.png" preserveAspectRatio="none" x="13447.265625" y="-3563.964844" width="1.098633" height="1.098633"/>
<image xlink:href="tile45_11.png" preserveAspectRatio="none" x="13448.364258" y="-3555.175781" width="1.098633" height="1.098633"/>
<image xlink:href="tile45_10.png" preserveAspectRatio="none" x="13448.364258" y="-3556.274414" width="1.098633" height="1.098633"/>
<image xlink:href="tile45_9.png" preserveAspectRatio="none" x="13448.364258" y="-3557.373047" width="1.098633" height="1.098633"/>
<image xlink:href="tile45_8.png" preserveAspectRatio="none" x="13448.364258" y="-3558.47168" width="1.098633" height="1.098633"/>
<image xlink:href="tile45_7.png" preserveAspectRatio="none" x="13448.364258" y="-3559.570312" width="1.098633" height="1.098633"/>
<image xlink:href="tile45_6.png" preserveAspectRatio="none" x="13448.364258" y="-3560.668945" width="1.098633" height="1.098633"/>
<image xlink:href="tile45_5.png" preserveAspectRatio="none" x="13448.364258" y="-3561.767578" width="1.098633" height="1.098633"/>
<image xlink:href="tile45_4.png" preserveAspectRatio="none" x="13448.364258" y="-3562.866211" width="1.098633" height="1.098633"/>
<image xlink:href="tile45_3.png" preserveAspectRatio="none" x="13448.364258" y="-3563.964844" width="1.098633" height="1.098633"/>
<image xlink:href="tile45_2.png" preserveAspectRatio="none" x="13448.364258" y="-3565.063477" width="1.098633" height="1.098633"/>
<image xlink:href="tile46_14.png" preserveAspectRatio="none" x="13449.462891" y="-3551.879883" width="1.098633" height="1.098633"/>
<image xlink:href="tile46_13.png" preserveAspectRatio="none" x="13449.462891" y="-3552.978516" width="1.098633" height="1.098633"/>
<image xlink:href="tile46_11.png" preserveAspectRatio="none" x="13449.462891" y="-3555.175781" width="1.098633" height="1.098633"/>
<image xlink:href="tile46_8.png" preserveAspectRatio="none" x="13449.462891" y="-3558.47168" width="1.098633" height="1.098633"/>
<image xlink:href="tile46_5.png" preserveAspectRatio="none" x="13449.462891" y="-3561.767578" width="1.098633" height="1.098633"/>
<image xlink:href="tile46_4.png" preserveAspectRatio="none" x="13449.462891" y="-3562.866211" width="1.098633" height="1.098633"/>
<image xlink:href="tile46_3.png" preserveAspectRatio="none" x="13449.462891" y="-3563.964844" width="1.098633" height="1.098633"/>
<image xlink:href="tile46_2.png" preserveAspectRatio="none" x="13449.462891" y="-3565.063477" width="1.098633" height="1.098633"/>
<image xlink:href="tile47_12.png" preserveAspectRatio="none" x="13450.561523" y="-3554.077148" width="1.098633" height="1.098633"/>
<image xlink:href="tile47_8.png" preserveAspectRatio="none" x="13450.561523" y="-3558.47168" width="1.098633" height="1.098633"/>
<image xlink:href="tile47_5.png" preserveAspectRatio="none" x="13450.561523" y="-3561.767578" width="1.098633" height="1.098633"/>
<image xlink:href="tile47_4.png" preserveAspectRatio="none" x="13450.561523" y="-3562.866211" width="1.098633" height="1.098633"/>
<image xlink:href="tile47_3.png" preserveAspectRatio="none" x="13450.561523" y="-3563.964844" width="1.098633" height="1.098633"/>
</g>
</svg>
