<?xml version="1.0" encoding="UTF-8"?>
<svg  xmlns="http://www.w3.org/2000/svg" xmlns:xlink="http://www.w3.org/1999/xlink" xmlns:go="http://purl.org/svgmap/profile" viewBox="13400.0 -3566.3708334 100.0 33.03750030000003" go:dataArea="13400.0 -3566.3708334 100.0 33.03750030000003" >
<metadata>
 <rdf:RDF xmlns:rdf="http://www.w3.org/1999/02/22-rdf-syntax-ns#" xmlns:crs="http://opengis.org/xmldtds/transformations.dtd" xmlns:svg="http://www.w3.org/svg" >
  <rdf:Description>
   <crs:CoordinateReferenceSystem rdf:resource="http://purl.org/crs/84" svg:transform="matrix(100.0,0.0,0.0,-100.0,0.0,0.0)" />
  </rdf:Description>
 </rdf:RDF>
</metadata>
<globalCoordinateSystem srsName="http://purl.org/crs/84" transform="matrix(100.0,0.0,0.0,-100.0,0.0,0.0)" />
<g >
<image xlink:href="tile48_13.png" preserveAspectRatio="none" x="13451.660156" y="-3552.978516" width="1.098633" height="1.098633"/>
<image xlink:href="tile48_8.png" preserveAspectRatio="none" x="13451.660156" y="-3558.47168" width="1.098633" height="1.098633"/>
<image xlink:href="tile48_6.png" preserveAspectRatio="none" x="13451.660156" y="-3560.668945" width="1.098633" height="1.098633"/>
<image xlink:href="tile48_5.png" preserveAspectRatio="none" x="13451.660156" y="-3561.767578" width="1.098633" height="1.098633"/>
<image xlink:href="tile48_4.png" preserveAspectRatio="none" x="13451.660156" y="-3562.866211" width="1.098633" height="1.098633"/>
<image xlink:href="tile49_9.png" preserveAspectRatio="none" x="13452.758789" y="-3557.373047" width="1.098633" height="1.098633"/>
<image xlink:href="tile49_8.png" preserveAspectRatio="none" x="13452.758789" y="-3558.47168" width="1.098633" height="1.098633"/>
<image xlink:href="tile49_6.png" preserveAspectRatio="none" x="13452.758789" y="-3560.668945" width="1.098633" height="1.098633"/>
<image xlink:href="tile49_3.png" preserveAspectRatio="none" x="13452.758789" y="-3563.964844" width="1.098633" height="1.098633"/>
<image xlink:href="tile50_8.png" preserveAspectRatio="none" x="13453.857422" y="-3558.47168" width="1.098633" height="1.098633"/>
<image xlink:href="tile50_7.png" preserveAspectRatio="none" x="13453.857422" y="-3559.570312" width="1.098633" height="1.098633"/>
<image xlink:href="tile50_6.png" preserveAspectRatio="none" x="13453.857422" y="-3560.668945" width="1.098633" height="1.098633"/>
<image xlink:href="tile50_2.png" preserveAspectRatio="none" x="13453.857422" y="-3565.063477" width="1.098633" height="1.098633"/>
<image xlink:href="tile51_8.png" preserveAspectRatio="none" x="13454.956055" y="-3558.47168" width="1.098633" height="1.098633"/>
<image xlink:href="tile51_7.png" preserveAspectRatio="none" x="13454.956055" y="-3559.570312" width="1.098633" height="1.098633"/>
<image xlink:href="tile51_2.png" preserveAspectRatio="none" x="13454.956055" y="-3565.063477" width="1.098633" height="1.098633"/>
<image xlink:href="tile51_1.png" preserveAspectRatio="none" x="13454.956055" y="-3566.162109" width="1.098633" height="1.098633"/>
<image xlink:href="tile52_14.png" preserveAspectRatio="none" x="13456.054688" y="-3551.879883" width="1.098633" height="1.098633"/>
<image xlink:href="tile52_13.png" preserveAspectRatio="none" x="13456.054688" y="-3552.978516" width="1.098633" height="1.098633"/>
<image xlink:href="tile52_12.png" preserveAspectRatio="none" x="13456.054688" y="-3554.077148" width="1.098633" height="1.098633"/>
<image xlink:href="tile52_11.png" preserveAspectRatio="none" x="13456.054688" y="-3555.175781" width="1.098633" height="1.098633"/>
<image xlink:href="tile52_10.png" preserveAspectRatio="none" x="13456.054688" y="-3556.274414" width="1.098633" height="1.098633"/>
<image xlink:href="tile52_8.png" preserveAspectRatio="none" x="13456.054688" y="-3558.47168" width="1.098633" height="1.098633"/>
<image xlink:href="tile52_3.png" preserveAspectRatio="none" x="13456.054688" y="-3563.964844" width="1.098633" height="1.098633"/>
<image xlink:href="tile52_2.png" preserveAspectRatio="none" x="13456.054688" y="-3565.063477" width="1.098633" height="1.098633"/>
<image xlink:href="tile53_10.png" preserveAspectRatio="none" x="13457.15332" y="-3556.274414" width="1.098633" height="1.098633"/>
<image xlink:href="tile53_8.png" preserveAspectRatio="none" x="13457.15332" y="-3558.47168" width="1.098633" height="1.098633"/>
<image xlink:href="tile53_7.png" preserveAspectRatio="none" x="13457.15332" y="-3559.570312" width="1.098633" height="1.098633"/>
<image xlink:href="tile54_10.png" preserveAspectRatio="none" x="13458.251953" y="-3556.274414" width="1.098633" height="1.098633"/>
<image xlink:href="tile54_9.png" preserveAspectRatio="none" x="13458.251953" y="-3557.373047" width="1.098633" height="1.098633"/>
<image xlink:href="tile55_11.png" preserveAspectRatio="none" x="13459.350586" y="-3555.175781" width="1.098633" height="1.098633"/>
<image xlink:href="tile55_10.png" preserveAspectRatio="none" x="13459.350586" y="-3556.274414" width="1.098633" height="1.098633"/>
<image xlink:href="tile55_9.png" preserveAspectRatio="none" x="13459.350586" y="-3557.373047" width="1.098633" height="1.098633"/>
<image xlink:href="tile55_6.png" preserveAspectRatio="none" x="13459.350586" y="-3560.668945" width="1.098633" height="1.098633"/>
<image xlink:href="tile56_9.png" preserveAspectRatio="none" x="13460.449219" y="-3557.373047" width="1.098633" height="1.098633"/>
<image xlink:href="tile56_8.png" preserveAspectRatio="none" x="13460.449219" y="-3558.47168" width="1.098633" height="1.098633"/>
<image xlink:href="tile56_7.png" preserveAspectRatio="none" x="13460.449219" y="-3559.570312" width="1.098633" height="1.098633"/>
<image xlink:href="tile56_6.png" preserveAspectRatio="none" x="13460.449219" y="-3560.668945" width="1.098633" height="1.098633"/>
<image xlink:href="tile56_4.png" preserveAspectRatio="none" x="13460.449219" y="-3562.866211" width="1.098633" height="1.098633"/>
<image xlink:href="tile56_3.png" preserveAspectRatio="none" x="13460.449219" y="-3563.964844" width="1.098633" height="1.098633"/>
<image xlink:href="tile56_2.png" preserveAspectRatio="none" x="13460.449219" y="-3565.063477" width="1.098633" height="1.098633"/>
<image xlink:href="tile57_7.png" preserveAspectRatio="none" x="13461.547852" y="-3559.570312" width="1.098633" height="1.098633"/>
<image xlink:href="tile57_6.png" preserveAspectRatio="none" x="13461.547852" y="-3560.668945" width="1.098633" height="1.098633"/>
<image xlink:href="tile57_5.png" preserveAspectRatio="none" x="13461.547852" y="-3561.767578" width="1.098633" height="1.098633"/>
<image xlink:href="tile57_4.png" preserveAspectRatio="none" x="13461.547852" y="-3562.866211" width="1.098633" height="1.098633"/>
<image xlink:href="tile57_3.png" preserveAspectRatio="none" x="13461.547852" y="-3563.964844" width="1.098633" height="1.098633"/>
<image xlink:href="tile57_2.png" preserveAspectRatio="none" x="13461.547852" y="-3565.063477" width="1.098633" height="1.098633"/>
<image xlink:href="tile58_6.png" preserveAspectRatio="none" x="13462.646484" y="-3560.668945" width="1.098633" height="1.098633"/>
<image xlink:href="tile58_5.png" preserveAspectRatio="none" x="13462.646484" y="-3561.767578" width="1.098633" height="1.098633"/>
<image xlink:href="tile58_4.png" preserveAspectRatio="none" x="13462.646484" y="-3562.866211" width="1.098633" height="1.098633"/>
<image xlink:href="tile58_3.png" preserveAspectRatio="none" x="13462.646484" y="-3563.964844" width="1.098633" height="1.098633"/>
<image xlink:href="tile58_2.png" preserveAspectRatio="none" x="13462.646484" y="-3565.063477" width="1.098633" height="1.098633"/>
<image xlink:href="tile59_14.png" preserveAspectRatio="none" x="13463.745117" y="-3551.879883" width="1.098633" height="1.098633"/>
<image xlink:href="tile59_9.png" preserveAspectRatio="none" x="13463.745117" y="-3557.373047" width="1.098633" height="1.098633"/>
<image xlink:href="tile59_8.png" preserveAspectRatio="none" x="13463.745117" y="-3558.47168" width="1.098633" height="1.098633"/>
<image xlink:href="tile59_3.png" preserveAspectRatio="none" x="13463.745117" y="-3563.964844" width="1.098633" height="1.098633"/>
<image xlink:href="tile59_2.png" preserveAspectRatio="none" x="13463.745117" y="-3565.063477" width="1.098633" height="1.098633"/>
<image xlink:href="tile60_14.png" preserveAspectRatio="none" x="13464.84375" y="-3551.879883" width="1.098633" height="1.098633"/>
<image xlink:href="tile60_9.png" preserveAspectRatio="none" x="13464.84375" y="-3557.373047" width="1.098633" height="1.098633"/>
<image xlink:href="tile60_8.png" preserveAspectRatio="none" x="13464.84375" y="-3558.47168" width="1.098633" height="1.098633"/>
<image xlink:href="tile60_7.png" preserveAspectRatio="none" x="13464.84375" y="-3559.570312" width="1.098633" height="1.098633"/>
<image xlink:href="tile60_3.png" preserveAspectRatio="none" x="13464.84375" y="-3563.964844" width="1.098633" height="1.098633"/>
<image xlink:href="tile60_2.png" preserveAspectRatio="none" x="13464.84375" y="-3565.063477" width="1.098633" height="1.098633"/>
<image xlink:href="tile60_1.png" preserveAspectRatio="none" x="13464.84375" y="-3566.162109" width="1.098633" height="1.098633"/>
<image xlink:href="tile61_14.png" preserveAspectRatio="none" x="13465.942383" y="-3551.879883" width="1.098633" height="1.098633"/>
<image xlink:href="tile61_12.png" preserveAspectRatio="none" x="13465.942383" y="-3554.077148" width="1.098633" height="1.098633"/>
<image xlink:href="tile61_7.png" preserveAspectRatio="none" x="13465.942383" y="-3559.570312" width="1.098633" height="1.098633"/>
<image xlink:href="tile61_6.png" preserveAspectRatio="none" x="13465.942383" y="-3560.668945" width="1.098633" height="1.098633"/>
<image xlink:href="tile62_10.png" preserveAspectRatio="none" x="13467.041016" y="-3556.274414" width="1.098633" height="1.098633"/>
<image xlink:href="tile62_7.png" preserveAspectRatio="none" x="13467.041016" y="-3559.570312" width="1.098633" height="1.098633"/>
<image xlink:href="tile62_6.png" preserveAspectRatio="none" x="13467.041016" y="-3560.668945" width="1.098633" height="1.098633"/>
<image xlink:href="tile62_5.png" preserveAspectRatio="none" x="13467.041016" y="-3561.767578" width="1.098633" height="1.098633"/>
<image xlink:href="tile62_4.png" preserveAspectRatio="none" x="13467.041016" y="-3562.866211" width="1.098633" height="1.098633"/>
<image xlink:href="tile62_3.png" preserveAspectRatio="none" x="13467.041016" y="-3563.964844" width="1.098633" height="1.098633"/>
<image xlink:href="tile63_10.png" preserveAspectRatio="none" x="13468.139648" y="-3556.274414" width="1.098633" height="1.098633"/>
<image xlink:href="tile63_9.png" preserveAspectRatio="none" x="13468.139648" y="-3557.373047" width="1.098633" height="1.098633"/>
<image xlink:href="tile63_6.png" preserveAspectRatio="none" x="13468.139648" y="-3560.668945" width="1.098633" height="1.098633"/>
<image xlink:href="tile63_5.png" preserveAspectRatio="none" x="13468.139648" y="-3561.767578" width="1.098633" height="1.098633"/>
<image xlink:href="tile63_4.png" preserveAspectRatio="none" x="13468.139648" y="-3562.866211" width="1.098633" height="1.098633"/>
<image xlink:href="tile63_3.png" preserveAspectRatio="none" x="13468.139648" y="-3563.964844" width="1.098633" height="1.098633"/>
<image xlink:href="tile63_2.png" preserveAspectRatio="none" x="13468.139648" y="-3565.063477" width="1.098633" height="1.098633"/>
<image xlink:href="tile63_1.png" preserveAspectRatio="none" x="13468.139648" y="-3566.162109" width="1.098633" height="1.098633"/>
</g>
</svg>
