<?xml version="1.0" encoding="UTF-8"?>
<svg  xmlns="http://www.w3.org/2000/svg" xmlns:xlink="http://www.w3.org/1999/xlink" xmlns:go="http://purl.org/svgmap/profile" viewBox="13400.0 -3566.3708334 100.0 33.03750030000003" go:dataArea="13400.0 -3566.3708334 100.0 33.03750030000003" >
<metadata>
 <rdf:RDF xmlns:rdf="http://www.w3.org/1999/02/22-rdf-syntax-ns#" xmlns:crs="http://opengis.org/xmldtds/transformations.dtd" xmlns:svg="http://www.w3.org/svg" >
  <rdf:Description>
   <crs:CoordinateReferenceSystem rdf:resource="http://purl.org/crs/84" svg:transform="matrix(100.0,0.0,0.0,-100.0,0.0,0.0)" />
  </rdf:Description>
 </rdf:RDF>
</metadata>
<globalCoordinateSystem srsName="http://purl.org/crs/84" transform="matrix(100.0,0.0,0.0,-100.0,0.0,0.0)" />
<g >
<image xlink:href="tile64_29.png" preserveAspectRatio="none" x="13469.238281" y="-3535.400391" width="1.098633" height="1.098633"/>
<image xlink:href="tile64_28.png" preserveAspectRatio="none" x="13469.238281" y="-3536.499023" width="1.098633" height="1.098633"/>
<image xlink:href="tile64_26.png" preserveAspectRatio="none" x="13469.238281" y="-3538.696289" width="1.098633" height="1.098633"/>
<image xlink:href="tile64_20.png" preserveAspectRatio="none" x="13469.238281" y="-3545.288086" width="1.098633" height="1.098633"/>
<image xlink:href="tile64_19.png" preserveAspectRatio="none" x="13469.238281" y="-3546.386719" width="1.098633" height="1.098633"/>
<image xlink:href="tile64_18.png" preserveAspectRatio="none" x="13469.238281" y="-3547.485352" width="1.098633" height="1.098633"/>
<image xlink:href="tile64_17.png" preserveAspectRatio="none" x="13469.238281" y="-3548.583984" width="1.098633" height="1.098633"/>
<image xlink:href="tile64_16.png" preserveAspectRatio="none" x="13469.238281" y="-3549.682617" width="1.098633" height="1.098633"/>
<image xlink:href="tile65_29.png" preserveAspectRatio="none" x="13470.336914" y="-3535.400391" width="1.098633" height="1.098633"/>
<image xlink:href="tile65_28.png" preserveAspectRatio="none" x="13470.336914" y="-3536.499023" width="1.098633" height="1.098633"/>
<image xlink:href="tile65_27.png" preserveAspectRatio="none" x="13470.336914" y="-3537.597656" width="1.098633" height="1.098633"/>
<image xlink:href="tile65_26.png" preserveAspectRatio="none" x="13470.336914" y="-3538.696289" width="1.098633" height="1.098633"/>
<image xlink:href="tile65_23.png" preserveAspectRatio="none" x="13470.336914" y="-3541.992188" width="1.098633" height="1.098633"/>
<image xlink:href="tile65_21.png" preserveAspectRatio="none" x="13470.336914" y="-3544.189453" width="1.098633" height="1.098633"/>
<image xlink:href="tile65_20.png" preserveAspectRatio="none" x="13470.336914" y="-3545.288086" width="1.098633" height="1.098633"/>
<image xlink:href="tile65_19.png" preserveAspectRatio="none" x="13470.336914" y="-3546.386719" width="1.098633" height="1.098633"/>
<image xlink:href="tile65_18.png" preserveAspectRatio="none" x="13470.336914" y="-3547.485352" width="1.098633" height="1.098633"/>
<image xlink:href="tile65_17.png" preserveAspectRatio="none" x="13470.336914" y="-3548.583984" width="1.098633" height="1.098633"/>
<image xlink:href="tile66_28.png" preserveAspectRatio="none" x="13471.435547" y="-3536.499023" width="1.098633" height="1.098633"/>
<image xlink:href="tile66_27.png" preserveAspectRatio="none" x="13471.435547" y="-3537.597656" width="1.098633" height="1.098633"/>
<image xlink:href="tile66_26.png" preserveAspectRatio="none" x="13471.435547" y="-3538.696289" width="1.098633" height="1.098633"/>
<image xlink:href="tile66_23.png" preserveAspectRatio="none" x="13471.435547" y="-3541.992188" width="1.098633" height="1.098633"/>
<image xlink:href="tile66_20.png" preserveAspectRatio="none" x="13471.435547" y="-3545.288086" width="1.098633" height="1.098633"/>
<image xlink:href="tile66_19.png" preserveAspectRatio="none" x="13471.435547" y="-3546.386719" width="1.098633" height="1.098633"/>
<image xlink:href="tile66_18.png" preserveAspectRatio="none" x="13471.435547" y="-3547.485352" width="1.098633" height="1.098633"/>
<image xlink:href="tile66_17.png" preserveAspectRatio="none" x="13471.435547" y="-3548.583984" width="1.098633" height="1.098633"/>
<image xlink:href="tile67_28.png" preserveAspectRatio="none" x="13472.53418" y="-3536.499023" width="1.098633" height="1.098633"/>
<image xlink:href="tile67_27.png" preserveAspectRatio="none" x="13472.53418" y="-3537.597656" width="1.098633" height="1.098633"/>
<image xlink:href="tile67_26.png" preserveAspectRatio="none" x="13472.53418" y="-3538.696289" width="1.098633" height="1.098633"/>
<image xlink:href="tile67_25.png" preserveAspectRatio="none" x="13472.53418" y="-3539.794922" width="1.098633" height="1.098633"/>
<image xlink:href="tile67_23.png" preserveAspectRatio="none" x="13472.53418" y="-3541.992188" width="1.098633" height="1.098633"/>
<image xlink:href="tile67_21.png" preserveAspectRatio="none" x="13472.53418" y="-3544.189453" width="1.098633" height="1.098633"/>
<image xlink:href="tile67_20.png" preserveAspectRatio="none" x="13472.53418" y="-3545.288086" width="1.098633" height="1.098633"/>
<image xlink:href="tile67_19.png" preserveAspectRatio="none" x="13472.53418" y="-3546.386719" width="1.098633" height="1.098633"/>
<image xlink:href="tile67_18.png" preserveAspectRatio="none" x="13472.53418" y="-3547.485352" width="1.098633" height="1.098633"/>
<image xlink:href="tile68_30.png" preserveAspectRatio="none" x="13473.632812" y="-3534.301758" width="1.098633" height="1.098633"/>
<image xlink:href="tile68_28.png" preserveAspectRatio="none" x="13473.632812" y="-3536.499023" width="1.098633" height="1.098633"/>
<image xlink:href="tile68_27.png" preserveAspectRatio="none" x="13473.632812" y="-3537.597656" width="1.098633" height="1.098633"/>
<image xlink:href="tile68_25.png" preserveAspectRatio="none" x="13473.632812" y="-3539.794922" width="1.098633" height="1.098633"/>
<image xlink:href="tile68_24.png" preserveAspectRatio="none" x="13473.632812" y="-3540.893555" width="1.098633" height="1.098633"/>
<image xlink:href="tile68_23.png" preserveAspectRatio="none" x="13473.632812" y="-3541.992188" width="1.098633" height="1.098633"/>
<image xlink:href="tile68_21.png" preserveAspectRatio="none" x="13473.632812" y="-3544.189453" width="1.098633" height="1.098633"/>
<image xlink:href="tile68_19.png" preserveAspectRatio="none" x="13473.632812" y="-3546.386719" width="1.098633" height="1.098633"/>
<image xlink:href="tile68_16.png" preserveAspectRatio="none" x="13473.632812" y="-3549.682617" width="1.098633" height="1.098633"/>
<image xlink:href="tile68_15.png" preserveAspectRatio="none" x="13473.632812" y="-3550.78125" width="1.098633" height="1.098633"/>
<image xlink:href="tile69_30.png" preserveAspectRatio="none" x="13474.731445" y="-3534.301758" width="1.098633" height="1.098633"/>
<image xlink:href="tile69_29.png" preserveAspectRatio="none" x="13474.731445" y="-3535.400391" width="1.098633" height="1.098633"/>
<image xlink:href="tile69_28.png" preserveAspectRatio="none" x="13474.731445" y="-3536.499023" width="1.098633" height="1.098633"/>
<image xlink:href="tile69_25.png" preserveAspectRatio="none" x="13474.731445" y="-3539.794922" width="1.098633" height="1.098633"/>
<image xlink:href="tile69_24.png" preserveAspectRatio="none" x="13474.731445" y="-3540.893555" width="1.098633" height="1.098633"/>
<image xlink:href="tile69_23.png" preserveAspectRatio="none" x="13474.731445" y="-3541.992188" width="1.098633" height="1.098633"/>
<image xlink:href="tile69_19.png" preserveAspectRatio="none" x="13474.731445" y="-3546.386719" width="1.098633" height="1.098633"/>
<image xlink:href="tile69_16.png" preserveAspectRatio="none" x="13474.731445" y="-3549.682617" width="1.098633" height="1.098633"/>
<image xlink:href="tile70_29.png" preserveAspectRatio="none" x="13475.830078" y="-3535.400391" width="1.098633" height="1.098633"/>
<image xlink:href="tile70_28.png" preserveAspectRatio="none" x="13475.830078" y="-3536.499023" width="1.098633" height="1.098633"/>
<image xlink:href="tile70_27.png" preserveAspectRatio="none" x="13475.830078" y="-3537.597656" width="1.098633" height="1.098633"/>
<image xlink:href="tile70_26.png" preserveAspectRatio="none" x="13475.830078" y="-3538.696289" width="1.098633" height="1.098633"/>
<image xlink:href="tile70_25.png" preserveAspectRatio="none" x="13475.830078" y="-3539.794922" width="1.098633" height="1.098633"/>
<image xlink:href="tile70_24.png" preserveAspectRatio="none" x="13475.830078" y="-3540.893555" width="1.098633" height="1.098633"/>
<image xlink:href="tile70_19.png" preserveAspectRatio="none" x="13475.830078" y="-3546.386719" width="1.098633" height="1.098633"/>
<image xlink:href="tile70_18.png" preserveAspectRatio="none" x="13475.830078" y="-3547.485352" width="1.098633" height="1.098633"/>
<image xlink:href="tile70_16.png" preserveAspectRatio="none" x="13475.830078" y="-3549.682617" width="1.098633" height="1.098633"/>
<image xlink:href="tile70_15.png" preserveAspectRatio="none" x="13475.830078" y="-3550.78125" width="1.098633" height="1.098633"/>
<image xlink:href="tile71_29.png" preserveAspectRatio="none" x="13476.928711" y="-3535.400391" width="1.098633" height="1.098633"/>
<image xlink:href="tile71_27.png" preserveAspectRatio="none" x="13476.928711" y="-3537.597656" width="1.098633" height="1.098633"/>
<image xlink:href="tile71_26.png" preserveAspectRatio="none" x="13476.928711" y="-3538.696289" width="1.098633" height="1.098633"/>
<image xlink:href="tile71_24.png" preserveAspectRatio="none" x="13476.928711" y="-3540.893555" width="1.098633" height="1.098633"/>
<image xlink:href="tile71_23.png" preserveAspectRatio="none" x="13476.928711" y="-3541.992188" width="1.098633" height="1.098633"/>
<image xlink:href="tile71_21.png" preserveAspectRatio="none" x="13476.928711" y="-3544.189453" width="1.098633" height="1.098633"/>
<image xlink:href="tile71_20.png" preserveAspectRatio="none" x="13476.928711" y="-3545.288086" width="1.098633" height="1.098633"/>
<image xlink:href="tile71_19.png" preserveAspectRatio="none" x="13476.928711" y="-3546.386719" width="1.098633" height="1.098633"/>
<image xlink:href="tile71_18.png" preserveAspectRatio="none" x="13476.928711" y="-3547.485352" width="1.098633" height="1.098633"/>
<image xlink:href="tile71_17.png" preserveAspectRatio="none" x="13476.928711" y="-3548.583984" width="1.098633" height="1.098633"/>
<image xlink:href="tile71_16.png" preserveAspectRatio="none" x="13476.928711" y="-3549.682617" width="1.098633" height="1.098633"/>
<image xlink:href="tile71_15.png" preserveAspectRatio="none" x="13476.928711" y="-3550.78125" width="1.098633" height="1.098633"/>
<image xlink:href="tile72_29.png" preserveAspectRatio="none" x="13478.027344" y="-3535.400391" width="1.098633" height="1.098633"/>
<image xlink:href="tile72_26.png" preserveAspectRatio="none" x="13478.027344" y="-3538.696289" width="1.098633" height="1.098633"/>
<image xlink:href="tile72_25.png" preserveAspectRatio="none" x="13478.027344" y="-3539.794922" width="1.098633" height="1.098633"/>
<image xlink:href="tile72_24.png" preserveAspectRatio="none" x="13478.027344" y="-3540.893555" width="1.098633" height="1.098633"/>
<image xlink:href="tile72_23.png" preserveAspectRatio="none" x="13478.027344" y="-3541.992188" width="1.098633" height="1.098633"/>
<image xlink:href="tile72_22.png" preserveAspectRatio="none" x="13478.027344" y="-3543.09082" width="1.098633" height="1.098633"/>
<image xlink:href="tile72_21.png" preserveAspectRatio="none" x="13478.027344" y="-3544.189453" width="1.098633" height="1.098633"/>
<image xlink:href="tile72_20.png" preserveAspectRatio="none" x="13478.027344" y="-3545.288086" width="1.098633" height="1.098633"/>
<image xlink:href="tile72_19.png" preserveAspectRatio="none" x="13478.027344" y="-3546.386719" width="1.098633" height="1.098633"/>
<image xlink:href="tile72_18.png" preserveAspectRatio="none" x="13478.027344" y="-3547.485352" width="1.098633" height="1.098633"/>
<image xlink:href="tile72_17.png" preserveAspectRatio="none" x="13478.027344" y="-3548.583984" width="1.098633" height="1.098633"/>
<image xlink:href="tile72_16.png" preserveAspectRatio="none" x="13478.027344" y="-3549.682617" width="1.098633" height="1.098633"/>
<image xlink:href="tile72_15.png" preserveAspectRatio="none" x="13478.027344" y="-3550.78125" width="1.098633" height="1.098633"/>
<image xlink:href="tile73_26.png" preserveAspectRatio="none" x="13479.125977" y="-3538.696289" width="1.098633" height="1.098633"/>
<image xlink:href="tile73_25.png" preserveAspectRatio="none" x="13479.125977" y="-3539.794922" width="1.098633" height="1.098633"/>
<image xlink:href="tile73_23.png" preserveAspectRatio="none" x="13479.125977" y="-3541.992188" width="1.098633" height="1.098633"/>
<image xlink:href="tile73_22.png" preserveAspectRatio="none" x="13479.125977" y="-3543.09082" width="1.098633" height="1.098633"/>
<image xlink:href="tile73_21.png" preserveAspectRatio="none" x="13479.125977" y="-3544.189453" width="1.098633" height="1.098633"/>
<image xlink:href="tile73_18.png" preserveAspectRatio="none" x="13479.125977" y="-3547.485352" width="1.098633" height="1.098633"/>
<image xlink:href="tile73_17.png" preserveAspectRatio="none" x="13479.125977" y="-3548.583984" width="1.098633" height="1.098633"/>
<image xlink:href="tile73_16.png" preserveAspectRatio="none" x="13479.125977" y="-3549.682617" width="1.098633" height="1.098633"/>
<image xlink:href="tile73_15.png" preserveAspectRatio="none" x="13479.125977" y="-3550.78125" width="1.098633" height="1.098633"/>
<image xlink:href="tile74_27.png" preserveAspectRatio="none" x="13480.224609" y="-3537.597656" width="1.098633" height="1.098633"/>
<image xlink:href="tile74_26.png" preserveAspectRatio="none" x="13480.224609" y="-3538.696289" width="1.098633" height="1.098633"/>
<image xlink:href="tile74_25.png" preserveAspectRatio="none" x="13480.224609" y="-3539.794922" width="1.098633" height="1.098633"/>
<image xlink:href="tile74_23.png" preserveAspectRatio="none" x="13480.224609" y="-3541.992188" width="1.098633" height="1.098633"/>
<image xlink:href="tile74_22.png" preserveAspectRatio="none" x="13480.224609" y="-3543.09082" width="1.098633" height="1.098633"/>
<image xlink:href="tile74_21.png" preserveAspectRatio="none" x="13480.224609" y="-3544.189453" width="1.098633" height="1.098633"/>
<image xlink:href="tile74_18.png" preserveAspectRatio="none" x="13480.224609" y="-3547.485352" width="1.098633" height="1.098633"/>
<image xlink:href="tile74_17.png" preserveAspectRatio="none" x="13480.224609" y="-3548.583984" width="1.098633" height="1.098633"/>
<image xlink:href="tile74_16.png" preserveAspectRatio="none" x="13480.224609" y="-3549.682617" width="1.098633" height="1.098633"/>
<image xlink:href="tile74_15.png" preserveAspectRatio="none" x="13480.224609" y="-3550.78125" width="1.098633" height="1.098633"/>
<image xlink:href="tile75_28.png" preserveAspectRatio="none" x="13481.323242" y="-3536.499023" width="1.098633" height="1.098633"/>
<image xlink:href="tile75_27.png" preserveAspectRatio="none" x="13481.323242" y="-3537.597656" width="1.098633" height="1.098633"/>
<image xlink:href="tile75_26.png" preserveAspectRatio="none" x="13481.323242" y="-3538.696289" width="1.098633" height="1.098633"/>
<image xlink:href="tile75_25.png" preserveAspectRatio="none" x="13481.323242" y="-3539.794922" width="1.098633" height="1.098633"/>
<image xlink:href="tile75_23.png" preserveAspectRatio="none" x="13481.323242" y="-3541.992188" width="1.098633" height="1.098633"/>
<image xlink:href="tile75_22.png" preserveAspectRatio="none" x="13481.323242" y="-3543.09082" width="1.098633" height="1.098633"/>
<image xlink:href="tile75_21.png" preserveAspectRatio="none" x="13481.323242" y="-3544.189453" width="1.098633" height="1.098633"/>
<image xlink:href="tile75_20.png" preserveAspectRatio="none" x="13481.323242" y="-3545.288086" width="1.098633" height="1.098633"/>
<image xlink:href="tile75_17.png" preserveAspectRatio="none" x="13481.323242" y="-3548.583984" width="1.098633" height="1.098633"/>
<image xlink:href="tile75_16.png" preserveAspectRatio="none" x="13481.323242" y="-3549.682617" width="1.098633" height="1.098633"/>
<image xlink:href="tile75_15.png" preserveAspectRatio="none" x="13481.323242" y="-3550.78125" width="1.098633" height="1.098633"/>
<image xlink:href="tile76_29.png" preserveAspectRatio="none" x="13482.421875" y="-3535.400391" width="1.098633" height="1.098633"/>
<image xlink:href="tile76_28.png" preserveAspectRatio="none" x="13482.421875" y="-3536.499023" width="1.098633" height="1.098633"/>
<image xlink:href="tile76_25.png" preserveAspectRatio="none" x="13482.421875" y="-3539.794922" width="1.098633" height="1.098633"/>
<image xlink:href="tile76_23.png" preserveAspectRatio="none" x="13482.421875" y="-3541.992188" width="1.098633" height="1.098633"/>
<image xlink:href="tile76_21.png" preserveAspectRatio="none" x="13482.421875" y="-3544.189453" width="1.098633" height="1.098633"/>
<image xlink:href="tile76_20.png" preserveAspectRatio="none" x="13482.421875" y="-3545.288086" width="1.098633" height="1.098633"/>
<image xlink:href="tile76_19.png" preserveAspectRatio="none" x="13482.421875" y="-3546.386719" width="1.098633" height="1.098633"/>
<image xlink:href="tile76_18.png" preserveAspectRatio="none" x="13482.421875" y="-3547.485352" width="1.098633" height="1.098633"/>
<image xlink:href="tile76_17.png" preserveAspectRatio="none" x="13482.421875" y="-3548.583984" width="1.098633" height="1.098633"/>
<image xlink:href="tile76_16.png" preserveAspectRatio="none" x="13482.421875" y="-3549.682617" width="1.098633" height="1.098633"/>
<image xlink:href="tile76_15.png" preserveAspectRatio="none" x="13482.421875" y="-3550.78125" width="1.098633" height="1.098633"/>
<image xlink:href="tile77_30.png" preserveAspectRatio="none" x="13483.520508" y="-3534.301758" width="1.098633" height="1.098633"/>
<image xlink:href="tile77_29.png" preserveAspectRatio="none" x="13483.520508" y="-3535.400391" width="1.098633" height="1.098633"/>
<image xlink:href="tile77_28.png" preserveAspectRatio="none" x="13483.520508" y="-3536.499023" width="1.098633" height="1.098633"/>
<image xlink:href="tile77_25.png" preserveAspectRatio="none" x="13483.520508" y="-3539.794922" width="1.098633" height="1.098633"/>
<image xlink:href="tile77_24.png" preserveAspectRatio="none" x="13483.520508" y="-3540.893555" width="1.098633" height="1.098633"/>
<image xlink:href="tile77_19.png" preserveAspectRatio="none" x="13483.520508" y="-3546.386719" width="1.098633" height="1.098633"/>
<image xlink:href="tile77_18.png" preserveAspectRatio="none" x="13483.520508" y="-3547.485352" width="1.098633" height="1.098633"/>
<image xlink:href="tile77_17.png" preserveAspectRatio="none" x="13483.520508" y="-3548.583984" width="1.098633" height="1.098633"/>
<image xlink:href="tile77_16.png" preserveAspectRatio="none" x="13483.520508" y="-3549.682617" width="1.098633" height="1.098633"/>
<image xlink:href="tile77_15.png" preserveAspectRatio="none" x="13483.520508" y="-3550.78125" width="1.098633" height="1.098633"/>
<image xlink:href="tile78_30.png" preserveAspectRatio="none" x="13484.619141" y="-3534.301758" width="1.098633" height="1.098633"/>
<image xlink:href="tile78_29.png" preserveAspectRatio="none" x="13484.619141" y="-3535.400391" width="1.098633" height="1.098633"/>
<image xlink:href="tile78_28.png" preserveAspectRatio="none" x="13484.619141" y="-3536.499023" width="1.098633" height="1.098633"/>
<image xlink:href="tile78_25.png" preserveAspectRatio="none" x="13484.619141" y="-3539.794922" width="1.098633" height="1.098633"/>
<image xlink:href="tile78_18.png" preserveAspectRatio="none" x="13484.619141" y="-3547.485352" width="1.098633" height="1.098633"/>
<image xlink:href="tile78_17.png" preserveAspectRatio="none" x="13484.619141" y="-3548.583984" width="1.098633" height="1.098633"/>
<image xlink:href="tile78_16.png" preserveAspectRatio="none" x="13484.619141" y="-3549.682617" width="1.098633" height="1.098633"/>
<image xlink:href="tile78_15.png" preserveAspectRatio="none" x="13484.619141" y="-3550.78125" width="1.098633" height="1.098633"/>
<image xlink:href="tile79_30.png" preserveAspectRatio="none" x="13485.717773" y="-3534.301758" width="1.098633" height="1.098633"/>
<image xlink:href="tile79_29.png" preserveAspectRatio="none" x="13485.717773" y="-3535.400391" width="1.098633" height="1.098633"/>
<image xlink:href="tile79_27.png" preserveAspectRatio="none" x="13485.717773" y="-3537.597656" width="1.098633" height="1.098633"/>
<image xlink:href="tile79_23.png" preserveAspectRatio="none" x="13485.717773" y="-3541.992188" width="1.098633" height="1.098633"/>
<image xlink:href="tile79_22.png" preserveAspectRatio="none" x="13485.717773" y="-3543.09082" width="1.098633" height="1.098633"/>
<image xlink:href="tile79_21.png" preserveAspectRatio="none" x="13485.717773" y="-3544.189453" width="1.098633" height="1.098633"/>
<image xlink:href="tile79_20.png" preserveAspectRatio="none" x="13485.717773" y="-3545.288086" width="1.098633" height="1.098633"/>
<image xlink:href="tile79_19.png" preserveAspectRatio="none" x="13485.717773" y="-3546.386719" width="1.098633" height="1.098633"/>
<image xlink:href="tile79_18.png" preserveAspectRatio="none" x="13485.717773" y="-3547.485352" width="1.098633" height="1.098633"/>
<image xlink:href="tile79_17.png" preserveAspectRatio="none" x="13485.717773" y="-3548.583984" width="1.098633" height="1.098633"/>
<image xlink:href="tile79_16.png" preserveAspectRatio="none" x="13485.717773" y="-3549.682617" width="1.098633" height="1.098633"/>
<image xlink:href="tile79_15.png" preserveAspectRatio="none" x="13485.717773" y="-3550.78125" width="1.098633" height="1.098633"/>
</g>
</svg>
