<?xml version="1.0" encoding="UTF-8"?>
<svg  xmlns="http://www.w3.org/2000/svg" xmlns:xlink="http://www.w3.org/1999/xlink" xmlns:go="http://purl.org/svgmap/profile" viewBox="14000.0 -3710.6248023 47.78888760000086 43.95813530000012" go:dataArea="14000.0 -3710.6248023 47.78888760000086 43.95813530000012" >
<metadata>
 <rdf:RDF xmlns:rdf="http://www.w3.org/1999/02/22-rdf-syntax-ns#" xmlns:crs="http://opengis.org/xmldtds/transformations.dtd" xmlns:svg="http://www.w3.org/svg" >
  <rdf:Description>
   <crs:CoordinateReferenceSystem rdf:resource="http://purl.org/crs/84" svg:transform="matrix(100.0,0.0,0.0,-100.0,0.0,0.0)" />
  </rdf:Description>
 </rdf:RDF>
</metadata>
<globalCoordinateSystem srsName="http://purl.org/crs/84" transform="matrix(100.0,0.0,0.0,-100.0,0.0,0.0)" />
<g >
<image xlink:href="tile12_8.png" preserveAspectRatio="none" x="14013.061523" y="-3702.392578" width="1.098633" height="1.098633"/>
<image xlink:href="tile12_0.png" preserveAspectRatio="none" x="14013.061523" y="-3711.181641" width="1.098633" height="1.098633"/>
<image xlink:href="tile13_8.png" preserveAspectRatio="none" x="14014.160156" y="-3702.392578" width="1.098633" height="1.098633"/>
<image xlink:href="tile13_7.png" preserveAspectRatio="none" x="14014.160156" y="-3703.491211" width="1.098633" height="1.098633"/>
<image xlink:href="tile13_6.png" preserveAspectRatio="none" x="14014.160156" y="-3704.589844" width="1.098633" height="1.098633"/>
<image xlink:href="tile13_2.png" preserveAspectRatio="none" x="14014.160156" y="-3708.984375" width="1.098633" height="1.098633"/>
<image xlink:href="tile13_1.png" preserveAspectRatio="none" x="14014.160156" y="-3710.083008" width="1.098633" height="1.098633"/>
<image xlink:href="tile13_0.png" preserveAspectRatio="none" x="14014.160156" y="-3711.181641" width="1.098633" height="1.098633"/>
<image xlink:href="tile14_7.png" preserveAspectRatio="none" x="14015.258789" y="-3703.491211" width="1.098633" height="1.098633"/>
<image xlink:href="tile14_6.png" preserveAspectRatio="none" x="14015.258789" y="-3704.589844" width="1.098633" height="1.098633"/>
<image xlink:href="tile14_5.png" preserveAspectRatio="none" x="14015.258789" y="-3705.688477" width="1.098633" height="1.098633"/>
<image xlink:href="tile14_4.png" preserveAspectRatio="none" x="14015.258789" y="-3706.787109" width="1.098633" height="1.098633"/>
<image xlink:href="tile14_3.png" preserveAspectRatio="none" x="14015.258789" y="-3707.885742" width="1.098633" height="1.098633"/>
<image xlink:href="tile14_2.png" preserveAspectRatio="none" x="14015.258789" y="-3708.984375" width="1.098633" height="1.098633"/>
<image xlink:href="tile14_1.png" preserveAspectRatio="none" x="14015.258789" y="-3710.083008" width="1.098633" height="1.098633"/>
<image xlink:href="tile15_7.png" preserveAspectRatio="none" x="14016.357422" y="-3703.491211" width="1.098633" height="1.098633"/>
<image xlink:href="tile15_6.png" preserveAspectRatio="none" x="14016.357422" y="-3704.589844" width="1.098633" height="1.098633"/>
<image xlink:href="tile15_5.png" preserveAspectRatio="none" x="14016.357422" y="-3705.688477" width="1.098633" height="1.098633"/>
<image xlink:href="tile15_4.png" preserveAspectRatio="none" x="14016.357422" y="-3706.787109" width="1.098633" height="1.098633"/>
<image xlink:href="tile15_3.png" preserveAspectRatio="none" x="14016.357422" y="-3707.885742" width="1.098633" height="1.098633"/>
<image xlink:href="tile15_2.png" preserveAspectRatio="none" x="14016.357422" y="-3708.984375" width="1.098633" height="1.098633"/>
</g>
</svg>
