<?xml version="1.0" encoding="UTF-8"?>
<svg  xmlns="http://www.w3.org/2000/svg" xmlns:xlink="http://www.w3.org/1999/xlink" xmlns:go="http://purl.org/svgmap/profile" viewBox="14000.0 -3710.6248023 47.78888760000086 43.95813530000012" go:dataArea="14000.0 -3710.6248023 47.78888760000086 43.95813530000012" >
<metadata>
 <rdf:RDF xmlns:rdf="http://www.w3.org/1999/02/22-rdf-syntax-ns#" xmlns:crs="http://opengis.org/xmldtds/transformations.dtd" xmlns:svg="http://www.w3.org/svg" >
  <rdf:Description>
   <crs:CoordinateReferenceSystem rdf:resource="http://purl.org/crs/84" svg:transform="matrix(100.0,0.0,0.0,-100.0,0.0,0.0)" />
  </rdf:Description>
 </rdf:RDF>
</metadata>
<globalCoordinateSystem srsName="http://purl.org/crs/84" transform="matrix(100.0,0.0,0.0,-100.0,0.0,0.0)" />
<g >
<image xlink:href="tile0_24.png" preserveAspectRatio="none" x="13999.87793" y="-3684.814453" width="1.098633" height="1.098633"/>
<image xlink:href="tile0_23.png" preserveAspectRatio="none" x="13999.87793" y="-3685.913086" width="1.098633" height="1.098633"/>
<image xlink:href="tile0_22.png" preserveAspectRatio="none" x="13999.87793" y="-3687.011719" width="1.098633" height="1.098633"/>
<image xlink:href="tile0_21.png" preserveAspectRatio="none" x="13999.87793" y="-3688.110352" width="1.098633" height="1.098633"/>
<image xlink:href="tile0_17.png" preserveAspectRatio="none" x="13999.87793" y="-3692.504883" width="1.098633" height="1.098633"/>
<image xlink:href="tile0_16.png" preserveAspectRatio="none" x="13999.87793" y="-3693.603516" width="1.098633" height="1.098633"/>
<image xlink:href="tile0_15.png" preserveAspectRatio="none" x="13999.87793" y="-3694.702148" width="1.098633" height="1.098633"/>
<image xlink:href="tile0_14.png" preserveAspectRatio="none" x="13999.87793" y="-3695.800781" width="1.098633" height="1.098633"/>
<image xlink:href="tile1_24.png" preserveAspectRatio="none" x="14000.976562" y="-3684.814453" width="1.098633" height="1.098633"/>
<image xlink:href="tile1_23.png" preserveAspectRatio="none" x="14000.976562" y="-3685.913086" width="1.098633" height="1.098633"/>
<image xlink:href="tile1_22.png" preserveAspectRatio="none" x="14000.976562" y="-3687.011719" width="1.098633" height="1.098633"/>
<image xlink:href="tile1_21.png" preserveAspectRatio="none" x="14000.976562" y="-3688.110352" width="1.098633" height="1.098633"/>
<image xlink:href="tile1_18.png" preserveAspectRatio="none" x="14000.976562" y="-3691.40625" width="1.098633" height="1.098633"/>
<image xlink:href="tile1_17.png" preserveAspectRatio="none" x="14000.976562" y="-3692.504883" width="1.098633" height="1.098633"/>
<image xlink:href="tile1_16.png" preserveAspectRatio="none" x="14000.976562" y="-3693.603516" width="1.098633" height="1.098633"/>
<image xlink:href="tile1_15.png" preserveAspectRatio="none" x="14000.976562" y="-3694.702148" width="1.098633" height="1.098633"/>
<image xlink:href="tile2_24.png" preserveAspectRatio="none" x="14002.075195" y="-3684.814453" width="1.098633" height="1.098633"/>
<image xlink:href="tile2_23.png" preserveAspectRatio="none" x="14002.075195" y="-3685.913086" width="1.098633" height="1.098633"/>
<image xlink:href="tile2_22.png" preserveAspectRatio="none" x="14002.075195" y="-3687.011719" width="1.098633" height="1.098633"/>
<image xlink:href="tile2_21.png" preserveAspectRatio="none" x="14002.075195" y="-3688.110352" width="1.098633" height="1.098633"/>
<image xlink:href="tile2_20.png" preserveAspectRatio="none" x="14002.075195" y="-3689.208984" width="1.098633" height="1.098633"/>
<image xlink:href="tile2_19.png" preserveAspectRatio="none" x="14002.075195" y="-3690.307617" width="1.098633" height="1.098633"/>
<image xlink:href="tile2_18.png" preserveAspectRatio="none" x="14002.075195" y="-3691.40625" width="1.098633" height="1.098633"/>
<image xlink:href="tile2_17.png" preserveAspectRatio="none" x="14002.075195" y="-3692.504883" width="1.098633" height="1.098633"/>
<image xlink:href="tile2_16.png" preserveAspectRatio="none" x="14002.075195" y="-3693.603516" width="1.098633" height="1.098633"/>
<image xlink:href="tile2_15.png" preserveAspectRatio="none" x="14002.075195" y="-3694.702148" width="1.098633" height="1.098633"/>
<image xlink:href="tile3_24.png" preserveAspectRatio="none" x="14003.173828" y="-3684.814453" width="1.098633" height="1.098633"/>
<image xlink:href="tile3_23.png" preserveAspectRatio="none" x="14003.173828" y="-3685.913086" width="1.098633" height="1.098633"/>
<image xlink:href="tile3_20.png" preserveAspectRatio="none" x="14003.173828" y="-3689.208984" width="1.098633" height="1.098633"/>
<image xlink:href="tile3_19.png" preserveAspectRatio="none" x="14003.173828" y="-3690.307617" width="1.098633" height="1.098633"/>
<image xlink:href="tile3_18.png" preserveAspectRatio="none" x="14003.173828" y="-3691.40625" width="1.098633" height="1.098633"/>
<image xlink:href="tile3_17.png" preserveAspectRatio="none" x="14003.173828" y="-3692.504883" width="1.098633" height="1.098633"/>
<image xlink:href="tile3_16.png" preserveAspectRatio="none" x="14003.173828" y="-3693.603516" width="1.098633" height="1.098633"/>
<image xlink:href="tile4_24.png" preserveAspectRatio="none" x="14004.272461" y="-3684.814453" width="1.098633" height="1.098633"/>
<image xlink:href="tile4_19.png" preserveAspectRatio="none" x="14004.272461" y="-3690.307617" width="1.098633" height="1.098633"/>
<image xlink:href="tile4_18.png" preserveAspectRatio="none" x="14004.272461" y="-3691.40625" width="1.098633" height="1.098633"/>
<image xlink:href="tile4_17.png" preserveAspectRatio="none" x="14004.272461" y="-3692.504883" width="1.098633" height="1.098633"/>
<image xlink:href="tile4_16.png" preserveAspectRatio="none" x="14004.272461" y="-3693.603516" width="1.098633" height="1.098633"/>
<image xlink:href="tile5_19.png" preserveAspectRatio="none" x="14005.371094" y="-3690.307617" width="1.098633" height="1.098633"/>
<image xlink:href="tile5_18.png" preserveAspectRatio="none" x="14005.371094" y="-3691.40625" width="1.098633" height="1.098633"/>
<image xlink:href="tile6_21.png" preserveAspectRatio="none" x="14006.469727" y="-3688.110352" width="1.098633" height="1.098633"/>
<image xlink:href="tile6_20.png" preserveAspectRatio="none" x="14006.469727" y="-3689.208984" width="1.098633" height="1.098633"/>
<image xlink:href="tile6_19.png" preserveAspectRatio="none" x="14006.469727" y="-3690.307617" width="1.098633" height="1.098633"/>
<image xlink:href="tile7_22.png" preserveAspectRatio="none" x="14007.568359" y="-3687.011719" width="1.098633" height="1.098633"/>
<image xlink:href="tile7_21.png" preserveAspectRatio="none" x="14007.568359" y="-3688.110352" width="1.098633" height="1.098633"/>
<image xlink:href="tile7_20.png" preserveAspectRatio="none" x="14007.568359" y="-3689.208984" width="1.098633" height="1.098633"/>
<image xlink:href="tile8_22.png" preserveAspectRatio="none" x="14008.666992" y="-3687.011719" width="1.098633" height="1.098633"/>
<image xlink:href="tile8_21.png" preserveAspectRatio="none" x="14008.666992" y="-3688.110352" width="1.098633" height="1.098633"/>
<image xlink:href="tile9_23.png" preserveAspectRatio="none" x="14009.765625" y="-3685.913086" width="1.098633" height="1.098633"/>
<image xlink:href="tile9_22.png" preserveAspectRatio="none" x="14009.765625" y="-3687.011719" width="1.098633" height="1.098633"/>
<image xlink:href="tile10_22.png" preserveAspectRatio="none" x="14010.864258" y="-3687.011719" width="1.098633" height="1.098633"/>
<image xlink:href="tile12_15.png" preserveAspectRatio="none" x="14013.061523" y="-3694.702148" width="1.098633" height="1.098633"/>
<image xlink:href="tile12_14.png" preserveAspectRatio="none" x="14013.061523" y="-3695.800781" width="1.098633" height="1.098633"/>
<image xlink:href="tile12_13.png" preserveAspectRatio="none" x="14013.061523" y="-3696.899414" width="1.098633" height="1.098633"/>
<image xlink:href="tile12_12.png" preserveAspectRatio="none" x="14013.061523" y="-3697.998047" width="1.098633" height="1.098633"/>
<image xlink:href="tile12_11.png" preserveAspectRatio="none" x="14013.061523" y="-3699.09668" width="1.098633" height="1.098633"/>
<image xlink:href="tile12_10.png" preserveAspectRatio="none" x="14013.061523" y="-3700.195312" width="1.098633" height="1.098633"/>
<image xlink:href="tile12_9.png" preserveAspectRatio="none" x="14013.061523" y="-3701.293945" width="1.098633" height="1.098633"/>
<image xlink:href="tile13_15.png" preserveAspectRatio="none" x="14014.160156" y="-3694.702148" width="1.098633" height="1.098633"/>
<image xlink:href="tile13_14.png" preserveAspectRatio="none" x="14014.160156" y="-3695.800781" width="1.098633" height="1.098633"/>
<image xlink:href="tile13_13.png" preserveAspectRatio="none" x="14014.160156" y="-3696.899414" width="1.098633" height="1.098633"/>
<image xlink:href="tile13_12.png" preserveAspectRatio="none" x="14014.160156" y="-3697.998047" width="1.098633" height="1.098633"/>
<image xlink:href="tile13_11.png" preserveAspectRatio="none" x="14014.160156" y="-3699.09668" width="1.098633" height="1.098633"/>
<image xlink:href="tile13_10.png" preserveAspectRatio="none" x="14014.160156" y="-3700.195312" width="1.098633" height="1.098633"/>
<image xlink:href="tile13_9.png" preserveAspectRatio="none" x="14014.160156" y="-3701.293945" width="1.098633" height="1.098633"/>
<image xlink:href="tile14_14.png" preserveAspectRatio="none" x="14015.258789" y="-3695.800781" width="1.098633" height="1.098633"/>
<image xlink:href="tile14_13.png" preserveAspectRatio="none" x="14015.258789" y="-3696.899414" width="1.098633" height="1.098633"/>
<image xlink:href="tile14_12.png" preserveAspectRatio="none" x="14015.258789" y="-3697.998047" width="1.098633" height="1.098633"/>
<image xlink:href="tile14_11.png" preserveAspectRatio="none" x="14015.258789" y="-3699.09668" width="1.098633" height="1.098633"/>
<image xlink:href="tile14_10.png" preserveAspectRatio="none" x="14015.258789" y="-3700.195312" width="1.098633" height="1.098633"/>
<image xlink:href="tile15_14.png" preserveAspectRatio="none" x="14016.357422" y="-3695.800781" width="1.098633" height="1.098633"/>
<image xlink:href="tile15_13.png" preserveAspectRatio="none" x="14016.357422" y="-3696.899414" width="1.098633" height="1.098633"/>
<image xlink:href="tile15_11.png" preserveAspectRatio="none" x="14016.357422" y="-3699.09668" width="1.098633" height="1.098633"/>
<image xlink:href="tile15_10.png" preserveAspectRatio="none" x="14016.357422" y="-3700.195312" width="1.098633" height="1.098633"/>
</g>
</svg>
