<?xml version="1.0" encoding="UTF-8"?>
<svg  xmlns="http://www.w3.org/2000/svg" xmlns:xlink="http://www.w3.org/1999/xlink" xmlns:go="http://purl.org/svgmap/profile" viewBox="13100.0 -3400.0 96.83750000000089 60.17587750000004" go:dataArea="13100.0 -3400.0 96.83750000000089 60.17587750000004" >
<metadata>
 <rdf:RDF xmlns:rdf="http://www.w3.org/1999/02/22-rdf-syntax-ns#" xmlns:crs="http://opengis.org/xmldtds/transformations.dtd" xmlns:svg="http://www.w3.org/svg" >
  <rdf:Description>
   <crs:CoordinateReferenceSystem rdf:resource="http://purl.org/crs/84" svg:transform="matrix(100.0,0.0,0.0,-100.0,0.0,0.0)" />
  </rdf:Description>
 </rdf:RDF>
</metadata>
<globalCoordinateSystem srsName="http://purl.org/crs/84" transform="matrix(100.0,0.0,0.0,-100.0,0.0,0.0)" />
<g >
<image xlink:href="tile16_26.png" preserveAspectRatio="none" x="13133.056641" y="-3344.238281" width="2.197266" height="2.197266"/>
<image xlink:href="tile16_25.png" preserveAspectRatio="none" x="13133.056641" y="-3346.435547" width="2.197266" height="2.197266"/>
<image xlink:href="tile16_24.png" preserveAspectRatio="none" x="13133.056641" y="-3348.632812" width="2.197266" height="2.197266"/>
<image xlink:href="tile16_23.png" preserveAspectRatio="none" x="13133.056641" y="-3350.830078" width="2.197266" height="2.197266"/>
<image xlink:href="tile16_22.png" preserveAspectRatio="none" x="13133.056641" y="-3353.027344" width="2.197266" height="2.197266"/>
<image xlink:href="tile16_21.png" preserveAspectRatio="none" x="13133.056641" y="-3355.224609" width="2.197266" height="2.197266"/>
<image xlink:href="tile16_20.png" preserveAspectRatio="none" x="13133.056641" y="-3357.421875" width="2.197266" height="2.197266"/>
<image xlink:href="tile16_19.png" preserveAspectRatio="none" x="13133.056641" y="-3359.619141" width="2.197266" height="2.197266"/>
<image xlink:href="tile17_26.png" preserveAspectRatio="none" x="13135.253906" y="-3344.238281" width="2.197266" height="2.197266"/>
<image xlink:href="tile17_25.png" preserveAspectRatio="none" x="13135.253906" y="-3346.435547" width="2.197266" height="2.197266"/>
<image xlink:href="tile17_21.png" preserveAspectRatio="none" x="13135.253906" y="-3355.224609" width="2.197266" height="2.197266"/>
<image xlink:href="tile17_20.png" preserveAspectRatio="none" x="13135.253906" y="-3357.421875" width="2.197266" height="2.197266"/>
<image xlink:href="tile17_19.png" preserveAspectRatio="none" x="13135.253906" y="-3359.619141" width="2.197266" height="2.197266"/>
<image xlink:href="tile18_27.png" preserveAspectRatio="none" x="13137.451172" y="-3342.041016" width="2.197266" height="2.197266"/>
<image xlink:href="tile18_26.png" preserveAspectRatio="none" x="13137.451172" y="-3344.238281" width="2.197266" height="2.197266"/>
<image xlink:href="tile18_25.png" preserveAspectRatio="none" x="13137.451172" y="-3346.435547" width="2.197266" height="2.197266"/>
<image xlink:href="tile18_22.png" preserveAspectRatio="none" x="13137.451172" y="-3353.027344" width="2.197266" height="2.197266"/>
<image xlink:href="tile18_21.png" preserveAspectRatio="none" x="13137.451172" y="-3355.224609" width="2.197266" height="2.197266"/>
<image xlink:href="tile18_20.png" preserveAspectRatio="none" x="13137.451172" y="-3357.421875" width="2.197266" height="2.197266"/>
<image xlink:href="tile18_19.png" preserveAspectRatio="none" x="13137.451172" y="-3359.619141" width="2.197266" height="2.197266"/>
<image xlink:href="tile19_22.png" preserveAspectRatio="none" x="13139.648438" y="-3353.027344" width="2.197266" height="2.197266"/>
<image xlink:href="tile19_21.png" preserveAspectRatio="none" x="13139.648438" y="-3355.224609" width="2.197266" height="2.197266"/>
<image xlink:href="tile19_20.png" preserveAspectRatio="none" x="13139.648438" y="-3357.421875" width="2.197266" height="2.197266"/>
<image xlink:href="tile19_19.png" preserveAspectRatio="none" x="13139.648438" y="-3359.619141" width="2.197266" height="2.197266"/>
<image xlink:href="tile20_22.png" preserveAspectRatio="none" x="13141.845703" y="-3353.027344" width="2.197266" height="2.197266"/>
<image xlink:href="tile20_21.png" preserveAspectRatio="none" x="13141.845703" y="-3355.224609" width="2.197266" height="2.197266"/>
<image xlink:href="tile20_20.png" preserveAspectRatio="none" x="13141.845703" y="-3357.421875" width="2.197266" height="2.197266"/>
<image xlink:href="tile21_21.png" preserveAspectRatio="none" x="13144.042969" y="-3355.224609" width="2.197266" height="2.197266"/>
<image xlink:href="tile21_20.png" preserveAspectRatio="none" x="13144.042969" y="-3357.421875" width="2.197266" height="2.197266"/>
<image xlink:href="tile21_18.png" preserveAspectRatio="none" x="13144.042969" y="-3361.816406" width="2.197266" height="2.197266"/>
<image xlink:href="tile21_17.png" preserveAspectRatio="none" x="13144.042969" y="-3364.013672" width="2.197266" height="2.197266"/>
<image xlink:href="tile22_22.png" preserveAspectRatio="none" x="13146.240234" y="-3353.027344" width="2.197266" height="2.197266"/>
<image xlink:href="tile22_21.png" preserveAspectRatio="none" x="13146.240234" y="-3355.224609" width="2.197266" height="2.197266"/>
<image xlink:href="tile22_20.png" preserveAspectRatio="none" x="13146.240234" y="-3357.421875" width="2.197266" height="2.197266"/>
<image xlink:href="tile22_18.png" preserveAspectRatio="none" x="13146.240234" y="-3361.816406" width="2.197266" height="2.197266"/>
<image xlink:href="tile22_17.png" preserveAspectRatio="none" x="13146.240234" y="-3364.013672" width="2.197266" height="2.197266"/>
<image xlink:href="tile23_21.png" preserveAspectRatio="none" x="13148.4375" y="-3355.224609" width="2.197266" height="2.197266"/>
<image xlink:href="tile23_18.png" preserveAspectRatio="none" x="13148.4375" y="-3361.816406" width="2.197266" height="2.197266"/>
<image xlink:href="tile24_16.png" preserveAspectRatio="none" x="13150.634766" y="-3366.210938" width="2.197266" height="2.197266"/>
<image xlink:href="tile24_15.png" preserveAspectRatio="none" x="13150.634766" y="-3368.408203" width="2.197266" height="2.197266"/>
<image xlink:href="tile25_23.png" preserveAspectRatio="none" x="13152.832031" y="-3350.830078" width="2.197266" height="2.197266"/>
<image xlink:href="tile25_16.png" preserveAspectRatio="none" x="13152.832031" y="-3366.210938" width="2.197266" height="2.197266"/>
<image xlink:href="tile25_15.png" preserveAspectRatio="none" x="13152.832031" y="-3368.408203" width="2.197266" height="2.197266"/>
<image xlink:href="tile26_27.png" preserveAspectRatio="none" x="13155.029297" y="-3342.041016" width="2.197266" height="2.197266"/>
<image xlink:href="tile26_23.png" preserveAspectRatio="none" x="13155.029297" y="-3350.830078" width="2.197266" height="2.197266"/>
<image xlink:href="tile27_27.png" preserveAspectRatio="none" x="13157.226562" y="-3342.041016" width="2.197266" height="2.197266"/>
<image xlink:href="tile27_16.png" preserveAspectRatio="none" x="13157.226562" y="-3366.210938" width="2.197266" height="2.197266"/>
<image xlink:href="tile27_15.png" preserveAspectRatio="none" x="13157.226562" y="-3368.408203" width="2.197266" height="2.197266"/>
<image xlink:href="tile27_14.png" preserveAspectRatio="none" x="13157.226562" y="-3370.605469" width="2.197266" height="2.197266"/>
<image xlink:href="tile28_27.png" preserveAspectRatio="none" x="13159.423828" y="-3342.041016" width="2.197266" height="2.197266"/>
<image xlink:href="tile28_26.png" preserveAspectRatio="none" x="13159.423828" y="-3344.238281" width="2.197266" height="2.197266"/>
<image xlink:href="tile28_15.png" preserveAspectRatio="none" x="13159.423828" y="-3368.408203" width="2.197266" height="2.197266"/>
<image xlink:href="tile28_14.png" preserveAspectRatio="none" x="13159.423828" y="-3370.605469" width="2.197266" height="2.197266"/>
<image xlink:href="tile29_27.png" preserveAspectRatio="none" x="13161.621094" y="-3342.041016" width="2.197266" height="2.197266"/>
<image xlink:href="tile29_26.png" preserveAspectRatio="none" x="13161.621094" y="-3344.238281" width="2.197266" height="2.197266"/>
<image xlink:href="tile31_24.png" preserveAspectRatio="none" x="13166.015625" y="-3348.632812" width="2.197266" height="2.197266"/>
</g>
</svg>
