<?xml version="1.0" encoding="UTF-8"?>
<svg  xmlns="http://www.w3.org/2000/svg" xmlns:xlink="http://www.w3.org/1999/xlink" xmlns:go="http://purl.org/svgmap/profile" viewBox="13700.0 -3704.5017963 91.82555129999912 37.83512930000015" go:dataArea="13700.0 -3704.5017963 91.82555129999912 37.83512930000015" >
<metadata>
 <rdf:RDF xmlns:rdf="http://www.w3.org/1999/02/22-rdf-syntax-ns#" xmlns:crs="http://opengis.org/xmldtds/transformations.dtd" xmlns:svg="http://www.w3.org/svg" >
  <rdf:Description>
   <crs:CoordinateReferenceSystem rdf:resource="http://purl.org/crs/84" svg:transform="matrix(100.0,0.0,0.0,-100.0,0.0,0.0)" />
  </rdf:Description>
 </rdf:RDF>
</metadata>
<globalCoordinateSystem srsName="http://purl.org/crs/84" transform="matrix(100.0,0.0,0.0,-100.0,0.0,0.0)" />
<g >
<image xlink:href="tile0_17.png" preserveAspectRatio="none" x="13699.951172" y="-3667.236328" width="2.197266" height="2.197266"/>
<image xlink:href="tile0_16.png" preserveAspectRatio="none" x="13699.951172" y="-3669.433594" width="2.197266" height="2.197266"/>
<image xlink:href="tile0_15.png" preserveAspectRatio="none" x="13699.951172" y="-3671.630859" width="2.197266" height="2.197266"/>
<image xlink:href="tile0_14.png" preserveAspectRatio="none" x="13699.951172" y="-3673.828125" width="2.197266" height="2.197266"/>
<image xlink:href="tile0_13.png" preserveAspectRatio="none" x="13699.951172" y="-3676.025391" width="2.197266" height="2.197266"/>
<image xlink:href="tile0_12.png" preserveAspectRatio="none" x="13699.951172" y="-3678.222656" width="2.197266" height="2.197266"/>
<image xlink:href="tile0_6.png" preserveAspectRatio="none" x="13699.951172" y="-3691.40625" width="2.197266" height="2.197266"/>
<image xlink:href="tile0_5.png" preserveAspectRatio="none" x="13699.951172" y="-3693.603516" width="2.197266" height="2.197266"/>
<image xlink:href="tile1_17.png" preserveAspectRatio="none" x="13702.148438" y="-3667.236328" width="2.197266" height="2.197266"/>
<image xlink:href="tile1_16.png" preserveAspectRatio="none" x="13702.148438" y="-3669.433594" width="2.197266" height="2.197266"/>
<image xlink:href="tile1_15.png" preserveAspectRatio="none" x="13702.148438" y="-3671.630859" width="2.197266" height="2.197266"/>
<image xlink:href="tile1_14.png" preserveAspectRatio="none" x="13702.148438" y="-3673.828125" width="2.197266" height="2.197266"/>
<image xlink:href="tile1_13.png" preserveAspectRatio="none" x="13702.148438" y="-3676.025391" width="2.197266" height="2.197266"/>
<image xlink:href="tile1_12.png" preserveAspectRatio="none" x="13702.148438" y="-3678.222656" width="2.197266" height="2.197266"/>
<image xlink:href="tile1_6.png" preserveAspectRatio="none" x="13702.148438" y="-3691.40625" width="2.197266" height="2.197266"/>
<image xlink:href="tile2_16.png" preserveAspectRatio="none" x="13704.345703" y="-3669.433594" width="2.197266" height="2.197266"/>
<image xlink:href="tile2_15.png" preserveAspectRatio="none" x="13704.345703" y="-3671.630859" width="2.197266" height="2.197266"/>
<image xlink:href="tile2_14.png" preserveAspectRatio="none" x="13704.345703" y="-3673.828125" width="2.197266" height="2.197266"/>
<image xlink:href="tile2_13.png" preserveAspectRatio="none" x="13704.345703" y="-3676.025391" width="2.197266" height="2.197266"/>
<image xlink:href="tile2_12.png" preserveAspectRatio="none" x="13704.345703" y="-3678.222656" width="2.197266" height="2.197266"/>
<image xlink:href="tile2_11.png" preserveAspectRatio="none" x="13704.345703" y="-3680.419922" width="2.197266" height="2.197266"/>
<image xlink:href="tile3_17.png" preserveAspectRatio="none" x="13706.542969" y="-3667.236328" width="2.197266" height="2.197266"/>
<image xlink:href="tile3_16.png" preserveAspectRatio="none" x="13706.542969" y="-3669.433594" width="2.197266" height="2.197266"/>
<image xlink:href="tile3_15.png" preserveAspectRatio="none" x="13706.542969" y="-3671.630859" width="2.197266" height="2.197266"/>
<image xlink:href="tile3_14.png" preserveAspectRatio="none" x="13706.542969" y="-3673.828125" width="2.197266" height="2.197266"/>
<image xlink:href="tile3_13.png" preserveAspectRatio="none" x="13706.542969" y="-3676.025391" width="2.197266" height="2.197266"/>
<image xlink:href="tile3_12.png" preserveAspectRatio="none" x="13706.542969" y="-3678.222656" width="2.197266" height="2.197266"/>
<image xlink:href="tile3_11.png" preserveAspectRatio="none" x="13706.542969" y="-3680.419922" width="2.197266" height="2.197266"/>
<image xlink:href="tile4_15.png" preserveAspectRatio="none" x="13708.740234" y="-3671.630859" width="2.197266" height="2.197266"/>
<image xlink:href="tile4_14.png" preserveAspectRatio="none" x="13708.740234" y="-3673.828125" width="2.197266" height="2.197266"/>
<image xlink:href="tile4_13.png" preserveAspectRatio="none" x="13708.740234" y="-3676.025391" width="2.197266" height="2.197266"/>
<image xlink:href="tile4_12.png" preserveAspectRatio="none" x="13708.740234" y="-3678.222656" width="2.197266" height="2.197266"/>
<image xlink:href="tile4_11.png" preserveAspectRatio="none" x="13708.740234" y="-3680.419922" width="2.197266" height="2.197266"/>
<image xlink:href="tile5_15.png" preserveAspectRatio="none" x="13710.9375" y="-3671.630859" width="2.197266" height="2.197266"/>
<image xlink:href="tile5_14.png" preserveAspectRatio="none" x="13710.9375" y="-3673.828125" width="2.197266" height="2.197266"/>
<image xlink:href="tile5_13.png" preserveAspectRatio="none" x="13710.9375" y="-3676.025391" width="2.197266" height="2.197266"/>
<image xlink:href="tile5_12.png" preserveAspectRatio="none" x="13710.9375" y="-3678.222656" width="2.197266" height="2.197266"/>
<image xlink:href="tile6_17.png" preserveAspectRatio="none" x="13713.134766" y="-3667.236328" width="2.197266" height="2.197266"/>
<image xlink:href="tile6_16.png" preserveAspectRatio="none" x="13713.134766" y="-3669.433594" width="2.197266" height="2.197266"/>
<image xlink:href="tile6_15.png" preserveAspectRatio="none" x="13713.134766" y="-3671.630859" width="2.197266" height="2.197266"/>
<image xlink:href="tile6_14.png" preserveAspectRatio="none" x="13713.134766" y="-3673.828125" width="2.197266" height="2.197266"/>
<image xlink:href="tile6_13.png" preserveAspectRatio="none" x="13713.134766" y="-3676.025391" width="2.197266" height="2.197266"/>
<image xlink:href="tile6_12.png" preserveAspectRatio="none" x="13713.134766" y="-3678.222656" width="2.197266" height="2.197266"/>
<image xlink:href="tile7_17.png" preserveAspectRatio="none" x="13715.332031" y="-3667.236328" width="2.197266" height="2.197266"/>
<image xlink:href="tile7_16.png" preserveAspectRatio="none" x="13715.332031" y="-3669.433594" width="2.197266" height="2.197266"/>
<image xlink:href="tile7_15.png" preserveAspectRatio="none" x="13715.332031" y="-3671.630859" width="2.197266" height="2.197266"/>
<image xlink:href="tile7_14.png" preserveAspectRatio="none" x="13715.332031" y="-3673.828125" width="2.197266" height="2.197266"/>
<image xlink:href="tile7_13.png" preserveAspectRatio="none" x="13715.332031" y="-3676.025391" width="2.197266" height="2.197266"/>
<image xlink:href="tile7_12.png" preserveAspectRatio="none" x="13715.332031" y="-3678.222656" width="2.197266" height="2.197266"/>
<image xlink:href="tile8_17.png" preserveAspectRatio="none" x="13717.529297" y="-3667.236328" width="2.197266" height="2.197266"/>
<image xlink:href="tile8_16.png" preserveAspectRatio="none" x="13717.529297" y="-3669.433594" width="2.197266" height="2.197266"/>
<image xlink:href="tile8_15.png" preserveAspectRatio="none" x="13717.529297" y="-3671.630859" width="2.197266" height="2.197266"/>
<image xlink:href="tile8_14.png" preserveAspectRatio="none" x="13717.529297" y="-3673.828125" width="2.197266" height="2.197266"/>
<image xlink:href="tile8_13.png" preserveAspectRatio="none" x="13717.529297" y="-3676.025391" width="2.197266" height="2.197266"/>
<image xlink:href="tile8_12.png" preserveAspectRatio="none" x="13717.529297" y="-3678.222656" width="2.197266" height="2.197266"/>
<image xlink:href="tile9_17.png" preserveAspectRatio="none" x="13719.726562" y="-3667.236328" width="2.197266" height="2.197266"/>
<image xlink:href="tile9_16.png" preserveAspectRatio="none" x="13719.726562" y="-3669.433594" width="2.197266" height="2.197266"/>
<image xlink:href="tile9_15.png" preserveAspectRatio="none" x="13719.726562" y="-3671.630859" width="2.197266" height="2.197266"/>
<image xlink:href="tile9_14.png" preserveAspectRatio="none" x="13719.726562" y="-3673.828125" width="2.197266" height="2.197266"/>
<image xlink:href="tile9_13.png" preserveAspectRatio="none" x="13719.726562" y="-3676.025391" width="2.197266" height="2.197266"/>
<image xlink:href="tile9_12.png" preserveAspectRatio="none" x="13719.726562" y="-3678.222656" width="2.197266" height="2.197266"/>
<image xlink:href="tile10_17.png" preserveAspectRatio="none" x="13721.923828" y="-3667.236328" width="2.197266" height="2.197266"/>
<image xlink:href="tile10_16.png" preserveAspectRatio="none" x="13721.923828" y="-3669.433594" width="2.197266" height="2.197266"/>
<image xlink:href="tile10_15.png" preserveAspectRatio="none" x="13721.923828" y="-3671.630859" width="2.197266" height="2.197266"/>
<image xlink:href="tile10_14.png" preserveAspectRatio="none" x="13721.923828" y="-3673.828125" width="2.197266" height="2.197266"/>
<image xlink:href="tile10_13.png" preserveAspectRatio="none" x="13721.923828" y="-3676.025391" width="2.197266" height="2.197266"/>
<image xlink:href="tile10_12.png" preserveAspectRatio="none" x="13721.923828" y="-3678.222656" width="2.197266" height="2.197266"/>
<image xlink:href="tile11_17.png" preserveAspectRatio="none" x="13724.121094" y="-3667.236328" width="2.197266" height="2.197266"/>
<image xlink:href="tile11_16.png" preserveAspectRatio="none" x="13724.121094" y="-3669.433594" width="2.197266" height="2.197266"/>
<image xlink:href="tile11_15.png" preserveAspectRatio="none" x="13724.121094" y="-3671.630859" width="2.197266" height="2.197266"/>
<image xlink:href="tile11_14.png" preserveAspectRatio="none" x="13724.121094" y="-3673.828125" width="2.197266" height="2.197266"/>
<image xlink:href="tile11_13.png" preserveAspectRatio="none" x="13724.121094" y="-3676.025391" width="2.197266" height="2.197266"/>
<image xlink:href="tile11_12.png" preserveAspectRatio="none" x="13724.121094" y="-3678.222656" width="2.197266" height="2.197266"/>
<image xlink:href="tile12_17.png" preserveAspectRatio="none" x="13726.318359" y="-3667.236328" width="2.197266" height="2.197266"/>
<image xlink:href="tile12_16.png" preserveAspectRatio="none" x="13726.318359" y="-3669.433594" width="2.197266" height="2.197266"/>
<image xlink:href="tile12_15.png" preserveAspectRatio="none" x="13726.318359" y="-3671.630859" width="2.197266" height="2.197266"/>
<image xlink:href="tile12_14.png" preserveAspectRatio="none" x="13726.318359" y="-3673.828125" width="2.197266" height="2.197266"/>
<image xlink:href="tile12_13.png" preserveAspectRatio="none" x="13726.318359" y="-3676.025391" width="2.197266" height="2.197266"/>
<image xlink:href="tile12_12.png" preserveAspectRatio="none" x="13726.318359" y="-3678.222656" width="2.197266" height="2.197266"/>
<image xlink:href="tile13_17.png" preserveAspectRatio="none" x="13728.515625" y="-3667.236328" width="2.197266" height="2.197266"/>
<image xlink:href="tile13_16.png" preserveAspectRatio="none" x="13728.515625" y="-3669.433594" width="2.197266" height="2.197266"/>
<image xlink:href="tile13_15.png" preserveAspectRatio="none" x="13728.515625" y="-3671.630859" width="2.197266" height="2.197266"/>
<image xlink:href="tile13_14.png" preserveAspectRatio="none" x="13728.515625" y="-3673.828125" width="2.197266" height="2.197266"/>
<image xlink:href="tile13_13.png" preserveAspectRatio="none" x="13728.515625" y="-3676.025391" width="2.197266" height="2.197266"/>
<image xlink:href="tile14_17.png" preserveAspectRatio="none" x="13730.712891" y="-3667.236328" width="2.197266" height="2.197266"/>
<image xlink:href="tile14_16.png" preserveAspectRatio="none" x="13730.712891" y="-3669.433594" width="2.197266" height="2.197266"/>
<image xlink:href="tile14_15.png" preserveAspectRatio="none" x="13730.712891" y="-3671.630859" width="2.197266" height="2.197266"/>
<image xlink:href="tile14_14.png" preserveAspectRatio="none" x="13730.712891" y="-3673.828125" width="2.197266" height="2.197266"/>
<image xlink:href="tile14_13.png" preserveAspectRatio="none" x="13730.712891" y="-3676.025391" width="2.197266" height="2.197266"/>
<image xlink:href="tile14_12.png" preserveAspectRatio="none" x="13730.712891" y="-3678.222656" width="2.197266" height="2.197266"/>
<image xlink:href="tile15_17.png" preserveAspectRatio="none" x="13732.910156" y="-3667.236328" width="2.197266" height="2.197266"/>
<image xlink:href="tile15_16.png" preserveAspectRatio="none" x="13732.910156" y="-3669.433594" width="2.197266" height="2.197266"/>
<image xlink:href="tile15_15.png" preserveAspectRatio="none" x="13732.910156" y="-3671.630859" width="2.197266" height="2.197266"/>
<image xlink:href="tile15_14.png" preserveAspectRatio="none" x="13732.910156" y="-3673.828125" width="2.197266" height="2.197266"/>
<image xlink:href="tile15_13.png" preserveAspectRatio="none" x="13732.910156" y="-3676.025391" width="2.197266" height="2.197266"/>
<image xlink:href="tile15_12.png" preserveAspectRatio="none" x="13732.910156" y="-3678.222656" width="2.197266" height="2.197266"/>
</g>
</svg>
