<?xml version="1.0" encoding="UTF-8"?>
<svg  xmlns="http://www.w3.org/2000/svg" xmlns:xlink="http://www.w3.org/1999/xlink" xmlns:go="http://purl.org/svgmap/profile" viewBox="13700.0 -3704.5017963 91.82555129999912 37.83512930000015" go:dataArea="13700.0 -3704.5017963 91.82555129999912 37.83512930000015" >
<metadata>
 <rdf:RDF xmlns:rdf="http://www.w3.org/1999/02/22-rdf-syntax-ns#" xmlns:crs="http://opengis.org/xmldtds/transformations.dtd" xmlns:svg="http://www.w3.org/svg" >
  <rdf:Description>
   <crs:CoordinateReferenceSystem rdf:resource="http://purl.org/crs/84" svg:transform="matrix(100.0,0.0,0.0,-100.0,0.0,0.0)" />
  </rdf:Description>
 </rdf:RDF>
</metadata>
<globalCoordinateSystem srsName="http://purl.org/crs/84" transform="matrix(100.0,0.0,0.0,-100.0,0.0,0.0)" />
<g >
<image xlink:href="tile16_17.png" preserveAspectRatio="none" x="13735.107422" y="-3667.236328" width="2.197266" height="2.197266"/>
<image xlink:href="tile16_16.png" preserveAspectRatio="none" x="13735.107422" y="-3669.433594" width="2.197266" height="2.197266"/>
<image xlink:href="tile16_15.png" preserveAspectRatio="none" x="13735.107422" y="-3671.630859" width="2.197266" height="2.197266"/>
<image xlink:href="tile16_14.png" preserveAspectRatio="none" x="13735.107422" y="-3673.828125" width="2.197266" height="2.197266"/>
<image xlink:href="tile16_13.png" preserveAspectRatio="none" x="13735.107422" y="-3676.025391" width="2.197266" height="2.197266"/>
<image xlink:href="tile16_12.png" preserveAspectRatio="none" x="13735.107422" y="-3678.222656" width="2.197266" height="2.197266"/>
<image xlink:href="tile16_11.png" preserveAspectRatio="none" x="13735.107422" y="-3680.419922" width="2.197266" height="2.197266"/>
<image xlink:href="tile17_17.png" preserveAspectRatio="none" x="13737.304688" y="-3667.236328" width="2.197266" height="2.197266"/>
<image xlink:href="tile17_16.png" preserveAspectRatio="none" x="13737.304688" y="-3669.433594" width="2.197266" height="2.197266"/>
<image xlink:href="tile17_15.png" preserveAspectRatio="none" x="13737.304688" y="-3671.630859" width="2.197266" height="2.197266"/>
<image xlink:href="tile17_13.png" preserveAspectRatio="none" x="13737.304688" y="-3676.025391" width="2.197266" height="2.197266"/>
<image xlink:href="tile17_12.png" preserveAspectRatio="none" x="13737.304688" y="-3678.222656" width="2.197266" height="2.197266"/>
<image xlink:href="tile17_11.png" preserveAspectRatio="none" x="13737.304688" y="-3680.419922" width="2.197266" height="2.197266"/>
<image xlink:href="tile17_10.png" preserveAspectRatio="none" x="13737.304688" y="-3682.617188" width="2.197266" height="2.197266"/>
<image xlink:href="tile18_16.png" preserveAspectRatio="none" x="13739.501953" y="-3669.433594" width="2.197266" height="2.197266"/>
<image xlink:href="tile18_15.png" preserveAspectRatio="none" x="13739.501953" y="-3671.630859" width="2.197266" height="2.197266"/>
<image xlink:href="tile18_13.png" preserveAspectRatio="none" x="13739.501953" y="-3676.025391" width="2.197266" height="2.197266"/>
<image xlink:href="tile18_12.png" preserveAspectRatio="none" x="13739.501953" y="-3678.222656" width="2.197266" height="2.197266"/>
<image xlink:href="tile18_11.png" preserveAspectRatio="none" x="13739.501953" y="-3680.419922" width="2.197266" height="2.197266"/>
<image xlink:href="tile18_10.png" preserveAspectRatio="none" x="13739.501953" y="-3682.617188" width="2.197266" height="2.197266"/>
<image xlink:href="tile18_9.png" preserveAspectRatio="none" x="13739.501953" y="-3684.814453" width="2.197266" height="2.197266"/>
<image xlink:href="tile18_8.png" preserveAspectRatio="none" x="13739.501953" y="-3687.011719" width="2.197266" height="2.197266"/>
<image xlink:href="tile18_7.png" preserveAspectRatio="none" x="13739.501953" y="-3689.208984" width="2.197266" height="2.197266"/>
<image xlink:href="tile18_6.png" preserveAspectRatio="none" x="13739.501953" y="-3691.40625" width="2.197266" height="2.197266"/>
<image xlink:href="tile19_14.png" preserveAspectRatio="none" x="13741.699219" y="-3673.828125" width="2.197266" height="2.197266"/>
<image xlink:href="tile19_13.png" preserveAspectRatio="none" x="13741.699219" y="-3676.025391" width="2.197266" height="2.197266"/>
<image xlink:href="tile19_12.png" preserveAspectRatio="none" x="13741.699219" y="-3678.222656" width="2.197266" height="2.197266"/>
<image xlink:href="tile19_11.png" preserveAspectRatio="none" x="13741.699219" y="-3680.419922" width="2.197266" height="2.197266"/>
<image xlink:href="tile19_10.png" preserveAspectRatio="none" x="13741.699219" y="-3682.617188" width="2.197266" height="2.197266"/>
<image xlink:href="tile19_9.png" preserveAspectRatio="none" x="13741.699219" y="-3684.814453" width="2.197266" height="2.197266"/>
<image xlink:href="tile19_8.png" preserveAspectRatio="none" x="13741.699219" y="-3687.011719" width="2.197266" height="2.197266"/>
<image xlink:href="tile19_7.png" preserveAspectRatio="none" x="13741.699219" y="-3689.208984" width="2.197266" height="2.197266"/>
<image xlink:href="tile19_6.png" preserveAspectRatio="none" x="13741.699219" y="-3691.40625" width="2.197266" height="2.197266"/>
<image xlink:href="tile19_5.png" preserveAspectRatio="none" x="13741.699219" y="-3693.603516" width="2.197266" height="2.197266"/>
<image xlink:href="tile20_11.png" preserveAspectRatio="none" x="13743.896484" y="-3680.419922" width="2.197266" height="2.197266"/>
<image xlink:href="tile20_10.png" preserveAspectRatio="none" x="13743.896484" y="-3682.617188" width="2.197266" height="2.197266"/>
<image xlink:href="tile20_9.png" preserveAspectRatio="none" x="13743.896484" y="-3684.814453" width="2.197266" height="2.197266"/>
<image xlink:href="tile20_8.png" preserveAspectRatio="none" x="13743.896484" y="-3687.011719" width="2.197266" height="2.197266"/>
<image xlink:href="tile20_7.png" preserveAspectRatio="none" x="13743.896484" y="-3689.208984" width="2.197266" height="2.197266"/>
<image xlink:href="tile20_6.png" preserveAspectRatio="none" x="13743.896484" y="-3691.40625" width="2.197266" height="2.197266"/>
<image xlink:href="tile20_5.png" preserveAspectRatio="none" x="13743.896484" y="-3693.603516" width="2.197266" height="2.197266"/>
<image xlink:href="tile20_4.png" preserveAspectRatio="none" x="13743.896484" y="-3695.800781" width="2.197266" height="2.197266"/>
<image xlink:href="tile21_12.png" preserveAspectRatio="none" x="13746.09375" y="-3678.222656" width="2.197266" height="2.197266"/>
<image xlink:href="tile21_11.png" preserveAspectRatio="none" x="13746.09375" y="-3680.419922" width="2.197266" height="2.197266"/>
<image xlink:href="tile21_10.png" preserveAspectRatio="none" x="13746.09375" y="-3682.617188" width="2.197266" height="2.197266"/>
<image xlink:href="tile21_9.png" preserveAspectRatio="none" x="13746.09375" y="-3684.814453" width="2.197266" height="2.197266"/>
<image xlink:href="tile21_8.png" preserveAspectRatio="none" x="13746.09375" y="-3687.011719" width="2.197266" height="2.197266"/>
<image xlink:href="tile21_7.png" preserveAspectRatio="none" x="13746.09375" y="-3689.208984" width="2.197266" height="2.197266"/>
<image xlink:href="tile21_6.png" preserveAspectRatio="none" x="13746.09375" y="-3691.40625" width="2.197266" height="2.197266"/>
<image xlink:href="tile21_5.png" preserveAspectRatio="none" x="13746.09375" y="-3693.603516" width="2.197266" height="2.197266"/>
<image xlink:href="tile21_4.png" preserveAspectRatio="none" x="13746.09375" y="-3695.800781" width="2.197266" height="2.197266"/>
<image xlink:href="tile22_13.png" preserveAspectRatio="none" x="13748.291016" y="-3676.025391" width="2.197266" height="2.197266"/>
<image xlink:href="tile22_12.png" preserveAspectRatio="none" x="13748.291016" y="-3678.222656" width="2.197266" height="2.197266"/>
<image xlink:href="tile22_11.png" preserveAspectRatio="none" x="13748.291016" y="-3680.419922" width="2.197266" height="2.197266"/>
<image xlink:href="tile22_10.png" preserveAspectRatio="none" x="13748.291016" y="-3682.617188" width="2.197266" height="2.197266"/>
<image xlink:href="tile22_9.png" preserveAspectRatio="none" x="13748.291016" y="-3684.814453" width="2.197266" height="2.197266"/>
<image xlink:href="tile22_8.png" preserveAspectRatio="none" x="13748.291016" y="-3687.011719" width="2.197266" height="2.197266"/>
<image xlink:href="tile22_7.png" preserveAspectRatio="none" x="13748.291016" y="-3689.208984" width="2.197266" height="2.197266"/>
<image xlink:href="tile22_6.png" preserveAspectRatio="none" x="13748.291016" y="-3691.40625" width="2.197266" height="2.197266"/>
<image xlink:href="tile22_5.png" preserveAspectRatio="none" x="13748.291016" y="-3693.603516" width="2.197266" height="2.197266"/>
<image xlink:href="tile22_4.png" preserveAspectRatio="none" x="13748.291016" y="-3695.800781" width="2.197266" height="2.197266"/>
<image xlink:href="tile23_10.png" preserveAspectRatio="none" x="13750.488281" y="-3682.617188" width="2.197266" height="2.197266"/>
<image xlink:href="tile23_8.png" preserveAspectRatio="none" x="13750.488281" y="-3687.011719" width="2.197266" height="2.197266"/>
<image xlink:href="tile23_7.png" preserveAspectRatio="none" x="13750.488281" y="-3689.208984" width="2.197266" height="2.197266"/>
<image xlink:href="tile23_6.png" preserveAspectRatio="none" x="13750.488281" y="-3691.40625" width="2.197266" height="2.197266"/>
<image xlink:href="tile23_5.png" preserveAspectRatio="none" x="13750.488281" y="-3693.603516" width="2.197266" height="2.197266"/>
<image xlink:href="tile23_4.png" preserveAspectRatio="none" x="13750.488281" y="-3695.800781" width="2.197266" height="2.197266"/>
<image xlink:href="tile23_3.png" preserveAspectRatio="none" x="13750.488281" y="-3697.998047" width="2.197266" height="2.197266"/>
<image xlink:href="tile24_8.png" preserveAspectRatio="none" x="13752.685547" y="-3687.011719" width="2.197266" height="2.197266"/>
<image xlink:href="tile24_7.png" preserveAspectRatio="none" x="13752.685547" y="-3689.208984" width="2.197266" height="2.197266"/>
<image xlink:href="tile24_6.png" preserveAspectRatio="none" x="13752.685547" y="-3691.40625" width="2.197266" height="2.197266"/>
<image xlink:href="tile24_5.png" preserveAspectRatio="none" x="13752.685547" y="-3693.603516" width="2.197266" height="2.197266"/>
<image xlink:href="tile24_4.png" preserveAspectRatio="none" x="13752.685547" y="-3695.800781" width="2.197266" height="2.197266"/>
<image xlink:href="tile24_3.png" preserveAspectRatio="none" x="13752.685547" y="-3697.998047" width="2.197266" height="2.197266"/>
<image xlink:href="tile25_9.png" preserveAspectRatio="none" x="13754.882812" y="-3684.814453" width="2.197266" height="2.197266"/>
<image xlink:href="tile25_8.png" preserveAspectRatio="none" x="13754.882812" y="-3687.011719" width="2.197266" height="2.197266"/>
<image xlink:href="tile25_7.png" preserveAspectRatio="none" x="13754.882812" y="-3689.208984" width="2.197266" height="2.197266"/>
<image xlink:href="tile25_6.png" preserveAspectRatio="none" x="13754.882812" y="-3691.40625" width="2.197266" height="2.197266"/>
<image xlink:href="tile25_5.png" preserveAspectRatio="none" x="13754.882812" y="-3693.603516" width="2.197266" height="2.197266"/>
<image xlink:href="tile25_4.png" preserveAspectRatio="none" x="13754.882812" y="-3695.800781" width="2.197266" height="2.197266"/>
<image xlink:href="tile25_3.png" preserveAspectRatio="none" x="13754.882812" y="-3697.998047" width="2.197266" height="2.197266"/>
<image xlink:href="tile26_10.png" preserveAspectRatio="none" x="13757.080078" y="-3682.617188" width="2.197266" height="2.197266"/>
<image xlink:href="tile26_6.png" preserveAspectRatio="none" x="13757.080078" y="-3691.40625" width="2.197266" height="2.197266"/>
<image xlink:href="tile26_5.png" preserveAspectRatio="none" x="13757.080078" y="-3693.603516" width="2.197266" height="2.197266"/>
<image xlink:href="tile26_4.png" preserveAspectRatio="none" x="13757.080078" y="-3695.800781" width="2.197266" height="2.197266"/>
<image xlink:href="tile26_3.png" preserveAspectRatio="none" x="13757.080078" y="-3697.998047" width="2.197266" height="2.197266"/>
<image xlink:href="tile27_6.png" preserveAspectRatio="none" x="13759.277344" y="-3691.40625" width="2.197266" height="2.197266"/>
<image xlink:href="tile27_4.png" preserveAspectRatio="none" x="13759.277344" y="-3695.800781" width="2.197266" height="2.197266"/>
<image xlink:href="tile28_3.png" preserveAspectRatio="none" x="13761.474609" y="-3697.998047" width="2.197266" height="2.197266"/>
<image xlink:href="tile29_3.png" preserveAspectRatio="none" x="13763.671875" y="-3697.998047" width="2.197266" height="2.197266"/>
</g>
</svg>
