<?xml version="1.0" encoding="UTF-8"?>
<svg  xmlns="http://www.w3.org/2000/svg" xmlns:xlink="http://www.w3.org/1999/xlink" xmlns:go="http://purl.org/svgmap/profile" viewBox="13800.0 -3600.0 100.0 66.47917579999998" go:dataArea="13800.0 -3600.0 100.0 66.47917579999998" >
<metadata>
 <rdf:RDF xmlns:rdf="http://www.w3.org/1999/02/22-rdf-syntax-ns#" xmlns:crs="http://opengis.org/xmldtds/transformations.dtd" xmlns:svg="http://www.w3.org/svg" >
  <rdf:Description>
   <crs:CoordinateReferenceSystem rdf:resource="http://purl.org/crs/84" svg:transform="matrix(100.0,0.0,0.0,-100.0,0.0,0.0)" />
  </rdf:Description>
 </rdf:RDF>
</metadata>
<globalCoordinateSystem srsName="http://purl.org/crs/84" transform="matrix(100.0,0.0,0.0,-100.0,0.0,0.0)" />
<g >
<image xlink:href="tile0_2.png" preserveAspectRatio="none" x="13798.828125" y="-3594.726562" width="4.394531" height="4.394531"/>
<image xlink:href="tile0_1.png" preserveAspectRatio="none" x="13798.828125" y="-3599.121094" width="4.394531" height="4.394531"/>
<image xlink:href="tile0_0.png" preserveAspectRatio="none" x="13798.828125" y="-3603.515625" width="4.394531" height="4.394531"/>
<image xlink:href="tile2_0.png" preserveAspectRatio="none" x="13807.617188" y="-3603.515625" width="4.394531" height="4.394531"/>
<image xlink:href="tile3_1.png" preserveAspectRatio="none" x="13812.011719" y="-3599.121094" width="4.394531" height="4.394531"/>
<image xlink:href="tile3_0.png" preserveAspectRatio="none" x="13812.011719" y="-3603.515625" width="4.394531" height="4.394531"/>
<image xlink:href="tile4_0.png" preserveAspectRatio="none" x="13816.40625" y="-3603.515625" width="4.394531" height="4.394531"/>
<image xlink:href="tile8_5.png" preserveAspectRatio="none" x="13833.984375" y="-3581.542969" width="4.394531" height="4.394531"/>
<image xlink:href="tile9_8.png" preserveAspectRatio="none" x="13838.378906" y="-3568.359375" width="4.394531" height="4.394531"/>
<image xlink:href="tile9_7.png" preserveAspectRatio="none" x="13838.378906" y="-3572.753906" width="4.394531" height="4.394531"/>
<image xlink:href="tile9_6.png" preserveAspectRatio="none" x="13838.378906" y="-3577.148438" width="4.394531" height="4.394531"/>
<image xlink:href="tile9_5.png" preserveAspectRatio="none" x="13838.378906" y="-3581.542969" width="4.394531" height="4.394531"/>
<image xlink:href="tile10_15.png" preserveAspectRatio="none" x="13842.773438" y="-3537.597656" width="4.394531" height="4.394531"/>
<image xlink:href="tile10_14.png" preserveAspectRatio="none" x="13842.773438" y="-3541.992188" width="4.394531" height="4.394531"/>
<image xlink:href="tile10_13.png" preserveAspectRatio="none" x="13842.773438" y="-3546.386719" width="4.394531" height="4.394531"/>
<image xlink:href="tile10_12.png" preserveAspectRatio="none" x="13842.773438" y="-3550.78125" width="4.394531" height="4.394531"/>
<image xlink:href="tile10_11.png" preserveAspectRatio="none" x="13842.773438" y="-3555.175781" width="4.394531" height="4.394531"/>
<image xlink:href="tile10_10.png" preserveAspectRatio="none" x="13842.773438" y="-3559.570312" width="4.394531" height="4.394531"/>
<image xlink:href="tile10_9.png" preserveAspectRatio="none" x="13842.773438" y="-3563.964844" width="4.394531" height="4.394531"/>
<image xlink:href="tile10_8.png" preserveAspectRatio="none" x="13842.773438" y="-3568.359375" width="4.394531" height="4.394531"/>
<image xlink:href="tile10_7.png" preserveAspectRatio="none" x="13842.773438" y="-3572.753906" width="4.394531" height="4.394531"/>
<image xlink:href="tile10_6.png" preserveAspectRatio="none" x="13842.773438" y="-3577.148438" width="4.394531" height="4.394531"/>
<image xlink:href="tile10_5.png" preserveAspectRatio="none" x="13842.773438" y="-3581.542969" width="4.394531" height="4.394531"/>
<image xlink:href="tile11_11.png" preserveAspectRatio="none" x="13847.167969" y="-3555.175781" width="4.394531" height="4.394531"/>
<image xlink:href="tile11_10.png" preserveAspectRatio="none" x="13847.167969" y="-3559.570312" width="4.394531" height="4.394531"/>
<image xlink:href="tile11_9.png" preserveAspectRatio="none" x="13847.167969" y="-3563.964844" width="4.394531" height="4.394531"/>
<image xlink:href="tile11_8.png" preserveAspectRatio="none" x="13847.167969" y="-3568.359375" width="4.394531" height="4.394531"/>
<image xlink:href="tile11_7.png" preserveAspectRatio="none" x="13847.167969" y="-3572.753906" width="4.394531" height="4.394531"/>
<image xlink:href="tile11_1.png" preserveAspectRatio="none" x="13847.167969" y="-3599.121094" width="4.394531" height="4.394531"/>
<image xlink:href="tile11_0.png" preserveAspectRatio="none" x="13847.167969" y="-3603.515625" width="4.394531" height="4.394531"/>
<image xlink:href="tile12_10.png" preserveAspectRatio="none" x="13851.5625" y="-3559.570312" width="4.394531" height="4.394531"/>
<image xlink:href="tile12_9.png" preserveAspectRatio="none" x="13851.5625" y="-3563.964844" width="4.394531" height="4.394531"/>
<image xlink:href="tile12_8.png" preserveAspectRatio="none" x="13851.5625" y="-3568.359375" width="4.394531" height="4.394531"/>
<image xlink:href="tile12_7.png" preserveAspectRatio="none" x="13851.5625" y="-3572.753906" width="4.394531" height="4.394531"/>
<image xlink:href="tile12_1.png" preserveAspectRatio="none" x="13851.5625" y="-3599.121094" width="4.394531" height="4.394531"/>
<image xlink:href="tile12_0.png" preserveAspectRatio="none" x="13851.5625" y="-3603.515625" width="4.394531" height="4.394531"/>
<image xlink:href="tile13_10.png" preserveAspectRatio="none" x="13855.957031" y="-3559.570312" width="4.394531" height="4.394531"/>
<image xlink:href="tile13_9.png" preserveAspectRatio="none" x="13855.957031" y="-3563.964844" width="4.394531" height="4.394531"/>
<image xlink:href="tile13_8.png" preserveAspectRatio="none" x="13855.957031" y="-3568.359375" width="4.394531" height="4.394531"/>
<image xlink:href="tile13_7.png" preserveAspectRatio="none" x="13855.957031" y="-3572.753906" width="4.394531" height="4.394531"/>
<image xlink:href="tile13_1.png" preserveAspectRatio="none" x="13855.957031" y="-3599.121094" width="4.394531" height="4.394531"/>
<image xlink:href="tile14_10.png" preserveAspectRatio="none" x="13860.351562" y="-3559.570312" width="4.394531" height="4.394531"/>
<image xlink:href="tile14_9.png" preserveAspectRatio="none" x="13860.351562" y="-3563.964844" width="4.394531" height="4.394531"/>
<image xlink:href="tile14_8.png" preserveAspectRatio="none" x="13860.351562" y="-3568.359375" width="4.394531" height="4.394531"/>
<image xlink:href="tile14_1.png" preserveAspectRatio="none" x="13860.351562" y="-3599.121094" width="4.394531" height="4.394531"/>
<image xlink:href="tile15_8.png" preserveAspectRatio="none" x="13864.746094" y="-3568.359375" width="4.394531" height="4.394531"/>
<image xlink:href="tile15_7.png" preserveAspectRatio="none" x="13864.746094" y="-3572.753906" width="4.394531" height="4.394531"/>
<image xlink:href="tile15_1.png" preserveAspectRatio="none" x="13864.746094" y="-3599.121094" width="4.394531" height="4.394531"/>
</g>
</svg>
