<?xml version="1.0" encoding="UTF-8"?>
<svg  xmlns="http://www.w3.org/2000/svg" xmlns:xlink="http://www.w3.org/1999/xlink" xmlns:go="http://purl.org/svgmap/profile" viewBox="14000.0 -3710.6248023 47.78888760000086 43.95813530000012" go:dataArea="14000.0 -3710.6248023 47.78888760000086 43.95813530000012" >
<metadata>
 <rdf:RDF xmlns:rdf="http://www.w3.org/1999/02/22-rdf-syntax-ns#" xmlns:crs="http://opengis.org/xmldtds/transformations.dtd" xmlns:svg="http://www.w3.org/svg" >
  <rdf:Description>
   <crs:CoordinateReferenceSystem rdf:resource="http://purl.org/crs/84" svg:transform="matrix(100.0,0.0,0.0,-100.0,0.0,0.0)" />
  </rdf:Description>
 </rdf:RDF>
</metadata>
<globalCoordinateSystem srsName="http://purl.org/crs/84" transform="matrix(100.0,0.0,0.0,-100.0,0.0,0.0)" />
<g >
<image xlink:href="tile0_20.png" preserveAspectRatio="none" x="13998.779297" y="-3667.236328" width="2.197266" height="2.197266"/>
<image xlink:href="tile0_19.png" preserveAspectRatio="none" x="13998.779297" y="-3669.433594" width="2.197266" height="2.197266"/>
<image xlink:href="tile0_15.png" preserveAspectRatio="none" x="13998.779297" y="-3678.222656" width="2.197266" height="2.197266"/>
<image xlink:href="tile0_14.png" preserveAspectRatio="none" x="13998.779297" y="-3680.419922" width="2.197266" height="2.197266"/>
<image xlink:href="tile0_12.png" preserveAspectRatio="none" x="13998.779297" y="-3684.814453" width="2.197266" height="2.197266"/>
<image xlink:href="tile0_11.png" preserveAspectRatio="none" x="13998.779297" y="-3687.011719" width="2.197266" height="2.197266"/>
<image xlink:href="tile0_10.png" preserveAspectRatio="none" x="13998.779297" y="-3689.208984" width="2.197266" height="2.197266"/>
<image xlink:href="tile0_8.png" preserveAspectRatio="none" x="13998.779297" y="-3693.603516" width="2.197266" height="2.197266"/>
<image xlink:href="tile0_7.png" preserveAspectRatio="none" x="13998.779297" y="-3695.800781" width="2.197266" height="2.197266"/>
<image xlink:href="tile1_20.png" preserveAspectRatio="none" x="14000.976562" y="-3667.236328" width="2.197266" height="2.197266"/>
<image xlink:href="tile1_19.png" preserveAspectRatio="none" x="14000.976562" y="-3669.433594" width="2.197266" height="2.197266"/>
<image xlink:href="tile1_16.png" preserveAspectRatio="none" x="14000.976562" y="-3676.025391" width="2.197266" height="2.197266"/>
<image xlink:href="tile1_15.png" preserveAspectRatio="none" x="14000.976562" y="-3678.222656" width="2.197266" height="2.197266"/>
<image xlink:href="tile1_13.png" preserveAspectRatio="none" x="14000.976562" y="-3682.617188" width="2.197266" height="2.197266"/>
<image xlink:href="tile1_12.png" preserveAspectRatio="none" x="14000.976562" y="-3684.814453" width="2.197266" height="2.197266"/>
<image xlink:href="tile1_11.png" preserveAspectRatio="none" x="14000.976562" y="-3687.011719" width="2.197266" height="2.197266"/>
<image xlink:href="tile1_10.png" preserveAspectRatio="none" x="14000.976562" y="-3689.208984" width="2.197266" height="2.197266"/>
<image xlink:href="tile1_9.png" preserveAspectRatio="none" x="14000.976562" y="-3691.40625" width="2.197266" height="2.197266"/>
<image xlink:href="tile1_8.png" preserveAspectRatio="none" x="14000.976562" y="-3693.603516" width="2.197266" height="2.197266"/>
<image xlink:href="tile1_7.png" preserveAspectRatio="none" x="14000.976562" y="-3695.800781" width="2.197266" height="2.197266"/>
<image xlink:href="tile2_17.png" preserveAspectRatio="none" x="14003.173828" y="-3673.828125" width="2.197266" height="2.197266"/>
<image xlink:href="tile2_16.png" preserveAspectRatio="none" x="14003.173828" y="-3676.025391" width="2.197266" height="2.197266"/>
<image xlink:href="tile2_13.png" preserveAspectRatio="none" x="14003.173828" y="-3682.617188" width="2.197266" height="2.197266"/>
<image xlink:href="tile2_12.png" preserveAspectRatio="none" x="14003.173828" y="-3684.814453" width="2.197266" height="2.197266"/>
<image xlink:href="tile2_11.png" preserveAspectRatio="none" x="14003.173828" y="-3687.011719" width="2.197266" height="2.197266"/>
<image xlink:href="tile2_10.png" preserveAspectRatio="none" x="14003.173828" y="-3689.208984" width="2.197266" height="2.197266"/>
<image xlink:href="tile2_9.png" preserveAspectRatio="none" x="14003.173828" y="-3691.40625" width="2.197266" height="2.197266"/>
<image xlink:href="tile2_8.png" preserveAspectRatio="none" x="14003.173828" y="-3693.603516" width="2.197266" height="2.197266"/>
<image xlink:href="tile3_18.png" preserveAspectRatio="none" x="14005.371094" y="-3671.630859" width="2.197266" height="2.197266"/>
<image xlink:href="tile3_17.png" preserveAspectRatio="none" x="14005.371094" y="-3673.828125" width="2.197266" height="2.197266"/>
<image xlink:href="tile3_13.png" preserveAspectRatio="none" x="14005.371094" y="-3682.617188" width="2.197266" height="2.197266"/>
<image xlink:href="tile3_12.png" preserveAspectRatio="none" x="14005.371094" y="-3684.814453" width="2.197266" height="2.197266"/>
<image xlink:href="tile3_10.png" preserveAspectRatio="none" x="14005.371094" y="-3689.208984" width="2.197266" height="2.197266"/>
<image xlink:href="tile3_9.png" preserveAspectRatio="none" x="14005.371094" y="-3691.40625" width="2.197266" height="2.197266"/>
<image xlink:href="tile4_18.png" preserveAspectRatio="none" x="14007.568359" y="-3671.630859" width="2.197266" height="2.197266"/>
<image xlink:href="tile4_11.png" preserveAspectRatio="none" x="14007.568359" y="-3687.011719" width="2.197266" height="2.197266"/>
<image xlink:href="tile4_10.png" preserveAspectRatio="none" x="14007.568359" y="-3689.208984" width="2.197266" height="2.197266"/>
<image xlink:href="tile5_19.png" preserveAspectRatio="none" x="14009.765625" y="-3669.433594" width="2.197266" height="2.197266"/>
<image xlink:href="tile5_18.png" preserveAspectRatio="none" x="14009.765625" y="-3671.630859" width="2.197266" height="2.197266"/>
<image xlink:href="tile5_11.png" preserveAspectRatio="none" x="14009.765625" y="-3687.011719" width="2.197266" height="2.197266"/>
<image xlink:href="tile6_20.png" preserveAspectRatio="none" x="14011.962891" y="-3667.236328" width="2.197266" height="2.197266"/>
<image xlink:href="tile6_19.png" preserveAspectRatio="none" x="14011.962891" y="-3669.433594" width="2.197266" height="2.197266"/>
<image xlink:href="tile6_7.png" preserveAspectRatio="none" x="14011.962891" y="-3695.800781" width="2.197266" height="2.197266"/>
<image xlink:href="tile6_6.png" preserveAspectRatio="none" x="14011.962891" y="-3697.998047" width="2.197266" height="2.197266"/>
<image xlink:href="tile6_5.png" preserveAspectRatio="none" x="14011.962891" y="-3700.195312" width="2.197266" height="2.197266"/>
<image xlink:href="tile7_17.png" preserveAspectRatio="none" x="14014.160156" y="-3673.828125" width="2.197266" height="2.197266"/>
<image xlink:href="tile7_16.png" preserveAspectRatio="none" x="14014.160156" y="-3676.025391" width="2.197266" height="2.197266"/>
<image xlink:href="tile7_7.png" preserveAspectRatio="none" x="14014.160156" y="-3695.800781" width="2.197266" height="2.197266"/>
<image xlink:href="tile7_6.png" preserveAspectRatio="none" x="14014.160156" y="-3697.998047" width="2.197266" height="2.197266"/>
<image xlink:href="tile7_5.png" preserveAspectRatio="none" x="14014.160156" y="-3700.195312" width="2.197266" height="2.197266"/>
<image xlink:href="tile8_17.png" preserveAspectRatio="none" x="14016.357422" y="-3673.828125" width="2.197266" height="2.197266"/>
<image xlink:href="tile8_16.png" preserveAspectRatio="none" x="14016.357422" y="-3676.025391" width="2.197266" height="2.197266"/>
<image xlink:href="tile8_7.png" preserveAspectRatio="none" x="14016.357422" y="-3695.800781" width="2.197266" height="2.197266"/>
<image xlink:href="tile8_6.png" preserveAspectRatio="none" x="14016.357422" y="-3697.998047" width="2.197266" height="2.197266"/>
<image xlink:href="tile8_5.png" preserveAspectRatio="none" x="14016.357422" y="-3700.195312" width="2.197266" height="2.197266"/>
<image xlink:href="tile9_16.png" preserveAspectRatio="none" x="14018.554688" y="-3676.025391" width="2.197266" height="2.197266"/>
<image xlink:href="tile9_15.png" preserveAspectRatio="none" x="14018.554688" y="-3678.222656" width="2.197266" height="2.197266"/>
<image xlink:href="tile9_13.png" preserveAspectRatio="none" x="14018.554688" y="-3682.617188" width="2.197266" height="2.197266"/>
<image xlink:href="tile9_12.png" preserveAspectRatio="none" x="14018.554688" y="-3684.814453" width="2.197266" height="2.197266"/>
<image xlink:href="tile9_6.png" preserveAspectRatio="none" x="14018.554688" y="-3697.998047" width="2.197266" height="2.197266"/>
<image xlink:href="tile9_5.png" preserveAspectRatio="none" x="14018.554688" y="-3700.195312" width="2.197266" height="2.197266"/>
<image xlink:href="tile10_16.png" preserveAspectRatio="none" x="14020.751953" y="-3676.025391" width="2.197266" height="2.197266"/>
<image xlink:href="tile10_15.png" preserveAspectRatio="none" x="14020.751953" y="-3678.222656" width="2.197266" height="2.197266"/>
<image xlink:href="tile10_14.png" preserveAspectRatio="none" x="14020.751953" y="-3680.419922" width="2.197266" height="2.197266"/>
<image xlink:href="tile10_13.png" preserveAspectRatio="none" x="14020.751953" y="-3682.617188" width="2.197266" height="2.197266"/>
<image xlink:href="tile10_11.png" preserveAspectRatio="none" x="14020.751953" y="-3687.011719" width="2.197266" height="2.197266"/>
<image xlink:href="tile10_10.png" preserveAspectRatio="none" x="14020.751953" y="-3689.208984" width="2.197266" height="2.197266"/>
<image xlink:href="tile10_9.png" preserveAspectRatio="none" x="14020.751953" y="-3691.40625" width="2.197266" height="2.197266"/>
<image xlink:href="tile10_5.png" preserveAspectRatio="none" x="14020.751953" y="-3700.195312" width="2.197266" height="2.197266"/>
<image xlink:href="tile11_9.png" preserveAspectRatio="none" x="14022.949219" y="-3691.40625" width="2.197266" height="2.197266"/>
<image xlink:href="tile11_8.png" preserveAspectRatio="none" x="14022.949219" y="-3693.603516" width="2.197266" height="2.197266"/>
</g>
</svg>
