<?xml version="1.0" encoding="UTF-8"?>
<svg  xmlns="http://www.w3.org/2000/svg" xmlns:xlink="http://www.w3.org/1999/xlink" xmlns:go="http://purl.org/svgmap/profile" viewBox="14000.776823 -3800.0 99.22317699999894 66.66666699999979" go:dataArea="14000.776823 -3800.0 99.22317699999894 66.66666699999979" >
<metadata>
 <rdf:RDF xmlns:rdf="http://www.w3.org/1999/02/22-rdf-syntax-ns#" xmlns:crs="http://opengis.org/xmldtds/transformations.dtd" xmlns:svg="http://www.w3.org/svg" >
  <rdf:Description>
   <crs:CoordinateReferenceSystem rdf:resource="http://purl.org/crs/84" svg:transform="matrix(100.0,0.0,0.0,-100.0,0.0,0.0)" />
  </rdf:Description>
 </rdf:RDF>
</metadata>
<globalCoordinateSystem srsName="http://purl.org/crs/84" transform="matrix(100.0,0.0,0.0,-100.0,0.0,0.0)" />
<g >
<image xlink:href="tile0_1.png" preserveAspectRatio="none" x="13992.1875" y="-3796.875" width="8.789062" height="8.789062"/>
<image xlink:href="tile1_5.png" preserveAspectRatio="none" x="14000.976562" y="-3761.71875" width="8.789062" height="8.789062"/>
<image xlink:href="tile1_2.png" preserveAspectRatio="none" x="14000.976562" y="-3788.085938" width="8.789062" height="8.789062"/>
<image xlink:href="tile1_1.png" preserveAspectRatio="none" x="14000.976562" y="-3796.875" width="8.789062" height="8.789062"/>
<image xlink:href="tile1_0.png" preserveAspectRatio="none" x="14000.976562" y="-3805.664062" width="8.789062" height="8.789062"/>
<image xlink:href="tile2_6.png" preserveAspectRatio="none" x="14009.765625" y="-3752.929688" width="8.789062" height="8.789062"/>
<image xlink:href="tile2_5.png" preserveAspectRatio="none" x="14009.765625" y="-3761.71875" width="8.789062" height="8.789062"/>
<image xlink:href="tile2_2.png" preserveAspectRatio="none" x="14009.765625" y="-3788.085938" width="8.789062" height="8.789062"/>
<image xlink:href="tile2_1.png" preserveAspectRatio="none" x="14009.765625" y="-3796.875" width="8.789062" height="8.789062"/>
<image xlink:href="tile2_0.png" preserveAspectRatio="none" x="14009.765625" y="-3805.664062" width="8.789062" height="8.789062"/>
<image xlink:href="tile3_7.png" preserveAspectRatio="none" x="14018.554688" y="-3744.140625" width="8.789062" height="8.789062"/>
<image xlink:href="tile3_1.png" preserveAspectRatio="none" x="14018.554688" y="-3796.875" width="8.789062" height="8.789062"/>
<image xlink:href="tile3_0.png" preserveAspectRatio="none" x="14018.554688" y="-3805.664062" width="8.789062" height="8.789062"/>
<image xlink:href="tile4_7.png" preserveAspectRatio="none" x="14027.34375" y="-3744.140625" width="8.789062" height="8.789062"/>
<image xlink:href="tile4_3.png" preserveAspectRatio="none" x="14027.34375" y="-3779.296875" width="8.789062" height="8.789062"/>
<image xlink:href="tile5_8.png" preserveAspectRatio="none" x="14036.132812" y="-3735.351562" width="8.789062" height="8.789062"/>
<image xlink:href="tile5_7.png" preserveAspectRatio="none" x="14036.132812" y="-3744.140625" width="8.789062" height="8.789062"/>
<image xlink:href="tile5_6.png" preserveAspectRatio="none" x="14036.132812" y="-3752.929688" width="8.789062" height="8.789062"/>
<image xlink:href="tile5_5.png" preserveAspectRatio="none" x="14036.132812" y="-3761.71875" width="8.789062" height="8.789062"/>
<image xlink:href="tile5_3.png" preserveAspectRatio="none" x="14036.132812" y="-3779.296875" width="8.789062" height="8.789062"/>
<image xlink:href="tile6_5.png" preserveAspectRatio="none" x="14044.921875" y="-3761.71875" width="8.789062" height="8.789062"/>
<image xlink:href="tile6_3.png" preserveAspectRatio="none" x="14044.921875" y="-3779.296875" width="8.789062" height="8.789062"/>
<image xlink:href="tile6_2.png" preserveAspectRatio="none" x="14044.921875" y="-3788.085938" width="8.789062" height="8.789062"/>
<image xlink:href="tile7_2.png" preserveAspectRatio="none" x="14053.710938" y="-3788.085938" width="8.789062" height="8.789062"/>
<image xlink:href="tile7_1.png" preserveAspectRatio="none" x="14053.710938" y="-3796.875" width="8.789062" height="8.789062"/>
<image xlink:href="tile7_0.png" preserveAspectRatio="none" x="14053.710938" y="-3805.664062" width="8.789062" height="8.789062"/>
<image xlink:href="tile8_2.png" preserveAspectRatio="none" x="14062.5" y="-3788.085938" width="8.789062" height="8.789062"/>
<image xlink:href="tile8_1.png" preserveAspectRatio="none" x="14062.5" y="-3796.875" width="8.789062" height="8.789062"/>
<image xlink:href="tile8_0.png" preserveAspectRatio="none" x="14062.5" y="-3805.664062" width="8.789062" height="8.789062"/>
<image xlink:href="tile9_1.png" preserveAspectRatio="none" x="14071.289062" y="-3796.875" width="8.789062" height="8.789062"/>
<image xlink:href="tile9_0.png" preserveAspectRatio="none" x="14071.289062" y="-3805.664062" width="8.789062" height="8.789062"/>
<image xlink:href="tile10_2.png" preserveAspectRatio="none" x="14080.078125" y="-3788.085938" width="8.789062" height="8.789062"/>
<image xlink:href="tile10_1.png" preserveAspectRatio="none" x="14080.078125" y="-3796.875" width="8.789062" height="8.789062"/>
<image xlink:href="tile10_0.png" preserveAspectRatio="none" x="14080.078125" y="-3805.664062" width="8.789062" height="8.789062"/>
<image xlink:href="tile11_8.png" preserveAspectRatio="none" x="14088.867188" y="-3735.351562" width="8.789062" height="8.789062"/>
<image xlink:href="tile11_7.png" preserveAspectRatio="none" x="14088.867188" y="-3744.140625" width="8.789062" height="8.789062"/>
<image xlink:href="tile11_6.png" preserveAspectRatio="none" x="14088.867188" y="-3752.929688" width="8.789062" height="8.789062"/>
<image xlink:href="tile11_3.png" preserveAspectRatio="none" x="14088.867188" y="-3779.296875" width="8.789062" height="8.789062"/>
<image xlink:href="tile11_2.png" preserveAspectRatio="none" x="14088.867188" y="-3788.085938" width="8.789062" height="8.789062"/>
<image xlink:href="tile11_1.png" preserveAspectRatio="none" x="14088.867188" y="-3796.875" width="8.789062" height="8.789062"/>
<image xlink:href="tile11_0.png" preserveAspectRatio="none" x="14088.867188" y="-3805.664062" width="8.789062" height="8.789062"/>
<image xlink:href="tile12_8.png" preserveAspectRatio="none" x="14097.65625" y="-3735.351562" width="8.789062" height="8.789062"/>
<image xlink:href="tile12_7.png" preserveAspectRatio="none" x="14097.65625" y="-3744.140625" width="8.789062" height="8.789062"/>
<image xlink:href="tile12_6.png" preserveAspectRatio="none" x="14097.65625" y="-3752.929688" width="8.789062" height="8.789062"/>
</g>
</svg>
