<?xml version="1.0" encoding="UTF-8"?>
<svg  xmlns="http://www.w3.org/2000/svg" xmlns:xlink="http://www.w3.org/1999/xlink" xmlns:go="http://purl.org/svgmap/profile" viewBox="13300.0 -3466.666667 100.0 66.66666699999979" go:dataArea="13300.0 -3466.666667 100.0 66.66666699999979" >
<metadata>
 <rdf:RDF xmlns:rdf="http://www.w3.org/1999/02/22-rdf-syntax-ns#" xmlns:crs="http://opengis.org/xmldtds/transformations.dtd" xmlns:svg="http://www.w3.org/svg" >
  <rdf:Description>
   <crs:CoordinateReferenceSystem rdf:resource="http://purl.org/crs/84" svg:transform="matrix(100.0,0.0,0.0,-100.0,0.0,0.0)" />
  </rdf:Description>
 </rdf:RDF>
</metadata>
<globalCoordinateSystem srsName="http://purl.org/crs/84" transform="matrix(100.0,0.0,0.0,-100.0,0.0,0.0)" />
<g >
<image xlink:href="tile64_43.png" preserveAspectRatio="none" x="13369.262695" y="-3420.043945" width="1.098633" height="1.098633"/>
<image xlink:href="tile64_42.png" preserveAspectRatio="none" x="13369.262695" y="-3421.142578" width="1.098633" height="1.098633"/>
<image xlink:href="tile64_41.png" preserveAspectRatio="none" x="13369.262695" y="-3422.241211" width="1.098633" height="1.098633"/>
<image xlink:href="tile64_40.png" preserveAspectRatio="none" x="13369.262695" y="-3423.339844" width="1.098633" height="1.098633"/>
<image xlink:href="tile65_44.png" preserveAspectRatio="none" x="13370.361328" y="-3418.945312" width="1.098633" height="1.098633"/>
<image xlink:href="tile65_43.png" preserveAspectRatio="none" x="13370.361328" y="-3420.043945" width="1.098633" height="1.098633"/>
<image xlink:href="tile65_42.png" preserveAspectRatio="none" x="13370.361328" y="-3421.142578" width="1.098633" height="1.098633"/>
<image xlink:href="tile65_41.png" preserveAspectRatio="none" x="13370.361328" y="-3422.241211" width="1.098633" height="1.098633"/>
<image xlink:href="tile66_44.png" preserveAspectRatio="none" x="13371.459961" y="-3418.945312" width="1.098633" height="1.098633"/>
<image xlink:href="tile66_43.png" preserveAspectRatio="none" x="13371.459961" y="-3420.043945" width="1.098633" height="1.098633"/>
<image xlink:href="tile66_42.png" preserveAspectRatio="none" x="13371.459961" y="-3421.142578" width="1.098633" height="1.098633"/>
<image xlink:href="tile66_41.png" preserveAspectRatio="none" x="13371.459961" y="-3422.241211" width="1.098633" height="1.098633"/>
<image xlink:href="tile66_38.png" preserveAspectRatio="none" x="13371.459961" y="-3425.537109" width="1.098633" height="1.098633"/>
<image xlink:href="tile67_45.png" preserveAspectRatio="none" x="13372.558594" y="-3417.84668" width="1.098633" height="1.098633"/>
<image xlink:href="tile67_44.png" preserveAspectRatio="none" x="13372.558594" y="-3418.945312" width="1.098633" height="1.098633"/>
<image xlink:href="tile67_43.png" preserveAspectRatio="none" x="13372.558594" y="-3420.043945" width="1.098633" height="1.098633"/>
<image xlink:href="tile67_42.png" preserveAspectRatio="none" x="13372.558594" y="-3421.142578" width="1.098633" height="1.098633"/>
<image xlink:href="tile67_38.png" preserveAspectRatio="none" x="13372.558594" y="-3425.537109" width="1.098633" height="1.098633"/>
<image xlink:href="tile67_37.png" preserveAspectRatio="none" x="13372.558594" y="-3426.635742" width="1.098633" height="1.098633"/>
<image xlink:href="tile67_36.png" preserveAspectRatio="none" x="13372.558594" y="-3427.734375" width="1.098633" height="1.098633"/>
<image xlink:href="tile67_35.png" preserveAspectRatio="none" x="13372.558594" y="-3428.833008" width="1.098633" height="1.098633"/>
<image xlink:href="tile68_45.png" preserveAspectRatio="none" x="13373.657227" y="-3417.84668" width="1.098633" height="1.098633"/>
<image xlink:href="tile68_43.png" preserveAspectRatio="none" x="13373.657227" y="-3420.043945" width="1.098633" height="1.098633"/>
<image xlink:href="tile68_42.png" preserveAspectRatio="none" x="13373.657227" y="-3421.142578" width="1.098633" height="1.098633"/>
<image xlink:href="tile68_40.png" preserveAspectRatio="none" x="13373.657227" y="-3423.339844" width="1.098633" height="1.098633"/>
<image xlink:href="tile68_39.png" preserveAspectRatio="none" x="13373.657227" y="-3424.438477" width="1.098633" height="1.098633"/>
<image xlink:href="tile68_38.png" preserveAspectRatio="none" x="13373.657227" y="-3425.537109" width="1.098633" height="1.098633"/>
<image xlink:href="tile68_37.png" preserveAspectRatio="none" x="13373.657227" y="-3426.635742" width="1.098633" height="1.098633"/>
<image xlink:href="tile68_36.png" preserveAspectRatio="none" x="13373.657227" y="-3427.734375" width="1.098633" height="1.098633"/>
<image xlink:href="tile68_35.png" preserveAspectRatio="none" x="13373.657227" y="-3428.833008" width="1.098633" height="1.098633"/>
<image xlink:href="tile69_45.png" preserveAspectRatio="none" x="13374.755859" y="-3417.84668" width="1.098633" height="1.098633"/>
<image xlink:href="tile69_40.png" preserveAspectRatio="none" x="13374.755859" y="-3423.339844" width="1.098633" height="1.098633"/>
<image xlink:href="tile69_39.png" preserveAspectRatio="none" x="13374.755859" y="-3424.438477" width="1.098633" height="1.098633"/>
<image xlink:href="tile69_38.png" preserveAspectRatio="none" x="13374.755859" y="-3425.537109" width="1.098633" height="1.098633"/>
<image xlink:href="tile69_37.png" preserveAspectRatio="none" x="13374.755859" y="-3426.635742" width="1.098633" height="1.098633"/>
<image xlink:href="tile69_36.png" preserveAspectRatio="none" x="13374.755859" y="-3427.734375" width="1.098633" height="1.098633"/>
<image xlink:href="tile69_35.png" preserveAspectRatio="none" x="13374.755859" y="-3428.833008" width="1.098633" height="1.098633"/>
<image xlink:href="tile70_45.png" preserveAspectRatio="none" x="13375.854492" y="-3417.84668" width="1.098633" height="1.098633"/>
<image xlink:href="tile70_40.png" preserveAspectRatio="none" x="13375.854492" y="-3423.339844" width="1.098633" height="1.098633"/>
<image xlink:href="tile70_39.png" preserveAspectRatio="none" x="13375.854492" y="-3424.438477" width="1.098633" height="1.098633"/>
<image xlink:href="tile70_38.png" preserveAspectRatio="none" x="13375.854492" y="-3425.537109" width="1.098633" height="1.098633"/>
<image xlink:href="tile70_37.png" preserveAspectRatio="none" x="13375.854492" y="-3426.635742" width="1.098633" height="1.098633"/>
<image xlink:href="tile70_36.png" preserveAspectRatio="none" x="13375.854492" y="-3427.734375" width="1.098633" height="1.098633"/>
<image xlink:href="tile70_35.png" preserveAspectRatio="none" x="13375.854492" y="-3428.833008" width="1.098633" height="1.098633"/>
<image xlink:href="tile70_34.png" preserveAspectRatio="none" x="13375.854492" y="-3429.931641" width="1.098633" height="1.098633"/>
<image xlink:href="tile71_42.png" preserveAspectRatio="none" x="13376.953125" y="-3421.142578" width="1.098633" height="1.098633"/>
<image xlink:href="tile71_41.png" preserveAspectRatio="none" x="13376.953125" y="-3422.241211" width="1.098633" height="1.098633"/>
<image xlink:href="tile71_40.png" preserveAspectRatio="none" x="13376.953125" y="-3423.339844" width="1.098633" height="1.098633"/>
<image xlink:href="tile71_39.png" preserveAspectRatio="none" x="13376.953125" y="-3424.438477" width="1.098633" height="1.098633"/>
<image xlink:href="tile71_38.png" preserveAspectRatio="none" x="13376.953125" y="-3425.537109" width="1.098633" height="1.098633"/>
<image xlink:href="tile71_37.png" preserveAspectRatio="none" x="13376.953125" y="-3426.635742" width="1.098633" height="1.098633"/>
<image xlink:href="tile71_36.png" preserveAspectRatio="none" x="13376.953125" y="-3427.734375" width="1.098633" height="1.098633"/>
<image xlink:href="tile71_35.png" preserveAspectRatio="none" x="13376.953125" y="-3428.833008" width="1.098633" height="1.098633"/>
<image xlink:href="tile71_34.png" preserveAspectRatio="none" x="13376.953125" y="-3429.931641" width="1.098633" height="1.098633"/>
<image xlink:href="tile72_41.png" preserveAspectRatio="none" x="13378.051758" y="-3422.241211" width="1.098633" height="1.098633"/>
<image xlink:href="tile72_40.png" preserveAspectRatio="none" x="13378.051758" y="-3423.339844" width="1.098633" height="1.098633"/>
<image xlink:href="tile72_39.png" preserveAspectRatio="none" x="13378.051758" y="-3424.438477" width="1.098633" height="1.098633"/>
<image xlink:href="tile72_38.png" preserveAspectRatio="none" x="13378.051758" y="-3425.537109" width="1.098633" height="1.098633"/>
<image xlink:href="tile72_37.png" preserveAspectRatio="none" x="13378.051758" y="-3426.635742" width="1.098633" height="1.098633"/>
<image xlink:href="tile72_36.png" preserveAspectRatio="none" x="13378.051758" y="-3427.734375" width="1.098633" height="1.098633"/>
<image xlink:href="tile72_35.png" preserveAspectRatio="none" x="13378.051758" y="-3428.833008" width="1.098633" height="1.098633"/>
<image xlink:href="tile72_34.png" preserveAspectRatio="none" x="13378.051758" y="-3429.931641" width="1.098633" height="1.098633"/>
<image xlink:href="tile72_33.png" preserveAspectRatio="none" x="13378.051758" y="-3431.030273" width="1.098633" height="1.098633"/>
<image xlink:href="tile73_42.png" preserveAspectRatio="none" x="13379.150391" y="-3421.142578" width="1.098633" height="1.098633"/>
<image xlink:href="tile73_41.png" preserveAspectRatio="none" x="13379.150391" y="-3422.241211" width="1.098633" height="1.098633"/>
<image xlink:href="tile73_40.png" preserveAspectRatio="none" x="13379.150391" y="-3423.339844" width="1.098633" height="1.098633"/>
<image xlink:href="tile73_39.png" preserveAspectRatio="none" x="13379.150391" y="-3424.438477" width="1.098633" height="1.098633"/>
<image xlink:href="tile73_38.png" preserveAspectRatio="none" x="13379.150391" y="-3425.537109" width="1.098633" height="1.098633"/>
<image xlink:href="tile73_37.png" preserveAspectRatio="none" x="13379.150391" y="-3426.635742" width="1.098633" height="1.098633"/>
<image xlink:href="tile73_36.png" preserveAspectRatio="none" x="13379.150391" y="-3427.734375" width="1.098633" height="1.098633"/>
<image xlink:href="tile73_35.png" preserveAspectRatio="none" x="13379.150391" y="-3428.833008" width="1.098633" height="1.098633"/>
<image xlink:href="tile73_34.png" preserveAspectRatio="none" x="13379.150391" y="-3429.931641" width="1.098633" height="1.098633"/>
<image xlink:href="tile73_33.png" preserveAspectRatio="none" x="13379.150391" y="-3431.030273" width="1.098633" height="1.098633"/>
<image xlink:href="tile74_43.png" preserveAspectRatio="none" x="13380.249023" y="-3420.043945" width="1.098633" height="1.098633"/>
<image xlink:href="tile74_42.png" preserveAspectRatio="none" x="13380.249023" y="-3421.142578" width="1.098633" height="1.098633"/>
<image xlink:href="tile74_41.png" preserveAspectRatio="none" x="13380.249023" y="-3422.241211" width="1.098633" height="1.098633"/>
<image xlink:href="tile74_40.png" preserveAspectRatio="none" x="13380.249023" y="-3423.339844" width="1.098633" height="1.098633"/>
<image xlink:href="tile74_39.png" preserveAspectRatio="none" x="13380.249023" y="-3424.438477" width="1.098633" height="1.098633"/>
<image xlink:href="tile74_38.png" preserveAspectRatio="none" x="13380.249023" y="-3425.537109" width="1.098633" height="1.098633"/>
<image xlink:href="tile74_37.png" preserveAspectRatio="none" x="13380.249023" y="-3426.635742" width="1.098633" height="1.098633"/>
<image xlink:href="tile74_36.png" preserveAspectRatio="none" x="13380.249023" y="-3427.734375" width="1.098633" height="1.098633"/>
<image xlink:href="tile74_35.png" preserveAspectRatio="none" x="13380.249023" y="-3428.833008" width="1.098633" height="1.098633"/>
<image xlink:href="tile74_34.png" preserveAspectRatio="none" x="13380.249023" y="-3429.931641" width="1.098633" height="1.098633"/>
<image xlink:href="tile74_33.png" preserveAspectRatio="none" x="13380.249023" y="-3431.030273" width="1.098633" height="1.098633"/>
<image xlink:href="tile74_32.png" preserveAspectRatio="none" x="13380.249023" y="-3432.128906" width="1.098633" height="1.098633"/>
<image xlink:href="tile75_44.png" preserveAspectRatio="none" x="13381.347656" y="-3418.945312" width="1.098633" height="1.098633"/>
<image xlink:href="tile75_43.png" preserveAspectRatio="none" x="13381.347656" y="-3420.043945" width="1.098633" height="1.098633"/>
<image xlink:href="tile75_42.png" preserveAspectRatio="none" x="13381.347656" y="-3421.142578" width="1.098633" height="1.098633"/>
<image xlink:href="tile75_41.png" preserveAspectRatio="none" x="13381.347656" y="-3422.241211" width="1.098633" height="1.098633"/>
<image xlink:href="tile75_40.png" preserveAspectRatio="none" x="13381.347656" y="-3423.339844" width="1.098633" height="1.098633"/>
<image xlink:href="tile75_39.png" preserveAspectRatio="none" x="13381.347656" y="-3424.438477" width="1.098633" height="1.098633"/>
<image xlink:href="tile75_38.png" preserveAspectRatio="none" x="13381.347656" y="-3425.537109" width="1.098633" height="1.098633"/>
<image xlink:href="tile75_37.png" preserveAspectRatio="none" x="13381.347656" y="-3426.635742" width="1.098633" height="1.098633"/>
<image xlink:href="tile75_36.png" preserveAspectRatio="none" x="13381.347656" y="-3427.734375" width="1.098633" height="1.098633"/>
<image xlink:href="tile75_35.png" preserveAspectRatio="none" x="13381.347656" y="-3428.833008" width="1.098633" height="1.098633"/>
<image xlink:href="tile75_34.png" preserveAspectRatio="none" x="13381.347656" y="-3429.931641" width="1.098633" height="1.098633"/>
<image xlink:href="tile75_33.png" preserveAspectRatio="none" x="13381.347656" y="-3431.030273" width="1.098633" height="1.098633"/>
<image xlink:href="tile75_32.png" preserveAspectRatio="none" x="13381.347656" y="-3432.128906" width="1.098633" height="1.098633"/>
<image xlink:href="tile75_31.png" preserveAspectRatio="none" x="13381.347656" y="-3433.227539" width="1.098633" height="1.098633"/>
<image xlink:href="tile76_44.png" preserveAspectRatio="none" x="13382.446289" y="-3418.945312" width="1.098633" height="1.098633"/>
<image xlink:href="tile76_43.png" preserveAspectRatio="none" x="13382.446289" y="-3420.043945" width="1.098633" height="1.098633"/>
<image xlink:href="tile76_42.png" preserveAspectRatio="none" x="13382.446289" y="-3421.142578" width="1.098633" height="1.098633"/>
<image xlink:href="tile76_41.png" preserveAspectRatio="none" x="13382.446289" y="-3422.241211" width="1.098633" height="1.098633"/>
<image xlink:href="tile76_40.png" preserveAspectRatio="none" x="13382.446289" y="-3423.339844" width="1.098633" height="1.098633"/>
<image xlink:href="tile76_39.png" preserveAspectRatio="none" x="13382.446289" y="-3424.438477" width="1.098633" height="1.098633"/>
<image xlink:href="tile76_38.png" preserveAspectRatio="none" x="13382.446289" y="-3425.537109" width="1.098633" height="1.098633"/>
<image xlink:href="tile76_37.png" preserveAspectRatio="none" x="13382.446289" y="-3426.635742" width="1.098633" height="1.098633"/>
<image xlink:href="tile76_36.png" preserveAspectRatio="none" x="13382.446289" y="-3427.734375" width="1.098633" height="1.098633"/>
<image xlink:href="tile76_35.png" preserveAspectRatio="none" x="13382.446289" y="-3428.833008" width="1.098633" height="1.098633"/>
<image xlink:href="tile76_34.png" preserveAspectRatio="none" x="13382.446289" y="-3429.931641" width="1.098633" height="1.098633"/>
<image xlink:href="tile76_33.png" preserveAspectRatio="none" x="13382.446289" y="-3431.030273" width="1.098633" height="1.098633"/>
<image xlink:href="tile76_32.png" preserveAspectRatio="none" x="13382.446289" y="-3432.128906" width="1.098633" height="1.098633"/>
<image xlink:href="tile76_31.png" preserveAspectRatio="none" x="13382.446289" y="-3433.227539" width="1.098633" height="1.098633"/>
<image xlink:href="tile77_44.png" preserveAspectRatio="none" x="13383.544922" y="-3418.945312" width="1.098633" height="1.098633"/>
<image xlink:href="tile77_43.png" preserveAspectRatio="none" x="13383.544922" y="-3420.043945" width="1.098633" height="1.098633"/>
<image xlink:href="tile77_42.png" preserveAspectRatio="none" x="13383.544922" y="-3421.142578" width="1.098633" height="1.098633"/>
<image xlink:href="tile77_41.png" preserveAspectRatio="none" x="13383.544922" y="-3422.241211" width="1.098633" height="1.098633"/>
<image xlink:href="tile77_40.png" preserveAspectRatio="none" x="13383.544922" y="-3423.339844" width="1.098633" height="1.098633"/>
<image xlink:href="tile77_39.png" preserveAspectRatio="none" x="13383.544922" y="-3424.438477" width="1.098633" height="1.098633"/>
<image xlink:href="tile77_38.png" preserveAspectRatio="none" x="13383.544922" y="-3425.537109" width="1.098633" height="1.098633"/>
<image xlink:href="tile77_37.png" preserveAspectRatio="none" x="13383.544922" y="-3426.635742" width="1.098633" height="1.098633"/>
<image xlink:href="tile77_36.png" preserveAspectRatio="none" x="13383.544922" y="-3427.734375" width="1.098633" height="1.098633"/>
<image xlink:href="tile77_35.png" preserveAspectRatio="none" x="13383.544922" y="-3428.833008" width="1.098633" height="1.098633"/>
<image xlink:href="tile77_34.png" preserveAspectRatio="none" x="13383.544922" y="-3429.931641" width="1.098633" height="1.098633"/>
<image xlink:href="tile77_33.png" preserveAspectRatio="none" x="13383.544922" y="-3431.030273" width="1.098633" height="1.098633"/>
<image xlink:href="tile77_32.png" preserveAspectRatio="none" x="13383.544922" y="-3432.128906" width="1.098633" height="1.098633"/>
<image xlink:href="tile77_31.png" preserveAspectRatio="none" x="13383.544922" y="-3433.227539" width="1.098633" height="1.098633"/>
<image xlink:href="tile78_45.png" preserveAspectRatio="none" x="13384.643555" y="-3417.84668" width="1.098633" height="1.098633"/>
<image xlink:href="tile78_44.png" preserveAspectRatio="none" x="13384.643555" y="-3418.945312" width="1.098633" height="1.098633"/>
<image xlink:href="tile78_43.png" preserveAspectRatio="none" x="13384.643555" y="-3420.043945" width="1.098633" height="1.098633"/>
<image xlink:href="tile78_39.png" preserveAspectRatio="none" x="13384.643555" y="-3424.438477" width="1.098633" height="1.098633"/>
<image xlink:href="tile78_38.png" preserveAspectRatio="none" x="13384.643555" y="-3425.537109" width="1.098633" height="1.098633"/>
<image xlink:href="tile78_37.png" preserveAspectRatio="none" x="13384.643555" y="-3426.635742" width="1.098633" height="1.098633"/>
<image xlink:href="tile78_36.png" preserveAspectRatio="none" x="13384.643555" y="-3427.734375" width="1.098633" height="1.098633"/>
<image xlink:href="tile78_35.png" preserveAspectRatio="none" x="13384.643555" y="-3428.833008" width="1.098633" height="1.098633"/>
<image xlink:href="tile78_34.png" preserveAspectRatio="none" x="13384.643555" y="-3429.931641" width="1.098633" height="1.098633"/>
<image xlink:href="tile78_33.png" preserveAspectRatio="none" x="13384.643555" y="-3431.030273" width="1.098633" height="1.098633"/>
<image xlink:href="tile78_32.png" preserveAspectRatio="none" x="13384.643555" y="-3432.128906" width="1.098633" height="1.098633"/>
<image xlink:href="tile78_31.png" preserveAspectRatio="none" x="13384.643555" y="-3433.227539" width="1.098633" height="1.098633"/>
<image xlink:href="tile79_45.png" preserveAspectRatio="none" x="13385.742188" y="-3417.84668" width="1.098633" height="1.098633"/>
<image xlink:href="tile79_44.png" preserveAspectRatio="none" x="13385.742188" y="-3418.945312" width="1.098633" height="1.098633"/>
<image xlink:href="tile79_43.png" preserveAspectRatio="none" x="13385.742188" y="-3420.043945" width="1.098633" height="1.098633"/>
<image xlink:href="tile79_39.png" preserveAspectRatio="none" x="13385.742188" y="-3424.438477" width="1.098633" height="1.098633"/>
<image xlink:href="tile79_38.png" preserveAspectRatio="none" x="13385.742188" y="-3425.537109" width="1.098633" height="1.098633"/>
<image xlink:href="tile79_37.png" preserveAspectRatio="none" x="13385.742188" y="-3426.635742" width="1.098633" height="1.098633"/>
<image xlink:href="tile79_36.png" preserveAspectRatio="none" x="13385.742188" y="-3427.734375" width="1.098633" height="1.098633"/>
<image xlink:href="tile79_35.png" preserveAspectRatio="none" x="13385.742188" y="-3428.833008" width="1.098633" height="1.098633"/>
<image xlink:href="tile79_33.png" preserveAspectRatio="none" x="13385.742188" y="-3431.030273" width="1.098633" height="1.098633"/>
<image xlink:href="tile79_32.png" preserveAspectRatio="none" x="13385.742188" y="-3432.128906" width="1.098633" height="1.098633"/>
<image xlink:href="tile79_31.png" preserveAspectRatio="none" x="13385.742188" y="-3433.227539" width="1.098633" height="1.098633"/>
<image xlink:href="tile79_30.png" preserveAspectRatio="none" x="13385.742188" y="-3434.326172" width="1.098633" height="1.098633"/>
</g>
</svg>
