<?xml version="1.0" encoding="UTF-8"?>
<svg  xmlns="http://www.w3.org/2000/svg" xmlns:xlink="http://www.w3.org/1999/xlink" xmlns:go="http://purl.org/svgmap/profile" viewBox="13300.0 -3466.666667 100.0 66.66666699999979" go:dataArea="13300.0 -3466.666667 100.0 66.66666699999979" >
<metadata>
 <rdf:RDF xmlns:rdf="http://www.w3.org/1999/02/22-rdf-syntax-ns#" xmlns:crs="http://opengis.org/xmldtds/transformations.dtd" xmlns:svg="http://www.w3.org/svg" >
  <rdf:Description>
   <crs:CoordinateReferenceSystem rdf:resource="http://purl.org/crs/84" svg:transform="matrix(100.0,0.0,0.0,-100.0,0.0,0.0)" />
  </rdf:Description>
 </rdf:RDF>
</metadata>
<globalCoordinateSystem srsName="http://purl.org/crs/84" transform="matrix(100.0,0.0,0.0,-100.0,0.0,0.0)" />
<g >
<image xlink:href="tile64_11.png" preserveAspectRatio="none" x="13369.262695" y="-3455.200195" width="1.098633" height="1.098633"/>
<image xlink:href="tile64_10.png" preserveAspectRatio="none" x="13369.262695" y="-3456.298828" width="1.098633" height="1.098633"/>
<image xlink:href="tile64_9.png" preserveAspectRatio="none" x="13369.262695" y="-3457.397461" width="1.098633" height="1.098633"/>
<image xlink:href="tile64_8.png" preserveAspectRatio="none" x="13369.262695" y="-3458.496094" width="1.098633" height="1.098633"/>
<image xlink:href="tile64_7.png" preserveAspectRatio="none" x="13369.262695" y="-3459.594727" width="1.098633" height="1.098633"/>
<image xlink:href="tile64_6.png" preserveAspectRatio="none" x="13369.262695" y="-3460.693359" width="1.098633" height="1.098633"/>
<image xlink:href="tile64_5.png" preserveAspectRatio="none" x="13369.262695" y="-3461.791992" width="1.098633" height="1.098633"/>
<image xlink:href="tile64_4.png" preserveAspectRatio="none" x="13369.262695" y="-3462.890625" width="1.098633" height="1.098633"/>
<image xlink:href="tile64_3.png" preserveAspectRatio="none" x="13369.262695" y="-3463.989258" width="1.098633" height="1.098633"/>
<image xlink:href="tile64_2.png" preserveAspectRatio="none" x="13369.262695" y="-3465.087891" width="1.098633" height="1.098633"/>
<image xlink:href="tile64_0.png" preserveAspectRatio="none" x="13369.262695" y="-3467.285156" width="1.098633" height="1.098633"/>
<image xlink:href="tile65_13.png" preserveAspectRatio="none" x="13370.361328" y="-3453.00293" width="1.098633" height="1.098633"/>
<image xlink:href="tile65_12.png" preserveAspectRatio="none" x="13370.361328" y="-3454.101562" width="1.098633" height="1.098633"/>
<image xlink:href="tile65_11.png" preserveAspectRatio="none" x="13370.361328" y="-3455.200195" width="1.098633" height="1.098633"/>
<image xlink:href="tile65_10.png" preserveAspectRatio="none" x="13370.361328" y="-3456.298828" width="1.098633" height="1.098633"/>
<image xlink:href="tile65_9.png" preserveAspectRatio="none" x="13370.361328" y="-3457.397461" width="1.098633" height="1.098633"/>
<image xlink:href="tile65_8.png" preserveAspectRatio="none" x="13370.361328" y="-3458.496094" width="1.098633" height="1.098633"/>
<image xlink:href="tile65_7.png" preserveAspectRatio="none" x="13370.361328" y="-3459.594727" width="1.098633" height="1.098633"/>
<image xlink:href="tile65_6.png" preserveAspectRatio="none" x="13370.361328" y="-3460.693359" width="1.098633" height="1.098633"/>
<image xlink:href="tile65_5.png" preserveAspectRatio="none" x="13370.361328" y="-3461.791992" width="1.098633" height="1.098633"/>
<image xlink:href="tile65_4.png" preserveAspectRatio="none" x="13370.361328" y="-3462.890625" width="1.098633" height="1.098633"/>
<image xlink:href="tile65_3.png" preserveAspectRatio="none" x="13370.361328" y="-3463.989258" width="1.098633" height="1.098633"/>
<image xlink:href="tile65_2.png" preserveAspectRatio="none" x="13370.361328" y="-3465.087891" width="1.098633" height="1.098633"/>
<image xlink:href="tile65_1.png" preserveAspectRatio="none" x="13370.361328" y="-3466.186523" width="1.098633" height="1.098633"/>
<image xlink:href="tile65_0.png" preserveAspectRatio="none" x="13370.361328" y="-3467.285156" width="1.098633" height="1.098633"/>
<image xlink:href="tile66_13.png" preserveAspectRatio="none" x="13371.459961" y="-3453.00293" width="1.098633" height="1.098633"/>
<image xlink:href="tile66_12.png" preserveAspectRatio="none" x="13371.459961" y="-3454.101562" width="1.098633" height="1.098633"/>
<image xlink:href="tile66_11.png" preserveAspectRatio="none" x="13371.459961" y="-3455.200195" width="1.098633" height="1.098633"/>
<image xlink:href="tile66_9.png" preserveAspectRatio="none" x="13371.459961" y="-3457.397461" width="1.098633" height="1.098633"/>
<image xlink:href="tile66_8.png" preserveAspectRatio="none" x="13371.459961" y="-3458.496094" width="1.098633" height="1.098633"/>
<image xlink:href="tile66_7.png" preserveAspectRatio="none" x="13371.459961" y="-3459.594727" width="1.098633" height="1.098633"/>
<image xlink:href="tile66_6.png" preserveAspectRatio="none" x="13371.459961" y="-3460.693359" width="1.098633" height="1.098633"/>
<image xlink:href="tile66_5.png" preserveAspectRatio="none" x="13371.459961" y="-3461.791992" width="1.098633" height="1.098633"/>
<image xlink:href="tile66_4.png" preserveAspectRatio="none" x="13371.459961" y="-3462.890625" width="1.098633" height="1.098633"/>
<image xlink:href="tile66_3.png" preserveAspectRatio="none" x="13371.459961" y="-3463.989258" width="1.098633" height="1.098633"/>
<image xlink:href="tile66_2.png" preserveAspectRatio="none" x="13371.459961" y="-3465.087891" width="1.098633" height="1.098633"/>
<image xlink:href="tile66_1.png" preserveAspectRatio="none" x="13371.459961" y="-3466.186523" width="1.098633" height="1.098633"/>
<image xlink:href="tile66_0.png" preserveAspectRatio="none" x="13371.459961" y="-3467.285156" width="1.098633" height="1.098633"/>
<image xlink:href="tile67_13.png" preserveAspectRatio="none" x="13372.558594" y="-3453.00293" width="1.098633" height="1.098633"/>
<image xlink:href="tile67_12.png" preserveAspectRatio="none" x="13372.558594" y="-3454.101562" width="1.098633" height="1.098633"/>
<image xlink:href="tile67_11.png" preserveAspectRatio="none" x="13372.558594" y="-3455.200195" width="1.098633" height="1.098633"/>
<image xlink:href="tile67_10.png" preserveAspectRatio="none" x="13372.558594" y="-3456.298828" width="1.098633" height="1.098633"/>
<image xlink:href="tile67_9.png" preserveAspectRatio="none" x="13372.558594" y="-3457.397461" width="1.098633" height="1.098633"/>
<image xlink:href="tile67_8.png" preserveAspectRatio="none" x="13372.558594" y="-3458.496094" width="1.098633" height="1.098633"/>
<image xlink:href="tile67_7.png" preserveAspectRatio="none" x="13372.558594" y="-3459.594727" width="1.098633" height="1.098633"/>
<image xlink:href="tile67_6.png" preserveAspectRatio="none" x="13372.558594" y="-3460.693359" width="1.098633" height="1.098633"/>
<image xlink:href="tile67_5.png" preserveAspectRatio="none" x="13372.558594" y="-3461.791992" width="1.098633" height="1.098633"/>
<image xlink:href="tile67_4.png" preserveAspectRatio="none" x="13372.558594" y="-3462.890625" width="1.098633" height="1.098633"/>
<image xlink:href="tile67_3.png" preserveAspectRatio="none" x="13372.558594" y="-3463.989258" width="1.098633" height="1.098633"/>
<image xlink:href="tile67_2.png" preserveAspectRatio="none" x="13372.558594" y="-3465.087891" width="1.098633" height="1.098633"/>
<image xlink:href="tile67_1.png" preserveAspectRatio="none" x="13372.558594" y="-3466.186523" width="1.098633" height="1.098633"/>
<image xlink:href="tile67_0.png" preserveAspectRatio="none" x="13372.558594" y="-3467.285156" width="1.098633" height="1.098633"/>
<image xlink:href="tile68_13.png" preserveAspectRatio="none" x="13373.657227" y="-3453.00293" width="1.098633" height="1.098633"/>
<image xlink:href="tile68_12.png" preserveAspectRatio="none" x="13373.657227" y="-3454.101562" width="1.098633" height="1.098633"/>
<image xlink:href="tile68_11.png" preserveAspectRatio="none" x="13373.657227" y="-3455.200195" width="1.098633" height="1.098633"/>
<image xlink:href="tile68_10.png" preserveAspectRatio="none" x="13373.657227" y="-3456.298828" width="1.098633" height="1.098633"/>
<image xlink:href="tile68_9.png" preserveAspectRatio="none" x="13373.657227" y="-3457.397461" width="1.098633" height="1.098633"/>
<image xlink:href="tile68_8.png" preserveAspectRatio="none" x="13373.657227" y="-3458.496094" width="1.098633" height="1.098633"/>
<image xlink:href="tile68_7.png" preserveAspectRatio="none" x="13373.657227" y="-3459.594727" width="1.098633" height="1.098633"/>
<image xlink:href="tile68_6.png" preserveAspectRatio="none" x="13373.657227" y="-3460.693359" width="1.098633" height="1.098633"/>
<image xlink:href="tile68_5.png" preserveAspectRatio="none" x="13373.657227" y="-3461.791992" width="1.098633" height="1.098633"/>
<image xlink:href="tile68_4.png" preserveAspectRatio="none" x="13373.657227" y="-3462.890625" width="1.098633" height="1.098633"/>
<image xlink:href="tile68_3.png" preserveAspectRatio="none" x="13373.657227" y="-3463.989258" width="1.098633" height="1.098633"/>
<image xlink:href="tile68_2.png" preserveAspectRatio="none" x="13373.657227" y="-3465.087891" width="1.098633" height="1.098633"/>
<image xlink:href="tile68_1.png" preserveAspectRatio="none" x="13373.657227" y="-3466.186523" width="1.098633" height="1.098633"/>
<image xlink:href="tile68_0.png" preserveAspectRatio="none" x="13373.657227" y="-3467.285156" width="1.098633" height="1.098633"/>
<image xlink:href="tile69_13.png" preserveAspectRatio="none" x="13374.755859" y="-3453.00293" width="1.098633" height="1.098633"/>
<image xlink:href="tile69_12.png" preserveAspectRatio="none" x="13374.755859" y="-3454.101562" width="1.098633" height="1.098633"/>
<image xlink:href="tile69_11.png" preserveAspectRatio="none" x="13374.755859" y="-3455.200195" width="1.098633" height="1.098633"/>
<image xlink:href="tile69_10.png" preserveAspectRatio="none" x="13374.755859" y="-3456.298828" width="1.098633" height="1.098633"/>
<image xlink:href="tile69_9.png" preserveAspectRatio="none" x="13374.755859" y="-3457.397461" width="1.098633" height="1.098633"/>
<image xlink:href="tile69_8.png" preserveAspectRatio="none" x="13374.755859" y="-3458.496094" width="1.098633" height="1.098633"/>
<image xlink:href="tile69_7.png" preserveAspectRatio="none" x="13374.755859" y="-3459.594727" width="1.098633" height="1.098633"/>
<image xlink:href="tile69_6.png" preserveAspectRatio="none" x="13374.755859" y="-3460.693359" width="1.098633" height="1.098633"/>
<image xlink:href="tile69_5.png" preserveAspectRatio="none" x="13374.755859" y="-3461.791992" width="1.098633" height="1.098633"/>
<image xlink:href="tile69_4.png" preserveAspectRatio="none" x="13374.755859" y="-3462.890625" width="1.098633" height="1.098633"/>
<image xlink:href="tile69_2.png" preserveAspectRatio="none" x="13374.755859" y="-3465.087891" width="1.098633" height="1.098633"/>
<image xlink:href="tile69_1.png" preserveAspectRatio="none" x="13374.755859" y="-3466.186523" width="1.098633" height="1.098633"/>
<image xlink:href="tile69_0.png" preserveAspectRatio="none" x="13374.755859" y="-3467.285156" width="1.098633" height="1.098633"/>
<image xlink:href="tile70_13.png" preserveAspectRatio="none" x="13375.854492" y="-3453.00293" width="1.098633" height="1.098633"/>
<image xlink:href="tile70_12.png" preserveAspectRatio="none" x="13375.854492" y="-3454.101562" width="1.098633" height="1.098633"/>
<image xlink:href="tile70_11.png" preserveAspectRatio="none" x="13375.854492" y="-3455.200195" width="1.098633" height="1.098633"/>
<image xlink:href="tile70_10.png" preserveAspectRatio="none" x="13375.854492" y="-3456.298828" width="1.098633" height="1.098633"/>
<image xlink:href="tile70_9.png" preserveAspectRatio="none" x="13375.854492" y="-3457.397461" width="1.098633" height="1.098633"/>
<image xlink:href="tile70_8.png" preserveAspectRatio="none" x="13375.854492" y="-3458.496094" width="1.098633" height="1.098633"/>
<image xlink:href="tile70_7.png" preserveAspectRatio="none" x="13375.854492" y="-3459.594727" width="1.098633" height="1.098633"/>
<image xlink:href="tile70_6.png" preserveAspectRatio="none" x="13375.854492" y="-3460.693359" width="1.098633" height="1.098633"/>
<image xlink:href="tile70_5.png" preserveAspectRatio="none" x="13375.854492" y="-3461.791992" width="1.098633" height="1.098633"/>
<image xlink:href="tile70_4.png" preserveAspectRatio="none" x="13375.854492" y="-3462.890625" width="1.098633" height="1.098633"/>
<image xlink:href="tile70_1.png" preserveAspectRatio="none" x="13375.854492" y="-3466.186523" width="1.098633" height="1.098633"/>
<image xlink:href="tile70_0.png" preserveAspectRatio="none" x="13375.854492" y="-3467.285156" width="1.098633" height="1.098633"/>
<image xlink:href="tile71_13.png" preserveAspectRatio="none" x="13376.953125" y="-3453.00293" width="1.098633" height="1.098633"/>
<image xlink:href="tile71_12.png" preserveAspectRatio="none" x="13376.953125" y="-3454.101562" width="1.098633" height="1.098633"/>
<image xlink:href="tile71_11.png" preserveAspectRatio="none" x="13376.953125" y="-3455.200195" width="1.098633" height="1.098633"/>
<image xlink:href="tile71_10.png" preserveAspectRatio="none" x="13376.953125" y="-3456.298828" width="1.098633" height="1.098633"/>
<image xlink:href="tile71_9.png" preserveAspectRatio="none" x="13376.953125" y="-3457.397461" width="1.098633" height="1.098633"/>
<image xlink:href="tile71_8.png" preserveAspectRatio="none" x="13376.953125" y="-3458.496094" width="1.098633" height="1.098633"/>
<image xlink:href="tile71_7.png" preserveAspectRatio="none" x="13376.953125" y="-3459.594727" width="1.098633" height="1.098633"/>
<image xlink:href="tile71_6.png" preserveAspectRatio="none" x="13376.953125" y="-3460.693359" width="1.098633" height="1.098633"/>
<image xlink:href="tile71_5.png" preserveAspectRatio="none" x="13376.953125" y="-3461.791992" width="1.098633" height="1.098633"/>
<image xlink:href="tile71_4.png" preserveAspectRatio="none" x="13376.953125" y="-3462.890625" width="1.098633" height="1.098633"/>
<image xlink:href="tile71_3.png" preserveAspectRatio="none" x="13376.953125" y="-3463.989258" width="1.098633" height="1.098633"/>
<image xlink:href="tile71_1.png" preserveAspectRatio="none" x="13376.953125" y="-3466.186523" width="1.098633" height="1.098633"/>
<image xlink:href="tile71_0.png" preserveAspectRatio="none" x="13376.953125" y="-3467.285156" width="1.098633" height="1.098633"/>
<image xlink:href="tile72_10.png" preserveAspectRatio="none" x="13378.051758" y="-3456.298828" width="1.098633" height="1.098633"/>
<image xlink:href="tile72_9.png" preserveAspectRatio="none" x="13378.051758" y="-3457.397461" width="1.098633" height="1.098633"/>
<image xlink:href="tile72_8.png" preserveAspectRatio="none" x="13378.051758" y="-3458.496094" width="1.098633" height="1.098633"/>
<image xlink:href="tile72_7.png" preserveAspectRatio="none" x="13378.051758" y="-3459.594727" width="1.098633" height="1.098633"/>
<image xlink:href="tile72_6.png" preserveAspectRatio="none" x="13378.051758" y="-3460.693359" width="1.098633" height="1.098633"/>
<image xlink:href="tile72_5.png" preserveAspectRatio="none" x="13378.051758" y="-3461.791992" width="1.098633" height="1.098633"/>
<image xlink:href="tile72_4.png" preserveAspectRatio="none" x="13378.051758" y="-3462.890625" width="1.098633" height="1.098633"/>
<image xlink:href="tile72_3.png" preserveAspectRatio="none" x="13378.051758" y="-3463.989258" width="1.098633" height="1.098633"/>
<image xlink:href="tile72_1.png" preserveAspectRatio="none" x="13378.051758" y="-3466.186523" width="1.098633" height="1.098633"/>
<image xlink:href="tile72_0.png" preserveAspectRatio="none" x="13378.051758" y="-3467.285156" width="1.098633" height="1.098633"/>
<image xlink:href="tile73_10.png" preserveAspectRatio="none" x="13379.150391" y="-3456.298828" width="1.098633" height="1.098633"/>
<image xlink:href="tile73_9.png" preserveAspectRatio="none" x="13379.150391" y="-3457.397461" width="1.098633" height="1.098633"/>
<image xlink:href="tile73_8.png" preserveAspectRatio="none" x="13379.150391" y="-3458.496094" width="1.098633" height="1.098633"/>
<image xlink:href="tile73_7.png" preserveAspectRatio="none" x="13379.150391" y="-3459.594727" width="1.098633" height="1.098633"/>
<image xlink:href="tile73_6.png" preserveAspectRatio="none" x="13379.150391" y="-3460.693359" width="1.098633" height="1.098633"/>
<image xlink:href="tile73_5.png" preserveAspectRatio="none" x="13379.150391" y="-3461.791992" width="1.098633" height="1.098633"/>
<image xlink:href="tile73_4.png" preserveAspectRatio="none" x="13379.150391" y="-3462.890625" width="1.098633" height="1.098633"/>
<image xlink:href="tile73_3.png" preserveAspectRatio="none" x="13379.150391" y="-3463.989258" width="1.098633" height="1.098633"/>
<image xlink:href="tile74_12.png" preserveAspectRatio="none" x="13380.249023" y="-3454.101562" width="1.098633" height="1.098633"/>
<image xlink:href="tile74_11.png" preserveAspectRatio="none" x="13380.249023" y="-3455.200195" width="1.098633" height="1.098633"/>
<image xlink:href="tile74_10.png" preserveAspectRatio="none" x="13380.249023" y="-3456.298828" width="1.098633" height="1.098633"/>
<image xlink:href="tile74_9.png" preserveAspectRatio="none" x="13380.249023" y="-3457.397461" width="1.098633" height="1.098633"/>
<image xlink:href="tile74_8.png" preserveAspectRatio="none" x="13380.249023" y="-3458.496094" width="1.098633" height="1.098633"/>
<image xlink:href="tile74_7.png" preserveAspectRatio="none" x="13380.249023" y="-3459.594727" width="1.098633" height="1.098633"/>
<image xlink:href="tile74_6.png" preserveAspectRatio="none" x="13380.249023" y="-3460.693359" width="1.098633" height="1.098633"/>
<image xlink:href="tile74_5.png" preserveAspectRatio="none" x="13380.249023" y="-3461.791992" width="1.098633" height="1.098633"/>
<image xlink:href="tile74_4.png" preserveAspectRatio="none" x="13380.249023" y="-3462.890625" width="1.098633" height="1.098633"/>
<image xlink:href="tile74_3.png" preserveAspectRatio="none" x="13380.249023" y="-3463.989258" width="1.098633" height="1.098633"/>
<image xlink:href="tile74_2.png" preserveAspectRatio="none" x="13380.249023" y="-3465.087891" width="1.098633" height="1.098633"/>
<image xlink:href="tile75_13.png" preserveAspectRatio="none" x="13381.347656" y="-3453.00293" width="1.098633" height="1.098633"/>
<image xlink:href="tile75_12.png" preserveAspectRatio="none" x="13381.347656" y="-3454.101562" width="1.098633" height="1.098633"/>
<image xlink:href="tile75_11.png" preserveAspectRatio="none" x="13381.347656" y="-3455.200195" width="1.098633" height="1.098633"/>
<image xlink:href="tile75_10.png" preserveAspectRatio="none" x="13381.347656" y="-3456.298828" width="1.098633" height="1.098633"/>
<image xlink:href="tile75_9.png" preserveAspectRatio="none" x="13381.347656" y="-3457.397461" width="1.098633" height="1.098633"/>
<image xlink:href="tile75_8.png" preserveAspectRatio="none" x="13381.347656" y="-3458.496094" width="1.098633" height="1.098633"/>
<image xlink:href="tile75_7.png" preserveAspectRatio="none" x="13381.347656" y="-3459.594727" width="1.098633" height="1.098633"/>
<image xlink:href="tile75_6.png" preserveAspectRatio="none" x="13381.347656" y="-3460.693359" width="1.098633" height="1.098633"/>
<image xlink:href="tile75_5.png" preserveAspectRatio="none" x="13381.347656" y="-3461.791992" width="1.098633" height="1.098633"/>
<image xlink:href="tile75_4.png" preserveAspectRatio="none" x="13381.347656" y="-3462.890625" width="1.098633" height="1.098633"/>
<image xlink:href="tile75_3.png" preserveAspectRatio="none" x="13381.347656" y="-3463.989258" width="1.098633" height="1.098633"/>
<image xlink:href="tile75_2.png" preserveAspectRatio="none" x="13381.347656" y="-3465.087891" width="1.098633" height="1.098633"/>
<image xlink:href="tile75_1.png" preserveAspectRatio="none" x="13381.347656" y="-3466.186523" width="1.098633" height="1.098633"/>
<image xlink:href="tile75_0.png" preserveAspectRatio="none" x="13381.347656" y="-3467.285156" width="1.098633" height="1.098633"/>
<image xlink:href="tile76_11.png" preserveAspectRatio="none" x="13382.446289" y="-3455.200195" width="1.098633" height="1.098633"/>
<image xlink:href="tile76_10.png" preserveAspectRatio="none" x="13382.446289" y="-3456.298828" width="1.098633" height="1.098633"/>
<image xlink:href="tile76_9.png" preserveAspectRatio="none" x="13382.446289" y="-3457.397461" width="1.098633" height="1.098633"/>
<image xlink:href="tile76_8.png" preserveAspectRatio="none" x="13382.446289" y="-3458.496094" width="1.098633" height="1.098633"/>
<image xlink:href="tile76_7.png" preserveAspectRatio="none" x="13382.446289" y="-3459.594727" width="1.098633" height="1.098633"/>
<image xlink:href="tile76_6.png" preserveAspectRatio="none" x="13382.446289" y="-3460.693359" width="1.098633" height="1.098633"/>
<image xlink:href="tile76_5.png" preserveAspectRatio="none" x="13382.446289" y="-3461.791992" width="1.098633" height="1.098633"/>
<image xlink:href="tile76_3.png" preserveAspectRatio="none" x="13382.446289" y="-3463.989258" width="1.098633" height="1.098633"/>
<image xlink:href="tile76_2.png" preserveAspectRatio="none" x="13382.446289" y="-3465.087891" width="1.098633" height="1.098633"/>
<image xlink:href="tile76_1.png" preserveAspectRatio="none" x="13382.446289" y="-3466.186523" width="1.098633" height="1.098633"/>
<image xlink:href="tile76_0.png" preserveAspectRatio="none" x="13382.446289" y="-3467.285156" width="1.098633" height="1.098633"/>
<image xlink:href="tile77_11.png" preserveAspectRatio="none" x="13383.544922" y="-3455.200195" width="1.098633" height="1.098633"/>
<image xlink:href="tile77_10.png" preserveAspectRatio="none" x="13383.544922" y="-3456.298828" width="1.098633" height="1.098633"/>
<image xlink:href="tile77_9.png" preserveAspectRatio="none" x="13383.544922" y="-3457.397461" width="1.098633" height="1.098633"/>
<image xlink:href="tile77_8.png" preserveAspectRatio="none" x="13383.544922" y="-3458.496094" width="1.098633" height="1.098633"/>
<image xlink:href="tile77_7.png" preserveAspectRatio="none" x="13383.544922" y="-3459.594727" width="1.098633" height="1.098633"/>
<image xlink:href="tile77_6.png" preserveAspectRatio="none" x="13383.544922" y="-3460.693359" width="1.098633" height="1.098633"/>
<image xlink:href="tile77_5.png" preserveAspectRatio="none" x="13383.544922" y="-3461.791992" width="1.098633" height="1.098633"/>
<image xlink:href="tile77_3.png" preserveAspectRatio="none" x="13383.544922" y="-3463.989258" width="1.098633" height="1.098633"/>
<image xlink:href="tile77_2.png" preserveAspectRatio="none" x="13383.544922" y="-3465.087891" width="1.098633" height="1.098633"/>
<image xlink:href="tile77_1.png" preserveAspectRatio="none" x="13383.544922" y="-3466.186523" width="1.098633" height="1.098633"/>
<image xlink:href="tile77_0.png" preserveAspectRatio="none" x="13383.544922" y="-3467.285156" width="1.098633" height="1.098633"/>
<image xlink:href="tile78_11.png" preserveAspectRatio="none" x="13384.643555" y="-3455.200195" width="1.098633" height="1.098633"/>
<image xlink:href="tile78_10.png" preserveAspectRatio="none" x="13384.643555" y="-3456.298828" width="1.098633" height="1.098633"/>
<image xlink:href="tile78_9.png" preserveAspectRatio="none" x="13384.643555" y="-3457.397461" width="1.098633" height="1.098633"/>
<image xlink:href="tile78_8.png" preserveAspectRatio="none" x="13384.643555" y="-3458.496094" width="1.098633" height="1.098633"/>
<image xlink:href="tile78_7.png" preserveAspectRatio="none" x="13384.643555" y="-3459.594727" width="1.098633" height="1.098633"/>
<image xlink:href="tile78_6.png" preserveAspectRatio="none" x="13384.643555" y="-3460.693359" width="1.098633" height="1.098633"/>
<image xlink:href="tile78_5.png" preserveAspectRatio="none" x="13384.643555" y="-3461.791992" width="1.098633" height="1.098633"/>
<image xlink:href="tile78_4.png" preserveAspectRatio="none" x="13384.643555" y="-3462.890625" width="1.098633" height="1.098633"/>
<image xlink:href="tile78_3.png" preserveAspectRatio="none" x="13384.643555" y="-3463.989258" width="1.098633" height="1.098633"/>
<image xlink:href="tile78_2.png" preserveAspectRatio="none" x="13384.643555" y="-3465.087891" width="1.098633" height="1.098633"/>
<image xlink:href="tile78_1.png" preserveAspectRatio="none" x="13384.643555" y="-3466.186523" width="1.098633" height="1.098633"/>
<image xlink:href="tile78_0.png" preserveAspectRatio="none" x="13384.643555" y="-3467.285156" width="1.098633" height="1.098633"/>
<image xlink:href="tile79_12.png" preserveAspectRatio="none" x="13385.742188" y="-3454.101562" width="1.098633" height="1.098633"/>
<image xlink:href="tile79_11.png" preserveAspectRatio="none" x="13385.742188" y="-3455.200195" width="1.098633" height="1.098633"/>
<image xlink:href="tile79_10.png" preserveAspectRatio="none" x="13385.742188" y="-3456.298828" width="1.098633" height="1.098633"/>
<image xlink:href="tile79_9.png" preserveAspectRatio="none" x="13385.742188" y="-3457.397461" width="1.098633" height="1.098633"/>
<image xlink:href="tile79_8.png" preserveAspectRatio="none" x="13385.742188" y="-3458.496094" width="1.098633" height="1.098633"/>
<image xlink:href="tile79_7.png" preserveAspectRatio="none" x="13385.742188" y="-3459.594727" width="1.098633" height="1.098633"/>
<image xlink:href="tile79_6.png" preserveAspectRatio="none" x="13385.742188" y="-3460.693359" width="1.098633" height="1.098633"/>
<image xlink:href="tile79_5.png" preserveAspectRatio="none" x="13385.742188" y="-3461.791992" width="1.098633" height="1.098633"/>
<image xlink:href="tile79_4.png" preserveAspectRatio="none" x="13385.742188" y="-3462.890625" width="1.098633" height="1.098633"/>
<image xlink:href="tile79_3.png" preserveAspectRatio="none" x="13385.742188" y="-3463.989258" width="1.098633" height="1.098633"/>
<image xlink:href="tile79_2.png" preserveAspectRatio="none" x="13385.742188" y="-3465.087891" width="1.098633" height="1.098633"/>
<image xlink:href="tile79_1.png" preserveAspectRatio="none" x="13385.742188" y="-3466.186523" width="1.098633" height="1.098633"/>
<image xlink:href="tile79_0.png" preserveAspectRatio="none" x="13385.742188" y="-3467.285156" width="1.098633" height="1.098633"/>
</g>
</svg>
