<?xml version="1.0" encoding="UTF-8"?>
<svg  xmlns="http://www.w3.org/2000/svg" xmlns:xlink="http://www.w3.org/1999/xlink" xmlns:go="http://purl.org/svgmap/profile" viewBox="13300.0 -3466.666667 100.0 66.66666699999979" go:dataArea="13300.0 -3466.666667 100.0 66.66666699999979" >
<metadata>
 <rdf:RDF xmlns:rdf="http://www.w3.org/1999/02/22-rdf-syntax-ns#" xmlns:crs="http://opengis.org/xmldtds/transformations.dtd" xmlns:svg="http://www.w3.org/svg" >
  <rdf:Description>
   <crs:CoordinateReferenceSystem rdf:resource="http://purl.org/crs/84" svg:transform="matrix(100.0,0.0,0.0,-100.0,0.0,0.0)" />
  </rdf:Description>
 </rdf:RDF>
</metadata>
<globalCoordinateSystem srsName="http://purl.org/crs/84" transform="matrix(100.0,0.0,0.0,-100.0,0.0,0.0)" />
<g >
<image xlink:href="tile32_13.png" preserveAspectRatio="none" x="13334.106445" y="-3453.00293" width="1.098633" height="1.098633"/>
<image xlink:href="tile32_12.png" preserveAspectRatio="none" x="13334.106445" y="-3454.101562" width="1.098633" height="1.098633"/>
<image xlink:href="tile32_11.png" preserveAspectRatio="none" x="13334.106445" y="-3455.200195" width="1.098633" height="1.098633"/>
<image xlink:href="tile32_10.png" preserveAspectRatio="none" x="13334.106445" y="-3456.298828" width="1.098633" height="1.098633"/>
<image xlink:href="tile32_9.png" preserveAspectRatio="none" x="13334.106445" y="-3457.397461" width="1.098633" height="1.098633"/>
<image xlink:href="tile32_8.png" preserveAspectRatio="none" x="13334.106445" y="-3458.496094" width="1.098633" height="1.098633"/>
<image xlink:href="tile32_7.png" preserveAspectRatio="none" x="13334.106445" y="-3459.594727" width="1.098633" height="1.098633"/>
<image xlink:href="tile33_13.png" preserveAspectRatio="none" x="13335.205078" y="-3453.00293" width="1.098633" height="1.098633"/>
<image xlink:href="tile33_12.png" preserveAspectRatio="none" x="13335.205078" y="-3454.101562" width="1.098633" height="1.098633"/>
<image xlink:href="tile33_11.png" preserveAspectRatio="none" x="13335.205078" y="-3455.200195" width="1.098633" height="1.098633"/>
<image xlink:href="tile33_10.png" preserveAspectRatio="none" x="13335.205078" y="-3456.298828" width="1.098633" height="1.098633"/>
<image xlink:href="tile33_8.png" preserveAspectRatio="none" x="13335.205078" y="-3458.496094" width="1.098633" height="1.098633"/>
<image xlink:href="tile33_7.png" preserveAspectRatio="none" x="13335.205078" y="-3459.594727" width="1.098633" height="1.098633"/>
<image xlink:href="tile33_6.png" preserveAspectRatio="none" x="13335.205078" y="-3460.693359" width="1.098633" height="1.098633"/>
<image xlink:href="tile34_13.png" preserveAspectRatio="none" x="13336.303711" y="-3453.00293" width="1.098633" height="1.098633"/>
<image xlink:href="tile34_12.png" preserveAspectRatio="none" x="13336.303711" y="-3454.101562" width="1.098633" height="1.098633"/>
<image xlink:href="tile34_11.png" preserveAspectRatio="none" x="13336.303711" y="-3455.200195" width="1.098633" height="1.098633"/>
<image xlink:href="tile34_10.png" preserveAspectRatio="none" x="13336.303711" y="-3456.298828" width="1.098633" height="1.098633"/>
<image xlink:href="tile34_9.png" preserveAspectRatio="none" x="13336.303711" y="-3457.397461" width="1.098633" height="1.098633"/>
<image xlink:href="tile34_8.png" preserveAspectRatio="none" x="13336.303711" y="-3458.496094" width="1.098633" height="1.098633"/>
<image xlink:href="tile34_7.png" preserveAspectRatio="none" x="13336.303711" y="-3459.594727" width="1.098633" height="1.098633"/>
<image xlink:href="tile35_13.png" preserveAspectRatio="none" x="13337.402344" y="-3453.00293" width="1.098633" height="1.098633"/>
<image xlink:href="tile35_12.png" preserveAspectRatio="none" x="13337.402344" y="-3454.101562" width="1.098633" height="1.098633"/>
<image xlink:href="tile35_11.png" preserveAspectRatio="none" x="13337.402344" y="-3455.200195" width="1.098633" height="1.098633"/>
<image xlink:href="tile35_10.png" preserveAspectRatio="none" x="13337.402344" y="-3456.298828" width="1.098633" height="1.098633"/>
<image xlink:href="tile35_9.png" preserveAspectRatio="none" x="13337.402344" y="-3457.397461" width="1.098633" height="1.098633"/>
<image xlink:href="tile35_8.png" preserveAspectRatio="none" x="13337.402344" y="-3458.496094" width="1.098633" height="1.098633"/>
<image xlink:href="tile35_7.png" preserveAspectRatio="none" x="13337.402344" y="-3459.594727" width="1.098633" height="1.098633"/>
<image xlink:href="tile36_12.png" preserveAspectRatio="none" x="13338.500977" y="-3454.101562" width="1.098633" height="1.098633"/>
<image xlink:href="tile36_11.png" preserveAspectRatio="none" x="13338.500977" y="-3455.200195" width="1.098633" height="1.098633"/>
<image xlink:href="tile36_10.png" preserveAspectRatio="none" x="13338.500977" y="-3456.298828" width="1.098633" height="1.098633"/>
<image xlink:href="tile36_9.png" preserveAspectRatio="none" x="13338.500977" y="-3457.397461" width="1.098633" height="1.098633"/>
<image xlink:href="tile36_2.png" preserveAspectRatio="none" x="13338.500977" y="-3465.087891" width="1.098633" height="1.098633"/>
<image xlink:href="tile37_11.png" preserveAspectRatio="none" x="13339.599609" y="-3455.200195" width="1.098633" height="1.098633"/>
<image xlink:href="tile37_10.png" preserveAspectRatio="none" x="13339.599609" y="-3456.298828" width="1.098633" height="1.098633"/>
<image xlink:href="tile37_9.png" preserveAspectRatio="none" x="13339.599609" y="-3457.397461" width="1.098633" height="1.098633"/>
<image xlink:href="tile37_2.png" preserveAspectRatio="none" x="13339.599609" y="-3465.087891" width="1.098633" height="1.098633"/>
<image xlink:href="tile37_1.png" preserveAspectRatio="none" x="13339.599609" y="-3466.186523" width="1.098633" height="1.098633"/>
<image xlink:href="tile38_10.png" preserveAspectRatio="none" x="13340.698242" y="-3456.298828" width="1.098633" height="1.098633"/>
<image xlink:href="tile38_9.png" preserveAspectRatio="none" x="13340.698242" y="-3457.397461" width="1.098633" height="1.098633"/>
<image xlink:href="tile38_8.png" preserveAspectRatio="none" x="13340.698242" y="-3458.496094" width="1.098633" height="1.098633"/>
<image xlink:href="tile38_2.png" preserveAspectRatio="none" x="13340.698242" y="-3465.087891" width="1.098633" height="1.098633"/>
<image xlink:href="tile38_1.png" preserveAspectRatio="none" x="13340.698242" y="-3466.186523" width="1.098633" height="1.098633"/>
<image xlink:href="tile38_0.png" preserveAspectRatio="none" x="13340.698242" y="-3467.285156" width="1.098633" height="1.098633"/>
<image xlink:href="tile39_11.png" preserveAspectRatio="none" x="13341.796875" y="-3455.200195" width="1.098633" height="1.098633"/>
<image xlink:href="tile39_10.png" preserveAspectRatio="none" x="13341.796875" y="-3456.298828" width="1.098633" height="1.098633"/>
<image xlink:href="tile39_9.png" preserveAspectRatio="none" x="13341.796875" y="-3457.397461" width="1.098633" height="1.098633"/>
<image xlink:href="tile39_8.png" preserveAspectRatio="none" x="13341.796875" y="-3458.496094" width="1.098633" height="1.098633"/>
<image xlink:href="tile39_5.png" preserveAspectRatio="none" x="13341.796875" y="-3461.791992" width="1.098633" height="1.098633"/>
<image xlink:href="tile39_4.png" preserveAspectRatio="none" x="13341.796875" y="-3462.890625" width="1.098633" height="1.098633"/>
<image xlink:href="tile39_3.png" preserveAspectRatio="none" x="13341.796875" y="-3463.989258" width="1.098633" height="1.098633"/>
<image xlink:href="tile39_2.png" preserveAspectRatio="none" x="13341.796875" y="-3465.087891" width="1.098633" height="1.098633"/>
<image xlink:href="tile39_1.png" preserveAspectRatio="none" x="13341.796875" y="-3466.186523" width="1.098633" height="1.098633"/>
<image xlink:href="tile40_11.png" preserveAspectRatio="none" x="13342.895508" y="-3455.200195" width="1.098633" height="1.098633"/>
<image xlink:href="tile40_10.png" preserveAspectRatio="none" x="13342.895508" y="-3456.298828" width="1.098633" height="1.098633"/>
<image xlink:href="tile40_9.png" preserveAspectRatio="none" x="13342.895508" y="-3457.397461" width="1.098633" height="1.098633"/>
<image xlink:href="tile40_8.png" preserveAspectRatio="none" x="13342.895508" y="-3458.496094" width="1.098633" height="1.098633"/>
<image xlink:href="tile40_7.png" preserveAspectRatio="none" x="13342.895508" y="-3459.594727" width="1.098633" height="1.098633"/>
<image xlink:href="tile40_5.png" preserveAspectRatio="none" x="13342.895508" y="-3461.791992" width="1.098633" height="1.098633"/>
<image xlink:href="tile40_4.png" preserveAspectRatio="none" x="13342.895508" y="-3462.890625" width="1.098633" height="1.098633"/>
<image xlink:href="tile40_3.png" preserveAspectRatio="none" x="13342.895508" y="-3463.989258" width="1.098633" height="1.098633"/>
<image xlink:href="tile41_9.png" preserveAspectRatio="none" x="13343.994141" y="-3457.397461" width="1.098633" height="1.098633"/>
<image xlink:href="tile41_8.png" preserveAspectRatio="none" x="13343.994141" y="-3458.496094" width="1.098633" height="1.098633"/>
<image xlink:href="tile41_7.png" preserveAspectRatio="none" x="13343.994141" y="-3459.594727" width="1.098633" height="1.098633"/>
<image xlink:href="tile41_6.png" preserveAspectRatio="none" x="13343.994141" y="-3460.693359" width="1.098633" height="1.098633"/>
<image xlink:href="tile41_5.png" preserveAspectRatio="none" x="13343.994141" y="-3461.791992" width="1.098633" height="1.098633"/>
<image xlink:href="tile41_4.png" preserveAspectRatio="none" x="13343.994141" y="-3462.890625" width="1.098633" height="1.098633"/>
<image xlink:href="tile41_3.png" preserveAspectRatio="none" x="13343.994141" y="-3463.989258" width="1.098633" height="1.098633"/>
<image xlink:href="tile41_2.png" preserveAspectRatio="none" x="13343.994141" y="-3465.087891" width="1.098633" height="1.098633"/>
<image xlink:href="tile41_1.png" preserveAspectRatio="none" x="13343.994141" y="-3466.186523" width="1.098633" height="1.098633"/>
<image xlink:href="tile42_11.png" preserveAspectRatio="none" x="13345.092773" y="-3455.200195" width="1.098633" height="1.098633"/>
<image xlink:href="tile42_10.png" preserveAspectRatio="none" x="13345.092773" y="-3456.298828" width="1.098633" height="1.098633"/>
<image xlink:href="tile42_9.png" preserveAspectRatio="none" x="13345.092773" y="-3457.397461" width="1.098633" height="1.098633"/>
<image xlink:href="tile42_7.png" preserveAspectRatio="none" x="13345.092773" y="-3459.594727" width="1.098633" height="1.098633"/>
<image xlink:href="tile42_6.png" preserveAspectRatio="none" x="13345.092773" y="-3460.693359" width="1.098633" height="1.098633"/>
<image xlink:href="tile42_5.png" preserveAspectRatio="none" x="13345.092773" y="-3461.791992" width="1.098633" height="1.098633"/>
<image xlink:href="tile42_2.png" preserveAspectRatio="none" x="13345.092773" y="-3465.087891" width="1.098633" height="1.098633"/>
<image xlink:href="tile42_1.png" preserveAspectRatio="none" x="13345.092773" y="-3466.186523" width="1.098633" height="1.098633"/>
<image xlink:href="tile43_9.png" preserveAspectRatio="none" x="13346.191406" y="-3457.397461" width="1.098633" height="1.098633"/>
<image xlink:href="tile43_8.png" preserveAspectRatio="none" x="13346.191406" y="-3458.496094" width="1.098633" height="1.098633"/>
<image xlink:href="tile43_7.png" preserveAspectRatio="none" x="13346.191406" y="-3459.594727" width="1.098633" height="1.098633"/>
<image xlink:href="tile43_6.png" preserveAspectRatio="none" x="13346.191406" y="-3460.693359" width="1.098633" height="1.098633"/>
<image xlink:href="tile43_5.png" preserveAspectRatio="none" x="13346.191406" y="-3461.791992" width="1.098633" height="1.098633"/>
<image xlink:href="tile43_1.png" preserveAspectRatio="none" x="13346.191406" y="-3466.186523" width="1.098633" height="1.098633"/>
<image xlink:href="tile43_0.png" preserveAspectRatio="none" x="13346.191406" y="-3467.285156" width="1.098633" height="1.098633"/>
<image xlink:href="tile44_10.png" preserveAspectRatio="none" x="13347.290039" y="-3456.298828" width="1.098633" height="1.098633"/>
<image xlink:href="tile44_9.png" preserveAspectRatio="none" x="13347.290039" y="-3457.397461" width="1.098633" height="1.098633"/>
<image xlink:href="tile44_8.png" preserveAspectRatio="none" x="13347.290039" y="-3458.496094" width="1.098633" height="1.098633"/>
<image xlink:href="tile44_7.png" preserveAspectRatio="none" x="13347.290039" y="-3459.594727" width="1.098633" height="1.098633"/>
<image xlink:href="tile44_6.png" preserveAspectRatio="none" x="13347.290039" y="-3460.693359" width="1.098633" height="1.098633"/>
<image xlink:href="tile44_5.png" preserveAspectRatio="none" x="13347.290039" y="-3461.791992" width="1.098633" height="1.098633"/>
<image xlink:href="tile44_3.png" preserveAspectRatio="none" x="13347.290039" y="-3463.989258" width="1.098633" height="1.098633"/>
<image xlink:href="tile44_2.png" preserveAspectRatio="none" x="13347.290039" y="-3465.087891" width="1.098633" height="1.098633"/>
<image xlink:href="tile44_0.png" preserveAspectRatio="none" x="13347.290039" y="-3467.285156" width="1.098633" height="1.098633"/>
<image xlink:href="tile45_9.png" preserveAspectRatio="none" x="13348.388672" y="-3457.397461" width="1.098633" height="1.098633"/>
<image xlink:href="tile45_8.png" preserveAspectRatio="none" x="13348.388672" y="-3458.496094" width="1.098633" height="1.098633"/>
<image xlink:href="tile45_7.png" preserveAspectRatio="none" x="13348.388672" y="-3459.594727" width="1.098633" height="1.098633"/>
<image xlink:href="tile45_6.png" preserveAspectRatio="none" x="13348.388672" y="-3460.693359" width="1.098633" height="1.098633"/>
<image xlink:href="tile45_5.png" preserveAspectRatio="none" x="13348.388672" y="-3461.791992" width="1.098633" height="1.098633"/>
<image xlink:href="tile45_4.png" preserveAspectRatio="none" x="13348.388672" y="-3462.890625" width="1.098633" height="1.098633"/>
<image xlink:href="tile45_3.png" preserveAspectRatio="none" x="13348.388672" y="-3463.989258" width="1.098633" height="1.098633"/>
<image xlink:href="tile46_8.png" preserveAspectRatio="none" x="13349.487305" y="-3458.496094" width="1.098633" height="1.098633"/>
<image xlink:href="tile46_7.png" preserveAspectRatio="none" x="13349.487305" y="-3459.594727" width="1.098633" height="1.098633"/>
<image xlink:href="tile46_6.png" preserveAspectRatio="none" x="13349.487305" y="-3460.693359" width="1.098633" height="1.098633"/>
<image xlink:href="tile47_10.png" preserveAspectRatio="none" x="13350.585938" y="-3456.298828" width="1.098633" height="1.098633"/>
<image xlink:href="tile47_9.png" preserveAspectRatio="none" x="13350.585938" y="-3457.397461" width="1.098633" height="1.098633"/>
<image xlink:href="tile47_7.png" preserveAspectRatio="none" x="13350.585938" y="-3459.594727" width="1.098633" height="1.098633"/>
<image xlink:href="tile47_6.png" preserveAspectRatio="none" x="13350.585938" y="-3460.693359" width="1.098633" height="1.098633"/>
<image xlink:href="tile47_5.png" preserveAspectRatio="none" x="13350.585938" y="-3461.791992" width="1.098633" height="1.098633"/>
<image xlink:href="tile47_2.png" preserveAspectRatio="none" x="13350.585938" y="-3465.087891" width="1.098633" height="1.098633"/>
</g>
</svg>
