<?xml version="1.0" encoding="UTF-8"?>
<svg  xmlns="http://www.w3.org/2000/svg" xmlns:xlink="http://www.w3.org/1999/xlink" xmlns:go="http://purl.org/svgmap/profile" viewBox="13300.0 -3466.666667 100.0 66.66666699999979" go:dataArea="13300.0 -3466.666667 100.0 66.66666699999979" >
<metadata>
 <rdf:RDF xmlns:rdf="http://www.w3.org/1999/02/22-rdf-syntax-ns#" xmlns:crs="http://opengis.org/xmldtds/transformations.dtd" xmlns:svg="http://www.w3.org/svg" >
  <rdf:Description>
   <crs:CoordinateReferenceSystem rdf:resource="http://purl.org/crs/84" svg:transform="matrix(100.0,0.0,0.0,-100.0,0.0,0.0)" />
  </rdf:Description>
 </rdf:RDF>
</metadata>
<globalCoordinateSystem srsName="http://purl.org/crs/84" transform="matrix(100.0,0.0,0.0,-100.0,0.0,0.0)" />
<g >
<image xlink:href="tile50_61.png" preserveAspectRatio="none" x="13353.881836" y="-3400.268555" width="1.098633" height="1.098633"/>
<image xlink:href="tile50_60.png" preserveAspectRatio="none" x="13353.881836" y="-3401.367188" width="1.098633" height="1.098633"/>
<image xlink:href="tile51_61.png" preserveAspectRatio="none" x="13354.980469" y="-3400.268555" width="1.098633" height="1.098633"/>
<image xlink:href="tile51_60.png" preserveAspectRatio="none" x="13354.980469" y="-3401.367188" width="1.098633" height="1.098633"/>
<image xlink:href="tile52_61.png" preserveAspectRatio="none" x="13356.079102" y="-3400.268555" width="1.098633" height="1.098633"/>
<image xlink:href="tile52_60.png" preserveAspectRatio="none" x="13356.079102" y="-3401.367188" width="1.098633" height="1.098633"/>
<image xlink:href="tile52_59.png" preserveAspectRatio="none" x="13356.079102" y="-3402.46582" width="1.098633" height="1.098633"/>
<image xlink:href="tile53_61.png" preserveAspectRatio="none" x="13357.177734" y="-3400.268555" width="1.098633" height="1.098633"/>
<image xlink:href="tile53_60.png" preserveAspectRatio="none" x="13357.177734" y="-3401.367188" width="1.098633" height="1.098633"/>
<image xlink:href="tile53_59.png" preserveAspectRatio="none" x="13357.177734" y="-3402.46582" width="1.098633" height="1.098633"/>
<image xlink:href="tile54_61.png" preserveAspectRatio="none" x="13358.276367" y="-3400.268555" width="1.098633" height="1.098633"/>
<image xlink:href="tile54_60.png" preserveAspectRatio="none" x="13358.276367" y="-3401.367188" width="1.098633" height="1.098633"/>
<image xlink:href="tile58_52.png" preserveAspectRatio="none" x="13362.670898" y="-3410.15625" width="1.098633" height="1.098633"/>
<image xlink:href="tile58_51.png" preserveAspectRatio="none" x="13362.670898" y="-3411.254883" width="1.098633" height="1.098633"/>
<image xlink:href="tile58_50.png" preserveAspectRatio="none" x="13362.670898" y="-3412.353516" width="1.098633" height="1.098633"/>
<image xlink:href="tile58_49.png" preserveAspectRatio="none" x="13362.670898" y="-3413.452148" width="1.098633" height="1.098633"/>
<image xlink:href="tile59_52.png" preserveAspectRatio="none" x="13363.769531" y="-3410.15625" width="1.098633" height="1.098633"/>
<image xlink:href="tile59_51.png" preserveAspectRatio="none" x="13363.769531" y="-3411.254883" width="1.098633" height="1.098633"/>
<image xlink:href="tile59_50.png" preserveAspectRatio="none" x="13363.769531" y="-3412.353516" width="1.098633" height="1.098633"/>
<image xlink:href="tile59_49.png" preserveAspectRatio="none" x="13363.769531" y="-3413.452148" width="1.098633" height="1.098633"/>
<image xlink:href="tile59_48.png" preserveAspectRatio="none" x="13363.769531" y="-3414.550781" width="1.098633" height="1.098633"/>
<image xlink:href="tile59_47.png" preserveAspectRatio="none" x="13363.769531" y="-3415.649414" width="1.098633" height="1.098633"/>
<image xlink:href="tile60_53.png" preserveAspectRatio="none" x="13364.868164" y="-3409.057617" width="1.098633" height="1.098633"/>
<image xlink:href="tile60_52.png" preserveAspectRatio="none" x="13364.868164" y="-3410.15625" width="1.098633" height="1.098633"/>
<image xlink:href="tile60_51.png" preserveAspectRatio="none" x="13364.868164" y="-3411.254883" width="1.098633" height="1.098633"/>
<image xlink:href="tile60_50.png" preserveAspectRatio="none" x="13364.868164" y="-3412.353516" width="1.098633" height="1.098633"/>
<image xlink:href="tile60_49.png" preserveAspectRatio="none" x="13364.868164" y="-3413.452148" width="1.098633" height="1.098633"/>
<image xlink:href="tile60_48.png" preserveAspectRatio="none" x="13364.868164" y="-3414.550781" width="1.098633" height="1.098633"/>
<image xlink:href="tile60_47.png" preserveAspectRatio="none" x="13364.868164" y="-3415.649414" width="1.098633" height="1.098633"/>
<image xlink:href="tile61_54.png" preserveAspectRatio="none" x="13365.966797" y="-3407.958984" width="1.098633" height="1.098633"/>
<image xlink:href="tile61_53.png" preserveAspectRatio="none" x="13365.966797" y="-3409.057617" width="1.098633" height="1.098633"/>
<image xlink:href="tile61_52.png" preserveAspectRatio="none" x="13365.966797" y="-3410.15625" width="1.098633" height="1.098633"/>
<image xlink:href="tile61_51.png" preserveAspectRatio="none" x="13365.966797" y="-3411.254883" width="1.098633" height="1.098633"/>
<image xlink:href="tile61_50.png" preserveAspectRatio="none" x="13365.966797" y="-3412.353516" width="1.098633" height="1.098633"/>
<image xlink:href="tile61_49.png" preserveAspectRatio="none" x="13365.966797" y="-3413.452148" width="1.098633" height="1.098633"/>
<image xlink:href="tile61_48.png" preserveAspectRatio="none" x="13365.966797" y="-3414.550781" width="1.098633" height="1.098633"/>
<image xlink:href="tile62_55.png" preserveAspectRatio="none" x="13367.06543" y="-3406.860352" width="1.098633" height="1.098633"/>
<image xlink:href="tile62_54.png" preserveAspectRatio="none" x="13367.06543" y="-3407.958984" width="1.098633" height="1.098633"/>
<image xlink:href="tile62_53.png" preserveAspectRatio="none" x="13367.06543" y="-3409.057617" width="1.098633" height="1.098633"/>
<image xlink:href="tile62_52.png" preserveAspectRatio="none" x="13367.06543" y="-3410.15625" width="1.098633" height="1.098633"/>
<image xlink:href="tile62_51.png" preserveAspectRatio="none" x="13367.06543" y="-3411.254883" width="1.098633" height="1.098633"/>
<image xlink:href="tile62_50.png" preserveAspectRatio="none" x="13367.06543" y="-3412.353516" width="1.098633" height="1.098633"/>
<image xlink:href="tile62_49.png" preserveAspectRatio="none" x="13367.06543" y="-3413.452148" width="1.098633" height="1.098633"/>
<image xlink:href="tile62_48.png" preserveAspectRatio="none" x="13367.06543" y="-3414.550781" width="1.098633" height="1.098633"/>
<image xlink:href="tile62_47.png" preserveAspectRatio="none" x="13367.06543" y="-3415.649414" width="1.098633" height="1.098633"/>
<image xlink:href="tile63_56.png" preserveAspectRatio="none" x="13368.164062" y="-3405.761719" width="1.098633" height="1.098633"/>
<image xlink:href="tile63_55.png" preserveAspectRatio="none" x="13368.164062" y="-3406.860352" width="1.098633" height="1.098633"/>
<image xlink:href="tile63_54.png" preserveAspectRatio="none" x="13368.164062" y="-3407.958984" width="1.098633" height="1.098633"/>
<image xlink:href="tile63_53.png" preserveAspectRatio="none" x="13368.164062" y="-3409.057617" width="1.098633" height="1.098633"/>
<image xlink:href="tile63_52.png" preserveAspectRatio="none" x="13368.164062" y="-3410.15625" width="1.098633" height="1.098633"/>
<image xlink:href="tile63_51.png" preserveAspectRatio="none" x="13368.164062" y="-3411.254883" width="1.098633" height="1.098633"/>
<image xlink:href="tile63_50.png" preserveAspectRatio="none" x="13368.164062" y="-3412.353516" width="1.098633" height="1.098633"/>
<image xlink:href="tile63_49.png" preserveAspectRatio="none" x="13368.164062" y="-3413.452148" width="1.098633" height="1.098633"/>
<image xlink:href="tile63_48.png" preserveAspectRatio="none" x="13368.164062" y="-3414.550781" width="1.098633" height="1.098633"/>
<image xlink:href="tile63_47.png" preserveAspectRatio="none" x="13368.164062" y="-3415.649414" width="1.098633" height="1.098633"/>
</g>
</svg>
