<?xml version="1.0" encoding="UTF-8"?>
<svg  xmlns="http://www.w3.org/2000/svg" xmlns:xlink="http://www.w3.org/1999/xlink" xmlns:go="http://purl.org/svgmap/profile" viewBox="13800.0 -3666.666667 100.0 66.66666699999979" go:dataArea="13800.0 -3666.666667 100.0 66.66666699999979" >
<metadata>
 <rdf:RDF xmlns:rdf="http://www.w3.org/1999/02/22-rdf-syntax-ns#" xmlns:crs="http://opengis.org/xmldtds/transformations.dtd" xmlns:svg="http://www.w3.org/svg" >
  <rdf:Description>
   <crs:CoordinateReferenceSystem rdf:resource="http://purl.org/crs/84" svg:transform="matrix(100.0,0.0,0.0,-100.0,0.0,0.0)" />
  </rdf:Description>
 </rdf:RDF>
</metadata>
<globalCoordinateSystem srsName="http://purl.org/crs/84" transform="matrix(100.0,0.0,0.0,-100.0,0.0,0.0)" />
<g >
<image xlink:href="tile28_23.png" preserveAspectRatio="none" x="13860.351562" y="-3616.699219" width="2.197266" height="2.197266"/>
<image xlink:href="tile29_23.png" preserveAspectRatio="none" x="13862.548828" y="-3616.699219" width="2.197266" height="2.197266"/>
<image xlink:href="tile29_22.png" preserveAspectRatio="none" x="13862.548828" y="-3618.896484" width="2.197266" height="2.197266"/>
<image xlink:href="tile29_20.png" preserveAspectRatio="none" x="13862.548828" y="-3623.291016" width="2.197266" height="2.197266"/>
<image xlink:href="tile29_19.png" preserveAspectRatio="none" x="13862.548828" y="-3625.488281" width="2.197266" height="2.197266"/>
<image xlink:href="tile29_18.png" preserveAspectRatio="none" x="13862.548828" y="-3627.685547" width="2.197266" height="2.197266"/>
<image xlink:href="tile30_23.png" preserveAspectRatio="none" x="13864.746094" y="-3616.699219" width="2.197266" height="2.197266"/>
<image xlink:href="tile30_22.png" preserveAspectRatio="none" x="13864.746094" y="-3618.896484" width="2.197266" height="2.197266"/>
<image xlink:href="tile30_20.png" preserveAspectRatio="none" x="13864.746094" y="-3623.291016" width="2.197266" height="2.197266"/>
<image xlink:href="tile30_19.png" preserveAspectRatio="none" x="13864.746094" y="-3625.488281" width="2.197266" height="2.197266"/>
<image xlink:href="tile30_18.png" preserveAspectRatio="none" x="13864.746094" y="-3627.685547" width="2.197266" height="2.197266"/>
<image xlink:href="tile30_17.png" preserveAspectRatio="none" x="13864.746094" y="-3629.882812" width="2.197266" height="2.197266"/>
<image xlink:href="tile30_16.png" preserveAspectRatio="none" x="13864.746094" y="-3632.080078" width="2.197266" height="2.197266"/>
<image xlink:href="tile30_15.png" preserveAspectRatio="none" x="13864.746094" y="-3634.277344" width="2.197266" height="2.197266"/>
<image xlink:href="tile31_27.png" preserveAspectRatio="none" x="13866.943359" y="-3607.910156" width="2.197266" height="2.197266"/>
<image xlink:href="tile31_25.png" preserveAspectRatio="none" x="13866.943359" y="-3612.304688" width="2.197266" height="2.197266"/>
<image xlink:href="tile31_24.png" preserveAspectRatio="none" x="13866.943359" y="-3614.501953" width="2.197266" height="2.197266"/>
<image xlink:href="tile31_23.png" preserveAspectRatio="none" x="13866.943359" y="-3616.699219" width="2.197266" height="2.197266"/>
<image xlink:href="tile31_22.png" preserveAspectRatio="none" x="13866.943359" y="-3618.896484" width="2.197266" height="2.197266"/>
<image xlink:href="tile31_20.png" preserveAspectRatio="none" x="13866.943359" y="-3623.291016" width="2.197266" height="2.197266"/>
<image xlink:href="tile31_19.png" preserveAspectRatio="none" x="13866.943359" y="-3625.488281" width="2.197266" height="2.197266"/>
<image xlink:href="tile31_18.png" preserveAspectRatio="none" x="13866.943359" y="-3627.685547" width="2.197266" height="2.197266"/>
<image xlink:href="tile31_17.png" preserveAspectRatio="none" x="13866.943359" y="-3629.882812" width="2.197266" height="2.197266"/>
<image xlink:href="tile31_16.png" preserveAspectRatio="none" x="13866.943359" y="-3632.080078" width="2.197266" height="2.197266"/>
<image xlink:href="tile31_15.png" preserveAspectRatio="none" x="13866.943359" y="-3634.277344" width="2.197266" height="2.197266"/>
</g>
</svg>
