<?xml version="1.0" encoding="UTF-8"?>
<svg  xmlns="http://www.w3.org/2000/svg" xmlns:xlink="http://www.w3.org/1999/xlink" xmlns:go="http://purl.org/svgmap/profile" viewBox="14500.0 -4369.8791667000005 13.606250000000841 13.504166700000297" go:dataArea="14500.0 -4369.8791667000005 13.606250000000841 13.504166700000297" >
<metadata>
 <rdf:RDF xmlns:rdf="http://www.w3.org/1999/02/22-rdf-syntax-ns#" xmlns:crs="http://opengis.org/xmldtds/transformations.dtd" xmlns:svg="http://www.w3.org/svg" >
  <rdf:Description>
   <crs:CoordinateReferenceSystem rdf:resource="http://purl.org/crs/84" svg:transform="matrix(100.0,0.0,0.0,-100.0,0.0,0.0)" />
  </rdf:Description>
 </rdf:RDF>
</metadata>
<globalCoordinateSystem srsName="http://purl.org/crs/84" transform="matrix(100.0,0.0,0.0,-100.0,0.0,0.0)" />
<g >
<image xlink:href="tile0_12.png" preserveAspectRatio="none" x="14499.755859" y="-4357.177734" width="1.098633" height="1.098633"/>
<image xlink:href="tile0_11.png" preserveAspectRatio="none" x="14499.755859" y="-4358.276367" width="1.098633" height="1.098633"/>
<image xlink:href="tile0_10.png" preserveAspectRatio="none" x="14499.755859" y="-4359.375" width="1.098633" height="1.098633"/>
<image xlink:href="tile1_12.png" preserveAspectRatio="none" x="14500.854492" y="-4357.177734" width="1.098633" height="1.098633"/>
<image xlink:href="tile1_11.png" preserveAspectRatio="none" x="14500.854492" y="-4358.276367" width="1.098633" height="1.098633"/>
<image xlink:href="tile1_10.png" preserveAspectRatio="none" x="14500.854492" y="-4359.375" width="1.098633" height="1.098633"/>
<image xlink:href="tile1_9.png" preserveAspectRatio="none" x="14500.854492" y="-4360.473633" width="1.098633" height="1.098633"/>
<image xlink:href="tile2_11.png" preserveAspectRatio="none" x="14501.953125" y="-4358.276367" width="1.098633" height="1.098633"/>
<image xlink:href="tile2_10.png" preserveAspectRatio="none" x="14501.953125" y="-4359.375" width="1.098633" height="1.098633"/>
<image xlink:href="tile2_9.png" preserveAspectRatio="none" x="14501.953125" y="-4360.473633" width="1.098633" height="1.098633"/>
<image xlink:href="tile2_8.png" preserveAspectRatio="none" x="14501.953125" y="-4361.572266" width="1.098633" height="1.098633"/>
<image xlink:href="tile3_11.png" preserveAspectRatio="none" x="14503.051758" y="-4358.276367" width="1.098633" height="1.098633"/>
<image xlink:href="tile3_10.png" preserveAspectRatio="none" x="14503.051758" y="-4359.375" width="1.098633" height="1.098633"/>
<image xlink:href="tile3_9.png" preserveAspectRatio="none" x="14503.051758" y="-4360.473633" width="1.098633" height="1.098633"/>
<image xlink:href="tile3_8.png" preserveAspectRatio="none" x="14503.051758" y="-4361.572266" width="1.098633" height="1.098633"/>
<image xlink:href="tile3_7.png" preserveAspectRatio="none" x="14503.051758" y="-4362.670898" width="1.098633" height="1.098633"/>
<image xlink:href="tile3_6.png" preserveAspectRatio="none" x="14503.051758" y="-4363.769531" width="1.098633" height="1.098633"/>
<image xlink:href="tile3_5.png" preserveAspectRatio="none" x="14503.051758" y="-4364.868164" width="1.098633" height="1.098633"/>
<image xlink:href="tile4_10.png" preserveAspectRatio="none" x="14504.150391" y="-4359.375" width="1.098633" height="1.098633"/>
<image xlink:href="tile4_9.png" preserveAspectRatio="none" x="14504.150391" y="-4360.473633" width="1.098633" height="1.098633"/>
<image xlink:href="tile4_8.png" preserveAspectRatio="none" x="14504.150391" y="-4361.572266" width="1.098633" height="1.098633"/>
<image xlink:href="tile4_7.png" preserveAspectRatio="none" x="14504.150391" y="-4362.670898" width="1.098633" height="1.098633"/>
<image xlink:href="tile4_6.png" preserveAspectRatio="none" x="14504.150391" y="-4363.769531" width="1.098633" height="1.098633"/>
<image xlink:href="tile4_5.png" preserveAspectRatio="none" x="14504.150391" y="-4364.868164" width="1.098633" height="1.098633"/>
<image xlink:href="tile5_9.png" preserveAspectRatio="none" x="14505.249023" y="-4360.473633" width="1.098633" height="1.098633"/>
<image xlink:href="tile5_8.png" preserveAspectRatio="none" x="14505.249023" y="-4361.572266" width="1.098633" height="1.098633"/>
<image xlink:href="tile5_7.png" preserveAspectRatio="none" x="14505.249023" y="-4362.670898" width="1.098633" height="1.098633"/>
<image xlink:href="tile5_6.png" preserveAspectRatio="none" x="14505.249023" y="-4363.769531" width="1.098633" height="1.098633"/>
<image xlink:href="tile5_5.png" preserveAspectRatio="none" x="14505.249023" y="-4364.868164" width="1.098633" height="1.098633"/>
<image xlink:href="tile5_4.png" preserveAspectRatio="none" x="14505.249023" y="-4365.966797" width="1.098633" height="1.098633"/>
<image xlink:href="tile6_8.png" preserveAspectRatio="none" x="14506.347656" y="-4361.572266" width="1.098633" height="1.098633"/>
<image xlink:href="tile6_7.png" preserveAspectRatio="none" x="14506.347656" y="-4362.670898" width="1.098633" height="1.098633"/>
<image xlink:href="tile6_6.png" preserveAspectRatio="none" x="14506.347656" y="-4363.769531" width="1.098633" height="1.098633"/>
<image xlink:href="tile6_5.png" preserveAspectRatio="none" x="14506.347656" y="-4364.868164" width="1.098633" height="1.098633"/>
<image xlink:href="tile6_4.png" preserveAspectRatio="none" x="14506.347656" y="-4365.966797" width="1.098633" height="1.098633"/>
<image xlink:href="tile7_8.png" preserveAspectRatio="none" x="14507.446289" y="-4361.572266" width="1.098633" height="1.098633"/>
<image xlink:href="tile7_7.png" preserveAspectRatio="none" x="14507.446289" y="-4362.670898" width="1.098633" height="1.098633"/>
<image xlink:href="tile7_6.png" preserveAspectRatio="none" x="14507.446289" y="-4363.769531" width="1.098633" height="1.098633"/>
<image xlink:href="tile7_5.png" preserveAspectRatio="none" x="14507.446289" y="-4364.868164" width="1.098633" height="1.098633"/>
<image xlink:href="tile7_4.png" preserveAspectRatio="none" x="14507.446289" y="-4365.966797" width="1.098633" height="1.098633"/>
<image xlink:href="tile8_7.png" preserveAspectRatio="none" x="14508.544922" y="-4362.670898" width="1.098633" height="1.098633"/>
<image xlink:href="tile8_6.png" preserveAspectRatio="none" x="14508.544922" y="-4363.769531" width="1.098633" height="1.098633"/>
<image xlink:href="tile8_5.png" preserveAspectRatio="none" x="14508.544922" y="-4364.868164" width="1.098633" height="1.098633"/>
<image xlink:href="tile8_4.png" preserveAspectRatio="none" x="14508.544922" y="-4365.966797" width="1.098633" height="1.098633"/>
<image xlink:href="tile8_3.png" preserveAspectRatio="none" x="14508.544922" y="-4367.06543" width="1.098633" height="1.098633"/>
<image xlink:href="tile9_6.png" preserveAspectRatio="none" x="14509.643555" y="-4363.769531" width="1.098633" height="1.098633"/>
<image xlink:href="tile9_5.png" preserveAspectRatio="none" x="14509.643555" y="-4364.868164" width="1.098633" height="1.098633"/>
<image xlink:href="tile9_4.png" preserveAspectRatio="none" x="14509.643555" y="-4365.966797" width="1.098633" height="1.098633"/>
<image xlink:href="tile9_3.png" preserveAspectRatio="none" x="14509.643555" y="-4367.06543" width="1.098633" height="1.098633"/>
<image xlink:href="tile9_2.png" preserveAspectRatio="none" x="14509.643555" y="-4368.164062" width="1.098633" height="1.098633"/>
<image xlink:href="tile9_1.png" preserveAspectRatio="none" x="14509.643555" y="-4369.262695" width="1.098633" height="1.098633"/>
<image xlink:href="tile9_0.png" preserveAspectRatio="none" x="14509.643555" y="-4370.361328" width="1.098633" height="1.098633"/>
<image xlink:href="tile10_5.png" preserveAspectRatio="none" x="14510.742188" y="-4364.868164" width="1.098633" height="1.098633"/>
<image xlink:href="tile10_4.png" preserveAspectRatio="none" x="14510.742188" y="-4365.966797" width="1.098633" height="1.098633"/>
<image xlink:href="tile10_3.png" preserveAspectRatio="none" x="14510.742188" y="-4367.06543" width="1.098633" height="1.098633"/>
<image xlink:href="tile10_2.png" preserveAspectRatio="none" x="14510.742188" y="-4368.164062" width="1.098633" height="1.098633"/>
<image xlink:href="tile10_1.png" preserveAspectRatio="none" x="14510.742188" y="-4369.262695" width="1.098633" height="1.098633"/>
<image xlink:href="tile10_0.png" preserveAspectRatio="none" x="14510.742188" y="-4370.361328" width="1.098633" height="1.098633"/>
<image xlink:href="tile11_4.png" preserveAspectRatio="none" x="14511.84082" y="-4365.966797" width="1.098633" height="1.098633"/>
<image xlink:href="tile11_3.png" preserveAspectRatio="none" x="14511.84082" y="-4367.06543" width="1.098633" height="1.098633"/>
<image xlink:href="tile11_2.png" preserveAspectRatio="none" x="14511.84082" y="-4368.164062" width="1.098633" height="1.098633"/>
<image xlink:href="tile11_1.png" preserveAspectRatio="none" x="14511.84082" y="-4369.262695" width="1.098633" height="1.098633"/>
<image xlink:href="tile12_4.png" preserveAspectRatio="none" x="14512.939453" y="-4365.966797" width="1.098633" height="1.098633"/>
<image xlink:href="tile12_3.png" preserveAspectRatio="none" x="14512.939453" y="-4367.06543" width="1.098633" height="1.098633"/>
<image xlink:href="tile12_2.png" preserveAspectRatio="none" x="14512.939453" y="-4368.164062" width="1.098633" height="1.098633"/>
</g>
</svg>
