<?xml version="1.0" encoding="UTF-8"?>
<svg  xmlns="http://www.w3.org/2000/svg" xmlns:xlink="http://www.w3.org/1999/xlink" xmlns:go="http://purl.org/svgmap/profile" viewBox="14083.322199299999 -3859.3323069 14.869048299999577 49.249671700000164" go:dataArea="14083.322199299999 -3859.3323069 14.869048299999577 49.249671700000164" >
<metadata>
 <rdf:RDF xmlns:rdf="http://www.w3.org/1999/02/22-rdf-syntax-ns#" xmlns:crs="http://opengis.org/xmldtds/transformations.dtd" xmlns:svg="http://www.w3.org/svg" >
  <rdf:Description>
   <crs:CoordinateReferenceSystem rdf:resource="http://purl.org/crs/84" svg:transform="matrix(100.0,0.0,0.0,-100.0,0.0,0.0)" />
  </rdf:Description>
 </rdf:RDF>
</metadata>
<globalCoordinateSystem srsName="http://purl.org/crs/84" transform="matrix(100.0,0.0,0.0,-100.0,0.0,0.0)" />
<g >
<image xlink:href="tile0_20.png" preserveAspectRatio="none" x="14082.275391" y="-3816.650391" width="2.197266" height="2.197266"/>
<image xlink:href="tile1_22.png" preserveAspectRatio="none" x="14084.472656" y="-3812.255859" width="2.197266" height="2.197266"/>
<image xlink:href="tile1_21.png" preserveAspectRatio="none" x="14084.472656" y="-3814.453125" width="2.197266" height="2.197266"/>
<image xlink:href="tile1_20.png" preserveAspectRatio="none" x="14084.472656" y="-3816.650391" width="2.197266" height="2.197266"/>
<image xlink:href="tile2_22.png" preserveAspectRatio="none" x="14086.669922" y="-3812.255859" width="2.197266" height="2.197266"/>
<image xlink:href="tile2_21.png" preserveAspectRatio="none" x="14086.669922" y="-3814.453125" width="2.197266" height="2.197266"/>
<image xlink:href="tile2_20.png" preserveAspectRatio="none" x="14086.669922" y="-3816.650391" width="2.197266" height="2.197266"/>
<image xlink:href="tile3_22.png" preserveAspectRatio="none" x="14088.867188" y="-3812.255859" width="2.197266" height="2.197266"/>
<image xlink:href="tile3_21.png" preserveAspectRatio="none" x="14088.867188" y="-3814.453125" width="2.197266" height="2.197266"/>
<image xlink:href="tile3_20.png" preserveAspectRatio="none" x="14088.867188" y="-3816.650391" width="2.197266" height="2.197266"/>
<image xlink:href="tile4_21.png" preserveAspectRatio="none" x="14091.064453" y="-3814.453125" width="2.197266" height="2.197266"/>
<image xlink:href="tile4_20.png" preserveAspectRatio="none" x="14091.064453" y="-3816.650391" width="2.197266" height="2.197266"/>
<image xlink:href="tile1_1.png" preserveAspectRatio="none" x="14084.472656" y="-3858.398438" width="2.197266" height="2.197266"/>
<image xlink:href="tile1_0.png" preserveAspectRatio="none" x="14084.472656" y="-3860.595703" width="2.197266" height="2.197266"/>
<image xlink:href="tile2_2.png" preserveAspectRatio="none" x="14086.669922" y="-3856.201172" width="2.197266" height="2.197266"/>
<image xlink:href="tile2_1.png" preserveAspectRatio="none" x="14086.669922" y="-3858.398438" width="2.197266" height="2.197266"/>
<image xlink:href="tile2_0.png" preserveAspectRatio="none" x="14086.669922" y="-3860.595703" width="2.197266" height="2.197266"/>
<image xlink:href="tile3_3.png" preserveAspectRatio="none" x="14088.867188" y="-3854.003906" width="2.197266" height="2.197266"/>
<image xlink:href="tile3_2.png" preserveAspectRatio="none" x="14088.867188" y="-3856.201172" width="2.197266" height="2.197266"/>
<image xlink:href="tile3_1.png" preserveAspectRatio="none" x="14088.867188" y="-3858.398438" width="2.197266" height="2.197266"/>
<image xlink:href="tile4_3.png" preserveAspectRatio="none" x="14091.064453" y="-3854.003906" width="2.197266" height="2.197266"/>
<image xlink:href="tile4_2.png" preserveAspectRatio="none" x="14091.064453" y="-3856.201172" width="2.197266" height="2.197266"/>
<image xlink:href="tile5_3.png" preserveAspectRatio="none" x="14093.261719" y="-3854.003906" width="2.197266" height="2.197266"/>
<image xlink:href="tile5_2.png" preserveAspectRatio="none" x="14093.261719" y="-3856.201172" width="2.197266" height="2.197266"/>
<image xlink:href="tile6_3.png" preserveAspectRatio="none" x="14095.458984" y="-3854.003906" width="2.197266" height="2.197266"/>
<image xlink:href="tile6_2.png" preserveAspectRatio="none" x="14095.458984" y="-3856.201172" width="2.197266" height="2.197266"/>
<image xlink:href="tile7_3.png" preserveAspectRatio="none" x="14097.65625" y="-3854.003906" width="2.197266" height="2.197266"/>
</g>
</svg>
