<?xml version="1.0" encoding="UTF-8"?>
<svg  xmlns="http://www.w3.org/2000/svg" xmlns:xlink="http://www.w3.org/1999/xlink" xmlns:go="http://purl.org/svgmap/profile" viewBox="14000.0 -3533.333333 40.34389310000108 23.749920800000268" go:dataArea="14000.0 -3533.333333 40.34389310000108 23.749920800000268" >
<metadata>
 <rdf:RDF xmlns:rdf="http://www.w3.org/1999/02/22-rdf-syntax-ns#" xmlns:crs="http://opengis.org/xmldtds/transformations.dtd" xmlns:svg="http://www.w3.org/svg" >
  <rdf:Description>
   <crs:CoordinateReferenceSystem rdf:resource="http://purl.org/crs/84" svg:transform="matrix(100.0,0.0,0.0,-100.0,0.0,0.0)" />
  </rdf:Description>
 </rdf:RDF>
</metadata>
<globalCoordinateSystem srsName="http://purl.org/crs/84" transform="matrix(100.0,0.0,0.0,-100.0,0.0,0.0)" />
<g >
<image xlink:href="tile0_19.png" preserveAspectRatio="none" x="13999.87793" y="-3513.427734" width="1.098633" height="1.098633"/>
<image xlink:href="tile0_18.png" preserveAspectRatio="none" x="13999.87793" y="-3514.526367" width="1.098633" height="1.098633"/>
<image xlink:href="tile0_7.png" preserveAspectRatio="none" x="13999.87793" y="-3526.611328" width="1.098633" height="1.098633"/>
<image xlink:href="tile1_19.png" preserveAspectRatio="none" x="14000.976562" y="-3513.427734" width="1.098633" height="1.098633"/>
<image xlink:href="tile1_18.png" preserveAspectRatio="none" x="14000.976562" y="-3514.526367" width="1.098633" height="1.098633"/>
<image xlink:href="tile2_19.png" preserveAspectRatio="none" x="14002.075195" y="-3513.427734" width="1.098633" height="1.098633"/>
<image xlink:href="tile2_18.png" preserveAspectRatio="none" x="14002.075195" y="-3514.526367" width="1.098633" height="1.098633"/>
<image xlink:href="tile3_20.png" preserveAspectRatio="none" x="14003.173828" y="-3512.329102" width="1.098633" height="1.098633"/>
<image xlink:href="tile3_19.png" preserveAspectRatio="none" x="14003.173828" y="-3513.427734" width="1.098633" height="1.098633"/>
<image xlink:href="tile3_18.png" preserveAspectRatio="none" x="14003.173828" y="-3514.526367" width="1.098633" height="1.098633"/>
<image xlink:href="tile4_20.png" preserveAspectRatio="none" x="14004.272461" y="-3512.329102" width="1.098633" height="1.098633"/>
<image xlink:href="tile4_19.png" preserveAspectRatio="none" x="14004.272461" y="-3513.427734" width="1.098633" height="1.098633"/>
<image xlink:href="tile4_7.png" preserveAspectRatio="none" x="14004.272461" y="-3526.611328" width="1.098633" height="1.098633"/>
<image xlink:href="tile5_20.png" preserveAspectRatio="none" x="14005.371094" y="-3512.329102" width="1.098633" height="1.098633"/>
<image xlink:href="tile5_19.png" preserveAspectRatio="none" x="14005.371094" y="-3513.427734" width="1.098633" height="1.098633"/>
<image xlink:href="tile5_18.png" preserveAspectRatio="none" x="14005.371094" y="-3514.526367" width="1.098633" height="1.098633"/>
<image xlink:href="tile5_9.png" preserveAspectRatio="none" x="14005.371094" y="-3524.414062" width="1.098633" height="1.098633"/>
<image xlink:href="tile5_8.png" preserveAspectRatio="none" x="14005.371094" y="-3525.512695" width="1.098633" height="1.098633"/>
<image xlink:href="tile6_20.png" preserveAspectRatio="none" x="14006.469727" y="-3512.329102" width="1.098633" height="1.098633"/>
<image xlink:href="tile6_19.png" preserveAspectRatio="none" x="14006.469727" y="-3513.427734" width="1.098633" height="1.098633"/>
<image xlink:href="tile6_18.png" preserveAspectRatio="none" x="14006.469727" y="-3514.526367" width="1.098633" height="1.098633"/>
<image xlink:href="tile6_17.png" preserveAspectRatio="none" x="14006.469727" y="-3515.625" width="1.098633" height="1.098633"/>
<image xlink:href="tile6_8.png" preserveAspectRatio="none" x="14006.469727" y="-3525.512695" width="1.098633" height="1.098633"/>
<image xlink:href="tile7_21.png" preserveAspectRatio="none" x="14007.568359" y="-3511.230469" width="1.098633" height="1.098633"/>
<image xlink:href="tile7_20.png" preserveAspectRatio="none" x="14007.568359" y="-3512.329102" width="1.098633" height="1.098633"/>
<image xlink:href="tile7_19.png" preserveAspectRatio="none" x="14007.568359" y="-3513.427734" width="1.098633" height="1.098633"/>
<image xlink:href="tile8_22.png" preserveAspectRatio="none" x="14008.666992" y="-3510.131836" width="1.098633" height="1.098633"/>
<image xlink:href="tile8_21.png" preserveAspectRatio="none" x="14008.666992" y="-3511.230469" width="1.098633" height="1.098633"/>
<image xlink:href="tile9_22.png" preserveAspectRatio="none" x="14009.765625" y="-3510.131836" width="1.098633" height="1.098633"/>
<image xlink:href="tile9_21.png" preserveAspectRatio="none" x="14009.765625" y="-3511.230469" width="1.098633" height="1.098633"/>
<image xlink:href="tile10_10.png" preserveAspectRatio="none" x="14010.864258" y="-3523.31543" width="1.098633" height="1.098633"/>
<image xlink:href="tile11_11.png" preserveAspectRatio="none" x="14011.962891" y="-3522.216797" width="1.098633" height="1.098633"/>
<image xlink:href="tile11_10.png" preserveAspectRatio="none" x="14011.962891" y="-3523.31543" width="1.098633" height="1.098633"/>
<image xlink:href="tile12_13.png" preserveAspectRatio="none" x="14013.061523" y="-3520.019531" width="1.098633" height="1.098633"/>
<image xlink:href="tile12_12.png" preserveAspectRatio="none" x="14013.061523" y="-3521.118164" width="1.098633" height="1.098633"/>
<image xlink:href="tile12_11.png" preserveAspectRatio="none" x="14013.061523" y="-3522.216797" width="1.098633" height="1.098633"/>
<image xlink:href="tile12_10.png" preserveAspectRatio="none" x="14013.061523" y="-3523.31543" width="1.098633" height="1.098633"/>
<image xlink:href="tile14_9.png" preserveAspectRatio="none" x="14015.258789" y="-3524.414062" width="1.098633" height="1.098633"/>
<image xlink:href="tile14_8.png" preserveAspectRatio="none" x="14015.258789" y="-3525.512695" width="1.098633" height="1.098633"/>
<image xlink:href="tile14_7.png" preserveAspectRatio="none" x="14015.258789" y="-3526.611328" width="1.098633" height="1.098633"/>
<image xlink:href="tile15_10.png" preserveAspectRatio="none" x="14016.357422" y="-3523.31543" width="1.098633" height="1.098633"/>
<image xlink:href="tile15_9.png" preserveAspectRatio="none" x="14016.357422" y="-3524.414062" width="1.098633" height="1.098633"/>
<image xlink:href="tile15_8.png" preserveAspectRatio="none" x="14016.357422" y="-3525.512695" width="1.098633" height="1.098633"/>
</g>
</svg>
