<?xml version="1.0" encoding="UTF-8"?>
<svg  xmlns="http://www.w3.org/2000/svg" xmlns:xlink="http://www.w3.org/1999/xlink" xmlns:go="http://purl.org/svgmap/profile" viewBox="13700.0 -3704.5017963 91.82555129999912 37.83512930000015" go:dataArea="13700.0 -3704.5017963 91.82555129999912 37.83512930000015" >
<metadata>
 <rdf:RDF xmlns:rdf="http://www.w3.org/1999/02/22-rdf-syntax-ns#" xmlns:crs="http://opengis.org/xmldtds/transformations.dtd" xmlns:svg="http://www.w3.org/svg" >
  <rdf:Description>
   <crs:CoordinateReferenceSystem rdf:resource="http://purl.org/crs/84" svg:transform="matrix(100.0,0.0,0.0,-100.0,0.0,0.0)" />
  </rdf:Description>
 </rdf:RDF>
</metadata>
<globalCoordinateSystem srsName="http://purl.org/crs/84" transform="matrix(100.0,0.0,0.0,-100.0,0.0,0.0)" />
<g >
<image xlink:href="tile0_4.png" preserveAspectRatio="none" x="13693.359375" y="-3673.828125" width="8.789062" height="8.789062"/>
<image xlink:href="tile0_3.png" preserveAspectRatio="none" x="13693.359375" y="-3682.617188" width="8.789062" height="8.789062"/>
<image xlink:href="tile0_2.png" preserveAspectRatio="none" x="13693.359375" y="-3691.40625" width="8.789062" height="8.789062"/>
<image xlink:href="tile0_1.png" preserveAspectRatio="none" x="13693.359375" y="-3700.195312" width="8.789062" height="8.789062"/>
<image xlink:href="tile1_4.png" preserveAspectRatio="none" x="13702.148438" y="-3673.828125" width="8.789062" height="8.789062"/>
<image xlink:href="tile1_3.png" preserveAspectRatio="none" x="13702.148438" y="-3682.617188" width="8.789062" height="8.789062"/>
<image xlink:href="tile1_2.png" preserveAspectRatio="none" x="13702.148438" y="-3691.40625" width="8.789062" height="8.789062"/>
<image xlink:href="tile2_4.png" preserveAspectRatio="none" x="13710.9375" y="-3673.828125" width="8.789062" height="8.789062"/>
<image xlink:href="tile2_3.png" preserveAspectRatio="none" x="13710.9375" y="-3682.617188" width="8.789062" height="8.789062"/>
<image xlink:href="tile3_4.png" preserveAspectRatio="none" x="13719.726562" y="-3673.828125" width="8.789062" height="8.789062"/>
<image xlink:href="tile3_3.png" preserveAspectRatio="none" x="13719.726562" y="-3682.617188" width="8.789062" height="8.789062"/>
<image xlink:href="tile4_4.png" preserveAspectRatio="none" x="13728.515625" y="-3673.828125" width="8.789062" height="8.789062"/>
<image xlink:href="tile4_3.png" preserveAspectRatio="none" x="13728.515625" y="-3682.617188" width="8.789062" height="8.789062"/>
<image xlink:href="tile5_4.png" preserveAspectRatio="none" x="13737.304688" y="-3673.828125" width="8.789062" height="8.789062"/>
<image xlink:href="tile5_3.png" preserveAspectRatio="none" x="13737.304688" y="-3682.617188" width="8.789062" height="8.789062"/>
<image xlink:href="tile5_2.png" preserveAspectRatio="none" x="13737.304688" y="-3691.40625" width="8.789062" height="8.789062"/>
<image xlink:href="tile5_1.png" preserveAspectRatio="none" x="13737.304688" y="-3700.195312" width="8.789062" height="8.789062"/>
<image xlink:href="tile6_3.png" preserveAspectRatio="none" x="13746.09375" y="-3682.617188" width="8.789062" height="8.789062"/>
<image xlink:href="tile6_2.png" preserveAspectRatio="none" x="13746.09375" y="-3691.40625" width="8.789062" height="8.789062"/>
<image xlink:href="tile6_1.png" preserveAspectRatio="none" x="13746.09375" y="-3700.195312" width="8.789062" height="8.789062"/>
<image xlink:href="tile7_3.png" preserveAspectRatio="none" x="13754.882812" y="-3682.617188" width="8.789062" height="8.789062"/>
<image xlink:href="tile7_2.png" preserveAspectRatio="none" x="13754.882812" y="-3691.40625" width="8.789062" height="8.789062"/>
<image xlink:href="tile7_1.png" preserveAspectRatio="none" x="13754.882812" y="-3700.195312" width="8.789062" height="8.789062"/>
<image xlink:href="tile8_1.png" preserveAspectRatio="none" x="13763.671875" y="-3700.195312" width="8.789062" height="8.789062"/>
<image xlink:href="tile9_0.png" preserveAspectRatio="none" x="13772.460938" y="-3708.984375" width="8.789062" height="8.789062"/>
<image xlink:href="tile10_4.png" preserveAspectRatio="none" x="13781.25" y="-3673.828125" width="8.789062" height="8.789062"/>
<image xlink:href="tile10_3.png" preserveAspectRatio="none" x="13781.25" y="-3682.617188" width="8.789062" height="8.789062"/>
<image xlink:href="tile10_2.png" preserveAspectRatio="none" x="13781.25" y="-3691.40625" width="8.789062" height="8.789062"/>
<image xlink:href="tile10_1.png" preserveAspectRatio="none" x="13781.25" y="-3700.195312" width="8.789062" height="8.789062"/>
<image xlink:href="tile10_0.png" preserveAspectRatio="none" x="13781.25" y="-3708.984375" width="8.789062" height="8.789062"/>
<image xlink:href="tile11_3.png" preserveAspectRatio="none" x="13790.039062" y="-3682.617188" width="8.789062" height="8.789062"/>
<image xlink:href="tile11_2.png" preserveAspectRatio="none" x="13790.039062" y="-3691.40625" width="8.789062" height="8.789062"/>
</g>
</svg>
