<?xml version="1.0" encoding="UTF-8"?>
<svg  xmlns="http://www.w3.org/2000/svg" xmlns:xlink="http://www.w3.org/1999/xlink" xmlns:go="http://purl.org/svgmap/profile" viewBox="14103.8137368 -4000.0 93.81289869999989 66.66666699999979" go:dataArea="14103.8137368 -4000.0 93.81289869999989 66.66666699999979" >
<metadata>
 <rdf:RDF xmlns:rdf="http://www.w3.org/1999/02/22-rdf-syntax-ns#" xmlns:crs="http://opengis.org/xmldtds/transformations.dtd" xmlns:svg="http://www.w3.org/svg" >
  <rdf:Description>
   <crs:CoordinateReferenceSystem rdf:resource="http://purl.org/crs/84" svg:transform="matrix(100.0,0.0,0.0,-100.0,0.0,0.0)" />
  </rdf:Description>
 </rdf:RDF>
</metadata>
<globalCoordinateSystem srsName="http://purl.org/crs/84" transform="matrix(100.0,0.0,0.0,-100.0,0.0,0.0)" />
<g >
<image xlink:href="tile16_15.png" preserveAspectRatio="none" x="14172.363281" y="-3937.5" width="4.394531" height="4.394531"/>
<image xlink:href="tile16_10.png" preserveAspectRatio="none" x="14172.363281" y="-3959.472656" width="4.394531" height="4.394531"/>
<image xlink:href="tile16_9.png" preserveAspectRatio="none" x="14172.363281" y="-3963.867188" width="4.394531" height="4.394531"/>
<image xlink:href="tile16_8.png" preserveAspectRatio="none" x="14172.363281" y="-3968.261719" width="4.394531" height="4.394531"/>
<image xlink:href="tile16_4.png" preserveAspectRatio="none" x="14172.363281" y="-3985.839844" width="4.394531" height="4.394531"/>
<image xlink:href="tile16_1.png" preserveAspectRatio="none" x="14172.363281" y="-3999.023438" width="4.394531" height="4.394531"/>
<image xlink:href="tile16_0.png" preserveAspectRatio="none" x="14172.363281" y="-4003.417969" width="4.394531" height="4.394531"/>
<image xlink:href="tile17_15.png" preserveAspectRatio="none" x="14176.757812" y="-3937.5" width="4.394531" height="4.394531"/>
<image xlink:href="tile17_13.png" preserveAspectRatio="none" x="14176.757812" y="-3946.289062" width="4.394531" height="4.394531"/>
<image xlink:href="tile17_9.png" preserveAspectRatio="none" x="14176.757812" y="-3963.867188" width="4.394531" height="4.394531"/>
<image xlink:href="tile17_4.png" preserveAspectRatio="none" x="14176.757812" y="-3985.839844" width="4.394531" height="4.394531"/>
<image xlink:href="tile17_3.png" preserveAspectRatio="none" x="14176.757812" y="-3990.234375" width="4.394531" height="4.394531"/>
<image xlink:href="tile17_2.png" preserveAspectRatio="none" x="14176.757812" y="-3994.628906" width="4.394531" height="4.394531"/>
<image xlink:href="tile17_0.png" preserveAspectRatio="none" x="14176.757812" y="-4003.417969" width="4.394531" height="4.394531"/>
<image xlink:href="tile18_15.png" preserveAspectRatio="none" x="14181.152344" y="-3937.5" width="4.394531" height="4.394531"/>
<image xlink:href="tile18_14.png" preserveAspectRatio="none" x="14181.152344" y="-3941.894531" width="4.394531" height="4.394531"/>
<image xlink:href="tile18_13.png" preserveAspectRatio="none" x="14181.152344" y="-3946.289062" width="4.394531" height="4.394531"/>
<image xlink:href="tile18_10.png" preserveAspectRatio="none" x="14181.152344" y="-3959.472656" width="4.394531" height="4.394531"/>
<image xlink:href="tile18_9.png" preserveAspectRatio="none" x="14181.152344" y="-3963.867188" width="4.394531" height="4.394531"/>
<image xlink:href="tile18_4.png" preserveAspectRatio="none" x="14181.152344" y="-3985.839844" width="4.394531" height="4.394531"/>
<image xlink:href="tile18_2.png" preserveAspectRatio="none" x="14181.152344" y="-3994.628906" width="4.394531" height="4.394531"/>
<image xlink:href="tile18_1.png" preserveAspectRatio="none" x="14181.152344" y="-3999.023438" width="4.394531" height="4.394531"/>
<image xlink:href="tile19_15.png" preserveAspectRatio="none" x="14185.546875" y="-3937.5" width="4.394531" height="4.394531"/>
<image xlink:href="tile19_14.png" preserveAspectRatio="none" x="14185.546875" y="-3941.894531" width="4.394531" height="4.394531"/>
<image xlink:href="tile19_12.png" preserveAspectRatio="none" x="14185.546875" y="-3950.683594" width="4.394531" height="4.394531"/>
<image xlink:href="tile19_10.png" preserveAspectRatio="none" x="14185.546875" y="-3959.472656" width="4.394531" height="4.394531"/>
<image xlink:href="tile19_9.png" preserveAspectRatio="none" x="14185.546875" y="-3963.867188" width="4.394531" height="4.394531"/>
<image xlink:href="tile19_4.png" preserveAspectRatio="none" x="14185.546875" y="-3985.839844" width="4.394531" height="4.394531"/>
<image xlink:href="tile19_1.png" preserveAspectRatio="none" x="14185.546875" y="-3999.023438" width="4.394531" height="4.394531"/>
<image xlink:href="tile19_0.png" preserveAspectRatio="none" x="14185.546875" y="-4003.417969" width="4.394531" height="4.394531"/>
<image xlink:href="tile20_15.png" preserveAspectRatio="none" x="14189.941406" y="-3937.5" width="4.394531" height="4.394531"/>
<image xlink:href="tile20_12.png" preserveAspectRatio="none" x="14189.941406" y="-3950.683594" width="4.394531" height="4.394531"/>
<image xlink:href="tile20_11.png" preserveAspectRatio="none" x="14189.941406" y="-3955.078125" width="4.394531" height="4.394531"/>
<image xlink:href="tile20_10.png" preserveAspectRatio="none" x="14189.941406" y="-3959.472656" width="4.394531" height="4.394531"/>
<image xlink:href="tile20_9.png" preserveAspectRatio="none" x="14189.941406" y="-3963.867188" width="4.394531" height="4.394531"/>
<image xlink:href="tile20_8.png" preserveAspectRatio="none" x="14189.941406" y="-3968.261719" width="4.394531" height="4.394531"/>
<image xlink:href="tile20_4.png" preserveAspectRatio="none" x="14189.941406" y="-3985.839844" width="4.394531" height="4.394531"/>
<image xlink:href="tile21_12.png" preserveAspectRatio="none" x="14194.335938" y="-3950.683594" width="4.394531" height="4.394531"/>
<image xlink:href="tile21_11.png" preserveAspectRatio="none" x="14194.335938" y="-3955.078125" width="4.394531" height="4.394531"/>
<image xlink:href="tile21_10.png" preserveAspectRatio="none" x="14194.335938" y="-3959.472656" width="4.394531" height="4.394531"/>
<image xlink:href="tile21_9.png" preserveAspectRatio="none" x="14194.335938" y="-3963.867188" width="4.394531" height="4.394531"/>
<image xlink:href="tile21_8.png" preserveAspectRatio="none" x="14194.335938" y="-3968.261719" width="4.394531" height="4.394531"/>
<image xlink:href="tile21_4.png" preserveAspectRatio="none" x="14194.335938" y="-3985.839844" width="4.394531" height="4.394531"/>
</g>
</svg>
