<?xml version="1.0" encoding="UTF-8"?>
<svg  xmlns="http://www.w3.org/2000/svg" xmlns:xlink="http://www.w3.org/1999/xlink" xmlns:go="http://purl.org/svgmap/profile" viewBox="14000.0 -3600.0 84.0695629999999 66.66666699999979" go:dataArea="14000.0 -3600.0 84.0695629999999 66.66666699999979" >
<metadata>
 <rdf:RDF xmlns:rdf="http://www.w3.org/1999/02/22-rdf-syntax-ns#" xmlns:crs="http://opengis.org/xmldtds/transformations.dtd" xmlns:svg="http://www.w3.org/svg" >
  <rdf:Description>
   <crs:CoordinateReferenceSystem rdf:resource="http://purl.org/crs/84" svg:transform="matrix(100.0,0.0,0.0,-100.0,0.0,0.0)" />
  </rdf:Description>
 </rdf:RDF>
</metadata>
<globalCoordinateSystem srsName="http://purl.org/crs/84" transform="matrix(100.0,0.0,0.0,-100.0,0.0,0.0)" />
<g >
<image xlink:href="tile0_7.png" preserveAspectRatio="none" x="13992.1875" y="-3541.992188" width="8.789062" height="8.789062"/>
<image xlink:href="tile0_4.png" preserveAspectRatio="none" x="13992.1875" y="-3568.359375" width="8.789062" height="8.789062"/>
<image xlink:href="tile0_3.png" preserveAspectRatio="none" x="13992.1875" y="-3577.148438" width="8.789062" height="8.789062"/>
<image xlink:href="tile0_2.png" preserveAspectRatio="none" x="13992.1875" y="-3585.9375" width="8.789062" height="8.789062"/>
<image xlink:href="tile0_1.png" preserveAspectRatio="none" x="13992.1875" y="-3594.726562" width="8.789062" height="8.789062"/>
<image xlink:href="tile0_0.png" preserveAspectRatio="none" x="13992.1875" y="-3603.515625" width="8.789062" height="8.789062"/>
<image xlink:href="tile1_7.png" preserveAspectRatio="none" x="14000.976562" y="-3541.992188" width="8.789062" height="8.789062"/>
<image xlink:href="tile1_6.png" preserveAspectRatio="none" x="14000.976562" y="-3550.78125" width="8.789062" height="8.789062"/>
<image xlink:href="tile1_5.png" preserveAspectRatio="none" x="14000.976562" y="-3559.570312" width="8.789062" height="8.789062"/>
<image xlink:href="tile1_4.png" preserveAspectRatio="none" x="14000.976562" y="-3568.359375" width="8.789062" height="8.789062"/>
<image xlink:href="tile1_3.png" preserveAspectRatio="none" x="14000.976562" y="-3577.148438" width="8.789062" height="8.789062"/>
<image xlink:href="tile1_2.png" preserveAspectRatio="none" x="14000.976562" y="-3585.9375" width="8.789062" height="8.789062"/>
<image xlink:href="tile1_1.png" preserveAspectRatio="none" x="14000.976562" y="-3594.726562" width="8.789062" height="8.789062"/>
<image xlink:href="tile1_0.png" preserveAspectRatio="none" x="14000.976562" y="-3603.515625" width="8.789062" height="8.789062"/>
<image xlink:href="tile2_7.png" preserveAspectRatio="none" x="14009.765625" y="-3541.992188" width="8.789062" height="8.789062"/>
<image xlink:href="tile2_6.png" preserveAspectRatio="none" x="14009.765625" y="-3550.78125" width="8.789062" height="8.789062"/>
<image xlink:href="tile2_5.png" preserveAspectRatio="none" x="14009.765625" y="-3559.570312" width="8.789062" height="8.789062"/>
<image xlink:href="tile2_4.png" preserveAspectRatio="none" x="14009.765625" y="-3568.359375" width="8.789062" height="8.789062"/>
<image xlink:href="tile2_3.png" preserveAspectRatio="none" x="14009.765625" y="-3577.148438" width="8.789062" height="8.789062"/>
<image xlink:href="tile2_2.png" preserveAspectRatio="none" x="14009.765625" y="-3585.9375" width="8.789062" height="8.789062"/>
<image xlink:href="tile2_1.png" preserveAspectRatio="none" x="14009.765625" y="-3594.726562" width="8.789062" height="8.789062"/>
<image xlink:href="tile2_0.png" preserveAspectRatio="none" x="14009.765625" y="-3603.515625" width="8.789062" height="8.789062"/>
<image xlink:href="tile3_7.png" preserveAspectRatio="none" x="14018.554688" y="-3541.992188" width="8.789062" height="8.789062"/>
<image xlink:href="tile3_6.png" preserveAspectRatio="none" x="14018.554688" y="-3550.78125" width="8.789062" height="8.789062"/>
<image xlink:href="tile3_5.png" preserveAspectRatio="none" x="14018.554688" y="-3559.570312" width="8.789062" height="8.789062"/>
<image xlink:href="tile3_4.png" preserveAspectRatio="none" x="14018.554688" y="-3568.359375" width="8.789062" height="8.789062"/>
<image xlink:href="tile3_3.png" preserveAspectRatio="none" x="14018.554688" y="-3577.148438" width="8.789062" height="8.789062"/>
<image xlink:href="tile3_2.png" preserveAspectRatio="none" x="14018.554688" y="-3585.9375" width="8.789062" height="8.789062"/>
<image xlink:href="tile3_1.png" preserveAspectRatio="none" x="14018.554688" y="-3594.726562" width="8.789062" height="8.789062"/>
<image xlink:href="tile4_7.png" preserveAspectRatio="none" x="14027.34375" y="-3541.992188" width="8.789062" height="8.789062"/>
<image xlink:href="tile4_6.png" preserveAspectRatio="none" x="14027.34375" y="-3550.78125" width="8.789062" height="8.789062"/>
<image xlink:href="tile4_5.png" preserveAspectRatio="none" x="14027.34375" y="-3559.570312" width="8.789062" height="8.789062"/>
<image xlink:href="tile4_4.png" preserveAspectRatio="none" x="14027.34375" y="-3568.359375" width="8.789062" height="8.789062"/>
<image xlink:href="tile4_3.png" preserveAspectRatio="none" x="14027.34375" y="-3577.148438" width="8.789062" height="8.789062"/>
<image xlink:href="tile4_2.png" preserveAspectRatio="none" x="14027.34375" y="-3585.9375" width="8.789062" height="8.789062"/>
<image xlink:href="tile4_1.png" preserveAspectRatio="none" x="14027.34375" y="-3594.726562" width="8.789062" height="8.789062"/>
<image xlink:href="tile4_0.png" preserveAspectRatio="none" x="14027.34375" y="-3603.515625" width="8.789062" height="8.789062"/>
<image xlink:href="tile5_7.png" preserveAspectRatio="none" x="14036.132812" y="-3541.992188" width="8.789062" height="8.789062"/>
<image xlink:href="tile5_6.png" preserveAspectRatio="none" x="14036.132812" y="-3550.78125" width="8.789062" height="8.789062"/>
<image xlink:href="tile5_5.png" preserveAspectRatio="none" x="14036.132812" y="-3559.570312" width="8.789062" height="8.789062"/>
<image xlink:href="tile5_4.png" preserveAspectRatio="none" x="14036.132812" y="-3568.359375" width="8.789062" height="8.789062"/>
<image xlink:href="tile5_3.png" preserveAspectRatio="none" x="14036.132812" y="-3577.148438" width="8.789062" height="8.789062"/>
<image xlink:href="tile5_2.png" preserveAspectRatio="none" x="14036.132812" y="-3585.9375" width="8.789062" height="8.789062"/>
<image xlink:href="tile5_1.png" preserveAspectRatio="none" x="14036.132812" y="-3594.726562" width="8.789062" height="8.789062"/>
<image xlink:href="tile5_0.png" preserveAspectRatio="none" x="14036.132812" y="-3603.515625" width="8.789062" height="8.789062"/>
<image xlink:href="tile6_5.png" preserveAspectRatio="none" x="14044.921875" y="-3559.570312" width="8.789062" height="8.789062"/>
<image xlink:href="tile6_4.png" preserveAspectRatio="none" x="14044.921875" y="-3568.359375" width="8.789062" height="8.789062"/>
<image xlink:href="tile6_3.png" preserveAspectRatio="none" x="14044.921875" y="-3577.148438" width="8.789062" height="8.789062"/>
<image xlink:href="tile6_2.png" preserveAspectRatio="none" x="14044.921875" y="-3585.9375" width="8.789062" height="8.789062"/>
<image xlink:href="tile6_1.png" preserveAspectRatio="none" x="14044.921875" y="-3594.726562" width="8.789062" height="8.789062"/>
<image xlink:href="tile6_0.png" preserveAspectRatio="none" x="14044.921875" y="-3603.515625" width="8.789062" height="8.789062"/>
<image xlink:href="tile7_3.png" preserveAspectRatio="none" x="14053.710938" y="-3577.148438" width="8.789062" height="8.789062"/>
<image xlink:href="tile7_2.png" preserveAspectRatio="none" x="14053.710938" y="-3585.9375" width="8.789062" height="8.789062"/>
<image xlink:href="tile7_1.png" preserveAspectRatio="none" x="14053.710938" y="-3594.726562" width="8.789062" height="8.789062"/>
<image xlink:href="tile7_0.png" preserveAspectRatio="none" x="14053.710938" y="-3603.515625" width="8.789062" height="8.789062"/>
<image xlink:href="tile8_2.png" preserveAspectRatio="none" x="14062.5" y="-3585.9375" width="8.789062" height="8.789062"/>
<image xlink:href="tile8_1.png" preserveAspectRatio="none" x="14062.5" y="-3594.726562" width="8.789062" height="8.789062"/>
<image xlink:href="tile8_0.png" preserveAspectRatio="none" x="14062.5" y="-3603.515625" width="8.789062" height="8.789062"/>
<image xlink:href="tile9_3.png" preserveAspectRatio="none" x="14071.289062" y="-3577.148438" width="8.789062" height="8.789062"/>
<image xlink:href="tile9_2.png" preserveAspectRatio="none" x="14071.289062" y="-3585.9375" width="8.789062" height="8.789062"/>
<image xlink:href="tile10_3.png" preserveAspectRatio="none" x="14080.078125" y="-3577.148438" width="8.789062" height="8.789062"/>
</g>
</svg>
