<?xml version="1.0" encoding="UTF-8"?>
<svg  xmlns="http://www.w3.org/2000/svg" xmlns:xlink="http://www.w3.org/1999/xlink" xmlns:go="http://purl.org/svgmap/profile" viewBox="13900.0 -3733.333333 100.0 66.66666600000042" go:dataArea="13900.0 -3733.333333 100.0 66.66666600000042" >
<metadata>
 <rdf:RDF xmlns:rdf="http://www.w3.org/1999/02/22-rdf-syntax-ns#" xmlns:crs="http://opengis.org/xmldtds/transformations.dtd" xmlns:svg="http://www.w3.org/svg" >
  <rdf:Description>
   <crs:CoordinateReferenceSystem rdf:resource="http://purl.org/crs/84" svg:transform="matrix(100.0,0.0,0.0,-100.0,0.0,0.0)" />
  </rdf:Description>
 </rdf:RDF>
</metadata>
<globalCoordinateSystem srsName="http://purl.org/crs/84" transform="matrix(100.0,0.0,0.0,-100.0,0.0,0.0)" />
<g >
<image xlink:href="tile0_3.png" preserveAspectRatio="none" x="13899.902344" y="-3722.167969" width="4.394531" height="4.394531"/>
<image xlink:href="tile0_2.png" preserveAspectRatio="none" x="13899.902344" y="-3726.5625" width="4.394531" height="4.394531"/>
<image xlink:href="tile0_1.png" preserveAspectRatio="none" x="13899.902344" y="-3730.957031" width="4.394531" height="4.394531"/>
<image xlink:href="tile1_3.png" preserveAspectRatio="none" x="13904.296875" y="-3722.167969" width="4.394531" height="4.394531"/>
<image xlink:href="tile7_1.png" preserveAspectRatio="none" x="13930.664062" y="-3730.957031" width="4.394531" height="4.394531"/>
<image xlink:href="tile7_0.png" preserveAspectRatio="none" x="13930.664062" y="-3735.351562" width="4.394531" height="4.394531"/>
<image xlink:href="tile8_1.png" preserveAspectRatio="none" x="13935.058594" y="-3730.957031" width="4.394531" height="4.394531"/>
<image xlink:href="tile8_0.png" preserveAspectRatio="none" x="13935.058594" y="-3735.351562" width="4.394531" height="4.394531"/>
<image xlink:href="tile9_1.png" preserveAspectRatio="none" x="13939.453125" y="-3730.957031" width="4.394531" height="4.394531"/>
<image xlink:href="tile9_0.png" preserveAspectRatio="none" x="13939.453125" y="-3735.351562" width="4.394531" height="4.394531"/>
<image xlink:href="tile10_1.png" preserveAspectRatio="none" x="13943.847656" y="-3730.957031" width="4.394531" height="4.394531"/>
<image xlink:href="tile10_0.png" preserveAspectRatio="none" x="13943.847656" y="-3735.351562" width="4.394531" height="4.394531"/>
<image xlink:href="tile11_4.png" preserveAspectRatio="none" x="13948.242188" y="-3717.773438" width="4.394531" height="4.394531"/>
<image xlink:href="tile11_3.png" preserveAspectRatio="none" x="13948.242188" y="-3722.167969" width="4.394531" height="4.394531"/>
<image xlink:href="tile11_1.png" preserveAspectRatio="none" x="13948.242188" y="-3730.957031" width="4.394531" height="4.394531"/>
<image xlink:href="tile12_4.png" preserveAspectRatio="none" x="13952.636719" y="-3717.773438" width="4.394531" height="4.394531"/>
<image xlink:href="tile12_3.png" preserveAspectRatio="none" x="13952.636719" y="-3722.167969" width="4.394531" height="4.394531"/>
<image xlink:href="tile12_2.png" preserveAspectRatio="none" x="13952.636719" y="-3726.5625" width="4.394531" height="4.394531"/>
<image xlink:href="tile12_1.png" preserveAspectRatio="none" x="13952.636719" y="-3730.957031" width="4.394531" height="4.394531"/>
<image xlink:href="tile14_15.png" preserveAspectRatio="none" x="13961.425781" y="-3669.433594" width="4.394531" height="4.394531"/>
<image xlink:href="tile14_14.png" preserveAspectRatio="none" x="13961.425781" y="-3673.828125" width="4.394531" height="4.394531"/>
<image xlink:href="tile15_14.png" preserveAspectRatio="none" x="13965.820312" y="-3673.828125" width="4.394531" height="4.394531"/>
<image xlink:href="tile15_6.png" preserveAspectRatio="none" x="13965.820312" y="-3708.984375" width="4.394531" height="4.394531"/>
</g>
</svg>
