<?xml version="1.0" encoding="UTF-8"?>
<svg  xmlns="http://www.w3.org/2000/svg" xmlns:xlink="http://www.w3.org/1999/xlink" xmlns:go="http://purl.org/svgmap/profile" viewBox="13023.099999999999 -3200.0 76.90000000000055 66.66666690000014" go:dataArea="13023.099999999999 -3200.0 76.90000000000055 66.66666690000014" >
<metadata>
 <rdf:RDF xmlns:rdf="http://www.w3.org/1999/02/22-rdf-syntax-ns#" xmlns:crs="http://opengis.org/xmldtds/transformations.dtd" xmlns:svg="http://www.w3.org/svg" >
  <rdf:Description>
   <crs:CoordinateReferenceSystem rdf:resource="http://purl.org/crs/84" svg:transform="matrix(100.0,0.0,0.0,-100.0,0.0,0.0)" />
  </rdf:Description>
 </rdf:RDF>
</metadata>
<globalCoordinateSystem srsName="http://purl.org/crs/84" transform="matrix(100.0,0.0,0.0,-100.0,0.0,0.0)" />
<g >
<animation xlink:href="sub_0_0_container.svg" x="13022.094727" y="-3150.878906" width="17.578125" height="17.578125"/>
<animation xlink:href="sub_0_1_container.svg" x="13022.094727" y="-3168.457031" width="17.578125" height="17.578125"/>
<animation xlink:href="sub_3_0_container.svg" x="13074.829102" y="-3150.878906" width="17.578125" height="17.578125"/>
<animation xlink:href="sub_0_2_container.svg" x="13022.094727" y="-3186.035156" width="17.578125" height="17.578125"/>
<animation xlink:href="sub_3_3_container.svg" x="13074.829102" y="-3203.613281" width="17.578125" height="17.578125"/>
<animation xlink:href="sub_0_3_container.svg" x="13022.094727" y="-3203.613281" width="17.578125" height="17.578125"/>
<animation xlink:href="sub_3_2_container.svg" x="13074.829102" y="-3186.035156" width="17.578125" height="17.578125"/>
<animation xlink:href="sub_2_3_container.svg" x="13057.250977" y="-3203.613281" width="17.578125" height="17.578125"/>
<animation xlink:href="sub_2_2_container.svg" x="13057.250977" y="-3186.035156" width="17.578125" height="17.578125"/>
<animation xlink:href="sub_2_1_container.svg" x="13057.250977" y="-3168.457031" width="17.578125" height="17.578125"/>
<animation xlink:href="sub_2_0_container.svg" x="13057.250977" y="-3150.878906" width="17.578125" height="17.578125"/>
<animation xlink:href="sub_1_1_container.svg" x="13039.672852" y="-3168.457031" width="17.578125" height="17.578125"/>
<animation xlink:href="sub_4_3_container.svg" x="13092.407227" y="-3203.613281" width="17.578125" height="17.578125"/>
<animation xlink:href="sub_1_0_container.svg" x="13039.672852" y="-3150.878906" width="17.578125" height="17.578125"/>
<animation xlink:href="sub_4_2_container.svg" x="13092.407227" y="-3186.035156" width="17.578125" height="17.578125"/>
<animation xlink:href="sub_1_3_container.svg" x="13039.672852" y="-3203.613281" width="17.578125" height="17.578125"/>
<animation xlink:href="sub_1_2_container.svg" x="13039.672852" y="-3186.035156" width="17.578125" height="17.578125"/>
<animation xlink:href="sub_4_0_container.svg" x="13092.407227" y="-3150.878906" width="17.578125" height="17.578125"/>
</g>
</svg>
