<?xml version="1.0" encoding="UTF-8"?>
<svg  xmlns="http://www.w3.org/2000/svg" xmlns:xlink="http://www.w3.org/1999/xlink" xmlns:go="http://purl.org/svgmap/profile" viewBox="13023.099999999999 -3200.0 76.90000000000055 66.66666690000014" go:dataArea="13023.099999999999 -3200.0 76.90000000000055 66.66666690000014" >
<metadata>
 <rdf:RDF xmlns:rdf="http://www.w3.org/1999/02/22-rdf-syntax-ns#" xmlns:crs="http://opengis.org/xmldtds/transformations.dtd" xmlns:svg="http://www.w3.org/svg" >
  <rdf:Description>
   <crs:CoordinateReferenceSystem rdf:resource="http://purl.org/crs/84" svg:transform="matrix(100.0,0.0,0.0,-100.0,0.0,0.0)" />
  </rdf:Description>
 </rdf:RDF>
</metadata>
<globalCoordinateSystem srsName="http://purl.org/crs/84" transform="matrix(100.0,0.0,0.0,-100.0,0.0,0.0)" />
<g >
<image xlink:href="tile64_59.png" preserveAspectRatio="none" x="13092.407227" y="-3135.498047" width="1.098633" height="1.098633"/>
<image xlink:href="tile64_58.png" preserveAspectRatio="none" x="13092.407227" y="-3136.59668" width="1.098633" height="1.098633"/>
<image xlink:href="tile64_57.png" preserveAspectRatio="none" x="13092.407227" y="-3137.695312" width="1.098633" height="1.098633"/>
<image xlink:href="tile65_60.png" preserveAspectRatio="none" x="13093.505859" y="-3134.399414" width="1.098633" height="1.098633"/>
<image xlink:href="tile65_59.png" preserveAspectRatio="none" x="13093.505859" y="-3135.498047" width="1.098633" height="1.098633"/>
<image xlink:href="tile65_58.png" preserveAspectRatio="none" x="13093.505859" y="-3136.59668" width="1.098633" height="1.098633"/>
<image xlink:href="tile65_57.png" preserveAspectRatio="none" x="13093.505859" y="-3137.695312" width="1.098633" height="1.098633"/>
<image xlink:href="tile65_51.png" preserveAspectRatio="none" x="13093.505859" y="-3144.287109" width="1.098633" height="1.098633"/>
<image xlink:href="tile65_50.png" preserveAspectRatio="none" x="13093.505859" y="-3145.385742" width="1.098633" height="1.098633"/>
<image xlink:href="tile66_60.png" preserveAspectRatio="none" x="13094.604492" y="-3134.399414" width="1.098633" height="1.098633"/>
<image xlink:href="tile66_59.png" preserveAspectRatio="none" x="13094.604492" y="-3135.498047" width="1.098633" height="1.098633"/>
<image xlink:href="tile66_58.png" preserveAspectRatio="none" x="13094.604492" y="-3136.59668" width="1.098633" height="1.098633"/>
<image xlink:href="tile66_57.png" preserveAspectRatio="none" x="13094.604492" y="-3137.695312" width="1.098633" height="1.098633"/>
<image xlink:href="tile66_56.png" preserveAspectRatio="none" x="13094.604492" y="-3138.793945" width="1.098633" height="1.098633"/>
<image xlink:href="tile66_55.png" preserveAspectRatio="none" x="13094.604492" y="-3139.892578" width="1.098633" height="1.098633"/>
<image xlink:href="tile66_54.png" preserveAspectRatio="none" x="13094.604492" y="-3140.991211" width="1.098633" height="1.098633"/>
<image xlink:href="tile66_53.png" preserveAspectRatio="none" x="13094.604492" y="-3142.089844" width="1.098633" height="1.098633"/>
<image xlink:href="tile66_52.png" preserveAspectRatio="none" x="13094.604492" y="-3143.188477" width="1.098633" height="1.098633"/>
<image xlink:href="tile66_51.png" preserveAspectRatio="none" x="13094.604492" y="-3144.287109" width="1.098633" height="1.098633"/>
<image xlink:href="tile66_50.png" preserveAspectRatio="none" x="13094.604492" y="-3145.385742" width="1.098633" height="1.098633"/>
<image xlink:href="tile67_59.png" preserveAspectRatio="none" x="13095.703125" y="-3135.498047" width="1.098633" height="1.098633"/>
<image xlink:href="tile67_58.png" preserveAspectRatio="none" x="13095.703125" y="-3136.59668" width="1.098633" height="1.098633"/>
<image xlink:href="tile67_57.png" preserveAspectRatio="none" x="13095.703125" y="-3137.695312" width="1.098633" height="1.098633"/>
<image xlink:href="tile67_56.png" preserveAspectRatio="none" x="13095.703125" y="-3138.793945" width="1.098633" height="1.098633"/>
<image xlink:href="tile67_55.png" preserveAspectRatio="none" x="13095.703125" y="-3139.892578" width="1.098633" height="1.098633"/>
<image xlink:href="tile67_54.png" preserveAspectRatio="none" x="13095.703125" y="-3140.991211" width="1.098633" height="1.098633"/>
<image xlink:href="tile67_53.png" preserveAspectRatio="none" x="13095.703125" y="-3142.089844" width="1.098633" height="1.098633"/>
<image xlink:href="tile67_52.png" preserveAspectRatio="none" x="13095.703125" y="-3143.188477" width="1.098633" height="1.098633"/>
<image xlink:href="tile68_60.png" preserveAspectRatio="none" x="13096.801758" y="-3134.399414" width="1.098633" height="1.098633"/>
<image xlink:href="tile68_59.png" preserveAspectRatio="none" x="13096.801758" y="-3135.498047" width="1.098633" height="1.098633"/>
<image xlink:href="tile68_58.png" preserveAspectRatio="none" x="13096.801758" y="-3136.59668" width="1.098633" height="1.098633"/>
<image xlink:href="tile68_57.png" preserveAspectRatio="none" x="13096.801758" y="-3137.695312" width="1.098633" height="1.098633"/>
<image xlink:href="tile68_56.png" preserveAspectRatio="none" x="13096.801758" y="-3138.793945" width="1.098633" height="1.098633"/>
<image xlink:href="tile68_55.png" preserveAspectRatio="none" x="13096.801758" y="-3139.892578" width="1.098633" height="1.098633"/>
<image xlink:href="tile69_59.png" preserveAspectRatio="none" x="13097.900391" y="-3135.498047" width="1.098633" height="1.098633"/>
<image xlink:href="tile69_58.png" preserveAspectRatio="none" x="13097.900391" y="-3136.59668" width="1.098633" height="1.098633"/>
<image xlink:href="tile69_57.png" preserveAspectRatio="none" x="13097.900391" y="-3137.695312" width="1.098633" height="1.098633"/>
<image xlink:href="tile69_56.png" preserveAspectRatio="none" x="13097.900391" y="-3138.793945" width="1.098633" height="1.098633"/>
<image xlink:href="tile70_59.png" preserveAspectRatio="none" x="13098.999023" y="-3135.498047" width="1.098633" height="1.098633"/>
<image xlink:href="tile70_58.png" preserveAspectRatio="none" x="13098.999023" y="-3136.59668" width="1.098633" height="1.098633"/>
<image xlink:href="tile70_57.png" preserveAspectRatio="none" x="13098.999023" y="-3137.695312" width="1.098633" height="1.098633"/>
<image xlink:href="tile70_56.png" preserveAspectRatio="none" x="13098.999023" y="-3138.793945" width="1.098633" height="1.098633"/>
<image xlink:href="tile70_55.png" preserveAspectRatio="none" x="13098.999023" y="-3139.892578" width="1.098633" height="1.098633"/>
</g>
</svg>
