<?xml version="1.0" encoding="UTF-8"?>
<svg  xmlns="http://www.w3.org/2000/svg" xmlns:xlink="http://www.w3.org/1999/xlink" xmlns:go="http://purl.org/svgmap/profile" viewBox="13688.721259400001 -3684.2985775 11.278740599999537 17.63191050000046" go:dataArea="13688.721259400001 -3684.2985775 11.278740599999537 17.63191050000046" >
<metadata>
 <rdf:RDF xmlns:rdf="http://www.w3.org/1999/02/22-rdf-syntax-ns#" xmlns:crs="http://opengis.org/xmldtds/transformations.dtd" xmlns:svg="http://www.w3.org/svg" >
  <rdf:Description>
   <crs:CoordinateReferenceSystem rdf:resource="http://purl.org/crs/84" svg:transform="matrix(100.0,0.0,0.0,-100.0,0.0,0.0)" />
  </rdf:Description>
 </rdf:RDF>
</metadata>
<globalCoordinateSystem srsName="http://purl.org/crs/84" transform="matrix(100.0,0.0,0.0,-100.0,0.0,0.0)" />
<g >
<image xlink:href="tile0_7.png" preserveAspectRatio="none" x="13686.767578" y="-3669.433594" width="2.197266" height="2.197266"/>
<image xlink:href="tile1_8.png" preserveAspectRatio="none" x="13688.964844" y="-3667.236328" width="2.197266" height="2.197266"/>
<image xlink:href="tile1_7.png" preserveAspectRatio="none" x="13688.964844" y="-3669.433594" width="2.197266" height="2.197266"/>
<image xlink:href="tile1_6.png" preserveAspectRatio="none" x="13688.964844" y="-3671.630859" width="2.197266" height="2.197266"/>
<image xlink:href="tile2_8.png" preserveAspectRatio="none" x="13691.162109" y="-3667.236328" width="2.197266" height="2.197266"/>
<image xlink:href="tile2_7.png" preserveAspectRatio="none" x="13691.162109" y="-3669.433594" width="2.197266" height="2.197266"/>
<image xlink:href="tile2_6.png" preserveAspectRatio="none" x="13691.162109" y="-3671.630859" width="2.197266" height="2.197266"/>
<image xlink:href="tile2_5.png" preserveAspectRatio="none" x="13691.162109" y="-3673.828125" width="2.197266" height="2.197266"/>
<image xlink:href="tile2_4.png" preserveAspectRatio="none" x="13691.162109" y="-3676.025391" width="2.197266" height="2.197266"/>
<image xlink:href="tile3_7.png" preserveAspectRatio="none" x="13693.359375" y="-3669.433594" width="2.197266" height="2.197266"/>
<image xlink:href="tile3_6.png" preserveAspectRatio="none" x="13693.359375" y="-3671.630859" width="2.197266" height="2.197266"/>
<image xlink:href="tile3_5.png" preserveAspectRatio="none" x="13693.359375" y="-3673.828125" width="2.197266" height="2.197266"/>
<image xlink:href="tile3_4.png" preserveAspectRatio="none" x="13693.359375" y="-3676.025391" width="2.197266" height="2.197266"/>
<image xlink:href="tile4_5.png" preserveAspectRatio="none" x="13695.556641" y="-3673.828125" width="2.197266" height="2.197266"/>
<image xlink:href="tile4_4.png" preserveAspectRatio="none" x="13695.556641" y="-3676.025391" width="2.197266" height="2.197266"/>
<image xlink:href="tile4_3.png" preserveAspectRatio="none" x="13695.556641" y="-3678.222656" width="2.197266" height="2.197266"/>
<image xlink:href="tile4_0.png" preserveAspectRatio="none" x="13695.556641" y="-3684.814453" width="2.197266" height="2.197266"/>
<image xlink:href="tile5_4.png" preserveAspectRatio="none" x="13697.753906" y="-3676.025391" width="2.197266" height="2.197266"/>
<image xlink:href="tile5_3.png" preserveAspectRatio="none" x="13697.753906" y="-3678.222656" width="2.197266" height="2.197266"/>
<image xlink:href="tile5_1.png" preserveAspectRatio="none" x="13697.753906" y="-3682.617188" width="2.197266" height="2.197266"/>
<image xlink:href="tile5_0.png" preserveAspectRatio="none" x="13697.753906" y="-3684.814453" width="2.197266" height="2.197266"/>
<image xlink:href="tile6_3.png" preserveAspectRatio="none" x="13699.951172" y="-3678.222656" width="2.197266" height="2.197266"/>
<image xlink:href="tile6_1.png" preserveAspectRatio="none" x="13699.951172" y="-3682.617188" width="2.197266" height="2.197266"/>
<image xlink:href="tile6_0.png" preserveAspectRatio="none" x="13699.951172" y="-3684.814453" width="2.197266" height="2.197266"/>
</g>
</svg>
