<?xml version="1.0" encoding="UTF-8"?>
<svg  xmlns="http://www.w3.org/2000/svg" xmlns:xlink="http://www.w3.org/1999/xlink" xmlns:go="http://purl.org/svgmap/profile" viewBox="14342.193750000002 -4400.0 55.68124999999782 66.66666690000014" go:dataArea="14342.193750000002 -4400.0 55.68124999999782 66.66666690000014" >
<metadata>
 <rdf:RDF xmlns:rdf="http://www.w3.org/1999/02/22-rdf-syntax-ns#" xmlns:crs="http://opengis.org/xmldtds/transformations.dtd" xmlns:svg="http://www.w3.org/svg" >
  <rdf:Description>
   <crs:CoordinateReferenceSystem rdf:resource="http://purl.org/crs/84" svg:transform="matrix(100.0,0.0,0.0,-100.0,0.0,0.0)" />
  </rdf:Description>
 </rdf:RDF>
</metadata>
<globalCoordinateSystem srsName="http://purl.org/crs/84" transform="matrix(100.0,0.0,0.0,-100.0,0.0,0.0)" />
<g >
<image xlink:href="tile6_16.png" preserveAspectRatio="none" x="14354.736328" y="-4365.966797" width="2.197266" height="2.197266"/>
<image xlink:href="tile6_15.png" preserveAspectRatio="none" x="14354.736328" y="-4368.164062" width="2.197266" height="2.197266"/>
<image xlink:href="tile7_15.png" preserveAspectRatio="none" x="14356.933594" y="-4368.164062" width="2.197266" height="2.197266"/>
<image xlink:href="tile8_30.png" preserveAspectRatio="none" x="14359.130859" y="-4335.205078" width="2.197266" height="2.197266"/>
<image xlink:href="tile8_29.png" preserveAspectRatio="none" x="14359.130859" y="-4337.402344" width="2.197266" height="2.197266"/>
<image xlink:href="tile8_15.png" preserveAspectRatio="none" x="14359.130859" y="-4368.164062" width="2.197266" height="2.197266"/>
<image xlink:href="tile9_29.png" preserveAspectRatio="none" x="14361.328125" y="-4337.402344" width="2.197266" height="2.197266"/>
<image xlink:href="tile10_29.png" preserveAspectRatio="none" x="14363.525391" y="-4337.402344" width="2.197266" height="2.197266"/>
<image xlink:href="tile10_28.png" preserveAspectRatio="none" x="14363.525391" y="-4339.599609" width="2.197266" height="2.197266"/>
<image xlink:href="tile11_29.png" preserveAspectRatio="none" x="14365.722656" y="-4337.402344" width="2.197266" height="2.197266"/>
<image xlink:href="tile11_28.png" preserveAspectRatio="none" x="14365.722656" y="-4339.599609" width="2.197266" height="2.197266"/>
<image xlink:href="tile12_28.png" preserveAspectRatio="none" x="14367.919922" y="-4339.599609" width="2.197266" height="2.197266"/>
<image xlink:href="tile12_27.png" preserveAspectRatio="none" x="14367.919922" y="-4341.796875" width="2.197266" height="2.197266"/>
<image xlink:href="tile13_28.png" preserveAspectRatio="none" x="14370.117188" y="-4339.599609" width="2.197266" height="2.197266"/>
<image xlink:href="tile13_27.png" preserveAspectRatio="none" x="14370.117188" y="-4341.796875" width="2.197266" height="2.197266"/>
<image xlink:href="tile13_26.png" preserveAspectRatio="none" x="14370.117188" y="-4343.994141" width="2.197266" height="2.197266"/>
<image xlink:href="tile14_26.png" preserveAspectRatio="none" x="14372.314453" y="-4343.994141" width="2.197266" height="2.197266"/>
<image xlink:href="tile14_25.png" preserveAspectRatio="none" x="14372.314453" y="-4346.191406" width="2.197266" height="2.197266"/>
<image xlink:href="tile14_24.png" preserveAspectRatio="none" x="14372.314453" y="-4348.388672" width="2.197266" height="2.197266"/>
<image xlink:href="tile14_23.png" preserveAspectRatio="none" x="14372.314453" y="-4350.585938" width="2.197266" height="2.197266"/>
<image xlink:href="tile15_25.png" preserveAspectRatio="none" x="14374.511719" y="-4346.191406" width="2.197266" height="2.197266"/>
<image xlink:href="tile15_24.png" preserveAspectRatio="none" x="14374.511719" y="-4348.388672" width="2.197266" height="2.197266"/>
<image xlink:href="tile15_23.png" preserveAspectRatio="none" x="14374.511719" y="-4350.585938" width="2.197266" height="2.197266"/>
</g>
</svg>
