<?xml version="1.0" encoding="UTF-8"?>
<svg  xmlns="http://www.w3.org/2000/svg" xmlns:xlink="http://www.w3.org/1999/xlink" xmlns:go="http://purl.org/svgmap/profile" viewBox="14342.193750000002 -4400.0 55.68124999999782 66.66666690000014" go:dataArea="14342.193750000002 -4400.0 55.68124999999782 66.66666690000014" >
<metadata>
 <rdf:RDF xmlns:rdf="http://www.w3.org/1999/02/22-rdf-syntax-ns#" xmlns:crs="http://opengis.org/xmldtds/transformations.dtd" xmlns:svg="http://www.w3.org/svg" >
  <rdf:Description>
   <crs:CoordinateReferenceSystem rdf:resource="http://purl.org/crs/84" svg:transform="matrix(100.0,0.0,0.0,-100.0,0.0,0.0)" />
  </rdf:Description>
 </rdf:RDF>
</metadata>
<globalCoordinateSystem srsName="http://purl.org/crs/84" transform="matrix(100.0,0.0,0.0,-100.0,0.0,0.0)" />
<g >
<image xlink:href="tile0_12.png" preserveAspectRatio="none" x="14341.552734" y="-4374.755859" width="2.197266" height="2.197266"/>
<image xlink:href="tile1_12.png" preserveAspectRatio="none" x="14343.75" y="-4374.755859" width="2.197266" height="2.197266"/>
<image xlink:href="tile1_11.png" preserveAspectRatio="none" x="14343.75" y="-4376.953125" width="2.197266" height="2.197266"/>
<image xlink:href="tile2_12.png" preserveAspectRatio="none" x="14345.947266" y="-4374.755859" width="2.197266" height="2.197266"/>
<image xlink:href="tile2_11.png" preserveAspectRatio="none" x="14345.947266" y="-4376.953125" width="2.197266" height="2.197266"/>
<image xlink:href="tile3_11.png" preserveAspectRatio="none" x="14348.144531" y="-4376.953125" width="2.197266" height="2.197266"/>
<image xlink:href="tile4_11.png" preserveAspectRatio="none" x="14350.341797" y="-4376.953125" width="2.197266" height="2.197266"/>
<image xlink:href="tile4_6.png" preserveAspectRatio="none" x="14350.341797" y="-4387.939453" width="2.197266" height="2.197266"/>
<image xlink:href="tile4_5.png" preserveAspectRatio="none" x="14350.341797" y="-4390.136719" width="2.197266" height="2.197266"/>
<image xlink:href="tile4_3.png" preserveAspectRatio="none" x="14350.341797" y="-4394.53125" width="2.197266" height="2.197266"/>
<image xlink:href="tile4_2.png" preserveAspectRatio="none" x="14350.341797" y="-4396.728516" width="2.197266" height="2.197266"/>
<image xlink:href="tile5_11.png" preserveAspectRatio="none" x="14352.539062" y="-4376.953125" width="2.197266" height="2.197266"/>
<image xlink:href="tile5_10.png" preserveAspectRatio="none" x="14352.539062" y="-4379.150391" width="2.197266" height="2.197266"/>
<image xlink:href="tile5_5.png" preserveAspectRatio="none" x="14352.539062" y="-4390.136719" width="2.197266" height="2.197266"/>
<image xlink:href="tile5_4.png" preserveAspectRatio="none" x="14352.539062" y="-4392.333984" width="2.197266" height="2.197266"/>
<image xlink:href="tile5_3.png" preserveAspectRatio="none" x="14352.539062" y="-4394.53125" width="2.197266" height="2.197266"/>
<image xlink:href="tile5_2.png" preserveAspectRatio="none" x="14352.539062" y="-4396.728516" width="2.197266" height="2.197266"/>
<image xlink:href="tile5_1.png" preserveAspectRatio="none" x="14352.539062" y="-4398.925781" width="2.197266" height="2.197266"/>
<image xlink:href="tile5_0.png" preserveAspectRatio="none" x="14352.539062" y="-4401.123047" width="2.197266" height="2.197266"/>
<image xlink:href="tile6_12.png" preserveAspectRatio="none" x="14354.736328" y="-4374.755859" width="2.197266" height="2.197266"/>
<image xlink:href="tile6_11.png" preserveAspectRatio="none" x="14354.736328" y="-4376.953125" width="2.197266" height="2.197266"/>
<image xlink:href="tile6_10.png" preserveAspectRatio="none" x="14354.736328" y="-4379.150391" width="2.197266" height="2.197266"/>
<image xlink:href="tile7_12.png" preserveAspectRatio="none" x="14356.933594" y="-4374.755859" width="2.197266" height="2.197266"/>
<image xlink:href="tile7_11.png" preserveAspectRatio="none" x="14356.933594" y="-4376.953125" width="2.197266" height="2.197266"/>
<image xlink:href="tile7_10.png" preserveAspectRatio="none" x="14356.933594" y="-4379.150391" width="2.197266" height="2.197266"/>
<image xlink:href="tile8_14.png" preserveAspectRatio="none" x="14359.130859" y="-4370.361328" width="2.197266" height="2.197266"/>
<image xlink:href="tile8_12.png" preserveAspectRatio="none" x="14359.130859" y="-4374.755859" width="2.197266" height="2.197266"/>
<image xlink:href="tile8_10.png" preserveAspectRatio="none" x="14359.130859" y="-4379.150391" width="2.197266" height="2.197266"/>
<image xlink:href="tile8_9.png" preserveAspectRatio="none" x="14359.130859" y="-4381.347656" width="2.197266" height="2.197266"/>
<image xlink:href="tile9_14.png" preserveAspectRatio="none" x="14361.328125" y="-4370.361328" width="2.197266" height="2.197266"/>
<image xlink:href="tile9_13.png" preserveAspectRatio="none" x="14361.328125" y="-4372.558594" width="2.197266" height="2.197266"/>
<image xlink:href="tile9_12.png" preserveAspectRatio="none" x="14361.328125" y="-4374.755859" width="2.197266" height="2.197266"/>
<image xlink:href="tile9_10.png" preserveAspectRatio="none" x="14361.328125" y="-4379.150391" width="2.197266" height="2.197266"/>
<image xlink:href="tile9_6.png" preserveAspectRatio="none" x="14361.328125" y="-4387.939453" width="2.197266" height="2.197266"/>
<image xlink:href="tile9_5.png" preserveAspectRatio="none" x="14361.328125" y="-4390.136719" width="2.197266" height="2.197266"/>
<image xlink:href="tile9_4.png" preserveAspectRatio="none" x="14361.328125" y="-4392.333984" width="2.197266" height="2.197266"/>
<image xlink:href="tile10_14.png" preserveAspectRatio="none" x="14363.525391" y="-4370.361328" width="2.197266" height="2.197266"/>
<image xlink:href="tile10_13.png" preserveAspectRatio="none" x="14363.525391" y="-4372.558594" width="2.197266" height="2.197266"/>
<image xlink:href="tile10_12.png" preserveAspectRatio="none" x="14363.525391" y="-4374.755859" width="2.197266" height="2.197266"/>
<image xlink:href="tile10_11.png" preserveAspectRatio="none" x="14363.525391" y="-4376.953125" width="2.197266" height="2.197266"/>
<image xlink:href="tile10_10.png" preserveAspectRatio="none" x="14363.525391" y="-4379.150391" width="2.197266" height="2.197266"/>
<image xlink:href="tile10_6.png" preserveAspectRatio="none" x="14363.525391" y="-4387.939453" width="2.197266" height="2.197266"/>
<image xlink:href="tile10_5.png" preserveAspectRatio="none" x="14363.525391" y="-4390.136719" width="2.197266" height="2.197266"/>
<image xlink:href="tile10_4.png" preserveAspectRatio="none" x="14363.525391" y="-4392.333984" width="2.197266" height="2.197266"/>
<image xlink:href="tile10_3.png" preserveAspectRatio="none" x="14363.525391" y="-4394.53125" width="2.197266" height="2.197266"/>
<image xlink:href="tile10_2.png" preserveAspectRatio="none" x="14363.525391" y="-4396.728516" width="2.197266" height="2.197266"/>
<image xlink:href="tile11_13.png" preserveAspectRatio="none" x="14365.722656" y="-4372.558594" width="2.197266" height="2.197266"/>
<image xlink:href="tile11_11.png" preserveAspectRatio="none" x="14365.722656" y="-4376.953125" width="2.197266" height="2.197266"/>
<image xlink:href="tile11_10.png" preserveAspectRatio="none" x="14365.722656" y="-4379.150391" width="2.197266" height="2.197266"/>
<image xlink:href="tile11_9.png" preserveAspectRatio="none" x="14365.722656" y="-4381.347656" width="2.197266" height="2.197266"/>
<image xlink:href="tile11_3.png" preserveAspectRatio="none" x="14365.722656" y="-4394.53125" width="2.197266" height="2.197266"/>
<image xlink:href="tile11_2.png" preserveAspectRatio="none" x="14365.722656" y="-4396.728516" width="2.197266" height="2.197266"/>
<image xlink:href="tile11_1.png" preserveAspectRatio="none" x="14365.722656" y="-4398.925781" width="2.197266" height="2.197266"/>
<image xlink:href="tile12_13.png" preserveAspectRatio="none" x="14367.919922" y="-4372.558594" width="2.197266" height="2.197266"/>
<image xlink:href="tile12_12.png" preserveAspectRatio="none" x="14367.919922" y="-4374.755859" width="2.197266" height="2.197266"/>
<image xlink:href="tile12_11.png" preserveAspectRatio="none" x="14367.919922" y="-4376.953125" width="2.197266" height="2.197266"/>
<image xlink:href="tile12_10.png" preserveAspectRatio="none" x="14367.919922" y="-4379.150391" width="2.197266" height="2.197266"/>
<image xlink:href="tile12_9.png" preserveAspectRatio="none" x="14367.919922" y="-4381.347656" width="2.197266" height="2.197266"/>
<image xlink:href="tile12_1.png" preserveAspectRatio="none" x="14367.919922" y="-4398.925781" width="2.197266" height="2.197266"/>
<image xlink:href="tile13_13.png" preserveAspectRatio="none" x="14370.117188" y="-4372.558594" width="2.197266" height="2.197266"/>
<image xlink:href="tile13_12.png" preserveAspectRatio="none" x="14370.117188" y="-4374.755859" width="2.197266" height="2.197266"/>
<image xlink:href="tile13_11.png" preserveAspectRatio="none" x="14370.117188" y="-4376.953125" width="2.197266" height="2.197266"/>
<image xlink:href="tile13_10.png" preserveAspectRatio="none" x="14370.117188" y="-4379.150391" width="2.197266" height="2.197266"/>
<image xlink:href="tile13_9.png" preserveAspectRatio="none" x="14370.117188" y="-4381.347656" width="2.197266" height="2.197266"/>
<image xlink:href="tile13_1.png" preserveAspectRatio="none" x="14370.117188" y="-4398.925781" width="2.197266" height="2.197266"/>
<image xlink:href="tile13_0.png" preserveAspectRatio="none" x="14370.117188" y="-4401.123047" width="2.197266" height="2.197266"/>
<image xlink:href="tile14_13.png" preserveAspectRatio="none" x="14372.314453" y="-4372.558594" width="2.197266" height="2.197266"/>
<image xlink:href="tile14_12.png" preserveAspectRatio="none" x="14372.314453" y="-4374.755859" width="2.197266" height="2.197266"/>
<image xlink:href="tile14_11.png" preserveAspectRatio="none" x="14372.314453" y="-4376.953125" width="2.197266" height="2.197266"/>
<image xlink:href="tile14_10.png" preserveAspectRatio="none" x="14372.314453" y="-4379.150391" width="2.197266" height="2.197266"/>
<image xlink:href="tile14_9.png" preserveAspectRatio="none" x="14372.314453" y="-4381.347656" width="2.197266" height="2.197266"/>
<image xlink:href="tile14_1.png" preserveAspectRatio="none" x="14372.314453" y="-4398.925781" width="2.197266" height="2.197266"/>
<image xlink:href="tile14_0.png" preserveAspectRatio="none" x="14372.314453" y="-4401.123047" width="2.197266" height="2.197266"/>
<image xlink:href="tile15_13.png" preserveAspectRatio="none" x="14374.511719" y="-4372.558594" width="2.197266" height="2.197266"/>
<image xlink:href="tile15_12.png" preserveAspectRatio="none" x="14374.511719" y="-4374.755859" width="2.197266" height="2.197266"/>
<image xlink:href="tile15_10.png" preserveAspectRatio="none" x="14374.511719" y="-4379.150391" width="2.197266" height="2.197266"/>
<image xlink:href="tile15_9.png" preserveAspectRatio="none" x="14374.511719" y="-4381.347656" width="2.197266" height="2.197266"/>
<image xlink:href="tile15_0.png" preserveAspectRatio="none" x="14374.511719" y="-4401.123047" width="2.197266" height="2.197266"/>
</g>
</svg>
