<?xml version="1.0" encoding="UTF-8"?>
<svg  xmlns="http://www.w3.org/2000/svg" xmlns:xlink="http://www.w3.org/1999/xlink" xmlns:go="http://purl.org/svgmap/profile" viewBox="13830.032136099999 -3800.0 69.96786390000125 66.66666699999979" go:dataArea="13830.032136099999 -3800.0 69.96786390000125 66.66666699999979" >
<metadata>
 <rdf:RDF xmlns:rdf="http://www.w3.org/1999/02/22-rdf-syntax-ns#" xmlns:crs="http://opengis.org/xmldtds/transformations.dtd" xmlns:svg="http://www.w3.org/svg" >
  <rdf:Description>
   <crs:CoordinateReferenceSystem rdf:resource="http://purl.org/crs/84" svg:transform="matrix(100.0,0.0,0.0,-100.0,0.0,0.0)" />
  </rdf:Description>
 </rdf:RDF>
</metadata>
<globalCoordinateSystem srsName="http://purl.org/crs/84" transform="matrix(100.0,0.0,0.0,-100.0,0.0,0.0)" />
<g >
<image xlink:href="tile0_8.png" preserveAspectRatio="none" x="13829.589844" y="-3783.691406" width="2.197266" height="2.197266"/>
<image xlink:href="tile0_7.png" preserveAspectRatio="none" x="13829.589844" y="-3785.888672" width="2.197266" height="2.197266"/>
<image xlink:href="tile0_6.png" preserveAspectRatio="none" x="13829.589844" y="-3788.085938" width="2.197266" height="2.197266"/>
<image xlink:href="tile1_8.png" preserveAspectRatio="none" x="13831.787109" y="-3783.691406" width="2.197266" height="2.197266"/>
<image xlink:href="tile1_7.png" preserveAspectRatio="none" x="13831.787109" y="-3785.888672" width="2.197266" height="2.197266"/>
<image xlink:href="tile1_6.png" preserveAspectRatio="none" x="13831.787109" y="-3788.085938" width="2.197266" height="2.197266"/>
<image xlink:href="tile1_1.png" preserveAspectRatio="none" x="13831.787109" y="-3799.072266" width="2.197266" height="2.197266"/>
<image xlink:href="tile1_0.png" preserveAspectRatio="none" x="13831.787109" y="-3801.269531" width="2.197266" height="2.197266"/>
<image xlink:href="tile2_6.png" preserveAspectRatio="none" x="13833.984375" y="-3788.085938" width="2.197266" height="2.197266"/>
<image xlink:href="tile2_5.png" preserveAspectRatio="none" x="13833.984375" y="-3790.283203" width="2.197266" height="2.197266"/>
<image xlink:href="tile2_1.png" preserveAspectRatio="none" x="13833.984375" y="-3799.072266" width="2.197266" height="2.197266"/>
<image xlink:href="tile2_0.png" preserveAspectRatio="none" x="13833.984375" y="-3801.269531" width="2.197266" height="2.197266"/>
<image xlink:href="tile3_5.png" preserveAspectRatio="none" x="13836.181641" y="-3790.283203" width="2.197266" height="2.197266"/>
<image xlink:href="tile3_4.png" preserveAspectRatio="none" x="13836.181641" y="-3792.480469" width="2.197266" height="2.197266"/>
<image xlink:href="tile3_1.png" preserveAspectRatio="none" x="13836.181641" y="-3799.072266" width="2.197266" height="2.197266"/>
<image xlink:href="tile3_0.png" preserveAspectRatio="none" x="13836.181641" y="-3801.269531" width="2.197266" height="2.197266"/>
<image xlink:href="tile4_5.png" preserveAspectRatio="none" x="13838.378906" y="-3790.283203" width="2.197266" height="2.197266"/>
<image xlink:href="tile4_4.png" preserveAspectRatio="none" x="13838.378906" y="-3792.480469" width="2.197266" height="2.197266"/>
<image xlink:href="tile4_1.png" preserveAspectRatio="none" x="13838.378906" y="-3799.072266" width="2.197266" height="2.197266"/>
<image xlink:href="tile4_0.png" preserveAspectRatio="none" x="13838.378906" y="-3801.269531" width="2.197266" height="2.197266"/>
<image xlink:href="tile5_0.png" preserveAspectRatio="none" x="13840.576172" y="-3801.269531" width="2.197266" height="2.197266"/>
</g>
</svg>
