<?xml version="1.0" encoding="UTF-8"?>
<svg  xmlns="http://www.w3.org/2000/svg" xmlns:xlink="http://www.w3.org/1999/xlink" xmlns:go="http://purl.org/svgmap/profile" viewBox="13611.093970300002 -3666.666667 88.90602969999861 66.66666699999979" go:dataArea="13611.093970300002 -3666.666667 88.90602969999861 66.66666699999979" >
<metadata>
 <rdf:RDF xmlns:rdf="http://www.w3.org/1999/02/22-rdf-syntax-ns#" xmlns:crs="http://opengis.org/xmldtds/transformations.dtd" xmlns:svg="http://www.w3.org/svg" >
  <rdf:Description>
   <crs:CoordinateReferenceSystem rdf:resource="http://purl.org/crs/84" svg:transform="matrix(100.0,0.0,0.0,-100.0,0.0,0.0)" />
  </rdf:Description>
 </rdf:RDF>
</metadata>
<globalCoordinateSystem srsName="http://purl.org/crs/84" transform="matrix(100.0,0.0,0.0,-100.0,0.0,0.0)" />
<g >
<image xlink:href="tile16_14.png" preserveAspectRatio="none" x="13645.019531" y="-3636.474609" width="2.197266" height="2.197266"/>
<image xlink:href="tile16_13.png" preserveAspectRatio="none" x="13645.019531" y="-3638.671875" width="2.197266" height="2.197266"/>
<image xlink:href="tile16_12.png" preserveAspectRatio="none" x="13645.019531" y="-3640.869141" width="2.197266" height="2.197266"/>
<image xlink:href="tile16_11.png" preserveAspectRatio="none" x="13645.019531" y="-3643.066406" width="2.197266" height="2.197266"/>
<image xlink:href="tile16_10.png" preserveAspectRatio="none" x="13645.019531" y="-3645.263672" width="2.197266" height="2.197266"/>
<image xlink:href="tile16_9.png" preserveAspectRatio="none" x="13645.019531" y="-3647.460938" width="2.197266" height="2.197266"/>
<image xlink:href="tile16_8.png" preserveAspectRatio="none" x="13645.019531" y="-3649.658203" width="2.197266" height="2.197266"/>
<image xlink:href="tile17_13.png" preserveAspectRatio="none" x="13647.216797" y="-3638.671875" width="2.197266" height="2.197266"/>
<image xlink:href="tile17_12.png" preserveAspectRatio="none" x="13647.216797" y="-3640.869141" width="2.197266" height="2.197266"/>
<image xlink:href="tile17_11.png" preserveAspectRatio="none" x="13647.216797" y="-3643.066406" width="2.197266" height="2.197266"/>
<image xlink:href="tile17_10.png" preserveAspectRatio="none" x="13647.216797" y="-3645.263672" width="2.197266" height="2.197266"/>
<image xlink:href="tile17_9.png" preserveAspectRatio="none" x="13647.216797" y="-3647.460938" width="2.197266" height="2.197266"/>
<image xlink:href="tile17_8.png" preserveAspectRatio="none" x="13647.216797" y="-3649.658203" width="2.197266" height="2.197266"/>
<image xlink:href="tile17_7.png" preserveAspectRatio="none" x="13647.216797" y="-3651.855469" width="2.197266" height="2.197266"/>
<image xlink:href="tile18_12.png" preserveAspectRatio="none" x="13649.414062" y="-3640.869141" width="2.197266" height="2.197266"/>
<image xlink:href="tile18_11.png" preserveAspectRatio="none" x="13649.414062" y="-3643.066406" width="2.197266" height="2.197266"/>
<image xlink:href="tile18_10.png" preserveAspectRatio="none" x="13649.414062" y="-3645.263672" width="2.197266" height="2.197266"/>
<image xlink:href="tile18_9.png" preserveAspectRatio="none" x="13649.414062" y="-3647.460938" width="2.197266" height="2.197266"/>
<image xlink:href="tile18_8.png" preserveAspectRatio="none" x="13649.414062" y="-3649.658203" width="2.197266" height="2.197266"/>
<image xlink:href="tile18_7.png" preserveAspectRatio="none" x="13649.414062" y="-3651.855469" width="2.197266" height="2.197266"/>
<image xlink:href="tile18_6.png" preserveAspectRatio="none" x="13649.414062" y="-3654.052734" width="2.197266" height="2.197266"/>
<image xlink:href="tile19_12.png" preserveAspectRatio="none" x="13651.611328" y="-3640.869141" width="2.197266" height="2.197266"/>
<image xlink:href="tile19_11.png" preserveAspectRatio="none" x="13651.611328" y="-3643.066406" width="2.197266" height="2.197266"/>
<image xlink:href="tile19_10.png" preserveAspectRatio="none" x="13651.611328" y="-3645.263672" width="2.197266" height="2.197266"/>
<image xlink:href="tile19_9.png" preserveAspectRatio="none" x="13651.611328" y="-3647.460938" width="2.197266" height="2.197266"/>
<image xlink:href="tile19_8.png" preserveAspectRatio="none" x="13651.611328" y="-3649.658203" width="2.197266" height="2.197266"/>
<image xlink:href="tile19_7.png" preserveAspectRatio="none" x="13651.611328" y="-3651.855469" width="2.197266" height="2.197266"/>
<image xlink:href="tile19_6.png" preserveAspectRatio="none" x="13651.611328" y="-3654.052734" width="2.197266" height="2.197266"/>
<image xlink:href="tile19_5.png" preserveAspectRatio="none" x="13651.611328" y="-3656.25" width="2.197266" height="2.197266"/>
<image xlink:href="tile20_11.png" preserveAspectRatio="none" x="13653.808594" y="-3643.066406" width="2.197266" height="2.197266"/>
<image xlink:href="tile20_10.png" preserveAspectRatio="none" x="13653.808594" y="-3645.263672" width="2.197266" height="2.197266"/>
<image xlink:href="tile20_9.png" preserveAspectRatio="none" x="13653.808594" y="-3647.460938" width="2.197266" height="2.197266"/>
<image xlink:href="tile20_8.png" preserveAspectRatio="none" x="13653.808594" y="-3649.658203" width="2.197266" height="2.197266"/>
<image xlink:href="tile20_7.png" preserveAspectRatio="none" x="13653.808594" y="-3651.855469" width="2.197266" height="2.197266"/>
<image xlink:href="tile20_6.png" preserveAspectRatio="none" x="13653.808594" y="-3654.052734" width="2.197266" height="2.197266"/>
<image xlink:href="tile20_5.png" preserveAspectRatio="none" x="13653.808594" y="-3656.25" width="2.197266" height="2.197266"/>
<image xlink:href="tile21_10.png" preserveAspectRatio="none" x="13656.005859" y="-3645.263672" width="2.197266" height="2.197266"/>
<image xlink:href="tile21_9.png" preserveAspectRatio="none" x="13656.005859" y="-3647.460938" width="2.197266" height="2.197266"/>
<image xlink:href="tile21_8.png" preserveAspectRatio="none" x="13656.005859" y="-3649.658203" width="2.197266" height="2.197266"/>
<image xlink:href="tile21_7.png" preserveAspectRatio="none" x="13656.005859" y="-3651.855469" width="2.197266" height="2.197266"/>
<image xlink:href="tile21_6.png" preserveAspectRatio="none" x="13656.005859" y="-3654.052734" width="2.197266" height="2.197266"/>
<image xlink:href="tile21_5.png" preserveAspectRatio="none" x="13656.005859" y="-3656.25" width="2.197266" height="2.197266"/>
<image xlink:href="tile21_4.png" preserveAspectRatio="none" x="13656.005859" y="-3658.447266" width="2.197266" height="2.197266"/>
<image xlink:href="tile22_10.png" preserveAspectRatio="none" x="13658.203125" y="-3645.263672" width="2.197266" height="2.197266"/>
<image xlink:href="tile22_9.png" preserveAspectRatio="none" x="13658.203125" y="-3647.460938" width="2.197266" height="2.197266"/>
<image xlink:href="tile22_8.png" preserveAspectRatio="none" x="13658.203125" y="-3649.658203" width="2.197266" height="2.197266"/>
<image xlink:href="tile22_7.png" preserveAspectRatio="none" x="13658.203125" y="-3651.855469" width="2.197266" height="2.197266"/>
<image xlink:href="tile22_6.png" preserveAspectRatio="none" x="13658.203125" y="-3654.052734" width="2.197266" height="2.197266"/>
<image xlink:href="tile22_5.png" preserveAspectRatio="none" x="13658.203125" y="-3656.25" width="2.197266" height="2.197266"/>
<image xlink:href="tile22_4.png" preserveAspectRatio="none" x="13658.203125" y="-3658.447266" width="2.197266" height="2.197266"/>
<image xlink:href="tile22_3.png" preserveAspectRatio="none" x="13658.203125" y="-3660.644531" width="2.197266" height="2.197266"/>
<image xlink:href="tile22_2.png" preserveAspectRatio="none" x="13658.203125" y="-3662.841797" width="2.197266" height="2.197266"/>
<image xlink:href="tile23_10.png" preserveAspectRatio="none" x="13660.400391" y="-3645.263672" width="2.197266" height="2.197266"/>
<image xlink:href="tile23_9.png" preserveAspectRatio="none" x="13660.400391" y="-3647.460938" width="2.197266" height="2.197266"/>
<image xlink:href="tile23_8.png" preserveAspectRatio="none" x="13660.400391" y="-3649.658203" width="2.197266" height="2.197266"/>
<image xlink:href="tile23_7.png" preserveAspectRatio="none" x="13660.400391" y="-3651.855469" width="2.197266" height="2.197266"/>
<image xlink:href="tile23_6.png" preserveAspectRatio="none" x="13660.400391" y="-3654.052734" width="2.197266" height="2.197266"/>
<image xlink:href="tile23_5.png" preserveAspectRatio="none" x="13660.400391" y="-3656.25" width="2.197266" height="2.197266"/>
<image xlink:href="tile23_4.png" preserveAspectRatio="none" x="13660.400391" y="-3658.447266" width="2.197266" height="2.197266"/>
<image xlink:href="tile23_3.png" preserveAspectRatio="none" x="13660.400391" y="-3660.644531" width="2.197266" height="2.197266"/>
<image xlink:href="tile23_2.png" preserveAspectRatio="none" x="13660.400391" y="-3662.841797" width="2.197266" height="2.197266"/>
<image xlink:href="tile24_10.png" preserveAspectRatio="none" x="13662.597656" y="-3645.263672" width="2.197266" height="2.197266"/>
<image xlink:href="tile24_9.png" preserveAspectRatio="none" x="13662.597656" y="-3647.460938" width="2.197266" height="2.197266"/>
<image xlink:href="tile24_7.png" preserveAspectRatio="none" x="13662.597656" y="-3651.855469" width="2.197266" height="2.197266"/>
<image xlink:href="tile24_6.png" preserveAspectRatio="none" x="13662.597656" y="-3654.052734" width="2.197266" height="2.197266"/>
<image xlink:href="tile24_5.png" preserveAspectRatio="none" x="13662.597656" y="-3656.25" width="2.197266" height="2.197266"/>
<image xlink:href="tile24_4.png" preserveAspectRatio="none" x="13662.597656" y="-3658.447266" width="2.197266" height="2.197266"/>
<image xlink:href="tile24_3.png" preserveAspectRatio="none" x="13662.597656" y="-3660.644531" width="2.197266" height="2.197266"/>
<image xlink:href="tile24_2.png" preserveAspectRatio="none" x="13662.597656" y="-3662.841797" width="2.197266" height="2.197266"/>
<image xlink:href="tile24_1.png" preserveAspectRatio="none" x="13662.597656" y="-3665.039062" width="2.197266" height="2.197266"/>
<image xlink:href="tile25_6.png" preserveAspectRatio="none" x="13664.794922" y="-3654.052734" width="2.197266" height="2.197266"/>
<image xlink:href="tile25_5.png" preserveAspectRatio="none" x="13664.794922" y="-3656.25" width="2.197266" height="2.197266"/>
<image xlink:href="tile25_4.png" preserveAspectRatio="none" x="13664.794922" y="-3658.447266" width="2.197266" height="2.197266"/>
<image xlink:href="tile25_3.png" preserveAspectRatio="none" x="13664.794922" y="-3660.644531" width="2.197266" height="2.197266"/>
<image xlink:href="tile25_2.png" preserveAspectRatio="none" x="13664.794922" y="-3662.841797" width="2.197266" height="2.197266"/>
<image xlink:href="tile25_1.png" preserveAspectRatio="none" x="13664.794922" y="-3665.039062" width="2.197266" height="2.197266"/>
<image xlink:href="tile25_0.png" preserveAspectRatio="none" x="13664.794922" y="-3667.236328" width="2.197266" height="2.197266"/>
<image xlink:href="tile26_6.png" preserveAspectRatio="none" x="13666.992188" y="-3654.052734" width="2.197266" height="2.197266"/>
<image xlink:href="tile26_5.png" preserveAspectRatio="none" x="13666.992188" y="-3656.25" width="2.197266" height="2.197266"/>
<image xlink:href="tile26_4.png" preserveAspectRatio="none" x="13666.992188" y="-3658.447266" width="2.197266" height="2.197266"/>
<image xlink:href="tile26_3.png" preserveAspectRatio="none" x="13666.992188" y="-3660.644531" width="2.197266" height="2.197266"/>
<image xlink:href="tile26_2.png" preserveAspectRatio="none" x="13666.992188" y="-3662.841797" width="2.197266" height="2.197266"/>
<image xlink:href="tile26_1.png" preserveAspectRatio="none" x="13666.992188" y="-3665.039062" width="2.197266" height="2.197266"/>
<image xlink:href="tile26_0.png" preserveAspectRatio="none" x="13666.992188" y="-3667.236328" width="2.197266" height="2.197266"/>
<image xlink:href="tile27_6.png" preserveAspectRatio="none" x="13669.189453" y="-3654.052734" width="2.197266" height="2.197266"/>
<image xlink:href="tile27_5.png" preserveAspectRatio="none" x="13669.189453" y="-3656.25" width="2.197266" height="2.197266"/>
<image xlink:href="tile27_4.png" preserveAspectRatio="none" x="13669.189453" y="-3658.447266" width="2.197266" height="2.197266"/>
<image xlink:href="tile27_3.png" preserveAspectRatio="none" x="13669.189453" y="-3660.644531" width="2.197266" height="2.197266"/>
<image xlink:href="tile27_2.png" preserveAspectRatio="none" x="13669.189453" y="-3662.841797" width="2.197266" height="2.197266"/>
<image xlink:href="tile27_1.png" preserveAspectRatio="none" x="13669.189453" y="-3665.039062" width="2.197266" height="2.197266"/>
<image xlink:href="tile27_0.png" preserveAspectRatio="none" x="13669.189453" y="-3667.236328" width="2.197266" height="2.197266"/>
<image xlink:href="tile28_3.png" preserveAspectRatio="none" x="13671.386719" y="-3660.644531" width="2.197266" height="2.197266"/>
<image xlink:href="tile28_1.png" preserveAspectRatio="none" x="13671.386719" y="-3665.039062" width="2.197266" height="2.197266"/>
<image xlink:href="tile28_0.png" preserveAspectRatio="none" x="13671.386719" y="-3667.236328" width="2.197266" height="2.197266"/>
<image xlink:href="tile29_3.png" preserveAspectRatio="none" x="13673.583984" y="-3660.644531" width="2.197266" height="2.197266"/>
<image xlink:href="tile29_0.png" preserveAspectRatio="none" x="13673.583984" y="-3667.236328" width="2.197266" height="2.197266"/>
</g>
</svg>
