<?xml version="1.0" encoding="UTF-8"?>
<svg  xmlns="http://www.w3.org/2000/svg" xmlns:xlink="http://www.w3.org/1999/xlink" xmlns:go="http://purl.org/svgmap/profile" viewBox="14021.281816300001 -4118.7996653 76.63107619999892 52.13299830000011" go:dataArea="14021.281816300001 -4118.7996653 76.63107619999892 52.13299830000011" >
<metadata>
 <rdf:RDF xmlns:rdf="http://www.w3.org/1999/02/22-rdf-syntax-ns#" xmlns:crs="http://opengis.org/xmldtds/transformations.dtd" xmlns:svg="http://www.w3.org/svg" >
  <rdf:Description>
   <crs:CoordinateReferenceSystem rdf:resource="http://purl.org/crs/84" svg:transform="matrix(100.0,0.0,0.0,-100.0,0.0,0.0)" />
  </rdf:Description>
 </rdf:RDF>
</metadata>
<globalCoordinateSystem srsName="http://purl.org/crs/84" transform="matrix(100.0,0.0,0.0,-100.0,0.0,0.0)" />
<g >
<image xlink:href="tile16_32.png" preserveAspectRatio="none" x="14038.330078" y="-4084.716797" width="1.098633" height="1.098633"/>
<image xlink:href="tile16_31.png" preserveAspectRatio="none" x="14038.330078" y="-4085.81543" width="1.098633" height="1.098633"/>
<image xlink:href="tile16_30.png" preserveAspectRatio="none" x="14038.330078" y="-4086.914062" width="1.098633" height="1.098633"/>
<image xlink:href="tile16_29.png" preserveAspectRatio="none" x="14038.330078" y="-4088.012695" width="1.098633" height="1.098633"/>
<image xlink:href="tile16_28.png" preserveAspectRatio="none" x="14038.330078" y="-4089.111328" width="1.098633" height="1.098633"/>
<image xlink:href="tile16_27.png" preserveAspectRatio="none" x="14038.330078" y="-4090.209961" width="1.098633" height="1.098633"/>
<image xlink:href="tile16_26.png" preserveAspectRatio="none" x="14038.330078" y="-4091.308594" width="1.098633" height="1.098633"/>
<image xlink:href="tile16_25.png" preserveAspectRatio="none" x="14038.330078" y="-4092.407227" width="1.098633" height="1.098633"/>
<image xlink:href="tile16_24.png" preserveAspectRatio="none" x="14038.330078" y="-4093.505859" width="1.098633" height="1.098633"/>
<image xlink:href="tile16_23.png" preserveAspectRatio="none" x="14038.330078" y="-4094.604492" width="1.098633" height="1.098633"/>
<image xlink:href="tile16_22.png" preserveAspectRatio="none" x="14038.330078" y="-4095.703125" width="1.098633" height="1.098633"/>
<image xlink:href="tile16_21.png" preserveAspectRatio="none" x="14038.330078" y="-4096.801758" width="1.098633" height="1.098633"/>
<image xlink:href="tile16_20.png" preserveAspectRatio="none" x="14038.330078" y="-4097.900391" width="1.098633" height="1.098633"/>
<image xlink:href="tile16_19.png" preserveAspectRatio="none" x="14038.330078" y="-4098.999023" width="1.098633" height="1.098633"/>
<image xlink:href="tile16_18.png" preserveAspectRatio="none" x="14038.330078" y="-4100.097656" width="1.098633" height="1.098633"/>
<image xlink:href="tile16_17.png" preserveAspectRatio="none" x="14038.330078" y="-4101.196289" width="1.098633" height="1.098633"/>
<image xlink:href="tile17_32.png" preserveAspectRatio="none" x="14039.428711" y="-4084.716797" width="1.098633" height="1.098633"/>
<image xlink:href="tile17_31.png" preserveAspectRatio="none" x="14039.428711" y="-4085.81543" width="1.098633" height="1.098633"/>
<image xlink:href="tile17_30.png" preserveAspectRatio="none" x="14039.428711" y="-4086.914062" width="1.098633" height="1.098633"/>
<image xlink:href="tile17_29.png" preserveAspectRatio="none" x="14039.428711" y="-4088.012695" width="1.098633" height="1.098633"/>
<image xlink:href="tile17_28.png" preserveAspectRatio="none" x="14039.428711" y="-4089.111328" width="1.098633" height="1.098633"/>
<image xlink:href="tile17_27.png" preserveAspectRatio="none" x="14039.428711" y="-4090.209961" width="1.098633" height="1.098633"/>
<image xlink:href="tile17_26.png" preserveAspectRatio="none" x="14039.428711" y="-4091.308594" width="1.098633" height="1.098633"/>
<image xlink:href="tile17_25.png" preserveAspectRatio="none" x="14039.428711" y="-4092.407227" width="1.098633" height="1.098633"/>
<image xlink:href="tile17_24.png" preserveAspectRatio="none" x="14039.428711" y="-4093.505859" width="1.098633" height="1.098633"/>
<image xlink:href="tile17_23.png" preserveAspectRatio="none" x="14039.428711" y="-4094.604492" width="1.098633" height="1.098633"/>
<image xlink:href="tile17_22.png" preserveAspectRatio="none" x="14039.428711" y="-4095.703125" width="1.098633" height="1.098633"/>
<image xlink:href="tile17_21.png" preserveAspectRatio="none" x="14039.428711" y="-4096.801758" width="1.098633" height="1.098633"/>
<image xlink:href="tile17_20.png" preserveAspectRatio="none" x="14039.428711" y="-4097.900391" width="1.098633" height="1.098633"/>
<image xlink:href="tile17_19.png" preserveAspectRatio="none" x="14039.428711" y="-4098.999023" width="1.098633" height="1.098633"/>
<image xlink:href="tile17_18.png" preserveAspectRatio="none" x="14039.428711" y="-4100.097656" width="1.098633" height="1.098633"/>
<image xlink:href="tile17_17.png" preserveAspectRatio="none" x="14039.428711" y="-4101.196289" width="1.098633" height="1.098633"/>
<image xlink:href="tile18_32.png" preserveAspectRatio="none" x="14040.527344" y="-4084.716797" width="1.098633" height="1.098633"/>
<image xlink:href="tile18_31.png" preserveAspectRatio="none" x="14040.527344" y="-4085.81543" width="1.098633" height="1.098633"/>
<image xlink:href="tile18_30.png" preserveAspectRatio="none" x="14040.527344" y="-4086.914062" width="1.098633" height="1.098633"/>
<image xlink:href="tile18_29.png" preserveAspectRatio="none" x="14040.527344" y="-4088.012695" width="1.098633" height="1.098633"/>
<image xlink:href="tile18_28.png" preserveAspectRatio="none" x="14040.527344" y="-4089.111328" width="1.098633" height="1.098633"/>
<image xlink:href="tile18_27.png" preserveAspectRatio="none" x="14040.527344" y="-4090.209961" width="1.098633" height="1.098633"/>
<image xlink:href="tile18_26.png" preserveAspectRatio="none" x="14040.527344" y="-4091.308594" width="1.098633" height="1.098633"/>
<image xlink:href="tile18_25.png" preserveAspectRatio="none" x="14040.527344" y="-4092.407227" width="1.098633" height="1.098633"/>
<image xlink:href="tile18_24.png" preserveAspectRatio="none" x="14040.527344" y="-4093.505859" width="1.098633" height="1.098633"/>
<image xlink:href="tile18_23.png" preserveAspectRatio="none" x="14040.527344" y="-4094.604492" width="1.098633" height="1.098633"/>
<image xlink:href="tile18_22.png" preserveAspectRatio="none" x="14040.527344" y="-4095.703125" width="1.098633" height="1.098633"/>
<image xlink:href="tile18_21.png" preserveAspectRatio="none" x="14040.527344" y="-4096.801758" width="1.098633" height="1.098633"/>
<image xlink:href="tile18_20.png" preserveAspectRatio="none" x="14040.527344" y="-4097.900391" width="1.098633" height="1.098633"/>
<image xlink:href="tile18_19.png" preserveAspectRatio="none" x="14040.527344" y="-4098.999023" width="1.098633" height="1.098633"/>
<image xlink:href="tile18_18.png" preserveAspectRatio="none" x="14040.527344" y="-4100.097656" width="1.098633" height="1.098633"/>
<image xlink:href="tile18_17.png" preserveAspectRatio="none" x="14040.527344" y="-4101.196289" width="1.098633" height="1.098633"/>
<image xlink:href="tile19_32.png" preserveAspectRatio="none" x="14041.625977" y="-4084.716797" width="1.098633" height="1.098633"/>
<image xlink:href="tile19_31.png" preserveAspectRatio="none" x="14041.625977" y="-4085.81543" width="1.098633" height="1.098633"/>
<image xlink:href="tile19_30.png" preserveAspectRatio="none" x="14041.625977" y="-4086.914062" width="1.098633" height="1.098633"/>
<image xlink:href="tile19_29.png" preserveAspectRatio="none" x="14041.625977" y="-4088.012695" width="1.098633" height="1.098633"/>
<image xlink:href="tile19_28.png" preserveAspectRatio="none" x="14041.625977" y="-4089.111328" width="1.098633" height="1.098633"/>
<image xlink:href="tile19_27.png" preserveAspectRatio="none" x="14041.625977" y="-4090.209961" width="1.098633" height="1.098633"/>
<image xlink:href="tile19_26.png" preserveAspectRatio="none" x="14041.625977" y="-4091.308594" width="1.098633" height="1.098633"/>
<image xlink:href="tile19_25.png" preserveAspectRatio="none" x="14041.625977" y="-4092.407227" width="1.098633" height="1.098633"/>
<image xlink:href="tile19_24.png" preserveAspectRatio="none" x="14041.625977" y="-4093.505859" width="1.098633" height="1.098633"/>
<image xlink:href="tile19_23.png" preserveAspectRatio="none" x="14041.625977" y="-4094.604492" width="1.098633" height="1.098633"/>
<image xlink:href="tile19_22.png" preserveAspectRatio="none" x="14041.625977" y="-4095.703125" width="1.098633" height="1.098633"/>
<image xlink:href="tile19_21.png" preserveAspectRatio="none" x="14041.625977" y="-4096.801758" width="1.098633" height="1.098633"/>
<image xlink:href="tile19_20.png" preserveAspectRatio="none" x="14041.625977" y="-4097.900391" width="1.098633" height="1.098633"/>
<image xlink:href="tile19_19.png" preserveAspectRatio="none" x="14041.625977" y="-4098.999023" width="1.098633" height="1.098633"/>
<image xlink:href="tile19_18.png" preserveAspectRatio="none" x="14041.625977" y="-4100.097656" width="1.098633" height="1.098633"/>
<image xlink:href="tile19_17.png" preserveAspectRatio="none" x="14041.625977" y="-4101.196289" width="1.098633" height="1.098633"/>
<image xlink:href="tile20_32.png" preserveAspectRatio="none" x="14042.724609" y="-4084.716797" width="1.098633" height="1.098633"/>
<image xlink:href="tile20_31.png" preserveAspectRatio="none" x="14042.724609" y="-4085.81543" width="1.098633" height="1.098633"/>
<image xlink:href="tile20_30.png" preserveAspectRatio="none" x="14042.724609" y="-4086.914062" width="1.098633" height="1.098633"/>
<image xlink:href="tile20_29.png" preserveAspectRatio="none" x="14042.724609" y="-4088.012695" width="1.098633" height="1.098633"/>
<image xlink:href="tile20_28.png" preserveAspectRatio="none" x="14042.724609" y="-4089.111328" width="1.098633" height="1.098633"/>
<image xlink:href="tile20_27.png" preserveAspectRatio="none" x="14042.724609" y="-4090.209961" width="1.098633" height="1.098633"/>
<image xlink:href="tile20_26.png" preserveAspectRatio="none" x="14042.724609" y="-4091.308594" width="1.098633" height="1.098633"/>
<image xlink:href="tile20_25.png" preserveAspectRatio="none" x="14042.724609" y="-4092.407227" width="1.098633" height="1.098633"/>
<image xlink:href="tile20_24.png" preserveAspectRatio="none" x="14042.724609" y="-4093.505859" width="1.098633" height="1.098633"/>
<image xlink:href="tile20_23.png" preserveAspectRatio="none" x="14042.724609" y="-4094.604492" width="1.098633" height="1.098633"/>
<image xlink:href="tile20_22.png" preserveAspectRatio="none" x="14042.724609" y="-4095.703125" width="1.098633" height="1.098633"/>
<image xlink:href="tile20_21.png" preserveAspectRatio="none" x="14042.724609" y="-4096.801758" width="1.098633" height="1.098633"/>
<image xlink:href="tile20_18.png" preserveAspectRatio="none" x="14042.724609" y="-4100.097656" width="1.098633" height="1.098633"/>
<image xlink:href="tile21_32.png" preserveAspectRatio="none" x="14043.823242" y="-4084.716797" width="1.098633" height="1.098633"/>
<image xlink:href="tile21_31.png" preserveAspectRatio="none" x="14043.823242" y="-4085.81543" width="1.098633" height="1.098633"/>
<image xlink:href="tile21_30.png" preserveAspectRatio="none" x="14043.823242" y="-4086.914062" width="1.098633" height="1.098633"/>
<image xlink:href="tile21_29.png" preserveAspectRatio="none" x="14043.823242" y="-4088.012695" width="1.098633" height="1.098633"/>
<image xlink:href="tile21_28.png" preserveAspectRatio="none" x="14043.823242" y="-4089.111328" width="1.098633" height="1.098633"/>
<image xlink:href="tile21_27.png" preserveAspectRatio="none" x="14043.823242" y="-4090.209961" width="1.098633" height="1.098633"/>
<image xlink:href="tile21_26.png" preserveAspectRatio="none" x="14043.823242" y="-4091.308594" width="1.098633" height="1.098633"/>
<image xlink:href="tile21_25.png" preserveAspectRatio="none" x="14043.823242" y="-4092.407227" width="1.098633" height="1.098633"/>
<image xlink:href="tile21_24.png" preserveAspectRatio="none" x="14043.823242" y="-4093.505859" width="1.098633" height="1.098633"/>
<image xlink:href="tile22_32.png" preserveAspectRatio="none" x="14044.921875" y="-4084.716797" width="1.098633" height="1.098633"/>
<image xlink:href="tile22_31.png" preserveAspectRatio="none" x="14044.921875" y="-4085.81543" width="1.098633" height="1.098633"/>
<image xlink:href="tile22_30.png" preserveAspectRatio="none" x="14044.921875" y="-4086.914062" width="1.098633" height="1.098633"/>
<image xlink:href="tile22_29.png" preserveAspectRatio="none" x="14044.921875" y="-4088.012695" width="1.098633" height="1.098633"/>
<image xlink:href="tile22_28.png" preserveAspectRatio="none" x="14044.921875" y="-4089.111328" width="1.098633" height="1.098633"/>
<image xlink:href="tile22_27.png" preserveAspectRatio="none" x="14044.921875" y="-4090.209961" width="1.098633" height="1.098633"/>
<image xlink:href="tile22_26.png" preserveAspectRatio="none" x="14044.921875" y="-4091.308594" width="1.098633" height="1.098633"/>
<image xlink:href="tile23_32.png" preserveAspectRatio="none" x="14046.020508" y="-4084.716797" width="1.098633" height="1.098633"/>
<image xlink:href="tile23_31.png" preserveAspectRatio="none" x="14046.020508" y="-4085.81543" width="1.098633" height="1.098633"/>
<image xlink:href="tile23_27.png" preserveAspectRatio="none" x="14046.020508" y="-4090.209961" width="1.098633" height="1.098633"/>
</g>
</svg>
