<?xml version="1.0" encoding="UTF-8"?>
<svg  xmlns="http://www.w3.org/2000/svg" xmlns:xlink="http://www.w3.org/1999/xlink" xmlns:go="http://purl.org/svgmap/profile" viewBox="13772.0283217 -3466.666667 17.501499899998407 1.8766511999999125" go:dataArea="13772.0283217 -3466.666667 17.501499899998407 1.8766511999999125" >
<metadata>
 <rdf:RDF xmlns:rdf="http://www.w3.org/1999/02/22-rdf-syntax-ns#" xmlns:crs="http://opengis.org/xmldtds/transformations.dtd" xmlns:svg="http://www.w3.org/svg" >
  <rdf:Description>
   <crs:CoordinateReferenceSystem rdf:resource="http://purl.org/crs/84" svg:transform="matrix(100.0,0.0,0.0,-100.0,0.0,0.0)" />
  </rdf:Description>
 </rdf:RDF>
</metadata>
<globalCoordinateSystem srsName="http://purl.org/crs/84" transform="matrix(100.0,0.0,0.0,-100.0,0.0,0.0)" />
<g >
<image xlink:href="tile0_0.png" preserveAspectRatio="none" x="13771.362305" y="-3467.285156" width="1.098633" height="1.098633"/>
<image xlink:href="tile1_0.png" preserveAspectRatio="none" x="13772.460938" y="-3467.285156" width="1.098633" height="1.098633"/>
<image xlink:href="tile2_0.png" preserveAspectRatio="none" x="13773.55957" y="-3467.285156" width="1.098633" height="1.098633"/>
<image xlink:href="tile3_1.png" preserveAspectRatio="none" x="13774.658203" y="-3466.186523" width="1.098633" height="1.098633"/>
<image xlink:href="tile3_0.png" preserveAspectRatio="none" x="13774.658203" y="-3467.285156" width="1.098633" height="1.098633"/>
<image xlink:href="tile4_1.png" preserveAspectRatio="none" x="13775.756836" y="-3466.186523" width="1.098633" height="1.098633"/>
<image xlink:href="tile4_0.png" preserveAspectRatio="none" x="13775.756836" y="-3467.285156" width="1.098633" height="1.098633"/>
<image xlink:href="tile5_2.png" preserveAspectRatio="none" x="13776.855469" y="-3465.087891" width="1.098633" height="1.098633"/>
<image xlink:href="tile5_1.png" preserveAspectRatio="none" x="13776.855469" y="-3466.186523" width="1.098633" height="1.098633"/>
<image xlink:href="tile5_0.png" preserveAspectRatio="none" x="13776.855469" y="-3467.285156" width="1.098633" height="1.098633"/>
<image xlink:href="tile6_2.png" preserveAspectRatio="none" x="13777.954102" y="-3465.087891" width="1.098633" height="1.098633"/>
<image xlink:href="tile6_1.png" preserveAspectRatio="none" x="13777.954102" y="-3466.186523" width="1.098633" height="1.098633"/>
<image xlink:href="tile6_0.png" preserveAspectRatio="none" x="13777.954102" y="-3467.285156" width="1.098633" height="1.098633"/>
<image xlink:href="tile7_2.png" preserveAspectRatio="none" x="13779.052734" y="-3465.087891" width="1.098633" height="1.098633"/>
<image xlink:href="tile7_1.png" preserveAspectRatio="none" x="13779.052734" y="-3466.186523" width="1.098633" height="1.098633"/>
<image xlink:href="tile7_0.png" preserveAspectRatio="none" x="13779.052734" y="-3467.285156" width="1.098633" height="1.098633"/>
<image xlink:href="tile8_2.png" preserveAspectRatio="none" x="13780.151367" y="-3465.087891" width="1.098633" height="1.098633"/>
<image xlink:href="tile8_1.png" preserveAspectRatio="none" x="13780.151367" y="-3466.186523" width="1.098633" height="1.098633"/>
<image xlink:href="tile8_0.png" preserveAspectRatio="none" x="13780.151367" y="-3467.285156" width="1.098633" height="1.098633"/>
<image xlink:href="tile9_2.png" preserveAspectRatio="none" x="13781.25" y="-3465.087891" width="1.098633" height="1.098633"/>
<image xlink:href="tile9_1.png" preserveAspectRatio="none" x="13781.25" y="-3466.186523" width="1.098633" height="1.098633"/>
<image xlink:href="tile9_0.png" preserveAspectRatio="none" x="13781.25" y="-3467.285156" width="1.098633" height="1.098633"/>
<image xlink:href="tile10_1.png" preserveAspectRatio="none" x="13782.348633" y="-3466.186523" width="1.098633" height="1.098633"/>
<image xlink:href="tile10_0.png" preserveAspectRatio="none" x="13782.348633" y="-3467.285156" width="1.098633" height="1.098633"/>
<image xlink:href="tile11_1.png" preserveAspectRatio="none" x="13783.447266" y="-3466.186523" width="1.098633" height="1.098633"/>
<image xlink:href="tile11_0.png" preserveAspectRatio="none" x="13783.447266" y="-3467.285156" width="1.098633" height="1.098633"/>
<image xlink:href="tile12_1.png" preserveAspectRatio="none" x="13784.545898" y="-3466.186523" width="1.098633" height="1.098633"/>
<image xlink:href="tile12_0.png" preserveAspectRatio="none" x="13784.545898" y="-3467.285156" width="1.098633" height="1.098633"/>
<image xlink:href="tile13_1.png" preserveAspectRatio="none" x="13785.644531" y="-3466.186523" width="1.098633" height="1.098633"/>
<image xlink:href="tile13_0.png" preserveAspectRatio="none" x="13785.644531" y="-3467.285156" width="1.098633" height="1.098633"/>
<image xlink:href="tile14_0.png" preserveAspectRatio="none" x="13786.743164" y="-3467.285156" width="1.098633" height="1.098633"/>
<image xlink:href="tile15_0.png" preserveAspectRatio="none" x="13787.841797" y="-3467.285156" width="1.098633" height="1.098633"/>
<image xlink:href="tile16_0.png" preserveAspectRatio="none" x="13788.94043" y="-3467.285156" width="1.098633" height="1.098633"/>
</g>
</svg>
