<?xml version="1.0" encoding="UTF-8"?>
<svg  xmlns="http://www.w3.org/2000/svg" xmlns:xlink="http://www.w3.org/1999/xlink" xmlns:go="http://purl.org/svgmap/profile" viewBox="13900.0 -3666.666667 100.0 66.66666699999979" go:dataArea="13900.0 -3666.666667 100.0 66.66666699999979" >
<metadata>
 <rdf:RDF xmlns:rdf="http://www.w3.org/1999/02/22-rdf-syntax-ns#" xmlns:crs="http://opengis.org/xmldtds/transformations.dtd" xmlns:svg="http://www.w3.org/svg" >
  <rdf:Description>
   <crs:CoordinateReferenceSystem rdf:resource="http://purl.org/crs/84" svg:transform="matrix(100.0,0.0,0.0,-100.0,0.0,0.0)" />
  </rdf:Description>
 </rdf:RDF>
</metadata>
<globalCoordinateSystem srsName="http://purl.org/crs/84" transform="matrix(100.0,0.0,0.0,-100.0,0.0,0.0)" />
<g >
<image xlink:href="tile32_12.png" preserveAspectRatio="none" x="13935.058594" y="-3654.052734" width="1.098633" height="1.098633"/>
<image xlink:href="tile33_13.png" preserveAspectRatio="none" x="13936.157227" y="-3652.954102" width="1.098633" height="1.098633"/>
<image xlink:href="tile33_12.png" preserveAspectRatio="none" x="13936.157227" y="-3654.052734" width="1.098633" height="1.098633"/>
<image xlink:href="tile33_11.png" preserveAspectRatio="none" x="13936.157227" y="-3655.151367" width="1.098633" height="1.098633"/>
<image xlink:href="tile34_12.png" preserveAspectRatio="none" x="13937.255859" y="-3654.052734" width="1.098633" height="1.098633"/>
<image xlink:href="tile34_11.png" preserveAspectRatio="none" x="13937.255859" y="-3655.151367" width="1.098633" height="1.098633"/>
<image xlink:href="tile34_8.png" preserveAspectRatio="none" x="13937.255859" y="-3658.447266" width="1.098633" height="1.098633"/>
<image xlink:href="tile35_12.png" preserveAspectRatio="none" x="13938.354492" y="-3654.052734" width="1.098633" height="1.098633"/>
<image xlink:href="tile35_8.png" preserveAspectRatio="none" x="13938.354492" y="-3658.447266" width="1.098633" height="1.098633"/>
<image xlink:href="tile36_8.png" preserveAspectRatio="none" x="13939.453125" y="-3658.447266" width="1.098633" height="1.098633"/>
<image xlink:href="tile36_7.png" preserveAspectRatio="none" x="13939.453125" y="-3659.545898" width="1.098633" height="1.098633"/>
<image xlink:href="tile36_6.png" preserveAspectRatio="none" x="13939.453125" y="-3660.644531" width="1.098633" height="1.098633"/>
<image xlink:href="tile36_5.png" preserveAspectRatio="none" x="13939.453125" y="-3661.743164" width="1.098633" height="1.098633"/>
<image xlink:href="tile37_8.png" preserveAspectRatio="none" x="13940.551758" y="-3658.447266" width="1.098633" height="1.098633"/>
<image xlink:href="tile37_7.png" preserveAspectRatio="none" x="13940.551758" y="-3659.545898" width="1.098633" height="1.098633"/>
<image xlink:href="tile37_6.png" preserveAspectRatio="none" x="13940.551758" y="-3660.644531" width="1.098633" height="1.098633"/>
<image xlink:href="tile37_5.png" preserveAspectRatio="none" x="13940.551758" y="-3661.743164" width="1.098633" height="1.098633"/>
<image xlink:href="tile38_13.png" preserveAspectRatio="none" x="13941.650391" y="-3652.954102" width="1.098633" height="1.098633"/>
<image xlink:href="tile38_9.png" preserveAspectRatio="none" x="13941.650391" y="-3657.348633" width="1.098633" height="1.098633"/>
<image xlink:href="tile38_8.png" preserveAspectRatio="none" x="13941.650391" y="-3658.447266" width="1.098633" height="1.098633"/>
<image xlink:href="tile39_13.png" preserveAspectRatio="none" x="13942.749023" y="-3652.954102" width="1.098633" height="1.098633"/>
<image xlink:href="tile39_12.png" preserveAspectRatio="none" x="13942.749023" y="-3654.052734" width="1.098633" height="1.098633"/>
<image xlink:href="tile39_8.png" preserveAspectRatio="none" x="13942.749023" y="-3658.447266" width="1.098633" height="1.098633"/>
</g>
</svg>
