<?xml version="1.0" encoding="UTF-8"?>
<svg  xmlns="http://www.w3.org/2000/svg" xmlns:xlink="http://www.w3.org/1999/xlink" xmlns:go="http://purl.org/svgmap/profile" viewBox="13900.0 -3666.666667 100.0 66.66666699999979" go:dataArea="13900.0 -3666.666667 100.0 66.66666699999979" >
<metadata>
 <rdf:RDF xmlns:rdf="http://www.w3.org/1999/02/22-rdf-syntax-ns#" xmlns:crs="http://opengis.org/xmldtds/transformations.dtd" xmlns:svg="http://www.w3.org/svg" >
  <rdf:Description>
   <crs:CoordinateReferenceSystem rdf:resource="http://purl.org/crs/84" svg:transform="matrix(100.0,0.0,0.0,-100.0,0.0,0.0)" />
  </rdf:Description>
 </rdf:RDF>
</metadata>
<globalCoordinateSystem srsName="http://purl.org/crs/84" transform="matrix(100.0,0.0,0.0,-100.0,0.0,0.0)" />
<g >
<image xlink:href="tile0_28.png" preserveAspectRatio="none" x="13899.902344" y="-3636.474609" width="1.098633" height="1.098633"/>
<image xlink:href="tile0_27.png" preserveAspectRatio="none" x="13899.902344" y="-3637.573242" width="1.098633" height="1.098633"/>
<image xlink:href="tile0_26.png" preserveAspectRatio="none" x="13899.902344" y="-3638.671875" width="1.098633" height="1.098633"/>
<image xlink:href="tile0_25.png" preserveAspectRatio="none" x="13899.902344" y="-3639.770508" width="1.098633" height="1.098633"/>
<image xlink:href="tile0_24.png" preserveAspectRatio="none" x="13899.902344" y="-3640.869141" width="1.098633" height="1.098633"/>
<image xlink:href="tile0_23.png" preserveAspectRatio="none" x="13899.902344" y="-3641.967773" width="1.098633" height="1.098633"/>
<image xlink:href="tile0_22.png" preserveAspectRatio="none" x="13899.902344" y="-3643.066406" width="1.098633" height="1.098633"/>
<image xlink:href="tile0_21.png" preserveAspectRatio="none" x="13899.902344" y="-3644.165039" width="1.098633" height="1.098633"/>
<image xlink:href="tile0_20.png" preserveAspectRatio="none" x="13899.902344" y="-3645.263672" width="1.098633" height="1.098633"/>
<image xlink:href="tile0_19.png" preserveAspectRatio="none" x="13899.902344" y="-3646.362305" width="1.098633" height="1.098633"/>
<image xlink:href="tile0_18.png" preserveAspectRatio="none" x="13899.902344" y="-3647.460938" width="1.098633" height="1.098633"/>
<image xlink:href="tile0_17.png" preserveAspectRatio="none" x="13899.902344" y="-3648.55957" width="1.098633" height="1.098633"/>
<image xlink:href="tile0_16.png" preserveAspectRatio="none" x="13899.902344" y="-3649.658203" width="1.098633" height="1.098633"/>
<image xlink:href="tile0_15.png" preserveAspectRatio="none" x="13899.902344" y="-3650.756836" width="1.098633" height="1.098633"/>
<image xlink:href="tile0_14.png" preserveAspectRatio="none" x="13899.902344" y="-3651.855469" width="1.098633" height="1.098633"/>
<image xlink:href="tile1_29.png" preserveAspectRatio="none" x="13901.000977" y="-3635.375977" width="1.098633" height="1.098633"/>
<image xlink:href="tile1_28.png" preserveAspectRatio="none" x="13901.000977" y="-3636.474609" width="1.098633" height="1.098633"/>
<image xlink:href="tile1_27.png" preserveAspectRatio="none" x="13901.000977" y="-3637.573242" width="1.098633" height="1.098633"/>
<image xlink:href="tile1_25.png" preserveAspectRatio="none" x="13901.000977" y="-3639.770508" width="1.098633" height="1.098633"/>
<image xlink:href="tile1_24.png" preserveAspectRatio="none" x="13901.000977" y="-3640.869141" width="1.098633" height="1.098633"/>
<image xlink:href="tile1_23.png" preserveAspectRatio="none" x="13901.000977" y="-3641.967773" width="1.098633" height="1.098633"/>
<image xlink:href="tile1_22.png" preserveAspectRatio="none" x="13901.000977" y="-3643.066406" width="1.098633" height="1.098633"/>
<image xlink:href="tile1_21.png" preserveAspectRatio="none" x="13901.000977" y="-3644.165039" width="1.098633" height="1.098633"/>
<image xlink:href="tile1_20.png" preserveAspectRatio="none" x="13901.000977" y="-3645.263672" width="1.098633" height="1.098633"/>
<image xlink:href="tile1_19.png" preserveAspectRatio="none" x="13901.000977" y="-3646.362305" width="1.098633" height="1.098633"/>
<image xlink:href="tile1_18.png" preserveAspectRatio="none" x="13901.000977" y="-3647.460938" width="1.098633" height="1.098633"/>
<image xlink:href="tile1_17.png" preserveAspectRatio="none" x="13901.000977" y="-3648.55957" width="1.098633" height="1.098633"/>
<image xlink:href="tile1_16.png" preserveAspectRatio="none" x="13901.000977" y="-3649.658203" width="1.098633" height="1.098633"/>
<image xlink:href="tile1_15.png" preserveAspectRatio="none" x="13901.000977" y="-3650.756836" width="1.098633" height="1.098633"/>
<image xlink:href="tile1_14.png" preserveAspectRatio="none" x="13901.000977" y="-3651.855469" width="1.098633" height="1.098633"/>
<image xlink:href="tile2_29.png" preserveAspectRatio="none" x="13902.099609" y="-3635.375977" width="1.098633" height="1.098633"/>
<image xlink:href="tile2_28.png" preserveAspectRatio="none" x="13902.099609" y="-3636.474609" width="1.098633" height="1.098633"/>
<image xlink:href="tile2_27.png" preserveAspectRatio="none" x="13902.099609" y="-3637.573242" width="1.098633" height="1.098633"/>
<image xlink:href="tile2_26.png" preserveAspectRatio="none" x="13902.099609" y="-3638.671875" width="1.098633" height="1.098633"/>
<image xlink:href="tile2_25.png" preserveAspectRatio="none" x="13902.099609" y="-3639.770508" width="1.098633" height="1.098633"/>
<image xlink:href="tile2_24.png" preserveAspectRatio="none" x="13902.099609" y="-3640.869141" width="1.098633" height="1.098633"/>
<image xlink:href="tile2_23.png" preserveAspectRatio="none" x="13902.099609" y="-3641.967773" width="1.098633" height="1.098633"/>
<image xlink:href="tile2_22.png" preserveAspectRatio="none" x="13902.099609" y="-3643.066406" width="1.098633" height="1.098633"/>
<image xlink:href="tile2_21.png" preserveAspectRatio="none" x="13902.099609" y="-3644.165039" width="1.098633" height="1.098633"/>
<image xlink:href="tile2_20.png" preserveAspectRatio="none" x="13902.099609" y="-3645.263672" width="1.098633" height="1.098633"/>
<image xlink:href="tile2_19.png" preserveAspectRatio="none" x="13902.099609" y="-3646.362305" width="1.098633" height="1.098633"/>
<image xlink:href="tile2_18.png" preserveAspectRatio="none" x="13902.099609" y="-3647.460938" width="1.098633" height="1.098633"/>
<image xlink:href="tile2_17.png" preserveAspectRatio="none" x="13902.099609" y="-3648.55957" width="1.098633" height="1.098633"/>
<image xlink:href="tile2_16.png" preserveAspectRatio="none" x="13902.099609" y="-3649.658203" width="1.098633" height="1.098633"/>
<image xlink:href="tile2_15.png" preserveAspectRatio="none" x="13902.099609" y="-3650.756836" width="1.098633" height="1.098633"/>
<image xlink:href="tile2_14.png" preserveAspectRatio="none" x="13902.099609" y="-3651.855469" width="1.098633" height="1.098633"/>
<image xlink:href="tile3_29.png" preserveAspectRatio="none" x="13903.198242" y="-3635.375977" width="1.098633" height="1.098633"/>
<image xlink:href="tile3_28.png" preserveAspectRatio="none" x="13903.198242" y="-3636.474609" width="1.098633" height="1.098633"/>
<image xlink:href="tile3_27.png" preserveAspectRatio="none" x="13903.198242" y="-3637.573242" width="1.098633" height="1.098633"/>
<image xlink:href="tile3_26.png" preserveAspectRatio="none" x="13903.198242" y="-3638.671875" width="1.098633" height="1.098633"/>
<image xlink:href="tile3_25.png" preserveAspectRatio="none" x="13903.198242" y="-3639.770508" width="1.098633" height="1.098633"/>
<image xlink:href="tile3_24.png" preserveAspectRatio="none" x="13903.198242" y="-3640.869141" width="1.098633" height="1.098633"/>
<image xlink:href="tile3_23.png" preserveAspectRatio="none" x="13903.198242" y="-3641.967773" width="1.098633" height="1.098633"/>
<image xlink:href="tile3_21.png" preserveAspectRatio="none" x="13903.198242" y="-3644.165039" width="1.098633" height="1.098633"/>
<image xlink:href="tile3_19.png" preserveAspectRatio="none" x="13903.198242" y="-3646.362305" width="1.098633" height="1.098633"/>
<image xlink:href="tile3_18.png" preserveAspectRatio="none" x="13903.198242" y="-3647.460938" width="1.098633" height="1.098633"/>
<image xlink:href="tile3_17.png" preserveAspectRatio="none" x="13903.198242" y="-3648.55957" width="1.098633" height="1.098633"/>
<image xlink:href="tile3_16.png" preserveAspectRatio="none" x="13903.198242" y="-3649.658203" width="1.098633" height="1.098633"/>
<image xlink:href="tile3_15.png" preserveAspectRatio="none" x="13903.198242" y="-3650.756836" width="1.098633" height="1.098633"/>
<image xlink:href="tile4_29.png" preserveAspectRatio="none" x="13904.296875" y="-3635.375977" width="1.098633" height="1.098633"/>
<image xlink:href="tile4_28.png" preserveAspectRatio="none" x="13904.296875" y="-3636.474609" width="1.098633" height="1.098633"/>
<image xlink:href="tile4_27.png" preserveAspectRatio="none" x="13904.296875" y="-3637.573242" width="1.098633" height="1.098633"/>
<image xlink:href="tile4_26.png" preserveAspectRatio="none" x="13904.296875" y="-3638.671875" width="1.098633" height="1.098633"/>
<image xlink:href="tile4_25.png" preserveAspectRatio="none" x="13904.296875" y="-3639.770508" width="1.098633" height="1.098633"/>
<image xlink:href="tile4_24.png" preserveAspectRatio="none" x="13904.296875" y="-3640.869141" width="1.098633" height="1.098633"/>
<image xlink:href="tile4_21.png" preserveAspectRatio="none" x="13904.296875" y="-3644.165039" width="1.098633" height="1.098633"/>
<image xlink:href="tile4_20.png" preserveAspectRatio="none" x="13904.296875" y="-3645.263672" width="1.098633" height="1.098633"/>
<image xlink:href="tile4_19.png" preserveAspectRatio="none" x="13904.296875" y="-3646.362305" width="1.098633" height="1.098633"/>
<image xlink:href="tile4_18.png" preserveAspectRatio="none" x="13904.296875" y="-3647.460938" width="1.098633" height="1.098633"/>
<image xlink:href="tile4_17.png" preserveAspectRatio="none" x="13904.296875" y="-3648.55957" width="1.098633" height="1.098633"/>
<image xlink:href="tile4_16.png" preserveAspectRatio="none" x="13904.296875" y="-3649.658203" width="1.098633" height="1.098633"/>
<image xlink:href="tile4_15.png" preserveAspectRatio="none" x="13904.296875" y="-3650.756836" width="1.098633" height="1.098633"/>
<image xlink:href="tile4_14.png" preserveAspectRatio="none" x="13904.296875" y="-3651.855469" width="1.098633" height="1.098633"/>
<image xlink:href="tile5_29.png" preserveAspectRatio="none" x="13905.395508" y="-3635.375977" width="1.098633" height="1.098633"/>
<image xlink:href="tile5_28.png" preserveAspectRatio="none" x="13905.395508" y="-3636.474609" width="1.098633" height="1.098633"/>
<image xlink:href="tile5_27.png" preserveAspectRatio="none" x="13905.395508" y="-3637.573242" width="1.098633" height="1.098633"/>
<image xlink:href="tile5_26.png" preserveAspectRatio="none" x="13905.395508" y="-3638.671875" width="1.098633" height="1.098633"/>
<image xlink:href="tile5_25.png" preserveAspectRatio="none" x="13905.395508" y="-3639.770508" width="1.098633" height="1.098633"/>
<image xlink:href="tile5_22.png" preserveAspectRatio="none" x="13905.395508" y="-3643.066406" width="1.098633" height="1.098633"/>
<image xlink:href="tile5_21.png" preserveAspectRatio="none" x="13905.395508" y="-3644.165039" width="1.098633" height="1.098633"/>
<image xlink:href="tile5_20.png" preserveAspectRatio="none" x="13905.395508" y="-3645.263672" width="1.098633" height="1.098633"/>
<image xlink:href="tile5_19.png" preserveAspectRatio="none" x="13905.395508" y="-3646.362305" width="1.098633" height="1.098633"/>
<image xlink:href="tile5_18.png" preserveAspectRatio="none" x="13905.395508" y="-3647.460938" width="1.098633" height="1.098633"/>
<image xlink:href="tile5_17.png" preserveAspectRatio="none" x="13905.395508" y="-3648.55957" width="1.098633" height="1.098633"/>
<image xlink:href="tile5_16.png" preserveAspectRatio="none" x="13905.395508" y="-3649.658203" width="1.098633" height="1.098633"/>
<image xlink:href="tile5_14.png" preserveAspectRatio="none" x="13905.395508" y="-3651.855469" width="1.098633" height="1.098633"/>
<image xlink:href="tile6_29.png" preserveAspectRatio="none" x="13906.494141" y="-3635.375977" width="1.098633" height="1.098633"/>
<image xlink:href="tile6_28.png" preserveAspectRatio="none" x="13906.494141" y="-3636.474609" width="1.098633" height="1.098633"/>
<image xlink:href="tile6_27.png" preserveAspectRatio="none" x="13906.494141" y="-3637.573242" width="1.098633" height="1.098633"/>
<image xlink:href="tile6_22.png" preserveAspectRatio="none" x="13906.494141" y="-3643.066406" width="1.098633" height="1.098633"/>
<image xlink:href="tile6_21.png" preserveAspectRatio="none" x="13906.494141" y="-3644.165039" width="1.098633" height="1.098633"/>
<image xlink:href="tile6_20.png" preserveAspectRatio="none" x="13906.494141" y="-3645.263672" width="1.098633" height="1.098633"/>
<image xlink:href="tile6_19.png" preserveAspectRatio="none" x="13906.494141" y="-3646.362305" width="1.098633" height="1.098633"/>
<image xlink:href="tile6_18.png" preserveAspectRatio="none" x="13906.494141" y="-3647.460938" width="1.098633" height="1.098633"/>
<image xlink:href="tile6_17.png" preserveAspectRatio="none" x="13906.494141" y="-3648.55957" width="1.098633" height="1.098633"/>
<image xlink:href="tile6_16.png" preserveAspectRatio="none" x="13906.494141" y="-3649.658203" width="1.098633" height="1.098633"/>
<image xlink:href="tile6_15.png" preserveAspectRatio="none" x="13906.494141" y="-3650.756836" width="1.098633" height="1.098633"/>
<image xlink:href="tile6_14.png" preserveAspectRatio="none" x="13906.494141" y="-3651.855469" width="1.098633" height="1.098633"/>
<image xlink:href="tile7_26.png" preserveAspectRatio="none" x="13907.592773" y="-3638.671875" width="1.098633" height="1.098633"/>
<image xlink:href="tile7_25.png" preserveAspectRatio="none" x="13907.592773" y="-3639.770508" width="1.098633" height="1.098633"/>
<image xlink:href="tile7_22.png" preserveAspectRatio="none" x="13907.592773" y="-3643.066406" width="1.098633" height="1.098633"/>
<image xlink:href="tile7_21.png" preserveAspectRatio="none" x="13907.592773" y="-3644.165039" width="1.098633" height="1.098633"/>
<image xlink:href="tile7_20.png" preserveAspectRatio="none" x="13907.592773" y="-3645.263672" width="1.098633" height="1.098633"/>
<image xlink:href="tile7_19.png" preserveAspectRatio="none" x="13907.592773" y="-3646.362305" width="1.098633" height="1.098633"/>
<image xlink:href="tile7_18.png" preserveAspectRatio="none" x="13907.592773" y="-3647.460938" width="1.098633" height="1.098633"/>
<image xlink:href="tile7_17.png" preserveAspectRatio="none" x="13907.592773" y="-3648.55957" width="1.098633" height="1.098633"/>
<image xlink:href="tile7_16.png" preserveAspectRatio="none" x="13907.592773" y="-3649.658203" width="1.098633" height="1.098633"/>
<image xlink:href="tile7_14.png" preserveAspectRatio="none" x="13907.592773" y="-3651.855469" width="1.098633" height="1.098633"/>
<image xlink:href="tile8_29.png" preserveAspectRatio="none" x="13908.691406" y="-3635.375977" width="1.098633" height="1.098633"/>
<image xlink:href="tile8_26.png" preserveAspectRatio="none" x="13908.691406" y="-3638.671875" width="1.098633" height="1.098633"/>
<image xlink:href="tile8_25.png" preserveAspectRatio="none" x="13908.691406" y="-3639.770508" width="1.098633" height="1.098633"/>
<image xlink:href="tile8_22.png" preserveAspectRatio="none" x="13908.691406" y="-3643.066406" width="1.098633" height="1.098633"/>
<image xlink:href="tile8_21.png" preserveAspectRatio="none" x="13908.691406" y="-3644.165039" width="1.098633" height="1.098633"/>
<image xlink:href="tile8_20.png" preserveAspectRatio="none" x="13908.691406" y="-3645.263672" width="1.098633" height="1.098633"/>
<image xlink:href="tile8_19.png" preserveAspectRatio="none" x="13908.691406" y="-3646.362305" width="1.098633" height="1.098633"/>
<image xlink:href="tile8_18.png" preserveAspectRatio="none" x="13908.691406" y="-3647.460938" width="1.098633" height="1.098633"/>
<image xlink:href="tile8_16.png" preserveAspectRatio="none" x="13908.691406" y="-3649.658203" width="1.098633" height="1.098633"/>
<image xlink:href="tile8_15.png" preserveAspectRatio="none" x="13908.691406" y="-3650.756836" width="1.098633" height="1.098633"/>
<image xlink:href="tile8_14.png" preserveAspectRatio="none" x="13908.691406" y="-3651.855469" width="1.098633" height="1.098633"/>
<image xlink:href="tile9_29.png" preserveAspectRatio="none" x="13909.790039" y="-3635.375977" width="1.098633" height="1.098633"/>
<image xlink:href="tile9_28.png" preserveAspectRatio="none" x="13909.790039" y="-3636.474609" width="1.098633" height="1.098633"/>
<image xlink:href="tile9_27.png" preserveAspectRatio="none" x="13909.790039" y="-3637.573242" width="1.098633" height="1.098633"/>
<image xlink:href="tile9_24.png" preserveAspectRatio="none" x="13909.790039" y="-3640.869141" width="1.098633" height="1.098633"/>
<image xlink:href="tile9_23.png" preserveAspectRatio="none" x="13909.790039" y="-3641.967773" width="1.098633" height="1.098633"/>
<image xlink:href="tile9_22.png" preserveAspectRatio="none" x="13909.790039" y="-3643.066406" width="1.098633" height="1.098633"/>
<image xlink:href="tile9_21.png" preserveAspectRatio="none" x="13909.790039" y="-3644.165039" width="1.098633" height="1.098633"/>
<image xlink:href="tile9_20.png" preserveAspectRatio="none" x="13909.790039" y="-3645.263672" width="1.098633" height="1.098633"/>
<image xlink:href="tile9_19.png" preserveAspectRatio="none" x="13909.790039" y="-3646.362305" width="1.098633" height="1.098633"/>
<image xlink:href="tile9_18.png" preserveAspectRatio="none" x="13909.790039" y="-3647.460938" width="1.098633" height="1.098633"/>
<image xlink:href="tile9_14.png" preserveAspectRatio="none" x="13909.790039" y="-3651.855469" width="1.098633" height="1.098633"/>
<image xlink:href="tile10_29.png" preserveAspectRatio="none" x="13910.888672" y="-3635.375977" width="1.098633" height="1.098633"/>
<image xlink:href="tile10_28.png" preserveAspectRatio="none" x="13910.888672" y="-3636.474609" width="1.098633" height="1.098633"/>
<image xlink:href="tile10_27.png" preserveAspectRatio="none" x="13910.888672" y="-3637.573242" width="1.098633" height="1.098633"/>
<image xlink:href="tile10_26.png" preserveAspectRatio="none" x="13910.888672" y="-3638.671875" width="1.098633" height="1.098633"/>
<image xlink:href="tile10_25.png" preserveAspectRatio="none" x="13910.888672" y="-3639.770508" width="1.098633" height="1.098633"/>
<image xlink:href="tile10_24.png" preserveAspectRatio="none" x="13910.888672" y="-3640.869141" width="1.098633" height="1.098633"/>
<image xlink:href="tile10_20.png" preserveAspectRatio="none" x="13910.888672" y="-3645.263672" width="1.098633" height="1.098633"/>
<image xlink:href="tile10_19.png" preserveAspectRatio="none" x="13910.888672" y="-3646.362305" width="1.098633" height="1.098633"/>
<image xlink:href="tile10_18.png" preserveAspectRatio="none" x="13910.888672" y="-3647.460938" width="1.098633" height="1.098633"/>
<image xlink:href="tile10_17.png" preserveAspectRatio="none" x="13910.888672" y="-3648.55957" width="1.098633" height="1.098633"/>
<image xlink:href="tile10_16.png" preserveAspectRatio="none" x="13910.888672" y="-3649.658203" width="1.098633" height="1.098633"/>
<image xlink:href="tile10_15.png" preserveAspectRatio="none" x="13910.888672" y="-3650.756836" width="1.098633" height="1.098633"/>
<image xlink:href="tile10_14.png" preserveAspectRatio="none" x="13910.888672" y="-3651.855469" width="1.098633" height="1.098633"/>
<image xlink:href="tile11_29.png" preserveAspectRatio="none" x="13911.987305" y="-3635.375977" width="1.098633" height="1.098633"/>
<image xlink:href="tile11_28.png" preserveAspectRatio="none" x="13911.987305" y="-3636.474609" width="1.098633" height="1.098633"/>
<image xlink:href="tile11_27.png" preserveAspectRatio="none" x="13911.987305" y="-3637.573242" width="1.098633" height="1.098633"/>
<image xlink:href="tile11_26.png" preserveAspectRatio="none" x="13911.987305" y="-3638.671875" width="1.098633" height="1.098633"/>
<image xlink:href="tile11_25.png" preserveAspectRatio="none" x="13911.987305" y="-3639.770508" width="1.098633" height="1.098633"/>
<image xlink:href="tile11_24.png" preserveAspectRatio="none" x="13911.987305" y="-3640.869141" width="1.098633" height="1.098633"/>
<image xlink:href="tile11_23.png" preserveAspectRatio="none" x="13911.987305" y="-3641.967773" width="1.098633" height="1.098633"/>
<image xlink:href="tile11_17.png" preserveAspectRatio="none" x="13911.987305" y="-3648.55957" width="1.098633" height="1.098633"/>
<image xlink:href="tile11_16.png" preserveAspectRatio="none" x="13911.987305" y="-3649.658203" width="1.098633" height="1.098633"/>
<image xlink:href="tile11_14.png" preserveAspectRatio="none" x="13911.987305" y="-3651.855469" width="1.098633" height="1.098633"/>
<image xlink:href="tile12_29.png" preserveAspectRatio="none" x="13913.085938" y="-3635.375977" width="1.098633" height="1.098633"/>
<image xlink:href="tile12_28.png" preserveAspectRatio="none" x="13913.085938" y="-3636.474609" width="1.098633" height="1.098633"/>
<image xlink:href="tile12_27.png" preserveAspectRatio="none" x="13913.085938" y="-3637.573242" width="1.098633" height="1.098633"/>
<image xlink:href="tile12_26.png" preserveAspectRatio="none" x="13913.085938" y="-3638.671875" width="1.098633" height="1.098633"/>
<image xlink:href="tile12_24.png" preserveAspectRatio="none" x="13913.085938" y="-3640.869141" width="1.098633" height="1.098633"/>
<image xlink:href="tile12_23.png" preserveAspectRatio="none" x="13913.085938" y="-3641.967773" width="1.098633" height="1.098633"/>
<image xlink:href="tile12_22.png" preserveAspectRatio="none" x="13913.085938" y="-3643.066406" width="1.098633" height="1.098633"/>
<image xlink:href="tile12_21.png" preserveAspectRatio="none" x="13913.085938" y="-3644.165039" width="1.098633" height="1.098633"/>
<image xlink:href="tile12_20.png" preserveAspectRatio="none" x="13913.085938" y="-3645.263672" width="1.098633" height="1.098633"/>
<image xlink:href="tile12_19.png" preserveAspectRatio="none" x="13913.085938" y="-3646.362305" width="1.098633" height="1.098633"/>
<image xlink:href="tile12_14.png" preserveAspectRatio="none" x="13913.085938" y="-3651.855469" width="1.098633" height="1.098633"/>
<image xlink:href="tile13_29.png" preserveAspectRatio="none" x="13914.18457" y="-3635.375977" width="1.098633" height="1.098633"/>
<image xlink:href="tile13_28.png" preserveAspectRatio="none" x="13914.18457" y="-3636.474609" width="1.098633" height="1.098633"/>
<image xlink:href="tile13_19.png" preserveAspectRatio="none" x="13914.18457" y="-3646.362305" width="1.098633" height="1.098633"/>
<image xlink:href="tile13_18.png" preserveAspectRatio="none" x="13914.18457" y="-3647.460938" width="1.098633" height="1.098633"/>
<image xlink:href="tile13_17.png" preserveAspectRatio="none" x="13914.18457" y="-3648.55957" width="1.098633" height="1.098633"/>
<image xlink:href="tile14_29.png" preserveAspectRatio="none" x="13915.283203" y="-3635.375977" width="1.098633" height="1.098633"/>
<image xlink:href="tile14_28.png" preserveAspectRatio="none" x="13915.283203" y="-3636.474609" width="1.098633" height="1.098633"/>
<image xlink:href="tile14_27.png" preserveAspectRatio="none" x="13915.283203" y="-3637.573242" width="1.098633" height="1.098633"/>
<image xlink:href="tile14_23.png" preserveAspectRatio="none" x="13915.283203" y="-3641.967773" width="1.098633" height="1.098633"/>
<image xlink:href="tile14_22.png" preserveAspectRatio="none" x="13915.283203" y="-3643.066406" width="1.098633" height="1.098633"/>
<image xlink:href="tile14_21.png" preserveAspectRatio="none" x="13915.283203" y="-3644.165039" width="1.098633" height="1.098633"/>
<image xlink:href="tile14_20.png" preserveAspectRatio="none" x="13915.283203" y="-3645.263672" width="1.098633" height="1.098633"/>
<image xlink:href="tile14_19.png" preserveAspectRatio="none" x="13915.283203" y="-3646.362305" width="1.098633" height="1.098633"/>
<image xlink:href="tile14_18.png" preserveAspectRatio="none" x="13915.283203" y="-3647.460938" width="1.098633" height="1.098633"/>
<image xlink:href="tile14_17.png" preserveAspectRatio="none" x="13915.283203" y="-3648.55957" width="1.098633" height="1.098633"/>
<image xlink:href="tile14_16.png" preserveAspectRatio="none" x="13915.283203" y="-3649.658203" width="1.098633" height="1.098633"/>
<image xlink:href="tile15_29.png" preserveAspectRatio="none" x="13916.381836" y="-3635.375977" width="1.098633" height="1.098633"/>
<image xlink:href="tile15_24.png" preserveAspectRatio="none" x="13916.381836" y="-3640.869141" width="1.098633" height="1.098633"/>
<image xlink:href="tile15_23.png" preserveAspectRatio="none" x="13916.381836" y="-3641.967773" width="1.098633" height="1.098633"/>
<image xlink:href="tile15_22.png" preserveAspectRatio="none" x="13916.381836" y="-3643.066406" width="1.098633" height="1.098633"/>
<image xlink:href="tile15_21.png" preserveAspectRatio="none" x="13916.381836" y="-3644.165039" width="1.098633" height="1.098633"/>
<image xlink:href="tile15_20.png" preserveAspectRatio="none" x="13916.381836" y="-3645.263672" width="1.098633" height="1.098633"/>
<image xlink:href="tile15_19.png" preserveAspectRatio="none" x="13916.381836" y="-3646.362305" width="1.098633" height="1.098633"/>
<image xlink:href="tile15_18.png" preserveAspectRatio="none" x="13916.381836" y="-3647.460938" width="1.098633" height="1.098633"/>
</g>
</svg>
