<?xml version="1.0" encoding="UTF-8"?>
<svg  xmlns="http://www.w3.org/2000/svg" xmlns:xlink="http://www.w3.org/1999/xlink" xmlns:go="http://purl.org/svgmap/profile" viewBox="13900.0 -3666.666667 100.0 66.66666699999979" go:dataArea="13900.0 -3666.666667 100.0 66.66666699999979" >
<metadata>
 <rdf:RDF xmlns:rdf="http://www.w3.org/1999/02/22-rdf-syntax-ns#" xmlns:crs="http://opengis.org/xmldtds/transformations.dtd" xmlns:svg="http://www.w3.org/svg" >
  <rdf:Description>
   <crs:CoordinateReferenceSystem rdf:resource="http://purl.org/crs/84" svg:transform="matrix(100.0,0.0,0.0,-100.0,0.0,0.0)" />
  </rdf:Description>
 </rdf:RDF>
</metadata>
<globalCoordinateSystem srsName="http://purl.org/crs/84" transform="matrix(100.0,0.0,0.0,-100.0,0.0,0.0)" />
<g >
<image xlink:href="tile50_6.png" preserveAspectRatio="none" x="13954.833984" y="-3660.644531" width="1.098633" height="1.098633"/>
<image xlink:href="tile51_7.png" preserveAspectRatio="none" x="13955.932617" y="-3659.545898" width="1.098633" height="1.098633"/>
<image xlink:href="tile52_8.png" preserveAspectRatio="none" x="13957.03125" y="-3658.447266" width="1.098633" height="1.098633"/>
<image xlink:href="tile52_7.png" preserveAspectRatio="none" x="13957.03125" y="-3659.545898" width="1.098633" height="1.098633"/>
<image xlink:href="tile53_9.png" preserveAspectRatio="none" x="13958.129883" y="-3657.348633" width="1.098633" height="1.098633"/>
<image xlink:href="tile53_8.png" preserveAspectRatio="none" x="13958.129883" y="-3658.447266" width="1.098633" height="1.098633"/>
<image xlink:href="tile54_9.png" preserveAspectRatio="none" x="13959.228516" y="-3657.348633" width="1.098633" height="1.098633"/>
<image xlink:href="tile54_6.png" preserveAspectRatio="none" x="13959.228516" y="-3660.644531" width="1.098633" height="1.098633"/>
<image xlink:href="tile55_11.png" preserveAspectRatio="none" x="13960.327148" y="-3655.151367" width="1.098633" height="1.098633"/>
<image xlink:href="tile55_10.png" preserveAspectRatio="none" x="13960.327148" y="-3656.25" width="1.098633" height="1.098633"/>
<image xlink:href="tile55_9.png" preserveAspectRatio="none" x="13960.327148" y="-3657.348633" width="1.098633" height="1.098633"/>
<image xlink:href="tile55_6.png" preserveAspectRatio="none" x="13960.327148" y="-3660.644531" width="1.098633" height="1.098633"/>
<image xlink:href="tile56_11.png" preserveAspectRatio="none" x="13961.425781" y="-3655.151367" width="1.098633" height="1.098633"/>
<image xlink:href="tile56_6.png" preserveAspectRatio="none" x="13961.425781" y="-3660.644531" width="1.098633" height="1.098633"/>
<image xlink:href="tile57_12.png" preserveAspectRatio="none" x="13962.524414" y="-3654.052734" width="1.098633" height="1.098633"/>
<image xlink:href="tile57_11.png" preserveAspectRatio="none" x="13962.524414" y="-3655.151367" width="1.098633" height="1.098633"/>
<image xlink:href="tile57_7.png" preserveAspectRatio="none" x="13962.524414" y="-3659.545898" width="1.098633" height="1.098633"/>
<image xlink:href="tile57_6.png" preserveAspectRatio="none" x="13962.524414" y="-3660.644531" width="1.098633" height="1.098633"/>
<image xlink:href="tile58_13.png" preserveAspectRatio="none" x="13963.623047" y="-3652.954102" width="1.098633" height="1.098633"/>
<image xlink:href="tile58_12.png" preserveAspectRatio="none" x="13963.623047" y="-3654.052734" width="1.098633" height="1.098633"/>
<image xlink:href="tile58_11.png" preserveAspectRatio="none" x="13963.623047" y="-3655.151367" width="1.098633" height="1.098633"/>
<image xlink:href="tile58_7.png" preserveAspectRatio="none" x="13963.623047" y="-3659.545898" width="1.098633" height="1.098633"/>
<image xlink:href="tile59_13.png" preserveAspectRatio="none" x="13964.72168" y="-3652.954102" width="1.098633" height="1.098633"/>
<image xlink:href="tile59_12.png" preserveAspectRatio="none" x="13964.72168" y="-3654.052734" width="1.098633" height="1.098633"/>
<image xlink:href="tile59_8.png" preserveAspectRatio="none" x="13964.72168" y="-3658.447266" width="1.098633" height="1.098633"/>
<image xlink:href="tile59_7.png" preserveAspectRatio="none" x="13964.72168" y="-3659.545898" width="1.098633" height="1.098633"/>
<image xlink:href="tile60_13.png" preserveAspectRatio="none" x="13965.820312" y="-3652.954102" width="1.098633" height="1.098633"/>
<image xlink:href="tile60_12.png" preserveAspectRatio="none" x="13965.820312" y="-3654.052734" width="1.098633" height="1.098633"/>
<image xlink:href="tile60_8.png" preserveAspectRatio="none" x="13965.820312" y="-3658.447266" width="1.098633" height="1.098633"/>
<image xlink:href="tile60_7.png" preserveAspectRatio="none" x="13965.820312" y="-3659.545898" width="1.098633" height="1.098633"/>
<image xlink:href="tile61_13.png" preserveAspectRatio="none" x="13966.918945" y="-3652.954102" width="1.098633" height="1.098633"/>
<image xlink:href="tile61_9.png" preserveAspectRatio="none" x="13966.918945" y="-3657.348633" width="1.098633" height="1.098633"/>
<image xlink:href="tile61_8.png" preserveAspectRatio="none" x="13966.918945" y="-3658.447266" width="1.098633" height="1.098633"/>
<image xlink:href="tile61_6.png" preserveAspectRatio="none" x="13966.918945" y="-3660.644531" width="1.098633" height="1.098633"/>
<image xlink:href="tile62_13.png" preserveAspectRatio="none" x="13968.017578" y="-3652.954102" width="1.098633" height="1.098633"/>
<image xlink:href="tile62_10.png" preserveAspectRatio="none" x="13968.017578" y="-3656.25" width="1.098633" height="1.098633"/>
<image xlink:href="tile62_9.png" preserveAspectRatio="none" x="13968.017578" y="-3657.348633" width="1.098633" height="1.098633"/>
<image xlink:href="tile62_7.png" preserveAspectRatio="none" x="13968.017578" y="-3659.545898" width="1.098633" height="1.098633"/>
<image xlink:href="tile62_6.png" preserveAspectRatio="none" x="13968.017578" y="-3660.644531" width="1.098633" height="1.098633"/>
<image xlink:href="tile63_13.png" preserveAspectRatio="none" x="13969.116211" y="-3652.954102" width="1.098633" height="1.098633"/>
<image xlink:href="tile63_10.png" preserveAspectRatio="none" x="13969.116211" y="-3656.25" width="1.098633" height="1.098633"/>
<image xlink:href="tile63_9.png" preserveAspectRatio="none" x="13969.116211" y="-3657.348633" width="1.098633" height="1.098633"/>
<image xlink:href="tile63_8.png" preserveAspectRatio="none" x="13969.116211" y="-3658.447266" width="1.098633" height="1.098633"/>
<image xlink:href="tile63_7.png" preserveAspectRatio="none" x="13969.116211" y="-3659.545898" width="1.098633" height="1.098633"/>
<image xlink:href="tile63_6.png" preserveAspectRatio="none" x="13969.116211" y="-3660.644531" width="1.098633" height="1.098633"/>
</g>
</svg>
