<?xml version="1.0" encoding="UTF-8"?>
<svg  xmlns="http://www.w3.org/2000/svg" xmlns:xlink="http://www.w3.org/1999/xlink" xmlns:go="http://purl.org/svgmap/profile" viewBox="13900.0 -3666.666667 100.0 66.66666699999979" go:dataArea="13900.0 -3666.666667 100.0 66.66666699999979" >
<metadata>
 <rdf:RDF xmlns:rdf="http://www.w3.org/1999/02/22-rdf-syntax-ns#" xmlns:crs="http://opengis.org/xmldtds/transformations.dtd" xmlns:svg="http://www.w3.org/svg" >
  <rdf:Description>
   <crs:CoordinateReferenceSystem rdf:resource="http://purl.org/crs/84" svg:transform="matrix(100.0,0.0,0.0,-100.0,0.0,0.0)" />
  </rdf:Description>
 </rdf:RDF>
</metadata>
<globalCoordinateSystem srsName="http://purl.org/crs/84" transform="matrix(100.0,0.0,0.0,-100.0,0.0,0.0)" />
<g >
<image xlink:href="tile48_29.png" preserveAspectRatio="none" x="13952.636719" y="-3635.375977" width="1.098633" height="1.098633"/>
<image xlink:href="tile48_28.png" preserveAspectRatio="none" x="13952.636719" y="-3636.474609" width="1.098633" height="1.098633"/>
<image xlink:href="tile48_26.png" preserveAspectRatio="none" x="13952.636719" y="-3638.671875" width="1.098633" height="1.098633"/>
<image xlink:href="tile48_25.png" preserveAspectRatio="none" x="13952.636719" y="-3639.770508" width="1.098633" height="1.098633"/>
<image xlink:href="tile48_24.png" preserveAspectRatio="none" x="13952.636719" y="-3640.869141" width="1.098633" height="1.098633"/>
<image xlink:href="tile49_28.png" preserveAspectRatio="none" x="13953.735352" y="-3636.474609" width="1.098633" height="1.098633"/>
<image xlink:href="tile49_27.png" preserveAspectRatio="none" x="13953.735352" y="-3637.573242" width="1.098633" height="1.098633"/>
<image xlink:href="tile49_26.png" preserveAspectRatio="none" x="13953.735352" y="-3638.671875" width="1.098633" height="1.098633"/>
<image xlink:href="tile49_25.png" preserveAspectRatio="none" x="13953.735352" y="-3639.770508" width="1.098633" height="1.098633"/>
<image xlink:href="tile50_27.png" preserveAspectRatio="none" x="13954.833984" y="-3637.573242" width="1.098633" height="1.098633"/>
<image xlink:href="tile50_26.png" preserveAspectRatio="none" x="13954.833984" y="-3638.671875" width="1.098633" height="1.098633"/>
<image xlink:href="tile51_29.png" preserveAspectRatio="none" x="13955.932617" y="-3635.375977" width="1.098633" height="1.098633"/>
<image xlink:href="tile52_29.png" preserveAspectRatio="none" x="13957.03125" y="-3635.375977" width="1.098633" height="1.098633"/>
<image xlink:href="tile52_28.png" preserveAspectRatio="none" x="13957.03125" y="-3636.474609" width="1.098633" height="1.098633"/>
<image xlink:href="tile56_29.png" preserveAspectRatio="none" x="13961.425781" y="-3635.375977" width="1.098633" height="1.098633"/>
<image xlink:href="tile56_28.png" preserveAspectRatio="none" x="13961.425781" y="-3636.474609" width="1.098633" height="1.098633"/>
<image xlink:href="tile57_29.png" preserveAspectRatio="none" x="13962.524414" y="-3635.375977" width="1.098633" height="1.098633"/>
<image xlink:href="tile57_28.png" preserveAspectRatio="none" x="13962.524414" y="-3636.474609" width="1.098633" height="1.098633"/>
<image xlink:href="tile57_27.png" preserveAspectRatio="none" x="13962.524414" y="-3637.573242" width="1.098633" height="1.098633"/>
<image xlink:href="tile58_27.png" preserveAspectRatio="none" x="13963.623047" y="-3637.573242" width="1.098633" height="1.098633"/>
<image xlink:href="tile59_27.png" preserveAspectRatio="none" x="13964.72168" y="-3637.573242" width="1.098633" height="1.098633"/>
<image xlink:href="tile59_25.png" preserveAspectRatio="none" x="13964.72168" y="-3639.770508" width="1.098633" height="1.098633"/>
<image xlink:href="tile59_24.png" preserveAspectRatio="none" x="13964.72168" y="-3640.869141" width="1.098633" height="1.098633"/>
<image xlink:href="tile60_25.png" preserveAspectRatio="none" x="13965.820312" y="-3639.770508" width="1.098633" height="1.098633"/>
<image xlink:href="tile60_24.png" preserveAspectRatio="none" x="13965.820312" y="-3640.869141" width="1.098633" height="1.098633"/>
<image xlink:href="tile60_18.png" preserveAspectRatio="none" x="13965.820312" y="-3647.460938" width="1.098633" height="1.098633"/>
<image xlink:href="tile60_17.png" preserveAspectRatio="none" x="13965.820312" y="-3648.55957" width="1.098633" height="1.098633"/>
<image xlink:href="tile61_25.png" preserveAspectRatio="none" x="13966.918945" y="-3639.770508" width="1.098633" height="1.098633"/>
<image xlink:href="tile61_24.png" preserveAspectRatio="none" x="13966.918945" y="-3640.869141" width="1.098633" height="1.098633"/>
<image xlink:href="tile61_19.png" preserveAspectRatio="none" x="13966.918945" y="-3646.362305" width="1.098633" height="1.098633"/>
<image xlink:href="tile61_18.png" preserveAspectRatio="none" x="13966.918945" y="-3647.460938" width="1.098633" height="1.098633"/>
<image xlink:href="tile61_17.png" preserveAspectRatio="none" x="13966.918945" y="-3648.55957" width="1.098633" height="1.098633"/>
<image xlink:href="tile61_14.png" preserveAspectRatio="none" x="13966.918945" y="-3651.855469" width="1.098633" height="1.098633"/>
<image xlink:href="tile62_26.png" preserveAspectRatio="none" x="13968.017578" y="-3638.671875" width="1.098633" height="1.098633"/>
<image xlink:href="tile62_25.png" preserveAspectRatio="none" x="13968.017578" y="-3639.770508" width="1.098633" height="1.098633"/>
<image xlink:href="tile62_19.png" preserveAspectRatio="none" x="13968.017578" y="-3646.362305" width="1.098633" height="1.098633"/>
<image xlink:href="tile62_17.png" preserveAspectRatio="none" x="13968.017578" y="-3648.55957" width="1.098633" height="1.098633"/>
<image xlink:href="tile62_15.png" preserveAspectRatio="none" x="13968.017578" y="-3650.756836" width="1.098633" height="1.098633"/>
<image xlink:href="tile62_14.png" preserveAspectRatio="none" x="13968.017578" y="-3651.855469" width="1.098633" height="1.098633"/>
<image xlink:href="tile63_26.png" preserveAspectRatio="none" x="13969.116211" y="-3638.671875" width="1.098633" height="1.098633"/>
<image xlink:href="tile63_25.png" preserveAspectRatio="none" x="13969.116211" y="-3639.770508" width="1.098633" height="1.098633"/>
<image xlink:href="tile63_19.png" preserveAspectRatio="none" x="13969.116211" y="-3646.362305" width="1.098633" height="1.098633"/>
<image xlink:href="tile63_18.png" preserveAspectRatio="none" x="13969.116211" y="-3647.460938" width="1.098633" height="1.098633"/>
<image xlink:href="tile63_17.png" preserveAspectRatio="none" x="13969.116211" y="-3648.55957" width="1.098633" height="1.098633"/>
<image xlink:href="tile63_16.png" preserveAspectRatio="none" x="13969.116211" y="-3649.658203" width="1.098633" height="1.098633"/>
<image xlink:href="tile63_15.png" preserveAspectRatio="none" x="13969.116211" y="-3650.756836" width="1.098633" height="1.098633"/>
<image xlink:href="tile63_14.png" preserveAspectRatio="none" x="13969.116211" y="-3651.855469" width="1.098633" height="1.098633"/>
</g>
</svg>
