<?xml version="1.0" encoding="UTF-8"?>
<svg  xmlns="http://www.w3.org/2000/svg" xmlns:xlink="http://www.w3.org/1999/xlink" xmlns:go="http://purl.org/svgmap/profile" viewBox="13900.0 -3666.666667 100.0 66.66666699999979" go:dataArea="13900.0 -3666.666667 100.0 66.66666699999979" >
<metadata>
 <rdf:RDF xmlns:rdf="http://www.w3.org/1999/02/22-rdf-syntax-ns#" xmlns:crs="http://opengis.org/xmldtds/transformations.dtd" xmlns:svg="http://www.w3.org/svg" >
  <rdf:Description>
   <crs:CoordinateReferenceSystem rdf:resource="http://purl.org/crs/84" svg:transform="matrix(100.0,0.0,0.0,-100.0,0.0,0.0)" />
  </rdf:Description>
 </rdf:RDF>
</metadata>
<globalCoordinateSystem srsName="http://purl.org/crs/84" transform="matrix(100.0,0.0,0.0,-100.0,0.0,0.0)" />
<g >
<image xlink:href="tile32_38.png" preserveAspectRatio="none" x="13935.058594" y="-3625.488281" width="1.098633" height="1.098633"/>
<image xlink:href="tile32_37.png" preserveAspectRatio="none" x="13935.058594" y="-3626.586914" width="1.098633" height="1.098633"/>
<image xlink:href="tile32_36.png" preserveAspectRatio="none" x="13935.058594" y="-3627.685547" width="1.098633" height="1.098633"/>
<image xlink:href="tile32_35.png" preserveAspectRatio="none" x="13935.058594" y="-3628.78418" width="1.098633" height="1.098633"/>
<image xlink:href="tile32_34.png" preserveAspectRatio="none" x="13935.058594" y="-3629.882812" width="1.098633" height="1.098633"/>
<image xlink:href="tile32_33.png" preserveAspectRatio="none" x="13935.058594" y="-3630.981445" width="1.098633" height="1.098633"/>
<image xlink:href="tile32_32.png" preserveAspectRatio="none" x="13935.058594" y="-3632.080078" width="1.098633" height="1.098633"/>
<image xlink:href="tile32_31.png" preserveAspectRatio="none" x="13935.058594" y="-3633.178711" width="1.098633" height="1.098633"/>
<image xlink:href="tile32_30.png" preserveAspectRatio="none" x="13935.058594" y="-3634.277344" width="1.098633" height="1.098633"/>
<image xlink:href="tile33_38.png" preserveAspectRatio="none" x="13936.157227" y="-3625.488281" width="1.098633" height="1.098633"/>
<image xlink:href="tile33_37.png" preserveAspectRatio="none" x="13936.157227" y="-3626.586914" width="1.098633" height="1.098633"/>
<image xlink:href="tile33_36.png" preserveAspectRatio="none" x="13936.157227" y="-3627.685547" width="1.098633" height="1.098633"/>
<image xlink:href="tile33_35.png" preserveAspectRatio="none" x="13936.157227" y="-3628.78418" width="1.098633" height="1.098633"/>
<image xlink:href="tile33_34.png" preserveAspectRatio="none" x="13936.157227" y="-3629.882812" width="1.098633" height="1.098633"/>
<image xlink:href="tile33_33.png" preserveAspectRatio="none" x="13936.157227" y="-3630.981445" width="1.098633" height="1.098633"/>
<image xlink:href="tile33_32.png" preserveAspectRatio="none" x="13936.157227" y="-3632.080078" width="1.098633" height="1.098633"/>
<image xlink:href="tile33_31.png" preserveAspectRatio="none" x="13936.157227" y="-3633.178711" width="1.098633" height="1.098633"/>
<image xlink:href="tile33_30.png" preserveAspectRatio="none" x="13936.157227" y="-3634.277344" width="1.098633" height="1.098633"/>
<image xlink:href="tile34_38.png" preserveAspectRatio="none" x="13937.255859" y="-3625.488281" width="1.098633" height="1.098633"/>
<image xlink:href="tile34_37.png" preserveAspectRatio="none" x="13937.255859" y="-3626.586914" width="1.098633" height="1.098633"/>
<image xlink:href="tile34_36.png" preserveAspectRatio="none" x="13937.255859" y="-3627.685547" width="1.098633" height="1.098633"/>
<image xlink:href="tile34_35.png" preserveAspectRatio="none" x="13937.255859" y="-3628.78418" width="1.098633" height="1.098633"/>
<image xlink:href="tile34_34.png" preserveAspectRatio="none" x="13937.255859" y="-3629.882812" width="1.098633" height="1.098633"/>
<image xlink:href="tile34_33.png" preserveAspectRatio="none" x="13937.255859" y="-3630.981445" width="1.098633" height="1.098633"/>
<image xlink:href="tile35_39.png" preserveAspectRatio="none" x="13938.354492" y="-3624.389648" width="1.098633" height="1.098633"/>
<image xlink:href="tile35_37.png" preserveAspectRatio="none" x="13938.354492" y="-3626.586914" width="1.098633" height="1.098633"/>
<image xlink:href="tile35_36.png" preserveAspectRatio="none" x="13938.354492" y="-3627.685547" width="1.098633" height="1.098633"/>
<image xlink:href="tile35_35.png" preserveAspectRatio="none" x="13938.354492" y="-3628.78418" width="1.098633" height="1.098633"/>
<image xlink:href="tile35_34.png" preserveAspectRatio="none" x="13938.354492" y="-3629.882812" width="1.098633" height="1.098633"/>
<image xlink:href="tile35_33.png" preserveAspectRatio="none" x="13938.354492" y="-3630.981445" width="1.098633" height="1.098633"/>
<image xlink:href="tile36_39.png" preserveAspectRatio="none" x="13939.453125" y="-3624.389648" width="1.098633" height="1.098633"/>
<image xlink:href="tile36_36.png" preserveAspectRatio="none" x="13939.453125" y="-3627.685547" width="1.098633" height="1.098633"/>
<image xlink:href="tile36_35.png" preserveAspectRatio="none" x="13939.453125" y="-3628.78418" width="1.098633" height="1.098633"/>
<image xlink:href="tile37_39.png" preserveAspectRatio="none" x="13940.551758" y="-3624.389648" width="1.098633" height="1.098633"/>
<image xlink:href="tile37_38.png" preserveAspectRatio="none" x="13940.551758" y="-3625.488281" width="1.098633" height="1.098633"/>
<image xlink:href="tile37_37.png" preserveAspectRatio="none" x="13940.551758" y="-3626.586914" width="1.098633" height="1.098633"/>
<image xlink:href="tile37_36.png" preserveAspectRatio="none" x="13940.551758" y="-3627.685547" width="1.098633" height="1.098633"/>
<image xlink:href="tile37_35.png" preserveAspectRatio="none" x="13940.551758" y="-3628.78418" width="1.098633" height="1.098633"/>
<image xlink:href="tile37_30.png" preserveAspectRatio="none" x="13940.551758" y="-3634.277344" width="1.098633" height="1.098633"/>
<image xlink:href="tile38_40.png" preserveAspectRatio="none" x="13941.650391" y="-3623.291016" width="1.098633" height="1.098633"/>
<image xlink:href="tile38_39.png" preserveAspectRatio="none" x="13941.650391" y="-3624.389648" width="1.098633" height="1.098633"/>
<image xlink:href="tile38_38.png" preserveAspectRatio="none" x="13941.650391" y="-3625.488281" width="1.098633" height="1.098633"/>
<image xlink:href="tile38_37.png" preserveAspectRatio="none" x="13941.650391" y="-3626.586914" width="1.098633" height="1.098633"/>
<image xlink:href="tile38_36.png" preserveAspectRatio="none" x="13941.650391" y="-3627.685547" width="1.098633" height="1.098633"/>
<image xlink:href="tile38_35.png" preserveAspectRatio="none" x="13941.650391" y="-3628.78418" width="1.098633" height="1.098633"/>
<image xlink:href="tile38_33.png" preserveAspectRatio="none" x="13941.650391" y="-3630.981445" width="1.098633" height="1.098633"/>
<image xlink:href="tile38_32.png" preserveAspectRatio="none" x="13941.650391" y="-3632.080078" width="1.098633" height="1.098633"/>
<image xlink:href="tile38_31.png" preserveAspectRatio="none" x="13941.650391" y="-3633.178711" width="1.098633" height="1.098633"/>
<image xlink:href="tile38_30.png" preserveAspectRatio="none" x="13941.650391" y="-3634.277344" width="1.098633" height="1.098633"/>
<image xlink:href="tile39_41.png" preserveAspectRatio="none" x="13942.749023" y="-3622.192383" width="1.098633" height="1.098633"/>
<image xlink:href="tile39_40.png" preserveAspectRatio="none" x="13942.749023" y="-3623.291016" width="1.098633" height="1.098633"/>
<image xlink:href="tile39_39.png" preserveAspectRatio="none" x="13942.749023" y="-3624.389648" width="1.098633" height="1.098633"/>
<image xlink:href="tile39_38.png" preserveAspectRatio="none" x="13942.749023" y="-3625.488281" width="1.098633" height="1.098633"/>
<image xlink:href="tile39_37.png" preserveAspectRatio="none" x="13942.749023" y="-3626.586914" width="1.098633" height="1.098633"/>
<image xlink:href="tile39_36.png" preserveAspectRatio="none" x="13942.749023" y="-3627.685547" width="1.098633" height="1.098633"/>
<image xlink:href="tile39_35.png" preserveAspectRatio="none" x="13942.749023" y="-3628.78418" width="1.098633" height="1.098633"/>
<image xlink:href="tile39_34.png" preserveAspectRatio="none" x="13942.749023" y="-3629.882812" width="1.098633" height="1.098633"/>
<image xlink:href="tile39_33.png" preserveAspectRatio="none" x="13942.749023" y="-3630.981445" width="1.098633" height="1.098633"/>
<image xlink:href="tile39_32.png" preserveAspectRatio="none" x="13942.749023" y="-3632.080078" width="1.098633" height="1.098633"/>
<image xlink:href="tile39_31.png" preserveAspectRatio="none" x="13942.749023" y="-3633.178711" width="1.098633" height="1.098633"/>
<image xlink:href="tile39_30.png" preserveAspectRatio="none" x="13942.749023" y="-3634.277344" width="1.098633" height="1.098633"/>
<image xlink:href="tile40_41.png" preserveAspectRatio="none" x="13943.847656" y="-3622.192383" width="1.098633" height="1.098633"/>
<image xlink:href="tile40_40.png" preserveAspectRatio="none" x="13943.847656" y="-3623.291016" width="1.098633" height="1.098633"/>
<image xlink:href="tile40_39.png" preserveAspectRatio="none" x="13943.847656" y="-3624.389648" width="1.098633" height="1.098633"/>
<image xlink:href="tile40_38.png" preserveAspectRatio="none" x="13943.847656" y="-3625.488281" width="1.098633" height="1.098633"/>
<image xlink:href="tile40_37.png" preserveAspectRatio="none" x="13943.847656" y="-3626.586914" width="1.098633" height="1.098633"/>
<image xlink:href="tile40_36.png" preserveAspectRatio="none" x="13943.847656" y="-3627.685547" width="1.098633" height="1.098633"/>
<image xlink:href="tile40_35.png" preserveAspectRatio="none" x="13943.847656" y="-3628.78418" width="1.098633" height="1.098633"/>
<image xlink:href="tile40_34.png" preserveAspectRatio="none" x="13943.847656" y="-3629.882812" width="1.098633" height="1.098633"/>
<image xlink:href="tile40_33.png" preserveAspectRatio="none" x="13943.847656" y="-3630.981445" width="1.098633" height="1.098633"/>
<image xlink:href="tile40_32.png" preserveAspectRatio="none" x="13943.847656" y="-3632.080078" width="1.098633" height="1.098633"/>
<image xlink:href="tile40_30.png" preserveAspectRatio="none" x="13943.847656" y="-3634.277344" width="1.098633" height="1.098633"/>
<image xlink:href="tile41_42.png" preserveAspectRatio="none" x="13944.946289" y="-3621.09375" width="1.098633" height="1.098633"/>
<image xlink:href="tile41_41.png" preserveAspectRatio="none" x="13944.946289" y="-3622.192383" width="1.098633" height="1.098633"/>
<image xlink:href="tile41_40.png" preserveAspectRatio="none" x="13944.946289" y="-3623.291016" width="1.098633" height="1.098633"/>
<image xlink:href="tile41_39.png" preserveAspectRatio="none" x="13944.946289" y="-3624.389648" width="1.098633" height="1.098633"/>
<image xlink:href="tile41_38.png" preserveAspectRatio="none" x="13944.946289" y="-3625.488281" width="1.098633" height="1.098633"/>
<image xlink:href="tile41_37.png" preserveAspectRatio="none" x="13944.946289" y="-3626.586914" width="1.098633" height="1.098633"/>
<image xlink:href="tile41_36.png" preserveAspectRatio="none" x="13944.946289" y="-3627.685547" width="1.098633" height="1.098633"/>
<image xlink:href="tile41_35.png" preserveAspectRatio="none" x="13944.946289" y="-3628.78418" width="1.098633" height="1.098633"/>
<image xlink:href="tile41_34.png" preserveAspectRatio="none" x="13944.946289" y="-3629.882812" width="1.098633" height="1.098633"/>
<image xlink:href="tile41_33.png" preserveAspectRatio="none" x="13944.946289" y="-3630.981445" width="1.098633" height="1.098633"/>
<image xlink:href="tile41_31.png" preserveAspectRatio="none" x="13944.946289" y="-3633.178711" width="1.098633" height="1.098633"/>
<image xlink:href="tile41_30.png" preserveAspectRatio="none" x="13944.946289" y="-3634.277344" width="1.098633" height="1.098633"/>
<image xlink:href="tile42_43.png" preserveAspectRatio="none" x="13946.044922" y="-3619.995117" width="1.098633" height="1.098633"/>
<image xlink:href="tile42_42.png" preserveAspectRatio="none" x="13946.044922" y="-3621.09375" width="1.098633" height="1.098633"/>
<image xlink:href="tile42_41.png" preserveAspectRatio="none" x="13946.044922" y="-3622.192383" width="1.098633" height="1.098633"/>
<image xlink:href="tile42_40.png" preserveAspectRatio="none" x="13946.044922" y="-3623.291016" width="1.098633" height="1.098633"/>
<image xlink:href="tile42_39.png" preserveAspectRatio="none" x="13946.044922" y="-3624.389648" width="1.098633" height="1.098633"/>
<image xlink:href="tile42_38.png" preserveAspectRatio="none" x="13946.044922" y="-3625.488281" width="1.098633" height="1.098633"/>
<image xlink:href="tile42_37.png" preserveAspectRatio="none" x="13946.044922" y="-3626.586914" width="1.098633" height="1.098633"/>
<image xlink:href="tile42_36.png" preserveAspectRatio="none" x="13946.044922" y="-3627.685547" width="1.098633" height="1.098633"/>
<image xlink:href="tile42_35.png" preserveAspectRatio="none" x="13946.044922" y="-3628.78418" width="1.098633" height="1.098633"/>
<image xlink:href="tile42_34.png" preserveAspectRatio="none" x="13946.044922" y="-3629.882812" width="1.098633" height="1.098633"/>
<image xlink:href="tile42_33.png" preserveAspectRatio="none" x="13946.044922" y="-3630.981445" width="1.098633" height="1.098633"/>
<image xlink:href="tile42_32.png" preserveAspectRatio="none" x="13946.044922" y="-3632.080078" width="1.098633" height="1.098633"/>
<image xlink:href="tile42_31.png" preserveAspectRatio="none" x="13946.044922" y="-3633.178711" width="1.098633" height="1.098633"/>
<image xlink:href="tile42_30.png" preserveAspectRatio="none" x="13946.044922" y="-3634.277344" width="1.098633" height="1.098633"/>
<image xlink:href="tile43_43.png" preserveAspectRatio="none" x="13947.143555" y="-3619.995117" width="1.098633" height="1.098633"/>
<image xlink:href="tile43_42.png" preserveAspectRatio="none" x="13947.143555" y="-3621.09375" width="1.098633" height="1.098633"/>
<image xlink:href="tile43_41.png" preserveAspectRatio="none" x="13947.143555" y="-3622.192383" width="1.098633" height="1.098633"/>
<image xlink:href="tile43_40.png" preserveAspectRatio="none" x="13947.143555" y="-3623.291016" width="1.098633" height="1.098633"/>
<image xlink:href="tile43_39.png" preserveAspectRatio="none" x="13947.143555" y="-3624.389648" width="1.098633" height="1.098633"/>
<image xlink:href="tile43_38.png" preserveAspectRatio="none" x="13947.143555" y="-3625.488281" width="1.098633" height="1.098633"/>
<image xlink:href="tile43_37.png" preserveAspectRatio="none" x="13947.143555" y="-3626.586914" width="1.098633" height="1.098633"/>
<image xlink:href="tile43_36.png" preserveAspectRatio="none" x="13947.143555" y="-3627.685547" width="1.098633" height="1.098633"/>
<image xlink:href="tile43_35.png" preserveAspectRatio="none" x="13947.143555" y="-3628.78418" width="1.098633" height="1.098633"/>
<image xlink:href="tile43_34.png" preserveAspectRatio="none" x="13947.143555" y="-3629.882812" width="1.098633" height="1.098633"/>
<image xlink:href="tile43_33.png" preserveAspectRatio="none" x="13947.143555" y="-3630.981445" width="1.098633" height="1.098633"/>
<image xlink:href="tile43_32.png" preserveAspectRatio="none" x="13947.143555" y="-3632.080078" width="1.098633" height="1.098633"/>
<image xlink:href="tile43_31.png" preserveAspectRatio="none" x="13947.143555" y="-3633.178711" width="1.098633" height="1.098633"/>
<image xlink:href="tile43_30.png" preserveAspectRatio="none" x="13947.143555" y="-3634.277344" width="1.098633" height="1.098633"/>
<image xlink:href="tile44_43.png" preserveAspectRatio="none" x="13948.242188" y="-3619.995117" width="1.098633" height="1.098633"/>
<image xlink:href="tile44_42.png" preserveAspectRatio="none" x="13948.242188" y="-3621.09375" width="1.098633" height="1.098633"/>
<image xlink:href="tile44_41.png" preserveAspectRatio="none" x="13948.242188" y="-3622.192383" width="1.098633" height="1.098633"/>
<image xlink:href="tile44_40.png" preserveAspectRatio="none" x="13948.242188" y="-3623.291016" width="1.098633" height="1.098633"/>
<image xlink:href="tile44_39.png" preserveAspectRatio="none" x="13948.242188" y="-3624.389648" width="1.098633" height="1.098633"/>
<image xlink:href="tile44_38.png" preserveAspectRatio="none" x="13948.242188" y="-3625.488281" width="1.098633" height="1.098633"/>
<image xlink:href="tile44_37.png" preserveAspectRatio="none" x="13948.242188" y="-3626.586914" width="1.098633" height="1.098633"/>
<image xlink:href="tile44_36.png" preserveAspectRatio="none" x="13948.242188" y="-3627.685547" width="1.098633" height="1.098633"/>
<image xlink:href="tile44_35.png" preserveAspectRatio="none" x="13948.242188" y="-3628.78418" width="1.098633" height="1.098633"/>
<image xlink:href="tile44_34.png" preserveAspectRatio="none" x="13948.242188" y="-3629.882812" width="1.098633" height="1.098633"/>
<image xlink:href="tile44_33.png" preserveAspectRatio="none" x="13948.242188" y="-3630.981445" width="1.098633" height="1.098633"/>
<image xlink:href="tile44_32.png" preserveAspectRatio="none" x="13948.242188" y="-3632.080078" width="1.098633" height="1.098633"/>
<image xlink:href="tile44_31.png" preserveAspectRatio="none" x="13948.242188" y="-3633.178711" width="1.098633" height="1.098633"/>
<image xlink:href="tile45_43.png" preserveAspectRatio="none" x="13949.34082" y="-3619.995117" width="1.098633" height="1.098633"/>
<image xlink:href="tile45_42.png" preserveAspectRatio="none" x="13949.34082" y="-3621.09375" width="1.098633" height="1.098633"/>
<image xlink:href="tile45_41.png" preserveAspectRatio="none" x="13949.34082" y="-3622.192383" width="1.098633" height="1.098633"/>
<image xlink:href="tile45_40.png" preserveAspectRatio="none" x="13949.34082" y="-3623.291016" width="1.098633" height="1.098633"/>
<image xlink:href="tile45_39.png" preserveAspectRatio="none" x="13949.34082" y="-3624.389648" width="1.098633" height="1.098633"/>
<image xlink:href="tile45_38.png" preserveAspectRatio="none" x="13949.34082" y="-3625.488281" width="1.098633" height="1.098633"/>
<image xlink:href="tile45_37.png" preserveAspectRatio="none" x="13949.34082" y="-3626.586914" width="1.098633" height="1.098633"/>
<image xlink:href="tile45_36.png" preserveAspectRatio="none" x="13949.34082" y="-3627.685547" width="1.098633" height="1.098633"/>
<image xlink:href="tile45_35.png" preserveAspectRatio="none" x="13949.34082" y="-3628.78418" width="1.098633" height="1.098633"/>
<image xlink:href="tile45_34.png" preserveAspectRatio="none" x="13949.34082" y="-3629.882812" width="1.098633" height="1.098633"/>
<image xlink:href="tile45_33.png" preserveAspectRatio="none" x="13949.34082" y="-3630.981445" width="1.098633" height="1.098633"/>
<image xlink:href="tile45_32.png" preserveAspectRatio="none" x="13949.34082" y="-3632.080078" width="1.098633" height="1.098633"/>
<image xlink:href="tile45_31.png" preserveAspectRatio="none" x="13949.34082" y="-3633.178711" width="1.098633" height="1.098633"/>
<image xlink:href="tile46_43.png" preserveAspectRatio="none" x="13950.439453" y="-3619.995117" width="1.098633" height="1.098633"/>
<image xlink:href="tile46_42.png" preserveAspectRatio="none" x="13950.439453" y="-3621.09375" width="1.098633" height="1.098633"/>
<image xlink:href="tile46_41.png" preserveAspectRatio="none" x="13950.439453" y="-3622.192383" width="1.098633" height="1.098633"/>
<image xlink:href="tile46_40.png" preserveAspectRatio="none" x="13950.439453" y="-3623.291016" width="1.098633" height="1.098633"/>
<image xlink:href="tile46_39.png" preserveAspectRatio="none" x="13950.439453" y="-3624.389648" width="1.098633" height="1.098633"/>
<image xlink:href="tile46_38.png" preserveAspectRatio="none" x="13950.439453" y="-3625.488281" width="1.098633" height="1.098633"/>
<image xlink:href="tile46_36.png" preserveAspectRatio="none" x="13950.439453" y="-3627.685547" width="1.098633" height="1.098633"/>
<image xlink:href="tile46_35.png" preserveAspectRatio="none" x="13950.439453" y="-3628.78418" width="1.098633" height="1.098633"/>
<image xlink:href="tile46_34.png" preserveAspectRatio="none" x="13950.439453" y="-3629.882812" width="1.098633" height="1.098633"/>
<image xlink:href="tile46_33.png" preserveAspectRatio="none" x="13950.439453" y="-3630.981445" width="1.098633" height="1.098633"/>
<image xlink:href="tile46_32.png" preserveAspectRatio="none" x="13950.439453" y="-3632.080078" width="1.098633" height="1.098633"/>
<image xlink:href="tile47_43.png" preserveAspectRatio="none" x="13951.538086" y="-3619.995117" width="1.098633" height="1.098633"/>
<image xlink:href="tile47_42.png" preserveAspectRatio="none" x="13951.538086" y="-3621.09375" width="1.098633" height="1.098633"/>
<image xlink:href="tile47_41.png" preserveAspectRatio="none" x="13951.538086" y="-3622.192383" width="1.098633" height="1.098633"/>
<image xlink:href="tile47_40.png" preserveAspectRatio="none" x="13951.538086" y="-3623.291016" width="1.098633" height="1.098633"/>
<image xlink:href="tile47_39.png" preserveAspectRatio="none" x="13951.538086" y="-3624.389648" width="1.098633" height="1.098633"/>
<image xlink:href="tile47_38.png" preserveAspectRatio="none" x="13951.538086" y="-3625.488281" width="1.098633" height="1.098633"/>
<image xlink:href="tile47_37.png" preserveAspectRatio="none" x="13951.538086" y="-3626.586914" width="1.098633" height="1.098633"/>
<image xlink:href="tile47_36.png" preserveAspectRatio="none" x="13951.538086" y="-3627.685547" width="1.098633" height="1.098633"/>
<image xlink:href="tile47_35.png" preserveAspectRatio="none" x="13951.538086" y="-3628.78418" width="1.098633" height="1.098633"/>
<image xlink:href="tile47_34.png" preserveAspectRatio="none" x="13951.538086" y="-3629.882812" width="1.098633" height="1.098633"/>
<image xlink:href="tile47_33.png" preserveAspectRatio="none" x="13951.538086" y="-3630.981445" width="1.098633" height="1.098633"/>
<image xlink:href="tile47_32.png" preserveAspectRatio="none" x="13951.538086" y="-3632.080078" width="1.098633" height="1.098633"/>
<image xlink:href="tile47_31.png" preserveAspectRatio="none" x="13951.538086" y="-3633.178711" width="1.098633" height="1.098633"/>
</g>
</svg>
