<?xml version="1.0" encoding="UTF-8"?>
<svg  xmlns="http://www.w3.org/2000/svg" xmlns:xlink="http://www.w3.org/1999/xlink" xmlns:go="http://purl.org/svgmap/profile" viewBox="14100.0 -4066.666667 90.11998990000052 66.66666699999979" go:dataArea="14100.0 -4066.666667 90.11998990000052 66.66666699999979" >
<metadata>
 <rdf:RDF xmlns:rdf="http://www.w3.org/1999/02/22-rdf-syntax-ns#" xmlns:crs="http://opengis.org/xmldtds/transformations.dtd" xmlns:svg="http://www.w3.org/svg" >
  <rdf:Description>
   <crs:CoordinateReferenceSystem rdf:resource="http://purl.org/crs/84" svg:transform="matrix(100.0,0.0,0.0,-100.0,0.0,0.0)" />
  </rdf:Description>
 </rdf:RDF>
</metadata>
<globalCoordinateSystem srsName="http://purl.org/crs/84" transform="matrix(100.0,0.0,0.0,-100.0,0.0,0.0)" />
<g >
<image xlink:href="tile0_14.png" preserveAspectRatio="none" x="14097.65625" y="-4007.8125" width="4.394531" height="4.394531"/>
<image xlink:href="tile0_13.png" preserveAspectRatio="none" x="14097.65625" y="-4012.207031" width="4.394531" height="4.394531"/>
<image xlink:href="tile0_9.png" preserveAspectRatio="none" x="14097.65625" y="-4029.785156" width="4.394531" height="4.394531"/>
<image xlink:href="tile0_2.png" preserveAspectRatio="none" x="14097.65625" y="-4060.546875" width="4.394531" height="4.394531"/>
<image xlink:href="tile1_14.png" preserveAspectRatio="none" x="14102.050781" y="-4007.8125" width="4.394531" height="4.394531"/>
<image xlink:href="tile1_13.png" preserveAspectRatio="none" x="14102.050781" y="-4012.207031" width="4.394531" height="4.394531"/>
<image xlink:href="tile1_9.png" preserveAspectRatio="none" x="14102.050781" y="-4029.785156" width="4.394531" height="4.394531"/>
<image xlink:href="tile1_2.png" preserveAspectRatio="none" x="14102.050781" y="-4060.546875" width="4.394531" height="4.394531"/>
<image xlink:href="tile2_13.png" preserveAspectRatio="none" x="14106.445312" y="-4012.207031" width="4.394531" height="4.394531"/>
<image xlink:href="tile2_12.png" preserveAspectRatio="none" x="14106.445312" y="-4016.601562" width="4.394531" height="4.394531"/>
<image xlink:href="tile2_9.png" preserveAspectRatio="none" x="14106.445312" y="-4029.785156" width="4.394531" height="4.394531"/>
<image xlink:href="tile2_8.png" preserveAspectRatio="none" x="14106.445312" y="-4034.179688" width="4.394531" height="4.394531"/>
<image xlink:href="tile2_7.png" preserveAspectRatio="none" x="14106.445312" y="-4038.574219" width="4.394531" height="4.394531"/>
<image xlink:href="tile2_2.png" preserveAspectRatio="none" x="14106.445312" y="-4060.546875" width="4.394531" height="4.394531"/>
<image xlink:href="tile3_12.png" preserveAspectRatio="none" x="14110.839844" y="-4016.601562" width="4.394531" height="4.394531"/>
<image xlink:href="tile3_11.png" preserveAspectRatio="none" x="14110.839844" y="-4020.996094" width="4.394531" height="4.394531"/>
<image xlink:href="tile3_8.png" preserveAspectRatio="none" x="14110.839844" y="-4034.179688" width="4.394531" height="4.394531"/>
<image xlink:href="tile3_7.png" preserveAspectRatio="none" x="14110.839844" y="-4038.574219" width="4.394531" height="4.394531"/>
<image xlink:href="tile3_5.png" preserveAspectRatio="none" x="14110.839844" y="-4047.363281" width="4.394531" height="4.394531"/>
<image xlink:href="tile3_2.png" preserveAspectRatio="none" x="14110.839844" y="-4060.546875" width="4.394531" height="4.394531"/>
<image xlink:href="tile4_11.png" preserveAspectRatio="none" x="14115.234375" y="-4020.996094" width="4.394531" height="4.394531"/>
<image xlink:href="tile4_10.png" preserveAspectRatio="none" x="14115.234375" y="-4025.390625" width="4.394531" height="4.394531"/>
<image xlink:href="tile4_8.png" preserveAspectRatio="none" x="14115.234375" y="-4034.179688" width="4.394531" height="4.394531"/>
<image xlink:href="tile4_7.png" preserveAspectRatio="none" x="14115.234375" y="-4038.574219" width="4.394531" height="4.394531"/>
<image xlink:href="tile4_5.png" preserveAspectRatio="none" x="14115.234375" y="-4047.363281" width="4.394531" height="4.394531"/>
<image xlink:href="tile4_2.png" preserveAspectRatio="none" x="14115.234375" y="-4060.546875" width="4.394531" height="4.394531"/>
<image xlink:href="tile4_1.png" preserveAspectRatio="none" x="14115.234375" y="-4064.941406" width="4.394531" height="4.394531"/>
<image xlink:href="tile5_15.png" preserveAspectRatio="none" x="14119.628906" y="-4003.417969" width="4.394531" height="4.394531"/>
<image xlink:href="tile5_10.png" preserveAspectRatio="none" x="14119.628906" y="-4025.390625" width="4.394531" height="4.394531"/>
<image xlink:href="tile5_7.png" preserveAspectRatio="none" x="14119.628906" y="-4038.574219" width="4.394531" height="4.394531"/>
<image xlink:href="tile5_5.png" preserveAspectRatio="none" x="14119.628906" y="-4047.363281" width="4.394531" height="4.394531"/>
<image xlink:href="tile5_4.png" preserveAspectRatio="none" x="14119.628906" y="-4051.757812" width="4.394531" height="4.394531"/>
<image xlink:href="tile5_2.png" preserveAspectRatio="none" x="14119.628906" y="-4060.546875" width="4.394531" height="4.394531"/>
<image xlink:href="tile6_15.png" preserveAspectRatio="none" x="14124.023438" y="-4003.417969" width="4.394531" height="4.394531"/>
<image xlink:href="tile6_10.png" preserveAspectRatio="none" x="14124.023438" y="-4025.390625" width="4.394531" height="4.394531"/>
<image xlink:href="tile6_8.png" preserveAspectRatio="none" x="14124.023438" y="-4034.179688" width="4.394531" height="4.394531"/>
<image xlink:href="tile6_7.png" preserveAspectRatio="none" x="14124.023438" y="-4038.574219" width="4.394531" height="4.394531"/>
<image xlink:href="tile6_6.png" preserveAspectRatio="none" x="14124.023438" y="-4042.96875" width="4.394531" height="4.394531"/>
<image xlink:href="tile6_5.png" preserveAspectRatio="none" x="14124.023438" y="-4047.363281" width="4.394531" height="4.394531"/>
<image xlink:href="tile6_4.png" preserveAspectRatio="none" x="14124.023438" y="-4051.757812" width="4.394531" height="4.394531"/>
<image xlink:href="tile6_3.png" preserveAspectRatio="none" x="14124.023438" y="-4056.152344" width="4.394531" height="4.394531"/>
<image xlink:href="tile6_2.png" preserveAspectRatio="none" x="14124.023438" y="-4060.546875" width="4.394531" height="4.394531"/>
<image xlink:href="tile7_12.png" preserveAspectRatio="none" x="14128.417969" y="-4016.601562" width="4.394531" height="4.394531"/>
<image xlink:href="tile7_11.png" preserveAspectRatio="none" x="14128.417969" y="-4020.996094" width="4.394531" height="4.394531"/>
<image xlink:href="tile7_10.png" preserveAspectRatio="none" x="14128.417969" y="-4025.390625" width="4.394531" height="4.394531"/>
<image xlink:href="tile7_9.png" preserveAspectRatio="none" x="14128.417969" y="-4029.785156" width="4.394531" height="4.394531"/>
<image xlink:href="tile7_8.png" preserveAspectRatio="none" x="14128.417969" y="-4034.179688" width="4.394531" height="4.394531"/>
<image xlink:href="tile7_7.png" preserveAspectRatio="none" x="14128.417969" y="-4038.574219" width="4.394531" height="4.394531"/>
<image xlink:href="tile7_6.png" preserveAspectRatio="none" x="14128.417969" y="-4042.96875" width="4.394531" height="4.394531"/>
<image xlink:href="tile7_5.png" preserveAspectRatio="none" x="14128.417969" y="-4047.363281" width="4.394531" height="4.394531"/>
<image xlink:href="tile7_4.png" preserveAspectRatio="none" x="14128.417969" y="-4051.757812" width="4.394531" height="4.394531"/>
<image xlink:href="tile7_3.png" preserveAspectRatio="none" x="14128.417969" y="-4056.152344" width="4.394531" height="4.394531"/>
<image xlink:href="tile7_2.png" preserveAspectRatio="none" x="14128.417969" y="-4060.546875" width="4.394531" height="4.394531"/>
<image xlink:href="tile8_12.png" preserveAspectRatio="none" x="14132.8125" y="-4016.601562" width="4.394531" height="4.394531"/>
<image xlink:href="tile8_11.png" preserveAspectRatio="none" x="14132.8125" y="-4020.996094" width="4.394531" height="4.394531"/>
<image xlink:href="tile8_6.png" preserveAspectRatio="none" x="14132.8125" y="-4042.96875" width="4.394531" height="4.394531"/>
<image xlink:href="tile8_5.png" preserveAspectRatio="none" x="14132.8125" y="-4047.363281" width="4.394531" height="4.394531"/>
<image xlink:href="tile8_4.png" preserveAspectRatio="none" x="14132.8125" y="-4051.757812" width="4.394531" height="4.394531"/>
<image xlink:href="tile8_3.png" preserveAspectRatio="none" x="14132.8125" y="-4056.152344" width="4.394531" height="4.394531"/>
<image xlink:href="tile8_2.png" preserveAspectRatio="none" x="14132.8125" y="-4060.546875" width="4.394531" height="4.394531"/>
<image xlink:href="tile8_1.png" preserveAspectRatio="none" x="14132.8125" y="-4064.941406" width="4.394531" height="4.394531"/>
<image xlink:href="tile8_0.png" preserveAspectRatio="none" x="14132.8125" y="-4069.335938" width="4.394531" height="4.394531"/>
<image xlink:href="tile9_14.png" preserveAspectRatio="none" x="14137.207031" y="-4007.8125" width="4.394531" height="4.394531"/>
<image xlink:href="tile9_13.png" preserveAspectRatio="none" x="14137.207031" y="-4012.207031" width="4.394531" height="4.394531"/>
<image xlink:href="tile9_12.png" preserveAspectRatio="none" x="14137.207031" y="-4016.601562" width="4.394531" height="4.394531"/>
<image xlink:href="tile9_10.png" preserveAspectRatio="none" x="14137.207031" y="-4025.390625" width="4.394531" height="4.394531"/>
<image xlink:href="tile9_9.png" preserveAspectRatio="none" x="14137.207031" y="-4029.785156" width="4.394531" height="4.394531"/>
<image xlink:href="tile9_8.png" preserveAspectRatio="none" x="14137.207031" y="-4034.179688" width="4.394531" height="4.394531"/>
<image xlink:href="tile9_5.png" preserveAspectRatio="none" x="14137.207031" y="-4047.363281" width="4.394531" height="4.394531"/>
<image xlink:href="tile9_4.png" preserveAspectRatio="none" x="14137.207031" y="-4051.757812" width="4.394531" height="4.394531"/>
<image xlink:href="tile9_3.png" preserveAspectRatio="none" x="14137.207031" y="-4056.152344" width="4.394531" height="4.394531"/>
<image xlink:href="tile9_2.png" preserveAspectRatio="none" x="14137.207031" y="-4060.546875" width="4.394531" height="4.394531"/>
<image xlink:href="tile9_1.png" preserveAspectRatio="none" x="14137.207031" y="-4064.941406" width="4.394531" height="4.394531"/>
<image xlink:href="tile10_15.png" preserveAspectRatio="none" x="14141.601562" y="-4003.417969" width="4.394531" height="4.394531"/>
<image xlink:href="tile10_14.png" preserveAspectRatio="none" x="14141.601562" y="-4007.8125" width="4.394531" height="4.394531"/>
<image xlink:href="tile10_13.png" preserveAspectRatio="none" x="14141.601562" y="-4012.207031" width="4.394531" height="4.394531"/>
<image xlink:href="tile10_12.png" preserveAspectRatio="none" x="14141.601562" y="-4016.601562" width="4.394531" height="4.394531"/>
<image xlink:href="tile10_11.png" preserveAspectRatio="none" x="14141.601562" y="-4020.996094" width="4.394531" height="4.394531"/>
<image xlink:href="tile10_10.png" preserveAspectRatio="none" x="14141.601562" y="-4025.390625" width="4.394531" height="4.394531"/>
<image xlink:href="tile10_9.png" preserveAspectRatio="none" x="14141.601562" y="-4029.785156" width="4.394531" height="4.394531"/>
<image xlink:href="tile10_8.png" preserveAspectRatio="none" x="14141.601562" y="-4034.179688" width="4.394531" height="4.394531"/>
<image xlink:href="tile10_7.png" preserveAspectRatio="none" x="14141.601562" y="-4038.574219" width="4.394531" height="4.394531"/>
<image xlink:href="tile10_5.png" preserveAspectRatio="none" x="14141.601562" y="-4047.363281" width="4.394531" height="4.394531"/>
<image xlink:href="tile10_4.png" preserveAspectRatio="none" x="14141.601562" y="-4051.757812" width="4.394531" height="4.394531"/>
<image xlink:href="tile10_3.png" preserveAspectRatio="none" x="14141.601562" y="-4056.152344" width="4.394531" height="4.394531"/>
<image xlink:href="tile10_2.png" preserveAspectRatio="none" x="14141.601562" y="-4060.546875" width="4.394531" height="4.394531"/>
<image xlink:href="tile10_1.png" preserveAspectRatio="none" x="14141.601562" y="-4064.941406" width="4.394531" height="4.394531"/>
<image xlink:href="tile11_15.png" preserveAspectRatio="none" x="14145.996094" y="-4003.417969" width="4.394531" height="4.394531"/>
<image xlink:href="tile11_13.png" preserveAspectRatio="none" x="14145.996094" y="-4012.207031" width="4.394531" height="4.394531"/>
<image xlink:href="tile11_10.png" preserveAspectRatio="none" x="14145.996094" y="-4025.390625" width="4.394531" height="4.394531"/>
<image xlink:href="tile11_9.png" preserveAspectRatio="none" x="14145.996094" y="-4029.785156" width="4.394531" height="4.394531"/>
<image xlink:href="tile11_8.png" preserveAspectRatio="none" x="14145.996094" y="-4034.179688" width="4.394531" height="4.394531"/>
<image xlink:href="tile11_7.png" preserveAspectRatio="none" x="14145.996094" y="-4038.574219" width="4.394531" height="4.394531"/>
<image xlink:href="tile11_6.png" preserveAspectRatio="none" x="14145.996094" y="-4042.96875" width="4.394531" height="4.394531"/>
<image xlink:href="tile11_5.png" preserveAspectRatio="none" x="14145.996094" y="-4047.363281" width="4.394531" height="4.394531"/>
<image xlink:href="tile11_4.png" preserveAspectRatio="none" x="14145.996094" y="-4051.757812" width="4.394531" height="4.394531"/>
<image xlink:href="tile11_3.png" preserveAspectRatio="none" x="14145.996094" y="-4056.152344" width="4.394531" height="4.394531"/>
<image xlink:href="tile11_2.png" preserveAspectRatio="none" x="14145.996094" y="-4060.546875" width="4.394531" height="4.394531"/>
<image xlink:href="tile11_1.png" preserveAspectRatio="none" x="14145.996094" y="-4064.941406" width="4.394531" height="4.394531"/>
<image xlink:href="tile12_9.png" preserveAspectRatio="none" x="14150.390625" y="-4029.785156" width="4.394531" height="4.394531"/>
<image xlink:href="tile12_8.png" preserveAspectRatio="none" x="14150.390625" y="-4034.179688" width="4.394531" height="4.394531"/>
<image xlink:href="tile12_6.png" preserveAspectRatio="none" x="14150.390625" y="-4042.96875" width="4.394531" height="4.394531"/>
<image xlink:href="tile12_5.png" preserveAspectRatio="none" x="14150.390625" y="-4047.363281" width="4.394531" height="4.394531"/>
<image xlink:href="tile12_4.png" preserveAspectRatio="none" x="14150.390625" y="-4051.757812" width="4.394531" height="4.394531"/>
<image xlink:href="tile12_3.png" preserveAspectRatio="none" x="14150.390625" y="-4056.152344" width="4.394531" height="4.394531"/>
<image xlink:href="tile13_12.png" preserveAspectRatio="none" x="14154.785156" y="-4016.601562" width="4.394531" height="4.394531"/>
<image xlink:href="tile14_12.png" preserveAspectRatio="none" x="14159.179688" y="-4016.601562" width="4.394531" height="4.394531"/>
<image xlink:href="tile14_11.png" preserveAspectRatio="none" x="14159.179688" y="-4020.996094" width="4.394531" height="4.394531"/>
<image xlink:href="tile15_11.png" preserveAspectRatio="none" x="14163.574219" y="-4020.996094" width="4.394531" height="4.394531"/>
</g>
</svg>
