<?xml version="1.0" encoding="UTF-8"?>
<svg  xmlns="http://www.w3.org/2000/svg" xmlns:xlink="http://www.w3.org/1999/xlink" xmlns:go="http://purl.org/svgmap/profile" viewBox="13400.0 -3466.666667 100.0 66.66666699999979" go:dataArea="13400.0 -3466.666667 100.0 66.66666699999979" >
<metadata>
 <rdf:RDF xmlns:rdf="http://www.w3.org/1999/02/22-rdf-syntax-ns#" xmlns:crs="http://opengis.org/xmldtds/transformations.dtd" xmlns:svg="http://www.w3.org/svg" >
  <rdf:Description>
   <crs:CoordinateReferenceSystem rdf:resource="http://purl.org/crs/84" svg:transform="matrix(100.0,0.0,0.0,-100.0,0.0,0.0)" />
  </rdf:Description>
 </rdf:RDF>
</metadata>
<globalCoordinateSystem srsName="http://purl.org/crs/84" transform="matrix(100.0,0.0,0.0,-100.0,0.0,0.0)" />
<g >
<image xlink:href="tile0_14.png" preserveAspectRatio="none" x="13398.925781" y="-3436.523438" width="2.197266" height="2.197266"/>
<image xlink:href="tile0_2.png" preserveAspectRatio="none" x="13398.925781" y="-3462.890625" width="2.197266" height="2.197266"/>
<image xlink:href="tile0_1.png" preserveAspectRatio="none" x="13398.925781" y="-3465.087891" width="2.197266" height="2.197266"/>
<image xlink:href="tile0_0.png" preserveAspectRatio="none" x="13398.925781" y="-3467.285156" width="2.197266" height="2.197266"/>
<image xlink:href="tile1_14.png" preserveAspectRatio="none" x="13401.123047" y="-3436.523438" width="2.197266" height="2.197266"/>
<image xlink:href="tile1_3.png" preserveAspectRatio="none" x="13401.123047" y="-3460.693359" width="2.197266" height="2.197266"/>
<image xlink:href="tile1_2.png" preserveAspectRatio="none" x="13401.123047" y="-3462.890625" width="2.197266" height="2.197266"/>
<image xlink:href="tile1_1.png" preserveAspectRatio="none" x="13401.123047" y="-3465.087891" width="2.197266" height="2.197266"/>
<image xlink:href="tile1_0.png" preserveAspectRatio="none" x="13401.123047" y="-3467.285156" width="2.197266" height="2.197266"/>
<image xlink:href="tile2_14.png" preserveAspectRatio="none" x="13403.320312" y="-3436.523438" width="2.197266" height="2.197266"/>
<image xlink:href="tile2_3.png" preserveAspectRatio="none" x="13403.320312" y="-3460.693359" width="2.197266" height="2.197266"/>
<image xlink:href="tile2_2.png" preserveAspectRatio="none" x="13403.320312" y="-3462.890625" width="2.197266" height="2.197266"/>
<image xlink:href="tile2_1.png" preserveAspectRatio="none" x="13403.320312" y="-3465.087891" width="2.197266" height="2.197266"/>
<image xlink:href="tile2_0.png" preserveAspectRatio="none" x="13403.320312" y="-3467.285156" width="2.197266" height="2.197266"/>
<image xlink:href="tile3_14.png" preserveAspectRatio="none" x="13405.517578" y="-3436.523438" width="2.197266" height="2.197266"/>
<image xlink:href="tile3_3.png" preserveAspectRatio="none" x="13405.517578" y="-3460.693359" width="2.197266" height="2.197266"/>
<image xlink:href="tile3_2.png" preserveAspectRatio="none" x="13405.517578" y="-3462.890625" width="2.197266" height="2.197266"/>
<image xlink:href="tile3_1.png" preserveAspectRatio="none" x="13405.517578" y="-3465.087891" width="2.197266" height="2.197266"/>
<image xlink:href="tile3_0.png" preserveAspectRatio="none" x="13405.517578" y="-3467.285156" width="2.197266" height="2.197266"/>
<image xlink:href="tile4_14.png" preserveAspectRatio="none" x="13407.714844" y="-3436.523438" width="2.197266" height="2.197266"/>
<image xlink:href="tile4_3.png" preserveAspectRatio="none" x="13407.714844" y="-3460.693359" width="2.197266" height="2.197266"/>
<image xlink:href="tile4_2.png" preserveAspectRatio="none" x="13407.714844" y="-3462.890625" width="2.197266" height="2.197266"/>
<image xlink:href="tile4_1.png" preserveAspectRatio="none" x="13407.714844" y="-3465.087891" width="2.197266" height="2.197266"/>
<image xlink:href="tile4_0.png" preserveAspectRatio="none" x="13407.714844" y="-3467.285156" width="2.197266" height="2.197266"/>
<image xlink:href="tile5_14.png" preserveAspectRatio="none" x="13409.912109" y="-3436.523438" width="2.197266" height="2.197266"/>
<image xlink:href="tile5_1.png" preserveAspectRatio="none" x="13409.912109" y="-3465.087891" width="2.197266" height="2.197266"/>
<image xlink:href="tile5_0.png" preserveAspectRatio="none" x="13409.912109" y="-3467.285156" width="2.197266" height="2.197266"/>
<image xlink:href="tile6_14.png" preserveAspectRatio="none" x="13412.109375" y="-3436.523438" width="2.197266" height="2.197266"/>
<image xlink:href="tile6_1.png" preserveAspectRatio="none" x="13412.109375" y="-3465.087891" width="2.197266" height="2.197266"/>
<image xlink:href="tile6_0.png" preserveAspectRatio="none" x="13412.109375" y="-3467.285156" width="2.197266" height="2.197266"/>
<image xlink:href="tile7_0.png" preserveAspectRatio="none" x="13414.306641" y="-3467.285156" width="2.197266" height="2.197266"/>
<image xlink:href="tile9_14.png" preserveAspectRatio="none" x="13418.701172" y="-3436.523438" width="2.197266" height="2.197266"/>
<image xlink:href="tile10_14.png" preserveAspectRatio="none" x="13420.898438" y="-3436.523438" width="2.197266" height="2.197266"/>
</g>
</svg>
