<?xml version="1.0" encoding="UTF-8"?>
<svg  xmlns="http://www.w3.org/2000/svg" xmlns:xlink="http://www.w3.org/1999/xlink" xmlns:go="http://purl.org/svgmap/profile" viewBox="13200.0 -3533.333333 100.0 66.6666670000005" go:dataArea="13200.0 -3533.333333 100.0 66.6666670000005" >
<metadata>
 <rdf:RDF xmlns:rdf="http://www.w3.org/1999/02/22-rdf-syntax-ns#" xmlns:crs="http://opengis.org/xmldtds/transformations.dtd" xmlns:svg="http://www.w3.org/svg" >
  <rdf:Description>
   <crs:CoordinateReferenceSystem rdf:resource="http://purl.org/crs/84" svg:transform="matrix(100.0,0.0,0.0,-100.0,0.0,0.0)" />
  </rdf:Description>
 </rdf:RDF>
</metadata>
<globalCoordinateSystem srsName="http://purl.org/crs/84" transform="matrix(100.0,0.0,0.0,-100.0,0.0,0.0)" />
<g >
<animation xlink:href="sub_0_0_container.svg" x="13198.974609" y="-3483.764648" width="17.578125" height="17.578125"/>
<animation xlink:href="sub_3_1_container.svg" x="13251.708984" y="-3501.342773" width="17.578125" height="17.578125"/>
<animation xlink:href="sub_0_1_container.svg" x="13198.974609" y="-3501.342773" width="17.578125" height="17.578125"/>
<animation xlink:href="sub_3_0_container.svg" x="13251.708984" y="-3483.764648" width="17.578125" height="17.578125"/>
<animation xlink:href="sub_3_3_container.svg" x="13251.708984" y="-3536.499023" width="17.578125" height="17.578125"/>
<animation xlink:href="sub_3_2_container.svg" x="13251.708984" y="-3518.920898" width="17.578125" height="17.578125"/>
<animation xlink:href="sub_2_3_container.svg" x="13234.130859" y="-3536.499023" width="17.578125" height="17.578125"/>
<animation xlink:href="sub_2_2_container.svg" x="13234.130859" y="-3518.920898" width="17.578125" height="17.578125"/>
<animation xlink:href="sub_2_1_container.svg" x="13234.130859" y="-3501.342773" width="17.578125" height="17.578125"/>
<animation xlink:href="sub_5_1_container.svg" x="13286.865234" y="-3501.342773" width="17.578125" height="17.578125"/>
<animation xlink:href="sub_5_0_container.svg" x="13286.865234" y="-3483.764648" width="17.578125" height="17.578125"/>
<animation xlink:href="sub_5_3_container.svg" x="13286.865234" y="-3536.499023" width="17.578125" height="17.578125"/>
<animation xlink:href="sub_1_1_container.svg" x="13216.552734" y="-3501.342773" width="17.578125" height="17.578125"/>
<animation xlink:href="sub_4_3_container.svg" x="13269.287109" y="-3536.499023" width="17.578125" height="17.578125"/>
<animation xlink:href="sub_4_1_container.svg" x="13269.287109" y="-3501.342773" width="17.578125" height="17.578125"/>
<animation xlink:href="sub_1_2_container.svg" x="13216.552734" y="-3518.920898" width="17.578125" height="17.578125"/>
<animation xlink:href="sub_4_0_container.svg" x="13269.287109" y="-3483.764648" width="17.578125" height="17.578125"/>
</g>
</svg>
