<?xml version="1.0" encoding="UTF-8"?>
<svg  xmlns="http://www.w3.org/2000/svg" xmlns:xlink="http://www.w3.org/1999/xlink" xmlns:go="http://purl.org/svgmap/profile" viewBox="13200.0 -3533.333333 100.0 66.6666670000005" go:dataArea="13200.0 -3533.333333 100.0 66.6666670000005" >
<metadata>
 <rdf:RDF xmlns:rdf="http://www.w3.org/1999/02/22-rdf-syntax-ns#" xmlns:crs="http://opengis.org/xmldtds/transformations.dtd" xmlns:svg="http://www.w3.org/svg" >
  <rdf:Description>
   <crs:CoordinateReferenceSystem rdf:resource="http://purl.org/crs/84" svg:transform="matrix(100.0,0.0,0.0,-100.0,0.0,0.0)" />
  </rdf:Description>
 </rdf:RDF>
</metadata>
<globalCoordinateSystem srsName="http://purl.org/crs/84" transform="matrix(100.0,0.0,0.0,-100.0,0.0,0.0)" />
<g >
<image xlink:href="tile48_30.png" preserveAspectRatio="none" x="13251.708984" y="-3501.342773" width="1.098633" height="1.098633"/>
<image xlink:href="tile49_30.png" preserveAspectRatio="none" x="13252.807617" y="-3501.342773" width="1.098633" height="1.098633"/>
<image xlink:href="tile55_32.png" preserveAspectRatio="none" x="13259.399414" y="-3499.145508" width="1.098633" height="1.098633"/>
<image xlink:href="tile56_32.png" preserveAspectRatio="none" x="13260.498047" y="-3499.145508" width="1.098633" height="1.098633"/>
<image xlink:href="tile56_31.png" preserveAspectRatio="none" x="13260.498047" y="-3500.244141" width="1.098633" height="1.098633"/>
<image xlink:href="tile57_32.png" preserveAspectRatio="none" x="13261.59668" y="-3499.145508" width="1.098633" height="1.098633"/>
<image xlink:href="tile57_30.png" preserveAspectRatio="none" x="13261.59668" y="-3501.342773" width="1.098633" height="1.098633"/>
<image xlink:href="tile58_40.png" preserveAspectRatio="none" x="13262.695312" y="-3490.356445" width="1.098633" height="1.098633"/>
<image xlink:href="tile58_39.png" preserveAspectRatio="none" x="13262.695312" y="-3491.455078" width="1.098633" height="1.098633"/>
<image xlink:href="tile58_35.png" preserveAspectRatio="none" x="13262.695312" y="-3495.849609" width="1.098633" height="1.098633"/>
<image xlink:href="tile58_33.png" preserveAspectRatio="none" x="13262.695312" y="-3498.046875" width="1.098633" height="1.098633"/>
<image xlink:href="tile58_30.png" preserveAspectRatio="none" x="13262.695312" y="-3501.342773" width="1.098633" height="1.098633"/>
<image xlink:href="tile59_37.png" preserveAspectRatio="none" x="13263.793945" y="-3493.652344" width="1.098633" height="1.098633"/>
<image xlink:href="tile59_36.png" preserveAspectRatio="none" x="13263.793945" y="-3494.750977" width="1.098633" height="1.098633"/>
<image xlink:href="tile59_35.png" preserveAspectRatio="none" x="13263.793945" y="-3495.849609" width="1.098633" height="1.098633"/>
<image xlink:href="tile59_34.png" preserveAspectRatio="none" x="13263.793945" y="-3496.948242" width="1.098633" height="1.098633"/>
<image xlink:href="tile59_33.png" preserveAspectRatio="none" x="13263.793945" y="-3498.046875" width="1.098633" height="1.098633"/>
<image xlink:href="tile59_32.png" preserveAspectRatio="none" x="13263.793945" y="-3499.145508" width="1.098633" height="1.098633"/>
<image xlink:href="tile60_40.png" preserveAspectRatio="none" x="13264.892578" y="-3490.356445" width="1.098633" height="1.098633"/>
<image xlink:href="tile61_42.png" preserveAspectRatio="none" x="13265.991211" y="-3488.15918" width="1.098633" height="1.098633"/>
<image xlink:href="tile61_41.png" preserveAspectRatio="none" x="13265.991211" y="-3489.257812" width="1.098633" height="1.098633"/>
<image xlink:href="tile61_40.png" preserveAspectRatio="none" x="13265.991211" y="-3490.356445" width="1.098633" height="1.098633"/>
<image xlink:href="tile62_42.png" preserveAspectRatio="none" x="13267.089844" y="-3488.15918" width="1.098633" height="1.098633"/>
<image xlink:href="tile62_41.png" preserveAspectRatio="none" x="13267.089844" y="-3489.257812" width="1.098633" height="1.098633"/>
<image xlink:href="tile62_40.png" preserveAspectRatio="none" x="13267.089844" y="-3490.356445" width="1.098633" height="1.098633"/>
<image xlink:href="tile63_41.png" preserveAspectRatio="none" x="13268.188477" y="-3489.257812" width="1.098633" height="1.098633"/>
<image xlink:href="tile63_40.png" preserveAspectRatio="none" x="13268.188477" y="-3490.356445" width="1.098633" height="1.098633"/>
</g>
</svg>
