<?xml version="1.0" encoding="UTF-8"?>
<svg  xmlns="http://www.w3.org/2000/svg" xmlns:xlink="http://www.w3.org/1999/xlink" xmlns:go="http://purl.org/svgmap/profile" viewBox="13200.0 -3533.333333 100.0 66.6666670000005" go:dataArea="13200.0 -3533.333333 100.0 66.6666670000005" >
<metadata>
 <rdf:RDF xmlns:rdf="http://www.w3.org/1999/02/22-rdf-syntax-ns#" xmlns:crs="http://opengis.org/xmldtds/transformations.dtd" xmlns:svg="http://www.w3.org/svg" >
  <rdf:Description>
   <crs:CoordinateReferenceSystem rdf:resource="http://purl.org/crs/84" svg:transform="matrix(100.0,0.0,0.0,-100.0,0.0,0.0)" />
  </rdf:Description>
 </rdf:RDF>
</metadata>
<globalCoordinateSystem srsName="http://purl.org/crs/84" transform="matrix(100.0,0.0,0.0,-100.0,0.0,0.0)" />
<g >
<image xlink:href="tile32_36.png" preserveAspectRatio="none" x="13234.130859" y="-3494.750977" width="1.098633" height="1.098633"/>
<image xlink:href="tile32_35.png" preserveAspectRatio="none" x="13234.130859" y="-3495.849609" width="1.098633" height="1.098633"/>
<image xlink:href="tile32_34.png" preserveAspectRatio="none" x="13234.130859" y="-3496.948242" width="1.098633" height="1.098633"/>
<image xlink:href="tile33_34.png" preserveAspectRatio="none" x="13235.229492" y="-3496.948242" width="1.098633" height="1.098633"/>
<image xlink:href="tile34_35.png" preserveAspectRatio="none" x="13236.328125" y="-3495.849609" width="1.098633" height="1.098633"/>
<image xlink:href="tile34_34.png" preserveAspectRatio="none" x="13236.328125" y="-3496.948242" width="1.098633" height="1.098633"/>
<image xlink:href="tile35_35.png" preserveAspectRatio="none" x="13237.426758" y="-3495.849609" width="1.098633" height="1.098633"/>
<image xlink:href="tile35_34.png" preserveAspectRatio="none" x="13237.426758" y="-3496.948242" width="1.098633" height="1.098633"/>
<image xlink:href="tile36_35.png" preserveAspectRatio="none" x="13238.525391" y="-3495.849609" width="1.098633" height="1.098633"/>
<image xlink:href="tile36_34.png" preserveAspectRatio="none" x="13238.525391" y="-3496.948242" width="1.098633" height="1.098633"/>
<image xlink:href="tile37_36.png" preserveAspectRatio="none" x="13239.624023" y="-3494.750977" width="1.098633" height="1.098633"/>
<image xlink:href="tile37_35.png" preserveAspectRatio="none" x="13239.624023" y="-3495.849609" width="1.098633" height="1.098633"/>
<image xlink:href="tile38_36.png" preserveAspectRatio="none" x="13240.722656" y="-3494.750977" width="1.098633" height="1.098633"/>
<image xlink:href="tile38_35.png" preserveAspectRatio="none" x="13240.722656" y="-3495.849609" width="1.098633" height="1.098633"/>
<image xlink:href="tile39_35.png" preserveAspectRatio="none" x="13241.821289" y="-3495.849609" width="1.098633" height="1.098633"/>
<image xlink:href="tile39_34.png" preserveAspectRatio="none" x="13241.821289" y="-3496.948242" width="1.098633" height="1.098633"/>
<image xlink:href="tile40_35.png" preserveAspectRatio="none" x="13242.919922" y="-3495.849609" width="1.098633" height="1.098633"/>
<image xlink:href="tile40_34.png" preserveAspectRatio="none" x="13242.919922" y="-3496.948242" width="1.098633" height="1.098633"/>
<image xlink:href="tile41_35.png" preserveAspectRatio="none" x="13244.018555" y="-3495.849609" width="1.098633" height="1.098633"/>
<image xlink:href="tile41_34.png" preserveAspectRatio="none" x="13244.018555" y="-3496.948242" width="1.098633" height="1.098633"/>
<image xlink:href="tile42_34.png" preserveAspectRatio="none" x="13245.117188" y="-3496.948242" width="1.098633" height="1.098633"/>
<image xlink:href="tile43_35.png" preserveAspectRatio="none" x="13246.21582" y="-3495.849609" width="1.098633" height="1.098633"/>
<image xlink:href="tile43_34.png" preserveAspectRatio="none" x="13246.21582" y="-3496.948242" width="1.098633" height="1.098633"/>
<image xlink:href="tile43_33.png" preserveAspectRatio="none" x="13246.21582" y="-3498.046875" width="1.098633" height="1.098633"/>
<image xlink:href="tile44_34.png" preserveAspectRatio="none" x="13247.314453" y="-3496.948242" width="1.098633" height="1.098633"/>
<image xlink:href="tile44_33.png" preserveAspectRatio="none" x="13247.314453" y="-3498.046875" width="1.098633" height="1.098633"/>
<image xlink:href="tile44_32.png" preserveAspectRatio="none" x="13247.314453" y="-3499.145508" width="1.098633" height="1.098633"/>
<image xlink:href="tile44_31.png" preserveAspectRatio="none" x="13247.314453" y="-3500.244141" width="1.098633" height="1.098633"/>
<image xlink:href="tile44_30.png" preserveAspectRatio="none" x="13247.314453" y="-3501.342773" width="1.098633" height="1.098633"/>
<image xlink:href="tile45_33.png" preserveAspectRatio="none" x="13248.413086" y="-3498.046875" width="1.098633" height="1.098633"/>
<image xlink:href="tile45_32.png" preserveAspectRatio="none" x="13248.413086" y="-3499.145508" width="1.098633" height="1.098633"/>
<image xlink:href="tile45_31.png" preserveAspectRatio="none" x="13248.413086" y="-3500.244141" width="1.098633" height="1.098633"/>
<image xlink:href="tile46_32.png" preserveAspectRatio="none" x="13249.511719" y="-3499.145508" width="1.098633" height="1.098633"/>
<image xlink:href="tile46_31.png" preserveAspectRatio="none" x="13249.511719" y="-3500.244141" width="1.098633" height="1.098633"/>
<image xlink:href="tile46_30.png" preserveAspectRatio="none" x="13249.511719" y="-3501.342773" width="1.098633" height="1.098633"/>
<image xlink:href="tile47_31.png" preserveAspectRatio="none" x="13250.610352" y="-3500.244141" width="1.098633" height="1.098633"/>
<image xlink:href="tile47_30.png" preserveAspectRatio="none" x="13250.610352" y="-3501.342773" width="1.098633" height="1.098633"/>
</g>
</svg>
