<?xml version="1.0" encoding="UTF-8"?>
<svg  xmlns="http://www.w3.org/2000/svg" xmlns:xlink="http://www.w3.org/1999/xlink" xmlns:go="http://purl.org/svgmap/profile" viewBox="14000.776823 -3800.0 99.22317699999894 66.66666699999979" go:dataArea="14000.776823 -3800.0 99.22317699999894 66.66666699999979" >
<metadata>
 <rdf:RDF xmlns:rdf="http://www.w3.org/1999/02/22-rdf-syntax-ns#" xmlns:crs="http://opengis.org/xmldtds/transformations.dtd" xmlns:svg="http://www.w3.org/svg" >
  <rdf:Description>
   <crs:CoordinateReferenceSystem rdf:resource="http://purl.org/crs/84" svg:transform="matrix(100.0,0.0,0.0,-100.0,0.0,0.0)" />
  </rdf:Description>
 </rdf:RDF>
</metadata>
<globalCoordinateSystem srsName="http://purl.org/crs/84" transform="matrix(100.0,0.0,0.0,-100.0,0.0,0.0)" />
<g >
<image xlink:href="tile0_7.png" preserveAspectRatio="none" x="13999.87793" y="-3792.480469" width="1.098633" height="1.098633"/>
<image xlink:href="tile0_6.png" preserveAspectRatio="none" x="13999.87793" y="-3793.579102" width="1.098633" height="1.098633"/>
<image xlink:href="tile1_6.png" preserveAspectRatio="none" x="14000.976562" y="-3793.579102" width="1.098633" height="1.098633"/>
<image xlink:href="tile1_5.png" preserveAspectRatio="none" x="14000.976562" y="-3794.677734" width="1.098633" height="1.098633"/>
<image xlink:href="tile1_4.png" preserveAspectRatio="none" x="14000.976562" y="-3795.776367" width="1.098633" height="1.098633"/>
<image xlink:href="tile1_0.png" preserveAspectRatio="none" x="14000.976562" y="-3800.170898" width="1.098633" height="1.098633"/>
<image xlink:href="tile2_4.png" preserveAspectRatio="none" x="14002.075195" y="-3795.776367" width="1.098633" height="1.098633"/>
<image xlink:href="tile2_3.png" preserveAspectRatio="none" x="14002.075195" y="-3796.875" width="1.098633" height="1.098633"/>
<image xlink:href="tile2_0.png" preserveAspectRatio="none" x="14002.075195" y="-3800.170898" width="1.098633" height="1.098633"/>
<image xlink:href="tile3_3.png" preserveAspectRatio="none" x="14003.173828" y="-3796.875" width="1.098633" height="1.098633"/>
<image xlink:href="tile3_2.png" preserveAspectRatio="none" x="14003.173828" y="-3797.973633" width="1.098633" height="1.098633"/>
<image xlink:href="tile4_2.png" preserveAspectRatio="none" x="14004.272461" y="-3797.973633" width="1.098633" height="1.098633"/>
<image xlink:href="tile4_1.png" preserveAspectRatio="none" x="14004.272461" y="-3799.072266" width="1.098633" height="1.098633"/>
<image xlink:href="tile4_0.png" preserveAspectRatio="none" x="14004.272461" y="-3800.170898" width="1.098633" height="1.098633"/>
<image xlink:href="tile5_1.png" preserveAspectRatio="none" x="14005.371094" y="-3799.072266" width="1.098633" height="1.098633"/>
<image xlink:href="tile5_0.png" preserveAspectRatio="none" x="14005.371094" y="-3800.170898" width="1.098633" height="1.098633"/>
<image xlink:href="tile6_5.png" preserveAspectRatio="none" x="14006.469727" y="-3794.677734" width="1.098633" height="1.098633"/>
<image xlink:href="tile6_4.png" preserveAspectRatio="none" x="14006.469727" y="-3795.776367" width="1.098633" height="1.098633"/>
<image xlink:href="tile6_3.png" preserveAspectRatio="none" x="14006.469727" y="-3796.875" width="1.098633" height="1.098633"/>
<image xlink:href="tile6_2.png" preserveAspectRatio="none" x="14006.469727" y="-3797.973633" width="1.098633" height="1.098633"/>
<image xlink:href="tile6_1.png" preserveAspectRatio="none" x="14006.469727" y="-3799.072266" width="1.098633" height="1.098633"/>
<image xlink:href="tile6_0.png" preserveAspectRatio="none" x="14006.469727" y="-3800.170898" width="1.098633" height="1.098633"/>
<image xlink:href="tile7_8.png" preserveAspectRatio="none" x="14007.568359" y="-3791.381836" width="1.098633" height="1.098633"/>
<image xlink:href="tile7_7.png" preserveAspectRatio="none" x="14007.568359" y="-3792.480469" width="1.098633" height="1.098633"/>
<image xlink:href="tile7_6.png" preserveAspectRatio="none" x="14007.568359" y="-3793.579102" width="1.098633" height="1.098633"/>
<image xlink:href="tile7_5.png" preserveAspectRatio="none" x="14007.568359" y="-3794.677734" width="1.098633" height="1.098633"/>
<image xlink:href="tile7_4.png" preserveAspectRatio="none" x="14007.568359" y="-3795.776367" width="1.098633" height="1.098633"/>
<image xlink:href="tile7_3.png" preserveAspectRatio="none" x="14007.568359" y="-3796.875" width="1.098633" height="1.098633"/>
<image xlink:href="tile7_2.png" preserveAspectRatio="none" x="14007.568359" y="-3797.973633" width="1.098633" height="1.098633"/>
<image xlink:href="tile7_1.png" preserveAspectRatio="none" x="14007.568359" y="-3799.072266" width="1.098633" height="1.098633"/>
<image xlink:href="tile7_0.png" preserveAspectRatio="none" x="14007.568359" y="-3800.170898" width="1.098633" height="1.098633"/>
<image xlink:href="tile8_11.png" preserveAspectRatio="none" x="14008.666992" y="-3788.085938" width="1.098633" height="1.098633"/>
<image xlink:href="tile8_10.png" preserveAspectRatio="none" x="14008.666992" y="-3789.18457" width="1.098633" height="1.098633"/>
<image xlink:href="tile8_9.png" preserveAspectRatio="none" x="14008.666992" y="-3790.283203" width="1.098633" height="1.098633"/>
<image xlink:href="tile8_8.png" preserveAspectRatio="none" x="14008.666992" y="-3791.381836" width="1.098633" height="1.098633"/>
<image xlink:href="tile8_7.png" preserveAspectRatio="none" x="14008.666992" y="-3792.480469" width="1.098633" height="1.098633"/>
<image xlink:href="tile8_6.png" preserveAspectRatio="none" x="14008.666992" y="-3793.579102" width="1.098633" height="1.098633"/>
<image xlink:href="tile8_5.png" preserveAspectRatio="none" x="14008.666992" y="-3794.677734" width="1.098633" height="1.098633"/>
<image xlink:href="tile8_4.png" preserveAspectRatio="none" x="14008.666992" y="-3795.776367" width="1.098633" height="1.098633"/>
<image xlink:href="tile8_3.png" preserveAspectRatio="none" x="14008.666992" y="-3796.875" width="1.098633" height="1.098633"/>
<image xlink:href="tile8_2.png" preserveAspectRatio="none" x="14008.666992" y="-3797.973633" width="1.098633" height="1.098633"/>
<image xlink:href="tile8_1.png" preserveAspectRatio="none" x="14008.666992" y="-3799.072266" width="1.098633" height="1.098633"/>
<image xlink:href="tile8_0.png" preserveAspectRatio="none" x="14008.666992" y="-3800.170898" width="1.098633" height="1.098633"/>
<image xlink:href="tile9_12.png" preserveAspectRatio="none" x="14009.765625" y="-3786.987305" width="1.098633" height="1.098633"/>
<image xlink:href="tile9_11.png" preserveAspectRatio="none" x="14009.765625" y="-3788.085938" width="1.098633" height="1.098633"/>
<image xlink:href="tile9_10.png" preserveAspectRatio="none" x="14009.765625" y="-3789.18457" width="1.098633" height="1.098633"/>
<image xlink:href="tile9_9.png" preserveAspectRatio="none" x="14009.765625" y="-3790.283203" width="1.098633" height="1.098633"/>
<image xlink:href="tile9_8.png" preserveAspectRatio="none" x="14009.765625" y="-3791.381836" width="1.098633" height="1.098633"/>
<image xlink:href="tile9_7.png" preserveAspectRatio="none" x="14009.765625" y="-3792.480469" width="1.098633" height="1.098633"/>
<image xlink:href="tile9_6.png" preserveAspectRatio="none" x="14009.765625" y="-3793.579102" width="1.098633" height="1.098633"/>
<image xlink:href="tile9_5.png" preserveAspectRatio="none" x="14009.765625" y="-3794.677734" width="1.098633" height="1.098633"/>
<image xlink:href="tile9_4.png" preserveAspectRatio="none" x="14009.765625" y="-3795.776367" width="1.098633" height="1.098633"/>
<image xlink:href="tile9_3.png" preserveAspectRatio="none" x="14009.765625" y="-3796.875" width="1.098633" height="1.098633"/>
<image xlink:href="tile9_2.png" preserveAspectRatio="none" x="14009.765625" y="-3797.973633" width="1.098633" height="1.098633"/>
<image xlink:href="tile9_1.png" preserveAspectRatio="none" x="14009.765625" y="-3799.072266" width="1.098633" height="1.098633"/>
<image xlink:href="tile9_0.png" preserveAspectRatio="none" x="14009.765625" y="-3800.170898" width="1.098633" height="1.098633"/>
<image xlink:href="tile10_8.png" preserveAspectRatio="none" x="14010.864258" y="-3791.381836" width="1.098633" height="1.098633"/>
<image xlink:href="tile10_7.png" preserveAspectRatio="none" x="14010.864258" y="-3792.480469" width="1.098633" height="1.098633"/>
<image xlink:href="tile10_6.png" preserveAspectRatio="none" x="14010.864258" y="-3793.579102" width="1.098633" height="1.098633"/>
<image xlink:href="tile10_5.png" preserveAspectRatio="none" x="14010.864258" y="-3794.677734" width="1.098633" height="1.098633"/>
<image xlink:href="tile10_4.png" preserveAspectRatio="none" x="14010.864258" y="-3795.776367" width="1.098633" height="1.098633"/>
<image xlink:href="tile10_3.png" preserveAspectRatio="none" x="14010.864258" y="-3796.875" width="1.098633" height="1.098633"/>
<image xlink:href="tile10_2.png" preserveAspectRatio="none" x="14010.864258" y="-3797.973633" width="1.098633" height="1.098633"/>
<image xlink:href="tile10_1.png" preserveAspectRatio="none" x="14010.864258" y="-3799.072266" width="1.098633" height="1.098633"/>
<image xlink:href="tile10_0.png" preserveAspectRatio="none" x="14010.864258" y="-3800.170898" width="1.098633" height="1.098633"/>
<image xlink:href="tile11_12.png" preserveAspectRatio="none" x="14011.962891" y="-3786.987305" width="1.098633" height="1.098633"/>
<image xlink:href="tile11_11.png" preserveAspectRatio="none" x="14011.962891" y="-3788.085938" width="1.098633" height="1.098633"/>
<image xlink:href="tile11_10.png" preserveAspectRatio="none" x="14011.962891" y="-3789.18457" width="1.098633" height="1.098633"/>
<image xlink:href="tile11_9.png" preserveAspectRatio="none" x="14011.962891" y="-3790.283203" width="1.098633" height="1.098633"/>
<image xlink:href="tile11_8.png" preserveAspectRatio="none" x="14011.962891" y="-3791.381836" width="1.098633" height="1.098633"/>
<image xlink:href="tile11_7.png" preserveAspectRatio="none" x="14011.962891" y="-3792.480469" width="1.098633" height="1.098633"/>
<image xlink:href="tile11_6.png" preserveAspectRatio="none" x="14011.962891" y="-3793.579102" width="1.098633" height="1.098633"/>
<image xlink:href="tile11_5.png" preserveAspectRatio="none" x="14011.962891" y="-3794.677734" width="1.098633" height="1.098633"/>
<image xlink:href="tile11_4.png" preserveAspectRatio="none" x="14011.962891" y="-3795.776367" width="1.098633" height="1.098633"/>
<image xlink:href="tile11_3.png" preserveAspectRatio="none" x="14011.962891" y="-3796.875" width="1.098633" height="1.098633"/>
<image xlink:href="tile11_2.png" preserveAspectRatio="none" x="14011.962891" y="-3797.973633" width="1.098633" height="1.098633"/>
<image xlink:href="tile11_1.png" preserveAspectRatio="none" x="14011.962891" y="-3799.072266" width="1.098633" height="1.098633"/>
<image xlink:href="tile11_0.png" preserveAspectRatio="none" x="14011.962891" y="-3800.170898" width="1.098633" height="1.098633"/>
<image xlink:href="tile12_11.png" preserveAspectRatio="none" x="14013.061523" y="-3788.085938" width="1.098633" height="1.098633"/>
<image xlink:href="tile12_10.png" preserveAspectRatio="none" x="14013.061523" y="-3789.18457" width="1.098633" height="1.098633"/>
<image xlink:href="tile12_9.png" preserveAspectRatio="none" x="14013.061523" y="-3790.283203" width="1.098633" height="1.098633"/>
<image xlink:href="tile12_8.png" preserveAspectRatio="none" x="14013.061523" y="-3791.381836" width="1.098633" height="1.098633"/>
<image xlink:href="tile12_7.png" preserveAspectRatio="none" x="14013.061523" y="-3792.480469" width="1.098633" height="1.098633"/>
<image xlink:href="tile12_6.png" preserveAspectRatio="none" x="14013.061523" y="-3793.579102" width="1.098633" height="1.098633"/>
<image xlink:href="tile12_5.png" preserveAspectRatio="none" x="14013.061523" y="-3794.677734" width="1.098633" height="1.098633"/>
<image xlink:href="tile12_4.png" preserveAspectRatio="none" x="14013.061523" y="-3795.776367" width="1.098633" height="1.098633"/>
<image xlink:href="tile12_3.png" preserveAspectRatio="none" x="14013.061523" y="-3796.875" width="1.098633" height="1.098633"/>
<image xlink:href="tile12_2.png" preserveAspectRatio="none" x="14013.061523" y="-3797.973633" width="1.098633" height="1.098633"/>
<image xlink:href="tile12_1.png" preserveAspectRatio="none" x="14013.061523" y="-3799.072266" width="1.098633" height="1.098633"/>
<image xlink:href="tile12_0.png" preserveAspectRatio="none" x="14013.061523" y="-3800.170898" width="1.098633" height="1.098633"/>
<image xlink:href="tile13_12.png" preserveAspectRatio="none" x="14014.160156" y="-3786.987305" width="1.098633" height="1.098633"/>
<image xlink:href="tile13_11.png" preserveAspectRatio="none" x="14014.160156" y="-3788.085938" width="1.098633" height="1.098633"/>
<image xlink:href="tile13_10.png" preserveAspectRatio="none" x="14014.160156" y="-3789.18457" width="1.098633" height="1.098633"/>
<image xlink:href="tile13_9.png" preserveAspectRatio="none" x="14014.160156" y="-3790.283203" width="1.098633" height="1.098633"/>
<image xlink:href="tile13_8.png" preserveAspectRatio="none" x="14014.160156" y="-3791.381836" width="1.098633" height="1.098633"/>
<image xlink:href="tile13_7.png" preserveAspectRatio="none" x="14014.160156" y="-3792.480469" width="1.098633" height="1.098633"/>
<image xlink:href="tile13_5.png" preserveAspectRatio="none" x="14014.160156" y="-3794.677734" width="1.098633" height="1.098633"/>
<image xlink:href="tile13_4.png" preserveAspectRatio="none" x="14014.160156" y="-3795.776367" width="1.098633" height="1.098633"/>
<image xlink:href="tile13_3.png" preserveAspectRatio="none" x="14014.160156" y="-3796.875" width="1.098633" height="1.098633"/>
<image xlink:href="tile13_2.png" preserveAspectRatio="none" x="14014.160156" y="-3797.973633" width="1.098633" height="1.098633"/>
<image xlink:href="tile13_1.png" preserveAspectRatio="none" x="14014.160156" y="-3799.072266" width="1.098633" height="1.098633"/>
<image xlink:href="tile13_0.png" preserveAspectRatio="none" x="14014.160156" y="-3800.170898" width="1.098633" height="1.098633"/>
<image xlink:href="tile14_12.png" preserveAspectRatio="none" x="14015.258789" y="-3786.987305" width="1.098633" height="1.098633"/>
<image xlink:href="tile14_9.png" preserveAspectRatio="none" x="14015.258789" y="-3790.283203" width="1.098633" height="1.098633"/>
<image xlink:href="tile14_8.png" preserveAspectRatio="none" x="14015.258789" y="-3791.381836" width="1.098633" height="1.098633"/>
<image xlink:href="tile14_7.png" preserveAspectRatio="none" x="14015.258789" y="-3792.480469" width="1.098633" height="1.098633"/>
<image xlink:href="tile14_6.png" preserveAspectRatio="none" x="14015.258789" y="-3793.579102" width="1.098633" height="1.098633"/>
<image xlink:href="tile14_5.png" preserveAspectRatio="none" x="14015.258789" y="-3794.677734" width="1.098633" height="1.098633"/>
<image xlink:href="tile14_4.png" preserveAspectRatio="none" x="14015.258789" y="-3795.776367" width="1.098633" height="1.098633"/>
<image xlink:href="tile14_3.png" preserveAspectRatio="none" x="14015.258789" y="-3796.875" width="1.098633" height="1.098633"/>
<image xlink:href="tile14_2.png" preserveAspectRatio="none" x="14015.258789" y="-3797.973633" width="1.098633" height="1.098633"/>
<image xlink:href="tile14_1.png" preserveAspectRatio="none" x="14015.258789" y="-3799.072266" width="1.098633" height="1.098633"/>
<image xlink:href="tile14_0.png" preserveAspectRatio="none" x="14015.258789" y="-3800.170898" width="1.098633" height="1.098633"/>
<image xlink:href="tile15_9.png" preserveAspectRatio="none" x="14016.357422" y="-3790.283203" width="1.098633" height="1.098633"/>
<image xlink:href="tile15_8.png" preserveAspectRatio="none" x="14016.357422" y="-3791.381836" width="1.098633" height="1.098633"/>
<image xlink:href="tile15_7.png" preserveAspectRatio="none" x="14016.357422" y="-3792.480469" width="1.098633" height="1.098633"/>
<image xlink:href="tile15_6.png" preserveAspectRatio="none" x="14016.357422" y="-3793.579102" width="1.098633" height="1.098633"/>
<image xlink:href="tile15_5.png" preserveAspectRatio="none" x="14016.357422" y="-3794.677734" width="1.098633" height="1.098633"/>
<image xlink:href="tile15_4.png" preserveAspectRatio="none" x="14016.357422" y="-3795.776367" width="1.098633" height="1.098633"/>
<image xlink:href="tile15_3.png" preserveAspectRatio="none" x="14016.357422" y="-3796.875" width="1.098633" height="1.098633"/>
<image xlink:href="tile15_2.png" preserveAspectRatio="none" x="14016.357422" y="-3797.973633" width="1.098633" height="1.098633"/>
<image xlink:href="tile15_1.png" preserveAspectRatio="none" x="14016.357422" y="-3799.072266" width="1.098633" height="1.098633"/>
<image xlink:href="tile15_0.png" preserveAspectRatio="none" x="14016.357422" y="-3800.170898" width="1.098633" height="1.098633"/>
</g>
</svg>
