<?xml version="1.0" encoding="UTF-8"?>
<svg  xmlns="http://www.w3.org/2000/svg" xmlns:xlink="http://www.w3.org/1999/xlink" xmlns:go="http://purl.org/svgmap/profile" viewBox="14000.776823 -3800.0 99.22317699999894 66.66666699999979" go:dataArea="14000.776823 -3800.0 99.22317699999894 66.66666699999979" >
<metadata>
 <rdf:RDF xmlns:rdf="http://www.w3.org/1999/02/22-rdf-syntax-ns#" xmlns:crs="http://opengis.org/xmldtds/transformations.dtd" xmlns:svg="http://www.w3.org/svg" >
  <rdf:Description>
   <crs:CoordinateReferenceSystem rdf:resource="http://purl.org/crs/84" svg:transform="matrix(100.0,0.0,0.0,-100.0,0.0,0.0)" />
  </rdf:Description>
 </rdf:RDF>
</metadata>
<globalCoordinateSystem srsName="http://purl.org/crs/84" transform="matrix(100.0,0.0,0.0,-100.0,0.0,0.0)" />
<g >
<image xlink:href="tile64_6.png" preserveAspectRatio="none" x="14070.19043" y="-3793.579102" width="1.098633" height="1.098633"/>
<image xlink:href="tile64_5.png" preserveAspectRatio="none" x="14070.19043" y="-3794.677734" width="1.098633" height="1.098633"/>
<image xlink:href="tile65_6.png" preserveAspectRatio="none" x="14071.289062" y="-3793.579102" width="1.098633" height="1.098633"/>
<image xlink:href="tile66_6.png" preserveAspectRatio="none" x="14072.387695" y="-3793.579102" width="1.098633" height="1.098633"/>
<image xlink:href="tile66_0.png" preserveAspectRatio="none" x="14072.387695" y="-3800.170898" width="1.098633" height="1.098633"/>
<image xlink:href="tile67_7.png" preserveAspectRatio="none" x="14073.486328" y="-3792.480469" width="1.098633" height="1.098633"/>
<image xlink:href="tile67_6.png" preserveAspectRatio="none" x="14073.486328" y="-3793.579102" width="1.098633" height="1.098633"/>
<image xlink:href="tile67_1.png" preserveAspectRatio="none" x="14073.486328" y="-3799.072266" width="1.098633" height="1.098633"/>
<image xlink:href="tile67_0.png" preserveAspectRatio="none" x="14073.486328" y="-3800.170898" width="1.098633" height="1.098633"/>
<image xlink:href="tile68_7.png" preserveAspectRatio="none" x="14074.584961" y="-3792.480469" width="1.098633" height="1.098633"/>
<image xlink:href="tile68_6.png" preserveAspectRatio="none" x="14074.584961" y="-3793.579102" width="1.098633" height="1.098633"/>
<image xlink:href="tile68_4.png" preserveAspectRatio="none" x="14074.584961" y="-3795.776367" width="1.098633" height="1.098633"/>
<image xlink:href="tile68_3.png" preserveAspectRatio="none" x="14074.584961" y="-3796.875" width="1.098633" height="1.098633"/>
<image xlink:href="tile68_2.png" preserveAspectRatio="none" x="14074.584961" y="-3797.973633" width="1.098633" height="1.098633"/>
<image xlink:href="tile68_1.png" preserveAspectRatio="none" x="14074.584961" y="-3799.072266" width="1.098633" height="1.098633"/>
<image xlink:href="tile68_0.png" preserveAspectRatio="none" x="14074.584961" y="-3800.170898" width="1.098633" height="1.098633"/>
<image xlink:href="tile69_8.png" preserveAspectRatio="none" x="14075.683594" y="-3791.381836" width="1.098633" height="1.098633"/>
<image xlink:href="tile69_7.png" preserveAspectRatio="none" x="14075.683594" y="-3792.480469" width="1.098633" height="1.098633"/>
<image xlink:href="tile69_6.png" preserveAspectRatio="none" x="14075.683594" y="-3793.579102" width="1.098633" height="1.098633"/>
<image xlink:href="tile69_5.png" preserveAspectRatio="none" x="14075.683594" y="-3794.677734" width="1.098633" height="1.098633"/>
<image xlink:href="tile69_4.png" preserveAspectRatio="none" x="14075.683594" y="-3795.776367" width="1.098633" height="1.098633"/>
<image xlink:href="tile69_3.png" preserveAspectRatio="none" x="14075.683594" y="-3796.875" width="1.098633" height="1.098633"/>
<image xlink:href="tile69_2.png" preserveAspectRatio="none" x="14075.683594" y="-3797.973633" width="1.098633" height="1.098633"/>
<image xlink:href="tile69_1.png" preserveAspectRatio="none" x="14075.683594" y="-3799.072266" width="1.098633" height="1.098633"/>
<image xlink:href="tile69_0.png" preserveAspectRatio="none" x="14075.683594" y="-3800.170898" width="1.098633" height="1.098633"/>
<image xlink:href="tile70_8.png" preserveAspectRatio="none" x="14076.782227" y="-3791.381836" width="1.098633" height="1.098633"/>
<image xlink:href="tile70_7.png" preserveAspectRatio="none" x="14076.782227" y="-3792.480469" width="1.098633" height="1.098633"/>
<image xlink:href="tile70_6.png" preserveAspectRatio="none" x="14076.782227" y="-3793.579102" width="1.098633" height="1.098633"/>
<image xlink:href="tile70_5.png" preserveAspectRatio="none" x="14076.782227" y="-3794.677734" width="1.098633" height="1.098633"/>
<image xlink:href="tile70_4.png" preserveAspectRatio="none" x="14076.782227" y="-3795.776367" width="1.098633" height="1.098633"/>
<image xlink:href="tile70_3.png" preserveAspectRatio="none" x="14076.782227" y="-3796.875" width="1.098633" height="1.098633"/>
<image xlink:href="tile70_2.png" preserveAspectRatio="none" x="14076.782227" y="-3797.973633" width="1.098633" height="1.098633"/>
<image xlink:href="tile70_1.png" preserveAspectRatio="none" x="14076.782227" y="-3799.072266" width="1.098633" height="1.098633"/>
<image xlink:href="tile70_0.png" preserveAspectRatio="none" x="14076.782227" y="-3800.170898" width="1.098633" height="1.098633"/>
<image xlink:href="tile71_8.png" preserveAspectRatio="none" x="14077.880859" y="-3791.381836" width="1.098633" height="1.098633"/>
<image xlink:href="tile71_7.png" preserveAspectRatio="none" x="14077.880859" y="-3792.480469" width="1.098633" height="1.098633"/>
<image xlink:href="tile71_6.png" preserveAspectRatio="none" x="14077.880859" y="-3793.579102" width="1.098633" height="1.098633"/>
<image xlink:href="tile71_5.png" preserveAspectRatio="none" x="14077.880859" y="-3794.677734" width="1.098633" height="1.098633"/>
<image xlink:href="tile71_4.png" preserveAspectRatio="none" x="14077.880859" y="-3795.776367" width="1.098633" height="1.098633"/>
<image xlink:href="tile71_3.png" preserveAspectRatio="none" x="14077.880859" y="-3796.875" width="1.098633" height="1.098633"/>
<image xlink:href="tile71_2.png" preserveAspectRatio="none" x="14077.880859" y="-3797.973633" width="1.098633" height="1.098633"/>
<image xlink:href="tile71_1.png" preserveAspectRatio="none" x="14077.880859" y="-3799.072266" width="1.098633" height="1.098633"/>
<image xlink:href="tile71_0.png" preserveAspectRatio="none" x="14077.880859" y="-3800.170898" width="1.098633" height="1.098633"/>
<image xlink:href="tile72_9.png" preserveAspectRatio="none" x="14078.979492" y="-3790.283203" width="1.098633" height="1.098633"/>
<image xlink:href="tile72_8.png" preserveAspectRatio="none" x="14078.979492" y="-3791.381836" width="1.098633" height="1.098633"/>
<image xlink:href="tile72_7.png" preserveAspectRatio="none" x="14078.979492" y="-3792.480469" width="1.098633" height="1.098633"/>
<image xlink:href="tile72_6.png" preserveAspectRatio="none" x="14078.979492" y="-3793.579102" width="1.098633" height="1.098633"/>
<image xlink:href="tile72_5.png" preserveAspectRatio="none" x="14078.979492" y="-3794.677734" width="1.098633" height="1.098633"/>
<image xlink:href="tile72_4.png" preserveAspectRatio="none" x="14078.979492" y="-3795.776367" width="1.098633" height="1.098633"/>
<image xlink:href="tile72_3.png" preserveAspectRatio="none" x="14078.979492" y="-3796.875" width="1.098633" height="1.098633"/>
<image xlink:href="tile72_2.png" preserveAspectRatio="none" x="14078.979492" y="-3797.973633" width="1.098633" height="1.098633"/>
<image xlink:href="tile72_1.png" preserveAspectRatio="none" x="14078.979492" y="-3799.072266" width="1.098633" height="1.098633"/>
<image xlink:href="tile72_0.png" preserveAspectRatio="none" x="14078.979492" y="-3800.170898" width="1.098633" height="1.098633"/>
<image xlink:href="tile73_11.png" preserveAspectRatio="none" x="14080.078125" y="-3788.085938" width="1.098633" height="1.098633"/>
<image xlink:href="tile73_10.png" preserveAspectRatio="none" x="14080.078125" y="-3789.18457" width="1.098633" height="1.098633"/>
<image xlink:href="tile73_9.png" preserveAspectRatio="none" x="14080.078125" y="-3790.283203" width="1.098633" height="1.098633"/>
<image xlink:href="tile73_8.png" preserveAspectRatio="none" x="14080.078125" y="-3791.381836" width="1.098633" height="1.098633"/>
<image xlink:href="tile73_7.png" preserveAspectRatio="none" x="14080.078125" y="-3792.480469" width="1.098633" height="1.098633"/>
<image xlink:href="tile73_6.png" preserveAspectRatio="none" x="14080.078125" y="-3793.579102" width="1.098633" height="1.098633"/>
<image xlink:href="tile73_5.png" preserveAspectRatio="none" x="14080.078125" y="-3794.677734" width="1.098633" height="1.098633"/>
<image xlink:href="tile73_4.png" preserveAspectRatio="none" x="14080.078125" y="-3795.776367" width="1.098633" height="1.098633"/>
<image xlink:href="tile73_3.png" preserveAspectRatio="none" x="14080.078125" y="-3796.875" width="1.098633" height="1.098633"/>
<image xlink:href="tile73_2.png" preserveAspectRatio="none" x="14080.078125" y="-3797.973633" width="1.098633" height="1.098633"/>
<image xlink:href="tile73_1.png" preserveAspectRatio="none" x="14080.078125" y="-3799.072266" width="1.098633" height="1.098633"/>
<image xlink:href="tile73_0.png" preserveAspectRatio="none" x="14080.078125" y="-3800.170898" width="1.098633" height="1.098633"/>
<image xlink:href="tile74_12.png" preserveAspectRatio="none" x="14081.176758" y="-3786.987305" width="1.098633" height="1.098633"/>
<image xlink:href="tile74_11.png" preserveAspectRatio="none" x="14081.176758" y="-3788.085938" width="1.098633" height="1.098633"/>
<image xlink:href="tile74_10.png" preserveAspectRatio="none" x="14081.176758" y="-3789.18457" width="1.098633" height="1.098633"/>
<image xlink:href="tile74_9.png" preserveAspectRatio="none" x="14081.176758" y="-3790.283203" width="1.098633" height="1.098633"/>
<image xlink:href="tile74_8.png" preserveAspectRatio="none" x="14081.176758" y="-3791.381836" width="1.098633" height="1.098633"/>
<image xlink:href="tile74_7.png" preserveAspectRatio="none" x="14081.176758" y="-3792.480469" width="1.098633" height="1.098633"/>
<image xlink:href="tile74_6.png" preserveAspectRatio="none" x="14081.176758" y="-3793.579102" width="1.098633" height="1.098633"/>
<image xlink:href="tile74_5.png" preserveAspectRatio="none" x="14081.176758" y="-3794.677734" width="1.098633" height="1.098633"/>
<image xlink:href="tile74_4.png" preserveAspectRatio="none" x="14081.176758" y="-3795.776367" width="1.098633" height="1.098633"/>
<image xlink:href="tile74_3.png" preserveAspectRatio="none" x="14081.176758" y="-3796.875" width="1.098633" height="1.098633"/>
<image xlink:href="tile74_2.png" preserveAspectRatio="none" x="14081.176758" y="-3797.973633" width="1.098633" height="1.098633"/>
<image xlink:href="tile74_1.png" preserveAspectRatio="none" x="14081.176758" y="-3799.072266" width="1.098633" height="1.098633"/>
<image xlink:href="tile74_0.png" preserveAspectRatio="none" x="14081.176758" y="-3800.170898" width="1.098633" height="1.098633"/>
<image xlink:href="tile75_12.png" preserveAspectRatio="none" x="14082.275391" y="-3786.987305" width="1.098633" height="1.098633"/>
<image xlink:href="tile75_11.png" preserveAspectRatio="none" x="14082.275391" y="-3788.085938" width="1.098633" height="1.098633"/>
<image xlink:href="tile75_10.png" preserveAspectRatio="none" x="14082.275391" y="-3789.18457" width="1.098633" height="1.098633"/>
<image xlink:href="tile75_9.png" preserveAspectRatio="none" x="14082.275391" y="-3790.283203" width="1.098633" height="1.098633"/>
<image xlink:href="tile75_8.png" preserveAspectRatio="none" x="14082.275391" y="-3791.381836" width="1.098633" height="1.098633"/>
<image xlink:href="tile75_7.png" preserveAspectRatio="none" x="14082.275391" y="-3792.480469" width="1.098633" height="1.098633"/>
<image xlink:href="tile75_6.png" preserveAspectRatio="none" x="14082.275391" y="-3793.579102" width="1.098633" height="1.098633"/>
<image xlink:href="tile75_5.png" preserveAspectRatio="none" x="14082.275391" y="-3794.677734" width="1.098633" height="1.098633"/>
<image xlink:href="tile75_4.png" preserveAspectRatio="none" x="14082.275391" y="-3795.776367" width="1.098633" height="1.098633"/>
<image xlink:href="tile75_3.png" preserveAspectRatio="none" x="14082.275391" y="-3796.875" width="1.098633" height="1.098633"/>
<image xlink:href="tile75_2.png" preserveAspectRatio="none" x="14082.275391" y="-3797.973633" width="1.098633" height="1.098633"/>
<image xlink:href="tile75_1.png" preserveAspectRatio="none" x="14082.275391" y="-3799.072266" width="1.098633" height="1.098633"/>
<image xlink:href="tile75_0.png" preserveAspectRatio="none" x="14082.275391" y="-3800.170898" width="1.098633" height="1.098633"/>
<image xlink:href="tile76_10.png" preserveAspectRatio="none" x="14083.374023" y="-3789.18457" width="1.098633" height="1.098633"/>
<image xlink:href="tile76_9.png" preserveAspectRatio="none" x="14083.374023" y="-3790.283203" width="1.098633" height="1.098633"/>
<image xlink:href="tile76_2.png" preserveAspectRatio="none" x="14083.374023" y="-3797.973633" width="1.098633" height="1.098633"/>
<image xlink:href="tile79_8.png" preserveAspectRatio="none" x="14086.669922" y="-3791.381836" width="1.098633" height="1.098633"/>
<image xlink:href="tile79_6.png" preserveAspectRatio="none" x="14086.669922" y="-3793.579102" width="1.098633" height="1.098633"/>
</g>
</svg>
