<?xml version="1.0" encoding="UTF-8"?>
<svg  xmlns="http://www.w3.org/2000/svg" xmlns:xlink="http://www.w3.org/1999/xlink" xmlns:go="http://purl.org/svgmap/profile" viewBox="14000.776823 -3800.0 99.22317699999894 66.66666699999979" go:dataArea="14000.776823 -3800.0 99.22317699999894 66.66666699999979" >
<metadata>
 <rdf:RDF xmlns:rdf="http://www.w3.org/1999/02/22-rdf-syntax-ns#" xmlns:crs="http://opengis.org/xmldtds/transformations.dtd" xmlns:svg="http://www.w3.org/svg" >
  <rdf:Description>
   <crs:CoordinateReferenceSystem rdf:resource="http://purl.org/crs/84" svg:transform="matrix(100.0,0.0,0.0,-100.0,0.0,0.0)" />
  </rdf:Description>
 </rdf:RDF>
</metadata>
<globalCoordinateSystem srsName="http://purl.org/crs/84" transform="matrix(100.0,0.0,0.0,-100.0,0.0,0.0)" />
<g >
<image xlink:href="tile35_44.png" preserveAspectRatio="none" x="14038.330078" y="-3751.831055" width="1.098633" height="1.098633"/>
<image xlink:href="tile36_44.png" preserveAspectRatio="none" x="14039.428711" y="-3751.831055" width="1.098633" height="1.098633"/>
<image xlink:href="tile36_43.png" preserveAspectRatio="none" x="14039.428711" y="-3752.929688" width="1.098633" height="1.098633"/>
<image xlink:href="tile37_44.png" preserveAspectRatio="none" x="14040.527344" y="-3751.831055" width="1.098633" height="1.098633"/>
<image xlink:href="tile37_43.png" preserveAspectRatio="none" x="14040.527344" y="-3752.929688" width="1.098633" height="1.098633"/>
<image xlink:href="tile38_44.png" preserveAspectRatio="none" x="14041.625977" y="-3751.831055" width="1.098633" height="1.098633"/>
<image xlink:href="tile38_43.png" preserveAspectRatio="none" x="14041.625977" y="-3752.929688" width="1.098633" height="1.098633"/>
<image xlink:href="tile38_41.png" preserveAspectRatio="none" x="14041.625977" y="-3755.126953" width="1.098633" height="1.098633"/>
<image xlink:href="tile38_40.png" preserveAspectRatio="none" x="14041.625977" y="-3756.225586" width="1.098633" height="1.098633"/>
<image xlink:href="tile38_39.png" preserveAspectRatio="none" x="14041.625977" y="-3757.324219" width="1.098633" height="1.098633"/>
<image xlink:href="tile38_38.png" preserveAspectRatio="none" x="14041.625977" y="-3758.422852" width="1.098633" height="1.098633"/>
<image xlink:href="tile39_41.png" preserveAspectRatio="none" x="14042.724609" y="-3755.126953" width="1.098633" height="1.098633"/>
<image xlink:href="tile39_40.png" preserveAspectRatio="none" x="14042.724609" y="-3756.225586" width="1.098633" height="1.098633"/>
<image xlink:href="tile39_39.png" preserveAspectRatio="none" x="14042.724609" y="-3757.324219" width="1.098633" height="1.098633"/>
<image xlink:href="tile39_38.png" preserveAspectRatio="none" x="14042.724609" y="-3758.422852" width="1.098633" height="1.098633"/>
<image xlink:href="tile40_40.png" preserveAspectRatio="none" x="14043.823242" y="-3756.225586" width="1.098633" height="1.098633"/>
<image xlink:href="tile40_39.png" preserveAspectRatio="none" x="14043.823242" y="-3757.324219" width="1.098633" height="1.098633"/>
<image xlink:href="tile40_38.png" preserveAspectRatio="none" x="14043.823242" y="-3758.422852" width="1.098633" height="1.098633"/>
<image xlink:href="tile40_37.png" preserveAspectRatio="none" x="14043.823242" y="-3759.521484" width="1.098633" height="1.098633"/>
<image xlink:href="tile41_38.png" preserveAspectRatio="none" x="14044.921875" y="-3758.422852" width="1.098633" height="1.098633"/>
<image xlink:href="tile41_37.png" preserveAspectRatio="none" x="14044.921875" y="-3759.521484" width="1.098633" height="1.098633"/>
<image xlink:href="tile41_36.png" preserveAspectRatio="none" x="14044.921875" y="-3760.620117" width="1.098633" height="1.098633"/>
<image xlink:href="tile42_37.png" preserveAspectRatio="none" x="14046.020508" y="-3759.521484" width="1.098633" height="1.098633"/>
<image xlink:href="tile42_36.png" preserveAspectRatio="none" x="14046.020508" y="-3760.620117" width="1.098633" height="1.098633"/>
<image xlink:href="tile42_35.png" preserveAspectRatio="none" x="14046.020508" y="-3761.71875" width="1.098633" height="1.098633"/>
<image xlink:href="tile43_37.png" preserveAspectRatio="none" x="14047.119141" y="-3759.521484" width="1.098633" height="1.098633"/>
<image xlink:href="tile43_36.png" preserveAspectRatio="none" x="14047.119141" y="-3760.620117" width="1.098633" height="1.098633"/>
<image xlink:href="tile44_38.png" preserveAspectRatio="none" x="14048.217773" y="-3758.422852" width="1.098633" height="1.098633"/>
<image xlink:href="tile44_37.png" preserveAspectRatio="none" x="14048.217773" y="-3759.521484" width="1.098633" height="1.098633"/>
<image xlink:href="tile45_37.png" preserveAspectRatio="none" x="14049.316406" y="-3759.521484" width="1.098633" height="1.098633"/>
<image xlink:href="tile45_36.png" preserveAspectRatio="none" x="14049.316406" y="-3760.620117" width="1.098633" height="1.098633"/>
</g>
</svg>
