<?xml version="1.0" encoding="UTF-8"?>
<svg  xmlns="http://www.w3.org/2000/svg" xmlns:xlink="http://www.w3.org/1999/xlink" xmlns:go="http://purl.org/svgmap/profile" viewBox="13800.0 -3666.666667 100.0 66.66666699999979" go:dataArea="13800.0 -3666.666667 100.0 66.66666699999979" >
<metadata>
 <rdf:RDF xmlns:rdf="http://www.w3.org/1999/02/22-rdf-syntax-ns#" xmlns:crs="http://opengis.org/xmldtds/transformations.dtd" xmlns:svg="http://www.w3.org/svg" >
  <rdf:Description>
   <crs:CoordinateReferenceSystem rdf:resource="http://purl.org/crs/84" svg:transform="matrix(100.0,0.0,0.0,-100.0,0.0,0.0)" />
  </rdf:Description>
 </rdf:RDF>
</metadata>
<globalCoordinateSystem srsName="http://purl.org/crs/84" transform="matrix(100.0,0.0,0.0,-100.0,0.0,0.0)" />
<g >
<image xlink:href="tile0_11.png" preserveAspectRatio="none" x="13798.828125" y="-3621.09375" width="4.394531" height="4.394531"/>
<image xlink:href="tile6_1.png" preserveAspectRatio="none" x="13825.195312" y="-3665.039062" width="4.394531" height="4.394531"/>
<image xlink:href="tile6_0.png" preserveAspectRatio="none" x="13825.195312" y="-3669.433594" width="4.394531" height="4.394531"/>
<image xlink:href="tile7_1.png" preserveAspectRatio="none" x="13829.589844" y="-3665.039062" width="4.394531" height="4.394531"/>
<image xlink:href="tile7_0.png" preserveAspectRatio="none" x="13829.589844" y="-3669.433594" width="4.394531" height="4.394531"/>
<image xlink:href="tile8_1.png" preserveAspectRatio="none" x="13833.984375" y="-3665.039062" width="4.394531" height="4.394531"/>
<image xlink:href="tile9_5.png" preserveAspectRatio="none" x="13838.378906" y="-3647.460938" width="4.394531" height="4.394531"/>
<image xlink:href="tile9_4.png" preserveAspectRatio="none" x="13838.378906" y="-3651.855469" width="4.394531" height="4.394531"/>
<image xlink:href="tile10_5.png" preserveAspectRatio="none" x="13842.773438" y="-3647.460938" width="4.394531" height="4.394531"/>
<image xlink:href="tile10_4.png" preserveAspectRatio="none" x="13842.773438" y="-3651.855469" width="4.394531" height="4.394531"/>
<image xlink:href="tile10_2.png" preserveAspectRatio="none" x="13842.773438" y="-3660.644531" width="4.394531" height="4.394531"/>
<image xlink:href="tile11_5.png" preserveAspectRatio="none" x="13847.167969" y="-3647.460938" width="4.394531" height="4.394531"/>
<image xlink:href="tile11_4.png" preserveAspectRatio="none" x="13847.167969" y="-3651.855469" width="4.394531" height="4.394531"/>
<image xlink:href="tile11_3.png" preserveAspectRatio="none" x="13847.167969" y="-3656.25" width="4.394531" height="4.394531"/>
<image xlink:href="tile11_2.png" preserveAspectRatio="none" x="13847.167969" y="-3660.644531" width="4.394531" height="4.394531"/>
<image xlink:href="tile11_1.png" preserveAspectRatio="none" x="13847.167969" y="-3665.039062" width="4.394531" height="4.394531"/>
<image xlink:href="tile12_4.png" preserveAspectRatio="none" x="13851.5625" y="-3651.855469" width="4.394531" height="4.394531"/>
<image xlink:href="tile12_3.png" preserveAspectRatio="none" x="13851.5625" y="-3656.25" width="4.394531" height="4.394531"/>
<image xlink:href="tile12_2.png" preserveAspectRatio="none" x="13851.5625" y="-3660.644531" width="4.394531" height="4.394531"/>
<image xlink:href="tile12_1.png" preserveAspectRatio="none" x="13851.5625" y="-3665.039062" width="4.394531" height="4.394531"/>
<image xlink:href="tile12_0.png" preserveAspectRatio="none" x="13851.5625" y="-3669.433594" width="4.394531" height="4.394531"/>
<image xlink:href="tile13_6.png" preserveAspectRatio="none" x="13855.957031" y="-3643.066406" width="4.394531" height="4.394531"/>
<image xlink:href="tile13_5.png" preserveAspectRatio="none" x="13855.957031" y="-3647.460938" width="4.394531" height="4.394531"/>
<image xlink:href="tile13_4.png" preserveAspectRatio="none" x="13855.957031" y="-3651.855469" width="4.394531" height="4.394531"/>
<image xlink:href="tile13_3.png" preserveAspectRatio="none" x="13855.957031" y="-3656.25" width="4.394531" height="4.394531"/>
<image xlink:href="tile13_2.png" preserveAspectRatio="none" x="13855.957031" y="-3660.644531" width="4.394531" height="4.394531"/>
<image xlink:href="tile13_1.png" preserveAspectRatio="none" x="13855.957031" y="-3665.039062" width="4.394531" height="4.394531"/>
<image xlink:href="tile13_0.png" preserveAspectRatio="none" x="13855.957031" y="-3669.433594" width="4.394531" height="4.394531"/>
<image xlink:href="tile14_12.png" preserveAspectRatio="none" x="13860.351562" y="-3616.699219" width="4.394531" height="4.394531"/>
<image xlink:href="tile14_11.png" preserveAspectRatio="none" x="13860.351562" y="-3621.09375" width="4.394531" height="4.394531"/>
<image xlink:href="tile14_10.png" preserveAspectRatio="none" x="13860.351562" y="-3625.488281" width="4.394531" height="4.394531"/>
<image xlink:href="tile14_9.png" preserveAspectRatio="none" x="13860.351562" y="-3629.882812" width="4.394531" height="4.394531"/>
<image xlink:href="tile14_5.png" preserveAspectRatio="none" x="13860.351562" y="-3647.460938" width="4.394531" height="4.394531"/>
<image xlink:href="tile14_4.png" preserveAspectRatio="none" x="13860.351562" y="-3651.855469" width="4.394531" height="4.394531"/>
<image xlink:href="tile14_3.png" preserveAspectRatio="none" x="13860.351562" y="-3656.25" width="4.394531" height="4.394531"/>
<image xlink:href="tile14_2.png" preserveAspectRatio="none" x="13860.351562" y="-3660.644531" width="4.394531" height="4.394531"/>
<image xlink:href="tile14_1.png" preserveAspectRatio="none" x="13860.351562" y="-3665.039062" width="4.394531" height="4.394531"/>
<image xlink:href="tile14_0.png" preserveAspectRatio="none" x="13860.351562" y="-3669.433594" width="4.394531" height="4.394531"/>
<image xlink:href="tile15_14.png" preserveAspectRatio="none" x="13864.746094" y="-3607.910156" width="4.394531" height="4.394531"/>
<image xlink:href="tile15_13.png" preserveAspectRatio="none" x="13864.746094" y="-3612.304688" width="4.394531" height="4.394531"/>
<image xlink:href="tile15_12.png" preserveAspectRatio="none" x="13864.746094" y="-3616.699219" width="4.394531" height="4.394531"/>
<image xlink:href="tile15_11.png" preserveAspectRatio="none" x="13864.746094" y="-3621.09375" width="4.394531" height="4.394531"/>
<image xlink:href="tile15_10.png" preserveAspectRatio="none" x="13864.746094" y="-3625.488281" width="4.394531" height="4.394531"/>
<image xlink:href="tile15_9.png" preserveAspectRatio="none" x="13864.746094" y="-3629.882812" width="4.394531" height="4.394531"/>
<image xlink:href="tile15_8.png" preserveAspectRatio="none" x="13864.746094" y="-3634.277344" width="4.394531" height="4.394531"/>
<image xlink:href="tile15_7.png" preserveAspectRatio="none" x="13864.746094" y="-3638.671875" width="4.394531" height="4.394531"/>
<image xlink:href="tile15_6.png" preserveAspectRatio="none" x="13864.746094" y="-3643.066406" width="4.394531" height="4.394531"/>
<image xlink:href="tile15_5.png" preserveAspectRatio="none" x="13864.746094" y="-3647.460938" width="4.394531" height="4.394531"/>
<image xlink:href="tile15_4.png" preserveAspectRatio="none" x="13864.746094" y="-3651.855469" width="4.394531" height="4.394531"/>
<image xlink:href="tile15_3.png" preserveAspectRatio="none" x="13864.746094" y="-3656.25" width="4.394531" height="4.394531"/>
<image xlink:href="tile15_2.png" preserveAspectRatio="none" x="13864.746094" y="-3660.644531" width="4.394531" height="4.394531"/>
<image xlink:href="tile15_1.png" preserveAspectRatio="none" x="13864.746094" y="-3665.039062" width="4.394531" height="4.394531"/>
<image xlink:href="tile15_0.png" preserveAspectRatio="none" x="13864.746094" y="-3669.433594" width="4.394531" height="4.394531"/>
</g>
</svg>
