<?xml version="1.0" encoding="UTF-8"?>
<svg  xmlns="http://www.w3.org/2000/svg" xmlns:xlink="http://www.w3.org/1999/xlink" xmlns:go="http://purl.org/svgmap/profile" viewBox="13900.0 -3733.333333 100.0 66.66666600000042" go:dataArea="13900.0 -3733.333333 100.0 66.66666600000042" >
<metadata>
 <rdf:RDF xmlns:rdf="http://www.w3.org/1999/02/22-rdf-syntax-ns#" xmlns:crs="http://opengis.org/xmldtds/transformations.dtd" xmlns:svg="http://www.w3.org/svg" >
  <rdf:Description>
   <crs:CoordinateReferenceSystem rdf:resource="http://purl.org/crs/84" svg:transform="matrix(100.0,0.0,0.0,-100.0,0.0,0.0)" />
  </rdf:Description>
 </rdf:RDF>
</metadata>
<globalCoordinateSystem srsName="http://purl.org/crs/84" transform="matrix(100.0,0.0,0.0,-100.0,0.0,0.0)" />
<g >
<image xlink:href="tile64_58.png" preserveAspectRatio="none" x="13970.214844" y="-3670.532227" width="1.098633" height="1.098633"/>
<image xlink:href="tile64_57.png" preserveAspectRatio="none" x="13970.214844" y="-3671.630859" width="1.098633" height="1.098633"/>
<image xlink:href="tile65_58.png" preserveAspectRatio="none" x="13971.313477" y="-3670.532227" width="1.098633" height="1.098633"/>
<image xlink:href="tile66_59.png" preserveAspectRatio="none" x="13972.412109" y="-3669.433594" width="1.098633" height="1.098633"/>
<image xlink:href="tile66_58.png" preserveAspectRatio="none" x="13972.412109" y="-3670.532227" width="1.098633" height="1.098633"/>
<image xlink:href="tile67_60.png" preserveAspectRatio="none" x="13973.510742" y="-3668.334961" width="1.098633" height="1.098633"/>
<image xlink:href="tile67_59.png" preserveAspectRatio="none" x="13973.510742" y="-3669.433594" width="1.098633" height="1.098633"/>
<image xlink:href="tile68_61.png" preserveAspectRatio="none" x="13974.609375" y="-3667.236328" width="1.098633" height="1.098633"/>
<image xlink:href="tile68_60.png" preserveAspectRatio="none" x="13974.609375" y="-3668.334961" width="1.098633" height="1.098633"/>
<image xlink:href="tile68_59.png" preserveAspectRatio="none" x="13974.609375" y="-3669.433594" width="1.098633" height="1.098633"/>
<image xlink:href="tile69_61.png" preserveAspectRatio="none" x="13975.708008" y="-3667.236328" width="1.098633" height="1.098633"/>
<image xlink:href="tile69_60.png" preserveAspectRatio="none" x="13975.708008" y="-3668.334961" width="1.098633" height="1.098633"/>
<image xlink:href="tile70_61.png" preserveAspectRatio="none" x="13976.806641" y="-3667.236328" width="1.098633" height="1.098633"/>
<image xlink:href="tile73_61.png" preserveAspectRatio="none" x="13980.102539" y="-3667.236328" width="1.098633" height="1.098633"/>
<image xlink:href="tile73_47.png" preserveAspectRatio="none" x="13980.102539" y="-3682.617188" width="1.098633" height="1.098633"/>
<image xlink:href="tile74_61.png" preserveAspectRatio="none" x="13981.201172" y="-3667.236328" width="1.098633" height="1.098633"/>
<image xlink:href="tile74_48.png" preserveAspectRatio="none" x="13981.201172" y="-3681.518555" width="1.098633" height="1.098633"/>
<image xlink:href="tile74_47.png" preserveAspectRatio="none" x="13981.201172" y="-3682.617188" width="1.098633" height="1.098633"/>
<image xlink:href="tile75_61.png" preserveAspectRatio="none" x="13982.299805" y="-3667.236328" width="1.098633" height="1.098633"/>
<image xlink:href="tile75_60.png" preserveAspectRatio="none" x="13982.299805" y="-3668.334961" width="1.098633" height="1.098633"/>
<image xlink:href="tile75_49.png" preserveAspectRatio="none" x="13982.299805" y="-3680.419922" width="1.098633" height="1.098633"/>
<image xlink:href="tile75_48.png" preserveAspectRatio="none" x="13982.299805" y="-3681.518555" width="1.098633" height="1.098633"/>
<image xlink:href="tile76_61.png" preserveAspectRatio="none" x="13983.398438" y="-3667.236328" width="1.098633" height="1.098633"/>
<image xlink:href="tile76_49.png" preserveAspectRatio="none" x="13983.398438" y="-3680.419922" width="1.098633" height="1.098633"/>
<image xlink:href="tile76_48.png" preserveAspectRatio="none" x="13983.398438" y="-3681.518555" width="1.098633" height="1.098633"/>
<image xlink:href="tile76_47.png" preserveAspectRatio="none" x="13983.398438" y="-3682.617188" width="1.098633" height="1.098633"/>
<image xlink:href="tile76_46.png" preserveAspectRatio="none" x="13983.398438" y="-3683.71582" width="1.098633" height="1.098633"/>
<image xlink:href="tile77_56.png" preserveAspectRatio="none" x="13984.49707" y="-3672.729492" width="1.098633" height="1.098633"/>
<image xlink:href="tile77_55.png" preserveAspectRatio="none" x="13984.49707" y="-3673.828125" width="1.098633" height="1.098633"/>
<image xlink:href="tile77_53.png" preserveAspectRatio="none" x="13984.49707" y="-3676.025391" width="1.098633" height="1.098633"/>
<image xlink:href="tile77_52.png" preserveAspectRatio="none" x="13984.49707" y="-3677.124023" width="1.098633" height="1.098633"/>
<image xlink:href="tile77_51.png" preserveAspectRatio="none" x="13984.49707" y="-3678.222656" width="1.098633" height="1.098633"/>
<image xlink:href="tile77_50.png" preserveAspectRatio="none" x="13984.49707" y="-3679.321289" width="1.098633" height="1.098633"/>
<image xlink:href="tile77_49.png" preserveAspectRatio="none" x="13984.49707" y="-3680.419922" width="1.098633" height="1.098633"/>
<image xlink:href="tile77_47.png" preserveAspectRatio="none" x="13984.49707" y="-3682.617188" width="1.098633" height="1.098633"/>
<image xlink:href="tile78_56.png" preserveAspectRatio="none" x="13985.595703" y="-3672.729492" width="1.098633" height="1.098633"/>
<image xlink:href="tile78_55.png" preserveAspectRatio="none" x="13985.595703" y="-3673.828125" width="1.098633" height="1.098633"/>
<image xlink:href="tile78_54.png" preserveAspectRatio="none" x="13985.595703" y="-3674.926758" width="1.098633" height="1.098633"/>
<image xlink:href="tile78_53.png" preserveAspectRatio="none" x="13985.595703" y="-3676.025391" width="1.098633" height="1.098633"/>
<image xlink:href="tile78_52.png" preserveAspectRatio="none" x="13985.595703" y="-3677.124023" width="1.098633" height="1.098633"/>
<image xlink:href="tile78_51.png" preserveAspectRatio="none" x="13985.595703" y="-3678.222656" width="1.098633" height="1.098633"/>
<image xlink:href="tile78_50.png" preserveAspectRatio="none" x="13985.595703" y="-3679.321289" width="1.098633" height="1.098633"/>
<image xlink:href="tile79_56.png" preserveAspectRatio="none" x="13986.694336" y="-3672.729492" width="1.098633" height="1.098633"/>
<image xlink:href="tile79_55.png" preserveAspectRatio="none" x="13986.694336" y="-3673.828125" width="1.098633" height="1.098633"/>
<image xlink:href="tile79_54.png" preserveAspectRatio="none" x="13986.694336" y="-3674.926758" width="1.098633" height="1.098633"/>
<image xlink:href="tile79_53.png" preserveAspectRatio="none" x="13986.694336" y="-3676.025391" width="1.098633" height="1.098633"/>
<image xlink:href="tile79_52.png" preserveAspectRatio="none" x="13986.694336" y="-3677.124023" width="1.098633" height="1.098633"/>
<image xlink:href="tile79_51.png" preserveAspectRatio="none" x="13986.694336" y="-3678.222656" width="1.098633" height="1.098633"/>
</g>
</svg>
