<?xml version="1.0" encoding="UTF-8"?>
<svg  xmlns="http://www.w3.org/2000/svg" xmlns:xlink="http://www.w3.org/1999/xlink" xmlns:go="http://purl.org/svgmap/profile" viewBox="13600.0 -3533.3333333 100.0 66.6666665000001" go:dataArea="13600.0 -3533.3333333 100.0 66.6666665000001" >
<metadata>
 <rdf:RDF xmlns:rdf="http://www.w3.org/1999/02/22-rdf-syntax-ns#" xmlns:crs="http://opengis.org/xmldtds/transformations.dtd" xmlns:svg="http://www.w3.org/svg" >
  <rdf:Description>
   <crs:CoordinateReferenceSystem rdf:resource="http://purl.org/crs/84" svg:transform="matrix(100.0,0.0,0.0,-100.0,0.0,0.0)" />
  </rdf:Description>
 </rdf:RDF>
</metadata>
<globalCoordinateSystem srsName="http://purl.org/crs/84" transform="matrix(100.0,0.0,0.0,-100.0,0.0,0.0)" />
<g >
<image xlink:href="tile48_29.png" preserveAspectRatio="none" x="13652.709961" y="-3502.441406" width="1.098633" height="1.098633"/>
<image xlink:href="tile48_28.png" preserveAspectRatio="none" x="13652.709961" y="-3503.540039" width="1.098633" height="1.098633"/>
<image xlink:href="tile48_26.png" preserveAspectRatio="none" x="13652.709961" y="-3505.737305" width="1.098633" height="1.098633"/>
<image xlink:href="tile48_25.png" preserveAspectRatio="none" x="13652.709961" y="-3506.835938" width="1.098633" height="1.098633"/>
<image xlink:href="tile48_21.png" preserveAspectRatio="none" x="13652.709961" y="-3511.230469" width="1.098633" height="1.098633"/>
<image xlink:href="tile48_20.png" preserveAspectRatio="none" x="13652.709961" y="-3512.329102" width="1.098633" height="1.098633"/>
<image xlink:href="tile48_19.png" preserveAspectRatio="none" x="13652.709961" y="-3513.427734" width="1.098633" height="1.098633"/>
<image xlink:href="tile48_18.png" preserveAspectRatio="none" x="13652.709961" y="-3514.526367" width="1.098633" height="1.098633"/>
<image xlink:href="tile49_29.png" preserveAspectRatio="none" x="13653.808594" y="-3502.441406" width="1.098633" height="1.098633"/>
<image xlink:href="tile49_28.png" preserveAspectRatio="none" x="13653.808594" y="-3503.540039" width="1.098633" height="1.098633"/>
<image xlink:href="tile49_26.png" preserveAspectRatio="none" x="13653.808594" y="-3505.737305" width="1.098633" height="1.098633"/>
<image xlink:href="tile49_25.png" preserveAspectRatio="none" x="13653.808594" y="-3506.835938" width="1.098633" height="1.098633"/>
<image xlink:href="tile49_23.png" preserveAspectRatio="none" x="13653.808594" y="-3509.033203" width="1.098633" height="1.098633"/>
<image xlink:href="tile49_22.png" preserveAspectRatio="none" x="13653.808594" y="-3510.131836" width="1.098633" height="1.098633"/>
<image xlink:href="tile49_21.png" preserveAspectRatio="none" x="13653.808594" y="-3511.230469" width="1.098633" height="1.098633"/>
<image xlink:href="tile49_20.png" preserveAspectRatio="none" x="13653.808594" y="-3512.329102" width="1.098633" height="1.098633"/>
<image xlink:href="tile49_19.png" preserveAspectRatio="none" x="13653.808594" y="-3513.427734" width="1.098633" height="1.098633"/>
<image xlink:href="tile50_29.png" preserveAspectRatio="none" x="13654.907227" y="-3502.441406" width="1.098633" height="1.098633"/>
<image xlink:href="tile50_28.png" preserveAspectRatio="none" x="13654.907227" y="-3503.540039" width="1.098633" height="1.098633"/>
<image xlink:href="tile50_26.png" preserveAspectRatio="none" x="13654.907227" y="-3505.737305" width="1.098633" height="1.098633"/>
<image xlink:href="tile50_25.png" preserveAspectRatio="none" x="13654.907227" y="-3506.835938" width="1.098633" height="1.098633"/>
<image xlink:href="tile50_24.png" preserveAspectRatio="none" x="13654.907227" y="-3507.93457" width="1.098633" height="1.098633"/>
<image xlink:href="tile50_23.png" preserveAspectRatio="none" x="13654.907227" y="-3509.033203" width="1.098633" height="1.098633"/>
<image xlink:href="tile50_22.png" preserveAspectRatio="none" x="13654.907227" y="-3510.131836" width="1.098633" height="1.098633"/>
<image xlink:href="tile50_21.png" preserveAspectRatio="none" x="13654.907227" y="-3511.230469" width="1.098633" height="1.098633"/>
<image xlink:href="tile50_20.png" preserveAspectRatio="none" x="13654.907227" y="-3512.329102" width="1.098633" height="1.098633"/>
<image xlink:href="tile51_29.png" preserveAspectRatio="none" x="13656.005859" y="-3502.441406" width="1.098633" height="1.098633"/>
<image xlink:href="tile51_28.png" preserveAspectRatio="none" x="13656.005859" y="-3503.540039" width="1.098633" height="1.098633"/>
<image xlink:href="tile51_27.png" preserveAspectRatio="none" x="13656.005859" y="-3504.638672" width="1.098633" height="1.098633"/>
<image xlink:href="tile51_26.png" preserveAspectRatio="none" x="13656.005859" y="-3505.737305" width="1.098633" height="1.098633"/>
<image xlink:href="tile51_25.png" preserveAspectRatio="none" x="13656.005859" y="-3506.835938" width="1.098633" height="1.098633"/>
<image xlink:href="tile51_24.png" preserveAspectRatio="none" x="13656.005859" y="-3507.93457" width="1.098633" height="1.098633"/>
<image xlink:href="tile51_23.png" preserveAspectRatio="none" x="13656.005859" y="-3509.033203" width="1.098633" height="1.098633"/>
<image xlink:href="tile51_22.png" preserveAspectRatio="none" x="13656.005859" y="-3510.131836" width="1.098633" height="1.098633"/>
<image xlink:href="tile52_29.png" preserveAspectRatio="none" x="13657.104492" y="-3502.441406" width="1.098633" height="1.098633"/>
<image xlink:href="tile52_28.png" preserveAspectRatio="none" x="13657.104492" y="-3503.540039" width="1.098633" height="1.098633"/>
<image xlink:href="tile52_27.png" preserveAspectRatio="none" x="13657.104492" y="-3504.638672" width="1.098633" height="1.098633"/>
<image xlink:href="tile52_26.png" preserveAspectRatio="none" x="13657.104492" y="-3505.737305" width="1.098633" height="1.098633"/>
<image xlink:href="tile52_25.png" preserveAspectRatio="none" x="13657.104492" y="-3506.835938" width="1.098633" height="1.098633"/>
<image xlink:href="tile52_24.png" preserveAspectRatio="none" x="13657.104492" y="-3507.93457" width="1.098633" height="1.098633"/>
<image xlink:href="tile52_23.png" preserveAspectRatio="none" x="13657.104492" y="-3509.033203" width="1.098633" height="1.098633"/>
<image xlink:href="tile53_28.png" preserveAspectRatio="none" x="13658.203125" y="-3503.540039" width="1.098633" height="1.098633"/>
<image xlink:href="tile53_27.png" preserveAspectRatio="none" x="13658.203125" y="-3504.638672" width="1.098633" height="1.098633"/>
<image xlink:href="tile53_26.png" preserveAspectRatio="none" x="13658.203125" y="-3505.737305" width="1.098633" height="1.098633"/>
<image xlink:href="tile53_25.png" preserveAspectRatio="none" x="13658.203125" y="-3506.835938" width="1.098633" height="1.098633"/>
<image xlink:href="tile53_24.png" preserveAspectRatio="none" x="13658.203125" y="-3507.93457" width="1.098633" height="1.098633"/>
<image xlink:href="tile54_29.png" preserveAspectRatio="none" x="13659.301758" y="-3502.441406" width="1.098633" height="1.098633"/>
<image xlink:href="tile54_28.png" preserveAspectRatio="none" x="13659.301758" y="-3503.540039" width="1.098633" height="1.098633"/>
<image xlink:href="tile54_27.png" preserveAspectRatio="none" x="13659.301758" y="-3504.638672" width="1.098633" height="1.098633"/>
<image xlink:href="tile54_26.png" preserveAspectRatio="none" x="13659.301758" y="-3505.737305" width="1.098633" height="1.098633"/>
<image xlink:href="tile54_25.png" preserveAspectRatio="none" x="13659.301758" y="-3506.835938" width="1.098633" height="1.098633"/>
<image xlink:href="tile54_24.png" preserveAspectRatio="none" x="13659.301758" y="-3507.93457" width="1.098633" height="1.098633"/>
<image xlink:href="tile55_28.png" preserveAspectRatio="none" x="13660.400391" y="-3503.540039" width="1.098633" height="1.098633"/>
<image xlink:href="tile55_27.png" preserveAspectRatio="none" x="13660.400391" y="-3504.638672" width="1.098633" height="1.098633"/>
<image xlink:href="tile55_26.png" preserveAspectRatio="none" x="13660.400391" y="-3505.737305" width="1.098633" height="1.098633"/>
<image xlink:href="tile55_25.png" preserveAspectRatio="none" x="13660.400391" y="-3506.835938" width="1.098633" height="1.098633"/>
<image xlink:href="tile55_24.png" preserveAspectRatio="none" x="13660.400391" y="-3507.93457" width="1.098633" height="1.098633"/>
<image xlink:href="tile56_28.png" preserveAspectRatio="none" x="13661.499023" y="-3503.540039" width="1.098633" height="1.098633"/>
<image xlink:href="tile56_27.png" preserveAspectRatio="none" x="13661.499023" y="-3504.638672" width="1.098633" height="1.098633"/>
<image xlink:href="tile56_26.png" preserveAspectRatio="none" x="13661.499023" y="-3505.737305" width="1.098633" height="1.098633"/>
<image xlink:href="tile56_25.png" preserveAspectRatio="none" x="13661.499023" y="-3506.835938" width="1.098633" height="1.098633"/>
<image xlink:href="tile56_24.png" preserveAspectRatio="none" x="13661.499023" y="-3507.93457" width="1.098633" height="1.098633"/>
<image xlink:href="tile56_23.png" preserveAspectRatio="none" x="13661.499023" y="-3509.033203" width="1.098633" height="1.098633"/>
<image xlink:href="tile56_16.png" preserveAspectRatio="none" x="13661.499023" y="-3516.723633" width="1.098633" height="1.098633"/>
<image xlink:href="tile56_15.png" preserveAspectRatio="none" x="13661.499023" y="-3517.822266" width="1.098633" height="1.098633"/>
<image xlink:href="tile56_14.png" preserveAspectRatio="none" x="13661.499023" y="-3518.920898" width="1.098633" height="1.098633"/>
<image xlink:href="tile57_29.png" preserveAspectRatio="none" x="13662.597656" y="-3502.441406" width="1.098633" height="1.098633"/>
<image xlink:href="tile57_28.png" preserveAspectRatio="none" x="13662.597656" y="-3503.540039" width="1.098633" height="1.098633"/>
<image xlink:href="tile57_26.png" preserveAspectRatio="none" x="13662.597656" y="-3505.737305" width="1.098633" height="1.098633"/>
<image xlink:href="tile57_25.png" preserveAspectRatio="none" x="13662.597656" y="-3506.835938" width="1.098633" height="1.098633"/>
<image xlink:href="tile57_24.png" preserveAspectRatio="none" x="13662.597656" y="-3507.93457" width="1.098633" height="1.098633"/>
<image xlink:href="tile57_17.png" preserveAspectRatio="none" x="13662.597656" y="-3515.625" width="1.098633" height="1.098633"/>
<image xlink:href="tile57_16.png" preserveAspectRatio="none" x="13662.597656" y="-3516.723633" width="1.098633" height="1.098633"/>
<image xlink:href="tile57_15.png" preserveAspectRatio="none" x="13662.597656" y="-3517.822266" width="1.098633" height="1.098633"/>
<image xlink:href="tile57_14.png" preserveAspectRatio="none" x="13662.597656" y="-3518.920898" width="1.098633" height="1.098633"/>
<image xlink:href="tile58_29.png" preserveAspectRatio="none" x="13663.696289" y="-3502.441406" width="1.098633" height="1.098633"/>
<image xlink:href="tile58_28.png" preserveAspectRatio="none" x="13663.696289" y="-3503.540039" width="1.098633" height="1.098633"/>
<image xlink:href="tile58_26.png" preserveAspectRatio="none" x="13663.696289" y="-3505.737305" width="1.098633" height="1.098633"/>
<image xlink:href="tile58_25.png" preserveAspectRatio="none" x="13663.696289" y="-3506.835938" width="1.098633" height="1.098633"/>
<image xlink:href="tile58_20.png" preserveAspectRatio="none" x="13663.696289" y="-3512.329102" width="1.098633" height="1.098633"/>
<image xlink:href="tile58_19.png" preserveAspectRatio="none" x="13663.696289" y="-3513.427734" width="1.098633" height="1.098633"/>
<image xlink:href="tile58_18.png" preserveAspectRatio="none" x="13663.696289" y="-3514.526367" width="1.098633" height="1.098633"/>
<image xlink:href="tile58_17.png" preserveAspectRatio="none" x="13663.696289" y="-3515.625" width="1.098633" height="1.098633"/>
<image xlink:href="tile58_16.png" preserveAspectRatio="none" x="13663.696289" y="-3516.723633" width="1.098633" height="1.098633"/>
<image xlink:href="tile58_15.png" preserveAspectRatio="none" x="13663.696289" y="-3517.822266" width="1.098633" height="1.098633"/>
<image xlink:href="tile58_14.png" preserveAspectRatio="none" x="13663.696289" y="-3518.920898" width="1.098633" height="1.098633"/>
<image xlink:href="tile59_29.png" preserveAspectRatio="none" x="13664.794922" y="-3502.441406" width="1.098633" height="1.098633"/>
<image xlink:href="tile59_28.png" preserveAspectRatio="none" x="13664.794922" y="-3503.540039" width="1.098633" height="1.098633"/>
<image xlink:href="tile59_26.png" preserveAspectRatio="none" x="13664.794922" y="-3505.737305" width="1.098633" height="1.098633"/>
<image xlink:href="tile59_25.png" preserveAspectRatio="none" x="13664.794922" y="-3506.835938" width="1.098633" height="1.098633"/>
<image xlink:href="tile59_21.png" preserveAspectRatio="none" x="13664.794922" y="-3511.230469" width="1.098633" height="1.098633"/>
<image xlink:href="tile59_20.png" preserveAspectRatio="none" x="13664.794922" y="-3512.329102" width="1.098633" height="1.098633"/>
<image xlink:href="tile59_19.png" preserveAspectRatio="none" x="13664.794922" y="-3513.427734" width="1.098633" height="1.098633"/>
<image xlink:href="tile59_18.png" preserveAspectRatio="none" x="13664.794922" y="-3514.526367" width="1.098633" height="1.098633"/>
<image xlink:href="tile59_17.png" preserveAspectRatio="none" x="13664.794922" y="-3515.625" width="1.098633" height="1.098633"/>
<image xlink:href="tile59_16.png" preserveAspectRatio="none" x="13664.794922" y="-3516.723633" width="1.098633" height="1.098633"/>
<image xlink:href="tile59_15.png" preserveAspectRatio="none" x="13664.794922" y="-3517.822266" width="1.098633" height="1.098633"/>
<image xlink:href="tile59_14.png" preserveAspectRatio="none" x="13664.794922" y="-3518.920898" width="1.098633" height="1.098633"/>
<image xlink:href="tile60_29.png" preserveAspectRatio="none" x="13665.893555" y="-3502.441406" width="1.098633" height="1.098633"/>
<image xlink:href="tile60_28.png" preserveAspectRatio="none" x="13665.893555" y="-3503.540039" width="1.098633" height="1.098633"/>
<image xlink:href="tile60_27.png" preserveAspectRatio="none" x="13665.893555" y="-3504.638672" width="1.098633" height="1.098633"/>
<image xlink:href="tile60_26.png" preserveAspectRatio="none" x="13665.893555" y="-3505.737305" width="1.098633" height="1.098633"/>
<image xlink:href="tile60_25.png" preserveAspectRatio="none" x="13665.893555" y="-3506.835938" width="1.098633" height="1.098633"/>
<image xlink:href="tile60_22.png" preserveAspectRatio="none" x="13665.893555" y="-3510.131836" width="1.098633" height="1.098633"/>
<image xlink:href="tile60_21.png" preserveAspectRatio="none" x="13665.893555" y="-3511.230469" width="1.098633" height="1.098633"/>
<image xlink:href="tile60_20.png" preserveAspectRatio="none" x="13665.893555" y="-3512.329102" width="1.098633" height="1.098633"/>
<image xlink:href="tile60_19.png" preserveAspectRatio="none" x="13665.893555" y="-3513.427734" width="1.098633" height="1.098633"/>
<image xlink:href="tile60_18.png" preserveAspectRatio="none" x="13665.893555" y="-3514.526367" width="1.098633" height="1.098633"/>
<image xlink:href="tile60_17.png" preserveAspectRatio="none" x="13665.893555" y="-3515.625" width="1.098633" height="1.098633"/>
<image xlink:href="tile60_16.png" preserveAspectRatio="none" x="13665.893555" y="-3516.723633" width="1.098633" height="1.098633"/>
<image xlink:href="tile60_15.png" preserveAspectRatio="none" x="13665.893555" y="-3517.822266" width="1.098633" height="1.098633"/>
<image xlink:href="tile60_14.png" preserveAspectRatio="none" x="13665.893555" y="-3518.920898" width="1.098633" height="1.098633"/>
<image xlink:href="tile61_29.png" preserveAspectRatio="none" x="13666.992188" y="-3502.441406" width="1.098633" height="1.098633"/>
<image xlink:href="tile61_28.png" preserveAspectRatio="none" x="13666.992188" y="-3503.540039" width="1.098633" height="1.098633"/>
<image xlink:href="tile61_27.png" preserveAspectRatio="none" x="13666.992188" y="-3504.638672" width="1.098633" height="1.098633"/>
<image xlink:href="tile61_26.png" preserveAspectRatio="none" x="13666.992188" y="-3505.737305" width="1.098633" height="1.098633"/>
<image xlink:href="tile61_25.png" preserveAspectRatio="none" x="13666.992188" y="-3506.835938" width="1.098633" height="1.098633"/>
<image xlink:href="tile61_24.png" preserveAspectRatio="none" x="13666.992188" y="-3507.93457" width="1.098633" height="1.098633"/>
<image xlink:href="tile61_23.png" preserveAspectRatio="none" x="13666.992188" y="-3509.033203" width="1.098633" height="1.098633"/>
<image xlink:href="tile61_22.png" preserveAspectRatio="none" x="13666.992188" y="-3510.131836" width="1.098633" height="1.098633"/>
<image xlink:href="tile61_21.png" preserveAspectRatio="none" x="13666.992188" y="-3511.230469" width="1.098633" height="1.098633"/>
<image xlink:href="tile61_20.png" preserveAspectRatio="none" x="13666.992188" y="-3512.329102" width="1.098633" height="1.098633"/>
<image xlink:href="tile61_19.png" preserveAspectRatio="none" x="13666.992188" y="-3513.427734" width="1.098633" height="1.098633"/>
<image xlink:href="tile61_18.png" preserveAspectRatio="none" x="13666.992188" y="-3514.526367" width="1.098633" height="1.098633"/>
<image xlink:href="tile61_17.png" preserveAspectRatio="none" x="13666.992188" y="-3515.625" width="1.098633" height="1.098633"/>
<image xlink:href="tile61_16.png" preserveAspectRatio="none" x="13666.992188" y="-3516.723633" width="1.098633" height="1.098633"/>
<image xlink:href="tile62_29.png" preserveAspectRatio="none" x="13668.09082" y="-3502.441406" width="1.098633" height="1.098633"/>
<image xlink:href="tile62_28.png" preserveAspectRatio="none" x="13668.09082" y="-3503.540039" width="1.098633" height="1.098633"/>
<image xlink:href="tile62_27.png" preserveAspectRatio="none" x="13668.09082" y="-3504.638672" width="1.098633" height="1.098633"/>
<image xlink:href="tile62_26.png" preserveAspectRatio="none" x="13668.09082" y="-3505.737305" width="1.098633" height="1.098633"/>
<image xlink:href="tile62_25.png" preserveAspectRatio="none" x="13668.09082" y="-3506.835938" width="1.098633" height="1.098633"/>
<image xlink:href="tile62_24.png" preserveAspectRatio="none" x="13668.09082" y="-3507.93457" width="1.098633" height="1.098633"/>
<image xlink:href="tile62_23.png" preserveAspectRatio="none" x="13668.09082" y="-3509.033203" width="1.098633" height="1.098633"/>
<image xlink:href="tile62_22.png" preserveAspectRatio="none" x="13668.09082" y="-3510.131836" width="1.098633" height="1.098633"/>
<image xlink:href="tile62_21.png" preserveAspectRatio="none" x="13668.09082" y="-3511.230469" width="1.098633" height="1.098633"/>
<image xlink:href="tile62_20.png" preserveAspectRatio="none" x="13668.09082" y="-3512.329102" width="1.098633" height="1.098633"/>
<image xlink:href="tile62_19.png" preserveAspectRatio="none" x="13668.09082" y="-3513.427734" width="1.098633" height="1.098633"/>
<image xlink:href="tile62_18.png" preserveAspectRatio="none" x="13668.09082" y="-3514.526367" width="1.098633" height="1.098633"/>
<image xlink:href="tile62_17.png" preserveAspectRatio="none" x="13668.09082" y="-3515.625" width="1.098633" height="1.098633"/>
<image xlink:href="tile62_16.png" preserveAspectRatio="none" x="13668.09082" y="-3516.723633" width="1.098633" height="1.098633"/>
<image xlink:href="tile62_15.png" preserveAspectRatio="none" x="13668.09082" y="-3517.822266" width="1.098633" height="1.098633"/>
<image xlink:href="tile62_14.png" preserveAspectRatio="none" x="13668.09082" y="-3518.920898" width="1.098633" height="1.098633"/>
<image xlink:href="tile63_29.png" preserveAspectRatio="none" x="13669.189453" y="-3502.441406" width="1.098633" height="1.098633"/>
<image xlink:href="tile63_28.png" preserveAspectRatio="none" x="13669.189453" y="-3503.540039" width="1.098633" height="1.098633"/>
<image xlink:href="tile63_27.png" preserveAspectRatio="none" x="13669.189453" y="-3504.638672" width="1.098633" height="1.098633"/>
<image xlink:href="tile63_26.png" preserveAspectRatio="none" x="13669.189453" y="-3505.737305" width="1.098633" height="1.098633"/>
<image xlink:href="tile63_25.png" preserveAspectRatio="none" x="13669.189453" y="-3506.835938" width="1.098633" height="1.098633"/>
<image xlink:href="tile63_24.png" preserveAspectRatio="none" x="13669.189453" y="-3507.93457" width="1.098633" height="1.098633"/>
<image xlink:href="tile63_23.png" preserveAspectRatio="none" x="13669.189453" y="-3509.033203" width="1.098633" height="1.098633"/>
<image xlink:href="tile63_22.png" preserveAspectRatio="none" x="13669.189453" y="-3510.131836" width="1.098633" height="1.098633"/>
<image xlink:href="tile63_21.png" preserveAspectRatio="none" x="13669.189453" y="-3511.230469" width="1.098633" height="1.098633"/>
<image xlink:href="tile63_20.png" preserveAspectRatio="none" x="13669.189453" y="-3512.329102" width="1.098633" height="1.098633"/>
<image xlink:href="tile63_19.png" preserveAspectRatio="none" x="13669.189453" y="-3513.427734" width="1.098633" height="1.098633"/>
<image xlink:href="tile63_18.png" preserveAspectRatio="none" x="13669.189453" y="-3514.526367" width="1.098633" height="1.098633"/>
<image xlink:href="tile63_17.png" preserveAspectRatio="none" x="13669.189453" y="-3515.625" width="1.098633" height="1.098633"/>
<image xlink:href="tile63_16.png" preserveAspectRatio="none" x="13669.189453" y="-3516.723633" width="1.098633" height="1.098633"/>
<image xlink:href="tile63_15.png" preserveAspectRatio="none" x="13669.189453" y="-3517.822266" width="1.098633" height="1.098633"/>
<image xlink:href="tile63_14.png" preserveAspectRatio="none" x="13669.189453" y="-3518.920898" width="1.098633" height="1.098633"/>
</g>
</svg>
