<?xml version="1.0" encoding="UTF-8"?>
<svg  xmlns="http://www.w3.org/2000/svg" xmlns:xlink="http://www.w3.org/1999/xlink" xmlns:go="http://purl.org/svgmap/profile" viewBox="13600.0 -3533.3333333 100.0 66.6666665000001" go:dataArea="13600.0 -3533.3333333 100.0 66.6666665000001" >
<metadata>
 <rdf:RDF xmlns:rdf="http://www.w3.org/1999/02/22-rdf-syntax-ns#" xmlns:crs="http://opengis.org/xmldtds/transformations.dtd" xmlns:svg="http://www.w3.org/svg" >
  <rdf:Description>
   <crs:CoordinateReferenceSystem rdf:resource="http://purl.org/crs/84" svg:transform="matrix(100.0,0.0,0.0,-100.0,0.0,0.0)" />
  </rdf:Description>
 </rdf:RDF>
</metadata>
<globalCoordinateSystem srsName="http://purl.org/crs/84" transform="matrix(100.0,0.0,0.0,-100.0,0.0,0.0)" />
<g >
<image xlink:href="tile48_42.png" preserveAspectRatio="none" x="13652.709961" y="-3488.15918" width="1.098633" height="1.098633"/>
<image xlink:href="tile48_41.png" preserveAspectRatio="none" x="13652.709961" y="-3489.257812" width="1.098633" height="1.098633"/>
<image xlink:href="tile48_40.png" preserveAspectRatio="none" x="13652.709961" y="-3490.356445" width="1.098633" height="1.098633"/>
<image xlink:href="tile48_31.png" preserveAspectRatio="none" x="13652.709961" y="-3500.244141" width="1.098633" height="1.098633"/>
<image xlink:href="tile48_30.png" preserveAspectRatio="none" x="13652.709961" y="-3501.342773" width="1.098633" height="1.098633"/>
<image xlink:href="tile49_45.png" preserveAspectRatio="none" x="13653.808594" y="-3484.863281" width="1.098633" height="1.098633"/>
<image xlink:href="tile49_42.png" preserveAspectRatio="none" x="13653.808594" y="-3488.15918" width="1.098633" height="1.098633"/>
<image xlink:href="tile49_41.png" preserveAspectRatio="none" x="13653.808594" y="-3489.257812" width="1.098633" height="1.098633"/>
<image xlink:href="tile49_40.png" preserveAspectRatio="none" x="13653.808594" y="-3490.356445" width="1.098633" height="1.098633"/>
<image xlink:href="tile49_38.png" preserveAspectRatio="none" x="13653.808594" y="-3492.553711" width="1.098633" height="1.098633"/>
<image xlink:href="tile49_34.png" preserveAspectRatio="none" x="13653.808594" y="-3496.948242" width="1.098633" height="1.098633"/>
<image xlink:href="tile49_32.png" preserveAspectRatio="none" x="13653.808594" y="-3499.145508" width="1.098633" height="1.098633"/>
<image xlink:href="tile49_31.png" preserveAspectRatio="none" x="13653.808594" y="-3500.244141" width="1.098633" height="1.098633"/>
<image xlink:href="tile49_30.png" preserveAspectRatio="none" x="13653.808594" y="-3501.342773" width="1.098633" height="1.098633"/>
<image xlink:href="tile50_45.png" preserveAspectRatio="none" x="13654.907227" y="-3484.863281" width="1.098633" height="1.098633"/>
<image xlink:href="tile50_41.png" preserveAspectRatio="none" x="13654.907227" y="-3489.257812" width="1.098633" height="1.098633"/>
<image xlink:href="tile50_40.png" preserveAspectRatio="none" x="13654.907227" y="-3490.356445" width="1.098633" height="1.098633"/>
<image xlink:href="tile50_38.png" preserveAspectRatio="none" x="13654.907227" y="-3492.553711" width="1.098633" height="1.098633"/>
<image xlink:href="tile50_37.png" preserveAspectRatio="none" x="13654.907227" y="-3493.652344" width="1.098633" height="1.098633"/>
<image xlink:href="tile50_35.png" preserveAspectRatio="none" x="13654.907227" y="-3495.849609" width="1.098633" height="1.098633"/>
<image xlink:href="tile50_34.png" preserveAspectRatio="none" x="13654.907227" y="-3496.948242" width="1.098633" height="1.098633"/>
<image xlink:href="tile50_33.png" preserveAspectRatio="none" x="13654.907227" y="-3498.046875" width="1.098633" height="1.098633"/>
<image xlink:href="tile50_32.png" preserveAspectRatio="none" x="13654.907227" y="-3499.145508" width="1.098633" height="1.098633"/>
<image xlink:href="tile50_31.png" preserveAspectRatio="none" x="13654.907227" y="-3500.244141" width="1.098633" height="1.098633"/>
<image xlink:href="tile50_30.png" preserveAspectRatio="none" x="13654.907227" y="-3501.342773" width="1.098633" height="1.098633"/>
<image xlink:href="tile51_42.png" preserveAspectRatio="none" x="13656.005859" y="-3488.15918" width="1.098633" height="1.098633"/>
<image xlink:href="tile51_41.png" preserveAspectRatio="none" x="13656.005859" y="-3489.257812" width="1.098633" height="1.098633"/>
<image xlink:href="tile51_40.png" preserveAspectRatio="none" x="13656.005859" y="-3490.356445" width="1.098633" height="1.098633"/>
<image xlink:href="tile51_39.png" preserveAspectRatio="none" x="13656.005859" y="-3491.455078" width="1.098633" height="1.098633"/>
<image xlink:href="tile51_38.png" preserveAspectRatio="none" x="13656.005859" y="-3492.553711" width="1.098633" height="1.098633"/>
<image xlink:href="tile51_37.png" preserveAspectRatio="none" x="13656.005859" y="-3493.652344" width="1.098633" height="1.098633"/>
<image xlink:href="tile51_35.png" preserveAspectRatio="none" x="13656.005859" y="-3495.849609" width="1.098633" height="1.098633"/>
<image xlink:href="tile51_34.png" preserveAspectRatio="none" x="13656.005859" y="-3496.948242" width="1.098633" height="1.098633"/>
<image xlink:href="tile51_33.png" preserveAspectRatio="none" x="13656.005859" y="-3498.046875" width="1.098633" height="1.098633"/>
<image xlink:href="tile51_32.png" preserveAspectRatio="none" x="13656.005859" y="-3499.145508" width="1.098633" height="1.098633"/>
<image xlink:href="tile51_31.png" preserveAspectRatio="none" x="13656.005859" y="-3500.244141" width="1.098633" height="1.098633"/>
<image xlink:href="tile51_30.png" preserveAspectRatio="none" x="13656.005859" y="-3501.342773" width="1.098633" height="1.098633"/>
<image xlink:href="tile52_45.png" preserveAspectRatio="none" x="13657.104492" y="-3484.863281" width="1.098633" height="1.098633"/>
<image xlink:href="tile52_43.png" preserveAspectRatio="none" x="13657.104492" y="-3487.060547" width="1.098633" height="1.098633"/>
<image xlink:href="tile52_42.png" preserveAspectRatio="none" x="13657.104492" y="-3488.15918" width="1.098633" height="1.098633"/>
<image xlink:href="tile52_41.png" preserveAspectRatio="none" x="13657.104492" y="-3489.257812" width="1.098633" height="1.098633"/>
<image xlink:href="tile52_40.png" preserveAspectRatio="none" x="13657.104492" y="-3490.356445" width="1.098633" height="1.098633"/>
<image xlink:href="tile52_38.png" preserveAspectRatio="none" x="13657.104492" y="-3492.553711" width="1.098633" height="1.098633"/>
<image xlink:href="tile52_37.png" preserveAspectRatio="none" x="13657.104492" y="-3493.652344" width="1.098633" height="1.098633"/>
<image xlink:href="tile52_35.png" preserveAspectRatio="none" x="13657.104492" y="-3495.849609" width="1.098633" height="1.098633"/>
<image xlink:href="tile52_34.png" preserveAspectRatio="none" x="13657.104492" y="-3496.948242" width="1.098633" height="1.098633"/>
<image xlink:href="tile52_33.png" preserveAspectRatio="none" x="13657.104492" y="-3498.046875" width="1.098633" height="1.098633"/>
<image xlink:href="tile52_32.png" preserveAspectRatio="none" x="13657.104492" y="-3499.145508" width="1.098633" height="1.098633"/>
<image xlink:href="tile52_31.png" preserveAspectRatio="none" x="13657.104492" y="-3500.244141" width="1.098633" height="1.098633"/>
<image xlink:href="tile52_30.png" preserveAspectRatio="none" x="13657.104492" y="-3501.342773" width="1.098633" height="1.098633"/>
<image xlink:href="tile53_45.png" preserveAspectRatio="none" x="13658.203125" y="-3484.863281" width="1.098633" height="1.098633"/>
<image xlink:href="tile53_43.png" preserveAspectRatio="none" x="13658.203125" y="-3487.060547" width="1.098633" height="1.098633"/>
<image xlink:href="tile53_42.png" preserveAspectRatio="none" x="13658.203125" y="-3488.15918" width="1.098633" height="1.098633"/>
<image xlink:href="tile53_41.png" preserveAspectRatio="none" x="13658.203125" y="-3489.257812" width="1.098633" height="1.098633"/>
<image xlink:href="tile53_40.png" preserveAspectRatio="none" x="13658.203125" y="-3490.356445" width="1.098633" height="1.098633"/>
<image xlink:href="tile53_38.png" preserveAspectRatio="none" x="13658.203125" y="-3492.553711" width="1.098633" height="1.098633"/>
<image xlink:href="tile53_37.png" preserveAspectRatio="none" x="13658.203125" y="-3493.652344" width="1.098633" height="1.098633"/>
<image xlink:href="tile53_35.png" preserveAspectRatio="none" x="13658.203125" y="-3495.849609" width="1.098633" height="1.098633"/>
<image xlink:href="tile53_34.png" preserveAspectRatio="none" x="13658.203125" y="-3496.948242" width="1.098633" height="1.098633"/>
<image xlink:href="tile53_33.png" preserveAspectRatio="none" x="13658.203125" y="-3498.046875" width="1.098633" height="1.098633"/>
<image xlink:href="tile53_32.png" preserveAspectRatio="none" x="13658.203125" y="-3499.145508" width="1.098633" height="1.098633"/>
<image xlink:href="tile53_31.png" preserveAspectRatio="none" x="13658.203125" y="-3500.244141" width="1.098633" height="1.098633"/>
<image xlink:href="tile53_30.png" preserveAspectRatio="none" x="13658.203125" y="-3501.342773" width="1.098633" height="1.098633"/>
<image xlink:href="tile54_45.png" preserveAspectRatio="none" x="13659.301758" y="-3484.863281" width="1.098633" height="1.098633"/>
<image xlink:href="tile54_43.png" preserveAspectRatio="none" x="13659.301758" y="-3487.060547" width="1.098633" height="1.098633"/>
<image xlink:href="tile54_42.png" preserveAspectRatio="none" x="13659.301758" y="-3488.15918" width="1.098633" height="1.098633"/>
<image xlink:href="tile54_41.png" preserveAspectRatio="none" x="13659.301758" y="-3489.257812" width="1.098633" height="1.098633"/>
<image xlink:href="tile54_40.png" preserveAspectRatio="none" x="13659.301758" y="-3490.356445" width="1.098633" height="1.098633"/>
<image xlink:href="tile54_39.png" preserveAspectRatio="none" x="13659.301758" y="-3491.455078" width="1.098633" height="1.098633"/>
<image xlink:href="tile54_38.png" preserveAspectRatio="none" x="13659.301758" y="-3492.553711" width="1.098633" height="1.098633"/>
<image xlink:href="tile54_37.png" preserveAspectRatio="none" x="13659.301758" y="-3493.652344" width="1.098633" height="1.098633"/>
<image xlink:href="tile54_36.png" preserveAspectRatio="none" x="13659.301758" y="-3494.750977" width="1.098633" height="1.098633"/>
<image xlink:href="tile54_35.png" preserveAspectRatio="none" x="13659.301758" y="-3495.849609" width="1.098633" height="1.098633"/>
<image xlink:href="tile54_34.png" preserveAspectRatio="none" x="13659.301758" y="-3496.948242" width="1.098633" height="1.098633"/>
<image xlink:href="tile54_33.png" preserveAspectRatio="none" x="13659.301758" y="-3498.046875" width="1.098633" height="1.098633"/>
<image xlink:href="tile54_32.png" preserveAspectRatio="none" x="13659.301758" y="-3499.145508" width="1.098633" height="1.098633"/>
<image xlink:href="tile54_31.png" preserveAspectRatio="none" x="13659.301758" y="-3500.244141" width="1.098633" height="1.098633"/>
<image xlink:href="tile54_30.png" preserveAspectRatio="none" x="13659.301758" y="-3501.342773" width="1.098633" height="1.098633"/>
<image xlink:href="tile55_43.png" preserveAspectRatio="none" x="13660.400391" y="-3487.060547" width="1.098633" height="1.098633"/>
<image xlink:href="tile55_42.png" preserveAspectRatio="none" x="13660.400391" y="-3488.15918" width="1.098633" height="1.098633"/>
<image xlink:href="tile55_41.png" preserveAspectRatio="none" x="13660.400391" y="-3489.257812" width="1.098633" height="1.098633"/>
<image xlink:href="tile55_40.png" preserveAspectRatio="none" x="13660.400391" y="-3490.356445" width="1.098633" height="1.098633"/>
<image xlink:href="tile55_39.png" preserveAspectRatio="none" x="13660.400391" y="-3491.455078" width="1.098633" height="1.098633"/>
<image xlink:href="tile55_38.png" preserveAspectRatio="none" x="13660.400391" y="-3492.553711" width="1.098633" height="1.098633"/>
<image xlink:href="tile55_37.png" preserveAspectRatio="none" x="13660.400391" y="-3493.652344" width="1.098633" height="1.098633"/>
<image xlink:href="tile55_36.png" preserveAspectRatio="none" x="13660.400391" y="-3494.750977" width="1.098633" height="1.098633"/>
<image xlink:href="tile55_35.png" preserveAspectRatio="none" x="13660.400391" y="-3495.849609" width="1.098633" height="1.098633"/>
<image xlink:href="tile55_34.png" preserveAspectRatio="none" x="13660.400391" y="-3496.948242" width="1.098633" height="1.098633"/>
<image xlink:href="tile55_33.png" preserveAspectRatio="none" x="13660.400391" y="-3498.046875" width="1.098633" height="1.098633"/>
<image xlink:href="tile55_32.png" preserveAspectRatio="none" x="13660.400391" y="-3499.145508" width="1.098633" height="1.098633"/>
<image xlink:href="tile55_31.png" preserveAspectRatio="none" x="13660.400391" y="-3500.244141" width="1.098633" height="1.098633"/>
<image xlink:href="tile56_43.png" preserveAspectRatio="none" x="13661.499023" y="-3487.060547" width="1.098633" height="1.098633"/>
<image xlink:href="tile56_42.png" preserveAspectRatio="none" x="13661.499023" y="-3488.15918" width="1.098633" height="1.098633"/>
<image xlink:href="tile56_41.png" preserveAspectRatio="none" x="13661.499023" y="-3489.257812" width="1.098633" height="1.098633"/>
<image xlink:href="tile56_40.png" preserveAspectRatio="none" x="13661.499023" y="-3490.356445" width="1.098633" height="1.098633"/>
<image xlink:href="tile56_39.png" preserveAspectRatio="none" x="13661.499023" y="-3491.455078" width="1.098633" height="1.098633"/>
<image xlink:href="tile56_38.png" preserveAspectRatio="none" x="13661.499023" y="-3492.553711" width="1.098633" height="1.098633"/>
<image xlink:href="tile56_37.png" preserveAspectRatio="none" x="13661.499023" y="-3493.652344" width="1.098633" height="1.098633"/>
<image xlink:href="tile56_36.png" preserveAspectRatio="none" x="13661.499023" y="-3494.750977" width="1.098633" height="1.098633"/>
<image xlink:href="tile56_35.png" preserveAspectRatio="none" x="13661.499023" y="-3495.849609" width="1.098633" height="1.098633"/>
<image xlink:href="tile56_34.png" preserveAspectRatio="none" x="13661.499023" y="-3496.948242" width="1.098633" height="1.098633"/>
<image xlink:href="tile56_33.png" preserveAspectRatio="none" x="13661.499023" y="-3498.046875" width="1.098633" height="1.098633"/>
<image xlink:href="tile56_32.png" preserveAspectRatio="none" x="13661.499023" y="-3499.145508" width="1.098633" height="1.098633"/>
<image xlink:href="tile56_31.png" preserveAspectRatio="none" x="13661.499023" y="-3500.244141" width="1.098633" height="1.098633"/>
<image xlink:href="tile57_42.png" preserveAspectRatio="none" x="13662.597656" y="-3488.15918" width="1.098633" height="1.098633"/>
<image xlink:href="tile57_41.png" preserveAspectRatio="none" x="13662.597656" y="-3489.257812" width="1.098633" height="1.098633"/>
<image xlink:href="tile57_40.png" preserveAspectRatio="none" x="13662.597656" y="-3490.356445" width="1.098633" height="1.098633"/>
<image xlink:href="tile57_39.png" preserveAspectRatio="none" x="13662.597656" y="-3491.455078" width="1.098633" height="1.098633"/>
<image xlink:href="tile57_38.png" preserveAspectRatio="none" x="13662.597656" y="-3492.553711" width="1.098633" height="1.098633"/>
<image xlink:href="tile57_37.png" preserveAspectRatio="none" x="13662.597656" y="-3493.652344" width="1.098633" height="1.098633"/>
<image xlink:href="tile57_36.png" preserveAspectRatio="none" x="13662.597656" y="-3494.750977" width="1.098633" height="1.098633"/>
<image xlink:href="tile57_35.png" preserveAspectRatio="none" x="13662.597656" y="-3495.849609" width="1.098633" height="1.098633"/>
<image xlink:href="tile57_34.png" preserveAspectRatio="none" x="13662.597656" y="-3496.948242" width="1.098633" height="1.098633"/>
<image xlink:href="tile57_33.png" preserveAspectRatio="none" x="13662.597656" y="-3498.046875" width="1.098633" height="1.098633"/>
<image xlink:href="tile57_31.png" preserveAspectRatio="none" x="13662.597656" y="-3500.244141" width="1.098633" height="1.098633"/>
<image xlink:href="tile58_40.png" preserveAspectRatio="none" x="13663.696289" y="-3490.356445" width="1.098633" height="1.098633"/>
<image xlink:href="tile58_39.png" preserveAspectRatio="none" x="13663.696289" y="-3491.455078" width="1.098633" height="1.098633"/>
<image xlink:href="tile58_38.png" preserveAspectRatio="none" x="13663.696289" y="-3492.553711" width="1.098633" height="1.098633"/>
<image xlink:href="tile58_37.png" preserveAspectRatio="none" x="13663.696289" y="-3493.652344" width="1.098633" height="1.098633"/>
<image xlink:href="tile58_36.png" preserveAspectRatio="none" x="13663.696289" y="-3494.750977" width="1.098633" height="1.098633"/>
<image xlink:href="tile58_34.png" preserveAspectRatio="none" x="13663.696289" y="-3496.948242" width="1.098633" height="1.098633"/>
<image xlink:href="tile58_33.png" preserveAspectRatio="none" x="13663.696289" y="-3498.046875" width="1.098633" height="1.098633"/>
<image xlink:href="tile58_31.png" preserveAspectRatio="none" x="13663.696289" y="-3500.244141" width="1.098633" height="1.098633"/>
<image xlink:href="tile58_30.png" preserveAspectRatio="none" x="13663.696289" y="-3501.342773" width="1.098633" height="1.098633"/>
<image xlink:href="tile59_37.png" preserveAspectRatio="none" x="13664.794922" y="-3493.652344" width="1.098633" height="1.098633"/>
<image xlink:href="tile59_36.png" preserveAspectRatio="none" x="13664.794922" y="-3494.750977" width="1.098633" height="1.098633"/>
<image xlink:href="tile59_31.png" preserveAspectRatio="none" x="13664.794922" y="-3500.244141" width="1.098633" height="1.098633"/>
<image xlink:href="tile59_30.png" preserveAspectRatio="none" x="13664.794922" y="-3501.342773" width="1.098633" height="1.098633"/>
<image xlink:href="tile60_31.png" preserveAspectRatio="none" x="13665.893555" y="-3500.244141" width="1.098633" height="1.098633"/>
<image xlink:href="tile60_30.png" preserveAspectRatio="none" x="13665.893555" y="-3501.342773" width="1.098633" height="1.098633"/>
<image xlink:href="tile61_30.png" preserveAspectRatio="none" x="13666.992188" y="-3501.342773" width="1.098633" height="1.098633"/>
<image xlink:href="tile62_30.png" preserveAspectRatio="none" x="13668.09082" y="-3501.342773" width="1.098633" height="1.098633"/>
</g>
</svg>
