<?xml version="1.0" encoding="UTF-8"?>
<svg  xmlns="http://www.w3.org/2000/svg" xmlns:xlink="http://www.w3.org/1999/xlink" xmlns:go="http://purl.org/svgmap/profile" viewBox="13600.0 -3533.3333333 100.0 66.6666665000001" go:dataArea="13600.0 -3533.3333333 100.0 66.6666665000001" >
<metadata>
 <rdf:RDF xmlns:rdf="http://www.w3.org/1999/02/22-rdf-syntax-ns#" xmlns:crs="http://opengis.org/xmldtds/transformations.dtd" xmlns:svg="http://www.w3.org/svg" >
  <rdf:Description>
   <crs:CoordinateReferenceSystem rdf:resource="http://purl.org/crs/84" svg:transform="matrix(100.0,0.0,0.0,-100.0,0.0,0.0)" />
  </rdf:Description>
 </rdf:RDF>
</metadata>
<globalCoordinateSystem srsName="http://purl.org/crs/84" transform="matrix(100.0,0.0,0.0,-100.0,0.0,0.0)" />
<g >
<image xlink:href="tile48_61.png" preserveAspectRatio="none" x="13652.709961" y="-3467.285156" width="1.098633" height="1.098633"/>
<image xlink:href="tile48_60.png" preserveAspectRatio="none" x="13652.709961" y="-3468.383789" width="1.098633" height="1.098633"/>
<image xlink:href="tile48_56.png" preserveAspectRatio="none" x="13652.709961" y="-3472.77832" width="1.098633" height="1.098633"/>
<image xlink:href="tile48_55.png" preserveAspectRatio="none" x="13652.709961" y="-3473.876953" width="1.098633" height="1.098633"/>
<image xlink:href="tile48_54.png" preserveAspectRatio="none" x="13652.709961" y="-3474.975586" width="1.098633" height="1.098633"/>
<image xlink:href="tile48_53.png" preserveAspectRatio="none" x="13652.709961" y="-3476.074219" width="1.098633" height="1.098633"/>
<image xlink:href="tile48_52.png" preserveAspectRatio="none" x="13652.709961" y="-3477.172852" width="1.098633" height="1.098633"/>
<image xlink:href="tile48_51.png" preserveAspectRatio="none" x="13652.709961" y="-3478.271484" width="1.098633" height="1.098633"/>
<image xlink:href="tile48_50.png" preserveAspectRatio="none" x="13652.709961" y="-3479.370117" width="1.098633" height="1.098633"/>
<image xlink:href="tile48_47.png" preserveAspectRatio="none" x="13652.709961" y="-3482.666016" width="1.098633" height="1.098633"/>
<image xlink:href="tile48_46.png" preserveAspectRatio="none" x="13652.709961" y="-3483.764648" width="1.098633" height="1.098633"/>
<image xlink:href="tile49_61.png" preserveAspectRatio="none" x="13653.808594" y="-3467.285156" width="1.098633" height="1.098633"/>
<image xlink:href="tile49_60.png" preserveAspectRatio="none" x="13653.808594" y="-3468.383789" width="1.098633" height="1.098633"/>
<image xlink:href="tile49_52.png" preserveAspectRatio="none" x="13653.808594" y="-3477.172852" width="1.098633" height="1.098633"/>
<image xlink:href="tile49_51.png" preserveAspectRatio="none" x="13653.808594" y="-3478.271484" width="1.098633" height="1.098633"/>
<image xlink:href="tile49_49.png" preserveAspectRatio="none" x="13653.808594" y="-3480.46875" width="1.098633" height="1.098633"/>
<image xlink:href="tile49_48.png" preserveAspectRatio="none" x="13653.808594" y="-3481.567383" width="1.098633" height="1.098633"/>
<image xlink:href="tile49_47.png" preserveAspectRatio="none" x="13653.808594" y="-3482.666016" width="1.098633" height="1.098633"/>
<image xlink:href="tile49_46.png" preserveAspectRatio="none" x="13653.808594" y="-3483.764648" width="1.098633" height="1.098633"/>
<image xlink:href="tile50_49.png" preserveAspectRatio="none" x="13654.907227" y="-3480.46875" width="1.098633" height="1.098633"/>
<image xlink:href="tile50_48.png" preserveAspectRatio="none" x="13654.907227" y="-3481.567383" width="1.098633" height="1.098633"/>
<image xlink:href="tile50_47.png" preserveAspectRatio="none" x="13654.907227" y="-3482.666016" width="1.098633" height="1.098633"/>
<image xlink:href="tile50_46.png" preserveAspectRatio="none" x="13654.907227" y="-3483.764648" width="1.098633" height="1.098633"/>
<image xlink:href="tile51_49.png" preserveAspectRatio="none" x="13656.005859" y="-3480.46875" width="1.098633" height="1.098633"/>
<image xlink:href="tile51_48.png" preserveAspectRatio="none" x="13656.005859" y="-3481.567383" width="1.098633" height="1.098633"/>
<image xlink:href="tile51_47.png" preserveAspectRatio="none" x="13656.005859" y="-3482.666016" width="1.098633" height="1.098633"/>
<image xlink:href="tile51_46.png" preserveAspectRatio="none" x="13656.005859" y="-3483.764648" width="1.098633" height="1.098633"/>
<image xlink:href="tile52_48.png" preserveAspectRatio="none" x="13657.104492" y="-3481.567383" width="1.098633" height="1.098633"/>
<image xlink:href="tile52_47.png" preserveAspectRatio="none" x="13657.104492" y="-3482.666016" width="1.098633" height="1.098633"/>
<image xlink:href="tile52_46.png" preserveAspectRatio="none" x="13657.104492" y="-3483.764648" width="1.098633" height="1.098633"/>
<image xlink:href="tile53_47.png" preserveAspectRatio="none" x="13658.203125" y="-3482.666016" width="1.098633" height="1.098633"/>
<image xlink:href="tile53_46.png" preserveAspectRatio="none" x="13658.203125" y="-3483.764648" width="1.098633" height="1.098633"/>
<image xlink:href="tile54_46.png" preserveAspectRatio="none" x="13659.301758" y="-3483.764648" width="1.098633" height="1.098633"/>
</g>
</svg>
