<?xml version="1.0" encoding="UTF-8"?>
<svg  xmlns="http://www.w3.org/2000/svg" xmlns:xlink="http://www.w3.org/1999/xlink" xmlns:go="http://purl.org/svgmap/profile" viewBox="13600.0 -3533.3333333 100.0 66.6666665000001" go:dataArea="13600.0 -3533.3333333 100.0 66.6666665000001" >
<metadata>
 <rdf:RDF xmlns:rdf="http://www.w3.org/1999/02/22-rdf-syntax-ns#" xmlns:crs="http://opengis.org/xmldtds/transformations.dtd" xmlns:svg="http://www.w3.org/svg" >
  <rdf:Description>
   <crs:CoordinateReferenceSystem rdf:resource="http://purl.org/crs/84" svg:transform="matrix(100.0,0.0,0.0,-100.0,0.0,0.0)" />
  </rdf:Description>
 </rdf:RDF>
</metadata>
<globalCoordinateSystem srsName="http://purl.org/crs/84" transform="matrix(100.0,0.0,0.0,-100.0,0.0,0.0)" />
<g >
<image xlink:href="tile48_2.png" preserveAspectRatio="none" x="13652.709961" y="-3532.104492" width="1.098633" height="1.098633"/>
<image xlink:href="tile48_1.png" preserveAspectRatio="none" x="13652.709961" y="-3533.203125" width="1.098633" height="1.098633"/>
<image xlink:href="tile48_0.png" preserveAspectRatio="none" x="13652.709961" y="-3534.301758" width="1.098633" height="1.098633"/>
<image xlink:href="tile49_3.png" preserveAspectRatio="none" x="13653.808594" y="-3531.005859" width="1.098633" height="1.098633"/>
<image xlink:href="tile49_2.png" preserveAspectRatio="none" x="13653.808594" y="-3532.104492" width="1.098633" height="1.098633"/>
<image xlink:href="tile49_1.png" preserveAspectRatio="none" x="13653.808594" y="-3533.203125" width="1.098633" height="1.098633"/>
<image xlink:href="tile50_5.png" preserveAspectRatio="none" x="13654.907227" y="-3528.808594" width="1.098633" height="1.098633"/>
<image xlink:href="tile50_4.png" preserveAspectRatio="none" x="13654.907227" y="-3529.907227" width="1.098633" height="1.098633"/>
<image xlink:href="tile50_3.png" preserveAspectRatio="none" x="13654.907227" y="-3531.005859" width="1.098633" height="1.098633"/>
<image xlink:href="tile50_2.png" preserveAspectRatio="none" x="13654.907227" y="-3532.104492" width="1.098633" height="1.098633"/>
<image xlink:href="tile50_1.png" preserveAspectRatio="none" x="13654.907227" y="-3533.203125" width="1.098633" height="1.098633"/>
<image xlink:href="tile50_0.png" preserveAspectRatio="none" x="13654.907227" y="-3534.301758" width="1.098633" height="1.098633"/>
<image xlink:href="tile51_8.png" preserveAspectRatio="none" x="13656.005859" y="-3525.512695" width="1.098633" height="1.098633"/>
<image xlink:href="tile51_7.png" preserveAspectRatio="none" x="13656.005859" y="-3526.611328" width="1.098633" height="1.098633"/>
<image xlink:href="tile51_6.png" preserveAspectRatio="none" x="13656.005859" y="-3527.709961" width="1.098633" height="1.098633"/>
<image xlink:href="tile51_5.png" preserveAspectRatio="none" x="13656.005859" y="-3528.808594" width="1.098633" height="1.098633"/>
<image xlink:href="tile51_4.png" preserveAspectRatio="none" x="13656.005859" y="-3529.907227" width="1.098633" height="1.098633"/>
<image xlink:href="tile51_3.png" preserveAspectRatio="none" x="13656.005859" y="-3531.005859" width="1.098633" height="1.098633"/>
<image xlink:href="tile51_2.png" preserveAspectRatio="none" x="13656.005859" y="-3532.104492" width="1.098633" height="1.098633"/>
<image xlink:href="tile51_1.png" preserveAspectRatio="none" x="13656.005859" y="-3533.203125" width="1.098633" height="1.098633"/>
<image xlink:href="tile51_0.png" preserveAspectRatio="none" x="13656.005859" y="-3534.301758" width="1.098633" height="1.098633"/>
<image xlink:href="tile52_9.png" preserveAspectRatio="none" x="13657.104492" y="-3524.414062" width="1.098633" height="1.098633"/>
<image xlink:href="tile52_8.png" preserveAspectRatio="none" x="13657.104492" y="-3525.512695" width="1.098633" height="1.098633"/>
<image xlink:href="tile52_7.png" preserveAspectRatio="none" x="13657.104492" y="-3526.611328" width="1.098633" height="1.098633"/>
<image xlink:href="tile52_6.png" preserveAspectRatio="none" x="13657.104492" y="-3527.709961" width="1.098633" height="1.098633"/>
<image xlink:href="tile52_5.png" preserveAspectRatio="none" x="13657.104492" y="-3528.808594" width="1.098633" height="1.098633"/>
<image xlink:href="tile52_4.png" preserveAspectRatio="none" x="13657.104492" y="-3529.907227" width="1.098633" height="1.098633"/>
<image xlink:href="tile52_3.png" preserveAspectRatio="none" x="13657.104492" y="-3531.005859" width="1.098633" height="1.098633"/>
<image xlink:href="tile52_2.png" preserveAspectRatio="none" x="13657.104492" y="-3532.104492" width="1.098633" height="1.098633"/>
<image xlink:href="tile52_1.png" preserveAspectRatio="none" x="13657.104492" y="-3533.203125" width="1.098633" height="1.098633"/>
<image xlink:href="tile52_0.png" preserveAspectRatio="none" x="13657.104492" y="-3534.301758" width="1.098633" height="1.098633"/>
<image xlink:href="tile53_10.png" preserveAspectRatio="none" x="13658.203125" y="-3523.31543" width="1.098633" height="1.098633"/>
<image xlink:href="tile53_9.png" preserveAspectRatio="none" x="13658.203125" y="-3524.414062" width="1.098633" height="1.098633"/>
<image xlink:href="tile53_8.png" preserveAspectRatio="none" x="13658.203125" y="-3525.512695" width="1.098633" height="1.098633"/>
<image xlink:href="tile53_7.png" preserveAspectRatio="none" x="13658.203125" y="-3526.611328" width="1.098633" height="1.098633"/>
<image xlink:href="tile53_6.png" preserveAspectRatio="none" x="13658.203125" y="-3527.709961" width="1.098633" height="1.098633"/>
<image xlink:href="tile53_5.png" preserveAspectRatio="none" x="13658.203125" y="-3528.808594" width="1.098633" height="1.098633"/>
<image xlink:href="tile53_4.png" preserveAspectRatio="none" x="13658.203125" y="-3529.907227" width="1.098633" height="1.098633"/>
<image xlink:href="tile53_3.png" preserveAspectRatio="none" x="13658.203125" y="-3531.005859" width="1.098633" height="1.098633"/>
<image xlink:href="tile53_2.png" preserveAspectRatio="none" x="13658.203125" y="-3532.104492" width="1.098633" height="1.098633"/>
<image xlink:href="tile53_1.png" preserveAspectRatio="none" x="13658.203125" y="-3533.203125" width="1.098633" height="1.098633"/>
<image xlink:href="tile53_0.png" preserveAspectRatio="none" x="13658.203125" y="-3534.301758" width="1.098633" height="1.098633"/>
<image xlink:href="tile54_10.png" preserveAspectRatio="none" x="13659.301758" y="-3523.31543" width="1.098633" height="1.098633"/>
<image xlink:href="tile54_9.png" preserveAspectRatio="none" x="13659.301758" y="-3524.414062" width="1.098633" height="1.098633"/>
<image xlink:href="tile54_8.png" preserveAspectRatio="none" x="13659.301758" y="-3525.512695" width="1.098633" height="1.098633"/>
<image xlink:href="tile54_7.png" preserveAspectRatio="none" x="13659.301758" y="-3526.611328" width="1.098633" height="1.098633"/>
<image xlink:href="tile54_6.png" preserveAspectRatio="none" x="13659.301758" y="-3527.709961" width="1.098633" height="1.098633"/>
<image xlink:href="tile54_5.png" preserveAspectRatio="none" x="13659.301758" y="-3528.808594" width="1.098633" height="1.098633"/>
<image xlink:href="tile54_4.png" preserveAspectRatio="none" x="13659.301758" y="-3529.907227" width="1.098633" height="1.098633"/>
<image xlink:href="tile54_3.png" preserveAspectRatio="none" x="13659.301758" y="-3531.005859" width="1.098633" height="1.098633"/>
<image xlink:href="tile54_2.png" preserveAspectRatio="none" x="13659.301758" y="-3532.104492" width="1.098633" height="1.098633"/>
<image xlink:href="tile54_1.png" preserveAspectRatio="none" x="13659.301758" y="-3533.203125" width="1.098633" height="1.098633"/>
<image xlink:href="tile54_0.png" preserveAspectRatio="none" x="13659.301758" y="-3534.301758" width="1.098633" height="1.098633"/>
<image xlink:href="tile55_12.png" preserveAspectRatio="none" x="13660.400391" y="-3521.118164" width="1.098633" height="1.098633"/>
<image xlink:href="tile55_11.png" preserveAspectRatio="none" x="13660.400391" y="-3522.216797" width="1.098633" height="1.098633"/>
<image xlink:href="tile55_10.png" preserveAspectRatio="none" x="13660.400391" y="-3523.31543" width="1.098633" height="1.098633"/>
<image xlink:href="tile55_9.png" preserveAspectRatio="none" x="13660.400391" y="-3524.414062" width="1.098633" height="1.098633"/>
<image xlink:href="tile55_8.png" preserveAspectRatio="none" x="13660.400391" y="-3525.512695" width="1.098633" height="1.098633"/>
<image xlink:href="tile55_7.png" preserveAspectRatio="none" x="13660.400391" y="-3526.611328" width="1.098633" height="1.098633"/>
<image xlink:href="tile55_6.png" preserveAspectRatio="none" x="13660.400391" y="-3527.709961" width="1.098633" height="1.098633"/>
<image xlink:href="tile55_5.png" preserveAspectRatio="none" x="13660.400391" y="-3528.808594" width="1.098633" height="1.098633"/>
<image xlink:href="tile55_4.png" preserveAspectRatio="none" x="13660.400391" y="-3529.907227" width="1.098633" height="1.098633"/>
<image xlink:href="tile55_3.png" preserveAspectRatio="none" x="13660.400391" y="-3531.005859" width="1.098633" height="1.098633"/>
<image xlink:href="tile55_2.png" preserveAspectRatio="none" x="13660.400391" y="-3532.104492" width="1.098633" height="1.098633"/>
<image xlink:href="tile55_1.png" preserveAspectRatio="none" x="13660.400391" y="-3533.203125" width="1.098633" height="1.098633"/>
<image xlink:href="tile55_0.png" preserveAspectRatio="none" x="13660.400391" y="-3534.301758" width="1.098633" height="1.098633"/>
<image xlink:href="tile56_13.png" preserveAspectRatio="none" x="13661.499023" y="-3520.019531" width="1.098633" height="1.098633"/>
<image xlink:href="tile56_12.png" preserveAspectRatio="none" x="13661.499023" y="-3521.118164" width="1.098633" height="1.098633"/>
<image xlink:href="tile56_11.png" preserveAspectRatio="none" x="13661.499023" y="-3522.216797" width="1.098633" height="1.098633"/>
<image xlink:href="tile56_10.png" preserveAspectRatio="none" x="13661.499023" y="-3523.31543" width="1.098633" height="1.098633"/>
<image xlink:href="tile56_9.png" preserveAspectRatio="none" x="13661.499023" y="-3524.414062" width="1.098633" height="1.098633"/>
<image xlink:href="tile56_8.png" preserveAspectRatio="none" x="13661.499023" y="-3525.512695" width="1.098633" height="1.098633"/>
<image xlink:href="tile56_7.png" preserveAspectRatio="none" x="13661.499023" y="-3526.611328" width="1.098633" height="1.098633"/>
<image xlink:href="tile56_6.png" preserveAspectRatio="none" x="13661.499023" y="-3527.709961" width="1.098633" height="1.098633"/>
<image xlink:href="tile56_5.png" preserveAspectRatio="none" x="13661.499023" y="-3528.808594" width="1.098633" height="1.098633"/>
<image xlink:href="tile56_4.png" preserveAspectRatio="none" x="13661.499023" y="-3529.907227" width="1.098633" height="1.098633"/>
<image xlink:href="tile56_3.png" preserveAspectRatio="none" x="13661.499023" y="-3531.005859" width="1.098633" height="1.098633"/>
<image xlink:href="tile56_2.png" preserveAspectRatio="none" x="13661.499023" y="-3532.104492" width="1.098633" height="1.098633"/>
<image xlink:href="tile56_1.png" preserveAspectRatio="none" x="13661.499023" y="-3533.203125" width="1.098633" height="1.098633"/>
<image xlink:href="tile56_0.png" preserveAspectRatio="none" x="13661.499023" y="-3534.301758" width="1.098633" height="1.098633"/>
<image xlink:href="tile57_13.png" preserveAspectRatio="none" x="13662.597656" y="-3520.019531" width="1.098633" height="1.098633"/>
<image xlink:href="tile57_12.png" preserveAspectRatio="none" x="13662.597656" y="-3521.118164" width="1.098633" height="1.098633"/>
<image xlink:href="tile57_11.png" preserveAspectRatio="none" x="13662.597656" y="-3522.216797" width="1.098633" height="1.098633"/>
<image xlink:href="tile57_10.png" preserveAspectRatio="none" x="13662.597656" y="-3523.31543" width="1.098633" height="1.098633"/>
<image xlink:href="tile57_9.png" preserveAspectRatio="none" x="13662.597656" y="-3524.414062" width="1.098633" height="1.098633"/>
<image xlink:href="tile57_8.png" preserveAspectRatio="none" x="13662.597656" y="-3525.512695" width="1.098633" height="1.098633"/>
<image xlink:href="tile57_7.png" preserveAspectRatio="none" x="13662.597656" y="-3526.611328" width="1.098633" height="1.098633"/>
<image xlink:href="tile57_6.png" preserveAspectRatio="none" x="13662.597656" y="-3527.709961" width="1.098633" height="1.098633"/>
<image xlink:href="tile57_5.png" preserveAspectRatio="none" x="13662.597656" y="-3528.808594" width="1.098633" height="1.098633"/>
<image xlink:href="tile57_4.png" preserveAspectRatio="none" x="13662.597656" y="-3529.907227" width="1.098633" height="1.098633"/>
<image xlink:href="tile57_3.png" preserveAspectRatio="none" x="13662.597656" y="-3531.005859" width="1.098633" height="1.098633"/>
<image xlink:href="tile57_2.png" preserveAspectRatio="none" x="13662.597656" y="-3532.104492" width="1.098633" height="1.098633"/>
<image xlink:href="tile57_1.png" preserveAspectRatio="none" x="13662.597656" y="-3533.203125" width="1.098633" height="1.098633"/>
<image xlink:href="tile57_0.png" preserveAspectRatio="none" x="13662.597656" y="-3534.301758" width="1.098633" height="1.098633"/>
<image xlink:href="tile58_13.png" preserveAspectRatio="none" x="13663.696289" y="-3520.019531" width="1.098633" height="1.098633"/>
<image xlink:href="tile58_12.png" preserveAspectRatio="none" x="13663.696289" y="-3521.118164" width="1.098633" height="1.098633"/>
<image xlink:href="tile58_11.png" preserveAspectRatio="none" x="13663.696289" y="-3522.216797" width="1.098633" height="1.098633"/>
<image xlink:href="tile58_10.png" preserveAspectRatio="none" x="13663.696289" y="-3523.31543" width="1.098633" height="1.098633"/>
<image xlink:href="tile58_9.png" preserveAspectRatio="none" x="13663.696289" y="-3524.414062" width="1.098633" height="1.098633"/>
<image xlink:href="tile58_8.png" preserveAspectRatio="none" x="13663.696289" y="-3525.512695" width="1.098633" height="1.098633"/>
<image xlink:href="tile58_7.png" preserveAspectRatio="none" x="13663.696289" y="-3526.611328" width="1.098633" height="1.098633"/>
<image xlink:href="tile58_6.png" preserveAspectRatio="none" x="13663.696289" y="-3527.709961" width="1.098633" height="1.098633"/>
<image xlink:href="tile58_5.png" preserveAspectRatio="none" x="13663.696289" y="-3528.808594" width="1.098633" height="1.098633"/>
<image xlink:href="tile58_4.png" preserveAspectRatio="none" x="13663.696289" y="-3529.907227" width="1.098633" height="1.098633"/>
<image xlink:href="tile58_3.png" preserveAspectRatio="none" x="13663.696289" y="-3531.005859" width="1.098633" height="1.098633"/>
<image xlink:href="tile58_2.png" preserveAspectRatio="none" x="13663.696289" y="-3532.104492" width="1.098633" height="1.098633"/>
<image xlink:href="tile58_1.png" preserveAspectRatio="none" x="13663.696289" y="-3533.203125" width="1.098633" height="1.098633"/>
<image xlink:href="tile58_0.png" preserveAspectRatio="none" x="13663.696289" y="-3534.301758" width="1.098633" height="1.098633"/>
<image xlink:href="tile59_13.png" preserveAspectRatio="none" x="13664.794922" y="-3520.019531" width="1.098633" height="1.098633"/>
<image xlink:href="tile59_12.png" preserveAspectRatio="none" x="13664.794922" y="-3521.118164" width="1.098633" height="1.098633"/>
<image xlink:href="tile59_11.png" preserveAspectRatio="none" x="13664.794922" y="-3522.216797" width="1.098633" height="1.098633"/>
<image xlink:href="tile59_10.png" preserveAspectRatio="none" x="13664.794922" y="-3523.31543" width="1.098633" height="1.098633"/>
<image xlink:href="tile59_9.png" preserveAspectRatio="none" x="13664.794922" y="-3524.414062" width="1.098633" height="1.098633"/>
<image xlink:href="tile59_8.png" preserveAspectRatio="none" x="13664.794922" y="-3525.512695" width="1.098633" height="1.098633"/>
<image xlink:href="tile59_7.png" preserveAspectRatio="none" x="13664.794922" y="-3526.611328" width="1.098633" height="1.098633"/>
<image xlink:href="tile59_6.png" preserveAspectRatio="none" x="13664.794922" y="-3527.709961" width="1.098633" height="1.098633"/>
<image xlink:href="tile59_5.png" preserveAspectRatio="none" x="13664.794922" y="-3528.808594" width="1.098633" height="1.098633"/>
<image xlink:href="tile59_4.png" preserveAspectRatio="none" x="13664.794922" y="-3529.907227" width="1.098633" height="1.098633"/>
<image xlink:href="tile59_3.png" preserveAspectRatio="none" x="13664.794922" y="-3531.005859" width="1.098633" height="1.098633"/>
<image xlink:href="tile59_2.png" preserveAspectRatio="none" x="13664.794922" y="-3532.104492" width="1.098633" height="1.098633"/>
<image xlink:href="tile59_1.png" preserveAspectRatio="none" x="13664.794922" y="-3533.203125" width="1.098633" height="1.098633"/>
<image xlink:href="tile59_0.png" preserveAspectRatio="none" x="13664.794922" y="-3534.301758" width="1.098633" height="1.098633"/>
<image xlink:href="tile60_13.png" preserveAspectRatio="none" x="13665.893555" y="-3520.019531" width="1.098633" height="1.098633"/>
<image xlink:href="tile60_12.png" preserveAspectRatio="none" x="13665.893555" y="-3521.118164" width="1.098633" height="1.098633"/>
<image xlink:href="tile60_11.png" preserveAspectRatio="none" x="13665.893555" y="-3522.216797" width="1.098633" height="1.098633"/>
<image xlink:href="tile60_10.png" preserveAspectRatio="none" x="13665.893555" y="-3523.31543" width="1.098633" height="1.098633"/>
<image xlink:href="tile60_9.png" preserveAspectRatio="none" x="13665.893555" y="-3524.414062" width="1.098633" height="1.098633"/>
<image xlink:href="tile60_8.png" preserveAspectRatio="none" x="13665.893555" y="-3525.512695" width="1.098633" height="1.098633"/>
<image xlink:href="tile60_7.png" preserveAspectRatio="none" x="13665.893555" y="-3526.611328" width="1.098633" height="1.098633"/>
<image xlink:href="tile60_6.png" preserveAspectRatio="none" x="13665.893555" y="-3527.709961" width="1.098633" height="1.098633"/>
<image xlink:href="tile60_5.png" preserveAspectRatio="none" x="13665.893555" y="-3528.808594" width="1.098633" height="1.098633"/>
<image xlink:href="tile60_4.png" preserveAspectRatio="none" x="13665.893555" y="-3529.907227" width="1.098633" height="1.098633"/>
<image xlink:href="tile60_3.png" preserveAspectRatio="none" x="13665.893555" y="-3531.005859" width="1.098633" height="1.098633"/>
<image xlink:href="tile60_2.png" preserveAspectRatio="none" x="13665.893555" y="-3532.104492" width="1.098633" height="1.098633"/>
<image xlink:href="tile60_1.png" preserveAspectRatio="none" x="13665.893555" y="-3533.203125" width="1.098633" height="1.098633"/>
<image xlink:href="tile60_0.png" preserveAspectRatio="none" x="13665.893555" y="-3534.301758" width="1.098633" height="1.098633"/>
<image xlink:href="tile61_13.png" preserveAspectRatio="none" x="13666.992188" y="-3520.019531" width="1.098633" height="1.098633"/>
<image xlink:href="tile61_12.png" preserveAspectRatio="none" x="13666.992188" y="-3521.118164" width="1.098633" height="1.098633"/>
<image xlink:href="tile61_11.png" preserveAspectRatio="none" x="13666.992188" y="-3522.216797" width="1.098633" height="1.098633"/>
<image xlink:href="tile61_10.png" preserveAspectRatio="none" x="13666.992188" y="-3523.31543" width="1.098633" height="1.098633"/>
<image xlink:href="tile61_9.png" preserveAspectRatio="none" x="13666.992188" y="-3524.414062" width="1.098633" height="1.098633"/>
<image xlink:href="tile61_8.png" preserveAspectRatio="none" x="13666.992188" y="-3525.512695" width="1.098633" height="1.098633"/>
<image xlink:href="tile61_7.png" preserveAspectRatio="none" x="13666.992188" y="-3526.611328" width="1.098633" height="1.098633"/>
<image xlink:href="tile61_6.png" preserveAspectRatio="none" x="13666.992188" y="-3527.709961" width="1.098633" height="1.098633"/>
<image xlink:href="tile61_5.png" preserveAspectRatio="none" x="13666.992188" y="-3528.808594" width="1.098633" height="1.098633"/>
<image xlink:href="tile61_4.png" preserveAspectRatio="none" x="13666.992188" y="-3529.907227" width="1.098633" height="1.098633"/>
<image xlink:href="tile61_3.png" preserveAspectRatio="none" x="13666.992188" y="-3531.005859" width="1.098633" height="1.098633"/>
<image xlink:href="tile61_2.png" preserveAspectRatio="none" x="13666.992188" y="-3532.104492" width="1.098633" height="1.098633"/>
<image xlink:href="tile61_1.png" preserveAspectRatio="none" x="13666.992188" y="-3533.203125" width="1.098633" height="1.098633"/>
<image xlink:href="tile61_0.png" preserveAspectRatio="none" x="13666.992188" y="-3534.301758" width="1.098633" height="1.098633"/>
<image xlink:href="tile62_13.png" preserveAspectRatio="none" x="13668.09082" y="-3520.019531" width="1.098633" height="1.098633"/>
<image xlink:href="tile62_12.png" preserveAspectRatio="none" x="13668.09082" y="-3521.118164" width="1.098633" height="1.098633"/>
<image xlink:href="tile62_11.png" preserveAspectRatio="none" x="13668.09082" y="-3522.216797" width="1.098633" height="1.098633"/>
<image xlink:href="tile62_10.png" preserveAspectRatio="none" x="13668.09082" y="-3523.31543" width="1.098633" height="1.098633"/>
<image xlink:href="tile62_9.png" preserveAspectRatio="none" x="13668.09082" y="-3524.414062" width="1.098633" height="1.098633"/>
<image xlink:href="tile62_8.png" preserveAspectRatio="none" x="13668.09082" y="-3525.512695" width="1.098633" height="1.098633"/>
<image xlink:href="tile62_7.png" preserveAspectRatio="none" x="13668.09082" y="-3526.611328" width="1.098633" height="1.098633"/>
<image xlink:href="tile62_6.png" preserveAspectRatio="none" x="13668.09082" y="-3527.709961" width="1.098633" height="1.098633"/>
<image xlink:href="tile62_5.png" preserveAspectRatio="none" x="13668.09082" y="-3528.808594" width="1.098633" height="1.098633"/>
<image xlink:href="tile62_4.png" preserveAspectRatio="none" x="13668.09082" y="-3529.907227" width="1.098633" height="1.098633"/>
<image xlink:href="tile62_3.png" preserveAspectRatio="none" x="13668.09082" y="-3531.005859" width="1.098633" height="1.098633"/>
<image xlink:href="tile62_2.png" preserveAspectRatio="none" x="13668.09082" y="-3532.104492" width="1.098633" height="1.098633"/>
<image xlink:href="tile62_1.png" preserveAspectRatio="none" x="13668.09082" y="-3533.203125" width="1.098633" height="1.098633"/>
<image xlink:href="tile62_0.png" preserveAspectRatio="none" x="13668.09082" y="-3534.301758" width="1.098633" height="1.098633"/>
<image xlink:href="tile63_13.png" preserveAspectRatio="none" x="13669.189453" y="-3520.019531" width="1.098633" height="1.098633"/>
<image xlink:href="tile63_12.png" preserveAspectRatio="none" x="13669.189453" y="-3521.118164" width="1.098633" height="1.098633"/>
<image xlink:href="tile63_11.png" preserveAspectRatio="none" x="13669.189453" y="-3522.216797" width="1.098633" height="1.098633"/>
<image xlink:href="tile63_10.png" preserveAspectRatio="none" x="13669.189453" y="-3523.31543" width="1.098633" height="1.098633"/>
<image xlink:href="tile63_9.png" preserveAspectRatio="none" x="13669.189453" y="-3524.414062" width="1.098633" height="1.098633"/>
<image xlink:href="tile63_8.png" preserveAspectRatio="none" x="13669.189453" y="-3525.512695" width="1.098633" height="1.098633"/>
<image xlink:href="tile63_7.png" preserveAspectRatio="none" x="13669.189453" y="-3526.611328" width="1.098633" height="1.098633"/>
<image xlink:href="tile63_6.png" preserveAspectRatio="none" x="13669.189453" y="-3527.709961" width="1.098633" height="1.098633"/>
<image xlink:href="tile63_5.png" preserveAspectRatio="none" x="13669.189453" y="-3528.808594" width="1.098633" height="1.098633"/>
<image xlink:href="tile63_4.png" preserveAspectRatio="none" x="13669.189453" y="-3529.907227" width="1.098633" height="1.098633"/>
<image xlink:href="tile63_3.png" preserveAspectRatio="none" x="13669.189453" y="-3531.005859" width="1.098633" height="1.098633"/>
<image xlink:href="tile63_2.png" preserveAspectRatio="none" x="13669.189453" y="-3532.104492" width="1.098633" height="1.098633"/>
<image xlink:href="tile63_1.png" preserveAspectRatio="none" x="13669.189453" y="-3533.203125" width="1.098633" height="1.098633"/>
<image xlink:href="tile63_0.png" preserveAspectRatio="none" x="13669.189453" y="-3534.301758" width="1.098633" height="1.098633"/>
</g>
</svg>
