<?xml version="1.0" encoding="UTF-8"?>
<svg  xmlns="http://www.w3.org/2000/svg" xmlns:xlink="http://www.w3.org/1999/xlink" xmlns:go="http://purl.org/svgmap/profile" viewBox="13600.0 -3533.3333333 100.0 66.6666665000001" go:dataArea="13600.0 -3533.3333333 100.0 66.6666665000001" >
<metadata>
 <rdf:RDF xmlns:rdf="http://www.w3.org/1999/02/22-rdf-syntax-ns#" xmlns:crs="http://opengis.org/xmldtds/transformations.dtd" xmlns:svg="http://www.w3.org/svg" >
  <rdf:Description>
   <crs:CoordinateReferenceSystem rdf:resource="http://purl.org/crs/84" svg:transform="matrix(100.0,0.0,0.0,-100.0,0.0,0.0)" />
  </rdf:Description>
 </rdf:RDF>
</metadata>
<globalCoordinateSystem srsName="http://purl.org/crs/84" transform="matrix(100.0,0.0,0.0,-100.0,0.0,0.0)" />
<g >
<image xlink:href="tile80_13.png" preserveAspectRatio="none" x="13687.866211" y="-3520.019531" width="1.098633" height="1.098633"/>
<image xlink:href="tile80_12.png" preserveAspectRatio="none" x="13687.866211" y="-3521.118164" width="1.098633" height="1.098633"/>
<image xlink:href="tile80_11.png" preserveAspectRatio="none" x="13687.866211" y="-3522.216797" width="1.098633" height="1.098633"/>
<image xlink:href="tile80_10.png" preserveAspectRatio="none" x="13687.866211" y="-3523.31543" width="1.098633" height="1.098633"/>
<image xlink:href="tile80_9.png" preserveAspectRatio="none" x="13687.866211" y="-3524.414062" width="1.098633" height="1.098633"/>
<image xlink:href="tile80_8.png" preserveAspectRatio="none" x="13687.866211" y="-3525.512695" width="1.098633" height="1.098633"/>
<image xlink:href="tile80_7.png" preserveAspectRatio="none" x="13687.866211" y="-3526.611328" width="1.098633" height="1.098633"/>
<image xlink:href="tile80_6.png" preserveAspectRatio="none" x="13687.866211" y="-3527.709961" width="1.098633" height="1.098633"/>
<image xlink:href="tile80_5.png" preserveAspectRatio="none" x="13687.866211" y="-3528.808594" width="1.098633" height="1.098633"/>
<image xlink:href="tile80_4.png" preserveAspectRatio="none" x="13687.866211" y="-3529.907227" width="1.098633" height="1.098633"/>
<image xlink:href="tile80_3.png" preserveAspectRatio="none" x="13687.866211" y="-3531.005859" width="1.098633" height="1.098633"/>
<image xlink:href="tile80_2.png" preserveAspectRatio="none" x="13687.866211" y="-3532.104492" width="1.098633" height="1.098633"/>
<image xlink:href="tile80_1.png" preserveAspectRatio="none" x="13687.866211" y="-3533.203125" width="1.098633" height="1.098633"/>
<image xlink:href="tile80_0.png" preserveAspectRatio="none" x="13687.866211" y="-3534.301758" width="1.098633" height="1.098633"/>
<image xlink:href="tile81_13.png" preserveAspectRatio="none" x="13688.964844" y="-3520.019531" width="1.098633" height="1.098633"/>
<image xlink:href="tile81_12.png" preserveAspectRatio="none" x="13688.964844" y="-3521.118164" width="1.098633" height="1.098633"/>
<image xlink:href="tile81_11.png" preserveAspectRatio="none" x="13688.964844" y="-3522.216797" width="1.098633" height="1.098633"/>
<image xlink:href="tile81_10.png" preserveAspectRatio="none" x="13688.964844" y="-3523.31543" width="1.098633" height="1.098633"/>
<image xlink:href="tile81_9.png" preserveAspectRatio="none" x="13688.964844" y="-3524.414062" width="1.098633" height="1.098633"/>
<image xlink:href="tile81_8.png" preserveAspectRatio="none" x="13688.964844" y="-3525.512695" width="1.098633" height="1.098633"/>
<image xlink:href="tile81_7.png" preserveAspectRatio="none" x="13688.964844" y="-3526.611328" width="1.098633" height="1.098633"/>
<image xlink:href="tile81_6.png" preserveAspectRatio="none" x="13688.964844" y="-3527.709961" width="1.098633" height="1.098633"/>
<image xlink:href="tile81_5.png" preserveAspectRatio="none" x="13688.964844" y="-3528.808594" width="1.098633" height="1.098633"/>
<image xlink:href="tile81_4.png" preserveAspectRatio="none" x="13688.964844" y="-3529.907227" width="1.098633" height="1.098633"/>
<image xlink:href="tile81_3.png" preserveAspectRatio="none" x="13688.964844" y="-3531.005859" width="1.098633" height="1.098633"/>
<image xlink:href="tile81_2.png" preserveAspectRatio="none" x="13688.964844" y="-3532.104492" width="1.098633" height="1.098633"/>
<image xlink:href="tile81_1.png" preserveAspectRatio="none" x="13688.964844" y="-3533.203125" width="1.098633" height="1.098633"/>
<image xlink:href="tile81_0.png" preserveAspectRatio="none" x="13688.964844" y="-3534.301758" width="1.098633" height="1.098633"/>
<image xlink:href="tile82_13.png" preserveAspectRatio="none" x="13690.063477" y="-3520.019531" width="1.098633" height="1.098633"/>
<image xlink:href="tile82_12.png" preserveAspectRatio="none" x="13690.063477" y="-3521.118164" width="1.098633" height="1.098633"/>
<image xlink:href="tile82_11.png" preserveAspectRatio="none" x="13690.063477" y="-3522.216797" width="1.098633" height="1.098633"/>
<image xlink:href="tile82_10.png" preserveAspectRatio="none" x="13690.063477" y="-3523.31543" width="1.098633" height="1.098633"/>
<image xlink:href="tile82_9.png" preserveAspectRatio="none" x="13690.063477" y="-3524.414062" width="1.098633" height="1.098633"/>
<image xlink:href="tile82_8.png" preserveAspectRatio="none" x="13690.063477" y="-3525.512695" width="1.098633" height="1.098633"/>
<image xlink:href="tile82_7.png" preserveAspectRatio="none" x="13690.063477" y="-3526.611328" width="1.098633" height="1.098633"/>
<image xlink:href="tile82_2.png" preserveAspectRatio="none" x="13690.063477" y="-3532.104492" width="1.098633" height="1.098633"/>
<image xlink:href="tile82_1.png" preserveAspectRatio="none" x="13690.063477" y="-3533.203125" width="1.098633" height="1.098633"/>
<image xlink:href="tile82_0.png" preserveAspectRatio="none" x="13690.063477" y="-3534.301758" width="1.098633" height="1.098633"/>
<image xlink:href="tile83_13.png" preserveAspectRatio="none" x="13691.162109" y="-3520.019531" width="1.098633" height="1.098633"/>
<image xlink:href="tile83_12.png" preserveAspectRatio="none" x="13691.162109" y="-3521.118164" width="1.098633" height="1.098633"/>
<image xlink:href="tile83_11.png" preserveAspectRatio="none" x="13691.162109" y="-3522.216797" width="1.098633" height="1.098633"/>
<image xlink:href="tile83_10.png" preserveAspectRatio="none" x="13691.162109" y="-3523.31543" width="1.098633" height="1.098633"/>
<image xlink:href="tile83_9.png" preserveAspectRatio="none" x="13691.162109" y="-3524.414062" width="1.098633" height="1.098633"/>
<image xlink:href="tile83_8.png" preserveAspectRatio="none" x="13691.162109" y="-3525.512695" width="1.098633" height="1.098633"/>
<image xlink:href="tile83_7.png" preserveAspectRatio="none" x="13691.162109" y="-3526.611328" width="1.098633" height="1.098633"/>
<image xlink:href="tile83_6.png" preserveAspectRatio="none" x="13691.162109" y="-3527.709961" width="1.098633" height="1.098633"/>
<image xlink:href="tile84_13.png" preserveAspectRatio="none" x="13692.260742" y="-3520.019531" width="1.098633" height="1.098633"/>
<image xlink:href="tile84_12.png" preserveAspectRatio="none" x="13692.260742" y="-3521.118164" width="1.098633" height="1.098633"/>
<image xlink:href="tile84_11.png" preserveAspectRatio="none" x="13692.260742" y="-3522.216797" width="1.098633" height="1.098633"/>
<image xlink:href="tile84_10.png" preserveAspectRatio="none" x="13692.260742" y="-3523.31543" width="1.098633" height="1.098633"/>
<image xlink:href="tile84_9.png" preserveAspectRatio="none" x="13692.260742" y="-3524.414062" width="1.098633" height="1.098633"/>
<image xlink:href="tile84_8.png" preserveAspectRatio="none" x="13692.260742" y="-3525.512695" width="1.098633" height="1.098633"/>
<image xlink:href="tile84_7.png" preserveAspectRatio="none" x="13692.260742" y="-3526.611328" width="1.098633" height="1.098633"/>
<image xlink:href="tile84_6.png" preserveAspectRatio="none" x="13692.260742" y="-3527.709961" width="1.098633" height="1.098633"/>
<image xlink:href="tile85_13.png" preserveAspectRatio="none" x="13693.359375" y="-3520.019531" width="1.098633" height="1.098633"/>
<image xlink:href="tile85_12.png" preserveAspectRatio="none" x="13693.359375" y="-3521.118164" width="1.098633" height="1.098633"/>
<image xlink:href="tile85_11.png" preserveAspectRatio="none" x="13693.359375" y="-3522.216797" width="1.098633" height="1.098633"/>
<image xlink:href="tile85_10.png" preserveAspectRatio="none" x="13693.359375" y="-3523.31543" width="1.098633" height="1.098633"/>
<image xlink:href="tile85_9.png" preserveAspectRatio="none" x="13693.359375" y="-3524.414062" width="1.098633" height="1.098633"/>
<image xlink:href="tile85_8.png" preserveAspectRatio="none" x="13693.359375" y="-3525.512695" width="1.098633" height="1.098633"/>
<image xlink:href="tile85_7.png" preserveAspectRatio="none" x="13693.359375" y="-3526.611328" width="1.098633" height="1.098633"/>
<image xlink:href="tile85_6.png" preserveAspectRatio="none" x="13693.359375" y="-3527.709961" width="1.098633" height="1.098633"/>
<image xlink:href="tile86_13.png" preserveAspectRatio="none" x="13694.458008" y="-3520.019531" width="1.098633" height="1.098633"/>
<image xlink:href="tile86_12.png" preserveAspectRatio="none" x="13694.458008" y="-3521.118164" width="1.098633" height="1.098633"/>
<image xlink:href="tile86_11.png" preserveAspectRatio="none" x="13694.458008" y="-3522.216797" width="1.098633" height="1.098633"/>
<image xlink:href="tile86_10.png" preserveAspectRatio="none" x="13694.458008" y="-3523.31543" width="1.098633" height="1.098633"/>
<image xlink:href="tile86_9.png" preserveAspectRatio="none" x="13694.458008" y="-3524.414062" width="1.098633" height="1.098633"/>
<image xlink:href="tile86_8.png" preserveAspectRatio="none" x="13694.458008" y="-3525.512695" width="1.098633" height="1.098633"/>
<image xlink:href="tile86_7.png" preserveAspectRatio="none" x="13694.458008" y="-3526.611328" width="1.098633" height="1.098633"/>
<image xlink:href="tile86_6.png" preserveAspectRatio="none" x="13694.458008" y="-3527.709961" width="1.098633" height="1.098633"/>
<image xlink:href="tile86_5.png" preserveAspectRatio="none" x="13694.458008" y="-3528.808594" width="1.098633" height="1.098633"/>
<image xlink:href="tile87_13.png" preserveAspectRatio="none" x="13695.556641" y="-3520.019531" width="1.098633" height="1.098633"/>
<image xlink:href="tile87_12.png" preserveAspectRatio="none" x="13695.556641" y="-3521.118164" width="1.098633" height="1.098633"/>
<image xlink:href="tile87_11.png" preserveAspectRatio="none" x="13695.556641" y="-3522.216797" width="1.098633" height="1.098633"/>
<image xlink:href="tile87_10.png" preserveAspectRatio="none" x="13695.556641" y="-3523.31543" width="1.098633" height="1.098633"/>
<image xlink:href="tile87_9.png" preserveAspectRatio="none" x="13695.556641" y="-3524.414062" width="1.098633" height="1.098633"/>
<image xlink:href="tile87_8.png" preserveAspectRatio="none" x="13695.556641" y="-3525.512695" width="1.098633" height="1.098633"/>
<image xlink:href="tile87_7.png" preserveAspectRatio="none" x="13695.556641" y="-3526.611328" width="1.098633" height="1.098633"/>
<image xlink:href="tile87_6.png" preserveAspectRatio="none" x="13695.556641" y="-3527.709961" width="1.098633" height="1.098633"/>
<image xlink:href="tile88_13.png" preserveAspectRatio="none" x="13696.655273" y="-3520.019531" width="1.098633" height="1.098633"/>
<image xlink:href="tile88_12.png" preserveAspectRatio="none" x="13696.655273" y="-3521.118164" width="1.098633" height="1.098633"/>
<image xlink:href="tile88_11.png" preserveAspectRatio="none" x="13696.655273" y="-3522.216797" width="1.098633" height="1.098633"/>
<image xlink:href="tile88_10.png" preserveAspectRatio="none" x="13696.655273" y="-3523.31543" width="1.098633" height="1.098633"/>
<image xlink:href="tile88_9.png" preserveAspectRatio="none" x="13696.655273" y="-3524.414062" width="1.098633" height="1.098633"/>
<image xlink:href="tile88_8.png" preserveAspectRatio="none" x="13696.655273" y="-3525.512695" width="1.098633" height="1.098633"/>
<image xlink:href="tile88_7.png" preserveAspectRatio="none" x="13696.655273" y="-3526.611328" width="1.098633" height="1.098633"/>
<image xlink:href="tile88_6.png" preserveAspectRatio="none" x="13696.655273" y="-3527.709961" width="1.098633" height="1.098633"/>
<image xlink:href="tile89_13.png" preserveAspectRatio="none" x="13697.753906" y="-3520.019531" width="1.098633" height="1.098633"/>
<image xlink:href="tile89_12.png" preserveAspectRatio="none" x="13697.753906" y="-3521.118164" width="1.098633" height="1.098633"/>
<image xlink:href="tile89_10.png" preserveAspectRatio="none" x="13697.753906" y="-3523.31543" width="1.098633" height="1.098633"/>
<image xlink:href="tile89_9.png" preserveAspectRatio="none" x="13697.753906" y="-3524.414062" width="1.098633" height="1.098633"/>
<image xlink:href="tile89_8.png" preserveAspectRatio="none" x="13697.753906" y="-3525.512695" width="1.098633" height="1.098633"/>
<image xlink:href="tile89_7.png" preserveAspectRatio="none" x="13697.753906" y="-3526.611328" width="1.098633" height="1.098633"/>
<image xlink:href="tile89_6.png" preserveAspectRatio="none" x="13697.753906" y="-3527.709961" width="1.098633" height="1.098633"/>
<image xlink:href="tile89_5.png" preserveAspectRatio="none" x="13697.753906" y="-3528.808594" width="1.098633" height="1.098633"/>
<image xlink:href="tile90_13.png" preserveAspectRatio="none" x="13698.852539" y="-3520.019531" width="1.098633" height="1.098633"/>
<image xlink:href="tile90_12.png" preserveAspectRatio="none" x="13698.852539" y="-3521.118164" width="1.098633" height="1.098633"/>
<image xlink:href="tile90_10.png" preserveAspectRatio="none" x="13698.852539" y="-3523.31543" width="1.098633" height="1.098633"/>
<image xlink:href="tile90_9.png" preserveAspectRatio="none" x="13698.852539" y="-3524.414062" width="1.098633" height="1.098633"/>
<image xlink:href="tile90_8.png" preserveAspectRatio="none" x="13698.852539" y="-3525.512695" width="1.098633" height="1.098633"/>
<image xlink:href="tile90_7.png" preserveAspectRatio="none" x="13698.852539" y="-3526.611328" width="1.098633" height="1.098633"/>
<image xlink:href="tile90_6.png" preserveAspectRatio="none" x="13698.852539" y="-3527.709961" width="1.098633" height="1.098633"/>
<image xlink:href="tile90_5.png" preserveAspectRatio="none" x="13698.852539" y="-3528.808594" width="1.098633" height="1.098633"/>
<image xlink:href="tile90_4.png" preserveAspectRatio="none" x="13698.852539" y="-3529.907227" width="1.098633" height="1.098633"/>
<image xlink:href="tile91_13.png" preserveAspectRatio="none" x="13699.951172" y="-3520.019531" width="1.098633" height="1.098633"/>
<image xlink:href="tile91_12.png" preserveAspectRatio="none" x="13699.951172" y="-3521.118164" width="1.098633" height="1.098633"/>
<image xlink:href="tile91_9.png" preserveAspectRatio="none" x="13699.951172" y="-3524.414062" width="1.098633" height="1.098633"/>
<image xlink:href="tile91_8.png" preserveAspectRatio="none" x="13699.951172" y="-3525.512695" width="1.098633" height="1.098633"/>
<image xlink:href="tile91_7.png" preserveAspectRatio="none" x="13699.951172" y="-3526.611328" width="1.098633" height="1.098633"/>
</g>
</svg>
