<?xml version="1.0" encoding="UTF-8"?>
<svg  xmlns="http://www.w3.org/2000/svg" xmlns:xlink="http://www.w3.org/1999/xlink" xmlns:go="http://purl.org/svgmap/profile" viewBox="13785.937703299998 -3626.4582468999997 14.062296700001298 14.437505599999412" go:dataArea="13785.937703299998 -3626.4582468999997 14.062296700001298 14.437505599999412" >
<metadata>
 <rdf:RDF xmlns:rdf="http://www.w3.org/1999/02/22-rdf-syntax-ns#" xmlns:crs="http://opengis.org/xmldtds/transformations.dtd" xmlns:svg="http://www.w3.org/svg" >
  <rdf:Description>
   <crs:CoordinateReferenceSystem rdf:resource="http://purl.org/crs/84" svg:transform="matrix(100.0,0.0,0.0,-100.0,0.0,0.0)" />
  </rdf:Description>
 </rdf:RDF>
</metadata>
<globalCoordinateSystem srsName="http://purl.org/crs/84" transform="matrix(100.0,0.0,0.0,-100.0,0.0,0.0)" />
<g >
<image xlink:href="tile0_13.png" preserveAspectRatio="none" x="13785.644531" y="-3612.304688" width="1.098633" height="1.098633"/>
<image xlink:href="tile0_12.png" preserveAspectRatio="none" x="13785.644531" y="-3613.40332" width="1.098633" height="1.098633"/>
<image xlink:href="tile1_13.png" preserveAspectRatio="none" x="13786.743164" y="-3612.304688" width="1.098633" height="1.098633"/>
<image xlink:href="tile1_12.png" preserveAspectRatio="none" x="13786.743164" y="-3613.40332" width="1.098633" height="1.098633"/>
<image xlink:href="tile2_12.png" preserveAspectRatio="none" x="13787.841797" y="-3613.40332" width="1.098633" height="1.098633"/>
<image xlink:href="tile2_11.png" preserveAspectRatio="none" x="13787.841797" y="-3614.501953" width="1.098633" height="1.098633"/>
<image xlink:href="tile3_12.png" preserveAspectRatio="none" x="13788.94043" y="-3613.40332" width="1.098633" height="1.098633"/>
<image xlink:href="tile3_11.png" preserveAspectRatio="none" x="13788.94043" y="-3614.501953" width="1.098633" height="1.098633"/>
<image xlink:href="tile3_10.png" preserveAspectRatio="none" x="13788.94043" y="-3615.600586" width="1.098633" height="1.098633"/>
<image xlink:href="tile3_8.png" preserveAspectRatio="none" x="13788.94043" y="-3617.797852" width="1.098633" height="1.098633"/>
<image xlink:href="tile3_7.png" preserveAspectRatio="none" x="13788.94043" y="-3618.896484" width="1.098633" height="1.098633"/>
<image xlink:href="tile4_13.png" preserveAspectRatio="none" x="13790.039062" y="-3612.304688" width="1.098633" height="1.098633"/>
<image xlink:href="tile4_12.png" preserveAspectRatio="none" x="13790.039062" y="-3613.40332" width="1.098633" height="1.098633"/>
<image xlink:href="tile4_11.png" preserveAspectRatio="none" x="13790.039062" y="-3614.501953" width="1.098633" height="1.098633"/>
<image xlink:href="tile4_10.png" preserveAspectRatio="none" x="13790.039062" y="-3615.600586" width="1.098633" height="1.098633"/>
<image xlink:href="tile4_9.png" preserveAspectRatio="none" x="13790.039062" y="-3616.699219" width="1.098633" height="1.098633"/>
<image xlink:href="tile4_8.png" preserveAspectRatio="none" x="13790.039062" y="-3617.797852" width="1.098633" height="1.098633"/>
<image xlink:href="tile4_7.png" preserveAspectRatio="none" x="13790.039062" y="-3618.896484" width="1.098633" height="1.098633"/>
<image xlink:href="tile4_6.png" preserveAspectRatio="none" x="13790.039062" y="-3619.995117" width="1.098633" height="1.098633"/>
<image xlink:href="tile4_5.png" preserveAspectRatio="none" x="13790.039062" y="-3621.09375" width="1.098633" height="1.098633"/>
<image xlink:href="tile5_13.png" preserveAspectRatio="none" x="13791.137695" y="-3612.304688" width="1.098633" height="1.098633"/>
<image xlink:href="tile5_12.png" preserveAspectRatio="none" x="13791.137695" y="-3613.40332" width="1.098633" height="1.098633"/>
<image xlink:href="tile5_10.png" preserveAspectRatio="none" x="13791.137695" y="-3615.600586" width="1.098633" height="1.098633"/>
<image xlink:href="tile5_9.png" preserveAspectRatio="none" x="13791.137695" y="-3616.699219" width="1.098633" height="1.098633"/>
<image xlink:href="tile5_8.png" preserveAspectRatio="none" x="13791.137695" y="-3617.797852" width="1.098633" height="1.098633"/>
<image xlink:href="tile5_7.png" preserveAspectRatio="none" x="13791.137695" y="-3618.896484" width="1.098633" height="1.098633"/>
<image xlink:href="tile5_6.png" preserveAspectRatio="none" x="13791.137695" y="-3619.995117" width="1.098633" height="1.098633"/>
<image xlink:href="tile5_5.png" preserveAspectRatio="none" x="13791.137695" y="-3621.09375" width="1.098633" height="1.098633"/>
<image xlink:href="tile5_4.png" preserveAspectRatio="none" x="13791.137695" y="-3622.192383" width="1.098633" height="1.098633"/>
<image xlink:href="tile6_13.png" preserveAspectRatio="none" x="13792.236328" y="-3612.304688" width="1.098633" height="1.098633"/>
<image xlink:href="tile6_12.png" preserveAspectRatio="none" x="13792.236328" y="-3613.40332" width="1.098633" height="1.098633"/>
<image xlink:href="tile6_11.png" preserveAspectRatio="none" x="13792.236328" y="-3614.501953" width="1.098633" height="1.098633"/>
<image xlink:href="tile6_10.png" preserveAspectRatio="none" x="13792.236328" y="-3615.600586" width="1.098633" height="1.098633"/>
<image xlink:href="tile6_9.png" preserveAspectRatio="none" x="13792.236328" y="-3616.699219" width="1.098633" height="1.098633"/>
<image xlink:href="tile6_8.png" preserveAspectRatio="none" x="13792.236328" y="-3617.797852" width="1.098633" height="1.098633"/>
<image xlink:href="tile6_7.png" preserveAspectRatio="none" x="13792.236328" y="-3618.896484" width="1.098633" height="1.098633"/>
<image xlink:href="tile6_6.png" preserveAspectRatio="none" x="13792.236328" y="-3619.995117" width="1.098633" height="1.098633"/>
<image xlink:href="tile6_5.png" preserveAspectRatio="none" x="13792.236328" y="-3621.09375" width="1.098633" height="1.098633"/>
<image xlink:href="tile6_4.png" preserveAspectRatio="none" x="13792.236328" y="-3622.192383" width="1.098633" height="1.098633"/>
<image xlink:href="tile6_3.png" preserveAspectRatio="none" x="13792.236328" y="-3623.291016" width="1.098633" height="1.098633"/>
<image xlink:href="tile6_0.png" preserveAspectRatio="none" x="13792.236328" y="-3626.586914" width="1.098633" height="1.098633"/>
<image xlink:href="tile7_10.png" preserveAspectRatio="none" x="13793.334961" y="-3615.600586" width="1.098633" height="1.098633"/>
<image xlink:href="tile7_9.png" preserveAspectRatio="none" x="13793.334961" y="-3616.699219" width="1.098633" height="1.098633"/>
<image xlink:href="tile7_8.png" preserveAspectRatio="none" x="13793.334961" y="-3617.797852" width="1.098633" height="1.098633"/>
<image xlink:href="tile7_7.png" preserveAspectRatio="none" x="13793.334961" y="-3618.896484" width="1.098633" height="1.098633"/>
<image xlink:href="tile7_6.png" preserveAspectRatio="none" x="13793.334961" y="-3619.995117" width="1.098633" height="1.098633"/>
<image xlink:href="tile7_5.png" preserveAspectRatio="none" x="13793.334961" y="-3621.09375" width="1.098633" height="1.098633"/>
<image xlink:href="tile7_4.png" preserveAspectRatio="none" x="13793.334961" y="-3622.192383" width="1.098633" height="1.098633"/>
<image xlink:href="tile7_3.png" preserveAspectRatio="none" x="13793.334961" y="-3623.291016" width="1.098633" height="1.098633"/>
<image xlink:href="tile7_2.png" preserveAspectRatio="none" x="13793.334961" y="-3624.389648" width="1.098633" height="1.098633"/>
<image xlink:href="tile7_1.png" preserveAspectRatio="none" x="13793.334961" y="-3625.488281" width="1.098633" height="1.098633"/>
<image xlink:href="tile7_0.png" preserveAspectRatio="none" x="13793.334961" y="-3626.586914" width="1.098633" height="1.098633"/>
<image xlink:href="tile8_9.png" preserveAspectRatio="none" x="13794.433594" y="-3616.699219" width="1.098633" height="1.098633"/>
<image xlink:href="tile8_8.png" preserveAspectRatio="none" x="13794.433594" y="-3617.797852" width="1.098633" height="1.098633"/>
<image xlink:href="tile8_7.png" preserveAspectRatio="none" x="13794.433594" y="-3618.896484" width="1.098633" height="1.098633"/>
<image xlink:href="tile8_6.png" preserveAspectRatio="none" x="13794.433594" y="-3619.995117" width="1.098633" height="1.098633"/>
<image xlink:href="tile8_5.png" preserveAspectRatio="none" x="13794.433594" y="-3621.09375" width="1.098633" height="1.098633"/>
<image xlink:href="tile8_4.png" preserveAspectRatio="none" x="13794.433594" y="-3622.192383" width="1.098633" height="1.098633"/>
<image xlink:href="tile8_3.png" preserveAspectRatio="none" x="13794.433594" y="-3623.291016" width="1.098633" height="1.098633"/>
<image xlink:href="tile8_2.png" preserveAspectRatio="none" x="13794.433594" y="-3624.389648" width="1.098633" height="1.098633"/>
<image xlink:href="tile8_1.png" preserveAspectRatio="none" x="13794.433594" y="-3625.488281" width="1.098633" height="1.098633"/>
<image xlink:href="tile8_0.png" preserveAspectRatio="none" x="13794.433594" y="-3626.586914" width="1.098633" height="1.098633"/>
<image xlink:href="tile9_3.png" preserveAspectRatio="none" x="13795.532227" y="-3623.291016" width="1.098633" height="1.098633"/>
<image xlink:href="tile10_8.png" preserveAspectRatio="none" x="13796.630859" y="-3617.797852" width="1.098633" height="1.098633"/>
<image xlink:href="tile10_7.png" preserveAspectRatio="none" x="13796.630859" y="-3618.896484" width="1.098633" height="1.098633"/>
<image xlink:href="tile10_6.png" preserveAspectRatio="none" x="13796.630859" y="-3619.995117" width="1.098633" height="1.098633"/>
<image xlink:href="tile10_5.png" preserveAspectRatio="none" x="13796.630859" y="-3621.09375" width="1.098633" height="1.098633"/>
<image xlink:href="tile10_4.png" preserveAspectRatio="none" x="13796.630859" y="-3622.192383" width="1.098633" height="1.098633"/>
<image xlink:href="tile10_3.png" preserveAspectRatio="none" x="13796.630859" y="-3623.291016" width="1.098633" height="1.098633"/>
<image xlink:href="tile11_8.png" preserveAspectRatio="none" x="13797.729492" y="-3617.797852" width="1.098633" height="1.098633"/>
<image xlink:href="tile11_7.png" preserveAspectRatio="none" x="13797.729492" y="-3618.896484" width="1.098633" height="1.098633"/>
<image xlink:href="tile11_6.png" preserveAspectRatio="none" x="13797.729492" y="-3619.995117" width="1.098633" height="1.098633"/>
<image xlink:href="tile11_5.png" preserveAspectRatio="none" x="13797.729492" y="-3621.09375" width="1.098633" height="1.098633"/>
<image xlink:href="tile11_4.png" preserveAspectRatio="none" x="13797.729492" y="-3622.192383" width="1.098633" height="1.098633"/>
<image xlink:href="tile12_8.png" preserveAspectRatio="none" x="13798.828125" y="-3617.797852" width="1.098633" height="1.098633"/>
<image xlink:href="tile12_7.png" preserveAspectRatio="none" x="13798.828125" y="-3618.896484" width="1.098633" height="1.098633"/>
<image xlink:href="tile12_6.png" preserveAspectRatio="none" x="13798.828125" y="-3619.995117" width="1.098633" height="1.098633"/>
<image xlink:href="tile13_8.png" preserveAspectRatio="none" x="13799.926758" y="-3617.797852" width="1.098633" height="1.098633"/>
</g>
</svg>
