<?xml version="1.0" encoding="UTF-8"?>
<svg  xmlns="http://www.w3.org/2000/svg" xmlns:xlink="http://www.w3.org/1999/xlink" xmlns:go="http://purl.org/svgmap/profile" viewBox="14100.0 -4333.3333330000005 100.0 66.66666630000009" go:dataArea="14100.0 -4333.3333330000005 100.0 66.66666630000009" >
<metadata>
 <rdf:RDF xmlns:rdf="http://www.w3.org/1999/02/22-rdf-syntax-ns#" xmlns:crs="http://opengis.org/xmldtds/transformations.dtd" xmlns:svg="http://www.w3.org/svg" >
  <rdf:Description>
   <crs:CoordinateReferenceSystem rdf:resource="http://purl.org/crs/84" svg:transform="matrix(100.0,0.0,0.0,-100.0,0.0,0.0)" />
  </rdf:Description>
 </rdf:RDF>
</metadata>
<globalCoordinateSystem srsName="http://purl.org/crs/84" transform="matrix(100.0,0.0,0.0,-100.0,0.0,0.0)" />
<g >
<image xlink:href="tile64_13.png" preserveAspectRatio="none" x="14170.166016" y="-4319.824219" width="1.098633" height="1.098633"/>
<image xlink:href="tile64_12.png" preserveAspectRatio="none" x="14170.166016" y="-4320.922852" width="1.098633" height="1.098633"/>
<image xlink:href="tile64_11.png" preserveAspectRatio="none" x="14170.166016" y="-4322.021484" width="1.098633" height="1.098633"/>
<image xlink:href="tile64_10.png" preserveAspectRatio="none" x="14170.166016" y="-4323.120117" width="1.098633" height="1.098633"/>
<image xlink:href="tile64_9.png" preserveAspectRatio="none" x="14170.166016" y="-4324.21875" width="1.098633" height="1.098633"/>
<image xlink:href="tile64_8.png" preserveAspectRatio="none" x="14170.166016" y="-4325.317383" width="1.098633" height="1.098633"/>
<image xlink:href="tile64_7.png" preserveAspectRatio="none" x="14170.166016" y="-4326.416016" width="1.098633" height="1.098633"/>
<image xlink:href="tile64_6.png" preserveAspectRatio="none" x="14170.166016" y="-4327.514648" width="1.098633" height="1.098633"/>
<image xlink:href="tile64_5.png" preserveAspectRatio="none" x="14170.166016" y="-4328.613281" width="1.098633" height="1.098633"/>
<image xlink:href="tile64_4.png" preserveAspectRatio="none" x="14170.166016" y="-4329.711914" width="1.098633" height="1.098633"/>
<image xlink:href="tile64_3.png" preserveAspectRatio="none" x="14170.166016" y="-4330.810547" width="1.098633" height="1.098633"/>
<image xlink:href="tile64_2.png" preserveAspectRatio="none" x="14170.166016" y="-4331.90918" width="1.098633" height="1.098633"/>
<image xlink:href="tile64_1.png" preserveAspectRatio="none" x="14170.166016" y="-4333.007812" width="1.098633" height="1.098633"/>
<image xlink:href="tile64_0.png" preserveAspectRatio="none" x="14170.166016" y="-4334.106445" width="1.098633" height="1.098633"/>
<image xlink:href="tile65_13.png" preserveAspectRatio="none" x="14171.264648" y="-4319.824219" width="1.098633" height="1.098633"/>
<image xlink:href="tile65_12.png" preserveAspectRatio="none" x="14171.264648" y="-4320.922852" width="1.098633" height="1.098633"/>
<image xlink:href="tile65_11.png" preserveAspectRatio="none" x="14171.264648" y="-4322.021484" width="1.098633" height="1.098633"/>
<image xlink:href="tile65_10.png" preserveAspectRatio="none" x="14171.264648" y="-4323.120117" width="1.098633" height="1.098633"/>
<image xlink:href="tile65_9.png" preserveAspectRatio="none" x="14171.264648" y="-4324.21875" width="1.098633" height="1.098633"/>
<image xlink:href="tile65_8.png" preserveAspectRatio="none" x="14171.264648" y="-4325.317383" width="1.098633" height="1.098633"/>
<image xlink:href="tile65_7.png" preserveAspectRatio="none" x="14171.264648" y="-4326.416016" width="1.098633" height="1.098633"/>
<image xlink:href="tile65_6.png" preserveAspectRatio="none" x="14171.264648" y="-4327.514648" width="1.098633" height="1.098633"/>
<image xlink:href="tile65_5.png" preserveAspectRatio="none" x="14171.264648" y="-4328.613281" width="1.098633" height="1.098633"/>
<image xlink:href="tile65_4.png" preserveAspectRatio="none" x="14171.264648" y="-4329.711914" width="1.098633" height="1.098633"/>
<image xlink:href="tile65_3.png" preserveAspectRatio="none" x="14171.264648" y="-4330.810547" width="1.098633" height="1.098633"/>
<image xlink:href="tile65_2.png" preserveAspectRatio="none" x="14171.264648" y="-4331.90918" width="1.098633" height="1.098633"/>
<image xlink:href="tile65_1.png" preserveAspectRatio="none" x="14171.264648" y="-4333.007812" width="1.098633" height="1.098633"/>
<image xlink:href="tile65_0.png" preserveAspectRatio="none" x="14171.264648" y="-4334.106445" width="1.098633" height="1.098633"/>
<image xlink:href="tile66_13.png" preserveAspectRatio="none" x="14172.363281" y="-4319.824219" width="1.098633" height="1.098633"/>
<image xlink:href="tile66_12.png" preserveAspectRatio="none" x="14172.363281" y="-4320.922852" width="1.098633" height="1.098633"/>
<image xlink:href="tile66_11.png" preserveAspectRatio="none" x="14172.363281" y="-4322.021484" width="1.098633" height="1.098633"/>
<image xlink:href="tile66_10.png" preserveAspectRatio="none" x="14172.363281" y="-4323.120117" width="1.098633" height="1.098633"/>
<image xlink:href="tile66_9.png" preserveAspectRatio="none" x="14172.363281" y="-4324.21875" width="1.098633" height="1.098633"/>
<image xlink:href="tile66_8.png" preserveAspectRatio="none" x="14172.363281" y="-4325.317383" width="1.098633" height="1.098633"/>
<image xlink:href="tile66_7.png" preserveAspectRatio="none" x="14172.363281" y="-4326.416016" width="1.098633" height="1.098633"/>
<image xlink:href="tile66_6.png" preserveAspectRatio="none" x="14172.363281" y="-4327.514648" width="1.098633" height="1.098633"/>
<image xlink:href="tile66_5.png" preserveAspectRatio="none" x="14172.363281" y="-4328.613281" width="1.098633" height="1.098633"/>
<image xlink:href="tile66_4.png" preserveAspectRatio="none" x="14172.363281" y="-4329.711914" width="1.098633" height="1.098633"/>
<image xlink:href="tile66_3.png" preserveAspectRatio="none" x="14172.363281" y="-4330.810547" width="1.098633" height="1.098633"/>
<image xlink:href="tile66_2.png" preserveAspectRatio="none" x="14172.363281" y="-4331.90918" width="1.098633" height="1.098633"/>
<image xlink:href="tile66_1.png" preserveAspectRatio="none" x="14172.363281" y="-4333.007812" width="1.098633" height="1.098633"/>
<image xlink:href="tile66_0.png" preserveAspectRatio="none" x="14172.363281" y="-4334.106445" width="1.098633" height="1.098633"/>
<image xlink:href="tile67_13.png" preserveAspectRatio="none" x="14173.461914" y="-4319.824219" width="1.098633" height="1.098633"/>
<image xlink:href="tile67_12.png" preserveAspectRatio="none" x="14173.461914" y="-4320.922852" width="1.098633" height="1.098633"/>
<image xlink:href="tile67_11.png" preserveAspectRatio="none" x="14173.461914" y="-4322.021484" width="1.098633" height="1.098633"/>
<image xlink:href="tile67_10.png" preserveAspectRatio="none" x="14173.461914" y="-4323.120117" width="1.098633" height="1.098633"/>
<image xlink:href="tile67_9.png" preserveAspectRatio="none" x="14173.461914" y="-4324.21875" width="1.098633" height="1.098633"/>
<image xlink:href="tile67_8.png" preserveAspectRatio="none" x="14173.461914" y="-4325.317383" width="1.098633" height="1.098633"/>
<image xlink:href="tile67_7.png" preserveAspectRatio="none" x="14173.461914" y="-4326.416016" width="1.098633" height="1.098633"/>
<image xlink:href="tile67_6.png" preserveAspectRatio="none" x="14173.461914" y="-4327.514648" width="1.098633" height="1.098633"/>
<image xlink:href="tile67_5.png" preserveAspectRatio="none" x="14173.461914" y="-4328.613281" width="1.098633" height="1.098633"/>
<image xlink:href="tile67_4.png" preserveAspectRatio="none" x="14173.461914" y="-4329.711914" width="1.098633" height="1.098633"/>
<image xlink:href="tile67_3.png" preserveAspectRatio="none" x="14173.461914" y="-4330.810547" width="1.098633" height="1.098633"/>
<image xlink:href="tile67_2.png" preserveAspectRatio="none" x="14173.461914" y="-4331.90918" width="1.098633" height="1.098633"/>
<image xlink:href="tile67_1.png" preserveAspectRatio="none" x="14173.461914" y="-4333.007812" width="1.098633" height="1.098633"/>
<image xlink:href="tile67_0.png" preserveAspectRatio="none" x="14173.461914" y="-4334.106445" width="1.098633" height="1.098633"/>
<image xlink:href="tile68_13.png" preserveAspectRatio="none" x="14174.560547" y="-4319.824219" width="1.098633" height="1.098633"/>
<image xlink:href="tile68_12.png" preserveAspectRatio="none" x="14174.560547" y="-4320.922852" width="1.098633" height="1.098633"/>
<image xlink:href="tile68_11.png" preserveAspectRatio="none" x="14174.560547" y="-4322.021484" width="1.098633" height="1.098633"/>
<image xlink:href="tile68_10.png" preserveAspectRatio="none" x="14174.560547" y="-4323.120117" width="1.098633" height="1.098633"/>
<image xlink:href="tile68_9.png" preserveAspectRatio="none" x="14174.560547" y="-4324.21875" width="1.098633" height="1.098633"/>
<image xlink:href="tile68_8.png" preserveAspectRatio="none" x="14174.560547" y="-4325.317383" width="1.098633" height="1.098633"/>
<image xlink:href="tile68_7.png" preserveAspectRatio="none" x="14174.560547" y="-4326.416016" width="1.098633" height="1.098633"/>
<image xlink:href="tile68_6.png" preserveAspectRatio="none" x="14174.560547" y="-4327.514648" width="1.098633" height="1.098633"/>
<image xlink:href="tile68_5.png" preserveAspectRatio="none" x="14174.560547" y="-4328.613281" width="1.098633" height="1.098633"/>
<image xlink:href="tile68_4.png" preserveAspectRatio="none" x="14174.560547" y="-4329.711914" width="1.098633" height="1.098633"/>
<image xlink:href="tile68_3.png" preserveAspectRatio="none" x="14174.560547" y="-4330.810547" width="1.098633" height="1.098633"/>
<image xlink:href="tile68_2.png" preserveAspectRatio="none" x="14174.560547" y="-4331.90918" width="1.098633" height="1.098633"/>
<image xlink:href="tile68_1.png" preserveAspectRatio="none" x="14174.560547" y="-4333.007812" width="1.098633" height="1.098633"/>
<image xlink:href="tile68_0.png" preserveAspectRatio="none" x="14174.560547" y="-4334.106445" width="1.098633" height="1.098633"/>
<image xlink:href="tile69_13.png" preserveAspectRatio="none" x="14175.65918" y="-4319.824219" width="1.098633" height="1.098633"/>
<image xlink:href="tile69_12.png" preserveAspectRatio="none" x="14175.65918" y="-4320.922852" width="1.098633" height="1.098633"/>
<image xlink:href="tile69_11.png" preserveAspectRatio="none" x="14175.65918" y="-4322.021484" width="1.098633" height="1.098633"/>
<image xlink:href="tile69_10.png" preserveAspectRatio="none" x="14175.65918" y="-4323.120117" width="1.098633" height="1.098633"/>
<image xlink:href="tile69_9.png" preserveAspectRatio="none" x="14175.65918" y="-4324.21875" width="1.098633" height="1.098633"/>
<image xlink:href="tile69_8.png" preserveAspectRatio="none" x="14175.65918" y="-4325.317383" width="1.098633" height="1.098633"/>
<image xlink:href="tile69_7.png" preserveAspectRatio="none" x="14175.65918" y="-4326.416016" width="1.098633" height="1.098633"/>
<image xlink:href="tile69_5.png" preserveAspectRatio="none" x="14175.65918" y="-4328.613281" width="1.098633" height="1.098633"/>
<image xlink:href="tile69_4.png" preserveAspectRatio="none" x="14175.65918" y="-4329.711914" width="1.098633" height="1.098633"/>
<image xlink:href="tile69_3.png" preserveAspectRatio="none" x="14175.65918" y="-4330.810547" width="1.098633" height="1.098633"/>
<image xlink:href="tile69_2.png" preserveAspectRatio="none" x="14175.65918" y="-4331.90918" width="1.098633" height="1.098633"/>
<image xlink:href="tile69_1.png" preserveAspectRatio="none" x="14175.65918" y="-4333.007812" width="1.098633" height="1.098633"/>
<image xlink:href="tile69_0.png" preserveAspectRatio="none" x="14175.65918" y="-4334.106445" width="1.098633" height="1.098633"/>
<image xlink:href="tile70_13.png" preserveAspectRatio="none" x="14176.757812" y="-4319.824219" width="1.098633" height="1.098633"/>
<image xlink:href="tile70_12.png" preserveAspectRatio="none" x="14176.757812" y="-4320.922852" width="1.098633" height="1.098633"/>
<image xlink:href="tile70_11.png" preserveAspectRatio="none" x="14176.757812" y="-4322.021484" width="1.098633" height="1.098633"/>
<image xlink:href="tile70_10.png" preserveAspectRatio="none" x="14176.757812" y="-4323.120117" width="1.098633" height="1.098633"/>
<image xlink:href="tile70_9.png" preserveAspectRatio="none" x="14176.757812" y="-4324.21875" width="1.098633" height="1.098633"/>
<image xlink:href="tile70_8.png" preserveAspectRatio="none" x="14176.757812" y="-4325.317383" width="1.098633" height="1.098633"/>
<image xlink:href="tile70_7.png" preserveAspectRatio="none" x="14176.757812" y="-4326.416016" width="1.098633" height="1.098633"/>
<image xlink:href="tile70_6.png" preserveAspectRatio="none" x="14176.757812" y="-4327.514648" width="1.098633" height="1.098633"/>
<image xlink:href="tile70_5.png" preserveAspectRatio="none" x="14176.757812" y="-4328.613281" width="1.098633" height="1.098633"/>
<image xlink:href="tile70_4.png" preserveAspectRatio="none" x="14176.757812" y="-4329.711914" width="1.098633" height="1.098633"/>
<image xlink:href="tile70_3.png" preserveAspectRatio="none" x="14176.757812" y="-4330.810547" width="1.098633" height="1.098633"/>
<image xlink:href="tile70_2.png" preserveAspectRatio="none" x="14176.757812" y="-4331.90918" width="1.098633" height="1.098633"/>
<image xlink:href="tile70_1.png" preserveAspectRatio="none" x="14176.757812" y="-4333.007812" width="1.098633" height="1.098633"/>
<image xlink:href="tile70_0.png" preserveAspectRatio="none" x="14176.757812" y="-4334.106445" width="1.098633" height="1.098633"/>
<image xlink:href="tile71_13.png" preserveAspectRatio="none" x="14177.856445" y="-4319.824219" width="1.098633" height="1.098633"/>
<image xlink:href="tile71_12.png" preserveAspectRatio="none" x="14177.856445" y="-4320.922852" width="1.098633" height="1.098633"/>
<image xlink:href="tile71_11.png" preserveAspectRatio="none" x="14177.856445" y="-4322.021484" width="1.098633" height="1.098633"/>
<image xlink:href="tile71_10.png" preserveAspectRatio="none" x="14177.856445" y="-4323.120117" width="1.098633" height="1.098633"/>
<image xlink:href="tile71_9.png" preserveAspectRatio="none" x="14177.856445" y="-4324.21875" width="1.098633" height="1.098633"/>
<image xlink:href="tile71_8.png" preserveAspectRatio="none" x="14177.856445" y="-4325.317383" width="1.098633" height="1.098633"/>
<image xlink:href="tile71_7.png" preserveAspectRatio="none" x="14177.856445" y="-4326.416016" width="1.098633" height="1.098633"/>
<image xlink:href="tile71_6.png" preserveAspectRatio="none" x="14177.856445" y="-4327.514648" width="1.098633" height="1.098633"/>
<image xlink:href="tile71_5.png" preserveAspectRatio="none" x="14177.856445" y="-4328.613281" width="1.098633" height="1.098633"/>
<image xlink:href="tile71_4.png" preserveAspectRatio="none" x="14177.856445" y="-4329.711914" width="1.098633" height="1.098633"/>
<image xlink:href="tile71_3.png" preserveAspectRatio="none" x="14177.856445" y="-4330.810547" width="1.098633" height="1.098633"/>
<image xlink:href="tile71_2.png" preserveAspectRatio="none" x="14177.856445" y="-4331.90918" width="1.098633" height="1.098633"/>
<image xlink:href="tile71_1.png" preserveAspectRatio="none" x="14177.856445" y="-4333.007812" width="1.098633" height="1.098633"/>
<image xlink:href="tile71_0.png" preserveAspectRatio="none" x="14177.856445" y="-4334.106445" width="1.098633" height="1.098633"/>
<image xlink:href="tile72_13.png" preserveAspectRatio="none" x="14178.955078" y="-4319.824219" width="1.098633" height="1.098633"/>
<image xlink:href="tile72_12.png" preserveAspectRatio="none" x="14178.955078" y="-4320.922852" width="1.098633" height="1.098633"/>
<image xlink:href="tile72_10.png" preserveAspectRatio="none" x="14178.955078" y="-4323.120117" width="1.098633" height="1.098633"/>
<image xlink:href="tile72_9.png" preserveAspectRatio="none" x="14178.955078" y="-4324.21875" width="1.098633" height="1.098633"/>
<image xlink:href="tile72_8.png" preserveAspectRatio="none" x="14178.955078" y="-4325.317383" width="1.098633" height="1.098633"/>
<image xlink:href="tile72_7.png" preserveAspectRatio="none" x="14178.955078" y="-4326.416016" width="1.098633" height="1.098633"/>
<image xlink:href="tile72_6.png" preserveAspectRatio="none" x="14178.955078" y="-4327.514648" width="1.098633" height="1.098633"/>
<image xlink:href="tile72_5.png" preserveAspectRatio="none" x="14178.955078" y="-4328.613281" width="1.098633" height="1.098633"/>
<image xlink:href="tile72_3.png" preserveAspectRatio="none" x="14178.955078" y="-4330.810547" width="1.098633" height="1.098633"/>
<image xlink:href="tile72_2.png" preserveAspectRatio="none" x="14178.955078" y="-4331.90918" width="1.098633" height="1.098633"/>
<image xlink:href="tile72_1.png" preserveAspectRatio="none" x="14178.955078" y="-4333.007812" width="1.098633" height="1.098633"/>
<image xlink:href="tile72_0.png" preserveAspectRatio="none" x="14178.955078" y="-4334.106445" width="1.098633" height="1.098633"/>
<image xlink:href="tile73_10.png" preserveAspectRatio="none" x="14180.053711" y="-4323.120117" width="1.098633" height="1.098633"/>
<image xlink:href="tile73_9.png" preserveAspectRatio="none" x="14180.053711" y="-4324.21875" width="1.098633" height="1.098633"/>
<image xlink:href="tile73_8.png" preserveAspectRatio="none" x="14180.053711" y="-4325.317383" width="1.098633" height="1.098633"/>
<image xlink:href="tile73_7.png" preserveAspectRatio="none" x="14180.053711" y="-4326.416016" width="1.098633" height="1.098633"/>
<image xlink:href="tile73_6.png" preserveAspectRatio="none" x="14180.053711" y="-4327.514648" width="1.098633" height="1.098633"/>
<image xlink:href="tile73_3.png" preserveAspectRatio="none" x="14180.053711" y="-4330.810547" width="1.098633" height="1.098633"/>
<image xlink:href="tile73_2.png" preserveAspectRatio="none" x="14180.053711" y="-4331.90918" width="1.098633" height="1.098633"/>
<image xlink:href="tile73_1.png" preserveAspectRatio="none" x="14180.053711" y="-4333.007812" width="1.098633" height="1.098633"/>
<image xlink:href="tile73_0.png" preserveAspectRatio="none" x="14180.053711" y="-4334.106445" width="1.098633" height="1.098633"/>
<image xlink:href="tile74_10.png" preserveAspectRatio="none" x="14181.152344" y="-4323.120117" width="1.098633" height="1.098633"/>
<image xlink:href="tile74_9.png" preserveAspectRatio="none" x="14181.152344" y="-4324.21875" width="1.098633" height="1.098633"/>
<image xlink:href="tile74_8.png" preserveAspectRatio="none" x="14181.152344" y="-4325.317383" width="1.098633" height="1.098633"/>
<image xlink:href="tile74_3.png" preserveAspectRatio="none" x="14181.152344" y="-4330.810547" width="1.098633" height="1.098633"/>
<image xlink:href="tile74_2.png" preserveAspectRatio="none" x="14181.152344" y="-4331.90918" width="1.098633" height="1.098633"/>
<image xlink:href="tile74_1.png" preserveAspectRatio="none" x="14181.152344" y="-4333.007812" width="1.098633" height="1.098633"/>
<image xlink:href="tile74_0.png" preserveAspectRatio="none" x="14181.152344" y="-4334.106445" width="1.098633" height="1.098633"/>
<image xlink:href="tile75_10.png" preserveAspectRatio="none" x="14182.250977" y="-4323.120117" width="1.098633" height="1.098633"/>
<image xlink:href="tile75_9.png" preserveAspectRatio="none" x="14182.250977" y="-4324.21875" width="1.098633" height="1.098633"/>
<image xlink:href="tile75_8.png" preserveAspectRatio="none" x="14182.250977" y="-4325.317383" width="1.098633" height="1.098633"/>
<image xlink:href="tile75_2.png" preserveAspectRatio="none" x="14182.250977" y="-4331.90918" width="1.098633" height="1.098633"/>
<image xlink:href="tile75_0.png" preserveAspectRatio="none" x="14182.250977" y="-4334.106445" width="1.098633" height="1.098633"/>
<image xlink:href="tile76_9.png" preserveAspectRatio="none" x="14183.349609" y="-4324.21875" width="1.098633" height="1.098633"/>
<image xlink:href="tile76_8.png" preserveAspectRatio="none" x="14183.349609" y="-4325.317383" width="1.098633" height="1.098633"/>
<image xlink:href="tile77_9.png" preserveAspectRatio="none" x="14184.448242" y="-4324.21875" width="1.098633" height="1.098633"/>
<image xlink:href="tile77_8.png" preserveAspectRatio="none" x="14184.448242" y="-4325.317383" width="1.098633" height="1.098633"/>
<image xlink:href="tile78_9.png" preserveAspectRatio="none" x="14185.546875" y="-4324.21875" width="1.098633" height="1.098633"/>
<image xlink:href="tile78_8.png" preserveAspectRatio="none" x="14185.546875" y="-4325.317383" width="1.098633" height="1.098633"/>
<image xlink:href="tile79_9.png" preserveAspectRatio="none" x="14186.645508" y="-4324.21875" width="1.098633" height="1.098633"/>
<image xlink:href="tile79_8.png" preserveAspectRatio="none" x="14186.645508" y="-4325.317383" width="1.098633" height="1.098633"/>
</g>
</svg>
