<?xml version="1.0" encoding="UTF-8"?>
<svg  xmlns="http://www.w3.org/2000/svg" xmlns:xlink="http://www.w3.org/1999/xlink" xmlns:go="http://purl.org/svgmap/profile" viewBox="14100.0 -4333.3333330000005 100.0 66.66666630000009" go:dataArea="14100.0 -4333.3333330000005 100.0 66.66666630000009" >
<metadata>
 <rdf:RDF xmlns:rdf="http://www.w3.org/1999/02/22-rdf-syntax-ns#" xmlns:crs="http://opengis.org/xmldtds/transformations.dtd" xmlns:svg="http://www.w3.org/svg" >
  <rdf:Description>
   <crs:CoordinateReferenceSystem rdf:resource="http://purl.org/crs/84" svg:transform="matrix(100.0,0.0,0.0,-100.0,0.0,0.0)" />
  </rdf:Description>
 </rdf:RDF>
</metadata>
<globalCoordinateSystem srsName="http://purl.org/crs/84" transform="matrix(100.0,0.0,0.0,-100.0,0.0,0.0)" />
<g >
<image xlink:href="tile80_9.png" preserveAspectRatio="none" x="14187.744141" y="-4324.21875" width="1.098633" height="1.098633"/>
<image xlink:href="tile80_8.png" preserveAspectRatio="none" x="14187.744141" y="-4325.317383" width="1.098633" height="1.098633"/>
<image xlink:href="tile81_8.png" preserveAspectRatio="none" x="14188.842773" y="-4325.317383" width="1.098633" height="1.098633"/>
<image xlink:href="tile82_8.png" preserveAspectRatio="none" x="14189.941406" y="-4325.317383" width="1.098633" height="1.098633"/>
<image xlink:href="tile82_7.png" preserveAspectRatio="none" x="14189.941406" y="-4326.416016" width="1.098633" height="1.098633"/>
<image xlink:href="tile83_8.png" preserveAspectRatio="none" x="14191.040039" y="-4325.317383" width="1.098633" height="1.098633"/>
<image xlink:href="tile83_7.png" preserveAspectRatio="none" x="14191.040039" y="-4326.416016" width="1.098633" height="1.098633"/>
<image xlink:href="tile84_7.png" preserveAspectRatio="none" x="14192.138672" y="-4326.416016" width="1.098633" height="1.098633"/>
<image xlink:href="tile85_8.png" preserveAspectRatio="none" x="14193.237305" y="-4325.317383" width="1.098633" height="1.098633"/>
<image xlink:href="tile85_7.png" preserveAspectRatio="none" x="14193.237305" y="-4326.416016" width="1.098633" height="1.098633"/>
<image xlink:href="tile86_7.png" preserveAspectRatio="none" x="14194.335938" y="-4326.416016" width="1.098633" height="1.098633"/>
<image xlink:href="tile87_7.png" preserveAspectRatio="none" x="14195.43457" y="-4326.416016" width="1.098633" height="1.098633"/>
<image xlink:href="tile87_6.png" preserveAspectRatio="none" x="14195.43457" y="-4327.514648" width="1.098633" height="1.098633"/>
<image xlink:href="tile88_8.png" preserveAspectRatio="none" x="14196.533203" y="-4325.317383" width="1.098633" height="1.098633"/>
<image xlink:href="tile88_7.png" preserveAspectRatio="none" x="14196.533203" y="-4326.416016" width="1.098633" height="1.098633"/>
<image xlink:href="tile89_8.png" preserveAspectRatio="none" x="14197.631836" y="-4325.317383" width="1.098633" height="1.098633"/>
<image xlink:href="tile89_7.png" preserveAspectRatio="none" x="14197.631836" y="-4326.416016" width="1.098633" height="1.098633"/>
<image xlink:href="tile90_8.png" preserveAspectRatio="none" x="14198.730469" y="-4325.317383" width="1.098633" height="1.098633"/>
<image xlink:href="tile91_8.png" preserveAspectRatio="none" x="14199.829102" y="-4325.317383" width="1.098633" height="1.098633"/>
</g>
</svg>
