<?xml version="1.0" encoding="UTF-8"?>
<svg  xmlns="http://www.w3.org/2000/svg" xmlns:xlink="http://www.w3.org/1999/xlink" xmlns:go="http://purl.org/svgmap/profile" viewBox="14100.0 -4333.3333330000005 100.0 66.66666630000009" go:dataArea="14100.0 -4333.3333330000005 100.0 66.66666630000009" >
<metadata>
 <rdf:RDF xmlns:rdf="http://www.w3.org/1999/02/22-rdf-syntax-ns#" xmlns:crs="http://opengis.org/xmldtds/transformations.dtd" xmlns:svg="http://www.w3.org/svg" >
  <rdf:Description>
   <crs:CoordinateReferenceSystem rdf:resource="http://purl.org/crs/84" svg:transform="matrix(100.0,0.0,0.0,-100.0,0.0,0.0)" />
  </rdf:Description>
 </rdf:RDF>
</metadata>
<globalCoordinateSystem srsName="http://purl.org/crs/84" transform="matrix(100.0,0.0,0.0,-100.0,0.0,0.0)" />
<g >
<image xlink:href="tile64_61.png" preserveAspectRatio="none" x="14170.166016" y="-4267.089844" width="1.098633" height="1.098633"/>
<image xlink:href="tile64_60.png" preserveAspectRatio="none" x="14170.166016" y="-4268.188477" width="1.098633" height="1.098633"/>
<image xlink:href="tile64_59.png" preserveAspectRatio="none" x="14170.166016" y="-4269.287109" width="1.098633" height="1.098633"/>
<image xlink:href="tile64_58.png" preserveAspectRatio="none" x="14170.166016" y="-4270.385742" width="1.098633" height="1.098633"/>
<image xlink:href="tile65_61.png" preserveAspectRatio="none" x="14171.264648" y="-4267.089844" width="1.098633" height="1.098633"/>
<image xlink:href="tile65_60.png" preserveAspectRatio="none" x="14171.264648" y="-4268.188477" width="1.098633" height="1.098633"/>
<image xlink:href="tile65_59.png" preserveAspectRatio="none" x="14171.264648" y="-4269.287109" width="1.098633" height="1.098633"/>
<image xlink:href="tile66_61.png" preserveAspectRatio="none" x="14172.363281" y="-4267.089844" width="1.098633" height="1.098633"/>
<image xlink:href="tile66_60.png" preserveAspectRatio="none" x="14172.363281" y="-4268.188477" width="1.098633" height="1.098633"/>
<image xlink:href="tile66_59.png" preserveAspectRatio="none" x="14172.363281" y="-4269.287109" width="1.098633" height="1.098633"/>
<image xlink:href="tile66_58.png" preserveAspectRatio="none" x="14172.363281" y="-4270.385742" width="1.098633" height="1.098633"/>
<image xlink:href="tile67_61.png" preserveAspectRatio="none" x="14173.461914" y="-4267.089844" width="1.098633" height="1.098633"/>
<image xlink:href="tile67_60.png" preserveAspectRatio="none" x="14173.461914" y="-4268.188477" width="1.098633" height="1.098633"/>
<image xlink:href="tile67_59.png" preserveAspectRatio="none" x="14173.461914" y="-4269.287109" width="1.098633" height="1.098633"/>
<image xlink:href="tile67_58.png" preserveAspectRatio="none" x="14173.461914" y="-4270.385742" width="1.098633" height="1.098633"/>
<image xlink:href="tile67_55.png" preserveAspectRatio="none" x="14173.461914" y="-4273.681641" width="1.098633" height="1.098633"/>
<image xlink:href="tile68_61.png" preserveAspectRatio="none" x="14174.560547" y="-4267.089844" width="1.098633" height="1.098633"/>
<image xlink:href="tile68_60.png" preserveAspectRatio="none" x="14174.560547" y="-4268.188477" width="1.098633" height="1.098633"/>
<image xlink:href="tile68_56.png" preserveAspectRatio="none" x="14174.560547" y="-4272.583008" width="1.098633" height="1.098633"/>
<image xlink:href="tile68_55.png" preserveAspectRatio="none" x="14174.560547" y="-4273.681641" width="1.098633" height="1.098633"/>
<image xlink:href="tile68_54.png" preserveAspectRatio="none" x="14174.560547" y="-4274.780273" width="1.098633" height="1.098633"/>
<image xlink:href="tile69_61.png" preserveAspectRatio="none" x="14175.65918" y="-4267.089844" width="1.098633" height="1.098633"/>
<image xlink:href="tile69_60.png" preserveAspectRatio="none" x="14175.65918" y="-4268.188477" width="1.098633" height="1.098633"/>
<image xlink:href="tile69_58.png" preserveAspectRatio="none" x="14175.65918" y="-4270.385742" width="1.098633" height="1.098633"/>
<image xlink:href="tile69_57.png" preserveAspectRatio="none" x="14175.65918" y="-4271.484375" width="1.098633" height="1.098633"/>
<image xlink:href="tile69_56.png" preserveAspectRatio="none" x="14175.65918" y="-4272.583008" width="1.098633" height="1.098633"/>
<image xlink:href="tile69_55.png" preserveAspectRatio="none" x="14175.65918" y="-4273.681641" width="1.098633" height="1.098633"/>
<image xlink:href="tile69_54.png" preserveAspectRatio="none" x="14175.65918" y="-4274.780273" width="1.098633" height="1.098633"/>
<image xlink:href="tile70_61.png" preserveAspectRatio="none" x="14176.757812" y="-4267.089844" width="1.098633" height="1.098633"/>
<image xlink:href="tile70_60.png" preserveAspectRatio="none" x="14176.757812" y="-4268.188477" width="1.098633" height="1.098633"/>
<image xlink:href="tile70_58.png" preserveAspectRatio="none" x="14176.757812" y="-4270.385742" width="1.098633" height="1.098633"/>
<image xlink:href="tile70_57.png" preserveAspectRatio="none" x="14176.757812" y="-4271.484375" width="1.098633" height="1.098633"/>
<image xlink:href="tile70_56.png" preserveAspectRatio="none" x="14176.757812" y="-4272.583008" width="1.098633" height="1.098633"/>
<image xlink:href="tile70_55.png" preserveAspectRatio="none" x="14176.757812" y="-4273.681641" width="1.098633" height="1.098633"/>
<image xlink:href="tile71_61.png" preserveAspectRatio="none" x="14177.856445" y="-4267.089844" width="1.098633" height="1.098633"/>
<image xlink:href="tile71_60.png" preserveAspectRatio="none" x="14177.856445" y="-4268.188477" width="1.098633" height="1.098633"/>
<image xlink:href="tile71_58.png" preserveAspectRatio="none" x="14177.856445" y="-4270.385742" width="1.098633" height="1.098633"/>
<image xlink:href="tile71_57.png" preserveAspectRatio="none" x="14177.856445" y="-4271.484375" width="1.098633" height="1.098633"/>
<image xlink:href="tile71_56.png" preserveAspectRatio="none" x="14177.856445" y="-4272.583008" width="1.098633" height="1.098633"/>
<image xlink:href="tile71_55.png" preserveAspectRatio="none" x="14177.856445" y="-4273.681641" width="1.098633" height="1.098633"/>
<image xlink:href="tile71_54.png" preserveAspectRatio="none" x="14177.856445" y="-4274.780273" width="1.098633" height="1.098633"/>
<image xlink:href="tile72_61.png" preserveAspectRatio="none" x="14178.955078" y="-4267.089844" width="1.098633" height="1.098633"/>
<image xlink:href="tile72_60.png" preserveAspectRatio="none" x="14178.955078" y="-4268.188477" width="1.098633" height="1.098633"/>
<image xlink:href="tile72_59.png" preserveAspectRatio="none" x="14178.955078" y="-4269.287109" width="1.098633" height="1.098633"/>
<image xlink:href="tile72_58.png" preserveAspectRatio="none" x="14178.955078" y="-4270.385742" width="1.098633" height="1.098633"/>
<image xlink:href="tile72_57.png" preserveAspectRatio="none" x="14178.955078" y="-4271.484375" width="1.098633" height="1.098633"/>
<image xlink:href="tile72_56.png" preserveAspectRatio="none" x="14178.955078" y="-4272.583008" width="1.098633" height="1.098633"/>
<image xlink:href="tile72_55.png" preserveAspectRatio="none" x="14178.955078" y="-4273.681641" width="1.098633" height="1.098633"/>
<image xlink:href="tile72_54.png" preserveAspectRatio="none" x="14178.955078" y="-4274.780273" width="1.098633" height="1.098633"/>
<image xlink:href="tile72_53.png" preserveAspectRatio="none" x="14178.955078" y="-4275.878906" width="1.098633" height="1.098633"/>
<image xlink:href="tile72_52.png" preserveAspectRatio="none" x="14178.955078" y="-4276.977539" width="1.098633" height="1.098633"/>
<image xlink:href="tile73_61.png" preserveAspectRatio="none" x="14180.053711" y="-4267.089844" width="1.098633" height="1.098633"/>
<image xlink:href="tile73_60.png" preserveAspectRatio="none" x="14180.053711" y="-4268.188477" width="1.098633" height="1.098633"/>
<image xlink:href="tile73_59.png" preserveAspectRatio="none" x="14180.053711" y="-4269.287109" width="1.098633" height="1.098633"/>
<image xlink:href="tile73_58.png" preserveAspectRatio="none" x="14180.053711" y="-4270.385742" width="1.098633" height="1.098633"/>
<image xlink:href="tile73_57.png" preserveAspectRatio="none" x="14180.053711" y="-4271.484375" width="1.098633" height="1.098633"/>
<image xlink:href="tile73_56.png" preserveAspectRatio="none" x="14180.053711" y="-4272.583008" width="1.098633" height="1.098633"/>
<image xlink:href="tile73_55.png" preserveAspectRatio="none" x="14180.053711" y="-4273.681641" width="1.098633" height="1.098633"/>
<image xlink:href="tile73_54.png" preserveAspectRatio="none" x="14180.053711" y="-4274.780273" width="1.098633" height="1.098633"/>
<image xlink:href="tile73_53.png" preserveAspectRatio="none" x="14180.053711" y="-4275.878906" width="1.098633" height="1.098633"/>
<image xlink:href="tile73_52.png" preserveAspectRatio="none" x="14180.053711" y="-4276.977539" width="1.098633" height="1.098633"/>
<image xlink:href="tile74_61.png" preserveAspectRatio="none" x="14181.152344" y="-4267.089844" width="1.098633" height="1.098633"/>
<image xlink:href="tile74_60.png" preserveAspectRatio="none" x="14181.152344" y="-4268.188477" width="1.098633" height="1.098633"/>
<image xlink:href="tile74_59.png" preserveAspectRatio="none" x="14181.152344" y="-4269.287109" width="1.098633" height="1.098633"/>
<image xlink:href="tile74_58.png" preserveAspectRatio="none" x="14181.152344" y="-4270.385742" width="1.098633" height="1.098633"/>
<image xlink:href="tile74_57.png" preserveAspectRatio="none" x="14181.152344" y="-4271.484375" width="1.098633" height="1.098633"/>
<image xlink:href="tile74_56.png" preserveAspectRatio="none" x="14181.152344" y="-4272.583008" width="1.098633" height="1.098633"/>
<image xlink:href="tile74_55.png" preserveAspectRatio="none" x="14181.152344" y="-4273.681641" width="1.098633" height="1.098633"/>
<image xlink:href="tile74_53.png" preserveAspectRatio="none" x="14181.152344" y="-4275.878906" width="1.098633" height="1.098633"/>
<image xlink:href="tile74_52.png" preserveAspectRatio="none" x="14181.152344" y="-4276.977539" width="1.098633" height="1.098633"/>
<image xlink:href="tile74_51.png" preserveAspectRatio="none" x="14181.152344" y="-4278.076172" width="1.098633" height="1.098633"/>
<image xlink:href="tile74_50.png" preserveAspectRatio="none" x="14181.152344" y="-4279.174805" width="1.098633" height="1.098633"/>
<image xlink:href="tile74_49.png" preserveAspectRatio="none" x="14181.152344" y="-4280.273438" width="1.098633" height="1.098633"/>
<image xlink:href="tile74_48.png" preserveAspectRatio="none" x="14181.152344" y="-4281.37207" width="1.098633" height="1.098633"/>
<image xlink:href="tile74_47.png" preserveAspectRatio="none" x="14181.152344" y="-4282.470703" width="1.098633" height="1.098633"/>
<image xlink:href="tile74_46.png" preserveAspectRatio="none" x="14181.152344" y="-4283.569336" width="1.098633" height="1.098633"/>
<image xlink:href="tile75_61.png" preserveAspectRatio="none" x="14182.250977" y="-4267.089844" width="1.098633" height="1.098633"/>
<image xlink:href="tile75_60.png" preserveAspectRatio="none" x="14182.250977" y="-4268.188477" width="1.098633" height="1.098633"/>
<image xlink:href="tile75_59.png" preserveAspectRatio="none" x="14182.250977" y="-4269.287109" width="1.098633" height="1.098633"/>
<image xlink:href="tile75_58.png" preserveAspectRatio="none" x="14182.250977" y="-4270.385742" width="1.098633" height="1.098633"/>
<image xlink:href="tile75_57.png" preserveAspectRatio="none" x="14182.250977" y="-4271.484375" width="1.098633" height="1.098633"/>
<image xlink:href="tile75_52.png" preserveAspectRatio="none" x="14182.250977" y="-4276.977539" width="1.098633" height="1.098633"/>
<image xlink:href="tile75_51.png" preserveAspectRatio="none" x="14182.250977" y="-4278.076172" width="1.098633" height="1.098633"/>
<image xlink:href="tile75_50.png" preserveAspectRatio="none" x="14182.250977" y="-4279.174805" width="1.098633" height="1.098633"/>
<image xlink:href="tile75_49.png" preserveAspectRatio="none" x="14182.250977" y="-4280.273438" width="1.098633" height="1.098633"/>
<image xlink:href="tile75_48.png" preserveAspectRatio="none" x="14182.250977" y="-4281.37207" width="1.098633" height="1.098633"/>
<image xlink:href="tile75_47.png" preserveAspectRatio="none" x="14182.250977" y="-4282.470703" width="1.098633" height="1.098633"/>
<image xlink:href="tile75_46.png" preserveAspectRatio="none" x="14182.250977" y="-4283.569336" width="1.098633" height="1.098633"/>
<image xlink:href="tile76_61.png" preserveAspectRatio="none" x="14183.349609" y="-4267.089844" width="1.098633" height="1.098633"/>
<image xlink:href="tile76_60.png" preserveAspectRatio="none" x="14183.349609" y="-4268.188477" width="1.098633" height="1.098633"/>
<image xlink:href="tile76_59.png" preserveAspectRatio="none" x="14183.349609" y="-4269.287109" width="1.098633" height="1.098633"/>
<image xlink:href="tile76_58.png" preserveAspectRatio="none" x="14183.349609" y="-4270.385742" width="1.098633" height="1.098633"/>
<image xlink:href="tile76_57.png" preserveAspectRatio="none" x="14183.349609" y="-4271.484375" width="1.098633" height="1.098633"/>
<image xlink:href="tile76_51.png" preserveAspectRatio="none" x="14183.349609" y="-4278.076172" width="1.098633" height="1.098633"/>
<image xlink:href="tile76_47.png" preserveAspectRatio="none" x="14183.349609" y="-4282.470703" width="1.098633" height="1.098633"/>
<image xlink:href="tile77_61.png" preserveAspectRatio="none" x="14184.448242" y="-4267.089844" width="1.098633" height="1.098633"/>
<image xlink:href="tile77_60.png" preserveAspectRatio="none" x="14184.448242" y="-4268.188477" width="1.098633" height="1.098633"/>
<image xlink:href="tile77_59.png" preserveAspectRatio="none" x="14184.448242" y="-4269.287109" width="1.098633" height="1.098633"/>
<image xlink:href="tile77_58.png" preserveAspectRatio="none" x="14184.448242" y="-4270.385742" width="1.098633" height="1.098633"/>
<image xlink:href="tile77_57.png" preserveAspectRatio="none" x="14184.448242" y="-4271.484375" width="1.098633" height="1.098633"/>
<image xlink:href="tile77_56.png" preserveAspectRatio="none" x="14184.448242" y="-4272.583008" width="1.098633" height="1.098633"/>
<image xlink:href="tile78_61.png" preserveAspectRatio="none" x="14185.546875" y="-4267.089844" width="1.098633" height="1.098633"/>
<image xlink:href="tile78_60.png" preserveAspectRatio="none" x="14185.546875" y="-4268.188477" width="1.098633" height="1.098633"/>
<image xlink:href="tile78_59.png" preserveAspectRatio="none" x="14185.546875" y="-4269.287109" width="1.098633" height="1.098633"/>
<image xlink:href="tile78_58.png" preserveAspectRatio="none" x="14185.546875" y="-4270.385742" width="1.098633" height="1.098633"/>
<image xlink:href="tile78_57.png" preserveAspectRatio="none" x="14185.546875" y="-4271.484375" width="1.098633" height="1.098633"/>
<image xlink:href="tile78_56.png" preserveAspectRatio="none" x="14185.546875" y="-4272.583008" width="1.098633" height="1.098633"/>
<image xlink:href="tile78_55.png" preserveAspectRatio="none" x="14185.546875" y="-4273.681641" width="1.098633" height="1.098633"/>
<image xlink:href="tile79_61.png" preserveAspectRatio="none" x="14186.645508" y="-4267.089844" width="1.098633" height="1.098633"/>
<image xlink:href="tile79_60.png" preserveAspectRatio="none" x="14186.645508" y="-4268.188477" width="1.098633" height="1.098633"/>
<image xlink:href="tile79_59.png" preserveAspectRatio="none" x="14186.645508" y="-4269.287109" width="1.098633" height="1.098633"/>
<image xlink:href="tile79_58.png" preserveAspectRatio="none" x="14186.645508" y="-4270.385742" width="1.098633" height="1.098633"/>
<image xlink:href="tile79_57.png" preserveAspectRatio="none" x="14186.645508" y="-4271.484375" width="1.098633" height="1.098633"/>
<image xlink:href="tile79_56.png" preserveAspectRatio="none" x="14186.645508" y="-4272.583008" width="1.098633" height="1.098633"/>
<image xlink:href="tile79_55.png" preserveAspectRatio="none" x="14186.645508" y="-4273.681641" width="1.098633" height="1.098633"/>
<image xlink:href="tile79_54.png" preserveAspectRatio="none" x="14186.645508" y="-4274.780273" width="1.098633" height="1.098633"/>
</g>
</svg>
