<?xml version="1.0" encoding="UTF-8"?>
<svg  xmlns="http://www.w3.org/2000/svg" xmlns:xlink="http://www.w3.org/1999/xlink" xmlns:go="http://purl.org/svgmap/profile" viewBox="14100.0 -4333.3333330000005 100.0 66.66666630000009" go:dataArea="14100.0 -4333.3333330000005 100.0 66.66666630000009" >
<metadata>
 <rdf:RDF xmlns:rdf="http://www.w3.org/1999/02/22-rdf-syntax-ns#" xmlns:crs="http://opengis.org/xmldtds/transformations.dtd" xmlns:svg="http://www.w3.org/svg" >
  <rdf:Description>
   <crs:CoordinateReferenceSystem rdf:resource="http://purl.org/crs/84" svg:transform="matrix(100.0,0.0,0.0,-100.0,0.0,0.0)" />
  </rdf:Description>
 </rdf:RDF>
</metadata>
<globalCoordinateSystem srsName="http://purl.org/crs/84" transform="matrix(100.0,0.0,0.0,-100.0,0.0,0.0)" />
<g >
<image xlink:href="tile53_48.png" preserveAspectRatio="none" x="14158.081055" y="-4281.37207" width="1.098633" height="1.098633"/>
<image xlink:href="tile54_48.png" preserveAspectRatio="none" x="14159.179688" y="-4281.37207" width="1.098633" height="1.098633"/>
<image xlink:href="tile54_47.png" preserveAspectRatio="none" x="14159.179688" y="-4282.470703" width="1.098633" height="1.098633"/>
<image xlink:href="tile55_48.png" preserveAspectRatio="none" x="14160.27832" y="-4281.37207" width="1.098633" height="1.098633"/>
<image xlink:href="tile55_47.png" preserveAspectRatio="none" x="14160.27832" y="-4282.470703" width="1.098633" height="1.098633"/>
<image xlink:href="tile56_61.png" preserveAspectRatio="none" x="14161.376953" y="-4267.089844" width="1.098633" height="1.098633"/>
<image xlink:href="tile56_58.png" preserveAspectRatio="none" x="14161.376953" y="-4270.385742" width="1.098633" height="1.098633"/>
<image xlink:href="tile57_61.png" preserveAspectRatio="none" x="14162.475586" y="-4267.089844" width="1.098633" height="1.098633"/>
<image xlink:href="tile57_60.png" preserveAspectRatio="none" x="14162.475586" y="-4268.188477" width="1.098633" height="1.098633"/>
<image xlink:href="tile57_59.png" preserveAspectRatio="none" x="14162.475586" y="-4269.287109" width="1.098633" height="1.098633"/>
<image xlink:href="tile57_58.png" preserveAspectRatio="none" x="14162.475586" y="-4270.385742" width="1.098633" height="1.098633"/>
<image xlink:href="tile57_48.png" preserveAspectRatio="none" x="14162.475586" y="-4281.37207" width="1.098633" height="1.098633"/>
<image xlink:href="tile57_47.png" preserveAspectRatio="none" x="14162.475586" y="-4282.470703" width="1.098633" height="1.098633"/>
<image xlink:href="tile58_61.png" preserveAspectRatio="none" x="14163.574219" y="-4267.089844" width="1.098633" height="1.098633"/>
<image xlink:href="tile58_60.png" preserveAspectRatio="none" x="14163.574219" y="-4268.188477" width="1.098633" height="1.098633"/>
<image xlink:href="tile58_59.png" preserveAspectRatio="none" x="14163.574219" y="-4269.287109" width="1.098633" height="1.098633"/>
<image xlink:href="tile58_58.png" preserveAspectRatio="none" x="14163.574219" y="-4270.385742" width="1.098633" height="1.098633"/>
<image xlink:href="tile58_48.png" preserveAspectRatio="none" x="14163.574219" y="-4281.37207" width="1.098633" height="1.098633"/>
<image xlink:href="tile58_47.png" preserveAspectRatio="none" x="14163.574219" y="-4282.470703" width="1.098633" height="1.098633"/>
<image xlink:href="tile59_61.png" preserveAspectRatio="none" x="14164.672852" y="-4267.089844" width="1.098633" height="1.098633"/>
<image xlink:href="tile59_60.png" preserveAspectRatio="none" x="14164.672852" y="-4268.188477" width="1.098633" height="1.098633"/>
<image xlink:href="tile59_59.png" preserveAspectRatio="none" x="14164.672852" y="-4269.287109" width="1.098633" height="1.098633"/>
<image xlink:href="tile59_58.png" preserveAspectRatio="none" x="14164.672852" y="-4270.385742" width="1.098633" height="1.098633"/>
<image xlink:href="tile59_57.png" preserveAspectRatio="none" x="14164.672852" y="-4271.484375" width="1.098633" height="1.098633"/>
<image xlink:href="tile59_47.png" preserveAspectRatio="none" x="14164.672852" y="-4282.470703" width="1.098633" height="1.098633"/>
<image xlink:href="tile59_46.png" preserveAspectRatio="none" x="14164.672852" y="-4283.569336" width="1.098633" height="1.098633"/>
<image xlink:href="tile60_61.png" preserveAspectRatio="none" x="14165.771484" y="-4267.089844" width="1.098633" height="1.098633"/>
<image xlink:href="tile60_60.png" preserveAspectRatio="none" x="14165.771484" y="-4268.188477" width="1.098633" height="1.098633"/>
<image xlink:href="tile60_59.png" preserveAspectRatio="none" x="14165.771484" y="-4269.287109" width="1.098633" height="1.098633"/>
<image xlink:href="tile60_58.png" preserveAspectRatio="none" x="14165.771484" y="-4270.385742" width="1.098633" height="1.098633"/>
<image xlink:href="tile60_57.png" preserveAspectRatio="none" x="14165.771484" y="-4271.484375" width="1.098633" height="1.098633"/>
<image xlink:href="tile60_47.png" preserveAspectRatio="none" x="14165.771484" y="-4282.470703" width="1.098633" height="1.098633"/>
<image xlink:href="tile60_46.png" preserveAspectRatio="none" x="14165.771484" y="-4283.569336" width="1.098633" height="1.098633"/>
<image xlink:href="tile61_61.png" preserveAspectRatio="none" x="14166.870117" y="-4267.089844" width="1.098633" height="1.098633"/>
<image xlink:href="tile61_60.png" preserveAspectRatio="none" x="14166.870117" y="-4268.188477" width="1.098633" height="1.098633"/>
<image xlink:href="tile61_59.png" preserveAspectRatio="none" x="14166.870117" y="-4269.287109" width="1.098633" height="1.098633"/>
<image xlink:href="tile61_58.png" preserveAspectRatio="none" x="14166.870117" y="-4270.385742" width="1.098633" height="1.098633"/>
<image xlink:href="tile61_57.png" preserveAspectRatio="none" x="14166.870117" y="-4271.484375" width="1.098633" height="1.098633"/>
<image xlink:href="tile61_46.png" preserveAspectRatio="none" x="14166.870117" y="-4283.569336" width="1.098633" height="1.098633"/>
<image xlink:href="tile62_61.png" preserveAspectRatio="none" x="14167.96875" y="-4267.089844" width="1.098633" height="1.098633"/>
<image xlink:href="tile62_60.png" preserveAspectRatio="none" x="14167.96875" y="-4268.188477" width="1.098633" height="1.098633"/>
<image xlink:href="tile62_59.png" preserveAspectRatio="none" x="14167.96875" y="-4269.287109" width="1.098633" height="1.098633"/>
<image xlink:href="tile62_58.png" preserveAspectRatio="none" x="14167.96875" y="-4270.385742" width="1.098633" height="1.098633"/>
<image xlink:href="tile62_57.png" preserveAspectRatio="none" x="14167.96875" y="-4271.484375" width="1.098633" height="1.098633"/>
<image xlink:href="tile62_46.png" preserveAspectRatio="none" x="14167.96875" y="-4283.569336" width="1.098633" height="1.098633"/>
<image xlink:href="tile63_61.png" preserveAspectRatio="none" x="14169.067383" y="-4267.089844" width="1.098633" height="1.098633"/>
<image xlink:href="tile63_60.png" preserveAspectRatio="none" x="14169.067383" y="-4268.188477" width="1.098633" height="1.098633"/>
<image xlink:href="tile63_59.png" preserveAspectRatio="none" x="14169.067383" y="-4269.287109" width="1.098633" height="1.098633"/>
<image xlink:href="tile63_58.png" preserveAspectRatio="none" x="14169.067383" y="-4270.385742" width="1.098633" height="1.098633"/>
<image xlink:href="tile63_57.png" preserveAspectRatio="none" x="14169.067383" y="-4271.484375" width="1.098633" height="1.098633"/>
<image xlink:href="tile63_46.png" preserveAspectRatio="none" x="14169.067383" y="-4283.569336" width="1.098633" height="1.098633"/>
</g>
</svg>
