<?xml version="1.0" encoding="UTF-8"?>
<svg  xmlns="http://www.w3.org/2000/svg" xmlns:xlink="http://www.w3.org/1999/xlink" xmlns:go="http://purl.org/svgmap/profile" viewBox="14100.0 -4333.3333330000005 100.0 66.66666630000009" go:dataArea="14100.0 -4333.3333330000005 100.0 66.66666630000009" >
<metadata>
 <rdf:RDF xmlns:rdf="http://www.w3.org/1999/02/22-rdf-syntax-ns#" xmlns:crs="http://opengis.org/xmldtds/transformations.dtd" xmlns:svg="http://www.w3.org/svg" >
  <rdf:Description>
   <crs:CoordinateReferenceSystem rdf:resource="http://purl.org/crs/84" svg:transform="matrix(100.0,0.0,0.0,-100.0,0.0,0.0)" />
  </rdf:Description>
 </rdf:RDF>
</metadata>
<globalCoordinateSystem srsName="http://purl.org/crs/84" transform="matrix(100.0,0.0,0.0,-100.0,0.0,0.0)" />
<g >
<image xlink:href="tile64_29.png" preserveAspectRatio="none" x="14170.166016" y="-4302.246094" width="1.098633" height="1.098633"/>
<image xlink:href="tile64_26.png" preserveAspectRatio="none" x="14170.166016" y="-4305.541992" width="1.098633" height="1.098633"/>
<image xlink:href="tile64_25.png" preserveAspectRatio="none" x="14170.166016" y="-4306.640625" width="1.098633" height="1.098633"/>
<image xlink:href="tile64_24.png" preserveAspectRatio="none" x="14170.166016" y="-4307.739258" width="1.098633" height="1.098633"/>
<image xlink:href="tile64_23.png" preserveAspectRatio="none" x="14170.166016" y="-4308.837891" width="1.098633" height="1.098633"/>
<image xlink:href="tile64_22.png" preserveAspectRatio="none" x="14170.166016" y="-4309.936523" width="1.098633" height="1.098633"/>
<image xlink:href="tile64_21.png" preserveAspectRatio="none" x="14170.166016" y="-4311.035156" width="1.098633" height="1.098633"/>
<image xlink:href="tile64_20.png" preserveAspectRatio="none" x="14170.166016" y="-4312.133789" width="1.098633" height="1.098633"/>
<image xlink:href="tile64_19.png" preserveAspectRatio="none" x="14170.166016" y="-4313.232422" width="1.098633" height="1.098633"/>
<image xlink:href="tile64_18.png" preserveAspectRatio="none" x="14170.166016" y="-4314.331055" width="1.098633" height="1.098633"/>
<image xlink:href="tile64_17.png" preserveAspectRatio="none" x="14170.166016" y="-4315.429688" width="1.098633" height="1.098633"/>
<image xlink:href="tile64_16.png" preserveAspectRatio="none" x="14170.166016" y="-4316.52832" width="1.098633" height="1.098633"/>
<image xlink:href="tile64_15.png" preserveAspectRatio="none" x="14170.166016" y="-4317.626953" width="1.098633" height="1.098633"/>
<image xlink:href="tile64_14.png" preserveAspectRatio="none" x="14170.166016" y="-4318.725586" width="1.098633" height="1.098633"/>
<image xlink:href="tile65_25.png" preserveAspectRatio="none" x="14171.264648" y="-4306.640625" width="1.098633" height="1.098633"/>
<image xlink:href="tile65_24.png" preserveAspectRatio="none" x="14171.264648" y="-4307.739258" width="1.098633" height="1.098633"/>
<image xlink:href="tile65_23.png" preserveAspectRatio="none" x="14171.264648" y="-4308.837891" width="1.098633" height="1.098633"/>
<image xlink:href="tile65_22.png" preserveAspectRatio="none" x="14171.264648" y="-4309.936523" width="1.098633" height="1.098633"/>
<image xlink:href="tile65_21.png" preserveAspectRatio="none" x="14171.264648" y="-4311.035156" width="1.098633" height="1.098633"/>
<image xlink:href="tile65_20.png" preserveAspectRatio="none" x="14171.264648" y="-4312.133789" width="1.098633" height="1.098633"/>
<image xlink:href="tile65_19.png" preserveAspectRatio="none" x="14171.264648" y="-4313.232422" width="1.098633" height="1.098633"/>
<image xlink:href="tile65_18.png" preserveAspectRatio="none" x="14171.264648" y="-4314.331055" width="1.098633" height="1.098633"/>
<image xlink:href="tile65_17.png" preserveAspectRatio="none" x="14171.264648" y="-4315.429688" width="1.098633" height="1.098633"/>
<image xlink:href="tile65_16.png" preserveAspectRatio="none" x="14171.264648" y="-4316.52832" width="1.098633" height="1.098633"/>
<image xlink:href="tile65_15.png" preserveAspectRatio="none" x="14171.264648" y="-4317.626953" width="1.098633" height="1.098633"/>
<image xlink:href="tile65_14.png" preserveAspectRatio="none" x="14171.264648" y="-4318.725586" width="1.098633" height="1.098633"/>
<image xlink:href="tile66_25.png" preserveAspectRatio="none" x="14172.363281" y="-4306.640625" width="1.098633" height="1.098633"/>
<image xlink:href="tile66_24.png" preserveAspectRatio="none" x="14172.363281" y="-4307.739258" width="1.098633" height="1.098633"/>
<image xlink:href="tile66_23.png" preserveAspectRatio="none" x="14172.363281" y="-4308.837891" width="1.098633" height="1.098633"/>
<image xlink:href="tile66_22.png" preserveAspectRatio="none" x="14172.363281" y="-4309.936523" width="1.098633" height="1.098633"/>
<image xlink:href="tile66_21.png" preserveAspectRatio="none" x="14172.363281" y="-4311.035156" width="1.098633" height="1.098633"/>
<image xlink:href="tile66_20.png" preserveAspectRatio="none" x="14172.363281" y="-4312.133789" width="1.098633" height="1.098633"/>
<image xlink:href="tile66_19.png" preserveAspectRatio="none" x="14172.363281" y="-4313.232422" width="1.098633" height="1.098633"/>
<image xlink:href="tile66_18.png" preserveAspectRatio="none" x="14172.363281" y="-4314.331055" width="1.098633" height="1.098633"/>
<image xlink:href="tile66_17.png" preserveAspectRatio="none" x="14172.363281" y="-4315.429688" width="1.098633" height="1.098633"/>
<image xlink:href="tile66_16.png" preserveAspectRatio="none" x="14172.363281" y="-4316.52832" width="1.098633" height="1.098633"/>
<image xlink:href="tile66_15.png" preserveAspectRatio="none" x="14172.363281" y="-4317.626953" width="1.098633" height="1.098633"/>
<image xlink:href="tile66_14.png" preserveAspectRatio="none" x="14172.363281" y="-4318.725586" width="1.098633" height="1.098633"/>
<image xlink:href="tile67_25.png" preserveAspectRatio="none" x="14173.461914" y="-4306.640625" width="1.098633" height="1.098633"/>
<image xlink:href="tile67_24.png" preserveAspectRatio="none" x="14173.461914" y="-4307.739258" width="1.098633" height="1.098633"/>
<image xlink:href="tile67_23.png" preserveAspectRatio="none" x="14173.461914" y="-4308.837891" width="1.098633" height="1.098633"/>
<image xlink:href="tile67_22.png" preserveAspectRatio="none" x="14173.461914" y="-4309.936523" width="1.098633" height="1.098633"/>
<image xlink:href="tile67_21.png" preserveAspectRatio="none" x="14173.461914" y="-4311.035156" width="1.098633" height="1.098633"/>
<image xlink:href="tile67_20.png" preserveAspectRatio="none" x="14173.461914" y="-4312.133789" width="1.098633" height="1.098633"/>
<image xlink:href="tile67_19.png" preserveAspectRatio="none" x="14173.461914" y="-4313.232422" width="1.098633" height="1.098633"/>
<image xlink:href="tile67_18.png" preserveAspectRatio="none" x="14173.461914" y="-4314.331055" width="1.098633" height="1.098633"/>
<image xlink:href="tile67_17.png" preserveAspectRatio="none" x="14173.461914" y="-4315.429688" width="1.098633" height="1.098633"/>
<image xlink:href="tile67_16.png" preserveAspectRatio="none" x="14173.461914" y="-4316.52832" width="1.098633" height="1.098633"/>
<image xlink:href="tile67_15.png" preserveAspectRatio="none" x="14173.461914" y="-4317.626953" width="1.098633" height="1.098633"/>
<image xlink:href="tile67_14.png" preserveAspectRatio="none" x="14173.461914" y="-4318.725586" width="1.098633" height="1.098633"/>
<image xlink:href="tile68_26.png" preserveAspectRatio="none" x="14174.560547" y="-4305.541992" width="1.098633" height="1.098633"/>
<image xlink:href="tile68_25.png" preserveAspectRatio="none" x="14174.560547" y="-4306.640625" width="1.098633" height="1.098633"/>
<image xlink:href="tile68_24.png" preserveAspectRatio="none" x="14174.560547" y="-4307.739258" width="1.098633" height="1.098633"/>
<image xlink:href="tile68_18.png" preserveAspectRatio="none" x="14174.560547" y="-4314.331055" width="1.098633" height="1.098633"/>
<image xlink:href="tile68_17.png" preserveAspectRatio="none" x="14174.560547" y="-4315.429688" width="1.098633" height="1.098633"/>
<image xlink:href="tile68_16.png" preserveAspectRatio="none" x="14174.560547" y="-4316.52832" width="1.098633" height="1.098633"/>
<image xlink:href="tile68_15.png" preserveAspectRatio="none" x="14174.560547" y="-4317.626953" width="1.098633" height="1.098633"/>
<image xlink:href="tile68_14.png" preserveAspectRatio="none" x="14174.560547" y="-4318.725586" width="1.098633" height="1.098633"/>
<image xlink:href="tile69_27.png" preserveAspectRatio="none" x="14175.65918" y="-4304.443359" width="1.098633" height="1.098633"/>
<image xlink:href="tile69_26.png" preserveAspectRatio="none" x="14175.65918" y="-4305.541992" width="1.098633" height="1.098633"/>
<image xlink:href="tile69_25.png" preserveAspectRatio="none" x="14175.65918" y="-4306.640625" width="1.098633" height="1.098633"/>
<image xlink:href="tile69_24.png" preserveAspectRatio="none" x="14175.65918" y="-4307.739258" width="1.098633" height="1.098633"/>
<image xlink:href="tile69_17.png" preserveAspectRatio="none" x="14175.65918" y="-4315.429688" width="1.098633" height="1.098633"/>
<image xlink:href="tile69_16.png" preserveAspectRatio="none" x="14175.65918" y="-4316.52832" width="1.098633" height="1.098633"/>
<image xlink:href="tile69_15.png" preserveAspectRatio="none" x="14175.65918" y="-4317.626953" width="1.098633" height="1.098633"/>
<image xlink:href="tile69_14.png" preserveAspectRatio="none" x="14175.65918" y="-4318.725586" width="1.098633" height="1.098633"/>
<image xlink:href="tile70_28.png" preserveAspectRatio="none" x="14176.757812" y="-4303.344727" width="1.098633" height="1.098633"/>
<image xlink:href="tile70_27.png" preserveAspectRatio="none" x="14176.757812" y="-4304.443359" width="1.098633" height="1.098633"/>
<image xlink:href="tile70_26.png" preserveAspectRatio="none" x="14176.757812" y="-4305.541992" width="1.098633" height="1.098633"/>
<image xlink:href="tile70_25.png" preserveAspectRatio="none" x="14176.757812" y="-4306.640625" width="1.098633" height="1.098633"/>
<image xlink:href="tile70_24.png" preserveAspectRatio="none" x="14176.757812" y="-4307.739258" width="1.098633" height="1.098633"/>
<image xlink:href="tile70_17.png" preserveAspectRatio="none" x="14176.757812" y="-4315.429688" width="1.098633" height="1.098633"/>
<image xlink:href="tile70_16.png" preserveAspectRatio="none" x="14176.757812" y="-4316.52832" width="1.098633" height="1.098633"/>
<image xlink:href="tile70_15.png" preserveAspectRatio="none" x="14176.757812" y="-4317.626953" width="1.098633" height="1.098633"/>
<image xlink:href="tile70_14.png" preserveAspectRatio="none" x="14176.757812" y="-4318.725586" width="1.098633" height="1.098633"/>
<image xlink:href="tile71_29.png" preserveAspectRatio="none" x="14177.856445" y="-4302.246094" width="1.098633" height="1.098633"/>
<image xlink:href="tile71_28.png" preserveAspectRatio="none" x="14177.856445" y="-4303.344727" width="1.098633" height="1.098633"/>
<image xlink:href="tile71_27.png" preserveAspectRatio="none" x="14177.856445" y="-4304.443359" width="1.098633" height="1.098633"/>
<image xlink:href="tile71_26.png" preserveAspectRatio="none" x="14177.856445" y="-4305.541992" width="1.098633" height="1.098633"/>
<image xlink:href="tile71_25.png" preserveAspectRatio="none" x="14177.856445" y="-4306.640625" width="1.098633" height="1.098633"/>
<image xlink:href="tile71_17.png" preserveAspectRatio="none" x="14177.856445" y="-4315.429688" width="1.098633" height="1.098633"/>
<image xlink:href="tile71_16.png" preserveAspectRatio="none" x="14177.856445" y="-4316.52832" width="1.098633" height="1.098633"/>
<image xlink:href="tile72_29.png" preserveAspectRatio="none" x="14178.955078" y="-4302.246094" width="1.098633" height="1.098633"/>
<image xlink:href="tile72_28.png" preserveAspectRatio="none" x="14178.955078" y="-4303.344727" width="1.098633" height="1.098633"/>
<image xlink:href="tile72_27.png" preserveAspectRatio="none" x="14178.955078" y="-4304.443359" width="1.098633" height="1.098633"/>
<image xlink:href="tile72_26.png" preserveAspectRatio="none" x="14178.955078" y="-4305.541992" width="1.098633" height="1.098633"/>
<image xlink:href="tile72_25.png" preserveAspectRatio="none" x="14178.955078" y="-4306.640625" width="1.098633" height="1.098633"/>
<image xlink:href="tile72_17.png" preserveAspectRatio="none" x="14178.955078" y="-4315.429688" width="1.098633" height="1.098633"/>
<image xlink:href="tile72_16.png" preserveAspectRatio="none" x="14178.955078" y="-4316.52832" width="1.098633" height="1.098633"/>
<image xlink:href="tile73_29.png" preserveAspectRatio="none" x="14180.053711" y="-4302.246094" width="1.098633" height="1.098633"/>
<image xlink:href="tile73_28.png" preserveAspectRatio="none" x="14180.053711" y="-4303.344727" width="1.098633" height="1.098633"/>
<image xlink:href="tile73_27.png" preserveAspectRatio="none" x="14180.053711" y="-4304.443359" width="1.098633" height="1.098633"/>
<image xlink:href="tile73_26.png" preserveAspectRatio="none" x="14180.053711" y="-4305.541992" width="1.098633" height="1.098633"/>
<image xlink:href="tile73_25.png" preserveAspectRatio="none" x="14180.053711" y="-4306.640625" width="1.098633" height="1.098633"/>
<image xlink:href="tile73_17.png" preserveAspectRatio="none" x="14180.053711" y="-4315.429688" width="1.098633" height="1.098633"/>
<image xlink:href="tile73_16.png" preserveAspectRatio="none" x="14180.053711" y="-4316.52832" width="1.098633" height="1.098633"/>
<image xlink:href="tile74_29.png" preserveAspectRatio="none" x="14181.152344" y="-4302.246094" width="1.098633" height="1.098633"/>
<image xlink:href="tile74_28.png" preserveAspectRatio="none" x="14181.152344" y="-4303.344727" width="1.098633" height="1.098633"/>
<image xlink:href="tile74_27.png" preserveAspectRatio="none" x="14181.152344" y="-4304.443359" width="1.098633" height="1.098633"/>
<image xlink:href="tile74_26.png" preserveAspectRatio="none" x="14181.152344" y="-4305.541992" width="1.098633" height="1.098633"/>
<image xlink:href="tile74_17.png" preserveAspectRatio="none" x="14181.152344" y="-4315.429688" width="1.098633" height="1.098633"/>
<image xlink:href="tile74_16.png" preserveAspectRatio="none" x="14181.152344" y="-4316.52832" width="1.098633" height="1.098633"/>
<image xlink:href="tile74_15.png" preserveAspectRatio="none" x="14181.152344" y="-4317.626953" width="1.098633" height="1.098633"/>
<image xlink:href="tile75_29.png" preserveAspectRatio="none" x="14182.250977" y="-4302.246094" width="1.098633" height="1.098633"/>
<image xlink:href="tile75_28.png" preserveAspectRatio="none" x="14182.250977" y="-4303.344727" width="1.098633" height="1.098633"/>
<image xlink:href="tile75_16.png" preserveAspectRatio="none" x="14182.250977" y="-4316.52832" width="1.098633" height="1.098633"/>
<image xlink:href="tile75_15.png" preserveAspectRatio="none" x="14182.250977" y="-4317.626953" width="1.098633" height="1.098633"/>
<image xlink:href="tile76_16.png" preserveAspectRatio="none" x="14183.349609" y="-4316.52832" width="1.098633" height="1.098633"/>
<image xlink:href="tile76_15.png" preserveAspectRatio="none" x="14183.349609" y="-4317.626953" width="1.098633" height="1.098633"/>
<image xlink:href="tile77_16.png" preserveAspectRatio="none" x="14184.448242" y="-4316.52832" width="1.098633" height="1.098633"/>
<image xlink:href="tile77_15.png" preserveAspectRatio="none" x="14184.448242" y="-4317.626953" width="1.098633" height="1.098633"/>
<image xlink:href="tile78_16.png" preserveAspectRatio="none" x="14185.546875" y="-4316.52832" width="1.098633" height="1.098633"/>
<image xlink:href="tile79_16.png" preserveAspectRatio="none" x="14186.645508" y="-4316.52832" width="1.098633" height="1.098633"/>
</g>
</svg>
