<?xml version="1.0" encoding="UTF-8"?>
<svg  xmlns="http://www.w3.org/2000/svg" xmlns:xlink="http://www.w3.org/1999/xlink" xmlns:go="http://purl.org/svgmap/profile" viewBox="14100.0 -4333.3333330000005 100.0 66.66666630000009" go:dataArea="14100.0 -4333.3333330000005 100.0 66.66666630000009" >
<metadata>
 <rdf:RDF xmlns:rdf="http://www.w3.org/1999/02/22-rdf-syntax-ns#" xmlns:crs="http://opengis.org/xmldtds/transformations.dtd" xmlns:svg="http://www.w3.org/svg" >
  <rdf:Description>
   <crs:CoordinateReferenceSystem rdf:resource="http://purl.org/crs/84" svg:transform="matrix(100.0,0.0,0.0,-100.0,0.0,0.0)" />
  </rdf:Description>
 </rdf:RDF>
</metadata>
<globalCoordinateSystem srsName="http://purl.org/crs/84" transform="matrix(100.0,0.0,0.0,-100.0,0.0,0.0)" />
<g >
<image xlink:href="tile64_42.png" preserveAspectRatio="none" x="14170.166016" y="-4287.963867" width="1.098633" height="1.098633"/>
<image xlink:href="tile64_41.png" preserveAspectRatio="none" x="14170.166016" y="-4289.0625" width="1.098633" height="1.098633"/>
<image xlink:href="tile64_40.png" preserveAspectRatio="none" x="14170.166016" y="-4290.161133" width="1.098633" height="1.098633"/>
<image xlink:href="tile64_39.png" preserveAspectRatio="none" x="14170.166016" y="-4291.259766" width="1.098633" height="1.098633"/>
<image xlink:href="tile64_38.png" preserveAspectRatio="none" x="14170.166016" y="-4292.358398" width="1.098633" height="1.098633"/>
<image xlink:href="tile64_37.png" preserveAspectRatio="none" x="14170.166016" y="-4293.457031" width="1.098633" height="1.098633"/>
<image xlink:href="tile64_36.png" preserveAspectRatio="none" x="14170.166016" y="-4294.555664" width="1.098633" height="1.098633"/>
<image xlink:href="tile64_35.png" preserveAspectRatio="none" x="14170.166016" y="-4295.654297" width="1.098633" height="1.098633"/>
<image xlink:href="tile64_34.png" preserveAspectRatio="none" x="14170.166016" y="-4296.75293" width="1.098633" height="1.098633"/>
<image xlink:href="tile64_32.png" preserveAspectRatio="none" x="14170.166016" y="-4298.950195" width="1.098633" height="1.098633"/>
<image xlink:href="tile64_31.png" preserveAspectRatio="none" x="14170.166016" y="-4300.048828" width="1.098633" height="1.098633"/>
<image xlink:href="tile64_30.png" preserveAspectRatio="none" x="14170.166016" y="-4301.147461" width="1.098633" height="1.098633"/>
<image xlink:href="tile65_40.png" preserveAspectRatio="none" x="14171.264648" y="-4290.161133" width="1.098633" height="1.098633"/>
<image xlink:href="tile65_39.png" preserveAspectRatio="none" x="14171.264648" y="-4291.259766" width="1.098633" height="1.098633"/>
<image xlink:href="tile65_38.png" preserveAspectRatio="none" x="14171.264648" y="-4292.358398" width="1.098633" height="1.098633"/>
<image xlink:href="tile65_37.png" preserveAspectRatio="none" x="14171.264648" y="-4293.457031" width="1.098633" height="1.098633"/>
<image xlink:href="tile65_35.png" preserveAspectRatio="none" x="14171.264648" y="-4295.654297" width="1.098633" height="1.098633"/>
<image xlink:href="tile65_31.png" preserveAspectRatio="none" x="14171.264648" y="-4300.048828" width="1.098633" height="1.098633"/>
<image xlink:href="tile66_39.png" preserveAspectRatio="none" x="14172.363281" y="-4291.259766" width="1.098633" height="1.098633"/>
<image xlink:href="tile67_39.png" preserveAspectRatio="none" x="14173.461914" y="-4291.259766" width="1.098633" height="1.098633"/>
<image xlink:href="tile72_30.png" preserveAspectRatio="none" x="14178.955078" y="-4301.147461" width="1.098633" height="1.098633"/>
<image xlink:href="tile73_43.png" preserveAspectRatio="none" x="14180.053711" y="-4286.865234" width="1.098633" height="1.098633"/>
<image xlink:href="tile73_42.png" preserveAspectRatio="none" x="14180.053711" y="-4287.963867" width="1.098633" height="1.098633"/>
<image xlink:href="tile73_41.png" preserveAspectRatio="none" x="14180.053711" y="-4289.0625" width="1.098633" height="1.098633"/>
<image xlink:href="tile73_30.png" preserveAspectRatio="none" x="14180.053711" y="-4301.147461" width="1.098633" height="1.098633"/>
<image xlink:href="tile74_45.png" preserveAspectRatio="none" x="14181.152344" y="-4284.667969" width="1.098633" height="1.098633"/>
<image xlink:href="tile74_44.png" preserveAspectRatio="none" x="14181.152344" y="-4285.766602" width="1.098633" height="1.098633"/>
<image xlink:href="tile74_43.png" preserveAspectRatio="none" x="14181.152344" y="-4286.865234" width="1.098633" height="1.098633"/>
<image xlink:href="tile74_42.png" preserveAspectRatio="none" x="14181.152344" y="-4287.963867" width="1.098633" height="1.098633"/>
<image xlink:href="tile74_41.png" preserveAspectRatio="none" x="14181.152344" y="-4289.0625" width="1.098633" height="1.098633"/>
<image xlink:href="tile74_40.png" preserveAspectRatio="none" x="14181.152344" y="-4290.161133" width="1.098633" height="1.098633"/>
<image xlink:href="tile74_31.png" preserveAspectRatio="none" x="14181.152344" y="-4300.048828" width="1.098633" height="1.098633"/>
<image xlink:href="tile74_30.png" preserveAspectRatio="none" x="14181.152344" y="-4301.147461" width="1.098633" height="1.098633"/>
<image xlink:href="tile75_45.png" preserveAspectRatio="none" x="14182.250977" y="-4284.667969" width="1.098633" height="1.098633"/>
<image xlink:href="tile75_44.png" preserveAspectRatio="none" x="14182.250977" y="-4285.766602" width="1.098633" height="1.098633"/>
<image xlink:href="tile75_41.png" preserveAspectRatio="none" x="14182.250977" y="-4289.0625" width="1.098633" height="1.098633"/>
<image xlink:href="tile75_40.png" preserveAspectRatio="none" x="14182.250977" y="-4290.161133" width="1.098633" height="1.098633"/>
<image xlink:href="tile75_32.png" preserveAspectRatio="none" x="14182.250977" y="-4298.950195" width="1.098633" height="1.098633"/>
<image xlink:href="tile75_31.png" preserveAspectRatio="none" x="14182.250977" y="-4300.048828" width="1.098633" height="1.098633"/>
<image xlink:href="tile75_30.png" preserveAspectRatio="none" x="14182.250977" y="-4301.147461" width="1.098633" height="1.098633"/>
<image xlink:href="tile76_32.png" preserveAspectRatio="none" x="14183.349609" y="-4298.950195" width="1.098633" height="1.098633"/>
<image xlink:href="tile76_31.png" preserveAspectRatio="none" x="14183.349609" y="-4300.048828" width="1.098633" height="1.098633"/>
<image xlink:href="tile76_30.png" preserveAspectRatio="none" x="14183.349609" y="-4301.147461" width="1.098633" height="1.098633"/>
<image xlink:href="tile77_33.png" preserveAspectRatio="none" x="14184.448242" y="-4297.851562" width="1.098633" height="1.098633"/>
<image xlink:href="tile77_32.png" preserveAspectRatio="none" x="14184.448242" y="-4298.950195" width="1.098633" height="1.098633"/>
<image xlink:href="tile77_31.png" preserveAspectRatio="none" x="14184.448242" y="-4300.048828" width="1.098633" height="1.098633"/>
<image xlink:href="tile77_30.png" preserveAspectRatio="none" x="14184.448242" y="-4301.147461" width="1.098633" height="1.098633"/>
<image xlink:href="tile78_34.png" preserveAspectRatio="none" x="14185.546875" y="-4296.75293" width="1.098633" height="1.098633"/>
<image xlink:href="tile78_33.png" preserveAspectRatio="none" x="14185.546875" y="-4297.851562" width="1.098633" height="1.098633"/>
<image xlink:href="tile78_32.png" preserveAspectRatio="none" x="14185.546875" y="-4298.950195" width="1.098633" height="1.098633"/>
<image xlink:href="tile78_31.png" preserveAspectRatio="none" x="14185.546875" y="-4300.048828" width="1.098633" height="1.098633"/>
<image xlink:href="tile79_36.png" preserveAspectRatio="none" x="14186.645508" y="-4294.555664" width="1.098633" height="1.098633"/>
<image xlink:href="tile79_35.png" preserveAspectRatio="none" x="14186.645508" y="-4295.654297" width="1.098633" height="1.098633"/>
<image xlink:href="tile79_34.png" preserveAspectRatio="none" x="14186.645508" y="-4296.75293" width="1.098633" height="1.098633"/>
<image xlink:href="tile79_33.png" preserveAspectRatio="none" x="14186.645508" y="-4297.851562" width="1.098633" height="1.098633"/>
<image xlink:href="tile79_32.png" preserveAspectRatio="none" x="14186.645508" y="-4298.950195" width="1.098633" height="1.098633"/>
</g>
</svg>
