<?xml version="1.0" encoding="UTF-8"?>
<svg  xmlns="http://www.w3.org/2000/svg" xmlns:xlink="http://www.w3.org/1999/xlink" xmlns:go="http://purl.org/svgmap/profile" viewBox="14100.0 -3933.333333 89.59717269999885 66.66666600000042" go:dataArea="14100.0 -3933.333333 89.59717269999885 66.66666600000042" >
<metadata>
 <rdf:RDF xmlns:rdf="http://www.w3.org/1999/02/22-rdf-syntax-ns#" xmlns:crs="http://opengis.org/xmldtds/transformations.dtd" xmlns:svg="http://www.w3.org/svg" >
  <rdf:Description>
   <crs:CoordinateReferenceSystem rdf:resource="http://purl.org/crs/84" svg:transform="matrix(100.0,0.0,0.0,-100.0,0.0,0.0)" />
  </rdf:Description>
 </rdf:RDF>
</metadata>
<globalCoordinateSystem srsName="http://purl.org/crs/84" transform="matrix(100.0,0.0,0.0,-100.0,0.0,0.0)" />
<g >
<image xlink:href="tile0_15.png" preserveAspectRatio="none" x="14097.65625" y="-3871.582031" width="4.394531" height="4.394531"/>
<image xlink:href="tile0_14.png" preserveAspectRatio="none" x="14097.65625" y="-3875.976562" width="4.394531" height="4.394531"/>
<image xlink:href="tile0_13.png" preserveAspectRatio="none" x="14097.65625" y="-3880.371094" width="4.394531" height="4.394531"/>
<image xlink:href="tile0_6.png" preserveAspectRatio="none" x="14097.65625" y="-3911.132812" width="4.394531" height="4.394531"/>
<image xlink:href="tile0_5.png" preserveAspectRatio="none" x="14097.65625" y="-3915.527344" width="4.394531" height="4.394531"/>
<image xlink:href="tile1_16.png" preserveAspectRatio="none" x="14102.050781" y="-3867.1875" width="4.394531" height="4.394531"/>
<image xlink:href="tile1_15.png" preserveAspectRatio="none" x="14102.050781" y="-3871.582031" width="4.394531" height="4.394531"/>
<image xlink:href="tile1_14.png" preserveAspectRatio="none" x="14102.050781" y="-3875.976562" width="4.394531" height="4.394531"/>
<image xlink:href="tile1_13.png" preserveAspectRatio="none" x="14102.050781" y="-3880.371094" width="4.394531" height="4.394531"/>
<image xlink:href="tile1_12.png" preserveAspectRatio="none" x="14102.050781" y="-3884.765625" width="4.394531" height="4.394531"/>
<image xlink:href="tile1_7.png" preserveAspectRatio="none" x="14102.050781" y="-3906.738281" width="4.394531" height="4.394531"/>
<image xlink:href="tile1_5.png" preserveAspectRatio="none" x="14102.050781" y="-3915.527344" width="4.394531" height="4.394531"/>
<image xlink:href="tile1_4.png" preserveAspectRatio="none" x="14102.050781" y="-3919.921875" width="4.394531" height="4.394531"/>
<image xlink:href="tile2_16.png" preserveAspectRatio="none" x="14106.445312" y="-3867.1875" width="4.394531" height="4.394531"/>
<image xlink:href="tile2_15.png" preserveAspectRatio="none" x="14106.445312" y="-3871.582031" width="4.394531" height="4.394531"/>
<image xlink:href="tile2_14.png" preserveAspectRatio="none" x="14106.445312" y="-3875.976562" width="4.394531" height="4.394531"/>
<image xlink:href="tile2_13.png" preserveAspectRatio="none" x="14106.445312" y="-3880.371094" width="4.394531" height="4.394531"/>
<image xlink:href="tile2_12.png" preserveAspectRatio="none" x="14106.445312" y="-3884.765625" width="4.394531" height="4.394531"/>
<image xlink:href="tile2_9.png" preserveAspectRatio="none" x="14106.445312" y="-3897.949219" width="4.394531" height="4.394531"/>
<image xlink:href="tile2_8.png" preserveAspectRatio="none" x="14106.445312" y="-3902.34375" width="4.394531" height="4.394531"/>
<image xlink:href="tile2_7.png" preserveAspectRatio="none" x="14106.445312" y="-3906.738281" width="4.394531" height="4.394531"/>
<image xlink:href="tile2_5.png" preserveAspectRatio="none" x="14106.445312" y="-3915.527344" width="4.394531" height="4.394531"/>
<image xlink:href="tile2_4.png" preserveAspectRatio="none" x="14106.445312" y="-3919.921875" width="4.394531" height="4.394531"/>
<image xlink:href="tile2_3.png" preserveAspectRatio="none" x="14106.445312" y="-3924.316406" width="4.394531" height="4.394531"/>
<image xlink:href="tile2_2.png" preserveAspectRatio="none" x="14106.445312" y="-3928.710938" width="4.394531" height="4.394531"/>
<image xlink:href="tile3_16.png" preserveAspectRatio="none" x="14110.839844" y="-3867.1875" width="4.394531" height="4.394531"/>
<image xlink:href="tile3_15.png" preserveAspectRatio="none" x="14110.839844" y="-3871.582031" width="4.394531" height="4.394531"/>
<image xlink:href="tile3_14.png" preserveAspectRatio="none" x="14110.839844" y="-3875.976562" width="4.394531" height="4.394531"/>
<image xlink:href="tile3_13.png" preserveAspectRatio="none" x="14110.839844" y="-3880.371094" width="4.394531" height="4.394531"/>
<image xlink:href="tile3_12.png" preserveAspectRatio="none" x="14110.839844" y="-3884.765625" width="4.394531" height="4.394531"/>
<image xlink:href="tile3_10.png" preserveAspectRatio="none" x="14110.839844" y="-3893.554688" width="4.394531" height="4.394531"/>
<image xlink:href="tile3_9.png" preserveAspectRatio="none" x="14110.839844" y="-3897.949219" width="4.394531" height="4.394531"/>
<image xlink:href="tile3_8.png" preserveAspectRatio="none" x="14110.839844" y="-3902.34375" width="4.394531" height="4.394531"/>
<image xlink:href="tile3_7.png" preserveAspectRatio="none" x="14110.839844" y="-3906.738281" width="4.394531" height="4.394531"/>
<image xlink:href="tile3_6.png" preserveAspectRatio="none" x="14110.839844" y="-3911.132812" width="4.394531" height="4.394531"/>
<image xlink:href="tile3_5.png" preserveAspectRatio="none" x="14110.839844" y="-3915.527344" width="4.394531" height="4.394531"/>
<image xlink:href="tile3_4.png" preserveAspectRatio="none" x="14110.839844" y="-3919.921875" width="4.394531" height="4.394531"/>
<image xlink:href="tile3_3.png" preserveAspectRatio="none" x="14110.839844" y="-3924.316406" width="4.394531" height="4.394531"/>
<image xlink:href="tile3_2.png" preserveAspectRatio="none" x="14110.839844" y="-3928.710938" width="4.394531" height="4.394531"/>
<image xlink:href="tile3_1.png" preserveAspectRatio="none" x="14110.839844" y="-3933.105469" width="4.394531" height="4.394531"/>
<image xlink:href="tile4_16.png" preserveAspectRatio="none" x="14115.234375" y="-3867.1875" width="4.394531" height="4.394531"/>
<image xlink:href="tile4_15.png" preserveAspectRatio="none" x="14115.234375" y="-3871.582031" width="4.394531" height="4.394531"/>
<image xlink:href="tile4_14.png" preserveAspectRatio="none" x="14115.234375" y="-3875.976562" width="4.394531" height="4.394531"/>
<image xlink:href="tile4_13.png" preserveAspectRatio="none" x="14115.234375" y="-3880.371094" width="4.394531" height="4.394531"/>
<image xlink:href="tile4_12.png" preserveAspectRatio="none" x="14115.234375" y="-3884.765625" width="4.394531" height="4.394531"/>
<image xlink:href="tile4_10.png" preserveAspectRatio="none" x="14115.234375" y="-3893.554688" width="4.394531" height="4.394531"/>
<image xlink:href="tile4_9.png" preserveAspectRatio="none" x="14115.234375" y="-3897.949219" width="4.394531" height="4.394531"/>
<image xlink:href="tile4_7.png" preserveAspectRatio="none" x="14115.234375" y="-3906.738281" width="4.394531" height="4.394531"/>
<image xlink:href="tile4_6.png" preserveAspectRatio="none" x="14115.234375" y="-3911.132812" width="4.394531" height="4.394531"/>
<image xlink:href="tile4_5.png" preserveAspectRatio="none" x="14115.234375" y="-3915.527344" width="4.394531" height="4.394531"/>
<image xlink:href="tile4_4.png" preserveAspectRatio="none" x="14115.234375" y="-3919.921875" width="4.394531" height="4.394531"/>
<image xlink:href="tile4_3.png" preserveAspectRatio="none" x="14115.234375" y="-3924.316406" width="4.394531" height="4.394531"/>
<image xlink:href="tile4_1.png" preserveAspectRatio="none" x="14115.234375" y="-3933.105469" width="4.394531" height="4.394531"/>
<image xlink:href="tile5_16.png" preserveAspectRatio="none" x="14119.628906" y="-3867.1875" width="4.394531" height="4.394531"/>
<image xlink:href="tile5_15.png" preserveAspectRatio="none" x="14119.628906" y="-3871.582031" width="4.394531" height="4.394531"/>
<image xlink:href="tile5_14.png" preserveAspectRatio="none" x="14119.628906" y="-3875.976562" width="4.394531" height="4.394531"/>
<image xlink:href="tile5_13.png" preserveAspectRatio="none" x="14119.628906" y="-3880.371094" width="4.394531" height="4.394531"/>
<image xlink:href="tile5_12.png" preserveAspectRatio="none" x="14119.628906" y="-3884.765625" width="4.394531" height="4.394531"/>
<image xlink:href="tile5_10.png" preserveAspectRatio="none" x="14119.628906" y="-3893.554688" width="4.394531" height="4.394531"/>
<image xlink:href="tile5_9.png" preserveAspectRatio="none" x="14119.628906" y="-3897.949219" width="4.394531" height="4.394531"/>
<image xlink:href="tile5_8.png" preserveAspectRatio="none" x="14119.628906" y="-3902.34375" width="4.394531" height="4.394531"/>
<image xlink:href="tile5_5.png" preserveAspectRatio="none" x="14119.628906" y="-3915.527344" width="4.394531" height="4.394531"/>
<image xlink:href="tile5_4.png" preserveAspectRatio="none" x="14119.628906" y="-3919.921875" width="4.394531" height="4.394531"/>
<image xlink:href="tile5_3.png" preserveAspectRatio="none" x="14119.628906" y="-3924.316406" width="4.394531" height="4.394531"/>
<image xlink:href="tile6_16.png" preserveAspectRatio="none" x="14124.023438" y="-3867.1875" width="4.394531" height="4.394531"/>
<image xlink:href="tile6_15.png" preserveAspectRatio="none" x="14124.023438" y="-3871.582031" width="4.394531" height="4.394531"/>
<image xlink:href="tile6_14.png" preserveAspectRatio="none" x="14124.023438" y="-3875.976562" width="4.394531" height="4.394531"/>
<image xlink:href="tile6_13.png" preserveAspectRatio="none" x="14124.023438" y="-3880.371094" width="4.394531" height="4.394531"/>
<image xlink:href="tile6_12.png" preserveAspectRatio="none" x="14124.023438" y="-3884.765625" width="4.394531" height="4.394531"/>
<image xlink:href="tile6_11.png" preserveAspectRatio="none" x="14124.023438" y="-3889.160156" width="4.394531" height="4.394531"/>
<image xlink:href="tile6_10.png" preserveAspectRatio="none" x="14124.023438" y="-3893.554688" width="4.394531" height="4.394531"/>
<image xlink:href="tile6_9.png" preserveAspectRatio="none" x="14124.023438" y="-3897.949219" width="4.394531" height="4.394531"/>
<image xlink:href="tile6_8.png" preserveAspectRatio="none" x="14124.023438" y="-3902.34375" width="4.394531" height="4.394531"/>
<image xlink:href="tile6_3.png" preserveAspectRatio="none" x="14124.023438" y="-3924.316406" width="4.394531" height="4.394531"/>
<image xlink:href="tile7_16.png" preserveAspectRatio="none" x="14128.417969" y="-3867.1875" width="4.394531" height="4.394531"/>
<image xlink:href="tile7_15.png" preserveAspectRatio="none" x="14128.417969" y="-3871.582031" width="4.394531" height="4.394531"/>
<image xlink:href="tile7_14.png" preserveAspectRatio="none" x="14128.417969" y="-3875.976562" width="4.394531" height="4.394531"/>
<image xlink:href="tile7_13.png" preserveAspectRatio="none" x="14128.417969" y="-3880.371094" width="4.394531" height="4.394531"/>
<image xlink:href="tile7_12.png" preserveAspectRatio="none" x="14128.417969" y="-3884.765625" width="4.394531" height="4.394531"/>
<image xlink:href="tile7_11.png" preserveAspectRatio="none" x="14128.417969" y="-3889.160156" width="4.394531" height="4.394531"/>
<image xlink:href="tile7_10.png" preserveAspectRatio="none" x="14128.417969" y="-3893.554688" width="4.394531" height="4.394531"/>
<image xlink:href="tile7_8.png" preserveAspectRatio="none" x="14128.417969" y="-3902.34375" width="4.394531" height="4.394531"/>
<image xlink:href="tile7_7.png" preserveAspectRatio="none" x="14128.417969" y="-3906.738281" width="4.394531" height="4.394531"/>
<image xlink:href="tile7_3.png" preserveAspectRatio="none" x="14128.417969" y="-3924.316406" width="4.394531" height="4.394531"/>
<image xlink:href="tile8_14.png" preserveAspectRatio="none" x="14132.8125" y="-3875.976562" width="4.394531" height="4.394531"/>
<image xlink:href="tile8_10.png" preserveAspectRatio="none" x="14132.8125" y="-3893.554688" width="4.394531" height="4.394531"/>
<image xlink:href="tile8_9.png" preserveAspectRatio="none" x="14132.8125" y="-3897.949219" width="4.394531" height="4.394531"/>
<image xlink:href="tile8_8.png" preserveAspectRatio="none" x="14132.8125" y="-3902.34375" width="4.394531" height="4.394531"/>
<image xlink:href="tile8_4.png" preserveAspectRatio="none" x="14132.8125" y="-3919.921875" width="4.394531" height="4.394531"/>
<image xlink:href="tile8_3.png" preserveAspectRatio="none" x="14132.8125" y="-3924.316406" width="4.394531" height="4.394531"/>
<image xlink:href="tile9_9.png" preserveAspectRatio="none" x="14137.207031" y="-3897.949219" width="4.394531" height="4.394531"/>
<image xlink:href="tile9_8.png" preserveAspectRatio="none" x="14137.207031" y="-3902.34375" width="4.394531" height="4.394531"/>
<image xlink:href="tile9_7.png" preserveAspectRatio="none" x="14137.207031" y="-3906.738281" width="4.394531" height="4.394531"/>
<image xlink:href="tile9_1.png" preserveAspectRatio="none" x="14137.207031" y="-3933.105469" width="4.394531" height="4.394531"/>
<image xlink:href="tile10_12.png" preserveAspectRatio="none" x="14141.601562" y="-3884.765625" width="4.394531" height="4.394531"/>
<image xlink:href="tile10_10.png" preserveAspectRatio="none" x="14141.601562" y="-3893.554688" width="4.394531" height="4.394531"/>
<image xlink:href="tile10_9.png" preserveAspectRatio="none" x="14141.601562" y="-3897.949219" width="4.394531" height="4.394531"/>
<image xlink:href="tile10_7.png" preserveAspectRatio="none" x="14141.601562" y="-3906.738281" width="4.394531" height="4.394531"/>
<image xlink:href="tile10_6.png" preserveAspectRatio="none" x="14141.601562" y="-3911.132812" width="4.394531" height="4.394531"/>
<image xlink:href="tile10_1.png" preserveAspectRatio="none" x="14141.601562" y="-3933.105469" width="4.394531" height="4.394531"/>
<image xlink:href="tile11_13.png" preserveAspectRatio="none" x="14145.996094" y="-3880.371094" width="4.394531" height="4.394531"/>
<image xlink:href="tile11_12.png" preserveAspectRatio="none" x="14145.996094" y="-3884.765625" width="4.394531" height="4.394531"/>
<image xlink:href="tile11_10.png" preserveAspectRatio="none" x="14145.996094" y="-3893.554688" width="4.394531" height="4.394531"/>
<image xlink:href="tile11_9.png" preserveAspectRatio="none" x="14145.996094" y="-3897.949219" width="4.394531" height="4.394531"/>
<image xlink:href="tile11_5.png" preserveAspectRatio="none" x="14145.996094" y="-3915.527344" width="4.394531" height="4.394531"/>
<image xlink:href="tile11_4.png" preserveAspectRatio="none" x="14145.996094" y="-3919.921875" width="4.394531" height="4.394531"/>
<image xlink:href="tile11_1.png" preserveAspectRatio="none" x="14145.996094" y="-3933.105469" width="4.394531" height="4.394531"/>
<image xlink:href="tile12_13.png" preserveAspectRatio="none" x="14150.390625" y="-3880.371094" width="4.394531" height="4.394531"/>
<image xlink:href="tile12_11.png" preserveAspectRatio="none" x="14150.390625" y="-3889.160156" width="4.394531" height="4.394531"/>
<image xlink:href="tile12_10.png" preserveAspectRatio="none" x="14150.390625" y="-3893.554688" width="4.394531" height="4.394531"/>
<image xlink:href="tile12_8.png" preserveAspectRatio="none" x="14150.390625" y="-3902.34375" width="4.394531" height="4.394531"/>
<image xlink:href="tile12_7.png" preserveAspectRatio="none" x="14150.390625" y="-3906.738281" width="4.394531" height="4.394531"/>
<image xlink:href="tile12_6.png" preserveAspectRatio="none" x="14150.390625" y="-3911.132812" width="4.394531" height="4.394531"/>
<image xlink:href="tile12_5.png" preserveAspectRatio="none" x="14150.390625" y="-3915.527344" width="4.394531" height="4.394531"/>
<image xlink:href="tile12_4.png" preserveAspectRatio="none" x="14150.390625" y="-3919.921875" width="4.394531" height="4.394531"/>
<image xlink:href="tile12_1.png" preserveAspectRatio="none" x="14150.390625" y="-3933.105469" width="4.394531" height="4.394531"/>
<image xlink:href="tile13_11.png" preserveAspectRatio="none" x="14154.785156" y="-3889.160156" width="4.394531" height="4.394531"/>
<image xlink:href="tile13_10.png" preserveAspectRatio="none" x="14154.785156" y="-3893.554688" width="4.394531" height="4.394531"/>
<image xlink:href="tile13_9.png" preserveAspectRatio="none" x="14154.785156" y="-3897.949219" width="4.394531" height="4.394531"/>
<image xlink:href="tile13_8.png" preserveAspectRatio="none" x="14154.785156" y="-3902.34375" width="4.394531" height="4.394531"/>
<image xlink:href="tile13_7.png" preserveAspectRatio="none" x="14154.785156" y="-3906.738281" width="4.394531" height="4.394531"/>
<image xlink:href="tile13_6.png" preserveAspectRatio="none" x="14154.785156" y="-3911.132812" width="4.394531" height="4.394531"/>
<image xlink:href="tile13_5.png" preserveAspectRatio="none" x="14154.785156" y="-3915.527344" width="4.394531" height="4.394531"/>
<image xlink:href="tile13_4.png" preserveAspectRatio="none" x="14154.785156" y="-3919.921875" width="4.394531" height="4.394531"/>
<image xlink:href="tile13_2.png" preserveAspectRatio="none" x="14154.785156" y="-3928.710938" width="4.394531" height="4.394531"/>
<image xlink:href="tile13_1.png" preserveAspectRatio="none" x="14154.785156" y="-3933.105469" width="4.394531" height="4.394531"/>
<image xlink:href="tile14_11.png" preserveAspectRatio="none" x="14159.179688" y="-3889.160156" width="4.394531" height="4.394531"/>
<image xlink:href="tile14_8.png" preserveAspectRatio="none" x="14159.179688" y="-3902.34375" width="4.394531" height="4.394531"/>
<image xlink:href="tile14_7.png" preserveAspectRatio="none" x="14159.179688" y="-3906.738281" width="4.394531" height="4.394531"/>
<image xlink:href="tile14_4.png" preserveAspectRatio="none" x="14159.179688" y="-3919.921875" width="4.394531" height="4.394531"/>
<image xlink:href="tile14_2.png" preserveAspectRatio="none" x="14159.179688" y="-3928.710938" width="4.394531" height="4.394531"/>
<image xlink:href="tile15_8.png" preserveAspectRatio="none" x="14163.574219" y="-3902.34375" width="4.394531" height="4.394531"/>
<image xlink:href="tile15_6.png" preserveAspectRatio="none" x="14163.574219" y="-3911.132812" width="4.394531" height="4.394531"/>
<image xlink:href="tile15_5.png" preserveAspectRatio="none" x="14163.574219" y="-3915.527344" width="4.394531" height="4.394531"/>
<image xlink:href="tile15_3.png" preserveAspectRatio="none" x="14163.574219" y="-3924.316406" width="4.394531" height="4.394531"/>
<image xlink:href="tile15_2.png" preserveAspectRatio="none" x="14163.574219" y="-3928.710938" width="4.394531" height="4.394531"/>
</g>
</svg>
