<?xml version="1.0" encoding="UTF-8"?>
<svg  xmlns="http://www.w3.org/2000/svg" xmlns:xlink="http://www.w3.org/1999/xlink" xmlns:go="http://purl.org/svgmap/profile" viewBox="13700.0 -3666.666667 100.0 57.041725099999496" go:dataArea="13700.0 -3666.666667 100.0 57.041725099999496" >
<metadata>
 <rdf:RDF xmlns:rdf="http://www.w3.org/1999/02/22-rdf-syntax-ns#" xmlns:crs="http://opengis.org/xmldtds/transformations.dtd" xmlns:svg="http://www.w3.org/svg" >
  <rdf:Description>
   <crs:CoordinateReferenceSystem rdf:resource="http://purl.org/crs/84" svg:transform="matrix(100.0,0.0,0.0,-100.0,0.0,0.0)" />
  </rdf:Description>
 </rdf:RDF>
</metadata>
<globalCoordinateSystem srsName="http://purl.org/crs/84" transform="matrix(100.0,0.0,0.0,-100.0,0.0,0.0)" />
<g >
<image xlink:href="tile18_4.png" preserveAspectRatio="none" x="13776.855469" y="-3651.855469" width="4.394531" height="4.394531"/>
<image xlink:href="tile19_11.png" preserveAspectRatio="none" x="13781.25" y="-3621.09375" width="4.394531" height="4.394531"/>
<image xlink:href="tile19_10.png" preserveAspectRatio="none" x="13781.25" y="-3625.488281" width="4.394531" height="4.394531"/>
<image xlink:href="tile19_7.png" preserveAspectRatio="none" x="13781.25" y="-3638.671875" width="4.394531" height="4.394531"/>
<image xlink:href="tile19_6.png" preserveAspectRatio="none" x="13781.25" y="-3643.066406" width="4.394531" height="4.394531"/>
<image xlink:href="tile19_5.png" preserveAspectRatio="none" x="13781.25" y="-3647.460938" width="4.394531" height="4.394531"/>
<image xlink:href="tile19_4.png" preserveAspectRatio="none" x="13781.25" y="-3651.855469" width="4.394531" height="4.394531"/>
<image xlink:href="tile19_1.png" preserveAspectRatio="none" x="13781.25" y="-3665.039062" width="4.394531" height="4.394531"/>
<image xlink:href="tile19_0.png" preserveAspectRatio="none" x="13781.25" y="-3669.433594" width="4.394531" height="4.394531"/>
<image xlink:href="tile20_11.png" preserveAspectRatio="none" x="13785.644531" y="-3621.09375" width="4.394531" height="4.394531"/>
<image xlink:href="tile20_10.png" preserveAspectRatio="none" x="13785.644531" y="-3625.488281" width="4.394531" height="4.394531"/>
<image xlink:href="tile20_9.png" preserveAspectRatio="none" x="13785.644531" y="-3629.882812" width="4.394531" height="4.394531"/>
<image xlink:href="tile20_8.png" preserveAspectRatio="none" x="13785.644531" y="-3634.277344" width="4.394531" height="4.394531"/>
<image xlink:href="tile20_7.png" preserveAspectRatio="none" x="13785.644531" y="-3638.671875" width="4.394531" height="4.394531"/>
<image xlink:href="tile20_6.png" preserveAspectRatio="none" x="13785.644531" y="-3643.066406" width="4.394531" height="4.394531"/>
<image xlink:href="tile20_5.png" preserveAspectRatio="none" x="13785.644531" y="-3647.460938" width="4.394531" height="4.394531"/>
<image xlink:href="tile20_4.png" preserveAspectRatio="none" x="13785.644531" y="-3651.855469" width="4.394531" height="4.394531"/>
<image xlink:href="tile21_13.png" preserveAspectRatio="none" x="13790.039062" y="-3612.304688" width="4.394531" height="4.394531"/>
<image xlink:href="tile21_12.png" preserveAspectRatio="none" x="13790.039062" y="-3616.699219" width="4.394531" height="4.394531"/>
<image xlink:href="tile21_11.png" preserveAspectRatio="none" x="13790.039062" y="-3621.09375" width="4.394531" height="4.394531"/>
<image xlink:href="tile21_10.png" preserveAspectRatio="none" x="13790.039062" y="-3625.488281" width="4.394531" height="4.394531"/>
<image xlink:href="tile21_9.png" preserveAspectRatio="none" x="13790.039062" y="-3629.882812" width="4.394531" height="4.394531"/>
<image xlink:href="tile21_8.png" preserveAspectRatio="none" x="13790.039062" y="-3634.277344" width="4.394531" height="4.394531"/>
<image xlink:href="tile21_7.png" preserveAspectRatio="none" x="13790.039062" y="-3638.671875" width="4.394531" height="4.394531"/>
<image xlink:href="tile21_6.png" preserveAspectRatio="none" x="13790.039062" y="-3643.066406" width="4.394531" height="4.394531"/>
<image xlink:href="tile21_5.png" preserveAspectRatio="none" x="13790.039062" y="-3647.460938" width="4.394531" height="4.394531"/>
<image xlink:href="tile22_13.png" preserveAspectRatio="none" x="13794.433594" y="-3612.304688" width="4.394531" height="4.394531"/>
<image xlink:href="tile22_12.png" preserveAspectRatio="none" x="13794.433594" y="-3616.699219" width="4.394531" height="4.394531"/>
<image xlink:href="tile22_11.png" preserveAspectRatio="none" x="13794.433594" y="-3621.09375" width="4.394531" height="4.394531"/>
<image xlink:href="tile22_10.png" preserveAspectRatio="none" x="13794.433594" y="-3625.488281" width="4.394531" height="4.394531"/>
<image xlink:href="tile22_9.png" preserveAspectRatio="none" x="13794.433594" y="-3629.882812" width="4.394531" height="4.394531"/>
<image xlink:href="tile22_5.png" preserveAspectRatio="none" x="13794.433594" y="-3647.460938" width="4.394531" height="4.394531"/>
<image xlink:href="tile22_4.png" preserveAspectRatio="none" x="13794.433594" y="-3651.855469" width="4.394531" height="4.394531"/>
<image xlink:href="tile22_3.png" preserveAspectRatio="none" x="13794.433594" y="-3656.25" width="4.394531" height="4.394531"/>
<image xlink:href="tile23_10.png" preserveAspectRatio="none" x="13798.828125" y="-3625.488281" width="4.394531" height="4.394531"/>
<image xlink:href="tile23_9.png" preserveAspectRatio="none" x="13798.828125" y="-3629.882812" width="4.394531" height="4.394531"/>
<image xlink:href="tile23_3.png" preserveAspectRatio="none" x="13798.828125" y="-3656.25" width="4.394531" height="4.394531"/>
<image xlink:href="tile23_2.png" preserveAspectRatio="none" x="13798.828125" y="-3660.644531" width="4.394531" height="4.394531"/>
</g>
</svg>
